<?xml version="1.0" encoding="UTF-8"?>
<svg width="37px" height="26px" viewBox="0 0 37 26" version="1.1" xmlns="http://www.w3.org/2000/svg" xmlns:xlink="http://www.w3.org/1999/xlink">
    <!-- Generator: sketchtool 52.3 (67297) - http://www.bohemiancoding.com/sketch -->
    <title>7681D2DF-B612-496E-A84C-31E0A7ACCD72</title>
    <desc>Created with sketchtool.</desc>
    <g id="Page-1" stroke="none" stroke-width="1" fill="none" fill-rule="evenodd">
        <g id="Post-768" transform="translate(-365.000000, -3851.000000)" fill="#FEBB16">
            <g id="Quote" transform="translate(22.000000, 3851.000000)">
                <g id="quote" transform="translate(343.000000, 0.000000)">
                    <path d="M28.4375,1.77635684e-15 C32.917625,1.77635684e-15 36.5625,3.644875 36.5625,8.125 C36.5625,15.224625 32.6324375,22.516 27.2179375,25.462125 C26.9709375,25.5961875 26.7044375,25.6595625 26.4428125,25.6595625 C25.86675,25.6595625 25.30775,25.3524375 25.013625,24.8113125 C24.584625,24.022375 24.8763125,23.036 25.6644375,22.607 C28.146625,21.256625 30.278625,18.6558125 31.656625,15.582125 C30.668625,16.0095 29.5806875,16.25 28.4375,16.25 C23.957375,16.25 20.3125,12.605125 20.3125,8.125 C20.3125,3.644875 23.957375,1.77635684e-15 28.4375,1.77635684e-15 Z M8.125,1.77635684e-15 C12.605125,1.77635684e-15 16.25,3.644875 16.25,8.125 C16.25,15.224625 12.3199375,22.516 6.9054375,25.462125 C6.6584375,25.5961875 6.39275,25.6595625 6.1303125,25.6595625 C5.5534375,25.6595625 4.9960625,25.3524375 4.701125,24.8113125 C4.272125,24.022375 4.5638125,23.036 5.3519375,22.607 C7.8333125,21.256625 9.9653125,18.6558125 11.344125,15.582125 C10.356125,16.0103125 9.2681875,16.25 8.125,16.25 C3.644875,16.25 0,12.605125 0,8.125 C0,3.644875 3.644875,1.77635684e-15 8.125,1.77635684e-15 Z"></path>
                </g>
            </g>
        </g>
    </g>
</svg>