<?xml version="1.0" encoding="utf-8"?>
<!-- Generator: Adobe Illustrator 22.1.0, SVG Export Plug-In . SVG Version: 6.00 Build 0)  -->
<svg version="1.1" id="Layer_1" xmlns="http://www.w3.org/2000/svg" xmlns:xlink="http://www.w3.org/1999/xlink" x="0px" y="0px"
	 width="100px" height="100px" viewBox="0 0 100 100" style="enable-background:new 0 0 100 100;" xml:space="preserve">
<style type="text/css">
	.st0{fill:none;stroke:url(#SVGID_1_);stroke-width:3;stroke-linecap:round;stroke-linejoin:round;}
	.st1{fill:none;stroke:url(#SVGID_2_);stroke-width:3;stroke-linecap:round;stroke-linejoin:round;}
	.st2{fill:none;stroke:url(#SVGID_3_);stroke-width:3;stroke-linecap:round;stroke-linejoin:round;}
	.st3{fill:none;stroke:url(#SVGID_4_);stroke-width:3;}
	.st4{fill:none;stroke:url(#SVGID_5_);stroke-width:3;}
</style>
<linearGradient id="SVGID_1_" gradientUnits="userSpaceOnUse" x1="57.2313" y1="81.9898" x2="60.6013" y2="101.6198" gradientTransform="matrix(1 0 0 1 -8.5 -11.5)">
	<stop  offset="0" style="stop-color:#2EE5FF"/>
	<stop  offset="1" style="stop-color:#44D83D"/>
</linearGradient>
<path class="st0" d="M50.7,84.7l39.6-4.5l-39.4-4.7l-40.4,4.7L50.7,84.7z"/>
<linearGradient id="SVGID_2_" gradientUnits="userSpaceOnUse" x1="53.5616" y1="50.9762" x2="102.9615" y2="71.3562" gradientTransform="matrix(1 0 0 1 -8.5 -11.5)">
	<stop  offset="0" style="stop-color:#2EE5FF"/>
	<stop  offset="1" style="stop-color:#44D83D"/>
</linearGradient>
<path class="st1" d="M50.5,74.3V15.5l39.2,9.8v54.1"/>
<linearGradient id="SVGID_3_" gradientUnits="userSpaceOnUse" x1="14.3307" y1="49.2283" x2="64.6507" y2="70.0783" gradientTransform="matrix(1 0 0 1 -8.5 -11.5)">
	<stop  offset="0" style="stop-color:#2EE5FF"/>
	<stop  offset="1" style="stop-color:#44D83D"/>
</linearGradient>
<path class="st2" d="M50.5,15.5l-39.4,8.8l-0.6,56.1"/>
<linearGradient id="SVGID_4_" gradientUnits="userSpaceOnUse" x1="62.5622" y1="55.7171" x2="93.0422" y2="69.6571" gradientTransform="matrix(1 0 0 1 -8.5 -11.5)">
	<stop  offset="0" style="stop-color:#2EE5FF"/>
	<stop  offset="1" style="stop-color:#44D83D"/>
</linearGradient>
<path class="st3" d="M65.8,61.5c7.3,1.4,10.9-2,10.9-10.2s-3.6-13-10.9-14.4l-2.5-0.5V61L65.8,61.5z M58.2,64.5
	c-0.5-0.7-0.8-1.5-0.7-2.4v-29c-0.1-0.8,0.2-1.5,0.7-2.1c0.6-0.4,1.3-0.6,2-0.4l5.9,1.1c4.7,0.8,9,3.3,12.1,7
	c2.9,3.6,4.3,8.2,4.3,13.8s-1.4,9.6-4.3,12.1c-2.9,2.5-6.9,3.3-12.1,2.2l-5.9-1.2C59.5,65.5,58.8,65.1,58.2,64.5z"/>
<linearGradient id="SVGID_5_" gradientUnits="userSpaceOnUse" x1="25.5994" y1="54.0502" x2="55.6894" y2="68.3102" gradientTransform="matrix(1 0 0 1 -8.5 -11.5)">
	<stop  offset="0" style="stop-color:#2EE5FF"/>
	<stop  offset="1" style="stop-color:#44D83D"/>
</linearGradient>
<path class="st4" d="M42.8,49.6c1.2,1.4,1.8,3.1,1.7,4.9c0,2.9-1.2,5.6-3.4,7.6c-2.5,2.3-5.7,3.8-9.1,4.4c-2.1,0.4-4.2,0.5-6.3,0.3
	c-1.8-0.2-3.6-0.8-5.1-1.7c-0.7-0.4-1.2-1.2-1.1-2c0-0.7,0.2-1.4,0.6-2c0.3-0.5,0.9-0.9,1.5-1c0.3-0.1,0.6-0.1,0.9,0
	c0.4,0.1,0.7,0.2,1.1,0.3c1.3,0.6,2.6,1,4,1.3c1.4,0.2,2.8,0.2,4.2-0.1c1.8-0.3,3.5-1,4.9-2.2c1.1-1.1,1.7-2.6,1.6-4.2
	c0.2-1.4-0.5-2.7-1.7-3.4c-1.1-0.6-2.8-0.7-5.1-0.3L28.6,52c-0.6,0.2-1.3,0-1.8-0.4c-0.4-0.4-0.6-1-0.6-1.6c0-0.7,0.2-1.3,0.6-1.8
	c0.4-0.6,1.1-0.9,1.8-1l2-0.4c4.6-0.8,6.9-2.9,6.9-6.2c0.1-1.3-0.4-2.5-1.5-3.3c-1.2-0.7-2.6-0.9-4-0.5c-2.9,0.7-5.6,2.1-7.8,4.2
	c-0.5,0.3-0.8,0.6-1.1,0.8c-0.3,0.2-0.6,0.3-0.9,0.3c-0.6,0.1-1.1-0.1-1.5-0.5c-0.4-0.5-0.7-1.1-0.6-1.7c0-0.4,0.1-0.9,0.3-1.3
	c0.2-0.4,0.5-0.8,0.9-1.2c1.5-1.4,3.2-2.6,5-3.5c1.9-1,3.9-1.6,6-2c3.5-0.6,6.3-0.2,8.3,1c2.1,1.3,3.2,3.5,3.1,5.9
	c0,1.8-0.6,3.6-1.5,5.1c-1,1.6-2.5,2.9-4.2,3.8C39.8,47.6,41.5,48.3,42.8,49.6z"/>
</svg>
