<svg id="Слой_1" data-name="Слой 1" xmlns="http://www.w3.org/2000/svg" xmlns:xlink="http://www.w3.org/1999/xlink" viewBox="0 0 82.8 72.22"><defs><style>.cls-1,.cls-2,.cls-3,.cls-4,.cls-5{fill:none;stroke-width:3px;}.cls-1,.cls-2,.cls-3{stroke-linecap:round;stroke-linejoin:round;}.cls-1{stroke:url(#Безымянный_градиент_5);}.cls-2{stroke:url(#Безымянный_градиент_5-2);}.cls-3{stroke:url(#Безымянный_градиент_5-3);}.cls-4{stroke:url(#Безымянный_градиент_5-4);}.cls-5{stroke:url(#Безымянный_градиент_5-5);}</style><linearGradient id="Безымянный_градиент_5" x1="48.23" y1="32.01" x2="51.6" y2="12.38" gradientTransform="matrix(1, 0, 0, -1, 0, 102)" gradientUnits="userSpaceOnUse"><stop offset="0" stop-color="#2ee5ff"/><stop offset="1" stop-color="#44d83d"/></linearGradient><linearGradient id="Безымянный_градиент_5-2" x1="44.56" y1="63.02" x2="93.96" y2="42.64" xlink:href="#Безымянный_градиент_5"/><linearGradient id="Безымянный_градиент_5-3" x1="5.33" y1="64.77" x2="55.65" y2="43.92" xlink:href="#Безымянный_градиент_5"/><linearGradient id="Безымянный_градиент_5-4" x1="53.57" y1="58.3" x2="84.05" y2="44.36" xlink:href="#Безымянный_градиент_5"/><linearGradient id="Безымянный_градиент_5-5" x1="16.59" y1="59.93" x2="46.68" y2="45.67" xlink:href="#Безымянный_градиент_5"/></defs><title>3d-icon</title><path class="cls-1" d="M50.2,84.22l39.6-4.51L50.39,75,10,79.71Z" transform="translate(-8.5 -13.5)"/><path class="cls-2" d="M50,73.82V15l39.22,9.8V78.92" transform="translate(-8.5 -13.5)"/><path class="cls-3" d="M50,15,10.59,23.82,10,79.9" transform="translate(-8.5 -13.5)"/><path class="cls-4" d="M65.29,61Q76.21,63.17,76.2,50.81T65.29,36.38l-2.49-.49V60.53ZM57.74,64A3.74,3.74,0,0,1,57,61.59v-29a2.65,2.65,0,0,1,.74-2.09,2.28,2.28,0,0,1,2-.4l5.86,1.15a19.53,19.53,0,0,1,12.06,7Q82,43.65,82,52T77.71,64.08q-4.29,3.77-12.06,2.24l-5.86-1.15A3.33,3.33,0,0,1,57.74,64Z" transform="translate(-8.5 -13.5)"/><path class="cls-5" d="M42.32,49.12A7,7,0,0,1,44,54.05a10.17,10.17,0,0,1-3.36,7.56A17.79,17.79,0,0,1,31.55,66a19.75,19.75,0,0,1-6.28.3,12.2,12.2,0,0,1-5.12-1.69A2.32,2.32,0,0,1,19,62.56a3.29,3.29,0,0,1,.63-2,2.4,2.4,0,0,1,1.48-1,2.27,2.27,0,0,1,.9,0,9.45,9.45,0,0,1,1.11.34,17.43,17.43,0,0,0,4,1.3,11.14,11.14,0,0,0,4.17-.1,9.48,9.48,0,0,0,4.92-2.23,5.58,5.58,0,0,0,1.6-4.16,3.55,3.55,0,0,0-1.68-3.44Q34.46,50.38,31,51l-2.86.54a1.91,1.91,0,0,1-1.79-.42,2.19,2.19,0,0,1-.62-1.6,3.07,3.07,0,0,1,.62-1.85,2.76,2.76,0,0,1,1.79-1.05l2-.37Q37,45,37,40.1a3.66,3.66,0,0,0-1.46-3.28,5.33,5.33,0,0,0-4-.55,17.08,17.08,0,0,0-7.83,4.16q-.71.51-1.11.75a2.54,2.54,0,0,1-.9.33A1.58,1.58,0,0,1,20.18,41a2.35,2.35,0,0,1-.63-1.72A2.77,2.77,0,0,1,19.83,38a4.91,4.91,0,0,1,.88-1.2,20.37,20.37,0,0,1,5-3.55,21.2,21.2,0,0,1,6-2q5.22-.87,8.31,1a6.48,6.48,0,0,1,3.09,5.94,9.82,9.82,0,0,1-1.53,5.1,11,11,0,0,1-4.15,3.79A6.88,6.88,0,0,1,42.32,49.12Z" transform="translate(-8.5 -13.5)"/></svg>