<?xml version="1.0" encoding="utf-8"?>
<!-- Generator: Adobe Illustrator 19.2.0, SVG Export Plug-In . SVG Version: 6.00 Build 0)  -->
<svg version="1.1" id="Layer_1" xmlns="http://www.w3.org/2000/svg" xmlns:xlink="http://www.w3.org/1999/xlink" x="0px" y="0px"
	 width="120px" height="140px" viewBox="0 0 120 140" style="enable-background:new 0 0 120 140;" xml:space="preserve">
<style type="text/css">
	.st0{fill:#0C071F;}
	.st1{fill:#124AFF;}
</style>
<path class="st0" d="M32,115.2h-5.4l-1.1,2.6h-1.5l4.6-10.2H30l4.6,10.2h-1.5L32,115.2z M31.5,114l-2.2-5l-2.2,5H31.5z M40.1,109.9
	c1,0,1.8,0.3,2.3,0.9c0.6,0.6,0.9,1.4,0.9,2.5v4.5h-1.4v-4.3c0-0.8-0.2-1.3-0.5-1.7c-0.4-0.4-0.9-0.6-1.5-0.6
	c-0.8,0-1.4,0.2-1.8,0.7c-0.4,0.4-0.7,1.1-0.7,1.9v4H36V110h1.3v1.2c0.3-0.4,0.7-0.7,1.1-0.9C38.9,110,39.5,109.9,40.1,109.9z
	 M48.7,109.9c1.1,0,1.9,0.3,2.5,0.8c0.6,0.5,0.9,1.3,0.9,2.4v4.7h-1.3v-1c-0.2,0.4-0.6,0.6-1,0.8c-0.4,0.2-0.9,0.3-1.5,0.3
	c-0.9,0-1.6-0.2-2.1-0.6c-0.5-0.4-0.8-1-0.8-1.6c0-0.7,0.2-1.2,0.7-1.6c0.5-0.4,1.3-0.6,2.4-0.6h2.2V113c0-0.6-0.2-1.1-0.5-1.4
	c-0.4-0.3-0.9-0.5-1.5-0.5c-0.5,0-0.9,0.1-1.3,0.2c-0.4,0.1-0.8,0.3-1.1,0.6l-0.6-1.1c0.4-0.3,0.9-0.6,1.4-0.7
	C47.5,110,48.1,109.9,48.7,109.9z M48.4,116.7c0.5,0,1-0.1,1.4-0.4c0.4-0.2,0.7-0.6,0.8-1v-1.1h-2.2c-1.2,0-1.8,0.4-1.8,1.2
	c0,0.4,0.2,0.7,0.5,0.9S47.9,116.7,48.4,116.7z M54.6,106.9H56v10.8h-1.4V106.9z M65.6,110l-3.8,8.5c-0.3,0.8-0.7,1.3-1.2,1.7
	c-0.4,0.3-1,0.5-1.6,0.5c-0.4,0-0.7-0.1-1.1-0.2c-0.4-0.1-0.6-0.3-0.9-0.5l0.6-1.1c0.4,0.4,0.9,0.6,1.4,0.6c0.3,0,0.6-0.1,0.8-0.3
	c0.2-0.2,0.4-0.5,0.6-0.9l0.2-0.5l-3.4-7.7h1.5l2.7,6.2l2.7-6.2H65.6z M71.4,117.3c-0.2,0.2-0.5,0.3-0.8,0.4
	c-0.3,0.1-0.6,0.1-0.9,0.1c-0.8,0-1.4-0.2-1.8-0.6c-0.4-0.4-0.6-1-0.6-1.8v-4.2H66V110h1.3v-1.7h1.4v1.7h2.2v1.2h-2.2v4.2
	c0,0.4,0.1,0.7,0.3,1c0.2,0.2,0.5,0.3,0.9,0.3c0.4,0,0.8-0.1,1.1-0.4L71.4,117.3z M73.1,110h1.4v7.7h-1.4V110z M73.8,108.5
	c-0.3,0-0.5-0.1-0.7-0.3c-0.2-0.2-0.3-0.4-0.3-0.6c0-0.3,0.1-0.5,0.3-0.6c0.2-0.2,0.4-0.3,0.7-0.3c0.3,0,0.5,0.1,0.7,0.3
	c0.2,0.2,0.3,0.4,0.3,0.6c0,0.3-0.1,0.5-0.3,0.7C74.3,108.4,74.1,108.5,73.8,108.5z M80.6,117.8c-0.8,0-1.5-0.2-2.1-0.5
	c-0.6-0.3-1.1-0.8-1.4-1.4c-0.4-0.6-0.5-1.3-0.5-2c0-0.8,0.2-1.4,0.5-2c0.4-0.6,0.8-1.1,1.4-1.4c0.6-0.3,1.3-0.5,2.1-0.5
	c0.7,0,1.3,0.1,1.9,0.4c0.6,0.3,1,0.7,1.3,1.2l-1.1,0.7c-0.2-0.4-0.5-0.6-0.9-0.8c-0.4-0.2-0.8-0.3-1.2-0.3c-0.5,0-1,0.1-1.4,0.3
	c-0.4,0.2-0.7,0.5-0.9,1c-0.2,0.4-0.3,0.9-0.3,1.4c0,0.5,0.1,1,0.3,1.4c0.2,0.4,0.6,0.7,0.9,0.9c0.4,0.2,0.9,0.3,1.4,0.3
	c0.4,0,0.8-0.1,1.2-0.3c0.4-0.2,0.7-0.5,0.9-0.8l1.1,0.7c-0.3,0.5-0.7,0.9-1.3,1.2C81.9,117.7,81.3,117.8,80.6,117.8z M88.4,109.9
	c1.1,0,1.9,0.3,2.5,0.8c0.6,0.5,0.9,1.3,0.9,2.4v4.7h-1.3v-1c-0.2,0.4-0.6,0.6-1,0.8c-0.4,0.2-0.9,0.3-1.5,0.3
	c-0.9,0-1.6-0.2-2.1-0.6c-0.5-0.4-0.8-1-0.8-1.6c0-0.7,0.2-1.2,0.7-1.6c0.5-0.4,1.3-0.6,2.4-0.6h2.2V113c0-0.6-0.2-1.1-0.5-1.4
	c-0.4-0.3-0.9-0.5-1.5-0.5c-0.5,0-0.9,0.1-1.3,0.2c-0.4,0.1-0.8,0.3-1.1,0.6l-0.6-1.1c0.4-0.3,0.9-0.6,1.4-0.7
	C87.2,110,87.7,109.9,88.4,109.9z M88,116.7c0.5,0,1-0.1,1.4-0.4c0.4-0.2,0.7-0.6,0.8-1v-1.1h-2.2c-1.2,0-1.8,0.4-1.8,1.2
	c0,0.4,0.2,0.7,0.5,0.9C87.1,116.6,87.5,116.7,88,116.7z M94.3,106.9h1.4v10.8h-1.4V106.9z M33.5,125.5c1.3,0,2.4,0.3,3.1,1
	c0.8,0.6,1.1,1.5,1.1,2.6s-0.4,2-1.1,2.6c-0.8,0.6-1.8,0.9-3.1,0.9H31v3.1h-1.5v-10.2H33.5z M33.4,131.4c0.9,0,1.6-0.2,2.1-0.6
	c0.5-0.4,0.7-1,0.7-1.7s-0.2-1.3-0.7-1.7c-0.5-0.4-1.2-0.6-2.1-0.6H31v4.6H33.4z M39.8,124.9h1.4v10.8h-1.4V124.9z M46.7,127.9
	c1.1,0,1.9,0.3,2.5,0.8c0.6,0.5,0.9,1.3,0.9,2.4v4.7h-1.3v-1c-0.2,0.4-0.6,0.6-1,0.8c-0.4,0.2-0.9,0.3-1.5,0.3
	c-0.9,0-1.6-0.2-2.1-0.6c-0.5-0.4-0.8-1-0.8-1.7c0-0.7,0.2-1.2,0.7-1.6c0.5-0.4,1.3-0.6,2.4-0.6h2.2V131c0-0.6-0.2-1.1-0.5-1.4
	c-0.4-0.3-0.9-0.5-1.5-0.5c-0.5,0-0.9,0.1-1.3,0.2c-0.4,0.1-0.8,0.3-1.1,0.6l-0.6-1.1c0.4-0.3,0.9-0.6,1.4-0.7
	C45.5,128,46.1,127.9,46.7,127.9z M46.4,134.7c0.5,0,1-0.1,1.4-0.4c0.4-0.2,0.7-0.6,0.8-1v-1.1h-2.2c-1.2,0-1.8,0.4-1.8,1.2
	c0,0.4,0.2,0.7,0.5,0.9C45.5,134.6,45.9,134.7,46.4,134.7z M57,135.3c-0.2,0.2-0.5,0.3-0.8,0.4c-0.3,0.1-0.6,0.1-0.9,0.1
	c-0.8,0-1.4-0.2-1.8-0.6c-0.4-0.4-0.6-1-0.6-1.8v-4.2h-1.3V128h1.3v-1.7h1.4v1.7h2.2v1.2h-2.2v4.2c0,0.4,0.1,0.7,0.3,1
	c0.2,0.2,0.5,0.3,0.9,0.3c0.4,0,0.8-0.1,1.1-0.4L57,135.3z M61.5,126c-0.8,0-1.3,0.5-1.3,1.4v0.7h2.2v1.2h-2.2v6.6h-1.4v-6.6h-1.3
	V128h1.3v-0.7c0-0.8,0.2-1.4,0.7-1.8c0.4-0.4,1.1-0.7,1.9-0.7c0.3,0,0.6,0,0.9,0.1c0.3,0.1,0.5,0.2,0.7,0.3l-0.4,1.1
	C62.3,126.1,61.9,126,61.5,126z M67,135.8c-0.8,0-1.5-0.2-2.1-0.5c-0.6-0.3-1.1-0.8-1.4-1.4c-0.3-0.6-0.5-1.3-0.5-2
	c0-0.8,0.2-1.4,0.5-2c0.4-0.6,0.8-1.1,1.4-1.4c0.6-0.3,1.3-0.5,2.1-0.5s1.5,0.2,2.1,0.5c0.6,0.3,1.1,0.8,1.4,1.4
	c0.4,0.6,0.5,1.3,0.5,2c0,0.8-0.2,1.4-0.5,2c-0.3,0.6-0.8,1.1-1.4,1.4C68.5,135.7,67.8,135.8,67,135.8z M67,134.6
	c0.5,0,0.9-0.1,1.3-0.3c0.4-0.2,0.7-0.6,0.9-1c0.2-0.4,0.3-0.9,0.3-1.4c0-0.5-0.1-1-0.3-1.4c-0.2-0.4-0.5-0.7-0.9-1
	c-0.4-0.2-0.8-0.3-1.3-0.3c-0.5,0-0.9,0.1-1.3,0.3c-0.4,0.2-0.7,0.5-0.9,1c-0.2,0.4-0.3,0.9-0.3,1.4c0,0.5,0.1,1,0.3,1.4
	c0.2,0.4,0.5,0.7,0.9,1C66.1,134.5,66.5,134.6,67,134.6z M74.3,129.3c0.2-0.4,0.6-0.8,1.1-1c0.5-0.2,1.1-0.4,1.7-0.4v1.4
	c-0.1,0-0.2,0-0.3,0c-0.8,0-1.4,0.2-1.8,0.7c-0.4,0.4-0.6,1.1-0.6,1.9v3.9H73V128h1.3V129.3z M88.6,127.9c1,0,1.7,0.3,2.3,0.8
	c0.6,0.6,0.9,1.4,0.9,2.5v4.5h-1.4v-4.3c0-0.8-0.2-1.3-0.5-1.7c-0.3-0.4-0.8-0.6-1.5-0.6c-0.7,0-1.3,0.2-1.7,0.7
	c-0.4,0.4-0.6,1.1-0.6,1.9v4h-1.4v-4.3c0-0.8-0.2-1.3-0.5-1.7c-0.3-0.4-0.8-0.6-1.5-0.6c-0.7,0-1.3,0.2-1.7,0.7
	c-0.4,0.4-0.6,1.1-0.6,1.9v4h-1.4V128h1.3v1.2c0.3-0.4,0.7-0.7,1.1-0.9c0.5-0.2,1-0.3,1.6-0.3c0.6,0,1.1,0.1,1.6,0.4
	c0.5,0.2,0.8,0.6,1.1,1.1c0.3-0.4,0.7-0.8,1.2-1.1C87.3,128.1,87.9,127.9,88.6,127.9z"/>
<path class="st1" d="M20.4,6.5v54.6h78.8V6.5H20.4z M98,59.9H21.6V7.8H98V59.9z"/>
<path class="st1" d="M59.2,56.3h1.2V34.4h34v-1.2h-34V11.4h-1.2v21.8h-34v1.2h34V56.3z"/>
<path class="st1" d="M72.5,21.1h-1.2v7.3h1.2V21.1z"/>
<path class="st1" d="M79.8,23.5h-1.2v4.9h1.2V23.5z"/>
<path class="st1" d="M87.1,21.1h-1.2v7.3h1.2V21.1z"/>
<path class="st1" d="M68.9,23.5h-1.2v4.9h1.2V23.5z"/>
<path class="st1" d="M83.4,17.5h-1.2v10.9h1.2V17.5z"/>
<path class="st1" d="M50.7,13.8H36.1V15h14.6V13.8z"/>
<path class="st1" d="M50.7,19.9H36.1v1.2h14.6V19.9z"/>
<path class="st1" d="M50.7,26H36.1v1.2h14.6V26z"/>
<path class="st1" d="M76.2,15H75v13.3h1.2V15z"/>
<path class="st1" d="M84.7,46.6h-1.2v7.3h1.2V46.6z"/>
<path class="st1" d="M77.4,51.4h-1.2v2.4h1.2V51.4z"/>
<path class="st1" d="M70.1,44.1h-1.2v9.7h1.2V44.1z"/>
<path class="st1" d="M88.3,42.9h-1.2v10.9h1.2V42.9z"/>
<path class="st1" d="M73.7,47.8h-1.2v6.1h1.2V47.8z"/>
<path class="st1" d="M81,39.3h-1.2v14.6H81V39.3z"/>
<path class="st1" d="M75,70.8H43.4V72H75V70.8z"/>
<path class="st1" d="M32,16.4c-1.1,0-1.9-0.8-1.9-1.9c0-1.1,0.8-1.9,1.9-1.9c1.1,0,1.9,0.8,1.9,1.9C34,15.5,33.1,16.4,32,16.4z
	 M32,13.7c-0.4,0-0.7,0.4-0.7,0.7c0,0.4,0.4,0.7,0.7,0.7c0.4,0,0.7-0.4,0.7-0.7C32.8,14.1,32.4,13.7,32,13.7z"/>
<path class="st1" d="M32,22.2c-1.1,0-1.9-0.8-1.9-1.9c0-1.1,0.8-1.9,1.9-1.9c1.1,0,1.9,0.8,1.9,1.9C34,21.3,33.1,22.2,32,22.2z
	 M32,19.5c-0.4,0-0.7,0.4-0.7,0.7c0,0.4,0.4,0.7,0.7,0.7c0.4,0,0.7-0.4,0.7-0.7C32.8,19.9,32.4,19.5,32,19.5z"/>
<path class="st1" d="M32,28.3c-1.1,0-1.9-0.8-1.9-1.9s0.8-1.9,1.9-1.9c1.1,0,1.9,0.8,1.9,1.9S33.1,28.3,32,28.3z M32,25.6
	c-0.4,0-0.7,0.4-0.7,0.7c0,0.4,0.4,0.7,0.7,0.7c0.4,0,0.7-0.4,0.7-0.7C32.8,26,32.4,25.6,32,25.6z"/>
<path class="st1" d="M50.7,40.5H36.1v1.2h14.6V40.5z"/>
<path class="st1" d="M50.7,46.6H36.1v1.2h14.6V46.6z"/>
<path class="st1" d="M50.7,52.6H36.1v1.2h14.6V52.6z"/>
<path class="st1" d="M32,43.1c-1.1,0-1.9-0.8-1.9-1.9c0-1.1,0.8-1.9,1.9-1.9c1.1,0,1.9,0.8,1.9,1.9C34,42.2,33.1,43.1,32,43.1z
	 M32,40.4c-0.4,0-0.7,0.4-0.7,0.7c0,0.4,0.4,0.7,0.7,0.7c0.4,0,0.7-0.4,0.7-0.7C32.8,40.7,32.4,40.4,32,40.4z"/>
<path class="st1" d="M32,48.9c-1.1,0-1.9-0.8-1.9-1.9c0-1.1,0.8-1.9,1.9-1.9c1.1,0,1.9,0.8,1.9,1.9C34,48,33.1,48.9,32,48.9z
	 M32,46.2c-0.4,0-0.7,0.4-0.7,0.7c0,0.4,0.4,0.7,0.7,0.7c0.4,0,0.7-0.4,0.7-0.7C32.8,46.6,32.4,46.2,32,46.2z"/>
<path class="st1" d="M32,54.9c-1.1,0-1.9-0.8-1.9-1.9s0.8-1.9,1.9-1.9c1.1,0,1.9,0.8,1.9,1.9S33.1,54.9,32,54.9z M32,52.3
	c-0.4,0-0.7,0.4-0.7,0.7c0,0.4,0.4,0.7,0.7,0.7c0.4,0,0.7-0.4,0.7-0.7C32.8,52.6,32.4,52.3,32,52.3z"/>
</svg>
