<?xml version="1.0" encoding="utf-8"?>
<!-- Generator: Adobe Illustrator 22.1.0, SVG Export Plug-In . SVG Version: 6.00 Build 0)  -->
<svg version="1.1" id="Layer_1" xmlns="http://www.w3.org/2000/svg" xmlns:xlink="http://www.w3.org/1999/xlink" x="0px" y="0px"
	 width="100px" height="100px" viewBox="0 0 100 100" style="enable-background:new 0 0 100 100;" xml:space="preserve">
<style type="text/css">
	.st0{fill:url(#SVGID_1_);}
	.st1{fill:url(#SVGID_2_);}
	.st2{fill:url(#SVGID_3_);}
	.st3{fill:url(#SVGID_4_);}
	.st4{fill:url(#SVGID_5_);}
	.st5{fill:url(#SVGID_6_);}
</style>
<linearGradient id="SVGID_1_" gradientUnits="userSpaceOnUse" x1="21.5684" y1="44.489" x2="64.0599" y2="94.0368" gradientTransform="matrix(1 0 0 -1 0 102)">
	<stop  offset="0" style="stop-color:#000000"/>
	<stop  offset="1" style="stop-color:#0E43CB"/>
</linearGradient>
<path class="st0" d="M61.7,11.6l4.2-7c0.5-0.8,0.2-1.8-0.6-2.3C64.5,1.8,63.4,2,63,2.8l-4.4,7.4c-2.6-0.9-5.5-1.5-8.4-1.5
	c-3,0-5.8,0.5-8.4,1.5l-4.4-7.4c-0.5-0.8-1.5-1.1-2.3-0.6c-0.8,0.5-1.1,1.5-0.6,2.3l4.2,7C30.4,15.8,24.8,24.2,24.8,34
	c0,0.9,0.8,1.7,1.7,1.7h47.2c0.9,0,1.7-0.8,1.7-1.7C75.4,24.2,69.8,15.8,61.7,11.6z M28.3,32.3C29.1,21,38.6,12.1,50.1,12.1
	s21,8.9,21.8,20.2H28.3z"/>
<linearGradient id="SVGID_2_" gradientUnits="userSpaceOnUse" x1="56.7068" y1="75.5048" x2="62.1986" y2="79.776" gradientTransform="matrix(1 0 0 -1 0 102)">
	<stop  offset="0" style="stop-color:#000000"/>
	<stop  offset="1" style="stop-color:#0E43CB"/>
</linearGradient>
<path class="st1" d="M61.8,21.1h-2.2c-0.6,0-1.1,0.5-1.1,1.1v2.2c0,0.6,0.5,1.1,1.1,1.1h2.2c0.6,0,1.1-0.5,1.1-1.1v-2.2
	C63,21.6,62.5,21.1,61.8,21.1z"/>
<linearGradient id="SVGID_3_" gradientUnits="userSpaceOnUse" x1="35.4221" y1="75.5048" x2="40.9138" y2="79.7759" gradientTransform="matrix(1 0 0 -1 0 102)">
	<stop  offset="0" style="stop-color:#000000"/>
	<stop  offset="1" style="stop-color:#0E43CB"/>
</linearGradient>
<path class="st2" d="M40.6,21.1h-2.2c-0.6,0-1.1,0.5-1.1,1.1v2.2c0,0.6,0.5,1.1,1.1,1.1h2.2c0.6,0,1.1-0.5,1.1-1.1v-2.2
	C41.7,21.6,41.2,21.1,40.6,21.1z"/>
<linearGradient id="SVGID_4_" gradientUnits="userSpaceOnUse" x1="-3.7783" y1="3.8391" x2="66.8465" y2="49.5934" gradientTransform="matrix(1 0 0 -1 0 102)">
	<stop  offset="0" style="stop-color:#000000"/>
	<stop  offset="1" style="stop-color:#0E43CB"/>
</linearGradient>
<path class="st3" d="M73.7,37.4H26.5c-0.9,0-1.7,0.8-1.7,1.7v34c0,4.5,3.7,8.1,8.1,8.1h2v10.1c0,3.7,3,6.7,6.7,6.7s6.7-3,6.7-6.7
	V81.2h3.4v10.1c0,3.7,3,6.7,6.7,6.7s6.7-3,6.7-6.7V81.2h2c4.5,0,8.1-3.6,8.1-8.1v-34C75.4,38.1,74.6,37.4,73.7,37.4z M72,73
	c0,2.6-2.1,4.8-4.8,4.8h-3.6c-0.9,0-1.7,0.8-1.7,1.7v11.8c0,1.9-1.5,3.4-3.4,3.4c-1.9,0-3.4-1.5-3.4-3.4V79.5c0-0.9-0.8-1.7-1.7-1.7
	h-6.7c-0.9,0-1.7,0.8-1.7,1.7v11.8c0,1.9-1.5,3.4-3.4,3.4c-1.9,0-3.4-1.5-3.4-3.4V79.5c0-0.9-0.8-1.7-1.7-1.7H33
	c-2.6,0-4.8-2.1-4.8-4.8V40.7H72V73z"/>
<linearGradient id="SVGID_5_" gradientUnits="userSpaceOnUse" x1="66.8405" y1="42.7749" x2="88.764" y2="48.4562" gradientTransform="matrix(1 0 0 -1 0 102)">
	<stop  offset="0" style="stop-color:#000000"/>
	<stop  offset="1" style="stop-color:#0E43CB"/>
</linearGradient>
<path class="st4" d="M82.9,37.4c-3.3,0-5.9,2.6-5.9,5.9v23.6c0,3.3,2.6,5.9,5.9,5.9c3.3,0,5.9-2.6,5.9-5.9V43.3
	C88.8,40,86.2,37.4,82.9,37.4z M85.5,66.8c0,1.4-1.1,2.5-2.5,2.5c-1.4,0-2.5-1.1-2.5-2.5V43.3c0-1.4,1.1-2.5,2.5-2.5
	c1.4,0,2.5,1.1,2.5,2.5V66.8z"/>
<linearGradient id="SVGID_6_" gradientUnits="userSpaceOnUse" x1="1.1578" y1="42.7748" x2="23.0812" y2="48.4562" gradientTransform="matrix(1 0 0 -1 0 102)">
	<stop  offset="0" style="stop-color:#000000"/>
	<stop  offset="1" style="stop-color:#0E43CB"/>
</linearGradient>
<path class="st5" d="M17.3,37.4c-3.3,0-5.9,2.6-5.9,5.9v23.6c0,3.3,2.6,5.9,5.9,5.9s5.9-2.6,5.9-5.9V43.3
	C23.1,40,20.5,37.4,17.3,37.4z M19.8,66.8c0,1.4-1.1,2.5-2.5,2.5c-1.4,0-2.5-1.1-2.5-2.5V43.3c0-1.4,1.1-2.5,2.5-2.5
	c1.4,0,2.5,1.1,2.5,2.5V66.8z"/>
</svg>
