<?xml version="1.0" encoding="utf-8"?>
<!-- Generator: Adobe Illustrator 22.1.0, SVG Export Plug-In . SVG Version: 6.00 Build 0)  -->
<svg version="1.1" id="Layer_1" xmlns="http://www.w3.org/2000/svg" xmlns:xlink="http://www.w3.org/1999/xlink" x="0px" y="0px"
	 width="100px" height="100px" viewBox="0 0 100 100" style="enable-background:new 0 0 100 100;" xml:space="preserve">
<style type="text/css">
	.st0{fill:url(#SVGID_1_);}
</style>
<linearGradient id="SVGID_1_" gradientUnits="userSpaceOnUse" x1="49" y1="-46.4465" x2="49" y2="119.936" gradientTransform="matrix(1 0 0 -1 0 102)">
	<stop  offset="0" style="stop-color:#00268C"/>
	<stop  offset="0.3735" style="stop-color:#0089F5"/>
	<stop  offset="1" style="stop-color:#F862FF"/>
</linearGradient>
<path class="st0" d="M87.4,69.4c-7.3-2.3-12.3-8.7-12.3-16.1c0-6.5,3.8-12.3,10-15.2c0.6-0.3,1-0.7,1.2-1.3c0.2-0.6,0.1-1.2-0.2-1.7
	c-0.3-0.4-6.4-10.3-19.5-10.3c-5.5,0-11.5,1.7-17.7,5.2c-2.6-1.5-9-4.7-15.8-4.7c-3.6,0-6.9,0.9-9.7,2.7c-2,1.1-21.9,12.6-11.5,43.6
	c0.3,0.7,7.6,17,16.2,23.1c0.7,0.6,3.5,2.8,7.7,2.8c2.6,0,5.1-0.8,7.6-2.4c0.8-0.3,4.2-1.6,7.8-1.6c2.3,0,4.3,0.5,5.8,1.6
	c0.2,0.1,4,2.6,8.6,2.6c3,0,5.6-1.1,7.6-3.1c1.1-0.9,10.7-9.2,15.7-22.2c0.1-0.3,0.1-0.8,0.1-1.1C88.9,70.4,88.3,69.7,87.4,69.4z
	 M70.2,91.4c-0.1,0-0.1,0.1-0.2,0.2c-1.2,1.2-2.7,1.8-4.5,1.8c-3.1,0-6-1.8-6-1.8c-2.3-1.6-5.1-2.3-8.4-2.3c-5.1,0-9.6,1.9-9.8,2
	c-0.1,0.1-0.3,0.1-0.4,0.2c-1.8,1.2-3.5,1.8-5.2,1.8c-2.8,0-4.6-1.7-4.6-1.7c-0.1-0.1-0.2-0.2-0.3-0.2c-7.6-5.3-14.7-21.2-14.7-21.2
	c-9.6-28.6,8.7-38,9.5-38.3c0.1,0,0.2-0.1,0.2-0.1c2.1-1.3,4.5-2,7.2-2c7.3,0,14.4,4.6,14.4,4.7c0.7,0.5,1.7,0.5,2.4,0.1
	c6-3.5,11.6-5.2,16.6-5.2c7.6,0,12.2,4,14.3,6.4C74.5,39.4,70.7,46,70.7,53.4c0,8.5,5.2,16,13.2,19.4C79,84.1,70.3,91.3,70.2,91.4z
	 M48.3,26.3c0,0,0.1,0,0.2,0c0.2,0,22.7-1.7,21.5-23.9c0-0.6-0.3-1.1-0.8-1.5c-0.5-0.4-1.1-0.6-1.7-0.5c-0.2,0-20.1,2.3-21.4,23.6
	c0,0.6,0.2,1.2,0.7,1.7C47.2,26.1,47.7,26.3,48.3,26.3z M65.5,5.2C65,17,55.6,20.6,50.9,21.6C52.7,10.2,61.2,6.4,65.5,5.2z"/>
</svg>
