<?xml version="1.0" encoding="utf-8"?>
<!-- Generator: Adobe Illustrator 19.2.0, SVG Export Plug-In . SVG Version: 6.00 Build 0)  -->
<svg version="1.1" id="Layer_1" xmlns="http://www.w3.org/2000/svg" xmlns:xlink="http://www.w3.org/1999/xlink" x="0px" y="0px"
	 viewBox="0 0 180 99" style="enable-background:new 0 0 180 99;" xml:space="preserve">
<style type="text/css">
	.st0{fill:url(#SVGID_1_);}
	.st1{fill:url(#SVGID_2_);}
</style>
<linearGradient id="SVGID_1_" gradientUnits="userSpaceOnUse" x1="42.1687" y1="98.6899" x2="42.1687" y2="0.3101" gradientTransform="matrix(1 0 0 -1 0 99)">
	<stop  offset="0" style="stop-color:#FF8F2C"/>
	<stop  offset="1" style="stop-color:#FFCD15"/>
</linearGradient>
<path class="st0" d="M50.6,98.7c-4.3,0-7.7-3.5-7.7-7.7v-9.2h-1.4V91c0,4.3-3.5,7.7-7.7,7.7c-4.3,0-7.7-3.5-7.7-7.7v-9.2h-1
	c-5,0-9.2-4.1-9.2-9.1v-4.3c-0.8,2.9-3.5,5-6.6,5c-3.8,0-6.9-3.1-6.9-6.9V42.7c0-3.8,3.1-6.9,6.9-6.9c3.1,0,5.8,2.1,6.6,5v-2.3
	c0-1.2,0.8-2.2,1.8-2.5c-1.1-0.4-1.8-1.4-1.8-2.5c0-9.5,5.1-18.2,13.4-22.9l-3.7-6.2c-0.8-1.3-0.3-2.9,0.9-3.7
	c0.4-0.2,0.9-0.4,1.4-0.4c0.9,0,1.8,0.5,2.3,1.3l4,6.8c2.6-0.9,5.3-1.3,8-1.3c2.7,0,5.4,0.4,8,1.3l4.1-6.8c0.5-0.8,1.4-1.3,2.3-1.3
	c0.5,0,1,0.1,1.4,0.4c1.3,0.8,1.7,2.4,0.9,3.7l-3.7,6.2c8.3,4.7,13.4,13.4,13.4,22.9c0,1.2-0.8,2.2-1.8,2.5c1.1,0.4,1.8,1.4,1.8,2.5
	v2.3c0.8-2.9,3.5-5,6.6-5c3.8,0,6.9,3.1,6.9,6.9v23.7c0,3.8-3.1,6.9-6.9,6.9c-3.1,0-5.8-2.1-6.6-5v4.3c0,5-4.1,9.1-9.2,9.1h-1V91
	C58.4,95.2,54.9,98.7,50.6,98.7z M45.6,76.4c1.5,0,2.7,1.2,2.7,2.7V91c0,1.3,1.1,2.4,2.4,2.4S53,92.3,53,91V79.1
	c0-1.5,1.2-2.7,2.7-2.7h3.7c2.1,0,3.8-1.7,3.8-3.8V41.2h-42v31.4c0,2.1,1.7,3.8,3.8,3.8h3.7c1.5,0,2.7,1.2,2.7,2.7V91
	c0,1.3,1.1,2.4,2.4,2.4c1.3,0,2.4-1.1,2.4-2.4V79.1c0-1.5,1.2-2.7,2.7-2.7H45.6z M75.2,41.2c-0.9,0-1.6,0.7-1.6,1.6v23.7
	c0,0.9,0.7,1.6,1.6,1.6c0.9,0,1.6-0.7,1.6-1.6V42.7C76.7,41.9,76,41.2,75.2,41.2z M9.2,41.2c-0.9,0-1.6,0.7-1.6,1.6v23.7
	c0,0.9,0.7,1.6,1.6,1.6s1.6-0.7,1.6-1.6V42.7C10.7,41.9,10,41.2,9.2,41.2z M63,30.8c-1.3-10.4-10.3-18.3-20.8-18.3
	s-19.5,8-20.8,18.3H63z M51.7,26c-1.2,0-2.1-0.9-2.1-2.1v-2.2c0-1.2,0.9-2.1,2.1-2.1H54c1.2,0,2.1,0.9,2.1,2.1v2.2
	c0,1.2-0.9,2.1-2.1,2.1H51.7z M30.4,26c-1.2,0-2.1-0.9-2.1-2.1v-2.2c0-1.2,0.9-2.1,2.1-2.1h2.2c1.2,0,2.1,0.9,2.1,2.1v2.2
	c0,1.2-0.9,2.1-2.1,2.1H30.4z"/>
<linearGradient id="SVGID_2_" gradientUnits="userSpaceOnUse" x1="137.533" y1="97.7099" x2="137.533" y2="1.6624" gradientTransform="matrix(1 0 0 -1 0 99)">
	<stop  offset="0" style="stop-color:#FF8F2C"/>
	<stop  offset="1" style="stop-color:#FFCD15"/>
</linearGradient>
<path class="st1" d="M153.8,97.3c-4.6,0-8.5-2.4-8.9-2.7c-1.3-0.9-3.1-1.3-5.2-1.3c-3.2,0-6.2,1-7.2,1.4c-2.6,1.6-5.2,2.4-7.9,2.4
	c-4.4,0-7.3-2.2-8.1-2.9c-8.6-6-15.8-21.8-16.1-22.5c-10.4-30.4,9.4-41.8,11.7-43c2.8-1.8,6.2-2.7,9.9-2.7c6.5,0,12.7,2.9,15.4,4.3
	c6.1-3.2,11.9-4.8,17.4-4.8c13.5,0,19.7,9.9,20,10.3c0.5,0.7,0.6,1.6,0.3,2.5c-0.3,0.8-0.9,1.5-1.7,1.8c-5.7,2.6-9.3,7.8-9.3,13.7
	c0,6.6,4.6,12.4,11.3,14.4c1.2,0.4,2.1,1.4,2.2,2.7c0,0.3,0,1-0.2,1.5c-5,12.7-14.6,20.7-15.7,21.6
	C159.7,96.2,156.9,97.3,153.8,97.3z M148.4,89.6c0.2,0.1,2.8,1.6,5.4,1.6c1.5,0,2.7-0.5,3.7-1.5c0.1-0.1,0.1-0.1,0.2-0.2
	c0.1-0.1,8-6.5,12.8-16.6c-7.7-3.6-12.7-10.9-12.7-19.1c0-6.9,3.5-13.3,9.5-17.3c-2.2-2.1-6.3-5-12.5-5c-4.8,0-10.1,1.6-15.8,4.9
	c-0.5,0.3-1,0.4-1.6,0.4c-0.6,0-1.3-0.2-1.8-0.5c-0.1,0-6.8-4.3-13.6-4.3c-2.5,0-4.7,0.6-6.6,1.8c-0.1,0.1-0.2,0.1-0.3,0.2
	c-0.7,0.3-17.9,8.9-8.8,35.4c0,0,0,0,0,0c1.2,2.5,7.4,15.3,14,19.8c0.1,0.1,0.2,0.2,0.4,0.3c0.1,0.1,1.7,1.4,3.9,1.4
	c1.5,0,3-0.5,4.6-1.5c0.2-0.1,0.3-0.2,0.5-0.3c0.2-0.1,4.8-2,10-2C143.1,87.2,146,88,148.4,89.6z M136.9,28c-0.8,0-1.6-0.3-2.2-0.9
	c-0.7-0.6-1-1.5-1-2.4c1.4-21.1,21.7-23.5,21.9-23.5c0.1,0,0.2,0,0.3,0c0.7,0,1.5,0.3,2,0.7c0.7,0.5,1.1,1.3,1.1,2.2
	c1.2,22.1-21.8,23.9-22,23.9C137,28,136.9,28,136.9,28z M152.6,8.2c-4.2,1.4-10.1,4.8-12,13C145.3,19.9,151.6,16.6,152.6,8.2z"/>
</svg>
