<svg id="Слой_1" data-name="Слой 1" xmlns="http://www.w3.org/2000/svg" xmlns:xlink="http://www.w3.org/1999/xlink" viewBox="0 0 91.44 61.59"><defs><style>.cls-1,.cls-2,.cls-3,.cls-4,.cls-5,.cls-6,.cls-7,.cls-8,.cls-9{fill:none;stroke-width:3px;}.cls-1{stroke:url(#Безымянный_градиент_5);}.cls-2,.cls-3,.cls-4{stroke-linecap:square;}.cls-2{stroke:url(#Безымянный_градиент_5-2);}.cls-3{stroke:url(#Безымянный_градиент_5-3);}.cls-4{stroke:url(#Безымянный_градиент_5-4);}.cls-5{stroke:url(#Безымянный_градиент_5-5);}.cls-6,.cls-7,.cls-8,.cls-9{stroke-linecap:round;}.cls-6{stroke:url(#Безымянный_градиент_5-6);}.cls-7{stroke:url(#Безымянный_градиент_5-7);}.cls-8{stroke:url(#Безымянный_градиент_5-8);}.cls-9{stroke:url(#Безымянный_градиент_5-9);}</style><linearGradient id="Безымянный_градиент_5" x1="16.92" y1="39.4" x2="38.56" y2="29.53" gradientTransform="matrix(1, 0, 0, -1, 0, 102)" gradientUnits="userSpaceOnUse"><stop offset="0" stop-color="#2ee5ff"/><stop offset="1" stop-color="#44d83d"/></linearGradient><linearGradient id="Безымянный_градиент_5-2" x1="17.69" y1="60.22" x2="20.69" y2="60.22" xlink:href="#Безымянный_градиент_5"/><linearGradient id="Безымянный_градиент_5-3" x1="25.53" y1="60.22" x2="28.53" y2="60.22" xlink:href="#Безымянный_градиент_5"/><linearGradient id="Безымянный_градиент_5-4" x1="60.84" y1="60.71" x2="63.84" y2="60.71" xlink:href="#Безымянный_градиент_5"/><linearGradient id="Безымянный_градиент_5-5" x1="72.42" y1="60.62" x2="81.48" y2="58.48" xlink:href="#Безымянный_градиент_5"/><linearGradient id="Безымянный_градиент_5-6" x1="21.27" y1="88.34" x2="67.1" y2="38.2" xlink:href="#Безымянный_градиент_5"/><linearGradient id="Безымянный_градиент_5-7" x1="82.91" y1="76.62" x2="87.25" y2="73.92" xlink:href="#Безымянный_градиент_5"/><linearGradient id="Безымянный_градиент_5-8" x1="86.75" y1="61.39" x2="95.75" y2="61.39" xlink:href="#Безымянный_градиент_5"/><linearGradient id="Безымянный_градиент_5-9" x1="84.97" y1="47.42" x2="88.9" y2="43.91" xlink:href="#Безымянный_градиент_5"/></defs><title>attract-icon</title><path class="cls-1" d="M18.31,55.15l3.54,23a1.3,1.3,0,0,0,1.33,1.1l12.69-.44a1.28,1.28,0,0,0,1.25-1.34,1.35,1.35,0,0,0,0-.29L31.34,55.71a1.29,1.29,0,0,0-1.3-1Z" transform="translate(-4.31 -19.2)"/><path class="cls-2" d="M19.19,31.61V51.94" transform="translate(-4.31 -19.2)"/><path class="cls-3" d="M27,31.61V51.94" transform="translate(-4.31 -19.2)"/><path class="cls-4" d="M62.34,24.84v32.9" transform="translate(-4.31 -19.2)"/><path class="cls-5" d="M73.75,32.71q6.48-.59,6.49,8.9T73.75,51.1" transform="translate(-4.31 -19.2)"/><path class="cls-6" d="M74.06,61.35V22a1.3,1.3,0,0,0-1.3-1.3,1.35,1.35,0,0,0-.52.11A118,118,0,0,1,45,29.06c-14.81,2.55-27.53.13-31.3,1.34a12.24,12.24,0,0,0,0,22.84c4.32,1.47,16-.84,31.3,1.7a130.29,130.29,0,0,1,27.33,7.62h0A1.31,1.31,0,0,0,74,61.83,1.28,1.28,0,0,0,74.06,61.35Z" transform="translate(-4.31 -19.2)"/><path class="cls-7" d="M83,28.9l4.08-4.4" transform="translate(-4.31 -19.2)"/><path class="cls-8" d="M88.25,40.61h6" transform="translate(-4.31 -19.2)"/><path class="cls-9" d="M84.5,54.5l4.79,3.61" transform="translate(-4.31 -19.2)"/></svg>