<?xml version="1.0" encoding="utf-8"?>
<!-- Generator: Adobe Illustrator 22.1.0, SVG Export Plug-In . SVG Version: 6.00 Build 0)  -->
<svg version="1.1" id="Layer_1" xmlns="http://www.w3.org/2000/svg" xmlns:xlink="http://www.w3.org/1999/xlink" x="0px" y="0px"
	 width="100px" height="100px" viewBox="0 0 100 100" style="enable-background:new 0 0 100 100;" xml:space="preserve">
<style type="text/css">
	.st0{fill:none;stroke:url(#SVGID_1_);stroke-width:3;}
	.st1{fill:none;stroke:url(#SVGID_2_);stroke-width:3;stroke-linecap:square;}
	.st2{fill:none;stroke:url(#SVGID_3_);stroke-width:3;stroke-linecap:square;}
	.st3{fill:none;stroke:url(#SVGID_4_);stroke-width:3;stroke-linecap:square;}
	.st4{fill:none;stroke:url(#SVGID_5_);stroke-width:3;}
	.st5{fill:none;stroke:url(#SVGID_6_);stroke-width:3;stroke-linecap:round;}
	.st6{fill:none;stroke:url(#SVGID_7_);stroke-width:3;stroke-linecap:round;}
	.st7{fill:none;stroke:url(#SVGID_8_);stroke-width:3;stroke-linecap:round;}
	.st8{fill:none;stroke:url(#SVGID_9_);stroke-width:3;stroke-linecap:round;}
</style>
<linearGradient id="SVGID_1_" gradientUnits="userSpaceOnUse" x1="21.9345" y1="79.5682" x2="43.5745" y2="89.4382" gradientTransform="matrix(1 0 0 1 -4.31 -17.2)">
	<stop  offset="0" style="stop-color:#2EE5FF"/>
	<stop  offset="1" style="stop-color:#44D83D"/>
</linearGradient>
<path class="st0" d="M19,55l3.5,23c0.1,0.7,0.7,1.1,1.3,1.1l12.7-0.4c0.7,0,1.3-0.6,1.3-1.3c0,0,0,0,0,0c0-0.1,0-0.2,0-0.3L32,55.5
	c-0.1-0.6-0.7-1-1.3-1L19,55z"/>
<linearGradient id="SVGID_2_" gradientUnits="userSpaceOnUse" x1="22.69" y1="58.775" x2="25.69" y2="58.775" gradientTransform="matrix(1 0 0 1 -4.31 -17.2)">
	<stop  offset="0" style="stop-color:#2EE5FF"/>
	<stop  offset="1" style="stop-color:#44D83D"/>
</linearGradient>
<path class="st1" d="M19.9,31.4v20.3"/>
<linearGradient id="SVGID_3_" gradientUnits="userSpaceOnUse" x1="30.53" y1="58.775" x2="33.53" y2="58.775" gradientTransform="matrix(1 0 0 1 -4.31 -17.2)">
	<stop  offset="0" style="stop-color:#2EE5FF"/>
	<stop  offset="1" style="stop-color:#44D83D"/>
</linearGradient>
<path class="st2" d="M27.7,31.4v20.3"/>
<linearGradient id="SVGID_4_" gradientUnits="userSpaceOnUse" x1="65.84" y1="58.29" x2="68.84" y2="58.29" gradientTransform="matrix(1 0 0 1 -4.31 -17.2)">
	<stop  offset="0" style="stop-color:#2EE5FF"/>
	<stop  offset="1" style="stop-color:#44D83D"/>
</linearGradient>
<path class="st3" d="M63,24.6v32.9"/>
<linearGradient id="SVGID_5_" gradientUnits="userSpaceOnUse" x1="77.4208" y1="58.3767" x2="86.4808" y2="60.5167" gradientTransform="matrix(1 0 0 1 -4.31 -17.2)">
	<stop  offset="0" style="stop-color:#2EE5FF"/>
	<stop  offset="1" style="stop-color:#44D83D"/>
</linearGradient>
<path class="st4" d="M74.4,32.5c4.3-0.4,6.5,2.6,6.5,8.9c0,6.3-2.2,9.5-6.5,9.5"/>
<linearGradient id="SVGID_6_" gradientUnits="userSpaceOnUse" x1="26.3083" y1="30.625" x2="72.1383" y2="80.765" gradientTransform="matrix(1 0 0 1 -4.31 -17.2)">
	<stop  offset="0" style="stop-color:#2EE5FF"/>
	<stop  offset="1" style="stop-color:#44D83D"/>
</linearGradient>
<path class="st5" d="M74.8,61.1V21.8c0-0.7-0.6-1.3-1.3-1.3l0,0c-0.2,0-0.4,0-0.5,0.1c-8.7,3.8-17.9,6.6-27.2,8.2
	c-14.8,2.5-27.5,0.1-31.3,1.3c-6.3,2.4-9.4,9.5-7,15.8c1.2,3.2,3.8,5.8,7,7c4.3,1.5,16-0.8,31.3,1.7c9.4,1.5,18.5,4.1,27.3,7.6l0,0
	c0.7,0.2,1.4-0.1,1.7-0.7C74.7,61.5,74.8,61.3,74.8,61.1z"/>
<linearGradient id="SVGID_7_" gradientUnits="userSpaceOnUse" x1="87.9123" y1="42.3763" x2="92.2523" y2="45.0763" gradientTransform="matrix(1 0 0 1 -4.31 -17.2)">
	<stop  offset="0" style="stop-color:#2EE5FF"/>
	<stop  offset="1" style="stop-color:#44D83D"/>
</linearGradient>
<path class="st6" d="M83.7,28.7l4.1-4.4"/>
<linearGradient id="SVGID_8_" gradientUnits="userSpaceOnUse" x1="91.75" y1="57.61" x2="100.75" y2="57.61" gradientTransform="matrix(1 0 0 1 -4.31 -17.2)">
	<stop  offset="0" style="stop-color:#2EE5FF"/>
	<stop  offset="1" style="stop-color:#44D83D"/>
</linearGradient>
<path class="st7" d="M88.9,40.4h6"/>
<linearGradient id="SVGID_9_" gradientUnits="userSpaceOnUse" x1="89.9672" y1="71.5832" x2="93.8972" y2="75.0932" gradientTransform="matrix(1 0 0 1 -4.31 -17.2)">
	<stop  offset="0" style="stop-color:#2EE5FF"/>
	<stop  offset="1" style="stop-color:#44D83D"/>
</linearGradient>
<path class="st8" d="M85.2,54.3l4.8,3.6"/>
</svg>
