<?xml version="1.0" encoding="utf-8"?>
<!-- Generator: Adobe Illustrator 22.1.0, SVG Export Plug-In . SVG Version: 6.00 Build 0)  -->
<svg version="1.1" id="Layer_1" xmlns="http://www.w3.org/2000/svg" xmlns:xlink="http://www.w3.org/1999/xlink" x="0px" y="0px"
	 width="265px" height="90px" viewBox="0 0 265 90" style="enable-background:new 0 0 265 90;" xml:space="preserve">
<style type="text/css">
	.st0{fill:none;}
	.st1{fill:#FFFFFF;}
</style>
<g>
	<path class="st0" d="M62.3,52.1c-4.9-4.6-4.9-13.2,1.9-17.6c0,0,0-0.1,0-0.1c0,0,0,0.1,0,0.1C57.4,38.9,57.3,47.5,62.3,52.1z"/>
	<path d="M263,14.7c0-2.2-0.7-4.1-2.3-5.6c-1.6-1.6-3.6-2.2-5.8-2.2c-60.4,0-120.8,0-181.3,0c-21.3,0-42.6,0-63.9,0
		c-0.3,0-0.5,0-0.8,0C7,7,5.3,7.6,3.9,8.8c-1.8,1.6-2.6,3.6-2.6,6c0,19.8,0,39.5,0,59.3c0,0.2,0,0.5,0,0.7c0.1,2.3,1.1,4.2,2.9,5.6
		C5.8,81.6,7.5,82,9.4,82c40.9,0,81.8,0,122.7,0c0,0,0,0,0,0c14.1,0,28.2,0,42.3,0c26.9,0,53.7,0,80.6,0c0.9,0,1.9-0.1,2.8-0.4
		c3.3-1.1,5.1-3.9,5.1-7.5c0-14.8,0-29.5,0-44.3C263,24.8,263,19.8,263,14.7z M55,17.5c0.8,5.2-4,12-9.9,11.4
		C43.7,24.4,49.7,17.5,55,17.5z M64.3,57.2c-1.3,2.8-3,5.5-5.1,7.8c-1.1,1.2-2.3,2.1-4,2.4c-1.3,0.2-2.6,0-3.8-0.4
		c-1.2-0.5-2.5-1-3.7-1.3c-1.8-0.4-3.6-0.1-5.3,0.5c-1,0.4-2,0.8-3.1,1.1c-1.9,0.5-3.7,0-5.2-1.2c-1.4-1.1-2.4-2.5-3.4-3.9
		c-2.9-3.9-4.7-8.2-5.5-13c-0.7-4-0.7-7.9,0.9-11.7c1.8-4.2,4.9-6.9,9.4-7.8c2-0.4,4,0,5.8,0.7c0.7,0.3,1.4,0.5,2.1,0.8
		c1.4,0.7,2.8,0.5,4.2-0.1c1.5-0.6,3-1.2,4.5-1.6c4.1-0.9,9.3,0.6,12,4.6c0,0,0,0.1,0,0.1c-6.8,4.4-6.8,13-1.9,17.6
		c0.9,0.9,2,1.6,3.2,2.1C65.1,55.2,64.7,56.2,64.3,57.2z M137.2,18.1c0.7,0,1.3,0,2,0c0,4.5,0,9,0,13.5c-0.7,0-1.3,0-2,0
		C137.2,27.1,137.2,22.6,137.2,18.1z M111.6,22.4c0.6,2.3,1.1,4.7,1.7,7.1c0.1-0.1,0.1-0.2,0.1-0.3c0.6-2.2,1.2-4.3,1.9-6.5
		c0-0.1,0.3-0.3,0.4-0.3c1.3-0.1,1.4-0.1,1.7,1.2c0.6,2,1.1,3.9,1.7,6c0.1-0.7,0.3-1.3,0.4-1.9c0.4-1.7,0.9-3.3,1.3-5
		c0.1-0.3,0.2-0.4,0.5-0.4c0.5,0,1,0,1.5,0c0,0.2-0.1,0.3-0.1,0.4c-0.9,2.8-1.7,5.6-2.6,8.4c-0.1,0.3-0.2,0.5-0.6,0.4
		c-0.5,0-1,0-1.5,0c-0.7-2.3-1.3-4.6-1.9-6.7c-0.6,2.1-1.3,4.2-2,6.4c0,0.1-0.3,0.3-0.4,0.3c-0.5,0-1,0-1.6,0
		c-0.9-3.1-1.8-6.1-2.7-9.2C110.2,22.4,110.9,22.4,111.6,22.4z M85.5,18.9c1.7-0.3,3.3-0.3,5-0.2c0.7,0.1,1.4,0.2,2,0.5
		c1.7,0.6,2.8,1.8,3.3,3.5c0.4,1.5,0.4,3,0,4.5c-0.6,2.2-2.1,3.5-4.2,4.1c-2,0.6-4,0.4-6,0.2C85.5,27.3,85.5,23.1,85.5,18.9z
		 M100.9,67.1c-0.2,0-0.4-0.3-0.4-0.5c-0.7-2.2-1.4-4.4-2.1-6.6c-0.1-0.5-0.3-0.6-0.8-0.6c-2.5,0-4.9,0-7.4,0
		c-0.4,0-0.6,0.1-0.7,0.5c-0.6,2.2-1.3,4.4-2,6.6c-0.1,0.4-0.3,0.5-0.7,0.5c-1.2,0-2.5,0-3.7,0c0.1-0.2,0.1-0.4,0.1-0.6
		c2.7-8.4,5.4-16.7,8-25.1c0.1-0.4,0.3-0.5,0.7-0.5c1.4,0,2.8,0,4.2,0c0.3,0,0.5,0.1,0.6,0.4c2.7,8.4,5.4,16.9,8.2,25.3
		c0,0.1,0.1,0.3,0.1,0.4C103.6,67.1,102.2,67.1,100.9,67.1z M105.4,31.1c-1.6,1-3.3,1-4.9,0c-1.5-0.9-2-2.4-2.1-3.9
		c0-4,3.6-6.3,6.9-4.6c1.5,0.8,2.1,2.2,2.2,3.8C107.6,28.4,107,30,105.4,31.1z M125.2,63.3c-1.8,3.4-5.6,5-9.3,3.9
		c-1.1-0.3-2-1-2.8-1.9c-0.1-0.1-0.2-0.2-0.3-0.4c0,1.7,0,3.3,0,4.9c0,1.6,0,3.2,0,4.8c-1.4,0-2.7,0-4.2,0c0-8.8,0-17.6,0-26.4
		c1.1,0,2.3,0,3.6,0c0.1,1,0.2,1.9,0.3,2.8c0.1,0,0.1,0.1,0.2,0.1c0-0.1,0-0.2,0.1-0.3c1.5-2.3,3.7-3.2,6.4-3.2
		c3.3,0.1,5.5,1.9,6.7,4.8C127.1,56.2,127,59.8,125.2,63.3z M129.6,23.8c-1,0-1.9,0.9-1.9,2.1c0,1.7,0,3.3,0,5c0,0.2,0,0.4,0,0.7
		c-0.7,0-1.4,0-2.1,0c0-1.5,0-3,0-4.6c0-1.5,0-3,0-4.6c0.5,0,1.1,0,1.7,0c0,0.4,0.1,0.8,0.1,1.2c0.4-0.3,0.8-0.8,1.3-1
		c2.2-1.2,4.6,0,4.8,2.5c0.2,2.1,0,4.3,0,6.4c-0.6,0-1.2,0-1.9,0c0-0.6,0-1.1,0-1.7c0-1.4,0-2.8-0.1-4.2
		C131.4,24.4,130.7,23.8,129.6,23.8z M146.9,63.3c-1.8,3.4-5.7,5-9.4,3.9c-1.3-0.4-2.2-1.1-3.1-2.1c0,3.2,0,6.4,0,9.6
		c-1.4,0-2.8,0-4.2,0c0-8.8,0-17.6,0-26.5c0.7,0,1.5,0,2.3,0c1.2,0,1.2,0,1.3,1.2c0.1,0.6,0.1,1.1,0.2,1.8c0.1-0.2,0.2-0.2,0.3-0.3
		c1.7-2.5,4.2-3.4,7.2-3c3.4,0.4,5.3,2.7,6.3,5.8C148.8,57,148.6,60.2,146.9,63.3z M151.4,27c0,1.8-0.7,3.3-2.3,4.2
		c-1.6,0.9-3.2,0.8-4.7-0.1c-1.1-0.6-1.7-1.7-1.9-2.9c-0.3-1.6-0.1-3.1,0.9-4.4c1.1-1.4,3.2-2,5-1.5c1.8,0.5,2.9,2,3.1,4.1
		C151.4,26.6,151.4,26.8,151.4,27z M153.8,29.9c-0.5-1.5,0.3-3.1,1.8-3.7c0.8-0.3,1.7-0.4,2.5-0.6c0.3-0.1,0.6,0,0.9-0.1
		c0.1-1.3-0.5-1.9-1.7-2c-0.9,0-1.3,0-2.6,0.6c-0.1-0.4-0.3-0.7-0.3-1.1c0-0.1,0.1-0.3,0.2-0.4c1.5-0.7,3-0.9,4.6-0.3
		c1.1,0.4,1.6,1.3,1.8,2.4c0.1,0.5,0.1,1.1,0.1,1.6c0,0.8,0,1.7,0,2.5c0,0.8,0,1.7,0,2.5c-0.5,0-1.1,0-1.7,0c-0.1-0.3-0.1-0.6-0.2-1
		c-0.6,0.7-1.2,1.1-2,1.2C155.7,32,154.3,31.3,153.8,29.9z M167.2,66.8c-3.4,1-6.7,0.9-10-0.5c-0.9-0.4-0.9-0.4-0.7-1.4
		c0.2-0.8,0.5-1.6,0.7-2.4c1.2,0.4,2.4,0.9,3.6,1.2c1.6,0.4,3.3,0.4,4.9-0.1c1.4-0.5,2.4-1.4,2.6-2.9c0.2-1.4-0.1-2.8-1.4-3.6
		c-1-0.7-2.1-1.2-3.1-1.7c-1.6-0.7-3.2-1.4-4.6-2.6c-2.7-2.3-3.2-6.2-1.1-9.1c1.3-1.7,3.1-2.7,5.2-3c2.7-0.4,5.3-0.2,7.9,0.9
		c0.1,0,0.2,0.1,0.3,0.2c-0.3,1.1-0.7,2.2-1,3.3c-0.9-0.3-1.8-0.6-2.7-0.8c-1.5-0.3-3-0.4-4.5,0.1c-2.3,0.8-3.1,3.7-1.5,5.3
		c0.6,0.6,1.4,1.1,2.1,1.4c1.6,0.8,3.2,1.4,4.7,2.3c1.8,1,3.2,2.4,3.7,4.5C173.3,62,171.2,65.6,167.2,66.8z M173,31.6
		c-0.6,0-1.2,0-1.8,0c0-0.4-0.1-0.9-0.1-1.2c-0.6,0.4-1.1,0.9-1.7,1.2c-1.6,0.6-3.3,0-4.3-1.4c-1.3-1.9-1.2-4.8,0.2-6.6
		c1-1.3,2.9-1.8,4.4-1.2c0.4,0.2,0.8,0.6,1.3,0.9c0-1.7,0-3.5,0-5.2c0.7,0,1.4,0,2.1,0C173,22.6,173,27,173,31.6z M231.1,23.2
		c1.2-1.1,2.7-1.3,4.3-0.7c1.4,0.6,2,1.8,2.3,3.2c0.1,0.6,0.1,1.2,0.1,1.8c-2.2,0-4.2,0-6.2,0c-0.2,1.5,1,2.8,2.7,2.7
		c0.9,0,1.7-0.2,2.7-0.3c0.1,0.4,0.2,0.8,0.3,1.3c-0.5,0.1-0.9,0.3-1.3,0.4c-0.8,0.1-1.7,0.2-2.5,0.1c-2.2-0.2-3.5-1.5-3.8-3.7
		C229.3,26.2,229.6,24.5,231.1,23.2z M193.7,22.4c0.6,0,1.1,0,1.7,0c0,0.4,0.1,0.8,0.1,1.4c0.5-0.9,1.2-1.3,2-1.5
		c2-0.6,3.8,0.6,4,2.8c0.1,0.9,0.1,1.9,0.1,2.9c0,1.2,0,2.4,0,3.7c-0.7,0-1.3,0-2,0c0-0.7,0-1.3,0-2c0-1.3,0-2.5-0.1-3.8
		c-0.1-1.3-0.8-2-1.9-1.9c-1.1,0-1.9,1-1.9,2.2c0,1.8,0,3.7,0,5.6c-0.7,0-1.4,0-2.1,0C193.7,28.5,193.7,25.5,193.7,22.4z
		 M181.7,25.7c0.4-2.2,2.2-3.5,4.5-3.5c2.4,0,4,1.6,4.3,3.9c0.1,1.1,0,2.2-0.4,3.2c-0.9,1.9-2.7,2.8-5,2.4c-1.8-0.3-3.3-1.7-3.5-3.7
		C181.6,27.3,181.6,26.4,181.7,25.7z M186.4,51.4c-1.5,0-3,0-4.6,0c0,0.2,0,0.4,0,0.6c0,2.8,0,5.7,0,8.5c0,0.7,0.1,1.4,0.3,2.1
		c0.3,0.9,1,1.4,2,1.4c0.6,0,1.3-0.1,2-0.1c0,0.9,0.1,1.9,0.1,2.9c0,0.1-0.1,0.3-0.2,0.3c-1.6,0.4-3.2,0.6-4.8,0.1
		c-2.1-0.6-3-2.2-3.3-4.3c-0.1-0.8-0.1-1.6-0.1-2.4c0-2.8,0-5.6,0-8.4c0-0.2,0-0.4,0-0.7c-0.9,0-1.8,0-2.7,0c0-1.1,0-2.1,0-3.2
		c0.9,0,1.8,0,2.7,0c0-0.7,0-1.4,0-2.1c0-1.4,0-1.4,1.3-1.8c0.9-0.3,1.8-0.5,2.8-0.8c0,1.6,0,3.1,0,4.7c1.6,0,3,0,4.6,0
		C186.4,49.3,186.4,50.3,186.4,51.4z M206.4,61.9c-1.5,3.6-4.8,5.7-8.8,5.6c-2.8-0.1-5.1-1-6.8-3.2c-1.2-1.5-1.8-3.2-2-5
		c-0.1-0.5-0.1-1-0.1-1.3c0-2.4,0.5-4.6,1.8-6.4c1.4-1.9,3.2-3.1,5.6-3.5c2.3-0.4,4.6-0.2,6.6,1c2.6,1.5,4,3.9,4.4,6.8
		C207.4,57.9,207.2,60,206.4,61.9z M210,22.4c0.4,0,0.8,0,1.3,0c0-0.5,0-0.9,0-1.4c0-0.1,0.1-0.4,0.2-0.4c0.6-0.2,1.2-0.4,1.8-0.6
		c0,0.8,0,1.5,0,2.3c0.8,0,1.5,0,2.2,0c0,0.5,0,1,0,1.5c-0.7,0-1.4,0-2.2,0c0,0.6,0,1.2,0,1.8c0,1,0,1.9,0,2.9
		c0,1.2,0.4,1.6,1.6,1.5c0.1,0,0.3,0,0.5,0c0,0.4,0,0.9,0,1.3c0,0.1-0.2,0.3-0.3,0.3c-0.7,0-1.5,0.1-2.2,0c-1-0.2-1.5-1.1-1.5-2
		c-0.1-1.3-0.1-2.5-0.1-3.8c0-0.6,0-1.2,0-1.8c-0.4,0-0.9,0-1.3,0C210,23.4,210,22.9,210,22.4z M220.8,51.9c-0.8,0-1.5-0.1-2.2,0
		c-1.9,0.3-2.8,1.7-3.3,3.4c-0.2,0.6-0.2,1.2-0.2,1.8c0,3.1,0,6.2,0,9.3c0,0.2,0,0.4,0,0.6c-1.4,0-2.8,0-4.2,0c0-6.2,0-12.5,0-18.8
		c1.1,0,2.3,0,3.5,0c0.1,1.2,0.1,2.3,0.2,3.5c1.2-2.7,3.1-4.2,6.2-3.8C220.8,49.2,220.8,50.5,220.8,51.9z M220.5,26c0,1.7,0,3.3,0,5
		c0,0.2,0,0.4,0,0.6c-0.7,0-1.3,0-2,0c0-4.5,0-9,0-13.5c0.6,0,1.3,0,2,0c0,1.8,0,3.6,0,5.5c0.6-0.8,1.2-1.3,2.1-1.5
		c2-0.4,3.5,0.6,3.7,2.7c0.2,2.2,0.2,4.4,0.2,6.7c-0.8,0-1.4,0-2.1,0c0-0.2,0-0.4,0-0.6c0-1.5,0-3,0-4.4c0-0.2,0-0.5,0-0.7
		c-0.1-1.3-0.8-2-1.9-2C221.3,23.9,220.5,24.8,220.5,26z M239.4,58.7c-4.1,0-8.3,0-12.4,0c-0.2,2.7,1.6,5,4.3,5.4
		c2.1,0.4,4.1,0.1,6.2-0.6c0.1,0,0.3-0.1,0.4-0.1c0,0,0,0,0.1,0c0.2,0.9,0.4,1.8,0.6,2.8c-1.2,0.6-2.4,0.8-3.7,1
		c-2.1,0.3-4.1,0.3-6.2-0.3c-2.6-0.9-4.3-2.6-5.2-5.1c-1.1-3.1-0.9-6.3,0.6-9.3c1.8-3.4,4.7-5,8.6-4.6c3.7,0.3,6,3,6.6,6.3
		C239.6,55.7,239.7,57.6,239.4,58.7z"/>
	<path class="st1" d="M64.2,34.5C64.1,34.4,64.1,34.4,64.2,34.5c-2.8-4.1-8-5.7-12.1-4.7c-1.5,0.4-3,1-4.5,1.6
		c-1.4,0.6-2.8,0.7-4.2,0.1c-0.7-0.3-1.4-0.5-2.1-0.8c-1.9-0.8-3.8-1.1-5.8-0.7c-4.5,0.9-7.7,3.5-9.4,7.8c-1.6,3.8-1.6,7.7-0.9,11.7
		c0.9,4.7,2.7,9.1,5.5,13c1,1.4,2.1,2.8,3.4,3.9c1.5,1.2,3.3,1.8,5.2,1.2c1-0.3,2.1-0.7,3.1-1.1c1.7-0.7,3.5-0.9,5.3-0.5
		c1.3,0.3,2.5,0.8,3.7,1.3c1.2,0.5,2.5,0.6,3.8,0.4c1.6-0.3,2.9-1.2,4-2.4c2.1-2.3,3.8-5,5.1-7.8c0.5-1,0.8-2,1.2-3
		c-1.2-0.5-2.3-1.3-3.2-2.1C57.3,47.5,57.4,38.9,64.2,34.5z"/>
	<path class="st1" d="M141.5,47.9c-2.9-0.4-5.4,0.5-7.2,3c-0.1,0.1-0.1,0.2-0.3,0.3c-0.1-0.7-0.1-1.3-0.2-1.8
		c-0.1-1.2-0.1-1.2-1.3-1.2c-0.8,0-1.6,0-2.3,0c0,8.9,0,17.7,0,26.5c1.5,0,2.8,0,4.2,0c0-3.2,0-6.4,0-9.6c0.9,1,1.8,1.8,3.1,2.1
		c3.7,1.1,7.5-0.5,9.4-3.9c1.7-3.1,1.8-6.4,0.9-9.7C146.8,50.5,144.9,48.3,141.5,47.9z M143,62c-1.1,1.7-2.8,2.4-4.8,2.1
		c-1.7-0.3-3.2-1.7-3.5-3.5c-0.3-1.9-0.4-3.9,0.1-5.8c0.8-3.3,4.6-4.7,7.2-2.6c1.3,1,1.7,2.5,2,4.1c0.1,0.5,0.1,0.9,0.1,1.3
		C144,59.2,143.8,60.7,143,62z"/>
	<path class="st1" d="M119,47.8c-2.7-0.1-4.9,0.9-6.4,3.2c0,0.1,0,0.2-0.1,0.3c-0.1,0-0.1-0.1-0.2-0.1c-0.1-0.9-0.2-1.9-0.3-2.8
		c-1.2,0-2.4,0-3.6,0c0,8.8,0,17.6,0,26.4c1.5,0,2.8,0,4.2,0c0-1.6,0-3.2,0-4.8c0-1.6,0-3.2,0-4.9c0.2,0.2,0.2,0.3,0.3,0.4
		c0.7,0.9,1.6,1.6,2.8,1.9c3.7,1.1,7.5-0.5,9.3-3.9c1.8-3.5,1.9-7.1,0.5-10.7C124.5,49.7,122.3,47.9,119,47.8z M121.3,62
		c-1.1,1.7-2.9,2.5-4.9,2.1c-1.8-0.4-3.3-1.9-3.4-3.9c-0.2-1.8-0.3-3.5,0.1-5.3c0.5-2.2,2.2-3.7,4.1-3.8c2.3-0.1,4,1.1,4.7,3.4
		c0.3,1,0.4,2,0.6,3C122.4,59.2,122.1,60.7,121.3,62z"/>
	<path class="st1" d="M96.7,41.3c-0.1-0.3-0.2-0.4-0.6-0.4c-1.4,0-2.8,0-4.2,0c-0.4,0-0.6,0.1-0.7,0.5c-2.7,8.4-5.4,16.7-8,25.1
		c-0.1,0.2-0.1,0.3-0.1,0.6c1.3,0,2.5,0,3.7,0c0.4,0,0.6-0.1,0.7-0.5c0.7-2.2,1.3-4.4,2-6.6c0.1-0.4,0.3-0.5,0.7-0.5
		c2.5,0,4.9,0,7.4,0c0.5,0,0.7,0.1,0.8,0.6c0.7,2.2,1.4,4.4,2.1,6.6c0.1,0.2,0.3,0.5,0.4,0.5c1.4,0,2.7,0,4.1,0
		c0-0.2-0.1-0.3-0.1-0.4C102.2,58.2,99.4,49.8,96.7,41.3z M90.5,56.1c1.1-3.9,2.3-7.7,3.3-11.4c1.1,3.7,2.3,7.5,3.5,11.4
		C95,56.1,92.7,56.1,90.5,56.1z"/>
	<path class="st1" d="M168.7,53.4c-1.5-0.9-3.2-1.5-4.7-2.3c-0.8-0.4-1.5-0.8-2.1-1.4c-1.7-1.7-0.9-4.5,1.5-5.3
		c1.5-0.5,3-0.4,4.5-0.1c0.9,0.2,1.8,0.5,2.7,0.8c0.3-1.1,0.7-2.2,1-3.3c-0.1-0.1-0.2-0.1-0.3-0.2c-2.5-1.1-5.2-1.3-7.9-0.9
		c-2.1,0.3-3.9,1.3-5.2,3c-2.1,2.9-1.6,6.8,1.1,9.1c1.4,1.2,3,1.9,4.6,2.6c1.1,0.5,2.2,1,3.1,1.7c1.2,0.8,1.6,2.2,1.4,3.6
		c-0.2,1.5-1.2,2.4-2.6,2.9c-1.6,0.5-3.3,0.5-4.9,0.1c-1.2-0.3-2.4-0.8-3.6-1.2c-0.2,0.7-0.4,1.6-0.7,2.4c-0.3,1-0.3,1,0.7,1.4
		c3.3,1.4,6.6,1.5,10,0.5c4-1.2,6-4.9,5.1-8.9C171.9,55.9,170.4,54.5,168.7,53.4z"/>
	<path class="st1" d="M202.8,49c-2.1-1.2-4.3-1.4-6.6-1c-2.4,0.4-4.2,1.6-5.6,3.5c-1.3,1.9-1.8,4-1.8,6.4c0,0.3,0,0.8,0.1,1.3
		c0.2,1.9,0.8,3.6,2,5c1.8,2.2,4.1,3.1,6.8,3.2c3.9,0.2,7.3-2,8.8-5.6c0.8-2,1-4,0.7-6.1C206.7,52.9,205.4,50.5,202.8,49z
		 M201.2,62.8c-1.8,2.2-5.2,2.1-6.8-0.3c-1.2-1.7-1.4-3.6-1.3-5.6c0.1-1.4,0.4-2.6,1.1-3.8c1.9-3,5.9-2.9,7.6,0.2
		c0.8,1.3,1,2.8,1,4.4C202.9,59.5,202.5,61.3,201.2,62.8z"/>
	<path class="st1" d="M232.7,47.9c-3.9-0.3-6.9,1.2-8.6,4.6c-1.5,3-1.7,6.1-0.6,9.3c0.9,2.5,2.6,4.3,5.2,5.1c2,0.7,4.1,0.6,6.2,0.3
		c1.3-0.2,2.5-0.4,3.7-1c-0.2-1-0.4-1.9-0.6-2.8c-0.1,0-0.1,0-0.1,0c-0.1,0-0.3,0.1-0.4,0.1c-2,0.6-4.1,0.9-6.2,0.6
		c-2.7-0.5-4.5-2.7-4.3-5.4c4.2,0,8.3,0,12.4,0c0.3-1.1,0.3-2.9,0-4.5C238.6,50.9,236.4,48.2,232.7,47.9z M226.9,55.6
		c0.1-1.5,0.7-2.8,1.7-3.8c1.3-1.2,2.8-1.4,4.4-0.8c1.6,0.6,2.3,2,2.5,3.6c0.1,0.3,0.1,0.7,0.1,1.1
		C232.6,55.6,229.8,55.6,226.9,55.6z"/>
	<path class="st1" d="M181.8,43.5c-1,0.3-1.9,0.6-2.8,0.8c-1.3,0.4-1.3,0.4-1.3,1.8c0,0.7,0,1.4,0,2.1c-1,0-1.8,0-2.7,0
		c0,1.1,0,2.1,0,3.2c0.9,0,1.8,0,2.7,0c0,0.3,0,0.5,0,0.7c0,2.8,0,5.6,0,8.4c0,0.8,0,1.6,0.1,2.4c0.3,2.1,1.2,3.7,3.3,4.3
		c1.6,0.5,3.2,0.3,4.8-0.1c0.1,0,0.2-0.2,0.2-0.3c0-1-0.1-1.9-0.1-2.9c-0.7,0-1.3,0.1-2,0.1c-1,0-1.7-0.5-2-1.4
		c-0.2-0.7-0.3-1.4-0.3-2.1c0-2.8,0-5.7,0-8.5c0-0.2,0-0.3,0-0.6c1.6,0,3.1,0,4.6,0c0-1.1,0-2.1,0-3.1c-1.5,0-3,0-4.6,0
		C181.8,46.6,181.8,45.1,181.8,43.5z"/>
	<path class="st1" d="M214.6,51.7c-0.1-1.2-0.1-2.3-0.2-3.5c-1.2,0-2.4,0-3.5,0c0,6.3,0,12.5,0,18.8c1.5,0,2.8,0,4.2,0
		c0-0.2,0-0.4,0-0.6c0-3.1,0-6.2,0-9.3c0-0.6,0.1-1.2,0.2-1.8c0.4-1.7,1.4-3.1,3.3-3.4c0.7-0.1,1.4,0,2.2,0c0-1.4,0-2.6,0-4
		C217.7,47.6,215.8,49,214.6,51.7z"/>
	<path class="st1" d="M55,17.5c-5.3,0.1-11.3,6.9-9.9,11.4C51,29.4,55.8,22.6,55,17.5z"/>
	<path class="st1" d="M91.5,31.3c2.1-0.6,3.6-1.9,4.2-4.1c0.4-1.5,0.4-3,0-4.5c-0.5-1.7-1.6-2.9-3.3-3.5c-0.6-0.2-1.3-0.4-2-0.5
		c-1.7-0.2-3.3-0.1-5,0.2c0,4.2,0,8.4,0,12.7C87.5,31.7,89.5,31.9,91.5,31.3z M87.5,20.4c1,0,1.9-0.1,2.9,0c1.6,0.2,2.9,1.4,3.2,3
		c0.2,1.1,0.2,2.1,0,3.2c-0.4,2-1.9,3.2-4,3.4c-0.7,0.1-1.4,0-2.1,0C87.5,26.8,87.5,23.6,87.5,20.4z"/>
	<path class="st1" d="M171,23.3c-0.5-0.3-0.8-0.7-1.3-0.9c-1.5-0.6-3.4-0.1-4.4,1.2c-1.4,1.8-1.5,4.8-0.2,6.6c1,1.4,2.7,2,4.3,1.4
		c0.6-0.3,1.2-0.8,1.7-1.2c0,0.3,0.1,0.8,0.1,1.2c0.6,0,1.3,0,1.8,0c0-4.5,0-9,0-13.5c-0.7,0-1.4,0-2.1,0
		C171,19.8,171,21.6,171,23.3z M170.7,28.6c-0.3,0.9-0.9,1.4-1.8,1.5c-1,0.1-1.7-0.3-2.1-1.2c-0.7-1.3-0.7-2.7,0-4.1
		c0.5-0.9,1.5-1.3,2.4-1.1c0.9,0.2,1.6,1,1.7,2c0,0.4,0,0.8,0,1.2c0,0,0.1,0,0.1,0C170.9,27.5,170.9,28.1,170.7,28.6z"/>
	<path class="st1" d="M113.8,31.6c0.2,0,0.4-0.2,0.4-0.3c0.7-2.2,1.4-4.3,2-6.4c0.6,2.1,1.3,4.4,1.9,6.7c0.5,0,1,0,1.5,0
		c0.4,0,0.5-0.1,0.6-0.4c0.9-2.8,1.7-5.6,2.6-8.4c0-0.1,0.1-0.3,0.1-0.4c-0.5,0-1,0-1.5,0c-0.3,0-0.4,0.1-0.5,0.4
		c-0.4,1.7-0.9,3.3-1.3,5c-0.2,0.6-0.3,1.2-0.4,1.9c-0.6-2.1-1.1-4-1.7-6c-0.4-1.3-0.4-1.3-1.7-1.2c-0.2,0-0.4,0.2-0.4,0.3
		c-0.6,2.2-1.3,4.3-1.9,6.5c0,0.1-0.1,0.2-0.1,0.3c-0.6-2.4-1.1-4.8-1.7-7.1c-0.8,0-1.4,0-2.1,0c0.9,3.1,1.8,6.1,2.7,9.2
		C112.8,31.6,113.3,31.6,113.8,31.6z"/>
	<path class="st1" d="M224.4,25.9c0,0.2,0,0.5,0,0.7c0,1.5,0,3,0,4.4c0,0.2,0,0.4,0,0.6c0.7,0,1.4,0,2.1,0c-0.1-2.2,0-4.5-0.2-6.7
		c-0.2-2.1-1.8-3.1-3.7-2.7c-0.9,0.2-1.5,0.7-2.1,1.5c0-1.9,0-3.7,0-5.5c-0.7,0-1.3,0-2,0c0,4.5,0,9,0,13.5c0.7,0,1.3,0,2,0
		c0-0.3,0-0.4,0-0.6c0-1.7,0-3.3,0-5c0-1.2,0.8-2.1,2-2.1C223.6,23.8,224.3,24.5,224.4,25.9z"/>
	<path class="st1" d="M185.2,31.7c2.2,0.3,4.1-0.6,5-2.4c0.5-1,0.6-2.1,0.4-3.2c-0.3-2.4-2-3.9-4.3-3.9c-2.3,0-4.1,1.3-4.5,3.5
		c-0.2,0.8-0.1,1.6,0,2.4C181.9,30,183.4,31.4,185.2,31.7z M184.4,24.5c1-1.3,2.7-1.2,3.5,0.2c0.8,1.4,0.8,2.9,0.1,4.3
		c-0.4,0.8-1.1,1.3-1.9,1.2c-0.9,0-1.6-0.5-1.9-1.3c-0.3-0.7-0.4-1.4-0.5-1.7C183.7,26.1,183.9,25.2,184.4,24.5z"/>
	<path class="st1" d="M148.3,22.3c-1.8-0.5-3.9,0.1-5,1.5c-1,1.3-1.2,2.8-0.9,4.4c0.2,1.2,0.8,2.3,1.9,2.9c1.5,0.9,3.1,0.9,4.7,0.1
		c1.6-0.9,2.2-2.4,2.3-4.2c0-0.2,0-0.4,0-0.6C151.2,24.4,150.1,22.9,148.3,22.3z M148.7,29.1c-0.4,0.7-1,1.2-1.9,1.2
		c-0.9,0-1.6-0.5-1.9-1.3c-0.3-0.6-0.4-1.4-0.5-1.7c0.1-1.3,0.2-2.2,0.9-2.9c1-1.1,2.7-1,3.5,0.4C149.4,26.2,149.4,27.7,148.7,29.1z
		"/>
	<path class="st1" d="M105.3,22.7c-3.2-1.8-6.9,0.5-6.9,4.6c0,1.4,0.5,2.9,2.1,3.9c1.6,1,3.3,1,4.9,0c1.7-1.1,2.2-2.7,2.1-4.6
		C107.3,24.9,106.7,23.5,105.3,22.7z M104.3,29.7c-0.9,0.8-2.2,0.7-3-0.2c-1.1-1.3-1.1-3.8,0-5c1-1.2,2.8-1.1,3.6,0.3
		c0.3,0.6,0.4,1.4,0.6,2.1C105.3,28,105.1,29,104.3,29.7z"/>
	<path class="st1" d="M157.3,31.7c0.8-0.1,1.4-0.5,2-1.2c0.1,0.4,0.1,0.7,0.2,1c0.6,0,1.2,0,1.7,0c0-0.9,0-1.7,0-2.5
		c0-0.8,0-1.7,0-2.5c0-0.5,0-1.1-0.1-1.6c-0.2-1.1-0.7-2-1.8-2.4c-1.6-0.6-3.1-0.4-4.6,0.3c-0.1,0.1-0.3,0.3-0.2,0.4
		c0.1,0.4,0.2,0.7,0.3,1.1c1.3-0.6,1.7-0.6,2.6-0.6c1.2,0,1.8,0.7,1.7,2c-0.3,0-0.6,0-0.9,0.1c-0.8,0.2-1.7,0.3-2.5,0.6
		c-1.5,0.6-2.3,2.2-1.8,3.7C154.3,31.3,155.7,32,157.3,31.7z M155.8,29c-0.1-0.7,0.1-1.2,0.7-1.5c0.8-0.5,1.7-0.5,2.7-0.5
		c0,0.6,0.1,1.2,0,1.7c-0.2,1.1-1.4,1.8-2.5,1.5C156.1,30,155.8,29.6,155.8,29z"/>
	<path class="st1" d="M195.8,26c0-1.2,0.8-2.1,1.9-2.2c1.2,0,1.9,0.6,1.9,1.9c0.1,1.3,0,2.5,0.1,3.8c0,0.6,0,1.3,0,2
		c0.7,0,1.3,0,2,0c0-1.2,0-2.5,0-3.7c0-1,0-1.9-0.1-2.9c-0.3-2.1-2.1-3.3-4-2.8c-0.8,0.2-1.5,0.7-2,1.5c0-0.6-0.1-1-0.1-1.4
		c-0.6,0-1.2,0-1.7,0c0,3.1,0,6.1,0,9.2c0.7,0,1.4,0,2.1,0C195.8,29.7,195.8,27.8,195.8,26z"/>
	<path class="st1" d="M131.5,25.6c0.1,1.4,0.1,2.8,0.1,4.2c0,0.6,0,1.1,0,1.7c0.7,0,1.3,0,1.9,0c0-2.2,0.1-4.3,0-6.4
		c-0.2-2.5-2.6-3.7-4.8-2.5c-0.5,0.2-0.8,0.7-1.3,1c0-0.4-0.1-0.8-0.1-1.2c-0.7,0-1.2,0-1.7,0c0,1.6,0,3.1,0,4.6c0,1.5,0,3.1,0,4.6
		c0.7,0,1.4,0,2.1,0c0-0.3,0-0.5,0-0.7c0-1.7,0-3.3,0-5c0-1.1,0.9-2,1.9-2.1C130.7,23.8,131.4,24.4,131.5,25.6z"/>
	<path class="st1" d="M233.4,31.7c0.8,0.1,1.7,0,2.5-0.1c0.5-0.1,0.9-0.3,1.3-0.4c-0.1-0.5-0.2-1-0.3-1.3c-0.9,0.1-1.8,0.3-2.7,0.3
		c-1.7,0-2.9-1.2-2.7-2.7c2,0,4,0,6.2,0c0-0.7,0-1.2-0.1-1.8c-0.2-1.4-0.8-2.6-2.3-3.2c-1.5-0.6-3-0.4-4.3,0.7
		c-1.5,1.3-1.8,3-1.5,4.9C229.9,30.2,231.2,31.5,233.4,31.7z M233.8,23.5c1.2,0,1.9,1,1.9,2.4c-1.4,0-2.8,0-4.2,0
		C231.6,24.5,232.6,23.5,233.8,23.5z"/>
	<path class="st1" d="M211.3,25.7c0,1.3,0,2.5,0.1,3.8c0.1,1,0.5,1.8,1.5,2c0.7,0.2,1.5,0.1,2.2,0c0.1,0,0.3-0.2,0.3-0.3
		c0-0.4,0-0.8,0-1.3c-0.2,0-0.4,0-0.5,0c-1.2,0.1-1.6-0.3-1.6-1.5c0-1,0-1.9,0-2.9c0-0.6,0-1.2,0-1.8c0.8,0,1.5,0,2.2,0
		c0-0.5,0-1,0-1.5c-0.7,0-1.4,0-2.2,0c0-0.8,0-1.5,0-2.3c-0.7,0.2-1.3,0.4-1.8,0.6c-0.1,0-0.2,0.3-0.2,0.4c0,0.4,0,0.9,0,1.4
		c-0.5,0-0.9,0-1.3,0c0,0.5,0,1,0,1.5c0.5,0,0.9,0,1.3,0C211.3,24.5,211.3,25.1,211.3,25.7z"/>
	<path class="st1" d="M139.2,18.1c-0.7,0-1.3,0-2,0c0,4.5,0,9,0,13.5c0.7,0,1.3,0,2,0C139.2,27,139.2,22.6,139.2,18.1z"/>
	<path d="M142,52.2c-2.6-2.1-6.4-0.7-7.2,2.6c-0.5,1.9-0.4,3.9-0.1,5.8c0.3,1.8,1.8,3.2,3.5,3.5c2,0.4,3.8-0.4,4.8-2.1
		c0.8-1.3,1.1-2.8,1.1-4.5c0-0.3,0-0.8-0.1-1.3C143.7,54.7,143.3,53.2,142,52.2z"/>
	<path d="M117.2,51.2c-1.9,0.1-3.7,1.6-4.1,3.8c-0.4,1.7-0.3,3.5-0.1,5.3c0.2,1.9,1.7,3.5,3.4,3.9c2,0.4,3.9-0.4,4.9-2.1
		c0.8-1.3,1.1-2.8,1.2-4.4c-0.2-1-0.3-2-0.6-3C121.2,52.3,119.5,51.1,117.2,51.2z"/>
	<path d="M90.5,56.1c2.3,0,4.6,0,6.8,0c-1.2-3.9-2.4-7.7-3.5-11.4C92.7,48.4,91.6,52.3,90.5,56.1z"/>
	<path d="M194.2,53.1c-0.7,1.2-1,2.5-1.1,3.8c-0.1,2,0.2,3.9,1.3,5.6c1.6,2.4,5,2.5,6.8,0.3c1.2-1.5,1.6-3.3,1.7-5.1
		c0-1.6-0.3-3.1-1-4.4C200.1,50.1,196.1,50,194.2,53.1z"/>
	<path d="M233,51c-1.6-0.5-3.1-0.4-4.4,0.8c-1.1,1-1.6,2.3-1.7,3.8c2.9,0,5.8,0,8.7,0c0-0.4,0-0.7-0.1-1.1
		C235.3,53,234.6,51.6,233,51z"/>
	<path d="M89.6,30c2.1-0.2,3.5-1.4,4-3.4c0.2-1.1,0.2-2.1,0-3.2c-0.4-1.6-1.6-2.8-3.2-3c-0.9-0.1-1.9,0-2.9,0c0,3.2,0,6.4,0,9.6
		C88.2,30,88.9,30,89.6,30z"/>
	<path d="M170.9,25.8c-0.1-1-0.8-1.8-1.7-2c-1-0.2-1.9,0.2-2.4,1.1c-0.7,1.3-0.7,2.7,0,4.1c0.4,0.9,1.2,1.3,2.1,1.2
		c0.9-0.1,1.6-0.7,1.8-1.5c0.2-0.5,0.2-1.1,0.2-1.6c0,0-0.1,0-0.1,0C170.9,26.6,170.9,26.2,170.9,25.8z"/>
	<path d="M186.1,30.3c0.9,0,1.6-0.5,1.9-1.2c0.7-1.4,0.7-2.9-0.1-4.3c-0.8-1.4-2.5-1.5-3.5-0.2c-0.6,0.7-0.7,1.5-0.7,2.7
		c0.1,0.4,0.2,1.1,0.5,1.7C184.5,29.8,185.2,30.3,186.1,30.3z"/>
	<path d="M145.2,24.4c-0.7,0.7-0.8,1.6-0.9,2.9c0.1,0.4,0.2,1.1,0.5,1.7c0.3,0.8,1,1.3,1.9,1.3c0.9,0,1.5-0.5,1.9-1.2
		c0.7-1.4,0.7-2.9,0-4.3C148,23.4,146.3,23.3,145.2,24.4z"/>
	<path d="M101.2,24.5c-1,1.3-1,3.8,0,5c0.8,1,2.1,1.1,3,0.2c0.8-0.7,1-1.7,1.2-2.8c-0.2-0.7-0.3-1.5-0.6-2.1
		C104.1,23.4,102.3,23.2,101.2,24.5z"/>
	<path d="M159.1,28.7c0.1-0.5,0-1.1,0-1.7c-1,0-1.9,0.1-2.7,0.5c-0.6,0.3-0.8,0.9-0.7,1.5c0.1,0.6,0.3,1,0.9,1.2
		C157.7,30.5,159,29.8,159.1,28.7z"/>
	<path d="M233.8,23.5c-1.2,0-2.3,1-2.3,2.4c1.4,0,2.8,0,4.2,0C235.8,24.5,235,23.5,233.8,23.5z"/>
</g>
</svg>
