<svg width="70" height="70" viewBox="0 0 70 70" fill="none" xmlns="http://www.w3.org/2000/svg">
<path fill-rule="evenodd" clip-rule="evenodd" d="M20.9127 13.6666L26.2502 7.83325H43.7502L49.0877 13.6666H58.3335C61.5418 13.6666 64.1668 16.2916 64.1668 19.4999V54.4999C64.1668 57.7083 61.5418 60.3333 58.3335 60.3333H11.6668C8.4585 60.3333 5.8335 57.7083 5.8335 54.4999V19.4999C5.8335 16.2916 8.4585 13.6666 11.6668 13.6666H20.9127ZM35.0002 22.4166C26.9502 22.4166 20.4168 28.9499 20.4168 36.9999C20.4168 45.0499 26.9502 51.5832 35.0002 51.5832C43.0502 51.5832 49.5835 45.0499 49.5835 36.9999C49.5835 28.9499 43.0502 22.4166 35.0002 22.4166ZM46.6668 36.9999C46.6668 43.4432 41.4435 48.6666 35.0002 48.6666C28.5568 48.6666 23.3335 43.4432 23.3335 36.9999C23.3335 30.5566 28.5568 25.3333 35.0002 25.3333C41.4435 25.3333 46.6668 30.5566 46.6668 36.9999Z" fill="url(#paint0_linear)"/>
<defs>
<linearGradient id="paint0_linear" x1="-1.52123" y1="34.2135" x2="31.296" y2="70.677" gradientUnits="userSpaceOnUse">
<stop stop-color="#20D0EE"/>
<stop offset="0.981733" stop-color="#15E186"/>
</linearGradient>
</defs>
</svg>
