<svg width="70" height="70" viewBox="0 0 70 70" fill="none" xmlns="http://www.w3.org/2000/svg">
<path fill-rule="evenodd" clip-rule="evenodd" d="M26.5003 7.83325H43.5003L48.6853 13.6666H57.667C60.7837 13.6666 63.3337 16.2916 63.3337 19.4999V54.4999C63.3337 57.7083 60.7837 60.3333 57.667 60.3333H12.3337C9.21699 60.3333 6.66699 57.7083 6.66699 54.4999V19.4999C6.66699 16.2916 9.21699 13.6666 12.3337 13.6666H21.3153L26.5003 7.83325ZM27.7479 10.75L22.5629 16.5833H12.3333C10.7815 16.5833 9.5 17.9025 9.5 19.5V54.5C9.5 56.0975 10.7815 57.4167 12.3333 57.4167H57.6667C59.2185 57.4167 60.5 56.0975 60.5 54.5V19.5C60.5 17.9025 59.2185 16.5833 57.6667 16.5833H47.4371L42.2521 10.75H27.7479ZM34.9997 51.5834C27.1756 51.5834 20.833 45.0542 20.833 37.0001C20.833 28.9459 27.1756 22.4167 34.9997 22.4167C42.8237 22.4167 49.1663 28.9459 49.1663 37.0001C49.1663 45.0542 42.8237 51.5834 34.9997 51.5834ZM34.9997 48.6668C41.2589 48.6668 46.333 43.4435 46.333 37.0002C46.333 30.5568 41.2589 25.3335 34.9997 25.3335C28.7404 25.3335 23.6663 30.5568 23.6663 37.0002C23.6663 43.4435 28.7404 48.6668 34.9997 48.6668Z" fill="url(#paint0_linear)"/>
<defs>
<linearGradient id="paint0_linear" x1="-0.477596" y1="34.2135" x2="32.4259" y2="69.7284" gradientUnits="userSpaceOnUse">
<stop stop-color="#20D0EE"/>
<stop offset="0.981733" stop-color="#15E186"/>
</linearGradient>
</defs>
</svg>
