<svg width="250" height="42" viewBox="0 0 250 42" fill="none" xmlns="http://www.w3.org/2000/svg">
<path d="M20.6052 41.2119C9.22561 41.2119 0 31.9863 0 20.6052C0 9.22561 9.22561 0 20.6052 0C31.9863 0 41.2119 9.22561 41.2119 20.6052C41.2119 31.9863 31.9863 41.2119 20.6052 41.2119ZM20.6052 39.6037C31.0976 39.6037 39.6037 31.0976 39.6037 20.6052C39.6037 10.1143 31.0976 1.60823 20.6052 1.60823C10.1143 1.60823 1.60823 10.1143 1.60823 20.6052C1.60823 31.0976 10.1143 39.6037 20.6052 39.6037Z" fill="white"/>
<path d="M20.6448 22.4146C21.6231 22.4146 22.4162 21.6223 22.4162 20.6448C22.4162 19.6674 21.6231 18.875 20.6448 18.875C19.6665 18.875 18.8735 19.6674 18.8735 20.6448C18.8735 21.6223 19.6665 22.4146 20.6448 22.4146Z" fill="white"/>
<path d="M68.8293 28.6921C67.3857 28.6921 66.0823 28.3613 64.9223 27.7013C63.7772 27.0556 62.8329 26.106 62.1936 24.9574C61.5336 23.7882 61.2028 22.4772 61.2028 21.029C61.2028 19.5793 61.5336 18.2699 62.1936 17.0991C62.8349 15.9484 63.7833 14.9984 64.9329 14.3552C66.1006 13.6952 67.4055 13.3644 68.8506 13.3644C69.9329 13.3644 70.9345 13.5519 71.8506 13.9238C72.7449 14.2814 73.5439 14.8418 74.1845 15.561L73.2058 16.5717C72.0671 15.3811 70.6296 14.7851 68.8918 14.7851C67.7393 14.7851 66.6906 15.0595 65.7454 15.6037C64.8161 16.1344 64.0492 16.9086 63.5275 17.843C62.9924 18.7882 62.7241 19.8522 62.7241 21.029C62.7241 22.2058 62.9924 23.2668 63.5275 24.215C64.061 25.1616 64.8018 25.9071 65.7454 26.4528C66.6906 26.9985 67.7393 27.2714 68.8918 27.2714C70.6433 27.2714 72.0808 26.6693 73.2058 25.4635L74.1845 26.4741C73.5458 27.1921 72.7637 27.7409 71.84 28.1205C70.8838 28.5074 69.8607 28.7017 68.8293 28.6921ZM83.6845 13.494H85.2256V28.5626H83.6845V13.494ZM108.373 13.494V28.5626H107.102L97.7256 16.3354V28.5626H96.1829V13.494H97.4543L106.852 25.7211V13.494H108.373ZM119.331 13.494H125.268C126.811 13.494 128.172 13.8141 129.354 14.4513C130.505 15.0617 131.459 15.9876 132.104 17.1205C132.756 18.2622 133.082 19.5641 133.082 21.029C133.082 22.4924 132.756 23.7943 132.104 24.936C131.459 26.0683 130.505 26.9936 129.354 27.6037C128.172 28.244 126.811 28.5641 125.268 28.5641H119.331V13.4924V13.494ZM125.184 27.1845C126.465 27.1845 127.582 26.9238 128.541 26.3994C129.474 25.8998 130.247 25.1462 130.77 24.2257C131.297 23.2988 131.563 22.2333 131.563 21.029C131.563 19.8232 131.297 18.7577 130.77 17.8308C130.247 16.9103 129.474 16.1567 128.541 15.6571C127.581 15.1342 126.463 14.872 125.186 14.872H120.872V27.1845H125.186H125.184ZM142.748 13.494H144.291V28.5626H142.748V13.494ZM161.582 28.6921C160.137 28.6921 158.835 28.3613 157.675 27.7013C156.53 27.0556 155.586 26.106 154.947 24.9574C154.287 23.7882 153.956 22.4772 153.956 21.029C153.956 19.5793 154.287 18.2699 154.947 17.0991C155.588 15.9484 156.536 14.9984 157.686 14.3552C158.852 13.6952 160.159 13.3644 161.604 13.3644C162.686 13.3644 163.688 13.5519 164.604 13.9238C165.498 14.2814 166.297 14.8418 166.938 15.561L165.959 16.5717C164.819 15.3811 163.383 14.7851 161.645 14.7851C160.492 14.7851 159.444 15.0595 158.498 15.6037C157.569 16.1342 156.801 16.9084 156.279 17.843C155.745 18.7882 155.477 19.8522 155.477 21.029C155.477 22.2058 155.745 23.2668 156.279 24.215C156.814 25.1616 157.553 25.9071 158.498 26.4528C159.444 26.9985 160.492 27.2714 161.645 27.2714C163.395 27.2714 164.832 26.6693 165.959 25.4635L166.938 26.4741C166.297 27.1921 165.517 27.7409 164.593 28.1205C163.637 28.5074 162.614 28.7017 161.582 28.6921ZM185.21 24.5366H177.082L175.332 28.5626H173.727L180.396 13.494H181.916L188.584 28.5626H186.959L185.209 24.5382L185.21 24.5366ZM184.646 23.2455L181.146 15.151L177.645 23.2455H184.646ZM199.312 14.872H194.188V13.494H205.98V14.872H200.855V28.5626H199.312V14.872ZM220.814 28.6921C219.369 28.6921 218.059 28.3583 216.886 27.6906C215.735 27.0457 214.783 26.0964 214.136 24.9467C213.476 23.7836 213.145 22.4772 213.145 21.029C213.145 19.5793 213.476 18.2729 214.136 17.1113C214.783 15.9611 215.734 15.0112 216.886 14.3659C218.059 13.6982 219.37 13.3644 220.814 13.3644C222.259 13.3644 223.561 13.6952 224.721 14.3552C225.868 15.0024 226.815 15.9514 227.46 17.0991C228.128 18.2699 228.46 19.5793 228.46 21.029C228.46 22.4772 228.128 23.7882 227.46 24.9574C226.815 26.1051 225.868 27.0541 224.721 27.7013C223.561 28.3613 222.259 28.6921 220.814 28.6921ZM220.814 27.2714C221.966 27.2714 223.009 27.0016 223.939 26.4635C224.862 25.9343 225.619 25.1597 226.128 24.2257C226.655 23.2714 226.919 22.2058 226.919 21.029C226.919 19.8522 226.656 18.7866 226.127 17.8308C225.618 16.897 224.861 16.1224 223.939 15.593C222.988 15.0494 221.909 14.7704 220.814 14.7851C219.662 14.7851 218.616 15.0549 217.678 15.593C216.75 16.1212 215.985 16.8956 215.468 17.8308C214.928 18.8092 214.652 19.9115 214.668 21.029C214.668 22.2058 214.934 23.2699 215.47 24.2257C216.003 25.1799 216.741 25.9254 217.678 26.4635C218.616 27.0016 219.66 27.2714 220.814 27.2714ZM248.087 28.5626L244.753 23.7196C244.365 23.7632 243.976 23.7845 243.585 23.7836H239.668V28.5626H238.128V13.494H243.585C245.448 13.494 246.905 13.9528 247.962 14.872C249.018 15.7897 249.546 17.0519 249.546 18.6601C249.546 19.8369 249.256 20.8308 248.681 21.6418C248.104 22.4528 247.281 23.0382 246.212 23.3964L249.774 28.5641H248.087V28.5626ZM243.544 22.4284C244.989 22.4284 246.093 22.0976 246.858 21.4376C247.62 20.7775 248.003 19.8522 248.003 18.6601C248.003 17.4406 247.622 16.5046 246.858 15.8507C246.093 15.1982 244.989 14.872 243.544 14.872H239.669V22.4284H243.544Z" fill="white"/>
</svg>
