<?xml version="1.0" encoding="utf-8"?>
<!-- Generator: Adobe Illustrator 22.1.0, SVG Export Plug-In . SVG Version: 6.00 Build 0)  -->
<svg version="1.1" id="Layer_1" xmlns="http://www.w3.org/2000/svg" xmlns:xlink="http://www.w3.org/1999/xlink" x="0px" y="0px"
	 width="100px" height="100px" viewBox="0 0 100 100" style="enable-background:new 0 0 100 100;" xml:space="preserve">
<style type="text/css">
	.st0{fill:none;stroke:#4FB646;}
	.st1{fill:#4FB646;stroke:#4FB646;stroke-width:0.2;}
</style>
<circle id="Oval-5-Copy-5" class="st0" cx="50" cy="50" r="49"/>
<path id="Shape" class="st1" d="M29.3,30.4c4.5-4.6,10.5-7.6,16.9-8.5c0.5,1.7,2,3,3.8,3c2.2,0,4-1.8,4-4s-1.8-4-4-4
	c-2.1,0-3.7,1.5-3.9,3.5c-6.8,0.8-13.2,4-17.9,8.9L29.3,30.4z M50,18.4c1.3,0,2.5,1.1,2.5,2.5c0,1.3-1.1,2.5-2.5,2.5
	s-2.5-1.1-2.5-2.5C47.5,19.5,48.7,18.4,50,18.4z"/>
<path id="Shape_1_" class="st1" d="M20.8,59.3l1.4-0.4c-0.8-2.7-1.1-5.4-1.1-8.1c0-3.8,0.7-7.6,2.2-11.1c0.3,0.1,0.7,0.1,1,0.1
	c1.4,0,2.8-0.7,3.5-2c0.5-0.9,0.7-2,0.4-3c-0.3-1-0.9-1.9-1.9-2.5c-0.6-0.3-1.3-0.5-2.1-0.5c-1.4,0-2.8,0.7-3.5,2
	c-1,1.8-0.5,3.9,1,5.2c-1.5,3.7-2.4,7.7-2.4,11.9C19.5,53.5,19.9,56.5,20.8,59.3z M22.2,34.4c0.4-0.7,1.2-1.2,2.2-1.2
	c0.4,0,0.8,0.1,1.2,0.3c0.5,0.3,0.9,0.8,1.1,1.5c0.2,0.6,0.1,1.3-0.2,1.9c-0.7,1.1-2.3,1.5-3.4,0.8C21.9,37.1,21.5,35.6,22.2,34.4z"
	/>
<path id="Shape_2_" class="st1" d="M26.9,68.2c1.2-1.2,1.5-3.2,0.6-4.8c-0.7-1.2-2.1-2.1-3.5-2.1c-0.7,0-1.3,0.2-2,0.5
	c-0.9,0.5-1.6,1.3-1.9,2.4c-0.3,1-0.1,2.1,0.4,3.1c0.7,1.2,2.1,2.1,3.5,2.1c0.5,0,1-0.1,1.5-0.3c4,5.3,9.6,9.2,16,10.9l0.4-1.4
	C36.1,76.8,30.7,73.1,26.9,68.2z M22,66.5c-0.3-0.6-0.4-1.2-0.2-1.9c0.2-0.6,0.6-1.1,1.1-1.4c0.4-0.2,0.8-0.3,1.2-0.3
	c0.9,0,1.8,0.5,2.2,1.2c0.6,1.1,0.2,2.7-0.9,3.4C24.3,68.2,22.7,67.6,22,66.5z"/>
<path id="Shape_3_" class="st1" d="M70.5,71c-4.5,4.5-10.4,7.4-16.7,8.3c-0.4-1.7-2-3-3.8-3c-2.2,0-4,1.8-4,3.9c0,1,0.4,2.1,1.1,2.9
	c0.7,0.7,1.8,1.2,2.8,1.2c2.1,0,3.7-1.5,3.9-3.5c6.7-0.8,12.9-3.9,17.7-8.8L70.5,71z M50,82.9v0.8V82.9c-0.7,0-1.3-0.3-1.8-0.7
	c-0.4-0.5-0.7-1.1-0.7-1.8c0-1.3,1.1-2.5,2.5-2.5s2.5,1.1,2.5,2.5S51.3,82.9,50,82.9z"/>
<path id="Shape_4_" class="st1" d="M73.2,33.3c-0.5,0.5-0.8,1-1,1.8c-0.3,1-0.2,2.1,0.3,3.1c0.7,1.2,2.1,2.1,3.5,2.1
	c0.7,0,1.3-0.2,2-0.5c0.9-0.5,1.6-1.3,1.9-2.4c0.3-1,0.2-2.1-0.3-3.1c-0.7-1.2-2.1-2.1-3.5-2.1c-0.5,0-1,0.1-1.4,0.3
	c-4.2-5.7-10.3-9.8-17.1-11.4L57,22.6C63.5,24.1,69.3,27.9,73.2,33.3z M78.1,35c0.3,0.6,0.4,1.2,0.2,1.9s-0.6,1.1-1.1,1.4
	c-1.1,0.6-2.7,0.2-3.3-0.9c-0.3-0.6-0.4-1.2-0.2-1.9c0.2-0.6,0.6-1.1,1.1-1.4c0.4-0.2,0.8-0.3,1.2-0.3C76.9,33.7,77.7,34.2,78.1,35z
	"/>
<path id="Shape_5_" class="st1" d="M78,62.7c1.6-3.8,2.5-7.8,2.5-12.1c0-2.6-0.3-5.3-1-7.7l-1.5,0.4c0.6,2.4,0.9,4.8,0.9,7.3
	c0,3.9-0.8,7.7-2.4,11.3c-0.3-0.1-0.7-0.1-1.1-0.1c-1.4,0-2.7,0.7-3.4,2c-0.5,0.9-0.7,2-0.4,3c0.3,1,0.9,2,1.9,2.5
	c0.6,0.4,1.3,0.5,2.1,0.5c1.4,0,2.7-0.7,3.4-2c0.5-0.9,0.7-2,0.4-3C79.2,64,78.7,63.3,78,62.7z M77.6,67.1c-0.6,1.1-2.3,1.5-3.4,0.8
	c-1.1-0.7-1.5-2.2-0.8-3.4c0.4-0.7,1.2-1.2,2.2-1.2c0.4,0,0.8,0.1,1.2,0.3c0.5,0.3,0.9,0.8,1.1,1.5S78,66.5,77.6,67.1z"/>
<path id="Shape_6_" class="st1" d="M50,36.3c-1.2,0-2.5,0.3-3.5,0.9c-1-0.6-2.2-1-3.3-1c-3.3,0-6.1,2.7-6.1,6.1
	c0,3.4,2.7,6.1,6.1,6.1c0.7,0,1.3-0.1,2-0.3c1.2,1.2,3,2,4.8,2s3.6-0.7,4.8-2c0.6,0.2,1.3,0.3,2,0.3c3.3,0,6.1-2.7,6.1-6.1
	c0-3.4-2.7-6.1-6.1-6.1c-1.2,0-2.4,0.4-3.3,1C52.5,36.6,51.2,36.3,50,36.3z M38.7,42.3c0-2.5,2.1-4.5,4.5-4.5c0.7,0,1.4,0.2,2.1,0.5
	c-1.2,1.2-2.1,3-2.1,4.8c0,1.3,0.4,2.5,1,3.5c-0.3,0.1-0.6,0.1-1,0.1C40.6,46.8,38.7,44.7,38.7,42.3z M50,48.5
	c-2.9,0-5.4-2.4-5.4-5.4c0-2.9,2.4-5.4,5.4-5.4c2.9,0,5.4,2.4,5.4,5.4C55.4,46.1,52.9,48.5,50,48.5z M56.8,37.7
	c2.5,0,4.5,2.1,4.5,4.5c0,2.5-2.1,4.5-4.5,4.5c-0.3,0-0.6,0-1-0.1c0.6-1,1-2.3,1-3.5c0-2-0.8-3.6-2.1-4.8
	C55.5,37.9,56.1,37.7,56.8,37.7z"/>
<path id="Shape_7_" class="st1" d="M69.7,60.6c-0.1-2.3-0.3-4.3-0.6-6v-0.1c-0.1-0.8-0.4-1.7-0.8-2.6v-0.1c-0.4-0.7-1.1-1.4-1.9-1.9
	c-0.2-0.1-0.5-0.3-0.8-0.4L61.1,48l-1.8,3.4L55,49.9l-4.3,8h-1.4l-4.3-8l-4.3,1.5L38.9,48l-4.3,1.5c-0.3,0.1-0.6,0.2-0.8,0.4
	c-0.8,0.4-1.4,1.1-1.9,1.9l-0.1,0.2c-0.5,0.8-0.7,1.8-0.8,2.6v0.1c-0.2,1.7-0.4,3.7-0.6,6v0.8h5.3c-0.1,0.8-0.1,1.8-0.2,2.8v0.8
	h29.5v-0.8c-0.1-1-0.1-2-0.2-2.8h5.3L69.7,60.6z M31.9,59.9c0.1-2,0.3-3.6,0.5-5.1c0-0.1,0-0.2,0-0.2c0.1-0.6,0.3-1.2,0.7-2.1
	c0.3-0.5,0.7-0.9,1.3-1.3c0.2-0.1,0.4-0.2,0.6-0.3l3.1-1.1l1.1,2.2c-0.9,0.5-1.8,1.2-2.3,2.2c-0.6,1.1-1,2.3-1,3.4
	c0,0.2-0.2,1-0.3,2.3h-3.8V59.9z M36.9,63.5c0.2-3.7,0.6-5.6,0.6-5.6v-0.2c0-0.8,0.3-1.8,0.8-2.7c0.5-0.8,1.3-1.5,2.3-1.9l3.6-1.3
	l4.1,7.7h3.2l4.1-7.7l3.6,1.2c0.3,0.1,0.5,0.2,0.7,0.3c0.6,0.4,1.1,0.8,1.5,1.5v0.1c0.4,0.8,0.7,1.5,0.8,2.3c0,0,0,0.1,0,0.2
	c0.2,1.7,0.4,3.7,0.6,6H36.9z M64.3,59.9c-0.1-0.9-0.2-1.8-0.3-2.6v-0.1c-0.1-0.9-0.4-2-1-2.9v-0.1c-0.5-0.8-1.2-1.5-2.2-2.1l0,0
	l1.1-2.2l3,1.1c0.2,0.1,0.4,0.2,0.6,0.3c0.5,0.3,0.9,0.7,1.3,1.2v0.1c0.4,0.7,0.6,1.3,0.7,2c0,0,0,0.1,0,0.2
	c0.2,1.4,0.4,3.1,0.5,5.1h-3.8V59.9z"/>
</svg>
