<?xml version="1.0" encoding="utf-8"?>
<!-- Generator: Adobe Illustrator 22.1.0, SVG Export Plug-In . SVG Version: 6.00 Build 0)  -->
<svg version="1.1" id="Layer_1" xmlns="http://www.w3.org/2000/svg" xmlns:xlink="http://www.w3.org/1999/xlink" x="0px" y="0px"
	 width="100px" height="100px" viewBox="0 0 100 100" style="enable-background:new 0 0 100 100;" xml:space="preserve">
<style type="text/css">
	.st0{fill:url(#Shape_1_);stroke:url(#Shape_2_);stroke-width:0.5;}
	.st1{fill:#4FB646;}
	.st2{font-family:'OpenSans-Bold';}
	.st3{font-size:11px;}
	.st4{letter-spacing:1;}
</style>
<linearGradient id="Shape_1_" gradientUnits="userSpaceOnUse" x1="1.5127" y1="100.6779" x2="1.8105" y2="99.7194" gradientTransform="matrix(72.0001 0 0 -58.6047 -70.0003 5920.9072)">
	<stop  offset="0" style="stop-color:#00B6FB"/>
	<stop  offset="1" style="stop-color:#4FB646"/>
</linearGradient>
<linearGradient id="Shape_2_" gradientUnits="userSpaceOnUse" x1="1.5308" y1="100.6835" x2="1.8286" y2="99.725" gradientTransform="matrix(72.0001 0 0 -58.6047 -70.0003 5920.9072)">
	<stop  offset="0" style="stop-color:#00B6FB"/>
	<stop  offset="1" style="stop-color:#4FB646"/>
</linearGradient>
<path id="Shape" class="st0" d="M41.6,18.8c-1,0-2.1,0.2-3.2,0.8c-1,0.6-1.9,1.8-1.9,3.3v5.9H14.8c-0.1,0-0.1,0-0.2,0
	C14.3,29,14,29.3,14,29.7v13.4v25.1c0,5.1,4.1,9.2,9.2,9.2h53.6c5.1,0,9.2-4.1,9.2-9.2V29.7c0-0.3-0.2-0.6-0.5-0.8c0,0-0.1,0-0.1,0
	c-0.1,0-0.1,0-0.2-0.1c0,0,0,0-0.1,0H63.4V23c0-1.5-0.8-2.7-1.9-3.3c-1-0.6-2.2-0.8-3.2-0.8H41.6z M41.6,20.5h16.7
	c0.7,0,1.6,0.2,2.3,0.6c0.7,0.4,1.1,0.9,1.1,1.9v5.9H38.3V23c0-1,0.4-1.5,1.1-1.9C40,20.7,40.9,20.5,41.6,20.5z M15.7,30.6h21.6h47
	v12.6c0,0.1-0.1,0.3-0.4,0.6c-0.3,0.3-0.9,0.6-1.5,0.9c-1.4,0.6-3.4,1-5.6,1H55v-2.5c0-2.3-1.9-4.2-4.2-4.2h-1.7
	c-2.3,0-4.2,1.9-4.2,4.2v2.5H23.2c-2.2,0-4.2-0.4-5.6-1c-0.7-0.3-1.2-0.6-1.5-0.9c-0.3-0.3-0.4-0.5-0.4-0.6V30.6z M49.2,40.6h1.7
	c1.4,0,2.5,1.1,2.5,2.5v6.7c0,1.4-1.1,2.5-2.5,2.5h-1.7c-1.4,0-2.5-1.1-2.5-2.5v-6.7C46.7,41.7,47.8,40.6,49.2,40.6z M15.7,45.5
	c0.4,0.2,0.8,0.5,1.3,0.7c1.6,0.7,3.8,1.1,6.3,1.1H45v2.5c0,2.3,1.9,4.2,4.2,4.2h1.7c2.3,0,4.2-1.9,4.2-4.2v-2.5h21.8
	c2.4,0,4.6-0.4,6.3-1.1c0.5-0.2,0.9-0.4,1.3-0.7v22.7c0,4.2-3.3,7.5-7.5,7.5H23.2c-4.2,0-7.5-3.3-7.5-7.5V45.5z"/>
<text transform="matrix(1 0 0 1 20.8702 69)" class="st1 st2 st3 st4">10 YEAR</text>
<text transform="matrix(1 0 0 1 71.8612 69)" class="st1 st2 st3 st4"> </text>
<text transform="matrix(1 0 0 1 71.8612 69)" class="st1 st2 st3 st4">S</text>
</svg>
