<?xml version="1.0" encoding="utf-8"?>
<!-- Generator: Adobe Illustrator 22.1.0, SVG Export Plug-In . SVG Version: 6.00 Build 0)  -->
<svg version="1.1" id="Layer_1" xmlns="http://www.w3.org/2000/svg" xmlns:xlink="http://www.w3.org/1999/xlink" x="0px" y="0px"
	 width="100px" height="100px" viewBox="0 0 100 100" style="enable-background:new 0 0 100 100;" xml:space="preserve">
<style type="text/css">
	.st0{fill:url(#SVGID_1_);stroke:url(#SVGID_2_);}
	.st1{fill:url(#SVGID_3_);stroke:url(#SVGID_4_);}
</style>
<linearGradient id="SVGID_1_" gradientUnits="userSpaceOnUse" x1="50.5" y1="-44.611" x2="50.5" y2="117.9444" gradientTransform="matrix(1 0 0 -1 0 102)">
	<stop  offset="0" style="stop-color:#00268C"/>
	<stop  offset="0.3735" style="stop-color:#0089F5"/>
	<stop  offset="1" style="stop-color:#F862FF"/>
</linearGradient>
<linearGradient id="SVGID_2_" gradientUnits="userSpaceOnUse" x1="50.5" y1="-44.611" x2="50.5" y2="117.9444" gradientTransform="matrix(1 0 0 -1 0 102)">
	<stop  offset="0" style="stop-color:#00268C"/>
	<stop  offset="0.3735" style="stop-color:#0089F5"/>
	<stop  offset="1" style="stop-color:#F862FF"/>
</linearGradient>
<path class="st0" d="M50.5,2C24.3,2,3,23.3,3,49.5S24.3,97,50.5,97S98,75.7,98,49.5S76.7,2,50.5,2z M50.5,93.8
	c-24.4,0-44.3-19.9-44.3-44.3S26.1,5.2,50.5,5.2s44.3,19.9,44.3,44.3S74.9,93.8,50.5,93.8z"/>
<linearGradient id="SVGID_3_" gradientUnits="userSpaceOnUse" x1="37.8335" y1="27.8352" x2="37.8335" y2="98.2759" gradientTransform="matrix(1 0 0 -1 0 102)">
	<stop  offset="0" style="stop-color:#00268C"/>
	<stop  offset="0.3735" style="stop-color:#0089F5"/>
	<stop  offset="1" style="stop-color:#F862FF"/>
</linearGradient>
<linearGradient id="SVGID_4_" gradientUnits="userSpaceOnUse" x1="37.8335" y1="27.8352" x2="37.8335" y2="98.2759" gradientTransform="matrix(1 0 0 -1 0 102)">
	<stop  offset="0" style="stop-color:#00268C"/>
	<stop  offset="0.3735" style="stop-color:#0089F5"/>
	<stop  offset="1" style="stop-color:#F862FF"/>
</linearGradient>
<path class="st1" d="M50.5,11.5c-0.9,0-1.6,0.7-1.6,1.6v36.4H25.2c-0.9,0-1.6,0.7-1.6,1.6c0,0.9,0.7,1.6,1.6,1.6h25.3
	c0.9,0,1.6-0.7,1.6-1.6v-38C52.1,12.2,51.4,11.5,50.5,11.5z"/>
</svg>
