<?xml version="1.0" encoding="utf-8"?>
<!-- Generator: Adobe Illustrator 19.2.0, SVG Export Plug-In . SVG Version: 6.00 Build 0)  -->
<svg version="1.1" id="Layer_1" xmlns="http://www.w3.org/2000/svg" xmlns:xlink="http://www.w3.org/1999/xlink" x="0px" y="0px"
	 width="120px" height="140px" viewBox="0 0 120 140" style="enable-background:new 0 0 120 140;" xml:space="preserve">
<style type="text/css">
	.st0{fill:#0C071F;}
	.st1{fill:#DC52E3;}
</style>
<path class="st0" d="M44.7,107.2v10.2h-1.5v-4.6h-5.9v4.6h-1.5v-10.2h1.5v4.4h5.9v-4.4H44.7z M54.4,109.6l-3.8,8.5
	c-0.3,0.8-0.7,1.3-1.2,1.7c-0.4,0.3-1,0.5-1.6,0.5c-0.4,0-0.7-0.1-1.1-0.2c-0.4-0.1-0.6-0.3-0.9-0.5l0.6-1.1
	c0.4,0.4,0.9,0.6,1.4,0.6c0.3,0,0.6-0.1,0.8-0.3c0.2-0.2,0.4-0.5,0.6-0.9l0.2-0.5l-3.4-7.7h1.5l2.7,6.2l2.7-6.2H54.4z M59.8,109.6
	c0.7,0,1.4,0.2,2,0.5c0.6,0.3,1.1,0.8,1.4,1.4c0.3,0.6,0.5,1.3,0.5,2.1s-0.2,1.5-0.5,2.1c-0.3,0.6-0.8,1.1-1.4,1.4
	c-0.6,0.3-1.3,0.5-2,0.5c-0.6,0-1.1-0.1-1.6-0.3c-0.5-0.2-0.9-0.6-1.2-1v1.2h-1.3v-10.8h1.4v4.3c0.3-0.4,0.7-0.7,1.2-0.9
	C58.7,109.7,59.3,109.6,59.8,109.6z M59.7,116.2c0.5,0,0.9-0.1,1.3-0.3c0.4-0.2,0.7-0.6,0.9-1c0.2-0.4,0.4-0.9,0.4-1.4
	c0-0.5-0.1-1-0.4-1.4c-0.2-0.4-0.5-0.7-0.9-1c-0.4-0.2-0.8-0.3-1.3-0.3c-0.5,0-0.9,0.1-1.3,0.3s-0.7,0.5-0.9,1
	c-0.2,0.4-0.3,0.9-0.3,1.4c0,0.5,0.1,1,0.3,1.4c0.2,0.4,0.5,0.7,0.9,1C58.8,116.1,59.2,116.2,59.7,116.2z M67,110.9
	c0.2-0.4,0.6-0.8,1.1-1c0.5-0.2,1.1-0.4,1.7-0.4v1.4c-0.1,0-0.2,0-0.3,0c-0.8,0-1.4,0.2-1.8,0.7c-0.4,0.4-0.6,1.1-0.6,1.9v3.9h-1.4
	v-7.7H67V110.9z M71.5,109.6H73v7.7h-1.4V109.6z M72.3,108.1c-0.3,0-0.5-0.1-0.7-0.3c-0.2-0.2-0.3-0.4-0.3-0.6
	c0-0.3,0.1-0.5,0.3-0.6c0.2-0.2,0.4-0.3,0.7-0.3c0.3,0,0.5,0.1,0.7,0.3c0.2,0.2,0.3,0.4,0.3,0.6c0,0.3-0.1,0.5-0.3,0.7
	C72.7,108.1,72.5,108.1,72.3,108.1z M82.9,106.5v10.8h-1.3v-1.2c-0.3,0.4-0.7,0.8-1.2,1c-0.5,0.2-1,0.3-1.6,0.3
	c-0.7,0-1.4-0.2-2-0.5s-1.1-0.8-1.4-1.4c-0.3-0.6-0.5-1.3-0.5-2.1s0.2-1.5,0.5-2.1c0.3-0.6,0.8-1.1,1.4-1.4c0.6-0.3,1.3-0.5,2-0.5
	c0.6,0,1.1,0.1,1.5,0.3c0.5,0.2,0.9,0.5,1.2,0.9v-4.3H82.9z M78.9,116.2c0.5,0,0.9-0.1,1.3-0.3c0.4-0.2,0.7-0.6,0.9-1
	c0.2-0.4,0.3-0.9,0.3-1.4c0-0.5-0.1-1-0.3-1.4c-0.2-0.4-0.5-0.7-0.9-1s-0.8-0.3-1.3-0.3c-0.5,0-0.9,0.1-1.3,0.3
	c-0.4,0.2-0.7,0.5-0.9,1c-0.2,0.4-0.3,0.9-0.3,1.4c0,0.5,0.1,1,0.3,1.4c0.2,0.4,0.5,0.7,0.9,1C78,116.1,78.4,116.2,78.9,116.2z
	 M17,125.2h1.5v10.2H17V125.2z M25.5,127.6c1,0,1.8,0.3,2.3,0.9c0.6,0.6,0.9,1.4,0.9,2.5v4.5h-1.4v-4.3c0-0.8-0.2-1.3-0.5-1.7
	c-0.4-0.4-0.9-0.6-1.5-0.6c-0.8,0-1.4,0.2-1.8,0.7c-0.4,0.4-0.7,1.1-0.7,1.9v4h-1.4v-7.7h1.3v1.2c0.3-0.4,0.7-0.7,1.1-0.9
	C24.3,127.7,24.9,127.6,25.5,127.6z M35.6,134.9c-0.2,0.2-0.5,0.3-0.8,0.4c-0.3,0.1-0.6,0.1-0.9,0.1c-0.8,0-1.4-0.2-1.8-0.6
	c-0.4-0.4-0.6-1-0.6-1.8v-4.2h-1.3v-1.2h1.3v-1.7h1.4v1.7h2.2v1.2h-2.2v4.2c0,0.4,0.1,0.7,0.3,1c0.2,0.2,0.5,0.3,0.9,0.3
	c0.4,0,0.8-0.1,1.1-0.4L35.6,134.9z M44.1,131.6c0,0.1,0,0.2,0,0.4h-6.3c0.1,0.7,0.4,1.2,0.9,1.6c0.5,0.4,1.2,0.6,1.9,0.6
	c0.9,0,1.7-0.3,2.2-0.9l0.8,0.9c-0.4,0.4-0.8,0.7-1.3,0.9c-0.5,0.2-1.1,0.3-1.7,0.3c-0.8,0-1.5-0.2-2.2-0.5
	c-0.6-0.3-1.1-0.8-1.5-1.4c-0.3-0.6-0.5-1.3-0.5-2c0-0.8,0.2-1.4,0.5-2c0.3-0.6,0.8-1.1,1.4-1.4c0.6-0.3,1.3-0.5,2-0.5
	c0.7,0,1.4,0.2,2,0.5c0.6,0.3,1,0.8,1.4,1.4C43.9,130.1,44.1,130.8,44.1,131.6z M40.3,128.7c-0.7,0-1.2,0.2-1.7,0.6
	c-0.4,0.4-0.7,0.9-0.8,1.6h5c-0.1-0.7-0.3-1.2-0.8-1.6C41.5,129,40.9,128.7,40.3,128.7z M46,124.5h1.4v10.8H46V124.5z M50.1,124.5
	h1.4v10.8h-1.4V124.5z M54.2,127.6h1.4v7.7h-1.4V127.6z M54.9,126.1c-0.3,0-0.5-0.1-0.7-0.3c-0.2-0.2-0.3-0.4-0.3-0.6
	c0-0.3,0.1-0.5,0.3-0.6c0.2-0.2,0.4-0.3,0.7-0.3c0.3,0,0.5,0.1,0.7,0.3c0.2,0.2,0.3,0.4,0.3,0.6c0,0.3-0.1,0.5-0.3,0.7
	C55.4,126.1,55.2,126.1,54.9,126.1z M65.7,127.6v6.7c0,1.4-0.3,2.4-1,3c-0.7,0.7-1.7,1-3,1c-0.7,0-1.4-0.1-2.1-0.3
	c-0.7-0.2-1.2-0.5-1.6-0.8l0.7-1.1c0.4,0.3,0.8,0.6,1.3,0.7c0.5,0.2,1.1,0.3,1.7,0.3c0.9,0,1.6-0.2,2-0.6c0.4-0.4,0.7-1.1,0.7-2
	v-0.6c-0.3,0.4-0.7,0.7-1.2,0.9c-0.5,0.2-1,0.3-1.6,0.3c-0.7,0-1.4-0.2-2-0.5c-0.6-0.3-1.1-0.8-1.4-1.3c-0.3-0.6-0.5-1.2-0.5-2
	c0-0.7,0.2-1.4,0.5-1.9c0.3-0.6,0.8-1,1.4-1.3c0.6-0.3,1.3-0.5,2-0.5c0.6,0,1.1,0.1,1.6,0.3c0.5,0.2,0.9,0.5,1.2,0.9v-1.2H65.7z
	 M61.6,133.8c0.5,0,1-0.1,1.4-0.3c0.4-0.2,0.7-0.5,0.9-0.9c0.2-0.4,0.4-0.8,0.4-1.3c0-0.8-0.2-1.4-0.7-1.8c-0.5-0.5-1.1-0.7-1.9-0.7
	c-0.8,0-1.4,0.2-1.9,0.7c-0.5,0.5-0.7,1.1-0.7,1.8c0,0.5,0.1,0.9,0.3,1.3c0.2,0.4,0.6,0.7,0.9,0.9C60.7,133.7,61.1,133.8,61.6,133.8
	z M75.3,131.6c0,0.1,0,0.2,0,0.4H69c0.1,0.7,0.4,1.2,0.9,1.6c0.5,0.4,1.2,0.6,1.9,0.6c0.9,0,1.7-0.3,2.2-0.9l0.8,0.9
	c-0.4,0.4-0.8,0.7-1.3,0.9c-0.5,0.2-1.1,0.3-1.7,0.3c-0.8,0-1.5-0.2-2.2-0.5c-0.6-0.3-1.1-0.8-1.5-1.4c-0.3-0.6-0.5-1.3-0.5-2
	c0-0.8,0.2-1.4,0.5-2c0.3-0.6,0.8-1.1,1.4-1.4c0.6-0.3,1.3-0.5,2-0.5s1.4,0.2,2,0.5c0.6,0.3,1,0.8,1.4,1.4
	C75.2,130.1,75.3,130.8,75.3,131.6z M71.5,128.7c-0.7,0-1.2,0.2-1.7,0.6c-0.4,0.4-0.7,0.9-0.8,1.6h5c-0.1-0.7-0.3-1.2-0.8-1.6
	C72.7,129,72.2,128.7,71.5,128.7z M81.4,127.6c1,0,1.8,0.3,2.3,0.9c0.6,0.6,0.9,1.4,0.9,2.5v4.5h-1.4v-4.3c0-0.8-0.2-1.3-0.5-1.7
	c-0.4-0.4-0.9-0.6-1.5-0.6c-0.8,0-1.4,0.2-1.8,0.7c-0.4,0.4-0.7,1.1-0.7,1.9v4h-1.4v-7.7h1.3v1.2c0.3-0.4,0.7-0.7,1.1-0.9
	C80.3,127.7,80.8,127.6,81.4,127.6z M90.6,135.5c-0.8,0-1.5-0.2-2.1-0.5c-0.6-0.3-1.1-0.8-1.4-1.4c-0.4-0.6-0.5-1.3-0.5-2
	c0-0.8,0.2-1.4,0.5-2c0.4-0.6,0.8-1.1,1.4-1.4c0.6-0.3,1.3-0.5,2.1-0.5c0.7,0,1.3,0.1,1.9,0.4c0.6,0.3,1,0.7,1.3,1.2l-1.1,0.7
	c-0.2-0.4-0.5-0.6-0.9-0.8c-0.4-0.2-0.8-0.3-1.2-0.3c-0.5,0-1,0.1-1.4,0.3c-0.4,0.2-0.7,0.5-0.9,1c-0.2,0.4-0.3,0.9-0.3,1.4
	c0,0.5,0.1,1,0.3,1.4c0.2,0.4,0.6,0.7,0.9,0.9c0.4,0.2,0.9,0.3,1.4,0.3c0.4,0,0.8-0.1,1.2-0.3c0.4-0.2,0.7-0.5,0.9-0.8l1.1,0.7
	c-0.3,0.5-0.7,0.9-1.3,1.2C92,135.3,91.3,135.5,90.6,135.5z M102.5,131.6c0,0.1,0,0.2,0,0.4h-6.3c0.1,0.7,0.4,1.2,0.9,1.6
	c0.5,0.4,1.2,0.6,1.9,0.6c0.9,0,1.7-0.3,2.2-0.9l0.8,0.9c-0.4,0.4-0.8,0.7-1.3,0.9c-0.5,0.2-1.1,0.3-1.7,0.3c-0.8,0-1.5-0.2-2.2-0.5
	c-0.6-0.3-1.1-0.8-1.5-1.4c-0.3-0.6-0.5-1.3-0.5-2c0-0.8,0.2-1.4,0.5-2c0.3-0.6,0.8-1.1,1.4-1.4c0.6-0.3,1.3-0.5,2-0.5
	s1.4,0.2,2,0.5c0.6,0.3,1,0.8,1.4,1.4C102.3,130.1,102.5,130.8,102.5,131.6z M98.7,128.7c-0.7,0-1.2,0.2-1.7,0.6
	c-0.4,0.4-0.7,0.9-0.8,1.6h5c-0.1-0.7-0.3-1.2-0.8-1.6C99.9,129,99.3,128.7,98.7,128.7z"/>
<path class="st1" d="M38.1,71.2c2.1-1,3.5-3,3.5-5.5c0-3.4-2.8-6.1-6.1-6.1c-3.3,0-6.1,2.8-6.1,6.1c0,2.4,1.5,4.5,3.5,5.5
	c-4.2,1.2-7.5,5.1-7.5,9.7v0.6h20.3v-0.6C45.6,76.3,42.3,72.4,38.1,71.2z M30.5,65.7c0-2.7,2.2-4.9,4.9-4.9s4.9,2.2,4.9,4.9
	c0,2.7-2.2,4.9-4.9,4.9S30.5,68.4,30.5,65.7z M26.5,80.4c0.4-4.6,4.1-8.2,8.9-8.2s8.6,3.6,8.9,8.2H26.5z"/>
<path class="st1" d="M60.7,71.2c2.1-1,3.5-3,3.5-5.5c0-3.4-2.8-6.1-6.1-6.1c-3.3,0-6.1,2.8-6.1,6.1c0,2.4,1.5,4.5,3.5,5.5
	c-4.2,1.2-7.5,5.1-7.5,9.7v0.6h20.1v-0.6C68.3,76.3,65.1,72.4,60.7,71.2z M53.2,65.7c0-2.7,2.2-4.9,4.9-4.9c2.7,0,4.9,2.2,4.9,4.9
	c0,2.7-2.2,4.9-4.9,4.9C55.4,70.6,53.2,68.4,53.2,65.7z M49.2,80.4c0.4-4.6,4.1-8.2,8.9-8.2s8.6,3.6,8.9,8.2H49.2z"/>
<path class="st1" d="M83.4,71.2c2.1-1,3.5-3,3.5-5.5c0-3.4-2.8-6.1-6.1-6.1s-6.1,2.8-6.1,6.1c0,2.4,1.5,4.5,3.5,5.5
	c-4.2,1.2-7.5,5.1-7.5,9.7v0.6h20.3v-0.6C90.8,76.3,87.7,72.4,83.4,71.2z M75.9,65.7c0-2.7,2.2-4.9,4.9-4.9s4.9,2.2,4.9,4.9
	c0,2.7-2.2,4.9-4.9,4.9S75.9,68.4,75.9,65.7z M71.9,80.4c0.4-4.6,4.1-8.2,8.9-8.2s8.6,3.6,8.9,8.2H71.9z"/>
<path class="st1" d="M32.1,34c0.2,0,0.5,0,0.6-0.1l3.2,7c-0.4,0.5-0.6,1.1-0.6,1.7c0,1.2,0.8,2.2,1.9,2.5l-3.2,9.7l1.1,0.4l3.3-10.1
	c0.6-0.1,1.1-0.4,1.5-0.7l6.7,1.8c0,0.1,0,0.2,0,0.4c0,0.7,0.2,1.3,0.7,1.8c-1,0.8-3,2.8-7.5,7.2l0.8,0.8c2.7-2.5,6.5-6.3,7.6-7.4
	c0.4,0.1,0.7,0.2,1.1,0.2s0.6-0.1,0.8-0.1l4.2,8.1l1.1-0.6l-4.2-8.1c0.4-0.4,0.6-0.7,0.7-1.3h11.6c0.2,0.8,0.8,1.6,1.7,1.9l-4,6.5
	l1.1,0.6l4.4-7c0.5,0,0.8-0.2,1.2-0.5l7.2,7.6l0.8-0.8l-7.3-7.6c0.2-0.4,0.4-0.8,0.4-1.2c0-0.1,0-0.2,0-0.4l6.7-1.8
	c0.5,0.5,1.2,0.8,1.9,0.8h0.1l2.3,9.9l1.2-0.2L79.1,45c0.8-0.5,1.3-1.3,1.3-2.3c0-0.6-0.2-1.2-0.6-1.7l3.2-7c0.2,0,0.4,0.1,0.6,0.1
	c1.5,0,2.7-1.2,2.7-2.7c0-1.5-1.2-2.7-2.7-2.7L81.1,19c0.6-0.5,1-1.2,1-2.1c0-1.5-1.2-2.7-2.7-2.7c-1.1,0-1.9,0.6-2.4,1.5l-7.6-1.3
	c0-0.1,0-0.2,0-0.4c0-1.5-1.2-2.7-2.7-2.7c-0.5,0-1,0.1-1.3,0.4l-5-3.8c0.2-0.4,0.4-0.8,0.4-1.3c0-1.5-1.2-2.7-2.7-2.7
	c-1.5,0-2.7,1.2-2.7,2.7c0,0.5,0.1,1,0.4,1.3l-5,3.8c-0.4-0.2-0.8-0.4-1.3-0.4c-1.5,0-2.7,1.2-2.7,2.7c0,0.1,0,0.2,0,0.4l-7.6,1.3
	c-0.5-0.8-1.3-1.5-2.4-1.5c-1.5,0-2.7,1.2-2.7,2.7c0,0.8,0.4,1.6,1,2.1l-2.4,9.7c-1.5,0-2.7,1.2-2.7,2.7C29.3,32.7,30.5,34,32.1,34z
	 M37.9,44c-0.8,0-1.5-0.6-1.5-1.5s0.6-1.5,1.5-1.5s1.5,0.6,1.5,1.5S38.7,44,37.9,44z M40.5,43.3c0.1-0.2,0.1-0.5,0.1-0.7
	c0-0.8-0.4-1.6-1-2.1l4.5-7.9c0.2,0.1,0.5,0.1,0.7,0.1l2.8,11.5c-0.4,0.2-0.6,0.5-0.8,0.7L40.5,43.3z M47.6,30.1
	c0-0.2,0-0.5-0.1-0.7l8.2-4.4c0.4,0.2,0.7,0.5,1.2,0.6v8.9c-1.2,0.2-2.1,1.3-2.1,2.7c0,0.7,0.2,1.5,0.7,1.9l-5.1,5.3
	c-0.4-0.2-1-0.5-1.5-0.5c-0.1,0-0.1,0-0.2,0l-2.8-11.4C47,32.1,47.6,31.2,47.6,30.1z M51.2,12.4l5-3.8C56.4,8.7,56.7,8.9,57,9v11.4
	c-0.2,0.1-0.6,0.1-0.8,0.4L51,15.4c0.4-0.5,0.5-1,0.5-1.6C51.6,13.2,51.4,12.7,51.2,12.4z M59,8.6l5,3.8c-0.2,0.4-0.5,1-0.5,1.5
	c0,0.6,0.2,1.1,0.5,1.6l-5.1,5.3c-0.2-0.1-0.5-0.2-0.8-0.4V9C58.4,8.9,58.8,8.7,59,8.6z M69,32.5l-2.8,11.4c-0.1,0-0.1,0-0.2,0
	c-0.5,0-1.1,0.1-1.5,0.5L59.4,39c0.5-0.5,0.7-1.1,0.7-1.8c0-1.3-0.8-2.3-2.1-2.7v-8.9c0.5-0.1,0.8-0.4,1.2-0.6l8.2,4.4
	c-0.1,0.2-0.1,0.5-0.1,0.7C67.5,31.2,68.1,32.1,69,32.5z M71.7,30.1c0,0.8-0.6,1.5-1.5,1.5s-1.5-0.6-1.5-1.5c0-0.8,0.6-1.5,1.5-1.5
	S71.7,29.3,71.7,30.1z M51.4,45.2l5.3-5.6c0.2,0.1,0.6,0.1,0.8,0.1c0.4,0,0.6-0.1,0.8-0.1l5.3,5.6c-0.1,0.2-0.2,0.5-0.4,0.7H51.8
	C51.6,45.7,51.5,45.5,51.4,45.2z M56,23c0-0.8,0.6-1.5,1.5-1.5c0.8,0,1.5,0.6,1.5,1.5c0,0.8-0.6,1.5-1.5,1.5
	C56.7,24.5,56,23.9,56,23z M57.6,35.7c0.8,0,1.5,0.6,1.5,1.5c0,0.8-0.6,1.5-1.5,1.5s-1.5-0.6-1.5-1.5C56.1,36.3,56.7,35.7,57.6,35.7
	z M45,31.7c-0.8,0-1.5-0.6-1.5-1.5c0-0.8,0.6-1.5,1.5-1.5s1.5,0.6,1.5,1.5C46.4,31,45.7,31.7,45,31.7z M47.6,46.7
	c0-0.8,0.6-1.5,1.5-1.5s1.5,0.6,1.5,1.5c0,0.8-0.6,1.5-1.5,1.5S47.6,47.4,47.6,46.7z M66.1,48.1c-0.8,0-1.5-0.6-1.5-1.5
	c0-0.8,0.6-1.5,1.5-1.5c0.8,0,1.5,0.6,1.5,1.5C67.5,47.5,66.8,48.1,66.1,48.1z M68.3,45.1c-0.2-0.4-0.5-0.6-0.8-0.7l2.8-11.5
	c0.2,0,0.5,0,0.7-0.1l4.5,7.9c-0.6,0.5-1,1.2-1,2.1c0,0.2,0,0.5,0.1,0.7L68.3,45.1z M77.2,44c-0.8,0-1.5-0.6-1.5-1.5
	s0.6-1.5,1.5-1.5s1.5,0.6,1.5,1.5S78.1,44,77.2,44z M84.6,31.2c0,0.8-0.6,1.5-1.5,1.5c-0.8,0-1.5-0.6-1.5-1.5c0-0.8,0.6-1.5,1.5-1.5
	C83.9,29.7,84.6,30.4,84.6,31.2z M82,28.7c-1,0.5-1.6,1.3-1.6,2.4c0,0.8,0.4,1.6,1,2.1l-3,6.8c-0.4-0.1-0.7-0.2-1.1-0.2
	c-0.2,0-0.5,0-0.7,0.1L71.9,32c0.5-0.5,0.8-1.2,0.8-1.9c0-0.7-0.4-1.5-0.8-1.9l5.9-8.9c0.2,0.1,0.6,0.1,0.8,0.1c0.2,0,0.5,0,0.6-0.1
	L82,28.7z M78.9,15.3c0.8,0,1.5,0.6,1.5,1.5c0,0.8-0.6,1.5-1.5,1.5s-1.5-0.6-1.5-1.5C77.5,15.9,78.1,15.3,78.9,15.3z M68.5,15.3
	l7.8,1.5c0,0.7,0.4,1.5,0.8,1.9l-5.9,8.9c-0.2-0.1-0.5-0.1-0.8-0.1c-0.8,0-1.6,0.4-2.1,1L60.1,24c0.1-0.4,0.2-0.6,0.2-1
	c0-0.5-0.1-1-0.4-1.5l5.2-5.5c0.4,0.2,0.8,0.4,1.2,0.4C67.2,16.5,68,16,68.5,15.3z M67.8,13.8c0,0.8-0.6,1.5-1.5,1.5
	c-0.8,0-1.5-0.6-1.5-1.5c0-0.8,0.6-1.5,1.5-1.5C67.1,12.2,67.8,13,67.8,13.8z M57.6,4.8c0.8,0,1.5,0.6,1.5,1.5s-0.6,1.5-1.5,1.5
	s-1.5-0.6-1.5-1.5S56.7,4.8,57.6,4.8z M48.9,12.2c0.8,0,1.5,0.6,1.5,1.5c0,0.8-0.6,1.5-1.5,1.5s-1.5-0.6-1.5-1.5
	C47.4,12.9,48.1,12.2,48.9,12.2z M38.9,16.7l7.8-1.5c0.5,0.7,1.3,1.2,2.2,1.2c0.5,0,0.8-0.1,1.2-0.4l5.1,5.5c-0.2,0.4-0.5,1-0.5,1.5
	c0,0.4,0.1,0.7,0.2,1l-8.1,4.2c-0.5-0.6-1.2-1-2.1-1c-0.2,0-0.6,0-0.8,0.1l-5.9-8.9C38.7,18.2,38.9,17.5,38.9,16.7z M36.2,15.3
	c0.8,0,1.5,0.6,1.5,1.5c0,0.8-0.6,1.5-1.5,1.5s-1.5-0.6-1.5-1.5C34.8,15.9,35.4,15.3,36.2,15.3z M36.2,19.4c0.2,0,0.6,0,0.8-0.1
	l5.9,8.9c-0.5,0.5-0.8,1.2-0.8,1.9c0,0.7,0.4,1.5,0.8,1.9l-4.6,7.9c-0.2,0-0.5-0.1-0.7-0.1c-0.4,0-0.7,0.1-1.1,0.2l-3-6.8
	c0.6-0.5,1-1.2,1-2.1c0-1.1-0.6-2.1-1.6-2.4l2.4-9.5C35.8,19.4,36,19.4,36.2,19.4z M32.1,29.7c0.8,0,1.5,0.6,1.5,1.5
	c0,0.8-0.6,1.5-1.5,1.5s-1.5-0.6-1.5-1.5C30.7,30.3,31.3,29.7,32.1,29.7z"/>
</svg>
