<?xml version="1.0" encoding="utf-8"?>
<!-- Generator: Adobe Illustrator 22.1.0, SVG Export Plug-In . SVG Version: 6.00 Build 0)  -->
<svg version="1.1" id="Layer_1" xmlns="http://www.w3.org/2000/svg" xmlns:xlink="http://www.w3.org/1999/xlink" x="0px" y="0px"
	 width="100px" height="100px" viewBox="0 0 100 100" style="enable-background:new 0 0 100 100;" xml:space="preserve">
<style type="text/css">
	.st0{fill:url(#SVGID_1_);}
	.st1{fill:url(#SVGID_2_);}
	.st2{fill:url(#SVGID_3_);}
	.st3{fill:url(#SVGID_4_);}
	.st4{fill:url(#SVGID_5_);}
	.st5{fill:url(#SVGID_6_);}
	.st6{fill:url(#SVGID_7_);}
	.st7{fill:url(#SVGID_8_);}
</style>
<linearGradient id="SVGID_1_" gradientUnits="userSpaceOnUse" x1="10.916" y1="24.108" x2="83.041" y2="79.608">
	<stop  offset="0" style="stop-color:#00B6FB"/>
	<stop  offset="1" style="stop-color:#4FB646"/>
</linearGradient>
<path class="st0" d="M68.4,62.2C68.4,62.2,68.4,62.2,68.4,62.2H55c-0.1,0-0.1,0-0.2,0c-0.5,0-0.8,0.5-0.8,1.1c0,0.5,0.5,0.9,0.9,0.9
	h13.4c0.5,0,0.8-0.4,0.8-1C69.3,62.7,68.9,62.2,68.4,62.2z"/>
<linearGradient id="SVGID_2_" gradientUnits="userSpaceOnUse" x1="14.4947" y1="19.4573" x2="86.6197" y2="74.9573">
	<stop  offset="0" style="stop-color:#00B6FB"/>
	<stop  offset="1" style="stop-color:#4FB646"/>
</linearGradient>
<path class="st1" d="M54.9,57.4c-0.5,0-0.8,0.5-0.8,1.1c0,0.5,0.5,0.9,0.9,0.9h20.1c0.5,0,0.8-0.4,0.8-1c0-0.5-0.4-1-0.8-1
	c0,0,0,0,0,0H55C55,57.4,54.9,57.4,54.9,57.4z"/>
<linearGradient id="SVGID_3_" gradientUnits="userSpaceOnUse" x1="15.5824" y1="18.0438" x2="87.7074" y2="73.5438">
	<stop  offset="0" style="stop-color:#00B6FB"/>
	<stop  offset="1" style="stop-color:#4FB646"/>
</linearGradient>
<path class="st2" d="M54.9,52.6c-0.5,0-0.8,0.5-0.8,1.1c0,0.5,0.5,0.9,0.9,0.9h13.4c0.5,0,0.8-0.4,0.8-1c0-0.5-0.4-1-0.8-1
	c0,0,0,0,0,0H55C55,52.5,54.9,52.5,54.9,52.6z"/>
<linearGradient id="SVGID_4_" gradientUnits="userSpaceOnUse" x1="7.1412" y1="29.0136" x2="79.2662" y2="84.5136">
	<stop  offset="0" style="stop-color:#00B6FB"/>
	<stop  offset="1" style="stop-color:#4FB646"/>
</linearGradient>
<path class="st3" d="M24.9,61.4H45c0.5,0,0.8-0.4,0.8-1V40.3c0-0.5-0.4-1-0.8-1H24.9c-0.1,0-0.1,0-0.2,0c-0.4,0.1-0.7,0.5-0.7,1
	v20.2C24,61,24.4,61.4,24.9,61.4z M25.7,41.3h18.4v18.2H25.7V41.3z"/>
<linearGradient id="SVGID_5_" gradientUnits="userSpaceOnUse" x1="12.025" y1="22.6668" x2="84.15" y2="78.1668">
	<stop  offset="0" style="stop-color:#00B6FB"/>
	<stop  offset="1" style="stop-color:#4FB646"/>
</linearGradient>
<path class="st4" d="M85.3,26.8c0,0-9.3,0-27.8,0V22c0-0.5-0.4-1-0.8-1H43.3c-0.6,0.1-0.8,0.5-0.8,1v4.8H14.8c-0.5,0-0.8,0.4-0.8,1
	V76c0,0.5,0.4,1,0.8,1h70.3c0.5,0,0.8-0.4,0.8-1V27.8C86,27.3,85.7,26.9,85.3,26.8z M44.1,22.9h11.7v3.9H44.1V22.9z M84.3,75.1H15.7
	V28.7h68.7V75.1z"/>
<linearGradient id="SVGID_6_" gradientUnits="userSpaceOnUse" x1="17.3178" y1="15.7885" x2="89.4428" y2="71.2885">
	<stop  offset="0" style="stop-color:#00B6FB"/>
	<stop  offset="1" style="stop-color:#4FB646"/>
</linearGradient>
<rect x="54" y="40" class="st5" width="1.9" height="9.5"/>
<linearGradient id="SVGID_7_" gradientUnits="userSpaceOnUse" x1="20.3601" y1="11.8349" x2="92.4851" y2="67.3349">
	<stop  offset="0" style="stop-color:#00B6FB"/>
	<stop  offset="1" style="stop-color:#4FB646"/>
</linearGradient>
<path class="st6" d="M62.9,49.5c0.9,0,1.7-0.2,2.4-0.5v-1.6c-0.9,0.3-1.6,0.5-2.2,0.5c-1.5,0-2.2-1-2.2-3.1c0-1,0.2-1.8,0.6-2.3
	c0.4-0.6,0.9-0.8,1.6-0.8c0.3,0,0.6,0.1,1,0.2c0.3,0.1,0.7,0.3,1,0.4l0.6-1.6c-0.9-0.4-1.7-0.7-2.6-0.7c-0.8,0-1.6,0.2-2.2,0.6
	c-0.6,0.4-1.1,0.9-1.4,1.7C59.2,43,59,43.8,59,44.8c0,1.5,0.3,2.7,1,3.5C60.7,49.1,61.7,49.5,62.9,49.5z"/>
<linearGradient id="SVGID_8_" gradientUnits="userSpaceOnUse" x1="23.426" y1="7.8507" x2="95.551" y2="63.3507">
	<stop  offset="0" style="stop-color:#00B6FB"/>
	<stop  offset="1" style="stop-color:#4FB646"/>
</linearGradient>
<polygon class="st7" points="70.7,45.7 73.5,45.7 73.5,44.1 70.7,44.1 70.7,41.6 73.7,41.6 73.7,40 69,40 69,49.5 70.7,49.5 "/>
</svg>
