<?xml version="1.0" encoding="utf-8"?>
<!-- Generator: Adobe Illustrator 22.1.0, SVG Export Plug-In . SVG Version: 6.00 Build 0)  -->
<svg version="1.1" id="Layer_1" xmlns="http://www.w3.org/2000/svg" xmlns:xlink="http://www.w3.org/1999/xlink" x="0px" y="0px"
	 width="100px" height="100px" viewBox="0 0 100 100" style="enable-background:new 0 0 100 100;" xml:space="preserve">
<style type="text/css">
	.st0{fill:#2CB2FF;}
</style>
<path class="st0" d="M49.2,95.8c-1.6,0-3-0.8-4-2.2L43,90.9c-1.2-1.6-3.6-2-5.2-1l-3,1.6c-1.6,0.8-3,1-4.4,0.4s-2.4-1.8-2.8-3.6
	l-0.8-3.4c-0.4-1.8-2.4-3.2-4.4-3l-3.8,0.2c-1.6,0.2-3.2-0.4-4.4-1.6s-1.4-2.8-1-4.4l0.6-3.4c0.4-1.8-1-4-2.6-4.6L8.2,67
	c-1.6-0.6-2.8-1.6-3.2-3.2c-0.4-1.4-0.2-3,0.8-4.4l2-3c1-1.6,0.8-4-0.6-5.4l-2.6-2.4c-1.2-1.2-1.8-2.8-1.6-4.2c0.2-1.6,1-3,2.4-3.6
	l3-1.8c1.8-0.8,2.6-3.2,1.8-5L8.8,31c-0.6-1.6-0.6-3.2,0.2-4.4c0.8-1.4,2.2-2.2,3.8-2.4l3.6-0.4c1.8-0.4,3.6-2,3.6-4l0.2-3.6
	c0-1.6,0.8-3.2,2-4c1.2-1,3-1,4.4-0.6l3.4,1c1.8,0.6,4-0.4,5-2.2l1.6-3.2c0.8-1.6,2-2.6,3.6-3c1.6-0.4,3,0.2,4.4,1.2L47,7.9
	c1.4,1.2,3.8,1.2,5.4,0L55,5.7c1.2-1,3-1.6,4.4-1.2c1.6,0.4,2.8,1.4,3.6,3l1.4,3c0.8,1.6,3,2.8,5,2.2l3.4-1c1.6-0.4,3.2-0.4,4.4,0.6
	s2,2.4,2,4l0.2,3.6c0,1.8,1.6,3.6,3.6,4l3.6,0.4c1.6,0.2,3,1,3.8,2.4c0.8,1.4,0.8,3,0.2,4.4L89,34.1c-0.8,1.6,0,4.2,1.6,5l3,1.8
	c1.4,1,2.4,2.4,2.4,3.6c0.2,1.6-0.4,3-1.6,4.2l-2.6,2.4c-1.4,1.4-1.6,3.6-0.6,5.4l2,3c1,1.4,1.2,3,0.8,4.4c-0.4,1.4-1.6,2.6-3.2,3.2
	l-3.2,1.2c-1.8,0.6-3,2.8-2.6,4.6l0.6,3.4c0.4,1.6-0.2,3.2-1,4.4c-1,1-2.6,1.6-4.4,1.6l-3.4-0.4c-1.8-0.2-3.8,1.2-4.4,3l-0.8,3.4
	c-0.4,1.6-1.4,3-2.8,3.6c-1.4,0.6-3,0.4-4.4-0.4l-3-1.6c-1.6-1-4-0.4-5.2,1l-2.2,2.8C52,95,50.8,95.8,49.2,95.8z M39.7,86.7
	c2.2,0,4.4,1,5.6,2.6l2.2,2.8c1,1.2,2.4,1.2,3.6,0l2.2-2.8c2-2.6,6-3.4,9-1.8l3,1.6c0.8,0.4,1.4,0.4,2,0.2c0.6-0.4,1-0.8,1.2-1.6
	l0.8-3.4c0.8-3.2,4-5.6,7.4-5.4l3.6,0.4c0.8,0,1.6-0.2,1.8-0.6c0.4-0.4,0.6-1.2,0.4-2l-0.6-3.4C81,70.2,83,66.6,86,65.6l3.2-1.2
	c0.8-0.4,1.2-0.8,1.6-1.4c0.2-0.6,0-1.2-0.4-2l-2.2-2.8c-1.8-2.8-1.4-6.8,1-9l2.6-2.4c0.6-0.6,1-1.2,0.8-1.8c0-0.6-0.4-1.2-1.2-1.6
	l-3-1.8c-2.8-1.6-4-5.6-2.8-8.6L87,30c0.4-0.8,0.4-1.4,0-2c-0.4-0.6-1-1-1.6-1l-3.6-0.4c-3.2-0.4-6-3.4-6-6.8l-0.2-3.6
	c0-0.8-0.4-1.4-0.8-1.8c-0.4-0.4-1.2-0.4-2-0.2l-3.4,1c-3,1-7-0.8-8.4-3.6l-1.6-3.2c-0.4-0.8-1-1.2-1.6-1.4
	c-0.6-0.2-1.2,0.2-1.8,0.6l-2.6,2.4c-2.4,2.2-6.6,2.2-9,0L42,7.7c-0.6-0.4-1.2-0.8-1.8-0.6c-0.6,0.2-1.2,0.6-1.6,1.4l-1.6,3.2
	c-1.4,3-5,4.6-8.4,3.6l-3.4-1c-0.8-0.4-1.6-0.2-2,0.2c-0.4,0.4-0.8,1-0.8,1.8l-0.2,3.6c-0.2,3.2-2.8,6.4-6,6.8l-3.6,0.6
	c-0.8,0.2-1.4,0.4-1.6,1c-0.2,0.6-0.4,1.2,0,2l1.4,3.2c1.2,3,0,7-2.8,8.6l-3,1.8c-0.6,0.4-1,1-1.2,1.6c-0.2,0.6,0.2,1.2,0.8,1.8
	L9,49.5c2.4,2.2,2.8,6.2,1,8.8l-2,3c-0.4,0.6-0.6,1.4-0.4,2c0.2,0.6,0.8,1,1.6,1.4l3.2,1.2c3,1,5,4.6,4.4,7.8l-0.6,3.4
	c-0.2,0.8,0,1.6,0.4,2c0.4,0.4,1,0.8,1.8,0.6l3.6-0.4c3.2-0.4,6.6,2.2,7.4,5.4l0.8,3.4c0.2,0.8,0.6,1.4,1.2,1.6
	c0.6,0.4,1.2,0.2,2-0.2l3-1.6C37.5,86.9,38.7,86.7,39.7,86.7z"/>
<path class="st0" d="M61.9,71.4c-4.6,0-8.4-3.6-8.4-8.4c0-4.8,3.6-8.4,8.4-8.4c4.8,0,8.4,3.6,8.4,8.4C70.1,67.6,66.5,71.4,61.9,71.4
	z M61.9,57.8c-3,0-5.4,2.4-5.4,5.4c0,3,2.4,5.4,5.4,5.4c3,0,5.4-2.4,5.4-5.4C67.3,60.2,64.9,57.8,61.9,57.8z"/>
<path class="st0" d="M34.9,44.3c-4.6,0-8.4-3.6-8.4-8.4c0-4.6,3.6-8.4,8.4-8.4c4.8,0,8.4,3.6,8.4,8.4C43.2,40.5,39.5,44.3,34.9,44.3
	z M34.9,30.6c-3,0-5.4,2.4-5.4,5.4c0,3,2.4,5.4,5.4,5.4c3,0,5.4-2.4,5.4-5.4C40.2,33,37.9,30.6,34.9,30.6z"/>
<path class="st0" d="M30.5,69.6c-0.4,0-0.8-0.2-1-0.4c-0.6-0.6-0.6-1.4,0-2L66.9,30c0.6-0.6,1.4-0.6,2,0c0.6,0.6,0.6,1.4,0,2
	L31.7,69.2C31.3,69.6,30.9,69.6,30.5,69.6z"/>
</svg>
