<?xml version="1.0" encoding="utf-8"?>
<!-- Generator: Adobe Illustrator 22.1.0, SVG Export Plug-In . SVG Version: 6.00 Build 0)  -->
<svg version="1.1" id="Layer_1" xmlns="http://www.w3.org/2000/svg" xmlns:xlink="http://www.w3.org/1999/xlink" x="0px" y="0px"
	 width="100px" height="100px" viewBox="0 0 100 100" style="enable-background:new 0 0 100 100;" xml:space="preserve">
<style type="text/css">
	.st0{fill:none;stroke:#2CB2FF;stroke-width:3;stroke-miterlimit:10;}
	.st1{fill:#2CB2FF;}
</style>
<path class="st0" d="M59.6,74.3v19.2c0,2.5-2.1,4.6-4.6,4.6H14.6c-2.5,0-4.6-2.1-4.6-4.6v-87c0-2.5,2.1-4.6,4.6-4.6H55
	c2.5,0,4.6,2.1,4.6,4.6v16.1"/>
<path class="st0" d="M34.5,92.1c2.8,0,5-2.2,5-5c0-2.8-2.2-5-5-5c-2.8,0-5,2.2-5,5C29.5,89.8,31.7,92.1,34.5,92.1z"/>
<path class="st1" d="M27.4,12.6c0,0,0.2-0.2,0.6-0.4c0.2-0.2,0.4-0.2,0.6-0.4c0.2,0,0.2-0.2,0.4-0.2s0.2,0,0.4,0c1.5,0,3.1,0,5,0
	c1.9,0,3.8,0,5,0c0.2,0,0.2,0,0.4,0c0.2,0,0.2,0.2,0.4,0.2c0.2,0.2,0.4,0.2,0.6,0.4c0.4,0.2,0.6,0.4,0.6,0.4S41.4,12.8,41,13
	c-0.2,0.2-0.4,0.2-0.6,0.4c-0.2,0-0.2,0.2-0.4,0.2c-0.2,0-0.2,0-0.4,0c-1.5,0-3.1,0-5,0c-1.9,0-3.8,0-5,0c-0.2,0-0.2,0-0.4,0
	s-0.2-0.2-0.4-0.2c-0.2-0.2-0.4-0.2-0.6-0.4C27.6,12.6,27.4,12.6,27.4,12.6z"/>
<path class="st0" d="M91.6,65.7H55l-7.5,7.7V36.6c0-2.5,2.1-4.6,4.6-4.6h39.3c2.5,0,4.6,2.1,4.6,4.6v24.5
	C96.2,63.6,94.1,65.7,91.6,65.7z"/>
</svg>
