<?xml version="1.0" encoding="utf-8"?>
<!-- Generator: Adobe Illustrator 22.1.0, SVG Export Plug-In . SVG Version: 6.00 Build 0)  -->
<svg version="1.1" id="Layer_1" xmlns="http://www.w3.org/2000/svg" xmlns:xlink="http://www.w3.org/1999/xlink" x="0px" y="0px"
	 width="100px" height="100px" viewBox="0 0 100 100" style="enable-background:new 0 0 100 100;" xml:space="preserve">
<style type="text/css">
	.st0{fill:#2CB2FF;stroke:#2CB2FF;stroke-miterlimit:10;}
	.st1{fill:none;stroke:#2CB2FF;stroke-width:3;stroke-miterlimit:10;}
</style>
<path class="st0" d="M49.7,36.8c-5.4,0-9.9-4.9-9.9-11.1s4.5-11.1,9.9-11.1c5.4,0,9.9,4.9,9.9,11.1S55.1,36.8,49.7,36.8z M49.7,16.6
	c-4.5,0-8.2,4-8.2,9.4c0,5.2,3.5,9.4,8.2,9.4c4.5,0,8.2-4,8.2-9.4S54.1,16.6,49.7,16.6z"/>
<path class="st0" d="M58.9,36.1c-0.5,0-0.9-0.5-0.9-0.9v-21c0-0.5,0.5-0.9,0.9-0.9c0.5,0,0.9,0.5,0.9,0.9v20.7
	C59.8,35.6,59.3,36.1,58.9,36.1z"/>
<path class="st0" d="M50.9,49.1c-12.5,0-22.4-10.4-22.4-23.3c0-12.9,9.9-23.3,22.4-23.3c12.5,0,22.4,10.4,22.4,23.3
	c0,3.3-0.5,6.4-1.4,8.5c-1.6,3.8-4.5,6.1-8.2,6.4c-1.9,0.2-3.3-0.2-4.2-1.2c-1.6-1.4-1.6-3.5-1.6-4.7c0-0.5,0.5-0.9,0.9-0.9
	c0.5,0,0.9,0.5,0.9,0.9c0,0.7,0,2.6,0.9,3.3c0.7,0.5,1.6,0.7,2.8,0.7c3.5-0.5,5.4-3.1,6.4-5.2c0.7-1.9,1.4-4.5,1.4-7.5
	c0-11.8-9.2-21.4-20.5-21.4c-11.3,0-20.5,9.7-20.5,21.4c0,11.8,9.2,21.4,20.5,21.4c3.1,0,5.7-0.7,8.5-1.9c0.5-0.2,1.2,0,1.4,0.5
	c0.2,0.5,0,1.2-0.5,1.4C57.2,48.4,53.9,49.1,50.9,49.1z"/>
<path class="st1" d="M83.6,33.5c0,0,13.4,12,13.4,13.4v48.3c0,1.4-1.2,2.4-2.4,2.4H6.4c-1.4,0-2.4-1.2-2.4-2.4V46.9
	c0-1.4,13.4-13.4,13.4-13.4"/>
<path class="st1" d="M5.4,44.8l44.3,28.5l45.7-28.5"/>
</svg>
