<?xml version="1.0" encoding="utf-8"?>
<!-- Generator: Adobe Illustrator 22.1.0, SVG Export Plug-In . SVG Version: 6.00 Build 0)  -->
<svg version="1.1" id="Layer_1" xmlns="http://www.w3.org/2000/svg" xmlns:xlink="http://www.w3.org/1999/xlink" x="0px" y="0px"
	 width="100px" height="100px" viewBox="0 0 100 100" style="enable-background:new 0 0 100 100;" xml:space="preserve">
<style type="text/css">
	.st0{fill:#2CB2FF;}
</style>
<path class="st0" d="M82.4,96.5H18.2C10.6,96.5,6,91.7,6,83.3V29.6c0-5.8,4.4-10.8,11-12.6c6-1.6,48.7-12,53.3-13
	c3.6-0.6,5.8-0.6,7.2,0.6c1,0.8,1.6,2,1.6,3.8c0.2,3.6,0,11.2,0,11.4c0,0.6-0.6,1.4-1.2,1.4c-2.2,0.2-55.3,4.8-58.7,5
	c-2.2,0.2-3,1.4-3,2.4c0,1,1,2.2,2.8,2.2h61.3c11.2,0,13.6,5.6,13.6,10.4v46.5C94.2,93.7,90.8,96.5,82.4,96.5z M74.1,6.1
	c-0.8,0-1.8,0.2-2.8,0.4c-3.8,0.6-46.7,11.2-53.1,13c-5.4,1.6-9,5.6-9,10v53.9c0,4.8,1.6,10.4,9.2,10.4h63.9c7.6,0,9.2-2.2,9.2-6.4
	V41c0-1.8,0-7.6-10.8-7.6H19.4c-3.6,0-5.6-2.4-5.6-4.8c0-2.4,1.6-5,5.6-5c3-0.2,49.3-4,57.5-4.8c0-2.4,0.2-7.2,0-10
	c0-1.4-0.6-1.6-0.6-1.6C75.8,6.1,75,6.1,74.1,6.1z"/>
<path class="st0" d="M78,71.2c-4.8,0-8.4-3.8-8.4-8.4s3.8-8.4,8.4-8.4c4.6,0,8.4,3.8,8.4,8.4S82.6,71.2,78,71.2z M78,57
	c-3.2,0-5.8,2.6-5.8,5.8c0,3.2,2.6,5.8,5.8,5.8s5.8-2.6,5.8-5.8C83.8,59.8,81.2,57,78,57z"/>
</svg>
