<?xml version="1.0" encoding="utf-8"?>
<!-- Generator: Adobe Illustrator 22.1.0, SVG Export Plug-In . SVG Version: 6.00 Build 0)  -->
<svg version="1.1" id="Layer_1" xmlns="http://www.w3.org/2000/svg" xmlns:xlink="http://www.w3.org/1999/xlink" x="0px" y="0px"
	 width="100px" height="100px" viewBox="0 0 100 100" style="enable-background:new 0 0 100 100;" xml:space="preserve">
<style type="text/css">
	.st0{fill:#2CB2FF;}
	.st1{opacity:0.5;fill:#2CB2FF;enable-background:new    ;}
</style>
<path class="st0" d="M49.7,12.5L37.4,24.7L49.7,37L62,24.7L49.7,12.5z"/>
<path class="st0" d="M49.7,37.1L37.4,49.3l12.3,12.3l12.3-12.3L49.7,37.1z"/>
<path class="st1" d="M37.1,0L24.9,12.3l12.3,12.3l12.3-12.3L37.1,0z"/>
<path class="st1" d="M62.3,0L50.1,12.3l12.3,12.3l12.3-12.3L62.3,0z"/>
<path class="st0" d="M49.7,61.2L37.4,73.5l12.3,12.3L62,73.5L49.7,61.2z"/>
<path class="st1" d="M37.2,74.2L24.9,86.5l12.3,12.3l12.3-12.3L37.2,74.2z"/>
<path class="st1" d="M62,74.3L49.7,86.6L62,98.8l12.3-12.3L62,74.3z"/>
<path class="st0" d="M73.9,37.1L61.6,49.3l12.3,12.3l12.3-12.3L73.9,37.1z"/>
<path class="st1" d="M86.6,49.7L74.3,62l12.3,12.3L98.9,62L86.6,49.7z"/>
<path class="st1" d="M86.7,24.5L74.5,36.8l12.3,12.3L99,36.8L86.7,24.5z"/>
<path class="st0" d="M24.9,37.2L12.6,49.5l12.3,12.3l12.3-12.3L24.9,37.2z"/>
<path class="st1" d="M12.6,49.6L0.4,61.9l12.3,12.3l12.3-12.3L12.6,49.6z"/>
<path class="st1" d="M12.6,24.6L0.3,36.8l12.3,12.3l12.3-12.3L12.6,24.6z"/>
<path class="st0" d="M25.3,12.4H12.7v12.5h12.5V12.4z"/>
<path class="st0" d="M87,12.4H74.4v12.5H87V12.4z"/>
<path class="st0" d="M87,74.3H74.4v12.5H87V74.3z"/>
<path class="st0" d="M25.3,74.3H12.7v12.5h12.5V74.3z"/>
</svg>
