<?xml version="1.0" encoding="utf-8"?>
<!-- Generator: Adobe Illustrator 22.1.0, SVG Export Plug-In . SVG Version: 6.00 Build 0)  -->
<svg version="1.1" id="Layer_1" xmlns="http://www.w3.org/2000/svg" xmlns:xlink="http://www.w3.org/1999/xlink" x="0px" y="0px"
	 width="100px" height="100px" viewBox="0 0 100 100" style="enable-background:new 0 0 100 100;" xml:space="preserve">
<style type="text/css">
	.st0{fill:none;stroke:#2CB2FF;stroke-width:3;stroke-miterlimit:10;}
	.st1{fill:#FFFFFF;stroke:#2CB2FF;stroke-width:3;stroke-miterlimit:10;}
</style>
<path class="st0" d="M12.4,2.8v94.3"/>
<path class="st1" d="M12.4,60.3C6.7,60.3,2,55.6,2,49.9s4.7-10.4,10.4-10.4c5.7,0,10.4,4.7,10.4,10.4C22.6,55.6,17.9,60.3,12.4,60.3
	z"/>
<path class="st0" d="M49.9,2.8v94.3"/>
<path class="st1" d="M49.9,60.3c-5.7,0-10.4-4.7-10.4-10.4s4.7-10.4,10.4-10.4c5.7,0,10.4,4.7,10.4,10.4S55.6,60.3,49.9,60.3z"/>
<path class="st0" d="M87.6,2.8v94.3"/>
<path class="st1" d="M87.6,60.3c-5.7,0-10.4-4.7-10.4-10.4s4.7-10.4,10.4-10.4S98,44.2,98,49.9S93.3,60.3,87.6,60.3z"/>
</svg>
