<?xml version="1.0" encoding="utf-8"?>
<!-- Generator: Adobe Illustrator 22.1.0, SVG Export Plug-In . SVG Version: 6.00 Build 0)  -->
<svg version="1.1" id="Layer_1" xmlns="http://www.w3.org/2000/svg" xmlns:xlink="http://www.w3.org/1999/xlink" x="0px" y="0px"
	 width="100px" height="100px" viewBox="0 0 100 100" style="enable-background:new 0 0 100 100;" xml:space="preserve">
<style type="text/css">
	.st0{fill:none;stroke:#2CB2FF;stroke-width:3;stroke-miterlimit:10;}
</style>
<path class="st0" d="M93.3,86.8H6.5c-2.5,0-4.5-2.1-4.5-4.5V16.2c0-2.5,2.1-4.5,4.5-4.5h86.8c2.5,0,4.5,2.1,4.5,4.5v66.1
	C98,84.7,95.9,86.8,93.3,86.8z"/>
<path class="st0" d="M2,24h96"/>
<path class="st0" d="M27,42.4l12.9,12.7L27,68.7"/>
<path class="st0" d="M52.9,68.7h19.9"/>
<path class="st0" d="M9.6,19.5c-0.6,0-1.2-0.4-1.2-1.2V18c0-0.6,0.4-1.2,0.8-1.2c0.6,0,1.2,0.4,1.2,1.2v0.4
	C10.6,19.1,10,19.5,9.6,19.5z"/>
<path class="st0" d="M15.6,19.5c-0.6,0-1.2-0.4-1.2-1.2V18c0-0.6,0.4-1.2,1.2-1.2c0.6,0,1.2,0.4,1.2,1.2v0.4
	C16.6,19.1,16.2,19.5,15.6,19.5z"/>
<path class="st0" d="M22.8,19.5c-0.6,0-1.2-0.4-1.2-0.8v-0.4c0-0.6,0.4-1.2,0.8-1.2c0.6,0,1.2,0.4,1.2,1.2v0.4
	C23.6,19.1,23.2,19.5,22.8,19.5z"/>
</svg>
