<?xml version="1.0" encoding="utf-8"?>
<!-- Generator: Adobe Illustrator 22.1.0, SVG Export Plug-In . SVG Version: 6.00 Build 0)  -->
<svg version="1.1" id="Layer_1" xmlns="http://www.w3.org/2000/svg" xmlns:xlink="http://www.w3.org/1999/xlink" x="0px" y="0px"
	 width="100px" height="100px" viewBox="0 0 100 100" style="enable-background:new 0 0 100 100;" xml:space="preserve">
<style type="text/css">
	.st0{fill:none;stroke:#2CB2FF;stroke-width:3;stroke-miterlimit:10;}
</style>
<path class="st0" d="M47.2,30.4H4c-0.6,0-1-0.4-1-1v-25C3.2,4,3.6,3.5,4,3.5H47c0.6,0,1,0.4,1,1v24.8C48,30,47.6,30.4,47.2,30.4z"/>
<path class="st0" d="M25.6,30.4v12.4"/>
<path class="st0" d="M13,42.8h25.2"/>
<path class="st0" d="M94.2,84.4H51c-0.6,0-1-0.4-1-1V58.7c0-0.6,0.4-1,1-1H94c0.6,0,1,0.4,1,1v24.8C95,83.9,94.6,84.4,94.2,84.4z"/>
<path class="st0" d="M72.6,84.4v12.4"/>
<path class="st0" d="M60,96.8h25.2"/>
<path class="st0" d="M55.5,18c0,0,21.6-4.1,27.3,17.1"/>
<path class="st0" d="M40.2,77.2c0,0-21.6,4.1-27.3-17.1"/>
</svg>
