<?xml version="1.0" encoding="utf-8"?>
<!-- Generator: Adobe Illustrator 22.1.0, SVG Export Plug-In . SVG Version: 6.00 Build 0)  -->
<svg version="1.1" id="Layer_1" xmlns="http://www.w3.org/2000/svg" xmlns:xlink="http://www.w3.org/1999/xlink" x="0px" y="0px"
	 width="100px" height="100px" viewBox="0 0 100 100" style="enable-background:new 0 0 100 100;" xml:space="preserve">
<style type="text/css">
	.st0{fill:none;stroke:#2CB2FF;stroke-width:3;stroke-miterlimit:10;}
</style>
<path class="st0" d="M46.8,73H4.2c-1.2,0-2.3-0.8-2.3-2.3V13.2c0-1.2,0.8-2.3,2.3-2.3h91.5c1.2,0,2.3,0.8,2.3,2.3v57.6
	c0,1.2-0.8,2.3-2.3,2.3h-7"/>
<path class="st0" d="M25,40.1h21.2"/>
<path class="st0" d="M15.3,27h69.5"/>
<path class="st0" d="M68.2,67.7c7.2,0,13-5.8,13-13s-5.8-13-13-13s-13,5.8-13,13S61,67.7,68.2,67.7z"/>
<path class="st0" d="M58.3,63.6V86l9.9-7.8L78,86V63.6"/>
</svg>
