<?xml version="1.0" encoding="utf-8"?>
<!-- Generator: Adobe Illustrator 22.1.0, SVG Export Plug-In . SVG Version: 6.00 Build 0)  -->
<svg version="1.1" id="Layer_1" xmlns="http://www.w3.org/2000/svg" xmlns:xlink="http://www.w3.org/1999/xlink" x="0px" y="0px"
	 width="100px" height="100px" viewBox="0 0 100 100" style="enable-background:new 0 0 100 100;" xml:space="preserve">
<style type="text/css">
	.st0{fill:#2CB2FF;}
</style>
<path class="st0" d="M68.6,50.2L50,31.6L31.5,50.2L50,68.8L68.6,50.2z M50,41.9l8,8l-8,8l-8-8L50,41.9z"/>
<path class="st0" d="M99,42.2l-5.3-5.3l-8.3,8.3l-7.3-7.3l8.8-8.8l-5.3-5.3l-8.8,8.8l-6-6l8.5-8.5l-5.3-5.3l-8.5,8.5l-6-6.8l8.3-8.3
	L58.6,1l-8.3,8.3l-0.5,0.5l-8.5-8.5L36,6.5l8.5,8.5l-6.3,6.3l-9-9l-5.3,5.3l9,9l-6,6l-9.5-9.5l-5.3,5.3l9.5,9.5l-7.3,7.3l-8.5-8.5
	l-5.3,5.3l8.5,8.5L0.6,59l5.3,5.3l8.5-8.5l6.3,6.3l-8.3,8.3l5.3,5.3l8.3-8.3l6,6l-8,8l5.3,5.3l8-8l7.3,7.3L36,94.4l5.3,5.3l8.5-8.5
	l8.5,8.5l5.3-5.3l-8.5-8.5l7.3-7.3l8,8l5.3-5.3l-8-8l6-6l8.3,8.3l5.3-5.3L78.9,62l6.3-6.3l8.5,8.5L99,59l-8.5-8.5L99,42.2z
	 M49.5,20.3l30.4,30.4L50.3,80.3L19.9,50L49.5,20.3z"/>
</svg>
