<?xml version="1.0" encoding="utf-8"?>
<!-- Generator: Adobe Illustrator 22.1.0, SVG Export Plug-In . SVG Version: 6.00 Build 0)  -->
<svg version="1.1" id="Layer_1" xmlns="http://www.w3.org/2000/svg" xmlns:xlink="http://www.w3.org/1999/xlink" x="0px" y="0px"
	 width="100px" height="100px" viewBox="0 0 100 100" style="enable-background:new 0 0 100 100;" xml:space="preserve">
<style type="text/css">
	.st0{fill:#FFFFFF;stroke:#2CB2FF;stroke-width:3;stroke-miterlimit:10;}
	.st1{fill:none;stroke:#2CB2FF;stroke-width:3;stroke-miterlimit:10;}
	.st2{fill:#4FA1DE;}
</style>
<path class="st0" d="M17.5,82.1h-5.9C8,82.1,5,79.3,5,75.5V55.7C5,52,8,49,11.7,49h5.9c3.8,0,6.7,3,6.7,6.7v19.8
	C24.2,79.3,21.2,82.1,17.5,82.1z"/>
<path class="st0" d="M89.1,82.1h-5.9c-3.6,0-6.7-2.8-6.7-6.7V55.7c0-3.6,3-6.7,6.7-6.7h5.9c3.8,0,6.7,3,6.7,6.7v19.8
	C95.8,79.3,92.8,82.1,89.1,82.1z"/>
<path class="st1" d="M5,54.8C5,28.4,24,4.5,50.5,4.5S96,28.4,96,54.8"/>
<path class="st1" d="M94.5,79.5c0,0-20.7,13.8-28.6,15.8c-6.4,0.2-22,0-22,0"/>
<path class="st2" d="M51.3,97.5H44c-1.4,0-2.4-1.2-2.4-2.4v-0.4c0-1.4,1.2-2.4,2.4-2.4h7.3c1.4,0,2.4,1.2,2.4,2.4v0.4
	C53.7,96.5,52.7,97.5,51.3,97.5z"/>
</svg>
