<?xml version="1.0" encoding="utf-8"?>
<!-- Generator: Adobe Illustrator 22.1.0, SVG Export Plug-In . SVG Version: 6.00 Build 0)  -->
<svg version="1.1" id="Layer_1" xmlns="http://www.w3.org/2000/svg" xmlns:xlink="http://www.w3.org/1999/xlink" x="0px" y="0px"
	 width="100px" height="100px" viewBox="0 0 100 100" style="enable-background:new 0 0 100 100;" xml:space="preserve">
<style type="text/css">
	.st0{fill:#2CB2FF;}
</style>
<path class="st0" d="M73.6,0.4L51.1,22.8v23.2l22.4-22.4V0.4z"/>
<path class="st0" d="M25.8,23.6l22.4,22.4V22.8L25.8,0.4V23.6z"/>
<path class="st0" d="M25.8,98.7l22.4-22.4V53.1L25.8,75.5V98.7z"/>
<path class="st0" d="M51.1,76.3l22.4,22.4V75.5L51.1,53.1V76.3z"/>
<path class="st0" d="M76.3,50.9H53l22.4,22.2h23.2L76.3,50.9z"/>
<path class="st0" d="M76.3,48.2l22.4-22.4H75.5L53,48.2H76.3z"/>
<path class="st0" d="M46,48.2L23.6,25.8H0.4l22.4,22.4H46z"/>
<path class="st0" d="M22.8,50.9L0.4,73.1h23.2L46,50.9H22.8z"/>
<path class="st0" d="M49.6,0L41,8.6l8.6,8.6l8.6-8.6L49.6,0z"/>
<path class="st0" d="M49.7,81.8l-8.6,8.6l8.6,8.6l8.6-8.6L49.7,81.8z"/>
<path class="st0" d="M90.5,41.1l-8.6,8.6l8.6,8.6l8.6-8.6L90.5,41.1z"/>
<path class="st0" d="M8.9,40.9l-8.6,8.6l8.6,8.6l8.6-8.6L8.9,40.9z"/>
</svg>
