<?xml version="1.0" encoding="utf-8"?>
<!-- Generator: Adobe Illustrator 19.2.0, SVG Export Plug-In . SVG Version: 6.00 Build 0)  -->
<svg version="1.1" id="Layer_1" xmlns="http://www.w3.org/2000/svg" xmlns:xlink="http://www.w3.org/1999/xlink" x="0px" y="0px"
	 width="120px" height="140px" viewBox="0 0 120 140" style="enable-background:new 0 0 120 140;" xml:space="preserve">
<style type="text/css">
	.st0{fill:#0C071F;}
	.st1{fill:#124AFF;}
</style>
<path class="st0" d="M28,107.1h1.5v10.2H28V107.1z M36.4,109.5c1,0,1.8,0.3,2.3,0.9c0.6,0.6,0.9,1.4,0.9,2.5v4.5h-1.4V113
	c0-0.7-0.2-1.3-0.5-1.7c-0.4-0.4-0.9-0.6-1.5-0.6c-0.8,0-1.4,0.2-1.8,0.7c-0.4,0.4-0.7,1.1-0.7,1.9v4h-1.4v-7.7h1.3v1.2
	c0.3-0.4,0.7-0.7,1.1-0.9C35.3,109.6,35.8,109.5,36.4,109.5z M49.6,106.5v10.8h-1.3v-1.2c-0.3,0.4-0.7,0.8-1.2,1
	c-0.5,0.2-1,0.3-1.6,0.3c-0.7,0-1.4-0.2-2-0.5c-0.6-0.3-1.1-0.8-1.4-1.4c-0.3-0.6-0.5-1.3-0.5-2.1s0.2-1.5,0.5-2.1
	c0.3-0.6,0.8-1.1,1.4-1.4c0.6-0.3,1.3-0.5,2-0.5c0.6,0,1.1,0.1,1.5,0.3c0.5,0.2,0.9,0.5,1.2,0.9v-4.3H49.6z M45.6,116.2
	c0.5,0,0.9-0.1,1.3-0.3c0.4-0.2,0.7-0.6,0.9-1c0.2-0.4,0.3-0.9,0.3-1.4s-0.1-1-0.3-1.4c-0.2-0.4-0.5-0.7-0.9-1
	c-0.4-0.2-0.8-0.3-1.3-0.3c-0.5,0-0.9,0.1-1.3,0.3c-0.4,0.2-0.7,0.5-0.9,1c-0.2,0.4-0.3,0.9-0.3,1.4s0.1,1,0.3,1.4
	c0.2,0.4,0.5,0.7,0.9,1C44.7,116.1,45.1,116.2,45.6,116.2z M52.3,109.6h1.4v7.7h-1.4V109.6z M53,108.1c-0.3,0-0.5-0.1-0.7-0.3
	c-0.2-0.2-0.3-0.4-0.3-0.6c0-0.3,0.1-0.5,0.3-0.6c0.2-0.2,0.4-0.3,0.7-0.3c0.3,0,0.5,0.1,0.7,0.3c0.2,0.2,0.3,0.4,0.3,0.6
	c0,0.3-0.1,0.5-0.3,0.7C53.5,108,53.2,108.1,53,108.1z M59.7,117.4c-0.8,0-1.5-0.2-2.1-0.5c-0.6-0.3-1.1-0.8-1.4-1.4
	c-0.4-0.6-0.5-1.3-0.5-2c0-0.8,0.2-1.4,0.5-2c0.4-0.6,0.8-1.1,1.4-1.4c0.6-0.3,1.3-0.5,2.1-0.5c0.7,0,1.3,0.1,1.9,0.4
	c0.6,0.3,1,0.7,1.3,1.2l-1.1,0.7c-0.2-0.4-0.5-0.6-0.9-0.8c-0.4-0.2-0.8-0.3-1.2-0.3c-0.5,0-1,0.1-1.4,0.3c-0.4,0.2-0.7,0.5-0.9,1
	c-0.2,0.4-0.3,0.9-0.3,1.4c0,0.5,0.1,1,0.3,1.4c0.2,0.4,0.6,0.7,0.9,0.9c0.4,0.2,0.9,0.3,1.4,0.3c0.4,0,0.8-0.1,1.2-0.3
	c0.4-0.2,0.7-0.5,0.9-0.8l1.1,0.7c-0.3,0.5-0.7,0.9-1.3,1.2C61,117.3,60.4,117.4,59.7,117.4z M67.5,109.5c1.1,0,1.9,0.3,2.5,0.8
	c0.6,0.5,0.9,1.3,0.9,2.4v4.7h-1.3v-1c-0.2,0.4-0.6,0.6-1,0.8c-0.4,0.2-0.9,0.3-1.5,0.3c-0.9,0-1.6-0.2-2.1-0.6
	c-0.5-0.4-0.8-1-0.8-1.7c0-0.7,0.2-1.2,0.7-1.6c0.5-0.4,1.3-0.6,2.4-0.6h2.2v-0.3c0-0.6-0.2-1.1-0.5-1.4c-0.4-0.3-0.9-0.5-1.5-0.5
	c-0.5,0-0.9,0.1-1.3,0.2c-0.4,0.1-0.8,0.3-1.1,0.6l-0.6-1.1c0.4-0.3,0.9-0.6,1.4-0.7C66.3,109.6,66.9,109.5,67.5,109.5z M67.2,116.3
	c0.5,0,1-0.1,1.4-0.4c0.4-0.2,0.7-0.6,0.8-1v-1.1h-2.2c-1.2,0-1.8,0.4-1.8,1.2c0,0.4,0.2,0.7,0.5,0.9
	C66.2,116.2,66.6,116.3,67.2,116.3z M77.8,116.9c-0.2,0.2-0.5,0.3-0.8,0.4c-0.3,0.1-0.6,0.1-0.9,0.1c-0.8,0-1.4-0.2-1.8-0.6
	c-0.4-0.4-0.6-1-0.6-1.8v-4.2h-1.3v-1.2h1.3v-1.7H75v1.7h2.2v1.2H75v4.2c0,0.4,0.1,0.7,0.3,1c0.2,0.2,0.5,0.3,0.9,0.3
	c0.4,0,0.8-0.1,1.1-0.4L77.8,116.9z M82.5,117.4c-0.8,0-1.5-0.2-2.1-0.5c-0.6-0.3-1.1-0.8-1.4-1.4c-0.3-0.6-0.5-1.3-0.5-2
	c0-0.8,0.2-1.4,0.5-2c0.4-0.6,0.8-1.1,1.4-1.4c0.6-0.3,1.3-0.5,2.1-0.5c0.8,0,1.5,0.2,2.1,0.5c0.6,0.3,1.1,0.8,1.4,1.4
	c0.4,0.6,0.5,1.3,0.5,2c0,0.8-0.2,1.4-0.5,2c-0.3,0.6-0.8,1.1-1.4,1.4C84,117.2,83.3,117.4,82.5,117.4z M82.5,116.2
	c0.5,0,0.9-0.1,1.3-0.3c0.4-0.2,0.7-0.6,0.9-1c0.2-0.4,0.3-0.9,0.3-1.4s-0.1-1-0.3-1.4c-0.2-0.4-0.5-0.7-0.9-1
	c-0.4-0.2-0.8-0.3-1.3-0.3c-0.5,0-0.9,0.1-1.3,0.3c-0.4,0.2-0.7,0.5-0.9,1c-0.2,0.4-0.3,0.9-0.3,1.4s0.1,1,0.3,1.4
	c0.2,0.4,0.5,0.7,0.9,1C81.6,116.1,82,116.2,82.5,116.2z M89.8,110.9c0.2-0.4,0.6-0.8,1.1-1c0.5-0.2,1.1-0.4,1.7-0.4v1.4
	c-0.1,0-0.2,0-0.3,0c-0.8,0-1.4,0.2-1.8,0.7c-0.4,0.4-0.6,1.1-0.6,1.9v3.9h-1.4v-7.7h1.3V110.9z"/>
<path class="st1" d="M60,15.7c0-0.4-0.2-0.7-0.6-0.7s-0.6,0.2-0.6,0.6v0.1c-18.6,0.2-33.5,15.4-33.5,34C25.3,59,29,67.6,35.7,74
	c0.2,0.2,0.6,0.2,0.8,0c6.2-5.9,14.2-9.2,22.8-9.2S75.9,68,82.1,74c0.1,0.1,0.2,0.1,0.4,0.1c0.1,0,0.4,0,0.4-0.1
	c6.7-6.4,10.3-15.2,10.3-24.4C93.4,31.1,78.5,16,60,15.7z M82.6,72.7c-6.3-5.9-14.6-9.1-23.2-9.1s-16.9,3.3-23.2,9.1
	c-6.2-6.2-9.6-14.4-9.6-23.2c0-0.5,0-0.8,0-1.3H31c0.4,0,0.6-0.2,0.6-0.6c0-0.4-0.2-0.6-0.6-0.6h-4.2c0.6-8,4.1-15.2,9.5-20.6
	l4.1,4.1c0.1,0.1,0.2,0.1,0.5,0.1c0.2,0,0.4,0,0.5-0.1c0.2-0.2,0.2-0.6,0-0.8l-4.1-4.1c5.7-5.3,13.5-8.7,21.8-8.9v5.9
	c0,0.4,0.2,0.6,0.6,0.6s0.6-0.2,0.6-0.6v-5.9c17,0.4,30.8,13.7,31.9,30.4c-0.1-0.1-0.2-0.1-0.4-0.1h-4.9c-0.4,0-0.6,0.2-0.6,0.6
	c0,0.4,0.2,0.6,0.6,0.6h4.9c0.2,0,0.4-0.1,0.5-0.2c0,0.5,0,1,0,1.6C92.2,58.3,88.8,66.5,82.6,72.7z"/>
<path class="st1" d="M79.2,28.8L64.4,42.9c-1.1-0.8-2.5-1.5-4-1.5c-3.6,0-6.5,2.9-6.5,6.5c0,3.6,2.9,6.5,6.5,6.5s6.5-2.9,6.5-6.5
	c0-1.7-0.6-3.2-1.7-4.4l14.7-14.2c0.2-0.2,0.2-0.6,0-0.8C79.7,28.4,79.4,28.5,79.2,28.8z M60.4,53.5c-2.9,0-5.3-2.4-5.3-5.3
	c0-2.9,2.4-5.3,5.3-5.3s5.3,2.4,5.3,5.3C65.7,51.1,63.3,53.5,60.4,53.5z"/>
</svg>
