<svg width="70" height="70" viewBox="0 0 70 70" fill="none" xmlns="http://www.w3.org/2000/svg">
<path fill-rule="evenodd" clip-rule="evenodd" d="M51.0758 55.0408C51.0758 55.8557 50.3949 56.5461 49.5912 56.5461H41.119V48.617H49.5912C50.3949 48.617 51.0758 49.3051 51.0758 50.1199V55.0408ZM36.6541 63.9659C36.6541 64.2058 36.4398 64.4254 36.2009 64.4254C36.058 64.4254 35.8504 64.4345 35.5959 64.448C35.4396 64.4571 35.2387 64.4707 35.0155 64.4729C34.7186 64.1719 34.3725 63.932 34.0064 63.7282V47.673H36.6519C36.6541 47.7093 36.6697 47.7409 36.672 47.7749C36.672 47.827 36.6541 47.8745 36.6541 47.9243V63.9659ZM28.5012 64.4684C28.2601 64.4684 28.0436 64.4548 27.8806 64.4458C27.6395 64.4322 27.4453 64.4254 27.3091 64.4254C27.0725 64.4254 26.8559 64.2058 26.8559 63.9659V47.9356C26.8559 47.8473 26.8291 47.7613 26.8247 47.673H29.5416V63.8233C29.2446 64.0067 28.9611 64.2126 28.7111 64.4639C28.6508 64.4662 28.5816 64.4684 28.5012 64.4684V64.4684ZM20.0849 43.7164C19.846 43.7164 19.6317 43.4968 19.6317 43.2569V25.6965C19.6317 23.3537 21.5114 21.4478 23.8198 21.4478H39.5362C41.8468 21.4478 43.7265 23.3537 43.7265 25.6965V43.2569C43.7265 43.4968 43.51 43.7164 43.2734 43.7164C43.1015 43.7164 42.7197 43.6711 42.5389 43.6327C42.0768 43.4765 41.5968 43.3972 41.1213 43.3972C41.1168 43.3972 41.1146 43.3995 41.1101 43.3995V30.803C41.1101 29.5535 40.1122 28.5395 38.8777 28.5395C37.6431 28.5395 36.6452 29.5535 36.6452 30.803V43.146H26.809V30.803C26.809 29.5535 25.8111 28.5395 24.5766 28.5395C23.342 28.5395 22.3441 29.5535 22.3441 30.803V43.4154C21.9088 43.4199 21.4712 43.4833 21.0471 43.6191C20.8082 43.6643 20.2858 43.7164 20.0849 43.7164V43.7164ZM49.5912 44.0899H48.1088C48.1535 43.8183 48.1914 43.5421 48.1914 43.2569V25.6965C48.1914 20.8706 44.298 16.9208 39.5362 16.9208H23.8197C19.0601 16.9208 15.1667 20.8706 15.1667 25.6965V43.2569C15.1667 46.0003 17.3791 48.2434 20.0848 48.2434C20.6608 48.2434 21.8753 48.1235 22.391 47.9356V63.9659C22.391 66.7093 24.6033 68.9525 27.3091 68.9525C27.5167 68.9525 27.9609 68.9955 28.5012 68.9955C29.633 68.9955 31.1824 68.8121 31.8588 67.6758C32.3834 68.8099 33.8501 69 34.9619 69C35.52 69 35.9866 68.9525 36.2009 68.9525C38.9067 68.9525 41.119 66.7093 41.119 63.9659V61.0731H49.5912C52.8729 61.0731 55.5407 58.3682 55.5407 55.0408V50.1199C55.5407 46.7948 52.8729 44.0899 49.5912 44.0899V44.0899ZM32.2934 4.52706C34.3517 4.52706 36.0261 6.22471 36.0261 8.31168C36.0261 10.3986 34.3517 12.0963 32.2934 12.0963C30.2351 12.0963 28.5608 10.3986 28.5608 8.31168C28.5608 6.22471 30.2351 4.52706 32.2934 4.52706M32.2935 16.6233C36.8209 16.6233 40.4911 12.9021 40.4911 8.31167C40.4911 3.72124 36.8209 0 32.2935 0C27.7661 0 24.0959 3.72124 24.0959 8.31167C24.0959 12.9021 27.7661 16.6233 32.2935 16.6233" fill="url(#paint0_linear)"/>
<defs>
<linearGradient id="paint0_linear" x1="10.0764" y1="34.6712" x2="47.8862" y2="56.7948" gradientUnits="userSpaceOnUse">
<stop stop-color="#20D0EE"/>
<stop offset="0.981733" stop-color="#15E186"/>
</linearGradient>
</defs>
</svg>
