<?xml version="1.0" encoding="utf-8"?>
<!-- Generator: Adobe Illustrator 19.2.0, SVG Export Plug-In . SVG Version: 6.00 Build 0)  -->
<svg version="1.1" id="Layer_1" xmlns="http://www.w3.org/2000/svg" xmlns:xlink="http://www.w3.org/1999/xlink" x="0px" y="0px"
	 width="100px" height="100px" viewBox="0 0 100 100" style="enable-background:new 0 0 100 100;" xml:space="preserve">
<style type="text/css">
	.st0{fill:#F68D2E;}
</style>
<path class="st0" d="M66.2,20.3h-0.3c-0.1-0.1-0.3-0.2-0.6-0.2H50.6c-0.5,0-0.9,0.4-0.9,0.9v2.1H35.6c-0.4,0-0.7,0.2-0.8,0.6
	c-0.1,0.3,0,0.7,0.2,0.9l4.5,4.7l-4.7,6c-0.2,0.3-0.2,0.7-0.1,0.9c0.2,0.3,0.5,0.5,0.8,0.5h9.2c-0.2,0.6-0.3,1-0.3,1.6
	c0,1.7,0.7,3.2,2,4.2l-0.7,0.9l-2.5,1C42,44.9,41,45.8,40.3,47l-2.8,5.4c-0.8,1.6-0.3,3.4,1.1,4.5l5,3.5c-0.1,0.1-0.1,0.3-0.1,0.5
	v0.3l-2.5,20.5h-1.2c-0.5,0-0.9,0.4-0.9,0.9c0,0.5,0.4,0.9,0.9,0.9h2h4.8h0.2h0.2h0.2c0.1,0,0.2,0,0.2-0.1l0.1-0.1
	c0,0,0-0.1,0.1-0.1v-0.3l2.6-14.4l1.5,4.5l2.8,9c-0.1,0.2-0.2,0.4-0.2,0.6c0,0.5,0.4,0.9,0.9,0.9h0.5h4.3h2.2c0.5,0,0.9-0.4,0.9-0.9
	c0-0.5-0.4-0.9-0.9-0.9h-1.5l-2.2-10.7l-2.8-10.1v-7.4l2.4,2c0.2,0.2,0.4,0.2,0.6,0.2h6.5v26.9c0,0.5,0.4,0.9,0.9,0.9
	c0.6,0,0.9-0.4,0.9-0.9V21.2C67.1,20.7,66.7,20.3,66.2,20.3z M45.5,34.9h-8.2l4-5.1c0.3-0.4,0.3-0.8,0-1.2l-3.6-3.6h11.9v7.8
	C48,32.9,46.6,33.7,45.5,34.9z M46.3,38.4c0-2,1.7-3.7,3.7-3.7c2,0,3.7,1.7,3.7,3.7c0,2-1.7,3.7-3.7,3.7
	C48,42.1,46.3,40.4,46.3,38.4z M52.1,43.8l-2.3,1.3l-2.1-1.3l0.3-0.4c0.7,0.3,1.4,0.5,2.1,0.5c0.7,0,1.3-0.1,1.9-0.4L52.1,43.8z
	 M56.7,71.3l2.1,10.3h-2.5l-2.9-9.2l-2.6-7.7c-0.1-0.4-0.5-0.7-0.9-0.7c-0.4,0-0.7,0.4-0.8,0.7L46,81.6h-3.1l2.4-19.8H54L56.7,71.3z
	 M65.3,53.7H59v0.1l-3.6-3.2c-0.3-0.2-0.7-0.3-0.9-0.1c-0.3,0.2-0.6,0.5-0.6,0.8V60h-6.1c0.6-0.7,0.7-1.8,0.4-2.6
	c-0.5-1-1.5-1.6-2.5-1.5l0.4-5.7c0-0.4-0.2-0.7-0.6-0.9c-0.4-0.2-0.7,0-1,0.3l-3.2,3.8c-0.3,0.4-0.3,0.9,0.1,1.2l2.5,2.5
	c0.1,0.3,0.3,0.5,0.6,0.6c0.2,0.2,0.5,0.2,0.7,0.2l0.6-0.1c0.4-0.1,0.7,0.1,0.8,0.4c0.2,0.4,0,0.7-0.3,0.9l-0.5,0.1
	c-0.3,0.1-0.6,0.1-0.7,0l-5.3-3.7c-0.7-0.5-0.9-1.4-0.6-2.1l2.8-5.4c0.4-0.8,1.1-1.4,2-1.8l2.3-0.9l3.1,1.9h0.5c0.2,0,0.3,0,0.5-0.1
	l3.2-1.9l1.9,0.8l4,6c0.2,0.3,0.5,0.4,0.7,0.4h5.2V53.7z M44,52.9l-0.1,1.7l-0.7-0.7L44,52.9z M65.3,50.5h-4.7l-3.8-5.8
	c-0.1-0.1-0.2-0.3-0.4-0.3l-2.3-1l-0.6-0.7c1.3-1,2-2.6,2-4.4c0-1.5-0.6-2.8-1.5-3.8h11.3V50.5z M65.3,32.8H51.5V21.9h13.8V32.8z"/>
</svg>
