<svg width="146" height="159" viewBox="0 0 146 159" fill="none" xmlns="http://www.w3.org/2000/svg">
<path d="M39.2115 125.146C39.2115 125.146 39.8943 126.024 42.2353 126.024C44.5763 126.024 47.6976 125.438 47.6976 125.438L48.673 125.828H51.1116C51.3067 125.828 51.5993 125.633 51.5993 125.341C51.5993 124.951 51.5993 124.17 51.5993 123.195C51.5993 122.512 51.5017 121.634 51.4042 121.244H46.4296C46.3321 121.342 45.4542 122.024 44.5763 122.512C42.9181 123.487 41.1624 123.292 40.0894 123.585C39.0164 123.78 39.2115 125.146 39.2115 125.146Z" fill="#090A0A"/>
<path d="M53.4522 125.146C53.4522 125.146 54.135 126.024 56.476 126.024C58.817 126.024 61.9383 125.438 61.9383 125.438L62.9137 125.828H65.3522C65.5473 125.828 65.8399 125.633 65.8399 125.341C65.8399 124.951 65.8399 124.17 65.8399 123.195C65.8399 122.512 65.7424 121.634 65.6449 121.244H60.6702C60.5727 121.342 59.6948 122.024 58.8169 122.512C57.1587 123.487 55.403 123.292 54.33 123.585C53.2571 123.78 53.4522 125.146 53.4522 125.146Z" fill="#090A0A"/>
<path d="M11.3145 38.5288L38.6261 41.6501C40.0893 41.6501 41.3573 42.8207 41.4548 44.3813L44.3811 69.6446H69.8394L70.3271 41.3575C70.4247 36.9682 66.8156 33.2616 62.3287 33.2616H11.3145V38.5288Z" fill="#77C54F"/>
<path d="M66.2303 121.244H59.695L57.2565 75.7896H55.5008L52.2819 121.244H45.8442L44.4786 69.547H68.5713L66.2303 121.244Z" fill="#2E3543"/>
<path d="M62.9143 42.9181L63.8897 45.8443L64.5725 69.3518H63.5971L62.9143 42.9181Z" fill="#5D913C"/>
<path d="M66.718 74.7166C68.7651 74.7166 70.4246 73.0571 70.4246 71.01C70.4246 68.9629 68.7651 67.3035 66.718 67.3035C64.671 67.3035 63.0115 68.9629 63.0115 71.01C63.0115 73.0571 64.671 74.7166 66.718 74.7166Z" fill="#EAC2A7"/>
<path d="M43.6971 13.168L43.9897 23.8976L44.0872 28.2869C44.0872 29.75 45.4528 31.0181 46.916 31.0181L49.3545 30.7255C50.2324 30.5304 51.2078 31.3107 51.2078 32.3836L51.3053 35.3099C51.3053 37.1632 52.7685 38.5288 54.6217 38.5288C56.475 38.5288 57.8406 37.0657 57.8406 35.2124L57.7431 32.2861L57.3529 14.5336L45.2578 12.7778L43.6971 13.168Z" fill="#EAC2A7"/>
<path d="M49.0627 35.6024V33.1638H49.9405V35.6024C49.9405 38.0409 51.9889 40.0893 54.4274 40.0893C56.866 40.0893 58.9144 38.0409 58.9144 35.6024V33.1638H59.7922V35.6024C59.7922 38.6261 57.3537 41.0647 54.3299 41.0647C51.5012 40.9671 48.9651 38.6261 49.0627 35.6024Z" fill="#5D913C"/>
<path d="M57.2562 11.3147C57.0611 11.3147 56.9636 11.3147 56.9636 11.3147C56.0857 8.97374 52.7693 8.38846 50.3308 8.48601C47.4046 8.58355 46.039 8.8762 45.9414 7.41307V5.94995C45.9414 5.94995 40.1865 6.04747 40.4791 11.9C40.5767 16.9721 46.1365 15.8992 48.4775 15.8992H50.2333C51.1111 15.8992 51.8915 16.582 51.989 17.5574V18.8254C51.989 19.2156 52.4767 19.7033 52.9644 19.7033C53.4521 19.7033 53.8423 19.3131 53.8423 18.7279V17.7524C53.8423 17.4598 54.0374 17.0697 54.5251 17.0697H54.8177L55.0128 25.5558C55.0128 27.0189 56.3784 28.2869 57.8415 28.2869H57.939C59.4022 28.2869 60.6702 26.9214 60.6702 25.4582L60.3776 13.8508C59.9874 12.3877 58.8169 11.2172 57.2562 11.3147Z" fill="#2E3543"/>
<path d="M45.1602 25.068C45.3553 26.2385 46.3307 27.0188 47.5012 27.0188C48.6717 27.0188 49.6471 26.0434 49.7447 24.9705L45.1602 25.068Z" fill="white"/>
<path d="M44.8672 23.3122L41.9409 23.4097C41.3557 23.4097 40.868 22.922 40.868 22.3368V22.1417C40.868 21.5564 41.3557 21.0687 41.9409 21.0687L44.8672 20.9712C45.4524 20.9712 45.9402 21.4589 45.9402 22.0442V22.2392C45.9402 22.8245 45.3549 23.3122 44.8672 23.3122Z" fill="#EAC2A7"/>
<path d="M9.85176 32.1886C9.75422 32.1886 9.55911 32.1886 9.46157 32.1886H0.877928C0.390221 32.1886 6.10352e-05 32.5788 6.10352e-05 33.0665C6.10352e-05 33.5542 0.292674 33.9443 0.780381 33.9443L6.53532 34.6271C6.43778 35.0173 6.34026 35.4074 6.34026 35.7976C6.34026 37.7484 7.99845 39.4067 9.94928 39.4067C11.9001 39.4067 13.5583 37.7484 13.5583 35.7976C13.5583 33.8468 11.8026 32.1886 9.85176 32.1886Z" fill="#EAC2A7"/>
<path d="M84.5676 64.1823V48.7707C84.5676 42.5281 89.6398 37.5535 95.7849 37.5535C102.028 37.5535 107.002 42.6256 107.002 48.7707V64.1823C107.002 70.4249 101.93 75.3996 95.7849 75.3996C89.5422 75.3996 84.5676 70.4249 84.5676 64.1823Z" fill="#2E3543"/>
<path d="M129.826 47.6978L122.413 62.7191L109.05 63.0118H103.587L87.7858 62.9142C85.3473 62.8167 83.2013 64.3773 82.5186 66.7183L78.4218 79.8864L64.766 79.984V84.2758L79.7874 84.666C81.2505 84.7635 82.6161 84.0807 83.2989 82.8127L86.7128 76.8627L89.2489 89.7381L105.538 90.0308L108.952 71.4003C109.147 70.5224 109.83 69.9372 110.61 69.8397L122.413 68.5716C124.266 68.3765 125.827 67.2061 126.607 65.4503L133.923 49.551L129.826 47.6978Z" fill="#F5E622"/>
<path d="M81.3483 157.92C81.3483 157.92 81.9335 158.7 84.2745 158.7C86.6155 158.7 89.6393 158.115 89.6393 158.115L90.5172 158.603H92.9557C93.1508 158.603 93.4434 158.407 93.4434 158.115C93.4434 157.627 93.4434 156.847 93.4434 155.969C93.4434 155.286 93.3459 154.506 93.2484 154.116H88.3713C88.2737 154.213 87.2983 154.798 86.518 155.384C84.8598 156.262 83.2016 156.066 82.1286 156.359C81.0556 156.652 81.3483 157.92 81.3483 157.92Z" fill="#090A0A"/>
<path d="M91.5914 157.92C91.5914 157.92 92.1766 158.7 94.5176 158.7C96.8586 158.7 99.8824 158.115 99.8824 158.115L100.76 158.603H103.199C103.394 158.603 103.686 158.407 103.686 158.115C103.686 157.627 103.686 156.847 103.686 155.969C103.686 155.286 103.589 154.506 103.491 154.116H98.6144C98.5168 154.213 97.5414 154.798 96.761 155.384C95.1028 156.262 93.4446 156.066 92.3717 156.359C91.2012 156.652 91.5914 157.92 91.5914 157.92Z" fill="#090A0A"/>
<path d="M91.5909 65.4504V62.9143H92.4687V65.4504C92.4687 67.9865 94.6147 70.1324 97.1507 70.1324C99.6868 70.1324 101.833 67.9865 101.833 65.4504V63.0119H102.711V65.4504C102.711 68.6693 100.175 71.1078 97.0532 71.1078C93.9319 71.1078 91.3958 68.5717 91.5909 65.4504Z" fill="#F68D2E"/>
<path d="M89.6406 43.1133L85.0561 53.3552C84.6659 53.7454 84.861 54.5257 85.5438 54.5257L87.3971 54.6233V58.9151C87.3971 60.2807 88.47 61.4512 89.9332 61.4512L92.4693 61.061C93.3471 60.9635 94.1275 61.8413 93.9324 62.7192V65.5479C93.7373 68.3766 97.5414 70.425 100.175 67.011V62.8167V50.5265C100.175 47.7953 98.0291 42.2355 95.2979 42.2355L89.6406 43.1133Z" fill="#EAC2A7"/>
<path d="M86.3234 51.502C85.8357 51.1118 85.5431 50.5266 85.4455 49.8438C85.348 49.161 85.543 48.5757 86.0308 47.9905C86.4209 47.5028 87.0062 47.2101 87.689 47.1126C89.0546 47.0151 90.2251 48.088 90.3226 49.4536C90.4201 50.1364 90.2251 50.7217 89.7373 51.3069C89.3472 51.7946 88.7619 52.0872 88.0791 52.1848C88.0791 52.1848 87.9816 52.1848 87.8841 52.1848C87.2988 52.1848 86.7136 51.9897 86.3234 51.502ZM89.5423 49.6487C89.4447 48.6733 88.5669 48.088 87.8841 48.1856C87.4939 48.1856 87.1037 48.4782 86.8111 48.7708C86.5185 49.0634 86.4209 49.4536 86.4209 49.8438C86.4209 50.234 86.7135 50.6241 87.0062 50.9167C87.2988 51.2093 87.689 51.3069 88.0791 51.3069C88.4693 51.3069 88.8595 51.0143 89.1521 50.7217C89.4447 50.429 89.5423 50.1364 89.5423 49.6487Z" fill="#373463"/>
<path d="M91.005 49.7462C91.005 48.3806 92.078 47.3076 93.4435 47.3076C94.8091 47.3076 95.8821 48.3806 95.8821 49.7462C95.8821 51.1117 94.8091 52.1847 93.4435 52.1847C92.078 52.1847 91.005 51.1117 91.005 49.7462ZM91.8829 49.7462C91.8829 50.5265 92.6632 51.3068 93.4435 51.3068C94.2239 51.3068 95.0042 50.5265 95.0042 49.7462C95.0042 48.9658 94.2239 48.1855 93.4435 48.1855C92.5657 48.1855 91.8829 48.8683 91.8829 49.7462Z" fill="#373463"/>
<path d="M97.9301 129.242L99.003 153.92L103.197 154.116L105.441 129.242H97.9301Z" fill="#EAC2A7"/>
<path d="M87.9816 129.242L89.0546 153.92L93.2489 154.116L95.4923 129.242H87.9816Z" fill="#EAC2A7"/>
<path d="M89.2489 89.8358C89.2489 89.8358 87.3956 97.1514 86.1275 101.736C84.7619 106.515 82.0308 119.488 80.8603 129.438H112.854C112.854 129.438 109.245 106.223 108.367 102.516C107.587 98.8096 105.538 89.9333 105.538 89.9333L89.2489 89.8358Z" fill="#7A8291"/>
<path d="M102.612 44.6739L99.296 40.3821L87.6886 42.0403L85.6402 46.3321L87.591 47.5026C87.591 47.5026 91.005 46.3321 91.6878 43.6009C92.8583 49.8436 100.076 50.3313 100.076 50.3313L102.612 44.6739Z" fill="#2E3543"/>
<path d="M131.679 60.2805C130.997 60.2805 130.509 59.6953 130.509 59.11V40.5771C130.509 39.8943 131.094 39.4066 131.679 39.4066C132.362 39.4066 132.85 39.9919 132.85 40.5771V59.11C132.948 59.6953 132.362 60.2805 131.679 60.2805Z" fill="#2E3543"/>
<path d="M141.727 20.2885L131.68 9.65649L121.633 20.2885C119.487 22.6295 118.219 25.7508 118.219 29.1648C118.219 36.5779 124.267 42.6255 131.68 42.6255C139.093 42.6255 145.141 36.5779 145.141 29.1648C145.141 25.8484 143.873 22.8246 141.727 20.2885Z" fill="#F6C167"/>
<path d="M136.655 25.5559L131.68 19.0206L126.705 25.5559C125.632 26.7264 125.047 28.2871 125.047 29.9453C125.047 33.6518 127.973 36.5781 131.68 36.5781C135.386 36.5781 138.313 33.6518 138.313 29.9453C138.41 28.2871 137.727 26.7264 136.655 25.5559Z" fill="#F89937"/>
<path d="M142.117 17.1675L140.459 14.2412L138.8 17.1675C138.41 17.5576 138.215 17.9478 138.215 18.6306C138.215 19.8011 139.191 20.7765 140.361 20.7765C141.532 20.7765 142.507 19.8011 142.507 18.6306C142.702 18.0453 142.409 17.5576 142.117 17.1675Z" fill="#F89937"/>
<path d="M128.363 10.7296V0H125.632V10.632C125.632 11.3148 126.217 12.0951 127.095 12.0951C127.778 11.9976 128.363 11.4124 128.363 10.7296Z" fill="#F89937"/>
<path d="M123.292 11.3147V6.24255H120.561V11.3147C120.561 11.9975 121.146 12.7778 122.024 12.7778C122.706 12.7778 123.292 11.9975 123.292 11.3147Z" fill="#F89937"/>
<path d="M131.68 52.1846C133.458 52.1846 134.899 50.7434 134.899 48.9657C134.899 47.188 133.458 45.7468 131.68 45.7468C129.902 45.7468 128.461 47.188 128.461 48.9657C128.461 50.7434 129.902 52.1846 131.68 52.1846Z" fill="#EAC2A7"/>
<path d="M65.2366 80.5938C65.2512 75.6377 58.3631 71.5996 49.8515 71.5746C41.34 71.5495 34.4281 75.5469 34.4135 80.503C34.3989 85.4591 41.2871 89.4971 49.7987 89.5222C58.3102 89.5473 65.222 85.5499 65.2366 80.5938Z" fill="white"/>
<path d="M49.7454 73.9364C57.5487 73.9364 63.9864 77.3504 64.9619 81.7397C65.0594 81.3496 65.1569 80.9594 65.1569 80.5692C65.1569 75.5946 58.2315 70.62 49.7454 70.62C41.2593 70.62 34.3338 75.4971 34.3338 80.4717C34.3338 80.8619 34.4314 81.252 34.5289 81.6422C35.5043 77.2528 41.9421 73.8389 49.7454 73.9364Z" fill="#B1B1B1"/>
<path d="M49.7453 89.5431C41.942 89.5431 35.5042 86.1291 34.5288 81.7397C34.4313 82.1299 34.3337 82.5201 34.3337 82.9103C34.3337 87.8849 41.2592 92.8595 49.7453 92.8595C58.2314 92.8595 65.1569 87.8849 65.1569 82.9103C65.1569 82.5201 65.0593 82.1299 64.9618 81.7397C63.9864 86.1291 57.5486 89.5431 49.7453 89.5431Z" fill="#696A6C"/>
<path d="M37.9431 81.6421L49.453 79.3011V83.8856L37.9431 82.2274C37.553 82.2274 37.553 81.6421 37.9431 81.6421Z" fill="#77C54F"/>
<path d="M60.9626 81.7398L49.4526 79.3988V83.9833L60.9626 82.325C61.3527 82.325 61.3527 81.7398 60.9626 81.7398Z" fill="#3A7BFA"/>
<path d="M68.4728 82.116C68.4782 80.2844 66.9977 78.7952 65.1661 78.7898C63.3345 78.7844 61.8454 80.2648 61.84 82.0964C61.8346 83.928 63.315 85.4172 65.1466 85.4226C66.9782 85.428 68.4674 83.9476 68.4728 82.116Z" fill="#EAC2A7"/>
</svg>
