<?xml version="1.0" encoding="utf-8"?>
<!-- Generator: Adobe Illustrator 22.1.0, SVG Export Plug-In . SVG Version: 6.00 Build 0)  -->
<svg version="1.1" id="Layer_1" xmlns="http://www.w3.org/2000/svg" xmlns:xlink="http://www.w3.org/1999/xlink" x="0px" y="0px"
	 width="150px" height="150px" viewBox="0 0 150 150" style="enable-background:new 0 0 150 150;" xml:space="preserve">
<style type="text/css">
	.st0{fill:#FFFFFF;stroke:#D8D6D6;stroke-width:2;}
	.st1{fill:#444444;}
	.st2{fill:#F89937;}
	.st3{fill:#F5F5F5;}
	.st4{fill:#68C157;}
	.st5{fill:#0080FF;}
	.st6{fill:#FFFF00;}
	.st7{fill:#2E3543;}
	.st8{fill:#F5E622;}
	.st9{fill:#090A0A;}
	.st10{fill:#F68D2E;}
	.st11{fill:#EAC2A7;}
	.st12{fill:#373463;}
	.st13{fill:#7A8291;}
	.st14{fill:#F6C167;}
</style>
<polygon id="Fill-1" class="st0" points="47.3,103.2 132.6,103.2 132.6,1.2 47.3,1.2 "/>
<path id="Programs" class="st1" d="M61.1,17.6h-1.2v-7c0.4,0,1.5,0,2,0c2.1,0,2.7,1,2.7,2.3s-0.9,2.3-2.6,2.3c-0.2,0-0.6,0-0.9,0
	C61.1,15.1,61.1,17.6,61.1,17.6z M61.9,11.7c-0.2,0-0.6,0-0.9,0v2.2c0.2,0,0.6,0.1,0.8,0.1c0.7,0,1.4-0.3,1.4-1.1
	C63.1,12.1,62.7,11.7,61.9,11.7z M68.1,17.6h-1.2v-7c0.4,0,1.9,0,2.2,0c1.9,0,2.6,0.9,2.6,2.2c0,1.1-0.7,1.9-1.4,2l2.2,2.8h-1.7
	L69,15h-0.8C68.1,15,68.1,17.6,68.1,17.6z M69,11.7c-0.2,0-0.5,0-0.8,0v2.1H69c0.7,0,1.4-0.3,1.4-1C70.2,12.2,69.9,11.7,69,11.7z
	 M73.5,14c0-2,1.5-3.6,3.6-3.6c2.1,0,3.6,1.5,3.6,3.6c0,2.1-1.6,3.6-3.6,3.6S73.5,16.2,73.5,14z M74.9,14c0,1.5,1,2.5,2.3,2.5
	c1.5,0,2.3-1,2.3-2.5s-1-2.5-2.3-2.5C75.8,11.6,74.9,12.7,74.9,14z M86.1,15v-1.1h2.8v2.9c-0.6,0.6-1.8,1-2.6,1
	c-2.3,0-3.6-1.5-3.6-3.6c0-2,1.4-3.6,3.5-3.6c1,0,1.7,0.2,2.3,0.7l-0.5,1c-0.3-0.3-1-0.5-1.6-0.5c-1.4,0-2.3,0.9-2.3,2.5
	c0,1.5,0.9,2.5,2.3,2.5c0.5,0,1.1-0.2,1.5-0.5v-1h-1.7V15H86.1z M92.7,17.6h-1.2v-7c0.4,0,1.9,0,2.2,0c1.9,0,2.6,0.9,2.6,2.2
	c0,1.1-0.7,1.9-1.4,2l2.2,2.8h-1.5L93.7,15h-0.8L92.7,17.6L92.7,17.6z M93.5,11.7c-0.2,0-0.5,0-0.8,0v2.1h0.8c0.7,0,1.4-0.3,1.4-1
	C94.8,12.2,94.4,11.7,93.5,11.7z M98,17.6l2.9-7h1l3,7h-1.4l-0.7-1.9h-2.9l-0.6,1.9H98z M101.4,12.2l-1,2.5h2.1L101.4,12.2z
	 M106.9,17.6v-7h1.2l2.4,3.2l2.3-3.2h1.1v7h-1.2v-5.1l-2.3,3.1h-0.1l-2.3-3.1v5L106.9,17.6L106.9,17.6z M119.7,15.7
	c0-1.5-3.2-1-3.2-3.3c0-1,0.8-1.9,2.2-1.9c0.8,0,1.6,0.2,2,0.7l-0.6,0.9c-0.3-0.3-0.6-0.5-1.2-0.5s-1,0.3-1,0.7c0,1.5,3.2,1,3.2,3.3
	c0,1.1-1,2-2.3,2c-0.9,0-1.9-0.4-2.3-1l0.6-0.8c0.4,0.5,1,0.7,1.6,0.7C119.3,16.5,119.7,16.2,119.7,15.7z"/>
<polygon id="Fill-2" class="st2" points="53.3,78.7 68.7,78.7 68.7,63.3 53.3,63.3 "/>
<polygon id="Fill-3" class="st2" points="53.3,97.4 68.7,97.4 68.7,81.9 53.3,81.9 "/>
<polygon id="Fill-4" class="st3" points="53.3,41.5 68.7,41.5 68.7,26.1 53.3,26.1 "/>
<polygon id="Fill-5" class="st2" points="53.3,60.1 68.7,60.1 68.7,44.7 53.3,44.7 "/>
<polygon id="Fill-6" class="st4" points="72.1,78.7 87.5,78.7 87.5,63.3 72.1,63.3 "/>
<polygon id="Fill-7" class="st4" points="72.1,97.4 87.5,97.4 87.5,81.9 72.1,81.9 "/>
<polygon id="Fill-8" class="st4" points="72.1,41.5 87.5,41.5 87.5,26.1 72.1,26.1 "/>
<polygon id="Fill-9" class="st4" points="72.1,60.1 87.5,60.1 87.5,44.7 72.1,44.7 "/>
<polygon id="Fill-10" class="st5" points="91.1,78.7 106.5,78.7 106.5,63.3 91.1,63.3 "/>
<polygon id="Fill-11" class="st5" points="91.1,97.4 106.5,97.4 106.5,81.9 91.1,81.9 "/>
<polygon id="Fill-12" class="st3" points="91.1,41.5 106.5,41.5 106.5,26.1 91.1,26.1 "/>
<polygon id="Fill-13" class="st3" points="91.1,60.1 106.5,60.1 106.5,44.7 91.1,44.7 "/>
<polygon id="Fill-14" class="st6" points="110.4,78.7 125.8,78.7 125.8,63.3 110.4,63.3 "/>
<polygon id="Fill-15" class="st6" points="110.4,97.4 125.8,97.4 125.8,81.9 110.4,81.9 "/>
<polygon id="Fill-16" class="st3" points="110.4,41.5 125.8,41.5 125.8,26.1 110.4,26.1 "/>
<polygon id="Fill-17" class="st6" points="110.4,60.1 125.8,60.1 125.8,44.7 110.4,44.7 "/>
<path id="Path" class="st7" d="M69.7,49.8V36.1c0-5.5-4.5-10-10-10c-5.5,0-10,4.5-10,10v13.7c0,5.5,4.5,10,10,10
	C65.3,59.8,69.7,55.4,69.7,49.8z"/>
<path id="Path_1_" class="st8" d="M29.5,35.1L36,48.4l11.8,0.2h4.9l14-0.1v-0.1l13.6-0.2l5.9-11.7l4.2,1.5l-6,13
	c-0.7,1.7-2.3,2.7-4.1,3l-9.2,1c-1.4,0.1-2.4,1.1-2.6,2.4l-2.9,15.2l-14.5,0.2l-3-16.5c-0.2-0.7-0.7-1.4-1.5-1.5l-10.5-1.1
	c-1.7-0.2-3-1.2-3.7-2.7l-6.5-14.1L29.5,35.1z"/>
<path id="Path_2_" class="st9" d="M72.6,133.1c0,0-0.5,0.6-2.6,0.6s-4.8-0.5-4.8-0.5l-0.7,0.4h-2.2c-0.2,0-0.4-0.2-0.4-0.4
	c0-0.4,0-1.1,0-1.9c0-0.6,0.1-1.4,0.2-1.7h4.4c0.1,0.1,0.9,0.6,1.7,1.1c1.5,0.7,2.9,0.6,3.9,0.8C72.9,132,72.6,133.1,72.6,133.1z"/>
<path id="Path_3_" class="st9" d="M63.6,133.1c0,0-0.5,0.6-2.6,0.6c-2.1,0-4.8-0.5-4.8-0.5l-0.7,0.4h-2.2c-0.2,0-0.4-0.2-0.4-0.4
	c0-0.4,0-1.1,0-1.9c0-0.6,0.1-1.4,0.2-1.7h4.3c0.1,0.1,0.9,0.6,1.7,1.1c1.5,0.7,2.9,0.6,3.9,0.8C63.9,132,63.6,133.1,63.6,133.1z"/>
<path id="Path_4_" class="st10" d="M63.6,50.9v-2.3h-0.7v2.3c0,2.3-1.9,4.2-4.2,4.2c-2.3,0-4.2-1.9-4.2-4.2v-2.2h-0.7v2.2
	c0,2.8,2.3,5,5,5S63.7,53.7,63.6,50.9z"/>
<path id="Path_5_" class="st11" d="M65.2,31.1l4.1,9.1c0.3,0.3,0.2,1-0.4,1l-1.7,0.1v3.8c0,1.2-0.9,2.3-2.3,2.3l-2.3-0.3
	c-0.7-0.1-1.5,0.6-1.4,1.5v2.5c0.2,2.5-3.2,4.4-5.5,1.4v-3.7v-11c0-2.4,1.9-7.4,4.4-7.4L65.2,31.1z"/>
<path id="Shape" class="st12" d="M68.2,38.6c0.4-0.3,0.6-0.8,0.7-1.5c0.1-0.6-0.1-1.1-0.5-1.7c-0.3-0.4-0.8-0.6-1.5-0.7
	c-1.2-0.1-2.3,0.8-2.3,2.1c-0.1,0.6,0.1,1.1,0.5,1.7c0.3,0.4,0.8,0.6,1.5,0.7c0,0,0.1,0,0.2,0C67.3,39.1,67.8,39,68.2,38.6z
	 M65.3,36.9c0.1-0.8,0.8-1.5,1.5-1.4c0.3,0,0.6,0.2,0.9,0.5c0.2,0.2,0.3,0.6,0.3,0.9c0,0.3-0.2,0.6-0.5,0.9s-0.6,0.3-0.9,0.3
	c-0.3,0-0.6-0.2-0.9-0.5C65.4,37.6,65.3,37.3,65.3,36.9z"/>
<path id="Shape_1_" class="st12" d="M64,36.9c0-1.2-0.9-2.2-2.2-2.2c-1.2,0-2.2,0.9-2.2,2.2c0,1.2,0.9,2.2,2.2,2.2
	C63,39.1,64,38.1,64,36.9z M63.2,36.9c0,0.6-0.6,1.5-1.5,1.5s-1.4-0.6-1.4-1.5c0-0.7,0.6-1.5,1.5-1.5C62.6,35.5,63.2,36.2,63.2,36.9
	z"/>
<polygon id="Path_6_" class="st11" points="57.8,107.6 56.9,129.6 53.2,129.7 51.2,107.6 "/>
<polygon id="Path_7_" class="st11" points="66.7,107.6 65.7,129.6 62,129.7 60,107.6 "/>
<path id="Path_8_" class="st13" d="M65.6,72.5c0,0,1.7,7,2.7,11.3c1.2,4.6,3.6,16.9,4.7,26.5H44.5c0,0,3.2-22.2,4.1-25.7
	c0.6-3.5,2.5-12.1,2.5-12.1L65.6,72.5z"/>
<path id="Path_9_" class="st7" d="M53.7,32.4l2.9-3.8L67,30l1.9,3.8l-1.8,1c0,0-3-1-3.6-3.5c-1,5.5-7.4,6-7.4,6L53.7,32.4z"/>
<path class="st7" d="M27.8,43.1c0.6,0,1-0.5,1-1V25.6c0-0.6-0.5-1-1-1c-0.6,0-1,0.5-1,1V42C26.7,42.6,27.2,43.1,27.8,43.1z"/>
<path class="st14" d="M20.3,11.8l7.4-7.8l7.4,7.8c1.6,1.8,2.5,4.1,2.5,6.5c0,5.4-4.5,9.9-9.9,9.9s-9.9-4.5-9.9-9.9
	C17.8,16,18.9,13.7,20.3,11.8z"/>
<path class="st2" d="M24.2,15.7l3.6-4.8l3.6,4.8c0.7,0.8,1.2,2,1.2,3.2c0,2.7-2.2,4.9-4.9,4.9s-5-2.2-5-4.9
	C22.8,17.8,23.3,16.5,24.2,15.7z"/>
<path class="st2" d="M20.1,9.6l1.2-2.2l1.2,2.2c0.2,0.2,0.4,0.6,0.4,1c0,0.8-0.6,1.6-1.6,1.6c-0.9,0-1.6-0.7-1.6-1.6
	C19.7,10.2,19.9,9.9,20.1,9.6z"/>
<circle id="Oval" class="st11" cx="27.8" cy="36.3" r="2.8"/>
<path id="Path_11_" class="st11" d="M88.5,34.5c0.1,0,0.2,0,0.3,0h6.9c0.3,0,0.6,0.3,0.6,0.6s-0.2,0.6-0.6,0.6l-4.6,0.6
	c0.1,0.3,0.2,0.6,0.2,0.9c0,1.6-1.4,2.8-2.8,2.8s-2.8-1.4-2.8-2.8C85.6,35.9,86.8,34.5,88.5,34.5z"/>
</svg>
