<svg width="95" height="95" viewBox="0 0 95 95" fill="none" xmlns="http://www.w3.org/2000/svg">
<path d="M70.4856 24.3184C65.2127 24.3184 60.923 28.6082 60.923 33.8809C60.923 39.1536 65.2127 43.4434 70.4856 43.4434C75.7582 43.4434 80.0481 39.1538 80.0481 33.8809C80.0481 28.6078 75.7584 24.3184 70.4856 24.3184ZM70.4856 39.7325C67.2589 39.7325 64.634 37.1075 64.634 33.8809C64.634 30.6542 67.2589 28.0293 70.4856 28.0293C73.712 28.0293 76.3372 30.6542 76.3372 33.8809C76.3372 37.1072 73.7122 39.7325 70.4856 39.7325Z" fill="url(#paint0_linear)"/>
<path d="M70.5505 83.7152C70.5041 83.602 70.4466 83.4944 70.3798 83.3942C70.313 83.2922 70.2351 83.1975 70.1497 83.1122C70.0644 83.0268 69.9697 82.9489 69.8677 82.8821C69.7675 82.8153 69.6599 82.7578 69.5467 82.7114C69.4354 82.665 69.3185 82.6279 69.1997 82.6056C68.9604 82.5574 68.7154 82.5574 68.4761 82.6056C68.3573 82.6279 68.2404 82.665 68.1291 82.7114C68.0159 82.7578 67.9083 82.8153 67.8081 82.8821C67.7061 82.9489 67.6114 83.0268 67.5261 83.1122C67.4407 83.1975 67.3628 83.2922 67.296 83.3942C67.2292 83.4944 67.1717 83.602 67.1253 83.7152C67.0789 83.8265 67.0418 83.9434 67.0195 84.0622C66.9954 84.1809 66.9824 84.3034 66.9824 84.424C66.9824 84.5446 66.9954 84.6671 67.0195 84.7858C67.0418 84.9046 67.0789 85.0215 67.1253 85.1328C67.1717 85.246 67.2292 85.3536 67.296 85.4538C67.3628 85.5558 67.4407 85.6505 67.5261 85.7358C67.5686 85.7783 67.6135 85.8189 67.6602 85.8573C67.7075 85.8959 67.7569 85.9325 67.8081 85.9659C67.9083 86.0327 68.0159 86.0902 68.1291 86.1366C68.2404 86.183 68.3573 86.2201 68.4761 86.2424C68.5948 86.2665 68.7173 86.2795 68.8379 86.2795C68.9585 86.2795 69.081 86.2665 69.1997 86.2424C69.3185 86.2201 69.4354 86.183 69.5467 86.1366C69.6599 86.0902 69.7675 86.0327 69.8677 85.9659C69.9189 85.9323 69.9682 85.8959 70.0156 85.8573C70.0625 85.8189 70.1072 85.7783 70.1497 85.7358C70.2351 85.6505 70.313 85.5558 70.3798 85.4538C70.4466 85.3536 70.5041 85.246 70.5505 85.1328C70.5969 85.0215 70.634 84.9046 70.6581 84.7858C70.6822 84.6671 70.6934 84.5446 70.6934 84.424C70.6934 84.3034 70.6822 84.1809 70.6581 84.0622C70.634 83.9432 70.5969 83.8264 70.5505 83.7152Z" fill="url(#paint1_linear)"/>
<path d="M41.3498 10.2888C41.3034 10.1775 41.2459 10.0699 41.1791 9.96782C41.1123 9.86763 41.0344 9.77114 40.949 9.68579C40.8637 9.60044 40.769 9.52251 40.667 9.45571C40.5668 9.38892 40.4592 9.3314 40.346 9.28501C40.2347 9.23862 40.1178 9.20337 39.999 9.17925C39.7597 9.13101 39.5147 9.13101 39.2754 9.17925C39.1566 9.20337 39.0397 9.23862 38.9266 9.28501C38.8152 9.3314 38.7076 9.38892 38.6074 9.45571C38.5054 9.52251 38.4107 9.60044 38.3254 9.68579C38.24 9.77114 38.1621 9.86763 38.0935 9.96782C38.0267 10.0699 37.971 10.1775 37.9246 10.2888C37.8782 10.4001 37.8411 10.517 37.8188 10.6358C37.7947 10.7564 37.7817 10.877 37.7817 10.9995C37.7817 11.1201 37.7947 11.2407 37.8188 11.3613C37.8411 11.48 37.8782 11.5969 37.9246 11.7083C37.971 11.8196 38.0267 11.9272 38.0935 12.0292C38.1621 12.1294 38.24 12.2259 38.3254 12.3113C38.4107 12.3966 38.5054 12.4746 38.6074 12.5414C38.7076 12.6082 38.8152 12.6657 38.9266 12.7121C39.0397 12.7584 39.1566 12.7937 39.2754 12.8178C39.3941 12.8419 39.5166 12.8549 39.6372 12.8549C39.7578 12.8549 39.8803 12.8419 39.999 12.8178C40.1178 12.7937 40.2347 12.7584 40.346 12.7121C40.4592 12.6657 40.5668 12.6082 40.667 12.5414C40.769 12.4746 40.8637 12.3966 40.949 12.3113C41.0344 12.2259 41.1123 12.1294 41.1791 12.0292C41.2459 11.9272 41.3034 11.8196 41.3498 11.7083C41.3962 11.5969 41.4333 11.48 41.4556 11.3613C41.4797 11.2407 41.4927 11.1201 41.4927 10.9995C41.4927 10.877 41.4797 10.7564 41.4556 10.6358C41.4333 10.517 41.3962 10.4001 41.3498 10.2888Z" fill="url(#paint2_linear)"/>
<path d="M84.6331 9.15082C83.5206 4.44739 79.2894 0.935913 74.2507 0.935913H16.0344C7.1931 0.935728 0 8.12882 0 16.9701V75.1864C0 80.9682 4.62327 85.6874 10.3669 85.8494C11.4794 90.5528 15.7106 94.0643 20.7493 94.0643H84.3292C90.2131 94.0643 95 89.2774 95 83.3935V69.3925V19.8136C95 14.032 90.3767 9.3128 84.6331 9.15082ZM91.2891 83.3939C91.2891 87.2315 88.1669 90.3537 84.3292 90.3537H20.7493C17.7787 90.3537 15.2382 88.4825 14.2413 85.8574C13.9502 85.0911 13.7895 84.2611 13.7895 83.3939V82.1464V73.5502L35.0763 37.4569C35.7245 36.3581 36.8802 35.7165 38.1483 35.7369C39.4239 35.7588 40.5496 36.4405 41.1597 37.561L50.325 54.3905L63.6474 78.8535C63.984 79.4718 64.621 79.8219 65.2785 79.8219C65.5784 79.8219 65.8825 79.749 66.1643 79.5955C67.0642 79.1053 67.3966 77.9785 66.9065 77.0786L62.5833 69.14C64.4814 69.2276 66.3484 68.6128 67.8352 67.3795L76.1794 60.4575C77.5176 59.3474 79.4935 59.3962 80.7752 60.5712L81.2109 60.9705L84.9218 64.3722L91.2891 70.2089V83.3939ZM91.2891 65.1747L84.9217 59.3377L81.2107 56.512C78.7929 55.5008 75.918 55.8526 73.81 57.6012L65.4658 64.5232C64.548 65.2847 63.3498 65.5923 62.1786 65.3673C61.0074 65.1424 60.0086 64.4124 59.4383 63.3652L53.5839 52.6154L50.3149 46.6127V46.6125L44.4188 35.7859C43.1612 33.4768 40.8407 32.0712 38.2117 32.0263C35.5834 31.9851 33.2157 33.3068 31.8799 35.5716L13.7893 66.2453V19.8136C13.7893 15.976 16.9115 12.8538 20.7492 12.8538H32.2145C33.2392 12.8538 34.0699 12.0231 34.0699 10.9983C34.0699 9.97353 33.2392 9.14284 32.2145 9.14284H20.7492C14.8653 9.14284 10.0783 13.9298 10.0783 19.8136V73.0437V82.1192C6.51715 81.8173 3.71094 78.8244 3.71094 75.1864V16.9701C3.71094 10.1748 9.23931 4.64666 16.0344 4.64666H74.2507C77.2213 4.64666 79.7618 6.51791 80.7587 9.14302H47.0582C46.0334 9.14302 45.2027 9.97372 45.2027 10.9985C45.2027 12.0233 46.0334 12.854 47.0582 12.854H81.2105L84.9215 12.881C88.4829 13.1827 91.2891 16.1756 91.2891 19.8136V65.1747Z" fill="url(#paint3_linear)"/>
<defs>
<linearGradient id="paint0_linear" x1="61.1742" y1="33.8809" x2="80.0481" y2="33.8809" gradientUnits="userSpaceOnUse">
<stop stop-color="#6BC24C"/>
<stop offset="1" stop-color="#41B6D9"/>
</linearGradient>
<linearGradient id="paint1_linear" x1="67.0312" y1="84.4245" x2="70.6934" y2="84.4245" gradientUnits="userSpaceOnUse">
<stop stop-color="#6BC24C"/>
<stop offset="1" stop-color="#41B6D9"/>
</linearGradient>
<linearGradient id="paint2_linear" x1="37.8305" y1="10.999" x2="41.4927" y2="10.999" gradientUnits="userSpaceOnUse">
<stop stop-color="#6BC24C"/>
<stop offset="1" stop-color="#41B6D9"/>
</linearGradient>
<linearGradient id="paint3_linear" x1="1.24765" y1="47.5001" x2="95" y2="47.5001" gradientUnits="userSpaceOnUse">
<stop stop-color="#6BC24C"/>
<stop offset="1" stop-color="#41B6D9"/>
</linearGradient>
</defs>
</svg>
