<svg width="130" height="145" viewBox="0 0 130 145" fill="none" xmlns="http://www.w3.org/2000/svg">
<path d="M42.404 111.644H17.104C15.404 111.644 14.0041 110.244 14.0041 108.544V91.1441C14.0041 89.4441 15.404 88.0441 17.104 88.0441H42.404C44.104 88.0441 45.5041 89.4441 45.5041 91.1441V108.544C45.4041 110.244 44.104 111.644 42.404 111.644Z" fill="#F89937"/>
<path d="M44.704 89.2441L37.3041 101.244H22.604L14.704 89.2441C14.404 89.6441 14.104 90.1441 14.104 90.7441L21.704 102.244C21.804 102.444 22.0041 102.544 22.3041 102.544H37.704C37.904 102.544 38.2041 102.444 38.3041 102.244L45.404 90.8441C45.304 90.2441 45.104 89.7441 44.704 89.2441Z" fill="#A85D1A"/>
<path d="M30.904 105.644H28.704C27.904 105.644 27.204 104.944 27.204 104.144V99.9441C27.204 99.1441 27.904 98.4441 28.704 98.4441H30.904C31.704 98.4441 32.404 99.1441 32.404 99.9441V104.144C32.404 104.944 31.804 105.644 30.904 105.644Z" fill="white"/>
<path d="M26.0041 88.1441L26.604 85.7441C26.804 85.1441 27.204 84.7441 27.704 84.7441H32.404C32.904 84.7441 33.3041 85.1441 33.5041 85.6441L34.204 88.1441H35.6041L34.704 85.2441C34.304 84.1441 33.4041 83.3441 32.3041 83.3441H27.604C26.504 83.3441 25.504 84.1441 25.204 85.3441L24.5041 88.0441L26.0041 88.1441C26.0041 88.0441 26.0041 88.1441 26.0041 88.1441Z" fill="#A85D1A"/>
<path d="M118.704 1.64409L117.004 2.0441L116.804 1.14409C116.604 0.344093 115.804 -0.155898 115.004 0.0441017C114.204 0.244102 113.704 1.0441 113.904 1.8441L114.104 2.7441L102.904 5.5441L102.704 4.64409C102.504 3.84409 101.704 3.3441 100.904 3.5441C100.104 3.7441 99.6041 4.5441 99.8041 5.3441L100.004 6.2441L98.3041 6.64409C97.7041 6.74409 97.4041 7.3441 97.5041 7.9441L101.104 22.4441C101.204 23.0441 101.804 23.3441 102.404 23.2441L122.704 18.1441C123.304 18.0441 123.604 17.4441 123.504 16.8441L119.904 2.3441C119.804 1.8441 119.204 1.44409 118.704 1.64409ZM122.104 16.7441L102.304 21.6441L99.6041 10.9441L119.404 6.0441L122.104 16.7441Z" fill="#E8A4C6"/>
<path d="M104.721 11.1675L101.325 12.0121L102.169 15.4085L105.566 14.5639L104.721 11.1675Z" fill="#D4D5D7"/>
<path d="M105.821 15.667L102.425 16.5116L103.269 19.908L106.666 19.0634L105.821 15.667Z" fill="#D4D5D7"/>
<path d="M109.32 10.0671L105.923 10.9116L106.768 14.308L110.164 13.4635L109.32 10.0671Z" fill="#D87260"/>
<path d="M110.42 14.5667L107.023 15.4113L107.868 18.8077L111.264 17.9631L110.42 14.5667Z" fill="#D4D5D7"/>
<path d="M114.021 8.86761L110.624 9.71216L111.469 13.1086L114.865 12.264L114.021 8.86761Z" fill="#D4D5D7"/>
<path d="M115.12 13.3671L111.724 14.2117L112.568 17.6081L115.965 16.7635L115.12 13.3671Z" fill="#D4D5D7"/>
<path d="M118.52 7.768L115.124 8.61255L115.968 12.0089L119.365 11.1644L118.52 7.768Z" fill="#D4D5D7"/>
<path d="M119.62 12.2676L116.224 13.1122L117.068 16.5086L120.465 15.664L119.62 12.2676Z" fill="#D4D5D7"/>
<path d="M54.204 16.5441C57.404 14.3441 58.204 9.9441 56.004 6.7441C53.804 3.5441 49.404 2.74409 46.204 4.94409C43.304 6.94409 42.404 10.7441 43.904 13.8441L32.504 20.7441C31.604 21.3441 31.404 22.5441 32.004 23.4441C32.604 24.3441 33.804 24.5441 34.704 23.9441L45.004 15.4441C47.204 18.0441 51.204 18.5441 54.204 16.5441ZM46.004 13.6441C44.404 11.3441 45.0041 8.24409 47.3041 6.64409C49.604 5.04409 52.7041 5.64409 54.3041 7.94409C55.9041 10.2441 55.304 13.3441 53.004 14.9441C50.704 16.4441 47.604 15.9441 46.004 13.6441Z" fill="#D87260"/>
<path d="M128.104 54.1442L123.404 56.6441C122.404 57.1441 121.204 56.8442 120.704 55.8442L114.304 43.8442C113.804 42.8442 114.104 41.6442 115.104 41.1442L119.804 38.5442C120.804 38.0442 122.004 38.3442 122.504 39.3442L128.904 51.3442C129.404 52.4442 129.104 53.6442 128.104 54.1442Z" fill="white"/>
<path d="M119.504 38.144L114.804 40.644C113.604 41.344 113.104 42.8441 113.804 44.0441L120.204 56.0441C120.904 57.2441 122.404 57.7441 123.604 57.0441L128.304 54.5441C129.504 53.8441 130.004 52.344 129.304 51.144L122.904 39.144C122.304 37.944 120.804 37.444 119.504 38.144ZM128.504 51.644C128.904 52.344 128.604 53.3441 127.904 53.7441L123.204 56.2441C122.504 56.6441 121.504 56.344 121.104 55.644L114.704 43.644C114.304 42.944 114.604 41.9441 115.304 41.5441L116.004 41.144L116.504 42.0441C116.704 42.3441 117.104 42.5441 117.404 42.3441L119.504 41.2441C119.804 41.044 120.004 40.6441 119.804 40.3441L119.304 39.444L120.004 39.0441C120.704 38.6441 121.704 38.944 122.104 39.644L128.504 51.644Z" fill="#777777"/>
<path d="M126.404 75.7441H117.004C116.404 75.7441 116.004 76.2441 116.004 76.7441V77.7441C113.904 77.7441 112.204 79.4441 112.204 81.5441C112.204 83.6441 113.904 85.3441 116.004 85.3441V89.4441C116.004 90.0441 116.504 90.4441 117.004 90.4441H126.404C127.004 90.4441 127.404 89.9441 127.404 89.4441V76.7441C127.404 76.1441 127.004 75.7441 126.404 75.7441ZM115.904 84.3441C114.304 84.3441 113.104 83.0441 113.104 81.5441C113.104 80.0441 114.404 78.7441 115.904 78.7441V84.3441Z" fill="#F89937"/>
<path d="M11.0666 31.5621L0.484962 54.6532L18.2124 62.7769L28.7941 39.6858L11.0666 31.5621Z" fill="white"/>
<path d="M18.0041 63.2441L0.304055 55.0441C0.00405508 54.9441 -0.0959495 54.6441 0.104051 54.3441L10.704 31.2441C10.804 30.9441 11.1041 30.8441 11.4041 31.0441L29.204 39.1441C29.504 39.2441 29.6041 39.5441 29.4041 39.8441L18.704 62.9441C18.604 63.2441 18.3041 63.3441 18.0041 63.2441ZM1.10405 54.3441L18.0041 62.0441L28.204 39.8441L11.3041 32.1441L1.10405 54.3441Z" fill="#D8D6D6"/>
<path d="M10.3041 38.4441L11.9041 35.0441C12.1041 35.1441 12.8041 35.4441 12.9041 35.5441C13.8041 35.9441 13.904 36.5441 13.604 37.1441C13.304 37.7441 12.8041 37.8441 12.5041 37.8441L12.9041 39.7441L12.204 39.4441L11.8041 37.7441L11.4041 37.5441L10.8041 38.8441L10.3041 38.4441ZM12.204 35.8441L11.704 36.8441L12.104 37.0441C12.404 37.2441 12.8041 37.1441 13.0041 36.8441C13.1041 36.5441 13.104 36.2441 12.604 36.0441C12.504 35.9441 12.404 35.9441 12.204 35.8441Z" fill="#2E3543"/>
<path d="M15.104 40.3441C14.804 40.4441 14.404 40.3441 14.104 40.2441C13.404 39.9441 13.1041 39.2441 13.5041 38.5441C13.8041 37.9441 14.504 37.6441 15.204 37.9441C15.804 38.2441 16.0041 38.8441 15.8041 39.4441C15.7041 39.5441 15.704 39.6441 15.604 39.7441L14.0041 39.0441C13.9041 39.4441 14.1041 39.6441 14.4041 39.8441C14.7041 39.9441 14.904 39.9441 15.104 39.9441V40.3441ZM14.204 38.6441L15.3041 39.1441C15.4041 38.8441 15.3041 38.5441 15.0041 38.4441C14.6041 38.2441 14.404 38.3441 14.204 38.6441Z" fill="#2E3543"/>
<path d="M16.704 38.644L17.3041 38.944L17.204 39.144C17.404 39.044 17.7041 39.044 18.0041 39.144C18.6041 39.444 18.8041 40.044 18.5041 40.744C18.2041 41.444 17.5041 41.7441 16.8041 41.3441C16.6041 41.2441 16.4041 41.1441 16.3041 41.0441L15.8041 42.0441L15.204 41.744L16.704 38.644ZM16.9041 39.644L16.5041 40.5441C16.6041 40.7441 16.7041 40.8441 16.9041 40.8441C17.3041 41.0441 17.6041 40.844 17.8041 40.444C18.0041 40.144 17.9041 39.7441 17.5041 39.5441C17.3041 39.5441 17.1041 39.544 16.9041 39.644Z" fill="#2E3543"/>
<path d="M20.4041 40.344C21.1041 40.644 21.4041 41.344 21.1041 42.044C20.8041 42.744 20.1041 42.944 19.4041 42.644C18.7041 42.344 18.404 41.644 18.704 40.944C19.004 40.344 19.7041 40.044 20.4041 40.344ZM19.6041 42.144C19.9041 42.344 20.3041 42.144 20.5041 41.744C20.7041 41.344 20.504 41.044 20.204 40.844C19.904 40.644 19.5041 40.844 19.3041 41.144C19.2041 41.544 19.3041 41.944 19.6041 42.144Z" fill="#2E3543"/>
<path d="M22.104 41.144L22.704 41.444L22.604 41.644C22.804 41.544 23.004 41.544 23.204 41.644C23.404 41.744 23.5041 41.8441 23.5041 41.8441L23.104 42.244C23.004 42.144 23.0041 42.0441 22.9041 42.0441C22.7041 41.9441 22.6041 42.044 22.4041 42.144L21.704 43.644L21.104 43.3441L22.104 41.144Z" fill="#2E3543"/>
<path d="M24.0041 41.3441L24.6041 41.6441L24.3041 42.2441L25.0041 42.5441L24.8041 43.0441L24.1041 42.7441L23.7041 43.5441C23.6041 43.7441 23.6041 43.9441 23.8041 44.0441C23.9041 44.1441 24.1041 44.0441 24.2041 44.0441V44.5441C24.0041 44.5441 23.7041 44.5441 23.5041 44.4441C23.0041 44.2441 23.0041 43.8441 23.2041 43.2441L24.0041 41.3441Z" fill="#2E3543"/>
<path d="M9.30405 41.5442L22.3041 47.5442C22.5041 47.6442 22.7041 47.5442 22.8041 47.3442C22.9041 47.1442 22.804 46.9442 22.604 46.8442L9.60405 40.8442C9.40405 40.7442 9.20405 40.8442 9.10405 41.0442C9.00405 41.2442 9.10405 41.4442 9.30405 41.5442Z" fill="#2E3543"/>
<path d="M21.704 48.8442L8.70405 42.8442C8.50405 42.7442 8.30405 42.8442 8.20405 43.0442C8.10405 43.2442 8.20405 43.4442 8.40405 43.5442L21.4041 49.5442C21.6041 49.6442 21.8041 49.5442 21.9041 49.3442C22.0041 49.1442 21.904 48.9442 21.704 48.8442Z" fill="#2E3543"/>
<path d="M20.8041 50.9441L7.80405 44.9441C7.60405 44.8441 7.40405 44.9441 7.30405 45.1441C7.20405 45.3441 7.30405 45.5441 7.50405 45.6441L20.5041 51.6441C20.7041 51.7441 20.9041 51.6441 21.0041 51.4441C21.1041 51.2441 21.0041 51.0441 20.8041 50.9441Z" fill="#2E3543"/>
<path d="M19.8041 52.9441L6.80405 46.9441C6.60405 46.8441 6.40405 46.9441 6.30405 47.1441C6.20405 47.3441 6.30405 47.5441 6.50405 47.6441L19.5041 53.6441C19.7041 53.7441 19.9041 53.6441 20.0041 53.4441C20.1041 53.3441 20.0041 53.0441 19.8041 52.9441Z" fill="#2E3543"/>
<path d="M18.9041 55.0441L5.90405 49.0441C5.70405 48.9441 5.50405 49.0441 5.40405 49.2441C5.30405 49.4441 5.40405 49.6441 5.60405 49.7441L18.6041 55.7441C18.8041 55.8441 19.0041 55.7441 19.1041 55.5441C19.2041 55.3441 19.1041 55.1441 18.9041 55.0441Z" fill="#2E3543"/>
<path d="M12.0041 54.4442L4.90405 51.2442C4.70405 51.1442 4.50405 51.2442 4.40405 51.4442C4.30405 51.6442 4.40405 51.8442 4.60405 51.9442L11.704 55.1442C11.904 55.2442 12.104 55.1442 12.204 54.9442C12.304 54.7442 12.2041 54.4442 12.0041 54.4442Z" fill="#2E3543"/>
<path d="M56.904 81.4441L82.6041 81.3441L81.1041 139.144H74.404L70.904 86.2441H69.0041L66.5041 139.144H59.5041L56.904 81.4441Z" fill="#2E3543"/>
<path d="M87.3041 141.644C86.1041 141.344 84.3041 141.544 82.5041 140.544C81.6041 139.944 80.6041 139.244 80.5041 139.144H75.2041C75.1041 139.544 75.0041 140.444 75.0041 141.144C75.0041 142.144 75.0041 142.944 75.0041 143.444C75.0041 143.744 75.3041 143.944 75.5041 143.944H78.1041L79.1041 143.444C79.1041 143.444 82.4041 144.044 84.9041 144.044C87.4041 144.044 88.1041 143.144 88.1041 143.144C88.1041 143.144 88.5041 141.944 87.3041 141.644Z" fill="#090A0A"/>
<path d="M72.204 141.644C71.004 141.344 69.204 141.544 67.404 140.544C66.504 139.944 65.504 139.244 65.404 139.144H60.1041C60.0041 139.544 59.904 140.444 59.904 141.144C59.904 142.144 59.904 142.944 59.904 143.444C59.904 143.744 60.204 143.944 60.404 143.944H63.0041L64.0041 143.444C64.0041 143.444 67.3041 144.044 69.8041 144.044C72.3041 144.044 73.0041 143.144 73.0041 143.144C73.0041 143.144 73.404 141.944 72.204 141.644Z" fill="#090A0A"/>
<path d="M56.904 81.4441V65.3441L54.1041 73.4441C53.4041 75.2441 52.004 76.5441 50.204 77.2441L34.404 83.2441L32.404 78.1441L48.204 71.0441L54.1041 55.8441L46.1041 61.9441C43.9041 63.8441 40.704 64.1441 38.204 62.6441L25.9041 55.0441L28.9041 50.4441L40.904 56.3441L53.904 46.4441L43.1041 43.0441C40.6041 42.2441 38.7041 40.0441 38.5041 37.3441L37.0041 22.6441L42.3041 21.4441L44.6041 35.4441L61.204 40.9441L78.8041 40.8441L96.3041 37.5441L99.6041 23.8441L105.004 24.5441L102.804 38.1441C102.404 40.8441 100.404 42.9441 97.704 43.5441L85.5041 47.3441L98.3041 56.9441L112.404 48.8441L115.304 53.6441L101.304 62.9441C99.0041 64.3441 96.0041 64.2441 93.8041 62.5441L84.8041 55.7441L93.204 72.0441L107.704 77.9441L106.504 83.5441L91.5041 79.1441C89.7041 78.6441 88.1041 77.3441 87.3041 75.5441L82.6041 66.9441V81.3441L56.904 81.4441Z" fill="#00B4F9"/>
<path d="M116.004 54.2441C118.434 54.2441 120.404 52.2742 120.404 49.8441C120.404 47.414 118.434 45.4441 116.004 45.4441C113.574 45.4441 111.604 47.414 111.604 49.8441C111.604 52.2742 113.574 54.2441 116.004 54.2441Z" fill="#EAC2A7"/>
<path d="M110.204 86.0441C112.634 86.0441 114.604 84.0742 114.604 81.6441C114.604 79.2141 112.634 77.2441 110.204 77.2441C107.774 77.2441 105.804 79.2141 105.804 81.6441C105.804 84.0742 107.774 86.0441 110.204 86.0441Z" fill="#EAC2A7"/>
<path d="M102.704 25.2441C105.134 25.2441 107.104 23.2742 107.104 20.8441C107.104 18.414 105.134 16.4441 102.704 16.4441C100.274 16.4441 98.304 18.414 98.304 20.8441C98.304 23.2742 100.274 25.2441 102.704 25.2441Z" fill="#EAC2A7"/>
<path d="M38.404 23.3441C40.8341 23.3441 42.8041 21.3741 42.8041 18.9441C42.8041 16.514 40.8341 14.5441 38.404 14.5441C35.974 14.5441 34.0041 16.514 34.0041 18.9441C34.0041 21.3741 35.974 23.3441 38.404 23.3441Z" fill="#EAC2A7"/>
<path d="M24.604 55.444C27.0341 55.444 29.0041 53.4741 29.0041 51.0441C29.0041 48.614 27.0341 46.644 24.604 46.644C22.174 46.644 20.204 48.614 20.204 51.0441C20.204 53.4741 22.174 55.444 24.604 55.444Z" fill="#EAC2A7"/>
<path d="M30.404 86.3441C32.8341 86.3441 34.8041 84.3741 34.8041 81.9441C34.8041 79.514 32.8341 77.5441 30.404 77.5441C27.974 77.5441 26.0041 79.514 26.0041 81.9441C26.0041 84.3741 27.974 86.3441 30.404 86.3441Z" fill="#EAC2A7"/>
<path d="M70.1041 49.7441C66.7041 49.7441 64.0041 47.0441 64.0041 43.6441V40.9441H65.0041V43.6441C65.0041 46.4441 67.3041 48.7441 70.1041 48.7441C72.9041 48.7441 75.2041 46.4441 75.2041 43.6441V40.8441H76.2041V43.6441C76.2041 46.9441 73.5041 49.7441 70.1041 49.7441Z" fill="#007EA5"/>
<path d="M66.704 21.2441V39.9441V42.9441C66.704 44.8441 68.204 46.4441 70.104 46.4441C72.004 46.4441 73.604 44.8441 73.504 42.9441V39.8441C73.304 38.8441 74.104 37.9441 75.104 38.0441L77.904 38.4441C79.504 38.4441 80.704 37.1441 80.704 35.6441V30.9441L82.704 30.8441C83.404 30.8441 83.704 30.0441 83.204 29.5441L79.104 19.0441L66.704 21.2441Z" fill="#EAC2A7"/>
<path d="M76.804 35.644C77.9086 35.644 78.804 34.7486 78.804 33.644C78.804 32.5395 77.9086 31.644 76.804 31.644C75.6995 31.644 74.804 32.5395 74.804 33.644C74.804 34.7486 75.6995 35.644 76.804 35.644Z" fill="white"/>
<path d="M82.1041 28.5442C82.0041 28.5442 81.9041 28.5442 81.9041 28.5442C81.2041 28.4442 80.5041 28.1442 80.1041 27.5442C79.6041 26.9442 79.4041 26.2442 79.5041 25.5442C79.6041 24.0442 80.9041 22.9442 82.4041 23.0442C83.1041 23.1442 83.8041 23.4442 84.2041 24.0442C84.7041 24.6442 84.9041 25.3442 84.8041 26.0442C84.7041 26.7442 84.4041 27.4442 83.8041 27.8442C83.3041 28.3442 82.7041 28.5442 82.1041 28.5442ZM80.3041 25.7441C80.3041 26.2441 80.4041 26.6441 80.7041 26.9441C81.0041 27.2441 81.4041 27.5442 81.9041 27.5442C82.4041 27.5442 82.8041 27.4441 83.1041 27.1441C83.4041 26.8441 83.7041 26.4441 83.7041 25.9441C83.7041 25.4441 83.6041 25.0441 83.3041 24.7441C83.0041 24.4441 82.6041 24.1441 82.1041 24.1441C81.3041 24.0441 80.4041 24.7441 80.3041 25.7441Z" fill="#2E3543"/>
<path d="M76.004 28.5441C74.504 28.5441 73.304 27.3441 73.304 25.8441C73.304 24.3441 74.504 23.144 76.004 23.144C77.504 23.144 78.704 24.3441 78.704 25.8441C78.704 27.3441 77.504 28.5441 76.004 28.5441ZM76.004 24.144C75.104 24.144 74.304 24.9441 74.304 25.8441C74.304 26.7441 75.104 27.5441 76.004 27.5441C76.904 27.5441 77.704 26.7441 77.704 25.8441C77.704 24.9441 77.004 24.144 76.004 24.144Z" fill="#2E3543"/>
<path d="M78.3041 9.94409V11.5441C78.3041 13.1441 76.7041 12.8441 73.7041 12.8441C70.7041 12.8441 66.6041 13.8441 66.6041 17.1441C66.6041 18.1441 66.6041 29.9441 66.6041 29.9441C68.1041 29.9441 69.4041 28.7441 69.4041 27.1441V22.0441H69.8041C70.2041 22.0441 70.5041 22.3441 70.5041 22.7441V23.8441C70.5041 24.3441 70.9041 24.8441 71.5041 24.7441C72.0041 24.7441 72.4041 24.3441 72.4041 23.7441V22.3441C72.4041 21.4441 73.2041 20.6441 74.1041 20.6441H75.9041C78.4041 20.6441 84.3041 21.5441 84.3041 16.2441C84.4041 9.94409 78.3041 9.94409 78.3041 9.94409Z" fill="#2E3543"/>
</svg>
