<?xml version="1.0" encoding="utf-8"?>
<!-- Generator: Adobe Illustrator 22.1.0, SVG Export Plug-In . SVG Version: 6.00 Build 0)  -->
<svg version="1.1" id="Layer_1" xmlns="http://www.w3.org/2000/svg" xmlns:xlink="http://www.w3.org/1999/xlink" x="0px" y="0px"
	 width="150px" height="150px" viewBox="0 0 150 150" style="enable-background:new 0 0 150 150;" xml:space="preserve">
<style type="text/css">
	.st0{fill:#4CCCFC;}
	.st1{fill:#3867B3;}
	.st2{fill:#F5F1F1;}
	.st3{fill:#FFFFFF;}
	.st4{fill:#294B82;}
	.st5{fill:#D98349;}
	.st6{fill:#EAC2A7;}
	.st7{fill:#2E3543;}
	.st8{fill:#EAE9E9;}
	.st9{fill:#E2452D;}
	.st10{fill:#E2E2E2;}
	.st11{fill:#1C3860;}
</style>
<path id="Combined-Shape" class="st0" d="M78.8,45.8L63,72.6l33.8,14.8l15.8-26.8L78.8,45.8z M81.6,41.1l33.8,14.8L128.9,33
	c0.7-1.2,2.3-1.6,3.6-0.9c1.2,0.7,1.7,2.3,0.9,3.5L70.2,143c-0.7,1.2-2.3,1.6-3.6,0.9c-1.2-0.7-1.7-2.3-0.9-3.5l9.6-16.3l-33.8-14.8
	l-10.1,17.2c-0.7,1.2-2.3,1.6-3.6,0.9c-1.3-0.7-1.6-2.3-0.9-3.6l29.8-50.5c0-0.1,0.1-0.2,0.1-0.3c0.1-0.3,0.3-0.6,0.6-0.9l32.6-55.4
	c0.7-1.2,2.3-1.6,3.6-0.9c1.2,0.7,1.6,2.3,0.9,3.6L81.6,41.1z M60.3,77.3l-16,27.2L78,119.4l16-27.2L60.3,77.3z"/>
<path id="Fill-1_2_" class="st1" d="M61,71.6l17.2,18.3c1.2,1.3,1.5,3.2,0.7,4.8L69,116.3l-7,1.2c-0.5,0.1-1.1-0.3-1.2-0.8
	c0-0.2,0-0.4,0.1-0.5l7.4-19.4c1.7-3.5,1.7-3.5-1.7-5.7l-12.5-8l-2.4,1.5l-13.5,41.7l-8.2,0.3l11.7-52.2L61,71.6z"/>
<g id="Group-8" transform="translate(29.275080, 46.896839) rotate(-15.000000) translate(-29.275080, -46.896839) translate(21.080417, 36.425882)">
	<polygon id="Fill-3" class="st2" points="37.2,34.4 42.1,50.5 46.6,49.6 42.9,28.1 	"/>
	<polygon id="Fill-24" class="st3" points="46.1,46.5 41.3,47.7 42.1,50.5 46.6,49.6 	"/>
	<path id="Fill-26" class="st4" d="M42.4,48.1c-0.2,0.3-0.1,0.6,0.2,0.8c0.3,0.2,0.6,0.1,0.8-0.2s0.1-0.6-0.2-0.8
		S42.5,47.8,42.4,48.1"/>
</g>
<path id="Fill-5_1_" class="st5" d="M63.5,117.2l-1.1,2.8c-0.1,0.7,0.6,1.1,1.2,1.1l12.9-0.6c0.3,0,0.5-0.3,0.4-0.6l-0.2-1
	c-0.1-0.4-0.4-0.7-0.9-0.8l-7.3-1.7L63.5,117.2z"/>
<path id="Fill-10" class="st6" d="M61.4,27.5v15.1v0.6c0,1.5,1.2,2.8,2.7,2.8s2.8-1.2,2.7-2.8v-0.6c-0.2-0.8,0.5-1.6,1.3-1.4
	l2.3,0.3c1.2,0,2.3-1,2.3-2.3v-3.6l1.6-0.1c0.5,0,0.8-0.7,0.4-1.1l-3.2-8.6L61.4,27.5z"/>
<path id="Fill-27_1_" class="st3" d="M72.4,36.1c-0.3,1.2-1.3,2.1-2.6,2.1c-1.3,0-2.4-0.9-2.6-2.1H72.4z"/>
<path class="st7" d="M75.6,32.8c-1.5,0-2.8-1.2-2.8-2.8c0-1.6,1.2-2.8,2.8-2.8c1.6,0,2.8,1.2,2.8,2.8C78.4,31.6,77.1,32.8,75.6,32.8
	z M75.6,28.2c-1,0-1.8,0.8-1.8,1.8s0.8,1.8,1.8,1.8s1.8-0.8,1.8-1.8C77.4,29,76.6,28.2,75.6,28.2z"/>
<path class="st7" d="M69.1,32.8c-1.5,0-2.8-1.2-2.8-2.8c0-1.6,1.2-2.8,2.8-2.8c1.6,0,2.8,1.2,2.8,2.8C72,31.6,70.6,32.8,69.1,32.8z
	 M69.1,28.2c-1,0-1.8,0.8-1.8,1.8s0.8,1.8,1.8,1.8s1.8-0.8,1.8-1.8C70.9,29,70.1,28.2,69.1,28.2z"/>
<path id="Combined-Shape_1_" class="st7" d="M63.1,28.2h0.7c0.3,0,0.6,0.2,0.6,0.6v0.9c0,0.4,0.3,0.8,0.8,0.8c0.4,0,0.8-0.3,0.8-0.8
	v-1.1c0-0.7,0.6-1.3,1.3-1.3h1.4c2,0,6.8,0.7,6.8-3.5c0-5.1-4.8-5.1-4.8-5.1v1.3c0,1.3-1.3,1-3.6,1s-5.7,0.8-5.7,3.4
	c0,1.7,0,2.7,0,3.3c0,0.1,0,0.1,0,0.2V38c1,0,1.8-0.8,1.8-1.8v-8H63.1z"/>
<g id="Group-9" transform="translate(55.541601, 106.334851)">
	<path id="Fill-7_1_" class="st5" d="M-18.9,20.2l1.9,2.8l4.6,3.1c0.4,0.3,0.6,0.8,0.4,1.3l-0.2,0.7c-0.1,0.3-0.5,0.5-0.8,0.4
		l-11.5-4.3c-0.6-0.2-0.9-0.7-0.9-1.3l1.5-2.7C-23.8,20.2-18.9,20.2-18.9,20.2z"/>
</g>
<path id="Fill-10_1_" class="st8" d="M70.1,52.3c0.4-3.6-1.5-7.3-4.8-9L60.9,41c-2.4-1.2-7.8,0.9-8.9,4.6l-1.1,3.1l-9.3,25.5
	l19.3-2.7l8.3-16C69.7,54.5,70,53.4,70.1,52.3z"/>
<path id="Fill-12_1_" class="st9" d="M69,46.4l-7.5,19.6l0.4,2.8c0.1,0.4,0.5,0.5,0.8,0.3l2-2.2L70,46.6L69,46.4z"/>
<path id="Fill-14_1_" class="st9" d="M68.6,45.8c0,0.6,0.5,1.1,1.1,1.1s1.1-0.5,1.1-1.1c0-0.6-0.5-1.1-1.1-1.1
	C69.1,44.6,68.6,45.2,68.6,45.8"/>
<path id="Fill-16_1_" class="st2" d="M68.1,55.3l3,1.1l7.8,3c1.1,0.5,2.3,0.4,3.4-0.1l13-6.6l-1.7-4.3l-12.7,3.9
	c-1.1,0.3-2.3,0.2-3.3-0.4l-12.1-7.5c-3-1.8-6.7-2-8.2,0.8c-1.6,3.1,1,6.1,3,6.9L68.1,55.3z"/>
<path id="Fill-15" class="st6" d="M72.4,78.2c0,1.8,1.4,3.2,3.2,3.2s3.2-1.4,3.2-3.2s-1.4-3.2-3.2-3.2
	C73.8,74.8,72.4,76.2,72.4,78.2"/>
<path id="Fill-1_1_" class="st6" d="M100.1,49.5c0,1.8-1.4,3.2-3.2,3.2s-3.2-1.4-3.2-3.2s1.4-3.2,3.2-3.2
	C98.7,46.3,100.1,47.7,100.1,49.5"/>
<path id="Fill-18_1_" class="st10" d="M60.7,38.8L60.2,41c4.4,2,5.9,3,8.3,4.5c0.2,0.2,3.3-0.7,3.3-0.7L60.7,38.8z"/>
<polygon id="Fill-20" class="st3" points="90.5,49.5 92.3,54.2 95.6,52.8 93.6,48.5 "/>
<path id="Fill-22" class="st4" d="M92.3,52.5c0,0.3,0.3,0.6,0.6,0.6s0.6-0.3,0.6-0.6s-0.3-0.6-0.6-0.6
	C92.5,51.9,92.3,52.1,92.3,52.5"/>
<polygon id="Fill-28" class="st11" points="54.2,83.3 45.6,77.8 51.7,84.6 "/>
</svg>
