<svg width="172" height="88" viewBox="0 0 172 88" fill="none" xmlns="http://www.w3.org/2000/svg">
<path d="M124.2 25.8L117 18.1L109.8 25.8C108.3 27.5 107.3 29.8 107.3 32.2C107.3 37.6 111.7 41.9 117 41.9C122.3 41.9 126.7 37.5 126.7 32.2C126.7 29.7 125.7 27.5 124.2 25.8Z" fill="#F6C167"/>
<path d="M120.5 28.7L116.9 24L113.3 28.7C112.5 29.5 112.1 30.7 112.1 31.9C112.1 34.6 114.2 36.7 116.9 36.7C119.6 36.7 121.7 34.6 121.7 31.9C121.8 30.7 121.3 29.6 120.5 28.7Z" fill="#F89937"/>
<path d="M118 14.1V6.40002H116V14C116 14.6 116.4 15 117 15C117.6 15 118 14.6 118 14.1Z" fill="#F89937"/>
<path d="M121.5 8.29999V4.59998H119.5V8.19998C119.5 8.79998 119.9 9.19998 120.5 9.19998C121.1 9.19998 121.5 8.79999 121.5 8.29999Z" fill="#F89937"/>
<path d="M141.3 36.3H155.3V38.7H160.5C162.9 38.7 164.8 40.6 164.8 43V77.6C164.8 79.9 162.9 81.8 160.6 81.8H126.1V76.4L129.8 76.2L116.8 53.7L122.4 51.7L131.7 63.1L134.3 42.3C134.8 38.9 137.8 36.3 141.3 36.3Z" fill="#77C54F"/>
<path d="M126.1 76.5V81.9H115.8V80.7C115.8 78.4 117.7 76.6 119.9 76.6L126.1 76.5Z" fill="#EAC2A7"/>
<path d="M121.9 49.5H119.8L117.7 47.4C117.2 46.9 116.3 46.9 115.8 47.4C115.3 47.9 115.3 48.8 115.8 49.3L116 49.5H107.5C107 49.5 106.5 49.9 106.5 50.5C106.5 50.9 106.7 51.3 107.1 51.4L112 53.4C113 53.8 114.2 54.1 115.3 54.1H122C123.3 54.1 124.3 53.1 124.3 51.8C124.2 50.5 123.2 49.5 121.9 49.5Z" fill="#EAC2A7"/>
<path d="M164.2 25.8C165.4 24 166.1 21.9 166.1 19.5C166.1 13.4 161.1 8.40002 155 8.40002C151.1 8.40002 147.7 10.4 145.8 13.4C142.7 14.3 140.3 17.1 140.3 20.5C140.3 24.6 143.6 27.9 147.7 27.9H147.8C148.4 28.4 149.1 28.9 149.8 29.3V36.3C149.8 42.4 154.7 47.3 160.8 47.3C166.9 47.3 171.8 42.4 171.8 36.3C171.9 31.4 168.7 27.2 164.2 25.8Z" fill="#2E3543"/>
<path d="M151.1 20.6H140.4V24H139.3C138.8 24 138.4 24.4 138.4 24.9C138.4 25.4 138.8 25.8 139.3 25.8H140.4V29C140.4 32.3 143.1 35 146.4 35H147.5V36.3H149.8V35V34.4V24.7H151.1C152.2 24.7 153.1 23.8 153.1 22.7C153.1 21.6 152.2 20.6 151.1 20.6Z" fill="#EAC2A7"/>
<path d="M141.7 28.2C141.9 29.5 143 30.3999 144.3 30.3999C145.6 30.3999 146.7 29.4 146.9 28.2H141.7Z" fill="white"/>
<path d="M164.8 49.5999V43C164.8 40.6 162.9 38.7 160.5 38.7V49.8999L164.8 49.5999Z" fill="#77C54F"/>
<path d="M129.9 76.3L129.3 75.3L155.2 73.5L154.6 50.4L155.6 48.4L156.3 74.4L129.9 76.3Z" fill="#5D913C"/>
<path d="M138.3 75.3L137.3 75.2L140.4 47.7L141.7 46.2L138.3 75.3Z" fill="#5D913C"/>
<path d="M113.8 21.4L112.6 19.3L111.4 21.4C111.2 21.7 111 22 111 22.4C111 23.3 111.7 24 112.6 24C113.5 24 114.2 23.3 114.2 22.4C114.2 22.1 114 21.7 113.8 21.4Z" fill="#F89937"/>
<path d="M0.100057 77.3L4.40004 41.4C5.00004 36.6 9.00004 33 13.9 33H36.6001C41.4001 33 45.5001 36.6 46.1001 41.4L49.7 72.4L69.8001 73.8V78.8H49.1001V81.8H4.20003C1.70003 81.8 -0.199943 79.7 0.100057 77.3Z" fill="#00B4F9"/>
<path d="M69.9 73.8V78.8H77.7V77.8C77.7 75.6 75.7 73.8 73.2 73.8H69.9Z" fill="#EAC2A7"/>
<path d="M83 46.8V81.8H104V56.6L83 46.8Z" fill="#CACACA"/>
<path d="M83 46.8H80V81.8H83V46.8Z" fill="#2E3543"/>
<path d="M82.1 78.8H47.1V81.8H82.1V78.8Z" fill="#2E3543"/>
<path d="M40.9 74.8V81.8H54.9V80.3C54.9 77.2 52.3 74.8 49.1 74.8H40.9Z" fill="#EAC2A7"/>
<path d="M21.7 11.7V31.3V34.5C21.7 36.5 23.3 38.1 25.3 38.1C27.3 38.1 28.9 36.5 28.9 34.5V31.3C28.9 30.2 29.9 29.3 30.9 29.5L33.6 29.8C35.2 29.8 36.6 28.5 36.6 26.8V21.9L38.7 21.8C39.4 21.8 39.5 21 39.2 20.4L34.9 9.40002L21.7 11.7Z" fill="#EAC2A7"/>
<path d="M32.4 26.8C33.5598 26.8 34.5 25.8598 34.5 24.7C34.5 23.5402 33.5598 22.6 32.4 22.6C31.2402 22.6 30.3 23.5402 30.3 24.7C30.3 25.8598 31.2402 26.8 32.4 26.8Z" fill="white"/>
<path d="M40.8001 19.4C40.7001 19.4 40.6 19.4 40.5 19.4C39.6 19.3 38.7001 18.9 38.1001 18.2C37.5001 17.5 37.2001 16.6 37.3001 15.7C37.5001 13.8 39.1 12.4 41 12.5C41.9 12.6 42.8001 13 43.4001 13.7C44.0001 14.4 44.3 15.3 44.2 16.2C44.1 17.1 43.7 18 43 18.6C42.4 19.1 41.6001 19.4 40.8001 19.4ZM38.6001 15.8C38.6001 16.4 38.7001 16.9 39.1001 17.4C39.5001 17.8 40.0001 18.1 40.6001 18.2C41.2001 18.2 41.7 18.1 42.2 17.7C42.6 17.3 42.9 16.8 43 16.2C43 15.6 42.9 15.1 42.5 14.6C42.1 14.2 41.6 13.9 41 13.8C39.8 13.7 38.7001 14.6 38.6001 15.8Z" fill="#2E3543"/>
<path d="M33.2 19.4C31.3 19.4 29.7 17.8 29.7 15.9C29.7 14 31.3 12.4 33.2 12.4C35.1 12.4 36.7 14 36.7 15.9C36.6 17.9 35.1 19.4 33.2 19.4ZM33.2 13.8C32 13.8 31 14.8 31 16C31 17.2 32 18.2 33.2 18.2C34.4 18.2 35.4 17.2 35.4 16C35.3 14.8 34.4 13.8 33.2 13.8Z" fill="#2E3543"/>
<path d="M33.9 0V1.59999C33.9 3.19999 32.3 2.89999 29.1 2.89999C26 2.89999 21.6 3.89999 21.6 7.39999C21.6 8.39999 21.6 20.8 21.6 20.8C23.2 20.8 24.5 19.5 24.5 17.9V12.5H24.9C25.3 12.5 25.6 12.8 25.6 13.2V14.3C25.6 14.9 26.1 15.3 26.6 15.3C27.1 15.3 27.6 14.8 27.6 14.3V12.9C27.6 11.9 28.4 11.1 29.4 11.1H31.3C33.9 11.1 40.1 12.1 40.1 6.5C40.3 0 33.9 0 33.9 0Z" fill="#2E3543"/>
<path d="M25.3 41.7C22 41.7 19.3 39 19.3 35.7V33H20.3V35.7C20.3 38.5 22.6 40.7 25.3 40.7C28 40.7 30.3 38.4 30.3 35.7V33H31.3V35.7C31.4 39 28.6 41.7 25.3 41.7Z" fill="#007EA5"/>
<path d="M37.7 50.1L36.6 48.9L39.8 73.8H11.1L13.6 52L12.8 50.1L9.90002 74.8H40.9L37.7 50.1Z" fill="#007EA5"/>
<path d="M171.5 84.7H0.5C0.2 84.7 0 84.5 0 84.2V82.2C0 81.9 0.2 81.7 0.5 81.7H171.5C171.8 81.7 172 81.9 172 82.2V84.2C172 84.5 171.8 84.7 171.5 84.7Z" fill="#9C4A73"/>
<path d="M171.5 87.7H0.5C0.2 87.7 0 87.5 0 87.2V85.2C0 84.9 0.2 84.7 0.5 84.7H171.5C171.8 84.7 172 84.9 172 85.2V87.2C172 87.5 171.8 87.7 171.5 87.7Z" fill="white"/>
</svg>
