<?xml version="1.0" encoding="utf-8"?>
<!-- Generator: Adobe Illustrator 22.1.0, SVG Export Plug-In . SVG Version: 6.00 Build 0)  -->
<svg version="1.1" id="Layer_1" xmlns="http://www.w3.org/2000/svg" xmlns:xlink="http://www.w3.org/1999/xlink" x="0px" y="0px"
	 width="150px" height="150px" viewBox="0 0 150 150" style="enable-background:new 0 0 150 150;" xml:space="preserve">
<style type="text/css">
	.st0{fill:#E2C36D;}
	.st1{fill:#FFDBA6;}
	.st2{fill:#EAC2A7;}
	.st3{fill:none;stroke:#2E3543;}
	.st4{fill:#2E3543;}
	.st5{fill:#F6C167;}
	.st6{fill:#F89937;}
	.st7{fill:#00B6FB;}
	.st8{fill:none;stroke:#0C82D3;}
	.st9{fill:none;stroke:#2E3543;stroke-width:2;}
</style>
<polygon id="Fill-21_2_" class="st0" points="114.3,99.1 108.3,133.7 87.7,133.7 81.2,99.1 "/>
<polygon id="Fill-21_1_" class="st1" points="114.5,95.7 108.5,130.2 87.8,130.1 81.4,95.6 "/>
<path id="Fill-1" class="st2" d="M86.7,75.9c-0.5,1.5-7.1,4.1-9.2,3.6s-4.8-0.8-6.1-1c-1.4-0.3-4.3-6.6-4.3-6.6l7.5-3l8.6-2.1
	L86.7,75.9z"/>
<g id="Group-10" transform="translate(52.047917, 79.802730) rotate(50.000000) translate(-52.047917, -79.802730) translate(46.455645, 77.221682)">
	<path id="Stroke-1" class="st3" d="M20.9-21.8c-0.2,1.1-1.2,1.8-2.3,1.5c-1.1-0.3-1.8-1.2-1.5-2.3c0.2-1.1,1.2-1.8,2.3-1.5
		C20.4-24,21.1-22.9,20.9-21.8z"/>
	<path id="Stroke-3" class="st3" d="M26.4-20.9c-0.2,1.1-1.2,1.8-2.3,1.5c-1.1-0.3-1.8-1.2-1.5-2.3c0.3-1.1,1.2-1.8,2.3-1.5
		C25.9-23,26.6-21.9,26.4-20.9z"/>
</g>
<path id="Fill-27" class="st4" d="M79.8,66.1c-0.1-0.4,0-0.8,0.4-0.9c0.6-0.2,1.5-0.6,3.1-1.1c2.5-1,4.4,1.8,5.2,4.2
	c0.9,2.3,1,3.5,2.2,3.1l1.2-0.5c0,0,1.6,4.5-3.1,6.3c-4.1,1.5-5-3.2-5.6-5.1l-0.5-1.4c-0.3-0.8-1-1.1-1.7-0.9l-1,0.4
	c-0.4,0.2-0.9-0.1-1-0.5c-0.2-0.4,0.1-0.9,0.5-1l0.9-0.3c0.3-0.1,0.5-0.5,0.4-0.8L79.8,66.1z"/>
<polygon id="Fill-5" class="st4" points="80.7,55.8 83.3,55.8 83.3,35.4 80.7,35.4 "/>
<path id="Fill-7" class="st5" d="M93.3,16.3L93.3,16.3l-10.9-11L71.5,16.2l0,0c-2.6,2.7-4.2,6.3-4.2,10.4c0,8.3,6.8,15,15,15
	c8.3,0,15-6.8,15-15C97.5,22.6,95.9,19,93.3,16.3"/>
<path id="Fill-8" class="st6" d="M87.8,21L87.8,21l-5.4-5.4L77,21l0,0c-1.3,1.3-2,3.1-2,5.2c0,4.2,3.3,7.5,7.5,7.5
	c4.2,0,7.5-3.3,7.5-7.5C89.8,24.1,89.2,22.3,87.8,21"/>
<path id="Fill-9" class="st6" d="M77.3,10.7L77.3,10.7L75.8,8l-1.5,2.7l0,0c-0.4,0.4-0.6,1-0.6,1.5c0,1.2,1,2.1,2.1,2.1
	c1.2,0,2.1-1,2.1-2.1C77.9,11.6,77.7,11.2,77.3,10.7"/>
<path id="Fill-12" class="st7" d="M75.6,64.4l-10.5,2.8c-1.6,0.5-3.2,1.2-4.6,2.1L43.7,81.5c-3.1,2.1-4.6,5.8-4.2,9.5l0.3,2.1
	l32.8,1.3l3.1,3.3c0.6,1,1.7,1.5,2.9,1.3L89.1,97l0.3-3.4L82,93.9c-1.4,0.1-2.8-0.7-3.5-1.9l-4.4-7.4L71,72.6l8.7-3.3
	c1.3-0.5,2.1-1.6,2.2-3.1l0.9-11.4l-3.3-0.8l-1.2,7.3C78,63,77.1,64,75.6,64.4"/>
<path id="Path-31" class="st8" d="M72.9,79.8c-1,0.1-1.7-0.5-2.2-1.7s-0.9-2.2-1.1-3"/>
<path id="Fill-13_1_" class="st2" d="M85,52.9c-0.3,1.7-1.9,2.9-3.7,2.6s-2.9-1.9-2.6-3.7c0.3-1.8,1.9-2.9,3.7-2.6
	C84.2,49.4,85.3,51.1,85,52.9"/>
<path id="Fill-14" class="st4" d="M43.3,81.7l-2.2-3.2c-1.7-2.7-0.9-6.3,2-7.6l16.7-9.4c2.8-1.5,6.3-0.4,7.5,2.5l1.8,4.2L43.3,81.7z
	"/>
<path id="Fill-15_2_" class="st4" d="M39.8,93.1c0.4,2.4,2,6.4,4.5,9.3l8.5,11.4c0.8,1,0.2,2.5-1.1,2.7L29.2,119l1.5,2.7l28,0.8
	c5.4,0,7.9-3.8,4.1-9.8l-8.9-14.2l13.3-2.2l2.8,22.6l3.2-0.4l0.9-27c0.2-3.4-3.1-6-6.3-5.2L39.8,93.1z"/>
<path id="Fill-16" class="st4" d="M70,118.7l-0.2,2c-0.1,0.8,0.5,1,1,1l7.1-0.4c0.5,0,1.5-0.2,1.3-0.9c0,0,0.2-0.9-1.5-1.2l-4.5-1
	L70,118.7z"/>
<path id="Fill-17_1_" class="st4" d="M29,119.1l-1.9,0.6c-0.7,0.3-1,1-0.7,1.4l3.5,6.2c0.2,0.4,0.7,1,1.5,0.7c0,0,0.6-0.1,0.2-1.7
	l-0.9-4.4L29,119.1z"/>
<path id="Fill-18" class="st2" d="M94.4,95.7c-0.3,1.7-1.9,3-3.7,2.6c-1.7-0.3-3-1.9-2.6-3.7c0.3-1.7,1.9-3,3.7-2.6
	C93.6,92.3,94.8,93.9,94.4,95.7"/>
<path id="Stroke-19" class="st9" d="M43.5,81.3c1.2,1.1,9,2.8,19-3.2c6.3-3.7,8.8-5.2,8.8-5.2"/>
<path id="Stroke-20" class="st9" d="M73.5,80.9l-6.4,5.3"/>
</svg>
