<svg width="166" height="144" viewBox="0 0 166 144" fill="none" xmlns="http://www.w3.org/2000/svg">
<path d="M116.21 142.855H111.503V10.3853C111.503 9.00778 112.536 7.85986 113.799 7.85986C115.062 7.85986 116.095 9.00778 116.095 10.3853L116.21 142.855Z" fill="#747475"/>
<path d="M165.57 84.7705L154.32 72.6025C153.172 71.3398 150.302 71.799 150.302 73.2913L150.188 75.3576L72.4734 71.3398C71.0959 71.225 69.9479 72.0286 69.9479 72.9469L69.1444 88.3291C69.1444 89.2474 70.1775 90.1658 71.555 90.1658L149.269 94.1835L149.155 96.2497C149.04 97.742 151.795 98.5456 153.172 97.3977L165.57 86.4924C166.029 86.0332 166.029 85.3445 165.57 84.7705Z" fill="#D87260"/>
<path d="M165.569 54.1211L153.745 42.5271C152.483 41.2644 149.728 41.9532 149.728 43.4454V45.5117H71.8985C70.521 45.5117 69.373 46.3152 69.373 47.2336V62.6157C69.373 63.5341 70.521 64.3376 71.8985 64.3376H149.728V66.4039C149.728 67.8962 152.483 68.4701 153.745 67.3222L165.569 55.7282C166.143 55.3838 166.143 54.6951 165.569 54.1211Z" fill="#E8A4C6"/>
<path d="M164.652 14.2883L150.991 4.99016C149.499 3.95703 146.974 5.10494 147.203 6.59724L147.548 8.66351L70.8665 22.0942C69.489 22.3238 68.5707 23.2421 68.6854 24.2752L71.3257 39.4278C71.4405 40.3462 72.7032 40.9201 74.0807 40.6905L150.877 27.2598L151.221 29.3261C151.451 30.8184 154.32 30.9332 155.354 29.5557L164.996 16.125C165.455 15.4362 165.34 14.7475 164.652 14.2883Z" fill="#77C54F"/>
<path d="M165.455 119.782L155.813 106.352C154.78 104.974 151.91 105.089 151.68 106.581L151.336 108.647L74.6547 95.1019C73.2772 94.8723 72.1292 95.4463 71.8997 96.3646L69.2594 111.517C69.1446 112.436 70.063 113.469 71.4405 113.698L148.122 127.244L147.777 129.31C147.548 130.802 150.188 131.835 151.565 130.917L165.226 121.619C165.8 121.045 165.915 120.356 165.455 119.782Z" fill="#EFBA2C"/>
<path d="M82.8051 84.8855L83.1495 78.4572C83.4939 78.4572 84.527 78.4571 84.9862 78.5719C86.9376 78.6867 87.3968 79.7199 87.3968 80.753C87.282 81.9009 86.4785 82.8193 84.8714 82.7045C84.6418 82.7045 84.2974 82.7045 84.0678 82.5897L83.953 84.8855H82.8051ZM84.2974 79.4903L84.1826 81.4417C84.4122 81.4417 84.7566 81.5565 84.9862 81.5565C85.6749 81.5565 86.2489 81.327 86.2489 80.5234C86.2489 79.8347 85.9045 79.4903 85.101 79.4903C84.8714 79.6051 84.527 79.6051 84.2974 79.4903Z" fill="white"/>
<path d="M92.1036 78.8015C94.0551 78.9163 95.4326 80.2938 95.3178 82.36C95.203 84.3115 93.7107 85.5742 91.7593 85.5742C89.8078 85.4594 88.4303 84.0819 88.5451 82.0156C88.6599 80.0642 90.0374 78.6867 92.1036 78.8015ZM91.7593 84.4263C93.1368 84.5411 93.9403 83.508 94.0551 82.2452C94.1699 80.8677 93.2516 79.9494 91.9889 79.8346C90.7262 79.7198 89.8078 80.6381 89.693 82.0156C89.693 83.2784 90.6113 84.3115 91.7593 84.4263Z" fill="white"/>
<path d="M103.008 85.9187H101.975L100.597 81.0975L98.8756 85.6892H97.7276L96.2353 79.146H97.498L98.5312 83.8525L100.253 79.2608L101.286 79.3756L102.549 84.0821L104.041 79.4904L105.189 79.6052L103.008 85.9187Z" fill="white"/>
<path d="M106.568 79.6051L110.356 79.8347L110.241 80.8678L107.716 80.753L107.601 82.3601L109.897 82.4749V83.508L107.486 83.3932V85.1151L110.127 85.2299V86.2631L106.224 86.1483L106.568 79.6051Z" fill="white"/>
<path d="M111.963 86.3778L112.308 79.9495C112.652 79.9495 114.144 80.0642 114.259 80.0642C115.981 80.179 116.555 81.0974 116.555 82.1305C116.44 83.2784 115.751 83.7376 115.177 83.9672L117.014 86.7222L115.637 86.6074L114.029 84.082H113.226L113.111 86.4926L111.963 86.3778ZM113.455 81.0974L113.341 83.0488H114.029C114.718 83.0488 115.292 82.8193 115.292 82.1305C115.292 81.6713 115.063 81.2122 114.144 81.0974C114.029 81.0974 113.685 81.0974 113.455 81.0974Z" fill="white"/>
<path d="M118.85 80.2939L119.998 80.4087L122.064 83.5081L124.36 80.5235L125.393 80.6383L125.049 87.0667H123.901L124.245 82.3602L122.064 85.1152H121.834L119.883 82.1306L119.653 86.8371L118.505 86.7223L118.85 80.2939Z" fill="white"/>
<path d="M127.69 80.7529L131.364 80.9825V82.0156L128.723 81.9009V83.5079L131.019 83.6227L130.904 84.6559L128.609 84.5411L128.494 86.263L131.249 86.3777L131.134 87.4109L127.346 87.1813L127.69 80.7529Z" fill="white"/>
<path d="M137.677 87.7553L134.348 83.0489L134.119 87.5258H133.085L133.43 81.0974H134.348L137.677 85.8039L137.907 81.327H138.94L138.595 87.7553H137.677Z" fill="white"/>
<path d="M140.431 81.4418L145.711 81.6714V82.7045H143.53L143.301 88.0997L142.153 87.9849L142.497 82.5897L140.316 82.4749L140.431 81.4418Z" fill="white"/>
<path d="M93.8234 27.8338L96.4636 27.3746L96.9228 30.0149C96.4636 30.7036 95.4305 31.1628 94.7417 31.2776C92.6755 31.6219 91.1832 30.5888 90.8388 28.5226C90.4944 26.6859 91.5275 24.964 93.479 24.6196C94.3973 24.5048 95.0861 24.6196 95.66 24.8492L95.3157 25.7675C94.9713 25.538 94.3973 25.4232 93.8234 25.538C92.5606 25.7675 91.8719 26.6859 92.1015 28.1782C92.3311 29.5557 93.3642 30.2444 94.6269 30.0149C95.0861 29.9001 95.66 29.6705 95.8896 29.3261L95.66 28.293L94.1677 28.5226L93.8234 27.8338Z" fill="white"/>
<path d="M98.7594 30.474L97.6115 24.0457C97.9559 23.9309 99.3334 23.7013 99.563 23.7013C101.285 23.3569 101.974 24.1605 102.203 25.3084C102.433 26.4563 101.744 27.0303 101.285 27.3746L103.695 29.6705L102.318 29.9001L100.137 27.8338L99.3334 27.9486L99.7926 30.3592L98.7594 30.474ZM98.989 24.964L99.3334 26.9155L100.022 26.8007C100.711 26.6859 101.17 26.2267 101.055 25.6528C100.94 25.1936 100.596 24.7344 99.6778 24.964C99.563 24.8492 99.3334 24.8492 98.989 24.964Z" fill="white"/>
<path d="M106.68 22.4384C108.632 22.0941 110.239 23.1272 110.583 25.1934C110.928 27.1449 109.78 28.752 107.828 29.0964C105.877 29.4408 104.27 28.4076 103.925 26.3414C103.581 24.3899 104.729 22.7828 106.68 22.4384ZM107.713 27.9485C109.091 27.7189 109.665 26.5709 109.435 25.3082C109.206 24.0455 108.058 23.242 106.91 23.4716C105.647 23.7011 104.958 24.7343 105.188 26.1118C105.303 27.3745 106.451 28.178 107.713 27.9485Z" fill="white"/>
<path d="M118.963 26.9155L117.93 27.1451L115.519 22.783L114.83 27.6043L113.797 27.8339L110.813 21.7499L112.075 21.5203L114.142 25.8824L114.716 21.0611L115.863 20.8315L118.045 25.1936L118.618 20.3724L119.652 20.2576L118.963 26.9155Z" fill="white"/>
<path d="M120.227 20.1426L125.507 19.2242L125.622 20.2574L123.556 20.6018L124.589 25.8822L123.441 26.1118L122.523 20.8313L120.457 21.1757L120.227 20.1426Z" fill="white"/>
<path d="M131.59 21.8644L128.72 22.4384L129.179 25.0786L128.031 25.3082L126.884 18.8798L128.031 18.7651L128.491 21.2905L131.36 20.8313L130.901 18.1911L132.049 18.0763L133.197 24.3899L132.049 24.6195L131.59 21.8644Z" fill="white"/>
<path d="M90.15 111.058L91.2979 104.63C91.6423 104.745 92.6755 104.859 93.1346 104.974C94.9713 105.319 95.4305 106.466 95.2009 107.5C94.9713 108.533 94.053 109.451 92.5607 109.107C92.3311 109.107 91.9867 108.992 91.7571 108.877L91.2979 111.173L90.15 111.058ZM92.2163 105.892L91.8719 107.844C92.1015 107.959 92.4458 107.959 92.6754 108.074C93.3642 108.188 93.9382 107.959 94.053 107.27C94.1677 106.581 93.8234 106.237 93.0198 106.122C92.7902 106.007 92.5606 105.892 92.2163 105.892Z" fill="white"/>
<path d="M101.743 110.369C101.399 112.321 100.022 112.895 98.7588 112.665C97.1518 112.436 96.2334 111.288 96.5778 109.336L97.2665 105.663L98.4144 105.892L97.8405 109.336C97.6109 110.484 97.9553 111.402 99.1032 111.632C100.022 111.747 100.596 111.173 100.825 109.91L101.399 106.352L102.547 106.581L101.743 110.369Z" fill="white"/>
<path d="M103.465 113.354L104.613 106.926C104.957 107.04 106.335 107.27 106.564 107.27C108.286 107.614 108.746 108.533 108.516 109.681C108.286 110.829 107.483 111.173 106.909 111.288L108.401 114.272L107.024 114.043L105.646 111.403L104.957 111.173L104.498 113.584L103.465 113.354ZM105.531 108.188L105.187 110.14L105.876 110.255C106.564 110.369 107.138 110.14 107.253 109.451C107.368 108.992 107.138 108.418 106.22 108.303C106.105 108.303 105.876 108.303 105.531 108.188Z" fill="white"/>
<path d="M109.893 114.502L111.041 108.074C111.385 108.188 112.418 108.303 112.878 108.418C114.714 108.762 115.173 109.91 114.944 110.943C114.714 111.977 113.796 112.895 112.304 112.55C112.074 112.55 111.73 112.436 111.5 112.321L111.041 114.617L109.893 114.502ZM111.959 109.336L111.615 111.288C111.844 111.403 112.189 111.403 112.418 111.517C113.107 111.632 113.681 111.403 113.796 110.714C113.911 110.025 113.566 109.681 112.763 109.566C112.533 109.451 112.304 109.451 111.959 109.336Z" fill="white"/>
<path d="M119.767 109.566C121.718 109.91 122.866 111.402 122.522 113.469C122.177 115.42 120.455 116.453 118.619 116.224C116.667 115.879 115.519 114.387 115.864 112.321C116.208 110.484 117.815 109.221 119.767 109.566ZM118.848 115.076C120.226 115.305 121.144 114.502 121.374 113.239C121.603 111.976 120.8 110.828 119.652 110.599C118.389 110.369 117.356 111.173 117.126 112.436C116.897 113.813 117.586 114.846 118.848 115.076Z" fill="white"/>
<path d="M124.243 112.206C124.358 111.288 125.276 110.599 126.539 110.829C127.342 110.943 127.916 111.403 128.261 111.862L127.457 112.551C127.228 112.206 126.883 111.977 126.424 111.862C125.85 111.747 125.506 111.977 125.391 112.436C125.161 113.813 128.146 113.813 127.801 115.994C127.572 117.027 126.539 117.601 125.391 117.372C124.587 117.257 123.669 116.683 123.439 115.994L124.243 115.306C124.587 115.88 125.046 116.224 125.62 116.339C126.194 116.453 126.539 116.224 126.654 115.765C126.768 114.387 123.899 114.272 124.243 112.206Z" fill="white"/>
<path d="M130.327 111.517L134 112.206L133.885 113.239L131.245 112.78L131.016 114.387L133.312 114.732L133.082 115.765L130.786 115.42L130.556 117.027L133.197 117.487L132.967 118.52L129.179 117.946L130.327 111.517Z" fill="white"/>
<path d="M90.8397 58.4832H89.8065L88.1994 53.7767L86.7072 58.4832H85.5592L83.6078 52.0548H84.9853L86.248 56.6465L87.6255 52.0548H88.7734L90.2657 56.6465L91.5284 52.0548H92.6763L90.8397 58.4832Z" fill="white"/>
<path d="M94.0534 52.0548H97.8415V53.0879H95.2013V54.695H97.4972V55.7282H95.2013V57.45H97.9563V58.4832H94.0534V52.0548Z" fill="white"/>
<path d="M99.9073 52.0548H100.94V57.45H103.925V58.4832H99.9073V52.0548Z" fill="white"/>
<path d="M105.418 52.0548H106.566V57.45H109.436V58.4832H105.418V52.0548Z" fill="white"/>
<path d="M110.929 52.0548C111.274 52.0548 112.192 52.0548 112.766 52.0548C114.258 52.0548 114.947 52.7436 114.947 53.6619C114.947 54.3506 114.603 54.9246 114.029 55.1542C114.717 55.269 115.176 55.843 115.176 56.6465C115.176 58.024 114.143 58.598 112.766 58.598C112.192 58.598 111.388 58.598 110.929 58.598V52.0548ZM112.077 53.0879V54.695H112.881C113.455 54.695 113.799 54.4654 113.799 53.8915C113.799 53.3175 113.34 53.0879 112.766 53.0879C112.536 53.0879 112.192 53.0879 112.077 53.0879ZM112.077 55.7282V57.45C112.192 57.45 112.536 57.45 112.881 57.45C113.684 57.45 114.029 57.1057 114.029 56.5317C114.029 55.9577 113.569 55.7282 112.881 55.7282H112.077Z" fill="white"/>
<path d="M117.012 52.0548H120.8V53.0879H118.16V54.695H120.57V55.7282H118.16V57.45H120.915V58.4832H117.012V52.0548Z" fill="white"/>
<path d="M124.13 52.0548H122.982V58.4832H124.13V52.0548Z" fill="white"/>
<path d="M131.132 58.4832L127.574 54.0063V58.4832H126.54V52.0548H127.459L131.017 56.5317V52.0548H132.051V58.4832H131.132Z" fill="white"/>
<path d="M136.987 55.0393H139.627V57.6796C139.053 58.2535 138.02 58.5979 137.217 58.5979C135.15 58.5979 133.888 57.2204 133.888 55.2689C133.888 53.4322 135.15 51.9399 137.102 51.9399C138.02 51.9399 138.709 52.1695 139.168 52.6287L138.709 53.547C138.365 53.2027 137.791 53.0879 137.217 53.0879C135.954 53.0879 135.036 53.8914 135.036 55.3837C135.036 56.7612 135.954 57.6796 137.217 57.6796C137.676 57.6796 138.365 57.45 138.594 57.2204V56.0725H136.987V55.0393Z" fill="white"/>
<path d="M30.689 45.1673C23.4571 45.1673 17.4879 39.3129 17.4879 31.9662V13.829C17.4879 6.59713 23.3423 0.62793 30.689 0.62793C37.9209 0.62793 43.8901 6.48233 43.8901 13.829V31.9662C43.8901 39.3129 38.0357 45.1673 30.689 45.1673Z" fill="#2E3543"/>
<path d="M17.3728 8.31899L6.8119 20.2574L15.7657 28.4076C17.3728 29.8999 19.439 30.5887 21.5053 30.5887L41.4792 30.4739C44.349 30.4739 46.8744 32.5402 47.3335 35.5248L51.1217 72.947L47.5631 73.2914L42.3975 41.9531L38.4946 62.0418L19.3242 62.3861L15.3065 40.4608L1.18708 24.9639C-0.649592 22.668 -0.305208 19.4538 1.87584 17.5024L15.7657 5.2196L17.258 8.2042" fill="#F5E622"/>
<path d="M46.7603 140.445C45.4976 140.101 43.5461 140.33 41.5947 139.297C40.6763 138.608 39.5284 137.919 39.4136 137.805H33.674C33.5592 138.264 33.4445 139.182 33.4445 139.986C33.4445 141.019 33.4445 141.937 33.4445 142.511C33.4445 142.856 33.7888 143.085 34.0184 143.085H36.8882L37.9213 142.511C37.9213 142.511 41.4799 143.2 44.2349 143.2C46.9899 143.2 47.6787 142.282 47.6787 142.282C47.6787 142.282 48.023 140.789 46.7603 140.445Z" fill="#090A0A"/>
<path d="M34.7071 140.445C33.4444 140.101 31.493 140.33 29.5415 139.297C28.6231 138.608 27.4752 137.919 27.3604 137.805H21.6208C21.506 138.264 21.3913 139.182 21.3913 139.986C21.3913 141.019 21.3913 141.937 21.3913 142.511C21.3913 142.856 21.7356 143.085 21.9652 143.085H24.835L25.8682 142.511C25.8682 142.511 29.4267 143.2 32.1817 143.2C34.9367 143.2 35.6255 142.282 35.6255 142.282C35.6255 142.282 36.0846 140.789 34.7071 140.445Z" fill="#090A0A"/>
<path d="M49.4001 79.1459C51.4923 79.1459 53.1883 77.4499 53.1883 75.3577C53.1883 73.2656 51.4923 71.5696 49.4001 71.5696C47.308 71.5696 45.612 73.2656 45.612 75.3577C45.612 77.4499 47.308 79.1459 49.4001 79.1459Z" fill="#EAC2A7"/>
<path d="M29.1971 40.1164C25.5238 40.1164 22.5392 37.2466 22.5392 33.4585V30.5887H23.5723V33.4585C23.5723 36.4431 26.0977 38.9685 29.0823 38.9685C32.0669 38.9685 34.5924 36.4431 34.5924 33.4585V30.4739H35.6255V33.4585C35.8551 37.1318 32.8705 40.1164 29.1971 40.1164Z" fill="#F68D2E"/>
<path d="M31.263 6.13806C28.0488 6.13806 25.5233 12.6812 25.5233 15.8954V30.3592V35.2953C28.6227 39.313 33.0997 36.9024 32.8701 33.5734V30.2444C32.6405 29.2113 33.5588 28.1782 34.592 28.293L37.5765 28.7521C39.2984 28.7521 40.5611 27.3746 40.5611 25.7675V20.7167L42.7422 20.6019C43.5457 20.6019 43.7753 19.6835 43.3161 19.2244L37.9209 7.17118L31.263 6.13806Z" fill="#EAC2A7"/>
<path d="M36.4281 25.6526C37.6327 25.6526 38.6092 24.6761 38.6092 23.4716C38.6092 22.267 37.6327 21.2905 36.4281 21.2905C35.2236 21.2905 34.2471 22.267 34.2471 23.4716C34.2471 24.6761 35.2236 25.6526 36.4281 25.6526Z" fill="white"/>
<path d="M39.9863 18.9948C39.8715 18.9948 39.7567 18.9948 39.7567 18.9948C38.9532 18.88 38.2644 18.5356 37.8052 17.9616C37.2313 17.2729 37.0017 16.5841 37.1165 15.7806C37.2313 14.1735 38.6088 12.9108 40.2159 13.0256C41.0194 13.1404 41.7081 13.4847 42.1673 14.0587C42.7413 14.7474 42.9709 15.4362 42.8561 16.2397C42.7413 17.0433 42.3969 17.732 41.823 18.1912C41.3638 18.7652 40.675 18.9948 39.9863 18.9948ZM38.0348 16.0102C38.0348 16.5841 38.1496 16.9285 38.494 17.2729C38.8384 17.6172 39.2975 17.9616 39.7567 17.9616C40.2159 17.9616 40.675 17.8468 41.0194 17.5025C41.3638 17.1581 41.7082 16.6989 41.7082 16.2397C41.7082 15.7806 41.5934 15.3214 41.249 14.977C40.9046 14.6326 40.4454 14.2883 39.9863 14.2883C39.1827 14.1735 38.1496 14.8622 38.0348 16.0102Z" fill="#373463"/>
<path d="M33.4445 18.9947C31.8374 18.9947 30.5746 17.732 30.5746 16.1249C30.5746 14.5178 31.8374 13.2551 33.4445 13.2551C35.0515 13.2551 36.3143 14.5178 36.3143 16.1249C36.3143 17.732 35.0515 18.9947 33.4445 18.9947ZM33.4445 14.2883C32.5261 14.2883 31.6078 15.2066 31.6078 16.1249C31.6078 17.0433 32.5261 17.9616 33.4445 17.9616C34.3628 17.9616 35.2811 17.0433 35.2811 16.1249C35.2811 15.0918 34.4776 14.2883 33.4445 14.2883Z" fill="#373463"/>
<path d="M19.3241 108.533L21.9643 137.805L26.9004 137.575L28.1631 108.533H19.3241Z" fill="#EAC2A7"/>
<path d="M31.032 108.533L33.6722 137.805L38.6083 137.575L39.871 108.533H31.032Z" fill="#EAC2A7"/>
<path d="M19.2098 62.2714C19.2098 62.2714 16.7991 72.7175 15.8808 77.0796C14.8477 81.4417 10.6003 108.762 10.6003 108.762H48.2522C46.8747 97.0535 43.6605 81.7861 42.0534 76.1613C40.5611 70.766 38.3801 62.1566 38.3801 62.1566L19.2098 62.2714Z" fill="#7A8291"/>
<path d="M25.6381 15.6656C25.6381 15.6656 34.1328 15.0916 35.5103 7.74493C36.3138 10.9591 40.3316 12.3366 40.3316 12.3366L42.6274 10.9591L40.2168 5.90825L26.5565 3.95679L22.6535 9.00765L25.6381 15.6656Z" fill="#2E3543"/>
<path d="M24.1464 6.94151L19.6695 3.95691C18.7512 3.26816 17.4885 3.15336 16.3405 3.49774C14.2743 4.30129 13.1264 6.48234 13.9299 8.5486C14.7335 10.6149 16.7997 11.648 18.866 10.9592C20.2435 10.5001 21.1618 9.35214 21.5062 7.97464L23.6873 8.77818C24.6056 8.66339 24.8352 7.51547 24.1464 6.94151Z" fill="#EAC2A7"/>
</svg>
