<?xml version="1.0" encoding="utf-8"?>
<!-- Generator: Adobe Illustrator 22.1.0, SVG Export Plug-In . SVG Version: 6.00 Build 0)  -->
<svg version="1.1" id="Layer_1" xmlns="http://www.w3.org/2000/svg" xmlns:xlink="http://www.w3.org/1999/xlink" x="0px" y="0px"
	 width="150px" height="150px" viewBox="0 0 150 150" style="enable-background:new 0 0 150 150;" xml:space="preserve">
<style type="text/css">
	.st0{fill:#2E3543;}
	.st1{fill:#00B4F9;}
	.st2{fill:none;stroke:#0E7BCE;}
	.st3{fill:#F89937;}
	.st4{fill:#D87260;}
	.st5{fill:#FFFFFF;}
	.st6{fill:#777777;}
	.st7{fill:#D8D6D6;}
	.st8{fill:#E8A4C6;}
	.st9{fill:#D4D5D7;}
	.st10{fill:#7A7978;}
	.st11{fill:#EAC2A7;}
	.st12{fill:none;stroke:#2E3543;}
</style>
<path id="Fill-1" class="st0" d="M61,78.8l3.4,54.3c0,0.4,0.4,0.7,0.7,0.7H75c0.4,0,0.7-0.3,0.7-0.6c0.1-0.6-0.3-1.2-0.8-1.4
	l-6.4-2.8l3.3-45.7c0-0.6,0.9-0.6,1,0l4.5,49.8c0,0.4,0.3,0.6,0.6,0.6h10.3c0.4,0,0.6-0.3,0.6-0.6c0.1-0.6-0.3-1-0.7-1.1l-6.2-1.8
	l1.6-51.5L61,78.8z"/>
<path id="Fill-3" class="st1" d="M54.2,66.1l0.8-5.6l-2.7,2.2c-1.9,1.7-4.1,2.4-6.2,1.3L32,54.9l2.8-5l10.7,7.3
	c1.2,0.6,2.6,0.3,3.5-0.8c1.7-2,3.8-4.1,6.6-7.8c0.1-0.1,0.2-0.2,0.3-0.4l-7.7-2.7c-1.9-0.6-3.3-2.5-3.5-4.5l-1-12.6l5.6-0.8
	l0.9,8.6c0.3,2.2,1.8,4,3.9,4.5l11.4,3c0.1,0,0.3,0,0.4,0h13.6c0.2,0,0.4,0,0.6,0l14.6-2.8c2.1-0.4,3.9-2.1,4.3-4.3l1.5-8.5l5.5,1.2
	l-2,12.5c-0.4,2-1.9,3.7-3.8,4.3l-9.5,2.7c2.5,3,4.5,5.4,6.1,7.1c0.9,1,2.4,1.3,3.5,0.6l10.5-7l3.6,4.7l-14,9.1
	c-2,1.3-4.3,0.6-6.2-0.8l-7.7-7l4.4,13.7c0.6,1.6,2.2,2.9,3.3,3.2l12.7,3.3l-1.3,5.8l-14.3-3.3c-2.6-0.6-4.1-2.4-4.5-3.3l-2.2-4.8
	L83.7,79H61.4l-0.9-12.7l-1.3,4.9c-0.3,1-1.4,3.1-3.9,4.1l-15.4,6.3L37.6,76l13.8-6.1C52.5,69.4,54,67.8,54.2,66.1"/>
<path id="Stroke-21" class="st2" d="M67.5,43.4v3c0,1.9,1.9,3.6,4.2,3.6s4.2-1.6,4.2-3.6v-3"/>
<path id="Fill-5" class="st3" d="M108.9,79.6c0,0.5,0.4,0.8,0.8,0.9l0.6,0.1v-4.3h-1.4V79.6z M108.3,75h1.9v-1.1
	c0-0.4,0.3-0.6,0.6-0.6h8.4c0.4,0,0.6,0.3,0.6,0.6v9.3c0,0.7-0.5,1.3-1.1,1.3h-7.3c-0.6,0-1.1-0.6-1.1-1.3v-1.4l-0.8-0.2
	c-1-0.2-1.8-1.1-1.8-2v-3.9C107.7,75.3,108,75,108.3,75z"/>
<path id="Fill-19" class="st4" d="M59.4,19.5c0.6-2.2-0.6-4.6-2.9-5.3c-2.2-0.6-4.5,0.6-5.2,3c-0.6,2.2,0.6,4.6,2.9,5.3
	C56.4,23.1,58.7,21.8,59.4,19.5 M39.3,26.8l10.5-5.8c0.1-0.1,0.2-0.1,0.3-0.2c-0.6-1.2-0.7-2.6-0.3-4c0.8-3.1,4.1-4.8,7.1-3.9
	s4.7,4.1,3.9,7.1s-4.1,4.8-7.1,3.9c-1-0.3-1.9-0.8-2.6-1.6c-0.1,0.1-0.2,0.2-0.4,0.2l-10.1,6.8c-0.4,0.2-0.7,0.2-1,0.1
	c-0.4-0.1-0.6-0.4-0.8-0.6C38.4,28,38.7,27.1,39.3,26.8"/>
<path id="Path" class="st5" d="M117.6,56.1c0.3,0.4,0.8,0.6,1.3,0.3l4.3-2.9c0.4-0.3,0.6-0.8,0.3-1.3L116.4,42
	c-0.3-0.4-0.8-0.6-1.3-0.3l-0.8,0.6c0.1,0.1,0.2,0.1,0.3,0.2c0.3,0.5,0.2,1.1-0.3,1.4l-1,0.7c-0.5,0.3-1.1,0.2-1.4-0.3
	c-0.1-0.1-0.1-0.2-0.1-0.3l-0.8,0.6c-0.4,0.3-0.6,0.8-0.3,1.3L117.6,56.1z"/>
<path id="Fill-21" class="st6" d="M117.3,56.7c0.3,0.5,0.8,0.6,1.3,0.3l4.4-3c0.5-0.3,0.6-0.8,0.3-1.3L116,42.3
	c-0.3-0.5-0.8-0.6-1.3-0.3l-0.8,0.6c0.1,0.1,0.2,0.2,0.3,0.3c0.3,0.5,0.2,1.1-0.3,1.5l-1.1,0.7c-0.5,0.3-1.1,0.2-1.5-0.3
	c-0.1-0.1-0.1-0.2-0.1-0.3l-0.8,0.6c-0.5,0.3-0.6,0.8-0.3,1.3L117.3,56.7z M109.6,44l4.4-3c0.9-0.6,2.2-0.4,3,0.6l7.2,10.5
	c0.6,0.9,0.4,2.2-0.6,2.9l-4.4,3c-0.9,0.6-2.2,0.4-3-0.6L109,46.9C108.4,46,108.6,44.7,109.6,44z"/>
<path id="Fill-23" class="st7" d="M38.4,43.3L29,60.9l-13.5-7.1l9.4-17.6L38.4,43.3z M29.2,62c0.2,0,0.4-0.1,0.5-0.3l9.8-18.5
	c0.1-0.3,0-0.6-0.2-0.6L24.9,35c-0.1-0.1-0.3-0.1-0.4,0c-0.1,0-0.2,0.1-0.3,0.3l-9.8,18.5c-0.1,0.1-0.1,0.3,0,0.4
	c0,0.1,0.1,0.2,0.3,0.3L29.2,62C29.1,62,29.1,62,29.2,62z"/>
<path id="Combined-Shape" class="st0" d="M25.2,39.8l-0.4,0.8l0.3,0.2c0.3,0.1,0.6,0.1,0.7-0.2c0.1-0.2,0.1-0.5-0.4-0.6
	C25.4,39.8,25.3,39.8,25.2,39.8z M23.6,41.9l1.2-2.8c0.2,0.1,0.7,0.4,0.8,0.4c0.7,0.4,0.8,0.8,0.6,1.3c-0.2,0.5-0.6,0.6-0.9,0.6
	l0.4,1.5l-0.6-0.3l-0.3-1.4L24.6,41l-0.5,1.1L23.6,41.9z M26.8,42l0.8,0.4c0.1-0.2,0-0.5-0.2-0.6C27.2,41.7,26.9,41.8,26.8,42z
	 M27.5,43.4c-0.3,0.1-0.6,0-0.7-0.1c-0.6-0.3-0.7-0.8-0.6-1.4c0.3-0.6,0.7-0.7,1.4-0.6c0.5,0.2,0.6,0.7,0.5,1.2
	C28,42.6,28,42.7,28,42.7l-1.4-0.5c-0.1,0.3,0.1,0.6,0.4,0.6c0.2,0.1,0.5,0.1,0.6,0.1V43.4z M29,42.8l-0.3,0.7
	c0.1,0.1,0.2,0.2,0.4,0.3c0.3,0.2,0.6,0,0.7-0.3c0.1-0.3,0.1-0.6-0.3-0.7C29.3,42.7,29.1,42.7,29,42.8z M28.8,42l0.5,0.2l-0.1,0.2
	c0.2-0.1,0.4-0.1,0.6,0c0.5,0.2,0.6,0.7,0.4,1.3c-0.3,0.6-0.8,0.8-1.4,0.6c-0.2-0.1-0.3-0.2-0.4-0.3l-0.4,0.8l-0.5-0.2L28.8,42z
	 M31.3,44.8c0.3,0.1,0.6,0,0.7-0.3c0.1-0.3,0-0.6-0.3-0.7c-0.3-0.1-0.6,0-0.7,0.3C30.8,44.4,31,44.7,31.3,44.8z M31.9,43.4
	c0.6,0.3,0.7,0.8,0.6,1.4c-0.3,0.6-0.8,0.7-1.4,0.5c-0.6-0.3-0.7-0.8-0.6-1.4C30.7,43.3,31.3,43.1,31.9,43.4z M33.2,44l0.5,0.2
	l-0.1,0.2c0.1-0.1,0.3-0.1,0.5,0c0.2,0.1,0.2,0.1,0.3,0.2L33.9,45c-0.1-0.1-0.1-0.1-0.2-0.2c-0.2-0.1-0.3,0-0.4,0.1L32.8,46
	l-0.5-0.2L33.2,44z M34.8,44.1l0.5,0.2l-0.2,0.5l0.6,0.3l-0.2,0.5l-0.6-0.3l-0.3,0.6c-0.1,0.2-0.1,0.4,0.1,0.4c0.1,0.1,0.3,0,0.3,0
	v0.4c-0.2,0-0.4,0-0.6-0.1c-0.4-0.2-0.5-0.5-0.2-0.9L34.8,44.1z"/>
<path id="Fill-38" class="st0" d="M28.1,57.4c0.1,0,0.2-0.1,0.2-0.1c0.1-0.1,0-0.3-0.1-0.4l-9.7-5.1c-0.1-0.1-0.3,0-0.4,0.1
	c-0.1,0.1,0,0.3,0.1,0.4l9.7,5.1C28,57.4,28.1,57.4,28.1,57.4"/>
<path id="Fill-40" class="st0" d="M29,55.5c0.1,0,0.2-0.1,0.2-0.1c0.1-0.1,0-0.3-0.1-0.4L19.4,50c-0.1-0.1-0.3,0-0.4,0.1
	c-0.1,0.1,0,0.3,0.1,0.4l9.7,5.1C28.9,55.5,29,55.5,29,55.5"/>
<path id="Fill-42" class="st0" d="M30,53.7c0.1,0,0.2-0.1,0.2-0.1c0.1-0.1,0-0.3-0.1-0.4l-9.7-5.1c-0.1-0.1-0.3,0-0.4,0.1
	c-0.1,0.1,0,0.3,0.1,0.4l9.7,5.1C29.9,53.7,30,53.7,30,53.7"/>
<path id="Fill-44" class="st0" d="M32.8,49c0.1,0,0.2-0.1,0.2-0.1c0.1-0.1,0-0.3-0.1-0.4l-9.8-5.2c-0.1-0.1-0.3,0-0.4,0.1
	c-0.1,0.1,0,0.3,0.1,0.4l9.7,5.1C32.7,48.9,32.7,49,32.8,49"/>
<path id="Fill-46" class="st0" d="M30.9,51.8c0.1,0,0.2-0.1,0.2-0.1c0.1-0.1,0-0.3-0.1-0.4l-9.7-5.1c-0.1-0.1-0.3,0-0.4,0.1
	c-0.1,0.1,0,0.3,0.1,0.4l9.7,5.1C30.9,51.8,30.9,51.8,30.9,51.8"/>
<path id="Fill-48" class="st5" d="M130.5,47.1C130.5,47.1,130.6,47.1,130.5,47.1c0.3,0,0.5-0.3,0.5-0.6c-0.2-2-0.9-4.1-2.1-5.8
	c-1.2-1.7-2.8-3.1-4.7-3.9c-0.3-0.1-0.6,0-0.6,0.3c-0.1,0.3,0,0.6,0.3,0.6c1.8,0.8,3.2,2,4.3,3.6c1.1,1.6,1.8,3.4,1.9,5.3
	C130.1,46.9,130.4,47.1,130.5,47.1"/>
<path id="Fill-51" class="st5" d="M127.8,47.1L127.8,47.1c0.3,0,0.6-0.3,0.5-0.6c-0.1-1.5-0.6-2.9-1.5-4.1c-0.8-1.2-2-2.1-3.3-2.8
	c-0.3-0.1-0.6,0-0.6,0.3c-0.1,0.3,0,0.6,0.3,0.6c1.2,0.6,2.2,1.4,3,2.5c0.7,1.1,1.2,2.3,1.4,3.6C127.3,46.9,127.5,47.1,127.8,47.1"
	/>
<path id="Fill-53" class="st5" d="M124.9,47.1C125,47.1,125,47.1,124.9,47.1c0.4,0,0.6-0.3,0.6-0.6c-0.1-0.8-0.4-1.7-0.9-2.4
	c-0.6-0.7-1.2-1.3-2-1.7c-0.3-0.1-0.6,0-0.6,0.3c-0.1,0.3,0,0.6,0.3,0.6c0.6,0.3,1.2,0.7,1.7,1.3c0.5,0.6,0.6,1.2,0.7,1.9
	C124.4,46.9,124.7,47.1,124.9,47.1"/>
<path id="Fill-55" class="st8" d="M103.5,26.5l13.4-2.6l-1.8-9.7l-13.4,2.6L103.5,26.5z M100.3,13.4c0.1-0.1,0.2-0.2,0.3-0.2
	l2.2-0.5l-0.2-1.2c-0.1-0.6,0.3-1,0.7-1.2c0.6-0.1,1,0.3,1.1,0.8l0.4,1.2l6-1.2l-0.2-1.1c-0.1-0.6,0.3-1,0.7-1.2
	c0.6-0.1,1,0.3,1.1,0.8l0.2,1.1l2.2-0.5c0.3-0.1,0.6,0.1,0.6,0.4l2.4,13.4c0,0.1,0,0.3-0.1,0.4c-0.1,0.1-0.2,0.2-0.3,0.2l-14.3,2.8
	h-0.1c-0.2,0-0.5-0.2-0.5-0.4l-2.4-13.3C100.2,13.6,100.3,13.5,100.3,13.4z"/>
<polygon id="Fill-58" class="st9" points="114.6,15.4 115.1,18.5 112.1,19.2 111.4,16 "/>
<polygon id="Fill-60" class="st4" points="110.9,16.3 111.4,19.4 108.3,20.1 107.7,16.9 "/>
<polygon id="Fill-62" class="st9" points="106.2,17.3 106.8,20.4 103.6,21 103.1,17.9 "/>
<polygon id="Fill-64" class="st9" points="116.2,23.2 113,23.8 112.4,20.6 115.5,20.1 "/>
<polygon id="Fill-66" class="st9" points="111.4,23.2 108.3,23.8 107.7,20.6 110.9,20.1 "/>
<polygon id="Fill-68" class="st9" points="107.7,24.2 104.6,24.7 104,21.6 107.2,21 "/>
<path id="Fill-76" class="st5" d="M117.5,72.3c0.1,0,0.2,0,0.3-0.1c1.2-1.1,1.4-2.2,0.7-3.4c-0.5-0.9-0.5-1.7-0.1-2.4
	c0.1-0.2,0-0.5-0.2-0.6c-0.2-0.1-0.5,0-0.6,0.2c-0.6,1-0.6,2,0.1,3.2c0.5,0.9,0.3,1.6-0.6,2.4c-0.2,0.2-0.2,0.5,0,0.6
	C117.3,72.3,117.4,72.3,117.5,72.3"/>
<path id="Fill-78" class="st5" d="M115.6,71.4c0.1,0,0.2,0,0.3-0.1c1.2-1.1,1.4-2.2,0.7-3.4c-0.5-0.9-0.5-1.7-0.1-2.4
	c0.1-0.2,0-0.5-0.2-0.6c-0.2-0.1-0.5,0-0.6,0.2c-0.6,1-0.6,2,0.1,3.2c0.5,0.9,0.3,1.6-0.6,2.4c-0.2,0.2-0.2,0.5,0,0.6
	C115.4,71.4,115.5,71.4,115.6,71.4"/>
<path id="Fill-80" class="st5" d="M112.8,72.3c0.1,0,0.2,0,0.3-0.1c1.2-1.1,1.4-2.2,0.7-3.4c-0.5-0.9-0.5-1.7-0.1-2.4
	c0.1-0.2,0-0.5-0.2-0.6c-0.2-0.1-0.5,0-0.6,0.2c-0.6,1-0.6,2,0.1,3.2c0.5,0.9,0.3,1.6-0.6,2.4c-0.2,0.2-0.2,0.5,0,0.6
	C112.6,72.3,112.7,72.3,112.8,72.3"/>
<g id="Group-66" transform="translate(83.875740, 75.887574)">
	<path id="Fill-3_1_" class="st10" d="M-55.2,28.3h21.8c1.5,0,2.7-1.2,2.7-2.7v-15c0-1.5-1.2-2.7-2.7-2.7h-21.8
		c-1.5,0-2.7,1.2-2.7,2.7v15C-57.8,27.1-56.6,28.3-55.2,28.3"/>
	<path id="Fill-5_1_" class="st0" d="M-57.2,9l6.4,10.4h12.7L-31.3,9c0.3,0.4,0.6,0.7,0.6,1.3l-6.6,9.9c-0.1,0.2-0.3,0.3-0.6,0.3
		h-13.3c-0.2,0-0.5-0.1-0.6-0.3l-6.1-9.8C-57.7,9.9-57.6,9.4-57.2,9"/>
	<path id="Fill-7" class="st5" d="M-45.3,23.1h1.9c0.6,0,1.3-0.6,1.3-1.3v-3.6c0-0.6-0.6-1.3-1.3-1.3h-1.9c-0.6,0-1.3,0.6-1.3,1.3
		v3.6C-46.6,22.6-46.1,23.1-45.3,23.1"/>
	<path id="Fill-9" class="st0" d="M-41,8l-0.6-2c-0.2-0.6-0.6-0.8-0.9-0.8h-4.1c-0.5,0-0.7,0.4-0.9,0.7L-48.1,8h-1.2l0.7-2.5
		c0.4-0.9,1.1-1.7,2-1.7h4.1c0.9,0,1.9,0.6,2,1.8l0.6,2.3L-41,8L-41,8z"/>
</g>
<g id="Group-5" transform="translate(49.292646, 9.053751)">
	<path id="Fill-82" class="st11" d="M19.9,18.1v16.1v2.6c0,1.7,1.4,3,3.1,3c1.7,0,3.1-1.3,3.1-3v-2.6c-0.2-0.8,0.6-1.7,1.5-1.6
		L30,33c1.4,0,2.5-1.1,2.5-2.4v-4l1.8-0.1c0.6,0,0.8-0.7,0.5-1.1l-3.6-9L19.9,18.1z"/>
	<path id="Stroke-29" class="st12" d="M31.6,21.9c-0.1,1,0.7,1.9,1.8,2c1.1,0.1,2-0.6,2.1-1.8c0.1-1-0.7-1.9-1.8-2
		C32.6,20.2,31.7,20.9,31.6,21.9z"/>
	<path id="Stroke-30" class="st12" d="M26.3,22.1c0,1,0.8,1.9,1.9,1.9s1.9-0.8,1.9-1.9c0-1-0.8-1.9-1.9-1.9S26.3,21.1,26.3,22.1z"/>
	<ellipse id="Oval" class="st5" cx="28.9" cy="28.8" rx="1.8" ry="1.7"/>
	<path id="Fill-84" class="st0" d="M20.6,18.9c-0.4,0-0.7-0.3-0.7-0.6c0-0.6,0-1.8,0-3.6c0-2.8,3.6-3.7,6.2-3.7s4.1,0.3,4.1-1.1V8.5
		c0,0,5.4,0,5.4,5.5c0,4.5-5.2,3.8-7.4,3.8h-1.6c-0.8,0-1.5,0.6-1.5,1.5v1.2c0,0.5-0.4,0.8-0.8,0.8c-0.5,0-0.8-0.4-0.8-0.8v-0.9
		c0-0.4-0.3-0.6-0.6-0.6L20.6,18.9z"/>
</g>
<path id="Fill-7_1_" class="st11" d="M35.8,78.8c0,2,1.7,3.7,3.7,3.7c2,0,3.7-1.7,3.7-3.7c0-2-1.7-3.7-3.7-3.7
	C37.5,75.1,35.8,76.8,35.8,78.8"/>
<path id="Fill-11" class="st11" d="M101.2,77.4c-0.3,2,1.1,3.9,3.2,4.2c2,0.3,3.9-1.1,4.2-3.2c0.3-2-1.1-3.9-3.2-4.2
	C103.3,73.9,101.5,75.4,101.2,77.4"/>
<path id="Fill-9_1_" class="st11" d="M31.2,52.7c0,2,1.7,3.7,3.7,3.7c2,0,3.7-1.7,3.7-3.7c0-2-1.7-3.7-3.7-3.7
	C32.8,49,31.2,50.7,31.2,52.7"/>
<path id="Fill-13" class="st11" d="M108.6,51.8c0,2,1.7,3.7,3.7,3.7s3.7-1.7,3.7-3.7c0-2-1.7-3.7-3.7-3.7S108.6,49.8,108.6,51.8"/>
<path id="Fill-15" class="st11" d="M42.4,25.7c0,2,1.7,3.7,3.7,3.7c2,0,3.7-1.7,3.7-3.7s-1.7-3.7-3.7-3.7
	C44.1,21.9,42.4,23.6,42.4,25.7"/>
<path id="Fill-17" class="st11" d="M100.2,26.6c0,2,1.7,3.7,3.7,3.7s3.7-1.7,3.7-3.7s-1.7-3.7-3.7-3.7S100.2,24.5,100.2,26.6"/>
</svg>
