<?xml version="1.0" encoding="utf-8"?>
<!-- Generator: Adobe Illustrator 22.1.0, SVG Export Plug-In . SVG Version: 6.00 Build 0)  -->
<svg version="1.1" id="Layer_1" xmlns="http://www.w3.org/2000/svg" xmlns:xlink="http://www.w3.org/1999/xlink" x="0px" y="0px"
	 width="150px" height="150px" viewBox="0 0 150 150" style="enable-background:new 0 0 150 150;" xml:space="preserve">
<style type="text/css">
	.st0{fill:#2E3543;}
	.st1{fill:#F5E622;}
	.st2{fill:#090A0A;}
	.st3{fill:#EAC2A7;}
	.st4{fill:#F68D2E;}
	.st5{fill:#FFFFFF;}
	.st6{fill:#373463;}
	.st7{fill:#7A8291;}
	.st8{fill:#747475;}
	.st9{fill:#D87260;}
	.st10{fill:#E8A4C6;}
	.st11{fill:#77C54F;}
	.st12{fill:#EFBA2C;}
</style>
<path id="Fill-1_3_" class="st0" d="M30.3,55.5c-5.9,0-10.6-4.7-10.6-10.6V30.4c0-5.9,4.7-10.6,10.6-10.6s10.6,4.7,10.6,10.6V45
	C40.8,50.8,36.2,55.5,30.3,55.5"/>
<g id="Group-5" transform="translate(0.000000, 3.207556)">
	<g id="Clip-4">
	</g>
	<path id="Fill-3_3_" class="st1" d="M19.6,22.7l-8.5,9.6l7.2,6.6c1.2,1.2,2.9,1.8,4.6,1.8l16-0.1c2.3,0,4.4,1.7,4.7,4l3,30.1
		l-2.8,0.2l-4.1-25.1l-3.1,16.1l-15.3,0.3L18,48.6L6.9,36.2c-1.4-1.9-1.2-4.5,0.5-6l11.1-9.8L19.6,22.7"/>
</g>
<path id="Fill-6" class="st2" d="M43.2,131.9c-1.1-0.3-2.6-0.1-4.2-1c-0.8-0.5-1.7-1.2-1.8-1.2h-4.6c-0.1,0.4-0.2,1.2-0.2,1.8v2
	c0,0.3,0.3,0.4,0.4,0.4h2.2l0.9-0.4c0,0,2.8,0.5,5.1,0.5c2.1,0,2.8-0.8,2.8-0.8S44.2,132.1,43.2,131.9"/>
<path id="Fill-8" class="st2" d="M33.5,131.9c-1.1-0.3-2.6-0.1-4.2-1c-0.8-0.5-1.7-1.2-1.8-1.2h-4.6c-0.1,0.4-0.2,1.2-0.2,1.8v2
	c0,0.3,0.3,0.4,0.4,0.4h2.2l0.9-0.4c0,0,2.8,0.5,5.1,0.5c2.1,0,2.8-0.8,2.8-0.8S34.6,132.1,33.5,131.9"/>
<g id="Group-12" transform="translate(40.444444, 63.355704)">
	<g id="Clip-11">
	</g>
	<path id="Fill-10" class="st3" d="M4.8,13.3c1.7,0,3,1.3,3,3c0,1.7-1.3,3.1-3,3.1s-3-1.3-3-3S3.1,13.3,4.8,13.3"/>
</g>
<path id="Fill-13_3_" class="st4" d="M29.1,51.4c-2.9,0-5.3-2.3-5.3-5.3v-2.3h0.9v2.3c0,2.4,2,4.5,4.5,4.5c2.5,0,4.5-2,4.5-4.5v-2.4
	h0.9v2.4C34.4,49.1,32.1,51.4,29.1,51.4"/>
<path id="Fill-15_2_" class="st3" d="M30.8,24.2c-2.6,0.1-4.6,5.3-4.6,7.9v11.6v4c2.5,3.3,6.1,1.2,6-1.3v-2.7
	c-0.2-0.9,0.5-1.7,1.4-1.6l2.4,0.4c1.4,0,2.4-1.2,2.4-2.4v-4.1l1.8-0.1c0.6,0,0.9-0.7,0.4-1.2L36.1,25L30.8,24.2z"/>
<path id="Fill-17_2_" class="st5" d="M35,36.3c1,0,1.8,0.8,1.8,1.8c0,1-0.8,1.8-1.8,1.8s-1.8-0.8-1.8-1.8C33.2,37.1,34,36.3,35,36.3
	"/>
<path id="Fill-19_2_" class="st6" d="M36.3,32.1c0,0.4,0.1,0.8,0.4,1.1c0.3,0.3,0.6,0.5,1.1,0.5s0.8-0.1,1.1-0.4
	c0.3-0.3,0.5-0.6,0.5-1.1c0-0.4-0.1-0.8-0.4-1.1c-0.3-0.3-0.6-0.5-1.1-0.5C37.1,30.6,36.3,31.3,36.3,32.1 M37.8,34.6h-0.2
	c-0.6-0.1-1.2-0.4-1.6-0.9c-0.4-0.5-0.6-1.2-0.5-1.8c0.1-1.3,1.2-2.2,2.5-2.1c0.6,0.1,1.2,0.4,1.6,0.9c0.4,0.5,0.6,1.2,0.5,1.8
	c-0.1,0.6-0.4,1.2-0.9,1.6C38.8,34.4,38.3,34.6,37.8,34.6"/>
<path id="Fill-21_2_" class="st6" d="M32.5,30.7c-0.8,0-1.5,0.7-1.5,1.5c0,0.8,0.7,1.5,1.5,1.5S34,33,34,32.2
	C34,31.4,33.4,30.7,32.5,30.7 M32.5,34.6c-1.3,0-2.3-1.1-2.3-2.3c0-1.4,1-2.4,2.3-2.4c1.3,0,2.3,1.1,2.3,2.3
	C34.9,33.5,33.8,34.6,32.5,34.6"/>
<polygon id="Fill-23_2_" class="st3" points="21.2,106.2 23.3,129.7 27.2,129.5 28.3,106.2 "/>
<polygon id="Fill-25_2_" class="st3" points="30.6,106.2 32.7,129.7 36.7,129.5 37.7,106.2 "/>
<path id="Fill-27_2_" class="st7" d="M21.1,69.2c0,0-1.9,9.1-2.7,12.6c-0.8,3.7-4.2,27.2-4.2,27.2h30.2c-1.1-10.1-3.7-23.1-5-28.1
	c-1.2-4.5-2.9-12-2.9-12L21.1,69.2z"/>
<path id="Fill-29_2_" class="st0" d="M26.2,31.8c0,0,6.9-0.4,8-6.4c0.6,2.6,3.8,3.7,3.8,3.7l1.9-1.2l-2-4l-11-1.5l-3.1,4.2
	L26.2,31.8z"/>
<path id="Fill-31_2_" class="st3" d="M25,25l-3.6-2.4c-0.8-0.5-1.8-0.6-2.7-0.4c-1.7,0.6-2.5,2.3-2,4c0.6,1.7,2.3,2.5,4,2
	c1.2-0.4,1.9-1.3,2-2.4l1.8,0.6C25.4,26.2,25.6,25.3,25,25"/>
<path id="Fill-1_2_" class="st8" d="M100.1,132.5h-4V18.7c0-1.2,0.9-2.2,2-2.2c1.1,0,2,1,2,2.2V132.5L100.1,132.5z"/>
<path id="Fill-3_2_" class="st9" d="M142.5,82.5l-9.7-10.5c-1.1-1.1-3.5-0.7-3.5,0.6l-0.1,1.8L62.5,71c-1.2-0.1-2.1,0.5-2.2,1.4
	l-0.7,13.3c0,0.8,0.9,1.5,2,1.6l66.7,3.5l-0.1,1.8c-0.1,1.3,2.3,2,3.4,1l10.7-9.4C142.9,83.6,142.9,83,142.5,82.5"/>
<polygon id="Fill-39_1_" class="st5" points="65.6,76.7 68.8,76.8 68.7,77.8 66.5,77.6 66.4,79.1 68.4,79.2 68.3,80.1 66.4,80 
	66.3,81.4 68.6,81.6 68.5,82.5 65.2,82.3 "/>
<polygon id="Fill-40_1_" class="st5" points="70.5,76.9 71.5,77 73.2,79.7 75.2,77.2 76.2,77.3 75.8,82.8 74.8,82.8 75.1,78.7 
	73.2,81.1 73.1,81.1 71.4,78.6 71.2,82.5 70.2,82.5 "/>
<path id="Fill-41_1_" class="st5" d="M79,78.4l-0.1,1.7c0.3,0,0.4,0.1,0.7,0.1c0.6,0,1.1-0.3,1.1-0.8c0-0.6-0.4-0.9-1-0.9
	C79.5,78.4,79.3,78.4,79,78.4z M77.8,82.9l0.3-5.6c0.3,0,1.2,0.1,1.6,0.1c1.6,0.1,2.1,1,2,1.9c-0.1,1-0.8,1.8-2.1,1.7
	c-0.2,0-0.4,0-0.7-0.1l-0.1,2H77.8z"/>
<path id="Fill-42_1_" class="st5" d="M85.4,82.5c1.2,0.1,2-0.8,2-1.9c0.1-1.2-0.7-2-1.8-2c-1.1-0.1-1.9,0.7-2,1.9
	C83.7,81.6,84.5,82.5,85.4,82.5 M85.7,77.6c1.7,0.1,2.8,1.2,2.8,3c-0.1,1.7-1.4,2.8-3,2.8c-1.7-0.1-2.8-1.2-2.8-3
	C82.8,78.8,84,77.6,85.7,77.6"/>
<polygon id="Fill-43_1_" class="st5" points="95.1,83.9 94.2,83.8 93,79.7 91.5,83.6 90.5,83.6 89.2,77.9 90.2,78 91.2,82 
	92.6,78.1 93.6,78.2 94.7,82.2 96,78.3 96.9,78.4 "/>
<polygon id="Fill-44_1_" class="st5" points="98.2,78.4 101.4,78.6 101.3,79.5 99.1,79.4 99,80.8 101,80.9 100.9,81.8 99,81.7 
	98.9,83.2 101.2,83.3 101.2,84.1 97.8,84 "/>
<path id="Fill-45_1_" class="st5" d="M104,79.6l-0.1,1.7h0.6c0.5,0,1.1-0.3,1.1-0.8c0-0.4-0.2-0.8-1-0.9
	C104.6,79.7,104.3,79.6,104,79.6z M102.8,84.2l0.3-5.6c0.3,0,1.5,0.1,1.7,0.1c1.5,0.1,2,0.9,2,1.9c-0.1,1-0.7,1.4-1.2,1.5l1.6,2.4
	l-1.2-0.1l-1.4-2.1h-0.7l-0.1,2L102.8,84.2z"/>
<polygon id="Fill-46_1_" class="st5" points="108.8,79 109.7,79 111.4,81.7 113.4,79.3 114.3,79.3 114,84.9 113,84.8 113.2,80.8 
	111.3,83.2 111.2,83.2 109.7,80.6 109.5,84.6 108.5,84.5 "/>
<polygon id="Fill-47_1_" class="st5" points="116.2,79.3 119.4,79.5 119.4,80.5 117.1,80.3 117,81.7 119.1,81.8 119,82.7 117,82.6 
	116.9,84.1 119.3,84.2 119.3,85.1 116,85 "/>
<polygon id="Fill-48_1_" class="st5" points="124.9,85.4 122,81.4 121.8,85.2 120.9,85.2 121.2,79.6 121.9,79.7 124.9,83.7 
	125.1,79.9 125.9,79.9 125.7,85.5 "/>
<polygon id="Fill-49_1_" class="st5" points="127.2,80 131.8,80.2 131.7,81.1 130,81 129.7,85.7 128.7,85.6 129,80.9 127.2,80.9 "/>
<path id="Fill-5_2_" class="st10" d="M142.5,56.2l-10.2-10c-1.1-1.1-3.5-0.5-3.5,0.8v1.8H62.1c-1.2,0-2.1,0.7-2.1,1.5v13.2
	c0,0.8,1,1.5,2.1,1.5h66.8v1.8c0,1.3,2.4,1.9,3.5,0.8l10.2-10C142.9,57.3,142.9,56.6,142.5,56.2"/>
<path id="Fill-7_2_" class="st11" d="M141.8,22.1l-11.8-8c-1.2-0.9-3.5,0.1-3.3,1.3l0.4,1.8L61.3,28.8c-1.2,0.2-2,1.1-1.9,1.9
	l2.3,13c0.2,0.8,1.2,1.3,2.3,1.1l65.9-11.7l0.4,1.8c0.3,1.2,2.7,1.4,3.6,0.2l8.4-11.6C142.4,23.1,142.3,22.5,141.8,22.1"/>
<path id="Fill-11_2_" class="st5" d="M83.2,32.8l2.2-0.4l0.4,2.3c-0.4,0.5-1.2,1-2,1.2c-1.8,0.4-3-0.6-3.4-2.3
	c-0.3-1.7,0.6-3.1,2.2-3.5c0.8-0.2,1.3,0,1.9,0.3l-0.3,0.8C84,31,83.6,30.9,83,31c-1.1,0.2-1.7,1.1-1.5,2.2c0.2,1.2,1.1,1.8,2.2,1.6
	c0.4-0.1,0.9-0.4,1.1-0.5l-0.2-0.9l-1.2,0.3L83.2,32.8z"/>
<path id="Fill-13_2_" class="st5" d="M87.6,30.3l0.3,1.6l0.6-0.1c0.5-0.1,1-0.4,0.9-1.1c-0.1-0.4-0.4-0.8-1.2-0.6
	C88.1,30.2,87.8,30.2,87.6,30.3z M87.5,35l-1-5.5c0.3-0.1,1.5-0.3,1.7-0.3c1.5-0.3,2.1,0.4,2.3,1.3c0.2,1-0.4,1.5-0.8,1.8l2.1,2
	l-1.2,0.2l-1.9-1.8l-0.8,0.1l0.4,2L87.5,35z"/>
<path id="Fill-15_1_" class="st5" d="M95.1,32.9c1.2-0.2,1.7-1.2,1.5-2.2c-0.2-1.2-1.2-1.8-2.2-1.6c-1,0.2-1.7,1.2-1.5,2.2
	S94.1,33.1,95.1,32.9 M94.2,28.1c1.6-0.3,3,0.6,3.4,2.3c0.3,1.7-0.7,3-2.4,3.3c-1.7,0.3-3-0.6-3.4-2.3
	C91.6,29.8,92.6,28.4,94.2,28.1"/>
<polygon id="Fill-17_1_" class="st5" points="104.8,32 104,32.2 101.9,28.4 101.3,32.6 100.4,32.8 97.8,27.5 98.9,27.4 100.7,31.1 
	101.2,27 102.2,26.8 104.1,30.5 104.5,26.4 105.4,26.2 "/>
<polygon id="Fill-19_1_" class="st5" points="105.9,26.1 110.5,25.3 110.6,26.2 108.9,26.6 109.7,31.2 108.7,31.3 107.9,26.7 
	106.1,27 "/>
<polygon id="Fill-21_1_" class="st5" points="115.6,27.6 113.1,28.1 113.6,30.5 112.6,30.6 111.6,25.1 112.6,25 112.9,27.2 
	115.4,26.7 115.1,24.6 116.1,24.4 117,29.8 116.1,30 "/>
<path id="Fill-9_2_" class="st12" d="M142.4,112.6l-8.4-11.6c-0.9-1.2-3.3-1.2-3.6,0.2l-0.4,1.8L64.3,91.4c-1.2-0.2-2.2,0.3-2.3,1.1
	l-2.3,13c-0.2,0.8,0.7,1.6,1.9,1.9l65.8,11.7l-0.4,1.8c-0.3,1.2,2,2.2,3.3,1.3l11.8-8C142.7,113.8,142.8,113.2,142.4,112.6"/>
<path id="Fill-50_1_" class="st5" d="M81.9,100.9l-0.3,1.7c0.3,0.1,0.4,0.1,0.7,0.2c0.5,0.1,1.1-0.1,1.2-0.7
	c0.1-0.5-0.2-0.9-0.9-1.1C82.3,101,82.1,101,81.9,100.9z M80.1,105.3l1-5.5c0.3,0.1,1.2,0.2,1.6,0.3c1.6,0.3,2,1.2,1.8,2.1
	c-0.2,0.9-1,1.7-2.3,1.4c-0.2,0-0.4-0.1-0.7-0.2l-0.4,2L80.1,105.3z"/>
<path id="Fill-51_1_" class="st5" d="M90.1,104.7c-0.3,1.7-1.4,2.1-2.6,2c-1.3-0.3-2.2-1.2-1.9-2.8l0.5-3.2l1,0.2l-0.5,2.9
	c-0.2,1.1,0.1,1.8,1.1,2c0.8,0.2,1.3-0.4,1.5-1.4l0.5-3l1,0.2L90.1,104.7z"/>
<path id="Fill-52_1_" class="st5" d="M93.3,102.9l-0.3,1.6l0.6,0.1c0.5,0.1,1.1-0.1,1.2-0.6c0.1-0.4-0.1-0.8-0.9-1
	C93.7,103,93.5,102.9,93.3,102.9z M91.5,107.4l1-5.5c0.3,0.1,1.5,0.3,1.7,0.3c1.5,0.3,1.9,1.1,1.7,2c-0.2,1-0.9,1.3-1.3,1.4l1.3,2.6
	l-1.2-0.2l-1.2-2.3l-0.7-0.1l-0.4,2L91.5,107.4z"/>
<path id="Fill-53_1_" class="st5" d="M98.8,103.9l-0.3,1.7c0.3,0.1,0.4,0.1,0.7,0.2c0.5,0.1,1.1-0.1,1.2-0.7
	c0.1-0.5-0.2-0.9-0.9-1.1C99.3,104,99.1,103.9,98.8,103.9z M97,108.4l1-5.5c0.3,0.1,1.2,0.2,1.6,0.3c1.6,0.3,2,1.2,1.8,2.1
	c-0.2,0.9-1,1.7-2.3,1.4c-0.2,0-0.4-0.1-0.7-0.2l-0.4,2L97,108.4z"/>
<path id="Fill-54_1_" class="st5" d="M104.7,108.8c1.2,0.2,2-0.5,2.2-1.6c0.2-1.2-0.4-2-1.5-2.2c-1.1-0.2-2,0.4-2.1,1.6
	C103.1,107.6,103.7,108.6,104.7,108.8 M105.6,104.1c1.6,0.3,2.7,1.6,2.4,3.3s-1.7,2.6-3.4,2.3c-1.6-0.3-2.7-1.6-2.3-3.3
	C102.4,104.8,103.9,103.8,105.6,104.1"/>
<path id="Fill-55_1_" class="st5" d="M109.4,106.3c0.2-0.8,0.9-1.4,2-1.2c0.7,0.1,1.2,0.4,1.4,0.9l-0.6,0.6
	c-0.2-0.3-0.4-0.5-0.9-0.6s-0.8,0.1-0.9,0.4c-0.2,1.2,2.3,1.2,2,3c-0.2,0.9-1.1,1.4-2.1,1.2c-0.7-0.1-1.5-0.5-1.6-1.2l0.6-0.5
	c0.3,0.4,0.7,0.8,1.2,0.8c0.4,0.1,0.8-0.1,0.9-0.5C111.5,108.3,109,108.1,109.4,106.3"/>
<polygon id="Fill-56_1_" class="st5" points="114.5,105.8 117.7,106.3 117.6,107.2 115.3,106.8 115.1,108.2 117.1,108.5 
	116.9,109.4 115,109.1 114.7,110.5 116.9,110.9 116.9,111.8 113.6,111.3 "/>
<polygon id="Fill-23_1_" class="st5" points="80.6,59.8 79.7,59.8 78.4,55.8 77.1,59.8 76.2,59.8 74.5,54.2 75.6,54.2 76.7,58.2 
	78,54.2 78.9,54.2 80.2,58.2 81.3,54.2 82.2,54.2 "/>
<polygon id="Fill-25_1_" class="st5" points="83.5,54.2 86.6,54.2 86.6,55.1 84.5,55.1 84.5,56.6 86.4,56.6 86.4,57.4 84.5,57.4 
	84.5,58.9 86.7,58.9 86.7,59.8 83.5,59.8 "/>
<polygon id="Fill-27_1_" class="st5" points="88.4,54.2 89.4,54.2 89.4,58.9 91.8,58.9 91.8,59.8 88.4,59.8 "/>
<polygon id="Fill-29_1_" class="st5" points="93.1,54.2 94.1,54.2 94.1,58.9 96.6,58.9 96.6,59.8 93.1,59.8 "/>
<path id="Fill-31_1_" class="st5" d="M98.9,57.4v1.5c0.2,0,0.4,0,0.6,0c0.6,0,1-0.3,1-0.8c0-0.4-0.4-0.7-1-0.7H98.9z M98.9,55.1v1.4
	h0.6c0.4,0,0.8-0.3,0.8-0.7c0-0.4-0.4-0.7-0.9-0.7C99.2,55.1,99.1,55.1,98.9,55.1z M97.9,54.2c0.3,0,1.1,0,1.6,0
	c1.3,0,1.9,0.6,1.9,1.3c0,0.6-0.4,1.1-0.8,1.2l0,0c0.5,0.2,1,0.5,1,1.3c0,1.2-0.9,1.7-2,1.7c-0.5,0-1.2,0-1.5,0L97.9,54.2L97.9,54.2
	z"/>
<polygon id="Fill-33_1_" class="st5" points="103.2,54.2 106.5,54.2 106.5,55.1 104.1,55.1 104.1,56.6 106.2,56.6 106.2,57.4 
	104.1,57.4 104.1,58.9 106.5,58.9 106.5,59.8 103.2,59.8 "/>
<polygon id="Fill-35_1_" class="st5" points="108.3,59.8 109.3,59.8 109.3,54.2 108.3,54.2 "/>
<polygon id="Fill-37_1_" class="st5" points="115.3,59.8 112.1,55.9 112.1,59.8 111.2,59.8 111.2,54.2 112,54.2 115.1,58.2 
	115.1,54.2 116,54.2 116,59.8 "/>
<path id="Fill-38_1_" class="st5" d="M120.2,56.8h2.2v2.3c-0.5,0.5-1.4,0.8-2,0.8c-1.8,0-2.9-1.2-2.9-2.8s1.1-2.8,2.8-2.8
	c0.8,0,1.3,0.2,1.8,0.5l-0.4,0.8c-0.3-0.3-0.8-0.4-1.2-0.4c-1.1,0-1.9,0.7-1.9,2c0,1.2,0.8,2,1.9,2c0.4,0,1-0.2,1.2-0.4v-1h-1.3
	L120.2,56.8L120.2,56.8z"/>
</svg>
