<?xml version="1.0" encoding="utf-8"?>
<!-- Generator: Adobe Illustrator 22.1.0, SVG Export Plug-In . SVG Version: 6.00 Build 0)  -->
<svg version="1.1" id="Layer_1" xmlns="http://www.w3.org/2000/svg" xmlns:xlink="http://www.w3.org/1999/xlink" x="0px" y="0px"
	 width="150px" height="150px" viewBox="0 0 150 150" style="enable-background:new 0 0 150 150;" xml:space="preserve">
<style type="text/css">
	.st0{fill:#2E3543;}
	.st1{fill:#7A7978;}
	.st2{fill:#FFFFFF;}
	.st3{fill:#E8A4C6;}
	.st4{fill:#D4D5D7;}
	.st5{fill:#D87260;}
	.st6{fill:#777777;}
	.st7{fill:#77C54F;}
	.st8{fill:#D8D6D6;}
	.st9{fill:#090A0A;}
	.st10{fill:#F5E622;}
	.st11{fill:#EAC2A7;}
	.st12{fill:#F68D2E;}
	.st13{fill:#373463;}
	.st14{fill:#7A8291;}
</style>
<path id="Fill-1" class="st0" d="M72.4,55.5c-5.9,0-10.7-4.7-10.7-10.7V30.2c0-5.9,4.7-10.7,10.7-10.7c6,0,10.7,4.7,10.7,10.7v14.6
	C83,50.6,78.3,55.5,72.4,55.5"/>
<path id="Fill-3" class="st1" d="M47.1,105.9H25c-1.5,0-2.7-1.2-2.7-2.7V88.1c0-1.5,1.2-2.7,2.7-2.7h22c1.5,0,2.7,1.2,2.7,2.7v15.2
	C49.7,104.7,48.6,105.9,47.1,105.9"/>
<path id="Fill-5" class="st0" d="M49.1,86.4l-6.4,10.5H29.8l-6.9-10.5c-0.3,0.4-0.6,0.8-0.6,1.3l6.6,10c0.1,0.2,0.3,0.3,0.6,0.3
	h13.4c0.2,0,0.5-0.1,0.6-0.3l6.2-9.9C49.6,87.3,49.5,86.8,49.1,86.4"/>
<path id="Fill-7" class="st2" d="M37.1,100.7h-1.9c-0.7,0-1.3-0.6-1.3-1.3v-3.7c0-0.7,0.6-1.3,1.3-1.3h1.9c0.7,0,1.3,0.6,1.3,1.3
	v3.7C38.4,100.1,37.8,100.7,37.1,100.7"/>
<path id="Fill-9" class="st0" d="M32.7,85.4l0.6-2.1c0.2-0.6,0.6-0.9,0.9-0.9h4.1c0.5,0,0.8,0.4,0.9,0.8l0.6,2.2H41l-0.7-2.6
	c-0.4-0.9-1.1-1.7-2.1-1.7h-4.1c-0.9,0-1.8,0.7-2.1,1.7l-0.6,2.4L32.7,85.4L32.7,85.4z"/>
<g id="Group-13" transform="translate(89.691781, 0.040685)">
	<g id="Clip-12">
	</g>
	<path id="Fill-11" class="st3" d="M26.7,23.3L9.5,27.6l-2.4-9.4l17.2-4.3L26.7,23.3z M23.9,10l-1.5,0.4l-0.2-0.8
		c-0.2-0.7-0.9-1.1-1.6-0.9c-0.7,0.2-1.1,0.9-0.9,1.6l0.2,0.8l-9.8,2.4l-0.2-0.8c-0.2-0.8-0.9-1.1-1.6-0.9c-0.7,0.2-1.1,0.9-0.9,1.6
		l0.2,0.8l-1.5,0.3c-0.6,0.1-0.8,0.7-0.7,1.1l3.1,12.7c0.1,0.6,0.6,0.8,1.1,0.7l17.7-4.4c0.6-0.1,0.8-0.6,0.7-1.1l-3.2-12.8
		C24.7,10.2,24.2,9.8,23.9,10z"/>
</g>
<polygon id="Fill-14" class="st4" points="98.4,19.1 101.3,18.3 102.1,21.4 99.1,22.1 "/>
<polygon id="Fill-16" class="st4" points="99.3,23.1 102.3,22.3 103,25.3 100.1,26 "/>
<polygon id="Fill-18" class="st5" points="102.4,18.2 105.4,17.4 106.1,20.4 103.1,21.2 "/>
<polygon id="Fill-20" class="st4" points="103.4,22.1 106.3,21.4 107.1,24.3 104.1,25 "/>
<polygon id="Fill-22" class="st4" points="106.5,17.1 109.4,16.4 110.2,19.4 107.3,20 "/>
<polygon id="Fill-24" class="st4" points="107.5,21.1 110.4,20.3 111.1,23.3 108.2,24 "/>
<polygon id="Fill-26" class="st4" points="110.4,16.2 113.4,15.4 114.1,18.3 111.1,19.1 "/>
<polygon id="Fill-28" class="st4" points="111.4,20 114.2,19.4 115,22.3 112.1,23.1 "/>
<path id="Fill-30" class="st5" d="M50.2,20.5c-1.4-2-0.9-4.7,1.1-6.1c2-1.4,4.7-0.9,6.1,1.1c1.4,2,0.9,4.7-1.1,6.1
	C54.3,23,51.5,22.6,50.2,20.5 M57.3,23.1c2.8-1.9,3.5-5.8,1.6-8.6s-5.8-3.5-8.6-1.6c-2.6,1.7-3.3,5.1-2,7.7l-9.9,6
	c-0.8,0.6-0.9,1.6-0.5,2.4c0.5,0.8,1.6,0.9,2.4,0.5l9-7.5C51.2,24.4,54.6,24.9,57.3,23.1"/>
<path id="Fill-32" class="st2" d="M121.6,55.8l-4.1,2.2c-0.9,0.5-1.9,0.2-2.4-0.7l-5.6-10.5c-0.5-0.9-0.2-1.9,0.7-2.4l4.1-2.3
	c0.9-0.5,1.9-0.2,2.4,0.7l5.6,10.5C122.8,54.3,122.6,55.4,121.6,55.8"/>
<path id="Fill-34" class="st6" d="M122,53.7c0.4,0.6,0.1,1.5-0.6,1.8l-4.1,2.2c-0.6,0.4-1.5,0.1-1.8-0.6L110,46.7
	c-0.4-0.6-0.1-1.5,0.6-1.8l0.6-0.4l0.5,0.8c0.2,0.3,0.6,0.5,0.8,0.3l1.8-0.9c0.3-0.2,0.5-0.6,0.3-0.8l-0.5-0.8l0.6-0.4
	c0.6-0.4,1.5-0.1,1.8,0.6L122,53.7z M114.2,41.9l-4.1,2.2c-1,0.6-1.5,1.9-0.9,2.9l5.6,10.5c0.6,1,1.9,1.5,2.9,0.9l4.1-2.2
	c1-0.6,1.5-1.9,0.9-2.9l-5.6-10.5C116.6,41.7,115.3,41.2,114.2,41.9z"/>
<path id="Fill-36" class="st7" d="M111.1,82.1c-1.4,0-2.5-1.1-2.5-2.5s1.1-2.5,2.5-2.5V82.1z M120.2,74.6h-8.2
	c-0.6,0-0.9,0.5-0.9,0.9v0.9c-1.8,0-3.3,1.5-3.3,3.3c0,1.8,1.5,3.3,3.3,3.3v3.5c0,0.6,0.5,0.9,0.9,0.9h8.2c0.6,0,0.9-0.5,0.9-0.9
	v-11C121.1,74.9,120.7,74.6,120.2,74.6z"/>
<polygon id="Fill-38" class="st2" points="19.7,36.2 35.2,43.2 26,63.4 10.6,56.2 "/>
<g id="Group-42" transform="translate(0.000000, 28.705068)">
	<g id="Clip-41">
	</g>
	<path id="Fill-40" class="st8" d="M11.1,27.3L25.7,34l9-19.3L19.9,8L11.1,27.3z M25.7,35.1l-15.4-7.2c-0.3-0.1-0.4-0.4-0.2-0.6
		l9.3-20.1C19.5,6.9,19.8,6.8,20,7L35.6,14c0.3,0.1,0.4,0.4,0.2,0.6l-9.4,20.1C26.3,35.1,26,35.2,25.7,35.1z"/>
</g>
<path id="Fill-43" class="st0" d="M20.7,40l-0.5,0.9l0.4,0.2c0.3,0.2,0.6,0.1,0.8-0.2c0.1-0.3,0.1-0.6-0.4-0.7
	C21,40.1,20.9,40.1,20.7,40z M19.1,42.1l1.4-2.9c0.2,0.1,0.8,0.4,0.9,0.5c0.8,0.4,0.9,0.9,0.6,1.4c-0.3,0.5-0.7,0.6-0.9,0.6l0.4,1.7
	l-0.6-0.3l-0.4-1.5L20,41.4l-0.6,1.1L19.1,42.1z"/>
<path id="Fill-45" class="st0" d="M22.4,42.3l0.9,0.5c0.1-0.3,0-0.6-0.3-0.6C22.8,42,22.6,42,22.4,42.3z M23.3,43.7
	c-0.3,0.1-0.6,0-0.9-0.1c-0.6-0.3-0.9-0.9-0.6-1.5s0.9-0.8,1.5-0.6c0.6,0.3,0.7,0.8,0.6,1.3c-0.1,0.1-0.1,0.2-0.2,0.3l-1.5-0.5
	c-0.1,0.4,0.1,0.6,0.4,0.7c0.3,0.1,0.5,0.1,0.6,0.1L23.3,43.7L23.3,43.7z"/>
<path id="Fill-47" class="st0" d="M24.8,43.2L24.4,44c0.1,0.2,0.2,0.3,0.4,0.3c0.4,0.2,0.6,0,0.8-0.4c0.2-0.3,0.1-0.6-0.3-0.8
	C25.2,43.1,25,43.1,24.8,43.2z M24.6,42.3l0.6,0.3l-0.1,0.2c0.2-0.1,0.5-0.1,0.7,0c0.6,0.3,0.7,0.8,0.5,1.4
	c-0.3,0.6-0.9,0.9-1.5,0.6c-0.2-0.1-0.4-0.2-0.5-0.3l-0.5,0.9l-0.6-0.3L24.6,42.3z"/>
<path id="Fill-49" class="st0" d="M27.2,45.4c0.3,0.2,0.6,0,0.8-0.4c0.2-0.4,0-0.6-0.3-0.8c-0.3-0.2-0.6,0-0.8,0.3
	C26.8,44.8,26.9,45.2,27.2,45.4 M27.9,43.7c0.6,0.3,0.9,0.9,0.6,1.5c-0.3,0.6-0.9,0.8-1.5,0.6c-0.6-0.2-0.9-0.9-0.6-1.5
	C26.7,43.7,27.3,43.6,27.9,43.7"/>
<path id="Fill-51" class="st0" d="M29.3,44.5l0.6,0.3L29.8,45c0.2-0.1,0.4-0.1,0.6,0c0.2,0.1,0.3,0.2,0.3,0.2l-0.4,0.3
	c-0.1-0.1-0.1-0.2-0.2-0.2c-0.2-0.1-0.3,0-0.5,0.1L29,46.7l-0.6-0.3L29.3,44.5z"/>
<path id="Fill-53" class="st0" d="M31,44.7l0.6,0.3l-0.3,0.5l0.6,0.3l-0.2,0.5l-0.6-0.4l-0.4,0.7c-0.1,0.2-0.1,0.4,0.1,0.5
	c0.1,0.1,0.3,0,0.4,0v0.5c-0.2,0-0.5,0-0.6-0.1c-0.5-0.2-0.5-0.6-0.3-1L31,44.7z"/>
<path id="Fill-55" class="st0" d="M18.3,44.8L29.5,50c0.2,0.1,0.4,0,0.5-0.2c0.1-0.2,0-0.4-0.2-0.5l-11.3-5.2
	c-0.2-0.1-0.4,0-0.5,0.2C18,44.5,18.1,44.7,18.3,44.8"/>
<path id="Fill-57" class="st0" d="M29,51.2L17.8,46c-0.2-0.1-0.4,0-0.5,0.2c-0.1,0.2,0,0.4,0.2,0.5l11.3,5.2c0.2,0.1,0.4,0,0.5-0.2
	C29.2,51.5,29.1,51.3,29,51.2"/>
<path id="Fill-59" class="st0" d="M28.2,53L17,47.8c-0.2-0.1-0.4,0-0.5,0.2c-0.1,0.2,0,0.4,0.2,0.5l11.3,5.2c0.2,0.1,0.4,0,0.5-0.2
	C28.5,53.3,28.4,53.1,28.2,53"/>
<path id="Fill-61" class="st0" d="M27.3,54.8l-11.3-5.2c-0.2-0.1-0.4,0-0.5,0.2c-0.1,0.2,0,0.4,0.2,0.5l11.4,5.2
	c0.2,0.1,0.4,0,0.5-0.2C27.6,55.1,27.5,54.9,27.3,54.8"/>
<path id="Fill-63" class="st0" d="M26.6,56.6l-11.3-5.2c-0.2-0.1-0.4,0-0.5,0.2c-0.1,0.2,0,0.4,0.2,0.5l11.3,5.2
	c0.2,0.1,0.4,0,0.5-0.2C26.8,56.9,26.8,56.7,26.6,56.6"/>
<path id="Fill-65" class="st0" d="M20.5,56.1l-6.2-2.8c-0.2-0.1-0.4,0-0.5,0.2c-0.1,0.2,0,0.4,0.2,0.5l6.2,2.8
	c0.2,0.1,0.4,0,0.5-0.2C20.8,56.3,20.7,56.1,20.5,56.1"/>
<path id="Fill-67" class="st9" d="M85.3,132.1c-1-0.3-2.6-0.1-4.2-0.9c-0.8-0.6-1.7-1.1-1.7-1.2h-4.6c-0.1,0.4-0.2,1.1-0.2,1.7v2
	c0,0.3,0.3,0.5,0.5,0.5h2.3l0.9-0.5c0,0,2.9,0.6,5.1,0.6s2.8-0.8,2.8-0.8S86.3,132.4,85.3,132.1"/>
<path id="Fill-69" class="st9" d="M75.6,132.1c-1-0.3-2.6-0.1-4.2-0.9c-0.8-0.6-1.7-1.1-1.7-1.2h-4.6c-0.1,0.4-0.2,1.1-0.2,1.7v2
	c0,0.3,0.3,0.5,0.5,0.5h2.3l0.9-0.5c0,0,2.9,0.6,5.1,0.6c2.2,0,2.8-0.8,2.8-0.8S76.7,132.4,75.6,132.1"/>
<path id="Fill-71" class="st10" d="M63.1,69.2l-1.4-4.7l-4.5,8.2c-1,2.2-2.9,3.1-3.4,3.3l-13.8,5.2l-1.7-4.4l13.8-6.2L59.8,57
	l-9.4,5.7c-1.9,1.7-4.7,1.9-6.9,0.6l-10.8-6.6l2.6-4.1l10.4,5.3L59.4,49l-11.7-2.7c-2.2-0.7-3.9-2.6-4.1-5l-1.3-12.8l4.6-1l2,12.2
	l14.5,4.8l15.4-0.1L94,41.5l2.9-11.8l4.7,0.6l-1.9,11.9c-0.4,2.4-2.1,4.2-4.4,4.7l-13.2,3.3l13.8,8.4l12.3-7.1l2.6,4.2l-12.2,8.1
	c-2,1.2-4.6,1.1-6.5-0.4l-10.3-6.7l9.8,14.9l12.5,5.3l-1,4.9L90,77.8c-1.6-0.5-2.9-1.6-3.7-3.1l-5.6-9l-2,3.5L63.1,69.2z"/>
<path id="Fill-73" class="st11" d="M111.2,48.2c2.1,0,3.9,1.7,3.9,3.9s-1.7,3.9-3.9,3.9c-2.1,0-3.9-1.7-3.9-3.9
	S109.1,48.2,111.2,48.2"/>
<path id="Fill-75" class="st11" d="M106.1,75.9c2.1,0,3.9,1.7,3.9,3.9c0,2.2-1.7,3.9-3.9,3.9c-2.2,0-3.9-1.7-3.9-3.9
	C102.3,77.6,104,75.9,106.1,75.9"/>
<path id="Fill-77" class="st11" d="M99.6,23c2.1,0,3.9,1.7,3.9,3.9s-1.7,3.9-3.9,3.9c-2.2,0-3.9-1.7-3.9-3.9S97.4,23,99.6,23"/>
<path id="Fill-79" class="st11" d="M43.6,21.4c2.1,0,3.9,1.7,3.9,3.9s-1.7,3.9-3.9,3.9s-3.9-1.7-3.9-3.9S41.5,21.4,43.6,21.4"/>
<path id="Fill-81" class="st11" d="M31.5,49.3c2.1,0,3.9,1.7,3.9,3.9s-1.7,3.9-3.9,3.9s-3.9-1.7-3.9-3.9S29.4,49.3,31.5,49.3"/>
<path id="Fill-83" class="st11" d="M36.6,76.1c2.1,0,3.9,1.7,3.9,3.9c0,2.2-1.7,3.9-3.9,3.9s-3.9-1.7-3.9-3.9
	C32.7,77.8,34.5,76.1,36.6,76.1"/>
<path id="Fill-85" class="st12" d="M71.2,52c-2.9,0-5.3-2.4-5.3-5.3v-2.4h0.9v2.4c0,2.5,2,4.4,4.4,4.4c2.5,0,4.4-2,4.4-4.4v-2.5h0.9
	v2.5C76.6,49.5,74.2,52,71.2,52"/>
<path id="Fill-87" class="st11" d="M72.9,24c-2.6,0-4.6,5.3-4.6,7.8v11.6v4c2.5,3.3,6,1.3,6-1.3v-2.7c-0.2-0.9,0.6-1.7,1.4-1.6
	l2.5,0.4c1.4,0,2.5-1.1,2.5-2.5v-4.1l1.7-0.1c0.6,0,0.9-0.7,0.5-1.1l-4.4-9.6L72.9,24z"/>
<path id="Fill-89" class="st2" d="M77,36.3c0.9,0,1.7,0.8,1.7,1.7c0,0.9-0.7,1.7-1.7,1.7c-0.9,0-1.7-0.8-1.7-1.7
	C75.3,37.1,76.1,36.3,77,36.3"/>
<path id="Fill-91" class="st13" d="M78.4,32c0,0.5,0.1,0.8,0.4,1c0.3,0.3,0.6,0.6,1,0.6c0.5,0,0.8-0.1,1-0.4c0.3-0.3,0.6-0.6,0.6-1
	c0-0.4-0.1-0.8-0.4-1c-0.3-0.3-0.6-0.6-1-0.6C79.2,30.5,78.5,31.1,78.4,32 M80,34.4h-0.2c-0.6-0.1-1.2-0.4-1.6-0.9
	c-0.5-0.6-0.6-1.1-0.6-1.7c0.1-1.3,1.2-2.3,2.6-2.2c0.6,0.1,1.2,0.4,1.6,0.9c0.5,0.6,0.6,1.1,0.6,1.7c-0.1,0.6-0.4,1.2-0.9,1.6
	C81,34.3,80.4,34.4,80,34.4"/>
<path id="Fill-93" class="st13" d="M74.6,30.6c-0.8,0-1.5,0.7-1.5,1.5c0,0.9,0.7,1.5,1.5,1.5s1.5-0.7,1.5-1.5
	C76.1,31.3,75.4,30.6,74.6,30.6 M74.6,34.4c-1.3,0-2.4-1-2.4-2.4c0-1.3,1-2.4,2.4-2.4s2.4,1,2.4,2.4C76.9,33.4,75.9,34.4,74.6,34.4"
	/>
<polygon id="Fill-95" class="st11" points="63.2,106.3 65.3,129.9 69.3,129.7 70.3,106.3 "/>
<polygon id="Fill-97" class="st11" points="72.7,106.3 74.8,129.9 78.8,129.7 79.8,106.3 "/>
<path id="Fill-99" class="st14" d="M63.1,69.2c0,0-1.9,9.1-2.7,12.8c-0.8,3.8-4.3,27.3-4.3,27.3h30.3c-1.1-10.1-3.7-23.2-5-28.2
	c-1.2-4.5-2.9-12-2.9-12L63.1,69.2z"/>
<path id="Fill-101" class="st0" d="M68.3,31.7c0,0,6.9-0.5,8-6.4c0.7,2.6,3.9,3.7,3.9,3.7l1.9-1.1l-2-4.1l-11-1.5L66,26.4L68.3,31.7
	z"/>
</svg>
