<?xml version="1.0" encoding="utf-8"?>
<!-- Generator: Adobe Illustrator 22.1.0, SVG Export Plug-In . SVG Version: 6.00 Build 0)  -->
<svg version="1.1" id="Layer_1" xmlns="http://www.w3.org/2000/svg" xmlns:xlink="http://www.w3.org/1999/xlink" x="0px" y="0px"
	 width="150px" height="150px" viewBox="0 0 150 150" style="enable-background:new 0 0 150 150;" xml:space="preserve">
<style type="text/css">
	.st0{fill:#2E3543;}
	.st1{fill:#00B6FB;}
	.st2{fill:none;stroke:#0E7BCE;}
	.st3{fill:#EAC2A7;}
	.st4{fill:none;stroke:#2E3543;}
	.st5{fill:#696A6C;}
	.st6{fill:#FFFFFF;}
	.st7{fill:#B1B1B1;}
	.st8{fill:#77C54F;}
	.st9{fill:#3A7BFA;}
	.st10{fill:none;stroke:#0E7BCE;stroke-linecap:round;stroke-linejoin:round;}
	.st11{fill:#F6C167;}
	.st12{fill:#F89937;}
</style>
<path id="Fill-14" class="st0" d="M57.4,80.7l3.3,52.7c0,0.4,0.4,0.8,0.8,0.8H71c0.4,0,0.7-0.3,0.8-0.7c0.1-0.6-0.3-1.1-0.8-1.3
	l-6.2-2.7L68,85.2c0-0.6,0.9-0.6,0.9,0l4.3,48.4c0,0.4,0.3,0.6,0.7,0.6h9.9c0.4,0,0.7-0.3,0.7-0.6c0.1-0.5-0.2-1-0.8-1.1l-6-1.7
	l1.6-50L57.4,80.7z"/>
<path id="Fill-18" class="st1" d="M84.4,51.9c0-3.3-3.8-5.9-6.2-5.9H48.3c-1.1,0-2.2-0.8-2.6-1.8l-3.8-9.5l-5.1,2l4.9,13.1
	c0.4,1.1,1.5,1.9,2.6,1.9l8.4,0.7c1.5,0,2.7,1.1,2.9,2.6l1.5,25.9H79l1.6-22.4l1.8-1.6C83.7,55.8,84.4,53.9,84.4,51.9"/>
<path id="Stroke-21" class="st2" d="M63.1,46.1v3.3c0,2.3,2.2,4,4.9,4c2.6,0,4.9-1.8,4.9-4v-3.3"/>
<path id="Fill-10" class="st3" d="M65.1,30.1V46v2.5c0,1.6,1.3,2.9,2.9,2.9c1.6,0,2.9-1.3,2.9-2.9v-2.6c-0.2-0.8,0.6-1.7,1.4-1.5
	l2.4,0.3c1.3,0,2.4-1,2.4-2.4v-4l1.7-0.1c0.6,0,0.8-0.8,0.5-1.1l-3.5-8.9L65.1,30.1z"/>
<path id="Stroke-1" class="st4" d="M77.7,33.1c0,1.3,1.1,2.4,2.4,2.4s2.4-1.1,2.4-2.4c0-1.3-1.1-2.4-2.4-2.4S77.7,31.8,77.7,33.1z"
	/>
<path id="Stroke-3" class="st4" d="M70.9,33.1c0,1.3,1.1,2.4,2.4,2.4s2.4-1.1,2.4-2.4c0-1.3-1.1-2.4-2.4-2.4S70.9,31.8,70.9,33.1z"
	/>
<path id="Fill-12" class="st0" d="M65.8,30.8c-0.4,0-0.7-0.3-0.7-0.7c0-0.7,0-1.8,0-3.6c0-2.8,3.5-3.7,6-3.7s3.8,0.3,3.8-1.1v-1.3
	c0,0,5.2,0,5.2,5.3c0,4.5-5,3.8-7.1,3.8h-1.5c-0.8,0-1.4,0.7-1.4,1.4v1.4c0,0.5-0.4,0.8-0.8,0.8s-0.8-0.4-0.8-0.8v-0.9
	c0-0.4-0.3-0.6-0.6-0.6H65.8z"/>
<path id="Rectangle" class="st0" d="M65.1,29.7h2v8.7c0,1-0.8,2-2,2V29.7z"/>
<path id="Fill-20" class="st1" d="M75.8,45.9c5.2,0,9.1,0.8,9.1,8.1c0,4.5,0.1,7.9,0.4,10.4c0.2,1.3,1.3,2.3,2.6,2.3H99v5.7H83.8
	c-2.3,0-4.3-1.7-4.7-4L77,54.6L75.8,45.9z"/>
<path id="Fill-22" class="st5" d="M102.6,67c2.6-2.4,7.5-4.1,13.1-4.1s10.5,1.7,13.1,4.1h2v4l0,0l0,0v0.1l0,0
	c-0.1,4.5-6.8,8.1-15.1,8.1s-15.1-3.7-15.1-8.2v-4H102.6z"/>
<path id="Fill-24" class="st6" d="M100.6,67.2c0,4.5,6.8,8.2,15.1,8.2s15.1-3.7,15.1-8.2S124,59,115.7,59S100.6,62.7,100.6,67.2"/>
<path id="Fill-27" class="st7" d="M115.7,62c-7.4,0-13.6,2.9-14.8,6.8c-0.2-0.5-0.3-0.9-0.3-1.4c0-4.5,6.8-8.2,15.1-8.2
	s15.1,3.7,15.1,8.2c0,0.5-0.1,0.9-0.3,1.4C129.3,64.9,123.1,62,115.7,62"/>
<path id="Fill-29" class="st8" d="M125.6,68.3l-9.9-2.3v4.5l9.8-1.6C126,68.8,126,68.4,125.6,68.3"/>
<path id="Fill-31" class="st9" d="M105.9,68.3l9.8-2.3v4.5l-9.8-1.6C105.5,68.8,105.5,68.4,105.9,68.3"/>
<path id="Path-34" class="st10" d="M79.6,70.3l-0.5-13"/>
<path id="Fill-16" class="st3" d="M103.6,69.4c0,2.1-1.7,3.7-3.7,3.7c-2.1,0-3.8-1.7-3.8-3.7c0-2.1,1.7-3.7,3.8-3.7
	C101.9,65.7,103.6,67.3,103.6,69.4"/>
<path id="Fill-1" class="st0" d="M39.5,49c0.8,0,1.4-0.7,1.4-1.4V26.8H38v20.8C38.1,48.4,38.6,49,39.5,49"/>
<path id="Fill-11" class="st3" d="M34.7,33.8c0,2.3,1.8,4.1,4.1,4.1s4.1-1.8,4.1-4.1s-1.8-4.1-4.1-4.1
	C36.6,29.7,34.7,31.5,34.7,33.8"/>
<path id="Fill-3" class="st11" d="M31.2,8.1L31.2,8.1L39.2,0l7.9,8.1l0,0c1.9,1.9,3,4.7,3,7.6c0,6.1-4.9,11.1-11,11.1
	c-6.1,0-11-5-11-11.1C28.2,12.8,29.4,10,31.2,8.1"/>
<path id="Fill-5" class="st12" d="M35.3,11.2L35.3,11.2l3.9-4l3.9,4l0,0c0.9,0.9,1.5,2.3,1.5,3.7c0,3-2.3,5.4-5.3,5.4
	S34,17.9,34,14.9C33.9,13.5,34.4,12.2,35.3,11.2"/>
<path id="Fill-7" class="st12" d="M35.1,3.7L35.1,3.7l-1.2-2l-1.2,2l0,0c-0.2,0.3-0.5,0.7-0.5,1.2c0,0.9,0.7,1.7,1.6,1.7
	s1.6-0.7,1.6-1.7C35.5,4.4,35.3,4,35.1,3.7"/>
</svg>
