<?xml version="1.0" encoding="utf-8"?>
<!-- Generator: Adobe Illustrator 22.1.0, SVG Export Plug-In . SVG Version: 6.00 Build 0)  -->
<svg version="1.1" id="Layer_1" xmlns="http://www.w3.org/2000/svg" xmlns:xlink="http://www.w3.org/1999/xlink" x="0px" y="0px"
	 width="150px" height="150px" viewBox="0 0 150 150" style="enable-background:new 0 0 150 150;" xml:space="preserve">
<style type="text/css">
	.st0{fill:#2E3543;}
	.st1{fill:#F5E622;}
	.st2{fill:#090A0A;}
	.st3{fill:#F68D2E;}
	.st4{fill:#EAC2A7;}
	.st5{fill:#373463;}
	.st6{fill:#7A8291;}
	.st7{fill:#F6C167;}
	.st8{fill:#F89937;}
	.st9{fill:#FFFFFF;}
	.st10{fill:#B1B1B1;}
	.st11{fill:#696A6C;}
	.st12{fill:#77C54F;}
	.st13{fill:#3A7BFA;}
</style>
<path id="Path" class="st0" d="M79.4,45.1V30.6c0-5.9-4.8-10.5-10.5-10.5c-5.9,0-10.5,4.8-10.5,10.5v14.5c0,5.9,4.8,10.5,10.5,10.5
	C74.7,55.7,79.4,51,79.4,45.1z"/>
<path id="Path_1_" class="st1" d="M37,29.6l7,14.1L56.4,44h5.1l14.8-0.1c2.3-0.1,4.3,1.4,4.9,3.7L85.1,60l12.8,0.1v4.1l-14,0.3
	c-1.4,0.1-2.6-0.5-3.2-1.7l-3.1-5.6L75,69.3l-15.4,0.2l-3.1-17.6c-0.2-0.8-0.8-1.4-1.5-1.4l-11.1-1.2c-1.7-0.2-3.1-1.3-4-2.9
	l-6.9-15L37,29.6z"/>
<path id="Path_2_" class="st2" d="M82.4,133.2c0,0-0.5,0.8-2.7,0.8s-5.1-0.5-5.1-0.5l-0.8,0.4h-2.3c-0.2,0-0.4-0.2-0.4-0.4
	c0-0.4,0-1.2,0-2c0-0.6,0.1-1.4,0.2-1.7h4.5c0.1,0.1,1,0.6,1.7,1.2c1.5,0.8,3.1,0.6,4.2,0.9C82.8,132,82.4,133.2,82.4,133.2z"/>
<path id="Path_3_" class="st2" d="M72.8,133.2c0,0-0.5,0.8-2.7,0.8s-5.1-0.5-5.1-0.5l-0.8,0.4h-2.3c-0.2,0-0.4-0.2-0.4-0.4
	c0-0.4,0-1.2,0-2c0-0.6,0.1-1.4,0.2-1.7h4.6c0.1,0.1,1,0.6,1.7,1.2c1.5,0.8,3.1,0.6,4.2,0.9C73.2,132,72.8,133.2,72.8,133.2z"/>
<path id="Path_4_" class="st3" d="M72.8,46.4v-2.4H72v2.4c0,2.4-2,4.4-4.4,4.4c-2.4,0-4.4-2-4.4-4.4V44h-0.8v2.3
	c0,3,2.4,5.4,5.4,5.4S73,49.3,72.8,46.4z"/>
<path id="Path_5_" class="st4" d="M74.6,25.3l4.3,9.6c0.3,0.3,0.2,1.1-0.4,1.1l-1.7,0.1v4.1c0,1.3-1,2.4-2.4,2.4l-2.4-0.4
	c-0.8-0.1-1.5,0.8-1.4,1.5v2.6c0.2,2.6-3.4,4.6-5.9,1.4v-4V32.2c0-2.5,2-7.7,4.6-7.7L74.6,25.3z"/>
<path id="Shape" class="st5" d="M77.7,33.3c0.4-0.3,0.8-0.9,0.8-1.5c0.1-0.6-0.1-1.2-0.5-1.7c-0.3-0.4-0.9-0.8-1.5-0.8
	c-1.3-0.1-2.4,0.9-2.5,2.2c-0.1,0.6,0.1,1.2,0.5,1.7c0.3,0.4,0.9,0.8,1.5,0.8c0,0,0.1,0,0.2,0C76.9,33.9,77.4,33.7,77.7,33.3z
	 M74.7,31.5c0.1-0.9,0.9-1.4,1.5-1.4c0.3,0,0.8,0.3,1,0.5c0.3,0.3,0.3,0.6,0.3,1c0,0.3-0.3,0.8-0.5,1c-0.3,0.3-0.6,0.3-1,0.3
	s-0.8-0.3-1-0.5C74.8,32.2,74.7,31.9,74.7,31.5z"/>
<path id="Shape_1_" class="st5" d="M73.3,31.6c0-1.3-1-2.3-2.3-2.3s-2.3,1-2.3,2.3c0,1.3,1,2.3,2.3,2.3
	C72.4,33.9,73.3,32.8,73.3,31.6z M72.6,31.6c0,0.8-0.8,1.4-1.4,1.4c-0.8,0-1.4-0.8-1.4-1.4c0-0.7,0.8-1.4,1.4-1.4
	C71.9,30.1,72.6,30.7,72.6,31.6z"/>
<polygon id="Path_6_" class="st4" points="66.9,106.3 65.8,129.5 61.8,129.7 59.8,106.3 "/>
<polygon id="Path_7_" class="st4" points="76.2,106.3 75.2,129.5 71.3,129.7 69.1,106.3 "/>
<path id="Path_8_" class="st6" d="M75,69.2c0,0,1.7,7.4,2.9,12c1.3,4.8,3.9,17.9,4.9,28H52.8c0,0,3.4-23.5,4.3-27.2
	c0.8-3.7,2.6-12.7,2.6-12.7L75,69.2z"/>
<path id="Path_9_" class="st0" d="M62.4,26.8l3.1-4.1l11,1.5l1.9,4.1l-1.8,1.1c0,0-3.1-1.1-3.9-3.7c-1.1,5.9-7.9,6.3-7.9,6.3
	L62.4,26.8z"/>
<path id="Path_10_" class="st0" d="M35.1,41.5c0.6,0,1.1-0.5,1.1-1.1V23c0-0.6-0.5-1.1-1.1-1.1c-0.6,0-1.1,0.5-1.1,1.1v17.4
	C34,40.9,34.5,41.5,35.1,41.5z"/>
<path id="Path_11_" class="st7" d="M26.9,8.9l8-8.2l8,8.2c1.7,1.8,2.7,4.2,2.7,6.8c0,5.7-4.8,10.4-10.7,10.4s-10.7-4.7-10.7-10.4
	C24.2,13.3,25.2,10.9,26.9,8.9z"/>
<path id="Path_12_" class="st8" d="M30.9,13l4-5l4,5c0.9,0.9,1.4,2,1.4,3.3c0,2.8-2.4,5-5.4,5s-5.4-2.2-5.4-5
	C29.6,15.1,30.1,14,30.9,13z"/>
<path id="Path_13_" class="st8" d="M27.3,6.2l1.3-2l1.3,2c0.3,0.2,0.5,0.6,0.5,1c0,0.8-0.8,1.5-1.6,1.5S27.1,8,27.1,7.2
	C26.8,6.8,27.1,6.4,27.3,6.2z"/>
<circle id="Oval" class="st4" cx="35.1" cy="30.8" r="3"/>
<ellipse id="Oval_1_" transform="matrix(1 -2.945293e-03 2.945293e-03 1 -0.1779 0.3304)" class="st9" cx="112.1" cy="60.6" rx="14.4" ry="8.4"/>
<path id="Path_14_" class="st10" d="M112.2,54.4c-7.3,0-13.3,3.1-14.3,7.3c-0.1-0.3-0.2-0.8-0.2-1.1c0-4.7,6.5-9.3,14.4-9.3
	s14.4,4.6,14.4,9.3c0,0.3-0.1,0.8-0.2,1.1C125.5,57.4,119.5,54.3,112.2,54.4z"/>
<path id="Path_15_" class="st11" d="M112.2,69c7.3,0,13.3-3.1,14.3-7.3c0.1,0.3,0.2,0.8,0.2,1.1c0,4.7-6.5,9.3-14.4,9.3
	s-14.4-4.7-14.4-9.3c0-0.3,0.1-0.8,0.2-1.1C98.7,65.8,104.8,69,112.2,69z"/>
<path id="Path_16_" class="st12" d="M123.2,61.6l-10.8-2.2v4.3l10.9-1.5C123.6,62.1,123.6,61.6,123.2,61.6z"/>
<path id="Path_17_" class="st13" d="M101.5,61.7l10.9-2.2v4.3l-10.9-1.5C101.2,62.2,101.2,61.7,101.5,61.7z"/>
<ellipse id="Oval_2_" class="st4" cx="97.7" cy="62" rx="3.1" ry="3.1"/>
</svg>
