<?xml version="1.0" encoding="utf-8"?>
<!-- Generator: Adobe Illustrator 22.1.0, SVG Export Plug-In . SVG Version: 6.00 Build 0)  -->
<svg version="1.1" id="Layer_1" xmlns="http://www.w3.org/2000/svg" xmlns:xlink="http://www.w3.org/1999/xlink" x="0px" y="0px"
	 width="150px" height="150px" viewBox="0 0 150 150" style="enable-background:new 0 0 150 150;" xml:space="preserve">
<style type="text/css">
	.st0{fill:#2E3543;}
	.st1{fill:#00B4F9;}
	.st2{fill:#EAC2A7;}
	.st3{fill:none;stroke:#0E7BCE;}
	.st4{fill:none;stroke:#2E3543;}
	.st5{fill:#FFFFFF;}
	.st6{fill:#747475;}
	.st7{fill:#D87260;}
	.st8{fill:#E8A4C6;}
	.st9{fill:#77C54F;}
	.st10{fill:#EFBA2C;}
</style>
<path id="Fill-1" class="st0" d="M20.5,76.1l3.1,57.4c0,0.4,0.4,0.8,0.8,0.8h10.3c0.4,0,0.7-0.3,0.8-0.7c0.1-0.6-0.3-1.1-0.8-1.3
	l-7.1-2.7l3.1-47.9c0-0.6,1-0.6,1,0l4.4,52c0,0.4,0.3,0.6,0.7,0.6h9.8c0.3,0,0.6-0.3,0.7-0.6c0.1-0.5-0.2-1-0.8-1.1l-6-1.7l1.7-54.7
	L20.5,76.1z"/>
<path id="Fill-3" class="st1" d="M52,81.9l-5.9-36.4v-0.2l0,0c-0.3-1.5-1.7-2.7-3.2-2.7l-7.9-0.1l-12.6-0.1c-1.5,0-3-0.7-4.2-1.7
	L15.5,38c-1.1-1.1-1.2-2.8-0.3-4.1l6-8l-1-3.9l-10.1,9.4c-2.9,2.7-3,7.1-0.3,9.7l6,5.4c1.6,1.4,2.6,3.3,2.9,5.5L20.2,76h21.6V57.4
	c0-0.5,0.8-0.6,0.9-0.1l5.5,25.2L52,81.9z"/>
<g id="Group-15" transform="translate(39.647577, 64.114199)">
	<g id="Clip-14">
	</g>
	<path id="Fill-13" class="st2" d="M14,18.1c0,2-1.7,3.6-3.7,3.6s-3.7-1.6-3.7-3.6s1.6-3.7,3.7-3.7S14,16,14,18.1"/>
</g>
<path id="Fill-5" class="st2" d="M18.5,26.3c0.7,1.9,2.8,3,4.8,2.3c1.9-0.7,3-2.8,2.3-4.8c-0.7-1.9-2.8-3-4.8-2.3
	C18.8,22.4,17.8,24.5,18.5,26.3"/>
<path id="Fill-7" class="st2" d="M27.5,26.3v18.9c0,1,0.9,1.9,1.9,1.9l0,0l2-0.1c1,0,1.9-0.9,1.9-1.9v-2.8c-0.2-0.9,0.5-1.6,1.4-1.5
	l2.4,0.3c1.3,0,2.4-1,2.4-2.4v-3.9l1.7-0.1c0.6,0,0.9-0.8,0.5-1.1l-2.9-7.1L27.5,26.3z"/>
<path id="Stroke-21" class="st3" d="M34.9,42.7v3c0,2.1-2,3.7-4.4,3.7c-2.4,0-4.4-1.7-4.4-3.7v-3"/>
<path id="Stroke-29" class="st4" d="M38.2,30.1c0.1,1.1-0.8,2.2-2,2.3c-1.1,0.1-2.2-0.8-2.3-2c-0.1-1.1,0.8-2.2,2-2.3
	C37,28.1,38.1,29,38.2,30.1z"/>
<path id="Stroke-30" class="st4" d="M44,30.3c0,1.1-1,2.1-2.1,2.1c-1.1,0-2.1-1-2.1-2.1s1-2.1,2.1-2.1C43,28.1,44,29.2,44,30.3z"/>
<circle id="Oval" class="st5" cx="35.9" cy="36.9" r="1.9"/>
<path id="Fill-9" class="st0" d="M28.2,28.3c-0.4,0-0.7-0.3-0.7-0.7c0-0.7,0-1.7,0-3.5c0-2.8,3.4-3.6,6-3.6c2.6,0,3.9,0.2,3.9-1.1
	v-1.3c0,0,5.1,0,5.1,5.4c0,4.6-5.1,3.7-7.1,3.7h-1.5c-0.8,0-1.4,0.7-1.4,1.4v1.1c0,0.5-0.4,0.8-0.8,0.9l0,0c-0.5,0-0.9-0.4-0.9-0.8
	v-1c0-0.3-0.3-0.6-0.6-0.6L28.2,28.3z"/>
<path id="Rectangle" class="st0" d="M27.2,25.4H30v5.8c0,1.6-1.3,2.9-2.9,2.9V25.4z"/>
<path id="Fill-11" class="st2" d="M23.9,22l4.2,2.9c0.7,0.5,0.4,1.6-0.5,1.6l-3.7-1.2C23.9,25.3,23.9,22,23.9,22z"/>
<path id="Fill-1_1_" class="st6" d="M100.3,132.9h-4V21.7c0-1.1,0.9-2.2,2-2.2c1,0,2,1,2,2.2V132.9z"/>
<path id="Fill-3_1_" class="st7" d="M141.6,84l-9.4-10.2c-1-1-3.3-0.7-3.4,0.6l-0.1,1.8l-65.2-3.4c-1.1-0.1-2.1,0.6-2.2,1.3L60.6,87
	c0,0.8,0.9,1.5,2,1.6l65.2,3.4l-0.1,1.8c-0.1,1.2,2.3,1.9,3.3,1l10.4-9.1C142,85.1,142,84.5,141.6,84"/>
<polygon id="Fill-39" class="st5" points="66.4,78.4 69.5,78.6 69.5,79.5 67.3,79.4 67.2,80.6 69.2,80.7 69.1,81.7 67.1,81.6 
	67.1,82.9 69.4,83.1 69.3,84 66.1,83.8 "/>
<polygon id="Fill-40" class="st5" points="71.2,78.7 72.2,78.7 74,81.3 75.9,78.9 76.8,79 76.5,84.3 75.5,84.2 75.7,80.3 73.9,82.7 
	73.7,82.6 72.1,80.1 71.9,84 70.9,84 "/>
<path id="Fill-41" class="st5" d="M79.6,80l-0.1,1.7c0.2,0,0.5,0.1,0.7,0.1c0.6,0,1-0.2,1-0.9c0-0.6-0.3-0.9-1-0.9
	C80.1,80,79.8,80,79.6,80z M78.4,84.4l0.3-5.4c0.3,0,1.1,0,1.5,0.1c1.6,0.1,2.1,1,2,1.9s-0.8,1.7-2.1,1.6c-0.2,0-0.5,0-0.7-0.1
	l-0.1,2L78.4,84.4z"/>
<path id="Fill-42" class="st5" d="M85.8,84c1.1,0.1,1.9-0.8,1.9-1.8c0.1-1.1-0.7-2-1.7-2c-1-0.1-1.9,0.7-1.9,1.8
	C84,83.1,84.8,84,85.8,84 M86.1,79.4c1.6,0.1,2.8,1.2,2.7,3c-0.1,1.6-1.3,2.8-3,2.7c-1.6-0.1-2.8-1.2-2.7-3
	C83.2,80.3,84.4,79.3,86.1,79.4"/>
<polygon id="Fill-43" class="st5" points="95.2,85.3 94.4,85.3 93.2,81.3 91.8,85.1 90.9,85.1 89.5,79.7 90.6,79.7 91.5,83.6 
	93,79.9 93.9,79.9 95,83.8 96.2,80 97.1,80 "/>
<polygon id="Fill-44" class="st5" points="98.3,80 101.4,80.1 101.4,81.1 99.2,81 99.1,82.3 101.2,82.4 101.1,83.3 99.1,83.2 
	99.1,84.6 101.3,84.7 101.2,85.7 98,85.5 "/>
<path id="Fill-45" class="st5" d="M104,81.2l-0.1,1.6h0.7c0.6,0,1-0.2,1-0.8c0-0.4-0.2-0.8-1-0.9C104.5,81.2,104.3,81.2,104,81.2z
	 M102.8,85.8l0.3-5.4c0.3,0,1.5,0.1,1.6,0.1c1.5,0.1,1.9,0.9,1.9,1.8c-0.1,1-0.7,1.3-1.1,1.5l1.6,2.3L106,86l-1.4-2.1h-0.8l-0.1,2
	L102.8,85.8z"/>
<polygon id="Fill-46" class="st5" points="108.6,80.5 109.5,80.6 111.2,83.3 113.2,80.8 114.1,80.8 113.8,86.3 112.9,86.2 
	113.1,82.3 111.2,84.6 111.1,84.6 109.4,82.1 109.2,86 108.3,86 "/>
<polygon id="Fill-47" class="st5" points="116,80.9 119.2,81.1 119.2,82 116.9,81.9 116.9,83.3 118.8,83.4 118.8,84.2 116.8,84.1 
	116.7,85.6 119,85.7 119,86.5 115.7,86.4 "/>
<polygon id="Fill-48" class="st5" points="124.4,86.8 121.5,82.9 121.3,86.7 120.5,86.6 120.8,81.2 121.5,81.2 124.3,85.2 
	124.5,81.4 125.4,81.5 125.2,86.9 "/>
<polygon id="Fill-49" class="st5" points="126.7,81.5 131.2,81.8 131.1,82.6 129.3,82.5 129.1,87.1 128.1,87.1 128.4,82.5 
	126.6,82.4 "/>
<path id="Fill-5_1_" class="st8" d="M141.6,58.4l-9.9-9.6c-1-1-3.4-0.5-3.4,0.8v1.8H63c-1.1,0-2.1,0.7-2.1,1.4v13
	c0,0.8,1,1.4,2.1,1.4h65.3v1.8c0,1.2,2.4,1.8,3.4,0.8l9.9-9.6C142.1,59.5,142.1,58.8,141.6,58.4"/>
<path id="Fill-7_1_" class="st9" d="M140.9,25l-11.4-7.9c-1.2-0.9-3.4,0.1-3.2,1.3l0.3,1.7L62.2,31.5c-1.1,0.2-1.9,1-1.8,1.8
	L62.7,46c0.1,0.8,1.1,1.2,2.3,1l64.3-11.3l0.3,1.7c0.2,1.2,2.6,1.3,3.5,0.2l8.2-11.2C141.5,25.8,141.4,25.4,140.9,25"/>
<path id="Fill-11_1_" class="st5" d="M83.7,35.5l2.2-0.4l0.4,2.2c-0.4,0.6-1.2,1-1.9,1.1c-1.7,0.3-3-0.6-3.3-2.3
	c-0.3-1.5,0.6-3,2.2-3.2c0.8-0.1,1.3,0,1.8,0.3l-0.3,0.9c-0.3-0.2-0.9-0.3-1.3-0.2c-1,0.2-1.7,1-1.4,2.2c0.2,1.1,1,1.7,2.2,1.5
	c0.4-0.1,0.9-0.4,1-0.6L85,36.1l-1.2,0.2L83.7,35.5z"/>
<path id="Fill-13_1_" class="st5" d="M88,33l0.3,1.6l0.6-0.1c0.6-0.1,1-0.5,0.9-1c-0.1-0.4-0.4-0.8-1.1-0.6C88.5,32.9,88.3,33,88,33
	z M87.8,37.7l-1-5.3c0.3-0.1,1.5-0.3,1.6-0.3c1.4-0.3,2.1,0.4,2.3,1.3c0.2,1-0.4,1.5-0.8,1.7L92,37l-1.1,0.2l-1.8-1.7h-0.7l0.4,2
	L87.8,37.7z"/>
<path id="Fill-15" class="st5" d="M95.3,35.6c1.1-0.2,1.6-1.1,1.4-2.2c-0.2-1.1-1.1-1.7-2.1-1.5c-1,0.2-1.6,1-1.4,2.2
	C93.3,35,94.3,35.7,95.3,35.6 M94.5,30.9c1.6-0.3,3,0.6,3.3,2.3c0.3,1.6-0.8,3-2.3,3.2c-1.6,0.3-3-0.6-3.2-2.3
	C91.9,32.6,92.9,31.2,94.5,30.9"/>
<polygon id="Fill-17" class="st5" points="104.8,34.7 103.8,34.8 102,31.2 101.3,35.3 100.5,35.5 97.9,30.3 99,30.1 100.8,33.7 
	101.2,29.7 102.1,29.6 104,33.2 104.4,29.2 105.3,29 "/>
<polygon id="Fill-19" class="st5" points="105.8,28.9 110.3,28.1 110.4,29 108.7,29.4 109.4,33.8 108.5,34 107.7,29.5 106,29.8 "/>
<polygon id="Fill-21" class="st5" points="115.4,30.4 113,30.8 113.3,33.2 112.4,33.3 111.4,27.9 112.4,27.7 112.8,29.9 115.2,29.6 
	114.9,27.4 115.8,27.2 116.8,32.5 115.8,32.7 "/>
<path id="Fill-9_1_" class="st10" d="M141.5,113.5l-8.2-11.2c-0.9-1.2-3.2-1-3.5,0.2l-0.3,1.7L65.3,92.7c-1.1-0.2-2.2,0.3-2.3,1
	l-2.3,12.7c-0.1,0.8,0.7,1.6,1.8,1.8l64.3,11.3l-0.3,1.7c-0.2,1.2,2,2.2,3.2,1.3l11.4-7.9C141.8,114.6,141.9,114.1,141.5,113.5"/>
<path id="Fill-50" class="st5" d="M82.4,102.1l-0.3,1.6c0.2,0.1,0.5,0.1,0.7,0.2c0.6,0.1,1-0.1,1.1-0.7s-0.2-0.9-0.9-1
	C82.9,102.1,82.7,102.1,82.4,102.1z M80.7,106.3l1-5.3c0.3,0.1,1.1,0.2,1.5,0.3c1.6,0.3,1.9,1.2,1.8,2.1c-0.2,1-1,1.6-2.3,1.4
	c-0.2,0-0.5-0.1-0.7-0.2l-0.4,1.9L80.7,106.3z"/>
<path id="Fill-51" class="st5" d="M90.4,105.8c-0.3,1.6-1.4,2.1-2.6,1.9c-1.3-0.2-2.2-1.2-1.9-2.8l0.6-3l1,0.2L87,105
	c-0.2,1,0.1,1.7,1,1.9c0.9,0.2,1.3-0.4,1.5-1.4l0.5-3l1,0.2L90.4,105.8z"/>
<path id="Fill-52" class="st5" d="M93.5,104l-0.3,1.6l0.6,0.1c0.6,0.1,1-0.1,1.1-0.7c0.1-0.4-0.1-0.9-0.9-1
	C94,104.1,93.8,104.1,93.5,104z M91.8,108.3l1-5.3c0.3,0.1,1.5,0.3,1.6,0.3c1.4,0.3,1.8,1,1.6,2c-0.2,1-0.9,1.2-1.3,1.3l1.3,2.5
	l-1.1-0.2l-1.1-2.3l-0.7-0.1l-0.3,2L91.8,108.3z"/>
<path id="Fill-53" class="st5" d="M99,105l-0.3,1.6c0.2,0.1,0.5,0.1,0.7,0.2c0.6,0.1,1-0.1,1.1-0.7c0.1-0.6-0.2-0.9-0.9-1
	C99.4,105,99.2,105,99,105z M97.2,109.3l1-5.3c0.3,0.1,1.1,0.2,1.5,0.3c1.6,0.3,1.9,1.2,1.8,2.1c-0.2,1-1,1.6-2.3,1.4
	c-0.2,0-0.5-0.1-0.7-0.2l-0.4,1.9L97.2,109.3z"/>
<path id="Fill-54" class="st5" d="M104.7,109.8c1.1,0.2,1.9-0.5,2.1-1.5c0.2-1.1-0.5-2-1.4-2.2c-1-0.2-1.9,0.5-2.1,1.6
	C103,108.6,103.6,109.6,104.7,109.8 M105.4,105.1c1.6,0.3,2.6,1.6,2.3,3.2c-0.3,1.6-1.7,2.6-3.3,2.3c-1.6-0.3-2.6-1.6-2.3-3.2
	C102.5,105.9,103.8,104.8,105.4,105.1"/>
<path id="Fill-55" class="st5" d="M109.2,107.3c0.1-0.8,0.9-1.3,1.9-1.1c0.7,0.1,1.1,0.5,1.4,0.9l-0.7,0.6c-0.2-0.3-0.5-0.5-0.9-0.6
	c-0.5-0.1-0.8,0.1-0.9,0.5c-0.2,1.1,2.3,1.1,2,3c-0.2,1-1,1.4-2.1,1.2c-0.7-0.1-1.4-0.6-1.6-1.1l0.7-0.6c0.3,0.5,0.8,0.8,1.1,0.9
	c0.5,0.1,0.9-0.1,0.9-0.5C111.3,109.2,108.9,109.1,109.2,107.3"/>
<polygon id="Fill-56" class="st5" points="114.4,106.8 117.4,107.3 117.3,108.2 115.2,107.9 114.9,109.2 116.9,109.5 116.7,110.4 
	114.8,110.1 114.5,111.5 116.8,111.9 116.6,112.7 113.4,112.2 "/>
<polygon id="Fill-23" class="st5" points="81.2,61.9 80.3,61.9 79,57.9 77.7,61.9 76.8,61.9 75.1,56.4 76.2,56.4 77.3,60.3 
	78.6,56.4 79.5,56.4 80.8,60.3 81.8,56.4 82.8,56.4 "/>
<polygon id="Fill-25" class="st5" points="83.9,56.4 87,56.4 87,57.4 84.9,57.4 84.9,58.7 86.8,58.7 86.8,59.6 84.9,59.6 84.9,61 
	87,61 87,61.9 83.9,61.9 "/>
<polygon id="Fill-27" class="st5" points="88.8,56.4 89.7,56.4 89.7,61 92.1,61 92.1,61.9 88.8,61.9 "/>
<polygon id="Fill-29" class="st5" points="93.3,56.4 94.4,56.4 94.4,61 96.8,61 96.8,61.9 93.3,61.9 "/>
<path id="Fill-31" class="st5" d="M99,59.6V61c0.1,0,0.4,0,0.7,0c0.7,0,1-0.3,1-0.8s-0.4-0.7-1-0.7L99,59.6L99,59.6z M99,57.4v1.3
	h0.7c0.5,0,0.9-0.2,0.9-0.8c0-0.5-0.4-0.7-0.9-0.7C99.3,57.3,99.1,57.3,99,57.4z M98,56.4c0.3,0,1,0,1.6,0c1.3,0,1.8,0.6,1.8,1.3
	c0,0.7-0.3,1-0.8,1.2l0,0c0.6,0.1,1,0.6,1,1.2c0,1.1-0.9,1.6-2,1.6c-0.5,0-1.2,0-1.5,0L98,56.4L98,56.4z"/>
<polygon id="Fill-33" class="st5" points="103.1,56.4 106.3,56.4 106.3,57.4 104.1,57.4 104.1,58.7 106.1,58.7 106.1,59.6 
	104.1,59.6 104.1,61 106.4,61 106.4,61.9 103.1,61.9 "/>
<polygon id="Fill-35" class="st5" points="108.1,61.9 109.1,61.9 109.1,56.4 108.1,56.4 "/>
<polygon id="Fill-37" class="st5" points="115.1,61.9 112,58.1 112,61.9 111.2,61.9 111.2,56.4 111.9,56.4 114.9,60.2 114.9,56.4 
	115.8,56.4 115.8,61.9 "/>
<path id="Fill-38" class="st5" d="M119.9,59h2.2v2.2c-0.5,0.5-1.3,0.8-2,0.8c-1.8,0-2.9-1.1-2.9-2.9c0-1.5,1-2.9,2.8-2.9
	c0.8,0,1.3,0.2,1.7,0.6l-0.4,0.8c-0.3-0.3-0.8-0.4-1.2-0.4c-1,0-1.8,0.7-1.8,1.9c0,1.1,0.8,1.9,1.8,1.9c0.4,0,1-0.2,1.1-0.4v-0.8
	h-1.3C119.9,59.8,119.9,59,119.9,59z"/>
</svg>
