<svg width="70" height="70" viewBox="0 0 70 70" fill="none" xmlns="http://www.w3.org/2000/svg">
<path fill-rule="evenodd" clip-rule="evenodd" d="M32.8429 13.1399C32.8878 13.0849 32.933 13.0301 32.9785 12.9756C30.0258 10.4145 26.2017 8.875 22.2501 8.875C13.5234 8.875 6.66675 16.0342 6.66675 25.1458C6.66675 36.2997 16.2509 45.3934 30.7799 59.1789L30.8918 59.285L35.0001 63.1604L39.1084 59.2554L39.1443 59.2214C53.7159 45.425 63.3334 36.3192 63.3334 25.1458C63.3334 16.0342 56.4767 8.875 47.7501 8.875C43.7985 8.875 39.9743 10.4145 37.0217 12.9756C37.0672 13.0301 37.1123 13.0849 37.1572 13.1399H36.835C36.175 13.7295 35.5605 14.3708 35.0001 15.0579C34.4397 14.3708 33.8252 13.7295 33.1652 13.1399H32.8429ZM58.2731 33.6086C55.2805 39.3987 50.9358 44.0638 37.2051 57.0639L34.9928 59.1667L32.7911 57.0899C19.0064 44.0105 14.6916 39.3698 11.7077 33.572C10.2205 30.6823 9.50008 27.9498 9.50008 25.1458C9.50008 17.668 15.0882 11.8333 22.2501 11.8333C26.2672 11.8333 30.2381 13.7821 32.8429 16.9759L35.0001 19.6209L37.1572 16.9759C39.7621 13.7821 43.733 11.8333 47.7501 11.8333C54.9119 11.8333 60.5001 17.668 60.5001 25.1458C60.5001 27.9618 59.7734 30.7058 58.2731 33.6086Z" fill="url(#paint0_linear)"/>
<defs>
<linearGradient id="paint0_linear" x1="-0.47784" y1="36.1524" x2="33.6125" y2="71.7381" gradientUnits="userSpaceOnUse">
<stop stop-color="#20D0EE"/>
<stop offset="0.981733" stop-color="#15E186"/>
</linearGradient>
</defs>
</svg>
