<?xml version="1.0" encoding="utf-8"?>
<!-- Generator: Adobe Illustrator 22.1.0, SVG Export Plug-In . SVG Version: 6.00 Build 0)  -->
<svg version="1.1" id="Layer_1" xmlns="http://www.w3.org/2000/svg" xmlns:xlink="http://www.w3.org/1999/xlink" x="0px" y="0px"
	 width="195px" height="60px" viewBox="0 0 195 60" style="enable-background:new 0 0 195 60;" xml:space="preserve">
<style type="text/css">
	.st0{fill:#1A1919;}
	.st1{fill:#FFFFFE;}
	.st2{fill:#FACA22;}
</style>
<path class="st0" d="M0,60h195V0H0V60z"/>
<path class="st1" d="M21.5,28.8l1.6,0c3.4,0,6.7,0,6.7-4.6c0-4.7-3.1-4.8-6.7-4.8l-1.6,0V28.8z M12.2,11.5h14.3
	c7.7,0,13,3.7,13,12.4c0,8.9-4.6,12.8-12.7,12.8h-5.3v12.5h-9.3V11.5z"/>
<path class="st2" d="M41.9,44.7c0,2.7-2.2,4.9-5,4.9c-2.8,0-5-2.2-5-4.9c0-2.7,2.2-4.9,5-4.9C39.7,39.8,41.9,42,41.9,44.7z"/>
<path class="st1" d="M117.7,30.5c0,11-9.1,20-20.5,20c-11.4,0-20.5-9.1-20.5-20c0-11.1,9.1-20,20.5-20
	C108.6,10.5,117.7,19.4,117.7,30.5z"/>
<path class="st1" d="M56,28.8h1.6c3.4,0,6.7,0,6.7-4.6c0-4.7-3.1-4.8-6.7-4.8l-1.6,0V28.8z M46.7,11.5l14.3,0c7.7,0,13,3.7,13,12.4
	c0,8.9-4.6,12.8-12.7,12.8H56v12.5l-9.3,0V11.5z"/>
<path class="st1" d="M130.9,40.8h11.2v8.3h-20.5V11.5l9.3,0V40.8z"/>
<path class="st1" d="M156.3,19.8v6.3l10.5,0v8.3h-10.5v6.5h11.1l0,8.3h-20.4V11.5h20.4l0,8.3H156.3z"/>
<path class="st2" d="M177.6,46.3v-0.4c0-0.9,0-1.7-1.1-1.7c-1.2,0-1.2,0.8-1.2,1.7v0.4H177.6z M173.3,48.7V45c0-2,0.9-3.4,3.1-3.4
	c2.2,0,3.2,1.2,3.2,3.3v1.4h3.1v2.4H173.3z"/>
<path class="st2" d="M173.3,40.7h9.3v-2.4h-9.3V40.7z"/>
<path class="st2" d="M180.6,29.5h2v8l-7.2-4.4v3.6h-2V29l7.2,4.4V29.5z"/>
<path class="st2" d="M180.6,20.8h2v8l-7.2-4.4V28h-2v-7.7l7.2,4.4V20.8z"/>
<path class="st2" d="M176.2,15.5L176.2,15.5l3,1v-2L176.2,15.5z M181,17.1l1.6,0.6v2.6l-9.3-3.6v-2.6l9.3-3.5v2.6l-1.6,0.6V17.1z"/>
</svg>
