<svg width="232" height="70" viewBox="0 0 232 70" fill="none" xmlns="http://www.w3.org/2000/svg">
<path d="M74.11 30.137H67.63V25.8454H85.12V30.137H78.67V47.368H74.11V30.137Z" fill="black"/>
<path d="M89.7 25.8454H97.14C98.3 25.8454 99.32 26.0283 100.2 26.394C101.08 26.7382 101.81 27.2222 102.39 27.846C102.99 28.4483 103.43 29.1582 103.71 29.9757C104.01 30.7931 104.16 31.6644 104.16 32.5894C104.16 33.9876 103.87 35.2138 103.29 36.2679C102.73 37.3004 101.93 38.1286 100.89 38.7525L105.33 47.368H100.35L96.63 39.4624H94.11V47.368H89.7V25.8454ZM96.9 35.558C97.74 35.558 98.4 35.2891 98.88 34.7513C99.36 34.2135 99.6 33.5359 99.6 32.7184C99.6 31.8365 99.36 31.1373 98.88 30.621C98.4 30.1048 97.74 29.8466 96.9 29.8466H94.11V35.558H96.9Z" fill="black"/>
<path d="M115.653 25.8454H120.663L127.983 47.368H123.033L121.503 42.431H114.453L112.923 47.368H108.183L115.653 25.8454ZM120.423 38.6557L117.993 30.5242L115.503 38.6557H120.423Z" fill="black"/>
<path d="M149.319 43.399C148.899 44.0229 148.389 44.6144 147.789 45.1738C147.189 45.7115 146.519 46.1848 145.779 46.5935C145.059 47.0023 144.269 47.3249 143.409 47.5616C142.569 47.7982 141.689 47.9165 140.769 47.9165C139.249 47.9165 137.859 47.6369 136.599 47.0775C135.339 46.5182 134.249 45.7438 133.329 44.7543C132.429 43.7432 131.729 42.5601 131.229 41.2048C130.729 39.8281 130.479 38.3223 130.479 36.6874C130.479 35.0955 130.729 33.6112 131.229 32.2344C131.729 30.8362 132.429 29.6315 133.329 28.6204C134.249 27.5879 135.339 26.7812 136.599 26.2004C137.879 25.598 139.289 25.2969 140.829 25.2969C142.689 25.2969 144.309 25.6626 145.689 26.394C147.089 27.1254 148.249 28.1795 149.169 29.5562L146.079 32.7507C145.479 31.8472 144.769 31.1266 143.949 30.5888C143.129 30.0295 142.149 29.7498 141.009 29.7498C140.109 29.7498 139.299 29.9327 138.579 30.2984C137.859 30.6426 137.249 31.1266 136.749 31.7504C136.249 32.3742 135.859 33.1056 135.579 33.9446C135.319 34.7621 135.189 35.6333 135.189 36.5583C135.189 37.5048 135.319 38.3868 135.579 39.2042C135.859 40.0217 136.249 40.7316 136.749 41.3339C137.249 41.9362 137.849 42.4095 138.549 42.7537C139.249 43.0979 140.039 43.27 140.919 43.27C141.639 43.27 142.259 43.1947 142.779 43.0441C143.319 42.872 143.789 42.6569 144.189 42.3987C144.609 42.1191 144.979 41.8072 145.299 41.463C145.619 41.0973 145.929 40.7316 146.229 40.3659L149.319 43.399Z" fill="black"/>
<path d="M153.679 25.8454H158.209V34.4286L164.899 25.8454H170.149L163.279 34.235L171.079 47.368H165.589L160.249 37.9781L158.209 40.4304V47.368H153.679V25.8454Z" fill="black"/>
<path d="M177.95 25.8455H185.39C186.55 25.8455 187.57 26.0283 188.45 26.394C189.33 26.7382 190.06 27.2222 190.64 27.8461C191.24 28.4484 191.68 29.1583 191.96 29.9757C192.26 30.7932 192.41 31.6644 192.41 32.5894C192.41 33.9877 192.12 35.2138 191.54 36.2679C190.98 37.3005 190.18 38.1287 189.14 38.7525L193.58 47.368H188.6L184.88 39.4624H182.36V47.368H177.95V25.8455ZM185.15 35.558C185.99 35.558 186.65 35.2891 187.13 34.7513C187.61 34.2135 187.85 33.5359 187.85 32.7185C187.85 31.8365 187.61 31.1374 187.13 30.6211C186.65 30.1048 185.99 29.8466 185.15 29.8466H182.36V35.558H185.15Z" fill="#FFB82E"/>
<path d="M198.173 25.8455H211.853V30.1048H202.703V34.2996H209.813V38.4298H202.703V43.0764H212.513V47.368H198.173V25.8455Z" fill="#FFB82E"/>
<path d="M217.575 25.8455H224.865C226.105 25.8455 227.165 26.0391 228.045 26.4263C228.925 26.8135 229.645 27.3298 230.205 27.9751C230.785 28.599 231.205 29.3304 231.465 30.1693C231.745 31.0083 231.885 31.8795 231.885 32.783C231.885 33.9446 231.695 34.9665 231.315 35.8484C230.955 36.7089 230.455 37.4296 229.815 38.0104C229.195 38.5912 228.475 39.0322 227.655 39.3333C226.835 39.6345 225.975 39.7851 225.075 39.7851H221.985V47.368H217.575V25.8455ZM224.625 35.8484C225.465 35.8484 226.125 35.5795 226.605 35.0417C227.105 34.4824 227.355 33.7618 227.355 32.8798C227.355 31.9763 227.105 31.2449 226.605 30.6856C226.105 30.1048 225.435 29.8144 224.595 29.8144H221.985V35.8484H224.625Z" fill="#FFB82E"/>
<path fill-rule="evenodd" clip-rule="evenodd" d="M34.503 61.1515H54V21.2575L47.4061 16.0729V3.42433H40.2773V10.4678L27.0178 0.0422363L0 21.2575V61.1515H27.3743L25.2356 55.3865H5.34653V24.1785L27.0178 7.19087L48.6535 24.1785V55.3865H34.503V61.1515Z" fill="#FFB82E"/>
<path d="M14.4649 30.1585L9 32.5771L13.5351 44.4086L19 41.99L14.4649 30.1585Z" fill="black"/>
<path d="M30.8162 35.5368L24 38.5535L35.7698 69.474L42.586 66.4574L30.8162 35.5368Z" fill="black"/>
<path d="M30.0322 24.7808L17 30.8146L19.9282 38.7634L43 28.1409L42.0025 25.4311L30.0322 24.7808Z" fill="black"/>
</svg>
