<svg width="70" height="70" viewBox="0 0 70 70" fill="none" xmlns="http://www.w3.org/2000/svg">
<path fill-rule="evenodd" clip-rule="evenodd" d="M28.5207 22.25C28.5207 26.1612 31.6462 29.3333 35.4998 29.3333C39.3535 29.3333 42.479 26.1612 42.479 22.25C42.479 18.3388 39.3535 15.1667 35.4998 15.1667C31.6462 15.1667 28.5207 18.3388 28.5207 22.25ZM35.4998 9.5C42.4375 9.5 48.0623 15.0688 48.0623 21.9343C48.0623 23.9927 47.5567 25.9329 46.6616 27.643L46.6553 27.6524C46.4355 28.0752 46.1905 28.4857 45.9204 28.8806L35.4559 46.3333L24.3067 27.643H24.3381C23.443 25.9329 22.9373 23.9927 22.9373 21.9343C22.9373 15.0688 28.5622 9.5 35.4998 9.5ZM4.7915 60.4448H66.2082L54.9309 35.1551H46.4932L44.8645 38.5456H53.0769L61.3312 57.0543H9.56325L17.5141 38.3354H26.1141L24.5816 34.9448H15.6211L4.7915 60.4448Z" fill="url(#paint0_linear)"/>
<defs>
<linearGradient id="paint0_linear" x1="-2.95197" y1="35.0988" x2="28.5185" y2="73.0381" gradientUnits="userSpaceOnUse">
<stop stop-color="#20D0EE"/>
<stop offset="0.981733" stop-color="#15E186"/>
</linearGradient>
</defs>
</svg>
