<svg width="75" height="80" viewBox="0 0 75 80" fill="none" xmlns="http://www.w3.org/2000/svg">
<path d="M67.9802 16.6692C70.9216 11.7559 69.2691 6.49798 64.3338 3.82701C61.3805 2.22874 58.266 3.4901 54.8177 7.89659L54.0868 8.83056L53.4381 7.83906C50.4805 3.31879 47.472 2.07134 44.1659 3.81623C39.0252 6.52936 37.7104 11.1045 40.5158 16.1901C42.3923 19.592 46.9374 23.9869 54.1349 29.32C61.2667 24.4 65.8854 20.1682 67.9802 16.6692ZM65.1483 2.37754C70.8958 5.48804 72.8704 11.7709 69.4357 17.5082C67.1408 21.3416 62.1995 25.8303 54.6001 31.022L54.1001 31.3636L53.612 31.005C45.9505 25.3765 41.0961 20.72 39.0315 16.9772C35.7873 11.096 37.3925 5.51056 43.3655 2.35816C47.2907 0.286522 50.9713 1.57714 54.2048 5.99978C57.8662 1.72229 61.5614 0.436347 65.1483 2.37754Z" fill="url(#paint0_linear)" stroke="url(#paint1_linear)" stroke-width="1.5"/>
<path fill-rule="evenodd" clip-rule="evenodd" d="M29.0016 66.3005L27.6079 63.1625C25.5196 58.4596 20.8856 55.4326 15.7748 55.4326C10.6641 55.4326 6.03043 58.4596 3.94175 63.1625L2.54808 66.3005C1.7002 68.2095 3.08592 70.3656 5.16034 70.3656H26.3893C28.4641 70.3656 29.8495 68.2095 29.0016 66.3005Z" fill="white" stroke="url(#paint2_linear)" stroke-width="3"/>
<path fill-rule="evenodd" clip-rule="evenodd" d="M15.7744 53.9628C19.4371 53.9628 22.4061 50.9693 22.4061 47.2763C22.4061 43.5834 19.4371 40.5898 15.7744 40.5898C12.1116 40.5898 9.14258 43.5834 9.14258 47.2763C9.14258 50.9693 12.1116 53.9628 15.7744 53.9628Z" fill="white" stroke="url(#paint3_linear)" stroke-width="3"/>
<path d="M28.4095 66.5632L27.0158 63.4252C25.0311 58.9557 20.6287 56.0799 15.7743 56.0799C10.9201 56.0799 6.51794 58.9556 4.53284 63.4253L3.13917 66.5632C2.48062 68.046 3.55552 69.7186 5.15982 69.7186H26.3888C27.9933 69.7186 29.0681 68.0461 28.4095 66.5632L29.0011 66.3006L28.4095 66.5632ZM29.5927 66.038C30.6299 68.3733 28.9337 71.0128 26.3888 71.0128H5.15982C2.61514 71.0128 0.918807 68.3732 1.95595 66.038L3.34962 62.9001C5.54192 57.9638 10.4071 54.7856 15.7743 54.7856C21.1417 54.7856 26.0071 57.9639 28.199 62.9001L29.5927 66.038L29.0011 66.3006L29.5927 66.038Z" fill="url(#paint4_linear)"/>
<path d="M15.7752 53.963V53.3159C19.0792 53.3159 21.7597 50.6133 21.7597 47.2765C21.7597 43.9397 19.0792 41.2371 15.7752 41.2371C12.4712 41.2371 9.7907 43.9397 9.7907 47.2765C9.7907 50.6133 12.4712 53.3159 15.7752 53.3159V53.963ZM15.7752 53.963V54.6101C11.7537 54.6101 8.49609 51.3256 8.49609 47.2765C8.49609 43.2274 11.7537 39.9429 15.7752 39.9429C19.7966 39.9429 23.0543 43.2274 23.0543 47.2765C23.0543 51.3256 19.7966 54.6101 15.7752 54.6101V53.963Z" fill="url(#paint5_linear)"/>
<path fill-rule="evenodd" clip-rule="evenodd" d="M73.0172 66.3005L71.6236 63.1625C69.5352 58.4596 64.9012 55.4326 59.7905 55.4326C54.6797 55.4326 50.0461 58.4596 47.9574 63.1625L46.5637 66.3005C45.7158 68.2095 47.1015 70.3656 49.176 70.3656H70.405C72.4797 70.3656 73.8651 68.2095 73.0172 66.3005Z" fill="white" stroke="url(#paint6_linear)" stroke-width="3"/>
<path fill-rule="evenodd" clip-rule="evenodd" d="M59.79 53.9628C63.4527 53.9628 66.4218 50.9693 66.4218 47.2763C66.4218 43.5834 63.4527 40.5898 59.79 40.5898C56.1273 40.5898 53.1582 43.5834 53.1582 47.2763C53.1582 50.9693 56.1273 53.9628 59.79 53.9628Z" fill="white" stroke="url(#paint7_linear)" stroke-width="3"/>
<path d="M72.4251 66.5632L71.0314 63.4252C69.0467 58.9557 64.6443 56.0799 59.7899 56.0799C54.9357 56.0799 50.5336 58.9556 48.5485 63.4253L47.1548 66.5632C46.4962 68.046 47.5711 69.7186 49.1754 69.7186H70.4044C72.009 69.7186 73.0837 68.0461 72.4251 66.5632L73.0167 66.3006L72.4251 66.5632ZM73.6083 66.038C74.6455 68.3733 72.9494 71.0128 70.4044 71.0128H49.1754C46.6308 71.0128 44.9344 68.3732 45.9716 66.038L47.3652 62.9001C49.5575 57.9638 54.4227 54.7856 59.7899 54.7856C65.1573 54.7856 70.0228 57.9639 72.2146 62.9001L73.6083 66.038L73.0167 66.3006L73.6083 66.038Z" fill="url(#paint8_linear)"/>
<path d="M59.7908 53.963V53.3159C63.0948 53.3159 65.7753 50.6133 65.7753 47.2765C65.7753 43.9397 63.0948 41.2371 59.7908 41.2371C56.4868 41.2371 53.8063 43.9397 53.8063 47.2765C53.8063 50.6133 56.4868 53.3159 59.7908 53.3159V53.963ZM59.7908 53.963V54.6101C55.7693 54.6101 52.5117 51.3256 52.5117 47.2765C52.5117 43.2274 55.7693 39.9429 59.7908 39.9429C63.8123 39.9429 67.0699 43.2274 67.0699 47.2765C67.0699 51.3256 63.8123 54.6101 59.7908 54.6101V53.963Z" fill="url(#paint9_linear)"/>
<path fill-rule="evenodd" clip-rule="evenodd" d="M57.4969 71.8872L55.4945 67.4356C52.494 60.7639 45.836 56.4697 38.4928 56.4697C31.1497 56.4697 24.4921 60.7639 21.4911 67.4356L19.4887 71.8872C18.2705 74.5954 20.2615 77.654 23.242 77.654H53.7437C56.7247 77.654 58.7152 74.5954 57.4969 71.8872Z" fill="white" stroke="url(#paint10_linear)" stroke-width="3"/>
<path fill-rule="evenodd" clip-rule="evenodd" d="M38.4914 54.3844C43.754 54.3844 48.0199 50.1377 48.0199 44.8987C48.0199 39.6598 43.754 35.4131 38.4914 35.4131C33.2288 35.4131 28.9629 39.6598 28.9629 44.8987C28.9629 50.1377 33.2288 54.3844 38.4914 54.3844Z" fill="white" stroke="url(#paint11_linear)" stroke-width="3"/>
<path d="M56.9062 72.1523L54.9038 67.7006C52.0079 61.2616 45.5812 57.1165 38.4925 57.1165C31.4039 57.1165 24.9776 61.2614 22.0812 67.7007L20.0787 72.1523C19.0536 74.4313 20.7298 77.0066 23.2417 77.0066H53.7433C56.2555 77.0066 57.9315 74.4314 56.9062 72.1523L57.4966 71.8869L56.9062 72.1523ZM58.087 71.6215C59.4982 74.7587 57.193 78.3008 53.7433 78.3008H23.2417C19.7924 78.3008 17.4868 74.7586 18.898 71.6215L20.9004 67.1699C24.0061 60.2655 30.8949 55.8223 38.4925 55.8223C46.0902 55.8223 52.9795 60.2657 56.0845 67.1699L58.087 71.6215L57.4966 71.8869L58.087 71.6215Z" fill="url(#paint12_linear)"/>
<path d="M38.4922 54.3845V53.7374C43.3979 53.7374 47.3734 49.7798 47.3734 44.8989C47.3734 40.0179 43.3979 36.0603 38.4922 36.0603C33.5865 36.0603 29.611 40.0179 29.611 44.8989C29.611 49.7798 33.5865 53.7374 38.4922 53.7374V54.3845ZM38.4922 54.3845V55.0316C32.8727 55.0316 28.3164 50.4958 28.3164 44.8989C28.3164 39.3019 32.8727 34.7661 38.4922 34.7661C44.1117 34.7661 48.668 39.3019 48.668 44.8989C48.668 50.4958 44.1117 55.0316 38.4922 55.0316V54.3845Z" fill="url(#paint13_linear)"/>
<path d="M12.3069 27.4932L22.8862 27.3584C23.5429 27.3501 24.0709 26.8153 24.0709 26.1585L24.0709 19.137C24.0709 18.1429 23.265 17.337 22.2709 17.337C22.2267 17.337 22.1826 17.3386 22.1386 17.3418C21.1016 17.4183 20.2848 17.32 19.6882 17.047C18.2961 16.41 18.5285 13.801 18.4652 12.8457C18.4089 11.9946 17.6733 11.3504 16.8222 11.4068C16.0625 11.4571 15.4529 12.0535 15.3859 12.8119C15.385 12.8231 15.384 12.8344 15.383 12.8457C15.3443 13.2981 15.2212 14.1901 15.0136 15.5218L15.0136 15.5218C14.8751 16.4105 14.133 17.0809 13.2347 17.1286L12.2674 17.18C11.9488 17.197 11.6992 17.4602 11.6992 17.7792V26.8933C11.6992 27.2247 11.9678 27.4933 12.2992 27.4933C12.3018 27.4933 12.3043 27.4933 12.3069 27.4932Z" stroke="url(#paint14_linear)" stroke-width="2.5"/>
<path d="M11.1322 16.1084H8.34414C8.01277 16.1084 7.74414 16.377 7.74414 16.7084V27.7285C7.74414 28.0599 8.01277 28.3285 8.34414 28.3285H11.1322C11.4636 28.3285 11.7322 28.0599 11.7322 27.7285V16.7084C11.7322 16.377 11.4636 16.1084 11.1322 16.1084Z" stroke="url(#paint15_linear)" stroke-width="2.5"/>
<defs>
<linearGradient id="paint0_linear" x1="70.8697" y1="26.5879" x2="39.6446" y2="2.10474" gradientUnits="userSpaceOnUse">
<stop stop-color="#2EE5FF"/>
<stop offset="1" stop-color="#44D83D"/>
</linearGradient>
<linearGradient id="paint1_linear" x1="70.8697" y1="26.5879" x2="39.6446" y2="2.10474" gradientUnits="userSpaceOnUse">
<stop stop-color="#2EE5FF"/>
<stop offset="1" stop-color="#44D83D"/>
</linearGradient>
<linearGradient id="paint2_linear" x1="2.29492" y1="57.9551" x2="18.3643" y2="77.4582" gradientUnits="userSpaceOnUse">
<stop stop-color="#2EE5FF"/>
<stop offset="1" stop-color="#44D83D"/>
</linearGradient>
<linearGradient id="paint3_linear" x1="9.14258" y1="42.8488" x2="22.6769" y2="51.8728" gradientUnits="userSpaceOnUse">
<stop stop-color="#2EE5FF"/>
<stop offset="1" stop-color="#44D83D"/>
</linearGradient>
<linearGradient id="paint4_linear" x1="1.64648" y1="57.5268" x2="19.2187" y2="78.0962" gradientUnits="userSpaceOnUse">
<stop stop-color="#2EE5FF"/>
<stop offset="1" stop-color="#44D83D"/>
</linearGradient>
<linearGradient id="paint5_linear" x1="8.49609" y1="42.4205" x2="23.3445" y2="52.3281" gradientUnits="userSpaceOnUse">
<stop stop-color="#2EE5FF"/>
<stop offset="1" stop-color="#44D83D"/>
</linearGradient>
<linearGradient id="paint6_linear" x1="46.3105" y1="57.9551" x2="62.38" y2="77.4582" gradientUnits="userSpaceOnUse">
<stop stop-color="#2EE5FF"/>
<stop offset="1" stop-color="#44D83D"/>
</linearGradient>
<linearGradient id="paint7_linear" x1="53.1582" y1="42.8488" x2="66.6925" y2="51.8728" gradientUnits="userSpaceOnUse">
<stop stop-color="#2EE5FF"/>
<stop offset="1" stop-color="#44D83D"/>
</linearGradient>
<linearGradient id="paint8_linear" x1="45.6621" y1="57.5268" x2="63.2343" y2="78.0962" gradientUnits="userSpaceOnUse">
<stop stop-color="#2EE5FF"/>
<stop offset="1" stop-color="#44D83D"/>
</linearGradient>
<linearGradient id="paint9_linear" x1="52.5117" y1="42.4205" x2="67.3601" y2="52.3281" gradientUnits="userSpaceOnUse">
<stop stop-color="#2EE5FF"/>
<stop offset="1" stop-color="#44D83D"/>
</linearGradient>
<linearGradient id="paint10_linear" x1="19.125" y1="60.0482" x2="41.8644" y2="87.9998" gradientUnits="userSpaceOnUse">
<stop stop-color="#2EE5FF"/>
<stop offset="1" stop-color="#44D83D"/>
</linearGradient>
<linearGradient id="paint11_linear" x1="28.9629" y1="38.6177" x2="48.2558" y2="51.646" gradientUnits="userSpaceOnUse">
<stop stop-color="#2EE5FF"/>
<stop offset="1" stop-color="#44D83D"/>
</linearGradient>
<linearGradient id="paint12_linear" x1="18.4766" y1="59.6194" x2="42.727" y2="88.6521" gradientUnits="userSpaceOnUse">
<stop stop-color="#2EE5FF"/>
<stop offset="1" stop-color="#44D83D"/>
</linearGradient>
<linearGradient id="paint13_linear" x1="28.3164" y1="38.1894" x2="48.9234" y2="52.1013" gradientUnits="userSpaceOnUse">
<stop stop-color="#2EE5FF"/>
<stop offset="1" stop-color="#44D83D"/>
</linearGradient>
<linearGradient id="paint14_linear" x1="11.6992" y1="14.1213" x2="26.0905" y2="21.56" gradientUnits="userSpaceOnUse">
<stop stop-color="#2EE5FF"/>
<stop offset="1" stop-color="#44D83D"/>
</linearGradient>
<linearGradient id="paint15_linear" x1="7.74414" y1="18.1726" x2="13.3527" y2="19.4031" gradientUnits="userSpaceOnUse">
<stop stop-color="#2EE5FF"/>
<stop offset="1" stop-color="#44D83D"/>
</linearGradient>
</defs>
</svg>
