<svg width="70" height="70" viewBox="0 0 70 70" fill="none" xmlns="http://www.w3.org/2000/svg">
<mask id="mask0" mask-type="alpha" maskUnits="userSpaceOnUse" x="32" y="14" width="10" height="46">
<path fill-rule="evenodd" clip-rule="evenodd" d="M36.9792 23.6667C39.43 23.6667 41.4167 21.68 41.4167 19.2292C41.4167 16.7785 39.43 14.7917 36.9792 14.7917C34.5285 14.7917 32.5417 16.7785 32.5417 19.2292C32.5417 21.68 34.5285 23.6667 36.9792 23.6667ZM36.9792 41.4167C39.43 41.4167 41.4167 39.43 41.4167 36.9792C41.4167 34.5285 39.43 32.5417 36.9792 32.5417C34.5285 32.5417 32.5417 34.5285 32.5417 36.9792C32.5417 39.43 34.5285 41.4167 36.9792 41.4167ZM41.4167 54.7292C41.4167 57.18 39.43 59.1667 36.9792 59.1667C34.5285 59.1667 32.5417 57.18 32.5417 54.7292C32.5417 52.2785 34.5285 50.2917 36.9792 50.2917C39.43 50.2917 41.4167 52.2785 41.4167 54.7292Z" fill="white"/>
</mask>
<g mask="url(#mask0)">
<path fill-rule="evenodd" clip-rule="evenodd" d="M36.9792 23.6667C39.43 23.6667 41.4167 21.68 41.4167 19.2292C41.4167 16.7785 39.43 14.7917 36.9792 14.7917C34.5285 14.7917 32.5417 16.7785 32.5417 19.2292C32.5417 21.68 34.5285 23.6667 36.9792 23.6667ZM36.9792 41.4167C39.43 41.4167 41.4167 39.43 41.4167 36.9792C41.4167 34.5285 39.43 32.5417 36.9792 32.5417C34.5285 32.5417 32.5417 34.5285 32.5417 36.9792C32.5417 39.43 34.5285 41.4167 36.9792 41.4167ZM41.4167 54.7292C41.4167 57.18 39.43 59.1667 36.9792 59.1667C34.5285 59.1667 32.5417 57.18 32.5417 54.7292C32.5417 52.2785 34.5285 50.2917 36.9792 50.2917C39.43 50.2917 41.4167 52.2785 41.4167 54.7292Z" fill="url(#paint0_linear)"/>
</g>
<defs>
<linearGradient id="paint0_linear" x1="31.4228" y1="37.0893" x2="42.1506" y2="39.2349" gradientUnits="userSpaceOnUse">
<stop stop-color="#20D0EE"/>
<stop offset="0.981733" stop-color="#15E186"/>
</linearGradient>
</defs>
</svg>
