<?xml version="1.0" encoding="utf-8"?>
<!-- Generator: Adobe Illustrator 19.2.0, SVG Export Plug-In . SVG Version: 6.00 Build 0)  -->
<svg version="1.1" id="Layer_1" xmlns="http://www.w3.org/2000/svg" xmlns:xlink="http://www.w3.org/1999/xlink" x="0px" y="0px"
	 width="1146px" height="542px" viewBox="0 0 1146 542" style="enable-background:new 0 0 1146 542;" xml:space="preserve">
<style type="text/css">
	.st0{opacity:0.2;}
	.st1{fill:#B5B5B5;}
	.st2{fill:#468E40;}
	.st3{fill:#919191;}
	.st4{filter:url(#Adobe_OpacityMaskFilter);}
	.st5{fill:#FFFFFF;}
	.st6{mask:url(#mask-2);fill:#686868;}
	.st7{fill:#3A7534;}
	.st8{fill:#4F4F4F;}
	.st9{fill:#2E5E29;}
	.st10{fill:#5C656D;}
	.st11{fill:#40683C;}
	.st12{filter:url(#Adobe_OpacityMaskFilter_1_);}
	.st13{mask:url(#mask-4);fill:#4F4F4F;}
	.st14{filter:url(#Adobe_OpacityMaskFilter_2_);}
	.st15{mask:url(#mask-6);fill:#5C656D;}
	.st16{filter:url(#Adobe_OpacityMaskFilter_3_);}
	.st17{mask:url(#mask-8);fill:#50555B;}
	.st18{fill:#15D3FF;}
	.st19{fill:#3F3F3F;}
	.st20{filter:url(#Adobe_OpacityMaskFilter_4_);}
	.st21{mask:url(#mask-10);fill:#6578A1;}
	.st22{fill:#595959;}
	.st23{fill:#263E62;}
	.st24{fill:#50555B;}
	.st25{fill:#404549;}
	.st26{fill:#8A8E91;}
	.st27{fill:#778493;}
	.st28{filter:url(#Adobe_OpacityMaskFilter_5_);}
	.st29{mask:url(#mask-12);fill:#8A8E91;}
	.st30{filter:url(#Adobe_OpacityMaskFilter_6_);}
	.st31{mask:url(#mask-14);fill:#324051;}
	.st32{fill:url(#Rectangle_1_);}
</style>
<title>Group 199</title>
<desc>Created with Sketch.</desc>
<g class="st0">
	<polygon id="Fill-1" class="st1" points="425,191.3 536.5,179 625,206.2 531.9,243 	"/>
	<polygon id="Fill-2" class="st2" points="1213.9,173 1174.2,180.9 1116.9,189.7 1064.9,192.3 944.9,178.3 899.1,187.9 831.2,182.6 
		796.8,193.2 758,180.9 724.5,186.1 703.9,183.5 676.2,194 634.5,181.8 527.5,224.7 398.1,173 347,178.3 408.7,280.8 779.1,284.3 
		1237,336 1237,173 	"/>
	<g id="Group-198" transform="translate(1.000000, 0.000000)">
		<path id="Fill-3" class="st3" d="M1211.6,185.5c-0.9,0.4-2,1.2-1.7,2.1c-1.5,0.5-3.1,0.6-4.7,0.3c-0.8-0.1-1.7-0.7-1.4-1.4
			c0.3-0.8,1.5-0.6,2.2-1c0.6-0.4,0.9-1.1,1.2-1.8c1.3-2.5,4.4-3.2,7.2-3.6l-0.3,0.5c1.6,0.3,3.2-0.7,4.6-1.5
			c1.5-0.8,3.4-1.4,4.6-0.3C1220.6,182.4,1215.8,183.7,1211.6,185.5z M1206.3,195.9c-1.2,0.7-2.3,1.5-3.7,1.7
			c-1.3,0.2-2.9-0.1-3.7-1.2c-0.2-0.3-0.3-0.6-0.4-0.9c-0.4-1.8,1.3-3.3,2.9-4.4l0.5-0.1C1204.5,190.8,1206.8,193.4,1206.3,195.9z
			 M1195,200c-0.3,1.2-1.9,1.5-3.1,1.5c-2.8,0.1-5.6,0.2-8.4,0.2c0.9-1.4,1.8-3,3.4-3.6c1.4-0.6,2.9-0.3,4.4-0.1l0.4-0.6
			c0.8,0,1.6,0.1,2.3,0.5C1194.8,198.4,1195.2,199.2,1195,200z M1121,193.6c-1.1,1.2-2.9,1.8-4.4,1.1c0.1-1.3,0.3-2.7,0.4-4l1.1-0.4
			c1.5-1,3.4-1.4,5.1-1C1122.6,190.9,1122.1,192.5,1121,193.6z M1074.4,197.5c2.3-1,4.9-1.3,7.3-1l-0.4-0.1c1.7-0.2,3.5,0.3,4.9,1.3
			C1082.6,199.7,1077.9,199.6,1074.4,197.5z M1056.7,210.4c-3.6-1.1-7.3,1.2-10.4,3.3c-0.5,0.3-1,0.7-1.3,1.3
			c-0.3,0.5-0.3,1.1-0.6,1.6c-0.4,0.6-1,0.8-1.7,1.1c-2.2,0.8-4.5,1.6-6.7,2.4c-1.1-0.7-0.7-2.6,0.4-3.4c1.1-0.8,2.5-1,3.6-1.7
			c1.2-0.7,2.1-2.2,1.3-3.3c2.3,0.8,5-1.2,5.1-3.6c0-0.6-0.1-1.2,0.2-1.7c0.3-0.4,0.8-0.6,1.1-1c0.6-0.8,0.2-2-0.6-2.6
			c-0.8-0.6-1.9-0.7-2.8-0.8c-2.9-0.3-5.8-0.6-8.6-0.9c-0.3,0-0.7-0.1-1,0.2c-1,0.8,1.1,2.4,0.3,3.4c-0.2,0.2-0.5,0.3-0.8,0.4
			c-2.7,0.7-5.3,1.3-8,2c-0.1,0.1-0.2,0.2-0.3,0.2c-2.5,2.2-6.3,2.7-9.4,1.3c0.1-2.7,1.5-5.4,3.8-7c-1.1-0.2-2.3-0.5-3.4-0.7
			c2.5-2.2,6.1-3.1,9.3-2.4c2,0.4,4.1,1.4,5.8,0.2c0.8-0.5,1.2-1.4,2-2c0.7-0.5,1.5-0.6,2.3-0.9c3.8-1.6,3-5.1,7.4-5.3
			c1.1,0,13.6,2.2,13.6,2.4c-2.3,2.8-5.9,4.5-9.5,4.4c0.4,1.3,1.6,2.3,3,2.4c-0.5,0.1-0.7,0.8-0.5,1.3c0.2,0.5,0.7,0.8,1.2,1.1
			c2.2,1.3,4.3,2.5,6.5,3.8C1057.3,207.1,1056.8,208.8,1056.7,210.4z M960.4,203.9c0,0.8-0.1,1.5-0.1,2.3c-3.7-1.8-7.4-3.6-11.2-5.3
			c-0.8-0.4-1.7-0.8-2.6-0.6c-0.6,0.1-1.2,0.5-1.7,0.9c-2.1,1.5-4.2,2.9-6.3,4.4c1.1,0,2.3,0,3.4,0c0.6,1.9-1,3.9-2.9,4.5
			c-1.9,0.6-4,0.1-5.9-0.3c0.4-1.5,1.6-2.6,2.6-3.8c1-1.2,2-2.6,1.8-4.1c-0.2-1.5-2.2-2.8-3.3-1.8c-0.1-1.5-0.3-2.9-0.4-4.4
			c-5.6,2.3-11.2,4.6-16.8,6.8c-5.4,2.2-11,4.5-16.9,4.5c0.5-1.6,1.1-3.3,2.4-4.2c1.3-1,3.7-0.8,4.2,0.8c4.2-0.9,9.2-2.6,9.9-6.8
			c0.2-1.2,0-2.6,0.6-3.7c1.1-2.1,4.1-2.1,6.4-1.7c-0.1,1.6,0.1,3.1,0.5,4.6c2.1-1.2,4.2-2.4,6.4-3.6c-0.2,0.1-0.9-2.7-0.9-3
			c2.4-0.2,4.9,1.3,6.3,3.3c0,3.7,5,6.4,8.1,4.3c0.1-1.6-0.3-3.2-1.3-4.6c3.8,0,7.6,0,11.5,0c-0.6,0.5-1.3,1-1.9,1.5
			c1,2.4,2,4.8,2.9,7.2c10.8,0.2,21.5,0.5,32.3,0.7C978.5,202.4,969.4,203.1,960.4,203.9z M953.9,217.5c-0.9,0-2-0.6-1.8-1.5
			c0.2,0.4,0.8,0,0.8-0.4c0-0.4-0.3-0.7-0.5-1.1c-0.8-1.3,0.1-3.3,1.7-3.5l-1.6-0.6c1.9-0.8,4.4,0.5,4.9,2.6
			C957.7,215.1,956,217.4,953.9,217.5z M946.2,219.3c-1.2,0.9-3.1-0.4-3-1.8c0.1-1.5,1.8-2.5,3.2-2.2l0.3,0.5
			C947,217,947.2,218.5,946.2,219.3z M1236.2,173h-23.1l-39.7,7.9l-57.3,8.8l-52,2.6l-119.9-14.1l-45.9,9.7
			c0.4,6.2,0.7,8.1-3.6,12.7c-0.1,0.1-4.4,5.8-4.5,5.9l8.1-18.6l-67.9-5.3L796,193.3L757.2,181l-33.5,5.3l-20.6-2.6l-27.7,10.6
			l-41.7-12.4l-48.6,19.6c-1.5,6.4-2.2,14.1-1.4,20.7c0.2,1.7,0.5,3.5-0.1,5.2c-0.4,1.3-1.3,2.3-1.9,3.5c-1.9,3.7-1.1,8.6,2,11.4
			c5.4-2.8,10.9-5.7,16.3-8.5c1.9,2.7,5.4,3.6,7.9,5.7c2.5,2.1,3.6,6.8,0.7,8.2c1.5,2.5,5,2.9,7.8,2.2c2.8-0.7,5.3-2.3,8.2-2.9
			c4.2-0.8,8.7,0.9,11.3,4.3c3.9-3.6,6.9-8.1,8.8-13c-3.2-0.7-6.1-2.4-8.3-4.7c6.8-1.5,14.4,1.8,18,7.7c-0.4-1.4-0.8-2.8-1.3-4.1
			c3.6,1.7,8.2,1.2,11.4-1.2c-14-6.3-29.5-9.4-44.9-8.8c-2.3,0.1-5.7-0.8-5.2-3.1c-2.5-0.1-5-0.2-7.5-0.3c3-4.1,5.6-8.6,7.7-13.2
			c-4.3-1.1-8.6-2.2-12.8-3.2c7.1-4.6,14.4-9,22.5-11.3c1.4-0.4,2.8-0.7,4.2-1c3.3-0.6,6.7-0.8,10-0.6c-2.3,2.3-3.8,5.4-4.2,8.7
			c1.2,0.3,2.4,0.7,3.7,1c-5.2,1.6-9.7,5.5-12.1,10.4c6.2-4.3,13.2-7.5,20.5-9.5c-2.4,3.1-5.5,5.8-8.9,7.8
			c9.7-4.8,19.4-9.6,29.2-14.5c-5.7,3.9-11.4,7.8-17.1,11.7c7.6-2.4,15.1-4.8,22.7-7.3c-7,3.7-14,7.5-21.1,11.2
			c1.3-0.4,2.8-0.5,4.1-0.1c-0.2,1.8-0.4,3.7-0.5,5.5c7.8-2.7,16.4-2.8,24.2-0.3c-2-0.6-3.8-2-4.9-3.8c1.8-0.7,3.7-1.5,4.6-3.2
			c0.7-1.4,0.1-3.5-1.2-4.1c2.6,0.3,5.3-1,6.5-3.3c7.2,4.6,13.1,11.2,16.9,18.9c-2-8.5-5.7-16.7-10.8-23.9
			c9.6,0,14.4,13.3,23.8,14.9c2.1,0.4,4.4,0.1,6.3,1c1.6,0.8,2.8,2.4,4.5,3.2c3,1.5,6.5,0.3,9.9,0.3c3.3,0,7.3,3.1,5.8,6
			c-2.7,1-5.4,2-8.1,3c-1.6,0.6-3.3,1.3-4.3,2.7c-0.9,1.4-0.6,3.8,1.1,4.3c-2.8-0.1-5.7-0.3-8.5-0.4c0-1.8-0.1-3.5-0.1-5.3
			c-0.8,1.2-1.6,2.4-2.3,3.7c-2-1.8-4.9-2.4-7.4-1.6c-1.7,0.5-3.1,1.6-4.8,2.2c-1.9,0.7-3.9,0.8-5.9,0.8
			c-10.4,0.1-20.8-0.8-31.1-2.6c12.3,9.3,31.7,5.1,42.7,15.8c3.2-2.4,6.5-4.5,10-6.3c1,1.5,1.4,3.3,1.3,5c1.8,0.6,3.8,0.1,5.2-1.1
			c-0.4-1.3-0.1-2.8,0.8-3.7c2.2,0.2,4.4,1,6.2,2.4c-1-1.9,2.5-2.9,4.6-2.3c-0.8-1.5-0.5-3.5,0.6-4.9c-2.1-0.9-3.7-2.8-4.1-5
			c1.9,0.6,3.9,1.1,5.9,1.7c-0.2-0.5-0.2-1.5,0.4-2c0.9-0.7,2.3-2,1.3-2.8c2.1-0.1,4.2-0.3,6.4-0.4c0.4-1,0.2-2.3-0.4-3.2
			c1.6,1.2,3.2,2.5,4.8,3.7c4.1-3.8,1-10.6-2.2-15.1c0.9-0.1,1.8-0.2,2.7-0.3c-4-5.9-10.2-10.2-17.1-11.9c4-0.5,7.9-1.1,11.9-1.6
			c4-0.5,9.3-0.2,10.2,3.7c4.8-4.1,12.2-4.7,17.6-1.5c-3.1,1.7-6.1,3.3-9.2,5c5,0.6,9.9,1.1,14.9,1.7c-2.5,1.5-5.1,3.1-8,3.2
			c-2.6,0.1-5.2-0.9-7.6-0.2c-2.5,0.7-4.1,4.5-1.8,5.7c-2,6.1-4,12.2-6,18.3c-2.4-1-4.8-1.9-7.2-2.8c-1,2.5-3,4.6-5.6,5.5
			c3,2,3.9,5.9,5.4,9.2c1.5,3.3,4.7,6.6,8.2,5.6c1.2-0.3,2.2-1.2,3.4-1.4c3.5-0.5,5.2,4,6.6,7.3c1.8,4.2,5.4,7.6,9.6,9.2
			c4.4-3.7,11-4.4,16.1-1.6c-0.9-3.1-4.1-5.3-7.3-5c-3.6-3.1-7.1-6.3-10.7-9.4c-1.3-1.1-2.6-2.4-3-4c-0.4-1.7,0.8-3.8,2.5-3.6
			c-0.7-1.5-1.4-3-2.1-4.4c3.1,0.3,6,2.1,7.5,4.8c1.1-0.7,2.2-1.3,3.4-2c2.7,3.8,6.4,8.1,10.9,7.4c1-8.8-5-17.9-13.5-20.5
			c-0.1,2.2-1.3,4.3-3.1,5.5c-1.3-3.6-1.3-7.7,0.1-11.2c2,0.1,4,0.1,6,0.2c-1.7,0,0-2.7,1.6-2.8c2.5-0.2,5,0.3,7.2,1.3
			c-0.7-1.8-1.3-3.6-2-5.4c2.3-0.8,4.9-0.8,7.2,0c-0.4-1.8,1.8-3.5,3.4-2.7c-1.5-2.3-1.8-5.4-0.6-7.9c2.2,0.5,4.4,0.9,6.6,1.4
			c4.1,4.6,6.8,10.4,7.6,16.5c3.1-3.1,9.5-0.7,9.7,3.6s-6.3,7.2-9.2,4c-1.3-3.1-3.8-5.6-6.8-7c1.6-1.1,3.4-2.4,3.9-4.4
			c0.5-1.9-1.3-4.4-3.2-3.7c-0.7,0.3-1.2,0.9-1.7,1.5c-2.7,3.4-5.4,6.8-8.1,10.3c-0.6,0.8-1.3,1.7-1.6,2.7c-0.4,1.4-0.1,2.8,0.3,4.2
			c1,3.9,2,7.9,2.9,11.8c4.6-3.2,11-3.3,15.7-0.2c2-3.3,3.9-6.7,5.9-10c2.9,0.4,5.6,1.9,7.7,4c-2.3,1.1-4.8,2.6-5.3,5.1
			c-0.5,2.5,3,5.1,4.5,3.1c0.1-1.2-0.2-2.4-0.8-3.4c5.5,0.8,11.3-0.8,15.7-4.2c1.5-1.2,2.8-3.4,1.5-4.7c-1-0.3-2.1-0.5-3,0
			c-0.9,0.5-1.3,2-0.4,2.5c-3.4-3-7.4-5.5-11.6-7.3c2.8-1.8,3.6-6.1,1.7-8.8c3.1-2.7,6.3-5.5,9.5-8.2c-5.3,1.2-10.6,2.3-16,3.5
			c0.4-4.7,3.8-9.1,8.3-10.6c-4-0.2-7.6-3.5-8-7.5c7.1-0.8,14.5,2,19.3,7.3c-0.1,2.8,5.3,0.3,7.3,2.3c0.6,0.5,0.8,1.3,0.9,2.1
			c1.2,5.1,2.4,10.2,3.5,15.4c-3.5-1.4-7.4-1.4-10.9-0.1c0.8,3.2,3.9,5.6,7.1,5.6c0.5,2.8,1,5.6,1.6,8.3c4.9-1.5,7.9-7.5,6-12.3
			c2,0.2,3.4-2.1,3.6-4.1s0.1-4.2,1.3-5.8c2-2.7,7.5-4,6.1-7c-3.7,1.9-8.1,2.5-12.2,1.5c0.5-1.3,1-2.6,1.6-3.9
			c-1.2-0.7-2.4-1.4-3.6-2c4.6-6.3,14.4-4,21.7-1.1c-0.3,1.2-0.7,2.5-1,3.7c1.3,0.2,2.5,0.2,3.8,0.1c-1.3,1-2.6,2.1-3.8,3.2
			c-6.1,5.9-9.3,14.2-12.2,22.2c11.5-3.3,15.3-21,27.2-21.9c-1,2.4-2,4.8-3.1,7.2c7.6-4.3,15.5-8.1,23.6-11.4
			c2.1,4.8-0.5,11.1-5.3,13.1c1.6,1.8,3.3,3.7,3.9,6.1c0.5,2.4-0.5,5.3-2.9,5.9c3.9-0.4,4.8,5.4,3.7,9.1c-1.1,3.7-1.9,9.1,1.8,10.3
			c3.5,0.8,7.3,0.5,10.7-0.9c-2.1-1.1-4.2-2.2-6.2-3.2c0.9-0.8,1.9-1.7,2.8-2.5c-2.1-0.5-4.1-0.9-6.2-1.4c-0.2-4.1,2.7-7.5,4.8-11.1
			c2-3.5,3-8.7-0.3-11.2c4-2.8,8.9-5.8,13.4-3.8c2.6,1.1,4.2,3.7,6.5,5.2c2.3,1.6,6.3,1.6,7.1-1.1c1.7,7.1,6.2,13.4,12.3,17.4
			c-0.7-3.4,0.5-7.1,3-9.4c-1-1.4-2-2.7-2.9-4.1c4.9,4.4,9.4,9.3,13.4,14.5c3.5-1.4,1.9-6.6-0.2-9.7c-4.7-6.8-9.3-13.6-14-20.4
			c3.2-1.2,7.1,2.1,6.5,5.4c1.3-1.5,2.7-3,4-4.5c-1.7-1.4-2.7-3.6-2.7-5.8c3.3-2,8.2,0.5,8.6,4.4c1.2-2.8,5-4,7.6-2.5
			c1.4,0.8,2.3,2.3,3.5,3.4c5.4,5.2,14.2,2.6,21.1-0.3c0.4,2,1.2,3.8,2.4,5.5c3.5-2,7.7-2.9,11.7-2.6c-3.2,2.7-6.4,5.5-9.7,8.2
			c2.1,1,3,3.8,2.1,5.9c3.5,1.6,7.4,2.3,11.3,2c-1,2.2-1.4,4.6-1.2,7c5.4,0.5,10.7,1.1,16.1,1.6c-1.1,0.5-0.8,2.3,0.2,3
			c1.1,0.6,2.4,0.4,3.6,0.4c6.5-0.4,13,2.8,16.6,8.2c-1.7,1.6-3.1,3.5-4.2,5.6c2.9,0,5.8,0,8.7-0.1c3.2-11.1,24.2-7.3,27.4-18.4
			c-9.7,1.3-19.4,2.6-29,3.9c-3.1-3.8-8.2-5.9-13.1-5.4c6.5-10.1,20-15.2,31.6-11.9c1.9,0.5,4.1,2.7,2.6,4
			c-4.6-0.4-9.3-0.8-13.9-1.2c0.1,1.9,0.2,3.8,0.3,5.7c-1.5,0.6-3.2,0.3-4.5-0.7c-1.1,1.7,0.4,4.1,2.3,4.7s4,0,6-0.7
			c6.2-2,12.4-4.1,18.7-6.1c6.9,1.6,14.2,1.4,21.1-0.5c-5-5.9-13.5-6.6-20.8-9.1c-9-3.1-17-9.4-21.9-17.6c6.9-1.5,13.1,4,18.6,8.5
			c5.5,4.4,13.9,8,19.1,3.3c-4.4-2.2-8.8-4.5-13.2-6.7c0.9-1.8,1.7-3.6,2.6-5.5c7.8-1.5,15.6-3.1,23.4-4.6c0.7,1.8,1.4,3.6,2.1,5.4
			c1.6-1,3.2-1.9,4.8-2.9c1.1,1.8,3,3.2,5,3.6c-7.1,3.2-15,4.6-22.7,4.1c3.1,2.5,7.1,3.6,11,3.2c-0.9,2.1-0.8,4.6,0.4,6.5
			c-2,0.7-4,1.4-5.9,2.1c1.2,3.6,3.4,6.9,6.1,9.5c-2.3,1.9-4.5,3.8-6.8,5.7c8.4,1.8,17.3,1.3,25.5-1.3c-4.2-3.2-8.3-6.5-12.5-9.7
			c-0.6-0.4-1.1-0.9-1.4-1.5c-1-2.1,1.8-4.3,4-3.8c2.2,0.5,3.8,2.4,5.4,4.1c1.6,1.7,3.6,3.3,5.9,2.9c3.8-0.7,6.5-6.7,9.8-4.8
			c2.6,9.5,0.1,20.2-6.3,27.7c5.4-4.8,9.6-10.9,12.4-17.6c1-2.4,1.8-5,1.6-7.5c-0.8-11.6-18.6-14.8-21.9-26
			c7.7,5.3,20.1,0.7,22.5-8.4c3-2.4,7.2-3.1,10.8-1.8c-1.8,1.5-3.6,3-5.4,4.5c-2.5,6.1-1.5,13.4,2.5,18.6
			c-1.8-4.5-0.2-10.2,3.7-13.2c-0.3,4,1.6,7.8,1.8,11.8c0.2,4-3.1,8.8-6.8,7.5c3.6,1.1,4.9,6.6,2.1,9.2c6.3-1.2,12.1-4.5,16.3-9.2
			c-0.1-3.1,0.4-6.2,1.3-9.1c2.4,2.3,3.4,6,2.4,9.2c3,1.8,7.1-1.1,7.9-4.5c0.8-3.4-0.5-6.9-1.8-10.2c2.5-1.8,5.9-2.8,8.8-1.6
			c2.9,1.2,4.5,5.2,2.5,7.6c2.7,0.9,5.5,1.8,8.2,2.7c0.1,1.6-0.6,3.1-1.8,4.1c1.6,0.5,3.4,0.5,5,0c0.6-4.6,6.2-7.7,10.3-5.7
			c-3.1-4.6-5.2-9.9-6.1-15.4c3-0.1,6.1-0.2,9.1-0.3L1236.2,173z"/>
		<path id="Fill-5" class="st3" d="M988.1,270c-0.1-0.8,0.1-1.6,0-2.4c-0.3-4.5-6.1-6.4-8-10.5c-0.7-1.6-1.4-5.8-4.2-4.9
			c-2.2,0.7-1.3,4.2-0.2,5.5c1.2,1.3,3.1,1.9,4.1,3.4c0.9,1.3,0.8,3.1,1.7,4.3c0.3,0.4,0.7,0.8,1,1.2c0.6,0.7,1,1.4,1.4,2.2
			c1.1,2.2,2.3,4.4,3.4,6.6c0.9,1.6,1.7,3.4,1.9,5.2c0.6,0.1,0.9-0.8,0.9-1.4c0-2.2-0.4-4.4-1.2-6.4
			C988.6,271.8,988.2,270.9,988.1,270"/>
		<path id="Fill-7" class="st3" d="M742.6,233.7c-0.3-0.1-0.5-0.2-0.8-0.2C742,233.9,742.3,234,742.6,233.7"/>
		<path id="Fill-9" class="st3" d="M651.2,214c-0.9,0.3-1.7,0.7-2.5,1.3C649.6,214.8,650.4,214.4,651.2,214"/>
		<path id="Fill-11" class="st3" d="M637.5,212.7c-1.4,0.7-2.9,1.4-4.3,2.1C634.7,214.3,636.1,213.6,637.5,212.7"/>
		<path id="Fill-13" class="st3" d="M522,235.9c0.1,0,0.2,0,0.3,0C522.2,235.9,522.1,235.9,522,235.9"/>
		<path id="Fill-15" class="st3" d="M574.5,238.3c-1.5-1.9-2.2-4.3-2.9-6.7c-0.2-0.9-0.5-1.9,0-2.6c1.1-1.8,5.2-1.1,5-3.3
			c-4.6-2.5-10-3.7-15.2-3.4c-0.1-1.3-0.2-2.6-0.3-3.9c-3.2-0.8-6.7-0.7-9.8,0.5c-0.3-1.6,0.9-4-0.6-3.4c-2,0.8-4.3,3.4-5.2,5.7
			c-1.1,2.8-4.5,3.8-7.5,4.4c-4.1,0.8-8.1,1.6-12.2,2.4c-1,0.2-2.2,0.4-3-0.3c-0.7-0.5-0.9-1.5-1.3-2.3c-0.9-1.7-1.1-2.6-2.9-3.4
			c-22.7-10-46.6-18.9-69.3-28.9c-1.8-0.8-10-3-10-3s-3.3,2.3-5.2,2.3c-4.2-0.1-8.2-4.9-11.7-2.7c-1.1,0.7-2,2-3.3,1.8
			c-1.5-0.2-1.8-2.3-2.6-3.6c-2-3.1-6.6-1.4-10.3-1.1c-4.6,0.4-9.4-2.3-11.5-6.5c5.9,2.8,14.4,2.8,20.3,0.1c-5-3.8-14.9-7.8-18-7.8
			c-2.4,0-4.7,0.5-7.1,1c-9,1.9-18.2,3.1-27.4,3.4c1,0,5,3.8,6.1,4.5c1.9,1.1,3.4,2.2,5.2,3.5c4.3,3.1,8.9,3.7,14,4.9
			c-1.6,5.2-2.6,11.9,1.8,15c1.2,0.9,2.7,1.3,4.1,1.6c17,4.6,34.1,9.1,51.5,12c8.3,1.4,16.8,2.4,25,4.3
			c17.3,4.1,33.7,12.3,51.5,13.3c-0.7-0.2-1-1.4-0.5-2c0.6-0.8,1.6-0.9,2.6-1.1c12.5-1.6,25.1-2.3,37.7-2.1c-3,4.6-7.3,8.5-12.2,11
			c1.8,0.8,3.4,2.2,4.4,3.9c3.1-1.1,6.2-2.2,9.4-3.4c-0.9,2.5,1.2,5.3,3.8,6.1c2.5,0.8,5.3,0.2,7.9-0.4c0.9-3,3.2-5.6,6-7
			C578.6,241.6,576.1,240.2,574.5,238.3"/>
		<g id="Group-19" transform="translate(538.985819, 243.271640)">
			<g id="Clip-18">
			</g>
			<defs>
				<filter id="Adobe_OpacityMaskFilter" filterUnits="userSpaceOnUse" x="0.1" y="0.4" width="697.1" height="168.3">
					<feColorMatrix  type="matrix" values="1 0 0 0 0  0 1 0 0 0  0 0 1 0 0  0 0 0 1 0"/>
				</filter>
			</defs>
			<mask maskUnits="userSpaceOnUse" x="0.1" y="0.4" width="697.1" height="168.3" id="mask-2">
				<g class="st4">
					<polygon id="path-1" class="st5" points="0.1,0.4 697.2,0.4 697.2,168.7 0.1,168.7 					"/>
				</g>
			</mask>
			<path id="Fill-17" class="st6" d="M697.2,32.1L557.7,11.8l-97,45L242.9,23.3L171.8,0.4L62.1,6.5c0,0-53.9-6.2-61.8-6.2
				s160.9,168.3,160.9,168.3l181-50.8l355,21.8V32.1z"/>
		</g>
		<path id="Fill-20" class="st7" d="M672.4,308.8c3,3.5,7.2,7.3,11.7,6c0.1-1.5,0.2-2.9,0.2-4.4c5.1-0.1,9.3,3.7,12.9,7.2
			c7.5,7.2,14.9,14.5,22.4,21.7c2,1.9,4,3.9,5.7,6.1c1.9,2.4,3.4,5,5.1,7.5c4.5,6.5,10.6,11.9,17.6,15.6c0.1-1.8,0.2-3.7,0.2-5.5
			c2,0.4,4,0.7,6,1.1c-7.1-7.6-12.6-16.7-16.2-26.5c0.6,1.6,3.3,1.8,4,0.3c3.8-1.3,7.7-2.2,11.7-2.7c-3.7-3.5-6.7-7.7-8.7-12.3
			c3.3,1.3,6.9,1.9,10.4,1.7c1.2-1.8-0.1-4.2-1.4-5.9c-2.2-2.9-4.8-6-8.4-6.5c-3.6-0.4-7.4,4-5,6.8c-1.3-0.2-2.6-0.5-3.8-0.7
			c-3.1,2.6-4.2,7.3-2.5,11c-1.4,0.4-2.9,0.3-4.1-0.3c-0.2,1.5-0.5,2.9-0.7,4.4c-5.8-7-12.3-13.3-19.4-18.9
			c-0.8-0.6-1.8-1.3-2.7-0.8c-0.9,0.4-0.3,2.3,0.6,1.7c-3.1-1.7-5.7-4.4-7.2-7.5c4.4-0.7,8.8-1.9,12.9-3.7
			c0.4-10.8-9.4-18.8-18.3-24.9c2,5.2,4,10.3,6.1,15.5c-4.6,0.9-8.7,3.8-10.9,7.9c-1.2,0-2.3,0.1-3.5,0.1c-2.6,1-5.1,1.9-7.7,2.9
			c-1.8,0.7-13.4-17.6-18.7-16.6C654.9,289.8,670.3,306.2,672.4,308.8"/>
		<path id="Fill-22" class="st7" d="M789.2,338.3c5.4,7.4,10.8,14.9,14.8,23.2c-0.5-1.9-1-3.8-1.5-5.7c1.2-0.1,2.5-0.1,3.7,0.2
			c-4.8-8.1-9.6-16.3-14.3-24.4c2.7,1.5,5.4,3.1,8.1,4.6c0.2-1.7,0-3.4-0.5-5c2,0.2,3.8,1.2,5.1,2.7c-4.8-8.2-10-16.2-15.6-23.9
			c1.7,2,3.3,4,4.3,6.3c1,2.4,1.2,5.2-0.2,7.4c-1.2,0-2.3,0.1-3.4,0.1c1.1,0.4,2,1.4,2.2,2.6c-4.9-3.5-9.3-7.6-13.3-12.1
			c-1.8-2-7.6-12.5-10.6-7.8C765.6,310.5,786.2,334.1,789.2,338.3"/>
		<path id="Fill-24" class="st7" d="M810.9,314.5c2.2,3,5.4,6.2,9,5.1c0.4-0.1,0.7-0.3,0.9-0.6c0.3-0.5,0-1.1-0.2-1.5
			c-3.3-6.4-7.9-12.2-13.5-16.8c-2-1.7-4.3-3.5-5-6c-0.2-0.8-0.4-1.2-1.4-1.1C797.8,297.9,808.1,310.6,810.9,314.5"/>
		<path id="Fill-26" class="st7" d="M850.1,363.1c0.2-1.3,0.3-2.6,0.5-3.9c1,2.6,4.6,2.9,7.3,2.1c2.7-0.7,5.5-2.1,8.1-1.2
			c-2.8-5.1,2.7-11.6,8.5-11.7c5.8-0.1,10.8,4,14.4,8.5c0.7,0.8,1.5,1.7,2.5,1.6c1-0.1,1.1-2.1,0.1-2c4.4,4.9,12.2,3.7,18.7,4.5
			c3.4,0.4,6.6,1.5,9.9,2.4c11.6,3.3,23.9,4.3,35.9,3.1c4.9-1.9,10.6-1.8,15.5,0.4c-5.7-6.9-11.4-13.9-17.2-20.8
			c-2.4-2.9-4.9-6-5.7-9.7c-0.9-3.9,0.1-8.5-2.6-11.6c-1.5-1.7-3.7-2.5-5.8-3.4c-5.2-2.4-9.6-6.5-12.3-11.6c0.9-0.9,0.1-2.4-0.8-3.3
			c-3.5-3.5-8.7-5.2-13.6-4.6c-2,3.5-1.2,8,0.8,11.4c2,3.4,5.2,6,8.3,8.5c-5.7,0.1-11.3,0.1-17,0.2c1.1,3.9,3.7,7.5,3.8,11.6
			c0.1,4.1-4.3,8.5-7.7,6.2c-0.2,1.7-0.4,3.5-0.6,5.2c-1.7,0.1-3.5,0.1-5.2,0.2c0.3,1.9-0.3,3.8-1.6,5.2
			c-7.6-5.6-16.5-9.4-25.9-10.8c-1.6,2.3-2.9,4.7-3.9,7.3c-3,0.1-5.8-2.3-6.1-5.3c-1,2.9-5.5,1.5-7.7-0.7c-5.7-5.8-8.2-2.5-7.1,4
			C844.4,350.4,850.6,358.1,850.1,363.1"/>
		<path id="Fill-28" class="st7" d="M997.8,334.6c1.1-1.3,2.2-2.6,3.2-3.8c-0.6,3.3-0.1,6.7,1.4,9.7c1.9-2.8,3.6-5.7,4.9-8.8
			c-1.7,6.9-1.2,14.4,1.6,21.1c0.9-3,1.9-6.1,3.8-8.6c1.9-2.5,5.1-4.3,8.2-3.8c1.1,0.2,2.3,0.7,3.4,0.2c1-0.4,1.5-1.6,2.1-2.5
			c1.7-2.6,4.9-4.2,8-4c2.6,0.2,4.9,1.5,7.5,1.8s5.7-1.2,5.7-3.8c9.6-4.2,16.7-13.9,17.9-24.3c-0.6,0.7-1.9,0.1-2.2-0.8
			c-0.2-0.9,0.3-1.9,0.7-2.7c4.3-7.6,8.5-15.2,12.8-22.8c-1.3-0.9-2.6-1.7-3.8-2.6c0-1.4,0.7-2.7,1.9-3.4c-2.8-0.8-5.8,0.9-7.5,3.2
			c-1.7,2.3-2.4,5.2-3.2,8c-4.3,14.5-12.6,27.8-23.8,38c-1.1-3.9,1.5-9.3-1.9-11.5c-2.1-1.4-5-0.2-7.1,1.2
			c-5.6,3.6-10.4,8.3-14.2,13.7c-0.2-2-0.4-3.9-0.6-5.9c-1.7,0.7-3.5,1.5-5.2,2.2c-1.2-2.9-4.8-4.5-7.8-3.5
			c0.5-0.2-2.9-11.2-7.6-4.5C993.2,320.4,996.2,330.7,997.8,334.6"/>
		<path id="Fill-30" class="st7" d="M965,316c1.9,2.6,3.4,6,2.3,9c-0.4,1-1,1.9-1.1,2.9c-0.2,1.6,0.8,3.1,2,4.1
			c1.2,1.1,2.6,1.9,3.6,3.2c0.7,0.9,1.1,2.1,1.8,3c0.7,0.9,1.8,1.7,3,1.5c1.6-0.3,2.2-2.4,1.8-4c-0.4-1.6-1.4-3-1.8-4.5
			c-0.6-2.5,0.4-5.3,2.5-6.7c-1.7-0.7-2.1-3.3-0.6-4.4c0.5-0.4,1.1-0.6,1.4-1c0.8-1.1-0.2-2.7-1.3-3.3c-1.2-0.7-2.6-1-3.4-2.1
			c-0.9-1.3-1.1-3.5-2.7-3.6c-1-0.1-1.7,1-2.2,1.9c-1.3,0.2-2.6-0.7-3.3-1.8c-0.8-1.1-1.2-2.4-1.9-3.5c-1.8-3.1-5.2-2.7-5.6,0.8
			C959.1,310.1,963.5,314,965,316"/>
		<path id="Fill-32" class="st7" d="M886.4,329.2c1.9-2.6,1.2-6.8-1.5-8.6c1.1-0.3,1.1-2,0.3-2.9c-0.8-0.9-2-1.3-2.7-2.3
			c-1.4-2,0.2-4.8-0.6-7.1c-1-2.8-5-4.7-6.7-7.2c-3.3,3.3,0.7,9.1,2.3,12.4C878.3,315.1,886.8,328.6,886.4,329.2"/>
		<polygon id="Fill-34" class="st8" points="366.6,199.5 531.5,234.8 630.2,301.7 679.6,387.5 579.9,473.9 459.2,359.8 		"/>
		<path id="Fill-36" class="st9" d="M431.6,268.2c2.6,4.5,5.3,9,6.8,14c1.5,4.9,1.9,10.2,4.4,14.7c1.3,2.5,3.2,4.7,4.9,7
			c3.4,4.8,5.6,10.3,6.6,16c1.6-5.2,0.2-11.2-3.4-15.3c1.4-1.2,1.4-3.3,1.3-5.1c-0.2-4.4-0.5-8.8-0.7-13.3c1.2,2.2,4.8,1.9,6.4-0.1
			c1.6-2,1.6-4.8,1.1-7.3c-0.5-2.5-1.3-5-1.1-7.5c0.1-1.4,0.5-2.8,0.3-4.1c-0.6-3.2-4.2-4.7-6.2-7.2c-3-3.9-2.1-10.1-5.9-13.3
			c-2-1.7-4.7-2-7.1-2.9c-2.4-0.9-4.9-2.9-4.6-5.5c2.7,8.7,4.8,17.6,6.2,26.6c-2.1-0.5-3.5-2.4-4.5-4.3c-1.5-2.7-4.5-8-8-4.7
			C424.7,259.2,430,265.5,431.6,268.2"/>
		<path id="Fill-38" class="st9" d="M484.4,322.1c1.5,2.5,3.1,5,4.6,7.5c4.9,8,10.4,16.4,19,20c-0.7-3.6-1.9-7-3.6-10.2
			c6.9,5.8,19.1,2.6,22.4-5.8c4.1,3.1,8.8,5.3,13.8,6.6c-0.2-1.9-0.3-3.7-0.5-5.6c0.4,1.4,2.6,1.1,3.3-0.1c0.7-1.2,0.3-2.8-0.1-4.1
			c5.2,2.9,10.5,5.5,16,7.8c-0.6-1.5-1.1-3-1.7-4.6c3.1,0.4,6.3,0.8,9.4,1.2c-11.3-11.4-22.7-22.8-34-34.1c3.9,2.7,6.9,6.7,8.4,11.2
			c-2.3,1.8-3.2,5.1-2.2,7.7c-4.9-4-9.8-8-14.7-12c4.3,4.8,7.6,10.3,9.8,16.4c-1.1-0.3-2.4,0.7-2.4,1.9c-3.1-1.9-6.4-3.4-9.9-4.4
			c-4.8,1.1-10.2-1.3-12.7-5.6c1.9,4.7,3.7,9.3,5.6,14c-1.2,0-2.4,0.3-3.4,1c-4.7-2.9-9.5-5.9-13.1-10.1c-3.6-4.2-5.9-9.9-4.7-15.3
			c2.3,1.6,4.7,3.2,7,4.8c-0.2-7.2-1.3-14.5-3.4-21.4c1,0.8,2.1,1.6,3.1,2.4c0.1-2.8,0.2-5.7,0.2-8.5c1.9,0.7,3.9,1.3,5.8,2
			c-0.4-2.6-0.8-5.2-1.2-7.8c2.5,4.1,5.4,7.9,8.8,11.4c2.7-2.1,1.3-6.4-0.4-9.4c-7.4-12.6-16.8-24-27.8-33.5
			c3.7,6,6.6,12.4,8.7,19.1c-1.2-0.1-2.4,0.2-3.4,0.9c-0.1,1.9-0.2,3.8-0.3,5.7c-1.1-0.6-2.2-1.1-3.3-1.7c1,4.9,1.2,10,0.6,15
			c-0.8-0.7-2.3,0.5-1.8,1.4c-2.5-1.7-4.9-3.4-7.4-5.1c4.9,3.7-5.4,15.1-5.1,18.3C474.6,305.7,482.6,315,484.4,322.1"/>
		<path id="Fill-40" class="st9" d="M575.2,338.5c2.2,2,2.9,5.6,1.6,8.3c-0.7,1.4-1.8,2.5-2.1,4c-0.7,3.4,2.9,5.9,6,7.5
			c3.1,1.5,6.7,4,6.1,7.4c-0.1,0.6-0.3,1.1-0.4,1.7c0,1.9,2.2,3,3.9,3.9c4.1,2.1,7.1,6.2,8,10.7c-0.8-5.5-2.6-10.9-5.2-15.9
			c1.4-0.1,2.8-0.2,4.2-0.2c-1.6-2.2-3.2-4.3-4.8-6.5c-0.3-0.4-0.6-0.8-0.7-1.2c-0.2-0.8,0.2-1.5,0.4-2.3c1.2-3.8-1.5-8.3-5.3-9.2
			c0.4,2.4,0.2,5.5-2.1,6.1c-2,0.5-3.7-1.8-4-3.9c-0.2-2.1,0.3-4.3-0.3-6.3c3.8-1.9,0.5-7.5,1.6-10.7
			C580.9,332.7,577.1,340.2,575.2,338.5"/>
		<path id="Fill-42" class="st9" d="M594.8,322.4c2.3,3.4,4.7,7,8.4,8.8c-1.2-1-2.5-2-2.8-3.5c-0.4-1.5,0.8-3.4,2.3-3.1
			c0.6,0.1,1.1,0.5,1.7,0.3c0.6-0.2,0.4-1.3-0.1-1c3.4,2.4,7.5,3.8,11.6,4.1c-4.1-5.5-9.8-9.7-16.2-11.9c-0.9-0.3-1.8-0.6-2.5-1.2
			c-0.7-0.6-1.2-1.3-1.6-2.1c-1.9-3-4.9-6-8.5-5C586.9,313,592,318.2,594.8,322.4"/>
		<path id="Fill-44" class="st9" d="M540.6,268.2c1.6,2.5,3.3,4.9,4.2,7.7c0.7,2.2,1,4.6,1.9,6.7c1.7,4.2,5.6,7.1,7.5,11.2
			c1.3,2.8,1.5,6,1.9,9c0.5,3.1,1.3,6.2,3.5,8.4c2.2,2.2,6,3,8.3,0.9c-4.1-4-7.3-8.8-9.3-14.1c1.5-0.1,2.9-0.1,4.4-0.2
			c0.3-2.2-0.1-4.5-1.1-6.5c2.8,1.2,5.6,2.4,8.4,3.7c1.2,0.5,2.5,1.1,3.8,0.9c1.3-0.2,2.5-1.5,2.2-2.8c-0.2-0.7-0.8-1.2-1.4-1.7
			c-2.3-1.9-4.4-3.9-6.2-6.2c-4.1-5.1-7.3-11.4-13-14.6c0.8,4.1,1.5,8.1,2.3,12.2c-3.5-5.7-7.7-10.9-12.6-15.5
			c-4.1-3.8-7.4-7.1-8.4-12.8C530.7,257.1,538.4,264.8,540.6,268.2"/>
		<path id="Fill-46" class="st9" d="M609.8,364.5c-1.3,2.5,2.2,5,5,4.7c2.8-0.3,5.4-2,8.2-1.8c-1.2-1.4,0.2-3.9,2.1-4.1
			s3.6,1,4.9,2.4c1.3,1.4,2.4,3,4.1,3.9c1.6,0.9,3.8,1.4,4.1,3.2c0.1,0.9-0.3,1.8,0,2.6c0.5,1.4,3,1.1,3.5-0.4
			c0.6-1.4-0.3-3.1-1.4-4.1c-1.1-1-2.6-1.7-3.7-2.7c-2.9-2.6-3.4-7.3-6.5-9.6c-2-1.5-4.3-0.6-6.1-1.7c-1.4-0.8-2.2-3.8-3.5-4.2
			C608.3,348.9,621.7,362.6,609.8,364.5"/>
		<path id="Fill-48" class="st9" d="M640.5,351.5c0.6,3.4,0.2,6.9,1.4,10.1c1.2,3.2,5.2,5.7,8,3.7c-3.7-8.6-7.3-17.2-10.6-25.9
			c-1.5-4-9.1-10.1-7.9-2.8C632.1,341.2,639.5,345.6,640.5,351.5"/>
		<path id="Fill-50" class="st9" d="M607.4,304.7c3.3-0.2,6.6,2.5,7.1,5.8c0.1,0.9,0.1,1.9,0.4,2.8c0.3,0.9,1,1.6,1.6,2.3
			c2.9,3,6.3,5.5,10,7.5c-1.7-3.5-3.4-7-5.1-10.6c-1.4-2.8-2.8-5.8-5.4-7.6c-2.6-1.8-6.6-2-8.5,0.4"/>
		<path id="Fill-52" class="st9" d="M585.1,286.3c2.9,2.2,5.9,4.6,7.2,8c0.7,1.8,0.9,4,2.2,5.4c1.3,1.5,4.4,1.3,4.6-0.7
			c0.1-1.2-1-2.1-1.8-3c-1.8-2.1-2.5-5-4.1-7.2c-1.6-2.3-5-3.8-7.1-1.9"/>
		<path id="Fill-54" class="st9" d="M526.7,358.8c-1.1,2.1-5.1,0.8-6.2,2.9c-0.6,1-0.1,2.4-0.6,3.5c-0.5,1-1.7,1.4-2.7,1.7
			c-2.8,0.8-5.5,1.6-8.3,2.3c-1.1,0.3-2.4,1-2.2,2.1c0.1,0.6,0.7,1,1.2,1.3c3.4,2.2,6.9,4.3,10.3,6.5c0.8,0.5,1.6,1,2,1.9
			c0.3,0.8,0.2,1.7,0.1,2.5c-0.5,5.3,1.9,10.8,6.2,14.1c1,0.7,2.1,1.4,2.6,2.5c0.4,0.6,0.5,1.4,0.8,2c1.1,2.6,4.4,4,7,3.1
			c1-2.5-2-4.5-4-6.2c-5.2-4.4-5.6-12.2-5.7-19c0-0.9,0-1.8,0.4-2.5c1.1-2.1,4.3-1.8,6.2-0.5c2,1.3,3.5,3.3,5.8,4
			c4.9,1.5,10-3.8,14.8-2.2c0.7-1.5-0.8-3-2.2-3.8c-4-2.3-8.9-3-13.4-1.9c-0.9,0.2-1.8,0.5-2.8,0.4c-1.2-0.2-2.2-1-3-1.9
			c-1.2-1.4-1.9-3.1-2.2-4.9c-0.4-2.6,0.2-5.3,0.5-7.9s0.1-5.5-1.6-7.6C521.8,341.5,526.4,359.4,526.7,358.8"/>
		<path id="Fill-56" class="st9" d="M546.2,355.6C546.2,355.6,546.2,355.6,546.2,355.6c6.5,2.4,13,4.7,19.6,6.8
			c-2.9-2.9-6.8-4.8-10.9-5.2c-1.3-0.1-2.6-0.1-3.8-0.6c-3.4-1.4-5.2-6.4-8.9-6.2c0,0.9-0.1,1.9-0.1,2.8"/>
		<path id="Fill-58" class="st9" d="M560.5,382.5c-0.7,4.7,0.6,9.6,3.4,13.4c-2.1,0.1-4.2,0.3-6.3,0.4c-2.4,2.6-0.3,6.7,0.9,10
			c0.9,2.7,1.1,5.7,0.4,8.5c-1.2-0.6-2.3-1.3-3.5-1.9c0.1,1.3-1.5,2-2.8,2.1c-1.3,0.1-2.7-0.1-3.7,0.7c-1.5,1.4-0.4,3.9,0.9,5.5
			c4.3,5.6,9.4,10.6,15,15c2.4,1.9,5.2,4.1,5.1,7.1c0,1.4-0.7,2.7-0.3,4c0.3,1,1.2,1.8,2,2.5c3.1,2.7,6.4,5.4,10.4,6.4
			c-4.7-5.1-9.3-10.1-14-15.2c-5.1-5.6-10.6-12.1-10.1-19.6c3.3,0.7,6.5,2.3,9,4.5c-0.9-3.6-2.9-6.9-5.6-9.4
			c2.5-0.3,5.1,0.4,7.2,1.9c-0.7-3.3-1.9-6.5-3.7-9.4c5.7,2.3,10.3,6.8,15.2,10.6c4.9,3.8,10.8,7.1,16.9,6.5
			c-1.3-5.4-6.3-8.9-10.7-12.3c-4.4-3.4-8.9-7.9-8.6-13.4c0.2-2.5,1.3-3.7-0.1-6.4C591.1,384.6,565,382,560.5,382.5"/>
		<path id="Fill-60" class="st9" d="M485.3,351.1c1.9,2,3.9,4.1,4.1,6.8c0.1,1.1-0.2,2.1-0.1,3.2c0.1,1.4,0.8,2.7,1.5,4
			c2.3,4.2,4.6,8.4,6.9,12.6c-3.8-1.9-5.5-6.1-8.1-9.5c-2.6-3.3-7.7-5.8-10.8-3c0.8,0.8,1.7,1.6,2.5,2.5
			c-6.4-6.1-12.8-12.2-19.2-18.3c-1-1-2.1-2.5-1.2-3.6c0.2,0.9,1.7,0.6,2-0.2s-0.1-1.7-0.4-2.6c-2.6-6-3.7-12.8-3.1-19.3
			c0.7-7.9,1.7-11.4,6.2-5C473.1,329.3,476,341.3,485.3,351.1"/>
		<path id="Fill-62" class="st9" d="M464.1,244.9c0.2,2,0.1,4,0.7,5.9c1,3.3,4,5.7,6.7,7.8c0.9,0.7,2.2,1.4,3,0.6
			c0.7-0.6,0.5-1.8,0.2-2.7c-1.4-4.3-3.4-8.4-5.3-12.4c-0.9-1.8-1.8-3.7-2.7-5.5c-1.2-2.6-2.6-5.2-4.8-7c-2.4-1.8-5-2.5-7.2-1
			C459.3,234.5,463.4,238.5,464.1,244.9"/>
		<path id="Fill-64" class="st9" d="M513.7,255c1.5,1.9,3.1,3.8,3.9,6.1c1.1,3.1,0.7,6.7,2.2,9.6c1.1,2.2,3.2,3.8,4.4,5.9
			c1.3,2.1,1.7,4.6,2.7,6.8c1,2.2,3,4.3,5.4,4.3c0.8-4-1-8.4-4.3-10.7c-0.8-0.5-1.7-1-2.2-1.7c-0.9-1.3-0.5-3.1-0.6-4.7
			c-0.1-1.6-0.8-3.1-1.5-4.5c-3-6.4-6-12.7-9-19.1c-1.1-2.4-2.4-4.9-4.9-5.9C499.4,237.2,512.4,253.5,513.7,255"/>
		<polygon id="Fill-66" class="st10" points="262.6,156.3 355.2,163.3 387.8,192.4 438.9,301.7 474.2,359.7 500.9,434.2 
			551.7,497.2 554.9,514.9 592.5,541.3 110,541.3 61.5,265.7 		"/>
		<path id="Fill-68" class="st11" d="M166.2,436.2c2.2-3.9,3.4-8.4,3.5-12.8c0.8,1.1,0.8,2.7-0.1,3.7c0.9-1.4,1.7-2.8,2.6-4.3
			c-4.4,23.4-7.3,47.2-8.8,71c1-1.5,2.1-3.1,3.1-4.6c-1.6,10-3.2,20.1-4.7,30.1c7.7-6.5,8.6-17.7,9.8-27.7c1-8.4,2.5-16.8,4.5-25
			c2.6-10.5,6.6-21.6,15.8-27.3c-8.5-2.6-11-13.2-12.1-22c-1.3-10.7-1.5-22.7-4.5-32.9c-5.7,3.8-5.5,15-6.3,21.3
			C168.1,412.6,169.9,430.6,166.2,436.2"/>
		<path id="Fill-70" class="st11" d="M191.1,494.9c6.6-14.1,10.4-29.6,11-45.1c0.2-5.8,0.1-11.8,2.2-17.3c0.8-2.1,2-4.1,2.8-6.3
			c0.9-2.5,1.2-5.1,1.4-7.7c0.9-10.6,1.4-25.1-3.4-34.8c-6.5,15.4-5.3,38.9-7.3,55.8c-1.1,9.2-2.2,18.5-3.3,27.7
			C193.5,474.9,194.3,487.9,191.1,494.9"/>
		<path id="Fill-72" class="st11" d="M219.6,394.3c-0.5,2-0.6,4.9,1.4,5.4c1.5,0.3,3.5-1.1,4.5,0.2c0.5,0.6,0.3,1.6,0.1,2.4
			c-1.5,5.2-1.6,10.8-0.3,16.1c4.1,1,8.4,1.2,12.6,0.7c2.1-0.3,4.6-0.6,6,1c1.2,1.5,0.9,3.9,2.3,5.2c1.5,1.3,3.9,0.4,5.6-0.5
			c2.6-1.4,5.3-2.9,6.8-5.5c0.8-1.4,1.2-3.1,2.1-4.5c3.3-4.6,11.5-2.5,15.3-6.8c0.5-0.5,0.8-1.2,0.9-1.9c0.1-1.5-1.4-2.6-2.8-3.1
			c-1.4-0.5-3-0.7-4.2-1.7c-1.1-0.9-1.6-2.4-1.9-3.8c-1.2-4.4-2.5-8.7-3.7-13.1c-1.2-4.1-2.6-8.7-6.3-10.9c-1-0.6-2.3-1.2-2.8-2.3
			c-0.2-0.5-0.3-1.2-0.7-1.6c-0.4-0.5-1.2-0.5-1.8-0.5c-3.3,0.1-6.5,0.2-9.8,0.4c-1.1,0-2.2,0-3-0.7c-0.7-0.6-0.9-1.5-1.5-2.1
			c-1.2-1.2-3.3-0.8-4.9-0.2C221.9,370.1,222.4,383.8,219.6,394.3"/>
		<path id="Fill-74" class="st11" d="M100.9,276.8c2.2,0.9,3.5,4.2,1.7,5.7c4.4-0.4,8.9-0.8,13.3-1.2c-0.4,2.1-0.8,4.3-0.1,6.3
			c0.7,2,3.1,3.5,5,2.6c1,8.7,0.9,17.5-0.1,26.3c2.7,0.5,4.7,3.5,4,6.2c2.2,1.6,5.4,1.9,7.8,0.6c3.3,2.4,7.7,3.1,11.6,1.9
			c0.3,3.3,0.7,6.6,1,9.9c29.9-8.4,59.7-16.8,89.6-25.2c15.8-4.4,32-8.9,48.3-7.4c-2.6,3.7-7.5,4.6-11.9,5.3
			c-7.8,1.2-15.5,2.4-23.3,3.6c-4.1,0.6-8.2,1.3-12,3.1c-6,2.9-10.5,8.4-16.6,10.8c-6.2,2.4-13.6,1.5-18.9,5.3
			c-3.6,2.6-5.7,6.9-9.6,9c-2.1,1.1-4.4,1.5-6.7,1.9c-16.8,2.6-33.7,5.2-50.5,7.9c-1.3-2.3-2.6-4.7-3.9-7c-5.2,5.9-9,13.1-10.9,20.8
			c10.7,3.7,21.7,6.8,32.8,9.2c-4.3,14.7-10.3,28.9-17.6,42.3c-6.3-7.6,6.8-20.7,0.4-28.3c-3.7-4.5-13-5-12.5-10.8
			c-1.7,0-3.4,0-5.1,0.1c-0.5-1.5-1.1-3-1.6-4.6c-2.5,2.1-6.6,1.1-8.7-1.3s-2.8-5.8-3.2-9.1c-1.1-9.3-0.3-18.7-1.5-27.9
			c-1.2-9.2-4.8-18.8-12.5-24.1c-2.2-1.6-9.4-22.6-8.1-25.6C82.8,278.7,97.2,275.3,100.9,276.8"/>
		<path id="Fill-76" class="st11" d="M234.9,460.1c-0.4,1.5-0.8,3.3,0.3,4.4c1.1,1.2,3.2,0.8,4.5,1.8c1.7,1.3,1.1,4,0.4,6
			c-5.2,15.5-5.6,32.1-5.9,48.4c0.1,0.7,1.2,1,1.7,0.5c0.6-0.5,0.8-1.2,0.9-2c1.4-6.9,2.8-13.7,4.2-20.6c1.4-6.9,2.8-13.9,3-20.9
			c0.1-4.4,0-9.3,2.9-12.6c-1.5-2.3-2.3-5.2-2-8c-1-0.1-2.1-0.2-3.1-0.2c-0.3-2.6,1.2-5.1,1.7-7.8c0.6-3.1-0.6-5.3-3.4-5.6
			C237.7,448.8,236.5,454.7,234.9,460.1"/>
		<path id="Fill-78" class="st11" d="M254.4,451.6c-0.2,0.6-0.3,1.3,0,1.9c0.2,0.5,0.7,0.8,1.1,1.2c3,2.6,2,7.3,1,11.1
			c-1.6,6.7-2.3,13.5-2.9,20.4c-0.5,5.5-1,11-0.9,16.5c0.1,3.1,0.3,6.3-1.3,9c4.9-4.8,8.3-11.2,9.6-17.9c0.2-1.1,0.4-2.4-0.1-3.5
			c-0.3-0.8-0.9-1.4-1.4-2.1c-2.4-3.7,0.1-8.4,1.1-12.7c1.2-5.4-0.3-11.2,0.8-16.6c0.9-4.3,3.3-8.6,2.2-12.8
			c-1.1-4.3-1.8-7.4-0.7-11.6C256,435.2,255.7,446.4,254.4,451.6"/>
		<path id="Fill-80" class="st11" d="M303.5,385.9c0.5,2.9,1.3,6.1-0.4,8.5c-2,2.8-6.8,3.4-7.5,6.8c-0.8,4.3,6.1,6.1,7,10.3
			c2.2-2.4,3.8-5.3,4.7-8.4c7.9,7.7,16.4,16.9,15.8,28c1.3,2.2,1.7,4.7,2.2,7.1c0.2,1.4,0.5,2.7,0.7,4.1c1,5.8,2,11.6,3.1,17.3
			c0.9,5,1.8,10,2.7,15.1c4.1-8.8-3.7-19.5-0.4-28.6c0.6-1.6,1.5-3.1,1.7-4.7c0.2-2.3-1-4.5-1.7-6.8c-2.2-7.4,2.2-15.3,0.9-22.9
			c3.7,1.9,6.8,5,8.7,8.8c3.8-0.2,4.2-6,2-9.1s-5.7-5.7-6-9.5c-0.1-1.9,0.6-3.9,0-5.7c-0.4-1.3-1.5-2.2-2.2-3.4
			c-1-1.6-1.2-3.6-1.4-5.4c-0.8-7.3-1.6-14.7-2.4-22c-4.6,3.4-6.9,9.6-5.6,15.2c-4.3-4.6-16.1-8.3-17.4-13.7
			C302.2,370.4,302.4,379.9,303.5,385.9"/>
		<path id="Fill-82" class="st11" d="M313.2,331c2.2-2.4,4.3-4.8,6.5-7.2c0.8,0.6,1.6,1.2,2.3,1.8c5.2-3.4,9.6-8.1,12.5-13.6
			c1.3-0.1,1.3,1.9,1.9,3.1c0.8,1.5,3.3,1.3,4.5,0.1c1.2-1.3,1.5-3.1,1.7-4.9c0.8,2.7,1.9,5.2,3.2,7.7c0.3,0.5,0.7,1.2,1.3,1.2
			c0.6,0.1,1.2-0.4,1.6-0.9c1.8-1.9,3.6-3.8,5.4-5.7c0.8,1.5,1.9,2.9,3.1,4c1.4-1.5,2.2-3.5,2.5-5.6c0.1,1.2,0.1,2.4,0.2,3.6
			c-0.6-6.8-1.2-13.6-1.8-20.4c0,4.5,0,9,0,13.4c0.2-4.6-0.5-9.2-1.9-13.6c-1.1,5.1-2.2,10.2-3.3,15.2c-1.2-4.5-2.3-9.1-3.5-13.6
			c-1.6,3.7-2.5,7.7-2.5,11.7c0-1.9,0-3.7,0-5.6c-0.1,0.9-0.4,1.7-1,2.4c-0.7-0.4-1.5-0.8-2.2-1.2c-0.8,0.8-1.6,1.5-2.4,2.3
			c-0.6-0.7-1.4-1.2-2.3-1.5c-0.3,0.9-0.9,1.6-1.7,2.2c0.3-2.4-0.1-4.9-1.1-7.2c-1.6,2.2-2.8,4.7-3.6,7.3c-0.2-5.5-1.3-11-3.3-16.1
			c-2.2,6.5-3.3,13.3-3.3,20.1c0.3-3,0.1-6.1-0.7-9c-1.5,4.4-2.4,9-2.5,13.7c0-3.3,0-6.6-0.1-9.9C315.6,301.7,314.2,325.8,313.2,331
			"/>
		<path id="Fill-84" class="st11" d="M381.6,446.3c5.8,17.9,13,35.9,13,54.8c0,4.5,1.4,10.9,5.9,10.4c-3.7-22.4-7.4-44.9-11.1-67.3
			c-0.6-3.7-1.2-7.4-3-10.7c-1.8-3.4-4.7-6.1-6.4-9.5c-1.6-3.5-1.5-8.4,1.9-10.3c0.1,5.1,0.2,10.3,0.3,15.4c1.8-3.2,7.8-1.9,8.1,1.8
			c0.7-2.7,1.3-5.3,2-8c8.4,24,16.8,48,25.2,72c2.8-20.7-3.8-41.3-10.4-61.1c-5.8-17.6-11.6-35.1-17.4-52.7
			c0.6,6.2-1.6,12.5-5.7,17.1c-0.4-3.1-3.5-5.6-6.6-5.3c-1.6-7.7-3.2-15.5-4.9-23.2c-2,0.2-3.7,1.9-3.9,3.8
			c0.4-3.8,0.1-7.8-0.9-11.5c-6.6,4.4,1.3,32.5,2.8,40.2C373.2,417.1,376.9,431.8,381.6,446.3"/>
		<path id="Fill-86" class="st11" d="M301.4,485.4c3.9,5.2,9.5,8.8,15,12.4c2.3,1.5,4.5,2.9,6.9,4.2c0.8,0.4,1.7,0.8,2.2,1.6
			c0.7,1,0.6,2.4,0.3,3.6c-1,5.5-3.4,10.7-6.7,15.1c5.9,0.1,11.5,4.5,13.1,10.3c4.1,0.5,8.2,1.1,12.3,1.6c-4.5-4.6-9-9.1-13.5-13.7
			c-1.2-1.3-2.5-2.6-2.8-4.4c-0.2-1.2,0.1-2.4,0.3-3.5c0.6-2.6,1.3-5.2,2.8-7.3c1.5-2.1,4.2-3.6,6.8-3c3.3,0.8,4.7,4.6,6.5,7.5
			c4.4,7.2,13.4,11.7,14.7,20.1c1.8,1.9,5.4-0.2,5.6-2.8c0.2-2.6-1.6-5-3.5-6.8c-1.9-1.8-4.2-3.5-5.1-6c-1.2-3.1-0.2-7-2.4-9.4
			c-1.3-1.4-3.2-1.8-4.7-3c-2-1.5-2.9-4-4.4-5.9c-4.2-5.1-11.7-4.9-18.1-6.2c-9.7-1.9-18.9-9.1-20.5-18.8c-0.3-1.9-0.3-3.9-1-5.8
			c-1.4-4-5.8-7-5.5-11.2c0.2-3,1.9-5.1,1.4-7.9C287.3,447.2,296.6,479.2,301.4,485.4"/>
		<path id="Fill-88" class="st11" d="M407.4,405.4c1.6,6.7,3.2,13.4,4.9,20.1c1.2,5.2,2.6,10.5,5.8,14.7c1.3,1.6,2.8,3.1,4.2,4.6
			c8.7,9.6,12.7,23.3,23.5,30.5c-6.4-7.3-11-16.2-13.2-25.7c-1.5-6.6-2.2-13.9-6.8-18.8c-2.9-3.1-7.2-5.1-8.5-9
			c4.6-2.7,11.2-0.8,13.8,3.8c2.5-4.2,1.7-10.2-1.9-13.6c-3.5-3.4-9.5-4-13.6-1.3c-2-6.5-3.4-21.4-10.4-24.1
			C403.5,392.2,406.1,399.8,407.4,405.4"/>
		<path id="Fill-90" class="st11" d="M451.5,449c0,2.3-0.2,4.6,0.3,6.8c0.8,3.8,3.5,6.9,5.5,10.3c2,3.4,3.2,7.8,1,11.1
			c4,0,7.8,3.4,8.2,7.4c0.2,1.5-0.1,3.1,0.5,4.5c1,2.5,3.9,3.4,6.4,4.3c2.5,1,5.2,3.1,4.6,5.7c5.4-0.2,10.2,3.4,14.7,6.3
			c4.5,3,10.3,5.5,15.2,3.2c-7.6-2.1-14.3-7.1-18.4-13.9c2.5-0.5,4.9-1,7.4-1.5c-2.6-1.4-5.2-2.8-7.8-4.2c-2-1.1-3.9-2.1-5.7-3.5
			c-6.7-5.3-8.9-14.6-14.8-20.7c-1.1-1.2-2.3-2.2-3.2-3.5c-1-1.4-1.6-3.1-2.1-4.7c-2.1-6-4.2-12-6.2-18c-1.8-5.2-5.2-6.9-9.2-9
			C447,434.7,451.4,442.7,451.5,449"/>
		<path id="Fill-92" class="st11" d="M463.1,400.2c5.6,14.6,11.3,29.2,16.9,43.8c2.3,6,4.7,12.1,8.7,17c2,2.4,4.3,4.5,6.9,6.3
			c6,4,13.5,5.8,20.6,4.9c-7.5-5.7-15-11.4-22.5-17.1c-2-1.5-4-3-5.1-5.2c-1.2-2.2-1.3-5.1,0.4-6.9c-7.3-5.1-8.5-15.2-9.2-24.1
			c-0.7-8.9-2.4-19-10-23.6c-1.1-0.7-2.4-1.2-2.9-2.4c-0.4-0.7-0.4-1.5-0.5-2.3c-0.6-5-7.1-14.5-12.5-10.9
			C456.7,386.6,460.4,393.2,463.1,400.2"/>
		<path id="Fill-94" class="st11" d="M402.6,286.3c-0.5,1.6-1.2,3.3-0.7,4.9c0.5,1.6,1.9,2.7,2.6,4.2c1.9,4.2-2.6,9.3-0.7,13.5
			c0.5,1,1.3,1.9,1.8,2.8c1.2,2.1,1.2,4.8,0,6.8c-0.4,0.6-0.9,1.3-0.8,2c0.1,2,3.3,1.5,4.6,0c2.8-3.3,2.3-8.2,3-12.5
			c0.2-1.5,1.6-3.4,2.9-2.6c1,0.6,0.7,2.3,1.6,3c0.7,0.6,1.8,0.3,2.7-0.1c3-1.3,6-2.5,9-3.8c0.7-0.3,1.5-0.7,1.8-1.4
			c0.3-0.8-0.1-1.6-0.4-2.4c-0.6-1.9-0.2-3.9-0.3-5.8c-0.2-4.4-2.7-8.3-5.1-12c-2.5-3.8-9.9-20.4-16.2-19.2
			C403.8,264.5,404.3,281.4,402.6,286.3"/>
		<path id="Fill-96" class="st11" d="M322,257.5c1.1-0.2,2.2-0.3,3.3-0.5c2.3-0.4,4.8-0.7,6.9,0.3c2.1,1,3.3,4,1.8,5.8
			c1.8,1.2,4.3,0.4,6.1-0.7c1.8-1.2,3.4-2.7,5.5-3.4c2.5-0.8,5.1-0.1,7.6,0.4c5.1,1,10.4,1.4,15.6,1.1c1.5-0.1,3.1-0.3,4.4-1.1
			c2.6-1.8,2.7-5.4,2.5-8.6c-0.7-0.1-1.4-0.1-2-0.2c-0.7-1.7-0.3-3.6,0-5.4c0.3-1.8,0.4-3.8-0.6-5.4c-1-1.5-3.6-2.1-4.6-0.5
			c1.5,3.2-0.7,7.2-3.8,8.8c-3.1,1.7-6.8,1.7-10.4,1.6c-1.7,0-3.5-0.1-4.7-1.2c-0.5-0.4-0.8-1-1.3-1.4c-2.3-1.6-4.8,1.5-7.2,3
			c-3.9,2.4-8.8-0.1-13.3-1c-5-1.1-15.2-1.5-13.5,6c0.6,0.4,1.3-0.2,1.9-0.1C317.3,257.6,319.2,257.9,322,257.5"/>
		<path id="Fill-98" class="st11" d="M210.4,236.5c-4.3,2.7-9.3,4.6-12.6,8.4c-2.2,2.6-3.8,6.1-7.1,6.9c3.1,1.1,6.2,2.3,9.3,3.4
			c-0.9,1.6-1.9,3-3,4.4c6,0.3,12.2-1.6,17-5.3c-0.6,1.4,1.7,2.1,3.2,1.7c10.4-2.3,20-7.9,27.2-15.6c0.8-2.4,0.7-5.1-0.4-7.3
			c-2.4-0.1-4.7-0.1-7.1-0.2c6-6.9,19.9-0.6,25.1-8.1c-3.4-1-7.2-0.8-10.5,0.7c0.5-0.7,0.9-1.3,1.4-2c-7.1,0.1-14.1,0.1-21.2-0.1
			c-1.4,0-3.2-0.3-3.5-1.7C226.8,216.6,210.5,236.5,210.4,236.5"/>
		<path id="Fill-100" class="st11" d="M266.6,179.7c12.9-2.5,25.8-5,38.7-7.5c1.5-0.3,3.2-0.6,4.5,0.1c1.4,0.7,2,2.9,0.8,3.8
			c6-0.1,12,0.8,17.7,2.7c-1.4,2.7-3.8,4.8-6.7,5.7c10-1.3,20.5,0.5,29.5,5.2c-9,10.3-29.8,6-35.1,18.6c12.1,1.7,24.3,3.5,36.4,5.2
			c-0.4-0.6-1.4,0.7-0.6,0.9c3.6,0.8,7.2,1.6,10.8,2.4c-5.5,1.4-11,2.8-16.5,4.1c5,0.3,10,0.5,14.9,0.8c-30,8.2-59.9,16.3-89.9,24.5
			c19.4-1.4,38.8-2.7,58.1-4.1c-40.4,7.5-81.5,15.4-117.5,35.1c5.6,0.2,11.3,0.3,16.9,0.5c-10.9,4.5-22,8.4-33.3,11.7
			c1.5-0.1,3.1-0.2,4.6-0.3c-11.8,4.6-23.5,9.1-35.3,13.7c2.5,0.2,5-0.1,7.4-0.8c-12,3.2-24.1,6.3-36.1,9.5c3.1-0.6,6.2-1.2,9.4-1.7
			c-14,1.4-28,2.7-42,4.1c8.9-2.4,18.3-5,24.7-11.6c-2.1-1.1-4.2-2.2-6.3-3.3c2.9-1.6,5.7-3.2,8.6-4.8c-1.4,0-2.8,0-4.2,0
			c4.9-1.9,10-3.3,15.3-4c0-1-1.9,0-1.4,0.8c0.6,0.9,1.9,0.7,2.9,0.5c3.6-0.9,7.1-1.8,10.7-2.7c0.2-0.1,0.5,0,0.7,0.1
			c3.2-1.1,6.4-2.2,9.6-3.2c-17.6-0.7-35.2-1.4-52.9-2.1c2.5-1.2,5.1-2.3,7.6-3.5c-2-0.5-4-1-6-1.5c11.5-10.3,29.1-9.2,43.5-15
			c7.8-3.2,14.5-8.4,21.9-12.4c7.4-4,16-6.9,24.1-4.7c-0.7,2.4-2.6,4.4-4.9,5.2c2.6-0.3,5.2-0.5,7.8-0.8c-2.8,2.9-5.5,5.8-8.1,8.8
			c-1.5,1.6-1,5.6,0.7,4.2c-6.7,3.8-13.4,7.5-20,11.3c2.5-0.2,5.1-0.5,7.6-0.7c-1,1-1.9,2-2.9,3c7.6,0.2,13.7-5.9,20-10.3
			c11.3-7.8,25.2-10.3,38.7-12.6c-2.7,0.3-5.3,0.6-8,0.9c9-2,17.9-4.5,26.7-7.4c-8.8-1.3-17.9-0.3-26.3,2.7c3.5-1.8,7-3.5,10.5-5.3
			c-12.8-0.2-25.6-0.3-38.3-0.4c25.3-10.7,51.6-19,78.5-24.7c-6.2,4.1-12.3,8.2-18.5,12.3c15.2-0.9,30.3-3.5,45-7.9
			c-2.3,0.8-4.2-3-2.3-4.4c-4.7,2.7-9.3-3.5-13.2-7.2c1.3-2.4,2.6-4.8,3.9-7.2c-15.3,1.5-30.3,5.2-44.5,11.2
			c3.2-0.4,6.3-0.9,9.5-1.3c-25.9,10.7-54.3,15.3-82.3,13.3c6.3-3.6,13.1-7.7,15.2-14.6c1.2-3.9,4.7-7,8.8-7.8
			c-4.3,0.4-7.7-4.6-6.8-8.9c0.9-4.2,4.7-7.3,8.8-8.8c4.1-1.5,8.5-1.8,12.7-2.6c13.1-2.6,24.5-10.7,36.7-16.2
			c10-4.6,26.9-9.5,36.4-1.8C283.7,170.2,274.5,173.1,266.6,179.7"/>
		<path id="Fill-102" class="st11" d="M313.5,280.4c1.3,0.2,2.6,0.5,4,0.7c-2.6,2.3-5.7,3.9-9.1,4.7c1.5-0.1,3.3-0.1,4.2,1.1
			c0.9,1.2-0.7,3.5-1.8,2.4c15.7-1,31.4-1.7,47-2c-1.8,0.7-3.6,1.4-5.4,2.2c13.9-0.9,27.7-4.2,40.5-9.8c-12.4-1.7-24.5-0.8-36.8,0.5
			c1.2-0.7,2.4-2.3,3.5-3.1C351.7,263.6,324.2,282.2,313.5,280.4"/>
		<path id="Fill-104" class="st11" d="M262.1,313.2c-11.1,2.9-22.2,5.8-33.2,8.7c8.2-0.1,16.5-0.1,24.7-0.2
			c-0.8,1.2-1.9,2.1-3.2,2.6c7.7-0.6,15.3-3.3,21.6-7.8c-2.2-0.5-4.2-2-5.4-3.9c-1.8-0.1-3.5-0.2-5.3-0.2"/>
		<path id="Fill-106" class="st11" d="M336.6,332.1c0,0-16.6,1.1-24,3.7c-5.2,1.8-10.5,3.8-14.4,7.6c-2.1,2.1-3.7,4.6-6.1,6.3
			c-5.6,3.9-13.5,2-19.9,4.4c-3.3,1.2-6,3.4-9,5c-7.4,4-16.2,4.6-24.7,5c-2.4,0.1-4.8,0.2-7.1-0.4c-1.8-0.5-3.4-1.4-5.1-2.1
			c-3.1-1.4-6.4-2.2-9.7-2.9c-23.9-5.3-49-5.5-73-0.6c6.8,1.5,13.6,2.9,20.3,4.4c13.7,3,27.5,6,40.8,10.5c2.6,0.9,5.8,3.9,3.8,5.8
			c6.3-3.4,14.8,4.5,12,11.1c4.1-1.9,9.5-0.4,12.1,3.3c6.8-0.9,9.9-9,15.4-13.1c6.5-4.9,15.6-3.7,23.7-4.6
			c14.1-1.6,27.1-10.7,33.4-23.4c19.1-5.6,17.5-9.7,36.6-15.3l31.6-21.3L336.6,332.1z"/>
		<g id="Group-110" transform="translate(997.206179, 247.740210)">
			<g id="Clip-109">
			</g>
			<defs>
				<filter id="Adobe_OpacityMaskFilter_1_" filterUnits="userSpaceOnUse" x="0.7" y="0.3" width="238.3" height="232.2">
					<feColorMatrix  type="matrix" values="1 0 0 0 0  0 1 0 0 0  0 0 1 0 0  0 0 0 1 0"/>
				</filter>
			</defs>
			<mask maskUnits="userSpaceOnUse" x="0.7" y="0.3" width="238.3" height="232.2" id="mask-4">
				<g class="st12">
					<polygon id="path-3" class="st5" points="0.7,0.3 239,0.3 239,232.4 0.7,232.4 					"/>
				</g>
			</mask>
			<polygon id="Fill-108" class="st13" points="239,0.3 171.8,23.2 116.3,29.4 66.9,89 0.7,135.1 7,204.8 93.3,232.4 			"/>
		</g>
		<path id="Fill-111" class="st9" d="M1021.6,391.3c10.1-5.4,19.5-12.2,27.7-20.2c-3.7,10.9-8.9,21.4-15.4,30.9
			c1.5-0.1,3-0.2,4.5-0.3c-3.7,4.5-7.5,9.2-9.3,14.8c-2,6.3-1.4,13.2-4.1,19.2c7.2-7.4,13.4-15.6,18.6-24.5
			c-1.2,1.3-2.3,2.6-3.5,3.9c7.5-4.8,15-9.6,22.5-14.4c-1.1,1.6-2.3,3.3-3.4,4.9c1.4-0.5,2.9-0.5,4.3-0.1c-2.2,4.2-4.5,8.3-6.7,12.5
			c2-0.9,4.1-1.8,6.1-2.7c-4.8,4.6-7.8,11-8.3,17.6c4.3-5.4,8.6-10.7,13-16.1c-0.6,0.8-1.3,1.7-1.9,2.5c4.8-5.3,9.5-10.6,14.3-15.9
			c4.7-5.2,9.7-11.3,9.1-18.3c-5.4,6.2-10.9,12.4-16.3,18.6c0.1-1,0.2-2,0.3-3.1c-0.6,0.6-1.5,1-2.4,1c0-2,0.5-4,1.6-5.7
			c-1.3,1-2.5,2-3.8,2.9c1.6-1.9,2.9-4.1,3.7-6.4c-4.5,1.6-8.7,3.7-12.6,6.5c0.8-1.5,2-2.8,3.5-3.7c-5.8,3.2-11.6,6.3-17.4,9.5
			c4.2-3.5,6.8-8.8,6.9-14.2c-1.4,0.9-2.8,1.8-4.2,2.7c1.2-1.7,2.4-3.5,3.6-5.2c-0.9-5.4,1.3-11.2,5.7-14.5
			c-0.6,1.9-1.3,3.9-1.9,5.8c0.9,0.6,2.1,0.9,3.1,0.6c-0.2,2.2-0.8,4.4-1.8,6.4c3.5-2,7.3-3.5,11.2-4.7c-0.2,1.4-0.5,2.8-0.7,4.2
			c10.8-4.7,19.7-13.5,24.5-24.3c-6.2,4.2-12.3,8.4-18.5,12.7c-0.1-1.5-0.2-2.9-0.3-4.4c-3.6,0-7.2-0.1-10.9-0.1
			c-1.9-3.2,0.3-7.3,2.9-9.9c2.6-2.7,5.8-5.2,6.5-8.8c-3.4,0.7-6.9,1.5-10.3,2.2c1-0.4,1.6-1.5,1.3-2.5c0.1,0.3-19.7,15.3-21.3,17
			C1034.2,374.9,1027.5,382.8,1021.6,391.3"/>
		<path id="Fill-113" class="st9" d="M1110.4,296.3c0.8-1.6,1.1-3.4,1-5.2c-1.1,0-2.3,0-3.4,0.2c0.7-0.2,0.4-1.4-0.3-1.5
			c-0.7-0.1-1.3,0.4-1.9,0.8c-4.1,3.6-8,7.4-11.7,11.3c-1.7,1.8-3.4,3.7-5,5.6c-3.7,4.2-7.4,8.3-11.1,12.5c3.9-2.2,7.7-4.3,11.6-6.5
			c-0.3,0.6-0.6,1.3-0.9,1.9c1.1,0,2.1,0.1,3.2,0.1c-4.4,10.7-7.8,21.9-10.1,33.2c9.5-6.5,12.4-19.1,19.5-28.2
			c2.4-3.1,5.4-5.8,7.5-9.1c-1.5-0.1-2.9,0.3-4.2,1c-0.6-0.8-0.8-1.8-0.6-2.8c-1,0.2-2,0.3-2.9,0.5c7.6-4.4,14.8-9.6,21.3-15.5
			c0.6-0.6,1.3-1.2,1.4-2.1s-0.9-1.7-1.6-1.3c1-0.6,1.8-1.4,2.4-2.4c-1.5,0.9-3,1.8-4.6,2.7c0.1-3.6,1.4-7.2,3.5-10.1
			c-1.4,0.1-2.9-0.7-3.5-2c-3-0.2-5.9-0.3-8.9-0.5c1.5,0.7,1.9,2.9,0.9,4.1c0.3-0.3,3.9,6.7,3.6,7.9
			C1115.2,293.7,1112.6,294.3,1110.4,296.3"/>
		<path id="Fill-115" class="st9" d="M1112.8,340.5c-0.3,1.6-0.4,3.3-1.3,4.6c-0.9,1.3-2.5,2-3.7,3.1c-4.7,4.2-2.4,12.1-4.5,18.1
			c-1,3-3.1,5.4-4.3,8.4c-1.2,2.9-1,6.8,1.7,8.5c0.4,4.8-1.7,9.8-5.4,12.8c-2.4,1.9-5.3,3.1-7.4,5.2c-4.4,4.5-3.8,11.7-5.8,17.7
			c-2.1,6.5-7.7,11.7-14.2,13.5c0.3-0.6,1.4-0.3,1.5,0.4c0.2,0.7-0.3,1.4-0.7,1.9c-2.1,2.9-4.2,5.9-6.3,8.8c4.5,5.9,6.2,14,4.4,21.2
			c2.8-1.5,6.2-2,9.4-1.3c1.7,0.4,3.8,1.1,5.1-0.1c1.7-1.4,0.7-4.2-0.4-6.1c-2-3.6-4.1-7.2-6.1-10.8c-0.8-1.4-1.6-2.8-1.5-4.4
			c0-1.6,1.3-3.2,2.8-3.1c1.2,0.1,2.1,1.1,3,1.9c2.5,2.1,6.3,2.7,9.1,1.1c2.8-1.7,4.1-5.6,2.5-8.5c-2.8,1-6,0.8-8.7-0.6
			c-3.6-5.6,5.8-12.7,3.1-18.7c2.4-1.7,5.6,0.1,8.3,1.2c6.9,2.8,15.7,0,19.5-6.5c-2.8-0.8-5.6-1.5-8.4-2.3c-1.8-2.1-3.7-4.2-5.5-6.3
			c3.3-5.3,6.6-10.5,10-15.8c-1.8-7.2-1.3-15,1.5-22c9.3-4.1,17.6-10.2,25.8-16.3c4.1-3,8.6-7,8.1-12.1c-0.1-1.1-0.5-2.2,0-3.2
			c0.3-0.7,1-1.1,1.7-1.6c14.3-10,12.9-34.5,28.1-43.1c-3.6-1.5-7.9-0.4-11,2c-3.1,2.4-5.2,5.8-7,9.3c-3.2,6-6,12.2-8.3,18.5
			c-0.7,2.1-1.5,4.2-2.7,5.9c-3.3,4.5-9.7,5.8-13,10.3c-2.9,3.8-3.3,9.7-7.5,11.9c-2.1-6,1-12.5,4.8-17.6c3.7-5.1,8.3-10,9.6-16.2
			c0.4-1.8,0.4-3.8-0.3-5.5c-1.8-4.2-7.6-5.2-11.7-3.2c-4.1,1.9-6.8,5.9-9.4,9.6c4.1,0.3,8.3-1.7,10.6-5.2c1,2.7,6.5,2.4,5.5,6.9
			c-0.6,2.5-6.9,6-8.8,7.8C1119.9,325.6,1112.8,333.2,1112.8,340.5"/>
		<g id="Group-119" transform="translate(1033.468222, 247.740210)">
			<g id="Clip-118">
			</g>
			<defs>
				<filter id="Adobe_OpacityMaskFilter_2_" filterUnits="userSpaceOnUse" x="0.6" y="0.3" width="202.1" height="293.3">
					<feColorMatrix  type="matrix" values="1 0 0 0 0  0 1 0 0 0  0 0 1 0 0  0 0 0 1 0"/>
				</filter>
			</defs>
			<mask maskUnits="userSpaceOnUse" x="0.6" y="0.3" width="202.1" height="293.3" id="mask-6">
				<g class="st14">
					<polygon id="path-5" class="st5" points="0.6,0.3 202.7,0.3 202.7,293.6 0.6,293.6 					"/>
				</g>
			</mask>
			<polygon id="Fill-117" class="st15" points="202.7,0.3 143.5,37.4 71.2,141.5 40.3,248.5 0.6,293.6 202.7,293.6 			"/>
		</g>
		<path id="Fill-120" class="st11" d="M1138.7,392.1c1.5,3.4-0.7,7.9-4.3,8.9c2.4,0.4,4.9-0.2,6.8-1.7c3.3,6-1,14.7-7.8,15.6
			c0.6,3.3-2.1,6.1-4.2,8.8c-2.1,2.6-3.6,6.7-1.1,9c0.9,0.8,2.2,1.2,3.4,1.5c-5.2,4.8-11.1,8.8-17.5,11.9c1-0.6,1.8,1.1,1.8,2.3
			c-0.3,10.1-2.4,20.2-6.2,29.7c5.2-0.1,9.7-5.4,9-10.6c-0.2-1.6-0.9-3.2-0.7-4.8c0.2-1.7,1.2-3.2,2.1-4.6c1.7-2.5,3.6-5.1,6.3-6.4
			c2.7-1.3,6.6-0.8,8,1.8c5.6-0.5,3.3-12.3,8.8-12.7c-0.4,0.6-1.5,0.1-1.5-0.6c-0.1-0.7,0.5-1.4,1-1.9c3.2-3.2,6.9-5.8,10.8-8
			c-0.4-5.4-10.3-7.3-9.1-12.6c0.4-1.8,2.2-3,3.4-4.4c2.1-2.5,2.8-5.8,4-8.8c1.2-3,3.5-6.1,6.7-6.4c1.3-0.1,2.7,0.3,4,0
			c2.8-0.6,4.2-3.7,4.7-6.5c0.4-2.8,0.4-5.8,1.9-8.2c-1.6,0.4-3.2,0.8-4.8,1.2c-3-1.1-6.7,0.5-8,3.3c1.1-4.8,1.4-9.7,0.9-14.6
			C1153.4,374.4,1137.2,388.7,1138.7,392.1"/>
		<path id="Fill-134" class="st11" d="M1155.8,342.2c-1.7,4-6.5,5.6-9.1,9c-0.5,0.6-0.9,1.4-0.8,2.2c0.1,0.7,0.7,1.2,1,1.9
			c0.4,1.2-0.4,2.4-1.3,3.4c-3.6,4.2-7.9,7.9-11.2,12.3c-3.4,4.4-6,9.8-5.5,15.4c5.1-2.7,7.9-8.2,11.5-12.7
			c5.3-6.7,12.7-11.8,20.9-14.2c-0.2,1.9-0.8,3.7-1.9,5.3c2.5-0.7,4.8-1.9,6.7-3.6c-1.4,1.5-2.4,3.5-2.6,5.6
			c2.1,1.1,4.4-1.1,5.5-3.2c3.2-6.6,3.5-15.2,9.4-19.5c-2.5,1.1-4.8,2.6-6.8,4.4c0.3-1.6-2.2-2-3.6-1.3c-1.4,0.7-3.1,1.9-4.4,1
			c1.3-3.8,8.1-15.8,3.4-18.4C1160.9,326.4,1157.2,338.8,1155.8,342.2"/>
		<path id="Fill-136" class="st11" d="M1101.8,413.5c-1.6,3-3.1,6-4.5,9.1c-4.4,9.8-7.9,20.3-8.1,31c0.9-1.3,2.3,1.1,2.1,2.6
			c-0.6,4.2-1.3,8.5-1.9,12.7c-0.4,2.8-0.9,5.6-1.3,8.5c-0.8,5.2-1.6,10.5-3.8,15.3c9.7-5.8,12.9-18.1,15.2-29.2
			c0.9-4.1,1.7-8.4,0.7-12.5c-0.9-3.4-3-6.6-2.6-10c0.3-2.9,2.7-5.5,5.6-6.1c4.9,2.5,10.9,2.8,16.1,1c-0.5-2.6-3.9-3.4-6.6-3.1
			c-2.7,0.3-5.7,0.9-7.7-0.9c-1-3.9-1.7-8.9,1.6-11.2c1.7-1.3,4.6-2,4.3-4.1c-0.5-4.4-1.5-2.3,0.2-6.2c1-2.3,5-3.5,2.5-6.4
			C1108.7,398.2,1103.2,410.8,1101.8,413.5"/>
		<g id="Group-140" transform="translate(1033.468222, 447.329230)">
			<g id="Clip-139">
			</g>
			<defs>
				<filter id="Adobe_OpacityMaskFilter_3_" filterUnits="userSpaceOnUse" x="0.6" y="0.1" width="202.1" height="93.9">
					<feColorMatrix  type="matrix" values="1 0 0 0 0  0 1 0 0 0  0 0 1 0 0  0 0 0 1 0"/>
				</filter>
			</defs>
			<mask maskUnits="userSpaceOnUse" x="0.6" y="0.1" width="202.1" height="93.9" id="mask-8">
				<g class="st16">
					<polygon id="path-7" class="st5" points="0.6,0.1 202.7,0.1 202.7,94 0.6,94 					"/>
				</g>
			</mask>
			<polygon id="Fill-138" class="st17" points="202.7,9 150.5,0.1 87.1,32.9 0.6,94 202.7,94 			"/>
		</g>
		<path id="Fill-141" class="st18" d="M1025.4,376.4c-0.7-1.3,3.3-7.1,1.9-7.6c-39.1-14.6-79.3-11.7-120.9-8.4
			c-22.7,1.8-45.4,3.6-68.1,5.4c-22.8,1.8-46.3,3.8-66.8,13.9c-20.2,10-36,27.1-55.3,38.8c-16.7,10.1-35.5,15.9-52.9,24.7
			c-8.9,4.5-17.5,9.8-25.9,15.3c-8.6,5.6-17.8,12.4-19.8,22.5c-2.8,14.4,10.2,26.6,22,35.5c11.4,8.6,24.5,16.3,35.9,24.9h263.4
			C953.6,501.2,969.2,463,995,429c13.2-17.4,22.5-27.8,31.5-47.7C1027.2,379.7,1026.2,377.9,1025.4,376.4"/>
		<path id="Fill-143" class="st19" d="M658,486.3c6.4-5.8,14.8-8.5,23.1-10.9c25.2-7.4,50.8-13.5,76.7-18.3c2-0.4,4.3-0.9,5.5-2.6
			c1.3-1.9,1.7-5.4,4-5.1c0-2.9-0.7-5.8-2-8.4c3.1-2.3,7.2-2.5,10.7-4.1c3.5-1.7,6.1-6.5,3.4-9.2c-2.8-2.9-9.1-0.8-10.7-4.4
			c3.9-2.7,9.6-2.6,13.4,0.4c3.8,2.9,5.3,8.4,3.5,12.9c13.3-2,26.6-4.3,39.8-6.9c8.8-1.8,18.3-4.1,23.7-11.2
			c-4.7-0.6-10-3.6-9.9-8.3c0.1-5.1,6.2-7.7,11.3-8.7c8.5-1.8,17.1-2.9,25.7-3.5c-2.2,2.3-4.5,4.5-6.7,6.8c14.7,0,29.3-0.4,44-1.1
			c6.7-0.3,14.2-1.2,18.2-6.4c-12.3-2.5-24.7-4.1-37.2-5c7.3-6.9,18.8-5.5,28.5-8.1c9.9-2.7,18.4-10.1,22.3-19.6
			c-18.8-6.6-39.1-7.3-59-7.7c-32.6-0.6-69.9,6.6-100.6,17.5c-35.4,12.5-60.5,30.9-93.3,49c-21.5,11.9-46,21.7-59.2,42.4
			c-5.5,8.6-8.6,19.3-6.3,29.3c1.3,5.6,11.6,22.2,19.7,18.5c3.4-1.6,2-8.8,2.9-12.1C650.7,495.5,653.7,490.2,658,486.3"/>
		<path id="Fill-145" class="st19" d="M1098.4,496.7c4.2-3.9,10.8-6.7,18.7-14.1c-2.7-2.2-15-10.2-18.3-9c-3.3,1.2-6.7,2.8-10.2,2.1
			c-3.5-0.6-4.5-7.6-5.7-11c0,0-1.9,4-3.6,4.3c-4-1.1-8.4-0.8-12.3,0.8c3.4-11.1,6.7-22.2,10.1-33.3c-5.8,2.8-11.5,5.7-17.3,8.5
			c0.7-6.1,1.3-12.3,2-18.4c-1.7-0.4-3.6-0.1-5.1,0.8c0.2-4.7,0.3-9.4,0.5-14.2c-11,9.7-23.9,17.2-37.7,22.2
			c4.5-11.6,11.6-22,18.6-32.3c-5.1-0.4-10.3,0.6-14.9,3c1.4-3.4,3.6-6.4,6.4-8.8c-1.3-0.7-2.6-1.3-3.9-2
			c3.9-6.5,7.9-13.1,11.8-19.6c-3.2,0.5-6.2,1.9-8.7,4c0.5-3.6,1-7.2,1.4-10.9c0.1-0.8,0.2-1.7-0.2-2.5c-1-1.9-5.7-1.7-7.4-0.4
			c-20.1,14.9-43.8,28.6-66.1,43.4c-2.8,1.9-5.9,5.7-3.4,8c1.6,1.5,4.5,0.8,6.1,2.3c2.2,2.1-0.2,5.6-0.6,8.6c-0.5,4,3.9,7.8,7.8,6.7
			c-1.9,3.5,0.7,8.7,4.7,9.1c0.1,4,3.9,7.6,7.9,7.3c-6.5,3.3-12.5,7.6-17.6,12.9c4.1,1.1,8.1,2.3,12.2,3.4c1.2,0.3,2.5,0.8,3.2,1.8
			c1.2,1.8-0.3,4.1-1.1,6.1c-0.8,2,0,5.3,2.1,4.9c-15.3,7.2-28.8,18.2-39,31.7c-1.7,2.2-3.3,5.3-1.6,7.5c2.2,3.1,8,0.9,10.4,3.8
			c1.6,1.9,0.7,5,2.3,7c2.1,2.7,6.7,1.1,9.5,3c1.7,1.2,2.3,3.4,3.6,5c2.4,2.9,2.5,2.5,6.3,2.7h66.8c21.2-12.7,46.2-30.5,64.4-47.1"
			/>
		<g id="Group-149" transform="translate(874.439860, 408.221243)">
			<g id="Clip-148">
			</g>
			<defs>
				<filter id="Adobe_OpacityMaskFilter_4_" filterUnits="userSpaceOnUse" x="0.1" y="0.1" width="113" height="133.5">
					<feColorMatrix  type="matrix" values="1 0 0 0 0  0 1 0 0 0  0 0 1 0 0  0 0 0 1 0"/>
				</filter>
			</defs>
			<mask maskUnits="userSpaceOnUse" x="0.1" y="0.1" width="113" height="133.5" id="mask-10">
				<g class="st20">
					<polygon id="path-9" class="st5" points="0.1,0.1 113.1,0.1 113.1,133.6 0.1,133.6 					"/>
				</g>
			</mask>
			<path id="Fill-147" class="st21" d="M110.8,44.4c-3-10.1-8.3-19.3-13.6-28.3C94,10.6,90.8,5,86.6,0.3l-2.7-0.2
				c-8.1,4.2-14.6,8.5-22.7,12.7c-1.5,0.8-3.1,1.7-3.6,3.4c-0.4,1.4,0.2,3,0.2,4.4c-0.3,7-13.1,6-15.3,12.6c0.5,3.4,4.8,4.4,8.2,4.8
				c7,1,13.9,3,20.4,6.1c3,1.4,6.3,3.9,5.9,7.2c-0.4,2.9-3.6,4.4-6.3,5.5c-11.3,4.3-22.6,8.7-34,13c-1.5,0.6-3.3,1.7-2.8,3.2
				c0.3,0.8,1.1,1.3,1.9,1.6c1.9,0.8,3.8,1.6,5.6,2.5c-2.5,0.6-4.5,2.9-4.8,5.5c7.4-0.8,15.2,3.1,19,9.6c-13.5,0.1-27,2.3-39.8,6.5
				c1.6,2,3.2,3.9,4.8,5.9c-3.4,4.2-8.8,6-13.4,8.9c-4.6,2.9-8.6,8.3-6.7,13.3c2,5.4,9.2,6.5,15,6.6c23.3,0.6,79.4-0.3,79.4-0.3
				s-3.9-7.5-5.7-11.6c-3.7-8.1-0.1-17.6,5.1-24.9c5.2-7.2,11.9-13.4,15.6-21.5C114.2,65.7,113.8,54.5,110.8,44.4"/>
		</g>
		<path id="Fill-150" class="st22" d="M982.5,357.9c-6-1.3-12.1-2.9-18.3-2.7c-4.8,0.2-9.6,1.5-14.4,1.4c-5.4-0.1-10.6-2.1-15.9-3.4
			c-15.2-3.7-31.1-2-46.6-0.2c-10.4,1.2-20.7,2.4-31.1,3.7c-10.7,1.3-21.4,2.6-32.1,3.8c-9,1.1-18.1,2.2-27.1,3.3
			c-4.3,0.5-8.6,1-12.6,2.6c-2.8,1.1-5.3,2.7-7.9,4.2c-14.2,8.1-27.9,18.3-44.1,20.4c-7.3,4.3-6.3,10.1-13.5,9.5
			c8.7,5.9,9.1,11.4,18.7,15.7c-15.2,0.6-21.6,0.8-36.2,5.1c-10.1,3-22.5,7.2-30-0.3c3.5,5.8-0.4,12-5.6,16.4
			c-3.2,2.7-4.8,5.9-8.7,7.3c-13.1,4.5-25.2,11.7-35.6,20.8c-2.4,2.2-4.8,4.5-6.4,7.4c-3.6,6.8-1.5,15.8,4,21.2
			c5.6,5.3,14,7.1,21.5,5.6c1.2-8.8,2.9-18.6,10.1-23.9c4.6-3.4,10.6-4.1,16.1-5.5c11-2.8,21-8.7,31.6-12.8
			c26.4-10.3,57.5-10.3,79.5-28.2c-6.9-2.3-13.5-5.4-19.6-9.4c-5.3-3.4,0.5-15.2,2.5-20c1-2.9,18.9-0.6,22.5-3.7
			c-2-2.9-7.1-6.8-7.1-6.8c11.7-1.7,24.6-0.5,36.3-2.2c-3.5-4.5-10.3-11.6-7.2-12.8c32.7,0.8,65.3-4.5,98-5.1
			c36.5-0.7,74.4,7.3,110.6,3.4l22.3-16.4C1022,357.5,996.4,360.7,982.5,357.9"/>
		<path id="Fill-152" class="st23" d="M732.2,391l0.6,0C732.6,390.9,732.4,390.9,732.2,391"/>
		<path id="Fill-154" class="st19" d="M645.2,499.5c-9.9-4.2-20.5-8.4-27.2-16.8c-1.8-2.2-3.3-5.1-2.4-7.9c0.6-1.9,2.2-3.2,3.7-4.4
			c15.5-11.8,37-15.9,48.7-31.6c1.3-1.7,2.5-3.6,4.4-4.6c4.5-2.4,10,1.4,15.1,0.4c-0.5-1.2-0.7-2.5-0.4-3.7
			c7.7,0.6,15.5-0.7,22.5-3.7c3.4-1.5,7-6.1,4-8.3c10,0.6,20.1,0.1,30-1.5c-4.5-4.8-9-9.7-13.5-14.5c2.4-1.5,4.8-2.9,7.2-4.4
			c0.9-1.7-1.8-3-3.6-3.6c-1.6-0.6-2.3-3.4-1.2-3.8l-2.4,0c-12.2-0.1-24.4-2.9-35.4-8c-8.9-4.2-17-9.9-26.1-13.6
			c-1.1-0.4-2.2-0.9-3.4-0.6c-3.4,0.7-2.9,5.9-1,8.8c1.9,2.9,4.6,6.4,2.9,9.5c-1.3,2.4-4.7,2.8-7.3,1.9c-2.6-0.9-4.8-2.6-7.4-3.6
			c-7.7-2.9-16.4,1.9-24.6,0.5c-7.7-1.3-14.8-8.1-22.3-6c5.4,4.6,9.2,11,10.4,18c-13-6.1-25.9-12.3-38.9-18.4
			c-0.8-0.4-1.7-0.8-2.6-0.7c-3.1,0.4-2.4,5.1-0.9,7.8c5,8.7,10.6,17,16.8,24.9c-3.8,0.5-7.8-0.2-11.2-2c1.7,2.7-0.6,6.2-3.1,8.1
			c-2.5,1.9-5.6,3.7-6.3,6.8c-0.3,1.3-0.1,2.7,0.2,4.1c1.7,8.5,5.3,17.3,12.5,22.1c-13.5,2.4-27-5.1-36.6-14.9s-16.6-21.8-25.7-32.1
			c-10.5-11.8-27.3-21.3-40.6-29.6c4.9,19,11.2,35,17.6,51.4c-1.5,0.7-3.2,0.9-4.8,0.6c2.3,14,14,24.1,24.1,33.9
			c9.4,9.1,18.2,18.9,26.2,29.3c2,2.6,4.1,6.1,2.6,9.1c-0.5,0.9-1.3,1.7-1.5,2.7c-1,4.2,7.3,4.9,8.1,9.1c0.5,2.2-1.4,4.5-0.6,6.6
			c0.5,1.2,1.7,2,2.8,2.6c10.4,6,28.1,15.9,38.5,21.9H615h117.9c-5-4.2-11.1-5.9-16.9-8.7C692.6,521,669.2,509.5,645.2,499.5"/>
		<path id="Fill-158" class="st24" d="M0,107.7l89.7,3.5l81.1-12.4h23.8L237,82.1h37l82-8.8l78.5-5.3l26.5-8.8l45.4,5.3l-17.2,9.7
			l-26.5,22.1L372.8,129l-15,4.4l-11.5,15.9l-93.2,34.4l-10.9,15.9h-23.8l-14.1,24.7l-50.3,47.6l-67.9,18.5L110,361
			c0,0,1.8,64.4,1.8,67.1c0,2.6,75,113.3,75,113.3H0V107.7z"/>
		<path id="Fill-160" class="st25" d="M115,129.3c1-0.9-1.9-1.4-1.8-0.1c0.1,1.4,1.8,1.9,3.1,2.1c5.7,0.9,11.3,1.8,17.1,1.9
			c17.3,0.1,34.5-8.4,45-22.3c23.8-4.1,47.6-8.2,71.5-12.2c-4.5,0.1-9.1,0.2-13.6,0.4c11.6,0.3,23.2,0.6,34.8,1
			c-13.6,7.8-29.2,11.9-44.9,11.7c10.3,3.1,20.9,6.2,31.5,4.6c10.6-1.6,21.1-9.2,22.3-19.8c0.4-3.4-0.1-7,1.6-10
			c2-3.5,6.3-4.8,10.3-5.7c39.7-9.2,80.9-11.2,121.3-6.1c-4.8,0.2-9.3,2.9-11.7,7c33,8.3,74.9-0.5,105.1-17.2l-43.6,31.8
			c-21.9,8.8-52.7,8.5-69.7,2.9c-8.5-2.8-17.5-6.8-26.1-4.5c-8.7,2.4-14,15.5-6.4,20.3c-14.8,3.8-33.5,13.4-30.1,28.4
			c3.7,1,12.2,4.8,16,5.8l-71.5,26.4c6.2-10.5,9.3-29.6,15.5-40.1c6.5-10.8,15.7-23.1,28.2-21.8c-1.1-7.3-10.6-10.5-17.5-7.9
			c-6.9,2.6-11.5,8.9-15.7,14.9c-11.7,16.6-23.5,33.1-35.2,49.7c1.1-7.8-2.2-16.1-8.4-21.1c5.3-5.1-1.1-14.9-8.5-15.1
			c-7.4-0.2-13.6,5.2-18.9,10.3c-4.2-11.5-18.3-18.2-29.9-14.4c1.9,7.5,8.4,13.5,15.9,15c3.2,0.6,6.7,0.5,9.5,2.2
			c2.8,1.7,4.1,6.3,1.4,8.1c6.8-0.2,14.2-0.2,19.6,3.9s6.4,14.1,0.3,17c-10-3.9-20-7.8-30.1-11.7c-16.3-6.3-33-12.7-50.5-13.4
			c-22.7-0.8-44.4,8-65.4,16.8c5.7,1.8,11.5,3.7,17.2,5.5c-0.4,11.9,0.2,23.9,1.6,35.8c11.5,0.4,23.1-0.7,34.3-3.4
			c-3.4-0.5-6.8-1.1-10.2-1.6c-0.4-9.3,10.8-14.1,19.9-16.2c5.5-1.3,12.9-1.6,14.9,3.7c1.2,3.1-0.3,6.4-1.8,9.4
			c-5.9,11.6-11.8,23.2-17.6,34.9c6.1,1.4,12.2,2.9,18.2,4.3c-5.3,3.3-9.3,8.8-10.7,14.9c17.9-6.3,38.4-18.5,53.5-31.1l-50.3,47.7
			c0,0-53.1,15.5-78.6,22.9c0.2-7.4-6.3-14.4-13.7-14.7c-1.5-6.7-10.2-10.5-16.1-7.1c10.2,15.5,21.7,30.2,34.3,43.8
			c6.4,6.9,13.2,13.7,18.2,21.8c11.9,19.3,11.8,43.3,11.4,66c-0.3,18.3-0.7,36.6-1,54.9c5.9,4.2,13.2,6.4,20.5,6.2
			c0.5-3.3,1-6.6,1.5-9.9c4.8,14,12.5,26.9,22.6,37.8c-3.9,1-7.8,2.1-11.7,3.1c9.6,12.6,14.8,29,17,44.7c-14.3,0.2-27.4-0.2-41.7,0
			c3.1-11.5-12.6-18.5-20.8-27.1c-4.8-5-7.3-11.7-9.8-18.2c-7.6-20.2-15.1-40.3-22.7-60.5c-2.2,21.6-0.5,43.6,5.1,64.6
			c-6.4-8.6-12.8-17.2-19.3-25.8c-3.8,16.5-4.3,33.7-1.3,50.3c-6.3-12.1-12.6-24.1-18.9-36.2c-0.9,2.9-1.8,5.9-2.7,8.8
			c-2.4-7.9-4.9-15.8-7.3-23.7c-2.6,3.9-5.2,7.8-7.9,11.8c-3.2-3.1-8.7-2.5-11.2,1.2v-98.2c0.5,9.4,4,23.6,12.4,19.4
			c5.4,7,10.7,13.9,16.1,20.9c3.1-9.9,6.2-19.8,9.3-29.6c2.4,4.7,4.7,9.4,7.1,14.1c-0.5-12,5.8-24,15.9-30.3
			C59.6,398,71.9,413,87,415c2.2-7.4,4.4-14.8,6.6-22.2c-5.3-0.5-10.5,3.9-10.8,9.2c-3.4-2.7-6.8-6.3-7.1-10.6
			c-0.4-4.4,3.9-9.1,8-7.6c11.2-14.4-0.4-34.8-11.7-49.1c-6.1,7-7.4,17.8-3,25.9c-3.4,2.8-8.7,3.1-12.4,0.7
			c-7.3-2-7.1-12.2-5.6-19.6s0.4-17.9-7.1-18.6c1,3.4-1.7,7.4-5.3,7.7c-8.4-10-12.1-23.9-9.8-36.8c-9.7,6.4-22.1-8.1-18.5-19.1
			c3.6-11,15.3-17,26.2-21.2c2.4-13.9,1.7-28.3-2.2-41.9c-4.7,1.2-9.4,2.4-14.1,3.7c-5.4-18.8-3.1-39.7,6.2-56.9
			c11.1,5.9,16.9,20.3,13,32.3c4.5,0,9,0,13.5,0c-0.1,10.9,2.1,21.9,6.5,31.9c-1.1-4.3,2-9.2,6.3-10.1c4.4-0.9,9.1,2.4,9.8,6.8
			c-1.2,11.2-2.3,22.4-3.4,33.6c4.6-0.8,9.4,3.4,9.4,8.1c9.5,0.7,19.2-4.5,23.8-12.8c-6,0.5-12.5,1-17.6-2.2
			c-5.1-3.2-7.1-11.7-2.2-15.1c11.3,9.8,27.8,13,41.9,8.3c0.9-3.3-2.9-6.1-6.3-6.1c-3.4,0-6.7,1.5-10.1,1.4
			c-3.3-0.1-6.4-1.7-9.3-3.4c-30.4-18.2-43.8-47.4-59.6-77.3c-8.1-15.4-10.4-16.8,8.3-20.3C71.1,129.6,94,130.6,115,129.3"/>
		<path id="Fill-162" class="st26" d="M45.1,132.9c-7.9,0-15.7,2-22.6,5.9c9.9-0.7,19.8-1.4,29.6-2.1c4.3-0.3,8.8-0.7,12.2-3.4
			c-6.3-1.4-12.8-1.9-19.3-1.2"/>
		<path id="Fill-164" class="st26" d="M136.8,130.8c1.1,0,2.1,0,3.2,0c-2.7,3.8-9.2,3.3-11.6,7.3c3.9,1.8,8.4,0.4,12.5-1
			c5.8-2,11.6-3.9,17.4-5.9c0.5,0.3,0,1.2-0.5,1.1c5.3-0.8,11.3-2.1,13.7-6.8c-1.6-0.6-3.4-0.8-5.1-0.6c0.1-1,0.7-1.9,1.5-2.5
			C159.9,127.5,146.1,129.8,136.8,130.8"/>
		<path id="Fill-166" class="st26" d="M79.1,160.1c1.1-0.1,2.2-0.2,3.3-0.3c-0.6,1.6-1.6,3.1-2.9,4.2c3.3-0.4,6.6-1.3,9.7-2.7
			c-0.6-2.7,2-5.6,4.7-5.4c1.8,1.9,4.8,0.2,7.3-0.6c0.4-0.1,0.9-0.2,1.3,0c0.4,0.3,0.3,1-0.2,1c10.2-3.2,21.3-3.4,31.6-0.6
			c0.8,0.2,1.5,0.4,2.3,0.5c0.9,0.1,1.8-0.1,2.7-0.2c2.6-0.4,5.1-0.8,7.7-1.2c1.8-0.8,3.5-1.7,5.3-2.5c-10.7-0.5-21.5-0.9-32.2-1.3
			c-0.1-0.7,0.3-1.4,1-1.6c-2.5,0.9-8.8-1.1-11.8-0.9c-4,0.4-7.9,1.6-11.8,2.6C90.2,152.8,84.6,155.4,79.1,160.1"/>
		<path id="Fill-168" class="st26" d="M295.2,101.7c0.4,1.7-0.8,3.7-2.5,4c1.4-0.2,2.8-0.3,4.2-0.5c-3.5,0.9-6.9,2.4-9.8,4.6
			c-1.2,0.9-2.5,2.5-1.6,3.8c5.9-1.8,11.5-4.3,16.8-7.5c1.2-0.7,2.5-1.5,3.9-1.8c1.6-0.3,3.3,0.2,4.9,0.3c1.6,0.1,3.5-0.4,4.2-1.9
			c-0.6-1.3-2.8-0.3-3.9-1.3c-0.9-0.8,0.1-2.6,1.2-2.2C310.7,98.8,294.8,100.3,295.2,101.7"/>
		<path id="Fill-170" class="st26" d="M305.3,122.3c-2.2-1.4-5.3-0.8-7.6,0.5c-2.3,1.3-4.4,3.1-6.9,4.1c0.2-0.7,1.4,0.1,1,0.8
			c-0.3,0.6-1.2,0.7-1.9,0.8c-0.7,0.1-1.6,0.4-1.6,1.2c7,1.4,14.4,0.2,20.6-3.3c-1.2-0.3-2.3-0.6-3.5-0.9c0.1-1.4,1.1-2.8,2.4-3.4
			c-0.5-0.5-1.1-0.9-1.8-1.1"/>
		<path id="Fill-172" class="st26" d="M391.8,81.4c0.7,0,1.5,0.1,1.7,0.7c0.3,0.6-0.9,1.2-1,0.6c7.1,0.4,14.3-0.2,21.3-1.8
			c1.3-0.3,2.8-1.4,2.2-2.4c-0.3-0.4-0.8-0.6-1.2-0.7c-3.3-1-6.7-1.8-10.1-2.3c1.8-0.7,3.7-1.5,5.5-2.2c-10.8,1.6-21.6,3.2-32.3,4.8
			c-0.6,0.1-1.2,0.1-1.6-0.2c-0.4-0.4-0.1-1.3,0.4-1.1c-1.2,1.3-3.5,0.8-4.9-0.2c-1.5-1-2.7-2.5-4.4-3c-1-0.3-2-0.3-3-0.3
			c-6.4,0.1-12.7,0.1-19.1,0.2c-1.7,0-3.5,0-5.2,0.4c-2.6,0.5-5.1,1.8-7.1,3.6c4.2,0.9,9.5-0.7,12.4,2.5c1.2,1.3,2.8,3.4,4.1,2.2
			c-1-2.4,2.5-4,5-4.3c1.9-0.2,3.7-0.4,5.6-0.6c1.6-0.2,3.9,0.4,3.5,2c2.7-0.2,4.9,1.8,7.2,3.2C375.3,84.9,386.3,81.5,391.8,81.4"/>
		<path id="Fill-174" class="st27" d="M469.2,60.2l-8.3-1c0,0-4.3,3.2-6,4.1c-2.6,1.2-5.2,2.5-7.7,3.7c0.7-0.1,1.5,0.4,1.7,1.1
			c0.2,0.7-0.2,1.5-0.9,1.9c4.7-1.8,9.4-3.7,14.3-4.8c3.1-0.7,6.2-1.2,9.3-1.4c1.4-0.1,2.7-0.1,4.1-0.2
			C474.5,61.1,471.9,60.3,469.2,60.2"/>
		<path id="Fill-176" class="st27" d="M448,70c-0.2,0.1-0.5,0.2-0.7,0.3C447.6,70.2,447.8,70.1,448,70"/>
		<path id="Fill-178" class="st27" d="M447.2,67c-0.3,0-0.5,0.1-0.7,0.3C446.8,67.2,447,67.1,447.2,67"/>
		<path id="Fill-180" class="st26" d="M80.3,111.6c-1.5-0.3-3-0.9-4.5-1c-4.3-0.2-8,3.9-12.3,3.4c4.2,1.3,8.7,1.9,13.1,1.6
			c1.2-0.1,2.5-0.2,3.6,0.3c1.1,0.5,2,1.7,1.6,2.9c3.6,1.6,8.1,1.1,11.3-1.2c-0.2,1.6,1.7,2.6,3.3,2.9c5.9,1.2,12.2,0.6,17.8-1.7
			c-0.8,0-1.3-1.1-1.1-1.9c0.3-0.8,1-1.4,1.7-1.8c6.5-4.3,14.4-6.5,22.3-6.3c-5-1.8-10.7-1.8-15.7,0.1c-2.4,0.9-4.7,2.2-7.2,3.1
			c-2.1,0.8-4.3,1.2-6.5,1.4c0.5-0.8,0.7-1.7,0.7-2.7c-4.7-0.3-10.1-1.3-14.7-0.9C89,110,85.2,112.6,80.3,111.6"/>
		<path id="Fill-182" class="st26" d="M192.5,138.6c3.2,0.6,6.6-0.1,9.3-2c-0.1,0.7-0.5,1.3-1.1,1.7c2.9-2.9,8.7,1.1,11.7-1.7
			c-0.6,1-1.5,1.8-2.5,2.4c1.5,0,2.9,0,4.4,0c0,1.3-0.1,2.7-0.5,3.9c-1.2,3.9-5,6.9-9.1,7.1c-0.1,0.6,0.6,1.1,1.2,1.2
			c0.6,0.1,1.3,0,1.9,0.4c0.5,0.4,0.5,1.4-0.1,1.4c2.3-0.6,4.6-1.2,6.9-1.7c0.9-0.2,1.8-0.5,2.3-1.3c0.4-0.8-0.3-2.1-1.1-1.7
			c2.3-1.8,3.8-4.7,3.8-7.7c0-3.1-1.4-6.7,0.7-8.9c0.5-0.6,1.2-0.9,1.8-1.3c3.5-2.1,7-4.1,10.5-6.2c-2.5,0.2-4.9,0.7-7.4,1.1
			c-5.9,1.1-12.3,1.8-17.9,3.9C204.2,130.2,194.2,138.9,192.5,138.6"/>
		<g id="Group-186" transform="translate(0.000000, 108.012965)">
			<g id="Clip-185">
			</g>
			<defs>
				<filter id="Adobe_OpacityMaskFilter_5_" filterUnits="userSpaceOnUse" x="0" y="0.2" width="55" height="36.4">
					<feColorMatrix  type="matrix" values="1 0 0 0 0  0 1 0 0 0  0 0 1 0 0  0 0 0 1 0"/>
				</filter>
			</defs>
			<mask maskUnits="userSpaceOnUse" x="0" y="0.2" width="55" height="36.4" id="mask-12">
				<g class="st28">
					<polygon id="path-11" class="st5" points="0,0.2 55,0.2 55,36.7 0,36.7 					"/>
				</g>
			</mask>
			<path id="Fill-184" class="st29" d="M14.4,0.3c0.7-0.5,2.7,1.7,2.8,2.5c-6.1,1.3-11.9,4.1-16.8,8c1.3,0.2,2.7,0.4,4,0.6
				C0.4,12.7,0,17.1,0,21.4C0,26,0,32,0,36.6c0.8,0.5,1.1-1.3,1.3-2.2c0.5-3,3.3-5.5,6.3-5.6C7.1,28.8,6.8,28,7,27.5
				c0.3-0.5,0.9-0.7,1.3-1c2.6-1.6,2.6-5.9,0.1-7.6c0.4-0.7,1.1-1.2,1.8-1.4c-1.6-1.4-0.6-4.4,1.4-5c2-0.7,4.2,0.4,5.5,2.1
				c9.5,0.4,18.9,0.7,28.4,0.8c3.2,0,6.6,0,9.4-1.4c-4.9-0.7-9.9-0.9-14.9-0.6c-3.2,0.2-7.3,0.1-8.4-2.9c1.2-0.5,2.6-0.6,3.9-0.1
				c-1.6,0.2-3.1-1.5-2.7-3.1c0.4-1.6,2.4-2.4,3.8-1.8c-2.6-0.3-5.1-0.6-7.7-1c0.3-1,2-2.6,2.3-3.6L14.4,0.3z"/>
		</g>
		<path id="Fill-187" class="st26" d="M215.7,92.5c0.3-0.2,0.7-0.4,0.6-0.8c-0.1-0.3-0.8,0-0.5,0.2c4.2-0.2,8.3-0.4,12.5-0.6
			c0.5,0,1.1,0,1.4,0.4c0.3,0.4-0.2,1.1-0.6,0.8c5,0,9.9,0,14.9,0.1c-0.8,1.2-0.2,3.1,1.1,3.5c-5.9,5.1-14.8,3.6-22.5,4.8
			c-6.7,1.1-13,4.4-19.8,5.2c-5.4,0.7-11.1-0.2-16.3,1.4c0.7-1-0.6-2.1-1.7-2.5c1.7-0.7,3.4-1.5,5.1-2.2c-6.4,0.9-13-0.4-18.6-3.6
			C185.9,98.8,202.5,99.7,215.7,92.5"/>
		<path id="Fill-189" class="st26" d="M54.3,186.2c1.4,0.2,2.8,0.5,3.7,1.6c0.9,1.1,0.5,3.1-0.8,3.2c4.3,0.7,8.6,1.8,12.7,3.2
			c0.9,0.3,2,0.9,1.8,1.8c-0.2,1,1.1,1.6,2.1,1.8c6.9,1.3,14,1.7,21,1.2c0.6,0,1.4-0.1,1.5-0.7c0.1-0.6-1.2-0.5-0.8-0.1
			c2.1-0.3,4.2-0.7,6.2-1c-6.8,4.4-14.4,7.6-22.3,9.5c0.5-0.9-0.2-2.1-1.1-2.6c-0.9-0.5-2-0.4-3-0.4c-7.3,0-14.6-1.9-21.1-5.4
			c-1.7,0.8-0.3,3.3,0.7,4.9c3,4.7,1,11.8,5,15.8c-5.2-5.5-9.3-12.1-11.8-19.2c-0.9-2.7-3.6-4.4-6.4-5c-2.7-0.6-5.5-0.3-8.2,0
			c1.8-2.8,0.3-8.5,3.1-10.6C39.5,181.9,51,185.6,54.3,186.2"/>
		<path id="Fill-191" class="st26" d="M198.6,174.9c-0.9,0.6-1.8,1.1-2.7,1.7c2.3-0.3,4.5-0.6,6.8-0.9c2.3,2.1,4.7,4.2,7,6.4
			c9.6-1.5,16.3-12.4,26-12.5c-0.8,0.5-1.7,1.1-2.5,1.6c5.7-2.2,11.9-3,18-2.4c-8,6.4-17.4,10.7-26.7,14.8
			c-6.1,2.7-12.7,5.5-19.3,4.3c-2.4-0.5-4.7-1.4-7-2.2c-7.3-2.5-15.1-3.2-22.7-2.1c-2.3,0.3-4.9,1.1-5.6,3.3
			c-0.3,0.8-0.2,1.7-0.7,2.4c-0.6,0.9-1.8,1.1-2.9,1.2c-3.2,0.4-6.4,0.8-9.6,1.2c-0.3-3.5-5.2-4-8.7-3.5c-3.9,0.6-7.8,1.3-11.7,1.9
			c2.8-4.6,8-7.7,13.4-7.9c3-0.1,6,0.7,9,0.6c3-0.1,6.3-1.3,7.6-4c-0.2-1.6-0.4-3.1-0.6-4.7c-0.5-3.9,13.7-3.4,15.9-2.4
			C187.7,174.4,191.3,177.7,198.6,174.9"/>
		<path id="Fill-193" class="st26" d="M361,93.6c0.3,2.2-0.2,4.6-1.5,6.5c6.3,0,12.7,0,19,0c-1,1.1-1.9,2.1-2.9,3.2
			c3.9,0.6,7.7,1.3,11.6,1.9c3,0.5,6.1,1,9,0.2c5.4-1.4,9.3-6.8,14.9-7.6c-0.9,0.3-1.9-0.4-2-1.3c4.6-0.9,7.3-5.9,11.5-8
			c1.9-0.9,4.1-1.3,6.2-1.5c4.5-0.6,9-1.2,13.5-1.9c-6.2-0.9-12.4-1.1-18.6-0.5c-2.4,0.2-4.8,0.6-6.9,1.8c-1.8,1-3.2,2.6-4.7,3.9
			c-4.3,3.8-10,6.1-15.7,6.4c0.4-0.8-0.7-1.4-1.6-1.6C389.6,94.7,360.8,91.8,361,93.6"/>
		<g id="Group-197" transform="translate(437.873885, 0.000000)">
			<g id="Clip-196">
			</g>
			<defs>
				<filter id="Adobe_OpacityMaskFilter_6_" filterUnits="userSpaceOnUse" x="0.1" y="0" width="32.8" height="63.7">
					<feColorMatrix  type="matrix" values="1 0 0 0 0  0 1 0 0 0  0 0 1 0 0  0 0 0 1 0"/>
				</filter>
			</defs>
			<mask maskUnits="userSpaceOnUse" x="0.1" y="0" width="32.8" height="63.7" id="mask-14">
				<g class="st30">
					<polygon id="path-13" class="st5" points="0.1,0 32.9,0 32.9,63.7 0.1,63.7 					"/>
				</g>
			</mask>
			<path id="Fill-195" class="st31" d="M14.5,59.9c2,0.5,3.1,2.4,3.1,2.4C15.6,63,12,63.4,10,63.7c0.6-6.5,0.8-11.5,1.4-18.1
				c0.1-1.3-0.1-5.9-0.3-7.2l-0.9-0.9l-0.9-5.3c-1.8-0.1-3.7-0.3-5.4-0.9c-1.7-0.7-3.3-2-3.7-3.8c-0.3-1.4,0-2.8,0.3-4.2
				c1.1-4.7,2.3-9.3,3.4-14c0.5-2,1-4,2.3-5.6C6.8,3,7.5,2.4,8.4,2.3c1.7-0.2,5.6,1.9,7.3,2.2c0,0,0.5-4.4,3.1-4.5
				c1.5-0.1,4.3,0.7,5,2c0.7,1.3-0.4,6.1-1.4,7.3c-0.4,0.5-1.8-0.5-2.8-0.2l-0.3,1.3c4.1,1.1,5.2,14.9,5.1,15.6
				c-0.3,1.6-3.6,3.3-3.6,3.3l-0.3,2.2l7.6,11c0,0,1.6,13.3,1.6,15.1c0,0,3.1,1.9,3.1,3.5c-2.1,0.3-4.6-0.2-6.8-0.9
				c0.3-4.2-2.4-15.2-2.4-15.2s-4.4-4.7-6.2-6.6l-1.9,12.4C15.2,53,14.5,59.9,14.5,59.9"/>
		</g>
	</g>
</g>
<linearGradient id="Rectangle_1_" gradientUnits="userSpaceOnUse" x1="538.0707" y1="306.3636" x2="538.0707" y2="307.3412" gradientTransform="matrix(1146 0 0 -176 -616010 54458)">
	<stop  offset="0" style="stop-color:#F5F5F5"/>
	<stop  offset="1" style="stop-color:#F5F5F5;stop-opacity:0"/>
</linearGradient>
<rect id="Rectangle" y="365.9" class="st32" width="1238" height="176"/>
</svg>
