<svg width="1600" height="2339" viewBox="0 0 1600 2339" fill="none" xmlns="http://www.w3.org/2000/svg">
<rect width="1600" height="2339" fill="url(#paint0_linear)"/>
<g opacity="0.33">
<path fill-rule="evenodd" clip-rule="evenodd" d="M1481.75 367.447C1481.75 373.338 1486.38 378.114 1492.08 378.114C1497.79 378.114 1502.42 373.338 1502.42 367.447C1502.42 361.556 1497.79 356.781 1492.08 356.781C1486.38 356.781 1481.75 361.556 1481.75 367.447ZM1497.25 367.447C1497.25 370.393 1494.94 372.781 1492.08 372.781C1489.23 372.781 1486.92 370.393 1486.92 367.447C1486.92 364.502 1489.23 362.114 1492.08 362.114C1494.94 362.114 1497.25 364.502 1497.25 367.447Z" fill="#979797"/>
<mask id="mask0" mask-type="alpha" maskUnits="userSpaceOnUse" x="1481" y="356" width="22" height="23">
<path fill-rule="evenodd" clip-rule="evenodd" d="M1481.75 367.447C1481.75 373.338 1486.38 378.114 1492.08 378.114C1497.79 378.114 1502.42 373.338 1502.42 367.447C1502.42 361.556 1497.79 356.781 1492.08 356.781C1486.38 356.781 1481.75 361.556 1481.75 367.447ZM1497.25 367.447C1497.25 370.393 1494.94 372.781 1492.08 372.781C1489.23 372.781 1486.92 370.393 1486.92 367.447C1486.92 364.502 1489.23 362.114 1492.08 362.114C1494.94 362.114 1497.25 364.502 1497.25 367.447Z" fill="white"/>
</mask>
<g mask="url(#mask0)">
<rect x="1474" y="348.781" width="62" height="64" fill="white"/>
</g>
<path fill-rule="evenodd" clip-rule="evenodd" d="M1507.58 394.114C1507.58 400.005 1512.21 404.781 1517.92 404.781C1523.62 404.781 1528.25 400.005 1528.25 394.114C1528.25 388.223 1523.62 383.447 1517.92 383.447C1512.21 383.447 1507.58 388.223 1507.58 394.114ZM1523.08 394.114C1523.08 397.059 1520.77 399.447 1517.92 399.447C1515.06 399.447 1512.75 397.059 1512.75 394.114C1512.75 391.168 1515.06 388.781 1517.92 388.781C1520.77 388.781 1523.08 391.168 1523.08 394.114Z" fill="#979797"/>
<mask id="mask1" mask-type="alpha" maskUnits="userSpaceOnUse" x="1507" y="383" width="22" height="22">
<path fill-rule="evenodd" clip-rule="evenodd" d="M1507.58 394.114C1507.58 400.005 1512.21 404.781 1517.92 404.781C1523.62 404.781 1528.25 400.005 1528.25 394.114C1528.25 388.223 1523.62 383.447 1517.92 383.447C1512.21 383.447 1507.58 388.223 1507.58 394.114ZM1523.08 394.114C1523.08 397.059 1520.77 399.447 1517.92 399.447C1515.06 399.447 1512.75 397.059 1512.75 394.114C1512.75 391.168 1515.06 388.781 1517.92 388.781C1520.77 388.781 1523.08 391.168 1523.08 394.114Z" fill="white"/>
</mask>
<g mask="url(#mask1)">
<rect x="1474" y="348.781" width="62" height="64" fill="white"/>
</g>
<path d="M1488.47 401.05L1484.81 397.279L1520.98 359.943L1524.64 363.715L1488.47 401.05Z" fill="#979797"/>
<mask id="mask2" mask-type="alpha" maskUnits="userSpaceOnUse" x="1484" y="359" width="41" height="43">
<path d="M1488.47 401.05L1484.81 397.279L1520.98 359.943L1524.64 363.715L1488.47 401.05Z" fill="white"/>
</mask>
<g mask="url(#mask2)">
<rect x="1474" y="348.781" width="62" height="64" fill="white"/>
</g>
<path fill-rule="evenodd" clip-rule="evenodd" d="M140.046 584.66C140.532 586.855 142.798 588.226 145.097 587.717C147.398 587.208 148.874 585.008 148.388 582.814C147.902 580.618 145.636 579.246 143.335 579.755C141.036 580.264 139.56 582.464 140.046 584.66ZM120.787 588.924C121.272 591.118 123.538 592.49 125.839 591.981C128.138 591.472 129.614 589.272 129.128 587.077C128.642 584.881 126.376 583.51 124.077 584.018C121.776 584.528 120.3 586.728 120.787 588.924ZM138.539 577.868C139.616 576.902 140.938 576.165 142.465 575.826C147.036 574.815 151.539 577.542 152.504 581.903C153.292 585.462 151.458 588.999 148.281 590.738L150.727 592.962L147.802 595.918L143.253 591.783C139.738 591.457 136.701 589.055 135.93 585.572L132.091 568.227L128.201 556.029L129.383 568.724L133.244 586.166C134.209 590.525 131.276 594.899 126.709 595.91C122.14 596.921 117.635 594.194 116.67 589.835C115.705 585.474 118.638 581.101 123.207 580.09C124.734 579.751 126.245 579.864 127.63 580.283L125.203 569.28L122.204 537.075L126.312 536.234L136.161 567.147L138.539 577.868ZM143.762 532.849L161.04 529.024C162.179 528.772 163.293 529.448 163.533 530.533L175.237 583.401L171.12 584.312L167.227 566.722L151.661 570.168L150.791 566.239L166.357 562.793L165.396 558.452L149.83 561.897L148.96 557.968L164.526 554.523L163.581 550.254L148.015 553.699L147.146 549.771L162.711 546.325L161.719 541.842L146.153 545.288L145.284 541.359L160.849 537.913L159.852 533.408L144.632 536.778L143.762 532.849Z" fill="#293B81"/>
<mask id="mask3" mask-type="alpha" maskUnits="userSpaceOnUse" x="105" y="528" width="72" height="75">
<path fill-rule="evenodd" clip-rule="evenodd" d="M140.046 584.66C140.532 586.855 142.798 588.226 145.097 587.717C147.398 587.208 148.874 585.008 148.388 582.814C147.902 580.618 145.636 579.246 143.335 579.755C141.036 580.264 139.56 582.464 140.046 584.66ZM120.787 588.924C121.272 591.118 123.538 592.49 125.839 591.981C128.138 591.472 129.614 589.272 129.128 587.077C128.642 584.881 126.376 583.51 124.077 584.018C121.776 584.528 120.3 586.728 120.787 588.924ZM138.539 577.868C139.616 576.902 140.938 576.165 142.465 575.826C147.036 574.815 151.539 577.542 152.504 581.903C153.292 585.462 151.458 588.999 148.281 590.738L150.727 592.962L147.802 595.918L143.253 591.783C139.738 591.457 136.701 589.055 135.93 585.572L132.091 568.227L128.201 556.029L129.383 568.724L133.244 586.166C134.209 590.525 131.276 594.899 126.709 595.91C122.14 596.921 117.635 594.194 116.67 589.835C115.705 585.474 118.638 581.101 123.207 580.09C124.734 579.751 126.245 579.864 127.63 580.283L125.203 569.28L122.204 537.075L126.312 536.234L136.161 567.147L138.539 577.868ZM143.762 532.849L161.04 529.024C162.179 528.772 163.293 529.448 163.533 530.533L175.237 583.401L171.12 584.312L167.227 566.722L151.661 570.168L150.791 566.239L166.357 562.793L165.396 558.452L149.83 561.897L148.96 557.968L164.526 554.523L163.581 550.254L148.015 553.699L147.146 549.771L162.711 546.325L161.719 541.842L146.153 545.288L145.284 541.359L160.849 537.913L159.852 533.408L144.632 536.778L143.762 532.849Z" fill="white"/>
</mask>
<g mask="url(#mask3)">
<rect x="103.196" y="541.283" width="63.8977" height="62.9848" transform="rotate(-12.4822 103.196 541.283)" fill="white"/>
</g>
<path fill-rule="evenodd" clip-rule="evenodd" d="M1367.75 1014.35L1370.65 1014.32L1371 1013.53L1367.78 1012.14L1367.75 1014.35ZM1331.13 1007.89L1324.55 1003.53C1323.29 1002.69 1321.58 1003.2 1320.98 1004.59L1320.42 1005.87C1319.89 1007.1 1320.46 1008.53 1321.69 1009.06L1328.83 1012.15C1330.06 1012.68 1331.49 1012.11 1332.02 1010.88C1332.49 1009.8 1332.11 1008.54 1331.13 1007.89ZM1358.66 1018.28L1350.97 1016.47C1349.82 1016.2 1348.65 1016.79 1348.18 1017.87C1347.65 1019.1 1348.21 1020.54 1349.45 1021.07L1356.58 1024.16C1357.81 1024.69 1359.24 1024.12 1359.78 1022.89L1360.33 1021.61C1360.93 1020.22 1360.13 1018.63 1358.66 1018.28ZM1355.82 1038.47L1350.83 1036.31C1350.73 1036.26 1350.68 1036.15 1350.73 1036.05L1353.03 1030.72L1358.38 1033.03L1356.07 1038.37C1356.03 1038.46 1355.92 1038.51 1355.82 1038.47V1038.47ZM1316.58 1020.86C1316.54 1020.96 1316.43 1021 1316.33 1020.96L1312.22 1019.18C1312.13 1019.14 1312.08 1019.03 1312.12 1018.93L1314.28 1013.95L1318.74 1015.88L1316.58 1020.86ZM1319.88 991.419L1322.89 992.718L1321.37 994.199L1319.54 992.207L1319.88 991.419ZM1332.09 988.802C1334.6 987.046 1337.89 986.708 1340.7 987.926L1359 995.844C1361.81 997.058 1363.82 999.677 1364.26 1002.7L1364.14 1011.75L1325.66 995.104L1332.09 988.802ZM1322.3 1013.45C1322.18 1013.34 1322.05 1013.23 1321.9 1013.16C1321.74 1013.1 1321.58 1013.08 1321.41 1013.06L1315.73 1010.6L1319.34 1002.24C1320.1 1000.5 1321.3 998.994 1322.8 997.841L1364.09 1015.71C1364.1 1015.74 1364.1 1015.78 1364.1 1015.82C1364.37 1017.82 1364.08 1019.85 1363.28 1021.69L1359.83 1029.68L1322.3 1013.45ZM1372.73 1010.31L1367.83 1008.19L1367.91 1002.61C1367.91 1002.52 1367.9 1002.43 1367.89 1002.35C1367.32 998.009 1364.47 994.234 1360.45 992.497L1342.15 984.579C1338.12 982.836 1333.41 983.35 1329.85 985.919C1329.78 985.973 1329.71 986.032 1329.64 986.096L1325.7 989.962L1321.05 987.949C1319.36 987.218 1317.39 987.999 1316.66 989.688L1316.12 990.943C1315.59 992.152 1315.83 993.558 1316.72 994.527L1318.7 996.686C1317.59 997.899 1316.66 999.273 1316 1000.8L1308.78 1017.48C1307.94 1019.43 1308.83 1021.69 1310.77 1022.53L1314.88 1024.31C1316.82 1025.15 1319.09 1024.25 1319.93 1022.31L1322.08 1017.33L1349.69 1029.27L1347.38 1034.61C1346.54 1036.55 1347.43 1038.81 1349.38 1039.65L1354.37 1041.81C1356.31 1042.65 1358.58 1041.76 1359.42 1039.81L1362.14 1033.52C1362.34 1033.35 1362.51 1033.14 1362.63 1032.88C1362.74 1032.62 1362.77 1032.35 1362.76 1032.08L1366.63 1023.14C1367.34 1021.51 1367.71 1019.77 1367.8 1018L1370.9 1017.97C1372.21 1017.95 1373.4 1017.16 1373.92 1015.95L1374.46 1014.7C1375.2 1013.01 1374.42 1011.04 1372.73 1010.31V1010.31Z" fill="#BC6647"/>
<mask id="mask4" mask-type="alpha" maskUnits="userSpaceOnUse" x="1303" y="976" width="78" height="69">
<path fill-rule="evenodd" clip-rule="evenodd" d="M1367.75 1014.35L1370.65 1014.32L1371 1013.53L1367.78 1012.14L1367.75 1014.35ZM1331.13 1007.89L1324.55 1003.53C1323.29 1002.69 1321.58 1003.2 1320.98 1004.59L1320.42 1005.87C1319.89 1007.1 1320.46 1008.53 1321.69 1009.06L1328.83 1012.15C1330.06 1012.68 1331.49 1012.11 1332.02 1010.88C1332.49 1009.8 1332.11 1008.54 1331.13 1007.89ZM1358.66 1018.28L1350.97 1016.47C1349.82 1016.2 1348.65 1016.79 1348.18 1017.87C1347.65 1019.1 1348.21 1020.54 1349.45 1021.07L1356.58 1024.16C1357.81 1024.69 1359.24 1024.12 1359.78 1022.89L1360.33 1021.61C1360.93 1020.22 1360.13 1018.63 1358.66 1018.28ZM1355.82 1038.47L1350.83 1036.31C1350.73 1036.26 1350.68 1036.15 1350.73 1036.05L1353.03 1030.72L1358.38 1033.03L1356.07 1038.37C1356.03 1038.46 1355.92 1038.51 1355.82 1038.47V1038.47ZM1316.58 1020.86C1316.54 1020.96 1316.43 1021 1316.33 1020.96L1312.22 1019.18C1312.13 1019.14 1312.08 1019.03 1312.12 1018.93L1314.28 1013.95L1318.74 1015.88L1316.58 1020.86ZM1319.88 991.419L1322.89 992.718L1321.37 994.199L1319.54 992.207L1319.88 991.419ZM1332.09 988.802C1334.6 987.046 1337.89 986.708 1340.7 987.926L1359 995.844C1361.81 997.058 1363.82 999.677 1364.26 1002.7L1364.14 1011.75L1325.66 995.104L1332.09 988.802ZM1322.3 1013.45C1322.18 1013.34 1322.05 1013.23 1321.9 1013.16C1321.74 1013.1 1321.58 1013.08 1321.41 1013.06L1315.73 1010.6L1319.34 1002.24C1320.1 1000.5 1321.3 998.994 1322.8 997.841L1364.09 1015.71C1364.1 1015.74 1364.1 1015.78 1364.1 1015.82C1364.37 1017.82 1364.08 1019.85 1363.28 1021.69L1359.83 1029.68L1322.3 1013.45ZM1372.73 1010.31L1367.83 1008.19L1367.91 1002.61C1367.91 1002.52 1367.9 1002.43 1367.89 1002.35C1367.32 998.009 1364.47 994.234 1360.45 992.497L1342.15 984.579C1338.12 982.836 1333.41 983.35 1329.85 985.919C1329.78 985.973 1329.71 986.032 1329.64 986.096L1325.7 989.962L1321.05 987.949C1319.36 987.218 1317.39 987.999 1316.66 989.688L1316.12 990.943C1315.59 992.152 1315.83 993.558 1316.72 994.527L1318.7 996.686C1317.59 997.899 1316.66 999.273 1316 1000.8L1308.78 1017.48C1307.94 1019.43 1308.83 1021.69 1310.77 1022.53L1314.88 1024.31C1316.82 1025.15 1319.09 1024.25 1319.93 1022.31L1322.08 1017.33L1349.69 1029.27L1347.38 1034.61C1346.54 1036.55 1347.43 1038.81 1349.38 1039.65L1354.37 1041.81C1356.31 1042.65 1358.58 1041.76 1359.42 1039.81L1362.14 1033.52C1362.34 1033.35 1362.51 1033.14 1362.63 1032.88C1362.74 1032.62 1362.77 1032.35 1362.76 1032.08L1366.63 1023.14C1367.34 1021.51 1367.71 1019.77 1367.8 1018L1370.9 1017.97C1372.21 1017.95 1373.4 1017.16 1373.92 1015.95L1374.46 1014.7C1375.2 1013.01 1374.42 1011.04 1372.73 1010.31V1010.31Z" fill="white"/>
</mask>
<g mask="url(#mask4)">
<rect x="1325.67" y="968.868" width="62.9848" height="62.9848" transform="rotate(23.3954 1325.67 968.868)" fill="white"/>
</g>
<path fill-rule="evenodd" clip-rule="evenodd" d="M1537.96 1494.74L1538.25 1474.47L1580.57 1486.6L1568.34 1503.45L1537.96 1494.74ZM1570.82 1507.12L1585.69 1486.64C1586.1 1486.08 1586.21 1485.36 1585.99 1484.71C1585.77 1484.05 1585.25 1483.55 1584.6 1483.37L1538.31 1470.09L1538.44 1460.45C1538.46 1459.51 1537.85 1458.67 1536.94 1458.41L1526.22 1455.34C1525.12 1455.02 1523.96 1455.67 1523.64 1456.79C1523.32 1457.91 1523.95 1459.08 1525.06 1459.39L1534.26 1462.03L1533.64 1506.01C1533.63 1506.96 1534.24 1507.79 1535.14 1508.05L1568.29 1517.55C1569.39 1517.87 1570.55 1517.22 1570.87 1516.1C1571.19 1514.98 1570.55 1513.81 1569.45 1513.5L1537.83 1504.43L1537.9 1499.11L1568.57 1507.9C1569.4 1508.14 1570.3 1507.83 1570.82 1507.12ZM1539.38 1512.78C1536.8 1512.04 1534.09 1513.56 1533.34 1516.18C1532.59 1518.8 1534.08 1521.53 1536.66 1522.27C1539.24 1523.01 1541.95 1521.48 1542.7 1518.86C1543.45 1516.24 1541.96 1513.52 1539.38 1512.78ZM1556.15 1522.72C1556.9 1520.1 1559.6 1518.58 1562.19 1519.32C1564.77 1520.06 1566.25 1522.78 1565.5 1525.4C1564.75 1528.02 1562.05 1529.55 1559.47 1528.81C1556.88 1528.07 1555.4 1525.34 1556.15 1522.72Z" fill="#1A1919"/>
<mask id="mask5" mask-type="alpha" maskUnits="userSpaceOnUse" x="1507" y="1454" width="83" height="79">
<path fill-rule="evenodd" clip-rule="evenodd" d="M1537.96 1494.74L1538.25 1474.47L1580.57 1486.6L1568.34 1503.45L1537.96 1494.74ZM1570.82 1507.12L1585.69 1486.64C1586.1 1486.08 1586.21 1485.36 1585.99 1484.71C1585.77 1484.05 1585.25 1483.55 1584.6 1483.37L1538.31 1470.09L1538.44 1460.45C1538.46 1459.51 1537.85 1458.67 1536.94 1458.41L1526.22 1455.34C1525.12 1455.02 1523.96 1455.67 1523.64 1456.79C1523.32 1457.91 1523.95 1459.08 1525.06 1459.39L1534.26 1462.03L1533.64 1506.01C1533.63 1506.96 1534.24 1507.79 1535.14 1508.05L1568.29 1517.55C1569.39 1517.87 1570.55 1517.22 1570.87 1516.1C1571.19 1514.98 1570.55 1513.81 1569.45 1513.5L1537.83 1504.43L1537.9 1499.11L1568.57 1507.9C1569.4 1508.14 1570.3 1507.83 1570.82 1507.12ZM1539.38 1512.78C1536.8 1512.04 1534.09 1513.56 1533.34 1516.18C1532.59 1518.8 1534.08 1521.53 1536.66 1522.27C1539.24 1523.01 1541.95 1521.48 1542.7 1518.86C1543.45 1516.24 1541.96 1513.52 1539.38 1512.78ZM1556.15 1522.72C1556.9 1520.1 1559.6 1518.58 1562.19 1519.32C1564.77 1520.06 1566.25 1522.78 1565.5 1525.4C1564.75 1528.02 1562.05 1529.55 1559.47 1528.81C1556.88 1528.07 1555.4 1525.34 1556.15 1522.72Z" fill="white"/>
</mask>
<g mask="url(#mask5)">
<rect x="1525.02" y="1452" width="68" height="69" transform="rotate(15.9974 1525.02 1452)" fill="white"/>
</g>
<path fill-rule="evenodd" clip-rule="evenodd" d="M522.595 1555.3C524.034 1554.99 524.956 1553.58 524.653 1552.14L524.106 1549.54L539.739 1546.25L540.286 1548.86C540.589 1550.3 542 1551.22 543.439 1550.92C544.878 1550.61 545.8 1549.2 545.497 1547.76L544.95 1545.16L552.766 1543.51L554.409 1551.33L512.721 1560.09L511.078 1552.27L518.895 1550.63L519.442 1553.24C519.745 1554.68 521.156 1555.6 522.595 1555.3ZM513.816 1565.3L555.504 1556.54L560.432 1579.99L518.744 1588.75L513.816 1565.3ZM560.167 1552.84L557.977 1542.42C557.372 1539.54 554.549 1537.7 551.671 1538.3L543.855 1539.95L543.307 1537.34C543.005 1535.9 541.593 1534.98 540.154 1535.28C538.715 1535.58 537.794 1537 538.096 1538.44L538.644 1541.04L523.011 1544.33L522.463 1541.72C522.161 1540.28 520.749 1539.36 519.31 1539.66C517.871 1539.96 516.95 1541.38 517.252 1542.82L517.8 1545.42L509.983 1547.06C507.105 1547.67 505.263 1550.49 505.867 1553.37L508.057 1563.79L513.533 1589.85C514.138 1592.72 516.961 1594.57 519.839 1593.96L561.527 1585.2C564.405 1584.6 566.247 1581.77 565.643 1578.9L560.167 1552.84Z" fill="#383B41"/>
<mask id="mask6" mask-type="alpha" maskUnits="userSpaceOnUse" x="503" y="1531" width="64" height="65">
<path fill-rule="evenodd" clip-rule="evenodd" d="M522.595 1555.3C524.034 1554.99 524.956 1553.58 524.653 1552.14L524.106 1549.54L539.739 1546.25L540.286 1548.86C540.589 1550.3 542 1551.22 543.439 1550.92C544.878 1550.61 545.8 1549.2 545.497 1547.76L544.95 1545.16L552.766 1543.51L554.409 1551.33L512.721 1560.09L511.078 1552.27L518.895 1550.63L519.442 1553.24C519.745 1554.68 521.156 1555.6 522.595 1555.3ZM513.816 1565.3L555.504 1556.54L560.432 1579.99L518.744 1588.75L513.816 1565.3ZM560.167 1552.84L557.977 1542.42C557.372 1539.54 554.549 1537.7 551.671 1538.3L543.855 1539.95L543.307 1537.34C543.005 1535.9 541.593 1534.98 540.154 1535.28C538.715 1535.58 537.794 1537 538.096 1538.44L538.644 1541.04L523.011 1544.33L522.463 1541.72C522.161 1540.28 520.749 1539.36 519.31 1539.66C517.871 1539.96 516.95 1541.38 517.252 1542.82L517.8 1545.42L509.983 1547.06C507.105 1547.67 505.263 1550.49 505.867 1553.37L508.057 1563.79L513.533 1589.85C514.138 1592.72 516.961 1594.57 519.839 1593.96L561.527 1585.2C564.405 1584.6 566.247 1581.77 565.643 1578.9L560.167 1552.84Z" fill="white"/>
</mask>
<g mask="url(#mask6)">
<rect x="497.371" y="1538.83" width="63.8977" height="63.8977" transform="rotate(-11.8677 497.371 1538.83)" fill="white"/>
</g>
<path fill-rule="evenodd" clip-rule="evenodd" d="M802.294 821.555L847.638 793.372L837.956 777.291L792.612 805.474L802.294 821.555ZM799.933 807.237L836.167 784.716L840.317 791.608L804.082 814.129L799.933 807.237ZM786.313 809.447C787.417 807.829 789.795 807.895 790.788 809.571L796.555 819.294C797.528 820.936 796.539 823.063 794.664 823.36L780.752 825.569C778.442 825.936 776.835 823.331 778.167 821.379L786.313 809.447Z" fill="black"/>
<mask id="mask7" mask-type="alpha" maskUnits="userSpaceOnUse" x="777" y="766" width="74" height="74">
<path fill-rule="evenodd" clip-rule="evenodd" d="M802.294 821.555L847.638 793.372L837.956 777.291L792.612 805.474L802.294 821.555ZM799.933 807.237L836.167 784.716L840.317 791.608L804.082 814.129L799.933 807.237ZM786.313 809.447C787.417 807.829 789.795 807.895 790.788 809.571L796.555 819.294C797.528 820.936 796.539 823.063 794.664 823.36L780.752 825.569C778.442 825.936 776.835 823.331 778.167 821.379L786.313 809.447Z" fill="white"/>
</mask>
<g mask="url(#mask7)">
<rect x="789.094" y="763.894" width="63.8977" height="64.8105" transform="rotate(13.5438 789.094 763.894)" fill="white"/>
</g>
<path fill-rule="evenodd" clip-rule="evenodd" d="M62.3031 1262.5C55.4827 1264.96 47.9305 1261.41 45.4706 1254.59C43.01 1247.77 46.5591 1240.22 53.3795 1237.76C60.2 1235.3 67.7532 1238.85 70.2137 1245.67C72.6737 1252.49 69.1235 1260.04 62.3031 1262.5ZM41.2467 1275.5C39.4384 1276.15 38.4987 1278.16 39.1509 1279.97L44.03 1293.49C44.6823 1295.3 46.6834 1296.24 48.4918 1295.59L74.4708 1286.22C76.2792 1285.57 77.2195 1283.57 76.5672 1281.76L71.6881 1268.23C71.0359 1266.42 69.0341 1265.48 67.2258 1266.13L41.2467 1275.5ZM49.7283 1299.02L75.7073 1289.65C79.4046 1288.31 81.329 1284.22 79.9955 1280.52L75.1164 1266.99C73.7822 1263.3 69.6866 1261.37 65.9893 1262.7L40.0103 1272.07C36.3129 1273.41 34.3886 1277.5 35.7227 1281.2L40.6018 1294.73C41.9354 1298.43 46.0309 1300.35 49.7283 1299.02ZM28.2323 1265.23C29.9145 1269.9 35.0777 1272.32 39.7418 1270.64C44.4058 1268.96 46.8327 1263.79 45.1505 1259.13C43.4683 1254.47 38.3051 1252.04 33.641 1253.72C28.977 1255.4 26.5501 1260.57 28.2323 1265.23ZM91.7978 1279.86C92.1781 1279.97 92.5748 1279.95 92.9348 1279.82C93.1988 1279.73 93.4428 1279.57 93.6417 1279.36C94.1143 1278.86 94.2638 1278.14 94.0307 1277.49L87.7927 1260.2C87.5596 1259.55 86.9823 1259.09 86.2996 1259C85.6198 1258.92 84.9471 1259.23 84.5638 1259.8L78.4817 1268.89C78.1597 1269.37 78.0858 1269.98 78.2817 1270.52L80.1167 1275.61C80.3126 1276.15 80.7563 1276.57 81.312 1276.74L91.7978 1279.86Z" fill="#1A1919"/>
<path fill-rule="evenodd" clip-rule="evenodd" d="M972.013 2050.51C971.436 2050.84 970.686 2050.9 970.059 2050.67C969.922 2050.62 969.474 2050.41 968.876 2049.67C968.508 2048.69 968.624 2048.13 968.752 2047.79C968.804 2047.64 969.03 2047.16 969.835 2046.51L1007.05 2027.25L1006.56 2024.19C1006.05 2021.07 1006.25 2020.07 1006.25 2020.07V2020.07C1006.58 2019.16 1007 2018.96 1007.2 2018.87L1023.09 2011.07L1023.43 2011.91L1023.53 2012.17L1023.66 2012.41L1024.17 2013.32L1010.99 2020.25L1012.83 2023.88L1026.17 2016.86L1027.38 2018.99L1014.06 2026L1015.9 2029.62L1029.38 2022.53L1030.23 2024.04C1030.21 2024.07 1030.18 2024.1 1030.13 2024.14L1015.56 2033.82C1015.18 2034.03 1014.67 2034.17 1013.73 2033.92L1013.71 2033.92C1013.24 2033.7 1011.94 2032.76 1010.57 2031.46L1008.31 2029.3L972.013 2050.51ZM1013.89 2062.71C1013.94 2062.81 1013.88 2062.99 1013.86 2063.04C1013.65 2063.4 1013.27 2063.79 1012.79 2064.12C1012.45 2064.23 1012.05 2064.22 1011.7 2064.09C1011.48 2064.01 1011.37 2063.91 1011.36 2063.9L1000.15 2039.46L999.956 2039.05L1002.25 2037.67L1013.89 2062.71ZM984.726 2011.04L984.684 2010.93L984.64 2010.83C983.431 2008.17 983 2005.84 983.393 2004.09C983.562 2003.33 983.952 2002.28 985.333 2001.39L997.452 2027.39L992.156 2030.14L984.726 2011.04ZM1012.33 2037.78C1012.46 2037.83 1012.58 2037.86 1012.7 2037.89C1014.66 2038.39 1016.27 2038.11 1017.64 2037.31L1032.46 2027.47C1034.23 2026.16 1034.82 2023.98 1033.8 2022.07L1027.18 2010.36L1026.55 2008.76C1026.09 2007.9 1025.4 2007.31 1024.61 2007.02C1023.64 2006.67 1022.52 2006.75 1021.48 2007.33L1005.46 2015.19C1004.16 2015.8 1003.09 2016.94 1002.46 2018.67C1001.89 2020.21 1002.3 2023.26 1002.57 2024.88L1001.05 2025.61L988.611 1998.79C988.253 1998 987.603 1997.43 986.844 1997.15C986.086 1996.87 985.222 1996.88 984.441 1997.25C978.974 1999.83 977.751 2005.49 980.959 2012.56L988.59 2032.19L967.703 2043.03C966.52 2043.91 965.456 2045.05 964.96 2046.39C964.324 2048.12 964.516 2049.94 965.347 2051.77C966.202 2052.96 967.316 2054.03 968.643 2054.52C970.349 2055.14 972.339 2055 973.971 2054.07L996.466 2041.2L1007.68 2065.63C1008.17 2066.72 1009.14 2067.51 1010.29 2067.94C1011.64 2068.43 1013.24 2068.42 1014.65 2067.76C1015.76 2067.07 1016.75 2066.13 1017.36 2065.05C1018.05 2063.77 1018.17 2062.28 1017.57 2060.97L1005.81 2035.68L1007.78 2034.44C1008.8 2035.42 1010.91 2037.26 1012.33 2037.78V2037.78Z" fill="#D97246"/>
<mask id="mask8" mask-type="alpha" maskUnits="userSpaceOnUse" x="961" y="1991" width="78" height="82">
<path fill-rule="evenodd" clip-rule="evenodd" d="M972.013 2050.51C971.436 2050.84 970.686 2050.9 970.059 2050.67C969.922 2050.62 969.474 2050.41 968.876 2049.67C968.508 2048.69 968.624 2048.13 968.752 2047.79C968.804 2047.64 969.03 2047.16 969.835 2046.51L1007.05 2027.25L1006.56 2024.19C1006.05 2021.07 1006.25 2020.07 1006.25 2020.07V2020.07C1006.58 2019.16 1007 2018.96 1007.2 2018.87L1023.09 2011.07L1023.43 2011.91L1023.53 2012.17L1023.66 2012.41L1024.17 2013.32L1010.99 2020.25L1012.83 2023.88L1026.17 2016.86L1027.38 2018.99L1014.06 2026L1015.9 2029.62L1029.38 2022.53L1030.23 2024.04C1030.21 2024.07 1030.18 2024.1 1030.13 2024.14L1015.56 2033.82C1015.18 2034.03 1014.67 2034.17 1013.73 2033.92L1013.71 2033.92C1013.24 2033.7 1011.94 2032.76 1010.57 2031.46L1008.31 2029.3L972.013 2050.51ZM1013.89 2062.71C1013.94 2062.81 1013.88 2062.99 1013.86 2063.04C1013.65 2063.4 1013.27 2063.79 1012.79 2064.12C1012.45 2064.23 1012.05 2064.22 1011.7 2064.09C1011.48 2064.01 1011.37 2063.91 1011.36 2063.9L1000.15 2039.46L999.956 2039.05L1002.25 2037.67L1013.89 2062.71ZM984.726 2011.04L984.684 2010.93L984.64 2010.83C983.431 2008.17 983 2005.84 983.393 2004.09C983.562 2003.33 983.952 2002.28 985.333 2001.39L997.452 2027.39L992.156 2030.14L984.726 2011.04ZM1012.33 2037.78C1012.46 2037.83 1012.58 2037.86 1012.7 2037.89C1014.66 2038.39 1016.27 2038.11 1017.64 2037.31L1032.46 2027.47C1034.23 2026.16 1034.82 2023.98 1033.8 2022.07L1027.18 2010.36L1026.55 2008.76C1026.09 2007.9 1025.4 2007.31 1024.61 2007.02C1023.64 2006.67 1022.52 2006.75 1021.48 2007.33L1005.46 2015.19C1004.16 2015.8 1003.09 2016.94 1002.46 2018.67C1001.89 2020.21 1002.3 2023.26 1002.57 2024.88L1001.05 2025.61L988.611 1998.79C988.253 1998 987.603 1997.43 986.844 1997.15C986.086 1996.87 985.222 1996.88 984.441 1997.25C978.974 1999.83 977.751 2005.49 980.959 2012.56L988.59 2032.19L967.703 2043.03C966.52 2043.91 965.456 2045.05 964.96 2046.39C964.324 2048.12 964.516 2049.94 965.347 2051.77C966.202 2052.96 967.316 2054.03 968.643 2054.52C970.349 2055.14 972.339 2055 973.971 2054.07L996.466 2041.2L1007.68 2065.63C1008.17 2066.72 1009.14 2067.51 1010.29 2067.94C1011.64 2068.43 1013.24 2068.42 1014.65 2067.76C1015.76 2067.07 1016.75 2066.13 1017.36 2065.05C1018.05 2063.77 1018.17 2062.28 1017.57 2060.97L1005.81 2035.68L1007.78 2034.44C1008.8 2035.42 1010.91 2037.26 1012.33 2037.78V2037.78Z" fill="white"/>
</mask>
<g mask="url(#mask8)">
<rect x="981.064" y="1991" width="62.9848" height="63.8977" transform="rotate(20.2014 981.064 1991)" fill="white"/>
</g>
<mask id="mask9" mask-type="alpha" maskUnits="userSpaceOnUse" x="22" y="1229" width="74" height="73">
<path fill-rule="evenodd" clip-rule="evenodd" d="M62.3031 1262.5C55.4827 1264.96 47.9305 1261.41 45.4706 1254.59C43.01 1247.77 46.5591 1240.22 53.3795 1237.76C60.2 1235.3 67.7532 1238.85 70.2137 1245.67C72.6737 1252.49 69.1235 1260.04 62.3031 1262.5ZM41.2467 1275.5C39.4384 1276.15 38.4987 1278.16 39.1509 1279.97L44.03 1293.49C44.6823 1295.3 46.6834 1296.24 48.4918 1295.59L74.4708 1286.22C76.2792 1285.57 77.2195 1283.57 76.5672 1281.76L71.6881 1268.23C71.0359 1266.42 69.0341 1265.48 67.2258 1266.13L41.2467 1275.5ZM49.7283 1299.02L75.7073 1289.65C79.4046 1288.31 81.329 1284.22 79.9955 1280.52L75.1164 1266.99C73.7822 1263.3 69.6866 1261.37 65.9893 1262.7L40.0103 1272.07C36.3129 1273.41 34.3886 1277.5 35.7227 1281.2L40.6018 1294.73C41.9354 1298.43 46.0309 1300.35 49.7283 1299.02ZM28.2323 1265.23C29.9145 1269.9 35.0777 1272.32 39.7418 1270.64C44.4058 1268.96 46.8327 1263.79 45.1505 1259.13C43.4683 1254.47 38.3051 1252.04 33.641 1253.72C28.977 1255.4 26.5501 1260.57 28.2323 1265.23ZM91.7978 1279.86C92.1781 1279.97 92.5748 1279.95 92.9348 1279.82C93.1988 1279.73 93.4428 1279.57 93.6417 1279.36C94.1143 1278.86 94.2638 1278.14 94.0307 1277.49L87.7927 1260.2C87.5596 1259.55 86.9823 1259.09 86.2996 1259C85.6198 1258.92 84.9471 1259.23 84.5638 1259.8L78.4817 1268.89C78.1597 1269.37 78.0858 1269.98 78.2817 1270.52L80.1167 1275.61C80.3126 1276.15 80.7563 1276.57 81.312 1276.74L91.7978 1279.86Z" fill="white"/>
</mask>
<g mask="url(#mask9)">
<rect x="19" y="1247.37" width="62.9848" height="62.9848" transform="rotate(-19.833 19 1247.37)" fill="white"/>
</g>
<path fill-rule="evenodd" clip-rule="evenodd" d="M742.193 340.294C742.243 340.253 742.293 340.211 742.343 340.17C740.141 337.363 736.98 335.321 733.439 334.636C725.618 333.124 718.232 338.352 716.653 346.518C714.72 356.515 721.734 366.326 732.367 381.198L732.449 381.312L735.459 385.498L739.818 382.71L739.856 382.685C755.306 372.846 765.503 366.351 767.439 356.337C769.018 348.171 764.113 340.567 756.292 339.055C752.751 338.37 749.057 339.087 745.967 340.871C745.998 340.928 746.029 340.985 746.06 341.042L745.771 340.986C745.077 341.4 744.415 341.868 743.794 342.387C743.411 341.674 742.971 340.993 742.482 340.35L742.193 340.294ZM761.438 363.045C757.752 367.716 753.05 371.144 738.492 380.416L736.145 381.917L734.531 379.674C724.443 365.564 721.38 360.657 719.711 354.944C718.879 352.096 718.707 349.522 719.192 347.009C720.488 340.308 726.507 336.047 732.926 337.288C736.526 337.984 739.747 340.418 741.528 343.732L743.003 346.476L745.395 344.48C748.283 342.069 752.18 341.01 755.78 341.706C762.198 342.947 766.196 349.145 764.9 355.846C764.412 358.37 763.285 360.704 761.438 363.045Z" fill="#979797"/>
<mask id="mask10" mask-type="alpha" maskUnits="userSpaceOnUse" x="710" y="331" width="61" height="60">
<path fill-rule="evenodd" clip-rule="evenodd" d="M742.193 340.294C742.243 340.253 742.293 340.211 742.343 340.17C740.141 337.363 736.98 335.321 733.439 334.636C725.618 333.124 718.232 338.352 716.653 346.518C714.72 356.515 721.734 366.326 732.367 381.198L732.449 381.312L735.459 385.498L739.818 382.71L739.856 382.685C755.306 372.846 765.503 366.351 767.439 356.337C769.018 348.171 764.113 340.567 756.292 339.055C752.751 338.37 749.057 339.087 745.967 340.871C745.998 340.928 746.029 340.985 746.06 341.042L745.771 340.986C745.077 341.4 744.415 341.868 743.794 342.387C743.411 341.674 742.971 340.993 742.482 340.35L742.193 340.294ZM761.438 363.045C757.752 367.716 753.05 371.144 738.492 380.416L736.145 381.917L734.531 379.674C724.443 365.564 721.38 360.657 719.711 354.944C718.879 352.096 718.707 349.522 719.192 347.009C720.488 340.308 726.507 336.047 732.926 337.288C736.526 337.984 739.747 340.418 741.528 343.732L743.003 346.476L745.395 344.48C748.283 342.069 752.18 341.01 755.78 341.706C762.198 342.947 766.196 349.145 764.9 355.846C764.412 358.37 763.285 360.704 761.438 363.045Z" fill="white"/>
</mask>
<g mask="url(#mask10)">
<rect x="715.932" y="323" width="62.072" height="64.8105" transform="rotate(10.9426 715.932 323)" fill="white"/>
</g>
</g>
<defs>
<linearGradient id="paint0_linear" x1="-800" y1="1169.5" x2="1379.94" y2="2660.7" gradientUnits="userSpaceOnUse">
<stop offset="0.1882" stop-color="#20D0EE"/>
<stop offset="0.826432" stop-color="#0AED88"/>
</linearGradient>
</defs>
</svg>
