<svg width="73" height="76" viewBox="0 0 73 76" fill="none" xmlns="http://www.w3.org/2000/svg">
<path fill-rule="evenodd" clip-rule="evenodd" d="M58.1404 57.6981C58.3204 57.0261 59.0125 56.6297 59.682 56.8083C60.354 56.9883 60.7516 57.6779 60.5704 58.3424L60.252 59.5316C60.0721 60.2036 59.3825 60.6012 58.7105 60.4213C58.3342 60.3206 58.0435 60.0601 57.8925 59.7317C57.8925 59.7363 57.8911 59.74 57.8897 59.7436L57.8883 59.7475L57.8875 59.7505V62.7254L57.9085 62.7271C57.923 62.7281 57.9374 62.7288 57.9518 62.7294C57.9974 62.7315 58.0425 62.7336 58.0888 62.7456C58.7596 62.9255 59.1585 63.6164 58.9785 64.2872L58.6601 65.4751C58.5519 65.8816 58.2524 66.1773 57.8875 66.3157V70.4471C57.8875 73.5026 55.4008 75.9905 52.3441 75.9905H20.647C17.5903 75.9905 15.1036 73.5038 15.1036 70.4471V66.3094C14.745 66.1685 14.4505 65.874 14.3435 65.4738L14.0252 64.2859C13.8452 63.6139 14.2441 62.9243 14.9149 62.7443C14.9553 62.733 14.9957 62.731 15.0362 62.7291C15.0587 62.728 15.0811 62.7269 15.1036 62.7242V59.738C14.9501 60.0614 14.6644 60.3206 14.2907 60.42C13.6149 60.6037 12.9291 60.1998 12.7491 59.5303L12.4307 58.3424C12.2508 57.6704 12.6497 56.9807 13.3204 56.8008C13.9937 56.6145 14.682 57.0198 14.862 57.6905L15.1024 58.5865V58.37V58.3675V53.4509V53.4484V52.2176V52.2151V47.2997V47.2972V46.0652V46.0627V41.1473V41.1448V39.9128V39.9102V34.9949V34.9923V33.7603V33.7578V28.8424V28.8399V27.6079V27.6054V22.69V22.6875V21.4555V21.453V16.5376V16.535V15.3043V15.3018V10.3851V10.3826V9.15188V9.14937V6.03603C15.1024 2.98058 17.589 0.492676 20.6457 0.492676H52.3441C55.4021 0.492676 57.8887 2.98058 57.8875 6.03603V9.09148C57.8881 9.10161 57.8909 9.11089 57.8938 9.12013C57.8969 9.1304 57.9001 9.14062 57.9001 9.15188V10.3839C57.9001 10.3951 57.8969 10.4054 57.8938 10.4156C57.8909 10.4249 57.8881 10.4342 57.8875 10.4443V15.2452C57.8881 15.2553 57.8909 15.2646 57.8938 15.2738C57.8969 15.2841 57.9001 15.2943 57.9001 15.3056V16.5376C57.9001 16.5488 57.8969 16.559 57.8938 16.5693C57.8909 16.5786 57.8881 16.5878 57.8875 16.598V21.3976C57.8881 21.4077 57.8909 21.417 57.8938 21.4262C57.8969 21.4365 57.9001 21.4467 57.9001 21.458V22.69C57.9001 22.6956 57.8993 22.701 57.8981 22.7062C57.8973 22.7096 57.8964 22.713 57.8954 22.7164L57.8938 22.7217C57.8909 22.731 57.8881 22.7403 57.8875 22.7504V27.5513C57.8877 27.5545 57.8881 27.5576 57.8886 27.5606L57.8895 27.565C57.8907 27.5701 57.8922 27.575 57.8938 27.5799C57.8969 27.5902 57.9001 27.6004 57.9001 27.6117V28.8462C57.9001 28.8575 57.8969 28.8677 57.8938 28.878C57.8909 28.8872 57.8881 28.8965 57.8875 28.9066V33.7075L57.8878 33.7116L57.8886 33.7165C57.8898 33.7233 57.8918 33.7297 57.8938 33.7361L57.8955 33.7418C57.898 33.7502 57.9001 33.7587 57.9001 33.7679V34.9986C57.9001 35.0099 57.8969 35.0201 57.8938 35.0304C57.8909 35.0396 57.8881 35.0489 57.8875 35.059V39.8599C57.8881 39.87 57.8909 39.8793 57.8938 39.8886C57.8969 39.8988 57.9001 39.909 57.9001 39.9203V41.1511C57.9001 41.1623 57.8969 41.1725 57.8938 41.1828C57.8909 41.192 57.8881 41.2013 57.8875 41.2115V46.0123C57.8881 46.0225 57.8909 46.0317 57.8938 46.041C57.8969 46.0513 57.9001 46.0615 57.9001 46.0727V47.3035C57.9001 47.3147 57.8969 47.325 57.8938 47.3352C57.8909 47.3445 57.8881 47.3538 57.8875 47.3639V52.1648C57.8881 52.1749 57.8909 52.1842 57.8938 52.1934L57.8965 52.2025C57.8985 52.2098 57.9001 52.2172 57.9001 52.2252V53.4559C57.9001 53.4672 57.8969 53.4774 57.8938 53.4877C57.8929 53.4904 57.8921 53.4931 57.8913 53.4959C57.8904 53.4991 57.8896 53.5023 57.8889 53.5056L57.888 53.5107L57.8875 53.5163V58.3172C57.8881 58.3273 57.8909 58.3366 57.8938 58.3458C57.8969 58.3561 57.9001 58.3663 57.9001 58.3776V58.594L58.1404 57.6981ZM55.3719 10.5601H17.6192V58.3801H55.3719V10.5601ZM52.3441 3.00952H20.6457C18.977 3.00952 17.6192 4.36736 17.6179 6.03603V8.04321H55.3706V6.03603C55.3706 4.36736 54.0128 3.00952 52.3441 3.00952ZM20.6457 73.4812H52.3441C54.014 73.4812 55.3719 72.1234 55.3719 70.4547V60.897H17.6192V70.4547C17.6192 72.1234 18.977 73.4812 20.6457 73.4812ZM10.825 6.68674C10.7155 6.71569 10.606 6.72953 10.4991 6.72953C9.94283 6.72953 9.43443 6.35829 9.28467 5.79704C9.10472 5.12504 9.50364 4.43543 10.1744 4.25547L11.3623 3.93709C12.0368 3.7521 12.7227 4.1548 12.9026 4.82679C13.0826 5.49879 12.6837 6.18841 12.0129 6.36836L10.825 6.68674ZM36.4955 6.78491H31.4618C30.7659 6.78491 30.2034 6.2224 30.2034 5.52649C30.2034 4.83058 30.7672 4.26807 31.4618 4.26807H36.4955C37.1901 4.26807 37.7539 4.83058 37.7539 5.52649C37.7539 6.2224 37.1901 6.78491 36.4955 6.78491ZM30.2034 67.189C30.2034 64.4129 32.461 62.1553 35.2371 62.1553C38.0119 62.1553 40.2708 64.4129 40.2708 67.189C40.2708 69.965 38.0132 72.2226 35.2371 72.2226C32.461 72.2226 30.2034 69.965 30.2034 67.189ZM32.7202 67.189C32.7202 68.577 33.849 69.7058 35.2371 69.7058C36.6251 69.7058 37.7539 68.577 37.7539 67.189C37.7539 65.8009 36.6251 64.6721 35.2371 64.6721C33.849 64.6721 32.7202 65.8009 32.7202 67.189ZM40.2708 6.78491H41.5292C42.2238 6.78491 42.7876 6.2224 42.7876 5.52649C42.7876 4.83058 42.2238 4.26807 41.5292 4.26807H40.2708C39.5761 4.26807 39.0123 4.83058 39.0123 5.52649C39.0123 6.2224 39.5749 6.78491 40.2708 6.78491ZM3.7137 16.0944L4.03208 17.2824C4.21204 17.9531 3.81312 18.6427 3.14238 18.8239C3.0329 18.8529 2.92215 18.8667 2.81519 18.8667C2.26022 18.8667 1.75182 18.4967 1.60081 17.9342L1.28243 16.7463C1.10248 16.0743 1.5014 15.3859 2.17213 15.2047C2.84665 15.0222 3.53375 15.4237 3.7137 16.0944ZM1.39811 12.9045C2.09024 12.8378 2.59738 12.2237 2.53069 11.5329C2.52062 11.4309 2.51559 11.3315 2.51559 11.2296C2.51559 11.0383 2.53446 10.8483 2.56844 10.6645C2.70183 9.98122 2.25383 9.32307 1.57177 9.19093C0.890963 9.06635 0.230291 9.50806 0.0994154 10.1901C0.032719 10.5362 0 10.8885 0 11.2321C0 11.4108 0.00880899 11.5907 0.0264269 11.7732C0.0880896 12.4226 0.635503 12.9108 1.2773 12.9108C1.31757 12.9108 1.35784 12.9096 1.39811 12.9045ZM6.8974 27.9805L7.21578 29.1697C7.39699 29.8417 6.99807 30.5313 6.32482 30.7113C6.21533 30.7402 6.10585 30.7541 5.99888 30.7541C5.44266 30.7541 4.93552 30.3828 4.78451 29.8216L4.46613 28.6324C4.28617 27.9591 4.68509 27.2708 5.35709 27.0908C6.02909 26.9058 6.71744 27.3098 6.8974 27.9805ZM13.5872 52.9439L13.2688 51.756C13.0888 51.084 12.4005 50.6813 11.7272 50.8663C11.0565 51.0475 10.6575 51.7359 10.8375 52.4079L11.1559 53.5958C11.3069 54.1583 11.8153 54.5283 12.3703 54.5283C12.4772 54.5283 12.588 54.5145 12.6974 54.4855C13.3694 54.3043 13.7671 53.6147 13.5872 52.9439ZM5.30542 22.0368L5.62381 23.2247C5.80376 23.8967 5.4061 24.5863 4.7341 24.7663C4.62462 24.7952 4.51388 24.8091 4.40691 24.8091C3.85195 24.8091 3.34354 24.4391 3.19253 23.8766L2.87415 22.6886C2.6942 22.0166 3.09312 21.3283 3.76386 21.1471C4.43711 20.9621 5.12547 21.3648 5.30542 22.0368ZM4.55547 8.32406C4.66244 8.32406 4.77192 8.31022 4.8814 8.28128L6.07061 7.9629C6.74135 7.78294 7.14027 7.09458 6.96032 6.42133C6.78036 5.75059 6.09326 5.34412 5.41875 5.53162L4.22954 5.85C3.5588 6.02996 3.15988 6.71832 3.33983 7.39157C3.49084 7.95283 3.99925 8.32406 4.55547 8.32406ZM11.994 47.0005L11.6756 45.8113C11.4956 45.1405 10.806 44.7403 10.134 44.9215C9.46203 45.1015 9.06437 45.7911 9.24432 46.4631L9.5627 47.6523C9.71371 48.2148 10.2221 48.5848 10.7771 48.5848C10.884 48.5848 10.9948 48.571 11.103 48.542C11.7763 48.3621 12.1739 47.6712 11.994 47.0005ZM8.49061 33.9254L8.80899 35.1133C8.98894 35.7841 8.59002 36.4749 7.91802 36.6549C7.80854 36.6838 7.69906 36.6977 7.59209 36.6977C7.03587 36.6977 6.52872 36.3264 6.37771 35.7652L6.05933 34.5772C5.87938 33.9052 6.2783 33.2156 6.94904 33.0357C7.62229 32.8532 8.31065 33.2559 8.49061 33.9254ZM10.4022 41.0556L10.0838 39.8677C9.90387 39.1969 9.21551 38.7917 8.54225 38.978C7.87151 39.1579 7.47259 39.8475 7.65255 40.5195L7.97093 41.7075C8.12194 42.2687 8.62908 42.64 9.18531 42.64C9.29227 42.64 9.40176 42.6261 9.51124 42.5972C10.1832 42.4172 10.5822 41.7276 10.4022 41.0556ZM67.697 22.0383C67.8769 21.3663 68.564 20.9648 69.2385 21.1486C69.9093 21.3298 70.3069 22.0181 70.1282 22.6901L69.8098 23.8781C69.6601 24.4406 69.1504 24.8106 68.5955 24.8106C68.4872 24.8106 68.3778 24.7967 68.2683 24.7678C67.5963 24.5866 67.1986 23.897 67.3786 23.2262L67.697 22.0383ZM70.8289 15.2036C70.1532 15.0198 69.4673 15.4238 69.2874 16.0933L68.969 17.2812C68.789 17.952 69.188 18.6428 69.8587 18.8228C69.9682 18.8517 70.0777 18.8656 70.1846 18.8656C70.7409 18.8656 71.2493 18.4944 71.399 17.9331L71.7174 16.7451C71.8986 16.0744 71.5009 15.3835 70.8289 15.2036ZM71.4295 9.19202C72.1165 9.06869 72.7722 9.5104 72.9018 10.1912C72.9685 10.5373 73.0012 10.8884 73 11.2344C73 11.4119 72.9912 11.5918 72.9735 11.7743C72.9106 12.4236 72.3632 12.9119 71.7214 12.9119C71.6811 12.9119 71.6409 12.9107 71.6006 12.9056C70.9097 12.8389 70.4026 12.2248 70.468 11.5327C70.4781 11.432 70.4831 11.3326 70.4831 11.2319C70.4844 11.0394 70.4655 10.8494 70.4303 10.6656C70.2994 9.98231 70.7474 9.3229 71.4295 9.19202ZM60.988 6.36828L62.1759 6.68666C62.2854 6.7156 62.3949 6.72944 62.5019 6.72944C63.0581 6.72944 63.5665 6.35821 63.7163 5.79695C63.8962 5.12621 63.4973 4.43534 62.8266 4.25539L61.6386 3.937C60.9616 3.75202 60.277 4.15597 60.097 4.82671C59.9183 5.49871 60.3173 6.18832 60.988 6.36828ZM68.1211 8.28084L66.9319 7.96246C66.2599 7.78251 65.8622 7.09289 66.0409 6.42089C66.2196 5.75015 66.9079 5.34494 67.5825 5.53119L68.7717 5.84957C69.4424 6.02952 69.8413 6.71914 69.6614 7.39114C69.5116 7.95239 69.0032 8.32363 68.447 8.32363C68.34 8.32363 68.2305 8.30978 68.1211 8.28084ZM67.645 27.092C66.9718 26.9121 66.2822 27.311 66.1035 27.9817L65.7851 29.1697C65.6051 29.8404 66.0028 30.53 66.6748 30.7112C66.7843 30.7402 66.8938 30.754 67.002 30.754C67.557 30.754 68.0666 30.3841 68.2164 29.8215L68.5347 28.6336C68.7147 27.9616 68.3158 27.272 67.645 27.092ZM62.8668 44.9224C62.1911 44.7374 61.5052 45.1413 61.3253 45.8121L61.0069 47C60.8269 47.6707 61.2259 48.3616 61.8966 48.5416C62.0061 48.5705 62.1156 48.5844 62.2225 48.5844C62.7788 48.5844 63.2872 48.2131 63.4369 47.6519L63.7553 46.4639C63.9365 45.7919 63.5376 45.1011 62.8668 44.9224ZM59.7336 51.7546C59.9135 51.0826 60.5994 50.6811 61.2751 50.8649C61.9459 51.0461 62.3448 51.7357 62.1648 52.4064L61.8465 53.5944C61.6967 54.1569 61.187 54.5269 60.6321 54.5269C60.5239 54.5269 60.4144 54.513 60.3049 54.4841C59.6329 54.3029 59.2352 53.6133 59.4152 52.9425L59.7336 51.7546ZM64.459 38.978C63.787 38.7917 63.0974 39.1969 62.9187 39.8677L62.6004 41.0569C62.4204 41.7289 62.8193 42.4185 63.4913 42.5984C63.5995 42.6274 63.709 42.6412 63.8172 42.6412C64.3735 42.6412 64.8819 42.27 65.0316 41.7087L65.35 40.5195C65.5287 39.8463 65.1298 39.1579 64.459 38.978ZM64.5105 33.9239C64.6904 33.2544 65.3763 32.8517 66.052 33.0342C66.7228 33.2142 67.1217 33.905 66.9405 34.5758L66.6221 35.7637C66.4723 36.325 65.9639 36.6962 65.4077 36.6962C65.3008 36.6962 65.1913 36.6824 65.0818 36.6534C64.411 36.4735 64.0121 35.7826 64.1921 35.1119L64.5105 33.9239Z" fill="#3F58BA"/>
</svg>
