<?xml version="1.0" encoding="utf-8"?>
<!-- Generator: Adobe Illustrator 22.1.0, SVG Export Plug-In . SVG Version: 6.00 Build 0)  -->
<svg version="1.1" id="Layer_1" xmlns="http://www.w3.org/2000/svg" xmlns:xlink="http://www.w3.org/1999/xlink" x="0px" y="0px"
	 width="75px" height="75px" viewBox="0 0 75 75" style="enable-background:new 0 0 75 75;" xml:space="preserve">
<style type="text/css">
	.st0{fill:#00C1FF;stroke:#00C1FF;}
</style>
<path class="st0" d="M7.1,3.8h23.5c2,0,3.6,1.6,3.6,3.6v23.5c0,2-1.6,3.6-3.6,3.6H7.1c-2,0-3.6-1.6-3.6-3.6V7.4
	C3.5,5.4,5.1,3.8,7.1,3.8z M30.6,33c1.2,0,2.1-1,2.1-2.1V7.4c0-1.2-1-2.1-2.1-2.1H7.1c-1.2,0-2.1,1-2.1,2.1v23.5
	c0,1.2,1,2.1,2.1,2.1H30.6z"/>
<path class="st0" d="M43.6,3.8h23.5c2,0,3.6,1.6,3.6,3.6v23.5c0,2-1.6,3.6-3.6,3.6H43.6c-2,0-3.6-1.6-3.6-3.6V7.4
	C40,5.4,41.6,3.8,43.6,3.8z M67.1,33c1.2,0,2.1-1,2.1-2.1V7.4c0-1.2-1-2.1-2.1-2.1H43.6c-1.2,0-2.1,1-2.1,2.1v23.5
	c0,1.2,1,2.1,2.1,2.1H67.1z"/>
<path class="st0" d="M7.1,40.2h23.5c2,0,3.6,1.6,3.6,3.6v23.5c0,2-1.6,3.6-3.6,3.6H7.1c-2,0-3.6-1.6-3.6-3.6V43.7
	C3.5,41.8,5.1,40.2,7.1,40.2z M30.6,69.4c1.2,0,2.1-1,2.1-2.1V43.7c0-1.2-1-2.1-2.1-2.1H7.1c-1.2,0-2.1,1-2.1,2.1v23.5
	c0,1.2,1,2.1,2.1,2.1H30.6z"/>
<path class="st0" d="M56.1,54.5V55h0.5H70c0.4,0,0.7,0.3,0.7,0.7c0,0.4-0.3,0.7-0.7,0.7H56.6h-0.5v0.5v13.4c0,0.4-0.3,0.7-0.7,0.7
	c-0.4,0-0.7-0.3-0.7-0.7V56.9v-0.5h-0.5H40.8c-0.4,0-0.7-0.3-0.7-0.7c0-0.4,0.3-0.7,0.7-0.7h13.4h0.5v-0.5V41.1
	c0-0.4,0.3-0.7,0.7-0.7c0.4,0,0.7,0.3,0.7,0.7V54.5z"/>
</svg>
