<?xml version="1.0" encoding="utf-8"?>
<!-- Generator: Adobe Illustrator 22.1.0, SVG Export Plug-In . SVG Version: 6.00 Build 0)  -->
<svg version="1.1" id="Layer_1" xmlns="http://www.w3.org/2000/svg" xmlns:xlink="http://www.w3.org/1999/xlink" x="0px" y="0px"
	 width="100px" height="100px" viewBox="0 0 100 100" style="enable-background:new 0 0 100 100;" xml:space="preserve">
<style type="text/css">
	.st0{fill:none;stroke:#4FB646;}
	.st1{fill:#4FB646;stroke:#4FB646;stroke-width:0.5;}
	.st2{fill:#4FB646;stroke:#4FB646;stroke-width:0.7;}
</style>
<circle id="Oval-5-Copy-5" class="st0" cx="50" cy="50" r="49"/>
<path id="Shape" class="st1" d="M23.1,49.2l2.9,3.3l1.1-1l-4.8-5.1l-5.2,4.6l1,1.1l3.4-3c-0.2,13,9,24.8,22.1,27.7l0.3-1.5
	C31.5,72.5,22.9,61.4,23.1,49.2z"/>
<path id="Shape_1_" class="st1" d="M49.6,23.1L46.3,26l1,1.1l5.1-4.8l-4.6-5.2l-1.1,1l3,3.4c-13-0.2-24.8,9-27.7,22.1l1.5,0.3
	C26.3,31.5,37.4,22.9,49.6,23.1z"/>
<path id="Shape_2_" class="st1" d="M76.9,49.6l-2.9-3.3l-1.1,1l4.8,5.1l5.3-4.7l-1-1.1l-3.3,3c0.1-12.9-9-24.7-22.1-27.6l-0.3,1.5
	C68.4,26.3,77.1,37.4,76.9,49.6z"/>
<path id="Shape_3_" class="st1" d="M49.2,76.8l3.3-2.9l-1-1.1l-5.1,4.8l4.6,5.3l1.1-1l-3-3.4c0.2,0,0.4,0,0.6,0
	c12.7,0,24.1-9.2,27-22.1l-1.5-0.3C72.4,68.4,61.4,77,49.2,76.8z"/>
<path id="Shape_4_" class="st2" d="M44.3,41.4c0,3.1,2.6,5.7,5.7,5.7s5.7-2.6,5.7-5.7c0-3.1-2.6-5.7-5.7-5.7S44.3,38.3,44.3,41.4z
	 M54.5,41.4c0,2.5-2,4.5-4.5,4.5s-4.5-2-4.5-4.5s2-4.5,4.5-4.5S54.5,39,54.5,41.4z"/>
<path id="Shape_5_" class="st2" d="M59,51.9c-0.5-0.9-1.3-1.5-2.2-1.9l0,0c-2.3-0.8-4.8-1.2-7.3-1.2l0,0c-2.5,0-4.9,0.4-7.3,1.2l0,0
	c-0.9,0.4-1.8,1-2.2,1.9c-0.5,0.9-0.7,1.7-0.7,2.5c0,0-0.4,3.3-0.5,6.4v0.6h21.5v-0.6c-0.1-3.1-0.5-6.3-0.5-6.3
	C59.7,53.5,59.5,52.7,59,51.9z M55.4,60.2H43.6h-1.1h-2.7c0.1-2.9,0.4-5.7,0.4-5.8c0-0.8,0.3-1.5,0.6-2c0.4-0.7,0.9-1.2,1.7-1.4l0,0
	c1.8-0.6,3.6-0.9,5.5-0.9h2.7c1.9,0,3.8,0.3,5.5,0.9c0.7,0.3,1.3,0.8,1.7,1.4c0.4,0.7,0.6,1.4,0.6,2c0,0,0.3,2.8,0.4,5.7h-2.5H55.4z
	"/>
</svg>
