<?xml version="1.0" encoding="utf-8"?>
<!-- Generator: Adobe Illustrator 22.1.0, SVG Export Plug-In . SVG Version: 6.00 Build 0)  -->
<svg version="1.1" id="Layer_1" xmlns="http://www.w3.org/2000/svg" xmlns:xlink="http://www.w3.org/1999/xlink" x="0px" y="0px"
	 width="100px" height="100px" viewBox="0 0 100 100" style="enable-background:new 0 0 100 100;" xml:space="preserve">
<style type="text/css">
	.st0{fill:none;stroke:#4FB646;}
	.st1{fill:#4FB646;}
</style>
<circle id="Oval-5-Copy-4" class="st0" cx="50" cy="50" r="49"/>
<path id="Shape" class="st1" d="M45.6,60.3l11.7-6l-11.7-6V60.3z M47.2,51l6.6,3.3l-6.6,3.3V51z"/>
<path id="Shape_1_" class="st1" d="M63,51.8l-1.6,0.3c0.1,0.3,0.1,0.6,0.1,1c0.5,5-2.3,9.9-7,11.9c-2.9,1.2-6,1.2-8.8,0
	c-2.9-1.2-5.1-3.4-6.3-6.3s-1.2-6,0-8.8c1.2-2.9,3.4-5.1,6.3-6.3c4.7-1.9,10-0.6,13.2,3.1l-3.6-0.2l-0.1,1.6l6.1,0.4l0.4-6.2
	L60,42.2l-0.2,3.3c-3.7-4.2-9.6-5.5-14.9-3.3c-3.2,1.4-5.7,3.9-7.1,7.1c-1.4,3.3-1.3,6.8,0,10.1c1.4,3.2,3.9,5.7,7.1,7.1
	c1.6,0.6,3.3,1,5,1c1.7,0,3.4-0.3,5.1-1.1c5.3-2.2,8.6-7.8,8-13.5C63.1,52.5,63,52.2,63,51.8z"/>
<rect id="Rectangle-path" x="27.4" y="31.2" class="st1" width="1.6" height="1.6"/>
<rect id="Rectangle-path_1_" x="23.6" y="31.2" class="st1" width="1.6" height="1.6"/>
<rect id="Rectangle-path_2_" x="31.2" y="31.2" class="st1" width="1.6" height="1.6"/>
<rect id="Rectangle-path_3_" x="41.2" y="31.2" class="st1" width="35.2" height="1.6"/>
<path id="Shape_2_" class="st1" d="M81.1,72.4V27.1H18.9v45.4v1.7h62.2V72.4z M79.5,28.7v6.1h-59v-6.1H79.5z M20.5,36.3h59v36.1h-59
	V36.3z"/>
</svg>
