<?xml version="1.0" encoding="utf-8"?>
<!-- Generator: Adobe Illustrator 22.1.0, SVG Export Plug-In . SVG Version: 6.00 Build 0)  -->
<svg version="1.1" id="Layer_1" xmlns="http://www.w3.org/2000/svg" xmlns:xlink="http://www.w3.org/1999/xlink" x="0px" y="0px"
	 width="100px" height="100px" viewBox="0 0 100 100" style="enable-background:new 0 0 100 100;" xml:space="preserve">
<style type="text/css">
	.st0{fill:url(#SVGID_1_);stroke:url(#SVGID_2_);stroke-width:0.5;}
	.st1{fill:url(#SVGID_3_);stroke:url(#SVGID_4_);stroke-width:0.5;}
	.st2{fill:url(#SVGID_5_);stroke:url(#SVGID_6_);stroke-width:0.5;}
	.st3{fill:url(#SVGID_7_);stroke:url(#SVGID_8_);stroke-width:0.5;}
	.st4{fill:url(#SVGID_9_);stroke:url(#SVGID_10_);stroke-width:0.5;}
	.st5{fill:url(#SVGID_11_);stroke:url(#SVGID_12_);stroke-width:0.5;}
	.st6{fill:url(#SVGID_13_);stroke:url(#SVGID_14_);stroke-width:0.5;}
	.st7{fill:url(#SVGID_15_);stroke:url(#SVGID_16_);stroke-width:0.5;}
	.st8{fill:url(#SVGID_17_);stroke:url(#SVGID_18_);stroke-width:0.5;}
	.st9{fill:url(#SVGID_19_);stroke:url(#SVGID_20_);stroke-width:0.5;}
	.st10{fill:url(#SVGID_21_);stroke:url(#SVGID_22_);stroke-width:0.5;}
	.st11{fill:url(#SVGID_23_);stroke:url(#SVGID_24_);stroke-width:0.5;}
	.st12{fill:url(#SVGID_25_);stroke:url(#SVGID_26_);stroke-width:0.5;}
	.st13{fill:url(#SVGID_27_);stroke:url(#SVGID_28_);stroke-width:0.5;}
	.st14{fill:url(#SVGID_29_);stroke:url(#SVGID_30_);stroke-width:0.5;}
	.st15{fill:url(#SVGID_31_);stroke:url(#SVGID_32_);stroke-width:0.5;}
	.st16{fill:url(#SVGID_33_);stroke:url(#SVGID_34_);stroke-width:0.5;}
	.st17{fill:url(#SVGID_35_);stroke:url(#SVGID_36_);stroke-width:0.5;}
</style>
<linearGradient id="SVGID_1_" gradientUnits="userSpaceOnUse" x1="278.3441" y1="-265.7278" x2="282.238" y2="-276.8265" gradientTransform="matrix(1 0 0 -1 -256 -244)">
	<stop  offset="0" style="stop-color:#00B6FB"/>
	<stop  offset="1" style="stop-color:#4FB646"/>
</linearGradient>
<linearGradient id="SVGID_2_" gradientUnits="userSpaceOnUse" x1="278.3441" y1="-265.7278" x2="282.238" y2="-276.8265" gradientTransform="matrix(1 0 0 -1 -256 -244)">
	<stop  offset="0" style="stop-color:#00B6FB"/>
	<stop  offset="1" style="stop-color:#4FB646"/>
</linearGradient>
<path class="st0" d="M20.5,26.1c0.1-1.6,1.5-2.8,3-3.1c2.2-0.4,4.1,1.5,4.1,3.5c0,1.6-0.8,3.2-2,4.3c-0.5,0.5-1.1,0.7-1.8,0.7
	c-0.6,0-1.2-0.5-1.8-0.9C21,29.4,20.4,27.7,20.5,26.1z M21.3,32c0.7,0.7,1.7,1.1,2.7,1.1c1,0.1,2-0.4,2.8-1.1
	c1.6-1.2,2.5-3.5,2.5-5.5c0-2-1-3.7-2.8-4.7c-1.7-0.8-3.8-0.7-5.4,0.4c-1.6,1.1-2.5,3-2.3,4.9C19,28.9,19.9,30.8,21.3,32z"/>
<linearGradient id="SVGID_3_" gradientUnits="userSpaceOnUse" x1="278.3441" y1="-265.7278" x2="282.238" y2="-276.8265" gradientTransform="matrix(1 0 0 -1 -256 -244)">
	<stop  offset="0" style="stop-color:#00B6FB"/>
	<stop  offset="1" style="stop-color:#4FB646"/>
</linearGradient>
<linearGradient id="SVGID_4_" gradientUnits="userSpaceOnUse" x1="278.3441" y1="-265.7278" x2="282.238" y2="-276.8265" gradientTransform="matrix(1 0 0 -1 -256 -244)">
	<stop  offset="0" style="stop-color:#00B6FB"/>
	<stop  offset="1" style="stop-color:#4FB646"/>
</linearGradient>
<path class="st1" d="M20.5,26.1c0.1-1.6,1.5-2.8,3-3.1c2.2-0.4,4.1,1.5,4.1,3.5c0,1.6-0.8,3.2-2,4.3c-0.5,0.5-1.1,0.7-1.8,0.7
	c-0.6,0-1.2-0.5-1.8-0.9C21,29.4,20.4,27.7,20.5,26.1z M21.3,32c0.7,0.7,1.7,1.1,2.7,1.1c1,0.1,2-0.4,2.8-1.1
	c1.6-1.2,2.5-3.5,2.5-5.5c0-2-1-3.7-2.8-4.7c-1.7-0.8-3.8-0.7-5.4,0.4c-1.6,1.1-2.5,3-2.3,4.9C19,28.9,19.9,30.8,21.3,32z"/>
<linearGradient id="SVGID_5_" gradientUnits="userSpaceOnUse" x1="279.0374" y1="-277.0603" x2="280.6062" y2="-287.0677" gradientTransform="matrix(1 0 0 -1 -256 -244)">
	<stop  offset="0" style="stop-color:#00B6FB"/>
	<stop  offset="1" style="stop-color:#4FB646"/>
</linearGradient>
<linearGradient id="SVGID_6_" gradientUnits="userSpaceOnUse" x1="279.0374" y1="-277.0603" x2="280.6062" y2="-287.0677" gradientTransform="matrix(1 0 0 -1 -256 -244)">
	<stop  offset="0" style="stop-color:#00B6FB"/>
	<stop  offset="1" style="stop-color:#4FB646"/>
</linearGradient>
<path class="st2" d="M16,41.1V40c0-0.7-0.1-1.5,0.1-2.2c0.2-1.2,1-2.2,2.1-2.7c0.6-0.3,1.5-0.3,2.2-0.3c1,1.3,2,2.7,3,4
	c0.4,0.5,1,0.5,1.5,0c0.9-1.3,2-2.7,2.9-4c0.8,0,1.7,0,2.5,0.5c1.1,0.6,1.9,1.9,1.9,3.2v2.7H21.6H16V41.1z M32.9,42.8
	c0.4,0,0.8-0.4,0.8-0.8v-3.5c0-2-1-3.7-2.7-4.7c-0.8-0.4-1.8-0.7-2.7-0.7c-0.6,0-1.3-0.1-1.8,0.4c-0.8,1.1-1.7,2.3-2.5,3.5
	c-0.8-1.1-1.7-2.3-2.5-3.4c-0.5-0.6-1-0.5-1.7-0.5c-0.8,0-1.7,0.1-2.4,0.5c-1.8,0.7-2.9,2.5-3.1,4.4c-0.1,0.7,0,1.3,0,2.1v2
	c0,0.4,0.4,0.8,0.8,0.8h11.2H32.9z"/>
<linearGradient id="SVGID_7_" gradientUnits="userSpaceOnUse" x1="279.0374" y1="-277.0603" x2="280.6062" y2="-287.0677" gradientTransform="matrix(1 0 0 -1 -256 -244)">
	<stop  offset="0" style="stop-color:#00B6FB"/>
	<stop  offset="1" style="stop-color:#4FB646"/>
</linearGradient>
<linearGradient id="SVGID_8_" gradientUnits="userSpaceOnUse" x1="279.0374" y1="-277.0603" x2="280.6062" y2="-287.0677" gradientTransform="matrix(1 0 0 -1 -256 -244)">
	<stop  offset="0" style="stop-color:#00B6FB"/>
	<stop  offset="1" style="stop-color:#4FB646"/>
</linearGradient>
<path class="st3" d="M16,41.1V40c0-0.7-0.1-1.5,0.1-2.2c0.2-1.2,1-2.2,2.1-2.7c0.6-0.3,1.5-0.3,2.2-0.3c1,1.3,2,2.7,3,4
	c0.4,0.5,1,0.5,1.5,0c0.9-1.3,2-2.7,2.9-4c0.8,0,1.7,0,2.5,0.5c1.1,0.6,1.9,1.9,1.9,3.2v2.7H21.6H16V41.1z M32.9,42.8
	c0.4,0,0.8-0.4,0.8-0.8v-3.5c0-2-1-3.7-2.7-4.7c-0.8-0.4-1.8-0.7-2.7-0.7c-0.6,0-1.3-0.1-1.8,0.4c-0.8,1.1-1.7,2.3-2.5,3.5
	c-0.8-1.1-1.7-2.3-2.5-3.4c-0.5-0.6-1-0.5-1.7-0.5c-0.8,0-1.7,0.1-2.4,0.5c-1.8,0.7-2.9,2.5-3.1,4.4c-0.1,0.7,0,1.3,0,2.1v2
	c0,0.4,0.4,0.8,0.8,0.8h11.2H32.9z"/>
<linearGradient id="SVGID_9_" gradientUnits="userSpaceOnUse" x1="329.4442" y1="-265.652" x2="333.3872" y2="-276.8142" gradientTransform="matrix(1 0 0 -1 -256 -244)">
	<stop  offset="0" style="stop-color:#00B6FB"/>
	<stop  offset="1" style="stop-color:#4FB646"/>
</linearGradient>
<linearGradient id="SVGID_10_" gradientUnits="userSpaceOnUse" x1="329.4442" y1="-265.652" x2="333.3872" y2="-276.8142" gradientTransform="matrix(1 0 0 -1 -256 -244)">
	<stop  offset="0" style="stop-color:#00B6FB"/>
	<stop  offset="1" style="stop-color:#4FB646"/>
</linearGradient>
<path class="st4" d="M71.6,26.1c0.1-1.6,1.5-2.8,3-3.1c2.2-0.4,4.1,1.5,4.1,3.5c0,1.6-0.8,3.2-2,4.3c-0.5,0.5-1.1,0.7-1.8,0.7
	c-0.6,0-1.2-0.5-1.8-0.9C72.1,29.4,71.5,27.7,71.6,26.1z M72.4,32c0.7,0.7,1.7,1.1,2.7,1.1c1,0.1,2-0.4,2.8-1.1
	c1.6-1.2,2.5-3.5,2.5-5.5c0-2-1-3.7-2.8-4.7c-1.7-0.9-3.8-0.8-5.5,0.3c-1.6,1.1-2.4,3-2.2,4.9C70.2,28.9,71.1,30.8,72.4,32z"/>
<linearGradient id="SVGID_11_" gradientUnits="userSpaceOnUse" x1="329.4442" y1="-265.652" x2="333.3872" y2="-276.8142" gradientTransform="matrix(1 0 0 -1 -256 -244)">
	<stop  offset="0" style="stop-color:#00B6FB"/>
	<stop  offset="1" style="stop-color:#4FB646"/>
</linearGradient>
<linearGradient id="SVGID_12_" gradientUnits="userSpaceOnUse" x1="329.4442" y1="-265.652" x2="333.3872" y2="-276.8142" gradientTransform="matrix(1 0 0 -1 -256 -244)">
	<stop  offset="0" style="stop-color:#00B6FB"/>
	<stop  offset="1" style="stop-color:#4FB646"/>
</linearGradient>
<path class="st5" d="M71.6,26.1c0.1-1.6,1.5-2.8,3-3.1c2.2-0.4,4.1,1.5,4.1,3.5c0,1.6-0.8,3.2-2,4.3c-0.5,0.5-1.1,0.7-1.8,0.7
	c-0.6,0-1.2-0.5-1.8-0.9C72.1,29.4,71.5,27.7,71.6,26.1z M72.4,32c0.7,0.7,1.7,1.1,2.7,1.1c1,0.1,2-0.4,2.8-1.1
	c1.6-1.2,2.5-3.5,2.5-5.5c0-2-1-3.7-2.8-4.7c-1.7-0.9-3.8-0.8-5.5,0.3c-1.6,1.1-2.4,3-2.2,4.9C70.2,28.9,71.1,30.8,72.4,32z"/>
<linearGradient id="SVGID_13_" gradientUnits="userSpaceOnUse" x1="330.1813" y1="-277.0661" x2="331.7913" y2="-287.1726" gradientTransform="matrix(1 0 0 -1 -256 -244)">
	<stop  offset="0" style="stop-color:#00B6FB"/>
	<stop  offset="1" style="stop-color:#4FB646"/>
</linearGradient>
<linearGradient id="SVGID_14_" gradientUnits="userSpaceOnUse" x1="330.1813" y1="-277.0661" x2="331.7913" y2="-287.1726" gradientTransform="matrix(1 0 0 -1 -256 -244)">
	<stop  offset="0" style="stop-color:#00B6FB"/>
	<stop  offset="1" style="stop-color:#4FB646"/>
</linearGradient>
<path class="st6" d="M72.9,41.1h-5.6V40c0-0.7-0.1-1.5,0.1-2.2c0.2-1.2,1-2.2,2.1-2.7c0.6-0.3,1.5-0.3,2.2-0.3c1,1.3,2,2.7,3,4
	c0.4,0.5,1,0.5,1.5,0c0.9-1.3,2-2.7,2.9-4c0.8,0,1.7,0,2.5,0.5c1.1,0.6,1.9,1.9,1.9,3.2v2.7H72.9V41.1z M82.2,33.8
	c-0.8-0.4-1.8-0.7-2.7-0.7c-0.6,0-1.3-0.1-1.8,0.4c-0.8,1.1-1.7,2.3-2.5,3.5c-0.8-1.1-1.7-2.3-2.5-3.4c-0.4-0.5-1-0.4-1.6-0.4
	c-0.8,0-1.7,0.1-2.4,0.5c-1.8,0.7-2.9,2.5-3.1,4.4c-0.1,0.7,0,1.3,0,2.1v2c0,0.4,0.4,0.8,0.8,0.8h11.1h6.4c0.4,0,0.8-0.4,0.8-0.8
	v-3.5C84.9,36.5,83.9,34.7,82.2,33.8z"/>
<linearGradient id="SVGID_15_" gradientUnits="userSpaceOnUse" x1="330.1813" y1="-277.0661" x2="331.7913" y2="-287.1726" gradientTransform="matrix(1 0 0 -1 -256 -244)">
	<stop  offset="0" style="stop-color:#00B6FB"/>
	<stop  offset="1" style="stop-color:#4FB646"/>
</linearGradient>
<linearGradient id="SVGID_16_" gradientUnits="userSpaceOnUse" x1="330.1813" y1="-277.0661" x2="331.7913" y2="-287.1726" gradientTransform="matrix(1 0 0 -1 -256 -244)">
	<stop  offset="0" style="stop-color:#00B6FB"/>
	<stop  offset="1" style="stop-color:#4FB646"/>
</linearGradient>
<path class="st7" d="M72.9,41.1h-5.6V40c0-0.7-0.1-1.5,0.1-2.2c0.2-1.2,1-2.2,2.1-2.7c0.6-0.3,1.5-0.3,2.2-0.3c1,1.3,2,2.7,3,4
	c0.4,0.5,1,0.5,1.5,0c0.9-1.3,2-2.7,2.9-4c0.8,0,1.7,0,2.5,0.5c1.1,0.6,1.9,1.9,1.9,3.2v2.7H72.9V41.1z M82.2,33.8
	c-0.8-0.4-1.8-0.7-2.7-0.7c-0.6,0-1.3-0.1-1.8,0.4c-0.8,1.1-1.7,2.3-2.5,3.5c-0.8-1.1-1.7-2.3-2.5-3.4c-0.4-0.5-1-0.4-1.6-0.4
	c-0.8,0-1.7,0.1-2.4,0.5c-1.8,0.7-2.9,2.5-3.1,4.4c-0.1,0.7,0,1.3,0,2.1v2c0,0.4,0.4,0.8,0.8,0.8h11.1h6.4c0.4,0,0.8-0.4,0.8-0.8
	v-3.5C84.9,36.5,83.9,34.7,82.2,33.8z"/>
<linearGradient id="SVGID_17_" gradientUnits="userSpaceOnUse" x1="303.8412" y1="-303.6017" x2="307.7844" y2="-314.7635" gradientTransform="matrix(1 0 0 -1 -256 -244)">
	<stop  offset="0" style="stop-color:#00B6FB"/>
	<stop  offset="1" style="stop-color:#4FB646"/>
</linearGradient>
<linearGradient id="SVGID_18_" gradientUnits="userSpaceOnUse" x1="303.8412" y1="-303.6017" x2="307.7844" y2="-314.7635" gradientTransform="matrix(1 0 0 -1 -256 -244)">
	<stop  offset="0" style="stop-color:#00B6FB"/>
	<stop  offset="1" style="stop-color:#4FB646"/>
</linearGradient>
<path class="st8" d="M46.1,64.2c0.1-1.6,1.5-2.8,3-3.1c2.2-0.4,4.1,1.5,4.1,3.5c0,1.6-0.8,3.2-2,4.3c-0.5,0.5-1.1,0.7-1.8,0.7
	c-0.6,0-1.2-0.5-1.8-0.9C46.6,67.5,45.9,65.7,46.1,64.2z M46.8,70c0.7,0.7,1.7,1.1,2.7,1.1c1,0.1,2-0.4,2.8-1.1
	c1.6-1.2,2.5-3.5,2.5-5.5c0-2-1-3.7-2.8-4.7c-1.7-0.9-3.8-0.8-5.5,0.3c-1.6,1.1-2.4,3-2.2,4.9C44.7,67,45.5,68.8,46.8,70z"/>
<linearGradient id="SVGID_19_" gradientUnits="userSpaceOnUse" x1="303.8412" y1="-303.6017" x2="307.7844" y2="-314.7635" gradientTransform="matrix(1 0 0 -1 -256 -244)">
	<stop  offset="0" style="stop-color:#00B6FB"/>
	<stop  offset="1" style="stop-color:#4FB646"/>
</linearGradient>
<linearGradient id="SVGID_20_" gradientUnits="userSpaceOnUse" x1="303.8412" y1="-303.6017" x2="307.7844" y2="-314.7635" gradientTransform="matrix(1 0 0 -1 -256 -244)">
	<stop  offset="0" style="stop-color:#00B6FB"/>
	<stop  offset="1" style="stop-color:#4FB646"/>
</linearGradient>
<path class="st9" d="M46.1,64.2c0.1-1.6,1.5-2.8,3-3.1c2.2-0.4,4.1,1.5,4.1,3.5c0,1.6-0.8,3.2-2,4.3c-0.5,0.5-1.1,0.7-1.8,0.7
	c-0.6,0-1.2-0.5-1.8-0.9C46.6,67.5,45.9,65.7,46.1,64.2z M46.8,70c0.7,0.7,1.7,1.1,2.7,1.1c1,0.1,2-0.4,2.8-1.1
	c1.6-1.2,2.5-3.5,2.5-5.5c0-2-1-3.7-2.8-4.7c-1.7-0.9-3.8-0.8-5.5,0.3c-1.6,1.1-2.4,3-2.2,4.9C44.7,67,45.5,68.8,46.8,70z"/>
<linearGradient id="SVGID_21_" gradientUnits="userSpaceOnUse" x1="304.6074" y1="-315.1218" x2="306.2092" y2="-325.2309" gradientTransform="matrix(1 0 0 -1 -256 -244)">
	<stop  offset="0" style="stop-color:#00B6FB"/>
	<stop  offset="1" style="stop-color:#4FB646"/>
</linearGradient>
<linearGradient id="SVGID_22_" gradientUnits="userSpaceOnUse" x1="304.6074" y1="-315.1218" x2="306.2092" y2="-325.2309" gradientTransform="matrix(1 0 0 -1 -256 -244)">
	<stop  offset="0" style="stop-color:#00B6FB"/>
	<stop  offset="1" style="stop-color:#4FB646"/>
</linearGradient>
<path class="st10" d="M47.3,79.2h-5.6v-1.1c0-0.7-0.1-1.5,0.1-2.2c0.2-1.2,1-2.2,2.1-2.7c0.6-0.3,1.5-0.3,2.2-0.3c1,1.3,2,2.7,3,4
	c0.4,0.5,1,0.5,1.5,0c0.9-1.3,2-2.7,2.9-4c0.8,0,1.7,0,2.5,0.5c1.1,0.6,1.9,1.9,1.9,3.2v2.7H47.3V79.2z M56.6,71.8
	c-0.8-0.4-1.8-0.7-2.7-0.7c-0.6,0-1.3-0.1-1.8,0.4c-0.8,1.1-1.7,2.3-2.5,3.5c-0.8-1.1-1.7-2.3-2.5-3.4c-0.4-0.5-1-0.4-1.6-0.4
	c-0.8,0-1.7,0.1-2.4,0.5c-1.8,0.7-2.9,2.5-3.1,4.4c-0.1,0.7,0,1.3,0,2.1v2c0,0.4,0.4,0.8,0.8,0.8h11.2h6.4c0.4,0,0.8-0.4,0.8-0.8
	v-3.5C59.3,74.5,58.2,72.8,56.6,71.8z"/>
<linearGradient id="SVGID_23_" gradientUnits="userSpaceOnUse" x1="304.6074" y1="-315.1218" x2="306.2092" y2="-325.2309" gradientTransform="matrix(1 0 0 -1 -256 -244)">
	<stop  offset="0" style="stop-color:#00B6FB"/>
	<stop  offset="1" style="stop-color:#4FB646"/>
</linearGradient>
<linearGradient id="SVGID_24_" gradientUnits="userSpaceOnUse" x1="304.6074" y1="-315.1218" x2="306.2092" y2="-325.2309" gradientTransform="matrix(1 0 0 -1 -256 -244)">
	<stop  offset="0" style="stop-color:#00B6FB"/>
	<stop  offset="1" style="stop-color:#4FB646"/>
</linearGradient>
<path class="st11" d="M47.3,79.2h-5.6v-1.1c0-0.7-0.1-1.5,0.1-2.2c0.2-1.2,1-2.2,2.1-2.7c0.6-0.3,1.5-0.3,2.2-0.3c1,1.3,2,2.7,3,4
	c0.4,0.5,1,0.5,1.5,0c0.9-1.3,2-2.7,2.9-4c0.8,0,1.7,0,2.5,0.5c1.1,0.6,1.9,1.9,1.9,3.2v2.7H47.3V79.2z M56.6,71.8
	c-0.8-0.4-1.8-0.7-2.7-0.7c-0.6,0-1.3-0.1-1.8,0.4c-0.8,1.1-1.7,2.3-2.5,3.5c-0.8-1.1-1.7-2.3-2.5-3.4c-0.4-0.5-1-0.4-1.6-0.4
	c-0.8,0-1.7,0.1-2.4,0.5c-1.8,0.7-2.9,2.5-3.1,4.4c-0.1,0.7,0,1.3,0,2.1v2c0,0.4,0.4,0.8,0.8,0.8h11.2h6.4c0.4,0,0.8-0.4,0.8-0.8
	v-3.5C59.3,74.5,58.2,72.8,56.6,71.8z"/>
<linearGradient id="SVGID_25_" gradientUnits="userSpaceOnUse" x1="305.0668" y1="-261.3546" x2="305.5067" y2="-268.3683" gradientTransform="matrix(1 0 0 -1 -256 -244)">
	<stop  offset="0" style="stop-color:#00B6FB"/>
	<stop  offset="1" style="stop-color:#4FB646"/>
</linearGradient>
<linearGradient id="SVGID_26_" gradientUnits="userSpaceOnUse" x1="305.0668" y1="-261.3546" x2="305.5067" y2="-268.3683" gradientTransform="matrix(1 0 0 -1 -256 -244)">
	<stop  offset="0" style="stop-color:#00B6FB"/>
	<stop  offset="1" style="stop-color:#4FB646"/>
</linearGradient>
<path class="st12" d="M65.9,23.4c0.2-0.4,0.1-0.8-0.3-1.1C58,17.2,48.4,16,39.8,19.2c-2.3,0.8-4.5,2-6.5,3.4
	c-0.4,0.2-0.5,0.7-0.3,1.1c0.2,0.4,0.7,0.5,1.1,0.3c3.5-2.5,7.7-4.1,11.9-4.7c4.5-0.6,9,0,13.2,1.6c2.1,0.6,3.9,1.7,5.6,2.8
	C65.2,23.9,65.7,23.7,65.9,23.4z"/>
<linearGradient id="SVGID_27_" gradientUnits="userSpaceOnUse" x1="305.0668" y1="-261.3546" x2="305.5067" y2="-268.3683" gradientTransform="matrix(1 0 0 -1 -256 -244)">
	<stop  offset="0" style="stop-color:#00B6FB"/>
	<stop  offset="1" style="stop-color:#4FB646"/>
</linearGradient>
<linearGradient id="SVGID_28_" gradientUnits="userSpaceOnUse" x1="305.0668" y1="-261.3546" x2="305.5067" y2="-268.3683" gradientTransform="matrix(1 0 0 -1 -256 -244)">
	<stop  offset="0" style="stop-color:#00B6FB"/>
	<stop  offset="1" style="stop-color:#4FB646"/>
</linearGradient>
<path class="st13" d="M65.9,23.4c0.2-0.4,0.1-0.8-0.3-1.1C58,17.2,48.4,16,39.8,19.2c-2.3,0.8-4.5,2-6.5,3.4
	c-0.4,0.2-0.5,0.7-0.3,1.1c0.2,0.4,0.7,0.5,1.1,0.3c3.5-2.5,7.7-4.1,11.9-4.7c4.5-0.6,9,0,13.2,1.6c2.1,0.6,3.9,1.7,5.6,2.8
	C65.2,23.9,65.7,23.7,65.9,23.4z"/>
<linearGradient id="SVGID_29_" gradientUnits="userSpaceOnUse" x1="280.1983" y1="-294.3192" x2="289.0739" y2="-314.3331" gradientTransform="matrix(1 0 0 -1 -256 -244)">
	<stop  offset="0" style="stop-color:#00B6FB"/>
	<stop  offset="1" style="stop-color:#4FB646"/>
</linearGradient>
<linearGradient id="SVGID_30_" gradientUnits="userSpaceOnUse" x1="280.1983" y1="-294.3192" x2="289.0739" y2="-314.3331" gradientTransform="matrix(1 0 0 -1 -256 -244)">
	<stop  offset="0" style="stop-color:#00B6FB"/>
	<stop  offset="1" style="stop-color:#4FB646"/>
</linearGradient>
<path class="st14" d="M36.7,69.8C29.9,66,25.1,59.6,23.3,52.1c-0.2-0.9-0.4-1.9-0.5-2.8c-0.1-0.4-0.3-0.8-0.8-0.8
	c-0.4,0-0.8,0.4-0.8,0.8c0.5,3.9,1.8,7.8,3.7,11.2c2,3.3,4.7,6.2,7.8,8.6c1,0.7,2.1,1.5,3.2,2.1C36.8,71.6,37.6,70.3,36.7,69.8z"/>
<linearGradient id="SVGID_31_" gradientUnits="userSpaceOnUse" x1="280.1983" y1="-294.3192" x2="289.0739" y2="-314.3331" gradientTransform="matrix(1 0 0 -1 -256 -244)">
	<stop  offset="0" style="stop-color:#00B6FB"/>
	<stop  offset="1" style="stop-color:#4FB646"/>
</linearGradient>
<linearGradient id="SVGID_32_" gradientUnits="userSpaceOnUse" x1="280.1983" y1="-294.3192" x2="289.0739" y2="-314.3331" gradientTransform="matrix(1 0 0 -1 -256 -244)">
	<stop  offset="0" style="stop-color:#00B6FB"/>
	<stop  offset="1" style="stop-color:#4FB646"/>
</linearGradient>
<path class="st15" d="M36.7,69.8C29.9,66,25.1,59.6,23.3,52.1c-0.2-0.9-0.4-1.9-0.5-2.8c-0.1-0.4-0.3-0.8-0.8-0.8
	c-0.4,0-0.8,0.4-0.8,0.8c0.5,3.9,1.8,7.8,3.7,11.2c2,3.3,4.7,6.2,7.8,8.6c1,0.7,2.1,1.5,3.2,2.1C36.8,71.6,37.6,70.3,36.7,69.8z"/>
<linearGradient id="SVGID_33_" gradientUnits="userSpaceOnUse" x1="321.7524" y1="-293.7502" x2="330.891" y2="-313.9196" gradientTransform="matrix(1 0 0 -1 -256 -244)">
	<stop  offset="0" style="stop-color:#00B6FB"/>
	<stop  offset="1" style="stop-color:#4FB646"/>
</linearGradient>
<linearGradient id="SVGID_34_" gradientUnits="userSpaceOnUse" x1="321.7524" y1="-293.7502" x2="330.891" y2="-313.9196" gradientTransform="matrix(1 0 0 -1 -256 -244)">
	<stop  offset="0" style="stop-color:#00B6FB"/>
	<stop  offset="1" style="stop-color:#4FB646"/>
</linearGradient>
<path class="st16" d="M77.3,48.1c-0.5,0-0.8,0.4-0.8,0.8c-0.8,7.6-5,14.6-11.1,19.1c-0.8,0.6-1.8,1.1-2.7,1.7
	c-0.9,0.5-0.1,2,0.8,1.5c6.8-3.8,11.9-10.4,13.9-17.9c0.4-1.5,0.6-2.9,0.7-4.4C78.2,48.5,77.7,48.1,77.3,48.1z"/>
<linearGradient id="SVGID_35_" gradientUnits="userSpaceOnUse" x1="321.7524" y1="-293.7502" x2="330.891" y2="-313.9196" gradientTransform="matrix(1 0 0 -1 -256 -244)">
	<stop  offset="0" style="stop-color:#00B6FB"/>
	<stop  offset="1" style="stop-color:#4FB646"/>
</linearGradient>
<linearGradient id="SVGID_36_" gradientUnits="userSpaceOnUse" x1="321.7524" y1="-293.7502" x2="330.891" y2="-313.9196" gradientTransform="matrix(1 0 0 -1 -256 -244)">
	<stop  offset="0" style="stop-color:#00B6FB"/>
	<stop  offset="1" style="stop-color:#4FB646"/>
</linearGradient>
<path class="st17" d="M77.3,48.1c-0.5,0-0.8,0.4-0.8,0.8c-0.8,7.6-5,14.6-11.1,19.1c-0.8,0.6-1.8,1.1-2.7,1.7
	c-0.9,0.5-0.1,2,0.8,1.5c6.8-3.8,11.9-10.4,13.9-17.9c0.4-1.5,0.6-2.9,0.7-4.4C78.2,48.5,77.7,48.1,77.3,48.1z"/>
</svg>
