<?xml version="1.0" encoding="utf-8"?>
<!-- Generator: Adobe Illustrator 22.1.0, SVG Export Plug-In . SVG Version: 6.00 Build 0)  -->
<svg version="1.1" id="Layer_1" xmlns="http://www.w3.org/2000/svg" xmlns:xlink="http://www.w3.org/1999/xlink" x="0px" y="0px"
	 width="100px" height="100px" viewBox="0 0 100 100" style="enable-background:new 0 0 100 100;" xml:space="preserve">
<style type="text/css">
	.st0{fill:none;stroke:#FACA22;stroke-width:3;stroke-linecap:round;}
	.st1{fill:none;stroke:#FACA22;stroke-width:3;}
	.st2{fill:none;stroke:#FACA22;stroke-width:3;stroke-linecap:round;stroke-dasharray:7,10;}
	.st3{fill:#FFFFFF;stroke:#FACA22;stroke-width:3;stroke-linecap:round;stroke-linejoin:round;}
</style>
<path class="st0" d="M60.4,76.6h-54c-2.7,0-4.9-2.2-4.9-4.9V16.9c0-2.7,2.2-4.9,4.9-4.9h87.1c2.7,0,4.9,2.2,4.9,4.9v54.8
	c0,2.7-2.2,4.9-4.9,4.9h-2.6"/>
<line class="st1" x1="51.7" y1="76.6" x2="51.7" y2="86.5"/>
<line class="st0" x1="38.5" y1="87" x2="64.6" y2="87"/>
<path class="st2" d="M18.3,23.2h18.5c1.6,0,2.9,1.3,2.9,2.9v37.6c0,1.6-1.3,2.9-2.9,2.9H18.3c-1.6,0-2.9-1.3-2.9-2.9V26.1
	C15.3,24.5,16.6,23.2,18.3,23.2z"/>
<line class="st0" x1="49.1" y1="23.1" x2="87.7" y2="23.1"/>
<line class="st0" x1="49.1" y1="30.3" x2="76.5" y2="30.3"/>
<path class="st1" d="M57.1,41.2h21.2c0.8,0,1.5,0.7,1.5,1.5v21.2c0,0.8-0.7,1.5-1.5,1.5H57.1c-0.8,0-1.5-0.7-1.5-1.5V42.6
	C55.7,41.8,56.3,41.2,57.1,41.2z"/>
<path class="st3" d="M68.9,80.1l1-20.6l15.2,13.7c0.7,0.6,0.2,1.7-0.7,1.7l-5.9-0.3l3.5,7c0.2,0.5,0,1.1-0.5,1.3l-2.9,1.2
	c-0.5,0.2-1.1,0-1.3-0.5l-3.1-7.1l-3.6,4.2C70,81.5,68.8,81,68.9,80.1z"/>
</svg>
