<?xml version="1.0" encoding="utf-8"?>
<!-- Generator: Adobe Illustrator 19.2.0, SVG Export Plug-In . SVG Version: 6.00 Build 0)  -->
<svg version="1.1" id="Layer_1" xmlns="http://www.w3.org/2000/svg" xmlns:xlink="http://www.w3.org/1999/xlink" x="0px" y="0px"
	 width="120px" height="140px" viewBox="0 0 120 140" style="enable-background:new 0 0 120 140;" xml:space="preserve">
<style type="text/css">
	.st0{fill:#0C071F;}
	.st1{fill:#124AFF;}
</style>
<path class="st0" d="M36.1,118.3c-0.3,0.4-0.7,0.7-1.2,0.9c-0.4,0.2-0.9,0.3-1.4,0.3c-0.6,0-1.2-0.2-1.8-0.5
	c-0.6-0.3-1.2-0.8-1.9-1.6c-1,0-1.8-0.3-2.6-0.8c-0.8-0.5-1.4-1.1-1.8-1.9c-0.4-0.8-0.6-1.6-0.6-2.6c0-1,0.2-1.9,0.7-2.7
	c0.5-0.8,1.1-1.4,2-1.9c0.8-0.5,1.8-0.7,2.8-0.7c1,0,1.9,0.2,2.8,0.7c0.8,0.4,1.5,1.1,1.9,1.9c0.5,0.8,0.7,1.7,0.7,2.7
	c0,0.8-0.2,1.6-0.5,2.3c-0.3,0.7-0.8,1.3-1.4,1.8c-0.6,0.5-1.3,0.8-2.1,1c0.3,0.4,0.7,0.6,1,0.8c0.3,0.2,0.6,0.2,1,0.2
	c0.7,0,1.3-0.3,1.9-0.9L36.1,118.3z M26.2,112.2c0,0.7,0.2,1.4,0.5,2c0.4,0.6,0.8,1.1,1.4,1.4c0.6,0.3,1.3,0.5,2,0.5
	c0.7,0,1.4-0.2,2-0.5c0.6-0.3,1.1-0.8,1.4-1.4c0.4-0.6,0.5-1.3,0.5-2c0-0.7-0.2-1.4-0.5-2c-0.3-0.6-0.8-1.1-1.4-1.4
	c-0.6-0.3-1.3-0.5-2-0.5c-0.7,0-1.4,0.2-2,0.5c-0.6,0.3-1.1,0.8-1.4,1.4C26.3,110.8,26.2,111.5,26.2,112.2z M44.8,109.6v7.7h-1.3
	v-1.2c-0.3,0.4-0.7,0.7-1.1,0.9c-0.5,0.2-1,0.3-1.5,0.3c-1,0-1.8-0.3-2.4-0.8c-0.6-0.6-0.9-1.4-0.9-2.5v-4.5h1.4v4.3
	c0,0.7,0.2,1.3,0.5,1.7c0.4,0.4,0.9,0.6,1.5,0.6c0.7,0,1.3-0.2,1.8-0.7c0.4-0.4,0.6-1.1,0.6-1.9v-4H44.8z M54.5,113.5
	c0,0.1,0,0.2,0,0.4h-6.3c0.1,0.7,0.4,1.2,0.9,1.7c0.5,0.4,1.2,0.6,1.9,0.6c0.9,0,1.7-0.3,2.2-0.9l0.8,0.9c-0.4,0.4-0.8,0.7-1.3,0.9
	c-0.5,0.2-1.1,0.3-1.7,0.3c-0.8,0-1.5-0.2-2.2-0.5c-0.6-0.3-1.1-0.8-1.5-1.4c-0.3-0.6-0.5-1.3-0.5-2c0-0.7,0.2-1.4,0.5-2
	c0.3-0.6,0.8-1.1,1.4-1.4c0.6-0.3,1.3-0.5,2-0.5s1.4,0.2,2,0.5c0.6,0.3,1,0.8,1.4,1.4C54.3,112,54.5,112.7,54.5,113.5z M50.6,110.7
	c-0.7,0-1.2,0.2-1.7,0.6c-0.4,0.4-0.7,0.9-0.8,1.6h5c-0.1-0.7-0.3-1.2-0.8-1.6C51.9,110.9,51.3,110.7,50.6,110.7z M58.6,117.4
	c-0.6,0-1.2-0.1-1.8-0.2c-0.6-0.2-1-0.4-1.4-0.7l0.6-1.1c0.3,0.2,0.8,0.4,1.2,0.6c0.5,0.1,1,0.2,1.5,0.2c1.2,0,1.8-0.4,1.8-1.1
	c0-0.2-0.1-0.4-0.2-0.6c-0.2-0.1-0.4-0.2-0.6-0.3c-0.2-0.1-0.6-0.1-1.1-0.2c-0.6-0.1-1.1-0.2-1.5-0.3c-0.4-0.1-0.7-0.3-1-0.6
	c-0.3-0.3-0.4-0.7-0.4-1.3c0-0.7,0.3-1.3,0.9-1.7c0.6-0.4,1.4-0.6,2.4-0.6c0.5,0,1,0.1,1.5,0.2c0.5,0.1,0.9,0.3,1.3,0.5l-0.6,1.1
	c-0.6-0.4-1.4-0.6-2.2-0.6c-0.6,0-1,0.1-1.4,0.3c-0.3,0.2-0.5,0.5-0.5,0.8c0,0.3,0.1,0.5,0.3,0.6c0.2,0.1,0.4,0.3,0.6,0.3
	c0.3,0.1,0.6,0.1,1.1,0.2c0.6,0.1,1.1,0.2,1.5,0.4c0.4,0.1,0.7,0.3,1,0.6c0.3,0.3,0.4,0.7,0.4,1.2c0,0.7-0.3,1.3-0.9,1.7
	C60.5,117.2,59.7,117.4,58.6,117.4z M68.1,116.9c-0.2,0.2-0.5,0.3-0.8,0.4c-0.3,0.1-0.6,0.1-0.9,0.1c-0.8,0-1.4-0.2-1.8-0.6
	c-0.4-0.4-0.6-1-0.6-1.8v-4.2h-1.3v-1.2h1.3v-1.7h1.4v1.7h2.2v1.2h-2.2v4.2c0,0.4,0.1,0.7,0.3,1c0.2,0.2,0.5,0.3,0.9,0.3
	c0.4,0,0.8-0.1,1.1-0.4L68.1,116.9z M69.8,109.6h1.4v7.7h-1.4V109.6z M70.5,108.1c-0.3,0-0.5-0.1-0.7-0.3c-0.2-0.2-0.3-0.4-0.3-0.6
	c0-0.3,0.1-0.5,0.3-0.6c0.2-0.2,0.4-0.3,0.7-0.3s0.5,0.1,0.7,0.3c0.2,0.2,0.3,0.4,0.3,0.6c0,0.3-0.1,0.5-0.3,0.7
	C71,108,70.8,108.1,70.5,108.1z M77.2,117.4c-0.8,0-1.5-0.2-2.1-0.5c-0.6-0.3-1.1-0.8-1.4-1.4c-0.3-0.6-0.5-1.3-0.5-2
	c0-0.8,0.2-1.4,0.5-2c0.4-0.6,0.8-1.1,1.4-1.4c0.6-0.3,1.3-0.5,2.1-0.5c0.8,0,1.5,0.2,2.1,0.5c0.6,0.3,1.1,0.8,1.4,1.4
	c0.4,0.6,0.5,1.3,0.5,2c0,0.8-0.2,1.4-0.5,2c-0.3,0.6-0.8,1.1-1.4,1.4C78.6,117.3,77.9,117.4,77.2,117.4z M77.2,116.2
	c0.5,0,0.9-0.1,1.3-0.3c0.4-0.2,0.7-0.6,0.9-1c0.2-0.4,0.3-0.9,0.3-1.4c0-0.5-0.1-1-0.3-1.4c-0.2-0.4-0.5-0.7-0.9-1
	c-0.4-0.2-0.8-0.3-1.3-0.3c-0.5,0-0.9,0.1-1.3,0.3c-0.4,0.2-0.7,0.5-0.9,1c-0.2,0.4-0.3,0.9-0.3,1.4c0,0.5,0.1,1,0.3,1.4
	c0.2,0.4,0.5,0.7,0.9,1C76.2,116.1,76.7,116.2,77.2,116.2z M87.3,109.5c1,0,1.8,0.3,2.3,0.9c0.6,0.6,0.9,1.4,0.9,2.5v4.5h-1.4V113
	c0-0.7-0.2-1.3-0.5-1.7c-0.4-0.4-0.9-0.6-1.5-0.6c-0.8,0-1.4,0.2-1.8,0.7c-0.4,0.4-0.7,1.1-0.7,1.9v4h-1.4v-7.7h1.3v1.2
	c0.3-0.4,0.7-0.7,1.1-0.9C86.1,109.6,86.7,109.5,87.3,109.5z"/>
<path class="st1" d="M42,38.4c1.6,0,2.9-1.3,2.9-2.9c0-1.6-1.3-2.9-2.9-2.9c-1.6,0-2.9,1.3-2.9,2.9C39.1,37.1,40.4,38.4,42,38.4z
	 M42,33.9c1,0,1.7,0.7,1.7,1.7c0,1-0.7,1.7-1.7,1.7c-1,0-1.7-0.7-1.7-1.7C40.3,34.7,41,33.9,42,33.9z"/>
<path class="st1" d="M42,53.7c1.6,0,2.9-1.3,2.9-2.9c0-1.6-1.3-2.9-2.9-2.9c-1.6,0-2.9,1.3-2.9,2.9C39.1,52.4,40.4,53.7,42,53.7z
	 M42,49.2c1,0,1.7,0.7,1.7,1.7c0,1-0.7,1.7-1.7,1.7c-1,0-1.7-0.7-1.7-1.7C40.3,49.9,41,49.2,42,49.2z"/>
<path class="st1" d="M42,69.2c1.6,0,2.9-1.3,2.9-2.9c0-1.6-1.3-2.9-2.9-2.9c-1.6,0-2.9,1.3-2.9,2.9C39.1,67.9,40.4,69.2,42,69.2z
	 M42,64.6c1,0,1.7,0.7,1.7,1.7c0,1-0.7,1.7-1.7,1.7c-1,0-1.7-0.7-1.7-1.7C40.3,65.3,41,64.6,42,64.6z"/>
<path class="st1" d="M78.5,34.9H50v1.2h28.5V34.9z"/>
<path class="st1" d="M78.5,50.3H50v1.2h28.5V50.3z"/>
<path class="st1" d="M78.5,65.7H50v1.2h28.5V65.7z"/>
<path class="st1" d="M29.4,17.3V84h58.2V17.3H29.4z M86.4,82.8H30.6V18.5h55.8V82.8z"/>
</svg>
