<?xml version="1.0" encoding="utf-8"?>
<!-- Generator: Adobe Illustrator 22.1.0, SVG Export Plug-In . SVG Version: 6.00 Build 0)  -->
<svg version="1.1" id="Layer_1" xmlns="http://www.w3.org/2000/svg" xmlns:xlink="http://www.w3.org/1999/xlink" x="0px" y="0px"
	 width="75px" height="75px" viewBox="0 0 75 75" style="enable-background:new 0 0 75 75;" xml:space="preserve">
<style type="text/css">
	.st0{fill:#00C1FF;stroke:#00C1FF;}
</style>
<path class="st0" d="M71.1,27.1v0.4l0.4,0.1C72.9,28,74,29.4,74,31v29.6c0,2-1.7,3.7-3.7,3.7H53.9h-0.5v0.5v2.5
	c0,1.4-1.2,2.6-2.6,2.6H37.7c-1.4,0-2.6-1.2-2.6-2.6V55.6v-0.5h-0.5h-17c-0.4,0-0.7-0.3-0.7-0.7s0.3-0.7,0.7-0.7h3h0.2l0.1-0.2
	l2-2.1l0.8-0.8h-1.2H5.3c-2.6,0-4.8-2.1-4.8-4.7V8c0-2.6,2.1-4.7,4.8-4.7h61.1c2.6,0,4.8,2.1,4.8,4.7V27.1z M72.1,31.9h0.5v-0.5V31
	c0-1.2-1-2.2-2.2-2.2H45.7c-1.2,0-2.2,1-2.2,2.2v0.3v0.5H44H72.1z M43.5,41.3v0.5H44h6.8c1.4,0,2.6,1.2,2.6,2.6v13.5v0.5h0.5h18.2
	h0.5v-0.5V33.8v-0.5h-0.5H44h-0.5v0.5V41.3z M51.5,46.5H52l0-0.5l0-1.6c0-0.6-0.5-1.1-1.1-1.1H37.7c-0.6,0-1.1,0.5-1.1,1.1V46v0.5
	h0.5H51.5z M69.6,10.2V9.7h-0.5H2.4H1.9v0.5v34.2v0.5h0.5h32.2h0.5l0-0.5c0-1.4,1.2-2.6,2.6-2.6h3.9h0.5v-0.5V31
	c0-2,1.7-3.7,3.7-3.7h23.4h0.5v-0.5V10.2z M37.1,47.9h-0.5v0.5v14.8v0.5h0.5h14.4H52v-0.5V48.4v-0.5h-0.5H37.1z M68.8,8.3h0.8
	l-0.3-0.7c-0.2-0.5-0.6-1.2-1.1-1.7c-0.5-0.5-1.1-1.1-1.9-1.1H5.3c-0.8,0-1.4,0.6-1.9,1.1C2.9,6.4,2.5,7.1,2.3,7.6L1.9,8.3h0.8H68.8
	z M2.7,46.3H1.9L2.2,47c0.5,1.2,1.7,2.1,3.1,2.1h0h29.4h0.5v-0.5v-1.8v-0.5h-0.5H2.7z M23.6,52.8l-0.8,0.8h1.2h10.7h0.5v-0.5V51
	v-0.5h-0.5h-8.7h-0.2l-0.1,0.2L23.6,52.8z M37.1,65.2h-0.5v0.5v1.6c0,0.6,0.5,1.1,1.1,1.1h13.1c0.6,0,1.1-0.5,1.1-1.1c0,0,0,0,0,0
	v-1.6v-0.5h-0.5H37.1z M53.4,62.4v0.5h0.5h16.4c1.2,0,2.2-1,2.2-2.2v-0.3v-0.5h-0.5H53.9h-0.5v0.5V62.4z"/>
</svg>
