<svg width="107" height="95" viewBox="0 0 107 95" fill="none" xmlns="http://www.w3.org/2000/svg">
<path d="M102.114 33.2123V7.47312C102.114 3.35249 98.7477 0 94.6095 0H7.505C3.36656 0 0 3.35249 0 7.47312V59.9076C0 64.0282 3.36679 67.3807 7.505 67.3807H32.1909L29.365 70.4093H25.1313C24.1689 70.4093 23.3886 71.1862 23.3886 72.1445C23.3886 73.1028 24.1689 73.8798 25.1313 73.8798H49.3799V90.6154C49.3799 93.0329 51.3551 95 53.7832 95H72.5171C74.945 95 76.9204 93.0331 76.9204 90.6154V87.0908H100.374C103.666 87.0908 106.343 84.4233 106.343 81.1447V38.8995C106.343 36.2243 104.56 33.9566 102.114 33.2123ZM102.858 38.8995V39.3736H62.7794V38.8995C62.7794 37.5345 63.8947 36.4239 65.2656 36.4239H100.374C101.744 36.4242 102.858 37.5347 102.858 38.8995ZM72.5171 53.5598H62.7794V42.8441H102.858V77.1999H76.9204V57.9442C76.9204 55.5267 74.945 53.5598 72.5171 53.5598ZM73.4351 60.2252H52.8654V57.9444C52.8654 57.4405 53.2771 57.0303 53.7834 57.0303H72.5173C73.0234 57.0303 73.4354 57.4403 73.4354 57.9444L73.4351 60.2252ZM98.6289 9.20836V32.9534H65.2654C61.9727 32.9534 59.2939 35.6209 59.2939 38.8995V53.5598H53.783C51.357 53.5598 49.3831 55.5236 49.3801 57.9386H3.48506V9.20836H98.6289ZM52.8649 63.6957H73.4347V84.8646H52.8649V63.6957ZM7.50477 3.47049H94.6092C96.2008 3.47049 97.5752 4.39873 98.2258 5.73787H3.88796C4.53878 4.39873 5.91315 3.47049 7.50477 3.47049ZM3.78131 61.4094H49.3799V63.9104H7.50477C5.82183 63.9102 4.37916 62.8739 3.78131 61.4094ZM34.1224 70.4093L36.9483 67.3807H49.3799V70.4093H34.1224ZM72.5169 91.5297H53.783C53.2769 91.5297 52.8649 91.1198 52.8649 90.6156V88.335H73.4347V90.6156C73.4349 91.1195 73.0229 91.5297 72.5169 91.5297ZM100.374 83.6205H76.9202V80.6706H102.858V81.1449C102.858 82.5097 101.744 83.6205 100.374 83.6205Z" fill="url(#paint0_linear)"/>
<defs>
<linearGradient id="paint0_linear" x1="0" y1="0" x2="103.834" y2="97.6675" gradientUnits="userSpaceOnUse">
<stop stop-color="#2EE5FF"/>
<stop offset="1" stop-color="#44D83D"/>
</linearGradient>
</defs>
</svg>
