<?xml version="1.0" encoding="utf-8"?>
<!-- Generator: Adobe Illustrator 19.2.0, SVG Export Plug-In . SVG Version: 6.00 Build 0)  -->
<svg version="1.1" id="Layer_1" xmlns="http://www.w3.org/2000/svg" xmlns:xlink="http://www.w3.org/1999/xlink" x="0px" y="0px"
	 width="120px" height="140px" viewBox="0 0 120 140" style="enable-background:new 0 0 120 140;" xml:space="preserve">
<style type="text/css">
	.st0{fill:#0C071F;}
	.st1{fill:#124AFF;}
</style>
<path class="st0" d="M41.3,117.3l-2.2-3.1c-0.3,0-0.5,0-0.6,0h-2.5v3.1h-1.5v-10.2h4c1.3,0,2.4,0.3,3.1,0.9c0.8,0.6,1.1,1.5,1.1,2.6
	c0,0.8-0.2,1.5-0.6,2c-0.4,0.6-0.9,1-1.7,1.2l2.4,3.4H41.3z M38.4,113c0.9,0,1.6-0.2,2.1-0.6c0.5-0.4,0.7-1,0.7-1.7
	c0-0.7-0.2-1.3-0.7-1.7c-0.5-0.4-1.2-0.6-2.1-0.6h-2.5v4.6H38.4z M51.8,113.5c0,0.1,0,0.2,0,0.4h-6.3c0.1,0.7,0.4,1.2,0.9,1.6
	c0.5,0.4,1.2,0.6,1.9,0.6c0.9,0,1.7-0.3,2.2-0.9l0.8,0.9c-0.4,0.4-0.8,0.7-1.3,0.9c-0.5,0.2-1.1,0.3-1.7,0.3c-0.8,0-1.5-0.2-2.2-0.5
	c-0.6-0.3-1.1-0.8-1.5-1.4c-0.3-0.6-0.5-1.3-0.5-2c0-0.7,0.2-1.4,0.5-2c0.3-0.6,0.8-1.1,1.4-1.4c0.6-0.3,1.3-0.5,2-0.5
	c0.7,0,1.4,0.2,2,0.5c0.6,0.3,1,0.8,1.4,1.4C51.7,112,51.8,112.7,51.8,113.5z M48,110.7c-0.7,0-1.2,0.2-1.7,0.6
	c-0.4,0.4-0.7,0.9-0.8,1.6h5c-0.1-0.7-0.3-1.2-0.8-1.6C49.3,110.9,48.7,110.7,48,110.7z M65.4,109.6l-2.9,7.7h-1.3l-2.2-5.9
	l-2.3,5.9h-1.3l-2.9-7.7h1.3l2.2,6.2l2.3-6.2h1.2l2.3,6.2l2.3-6.2H65.4z M69.4,109.5c1.1,0,1.9,0.3,2.5,0.8c0.6,0.5,0.9,1.3,0.9,2.4
	v4.7h-1.3v-1c-0.2,0.4-0.6,0.6-1,0.8c-0.4,0.2-0.9,0.3-1.5,0.3c-0.9,0-1.6-0.2-2.1-0.6c-0.5-0.4-0.8-1-0.8-1.7
	c0-0.7,0.2-1.2,0.7-1.6c0.5-0.4,1.3-0.6,2.4-0.6h2.2v-0.3c0-0.6-0.2-1.1-0.5-1.4s-0.9-0.5-1.5-0.5c-0.5,0-0.9,0.1-1.3,0.2
	c-0.4,0.1-0.8,0.3-1.1,0.6l-0.6-1.1c0.4-0.3,0.9-0.6,1.4-0.7C68.2,109.6,68.7,109.5,69.4,109.5z M69,116.3c0.5,0,1-0.1,1.4-0.4
	c0.4-0.2,0.7-0.6,0.8-1v-1.1h-2.2c-1.2,0-1.8,0.4-1.8,1.2c0,0.4,0.2,0.7,0.5,0.9C68.1,116.2,68.5,116.3,69,116.3z M76.6,110.9
	c0.2-0.4,0.6-0.8,1.1-1c0.5-0.2,1.1-0.4,1.7-0.4v1.4c-0.1,0-0.2,0-0.3,0c-0.8,0-1.4,0.2-1.8,0.7c-0.4,0.4-0.6,1.1-0.6,1.9v3.9h-1.4
	v-7.7h1.3V110.9z M88.4,106.5v10.8h-1.3v-1.2c-0.3,0.4-0.7,0.8-1.2,1c-0.5,0.2-1,0.3-1.6,0.3c-0.7,0-1.4-0.2-2-0.5
	c-0.6-0.3-1.1-0.8-1.4-1.4c-0.3-0.6-0.5-1.3-0.5-2.1c0-0.8,0.2-1.5,0.5-2.1c0.3-0.6,0.8-1.1,1.4-1.4c0.6-0.3,1.3-0.5,2-0.5
	c0.6,0,1.1,0.1,1.5,0.3c0.5,0.2,0.9,0.5,1.2,0.9v-4.3H88.4z M84.4,116.2c0.5,0,0.9-0.1,1.3-0.3c0.4-0.2,0.7-0.6,0.9-1
	c0.2-0.4,0.3-0.9,0.3-1.4s-0.1-1-0.3-1.4c-0.2-0.4-0.5-0.7-0.9-1s-0.8-0.3-1.3-0.3c-0.5,0-0.9,0.1-1.3,0.3c-0.4,0.2-0.7,0.5-0.9,1
	c-0.2,0.4-0.3,0.9-0.3,1.4s0.1,1,0.3,1.4c0.2,0.4,0.5,0.7,0.9,1C83.5,116.1,83.9,116.2,84.4,116.2z"/>
<path class="st1" d="M76.5,39.2c0-9.3-7.6-17-17-17s-17,7.6-17,17c0,9.3,7.6,17,17,17C69,56.2,76.5,48.5,76.5,39.2z M59.6,54.9
	c-8.7,0-15.8-7-15.8-15.8c0-8.7,7-15.8,15.8-15.8s15.8,7,15.8,15.8C75.3,47.9,68.3,54.9,59.6,54.9z"/>
<path class="st1" d="M77.1,55.9l5.6-1.3l-1-6.3l5.2-3.8l-3.4-5.5l3.4-5.5l-5.2-3.8l1-6.3l-6.2-1.5l-1.5-6.2l-6.3,1L65,11.7L59.6,15
	l-5.5-3.4l-3.8,5.2l-6.3-1l-1.5,6.2l-6.2,1.5l1,6.3l-5.2,3.8l3.4,5.5l-3.4,5.5l5.2,3.8l-1,6.3l5.7,1.3L30.6,74.2l10.6-1.7l3.3,9.5
	l10.2-16l4.9-3l5.2,3.3L74.7,82l3.3-9.5l10.6,1.7L77.1,55.9z M42.1,71.2l-8.9,1.5l9.7-15.5l1.2,5.2l6.3-1l3.2,4.4l-8.7,13.7
	L42.1,71.2z M54.5,64.8l-3.5-4.9l-5.9,1l-1.3-5.8l-5.8-1.3l1-5.9L34,44.3l3.2-5.1L34,34.1l4.9-3.5l-1-5.9l5.8-1.3l1.3-5.8l5.9,1
	l3.5-4.9l5.1,3.2l5.1-3.2l3.5,4.9l5.9-1l1.3,5.8l5.8,1.3l-1,5.9l4.9,3.5L82,39.2l3.2,5.1l-4.9,3.5l1,5.9l-5.8,1.3l-1.3,5.8l-5.9-1
	l-3.5,4.9l-5.1-3.2L54.5,64.8z M77.4,71.2l-2.8,8.1l-8.9-13.8l3-4.2l6.3,1l1.3-5.5l9.9,15.8L77.4,71.2z"/>
</svg>
