<svg width="70" height="70" viewBox="0 0 70 70" fill="none" xmlns="http://www.w3.org/2000/svg">
<path fill-rule="evenodd" clip-rule="evenodd" d="M29.1454 56.1224C29.1454 58.5845 31.2445 60.5881 33.8239 60.5881C36.4057 60.5881 38.5048 58.5845 38.5048 56.1224C38.5048 53.6581 36.4057 51.6545 33.8239 51.6545C31.2445 51.6545 29.1454 53.6581 29.1454 56.1224ZM7.53528 56.1224C7.53528 58.5845 9.6344 60.5881 12.2162 60.5881C14.7956 60.5881 16.8947 58.5845 16.8947 56.1224C16.8947 53.6581 14.7956 51.6545 12.2162 51.6545C9.6344 51.6545 7.53528 53.6581 7.53528 56.1224ZM29.1407 48.5003C30.5217 47.7222 32.1105 47.2461 33.8239 47.2461C38.9528 47.2461 43.1233 51.2291 43.1233 56.1224C43.1233 60.1164 40.3245 63.4646 36.5142 64.5733L38.6041 67.5313L34.7753 70L30.8889 64.5005C27.2056 63.3191 24.5268 60.0304 24.5268 56.1224V36.6616L23.2544 22.6936L21.5132 36.5514V56.1224C21.5132 61.0135 17.3404 64.9965 12.2162 64.9965C7.08959 64.9965 2.91675 61.0135 2.91675 56.1224C2.91675 51.2291 7.08959 47.2461 12.2162 47.2461C13.9296 47.2461 15.5184 47.7244 16.9016 48.5003L16.9109 36.1568L21.3285 1L25.9216 1.07274L29.1361 36.4698L29.1407 48.5003ZM45.3879 1.58389H64.7742C66.0512 1.58389 67.0834 2.57137 67.0834 3.78809V63.1073H62.4649V43.3709H44.9999V38.9626H62.4649V34.0913H44.9999V29.6829H62.4649V24.8932H44.9999V20.4848H62.4649V15.4549H44.9999V11.0465H62.4649V5.99228H45.3879V1.58389Z" fill="url(#paint0_linear)"/>
<defs>
<linearGradient id="paint0_linear" x1="-5.17345" y1="35.6712" x2="38.0832" y2="75.8978" gradientUnits="userSpaceOnUse">
<stop stop-color="#20D0EE"/>
<stop offset="0.981733" stop-color="#15E186"/>
</linearGradient>
</defs>
</svg>
