<?xml version="1.0" encoding="utf-8"?>
<!-- Generator: Adobe Illustrator 22.1.0, SVG Export Plug-In . SVG Version: 6.00 Build 0)  -->
<svg version="1.1" id="Layer_1" xmlns="http://www.w3.org/2000/svg" xmlns:xlink="http://www.w3.org/1999/xlink" x="0px" y="0px"
	 width="100px" height="100px" viewBox="0 0 100 100" style="enable-background:new 0 0 100 100;" xml:space="preserve">
<style type="text/css">
	.st0{fill:url(#SVGID_1_);stroke:url(#SVGID_2_);}
	.st1{fill:url(#SVGID_3_);stroke:url(#SVGID_4_);}
	.st2{fill:url(#SVGID_5_);stroke:url(#SVGID_6_);}
	.st3{fill:url(#SVGID_7_);stroke:url(#SVGID_8_);}
	.st4{fill:url(#SVGID_9_);stroke:url(#SVGID_10_);}
	.st5{fill:url(#SVGID_11_);stroke:url(#SVGID_12_);}
	.st6{fill:url(#SVGID_13_);stroke:url(#SVGID_14_);}
	.st7{fill:url(#SVGID_15_);stroke:url(#SVGID_16_);}
	.st8{fill:url(#SVGID_17_);stroke:url(#SVGID_18_);}
	.st9{fill:url(#SVGID_19_);stroke:url(#SVGID_20_);}
	.st10{fill:url(#SVGID_21_);stroke:url(#SVGID_22_);}
	.st11{fill:url(#SVGID_23_);stroke:url(#SVGID_24_);}
	.st12{fill:url(#SVGID_25_);stroke:url(#SVGID_26_);}
	.st13{fill:url(#SVGID_27_);stroke:url(#SVGID_28_);}
	.st14{fill:url(#SVGID_29_);stroke:url(#SVGID_30_);}
	.st15{fill:url(#SVGID_31_);stroke:url(#SVGID_32_);}
	.st16{fill:url(#SVGID_33_);stroke:url(#SVGID_34_);}
	.st17{fill:url(#SVGID_35_);stroke:url(#SVGID_36_);}
	.st18{fill:url(#SVGID_37_);stroke:url(#SVGID_38_);}
	.st19{fill:url(#SVGID_39_);stroke:url(#SVGID_40_);}
	.st20{fill:url(#SVGID_41_);stroke:url(#SVGID_42_);}
	.st21{fill:url(#SVGID_43_);stroke:url(#SVGID_44_);}
	.st22{fill:url(#SVGID_45_);stroke:url(#SVGID_46_);}
	.st23{fill:url(#SVGID_47_);stroke:url(#SVGID_48_);}
</style>
<g>
	<linearGradient id="SVGID_1_" gradientUnits="userSpaceOnUse" x1="49.5" y1="74.2556" x2="49.5" y2="93.0778">
		<stop  offset="0" style="stop-color:#00268C"/>
		<stop  offset="0.3735" style="stop-color:#0089F5"/>
		<stop  offset="1" style="stop-color:#F862FF"/>
	</linearGradient>
	<linearGradient id="SVGID_2_" gradientUnits="userSpaceOnUse" x1="49.5" y1="75.3996" x2="49.5" y2="92.3069">
		<stop  offset="0" style="stop-color:#00268C"/>
		<stop  offset="0.3735" style="stop-color:#0089F5"/>
		<stop  offset="1" style="stop-color:#F862FF"/>
	</linearGradient>
	<path class="st0" d="M49.5,91c3,0,5.5-2.5,5.5-5.5c0-3-2.5-5.5-5.5-5.5c-3,0-5.5,2.5-5.5,5.5C44,88.5,46.5,91,49.5,91z M49.5,82.8
		c1.5,0,2.8,1.2,2.8,2.8s-1.2,2.8-2.8,2.8s-2.8-1.2-2.8-2.8S48,82.8,49.5,82.8z"/>
	<linearGradient id="SVGID_3_" gradientUnits="userSpaceOnUse" x1="46.3269" y1="5.0963" x2="46.3269" y2="10.5148">
		<stop  offset="0" style="stop-color:#00268C"/>
		<stop  offset="0.3735" style="stop-color:#0089F5"/>
		<stop  offset="1" style="stop-color:#F862FF"/>
	</linearGradient>
	<linearGradient id="SVGID_4_" gradientUnits="userSpaceOnUse" x1="46.3269" y1="4.8263" x2="46.3269" y2="10.6968">
		<stop  offset="0" style="stop-color:#00268C"/>
		<stop  offset="0.3735" style="stop-color:#0089F5"/>
		<stop  offset="1" style="stop-color:#F862FF"/>
	</linearGradient>
	<path class="st1" d="M49.5,6.8h-6.3c-0.9,0-1.6,0.7-1.6,1.6c0,0.9,0.7,1.6,1.6,1.6h6.3c0.9,0,1.6-0.7,1.6-1.6
		C51.1,7.5,50.4,6.8,49.5,6.8z"/>
	<linearGradient id="SVGID_5_" gradientUnits="userSpaceOnUse" x1="55.0354" y1="5.0963" x2="55.0354" y2="10.5148">
		<stop  offset="0" style="stop-color:#00268C"/>
		<stop  offset="0.3735" style="stop-color:#0089F5"/>
		<stop  offset="1" style="stop-color:#F862FF"/>
	</linearGradient>
	<linearGradient id="SVGID_6_" gradientUnits="userSpaceOnUse" x1="55.0354" y1="4.8263" x2="55.0354" y2="10.6968">
		<stop  offset="0" style="stop-color:#00268C"/>
		<stop  offset="0.3735" style="stop-color:#0089F5"/>
		<stop  offset="1" style="stop-color:#F862FF"/>
	</linearGradient>
	<path class="st2" d="M55.8,6.8h-1.6c-0.9,0-1.6,0.7-1.6,1.6c0,0.9,0.7,1.6,1.6,1.6h1.6c0.9,0,1.6-0.7,1.6-1.6
		C57.4,7.5,56.7,6.8,55.8,6.8z"/>
	<linearGradient id="SVGID_7_" gradientUnits="userSpaceOnUse" x1="6.9187" y1="18.0203" x2="6.9187" y2="25.999">
		<stop  offset="0" style="stop-color:#00268C"/>
		<stop  offset="0.3735" style="stop-color:#0089F5"/>
		<stop  offset="1" style="stop-color:#F862FF"/>
	</linearGradient>
	<linearGradient id="SVGID_8_" gradientUnits="userSpaceOnUse" x1="6.9187" y1="18.0203" x2="6.9187" y2="25.9989">
		<stop  offset="0" style="stop-color:#00268C"/>
		<stop  offset="0.3735" style="stop-color:#0089F5"/>
		<stop  offset="1" style="stop-color:#F862FF"/>
	</linearGradient>
	<path class="st3" d="M8.6,23.1l-0.4-1.5c-0.2-0.8-1.1-1.3-1.9-1.1c-0.8,0.2-1.3,1.1-1.1,1.9l0.4,1.5c0.2,0.7,0.8,1.2,1.5,1.2
		c0.1,0,0.3,0,0.4-0.1C8.4,24.8,8.9,24,8.6,23.1z"/>
	<linearGradient id="SVGID_9_" gradientUnits="userSpaceOnUse" x1="5.206" y1="10.4595" x2="5.206" y2="18.5133">
		<stop  offset="0" style="stop-color:#00268C"/>
		<stop  offset="0.3735" style="stop-color:#0089F5"/>
		<stop  offset="1" style="stop-color:#F862FF"/>
	</linearGradient>
	<linearGradient id="SVGID_10_" gradientUnits="userSpaceOnUse" x1="5.206" y1="10.4675" x2="5.206" y2="18.5079">
		<stop  offset="0" style="stop-color:#00268C"/>
		<stop  offset="0.3735" style="stop-color:#0089F5"/>
		<stop  offset="1" style="stop-color:#F862FF"/>
	</linearGradient>
	<path class="st4" d="M5.3,17.6c0.9-0.1,1.5-0.9,1.4-1.7c0-0.1,0-0.3,0-0.4c0-0.2,0-0.5,0.1-0.7c0.2-0.9-0.4-1.7-1.3-1.9
		c-0.9-0.2-1.7,0.4-1.9,1.3c-0.1,0.4-0.1,0.9-0.1,1.3c0,0.2,0,0.5,0,0.7c0.1,0.8,0.8,1.4,1.6,1.4C5.2,17.6,5.3,17.6,5.3,17.6z"/>
	<linearGradient id="SVGID_11_" gradientUnits="userSpaceOnUse" x1="10.9248" y1="32.9725" x2="10.9248" y2="40.9558">
		<stop  offset="0" style="stop-color:#00268C"/>
		<stop  offset="0.3735" style="stop-color:#0089F5"/>
		<stop  offset="1" style="stop-color:#F862FF"/>
	</linearGradient>
	<linearGradient id="SVGID_12_" gradientUnits="userSpaceOnUse" x1="10.9248" y1="32.9729" x2="10.9248" y2="40.9554">
		<stop  offset="0" style="stop-color:#00268C"/>
		<stop  offset="0.3735" style="stop-color:#0089F5"/>
		<stop  offset="1" style="stop-color:#F862FF"/>
	</linearGradient>
	<path class="st5" d="M12.7,38.1l-0.4-1.5c-0.2-0.8-1.1-1.4-1.9-1.1c-0.8,0.2-1.3,1.1-1.1,1.9l0.4,1.5c0.2,0.7,0.8,1.2,1.5,1.2
		c0.1,0,0.3,0,0.4-0.1C12.4,39.8,12.9,38.9,12.7,38.1z"/>
	<linearGradient id="SVGID_13_" gradientUnits="userSpaceOnUse" x1="18.941" y1="62.8871" x2="18.941" y2="70.8679">
		<stop  offset="0" style="stop-color:#00268C"/>
		<stop  offset="0.3735" style="stop-color:#0089F5"/>
		<stop  offset="1" style="stop-color:#F862FF"/>
	</linearGradient>
	<linearGradient id="SVGID_14_" gradientUnits="userSpaceOnUse" x1="18.941" y1="62.8873" x2="18.941" y2="70.8677">
		<stop  offset="0" style="stop-color:#00268C"/>
		<stop  offset="0.3735" style="stop-color:#0089F5"/>
		<stop  offset="1" style="stop-color:#F862FF"/>
	</linearGradient>
	<path class="st6" d="M20.7,68l-0.4-1.5c-0.2-0.8-1.1-1.4-1.9-1.1c-0.8,0.2-1.3,1.1-1.1,1.9l0.4,1.5c0.2,0.7,0.8,1.2,1.5,1.2
		c0.1,0,0.3,0,0.4-0.1C20.4,69.7,20.9,68.8,20.7,68z"/>
	<linearGradient id="SVGID_15_" gradientUnits="userSpaceOnUse" x1="8.9216" y1="25.495" x2="8.9216" y2="33.4758">
		<stop  offset="0" style="stop-color:#00268C"/>
		<stop  offset="0.3735" style="stop-color:#0089F5"/>
		<stop  offset="1" style="stop-color:#F862FF"/>
	</linearGradient>
	<linearGradient id="SVGID_16_" gradientUnits="userSpaceOnUse" x1="8.9216" y1="25.4952" x2="8.9216" y2="33.4757">
		<stop  offset="0" style="stop-color:#00268C"/>
		<stop  offset="0.3735" style="stop-color:#0089F5"/>
		<stop  offset="1" style="stop-color:#F862FF"/>
	</linearGradient>
	<path class="st7" d="M10.7,30.6l-0.4-1.5C10,28.3,9.2,27.8,8.3,28c-0.8,0.2-1.3,1.1-1.1,1.9l0.4,1.5c0.2,0.7,0.8,1.2,1.5,1.2
		c0.1,0,0.3,0,0.4-0.1C10.4,32.3,10.9,31.4,10.7,30.6z"/>
	<linearGradient id="SVGID_17_" gradientUnits="userSpaceOnUse" x1="10.0551" y1="6.4171" x2="10.0551" y2="12.5275">
		<stop  offset="0" style="stop-color:#00268C"/>
		<stop  offset="0.3735" style="stop-color:#0089F5"/>
		<stop  offset="1" style="stop-color:#F862FF"/>
	</linearGradient>
	<linearGradient id="SVGID_18_" gradientUnits="userSpaceOnUse" x1="10.0551" y1="6.2201" x2="10.0551" y2="12.6603">
		<stop  offset="0" style="stop-color:#00268C"/>
		<stop  offset="0.3735" style="stop-color:#0089F5"/>
		<stop  offset="1" style="stop-color:#F862FF"/>
	</linearGradient>
	<path class="st8" d="M9.3,11.9c0.1,0,0.3,0,0.4-0.1l1.5-0.4c0.8-0.2,1.3-1.1,1.1-1.9c-0.2-0.8-1.1-1.4-1.9-1.1L8.9,8.7
		C8.1,9,7.6,9.8,7.8,10.7C8,11.4,8.6,11.9,9.3,11.9z"/>
	<linearGradient id="SVGID_19_" gradientUnits="userSpaceOnUse" x1="17.5333" y1="4.4127" x2="17.5333" y2="10.5215">
		<stop  offset="0" style="stop-color:#00268C"/>
		<stop  offset="0.3735" style="stop-color:#0089F5"/>
		<stop  offset="1" style="stop-color:#F862FF"/>
	</linearGradient>
	<linearGradient id="SVGID_20_" gradientUnits="userSpaceOnUse" x1="17.5333" y1="4.2155" x2="17.5333" y2="10.6544">
		<stop  offset="0" style="stop-color:#00268C"/>
		<stop  offset="0.3735" style="stop-color:#0089F5"/>
		<stop  offset="1" style="stop-color:#F862FF"/>
	</linearGradient>
	<path class="st9" d="M16.8,9.8c0.1,0,0.3,0,0.4-0.1l1.5-0.4c0.8-0.2,1.3-1.1,1.1-1.9c-0.2-0.8-1.1-1.4-1.9-1.1l-1.5,0.4
		C15.5,7,15,7.8,15.3,8.7C15.4,9.4,16.1,9.8,16.8,9.8z"/>
	<linearGradient id="SVGID_21_" gradientUnits="userSpaceOnUse" x1="16.9363" y1="55.4091" x2="16.9363" y2="63.3897">
		<stop  offset="0" style="stop-color:#00268C"/>
		<stop  offset="0.3735" style="stop-color:#0089F5"/>
		<stop  offset="1" style="stop-color:#F862FF"/>
	</linearGradient>
	<linearGradient id="SVGID_22_" gradientUnits="userSpaceOnUse" x1="16.9363" y1="55.4093" x2="16.9363" y2="63.3895">
		<stop  offset="0" style="stop-color:#00268C"/>
		<stop  offset="0.3735" style="stop-color:#0089F5"/>
		<stop  offset="1" style="stop-color:#F862FF"/>
	</linearGradient>
	<path class="st10" d="M18.7,60.5L18.3,59c-0.2-0.8-1.1-1.3-1.9-1.1c-0.8,0.2-1.3,1.1-1.1,1.9l0.4,1.5c0.2,0.7,0.8,1.2,1.5,1.2
		c0.1,0,0.3,0,0.4-0.1C18.4,62.2,18.9,61.4,18.7,60.5z"/>
	<linearGradient id="SVGID_23_" gradientUnits="userSpaceOnUse" x1="12.9291" y1="40.4547" x2="12.9291" y2="48.4333">
		<stop  offset="0" style="stop-color:#00268C"/>
		<stop  offset="0.3735" style="stop-color:#0089F5"/>
		<stop  offset="1" style="stop-color:#F862FF"/>
	</linearGradient>
	<linearGradient id="SVGID_24_" gradientUnits="userSpaceOnUse" x1="12.9291" y1="40.4547" x2="12.9291" y2="48.4333">
		<stop  offset="0" style="stop-color:#00268C"/>
		<stop  offset="0.3735" style="stop-color:#0089F5"/>
		<stop  offset="1" style="stop-color:#F862FF"/>
	</linearGradient>
	<path class="st11" d="M14.7,45.6l-0.4-1.5c-0.2-0.8-1.1-1.3-1.9-1.1c-0.8,0.2-1.3,1.1-1.1,1.9l0.4,1.5c0.2,0.7,0.8,1.2,1.5,1.2
		c0.1,0,0.3,0,0.4-0.1C14.4,47.3,14.9,46.4,14.7,45.6z"/>
	<linearGradient id="SVGID_25_" gradientUnits="userSpaceOnUse" x1="14.9336" y1="47.9286" x2="14.9336" y2="55.9102">
		<stop  offset="0" style="stop-color:#00268C"/>
		<stop  offset="0.3735" style="stop-color:#0089F5"/>
		<stop  offset="1" style="stop-color:#F862FF"/>
	</linearGradient>
	<linearGradient id="SVGID_26_" gradientUnits="userSpaceOnUse" x1="14.9336" y1="47.9289" x2="14.9336" y2="55.91">
		<stop  offset="0" style="stop-color:#00268C"/>
		<stop  offset="0.3735" style="stop-color:#0089F5"/>
		<stop  offset="1" style="stop-color:#F862FF"/>
	</linearGradient>
	<path class="st12" d="M16.7,53l-0.4-1.5c-0.2-0.8-1.1-1.4-1.9-1.1c-0.8,0.2-1.3,1.1-1.1,1.9l0.4,1.5c0.2,0.7,0.8,1.2,1.5,1.2
		c0.1,0,0.3,0,0.4-0.1C16.4,54.7,16.9,53.9,16.7,53z"/>
	<linearGradient id="SVGID_27_" gradientUnits="userSpaceOnUse" x1="90.0798" y1="25.4972" x2="90.0798" y2="33.4771">
		<stop  offset="0" style="stop-color:#00268C"/>
		<stop  offset="0.3735" style="stop-color:#0089F5"/>
		<stop  offset="1" style="stop-color:#F862FF"/>
	</linearGradient>
	<linearGradient id="SVGID_28_" gradientUnits="userSpaceOnUse" x1="90.0798" y1="25.4974" x2="90.0798" y2="33.477">
		<stop  offset="0" style="stop-color:#00268C"/>
		<stop  offset="0.3735" style="stop-color:#0089F5"/>
		<stop  offset="1" style="stop-color:#F862FF"/>
	</linearGradient>
	<path class="st13" d="M90.7,28c-0.8-0.2-1.7,0.3-1.9,1.1l-0.4,1.5c-0.2,0.8,0.3,1.7,1.1,1.9c0.1,0,0.3,0.1,0.4,0.1
		c0.7,0,1.3-0.5,1.5-1.2l0.4-1.5C92,29.1,91.5,28.2,90.7,28z"/>
	<linearGradient id="SVGID_29_" gradientUnits="userSpaceOnUse" x1="92.0809" y1="18.018" x2="92.0809" y2="25.9976">
		<stop  offset="0" style="stop-color:#00268C"/>
		<stop  offset="0.3735" style="stop-color:#0089F5"/>
		<stop  offset="1" style="stop-color:#F862FF"/>
	</linearGradient>
	<linearGradient id="SVGID_30_" gradientUnits="userSpaceOnUse" x1="92.0809" y1="18.0181" x2="92.0809" y2="25.9975">
		<stop  offset="0" style="stop-color:#00268C"/>
		<stop  offset="0.3735" style="stop-color:#0089F5"/>
		<stop  offset="1" style="stop-color:#F862FF"/>
	</linearGradient>
	<path class="st14" d="M92.7,20.5c-0.9-0.2-1.7,0.3-1.9,1.1l-0.4,1.5c-0.2,0.8,0.3,1.7,1.1,1.9c0.1,0,0.3,0.1,0.4,0.1
		c0.7,0,1.3-0.5,1.5-1.2l0.4-1.5C94,21.6,93.5,20.7,92.7,20.5z"/>
	<linearGradient id="SVGID_31_" gradientUnits="userSpaceOnUse" x1="93.7923" y1="10.4619" x2="93.7923" y2="18.515">
		<stop  offset="0" style="stop-color:#00268C"/>
		<stop  offset="0.3735" style="stop-color:#0089F5"/>
		<stop  offset="1" style="stop-color:#F862FF"/>
	</linearGradient>
	<linearGradient id="SVGID_32_" gradientUnits="userSpaceOnUse" x1="93.7923" y1="10.4697" x2="93.7923" y2="18.5097">
		<stop  offset="0" style="stop-color:#00268C"/>
		<stop  offset="0.3735" style="stop-color:#0089F5"/>
		<stop  offset="1" style="stop-color:#F862FF"/>
	</linearGradient>
	<path class="st15" d="M95.3,14.2c-0.2-0.9-1-1.4-1.9-1.3c-0.9,0.2-1.4,1-1.3,1.9c0,0.2,0.1,0.5,0.1,0.7c0,0.1,0,0.3,0,0.4
		c-0.1,0.9,0.6,1.6,1.4,1.7c0.1,0,0.1,0,0.2,0c0.8,0,1.5-0.6,1.6-1.4c0-0.2,0-0.5,0-0.7C95.4,15.1,95.4,14.6,95.3,14.2z"/>
	<linearGradient id="SVGID_33_" gradientUnits="userSpaceOnUse" x1="81.4661" y1="4.4128" x2="81.4661" y2="10.5213">
		<stop  offset="0" style="stop-color:#00268C"/>
		<stop  offset="0.3735" style="stop-color:#0089F5"/>
		<stop  offset="1" style="stop-color:#F862FF"/>
	</linearGradient>
	<linearGradient id="SVGID_34_" gradientUnits="userSpaceOnUse" x1="81.4661" y1="4.2155" x2="81.4661" y2="10.6543">
		<stop  offset="0" style="stop-color:#00268C"/>
		<stop  offset="0.3735" style="stop-color:#0089F5"/>
		<stop  offset="1" style="stop-color:#F862FF"/>
	</linearGradient>
	<path class="st16" d="M80.3,9.4l1.5,0.4c0.1,0,0.3,0.1,0.4,0.1c0.7,0,1.3-0.5,1.5-1.2C84,7.8,83.5,7,82.6,6.7l-1.5-0.4
		c-0.9-0.2-1.7,0.3-1.9,1.1C79,8.3,79.5,9.2,80.3,9.4z"/>
	<linearGradient id="SVGID_35_" gradientUnits="userSpaceOnUse" x1="88.9452" y1="6.4181" x2="88.9452" y2="12.5277">
		<stop  offset="0" style="stop-color:#00268C"/>
		<stop  offset="0.3735" style="stop-color:#0089F5"/>
		<stop  offset="1" style="stop-color:#F862FF"/>
	</linearGradient>
	<linearGradient id="SVGID_36_" gradientUnits="userSpaceOnUse" x1="88.9452" y1="6.221" x2="88.9452" y2="12.6605">
		<stop  offset="0" style="stop-color:#00268C"/>
		<stop  offset="0.3735" style="stop-color:#0089F5"/>
		<stop  offset="1" style="stop-color:#F862FF"/>
	</linearGradient>
	<path class="st17" d="M87.8,11.4l1.5,0.4c0.1,0,0.3,0.1,0.4,0.1c0.7,0,1.3-0.5,1.5-1.2c0.2-0.8-0.3-1.7-1.1-1.9l-1.5-0.4
		c-0.8-0.2-1.7,0.3-1.9,1.1C86.4,10.3,86.9,11.2,87.8,11.4z"/>
	<linearGradient id="SVGID_37_" gradientUnits="userSpaceOnUse" x1="88.0752" y1="32.978" x2="88.0752" y2="40.955">
		<stop  offset="0" style="stop-color:#00268C"/>
		<stop  offset="0.3735" style="stop-color:#0089F5"/>
		<stop  offset="1" style="stop-color:#F862FF"/>
	</linearGradient>
	<linearGradient id="SVGID_38_" gradientUnits="userSpaceOnUse" x1="88.0752" y1="32.9779" x2="88.0752" y2="40.9551">
		<stop  offset="0" style="stop-color:#00268C"/>
		<stop  offset="0.3735" style="stop-color:#0089F5"/>
		<stop  offset="1" style="stop-color:#F862FF"/>
	</linearGradient>
	<path class="st18" d="M88.7,35.5c-0.8-0.2-1.7,0.3-1.9,1.1l-0.4,1.5c-0.2,0.8,0.3,1.7,1.1,1.9c0.1,0,0.3,0.1,0.4,0.1
		c0.7,0,1.3-0.5,1.5-1.2l0.4-1.5C90,36.6,89.5,35.7,88.7,35.5z"/>
	<linearGradient id="SVGID_39_" gradientUnits="userSpaceOnUse" x1="49.5005" y1="-47.6056" x2="49.5005" y2="114.9336">
		<stop  offset="0" style="stop-color:#00268C"/>
		<stop  offset="0.3735" style="stop-color:#0089F5"/>
		<stop  offset="1" style="stop-color:#F862FF"/>
	</linearGradient>
	<linearGradient id="SVGID_40_" gradientUnits="userSpaceOnUse" x1="49.5005" y1="-31.3002" x2="49.5005" y2="103.9451">
		<stop  offset="0" style="stop-color:#00268C"/>
		<stop  offset="0.3735" style="stop-color:#0089F5"/>
		<stop  offset="1" style="stop-color:#F862FF"/>
	</linearGradient>
	<path class="st19" d="M78.7,72.9c-0.8-0.2-1.7,0.3-1.9,1.1l-0.3,1.1v-0.3c0,0,0,0,0-0.1v-6c0,0,0,0,0-0.1v-1.5c0,0,0,0,0-0.1v-6
		c0,0,0,0,0-0.1v-1.5c0,0,0,0,0-0.1v-6c0,0,0,0,0-0.1v-1.5c0,0,0,0,0-0.1v-6c0,0,0,0,0-0.1v-1.5c0,0,0,0,0-0.1v-6c0,0,0,0,0-0.1
		v-1.6c0,0,0,0,0-0.1v-6c0,0,0,0,0-0.1v-1.6c0,0,0,0,0-0.1v-6c0,0,0,0,0-0.1v-1.6c0,0,0,0,0-0.1v-6c0,0,0,0,0-0.1v-1.6
		c0,0,0,0,0-0.1V9c0-3.8-3.1-7-7-7H29.6c-3.8,0-7,3.1-7,7v3.9v0v1.5v0v6.2v0v1.5v0v6.2v0v1.5v0v6.2v0v1.6v0v6.2v0v1.6v0v6.2v0v1.6v0
		v6.2v0v1.6v0v6.2v0v1.5v0v6.2v0v0.3L22.3,74c-0.2-0.8-1.1-1.4-1.9-1.1c-0.8,0.2-1.3,1.1-1.1,1.9l0.4,1.5c0.2,0.8,1.1,1.4,1.9,1.1
		c0.5-0.1,0.8-0.5,1-0.9v3.8c-0.1,0-0.2,0-0.2,0c-0.8,0.2-1.3,1.1-1.1,1.9l0.4,1.5c0.1,0.5,0.5,0.9,1,1.1V90c0,3.8,3.1,7,7,7h39.9
		c3.8,0,7-3.1,7-7v-5.2c0.5-0.2,0.8-0.5,1-1.1l0.4-1.5c0.2-0.8-0.3-1.7-1.1-1.9c-0.1,0-0.2,0-0.3,0v-3.7c0,0,0,0,0,0
		c0.2,0.4,0.6,0.7,1,0.9c0.8,0.2,1.7-0.3,1.9-1.1l0.4-1.5C80,73.9,79.5,73.1,78.7,72.9z M25.7,9c0-2.1,1.7-3.8,3.8-3.8h39.9
		c2.1,0,3.8,1.7,3.8,3.8v2.5H25.7V9z M73.2,90c0,2.1-1.7,3.8-3.8,3.8H29.6c-2.1,0-3.8-1.7-3.8-3.8V78h47.5V90z M73.2,74.8H25.7V14.7
		h47.5V74.8z"/>
	<linearGradient id="SVGID_41_" gradientUnits="userSpaceOnUse" x1="82.0629" y1="55.4091" x2="82.0629" y2="63.3897">
		<stop  offset="0" style="stop-color:#00268C"/>
		<stop  offset="0.3735" style="stop-color:#0089F5"/>
		<stop  offset="1" style="stop-color:#F862FF"/>
	</linearGradient>
	<linearGradient id="SVGID_42_" gradientUnits="userSpaceOnUse" x1="82.0629" y1="55.4093" x2="82.0629" y2="63.3895">
		<stop  offset="0" style="stop-color:#00268C"/>
		<stop  offset="0.3735" style="stop-color:#0089F5"/>
		<stop  offset="1" style="stop-color:#F862FF"/>
	</linearGradient>
	<path class="st20" d="M82.7,57.9c-0.9-0.2-1.7,0.3-1.9,1.1l-0.4,1.5c-0.2,0.8,0.3,1.7,1.1,1.9c0.1,0,0.3,0.1,0.4,0.1
		c0.7,0,1.3-0.5,1.5-1.2l0.4-1.5C84,59,83.5,58.1,82.7,57.9z"/>
	<linearGradient id="SVGID_43_" gradientUnits="userSpaceOnUse" x1="80.0608" y1="62.8861" x2="80.0608" y2="70.866">
		<stop  offset="0" style="stop-color:#00268C"/>
		<stop  offset="0.3735" style="stop-color:#0089F5"/>
		<stop  offset="1" style="stop-color:#F862FF"/>
	</linearGradient>
	<linearGradient id="SVGID_44_" gradientUnits="userSpaceOnUse" x1="80.0608" y1="62.8862" x2="80.0608" y2="70.8659">
		<stop  offset="0" style="stop-color:#00268C"/>
		<stop  offset="0.3735" style="stop-color:#0089F5"/>
		<stop  offset="1" style="stop-color:#F862FF"/>
	</linearGradient>
	<path class="st21" d="M80.7,65.4c-0.9-0.2-1.7,0.3-1.9,1.1L78.3,68c-0.2,0.8,0.3,1.7,1.1,1.9c0.1,0,0.3,0.1,0.4,0.1
		c0.7,0,1.3-0.5,1.5-1.2l0.4-1.5C82,66.5,81.5,65.6,80.7,65.4z"/>
	<linearGradient id="SVGID_45_" gradientUnits="userSpaceOnUse" x1="84.068" y1="47.9278" x2="84.068" y2="55.912">
		<stop  offset="0" style="stop-color:#00268C"/>
		<stop  offset="0.3735" style="stop-color:#0089F5"/>
		<stop  offset="1" style="stop-color:#F862FF"/>
	</linearGradient>
	<linearGradient id="SVGID_46_" gradientUnits="userSpaceOnUse" x1="84.068" y1="47.9284" x2="84.068" y2="55.9116">
		<stop  offset="0" style="stop-color:#00268C"/>
		<stop  offset="0.3735" style="stop-color:#0089F5"/>
		<stop  offset="1" style="stop-color:#F862FF"/>
	</linearGradient>
	<path class="st22" d="M84.7,50.4c-0.8-0.2-1.7,0.3-1.9,1.1L82.3,53c-0.2,0.8,0.3,1.7,1.1,1.9c0.1,0,0.3,0.1,0.4,0.1
		c0.7,0,1.3-0.5,1.5-1.2l0.4-1.5C86,51.5,85.5,50.6,84.7,50.4z"/>
	<linearGradient id="SVGID_47_" gradientUnits="userSpaceOnUse" x1="86.0705" y1="40.4532" x2="86.0705" y2="48.4317">
		<stop  offset="0" style="stop-color:#00268C"/>
		<stop  offset="0.3735" style="stop-color:#0089F5"/>
		<stop  offset="1" style="stop-color:#F862FF"/>
	</linearGradient>
	<linearGradient id="SVGID_48_" gradientUnits="userSpaceOnUse" x1="86.0705" y1="40.4532" x2="86.0705" y2="48.4317">
		<stop  offset="0" style="stop-color:#00268C"/>
		<stop  offset="0.3735" style="stop-color:#0089F5"/>
		<stop  offset="1" style="stop-color:#F862FF"/>
	</linearGradient>
	<path class="st23" d="M86.7,42.9c-0.9-0.2-1.7,0.3-1.9,1.1l-0.4,1.5c-0.2,0.8,0.3,1.7,1.1,1.9c0.1,0,0.3,0.1,0.4,0.1
		c0.7,0,1.3-0.5,1.5-1.2l0.4-1.5C88,44,87.5,43.2,86.7,42.9z"/>
</g>
</svg>
