<?xml version="1.0" encoding="utf-8"?>
<!-- Generator: Adobe Illustrator 22.1.0, SVG Export Plug-In . SVG Version: 6.00 Build 0)  -->
<svg version="1.1" id="Layer_1" xmlns="http://www.w3.org/2000/svg" xmlns:xlink="http://www.w3.org/1999/xlink" x="0px" y="0px"
	 width="100px" height="100px" viewBox="0 0 100 100" style="enable-background:new 0 0 100 100;" xml:space="preserve">
<style type="text/css">
	.st0{fill:url(#SVGID_1_);}
	.st1{fill:url(#SVGID_2_);}
	.st2{fill:url(#SVGID_3_);}
	.st3{fill:url(#SVGID_4_);}
	.st4{fill:url(#SVGID_5_);}
	.st5{fill:url(#SVGID_6_);}
	.st6{fill:url(#SVGID_7_);}
	.st7{fill:url(#SVGID_8_);}
	.st8{fill:url(#SVGID_9_);}
	.st9{fill:url(#SVGID_10_);}
	.st10{fill:url(#SVGID_11_);}
	.st11{fill:url(#SVGID_12_);}
	.st12{fill:url(#SVGID_13_);}
	.st13{fill:url(#SVGID_14_);}
	.st14{fill:url(#SVGID_15_);}
	.st15{fill:url(#SVGID_16_);}
	.st16{fill:url(#SVGID_17_);}
	.st17{fill:url(#SVGID_18_);}
	.st18{fill:url(#SVGID_19_);}
	.st19{fill:url(#SVGID_20_);}
	.st20{fill:url(#SVGID_21_);}
	.st21{fill:url(#SVGID_22_);}
	.st22{fill:url(#SVGID_23_);}
	.st23{fill:url(#SVGID_24_);}
</style>
<linearGradient id="SVGID_1_" gradientUnits="userSpaceOnUse" x1="37.4069" y1="6.1402" x2="53.0745" y2="18.3207" gradientTransform="matrix(1 0 0 -1 0 102)">
	<stop  offset="0" style="stop-color:#000000"/>
	<stop  offset="1" style="stop-color:#0E43CB"/>
</linearGradient>
<path class="st0" d="M48.9,80.6c-3.5,0-6.3,2.8-6.3,6.3c0,3.5,2.8,6.3,6.3,6.3c3.5,0,6.3-2.8,6.3-6.3C55.2,83.4,52.4,80.6,48.9,80.6
	z M48.9,90.1c-1.7,0-3.2-1.4-3.2-3.2c0-1.7,1.4-3.2,3.2-3.2s3.2,1.4,3.2,3.2C52.1,88.7,50.7,90.1,48.9,90.1z"/>
<linearGradient id="SVGID_2_" gradientUnits="userSpaceOnUse" x1="45.1775" y1="87.6533" x2="48.1052" y2="94.4814" gradientTransform="matrix(1 0 0 -1 0 102)">
	<stop  offset="0" style="stop-color:#000000"/>
	<stop  offset="1" style="stop-color:#0E43CB"/>
</linearGradient>
<path class="st1" d="M44.2,10.9h6.3c0.9,0,1.6-0.7,1.6-1.6c0-0.9-0.7-1.6-1.6-1.6h-6.3c-0.9,0-1.6,0.7-1.6,1.6
	C42.6,10.2,43.3,10.9,44.2,10.9z"/>
<linearGradient id="SVGID_3_" gradientUnits="userSpaceOnUse" x1="53.1026" y1="89.2466" x2="57.097" y2="93.9047" gradientTransform="matrix(1 0 0 -1 0 102)">
	<stop  offset="0" style="stop-color:#000000"/>
	<stop  offset="1" style="stop-color:#0E43CB"/>
</linearGradient>
<path class="st2" d="M55.2,10.9h1.6c0.9,0,1.6-0.7,1.6-1.6c0-0.9-0.7-1.6-1.6-1.6h-1.6c-0.9,0-1.6,0.7-1.6,1.6
	C53.7,10.2,54.4,10.9,55.2,10.9z"/>
<linearGradient id="SVGID_4_" gradientUnits="userSpaceOnUse" x1="4.079" y1="75.9281" x2="9.3091" y2="79.0396" gradientTransform="matrix(1 0 0 -1 0 102)">
	<stop  offset="0" style="stop-color:#000000"/>
	<stop  offset="1" style="stop-color:#0E43CB"/>
</linearGradient>
<path class="st3" d="M9.6,24.1l-0.4-1.5c-0.2-0.8-1.1-1.3-1.9-1.1c-0.8,0.2-1.3,1.1-1.1,1.9l0.4,1.5c0.2,0.7,0.8,1.2,1.5,1.2
	c0.1,0,0.3,0,0.4-0.1C9.4,25.8,9.9,25,9.6,24.1z"/>
<linearGradient id="SVGID_5_" gradientUnits="userSpaceOnUse" x1="2.5264" y1="83.739" x2="7.5427" y2="86.441" gradientTransform="matrix(1 0 0 -1 0 102)">
	<stop  offset="0" style="stop-color:#000000"/>
	<stop  offset="1" style="stop-color:#0E43CB"/>
</linearGradient>
<path class="st4" d="M6.3,18.6c0.9-0.1,1.5-0.9,1.4-1.7c0-0.1,0-0.3,0-0.4c0-0.2,0-0.5,0.1-0.7c0.2-0.9-0.4-1.7-1.3-1.9
	c-0.9-0.2-1.7,0.4-1.9,1.3c-0.1,0.4-0.1,0.9-0.1,1.3c0,0.2,0,0.5,0,0.7c0.1,0.8,0.8,1.4,1.6,1.4C6.2,18.6,6.3,18.6,6.3,18.6z"/>
<linearGradient id="SVGID_6_" gradientUnits="userSpaceOnUse" x1="8.0838" y1="60.9728" x2="13.316" y2="64.0843" gradientTransform="matrix(1 0 0 -1 0 102)">
	<stop  offset="0" style="stop-color:#000000"/>
	<stop  offset="1" style="stop-color:#0E43CB"/>
</linearGradient>
<path class="st5" d="M13.7,39.1l-0.4-1.5c-0.2-0.8-1.1-1.4-1.9-1.1c-0.8,0.2-1.3,1.1-1.1,1.9l0.4,1.5c0.2,0.7,0.8,1.2,1.5,1.2
	c0.1,0,0.3,0,0.4-0.1C13.4,40.8,13.9,39.9,13.7,39.1z"/>
<linearGradient id="SVGID_7_" gradientUnits="userSpaceOnUse" x1="16.1009" y1="31.0597" x2="21.3318" y2="34.171" gradientTransform="matrix(1 0 0 -1 0 102)">
	<stop  offset="0" style="stop-color:#000000"/>
	<stop  offset="1" style="stop-color:#0E43CB"/>
</linearGradient>
<path class="st6" d="M21.7,69l-0.4-1.5c-0.2-0.8-1.1-1.4-1.9-1.1c-0.8,0.2-1.3,1.1-1.1,1.9l0.4,1.5c0.2,0.7,0.8,1.2,1.5,1.2
	c0.1,0,0.3,0,0.4-0.1C21.4,70.7,21.9,69.8,21.7,69z"/>
<linearGradient id="SVGID_8_" gradientUnits="userSpaceOnUse" x1="6.0817" y1="68.4516" x2="11.3126" y2="71.5629" gradientTransform="matrix(1 0 0 -1 0 102)">
	<stop  offset="0" style="stop-color:#000000"/>
	<stop  offset="1" style="stop-color:#0E43CB"/>
</linearGradient>
<path class="st7" d="M11.7,31.6l-0.4-1.5c-0.2-0.8-1.1-1.4-1.9-1.1c-0.8,0.2-1.3,1.1-1.1,1.9l0.4,1.5c0.2,0.7,0.8,1.2,1.5,1.2
	c0.1,0,0.3,0,0.4-0.1C11.4,33.3,11.9,32.4,11.7,31.6z"/>
<linearGradient id="SVGID_9_" gradientUnits="userSpaceOnUse" x1="7.7101" y1="87.5341" x2="12.2674" y2="92.1614" gradientTransform="matrix(1 0 0 -1 0 102)">
	<stop  offset="0" style="stop-color:#000000"/>
	<stop  offset="1" style="stop-color:#0E43CB"/>
</linearGradient>
<path class="st8" d="M10.3,12.9c0.1,0,0.3,0,0.4-0.1l1.5-0.4c0.8-0.2,1.3-1.1,1.1-1.9c-0.2-0.8-1.1-1.4-1.9-1.1L9.9,9.7
	c-0.8,0.2-1.3,1.1-1.1,1.9C9,12.4,9.6,12.9,10.3,12.9z"/>
<linearGradient id="SVGID_10_" gradientUnits="userSpaceOnUse" x1="15.189" y1="89.5421" x2="19.745" y2="94.1662" gradientTransform="matrix(1 0 0 -1 0 102)">
	<stop  offset="0" style="stop-color:#000000"/>
	<stop  offset="1" style="stop-color:#0E43CB"/>
</linearGradient>
<path class="st9" d="M17.8,10.8c0.1,0,0.3,0,0.4-0.1l1.5-0.4c0.8-0.2,1.3-1.1,1.1-1.9c-0.2-0.8-1.1-1.4-1.9-1.1l-1.5,0.4
	C16.5,8,16,8.8,16.3,9.7C16.4,10.4,17.1,10.8,17.8,10.8z"/>
<linearGradient id="SVGID_11_" gradientUnits="userSpaceOnUse" x1="14.0959" y1="38.5387" x2="19.3267" y2="41.6501" gradientTransform="matrix(1 0 0 -1 0 102)">
	<stop  offset="0" style="stop-color:#000000"/>
	<stop  offset="1" style="stop-color:#0E43CB"/>
</linearGradient>
<path class="st10" d="M19.7,61.5L19.3,60c-0.2-0.8-1.1-1.3-1.9-1.1c-0.8,0.2-1.3,1.1-1.1,1.9l0.4,1.5c0.2,0.7,0.8,1.2,1.5,1.2
	c0.1,0,0.3,0,0.4-0.1C19.4,63.2,19.9,62.4,19.7,61.5z"/>
<linearGradient id="SVGID_12_" gradientUnits="userSpaceOnUse" x1="10.0892" y1="53.4941" x2="15.3193" y2="56.6056" gradientTransform="matrix(1 0 0 -1 0 102)">
	<stop  offset="0" style="stop-color:#000000"/>
	<stop  offset="1" style="stop-color:#0E43CB"/>
</linearGradient>
<path class="st11" d="M15.7,46.6l-0.4-1.5c-0.2-0.8-1.1-1.3-1.9-1.1c-0.8,0.2-1.3,1.1-1.1,1.9l0.4,1.5c0.2,0.7,0.8,1.2,1.5,1.2
	c0.1,0,0.3,0,0.4-0.1C15.4,48.3,15.9,47.4,15.7,46.6z"/>
<linearGradient id="SVGID_13_" gradientUnits="userSpaceOnUse" x1="12.0934" y1="46.0181" x2="17.3245" y2="49.1291" gradientTransform="matrix(1 0 0 -1 0 102)">
	<stop  offset="0" style="stop-color:#000000"/>
	<stop  offset="1" style="stop-color:#0E43CB"/>
</linearGradient>
<path class="st12" d="M17.7,54l-0.4-1.5c-0.2-0.8-1.1-1.4-1.9-1.1c-0.8,0.2-1.3,1.1-1.1,1.9l0.4,1.5c0.2,0.7,0.8,1.2,1.5,1.2
	c0.1,0,0.3,0,0.4-0.1C17.4,55.7,17.9,54.9,17.7,54z"/>
<linearGradient id="SVGID_14_" gradientUnits="userSpaceOnUse" x1="87.2397" y1="68.4517" x2="92.4699" y2="71.5625" gradientTransform="matrix(1 0 0 -1 0 102)">
	<stop  offset="0" style="stop-color:#000000"/>
	<stop  offset="1" style="stop-color:#0E43CB"/>
</linearGradient>
<path class="st13" d="M91.7,29c-0.8-0.2-1.7,0.3-1.9,1.1l-0.4,1.5c-0.2,0.8,0.3,1.7,1.1,1.9c0.1,0,0.3,0.1,0.4,0.1
	c0.7,0,1.3-0.5,1.5-1.2l0.4-1.5C93,30.1,92.5,29.2,91.7,29z"/>
<linearGradient id="SVGID_15_" gradientUnits="userSpaceOnUse" x1="89.241" y1="75.9315" x2="94.4708" y2="79.0418" gradientTransform="matrix(1 0 0 -1 0 102)">
	<stop  offset="0" style="stop-color:#000000"/>
	<stop  offset="1" style="stop-color:#0E43CB"/>
</linearGradient>
<path class="st14" d="M93.7,21.5c-0.9-0.2-1.7,0.3-1.9,1.1l-0.4,1.5c-0.2,0.8,0.3,1.7,1.1,1.9c0.1,0,0.3,0.1,0.4,0.1
	c0.7,0,1.3-0.5,1.5-1.2l0.4-1.5C95,22.6,94.5,21.7,93.7,21.5z"/>
<linearGradient id="SVGID_16_" gradientUnits="userSpaceOnUse" x1="91.1056" y1="83.7491" x2="96.1222" y2="86.4521" gradientTransform="matrix(1 0 0 -1 0 102)">
	<stop  offset="0" style="stop-color:#000000"/>
	<stop  offset="1" style="stop-color:#0E43CB"/>
</linearGradient>
<path class="st15" d="M96.3,15.2c-0.2-0.9-1-1.4-1.9-1.3c-0.9,0.2-1.4,1-1.3,1.9c0,0.2,0.1,0.5,0.1,0.7c0,0.1,0,0.3,0,0.4
	c-0.1,0.9,0.6,1.6,1.4,1.7c0.1,0,0.1,0,0.2,0c0.8,0,1.5-0.6,1.6-1.4c0-0.2,0-0.5,0-0.7C96.4,16.1,96.4,15.6,96.3,15.2z"/>
<linearGradient id="SVGID_17_" gradientUnits="userSpaceOnUse" x1="79.1209" y1="89.5422" x2="83.6768" y2="94.1672" gradientTransform="matrix(1 0 0 -1 0 102)">
	<stop  offset="0" style="stop-color:#000000"/>
	<stop  offset="1" style="stop-color:#0E43CB"/>
</linearGradient>
<path class="st16" d="M81.3,10.4l1.5,0.4c0.1,0,0.3,0.1,0.4,0.1c0.7,0,1.3-0.5,1.5-1.2C85,8.8,84.5,8,83.6,7.7l-1.5-0.4
	c-0.9-0.2-1.7,0.3-1.9,1.1C80,9.3,80.5,10.2,81.3,10.4z"/>
<linearGradient id="SVGID_18_" gradientUnits="userSpaceOnUse" x1="86.5998" y1="87.535" x2="91.1563" y2="92.1617" gradientTransform="matrix(1 0 0 -1 0 102)">
	<stop  offset="0" style="stop-color:#000000"/>
	<stop  offset="1" style="stop-color:#0E43CB"/>
</linearGradient>
<path class="st17" d="M88.8,12.4l1.5,0.4c0.1,0,0.3,0.1,0.4,0.1c0.7,0,1.3-0.5,1.5-1.2c0.2-0.8-0.3-1.7-1.1-1.9l-1.5-0.4
	c-0.8-0.2-1.7,0.3-1.9,1.1C87.4,11.3,87.9,12.2,88.8,12.4z"/>
<linearGradient id="SVGID_19_" gradientUnits="userSpaceOnUse" x1="85.2357" y1="60.9716" x2="90.4652" y2="64.0836" gradientTransform="matrix(1 0 0 -1 0 102)">
	<stop  offset="0" style="stop-color:#000000"/>
	<stop  offset="1" style="stop-color:#0E43CB"/>
</linearGradient>
<path class="st18" d="M89.7,36.5c-0.8-0.2-1.7,0.3-1.9,1.1l-0.4,1.5c-0.2,0.8,0.3,1.7,1.1,1.9c0.1,0,0.3,0.1,0.4,0.1
	c0.7,0,1.3-0.5,1.5-1.2l0.4-1.5C91,37.6,90.5,36.7,89.7,36.5z"/>
<linearGradient id="SVGID_20_" gradientUnits="userSpaceOnUse" x1="-20.4227" y1="16.2874" x2="76.1715" y2="64.2569" gradientTransform="matrix(1 0 0 -1 0 102)">
	<stop  offset="0" style="stop-color:#000000"/>
	<stop  offset="1" style="stop-color:#0E43CB"/>
</linearGradient>
<path class="st19" d="M79.7,73.9c-0.8-0.2-1.7,0.3-1.9,1.1l-0.3,1.1v-0.3c0,0,0,0,0-0.1v-6c0,0,0,0,0-0.1v-1.5c0,0,0,0,0-0.1v-6
	c0,0,0,0,0-0.1v-1.5c0,0,0,0,0-0.1v-6c0,0,0,0,0-0.1v-1.5c0,0,0,0,0-0.1v-6c0,0,0,0,0-0.1v-1.5c0,0,0,0,0-0.1v-6c0,0,0,0,0-0.1v-1.6
	c0,0,0,0,0-0.1v-6c0,0,0,0,0-0.1v-1.6c0,0,0,0,0-0.1v-6c0,0,0,0,0-0.1v-1.6c0,0,0,0,0-0.1v-6c0,0,0,0,0-0.1v-1.6c0,0,0,0,0-0.1V10
	c0-3.8-3.1-7-7-7H30.6c-3.8,0-7,3.1-7,7v3.9v0v1.5v0v6.2v0v1.5v0v6.2v0v1.5v0v6.2v0v1.6v0v6.2v0v1.6v0v6.2v0v1.6v0v6.2v0v1.6v0v6.2
	v0v1.5v0v6.2v0v0.3L23.3,75c-0.2-0.8-1.1-1.4-1.9-1.1c-0.8,0.2-1.3,1.1-1.1,1.9l0.4,1.5c0.2,0.8,1.1,1.4,1.9,1.1
	c0.5-0.1,0.8-0.5,1-0.9v3.8c-0.1,0-0.2,0-0.2,0c-0.8,0.2-1.3,1.1-1.1,1.9l0.4,1.5c0.1,0.5,0.5,0.9,1,1.1V91c0,3.8,3.1,7,7,7h39.9
	c3.8,0,7-3.1,7-7v-5.2c0.5-0.2,0.8-0.5,1-1.1l0.4-1.5c0.2-0.8-0.3-1.7-1.1-1.9c-0.1,0-0.2,0-0.3,0v-3.7c0,0,0,0,0,0
	c0.2,0.4,0.6,0.7,1,0.9c0.8,0.2,1.7-0.3,1.9-1.1l0.4-1.5C81,74.9,80.5,74.1,79.7,73.9z M26.7,15.7h47.5v60.2H26.7V15.7z M30.6,6.2
	h39.9c2.1,0,3.8,1.7,3.8,3.8v2.5H26.7V10C26.7,7.9,28.5,6.2,30.6,6.2z M70.4,94.8H30.6c-2.1,0-3.8-1.7-3.8-3.8V79h47.5v12
	C74.2,93.1,72.5,94.8,70.4,94.8z"/>
<linearGradient id="SVGID_21_" gradientUnits="userSpaceOnUse" x1="79.2227" y1="38.5403" x2="84.4528" y2="41.6502" gradientTransform="matrix(1 0 0 -1 0 102)">
	<stop  offset="0" style="stop-color:#000000"/>
	<stop  offset="1" style="stop-color:#0E43CB"/>
</linearGradient>
<path class="st20" d="M83.7,58.9c-0.9-0.2-1.7,0.3-1.9,1.1l-0.4,1.5c-0.2,0.8,0.3,1.7,1.1,1.9c0.1,0,0.3,0.1,0.4,0.1
	c0.7,0,1.3-0.5,1.5-1.2l0.4-1.5C85,60,84.5,59.1,83.7,58.9z"/>
<linearGradient id="SVGID_22_" gradientUnits="userSpaceOnUse" x1="77.2201" y1="31.0625" x2="82.4507" y2="34.174" gradientTransform="matrix(1 0 0 -1 0 102)">
	<stop  offset="0" style="stop-color:#000000"/>
	<stop  offset="1" style="stop-color:#0E43CB"/>
</linearGradient>
<path class="st21" d="M81.7,66.4c-0.9-0.2-1.7,0.3-1.9,1.1L79.3,69c-0.2,0.8,0.3,1.7,1.1,1.9c0.1,0,0.3,0.1,0.4,0.1
	c0.7,0,1.3-0.5,1.5-1.2l0.4-1.5C83,67.5,82.5,66.6,81.7,66.4z"/>
<linearGradient id="SVGID_23_" gradientUnits="userSpaceOnUse" x1="81.2269" y1="46.0193" x2="86.4584" y2="49.1289" gradientTransform="matrix(1 0 0 -1 0 102)">
	<stop  offset="0" style="stop-color:#000000"/>
	<stop  offset="1" style="stop-color:#0E43CB"/>
</linearGradient>
<path class="st22" d="M85.7,51.4c-0.8-0.2-1.7,0.3-1.9,1.1L83.3,54c-0.2,0.8,0.3,1.7,1.1,1.9c0.1,0,0.3,0.1,0.4,0.1
	c0.7,0,1.3-0.5,1.5-1.2l0.4-1.5C87,52.5,86.5,51.6,85.7,51.4z"/>
<linearGradient id="SVGID_24_" gradientUnits="userSpaceOnUse" x1="83.231" y1="53.4969" x2="88.4604" y2="56.6073" gradientTransform="matrix(1 0 0 -1 0 102)">
	<stop  offset="0" style="stop-color:#000000"/>
	<stop  offset="1" style="stop-color:#0E43CB"/>
</linearGradient>
<path class="st23" d="M87.7,43.9c-0.9-0.2-1.7,0.3-1.9,1.1l-0.4,1.5c-0.2,0.8,0.3,1.7,1.1,1.9c0.1,0,0.3,0.1,0.4,0.1
	c0.7,0,1.3-0.5,1.5-1.2l0.4-1.5C89,45,88.5,44.2,87.7,43.9z"/>
</svg>
