<?xml version="1.0" encoding="utf-8"?>
<!-- Generator: Adobe Illustrator 19.2.0, SVG Export Plug-In . SVG Version: 6.00 Build 0)  -->
<svg version="1.1" id="Layer_1" xmlns="http://www.w3.org/2000/svg" xmlns:xlink="http://www.w3.org/1999/xlink" x="0px" y="0px"
	 width="65px" height="74px" viewBox="0 0 65 74" style="enable-background:new 0 0 65 74;" xml:space="preserve">
<style type="text/css">
	.st0{fill:url(#SVGID_1_);}
	.st1{fill:url(#SVGID_2_);}
</style>
<g>
	<linearGradient id="SVGID_1_" gradientUnits="userSpaceOnUse" x1="26.6286" y1="61.8793" x2="44.8204" y2="3.3222">
		<stop  offset="0" style="stop-color:#00B6FB"/>
		<stop  offset="1" style="stop-color:#4FB646"/>
	</linearGradient>
	<path class="st0" d="M62.2,65.8L47.7,46.7c4.7-5,7.6-11.7,7.6-19.1C55.3,12.4,42.9,0,27.7,0S0,12.4,0,27.7s12.4,27.7,27.7,27.7
		c5,0,9.7-1.3,13.7-3.7l14.5,19c0.6,0.9,1.6,1.4,2.6,1.5c0.2,0,0.4,0,0.5,0c0.9,0,1.7-0.3,2.4-0.8c0.9-0.6,1.4-1.6,1.5-2.6
		S62.9,66.7,62.2,65.8z M3,27.7C3,14.1,14.1,3,27.7,3s24.7,11.1,24.7,24.7S41.2,52.3,27.7,52.3S3,41.2,3,27.7z M61,68.5
		c-0.1,0.5-0.3,1-0.8,1.3c-0.4,0.3-0.9,0.5-1.5,0.4c-0.5-0.1-1-0.3-1.3-0.8L43.1,50.6c1.1-0.7,2.2-1.6,3.1-2.5L60.6,67
		C60.9,67.5,61.1,68,61,68.5z"/>
	<linearGradient id="SVGID_2_" gradientUnits="userSpaceOnUse" x1="21.2172" y1="47.7236" x2="34.0196" y2="6.5143">
		<stop  offset="0" style="stop-color:#00B6FB"/>
		<stop  offset="1" style="stop-color:#4FB646"/>
	</linearGradient>
	<path class="st1" d="M27.5,6C15.6,6,6,15.6,6,27.5C6,39.4,15.6,49,27.5,49C39.4,49,49,39.4,49,27.5C49,15.6,39.4,6,27.5,6z
		 M27.5,46C17.3,46,9,37.7,9,27.5S17.3,9,27.5,9S46,17.3,46,27.5S37.7,46,27.5,46z"/>
</g>
</svg>
