<svg width="70" height="70" viewBox="0 0 70 70" fill="none" xmlns="http://www.w3.org/2000/svg">
<path fill-rule="evenodd" clip-rule="evenodd" d="M29.2736 51.6943C17.2945 51.6943 7.5835 41.8384 7.5835 29.6805C7.5835 17.5227 17.2945 7.66675 29.2736 7.66675C41.2527 7.66675 50.9636 17.5227 50.9636 29.6805C50.9636 35.1499 48.9983 40.1535 45.7454 44.0034L63.4168 61.9386L61.0573 64.3334L43.3858 46.3982C39.5925 49.6997 34.6625 51.6943 29.2736 51.6943ZM29.2735 48.3076C39.4097 48.3076 47.6267 39.968 47.6267 29.6805C47.6267 19.3931 39.4097 11.0535 29.2735 11.0535C19.1374 11.0535 10.9204 19.3931 10.9204 29.6805C10.9204 39.968 19.1374 48.3076 29.2735 48.3076Z" fill="url(#paint0_linear)"/>
<defs>
<linearGradient id="paint0_linear" x1="0.543975" y1="36.1407" x2="36.1586" y2="71.2315" gradientUnits="userSpaceOnUse">
<stop stop-color="#20D0EE"/>
<stop offset="0.981733" stop-color="#15E186"/>
</linearGradient>
</defs>
</svg>
