<?xml version="1.0" encoding="utf-8"?>
<!-- Generator: Adobe Illustrator 22.1.0, SVG Export Plug-In . SVG Version: 6.00 Build 0)  -->
<svg version="1.1" id="Layer_1" xmlns="http://www.w3.org/2000/svg" xmlns:xlink="http://www.w3.org/1999/xlink" x="0px" y="0px"
	 width="100px" height="100px" viewBox="0 0 100 100" style="enable-background:new 0 0 100 100;" xml:space="preserve">
<style type="text/css">
	.st0{fill:none;stroke:#4FB646;}
	.st1{fill:#4FB646;}
</style>
<circle id="Oval-5-Copy-3" class="st0" cx="50" cy="50" r="49"/>
<path id="Shape" class="st1" d="M50.8,22.8c-7.2,0-13,5.8-13,13v4.3h-0.2c-3.2,0-5.8,2.6-5.8,5.8v20.4c0,3.2,2.6,5.8,5.8,5.8H64
	c3.2,0,5.8-2.6,5.8-5.8V46c0-3.2-2.6-5.8-5.8-5.8h-0.2v-4.4C63.7,28.6,57.9,22.8,50.8,22.8z M39.6,35.8c0-6.2,5-11.1,11.1-11.1
	s11.1,5,11.1,11.1v4.3H39.6V35.8z M67.9,46v20.4c0,2.2-1.8,4-4,4H37.6c-2.2,0-4-1.8-4-4V46c0-2.2,1.8-4,4-4H64
	C66.2,42,67.9,43.8,67.9,46z"/>
<path id="Shape_1_" class="st1" d="M50.8,50.9c-2,0-3.7,1.5-3.9,3.5c-0.2,2,1,3.8,3,4.3v6.5c0,0.5,0.4,0.9,0.9,0.9
	c0.5,0,0.9-0.4,0.9-0.9v-6.5c1.9-0.5,3.2-2.3,3-4.3C54.4,52.4,52.8,50.9,50.8,50.9z M50.8,56.9c-1.2,0-2.1-0.9-2.1-2.1
	c0-1.2,0.9-2.1,2.1-2.1c1.2,0,2.1,0.9,2.1,2.1C52.9,56,51.9,56.9,50.8,56.9z"/>
</svg>
