<?xml version="1.0" encoding="utf-8"?>
<!-- Generator: Adobe Illustrator 19.2.0, SVG Export Plug-In . SVG Version: 6.00 Build 0)  -->
<svg version="1.1" id="Layer_1" xmlns="http://www.w3.org/2000/svg" xmlns:xlink="http://www.w3.org/1999/xlink" x="0px" y="0px"
	 viewBox="0 0 95 95" style="enable-background:new 0 0 95 95;" xml:space="preserve">
<style type="text/css">
	.st0{fill:url(#SVGID_1_);}
	.st1{fill:url(#SVGID_2_);}
	.st2{fill:url(#SVGID_3_);}
	.st3{fill:url(#SVGID_4_);}
	.st4{fill:url(#SVGID_5_);}
	.st5{fill:url(#SVGID_6_);}
	.st6{fill:url(#SVGID_7_);}
	.st7{fill:url(#SVGID_8_);}
</style>
<g>
	<linearGradient id="SVGID_1_" gradientUnits="userSpaceOnUse" x1="5.5851" y1="18.5516" x2="88.6098" y2="75.9021">
		<stop  offset="0.1882" style="stop-color:#20D0EE"/>
		<stop  offset="0.8264" style="stop-color:#0AED88"/>
	</linearGradient>
	<path class="st0" d="M84.9,17.1c-24.9,0-49.9,0-74.8,0C6.8,17.1,5,19,5,22.3c0,16.8,0,33.6,0,50.5c0,3.3,1.8,5.1,5.1,5.1
		c12.5,0,24.9,0,37.4,0c12.5,0,24.9,0,37.4,0c3.4,0,5.2-1.8,5.2-5.2c0-16.8,0-33.6,0-50.5C90,19,88.2,17.1,84.9,17.1z M87,30.4
		c0,14.1,0,28.2,0,42.3c0,1.7-0.4,2.2-2.2,2.2c-24.9,0-49.8,0-74.6,0c-1.6,0-2.1-0.5-2.1-2.1c0-14.2,0-28.3,0-42.5
		c0-0.3,0-0.6,0-0.9c26.3,0,52.6,0,78.9,0C87,29.7,87,30,87,30.4z M87,26.2c-26.4,0-52.6,0-78.9,0c0-1.6-0.1-3.2,0-4.7
		c0.1-0.9,0.7-1.3,1.6-1.3c1,0,2,0,2.9,0c24.1,0,48.1,0,72.2,0c1.8,0,2.2,0.4,2.2,2.2C87,23.6,87,24.9,87,26.2z"/>
	<linearGradient id="SVGID_2_" gradientUnits="userSpaceOnUse" x1="12.1278" y1="9.08" x2="95.1278" y2="66.4133">
		<stop  offset="0.1882" style="stop-color:#20D0EE"/>
		<stop  offset="0.8264" style="stop-color:#0AED88"/>
	</linearGradient>
	<path class="st1" d="M64.7,60c3.5,1.8,7.2,1.8,10.8,0.1c0.3,0.4,0.5,0.7,0.7,1c1.2,1.8,2.3,3.6,3.5,5.4c0.5,0.8,1.4,0.9,2.1,0.5
		c0.7-0.5,0.9-1.3,0.5-2.1c-0.1-0.2-0.3-0.5-0.5-0.7c-1.2-1.9-2.4-3.8-3.7-5.7c5.5-5.1,5.2-12.4,1.6-16.9
		c-3.8-4.7-10.4-5.9-15.5-2.9c-5.2,3.1-7.4,9.4-5.2,15C60.1,56.4,61.9,58.6,64.7,60z M70.4,40.1c5,0.1,9,4.3,8.9,9.2
		c-0.1,5.1-4.2,9.1-9.4,9c-4.9-0.1-8.9-4.3-8.8-9.2C61.2,44,65.3,40,70.4,40.1z"/>
	<linearGradient id="SVGID_3_" gradientUnits="userSpaceOnUse" x1="0.6569" y1="25.6861" x2="83.6569" y2="83.0194">
		<stop  offset="0.1882" style="stop-color:#20D0EE"/>
		<stop  offset="0.8264" style="stop-color:#0AED88"/>
	</linearGradient>
	<path class="st2" d="M29.2,53.7c0.1,0.8,0.4,1.3,1.3,1.5c0.9,0.1,1.4-0.3,1.8-1c0.5-1,1-1.9,1.6-3.1c0.6,1.2,1.1,2.2,1.6,3.2
		c0.4,0.7,0.9,1.2,1.7,1.1c0.8-0.1,1.2-0.7,1.3-1.5c0.5-2.9,1-5.7,1.4-8.6c0.2-1.2-0.3-1.9-1.3-2.1c-0.9-0.1-1.6,0.4-1.8,1.5
		c-0.2,1.3-0.5,2.7-0.7,4.2c-0.4-0.7-0.5-1.3-0.9-1.7c-0.4-0.4-0.9-0.9-1.4-0.9c-0.5,0-1,0.5-1.4,0.9c-0.4,0.4-0.5,1-0.8,1.5
		c-0.4-1.3-0.6-2.6-0.8-3.9c-0.2-1.1-0.8-1.7-1.7-1.6c-1,0.1-1.5,0.9-1.3,2C28.2,48,28.7,50.8,29.2,53.7z"/>
	<linearGradient id="SVGID_4_" gradientUnits="userSpaceOnUse" x1="5.5465" y1="18.6075" x2="88.5465" y2="75.9409">
		<stop  offset="0.1882" style="stop-color:#20D0EE"/>
		<stop  offset="0.8264" style="stop-color:#0AED88"/>
	</linearGradient>
	<path class="st3" d="M44.4,53.9c0.1,0.7,0.6,1.1,1.3,1.2c0.7,0.1,1.3-0.2,1.7-0.8c0.4-0.7,0.7-1.5,1.1-2.2c0.2-0.3,0.3-0.6,0.6-1.1
		c0.6,1.2,1.1,2.2,1.6,3.2c0.3,0.7,0.9,1.1,1.7,1c0.8-0.1,1.2-0.7,1.3-1.4c0.1-1,0.3-1.9,0.5-2.9c0.3-2,0.7-3.9,1-5.9
		c0.2-1-0.3-1.7-1.2-1.9c-0.9-0.2-1.6,0.3-1.8,1.3c-0.1,0.3-0.1,0.6-0.1,0.8c-0.2,1.1-0.4,2.2-0.6,3.5c-0.3-0.7-0.6-1.1-0.8-1.6
		c-0.3-0.7-0.7-1.1-1.5-1.1c-0.8,0-1.2,0.5-1.5,1.1c-0.2,0.4-0.4,0.9-0.8,1.6c-0.3-1.7-0.5-3.1-0.7-4.5c-0.2-0.9-0.9-1.5-1.8-1.3
		c-0.8,0.1-1.4,0.8-1.2,1.7C43.4,47.8,43.9,50.9,44.4,53.9z"/>
	<linearGradient id="SVGID_5_" gradientUnits="userSpaceOnUse" x1="-4.2104" y1="32.7323" x2="78.7896" y2="90.0657">
		<stop  offset="0.1882" style="stop-color:#20D0EE"/>
		<stop  offset="0.8264" style="stop-color:#0AED88"/>
	</linearGradient>
	<path class="st4" d="M14.2,54c0.1,0.5,0.7,1,1.2,1.1c0.5,0.1,1.1-0.3,1.5-0.6c0.3-0.2,0.4-0.7,0.6-1.1c0.4-0.7,0.8-1.5,1.2-2.4
		c0.6,1.2,1.1,2.1,1.5,3.1c0.3,0.7,0.9,1.2,1.7,1.1c0.8-0.1,1.2-0.7,1.3-1.5c0.1-0.6,0.2-1.1,0.3-1.7c0.4-2.4,0.8-4.7,1.2-7.1
		c0.2-1-0.3-1.7-1.2-1.9c-0.9-0.2-1.6,0.3-1.8,1.2c-0.1,0.4-0.1,0.8-0.2,1.2c-0.2,1-0.3,2-0.6,3.2c-1.3-3.4-3.1-3.6-4.6-0.3
		c-0.2-1.3-0.4-2.7-0.7-4c-0.2-1-0.9-1.6-1.7-1.5c-0.9,0.1-1.5,0.8-1.3,1.9C13.1,47.9,13.6,51,14.2,54z"/>
	<linearGradient id="SVGID_6_" gradientUnits="userSpaceOnUse" x1="24.2989" y1="-8.5399" x2="107.2989" y2="48.7935">
		<stop  offset="0.1882" style="stop-color:#20D0EE"/>
		<stop  offset="0.8264" style="stop-color:#0AED88"/>
	</linearGradient>
	<path class="st5" d="M70.3,21.7c-0.9,0-1.6,0.7-1.6,1.5c0,0.8,0.7,1.5,1.5,1.5c0.8,0,1.5-0.7,1.5-1.5
		C71.8,22.4,71.1,21.7,70.3,21.7z"/>
	<linearGradient id="SVGID_7_" gradientUnits="userSpaceOnUse" x1="26.2599" y1="-11.3788" x2="109.2599" y2="45.9545">
		<stop  offset="0.1882" style="stop-color:#20D0EE"/>
		<stop  offset="0.8264" style="stop-color:#0AED88"/>
	</linearGradient>
	<path class="st6" d="M76.3,21.7c-0.8,0-1.5,0.8-1.4,1.6c0,0.8,0.7,1.5,1.5,1.5c0.8,0,1.5-0.7,1.5-1.5
		C77.9,22.4,77.1,21.7,76.3,21.7z"/>
	<linearGradient id="SVGID_8_" gradientUnits="userSpaceOnUse" x1="28.2211" y1="-14.2179" x2="111.2211" y2="43.1154">
		<stop  offset="0.1882" style="stop-color:#20D0EE"/>
		<stop  offset="0.8264" style="stop-color:#0AED88"/>
	</linearGradient>
	<path class="st7" d="M82.4,21.7c-0.8,0-1.5,0.7-1.5,1.5c0,0.8,0.7,1.5,1.5,1.5c0.8,0,1.5-0.7,1.5-1.5C84,22.4,83.2,21.7,82.4,21.7z
		"/>
</g>
</svg>
