<svg id="Слой_1" data-name="Слой 1" xmlns="http://www.w3.org/2000/svg" xmlns:xlink="http://www.w3.org/1999/xlink" viewBox="0 0 67.52 74"><defs><style>.cls-1,.cls-2,.cls-3,.cls-4,.cls-5,.cls-6{fill:none;stroke-width:3px;}.cls-1{stroke:url(#Безымянный_градиент_5);}.cls-2{stroke:url(#Безымянный_градиент_5-2);}.cls-3{stroke-linecap:square;stroke:url(#Безымянный_градиент_5-3);}.cls-4,.cls-5,.cls-6{stroke-linecap:round;}.cls-4{stroke:url(#Безымянный_градиент_5-4);}.cls-5{stroke:url(#Безымянный_градиент_5-5);}.cls-6{stroke:url(#Безымянный_градиент_5-6);}</style><linearGradient id="Безымянный_градиент_5" x1="15.5" y1="35.83" x2="39.35" y2="18.86" gradientTransform="matrix(1, 0, 0, -1, 0, 102)" gradientUnits="userSpaceOnUse"><stop offset="0" stop-color="#2ee5ff"/><stop offset="1" stop-color="#44d83d"/></linearGradient><linearGradient id="Безымянный_градиент_5-2" x1="55.64" y1="49.27" x2="79.49" y2="32.29" xlink:href="#Безымянный_градиент_5"/><linearGradient id="Безымянный_градиент_5-3" x1="58.43" y1="76.05" x2="60.13" y2="66.31" xlink:href="#Безымянный_градиент_5"/><linearGradient id="Безымянный_градиент_5-4" x1="59.39" y1="86.91" x2="59.4" y2="84.62" xlink:href="#Безымянный_градиент_5"/><linearGradient id="Безымянный_градиент_5-5" x1="39.33" y1="55.45" x2="39.4" y2="55.45" xlink:href="#Безымянный_градиент_5"/><linearGradient id="Безымянный_градиент_5-6" x1="77.97" y1="64.45" x2="80.97" y2="64.45" xlink:href="#Безымянный_градиент_5"/></defs><title>sound-icon</title><path class="cls-1" d="M27.19,86c6.73,0,12.19-5.15,12.19-11.51S33.92,63,27.19,63,15,68.13,15,74.49,20.46,86,27.19,86Z" transform="translate(-13.5 -13.5)"/><path class="cls-2" d="M67.33,72.57c6.73,0,12.19-5.16,12.19-11.52S74.06,49.54,67.33,49.54,55.15,54.7,55.15,61.05,60.6,72.57,67.33,72.57Z" transform="translate(-13.5 -13.5)"/><path class="cls-3" d="M39.76,33l39-4.58" transform="translate(-13.5 -13.5)"/><path class="cls-4" d="M39.33,19.58,79.48,15" transform="translate(-13.5 -13.5)"/><path class="cls-5" d="M39.38,73.53l-.05-53.95" transform="translate(-13.5 -13.5)"/><path class="cls-6" d="M79.47,60.09V15" transform="translate(-13.5 -13.5)"/></svg>