<?xml version="1.0" encoding="utf-8"?>
<!-- Generator: Adobe Illustrator 22.1.0, SVG Export Plug-In . SVG Version: 6.00 Build 0)  -->
<svg version="1.1" id="Layer_1" xmlns="http://www.w3.org/2000/svg" xmlns:xlink="http://www.w3.org/1999/xlink" x="0px" y="0px"
	 width="100px" height="100px" viewBox="0 0 100 100" style="enable-background:new 0 0 100 100;" xml:space="preserve">
<style type="text/css">
	.st0{fill:none;stroke:url(#SVGID_1_);stroke-width:3;}
	.st1{fill:none;stroke:url(#SVGID_2_);stroke-width:3;}
	.st2{fill:none;stroke:url(#SVGID_3_);stroke-width:3;stroke-linecap:square;}
	.st3{fill:none;stroke:url(#SVGID_4_);stroke-width:3;stroke-linecap:round;}
	.st4{fill:none;stroke:url(#SVGID_5_);stroke-width:3;stroke-linecap:round;}
	.st5{fill:none;stroke:url(#SVGID_6_);stroke-width:3;stroke-linecap:round;}
</style>
<linearGradient id="SVGID_1_" gradientUnits="userSpaceOnUse" x1="26.4906" y1="24.8167" x2="50.3406" y2="7.8467" gradientTransform="matrix(1 0 0 -1 -13.5 90.5)">
	<stop  offset="0" style="stop-color:#2EE5FF"/>
	<stop  offset="1" style="stop-color:#44D83D"/>
</linearGradient>
<path class="st0" d="M24.7,85.5c6.7,0,12.2-5.2,12.2-11.5s-5.5-11.5-12.2-11.5S12.5,67.6,12.5,74S18,85.5,24.7,85.5z"/>
<linearGradient id="SVGID_2_" gradientUnits="userSpaceOnUse" x1="66.6385" y1="38.2678" x2="90.4884" y2="21.2878" gradientTransform="matrix(1 0 0 -1 -13.5 90.5)">
	<stop  offset="0" style="stop-color:#2EE5FF"/>
	<stop  offset="1" style="stop-color:#44D83D"/>
</linearGradient>
<path class="st1" d="M64.8,72.1c6.7,0,12.2-5.2,12.2-11.5S71.6,49,64.8,49c-6.8,0-12.2,5.2-12.2,11.5S58.1,72.1,64.8,72.1z"/>
<linearGradient id="SVGID_3_" gradientUnits="userSpaceOnUse" x1="69.4697" y1="65.057" x2="71.1697" y2="55.317" gradientTransform="matrix(1 0 0 -1 -13.5 90.5)">
	<stop  offset="0" style="stop-color:#2EE5FF"/>
	<stop  offset="1" style="stop-color:#44D83D"/>
</linearGradient>
<path class="st2" d="M37.3,32.5l39-4.6"/>
<linearGradient id="SVGID_4_" gradientUnits="userSpaceOnUse" x1="70.3904" y1="75.91" x2="70.4004" y2="73.62" gradientTransform="matrix(1 0 0 -1 -13.5 90.5)">
	<stop  offset="0" style="stop-color:#2EE5FF"/>
	<stop  offset="1" style="stop-color:#44D83D"/>
</linearGradient>
<path class="st3" d="M36.8,19.1L77,14.5"/>
<linearGradient id="SVGID_5_" gradientUnits="userSpaceOnUse" x1="50.33" y1="44.5" x2="50.4" y2="44.5" gradientTransform="matrix(1 0 0 -1 -13.5 90.5)">
	<stop  offset="0" style="stop-color:#2EE5FF"/>
	<stop  offset="1" style="stop-color:#44D83D"/>
</linearGradient>
<path class="st4" d="M36.9,73V19"/>
<linearGradient id="SVGID_6_" gradientUnits="userSpaceOnUse" x1="88.97" y1="53.45" x2="91.97" y2="53.45" gradientTransform="matrix(1 0 0 -1 -13.5 90.5)">
	<stop  offset="0" style="stop-color:#2EE5FF"/>
	<stop  offset="1" style="stop-color:#44D83D"/>
</linearGradient>
<path class="st5" d="M77,59.6V14.5"/>
</svg>
