<?xml version="1.0" encoding="utf-8"?>
<!-- Generator: Adobe Illustrator 22.1.0, SVG Export Plug-In . SVG Version: 6.00 Build 0)  -->
<svg version="1.1" id="Layer_1" xmlns="http://www.w3.org/2000/svg" xmlns:xlink="http://www.w3.org/1999/xlink" x="0px" y="0px"
	 width="100px" height="100px" viewBox="0 0 100 100" style="enable-background:new 0 0 100 100;" xml:space="preserve">
<style type="text/css">
	.st0{fill:url(#SVGID_1_);stroke:url(#SVGID_2_);}
</style>
<linearGradient id="SVGID_1_" gradientUnits="userSpaceOnUse" x1="35.5203" y1="84.0964" x2="58.5078" y2="17.3974" gradientTransform="matrix(1 0 0 -1 0 102)">
	<stop  offset="0" style="stop-color:#00B6FB"/>
	<stop  offset="1" style="stop-color:#4FB646"/>
</linearGradient>
<linearGradient id="SVGID_2_" gradientUnits="userSpaceOnUse" x1="35.5203" y1="84.0964" x2="58.5078" y2="17.3974" gradientTransform="matrix(1 0 0 -1 0 102)">
	<stop  offset="0" style="stop-color:#00B6FB"/>
	<stop  offset="1" style="stop-color:#4FB646"/>
</linearGradient>
<path class="st0" d="M72.5,55.5l0.1,0.3l0.3,0c6.6,1,11.7,6.7,11.7,13.7c0,7.7-6.3,14-14,14c-6.5,0-12-4.4-13.5-10.5l-0.1-0.4h-0.4
	H24.6c-1.8,0-3.1-1.3-3.1-3.1v-7.2c0-9.3,6.4-17.2,15.1-19.3l0.9-0.2l-0.7-0.6c-3.5-3-5.6-7.5-5.6-12.3c0-9,7.4-16.4,16.4-16.4
	S64,20.9,64,29.9c0,4.8-2.1,9.2-5.6,12.3l-0.7,0.6l0.9,0.2C64.9,44.5,70.2,49.3,72.5,55.5z M56.1,71.2h0.7l-0.2-0.7
	c-0.1-0.3-0.1-0.7-0.1-1c0-7.6,6.1-13.9,13.6-14.1l0.7,0l-0.3-0.7c-2.6-6.1-8.3-10.3-15-11l0,0l-2-0.2l1.7-1l0,0
	c4.5-2.7,7.2-7.5,7.2-12.7c0-8.2-6.7-15-15-15c-8.2,0-15,6.7-15,15c0,5.2,2.8,10,7.2,12.8l0,0l0,0l1.7,1l-2,0.2h0
	c-9.6,1-16.6,8.9-16.6,18.5v7.2c0,0.5,0.2,0.9,0.5,1.2c0.3,0.3,0.8,0.5,1.2,0.5H56.1z M72.2,76.8v-5.5h5.5c0.5,0,0.9-0.2,1.2-0.5
	c0.3-0.3,0.5-0.8,0.5-1.2c0-0.5-0.2-0.9-0.5-1.2c-0.3-0.3-0.8-0.5-1.2-0.5h-5.5v-5.5c0-0.5-0.2-0.9-0.5-1.2
	c-0.3-0.3-0.8-0.5-1.2-0.5c-0.5,0-0.9,0.2-1.2,0.5c-0.3,0.3-0.5,0.8-0.5,1.2v5.5h-5.5c-0.5,0-0.9,0.2-1.2,0.5
	c-0.3,0.3-0.5,0.8-0.5,1.2c0,0.5,0.2,0.9,0.5,1.2c0.3,0.3,0.8,0.5,1.2,0.5h5.5v5.5c0,0.5,0.2,0.9,0.5,1.2c0.3,0.3,0.8,0.5,1.2,0.5
	c0.5,0,0.9-0.2,1.2-0.5C72.1,77.7,72.2,77.2,72.2,76.8z"/>
</svg>
