<?xml version="1.0" encoding="utf-8"?>
<!-- Generator: Adobe Illustrator 22.1.0, SVG Export Plug-In . SVG Version: 6.00 Build 0)  -->
<svg version="1.1" id="Layer_1" xmlns="http://www.w3.org/2000/svg" xmlns:xlink="http://www.w3.org/1999/xlink" x="0px" y="0px"
	 width="100px" height="100px" viewBox="0 0 100 100" style="enable-background:new 0 0 100 100;" xml:space="preserve">
<style type="text/css">
	.st0{fill:url(#SVGID_1_);stroke:url(#SVGID_2_);}
	.st1{fill:url(#SVGID_3_);stroke:url(#SVGID_4_);}
	.st2{fill:url(#SVGID_5_);stroke:url(#SVGID_6_);}
	.st3{fill:url(#SVGID_7_);stroke:url(#SVGID_8_);}
	.st4{fill:url(#SVGID_9_);stroke:url(#SVGID_10_);}
	.st5{fill:url(#SVGID_11_);stroke:url(#SVGID_12_);}
</style>
<linearGradient id="SVGID_1_" gradientUnits="userSpaceOnUse" x1="45.0653" y1="82.8879" x2="53.0829" y2="41.3438" gradientTransform="matrix(1 0 0 -1 0 102)">
	<stop  offset="0" style="stop-color:#00B6FB"/>
	<stop  offset="1" style="stop-color:#4FB646"/>
</linearGradient>
<linearGradient id="SVGID_2_" gradientUnits="userSpaceOnUse" x1="45.0653" y1="82.8879" x2="53.0829" y2="41.3438" gradientTransform="matrix(1 0 0 -1 0 102)">
	<stop  offset="0" style="stop-color:#00B6FB"/>
	<stop  offset="1" style="stop-color:#4FB646"/>
</linearGradient>
<path class="st0" d="M18.9,21.4h-0.5v0.5v35.1v0.5h0.5h60.3h0.5v-0.5V21.9v-0.5h-0.5H18.9z M16.5,20.5c0-0.5,0.4-1,0.9-1
	c0,0,0,0,0,0h63.1c0.5,0,0.9,0.4,0.9,1v38.1c0,0.5-0.4,1-0.9,1H17.4c-0.5,0-0.9-0.4-0.9-1V20.5C16.5,20.5,16.5,20.5,16.5,20.5z"/>
<linearGradient id="SVGID_3_" gradientUnits="userSpaceOnUse" x1="23.7532" y1="38.543" x2="36.4821" y2="22.1539" gradientTransform="matrix(1 0 0 -1 0 102)">
	<stop  offset="0" style="stop-color:#00B6FB"/>
	<stop  offset="1" style="stop-color:#4FB646"/>
</linearGradient>
<linearGradient id="SVGID_4_" gradientUnits="userSpaceOnUse" x1="23.7532" y1="38.543" x2="36.4821" y2="22.1539" gradientTransform="matrix(1 0 0 -1 0 102)">
	<stop  offset="0" style="stop-color:#00B6FB"/>
	<stop  offset="1" style="stop-color:#4FB646"/>
</linearGradient>
<path class="st1" d="M32.7,60.1L32.7,60.1L32.7,60.1c0.1-0.4,0.5-0.6,0.9-0.6c0.3,0,0.6,0.1,0.8,0.4c0.2,0.2,0.2,0.5,0.1,0.8h0l0,0
	l-7.1,22.2l0,0l0,0c-0.1,0.3-0.3,0.6-0.7,0.6c-0.3,0.1-0.7,0-0.9-0.3c-0.2-0.2-0.3-0.6-0.2-0.9l0,0l0,0L32.7,60.1z"/>
<linearGradient id="SVGID_5_" gradientUnits="userSpaceOnUse" x1="60.7528" y1="38.5427" x2="73.4817" y2="22.1536" gradientTransform="matrix(1 0 0 -1 0 102)">
	<stop  offset="0" style="stop-color:#00B6FB"/>
	<stop  offset="1" style="stop-color:#4FB646"/>
</linearGradient>
<linearGradient id="SVGID_6_" gradientUnits="userSpaceOnUse" x1="60.7528" y1="38.5427" x2="73.4817" y2="22.1536" gradientTransform="matrix(1 0 0 -1 0 102)">
	<stop  offset="0" style="stop-color:#00B6FB"/>
	<stop  offset="1" style="stop-color:#4FB646"/>
</linearGradient>
<path class="st2" d="M62.5,60.7L62.5,60.7L62.5,60.7c-0.1-0.3,0-0.6,0.1-0.8c0.2-0.2,0.4-0.4,0.7-0.4c0.4,0,0.8,0.3,0.9,0.6h0l0,0
	l7.1,22.2l0,0l0,0c0.1,0.3,0,0.6-0.2,0.9c-0.2,0.2-0.6,0.4-0.9,0.3c-0.3-0.1-0.6-0.3-0.7-0.6l0,0l0,0L62.5,60.7z"/>
<linearGradient id="SVGID_7_" gradientUnits="userSpaceOnUse" x1="47.7843" y1="84.8668" x2="51.2804" y2="80.044" gradientTransform="matrix(1 0 0 -1 0 102)">
	<stop  offset="0" style="stop-color:#00B6FB"/>
	<stop  offset="1" style="stop-color:#4FB646"/>
</linearGradient>
<linearGradient id="SVGID_8_" gradientUnits="userSpaceOnUse" x1="47.7843" y1="84.8668" x2="51.2804" y2="80.044" gradientTransform="matrix(1 0 0 -1 0 102)">
	<stop  offset="0" style="stop-color:#00B6FB"/>
	<stop  offset="1" style="stop-color:#4FB646"/>
</linearGradient>
<path class="st3" d="M49.5,16.5L49.5,16.5c0.3,0,0.5,0.1,0.7,0.3c0.2,0.2,0.3,0.4,0.3,0.6h0v0v4.2l0,0l0,0c0,0.3-0.2,0.6-0.5,0.8
	c-0.3,0.2-0.7,0.2-1,0c-0.3-0.2-0.5-0.5-0.5-0.8h0v0v-4.2h0l0,0c0-0.2,0.1-0.5,0.3-0.6C49,16.6,49.2,16.5,49.5,16.5z"/>
<linearGradient id="SVGID_9_" gradientUnits="userSpaceOnUse" x1="47.96" y1="38.0462" x2="48.0415" y2="34.8953" gradientTransform="matrix(1 0 0 -1 0 102)">
	<stop  offset="0" style="stop-color:#00B6FB"/>
	<stop  offset="1" style="stop-color:#4FB646"/>
</linearGradient>
<linearGradient id="SVGID_10_" gradientUnits="userSpaceOnUse" x1="47.96" y1="38.0462" x2="48.0415" y2="34.8953" gradientTransform="matrix(1 0 0 -1 0 102)">
	<stop  offset="0" style="stop-color:#00B6FB"/>
	<stop  offset="1" style="stop-color:#4FB646"/>
</linearGradient>
<path class="st4" d="M31.5,64.5L31.5,64.5L31.5,64.5l33.1,0l0,0c0.3,0,0.6,0.2,0.8,0.5c0.2,0.3,0.2,0.7,0,1
	c-0.2,0.3-0.5,0.5-0.8,0.5l0,0h0H31.5v0l0,0c-0.3,0-0.6-0.2-0.8-0.5c-0.2-0.3-0.2-0.7,0-1C30.8,64.7,31.1,64.5,31.5,64.5z"/>
<linearGradient id="SVGID_11_" gradientUnits="userSpaceOnUse" x1="68.9361" y1="50.0276" x2="69.0663" y2="47.9337" gradientTransform="matrix(1 0 0 -1 0 102)">
	<stop  offset="0" style="stop-color:#00B6FB"/>
	<stop  offset="1" style="stop-color:#4FB646"/>
</linearGradient>
<linearGradient id="SVGID_12_" gradientUnits="userSpaceOnUse" x1="68.9361" y1="50.0276" x2="69.0663" y2="47.9337" gradientTransform="matrix(1 0 0 -1 0 102)">
	<stop  offset="0" style="stop-color:#00B6FB"/>
	<stop  offset="1" style="stop-color:#4FB646"/>
</linearGradient>
<path class="st5" d="M65.4,52.5L65.4,52.5L65.4,52.5h7.1l0,0h0c0.4,0,0.7,0.2,0.9,0.3c0.1,0.1,0.1,0.1,0.1,0.2s0,0.1-0.1,0.2
	c-0.1,0.2-0.5,0.3-0.9,0.3l0,0h0h-7.1l0,0h0c-0.4,0-0.7-0.2-0.9-0.3c-0.1-0.1-0.1-0.1-0.1-0.2s0-0.1,0.1-0.2
	C64.7,52.7,65,52.5,65.4,52.5z"/>
</svg>
