<?xml version="1.0" encoding="UTF-8"?>
<svg width="450px" height="129px" viewBox="0 0 450 129" version="1.1" xmlns="http://www.w3.org/2000/svg" xmlns:xlink="http://www.w3.org/1999/xlink">
    <!-- Generator: Sketch 52.3 (67297) - http://www.bohemiancoding.com/sketch -->
    <title>tab-switch</title>
    <desc>Created with Sketch.</desc>
    <defs>
        <polygon id="path-1" points="0.765778689 0.19067623 8.62090164 0.19067623 8.62090164 8.04518443 0.765778689 8.04518443"></polygon>
        <polygon id="path-3" points="0 0.9032 44.4826 0.9032 44.4826 60.1622 0 60.1622"></polygon>
        <polygon id="path-5" points="0.6303 0.7027 7.252 0.7027 7.252 7.3247 0.6303 7.3247"></polygon>
    </defs>
    <g id="Page-1" stroke="none" stroke-width="1" fill="none" fill-rule="evenodd">
        <g id="tab-switch">
            <g id="Group-17-Copy">
                <g id="Group-50" transform="translate(0.000000, 38.000000)">
                    <rect id="Rectangle-15-Copy-2" stroke="#77C54F" fill="#FFFFFF" x="0.5" y="0.5" width="449" height="59" rx="8"></rect>
                    <rect id="Rectangle-15-Copy-6" fill="#77C54F" opacity="0" x="0" y="0" width="225" height="60" rx="8"></rect>
                    <rect id="Rectangle-15-Copy-5" stroke="#77C54F" fill="#77C54F" x="0.5" y="0.5" width="224" height="59" rx="8"></rect>
                    <path d="M98.2744141,37 L95.59375,37 L95.59375,24.1503906 L102.958984,24.1503906 L102.958984,26.3828125 L98.2744141,26.3828125 L98.2744141,29.6962891 L102.633789,29.6962891 L102.633789,31.9199219 L98.2744141,31.9199219 L98.2744141,37 Z M107.397461,32.0693359 C107.397461,33.0419971 107.557127,33.7773413 107.876465,34.2753906 C108.195802,34.77344 108.715817,35.0224609 109.436523,35.0224609 C110.151371,35.0224609 110.665526,34.7749048 110.979004,34.2797852 C111.292482,33.7846655 111.449219,33.0478565 111.449219,32.0693359 C111.449219,31.0966748 111.291017,30.3671899 110.974609,29.8808594 C110.658202,29.3945288 110.139652,29.1513672 109.418945,29.1513672 C108.704098,29.1513672 108.188478,29.393064 107.87207,29.8764648 C107.555662,30.3598657 107.397461,31.0908154 107.397461,32.0693359 Z M114.191406,32.0693359 C114.191406,33.6689533 113.769535,34.9199174 112.925781,35.8222656 C112.082027,36.7246139 110.907234,37.1757812 109.401367,37.1757812 C108.458003,37.1757812 107.62598,36.9692403 106.905273,36.5561523 C106.184567,36.1430643 105.630861,35.5498086 105.244141,34.7763672 C104.85742,34.0029258 104.664062,33.1005911 104.664062,32.0693359 C104.664062,30.4638592 105.083004,29.2158248 105.920898,28.3251953 C106.758793,27.4345659 107.936516,26.9892578 109.454102,26.9892578 C110.397466,26.9892578 111.229489,27.1943339 111.950195,27.6044922 C112.670902,28.0146505 113.224607,28.6035118 113.611328,29.3710937 C113.998049,30.1386757 114.191406,31.0380808 114.191406,32.0693359 Z M121.890625,26.9892578 C122.253908,26.9892578 122.555663,27.0156247 122.795898,27.0683594 L122.59375,29.5820312 C122.376952,29.5234372 122.113283,29.4941406 121.802734,29.4941406 C120.947261,29.4941406 120.280764,29.713865 119.803223,30.1533203 C119.325681,30.5927756 119.086914,31.2080039 119.086914,31.9990234 L119.086914,37 L116.40625,37 L116.40625,27.1738281 L118.436523,27.1738281 L118.832031,28.8261719 L118.963867,28.8261719 C119.268556,28.2753879 119.680173,27.8315447 120.19873,27.4946289 C120.717288,27.1577132 121.281247,26.9892578 121.890625,26.9892578 Z M134.907227,37 L131.813477,26.9189453 L131.734375,26.9189453 C131.845704,28.9697368 131.901367,30.3378872 131.901367,31.0234375 L131.901367,37 L129.466797,37 L129.466797,24.1503906 L133.175781,24.1503906 L136.216797,33.9765625 L136.269531,33.9765625 L139.495117,24.1503906 L143.204102,24.1503906 L143.204102,37 L140.664062,37 L140.664062,30.9179687 C140.664062,30.6308579 140.668457,30.2998066 140.677246,29.9248047 C140.686035,29.5498028 140.725586,28.553719 140.795898,26.9365234 L140.716797,26.9365234 L137.40332,37 L134.907227,37 Z M152.467773,37 L151.949219,35.6640625 L151.878906,35.6640625 C151.427732,36.2324247 150.963381,36.6264637 150.48584,36.8461914 C150.008298,37.0659191 149.385746,37.1757812 148.618164,37.1757812 C147.6748,37.1757812 146.932132,36.9062527 146.390137,36.3671875 C145.848142,35.8281223 145.577148,35.0605519 145.577148,34.0644531 C145.577148,33.0214792 145.941891,32.2524439 146.671387,31.7573242 C147.400883,31.2622046 148.500969,30.9882815 149.97168,30.9355469 L151.676758,30.8828125 L151.676758,30.4521484 C151.676758,29.4560497 151.166997,28.9580078 150.147461,28.9580078 C149.362301,28.9580078 148.439458,29.1953101 147.378906,29.6699219 L146.491211,27.859375 C147.622076,27.2675752 148.87597,26.9716797 150.25293,26.9716797 C151.571296,26.9716797 152.582028,27.2587862 153.285156,27.8330078 C153.988285,28.4072294 154.339844,29.2802676 154.339844,30.4521484 L154.339844,37 L152.467773,37 Z M151.676758,32.4472656 L150.639648,32.4824219 C149.860348,32.5058595 149.280275,32.6464831 148.899414,32.9042969 C148.518553,33.1621107 148.328125,33.5546849 148.328125,34.0820312 C148.328125,34.8378944 148.761714,35.2158203 149.628906,35.2158203 C150.250003,35.2158203 150.74658,35.0371112 151.118652,34.6796875 C151.490725,34.3222638 151.676758,33.8476592 151.676758,33.2558594 L151.676758,32.4472656 Z M166.169922,37 L163.489258,37 L163.489258,31.2607422 C163.489258,30.5517543 163.363283,30.0200213 163.111328,29.6655273 C162.859374,29.3110334 162.458011,29.1337891 161.907227,29.1337891 C161.157223,29.1337891 160.615236,29.3842748 160.28125,29.8852539 C159.947264,30.386233 159.780273,31.2167911 159.780273,32.3769531 L159.780273,37 L157.099609,37 L157.099609,27.1738281 L159.147461,27.1738281 L159.507812,28.4306641 L159.657227,28.4306641 C159.956056,27.9560523 160.367673,27.5971692 160.89209,27.3540039 C161.416507,27.1108386 162.012692,26.9892578 162.680664,26.9892578 C163.823248,26.9892578 164.690427,27.2983368 165.282227,27.9165039 C165.874026,28.5346711 166.169922,29.426752 166.169922,30.5927734 L166.169922,37 Z" id="For-Man" fill="#FFFFFF"></path>
                    <path d="M270.899414,37 L268.21875,37 L268.21875,24.1503906 L275.583984,24.1503906 L275.583984,26.3828125 L270.899414,26.3828125 L270.899414,29.6962891 L275.258789,29.6962891 L275.258789,31.9199219 L270.899414,31.9199219 L270.899414,37 Z M280.022461,32.0693359 C280.022461,33.0419971 280.182127,33.7773413 280.501465,34.2753906 C280.820802,34.77344 281.340817,35.0224609 282.061523,35.0224609 C282.776371,35.0224609 283.290526,34.7749048 283.604004,34.2797852 C283.917482,33.7846655 284.074219,33.0478565 284.074219,32.0693359 C284.074219,31.0966748 283.916017,30.3671899 283.599609,29.8808594 C283.283202,29.3945288 282.764652,29.1513672 282.043945,29.1513672 C281.329098,29.1513672 280.813478,29.393064 280.49707,29.8764648 C280.180662,30.3598657 280.022461,31.0908154 280.022461,32.0693359 Z M286.816406,32.0693359 C286.816406,33.6689533 286.394535,34.9199174 285.550781,35.8222656 C284.707027,36.7246139 283.532234,37.1757812 282.026367,37.1757812 C281.083003,37.1757812 280.25098,36.9692403 279.530273,36.5561523 C278.809567,36.1430643 278.255861,35.5498086 277.869141,34.7763672 C277.48242,34.0029258 277.289062,33.1005911 277.289062,32.0693359 C277.289062,30.4638592 277.708004,29.2158248 278.545898,28.3251953 C279.383793,27.4345659 280.561516,26.9892578 282.079102,26.9892578 C283.022466,26.9892578 283.854489,27.1943339 284.575195,27.6044922 C285.295902,28.0146505 285.849607,28.6035118 286.236328,29.3710937 C286.623049,30.1386757 286.816406,31.0380808 286.816406,32.0693359 Z M294.515625,26.9892578 C294.878908,26.9892578 295.180663,27.0156247 295.420898,27.0683594 L295.21875,29.5820312 C295.001952,29.5234372 294.738283,29.4941406 294.427734,29.4941406 C293.572261,29.4941406 292.905764,29.713865 292.428223,30.1533203 C291.950681,30.5927756 291.711914,31.2080039 291.711914,31.9990234 L291.711914,37 L289.03125,37 L289.03125,27.1738281 L291.061523,27.1738281 L291.457031,28.8261719 L291.588867,28.8261719 C291.893556,28.2753879 292.305173,27.8315447 292.82373,27.4946289 C293.342288,27.1577132 293.906247,26.9892578 294.515625,26.9892578 Z M314.607422,37 L311.504883,37 L309.764648,30.25 C309.700195,30.0097644 309.590333,29.5131874 309.435059,28.7602539 C309.279784,28.0073205 309.19043,27.5019544 309.166992,27.2441406 C309.131836,27.5605485 309.043946,28.0688442 308.90332,28.769043 C308.762695,29.4692418 308.654297,29.9687485 308.578125,30.2675781 L306.84668,37 L303.75293,37 L300.474609,24.1503906 L303.155273,24.1503906 L304.798828,31.1640625 C305.085939,32.4589908 305.293945,33.5810499 305.422852,34.5302734 C305.458008,34.1962874 305.538574,33.6792027 305.664551,32.9790039 C305.790528,32.2788051 305.909179,31.7353535 306.020508,31.3486328 L307.892578,24.1503906 L310.467773,24.1503906 L312.339844,31.3486328 C312.421875,31.6709 312.524413,32.1630826 312.647461,32.8251953 C312.770508,33.487308 312.864257,34.0556617 312.928711,34.5302734 C312.987305,34.0732399 313.081054,33.5034214 313.209961,32.8208008 C313.338868,32.1381802 313.456054,31.5859396 313.561523,31.1640625 L315.196289,24.1503906 L317.876953,24.1503906 L314.607422,37 Z M321.418945,32.0693359 C321.418945,33.0419971 321.578612,33.7773413 321.897949,34.2753906 C322.217287,34.77344 322.737301,35.0224609 323.458008,35.0224609 C324.172855,35.0224609 324.68701,34.7749048 325.000488,34.2797852 C325.313966,33.7846655 325.470703,33.0478565 325.470703,32.0693359 C325.470703,31.0966748 325.312502,30.3671899 324.996094,29.8808594 C324.679686,29.3945288 324.161136,29.1513672 323.44043,29.1513672 C322.725582,29.1513672 322.209963,29.393064 321.893555,29.8764648 C321.577147,30.3598657 321.418945,31.0908154 321.418945,32.0693359 Z M328.212891,32.0693359 C328.212891,33.6689533 327.79102,34.9199174 326.947266,35.8222656 C326.103511,36.7246139 324.928718,37.1757812 323.422852,37.1757812 C322.479487,37.1757812 321.647465,36.9692403 320.926758,36.5561523 C320.206051,36.1430643 319.652346,35.5498086 319.265625,34.7763672 C318.878904,34.0029258 318.685547,33.1005911 318.685547,32.0693359 C318.685547,30.4638592 319.104488,29.2158248 319.942383,28.3251953 C320.780278,27.4345659 321.958,26.9892578 323.475586,26.9892578 C324.41895,26.9892578 325.250973,27.1943339 325.97168,27.6044922 C326.692386,28.0146505 327.246092,28.6035118 327.632812,29.3710937 C328.019533,30.1386757 328.212891,31.0380808 328.212891,32.0693359 Z M339.225586,37 L336.544922,37 L336.544922,31.2607422 C336.544922,30.5517543 336.426271,30.0200213 336.188965,29.6655273 C335.951659,29.3110334 335.578128,29.1337891 335.068359,29.1337891 C334.382809,29.1337891 333.884767,29.3857397 333.574219,29.8896484 C333.26367,30.3935572 333.108398,31.2226505 333.108398,32.3769531 L333.108398,37 L330.427734,37 L330.427734,27.1738281 L332.475586,27.1738281 L332.835938,28.4306641 L332.985352,28.4306641 C333.249025,27.9794899 333.62988,27.6264661 334.12793,27.371582 C334.625979,27.1166979 335.197262,26.9892578 335.841797,26.9892578 C337.312507,26.9892578 338.308591,27.4697218 338.830078,28.4306641 L339.067383,28.4306641 C339.331056,27.9736305 339.719236,27.6191419 340.231934,27.3671875 C340.744631,27.1152331 341.323239,26.9892578 341.967773,26.9892578 C343.08106,26.9892578 343.923337,27.2748995 344.494629,27.8461914 C345.065921,28.4174833 345.351562,29.3330015 345.351562,30.5927734 L345.351562,37 L342.662109,37 L342.662109,31.2607422 C342.662109,30.5517543 342.543458,30.0200213 342.306152,29.6655273 C342.068846,29.3110334 341.695315,29.1337891 341.185547,29.1337891 C340.529294,29.1337891 340.038576,29.3681617 339.713379,29.8369141 C339.388182,30.3056664 339.225586,31.0497996 339.225586,32.0693359 L339.225586,37 Z M354.342773,37 L353.824219,35.6640625 L353.753906,35.6640625 C353.302732,36.2324247 352.838381,36.6264637 352.36084,36.8461914 C351.883298,37.0659191 351.260746,37.1757812 350.493164,37.1757812 C349.5498,37.1757812 348.807132,36.9062527 348.265137,36.3671875 C347.723142,35.8281223 347.452148,35.0605519 347.452148,34.0644531 C347.452148,33.0214792 347.816891,32.2524439 348.546387,31.7573242 C349.275883,31.2622046 350.375969,30.9882815 351.84668,30.9355469 L353.551758,30.8828125 L353.551758,30.4521484 C353.551758,29.4560497 353.041997,28.9580078 352.022461,28.9580078 C351.237301,28.9580078 350.314458,29.1953101 349.253906,29.6699219 L348.366211,27.859375 C349.497076,27.2675752 350.75097,26.9716797 352.12793,26.9716797 C353.446296,26.9716797 354.457028,27.2587862 355.160156,27.8330078 C355.863285,28.4072294 356.214844,29.2802676 356.214844,30.4521484 L356.214844,37 L354.342773,37 Z M353.551758,32.4472656 L352.514648,32.4824219 C351.735348,32.5058595 351.155275,32.6464831 350.774414,32.9042969 C350.393553,33.1621107 350.203125,33.5546849 350.203125,34.0820312 C350.203125,34.8378944 350.636714,35.2158203 351.503906,35.2158203 C352.125003,35.2158203 352.62158,35.0371112 352.993652,34.6796875 C353.365725,34.3222638 353.551758,33.8476592 353.551758,33.2558594 L353.551758,32.4472656 Z M368.044922,37 L365.364258,37 L365.364258,31.2607422 C365.364258,30.5517543 365.238283,30.0200213 364.986328,29.6655273 C364.734374,29.3110334 364.333011,29.1337891 363.782227,29.1337891 C363.032223,29.1337891 362.490236,29.3842748 362.15625,29.8852539 C361.822264,30.386233 361.655273,31.2167911 361.655273,32.3769531 L361.655273,37 L358.974609,37 L358.974609,27.1738281 L361.022461,27.1738281 L361.382812,28.4306641 L361.532227,28.4306641 C361.831056,27.9560523 362.242673,27.5971692 362.76709,27.3540039 C363.291507,27.1108386 363.887692,26.9892578 364.555664,26.9892578 C365.698248,26.9892578 366.565427,27.2983368 367.157227,27.9165039 C367.749026,28.5346711 368.044922,29.426752 368.044922,30.5927734 L368.044922,37 Z" id="For-Woman" fill="#4FB646"></path>
                </g>
                <g id="Man" transform="translate(16.500000, 0.000000)">
                    <path d="M13.3196721,62.2278936 L16.670082,123.276332 C16.6895492,123.705635 17.0430328,124.04375 17.4733607,124.04375 L28.494877,124.04375 C28.8831967,124.04375 29.2131148,123.759939 29.2704918,123.375717 C29.3616803,122.76916 29.017418,122.181045 28.4436475,121.962807 L20.8883197,119.091906 L24.2848361,68.0335041 C24.3217213,67.4054303 25.244877,67.3982582 25.2920082,68.026332 L29.8913934,123.404406 C29.9180328,123.765061 30.2192623,124.04375 30.5809426,124.04375 L41.1106557,124.04375 C41.4631148,124.04375 41.7643443,123.789652 41.8227459,123.441291 C41.9108607,122.909529 41.585041,122.396209 41.0665984,122.249693 L34.7202869,120.457684 L36.4938525,62.3129346 L13.3196721,62.2278936 Z" id="Fill-1" fill="#2E3543"></path>
                    <path d="M46.9007172,68.3484631 L40.6917008,29.6189549 L40.7121926,29.4140369 L40.7039959,29.3751025 C40.3669057,27.7203893 38.9191598,26.5257172 37.2296107,26.5103484 L28.876127,26.4519467 L15.4755123,26.3853484 C13.8197746,26.3771516 12.233709,25.716291 11.0626025,24.5451844 L8.14969262,21.6343238 C6.98883197,20.4744877 6.85256148,18.6404713 7.82694672,17.3218238 L14.0707992,8.87612705 L13.1107582,4.69579918 L2.33104508,14.751127 C-0.653586066,17.5349385 -0.789856557,22.2203893 2.0267418,25.1732582 L8.40584016,30.921209 C10.0769467,32.426332 11.1476434,34.4857582 11.4201844,36.7183402 L13.1107582,62.2278936 L36.0564238,62.2278936 L36.0369877,42.2992828 C36.023668,41.7593238 36.7951844,41.6527664 36.9294057,42.176332 L42.7173156,69.0318648 L46.9007172,68.3484631 Z" id="Fill-3" fill="#00B4F9"></path>
                    <g id="Group-15" transform="translate(39.959016, 64.617828)">
                        <mask id="mask-2" fill="white">
                            <use xlink:href="#path-1"></use>
                        </mask>
                        <g id="Clip-14"></g>
                        <path d="M8.62131148,4.11793033 C8.62131148,6.2869877 6.86311475,8.04518443 4.69405738,8.04518443 C2.525,8.04518443 0.765778689,6.2869877 0.765778689,4.11793033 C0.765778689,1.94887295 2.525,0.19067623 4.69405738,0.19067623 C6.86311475,0.19067623 8.62131148,1.94887295 8.62131148,4.11793033" id="Fill-13" fill="#EAC2A7" mask="url(#mask-2)"></path>
                    </g>
                    <path d="M11.1917008,9.31372951 C11.9017418,11.3629098 14.1394467,12.4489754 16.188627,11.7379098 C18.238832,11.0278689 19.323873,8.79016393 18.613832,6.74098361 C17.9027664,4.69180328 15.6660861,3.6057377 13.6158811,4.31680328 C11.5667008,5.02684426 10.4816598,7.26454918 11.1917008,9.31372951" id="Fill-5" fill="#EAC2A7"></path>
                    <path d="M20.7933129,9.26200558 L20.7933376,29.3494316 C20.793339,30.4540011 21.6887706,31.3494305 22.7933401,31.3494292 C22.809444,31.3494292 22.8255473,31.3492346 22.8416466,31.3488457 L24.9809934,31.2971558 C26.0664253,31.2709301 26.9326844,30.383488 26.9326844,29.2977393 L26.9326844,26.3694672 C26.7216189,25.4616803 27.4859631,24.6235656 28.4101434,24.7495902 L30.95625,25.0969262 C32.3599385,25.0969262 33.4972336,23.9586066 33.4972336,22.554918 L33.4972336,18.372541 L35.3097336,18.2864754 C35.911168,18.2577869 36.1949795,17.5303279 35.7718238,17.1020492 L32.7868852,9.64928719 L20.7933129,9.26200558 Z" id="Fill-7" fill="#EAC2A7"></path>
                    <path d="M28.7038332,26.6393443 L28.7038332,29.8351756 C28.7038332,32.0132553 26.6359597,33.7795323 24.0850792,33.7795323 C21.5350866,33.7795323 19.4672131,32.0132553 19.4672131,29.8351756 L19.4672131,26.6393443" id="Stroke-21" stroke="#0E7BCE"></path>
                    <path d="M32.1904621,13.348726 C32.2944279,14.5963152 31.3677765,15.692928 30.1201873,15.7968938 C28.8725981,15.9017636 27.7759853,14.9742081 27.6720195,13.7266189 C27.5671497,12.4790297 28.4947051,11.383321 29.7422943,11.2784512 C30.9898835,11.1744854 32.0855923,12.1011368 32.1904621,13.348726 Z" id="Stroke-29" stroke="#2E3543"></path>
                    <path d="M38.3461909,13.5378496 C38.3461909,14.789959 37.3309426,15.8052073 36.0788332,15.8052073 C34.8267237,15.8052073 33.8114754,14.789959 33.8114754,13.5378496 C33.8114754,12.2857401 34.8267237,11.2704918 36.0788332,11.2704918 C37.3309426,11.2704918 38.3461909,12.2857401 38.3461909,13.5378496 Z" id="Stroke-30" stroke="#2E3543"></path>
                    <circle id="Oval" fill="#FFFFFF" cx="29.7131148" cy="20.4918033" r="2.04918033"></circle>
                    <path d="M21.5109631,11.3956967 C21.1144467,11.4028689 20.788627,11.092418 20.7896516,10.694877 C20.7917008,10.0165984 20.8183402,8.8454918 20.8183402,6.94692623 C20.8183402,4.00122951 24.4679303,3.10471311 27.1574795,3.10471311 C29.8470287,3.10471311 31.2558402,3.36086066 31.2558402,1.95204918 L31.2558402,0.543237705 C31.2558402,0.543237705 36.6994877,0.543237705 36.6994877,6.24303279 C36.6994877,11.0452869 31.3839139,10.2133197 29.1431352,10.2133197 L27.5222336,10.2133197 C26.6841189,10.2133197 26.0048156,10.892623 26.0048156,11.7297131 L26.0048156,12.9520492 C26.0048156,13.4213115 25.6277664,13.8034836 25.1585041,13.8096311 L25.1574795,13.8096311 C24.6830943,13.8157787 24.29375,13.4346311 24.2896516,12.9602459 L24.2814549,11.9807377 C24.2783811,11.6303279 23.9904713,11.3495902 23.6400615,11.3567623 L21.5109631,11.3956967 Z" id="Fill-9" fill="#2E3543"></path>
                    <path d="M20.4918033,8.19672131 L23.5655738,8.19672131 L23.5655738,14.3442623 C23.5655738,16.0418589 22.1893998,17.4180328 20.4918033,17.4180328 L20.4918033,8.19672131 Z" id="Rectangle" fill="#2E3543"></path>
                    <path d="M16.9543033,4.67889344 L21.4184426,7.69118852 C22.1622951,8.21168033 21.8385246,9.3817623 20.9358607,9.43401639 L16.9594262,8.15122951 L16.9543033,4.67889344 Z" id="Fill-11" fill="#EAC2A7"></path>
                </g>
                <g id="Group-33" transform="translate(417.312020, 66.500000) scale(-1, 1) translate(-417.312020, -66.500000) translate(393.782609, 4.000000)">
                    <path d="M26.7151,38.8015 C20.3711,38.8015 15.2291,33.6585 15.2291,27.3155 L15.2291,11.4865 C15.2291,5.1425 20.3711,0.0005 26.7151,0.0005 C33.0591,0.0005 38.2011,5.1425 38.2011,11.4865 L38.2011,27.3155 C38.2011,33.6585 33.0591,38.8015 26.7151,38.8015" id="Fill-1" fill="#2E3543"></path>
                    <g id="Group-5" transform="translate(0.000000, 3.093000)">
                        <mask id="mask-4" fill="white">
                            <use xlink:href="#path-3"></use>
                        </mask>
                        <g id="Clip-4"></g>
                        <path d="M15.0356,3.6352 L5.8416,14.0522 L13.6686,21.1842 C15.0466,22.4402 16.8466,23.1302 18.7116,23.1182 L36.1546,23.0012 C38.6966,22.9852 40.8606,24.8452 41.2256,27.3612 L44.4826,60.0082 L41.3556,60.1622 L36.8726,32.8712 L33.4506,50.4042 L16.7566,50.6652 L13.2156,31.5732 L1.0246,18.0532 C-0.5414,16.0752 -0.2854,13.2172 1.6076,11.5492 L13.6876,0.9032 L14.9856,3.4982" id="Fill-3" fill="#F5E622" mask="url(#mask-4)"></path>
                    </g>
                    <path d="M40.676,121.8276 C39.543,121.5446 37.844,121.7336 36.145,120.7896 C35.296,120.2226 34.352,119.5626 34.257,119.4676 L29.255,119.4676 C29.16,119.8456 29.066,120.6946 29.066,121.3556 L29.066,123.5266 C29.066,123.8096 29.349,123.9986 29.538,123.9986 L31.992,123.9986 L32.936,123.5266 C32.936,123.5266 36.051,124.0926 38.411,124.0926 C40.77,124.0926 41.431,123.2436 41.431,123.2436 C41.431,123.2436 41.809,122.1106 40.676,121.8276" id="Fill-6" fill="#090A0A"></path>
                    <path d="M30.1987,121.8276 C29.0657,121.5446 27.3667,121.7336 25.6677,120.7896 C24.8187,120.2226 23.8747,119.5626 23.7797,119.4676 L18.7777,119.4676 C18.6827,119.8456 18.5887,120.6946 18.5887,121.3556 L18.5887,123.5266 C18.5887,123.8096 18.8717,123.9986 19.0607,123.9986 L21.5147,123.9986 L22.4587,123.5266 C22.4587,123.5266 25.5737,124.0926 27.9337,124.0926 C30.2927,124.0926 30.9537,123.2436 30.9537,123.2436 C30.9537,123.2436 31.3317,122.1106 30.1987,121.8276" id="Fill-8" fill="#090A0A"></path>
                    <g id="Group-12" transform="translate(39.000000, 61.093000)">
                        <mask id="mask-6" fill="white">
                            <use xlink:href="#path-5"></use>
                        </mask>
                        <g id="Clip-11"></g>
                        <path d="M3.9413,0.7027 C5.7703,0.7027 7.2523,2.1847 7.2523,4.0137 C7.2523,5.8427 5.7703,7.3247 3.9413,7.3247 C2.1123,7.3247 0.6303,5.8427 0.6303,4.0137 C0.6303,2.1847 2.1123,0.7027 3.9413,0.7027" id="Fill-10" fill="#EAC2A7" mask="url(#mask-6)"></path>
                    </g>
                    <path d="M25.3848,34.3754 C22.1758,34.3754 19.6268,31.8264 19.6268,28.6174 L19.6268,26.0694 L20.5708,26.0694 L20.5708,28.6174 C20.5708,31.2604 22.7418,33.4314 25.3848,33.4314 C28.0278,33.4314 30.1988,31.2604 30.1988,28.6174 L30.1988,25.9744 L31.1428,25.9744 L31.1428,28.6174 C31.1428,31.7324 28.5938,34.3754 25.3848,34.3754" id="Fill-13" fill="#F68D2E"></path>
                    <path d="M27.2254,4.7521 C24.4064,4.8011 22.1754,10.4411 22.1754,13.2601 L22.1754,25.8331 L22.1754,30.1251 C24.8274,33.6581 28.7444,31.5201 28.5944,28.6651 L28.5944,25.7391 C28.4054,24.7951 29.1604,23.9451 30.1044,24.0401 L32.7474,24.4171 C34.2574,24.4171 35.3904,23.1901 35.3904,21.7741 L35.3904,17.3381 L37.2784,17.2431 C37.9384,17.2431 38.2214,16.4881 37.7494,16.0161 L32.9674,5.6341 L27.2254,4.7521 Z" id="Fill-15" fill="#EAC2A7"></path>
                    <path d="M31.7089,17.9987 C32.7519,17.9987 33.5969,18.8437 33.5969,19.8867 C33.5969,20.9287 32.7519,21.7747 31.7089,21.7747 C30.6659,21.7747 29.8209,20.9287 29.8209,19.8867 C29.8209,18.8437 30.6659,17.9987 31.7089,17.9987" id="Fill-17" fill="#FFFFFF"></path>
                    <path d="M33.1248,13.3736 C33.1248,13.8456 33.2188,14.2236 33.5028,14.5066 C33.7858,14.7896 34.1628,15.0726 34.6348,15.0726 C35.1068,15.0726 35.4848,14.9786 35.7678,14.6946 C36.0508,14.4116 36.3338,14.0346 36.3338,13.5626 C36.3338,13.0906 36.2398,12.7126 35.9568,12.4296 C35.6738,12.1466 35.2958,11.8636 34.8238,11.8636 C34.0688,11.7686 33.2188,12.4296 33.1248,13.3736 M34.8238,16.0166 L34.6348,16.0166 C33.9748,15.9226 33.3138,15.6386 32.9358,15.0726 C32.4638,14.5066 32.2748,13.8456 32.3698,13.1846 C32.4638,11.7686 33.6908,10.7306 35.1068,10.8246 C35.7678,10.9196 36.4288,11.2026 36.8058,11.7686 C37.2778,12.3356 37.4668,12.9956 37.3728,13.6566 C37.2778,14.3176 36.9948,14.9786 36.4288,15.3556 C35.9568,15.8276 35.3898,16.0166 34.8238,16.0166" id="Fill-19" fill="#373463"></path>
                    <path d="M29.066,11.8634 C28.216,11.8634 27.461,12.6184 27.461,13.4684 C27.461,14.3174 28.216,15.0724 29.066,15.0724 C29.916,15.0724 30.671,14.3174 30.671,13.4684 C30.671,12.6184 30.01,11.8634 29.066,11.8634 M29.066,16.0164 C27.65,16.0164 26.517,14.8834 26.517,13.4684 C26.517,12.0524 27.65,10.9194 29.066,10.9194 C30.482,10.9194 31.615,12.0524 31.615,13.4684 C31.615,14.8834 30.482,16.0164 29.066,16.0164" id="Fill-21" fill="#373463"></path>
                    <polygon id="Fill-23" fill="#EAC2A7" points="16.7639 93.9669 19.0449 119.4679 23.3709 119.2949 24.4729 93.9669"></polygon>
                    <polygon id="Fill-25" fill="#EAC2A7" points="26.9894 93.9669 29.2704 119.4679 33.5964 119.2949 34.6984 93.9669"></polygon>
                    <path d="M16.7009,53.6781 C16.7009,53.6781 14.6399,62.7931 13.7749,66.5621 C12.9099,70.3311 9.2129,94.1241 9.2129,94.1241 L42.0129,94.1241 C40.8339,83.9501 38.0599,70.6631 36.5919,65.6821 C35.2309,61.0631 33.4079,53.5841 33.4079,53.5841 L16.7009,53.6781 Z" id="Fill-27" fill="#7A8291"></path>
                    <path d="M22.2733,13.0345 C22.2733,13.0345 29.7013,12.5215 30.9173,6.1075 C31.6123,8.8915 35.0863,10.1015 35.0863,10.1015 L37.0983,8.8585 L34.9543,4.4535 L23.0653,2.8605 L19.6273,7.3185 L22.2733,13.0345 Z" id="Fill-29" fill="#2E3543"></path>
                    <path d="M20.956,5.5157 L17.086,2.8727 C16.237,2.3067 15.198,2.2117 14.16,2.4957 C12.367,3.1557 11.423,5.0437 12.083,6.8367 C12.744,8.6307 14.632,9.5747 16.425,8.9137 C17.652,8.5357 18.407,7.4977 18.691,6.2707 L20.578,6.9317 C21.334,6.9317 21.617,5.9877 20.956,5.5157" id="Fill-31" fill="#EAC2A7"></path>
                </g>
            </g>
        </g>
    </g>
</svg>