<?xml version="1.0" encoding="utf-8"?>
<!-- Generator: Adobe Illustrator 19.2.0, SVG Export Plug-In . SVG Version: 6.00 Build 0)  -->
<svg version="1.1" id="Layer_1" xmlns="http://www.w3.org/2000/svg" xmlns:xlink="http://www.w3.org/1999/xlink" x="0px" y="0px"
	 width="120px" height="140px" viewBox="0 0 120 140" style="enable-background:new 0 0 120 140;" xml:space="preserve">
<style type="text/css">
	.st0{fill:#0C071F;}
	.st1{fill:#124AFF;}
</style>
<path class="st0" d="M35.6,108.5h-3.5v-1.3h8.5v1.3h-3.5v9h-1.4V108.5z M43.1,111c0.2-0.4,0.6-0.8,1.1-1c0.5-0.2,1.1-0.4,1.7-0.4
	v1.4c-0.1,0-0.2,0-0.3,0c-0.8,0-1.4,0.2-1.8,0.7c-0.4,0.4-0.6,1.1-0.6,1.9v3.9h-1.4v-7.7h1.3V111z M50.5,109.6
	c1.1,0,1.9,0.3,2.5,0.8c0.6,0.5,0.9,1.3,0.9,2.4v4.7h-1.3v-1c-0.2,0.4-0.6,0.6-1,0.8c-0.4,0.2-0.9,0.3-1.5,0.3
	c-0.9,0-1.6-0.2-2.1-0.6c-0.5-0.4-0.8-1-0.8-1.6c0-0.7,0.2-1.2,0.7-1.6c0.5-0.4,1.3-0.6,2.4-0.6h2.2v-0.3c0-0.6-0.2-1.1-0.5-1.4
	c-0.4-0.3-0.9-0.5-1.5-0.5c-0.5,0-0.9,0.1-1.3,0.2c-0.4,0.1-0.8,0.3-1.1,0.6l-0.6-1.1c0.4-0.3,0.9-0.6,1.4-0.7
	C49.3,109.7,49.9,109.6,50.5,109.6z M50.2,116.5c0.5,0,1-0.1,1.4-0.3c0.4-0.2,0.7-0.6,0.8-1V114h-2.2c-1.2,0-1.8,0.4-1.8,1.2
	c0,0.4,0.2,0.7,0.5,0.9C49.2,116.3,49.6,116.5,50.2,116.5z M63.7,106.6v10.8h-1.3v-1.2c-0.3,0.4-0.7,0.8-1.2,1
	c-0.5,0.2-1,0.3-1.6,0.3c-0.7,0-1.4-0.2-2-0.5s-1.1-0.8-1.4-1.4c-0.3-0.6-0.5-1.3-0.5-2.1s0.2-1.5,0.5-2.1c0.3-0.6,0.8-1.1,1.4-1.4
	c0.6-0.3,1.3-0.5,2-0.5c0.6,0,1.1,0.1,1.5,0.3c0.5,0.2,0.9,0.5,1.2,0.9v-4.3H63.7z M59.7,116.3c0.5,0,0.9-0.1,1.3-0.3
	c0.4-0.2,0.7-0.6,0.9-1c0.2-0.4,0.3-0.9,0.3-1.4c0-0.5-0.1-1-0.3-1.4c-0.2-0.4-0.5-0.7-0.9-1c-0.4-0.2-0.8-0.3-1.3-0.3
	c-0.5,0-0.9,0.1-1.3,0.3c-0.4,0.2-0.7,0.5-0.9,1c-0.2,0.4-0.3,0.9-0.3,1.4c0,0.5,0.1,1,0.3,1.4c0.2,0.4,0.5,0.7,0.9,1
	C58.8,116.2,59.3,116.3,59.7,116.3z M66.4,109.7h1.4v7.7h-1.4V109.7z M67.1,108.2c-0.3,0-0.5-0.1-0.7-0.3c-0.2-0.2-0.3-0.4-0.3-0.6
	c0-0.3,0.1-0.5,0.3-0.6c0.2-0.2,0.4-0.3,0.7-0.3s0.5,0.1,0.7,0.3c0.2,0.2,0.3,0.4,0.3,0.6c0,0.3-0.1,0.5-0.3,0.7
	C67.6,108.1,67.4,108.2,67.1,108.2z M74.6,109.6c1,0,1.8,0.3,2.3,0.9c0.6,0.6,0.9,1.4,0.9,2.5v4.5h-1.4v-4.3c0-0.8-0.2-1.3-0.5-1.7
	c-0.4-0.4-0.9-0.6-1.5-0.6c-0.8,0-1.4,0.2-1.8,0.7c-0.4,0.4-0.7,1.1-0.7,1.9v4h-1.4v-7.7h1.3v1.2c0.3-0.4,0.7-0.7,1.1-0.9
	C73.4,109.7,74,109.6,74.6,109.6z M87.9,109.7v6.7c0,1.4-0.3,2.4-1,3c-0.7,0.7-1.7,1-3,1c-0.7,0-1.4-0.1-2.1-0.3
	c-0.7-0.2-1.2-0.5-1.6-0.8l0.7-1.1c0.4,0.3,0.8,0.6,1.3,0.7c0.5,0.2,1.1,0.3,1.7,0.3c0.9,0,1.6-0.2,2-0.6c0.4-0.4,0.7-1.1,0.7-2
	v-0.6c-0.3,0.4-0.7,0.7-1.2,0.9c-0.5,0.2-1,0.3-1.6,0.3c-0.7,0-1.4-0.2-2-0.5c-0.6-0.3-1.1-0.8-1.4-1.3c-0.3-0.6-0.5-1.2-0.5-2
	s0.2-1.4,0.5-1.9c0.3-0.6,0.8-1,1.4-1.3c0.6-0.3,1.3-0.5,2-0.5c0.6,0,1.1,0.1,1.6,0.3c0.5,0.2,0.9,0.5,1.2,0.9v-1.2H87.9z
	 M83.8,115.9c0.5,0,1-0.1,1.4-0.3c0.4-0.2,0.7-0.5,0.9-0.9c0.2-0.4,0.4-0.8,0.4-1.3c0-0.8-0.2-1.4-0.7-1.8c-0.5-0.5-1.1-0.7-1.9-0.7
	c-0.8,0-1.4,0.2-1.9,0.7c-0.5,0.5-0.7,1.1-0.7,1.8c0,0.5,0.1,0.9,0.3,1.3c0.2,0.4,0.6,0.7,0.9,0.9C82.8,115.8,83.3,115.9,83.8,115.9
	z M10.3,125.2h1.5v10.2h-1.5V125.2z M18.7,127.6c1,0,1.8,0.3,2.3,0.9c0.6,0.6,0.9,1.4,0.9,2.5v4.5h-1.4v-4.3c0-0.8-0.2-1.3-0.5-1.7
	c-0.4-0.4-0.9-0.6-1.5-0.6c-0.8,0-1.4,0.2-1.8,0.7c-0.4,0.4-0.7,1.1-0.7,1.9v4h-1.4v-7.7H16v1.2c0.3-0.4,0.7-0.7,1.1-0.9
	C17.6,127.7,18.1,127.6,18.7,127.6z M27.4,125.7c-0.8,0-1.3,0.5-1.3,1.4v0.7h2.2v1.2h-2.2v6.6h-1.4v-6.6h-1.3v-1.2h1.3V127
	c0-0.8,0.2-1.4,0.7-1.8s1.1-0.7,1.9-0.7c0.3,0,0.6,0,0.9,0.1c0.3,0.1,0.5,0.2,0.7,0.3l-0.4,1.1C28.1,125.8,27.8,125.7,27.4,125.7z
	 M32.2,129c0.2-0.4,0.6-0.8,1.1-1c0.5-0.2,1.1-0.4,1.7-0.4v1.4c-0.1,0-0.2,0-0.3,0c-0.8,0-1.4,0.2-1.8,0.7c-0.4,0.4-0.6,1.1-0.6,1.9
	v3.9h-1.4v-7.7h1.3V129z M39.6,127.6c1.1,0,1.9,0.3,2.5,0.8c0.6,0.5,0.9,1.3,0.9,2.4v4.7h-1.3v-1c-0.2,0.4-0.6,0.6-1,0.8
	c-0.4,0.2-0.9,0.3-1.5,0.3c-0.9,0-1.6-0.2-2.1-0.6c-0.5-0.4-0.8-1-0.8-1.6c0-0.7,0.2-1.2,0.7-1.6c0.5-0.4,1.3-0.6,2.4-0.6h2.2v-0.3
	c0-0.6-0.2-1.1-0.5-1.4c-0.4-0.3-0.9-0.5-1.5-0.5c-0.5,0-0.9,0.1-1.3,0.2c-0.4,0.1-0.8,0.3-1.1,0.6l-0.6-1.1
	c0.4-0.3,0.9-0.6,1.4-0.7C38.4,127.7,38.9,127.6,39.6,127.6z M39.2,134.5c0.5,0,1-0.1,1.4-0.3c0.4-0.2,0.7-0.6,0.8-1V132h-2.2
	c-1.2,0-1.8,0.4-1.8,1.2c0,0.4,0.2,0.7,0.5,0.9C38.3,134.3,38.7,134.5,39.2,134.5z M47.7,135.5c-0.6,0-1.2-0.1-1.8-0.2
	c-0.6-0.2-1-0.4-1.4-0.7l0.6-1.1c0.3,0.2,0.8,0.4,1.2,0.6c0.5,0.1,1,0.2,1.5,0.2c1.2,0,1.8-0.3,1.8-1.1c0-0.2-0.1-0.4-0.2-0.6
	c-0.2-0.1-0.4-0.2-0.6-0.3c-0.2-0.1-0.6-0.1-1.1-0.2c-0.6-0.1-1.1-0.2-1.5-0.3c-0.4-0.1-0.7-0.3-1-0.6c-0.3-0.3-0.4-0.7-0.4-1.3
	c0-0.7,0.3-1.3,0.9-1.7c0.6-0.4,1.4-0.6,2.4-0.6c0.5,0,1,0.1,1.5,0.2c0.5,0.1,0.9,0.3,1.3,0.5l-0.6,1.1c-0.6-0.4-1.4-0.6-2.2-0.6
	c-0.6,0-1,0.1-1.4,0.3c-0.3,0.2-0.5,0.5-0.5,0.8c0,0.3,0.1,0.5,0.3,0.6c0.2,0.1,0.4,0.3,0.6,0.3c0.3,0.1,0.6,0.1,1.1,0.2
	c0.6,0.1,1.1,0.2,1.5,0.3c0.4,0.1,0.7,0.3,1,0.6c0.3,0.3,0.4,0.7,0.4,1.2c0,0.7-0.3,1.3-0.9,1.7C49.5,135.3,48.7,135.5,47.7,135.5z
	 M57.1,135c-0.2,0.2-0.5,0.3-0.8,0.4c-0.3,0.1-0.6,0.1-0.9,0.1c-0.8,0-1.4-0.2-1.8-0.6c-0.4-0.4-0.6-1-0.6-1.8v-4.2h-1.3v-1.2H53
	V126h1.4v1.7h2.2v1.2h-2.2v4.2c0,0.4,0.1,0.7,0.3,1c0.2,0.2,0.5,0.3,0.9,0.3c0.4,0,0.8-0.1,1.1-0.4L57.1,135z M60.2,129
	c0.2-0.4,0.6-0.8,1.1-1c0.5-0.2,1.1-0.4,1.7-0.4v1.4c-0.1,0-0.2,0-0.3,0c-0.8,0-1.4,0.2-1.8,0.7c-0.4,0.4-0.6,1.1-0.6,1.9v3.9h-1.4
	v-7.7h1.3V129z M72,127.7v7.7h-1.3v-1.2c-0.3,0.4-0.7,0.7-1.1,0.9c-0.5,0.2-1,0.3-1.5,0.3c-1,0-1.8-0.3-2.4-0.8
	c-0.6-0.6-0.9-1.4-0.9-2.5v-4.5h1.4v4.3c0,0.8,0.2,1.3,0.5,1.7c0.4,0.4,0.9,0.6,1.5,0.6c0.7,0,1.3-0.2,1.8-0.7
	c0.4-0.4,0.6-1.1,0.6-1.9v-4H72z M78.1,135.5c-0.8,0-1.5-0.2-2.1-0.5c-0.6-0.3-1.1-0.8-1.4-1.4c-0.4-0.6-0.5-1.3-0.5-2
	c0-0.8,0.2-1.4,0.5-2c0.4-0.6,0.8-1.1,1.4-1.4c0.6-0.3,1.3-0.5,2.1-0.5c0.7,0,1.3,0.1,1.9,0.4c0.6,0.3,1,0.7,1.3,1.2l-1.1,0.7
	c-0.2-0.4-0.5-0.6-0.9-0.8c-0.4-0.2-0.8-0.3-1.2-0.3c-0.5,0-1,0.1-1.4,0.3c-0.4,0.2-0.7,0.5-0.9,1c-0.2,0.4-0.3,0.9-0.3,1.4
	c0,0.5,0.1,1,0.3,1.4c0.2,0.4,0.6,0.7,0.9,1c0.4,0.2,0.9,0.3,1.4,0.3c0.4,0,0.8-0.1,1.2-0.3c0.4-0.2,0.7-0.5,0.9-0.8l1.1,0.7
	c-0.3,0.5-0.7,1-1.3,1.2C79.4,135.4,78.8,135.5,78.1,135.5z M87.5,135c-0.2,0.2-0.5,0.3-0.8,0.4c-0.3,0.1-0.6,0.1-0.9,0.1
	c-0.8,0-1.4-0.2-1.8-0.6c-0.4-0.4-0.6-1-0.6-1.8v-4.2H82v-1.2h1.3V126h1.4v1.7H87v1.2h-2.2v4.2c0,0.4,0.1,0.7,0.3,1
	c0.2,0.2,0.5,0.3,0.9,0.3c0.4,0,0.8-0.1,1.1-0.4L87.5,135z M96.4,127.7v7.7h-1.3v-1.2c-0.3,0.4-0.7,0.7-1.1,0.9
	c-0.5,0.2-1,0.3-1.5,0.3c-1,0-1.8-0.3-2.4-0.8c-0.6-0.6-0.9-1.4-0.9-2.5v-4.5h1.4v4.3c0,0.8,0.2,1.3,0.5,1.7
	c0.4,0.4,0.9,0.6,1.5,0.6c0.7,0,1.3-0.2,1.8-0.7c0.4-0.4,0.6-1.1,0.6-1.9v-4H96.4z M100.4,129c0.2-0.4,0.6-0.8,1.1-1
	c0.5-0.2,1.1-0.4,1.7-0.4v1.4c-0.1,0-0.2,0-0.3,0c-0.8,0-1.4,0.2-1.8,0.7c-0.4,0.4-0.6,1.1-0.6,1.9v3.9h-1.4v-7.7h1.3V129z
	 M111.9,131.6c0,0.1,0,0.2,0,0.4h-6.3c0.1,0.7,0.4,1.2,0.9,1.7c0.5,0.4,1.2,0.6,1.9,0.6c0.9,0,1.7-0.3,2.2-0.9l0.8,0.9
	c-0.4,0.4-0.8,0.7-1.3,0.9c-0.5,0.2-1.1,0.3-1.7,0.3c-0.8,0-1.5-0.2-2.2-0.5c-0.6-0.3-1.1-0.8-1.5-1.4c-0.3-0.6-0.5-1.3-0.5-2
	c0-0.7,0.2-1.4,0.5-2c0.3-0.6,0.8-1.1,1.4-1.4c0.6-0.3,1.3-0.5,2-0.5c0.7,0,1.4,0.2,2,0.5c0.6,0.3,1,0.8,1.4,1.4
	C111.7,130.2,111.9,130.8,111.9,131.6z M108.1,128.8c-0.7,0-1.2,0.2-1.7,0.6c-0.4,0.4-0.7,0.9-0.8,1.6h5c-0.1-0.7-0.3-1.2-0.8-1.6
	C109.3,129,108.7,128.8,108.1,128.8z"/>
<path class="st1" d="M29.1,37.1c-1.8,1.5-4.5,3.6-5.9,4.7c1-12.7,8.5-24.1,19.9-30c18.1-9.3,40.4-2.2,49.7,15.9
	c0.1,0.2,0.2,0.6,0.5,0.8l0.1,0.2l1.1-0.5l-0.1-0.2c-0.1-0.4-0.2-0.6-0.5-1C84.2,8.5,61.1,1.1,42.4,10.7C30.8,16.8,23,28.4,22,41.5
	c-0.8-0.8-2.2-2.4-4.9-5.3L16.3,37c2.2,2.4,5.5,6.1,5.7,6.3l0.1,0.2h0.2h0.1c0.4,0,1.1-0.5,7.4-5.6L29.1,37.1z"/>
<path class="st1" d="M103,53.6l-5.5-6.5L89.9,53l0.7,1l6.1-4.7c-1.5,12.2-8.7,22.8-19.8,28.5C58.9,87,36.6,80,27.3,62.1l-1.1,0.6
	C33,75.7,46.3,83.1,60,83.1c5.8,0,11.8-1.3,17.3-4.2C88.7,73,96.3,62.1,97.7,49.5l4.2,5.1L103,53.6z"/>
<path class="st1" d="M79.2,53l1.1,0.4c1-2.7,1.5-5.5,1.5-8.1V25.1h-0.6c-0.1,0-7.4,0.1-11.4-1c-4.1-1.2-9.6-4.7-9.7-4.7l-0.4-0.2
	l-0.4,0.2c-0.1,0-6.2,3.6-10.3,4.9c-4.1,1.2-11.5,1-11.5,1h-0.6v20.1c0,10.4,6.9,20.4,17.3,24.6l4.6,1.7l5.3-1.7
	c1.9-0.8,3.9-1.8,5.6-3.2l-0.7-1c-1.7,1.2-3.5,2.2-5.3,2.9l-5,1.6l-4.1-1.6c-9.9-4.1-16.5-13.6-16.5-23.5V26.3c1.9,0,7.8,0,11.3-1.1
	c3.8-1.1,9-4,10.3-4.7c1.2,0.8,5.9,3.6,9.7,4.7c3.6,1,9.3,1.1,11.2,1.1v18.9C80.5,47.8,80.2,50.5,79.2,53z"/>
<path class="st1" d="M69.1,51.9l2.7,1.1l0.5-0.7c0.5-0.7,0.8-1.6,1.2-2.4c0.4-0.8,0.6-1.7,0.7-2.5l0.1-0.8l-2.7-1.1
	c0-0.7,0-1.3,0-2.1l2.7-1.2l-0.2-0.8c-0.4-1.7-1.1-3.4-2.1-4.9l-0.5-0.7l-2.7,1.2c-0.5-0.5-1-1-1.5-1.5l1.1-2.7l-0.7-0.5
	c-0.7-0.5-1.6-0.8-2.3-1.2c-0.8-0.4-1.7-0.6-2.5-0.7l-0.8-0.1L61,32.9c-0.7,0-1.3,0-2.1,0l-1.2-2.7l-0.8,0.2
	c-1.7,0.4-3.4,1.1-4.9,2.1L51.3,33l1.2,2.7c-0.5,0.5-1,1-1.5,1.5L48.4,36l-0.5,0.7c-0.5,0.7-0.8,1.6-1.2,2.3
	c-0.4,0.8-0.6,1.7-0.7,2.5l-0.1,0.8l2.7,1.1c0,0.7,0,1.3,0,2.1l-2.7,1.2l0.2,0.8c0.4,1.7,1.1,3.4,2.1,4.9l0.5,0.7l2.7-1.2
	c0.5,0.5,1,1,1.5,1.5l-1.1,2.7l0.7,0.5c0.7,0.5,1.6,0.8,2.4,1.2c0.8,0.4,1.7,0.6,2.5,0.7l0.8,0.1l1.1-2.7c0.7,0,1.3,0,2.1,0l1.2,2.7
	l0.8-0.2c1.7-0.4,3.4-1.1,4.9-2.1l0.7-0.5l-1.2-2.7C68.2,53,68.6,52.5,69.1,51.9z M66.6,52.8L66.2,53l1.1,2.5
	c-1.3,0.8-2.7,1.5-4.2,1.8L62,54.8L61.5,55c-0.8,0.1-1.8,0.1-2.7,0h-0.5l-1.1,2.7c-0.7-0.1-1.5-0.4-2.2-0.6c-0.7-0.2-1.5-0.6-2.1-1
	l1.1-2.7l-0.4-0.2c-0.7-0.5-1.3-1.2-1.9-1.8L51.5,51L49,52.1c-0.8-1.3-1.5-2.7-1.8-4.2l2.5-1.1l-0.1-0.5c-0.1-0.8-0.1-1.8,0-2.7
	v-0.5L46.9,42c0.1-0.7,0.4-1.5,0.6-2.2s0.6-1.3,1-2.1l2.7,1.1l0.2-0.4c0.5-0.7,1.1-1.3,1.8-1.9l0.4-0.2l-1.1-2.5
	c1.3-0.8,2.7-1.5,4.2-1.8l1.1,2.5l0.5-0.1c0.8-0.1,1.8-0.1,2.7,0h0.5l1.1-2.7c0.7,0.1,1.5,0.4,2.2,0.6c0.7,0.2,1.3,0.6,2.1,1
	l-1.1,2.7l0.4,0.2c0.7,0.5,1.3,1.1,1.9,1.8l0.2,0.4l2.5-1.1c0.8,1.3,1.5,2.7,1.8,4.2l-2.3,1.1l0.1,0.5c0.1,0.8,0.1,1.8,0,2.7v0.5
	l2.7,1.1c-0.1,0.7-0.4,1.5-0.6,2.2c-0.2,0.7-0.6,1.5-1,2.1l-2.7-1.1l-0.2,0.4C67.9,51.6,67.2,52.2,66.6,52.8z"/>
<path class="st1" d="M80.6,64.2c0.2,0.1,0.6,0,0.7-0.2l0.1-0.1c0.2-0.4,0.4-0.7,0.5-1.1c0.1-0.4,0.2-0.7,0.4-1.1v-0.1
	c0-0.2-0.1-0.6-0.4-0.7l-0.7-0.2c0-0.1,0-0.2,0-0.4l0.7-0.2c0.2-0.1,0.4-0.4,0.4-0.7v-0.1c-0.1-0.7-0.5-1.5-1-2.2l-0.1-0.1
	c-0.1-0.2-0.5-0.4-0.7-0.2l-0.7,0.2c-0.1-0.1-0.2-0.2-0.2-0.2l0.2-0.7c0.1-0.2,0-0.6-0.2-0.7L79.4,55c-0.4-0.2-0.7-0.4-1.1-0.5
	c-0.4-0.1-0.7-0.2-1.1-0.4h-0.1c-0.2,0-0.6,0.1-0.7,0.4l-0.2,0.7c-0.1,0-0.2,0-0.4,0l-0.2-0.7c-0.1-0.2-0.4-0.4-0.7-0.4h-0.1
	c-0.7,0.1-1.5,0.5-2.2,1l-0.1,0.1c-0.2,0.1-0.4,0.5-0.2,0.7l0.2,0.7c-0.1,0.1-0.2,0.2-0.2,0.2l-0.7-0.2c-0.2-0.1-0.6,0-0.7,0.2
	L70.6,57c-0.2,0.4-0.4,0.7-0.5,1.1c-0.1,0.4-0.2,0.7-0.4,1.1v0.1c0,0.2,0.1,0.6,0.4,0.7l0.7,0.2c0,0.1,0,0.2,0,0.4l-0.7,0.2
	c-0.2,0.1-0.4,0.4-0.4,0.7v0.1c0.1,0.7,0.5,1.5,1,2.2l0.1,0.1c0.1,0.2,0.5,0.4,0.7,0.2l0.7-0.2c0.1,0.1,0.2,0.2,0.2,0.2L72.3,65
	c-0.1,0.2,0,0.6,0.2,0.7l0.1,0.1c0.4,0.2,0.7,0.4,1.1,0.5s0.7,0.2,1.1,0.4h0.1h0.1c0.2,0,0.5-0.1,0.6-0.4l0.2-0.7c0.1,0,0.2,0,0.4,0
	l0.2,0.7c0.1,0.2,0.4,0.4,0.7,0.4h0.1c0.7-0.1,1.5-0.5,2.2-1l0.1-0.1c0.2-0.1,0.4-0.5,0.2-0.7l-0.2-0.7c0.1-0.1,0.2-0.2,0.2-0.2
	L80.6,64.2z M79.2,62.9c-0.2,0.2-0.5,0.5-0.7,0.7c-0.2,0.1-0.2,0.5-0.1,0.7l0.2,0.6c-0.4,0.2-0.7,0.4-1.1,0.5l-0.2-0.6
	c-0.1-0.2-0.4-0.4-0.6-0.4c-0.4,0-0.7,0-1,0c-0.2,0-0.5,0.1-0.6,0.4l-0.2,0.6c-0.2,0-0.4-0.1-0.6-0.2C74,65,73.9,65,73.7,64.9
	l0.2-0.6c0.1-0.2,0-0.6-0.2-0.7c-0.2-0.2-0.5-0.5-0.7-0.7c-0.1-0.2-0.5-0.2-0.7-0.1L71.7,63c-0.2-0.4-0.4-0.7-0.5-1.1l0.6-0.2
	c0.2-0.1,0.4-0.4,0.4-0.6c0-0.4,0-0.7,0-1c0-0.2-0.1-0.5-0.4-0.6l-0.6-0.2c0-0.2,0.1-0.4,0.2-0.6c0.1-0.2,0.1-0.4,0.2-0.5l0.6,0.2
	c0.2,0.1,0.6,0,0.7-0.2c0.2-0.2,0.5-0.5,0.7-0.7c0.2-0.1,0.2-0.5,0.1-0.7l-0.2-0.6c0.4-0.2,0.7-0.4,1.1-0.5l0.2,0.6
	c0.1,0.2,0.4,0.4,0.6,0.4c0.4,0,0.7,0,1,0c0.2,0,0.5-0.1,0.6-0.4l0.2-0.6c0.2,0,0.4,0.1,0.6,0.2c0.2,0.1,0.4,0.1,0.5,0.2l-0.2,0.6
	c-0.1,0.2,0,0.6,0.2,0.7c0.2,0.2,0.5,0.5,0.7,0.7c0.1,0.2,0.5,0.2,0.7,0.1l0.6-0.2c0.2,0.4,0.4,0.7,0.5,1.1l-0.6,0.2
	c-0.2,0.1-0.4,0.4-0.4,0.6c0,0.4,0,0.7,0,1c0,0.2,0.1,0.5,0.4,0.6l0.6,0.2c0,0.2-0.1,0.4-0.2,0.6c-0.1,0.2-0.1,0.4-0.2,0.5l-0.6-0.2
	C79.7,62.5,79.4,62.6,79.2,62.9z"/>
<path class="st1" d="M60,40.4c-2.4,0-4.4,1.9-4.4,4.4c0,2.4,1.9,4.4,4.4,4.4c2.4,0,4.4-1.9,4.4-4.4C64.4,42.4,62.5,40.4,60,40.4z
	 M60,47.9c-1.7,0-3.2-1.5-3.2-3.2c0-1.7,1.5-3.2,3.2-3.2c1.7,0,3.2,1.5,3.2,3.2C63.2,46.5,61.7,47.9,60,47.9z"/>
</svg>
