<?xml version="1.0" encoding="utf-8"?>
<!-- Generator: Adobe Illustrator 22.1.0, SVG Export Plug-In . SVG Version: 6.00 Build 0)  -->
<svg version="1.1" id="Layer_1" xmlns="http://www.w3.org/2000/svg" xmlns:xlink="http://www.w3.org/1999/xlink" x="0px" y="0px"
	 width="100px" height="100px" viewBox="0 0 100 100" style="enable-background:new 0 0 100 100;" xml:space="preserve">
<style type="text/css">
	.st0{fill:#FFFFFF;stroke:url(#SVGID_1_);stroke-width:3.2;stroke-linecap:round;stroke-linejoin:round;}
	.st1{fill:#FFFFFF;stroke:url(#SVGID_2_);stroke-width:3.2;}
	.st2{fill:#FFFFFF;stroke:url(#SVGID_3_);stroke-width:3.2;stroke-linecap:round;stroke-linejoin:round;}
	.st3{fill:#FFFFFF;stroke:url(#SVGID_4_);stroke-width:3.2;stroke-linecap:round;stroke-linejoin:round;}
	.st4{fill:none;stroke:url(#SVGID_5_);stroke-width:3.2;stroke-linecap:round;}
	.st5{fill:none;stroke:url(#SVGID_6_);stroke-width:3.2;stroke-linecap:round;}
	.st6{fill:none;stroke:url(#SVGID_7_);stroke-width:3.2;stroke-linecap:round;}
</style>
<linearGradient id="SVGID_1_" gradientUnits="userSpaceOnUse" x1="78.9959" y1="31.3145" x2="101.6159" y2="25.8145" gradientTransform="matrix(1 0 0 -1 -11.71 85.5)">
	<stop  offset="0" style="stop-color:#2EE5FF"/>
	<stop  offset="1" style="stop-color:#44D83D"/>
</linearGradient>
<path class="st0" d="M70.3,41.9v37.5l16.3-7.5V34.4L70.3,41.9z"/>
<linearGradient id="SVGID_2_" gradientUnits="userSpaceOnUse" x1="23.1271" y1="56.6232" x2="48.2371" y2="45.6832" gradientTransform="matrix(1 0 0 -1 -11.71 85.5)">
	<stop  offset="0" style="stop-color:#2EE5FF"/>
	<stop  offset="1" style="stop-color:#44D83D"/>
</linearGradient>
<path class="st1" d="M32.8,18.6H14.7c-0.6,0-1.1,0.5-1.1,1.1l0,0v29.1c0,0.6,0.5,1.1,1.1,1.1h18.1c0.6,0,1.1-0.5,1.1-1.1V19.7
	C33.9,19.1,33.4,18.6,32.8,18.6z"/>
<linearGradient id="SVGID_3_" gradientUnits="userSpaceOnUse" x1="62.7334" y1="31.3042" x2="85.3634" y2="25.8042" gradientTransform="matrix(1 0 0 -1 -11.71 85.5)">
	<stop  offset="0" style="stop-color:#2EE5FF"/>
	<stop  offset="1" style="stop-color:#44D83D"/>
</linearGradient>
<path class="st2" d="M70.3,41.9v37.5L54,71.9V34.4L70.3,41.9z"/>
<linearGradient id="SVGID_4_" gradientUnits="userSpaceOnUse" x1="74.4761" y1="62.0816" x2="89.8161" y2="39.7216" gradientTransform="matrix(1 0 0 -1 -11.71 85.5)">
	<stop  offset="0" style="stop-color:#2EE5FF"/>
	<stop  offset="1" style="stop-color:#44D83D"/>
</linearGradient>
<path class="st3" d="M54,34.4l16.3,7.5l16.3-7.5l-16.3-7.5L54,34.4z"/>
<linearGradient id="SVGID_5_" gradientUnits="userSpaceOnUse" x1="35.9696" y1="23.3793" x2="56.5296" y2="14.1893" gradientTransform="matrix(1 0 0 -1 -11.71 85.5)">
	<stop  offset="0" style="stop-color:#2EE5FF"/>
	<stop  offset="1" style="stop-color:#44D83D"/>
</linearGradient>
<path class="st4" d="M25.1,57.1c-0.3,5.9,1.6,10.2,5.8,13.1s9.2,3.4,15,1.6"/>
<linearGradient id="SVGID_6_" gradientUnits="userSpaceOnUse" x1="53.9803" y1="14.7592" x2="57.2503" y2="16.1892" gradientTransform="matrix(1 0 0 -1 -11.71 85.5)">
	<stop  offset="0" style="stop-color:#2EE5FF"/>
	<stop  offset="1" style="stop-color:#44D83D"/>
</linearGradient>
<path class="st5" d="M40.6,67.7l6.5,4.7"/>
<linearGradient id="SVGID_7_" gradientUnits="userSpaceOnUse" x1="54.3249" y1="11.0302" x2="58.8149" y2="8.8602" gradientTransform="matrix(1 0 0 -1 -11.71 85.5)">
	<stop  offset="0" style="stop-color:#2EE5FF"/>
	<stop  offset="1" style="stop-color:#44D83D"/>
</linearGradient>
<path class="st6" d="M42.7,78.7l4.3-6.3"/>
</svg>
