<?xml version="1.0" encoding="utf-8"?>
<!-- Generator: Adobe Illustrator 22.1.0, SVG Export Plug-In . SVG Version: 6.00 Build 0)  -->
<svg version="1.1" id="Layer_1" xmlns="http://www.w3.org/2000/svg" xmlns:xlink="http://www.w3.org/1999/xlink" x="0px" y="0px"
	 width="100px" height="100px" viewBox="0 0 100 100" style="enable-background:new 0 0 100 100;" xml:space="preserve">
<style type="text/css">
	.st0{fill:#FACA22;}
</style>
<path class="st0" d="M92.1,89c-28.2,0-56.3,0-84.5,0c-1.3-0.5-2.6-0.9-3.8-1.6c-1.9-1.2-2.6-3.1-3.1-5.2c0-21.4,0-42.9,0-64.3
	c0.5-1.2,0.9-2.6,1.6-3.7c1.2-1.9,3.2-2.7,5.3-3.2c28.2,0,56.3,0,84.5,0c1.3,0.5,2.6,0.9,3.8,1.6c1.9,1.2,2.6,3.1,3.1,5.2
	c0,21.5,0,42.9,0,64.3c-0.5,1.2-0.9,2.6-1.6,3.7C96.2,87.8,94.2,88.6,92.1,89z M3.6,26.5c0,0.4,0,0.7,0,1c0,17.7,0,35.5,0,53.2
	c0,3.4,1.9,5.4,5.3,5.4c27.3,0,54.6,0,81.9,0c3.4,0,5.3-1.9,5.3-5.4c0-17.7,0-35.4,0-53c0-0.4,0-0.7,0-1.1
	C65.2,26.5,34.5,26.5,3.6,26.5z M3.6,23.4c30.9,0,61.7,0,92.5,0c0-1.8,0.1-3.5,0-5.1c-0.2-2.7-2.3-4.4-5.3-4.4
	c-27.3,0-54.6,0-81.9,0c-0.4,0-0.9,0-1.3,0.1c-2.2,0.4-3.8,2.1-4,4.4C3.5,20,3.6,21.7,3.6,23.4z"/>
<path class="st0" d="M43.2,55c1.2,0,2.2,0,3.3,0c0-0.4,0-0.8,0-1.1c0-3.6,0-7.2,0-10.8c0-3.5,1.8-5.3,5.2-5.3c0.7,0,1-0.1,1.1-0.9
	c0.2-1.9,1.8-3.4,3.6-3.7c0.5-0.1,1-0.1,1.5-0.1c8.8,0,17.6,0,26.4,0c3.6,0,5.3,1.8,5.3,5.4c0,0.8,0,1.6,0,2.4
	c-0.1,2.6-1.8,4.5-4.4,4.6c-2.1,0.1-4.2,0-6.3,0c-7.1,0-14.2,0-21.3,0c-2.6,0-4.3-1.2-4.9-3.3c0,0,0-0.1,0-0.1
	c0.1-1.3-0.7-1.4-1.6-1.3c-1.1,0.1-1.8,0.6-1.8,1.8c0,4,0,8,0,12c0,0.2,0.4,0.5,0.6,0.6c0.2,0.1,0.5,0,0.8,0c1.6,0,1.6,0,2.1-1.5
	c0.6-1.8,1.9-2.9,3.8-3.1c0.4,0,0.8-0.1,1.3-0.1c8.8,0,17.6,0,26.4,0c1,0,2.1,0.2,3,0.6c1.5,0.7,2.2,2.2,2.3,3.9c0,0.9,0,1.8,0,2.7
	c0,3.1-1.9,5-4.9,5.1c-3.2,0-6.4,0-9.7,0c-5.8,0-11.5,0-17.3,0c-2.6,0-4.3-1.2-4.9-3.3c-0.4-1.4-0.4-1.4-2-1.4c-0.5,0-0.9,0-1.5,0
	c0,0.4-0.1,0.7-0.1,1c0,3.7,0,7.4,0,11.1c0,1.9,1.2,2.8,2.9,2.3c0.2-0.1,0.4-0.4,0.4-0.6c0.4-2.5,2.1-4,4.6-4c9.2,0,18.5,0,27.7,0
	c2.7,0,4.6,1.9,4.6,4.7c0,0.8,0,1.6,0,2.4c0,3.4-1.8,5.3-5.2,5.3c-5.2,0-10.3,0-15.5,0c-3.5,0-7,0-10.4,0c-3.9,0-5.1-0.9-6-4.7
	c-0.7,0-1.5-0.1-2.2-0.2c-2.2-0.3-3.8-1.9-3.8-4.1c-0.1-3.7-0.1-7.4-0.1-11.1c0-0.6,0-1.2,0-1.9c-1.1,0-2.1,0-3.3,0
	c0,1.4,0,2.8,0,4.1c0,3.4-1.8,5.2-5.1,5.2c-7.9,0-15.7,0-23.6,0c-3.3,0-5.2-1.9-5.2-5.2c0-3.8,0-7.7,0-11.5c0-3.2,1.8-5.1,5-5.1
	c8,0,15.9,0,23.9,0c3.2,0,5,1.9,5,5.1C43.2,52.1,43.2,53.5,43.2,55z M26.2,64.6c3.9,0,7.9,0,11.8,0c1.7,0,2.3-0.6,2.3-2.3
	c0-3.8,0-7.6,0-11.4c0-1.7-0.5-2.3-2.3-2.3c-7.8,0-15.7,0-23.5,0c-1.8,0-2.3,0.5-2.3,2.4c0,3.7,0,7.4,0,11.1c0,1.9,0.5,2.4,2.4,2.4
	C18.5,64.6,22.4,64.6,26.2,64.6z M71.1,77.2c4.5,0,9,0,13.5,0c1.5,0,2.1-0.6,2.1-2.1c0-0.6,0-1.2,0-1.9c0-2-0.5-2.5-2.5-2.5
	c-8.8,0-17.5,0-26.3,0c-0.3,0-0.6,0-0.9,0c-0.9,0.1-1.5,0.6-1.5,1.6c-0.1,0.8,0,1.7,0,2.6c0,1.8,0.5,2.4,2.4,2.4
	C62.4,77.2,66.8,77.2,71.1,77.2z M71.2,42.5c4.5,0,9,0,13.5,0c1.5,0,2.1-0.6,2.1-2c0-0.6,0-1.2,0-1.9c0-2.1-0.5-2.6-2.6-2.6
	c-8.7,0-17.4,0-26.1,0c-0.3,0-0.6,0-0.9,0c-1.1,0.1-1.6,0.7-1.7,1.8c0,0.8,0,1.6,0,2.4c0,1.8,0.5,2.3,2.3,2.3
	C62.3,42.5,66.7,42.5,71.2,42.5z M71.3,59.8c1.9,0,3.8,0,5.7,0c2.6,0,5.2,0,7.7,0c1.5,0,2.1-0.6,2.1-2.1c0-0.6,0-1.2,0-1.9
	c0-2.1-0.4-2.6-2.6-2.6c-8.7,0-17.4,0-26.1,0c-0.3,0-0.6,0-1,0c-0.9,0.1-1.5,0.6-1.5,1.6c-0.1,0.8,0,1.6,0,2.5
	c0,1.9,0.5,2.4,2.4,2.4C62.4,59.8,66.8,59.8,71.3,59.8z"/>
</svg>
