<?xml version="1.0" encoding="UTF-8"?>
<svg width="14px" height="15px" viewBox="0 0 14 15" version="1.1" xmlns="http://www.w3.org/2000/svg" xmlns:xlink="http://www.w3.org/1999/xlink">
    <!-- Generator: sketchtool 52.3 (67297) - http://www.bohemiancoding.com/sketch -->
    <title>EB6E5067-CE1F-4DCA-8A12-A4BE7ACEE043</title>
    <desc>Created with sketchtool.</desc>
    <g id="Page-1" stroke="none" stroke-width="1" fill="none" fill-rule="evenodd">
        <g id="Main-Page" transform="translate(-1733.000000, -3437.000000)" fill="#FEBB16">
            <g id="Footer-1920" transform="translate(0.000000, 3392.000000)">
                <g id="Footer">
                    <g id="Social" transform="translate(1527.000000, 36.000000)">
                        <g id="linkedin" transform="translate(206.000000, 9.000000)">
                            <path d="M1.63478261,0.520652174 C2.53695652,0.520652174 3.2673913,1.25217391 3.2673913,2.15217391 C3.2673913,3.05434783 2.53695652,3.78695652 1.63478261,3.78695652 C0.730434783,3.78695652 1.69642078e-13,3.05434783 1.69642078e-13,2.15217391 C1.69642078e-13,1.25217391 0.730434783,0.520652174 1.63478261,0.520652174 Z M0.223913043,14.0847826 L0.223913043,5.02391304 L3.04456522,5.02391304 L3.04456522,14.0847826 L0.223913043,14.0847826 Z M5,5.09347826 L7.70108696,5.09347826 L7.70108696,6.3326087 L7.73913043,6.3326087 C8.11521739,5.61956522 9.03369565,4.86847826 10.4054348,4.86847826 C13.2576087,4.86847826 13.7836957,6.74456522 13.7836957,9.18478261 L13.7836957,14.1543478 L10.9684783,14.1543478 L10.9684783,9.74891304 C10.9684783,8.69782609 10.9478261,7.34565217 9.50543478,7.34565217 C8.03804348,7.34565217 7.81521739,8.49021739 7.81521739,9.67173913 L7.81521739,14.1543478 L5,14.1543478 L5,5.09347826 Z" id="Combined-Shape"></path>
                        </g>
                    </g>
                </g>
            </g>
        </g>
    </g>
</svg>