<?xml version="1.0" encoding="UTF-8"?>
<svg width="9px" height="16px" viewBox="0 0 9 16" version="1.1" xmlns="http://www.w3.org/2000/svg" xmlns:xlink="http://www.w3.org/1999/xlink">
    <!-- Generator: sketchtool 52.3 (67297) - http://www.bohemiancoding.com/sketch -->
    <title>BFA4604F-85DD-4718-95C5-4F83CE3D370C</title>
    <desc>Created with sketchtool.</desc>
    <defs>
        <polygon id="path-1" points="0 0.000222222222 8.23733333 0.000222222222 8.23733333 15.7768889 0 15.7768889"></polygon>
    </defs>
    <g id="Page-1" stroke="none" stroke-width="1" fill="none" fill-rule="evenodd">
        <g id="Team" transform="translate(-1178.000000, -3286.000000)">
            <g id="Screen-4" transform="translate(0.000000, 2694.000000)">
                <g id="social" transform="translate(1117.000000, 583.000000)">
                    <g id="fb" transform="translate(61.000000, 9.000000)">
                        <mask id="mask-2" fill="white">
                            <use xlink:href="#path-1"></use>
                        </mask>
                        <g id="Clip-2"></g>
                        <path d="M6.56844444,2.66277778 C7.05733333,2.64611111 7.54511111,2.65944444 8.03622222,2.65833333 L8.23733333,2.65833333 L8.23733333,0.116111111 C7.97622222,0.0894444444 7.70288889,0.0516666667 7.42955556,0.0383333333 C6.92844444,0.0172222222 6.42733333,-0.00833333333 5.924,0.00277777778 C5.15844444,0.0194444444 4.434,0.206111111 3.80066667,0.659444444 C3.074,1.18166667 2.67511111,1.91611111 2.524,2.78166667 C2.46066667,3.13944444 2.444,3.50944444 2.43511111,3.87277778 C2.42066667,4.44388889 2.43177778,5.01388889 2.43288889,5.585 L2.43288889,5.79944444 L-0.000444444444,5.79944444 L-0.000444444444,8.63833333 L2.41844444,8.63833333 L2.41844444,15.7772222 L5.374,15.7772222 L5.374,8.65055556 L7.78511111,8.65055556 C7.90955556,7.70611111 8.02955556,6.77055556 8.15622222,5.79722222 C7.96177778,5.79722222 7.78844444,5.79611111 7.614,5.79722222 C6.92844444,5.79944444 5.35511111,5.79722222 5.35511111,5.79722222 C5.35511111,5.79722222 5.36177778,4.38944444 5.37844444,3.77833333 C5.40177778,2.94166667 5.89844444,2.68611111 6.56844444,2.66277778" id="Fill-1" fill="#FEBB16" mask="url(#mask-2)"></path>
                    </g>
                </g>
            </g>
        </g>
    </g>
</svg>