<?xml version="1.0" encoding="UTF-8"?>
<svg width="42px" height="58px" viewBox="0 0 42 58" version="1.1" xmlns="http://www.w3.org/2000/svg" xmlns:xlink="http://www.w3.org/1999/xlink">
    <!-- Generator: sketchtool 52.3 (67297) - http://www.bohemiancoding.com/sketch -->
    <title>53C70DCC-8A5C-4B87-8E3E-1493E440B4B8</title>
    <desc>Created with sketchtool.</desc>
    <g id="Page-1" stroke="none" stroke-width="1" fill="none" fill-rule="evenodd">
        <g id="Contact-1920" transform="translate(-876.000000, -1193.000000)" fill="#FEBB16" fill-rule="nonzero">
            <g id="map-marker" transform="translate(876.000000, 1193.000000)">
                <path d="M21,0 C26.5695473,-3.31476313e-06 31.9109813,2.25326307 35.849246,6.26410557 C39.7875107,10.2749481 42.0000033,15.7148188 42,21.3870067 C42,36.8815884 22.9489101,58 21,58 C19.0510899,58 -4.64269994e-15,36.8815884 -3.55271368e-15,21.3870067 C-3.25478113e-06,15.7148188 2.21248935,10.2749481 6.150754,6.26410557 C10.0890187,2.25326307 15.4304527,-3.31476313e-06 21,0 Z M21.5,31 C27.2989899,31 32,26.2989899 32,20.5 C32,14.7010101 27.2989899,10 21.5,10 C15.7010101,10 11,14.7010101 11,20.5 C11,26.2989899 15.7010101,31 21.5,31 Z" id="map_marker1-copy"></path>
            </g>
        </g>
    </g>
</svg>