<?xml version="1.0" encoding="UTF-8"?>
<svg width="644px" height="490px" viewBox="0 0 644 490" version="1.1" xmlns="http://www.w3.org/2000/svg" xmlns:xlink="http://www.w3.org/1999/xlink">
    <!-- Generator: Sketch 52.3 (67297) - http://www.bohemiancoding.com/sketch -->
    <title>uxdesign-visual</title>
    <desc>Created with Sketch.</desc>
    <defs>
        <linearGradient x1="99.6703396%" y1="101.903083%" x2="-2.22044605e-14%" y2="4.1015625%" id="linearGradient-1">
            <stop stop-color="#EF78FF" offset="0%"></stop>
            <stop stop-color="#8FDFFF" offset="100%"></stop>
        </linearGradient>
        <linearGradient x1="99.6703396%" y1="101.903083%" x2="0%" y2="4.1015625%" id="linearGradient-2">
            <stop stop-color="#EF78FF" offset="0%"></stop>
            <stop stop-color="#8FDFFF" offset="100%"></stop>
        </linearGradient>
        <linearGradient x1="100%" y1="101.978938%" x2="0%" y2="0%" id="linearGradient-3">
            <stop stop-color="#1F1A9A" offset="0%"></stop>
            <stop stop-color="#02F0F4" offset="100%"></stop>
        </linearGradient>
        <linearGradient x1="-7.35994225%" y1="-148.122901%" x2="314.307649%" y2="901.265183%" id="linearGradient-4">
            <stop stop-color="#1F1A9A" offset="0%"></stop>
            <stop stop-color="#02F0F4" offset="100%"></stop>
        </linearGradient>
        <linearGradient x1="2.81185679%" y1="2.81186602%" x2="117.580423%" y2="117.581412%" id="linearGradient-5">
            <stop stop-color="#1F1A9A" offset="0%"></stop>
            <stop stop-color="#02F0F4" offset="100%"></stop>
        </linearGradient>
        <linearGradient x1="2.11709547%" y1="-3.01341652%" x2="106.415687%" y2="112.460025%" id="linearGradient-6">
            <stop stop-color="#1F1A9A" offset="0%"></stop>
            <stop stop-color="#02F0F4" offset="100%"></stop>
        </linearGradient>
        <linearGradient x1="86.8588859%" y1="84.4454705%" x2="12.0143581%" y2="15.4017857%" id="linearGradient-7">
            <stop stop-color="#FF8D28" offset="0%"></stop>
            <stop stop-color="#FFF716" offset="100%"></stop>
        </linearGradient>
        <linearGradient x1="-8.31140263%" y1="-10.7399716%" x2="126.00964%" y2="129.174548%" id="linearGradient-8">
            <stop stop-color="#1F1A9A" offset="0%"></stop>
            <stop stop-color="#02F0F4" offset="100%"></stop>
        </linearGradient>
        <linearGradient x1="-35.1355073%" y1="-26.7296406%" x2="127.373277%" y2="151.950562%" id="linearGradient-9">
            <stop stop-color="#1F1A9A" offset="0%"></stop>
            <stop stop-color="#02F0F4" offset="100%"></stop>
        </linearGradient>
        <linearGradient x1="15.1982852%" y1="-473.640111%" x2="107.808383%" y2="919.809728%" id="linearGradient-10">
            <stop stop-color="#1F1A9A" offset="0%"></stop>
            <stop stop-color="#02F0F4" offset="100%"></stop>
        </linearGradient>
        <linearGradient x1="3.65317361%" y1="-306.417535%" x2="185.411905%" y2="1091.29992%" id="linearGradient-11">
            <stop stop-color="#1F1A9A" offset="0%"></stop>
            <stop stop-color="#02F0F4" offset="100%"></stop>
        </linearGradient>
        <linearGradient x1="-1.88458507%" y1="25.4448766%" x2="597.996026%" y2="309.369556%" id="linearGradient-12">
            <stop stop-color="#1F1A9A" offset="0%"></stop>
            <stop stop-color="#02F0F4" offset="100%"></stop>
        </linearGradient>
        <linearGradient x1="1.88339027%" y1="3.51816136%" x2="99.2483196%" y2="114.645283%" id="linearGradient-13">
            <stop stop-color="#1F1A9A" offset="0%"></stop>
            <stop stop-color="#02F0F4" offset="100%"></stop>
        </linearGradient>
        <linearGradient x1="0.000244472867%" y1="49.9998914%" x2="99.9987312%" y2="49.9998914%" id="linearGradient-14">
            <stop stop-color="#1F1A9A" offset="0%"></stop>
            <stop stop-color="#02F0F4" offset="100%"></stop>
        </linearGradient>
        <linearGradient x1="0.000533892671%" y1="49.9998914%" x2="99.9980966%" y2="49.9998914%" id="linearGradient-15">
            <stop stop-color="#1F1A9A" offset="0%"></stop>
            <stop stop-color="#02F0F4" offset="100%"></stop>
        </linearGradient>
        <linearGradient x1="35.1249128%" y1="48.3316599%" x2="136.63953%" y2="52.169867%" id="linearGradient-16">
            <stop stop-color="#1F1A9A" offset="0%"></stop>
            <stop stop-color="#02F0F4" offset="100%"></stop>
        </linearGradient>
        <linearGradient x1="0.000720649549%" y1="50.0004262%" x2="99.9997846%" y2="50.0004262%" id="linearGradient-17">
            <stop stop-color="#1F1A9A" offset="0%"></stop>
            <stop stop-color="#02F0F4" offset="100%"></stop>
        </linearGradient>
    </defs>
    <g id="Page-1" stroke="none" stroke-width="1" fill="none" fill-rule="evenodd">
        <g id="Main-Page---Design-User-Interface" transform="translate(-1013.000000, -269.000000)">
            <g id="uxdesign-visual" transform="translate(993.000000, 217.000000)">
                <path d="M65.1541563,282.257848 C-24.3869731,151.914247 43.8804525,20.145207 163.108875,33.239396 C282.337297,46.3335849 334.378133,141.112977 454.294058,79.1865735 C574.209982,17.2601703 739.80738,149.368448 602.400561,289.280431 C464.993742,429.192414 149.647028,592.934074 60.8423218,489.847948 C-27.9623845,386.761822 154.695286,412.601449 65.1541563,282.257848 Z" id="Path-2" fill="url(#linearGradient-1)" opacity="0.5" transform="translate(339.234594, 277.287134) scale(1, -1) rotate(6.000000) translate(-339.234594, -277.287134) "></path>
                <path d="M559.338187,78.2857345 C611.775115,115.222498 609.037549,129.194037 545.323935,128.996913 C481.610322,128.79979 456.624591,109.928293 469.117457,85.7634633 C481.610322,61.5986332 506.901258,41.3489711 559.338187,78.2857345 Z" id="Path-3" fill="url(#linearGradient-2)" opacity="0.5"></path>
                <ellipse id="Oval-Copy-6" fill="#201B9B" opacity="0.199999988" cx="330.488372" cy="503.2537" rx="123.678647" ry="13.794926"></ellipse>
                <path d="M420.740362,476.250128 L240.282367,476.250128 C233.244423,476.250128 227.486106,470.49181 227.486106,463.453867 L227.486106,92.758121 C227.486106,85.7201773 233.244423,79.9618597 240.282367,79.9618597 L420.740362,79.9618597 C427.778306,79.9618597 433.536623,85.7201773 433.536623,92.758121 L433.536623,463.453867 C433.536623,470.49181 427.778306,476.250128 420.740362,476.250128" id="Fill-1" fill="#FFFFFF"></path>
                <path d="M420.740362,476.250128 L240.282367,476.250128 C233.244423,476.250128 227.486106,470.49181 227.486106,463.453867 L227.486106,92.758121 C227.486106,85.7201773 233.244423,79.9618597 240.282367,79.9618597 L420.740362,79.9618597 C427.778306,79.9618597 433.536623,85.7201773 433.536623,92.758121 L433.536623,463.453867 C433.536623,470.49181 427.778306,476.250128 420.740362,476.250128 Z" id="Stroke-3" stroke="url(#linearGradient-3)" stroke-width="5"></path>
                <path d="M295.428026,81.0991061 L295.428026,88.6318386 C295.428026,92.5073996 298.433441,95.6501613 302.140944,95.6501613 L358.882126,95.6501613 C362.588776,95.6501613 365.594192,92.5073996 365.594192,88.6318386 L365.594192,81.0991061 L295.428026,81.0991061 Z" id="Fill-6" fill="url(#linearGradient-4)"></path>
                <path d="M280.528912,278.778309 C280.528912,306.383257 302.906161,328.760506 330.511109,328.760506 C358.115203,328.760506 380.494158,306.383257 380.494158,278.778309 C380.494158,251.173362 358.115203,228.796113 330.511109,228.796113 C302.906161,228.796113 280.528912,251.173362 280.528912,278.778309" id="Fill-9" fill="url(#linearGradient-5)"></path>
                <path d="M343.420659,260.648481 C343.420659,267.439884 337.914855,272.944835 331.124305,272.944835 C324.332903,272.944835 318.827098,267.439884 318.827098,260.648481 C318.827098,253.857079 324.332903,248.352127 331.124305,248.352127 C337.914855,248.352127 343.420659,253.857079 343.420659,260.648481" id="Fill-12" fill="#FFFFFF"></path>
                <path d="M349.202096,305.792667 L313.045833,305.792667 C309.168566,305.792667 306.024951,302.649052 306.024951,298.771785 L306.024951,292.800197 C306.024951,284.346133 312.877775,277.493309 321.331839,277.493309 L340.91609,277.493309 C349.3693,277.493309 356.222978,284.346133 356.222978,292.800197 L356.222978,298.771785 C356.222978,302.649052 353.079363,305.792667 349.202096,305.792667" id="Fill-14" fill="#FFFFFF"></path>
                <path d="M433.435618,88.4346055 C433.435618,99.0563555 424.82544,107.666533 414.203691,107.666533 C403.581941,107.666533 394.97091,99.0563555 394.97091,88.4346055 C394.97091,77.8128556 403.581941,69.2026779 414.203691,69.2026779 C424.82544,69.2026779 433.435618,77.8128556 433.435618,88.4346055" id="Fill-16" fill="#F15B40"></path>
                <path d="M406.327421,81.0394755 L422.079619,96.7916732" id="Stroke-18" stroke="#FFFFFF" stroke-width="3" stroke-linecap="round" stroke-linejoin="round"></path>
                <path d="M422.079363,81.0394755 L406.327165,96.7916732" id="Stroke-20" stroke="#FFFFFF" stroke-width="3" stroke-linecap="round" stroke-linejoin="round"></path>
                <path d="M27,241.872186 C27,254.52001 37.2540707,264.774081 49.9018953,264.774081 C62.550573,264.774081 72.8037907,254.52001 72.8037907,241.872186 C72.8037907,229.223508 62.550573,218.97029 49.9018953,218.97029 C37.2540707,218.97029 27,229.223508 27,241.872186" id="Fill-23" fill="url(#linearGradient-6)"></path>
                <polyline id="Stroke-26" stroke="#FFFFFF" stroke-width="5" points="37.947884 240.97986 48.0313379 249.976485 63.099362 234.90846"></polyline>
                <path d="M307.299032,187.901309 L119.822714,187.901309 C116.505923,187.901309 113.817002,190.59023 113.817002,193.907874 L113.817002,244.426661 C113.817002,247.743452 116.505923,250.433226 119.822714,250.433226 L277.55199,250.433226 L293.373287,266.254523 L293.373287,250.433226 L307.299032,250.433226 C310.615823,250.433226 313.304744,247.743452 313.304744,244.426661 L313.304744,193.907874 C313.304744,190.59023 310.615823,187.901309 307.299032,187.901309" id="Fill-28" fill="#B9DBF4"></path>
                <path d="M295.439628,210.088405 L129.941315,210.088405 C128.533726,210.088405 127.382063,208.936742 127.382063,207.529153 C127.382063,206.121564 128.533726,204.969901 129.941315,204.969901 L295.439628,204.969901 C296.847216,204.969901 297.99888,206.121564 297.99888,207.529153 C297.99888,208.936742 296.847216,210.088405 295.439628,210.088405" id="Fill-30" fill="#9494F2"></path>
                <path d="M295.439628,221.178499 L129.941315,221.178499 C128.533726,221.178499 127.382063,220.026835 127.382063,218.619246 C127.382063,217.211658 128.533726,216.059994 129.941315,216.059994 L295.439628,216.059994 C296.847216,216.059994 297.99888,217.211658 297.99888,218.619246 C297.99888,220.026835 296.847216,221.178499 295.439628,221.178499" id="Fill-32" fill="#9494F2"></path>
                <path d="M238.282994,232.268592 L129.941315,232.268592 C128.533726,232.268592 127.382063,231.116928 127.382063,229.709339 C127.382063,228.301751 128.533726,227.150087 129.941315,227.150087 L238.282994,227.150087 C239.690583,227.150087 240.842246,228.301751 240.842246,229.709339 C240.842246,231.116928 239.690583,232.268592 238.282994,232.268592" id="Fill-34" fill="#9494F2"></path>
                <path d="M526.299451,286.377924 L373.101758,286.377924 C370.490468,286.377924 368.373113,284.260569 368.373113,281.649279 L368.373113,151.247699 C368.373113,148.635555 370.490468,146.519053 373.101758,146.519053 L526.299451,146.519053 C528.910741,146.519053 531.028096,148.635555 531.028096,151.247699 L531.028096,281.649279 C531.028096,284.260569 528.910741,286.377924 526.299451,286.377924" id="Fill-36" fill="#B9DBF4"></path>
                <path d="M508.529112,192.538674 L390.872609,192.538674 C387.554965,192.538674 384.866044,189.849753 384.866044,186.532962 L384.866044,170.108535 C384.866044,166.791744 387.554965,164.102823 390.872609,164.102823 L508.529112,164.102823 C511.845903,164.102823 514.534824,166.791744 514.534824,170.108535 L514.534824,186.532962 C514.534824,189.849753 511.845903,192.538674 508.529112,192.538674" id="Fill-38" fill="#F4F4F4"></path>
                <path d="M508.529112,231.423441 L390.872609,231.423441 C387.554965,231.423441 384.866044,228.73452 384.866044,225.417729 L384.866044,208.993301 C384.866044,205.676511 387.554965,202.987589 390.872609,202.987589 L508.529112,202.987589 C511.845903,202.987589 514.534824,205.676511 514.534824,208.993301 L514.534824,225.417729 C514.534824,228.73452 511.845903,231.423441 508.529112,231.423441" id="Fill-40" fill="#F4F4F4"></path>
                <path d="M508.745284,270.308208 L391.08878,270.308208 C387.771136,270.308208 385.082215,267.619287 385.082215,264.302496 L385.082215,247.878068 C385.082215,244.561277 387.771136,241.872356 391.08878,241.872356 L508.745284,241.872356 C512.062075,241.872356 514.750996,244.561277 514.750996,247.878068 L514.750996,264.302496 C514.750996,267.619287 512.062075,270.308208 508.745284,270.308208" id="Fill-42" fill="url(#linearGradient-7)"></path>
                <polygon id="Fill-44" fill="#000000" points="411.898743 182.998123 411.898743 175.832217 412.717703 175.832217 415.328141 179.742754 417.937725 175.832217 418.756686 175.832217 418.756686 182.998123 417.948815 182.998123 417.948815 177.193739 415.337525 181.032617 415.296577 181.032617 412.686992 177.203976 412.686992 182.998123"></polygon>
                <polygon id="Fill-46" fill="#000000" points="424.050158 182.998123 424.050158 180.162472 421.071188 175.832217 422.053088 175.832217 424.469022 179.41517 426.906283 175.832217 427.847235 175.832217 424.869118 180.152235 424.869118 182.998123"></polygon>
                <polygon id="Fill-48" fill="#000000" points="430.161737 182.998123 430.161737 175.832217 430.969608 175.832217 430.969608 182.250822 435.003843 182.250822 435.003843 182.998123"></polygon>
                <path d="M438.437677,181.513501 C438.973413,182.086773 439.64735,182.37341 440.459486,182.37341 C441.270769,182.37341 441.941293,182.08848 442.471058,181.518619 C442.99997,180.948759 443.264426,180.248377 443.264426,179.414914 C443.264426,178.589129 442.996558,177.8896 442.460821,177.316327 C441.925084,176.743055 441.251148,176.456419 440.439012,176.456419 C439.626876,176.456419 438.955499,176.741349 438.42744,177.311209 C437.898528,177.881069 437.634071,178.582304 437.634071,179.414914 C437.634071,180.2407 437.90194,180.940228 438.437677,181.513501 M443.069923,182.03047 C442.380631,182.757298 441.503661,183.120711 440.439012,183.120711 C439.374363,183.120711 438.499952,182.759004 437.817485,182.035588 C437.13587,181.313026 436.794637,180.438615 436.794637,179.414914 C436.794637,178.398891 437.139283,177.526186 437.828575,176.800211 C438.517867,176.072531 439.394837,175.709117 440.459486,175.709117 C441.524135,175.709117 442.397693,176.070825 443.079307,176.79424 C443.761774,177.517655 444.103861,178.391213 444.103861,179.414914 C444.103861,180.43179 443.758362,181.303642 443.069923,182.03047" id="Fill-50" fill="#000000"></path>
                <path d="M450.164256,183.120541 C449.065483,183.120541 448.183395,182.768217 447.517989,182.061863 C446.852583,181.35551 446.520734,180.472568 446.520734,179.414744 C446.520734,178.405545 446.857702,177.534546 447.533344,176.805159 C448.208987,176.074066 449.068896,175.708946 450.113071,175.708946 C450.686343,175.708946 451.179426,175.78743 451.592319,175.945251 C452.005211,176.101365 452.402748,176.341082 452.78493,176.661841 L452.262843,177.275209 C451.634973,176.730088 450.908145,176.456248 450.08236,176.456248 C449.297522,176.456248 448.647472,176.74459 448.132209,177.321275 C447.616947,177.898813 447.359315,178.595783 447.359315,179.414744 C447.359315,180.28233 447.616947,180.995508 448.132209,181.554278 C448.647472,182.113902 449.335058,182.393713 450.194967,182.393713 C450.986629,182.393713 451.675921,182.15485 452.262843,181.677976 L452.262843,179.896736 L450.08236,179.896736 L450.08236,179.169055 L453.040855,179.169055 L453.040855,182.026034 C452.221895,182.755421 451.263028,183.120541 450.164256,183.120541" id="Fill-52" fill="#000000"></path>
                <polygon id="Fill-54" fill="#000000" points="455.957976 182.997441 456.765847 182.997441 456.765847 175.831534 455.957976 175.831534"></polygon>
                <polygon id="Fill-56" fill="#000000" points="459.889756 182.998123 459.889756 175.832217 460.647294 175.832217 465.161815 181.575179 465.161815 175.832217 465.950065 175.832217 465.950065 182.998123 465.305133 182.998123 460.678005 177.12208 460.678005 182.998123"></polygon>
                <polygon id="Fill-57" fill="#000000" points="427.206739 260.628775 427.206739 252.268551 433.249987 252.268551 433.249987 253.12846 428.15025 253.12846 428.15025 255.982879 432.712544 255.982879 432.712544 256.842788 428.15025 256.842788 428.15025 259.768866 433.309703 259.768866 433.309703 260.628775"></polygon>
                <polygon id="Fill-58" fill="#000000" points="436.403242 260.628775 436.403242 252.268551 437.287037 252.268551 442.553978 258.968673 442.553978 252.268551 443.473603 252.268551 443.473603 260.628775 442.721182 260.628775 437.322866 253.773391 437.322866 260.628775"></polygon>
                <polygon id="Fill-59" fill="#000000" points="449.241987 260.628775 449.241987 253.140403 446.43534 253.140403 446.43534 252.268551 453.004087 252.268551 453.004087 253.140403 450.197441 253.140403 450.197441 260.628775"></polygon>
                <polygon id="Fill-60" fill="#000000" points="455.965825 260.628775 455.965825 252.268551 462.009072 252.268551 462.009072 253.12846 456.909336 253.12846 456.909336 255.982879 461.471629 255.982879 461.471629 256.842788 456.909336 256.842788 456.909336 259.768866 462.068788 259.768866 462.068788 260.628775"></polygon>
                <path d="M466.106265,256.532436 L468.674048,256.532436 C469.311302,256.532436 469.82827,256.376321 470.226661,256.066652 C470.625051,255.756129 470.82382,255.33044 470.82382,254.788732 C470.82382,254.271763 470.634435,253.867401 470.256519,253.576499 C469.878602,253.285598 469.354809,253.13972 468.685138,253.13972 L466.106265,253.13972 L466.106265,256.532436 Z M465.162754,260.628946 L465.162754,252.268721 L468.756797,252.268721 C469.784763,252.268721 470.576425,252.546827 471.134342,253.103891 C471.563443,253.533845 471.778421,254.092615 471.778421,254.775936 C471.778421,255.445607 471.571974,255.986462 471.158229,256.401061 C470.744483,256.814807 470.194244,257.085234 469.51007,257.213197 L472.077853,260.628946 L470.919365,260.628946 L468.4949,257.380401 L466.106265,257.380401 L466.106265,260.628946 L465.162754,260.628946 Z" id="Fill-61" fill="#000000"></path>
                <polygon id="Fill-62" fill="#000000" points="413.46492 216.821542 413.60056 215.115374 412.195531 216.111776 411.826145 215.470257 413.410322 214.745989 411.826145 214.008924 412.195531 213.381907 413.60056 214.363807 413.46492 212.657639 414.174686 212.657639 414.038192 214.363807 415.443222 213.381907 415.812607 214.008924 414.229283 214.745989 415.812607 215.470257 415.443222 216.111776 414.038192 215.115374 414.174686 216.821542"></polygon>
                <polygon id="Fill-63" fill="#000000" points="422.064093 216.821542 422.199733 215.115374 420.794703 216.111776 420.425318 215.470257 422.009495 214.745989 420.425318 214.008924 420.794703 213.381907 422.199733 214.363807 422.064093 212.657639 422.773859 212.657639 422.637365 214.363807 424.042395 213.381907 424.41178 214.008924 422.828456 214.745989 424.41178 215.470257 424.042395 216.111776 422.637365 215.115374 422.773859 216.821542"></polygon>
                <polygon id="Fill-64" fill="#000000" points="430.663265 216.821542 430.798906 215.115374 429.393876 216.111776 429.024491 215.470257 430.608668 214.745989 429.024491 214.008924 429.393876 213.381907 430.798906 214.363807 430.663265 212.657639 431.373031 212.657639 431.236538 214.363807 432.641567 213.381907 433.010953 214.008924 431.427629 214.745989 433.010953 215.470257 432.641567 216.111776 431.236538 215.115374 431.373031 216.821542"></polygon>
                <polygon id="Fill-65" fill="#000000" points="439.261585 216.821542 439.397226 215.115374 437.992196 216.111776 437.622811 215.470257 439.206988 214.745989 437.622811 214.008924 437.992196 213.381907 439.397226 214.363807 439.261585 212.657639 439.971351 212.657639 439.834858 214.363807 441.239887 213.381907 441.609273 214.008924 440.025949 214.745989 441.609273 215.470257 441.239887 216.111776 439.834858 215.115374 439.971351 216.821542"></polygon>
                <polygon id="Fill-66" fill="#000000" points="447.860758 216.821542 447.996399 215.115374 446.591369 216.111776 446.221984 215.470257 447.806161 214.745989 446.221984 214.008924 446.591369 213.381907 447.996399 214.363807 447.860758 212.657639 448.570524 212.657639 448.434031 214.363807 449.83906 213.381907 450.208446 214.008924 448.625121 214.745989 450.208446 215.470257 449.83906 216.111776 448.434031 215.115374 448.570524 216.821542"></polygon>
                <polygon id="Fill-67" fill="#000000" points="456.459846 216.821542 456.595486 215.115374 455.190457 216.111776 454.821071 215.470257 456.405248 214.745989 454.821071 214.008924 455.190457 213.381907 456.595486 214.363807 456.459846 212.657639 457.169612 212.657639 457.033118 214.363807 458.438148 213.381907 458.807533 214.008924 457.224209 214.745989 458.807533 215.470257 458.438148 216.111776 457.033118 215.115374 457.169612 216.821542"></polygon>
                <path d="M401.898038,173.721943 C401.898038,175.354746 400.574904,176.677879 398.942102,176.677879 C397.310152,176.677879 395.986165,175.354746 395.986165,173.721943 C395.986165,172.08914 397.310152,170.766006 398.942102,170.766006 C400.574904,170.766006 401.898038,172.08914 401.898038,173.721943" id="Fill-68" fill="#9494F2"></path>
                <path d="M403.038014,184.573428 L394.846701,184.573428 C393.776933,184.573428 392.909347,183.705842 392.909347,182.636074 L392.909347,181.994555 C392.909347,179.662223 394.800634,177.770936 397.132966,177.770936 L400.751749,177.770936 C403.084081,177.770936 404.975368,179.662223 404.975368,181.994555 L404.975368,182.636074 C404.975368,183.705842 404.107782,184.573428 403.038014,184.573428" id="Fill-69" fill="#9494F2"></path>
                <path d="M397.95696,209.173814 C399.603412,209.173814 400.942754,210.513156 400.942754,212.159608 L400.942754,214.256489 L394.971166,214.256489 L394.971166,212.159608 C394.971166,210.513156 396.310508,209.173814 397.95696,209.173814 M402.648923,214.439902 L402.648923,212.159608 C402.648923,209.573057 400.543511,207.467646 397.95696,207.467646 C395.370409,207.467646 393.264998,209.573057 393.264998,212.159608 L393.264998,214.439902 C392.677223,214.725685 392.269448,215.322844 392.269448,216.019814 L392.269448,221.436045 C392.269448,222.410267 393.059404,223.199369 394.032773,223.199369 L401.880294,223.199369 C402.854516,223.199369 403.643619,222.410267 403.643619,221.436045 L403.643619,216.019814 C403.643619,215.322844 403.235844,214.726538 402.648923,214.439902" id="Fill-70" fill="#9494F2"></path>
                <path d="M385.719554,171.648522 C385.719554,168.331731 388.408475,165.641957 391.725266,165.641957 L509.38177,165.641957 C511.327655,165.641957 513.050885,166.570965 514.148804,168.005 C513.29572,165.727265 511.105,164.10214 508.528686,164.10214 L390.872182,164.10214 C387.555391,164.10214 384.86647,166.791914 384.86647,170.108705 L384.86647,186.53228 C384.86647,187.904892 385.331401,189.165751 386.106001,190.176655 C385.860313,189.520634 385.719554,188.81428 385.719554,188.072097 L385.719554,171.648522 Z" id="Fill-71" fill="#9494F2"></path>
                <path d="M385.719554,210.533459 C385.719554,207.216669 388.408475,204.526894 391.725266,204.526894 L509.38177,204.526894 C511.327655,204.526894 513.050885,205.455903 514.148804,206.889937 C513.29572,204.612203 511.105,202.987078 508.528686,202.987078 L390.872182,202.987078 C387.555391,202.987078 384.86647,205.676852 384.86647,208.993643 L384.86647,225.417217 C384.86647,226.78983 385.331401,228.050688 386.106001,229.061593 C385.860313,228.405571 385.719554,227.699217 385.719554,226.957034 L385.719554,210.533459 Z" id="Fill-72" fill="#9494F2"></path>
                <path d="M495.755202,78.307815 C492.597938,78.307815 490.038686,80.8670672 490.038686,84.0243314 L490.038686,109.557991 C490.038686,112.715255 492.597938,115.275361 495.755202,115.275361 L521.288862,115.275361 C524.446126,115.275361 527.005378,112.715255 527.005378,109.557991 L527.005378,84.0243314 C527.005378,80.8670672 524.446126,78.307815 521.288862,78.307815 L495.755202,78.307815 Z" id="Fill-74" fill="url(#linearGradient-8)"></path>
                <path d="M504.612945,102.395668 C503.223271,102.36581 502.07246,103.468848 502.042602,104.859375 C502.012744,106.249049 503.115782,107.399859 504.506309,107.429717 C505.895983,107.458722 507.046794,106.355684 507.076651,104.96601 C507.076651,104.939565 507.077505,104.913119 507.076651,104.886673 C507.092007,103.526004 506.000912,102.41017 504.640243,102.395668 C504.630859,102.395668 504.622329,102.395668 504.612945,102.395668" id="Fill-77" fill="#FFFFFF"></path>
                <path d="M513.099169,102.395668 C511.709495,102.351307 510.546742,103.442402 510.502381,104.832076 C510.458021,106.22175 511.549115,107.38365 512.938789,107.428011 C514.328463,107.472371 515.491217,106.38213 515.535577,104.992456 C515.53643,104.956626 515.53643,104.92165 515.53643,104.886673 C515.550933,103.526004 514.459838,102.41017 513.099169,102.395668 Z" id="Fill-79" fill="#FFFFFF"></path>
                <path d="M516.879099,91.0974222 L500.997233,91.0974222 L500.301116,88.8742851 C500.207277,88.5347576 499.903579,88.2958941 499.551256,88.2856571 L495.882141,88.2856571 L495.882141,89.8920144 L498.935329,89.8920144 L502.122451,100.123052 C502.217996,100.457461 502.524254,100.68694 502.872312,100.685234 L514.468284,100.685234 C514.820608,100.681822 515.131983,100.455755 515.245443,100.123052 L517.655406,92.1415971 C517.78934,91.7184674 517.553889,91.2671859 517.130759,91.1341048 C517.048863,91.1085123 516.964408,91.0965691 516.879099,91.0974222" id="Fill-81" fill="#FFFFFF"></path>
                <path d="M239.871692,164.716446 L48.1717555,164.716446 C45.5604651,164.716446 43.4431104,162.599091 43.4431104,159.987801 L43.4431104,124.952491 C43.4431104,122.3412 45.5604651,120.223846 48.1717555,120.223846 L239.871692,120.223846 C242.482983,120.223846 244.600338,122.3412 244.600338,124.952491 L244.600338,159.987801 C244.600338,162.599091 242.482983,164.716446 239.871692,164.716446" id="Fill-83" fill="#FFFFFF"></path>
                <path d="M239.871692,164.716446 L48.1717555,164.716446 C45.5604651,164.716446 43.4431104,162.599091 43.4431104,159.987801 L43.4431104,124.952491 C43.4431104,122.3412 45.5604651,120.223846 48.1717555,120.223846 L239.871692,120.223846 C242.482983,120.223846 244.600338,122.3412 244.600338,124.952491 L244.600338,159.987801 C244.600338,162.599091 242.482983,164.716446 239.871692,164.716446 Z" id="Stroke-85" stroke="#FFB41D" stroke-width="2"></path>
                <path d="M238.088576,165.676166 L199.131638,165.676166 L199.131638,120.223846 L238.088576,120.223846 C241.405367,120.223846 244.094288,122.912767 244.094288,126.229558 L244.094288,159.670454 C244.094288,162.987245 241.405367,165.676166 238.088576,165.676166" id="Fill-87" fill="url(#linearGradient-7)"></path>
                <path d="M227.21201,140.33462 C227.21201,145.262034 223.21787,149.256174 218.290457,149.256174 C213.363043,149.256174 209.36805,145.262034 209.36805,140.33462 C209.36805,135.407207 213.363043,131.413067 218.290457,131.413067 C223.21787,131.413067 227.21201,135.407207 227.21201,140.33462 Z" id="Stroke-89" stroke="#FFFFFF" stroke-width="3" stroke-linecap="round" stroke-linejoin="round"></path>
                <path d="M232.970328,154.161748 L225.504136,146.695557" id="Stroke-91" stroke="#FFFFFF" stroke-width="3" stroke-linecap="round" stroke-linejoin="round"></path>
                <path d="M169.202036,145.029398 L62.4812173,145.029398 C59.9398798,145.029398 57.8600608,142.949579 57.8600608,140.408242 C57.8600608,137.866904 59.9398798,135.787085 62.4812173,135.787085 L169.202036,135.787085 C171.743374,135.787085 173.823193,137.866904 173.823193,140.408242 C173.823193,142.949579 171.743374,145.029398 169.202036,145.029398" id="Fill-93" fill="#9494F2"></path>
                <path d="M487.612685,344.302504 L462.079025,344.302504 C458.921761,344.302504 456.362509,341.743251 456.362509,338.585987 L456.362509,313.052327 C456.362509,309.895063 458.921761,307.335811 462.079025,307.335811 L487.612685,307.335811 C490.769949,307.335811 493.329201,309.895063 493.329201,313.052327 L493.329201,338.585987 C493.329201,341.743251 490.769949,344.302504 487.612685,344.302504" id="Fill-95" fill="#B9DBF4"></path>
                <path d="M469.00931,322.690813 C469.76173,322.690813 470.450169,322.440006 471.01491,322.028819 L478.216646,326.164571 C478.211528,326.233671 478.195319,326.299358 478.195319,326.370164 C478.195319,326.583435 478.220912,326.792441 478.258447,326.995475 L471.166759,330.836913 C470.577278,330.352361 469.832536,330.048663 469.00931,330.048663 C467.124847,330.048663 465.596973,331.576536 465.596973,333.461852 C465.596973,335.345462 467.124847,336.873336 469.00931,336.873336 C470.893772,336.873336 472.421646,335.345462 472.421646,333.461852 C472.421646,333.33389 472.39776,333.212752 472.38411,333.089055 L479.645562,329.154631 C480.201773,329.547049 480.875709,329.782501 481.607656,329.782501 C483.492118,329.782501 485.019992,328.254627 485.019992,326.370164 C485.019992,324.485702 483.492118,322.957828 481.607656,322.957828 C480.72642,322.957828 479.930492,323.300768 479.324802,323.849301 L472.364489,319.851749 C472.396054,319.664923 472.421646,319.474686 472.421646,319.278476 C472.421646,317.394014 470.893772,315.86614 469.00931,315.86614 C467.124847,315.86614 465.596973,317.394014 465.596973,319.278476 C465.596973,321.162939 467.124847,322.690813 469.00931,322.690813 Z" id="Fill-98" fill="url(#linearGradient-9)"></path>
                <path d="M511.791306,430.612347 L329.059842,430.612347 C324.36788,430.612347 320.529001,426.773469 320.529001,422.081507 L320.529001,384.200308 C320.529001,379.508345 324.36788,375.669467 329.059842,375.669467 L511.791306,375.669467 C516.483268,375.669467 520.322147,379.508345 520.322147,384.200308 L520.322147,422.081507 C520.322147,426.773469 516.483268,430.612347 511.791306,430.612347" id="Fill-101" fill="#FFFFFF"></path>
                <path d="M511.791306,430.612347 L329.059842,430.612347 C324.36788,430.612347 320.529001,426.773469 320.529001,422.081507 L320.529001,384.200308 C320.529001,379.508345 324.36788,375.669467 329.059842,375.669467 L511.791306,375.669467 C516.483268,375.669467 520.322147,379.508345 520.322147,384.200308 L520.322147,422.081507 C520.322147,426.773469 516.483268,430.612347 511.791306,430.612347 Z" id="Stroke-103" stroke="#FEBB16"></path>
                <path d="M350.497845,385.840447 C340.870791,385.840447 333.066778,393.644461 333.066778,403.271514 C333.066778,412.898568 340.870791,420.702582 350.497845,420.702582 C360.124899,420.702582 367.928912,412.898568 367.928912,403.271514 C367.928912,393.644461 360.124899,385.840447 350.497845,385.840447" id="Fill-105" fill="#FEBB16"></path>
                <path d="M380.144394,391.616594 C378.736805,391.616594 377.585142,392.768258 377.585142,394.1767 L377.585142,395.051964 C377.585142,396.4587 378.736805,397.610363 380.144394,397.610363 L502.727458,397.610363 C504.135047,397.610363 505.28671,396.4587 505.28671,395.051964 L505.28671,394.1767 C505.28671,392.768258 504.135047,391.616594 502.727458,391.616594 L380.144394,391.616594 Z" id="Fill-108" fill="url(#linearGradient-10)"></path>
                <path d="M380.144394,405.602908 C378.736805,405.602908 377.585142,406.753718 377.585142,408.161307 L377.585142,409.036571 C377.585142,410.445013 378.736805,411.596677 380.144394,411.596677 L440.29194,411.596677 C441.699529,411.596677 442.851192,410.445013 442.851192,409.036571 L442.851192,408.161307 C442.851192,406.753718 441.699529,405.602908 440.29194,405.602908 L380.144394,405.602908 Z" id="Fill-111" fill="url(#linearGradient-11)"></path>
                <path d="M283.059501,105.820289 L257.525841,105.820289 C254.368577,105.820289 251.809325,103.261036 251.809325,100.103772 L251.809325,74.5701124 C251.809325,71.4128482 254.368577,68.8535959 257.525841,68.8535959 L283.059501,68.8535959 C286.216765,68.8535959 288.776017,71.4128482 288.776017,74.5701124 L288.776017,100.103772 C288.776017,103.261036 286.216765,105.820289 283.059501,105.820289" id="Fill-114" fill="#B9DBF4"></path>
                <path d="M260.351256,81.5555914 L280.825274,81.5555914 C281.450584,81.5555914 281.962435,81.043741 281.962435,80.4184303 C281.962435,79.7922666 281.450584,79.2804162 280.825274,79.2804162 L260.351256,79.2804162 C259.725945,79.2804162 259.214094,79.7922666 259.214094,80.4184303 C259.214094,81.043741 259.725945,81.5555914 260.351256,81.5555914" id="Fill-116" fill="#1D2DA3"></path>
                <path d="M280.825274,86.1053448 L260.351256,86.1053448 C259.725945,86.1053448 259.214094,86.6171952 259.214094,87.2425058 C259.214094,87.8686696 259.725945,88.38052 260.351256,88.38052 L280.825274,88.38052 C281.450584,88.38052 281.962435,87.8686696 281.962435,87.2425058 C281.962435,86.6171952 281.450584,86.1053448 280.825274,86.1053448" id="Fill-118" fill="#1D2DA3"></path>
                <path d="M280.825274,92.9300174 L260.351256,92.9300174 C259.725945,92.9300174 259.214094,93.4418679 259.214094,94.0671785 C259.214094,94.6933422 259.725945,95.2051927 260.351256,95.2051927 L280.825274,95.2051927 C281.450584,95.2051927 281.962435,94.6933422 281.962435,94.0671785 C281.962435,93.4418679 281.450584,92.9300174 280.825274,92.9300174" id="Fill-120" fill="#1D2DA3"></path>
                <path d="M283.511806,423.056838 L177.322458,423.241957 C174.663395,423.246222 172.484619,421.075123 172.4795,418.41606 L172.375424,358.569652 C172.371158,355.910589 174.542257,353.731813 177.20132,353.727547 L283.390668,353.542428 C286.049731,353.537309 288.228508,355.709262 288.233626,358.368325 L288.337703,418.213879 C288.341968,420.872942 286.170869,423.052572 283.511806,423.056838" id="Fill-122" fill="url(#linearGradient-7)"></path>
                <path d="M187.863507,364.062831 C183.182634,365.03876 180.201105,369.731575 181.203479,374.546382 C182.207559,379.361188 186.815066,382.473239 191.495939,381.498164 C196.176811,380.523089 199.15834,375.82942 198.155113,371.014614 C197.276436,366.796113 193.628649,363.884537 189.591002,363.883684 C189.020289,363.883684 188.442751,363.941694 187.863507,364.062831" id="Fill-125" fill="url(#linearGradient-12)"></path>
                <path d="M236.8075,391.666073 L224.669819,375.062498 L176.048292,408.664627 L175.904121,414.55176 C175.858054,416.430251 177.372278,417.976893 179.251623,417.970921 L279.922369,417.627981 C281.431475,417.622863 282.654798,416.401246 282.660769,414.891287 L282.736694,396.693298 L264.375765,372.51007 L236.8075,391.666073 Z" id="Fill-128" fill="url(#linearGradient-13)"></path>
                <ellipse id="Oval-Copy-5" fill="#201B9B" opacity="0.199999988" cx="568.331924" cy="498.496829" rx="39.0063425" ry="8.08668076"></ellipse>
                <path d="M592.901858,310.00204 C587.562405,312.0793 588.956344,321.933274 589.080042,322.41356 C590.274359,327.040688 596.768888,351.633396 596.768888,351.633396 L584.011016,381.974185 L590.284596,384.78595 L606.237269,356.770669 C607.899076,353.851415 608.466377,350.439932 607.836801,347.141056 C606.385705,339.540076 603.692519,325.497459 602.435926,319.396202 C601.518861,314.941397 599.561033,309.517488 595.259783,309.518341 C594.541486,309.518341 593.757502,309.669337 592.901858,310.00204" id="Fill-131" fill="#203B72"></path>
                <path d="M562.996313,303.960072 C553.49381,305.522069 551.671622,307.214588 550.759675,317.498516 C549.848581,327.781592 551.901102,379.519435 551.901102,379.519435 L590.692541,379.519435 C590.692541,379.519435 594.814643,332.077723 595.985928,321.924317 C597.157212,311.770057 595.335025,306.693353 587.263996,305.912781 C579.193821,305.131356 562.996313,303.960072 562.996313,303.960072" id="Fill-134" fill="url(#linearGradient-7)"></path>
                <polygon id="Fill-136" fill="url(#linearGradient-14)" points="567.348578 379.519862 574.797708 492.239568 585.355476 492.239568 590.693224 379.519862"></polygon>
                <path d="M551.900931,379.519862 L545.313416,435.78161 L553.514113,492.239568 L565.714068,492.239568 L564.490746,432.533919 C564.490746,432.533919 575.887949,405.846037 579.207299,395.69263 C582.527503,385.539223 582.527503,379.519862 582.527503,379.519862 L551.900931,379.519862 Z" id="Fill-139" fill="url(#linearGradient-15)"></path>
                <path d="M512.185601,264.981381 C509.967583,265.78072 508.521605,267.668595 508.521605,267.668595 L516.625051,296.754497 C517.865435,300.444086 520.513408,303.493862 523.992285,305.239272 L550.999221,320.924929 C550.999221,320.924929 564.402878,317.937428 558.369868,304.921071 L528.250028,293.685954 L516.305998,264.655502 C516.305998,264.655502 515.722488,264.556545 514.89329,264.556545 C514.115278,264.556545 513.121435,264.643559 512.185601,264.981381" id="Fill-142" fill="#203B72"></path>
                <ellipse id="Oval-Copy-5" fill="#201B9B" opacity="0.199999988" cx="134.505285" cy="504.205074" rx="39.0063425" ry="8.08668076"></ellipse>
                <path d="M565.107611,492.468195 L557.219996,492.273692 L542.045336,497.430585 C541.229787,497.707837 540.656515,498.477319 540.621539,499.341493 C540.573766,500.491451 541.481447,501.405957 542.611784,501.346241 L563.495282,500.244909 C564.578699,500.187753 565.436901,499.224621 565.38401,498.126702 L565.107611,492.468195 Z" id="Fill-145" fill="#201B9B"></path>
                <path d="M510.448722,267.942862 C506.096287,265.166073 505.74567,264.88029 505.032491,262.058288 C504.320166,259.236286 503.341679,256.440729 505.780646,254.587831 C508.219614,252.734079 510.811283,255.58082 512.36219,258.211732 C513.913097,260.84179 513.560773,258.412207 514.080301,257.181206 C514.598976,255.949353 515.969882,258.919792 515.261823,262.527484 C514.553763,266.13603 515.21405,266.288732 515.21405,266.288732 L510.448722,267.942862 Z" id="Fill-147" fill="#D49278"></path>
                <path d="M573.348062,489.924981 C571.319428,491.485271 569.428994,494.271444 569.389752,496.52188 C569.351363,498.772316 571.485779,499.703883 576.452435,500.247298 C581.419091,500.789859 585.843185,499.781514 585.843185,499.781514 C585.843185,499.781514 585.881573,495.978465 585.959204,494.658744 C586.036835,493.339876 585.183751,492.951723 583.126965,493.106984 C581.070179,493.262245 575.83139,494.930878 575.520867,492.6412 C575.210345,490.351523 575.870632,487.985067 573.348062,489.924981" id="Fill-149" fill="#201B9B"></path>
                <path d="M582.340421,306.029142 L578.739553,300.336512 L585.00375,277.465328 L567.340644,274.780672 C567.340644,274.780672 563.882241,273.324458 562.773232,283.115304 C561.997778,289.955332 561.857872,296.626449 565.697604,295.957631 C569.643118,295.271752 569.839327,299.563618 569.807763,301.287701 C569.775346,303.011784 566.013245,304.205248 566.013245,304.205248 C566.013245,304.205248 564.487078,307.4973 572.369575,307.94261 C580.251218,308.38792 582.340421,306.029142 582.340421,306.029142" id="Fill-151" fill="#FEB9B9"></path>
                <path d="M565.271318,271.491606 C566.75995,267.082015 569.639108,267.049598 575.232781,267.285049 C580.8256,267.5205 590.554171,273.43152 588.790846,281.887289 C587.027521,290.342205 585.655762,294.116249 583.825897,294.951419 C578.242461,297.500434 576.628426,295.227818 578.707392,287.913475 C580.786358,280.599132 579.397537,279.761404 576.035533,279.866333 C572.673528,279.970409 575.764252,287.225889 573.855903,284.344171 C571.946701,281.463306 571.23011,275.977976 569.216832,277.249924 C567.203553,278.521872 563.595861,276.45485 565.271318,271.491606" id="Fill-153" fill="#0A1147"></path>
                <path d="M122.476318,366.226253 C122.476318,366.226253 116.527762,384.159786 118.6818,392.994325 C120.835837,401.828864 140.428619,498.47476 140.428619,498.47476 L149.304959,498.065279 L145.284374,365.118097 L122.476318,366.226253 Z" id="Fill-156" fill="url(#linearGradient-16)"></path>
                <path d="M111.860369,498.568258 L119.214807,497.711761 L133.608041,501.153103 C134.381789,501.338222 134.950796,501.996803 135.021602,502.788465 C135.116294,503.842877 134.309276,504.762501 133.251452,504.804303 L113.708149,505.584874 C112.693832,505.624969 111.850132,504.812833 111.851838,503.798516 L111.860369,498.568258 Z" id="Fill-161" fill="#201B9B"></path>
                <path d="M140.667141,330.835036 C146.519298,339.150899 151.138749,343.77035 153.294492,343.77035 C155.451089,343.77035 156.067015,343.000868 153.756864,335.146523 C151.446712,327.293031 145.133037,323.443062 145.133037,323.443062 L140.667141,330.835036 Z" id="Fill-159" fill="#0A1147"></path>
                <path d="M140.675502,498.568258 L148.02994,497.711761 L162.423174,501.153103 C163.196921,501.338222 163.765929,501.996803 163.836735,502.788465 C163.931427,503.842877 163.124409,504.762501 162.066585,504.804303 L142.523282,505.584874 C141.508965,505.624969 140.665265,504.812833 140.666971,503.798516 L140.675502,498.568258 Z" id="Fill-164" fill="#201B9B"></path>
                <path d="M141.217893,287.152951 C141.217893,287.152951 144.183213,280.421264 137.251052,275.371006 C133.53587,272.665024 120.145863,268.165858 114.693802,281.377571 C110.484685,291.575338 112.792278,295.442369 112.039858,302.684199 C111.429049,308.568773 102.512615,310.027547 99.4073884,324.029216 C97.313067,333.476269 99.4508957,341.16341 108.053396,341.974693 C112.202797,342.366259 121.794874,318.068718 125.676407,313.881781 C129.557939,309.694844 133.180987,304.967905 133.178428,299.901439 C133.175869,294.834973 141.217893,287.152951 141.217893,287.152951" id="Fill-167" fill="#0A1147"></path>
                <path d="M113.074478,366.226253 C113.074478,366.226253 107.508957,384.075331 109.27996,392.994325 C118.95308,441.711398 111.624235,498.47476 111.624235,498.47476 L121.424465,498.065279 L145.122288,365.118097 L113.074478,366.226253 Z" id="Fill-170" fill="url(#linearGradient-17)"></path>
                <path d="M145.122202,365.118779 C145.122202,365.118779 143.987601,340.317918 144.126653,334.400927 C144.362958,324.366952 145.29026,323.504484 141.899251,320.671392 C138.508242,317.8383 133.521965,314.403783 133.521965,314.403783 C133.521965,314.403783 128.494741,315.232981 124.237851,313.031171 C119.980961,310.829361 120.056033,310.292771 120.056033,310.292771 C120.056033,310.292771 110.460543,317.921049 110.184144,332.657223 C109.907745,347.394251 113.074393,366.226082 113.074393,366.226082 L145.122202,365.118779 Z" id="Fill-173" fill="url(#linearGradient-7)"></path>
                <path d="M132.097741,315.840803 C132.876607,315.999477 133.544572,315.286299 133.34495,314.516817 C132.856986,312.633207 132.19414,309.516891 132.494425,307.414039 C132.949972,304.220945 134.114432,303.937721 137.725537,304.823222 C141.336642,305.708724 142.667453,300.708798 142.109536,294.593891 C141.481666,287.718887 141.660814,283.377542 136.282972,282.987682 C130.904277,282.598676 129.217729,283.891098 128.219621,287.625047 C127.221513,291.358143 127.537154,291.603831 125.639895,291.212266 C123.742636,290.819847 121.444427,291.816249 124.546241,294.471047 C127.648055,297.125845 127.25137,299.401873 125.255154,304.092129 C123.567753,308.053852 120.015511,310.31879 120.015511,310.31879 C120.015511,310.31879 120.819117,311.706758 125.13231,313.644965 C127.774311,314.832458 130.433374,315.501276 132.097741,315.840803" id="Fill-175" fill="#FEB9B9"></path>
                <path d="M116.141315,311.964133 C110.05456,314.609547 113.059976,323.424465 118.975261,339.320834 C124.889693,355.218056 130.435592,348.564 136.966804,345.236119 C143.498016,341.908238 157.793146,334.022329 157.793146,334.022329 L156.190201,329.83198 L131.667446,335.62442 C131.667446,335.62442 130.435592,332.296539 128.341271,322.931382 C126.648752,315.36538 123.428359,311.25778 119.264456,311.25778 C118.274025,311.25778 117.229851,311.490672 116.141315,311.964133" id="Fill-178" fill="#203B72"></path>
                <path d="M137.65183,309.504692 C137.65183,309.504692 138.318089,315.077037 145.663996,331.582508 C153.008197,348.088832 153.723935,344.839435 156.673046,342.333074 C159.621305,339.827566 158.504618,336.301769 157.257409,334.512852 C156.011053,332.724788 142.311376,307.249991 142.311376,307.249991 C137.848893,308.033975 137.65183,309.504692 137.65183,309.504692" id="Fill-181" fill="#203B72"></path>
                <path d="M146.46453,298.699955 C148.341315,298.046493 149.795824,300.190293 146.635147,303.658933 C143.474471,307.12672 140.817114,308.308242 139.093031,308.686158 C137.369801,309.064074 135.521168,307.142929 139.56308,303.111253 C143.604992,299.080431 144.688409,299.318441 146.46453,298.699955" id="Fill-184" fill="#FEB9B9"></path>
                <path d="M155.235514,329.892207 C159.030885,328.127176 160.517811,329.908416 159.43866,331.946434 C158.359508,333.984452 156.962156,334.660947 156.962156,334.660947 C156.962156,334.660947 154.071908,332.886532 155.167268,330.201877" id="Fill-186" fill="#FEB9B9"></path>
            </g>
        </g>
    </g>
</svg>