<?xml version="1.0" encoding="utf-8"?>
<!-- Generator: Adobe Illustrator 19.2.0, SVG Export Plug-In . SVG Version: 6.00 Build 0)  -->
<svg version="1.1" id="Layer_1" xmlns="http://www.w3.org/2000/svg" xmlns:xlink="http://www.w3.org/1999/xlink" x="0px" y="0px"
	 width="70px" height="69px" viewBox="0 0 70 69" style="enable-background:new 0 0 70 69;" xml:space="preserve">
<style type="text/css">
	.st0{fill:url(#SVGID_1_);}
	.st1{fill:url(#SVGID_2_);}
	.st2{fill:url(#SVGID_3_);}
	.st3{fill:url(#SVGID_4_);}
</style>
<linearGradient id="SVGID_1_" gradientUnits="userSpaceOnUse" x1="5.931" y1="1.6104" x2="71.181" y2="63.3604" gradientTransform="matrix(1 0 0 -1 0 70)">
	<stop  offset="0" style="stop-color:#0497F4"/>
	<stop  offset="1" style="stop-color:#0BCBF9"/>
</linearGradient>
<path class="st0" d="M51.9,17.9c-3.9,0-7,3.1-7,7s3.2,7,7,7c3.9,0,7-3.1,7-7C59,21,55.8,17.9,51.9,17.9z M51.9,29.1
	c-2.4,0-4.3-1.9-4.3-4.3s1.9-4.3,4.3-4.3c2.4,0,4.3,1.9,4.3,4.3C56.2,27.2,54.3,29.1,51.9,29.1z"/>
<linearGradient id="SVGID_2_" gradientUnits="userSpaceOnUse" x1="23.7555" y1="-17.2245" x2="89.0055" y2="44.5255" gradientTransform="matrix(1 0 0 -1 0 70)">
	<stop  offset="0" style="stop-color:#0497F4"/>
	<stop  offset="1" style="stop-color:#0BCBF9"/>
</linearGradient>
<path class="st1" d="M52,61.2c0-0.1-0.1-0.2-0.1-0.2c0-0.1-0.1-0.1-0.2-0.2c-0.1-0.1-0.1-0.1-0.2-0.2c-0.1,0-0.2-0.1-0.2-0.1
	c-0.1,0-0.2-0.1-0.3-0.1c-0.2,0-0.4,0-0.5,0c-0.1,0-0.2,0-0.3,0.1c-0.1,0-0.2,0.1-0.2,0.1c-0.1,0-0.1,0.1-0.2,0.2
	c-0.1,0.1-0.1,0.1-0.2,0.2c0,0.1-0.1,0.2-0.1,0.2c0,0.1-0.1,0.2-0.1,0.3c0,0.1,0,0.2,0,0.3c0,0.1,0,0.2,0,0.3c0,0.1,0,0.2,0.1,0.3
	c0,0.1,0.1,0.2,0.1,0.2c0,0.1,0.1,0.1,0.2,0.2c0,0,0.1,0.1,0.1,0.1c0,0,0.1,0.1,0.1,0.1c0.1,0,0.2,0.1,0.2,0.1
	c0.1,0,0.2,0.1,0.3,0.1c0.1,0,0.2,0,0.3,0c0.1,0,0.2,0,0.3,0c0.1,0,0.2,0,0.3-0.1c0.1,0,0.2-0.1,0.2-0.1c0,0,0.1-0.1,0.1-0.1
	c0,0,0.1-0.1,0.1-0.1c0.1-0.1,0.1-0.1,0.2-0.2c0-0.1,0.1-0.2,0.1-0.2c0-0.1,0.1-0.2,0.1-0.3c0-0.1,0-0.2,0-0.3c0-0.1,0-0.2,0-0.3
	C52,61.4,52,61.3,52,61.2z"/>
<linearGradient id="SVGID_3_" gradientUnits="userSpaceOnUse" x1="-13.1388" y1="21.761" x2="52.1112" y2="83.511" gradientTransform="matrix(1 0 0 -1 0 70)">
	<stop  offset="0" style="stop-color:#0497F4"/>
	<stop  offset="1" style="stop-color:#0BCBF9"/>
</linearGradient>
<path class="st2" d="M30.5,7.6c0-0.1-0.1-0.2-0.1-0.2c0-0.1-0.1-0.1-0.2-0.2C30.1,7.1,30,7.1,30,7c-0.1,0-0.2-0.1-0.2-0.1
	c-0.1,0-0.2-0.1-0.3-0.1c-0.2,0-0.4,0-0.5,0c-0.1,0-0.2,0-0.3,0.1c-0.1,0-0.2,0.1-0.2,0.1c-0.1,0-0.1,0.1-0.2,0.2
	c-0.1,0.1-0.1,0.1-0.2,0.2c0,0.1-0.1,0.2-0.1,0.2c0,0.1-0.1,0.2-0.1,0.3c0,0.1,0,0.2,0,0.3c0,0.1,0,0.2,0,0.3c0,0.1,0,0.2,0.1,0.3
	c0,0.1,0.1,0.2,0.1,0.2c0.1,0.1,0.1,0.1,0.2,0.2c0.1,0.1,0.1,0.1,0.2,0.2c0.1,0,0.2,0.1,0.2,0.1c0.1,0,0.2,0.1,0.3,0.1
	c0.1,0,0.2,0,0.3,0c0.1,0,0.2,0,0.3,0c0.1,0,0.2,0,0.3-0.1c0.1,0,0.2-0.1,0.2-0.1c0.1,0,0.1-0.1,0.2-0.2c0.1-0.1,0.1-0.1,0.2-0.2
	c0-0.1,0.1-0.2,0.1-0.2c0-0.1,0.1-0.2,0.1-0.3c0-0.1,0-0.2,0-0.3c0-0.1,0-0.2,0-0.3C30.5,7.8,30.5,7.7,30.5,7.6z"/>
<linearGradient id="SVGID_4_" gradientUnits="userSpaceOnUse" x1="3.1199" y1="4.6111" x2="68.3699" y2="66.3611">
	<stop  offset="0" style="stop-color:#00B6FB"/>
	<stop  offset="1" style="stop-color:#4FB646"/>
</linearGradient>
<path class="st3" d="M62.4,6.8L62.4,6.8c-0.8-3.5-4-6-7.7-6H11.8C5.3,0.8,0,6.1,0,12.5V55c0,4.2,3.4,7.7,7.6,7.8c0.8,3.5,4,6,7.7,6
	h46.8c4.3,0,7.9-3.5,7.9-7.8V14.6C70,10.4,66.6,6.9,62.4,6.8z M43.6,45.9L43.6,45.9L32.7,26.2c-0.9-1.7-2.6-2.7-4.6-2.7
	c-1.9,0-3.7,0.9-4.7,2.6L10.2,48.4V14.6c0-2.8,2.3-5.1,5.1-5.1h8.4c0.8,0,1.4-0.6,1.4-1.4c0-0.7-0.6-1.4-1.4-1.4h-8.4
	c-4.3,0-7.9,3.5-7.9,7.8V60c-2.6-0.2-4.7-2.4-4.7-5.1V12.5c0-5,4.1-9,9.1-9h42.9c2.1,0,4,1.3,4.8,3.3H34.7c-0.8,0-1.4,0.6-1.4,1.4
	s0.6,1.4,1.4,1.4h25.2l2.7,0c2.6,0.2,4.7,2.4,4.7,5.1v33.1l-4.7-4.3l-2.7-2l-0.1-0.1c-1.8-0.7-3.9-0.4-5.4,0.8l-6.1,5
	c-0.5,0.4-1.2,0.7-1.9,0.7C45.2,47.8,44,46.6,43.6,45.9z M67.8,51.3V61c0,3.1-2.5,5.6-5.6,5.6H15.3c-2.4,0-4.5-1.5-5.3-3.6
	c-0.2-0.6-0.4-1.3-0.4-2V60v-6.3v-0.1l0.1-0.1l15.7-26.3v0c0.6-1,1.6-1.5,2.7-1.5h0c1.1,0,2.1,0.6,2.6,1.6c0,0,0,0,0,0l6.8,12.3
	c0,0,1.8,4.1,3.6,7.2s2.5,3.3,5.1,3.6c1.3,0.1,2.4-0.6,3.4-1.5l6.1-5c1.2-1,2.9-0.9,4,0.1l0.3,0.3v0l2.7,2.5l4.7,4.3l0.2,0.1V51.3z"
	/>
</svg>
