<svg width="84" height="73" viewBox="0 0 84 73" fill="none" xmlns="http://www.w3.org/2000/svg">
<path fill-rule="evenodd" clip-rule="evenodd" d="M42.1961 71.2157L81.8039 66.7059L42.3922 62L2 66.7059L42.1961 71.2157Z" stroke="url(#paint0_linear)" stroke-width="3" stroke-linecap="round" stroke-linejoin="round"/>
<path d="M42 60.8235V2L81.2157 11.8039V65.9216" stroke="url(#paint1_linear)" stroke-width="3" stroke-linecap="round" stroke-linejoin="round"/>
<path d="M42 2L2.58824 10.8235L2 66.902" stroke="url(#paint2_linear)" stroke-width="3" stroke-linecap="round" stroke-linejoin="round"/>
<path fill-rule="evenodd" clip-rule="evenodd" d="M57.2891 48.0209C64.5668 49.4465 68.2049 46.0455 68.2049 37.815C68.2049 29.6216 64.5668 24.8079 57.2891 23.3795L54.7951 22.8895V47.5324L57.2891 48.0209ZM49.7413 50.9735C49.2471 50.345 49 49.5508 49 48.5866V19.5628C49 18.6 49.2471 17.903 49.7413 17.4673C50.2356 17.0345 50.9169 16.9016 51.7854 17.0716L57.6476 18.2229C62.8284 19.2414 66.8494 21.5654 69.7105 25.1964C72.5687 28.826 74 33.4112 74 38.952C74 44.5256 72.5687 48.568 69.7105 51.0763C66.8494 53.586 62.8284 54.3317 57.6476 53.3175L51.7854 52.169C50.9169 51.9991 50.2356 51.6005 49.7413 50.9735Z" stroke="url(#paint3_linear)" stroke-width="3"/>
<path fill-rule="evenodd" clip-rule="evenodd" d="M34.3177 36.1225C35.4392 37.3221 36 38.966 36 41.0543C36 43.9362 34.8785 46.4518 32.6354 48.6097C30.3938 50.7747 27.3657 52.2454 23.5497 53.0149C21.3748 53.4536 19.2822 53.5529 17.2748 53.313C15.2675 53.0702 13.5596 52.5052 12.1542 51.6179C11.3847 51.1225 11 50.4368 11 49.5595C11 48.8468 11.2087 48.198 11.6289 47.6131C12.0463 47.0311 12.5389 46.6833 13.1096 46.5739C13.4418 46.5086 13.7442 46.5072 14.0125 46.5683C14.2794 46.6307 14.6485 46.7443 15.117 46.9118C16.521 47.5436 17.8597 47.9751 19.1332 48.2094C20.4037 48.4422 21.7922 48.4095 23.2984 48.1128C25.5074 47.6784 27.1471 46.9331 28.2189 45.8769C29.2893 44.8235 29.8245 43.4365 29.8245 41.7173C29.8245 40.0294 29.2638 38.8851 28.1422 38.2832C27.0221 37.6798 25.2902 37.5961 22.9478 38.0348L20.0872 38.5685C19.3163 38.7134 18.7229 38.5742 18.3041 38.1526C17.8853 37.7324 17.6766 37.1986 17.6766 36.5541C17.6766 35.8769 17.8853 35.2593 18.3041 34.6986C18.7229 34.1392 19.3163 33.7886 20.0872 33.6495L22.0945 33.2832C26.6786 32.4484 28.9713 30.3885 28.9713 27.1049C28.9713 25.5759 28.4872 24.4814 27.5148 23.8198C26.5437 23.1583 25.2064 22.9737 23.5 23.269C21.0568 23.6906 18.4461 25.0762 15.6678 27.43C15.1993 27.7721 14.8316 28.022 14.5647 28.1824C14.295 28.3428 13.9955 28.4521 13.6604 28.5118C13.0911 28.6111 12.5985 28.4479 12.1797 28.0177C11.7609 27.589 11.5522 27.0183 11.5522 26.3042C11.5522 25.8187 11.6445 25.3885 11.8291 25.0166C12.0122 24.6461 12.3047 24.2471 12.7064 23.8212C14.1133 22.4484 15.7942 21.2659 17.7533 20.2735C19.7095 19.284 21.7098 18.6168 23.7513 18.2747C27.2308 17.6912 30.0006 18.0376 32.0591 19.311C34.1161 20.5788 35.1454 22.5578 35.1454 25.2494C35.1127 27.0935 34.6016 28.7943 33.615 30.3516C32.6283 31.9118 31.247 33.1739 29.4739 34.1378C31.5821 34.2585 33.1962 34.92 34.3177 36.1225Z" stroke="url(#paint4_linear)" stroke-width="3"/>
<defs>
<linearGradient id="paint0_linear" x1="2" y1="63.5567" x2="5.3717" y2="83.1847" gradientUnits="userSpaceOnUse">
<stop stop-color="#2EE5FF"/>
<stop offset="1" stop-color="#44D83D"/>
</linearGradient>
<linearGradient id="paint1_linear" x1="42" y1="12.7977" x2="91.4024" y2="33.1724" gradientUnits="userSpaceOnUse">
<stop stop-color="#2EE5FF"/>
<stop offset="1" stop-color="#44D83D"/>
</linearGradient>
<linearGradient id="paint2_linear" x1="2" y1="12.9633" x2="52.3232" y2="33.8131" gradientUnits="userSpaceOnUse">
<stop stop-color="#2EE5FF"/>
<stop offset="1" stop-color="#44D83D"/>
</linearGradient>
<linearGradient id="paint3_linear" x1="49" y1="23.2088" x2="79.4788" y2="37.145" gradientUnits="userSpaceOnUse">
<stop stop-color="#2EE5FF"/>
<stop offset="1" stop-color="#44D83D"/>
</linearGradient>
<linearGradient id="paint4_linear" x1="11" y1="23.9866" x2="41.0854" y2="38.2535" gradientUnits="userSpaceOnUse">
<stop stop-color="#2EE5FF"/>
<stop offset="1" stop-color="#44D83D"/>
</linearGradient>
</defs>
</svg>
