<svg width="165" height="45" viewBox="0 0 165 45" fill="none" xmlns="http://www.w3.org/2000/svg">
<path fill-rule="evenodd" clip-rule="evenodd" d="M10.2325 12.7531C10.1768 12.7962 10.0624 12.8173 9.88938 12.8173H8.47938C8.33075 12.8173 8.22242 12.7932 8.1544 12.7442C8.08613 12.6955 8.05263 12.5918 8.05263 12.4329V7.04959H2.28214V12.4329C2.28214 12.6037 2.25116 12.7106 2.18919 12.7531C2.12747 12.7962 2.00982 12.8173 1.837 12.8173H0.426753C0.290464 12.8173 0.185665 12.7932 0.111349 12.7442C0.0372842 12.6955 0 12.5918 0 12.4329V0.384365C0 0.225746 0.0372842 0.122072 0.111349 0.0730939C0.185665 0.0243646 0.290464 0 0.426753 0H1.837C2.00982 0 2.12747 0.0213812 2.18919 0.063895C2.25116 0.106906 2.28214 0.213315 2.28214 0.384365V5.12702H8.05263V0.384365C8.05263 0.225746 8.08613 0.122072 8.1544 0.0730939C8.22242 0.0243646 8.33075 0 8.47938 0H9.88938C10.0624 0 10.1768 0.0213812 10.2325 0.063895C10.2882 0.106906 10.3161 0.213315 10.3161 0.384365V12.4329C10.3161 12.6037 10.2882 12.7106 10.2325 12.7531Z" transform="translate(58.6943 6.93555)" fill="white"/>
<path fill-rule="evenodd" clip-rule="evenodd" d="M8.90563 12.7253C8.85625 12.7989 8.75095 12.8359 8.59022 12.8359H3.30267C2.64667 12.8359 2.10857 12.7442 1.68837 12.5612C1.26791 12.378 0.930593 12.1341 0.677161 11.8288C0.423478 11.5237 0.247134 11.1759 0.148381 10.7851C0.0491244 10.3945 0 9.98577 0 9.5584V3.29594C0 2.86881 0.0584455 2.4566 0.176344 2.06006C0.293487 1.66326 0.485198 1.31246 0.751226 1.00715C1.01725 0.702099 1.36037 0.457707 1.78133 0.274724C2.20153 0.0917403 2.7089 0 3.30267 0H8.47888C8.6396 0 8.74213 0.0338122 8.78546 0.100691C8.82879 0.168066 8.85046 0.274724 8.85046 0.42116V1.57475C8.85046 1.73362 8.82879 1.84028 8.78546 1.89522C8.74213 1.94992 8.6396 1.97751 8.47888 1.97751H3.54376C3.07343 1.97751 2.74291 2.08144 2.5512 2.28878C2.35923 2.49663 2.2635 2.79572 2.2635 3.18605V5.10862H7.86696C8.02769 5.10862 8.12946 5.13945 8.17279 5.20036C8.21637 5.26152 8.23804 5.37738 8.23804 5.54793V6.55533C8.23804 6.70177 8.21637 6.80892 8.17279 6.87555C8.12946 6.94293 8.02769 6.97624 7.86696 6.97624H2.2635V9.63746C2.2635 10.026 2.36578 10.3209 2.56959 10.5208C2.77389 10.7214 3.09837 10.8216 3.54376 10.8216H8.59022C8.7638 10.8216 8.87162 10.8525 8.91545 10.9141C8.95828 10.9758 8.97994 11.0931 8.97994 11.2652V12.4106C8.97994 12.5463 8.95475 12.6515 8.90563 12.7253Z" transform="translate(71.6084 6.91699)" fill="white"/>
<path fill-rule="evenodd" clip-rule="evenodd" d="M9.86116 1.86762C9.81758 1.9166 9.72815 1.94072 9.59211 1.94072H6.06674V12.4332C6.06674 12.604 6.03928 12.7109 5.98361 12.7534C5.92793 12.7964 5.81381 12.8175 5.64024 12.8175H4.19346C4.04458 12.8175 3.936 12.7932 3.86823 12.7444C3.80022 12.6957 3.76671 12.5918 3.76671 12.4332V1.94072H0.315404C0.179367 1.94072 0.0929585 1.9166 0.0551705 1.86762C0.018894 1.81914 0 1.73337 0 1.6113V0.347818C0 0.213564 0.018894 0.122072 0.0551705 0.0733425C0.0929585 0.0246133 0.179367 0 0.315404 0H9.59211C9.72815 0 9.81758 0.0246133 9.86116 0.0733425C9.90449 0.122072 9.92616 0.213564 9.92616 0.347818V1.6113C9.92616 1.73337 9.90449 1.81914 9.86116 1.86762Z" transform="translate(81.3857 6.93506)" fill="white"/>
<path fill-rule="evenodd" clip-rule="evenodd" d="M8.96146 6.62852C8.96146 6.01817 8.91511 5.4354 8.8224 4.87974C8.72944 4.32457 8.56242 3.83306 8.32133 3.40568C8.07999 2.97855 7.74645 2.63969 7.31945 2.38957C6.89295 2.13922 6.34502 2.01416 5.67743 2.01416C5.10809 2.01416 4.61332 2.133 4.19312 2.37093C3.77216 2.6091 3.423 2.93579 3.14513 3.35073C2.86625 3.76593 2.65918 4.24527 2.52314 4.78825C2.3871 5.33173 2.31934 5.91449 2.31934 6.53678C2.31934 7.24485 2.37148 7.88579 2.47704 8.45935C2.58133 9.03341 2.76448 9.52468 3.02396 9.93366C3.28394 10.3426 3.6268 10.6569 4.05381 10.8764C4.48056 11.0965 5.00959 11.2063 5.64015 11.2063C6.27096 11.2063 6.79974 11.0778 7.22649 10.8217C7.65324 10.5652 7.99661 10.2265 8.25634 9.80513C8.51582 9.38397 8.69846 8.89891 8.80376 8.34946C8.90831 7.80027 8.96146 7.2267 8.96146 6.62852ZM11.2991 6.55533C11.2991 8.67953 10.826 10.3214 9.88006 11.481C8.9341 12.6408 7.50193 13.2203 5.58482 13.2203C3.71683 13.2203 2.31943 12.6619 1.39135 11.5451C0.463785 10.4281 0 8.78917 0 6.62867C0 5.57876 0.139312 4.64494 0.41718 3.82699C0.695551 3.00928 1.08527 2.31638 1.58609 1.74878C2.08716 1.18094 2.68093 0.748094 3.36742 0.448757C4.0539 0.149669 4.81167 0 5.64024 0C6.56781 0 7.38731 0.149669 8.09873 0.448757C8.80965 0.748094 9.40015 1.18094 9.87048 1.74878C10.3403 2.31638 10.696 3.0063 10.9376 3.81779C11.179 4.62978 11.2991 5.54221 11.2991 6.55533Z" transform="translate(91.832 6.73389)" fill="white"/>
<path fill-rule="evenodd" clip-rule="evenodd" d="M2.95267 1.22669C2.97736 0.787376 3.08569 0.473122 3.2774 0.283674C3.46911 0.0944751 3.7568 0 4.14023 0H10.2256C11.0171 0 11.4132 0.408978 11.4132 1.22669V12.5063C11.4132 12.6408 11.3885 12.7258 11.3393 12.7623C11.2897 12.7991 11.197 12.8175 11.061 12.8175H9.4837C9.36001 12.8175 9.27083 12.7991 9.2144 12.7623C9.15948 12.7258 9.13127 12.6408 9.13127 12.5063V1.95912H5.03127L4.91992 3.55227C4.82117 4.91967 4.71989 6.14039 4.61635 7.21442C4.51156 8.2887 4.33043 9.22251 4.07322 10.0159C3.816 10.8094 3.4409 11.4623 2.94864 11.9752C2.45639 12.4876 1.77747 12.8725 0.911617 13.1288C0.787925 13.1529 0.686149 13.1499 0.605786 13.1196C0.525424 13.089 0.460177 13.0065 0.411052 12.8725L0.0213317 11.7922C-0.00360838 11.6821 -0.00663142 11.5906 0.0120107 11.5173C0.0306528 11.4442 0.107488 11.3773 0.243525 11.3161C0.763488 11.0961 1.16858 10.8157 1.45904 10.4738C1.7495 10.1322 1.97548 9.67425 2.1367 9.10044C2.29718 8.52663 2.4176 7.80936 2.49846 6.94889C2.57832 6.08818 2.668 5.02334 2.76751 3.75365L2.95267 1.22669Z" transform="translate(104.111 6.93555)" fill="white"/>
<path fill-rule="evenodd" clip-rule="evenodd" d="M8.96197 6.62852C8.96197 6.01817 8.91486 5.4354 8.82241 4.87974C8.7292 4.32457 8.56268 3.83306 8.32134 3.40568C8.07975 2.97855 7.74621 2.63969 7.31945 2.38957C6.8927 2.13922 6.34528 2.01416 5.67719 2.01416C5.1086 2.01416 4.61383 2.133 4.19287 2.37093C3.77217 2.6091 3.42351 2.93579 3.14489 3.35073C2.86677 3.76593 2.65944 4.24527 2.52365 4.78825C2.38711 5.33173 2.31909 5.91449 2.31909 6.53678C2.31909 7.24485 2.37199 7.88579 2.4773 8.45935C2.58184 9.03341 2.76449 9.52468 3.02447 9.93366C3.28395 10.3426 3.62731 10.6569 4.05432 10.8764C4.48082 11.0965 5.0096 11.2063 5.64066 11.2063C6.27147 11.2063 6.79974 11.0778 7.22624 10.8217C7.65325 10.5652 7.99712 10.2265 8.25635 9.80513C8.51633 9.38397 8.69872 8.89891 8.80427 8.34946C8.90857 7.80027 8.96197 7.2267 8.96197 6.62852ZM11.2996 6.55533C11.2996 8.67953 10.8265 10.3214 9.88006 11.481C8.9341 12.6408 7.50193 13.2203 5.58482 13.2203C3.71733 13.2203 2.31918 12.6619 1.39135 11.5451C0.464037 10.4281 0 8.78917 0 6.62867C0 5.57876 0.139312 4.64494 0.417684 3.82699C0.695803 3.00928 1.08527 2.31638 1.58659 1.74878C2.08716 1.18094 2.68119 0.748094 3.36742 0.448757C4.0544 0.149669 4.81142 0 5.64074 0C6.56831 0 7.38705 0.149669 8.09873 0.448757C8.81015 0.748094 9.4004 1.18094 9.87048 1.74878C10.3408 2.31638 10.6965 3.0063 10.9379 3.81779C11.179 4.62978 11.2996 5.54221 11.2996 6.55533Z" transform="translate(117.77 6.73389)" fill="white"/>
<path fill-rule="evenodd" clip-rule="evenodd" d="M2.2635 12.4516C2.2635 12.6224 2.23604 12.7293 2.17986 12.7718C2.12444 12.8148 2.00982 12.8359 1.837 12.8359H0.426501C0.290464 12.8359 0.185161 12.8118 0.111097 12.7628C0.0372842 12.7141 0 12.6104 0 12.4516V3.29619C0 2.86906 0.0521475 2.45685 0.157702 2.06006C0.262501 1.66351 0.445143 1.31271 0.704872 1.00715C0.964602 0.702348 1.30444 0.457956 1.7254 0.274724C2.1456 0.0917403 2.67161 0 3.30217 0H8.40506C8.57763 0 8.68595 0.0338122 8.72928 0.100691C8.77287 0.168066 8.79453 0.274724 8.79453 0.42116V1.5566C8.79453 1.71522 8.76984 1.82511 8.72047 1.88602C8.67084 1.94743 8.56528 1.97776 8.40506 1.97776H3.54376C3.07368 1.97776 2.7424 2.07845 2.55145 2.27983C2.35923 2.48122 2.2635 2.77732 2.2635 3.1679V12.4516Z" transform="translate(131.296 6.91699)" fill="white"/>
<path fill-rule="evenodd" clip-rule="evenodd" d="M8.23779 3.2226L6.60484 6.00588L2.94948 12.0486C2.76407 12.3536 2.59704 12.5612 2.44892 12.6709C2.30028 12.7807 2.0592 12.8359 1.7254 12.8359H1.07595C0.655244 12.8359 0.370575 12.7415 0.222697 12.552C0.0738126 12.3628 0 12.0913 0 11.7373V0.311271C0 0.177017 0.0274593 0.0914917 0.0833856 0.0549447C0.13906 0.0183978 0.228492 0 0.352184 0H1.89217C2.02821 0 2.12092 0.0183978 2.17054 0.0549447C2.21967 0.0914917 2.24486 0.177017 2.24486 0.311271V9.57655H2.31892L3.85916 7.01304L7.60698 0.805773C7.79214 0.488287 7.95942 0.274724 8.10754 0.164834C8.25643 0.0549448 8.49097 0 8.81267 0H9.48051C9.88912 0 10.1703 0.0887569 10.3249 0.265276C10.4796 0.442541 10.5567 0.726464 10.5567 1.1168V12.5247C10.5567 12.6592 10.529 12.7442 10.4733 12.7807C10.4177 12.8175 10.328 12.8359 10.2043 12.8359H8.66429C8.5285 12.8359 8.43529 12.8175 8.38617 12.7807C8.33629 12.7442 8.3116 12.6592 8.3116 12.5247V3.2226H8.23779Z" transform="translate(141.481 6.91699)" fill="white"/>
<path fill-rule="evenodd" clip-rule="evenodd" d="M2.91553 3.82709C2.91553 4.33974 3.08255 4.76985 3.4166 5.11792C3.75014 5.46573 4.29479 5.63977 5.04904 5.63977H7.79497V2.01416H4.93769C4.51724 2.01416 4.17689 2.07557 3.91767 2.19714C3.65743 2.31971 3.45363 2.46913 3.30525 2.6459C3.15687 2.82317 3.05434 3.01833 2.99916 3.23189C2.94299 3.44546 2.91553 3.64386 2.91553 3.82709ZM7.81395 7.50754H5.64341C5.04913 7.50754 4.55738 7.62365 4.16816 7.85536C3.77844 8.08757 3.49705 8.52688 3.32347 9.17378L2.41505 12.5431C2.37726 12.6895 2.3095 12.775 2.21074 12.7991C2.11149 12.8243 2.01273 12.8359 1.91373 12.8359H0.281287C0.120058 12.8359 0.0303745 12.7967 0.0122362 12.7169C-0.00665781 12.6378 -0.00363476 12.5493 0.0210534 12.4516L1.00455 8.82597C1.12774 8.37448 1.31063 7.98986 1.55147 7.67238C1.79306 7.35489 2.17346 7.11099 2.69267 6.93994V6.9218C1.98805 6.64086 1.46531 6.22293 1.12497 5.66727C0.784875 5.11185 0.614829 4.46793 0.614829 3.7355C0.614829 3.1863 0.711063 2.6826 0.902774 2.22489C1.09449 1.76693 1.36908 1.37337 1.72806 1.04395C2.0868 0.714282 2.51632 0.457956 3.0179 0.274724C3.51871 0.0917403 4.08427 0 4.71508 0H9.07582C9.47083 0 9.74366 0.0857735 9.89179 0.256575C10.0407 0.427624 10.1145 0.689917 10.1145 1.04395V12.5431C10.1145 12.6776 10.087 12.7599 10.0308 12.7902C9.97542 12.821 9.88549 12.8359 9.7618 12.8359H8.18503C8.04899 12.8359 7.95326 12.821 7.89708 12.7902C7.84217 12.7599 7.81395 12.6776 7.81395 12.5431V7.50754Z" transform="translate(153.854 6.91699)" fill="white"/>
<path fill-rule="evenodd" clip-rule="evenodd" d="M1.6143 6.93522C1.6143 7.05431 1.59566 7.13014 1.55863 7.16171C1.52135 7.19428 1.43796 7.20994 1.30797 7.20994H0.306335C0.204055 7.20994 0.127472 7.1918 0.0765837 7.155C0.0256959 7.11845 0 7.04511 0 6.93522V2.22514C0 1.93227 0.0299785 1.65307 0.0904393 1.38729C0.1509 1.12152 0.264516 0.886326 0.431539 0.679972C0.598562 0.473867 0.828061 0.309033 1.12029 0.18547C1.41252 0.0619061 1.7904 0 2.25443 0H5.2742C5.39437 0 5.46893 0.0253591 5.49664 0.0755801C5.52436 0.12605 5.53846 0.201381 5.53846 0.302072V1.04395C5.53846 1.14489 5.52209 1.21798 5.48984 1.26373C5.45709 1.30972 5.3853 1.3321 5.2742 1.3321H2.50484C2.18012 1.3321 1.95037 1.39873 1.81609 1.53149C1.68157 1.66425 1.6143 1.87732 1.6143 2.16994V6.93522Z" transform="translate(58.208 25.1353)" fill="white"/>
<path fill-rule="evenodd" clip-rule="evenodd" d="M4.85647 3.73591C4.85647 3.2961 4.81213 2.92765 4.72371 2.63005C4.63528 2.33271 4.50706 2.0903 4.33928 1.9026C4.1715 1.71489 3.96644 1.57964 3.72434 1.49735C3.48225 1.41481 3.21194 1.37354 2.91417 1.37354C2.72749 1.37354 2.50606 1.39193 2.2501 1.42848C1.9939 1.46528 1.78178 1.51102 1.61426 1.56597V5.93296C1.90296 6.0063 2.15689 6.05652 2.37581 6.08412C2.59473 6.11146 2.79753 6.12539 2.9837 6.12539C3.25375 6.12539 3.50315 6.08412 3.73165 6.00133C3.95989 5.91928 4.1579 5.78403 4.32542 5.59633C4.4932 5.40912 4.62344 5.16398 4.71665 4.86166C4.80961 4.55958 4.85647 4.18417 4.85647 3.73591ZM1.6143 9.91541C1.6143 10.0161 1.59566 10.0805 1.55913 10.1076C1.5221 10.1352 1.45308 10.1489 1.35206 10.1489H0.262501C0.170046 10.1489 0.103287 10.1352 0.0619723 10.1076C0.0206574 10.0805 0 10.0161 0 9.91541V0.851271C0 0.769227 0.0141075 0.705332 0.0418187 0.659337C0.0697819 0.613591 0.129739 0.568094 0.222697 0.522099C0.686482 0.320967 1.17596 0.183232 1.69089 0.109889C2.20556 0.0370442 2.69479 0 3.15883 0C3.76192 0 4.2766 0.0962155 4.7036 0.288398C5.12985 0.480829 5.48027 0.746602 5.75411 1.08497C6.02744 1.42384 6.22696 1.82213 6.35242 2.27983C6.47762 2.73779 6.54035 3.22757 6.54035 3.74942C6.54035 4.26232 6.47284 4.74489 6.33806 5.19812C6.20303 5.6511 6.00074 6.04964 5.73093 6.39298C5.46087 6.73608 5.12128 7.00633 4.71217 7.20298C4.30254 7.39989 3.82364 7.49859 3.27496 7.49859C3.02355 7.49859 2.76558 7.48442 2.50006 7.45732C2.23504 7.42947 1.93953 7.3795 1.6143 7.30591V9.91541Z" transform="translate(64.0938 24.9839)" fill="white"/>
<path fill-rule="evenodd" clip-rule="evenodd" d="M4.20034 8.37746C3.98672 9.00895 3.69222 9.45547 3.31686 9.71627C2.94099 9.97732 2.46083 10.1076 1.87638 10.1076C1.728 10.1076 1.5446 10.0984 1.32694 10.08C1.10878 10.0614 0.883563 10.0146 0.651797 9.94127C0.549769 9.92287 0.487041 9.89478 0.463864 9.85749C0.440687 9.82069 0.43842 9.76028 0.457062 9.67724L0.651797 8.83094C0.670187 8.7392 0.700417 8.686 0.742488 8.67257C0.784055 8.6589 0.846531 8.66088 0.930168 8.67928C1.08787 8.71583 1.21056 8.74119 1.29898 8.75486C1.3869 8.76878 1.49145 8.77575 1.61212 8.77575C1.93659 8.77575 2.19405 8.71409 2.38425 8.59177C2.57445 8.4687 2.72535 8.2442 2.83645 7.91727L3.12893 7.05903H2.79463C2.62786 7.05903 2.49081 7.03119 2.38425 6.97624C2.27769 6.92155 2.18246 6.76144 2.09908 6.49591L0.0116675 0.191934C-0.0253648 0.0641437 0.025775 0 0.164835 0H1.44509C1.54712 0 1.61665 0.0116851 1.65368 0.0343094C1.69072 0.0574309 1.71843 0.105663 1.73732 0.17826L2.68353 3.33696L3.4073 5.8229H3.49068L4.26962 3.30961L5.29972 0.191934C5.31811 0.119088 5.34356 0.0686188 5.37605 0.0412707C5.40855 0.0134254 5.47581 0 5.57809 0H6.84424C6.9833 0 7.02966 0.0599171 6.9833 0.17826L4.20034 8.39113V8.37746Z" transform="translate(70.7061 25.1353)" fill="white"/>
<path fill-rule="evenodd" clip-rule="evenodd" d="M6.41515 6.97649C6.41515 7.07768 6.39398 7.14133 6.35317 7.16892C6.31186 7.19627 6.23981 7.20994 6.13929 7.20994H5.06309C4.97064 7.20994 4.90388 7.19627 4.86307 7.16892C4.82175 7.14133 4.80109 7.07718 4.80109 6.97599V1.3321H1.6138V6.97599C1.6138 7.07718 1.59516 7.14133 1.55863 7.16892C1.52135 7.19627 1.45182 7.20994 1.34979 7.20994H0.264264C0.171558 7.20994 0.104295 7.19627 0.0624762 7.16892C0.0209094 7.14133 0 7.07768 0 6.97649V0.659586C0 0.50395 0.0458495 0.355028 0.138556 0.213315C0.231263 0.0713536 0.411637 0 0.680688 0H5.72035C5.98915 0 6.17179 0.0713536 6.26928 0.213315C6.36602 0.355028 6.41515 0.50395 6.41515 0.659586V6.97649Z" transform="translate(78.0371 25.1353)" fill="white"/>
<path fill-rule="evenodd" clip-rule="evenodd" d="M6.41515 6.97649C6.41515 7.07768 6.39449 7.14133 6.35317 7.16892C6.31161 7.19627 6.24031 7.20994 6.13904 7.20994H5.06309C4.97089 7.20994 4.90438 7.19627 4.86307 7.16892C4.82175 7.14133 4.80084 7.07718 4.80084 6.97599V1.3321H1.6143V6.97599C1.6143 7.07718 1.59541 7.14133 1.55863 7.16892C1.52109 7.19627 1.45232 7.20994 1.34979 7.20994H0.264768C0.172061 7.20994 0.104547 7.19627 0.0624762 7.16892C0.0211613 7.14133 0 7.07768 0 6.97649V0.659586C0 0.50395 0.0458495 0.355028 0.138556 0.213315C0.231011 0.0713536 0.411889 0 0.680436 0H5.72085C5.9894 0 6.17179 0.0713536 6.26928 0.213315C6.36653 0.355028 6.41515 0.50395 6.41515 0.659586V6.97649Z" transform="translate(85.5791 25.1353)" fill="white"/>
<path fill-rule="evenodd" clip-rule="evenodd" d="M2.26831 6.86377C2.26831 6.86377 10.4329 0.447754 15.7246 0L31.2983 24.9194C31.2983 24.9194 6.35034 34.7676 0 44.4673C0 44.4673 4.68726 32.231 25.4014 23.5762L14.0615 3.13379C14.0615 3.13379 6.0481 4.7749 2.26831 6.86377ZM18.1448 2.16602L19.4841 4.3252C20.3298 4.13281 20.8564 4.02686 20.8564 4.02686L36.3501 27.208C16.5837 30.0703 1.70874 43.604 0.472656 44.7563L0.462402 44.7661L0.455078 44.769L0.37915 44.8442L0.499023 44.7715L0.611084 44.7036C18.1924 37.2114 37.5715 33.9355 37.5715 33.9355L34.7466 30.0703C39.4558 28.8916 42.2419 28.5708 42.2419 28.5708L22.5305 0.898926C21.1936 1.00732 19.6721 1.49658 18.1448 2.16602ZM2.47339 16.8271L5.75586 25.1572L13.3867 15.9854L2.47339 16.8271Z" fill="white"/>
</svg>
