<?xml version="1.0" encoding="utf-8"?>
<!-- Generator: Adobe Illustrator 22.1.0, SVG Export Plug-In . SVG Version: 6.00 Build 0)  -->
<svg version="1.1" id="Layer_1" xmlns="http://www.w3.org/2000/svg" xmlns:xlink="http://www.w3.org/1999/xlink" x="0px" y="0px"
	 width="100px" height="100px" viewBox="0 0 100 100" style="enable-background:new 0 0 100 100;" xml:space="preserve">
<style type="text/css">
	.st0{fill:#F68D20;}
</style>
<path class="st0" d="M89.4,70.7c-7.5-2.3-12.6-9-12.6-16.5c0-6.7,3.9-12.7,10.3-15.6c0.6-0.3,1-0.8,1.2-1.3c0.2-0.6,0.1-1.2-0.2-1.8
	c-0.3-0.4-6.5-10.6-20-10.6c-5.6,0-11.7,1.8-18.2,5.3c-2.7-1.5-9.2-4.8-16.1-4.8c-3.7,0-7,0.9-9.9,2.7c-2.1,1.1-22.5,13-11.8,44.7
	c0.3,0.7,7.7,17.4,16.6,23.7c0.7,0.6,3.6,2.9,7.9,2.9c2.6,0,5.2-0.8,7.8-2.5c0.8-0.3,4.3-1.6,8-1.6c2.4,0,4.4,0.5,6,1.6
	c0.2,0.1,4.2,2.7,8.8,2.7c3,0,5.7-1.1,7.8-3.2c1.1-1,11-9.4,16.1-22.7C91,73.5,91,73,91,72.7C90.9,71.8,90.3,71,89.4,70.7z
	 M71.7,93.2c-0.1,0.1-0.1,0.1-0.2,0.2c-1.3,1.3-2.8,1.9-4.6,1.9c-3.2,0-6.2-1.9-6.2-1.9c-2.3-1.6-5.2-2.4-8.6-2.4c-5.2,0-9.8,2-10,2
	c-0.1,0.1-0.3,0.1-0.4,0.2C40,94.4,38.2,95,36.5,95c-2.9,0-4.8-1.7-4.8-1.7c-0.1-0.1-0.2-0.2-0.3-0.2c-7.8-5.5-15.1-21.7-15.1-21.7
	c-9.8-29.3,8.9-38.9,9.7-39.3c0.1,0,0.2-0.1,0.3-0.1c2.1-1.4,4.6-2,7.4-2c7.5,0,14.7,4.7,14.8,4.8c0.7,0.5,1.7,0.5,2.5,0.1
	c6.1-3.6,11.9-5.4,17-5.4c7.8,0,12.5,4.1,14.7,6.5c-6.5,4-10.5,10.8-10.5,18.3c0,8.7,5.4,16.4,13.6,19.9
	C80.7,85.8,71.8,93.1,71.7,93.2z M49.3,26.5c0.1,0,0.1,0,0.2,0c0.2,0,23.3-1.8,22.1-24.4c0-0.6-0.3-1.2-0.8-1.6
	C70.2,0.1,69.6-0.1,69,0c-0.2,0-20.6,2.4-22,24.2c0,0.6,0.2,1.3,0.7,1.7C48.1,26.3,48.7,26.5,49.3,26.5z M66.9,4.9
	c-0.6,12.1-10.2,15.7-15,16.8C53.8,10,62.5,6.1,66.9,4.9z"/>
</svg>
