<?xml version="1.0" encoding="utf-8"?>
<!-- Generator: Adobe Illustrator 22.1.0, SVG Export Plug-In . SVG Version: 6.00 Build 0)  -->
<svg version="1.1" id="Layer_1" xmlns="http://www.w3.org/2000/svg" xmlns:xlink="http://www.w3.org/1999/xlink" x="0px" y="0px"
	 width="100px" height="100px" viewBox="0 0 100 100" style="enable-background:new 0 0 100 100;" xml:space="preserve">
<style type="text/css">
	.st0{fill:none;stroke:#4FB646;}
	.st1{fill:#4FB646;}
</style>
<circle id="Oval-5-Copy-4" class="st0" cx="50" cy="50" r="49"/>
<path id="Shape" class="st1" d="M73.9,50.9c2.6-2.5,1.8-7.7-2.7-7.7l-11.7,0c0.4-2.5,1.1-6.6,1.1-6.9c-0.2-3.7-2.6-8.1-2.7-8.3
	c-0.4-0.8-2.6-1.9-4.7-1.4c-2.8,0.6-3.1,2.4-3.1,2.9c0,0,0.1,4.9,0.1,6.2C49,38.5,44.4,46.2,43,46.8c-0.3-0.2-0.7-0.3-1.1-0.3H27.1
	c-1.3,0-2.3,1-2.3,2.3l0,20.3c0.1,1.1,1,2,2.1,2h13.2c1.2,0,2.1-1,2.1-2.1v-0.7c0,0,0.5,0,0.7,0.1c0.9,0.5,1.9,1.2,3.3,1.2h19.7
	c7.4,0,6.6-6.5,5.9-7.4c1.2-1.4,2-3.8,1-5.6C73.8,55.7,75.2,53.3,73.9,50.9z M39.8,69H27V48.6h12.8V69z M70.5,50.7l-0.1,0.5
	c3.4,1,1.6,4.9-0.8,5.1l-0.1,0.5c3.3,0.8,1.7,4.9-0.8,5.1l-0.1,0.5c2.7,0.4,2,5-2,5l-20.1,0c-1.4,0-2.7-1.6-3.8-1.6h-0.9V50.2
	c1.1-0.7,2.5-1.6,3.3-2.3c1.5-1.2,7.5-10.9,7.5-12.1c0-1.2-0.1-6.5-0.1-6.5s1.2-1.5,3.8-0.4c0,0,2.2,4.1,2.4,7.4c0,0-1,6.8-1.5,8.9
	h13.9C74.3,45.3,73.7,50.2,70.5,50.7z"/>
</svg>
