<?xml version="1.0" encoding="utf-8"?>
<!-- Generator: Adobe Illustrator 22.1.0, SVG Export Plug-In . SVG Version: 6.00 Build 0)  -->
<svg version="1.1" id="Layer_1" xmlns="http://www.w3.org/2000/svg" xmlns:xlink="http://www.w3.org/1999/xlink" x="0px" y="0px"
	 width="100px" height="100px" viewBox="0 0 100 100" style="enable-background:new 0 0 100 100;" xml:space="preserve">
<style type="text/css">
	.st0{fill:#3FB6DF;}
</style>
<path id="Fill-1" class="st0" d="M48.5,40.8c-6.7,0-12.1,5.4-12.1,12.1c0,6.7,5.4,12.1,12.1,12.1c6.7,0,12.1-5.4,12.1-12.1
	C60.5,46.2,55.1,40.8,48.5,40.8 M48.5,66.7c-7.7,0-13.8-6.2-13.8-13.8S40.8,39,48.5,39s13.7,6.3,13.7,13.8S56,66.7,48.5,66.7"/>
<path id="Fill-5" class="st0" d="M55.8,53.9h-7.4c-0.4,0-0.8-0.3-0.8-0.8v-7.8c0-0.4,0.3-0.8,0.8-0.8c0.4,0,0.8,0.3,0.8,0.8v7.1h6.6
	c0.4,0,0.8,0.3,0.8,0.8C56.6,53.6,56.2,53.9,55.8,53.9"/>
<path id="Fill-9" class="st0" d="M34,74.2c0-0.1-0.4-4.9-6.4-4.9c-6.1,0-6.4,4.9-6.4,4.9v1.4c0,0.4,0.3,0.7,0.7,0.7h11.5
	c0.4,0,0.7-0.3,0.7-0.7L34,74.2L34,74.2z"/>
<path id="Fill-13" class="st0" d="M27.5,68.2c1.8,0,3.2-1.6,3.2-3.6c0-2-1.5-3.6-3.2-3.6c-1.8,0-3.2,1.6-3.2,3.6
	C24.3,66.6,25.7,68.2,27.5,68.2"/>
<path id="Fill-17" class="st0" d="M76.7,74.2c0-0.1-0.4-4.9-6.4-4.9c-6.1,0-6.4,4.9-6.4,4.9v1.4c0,0.4,0.3,0.7,0.7,0.7h11.5
	c0.4,0,0.7-0.3,0.7-0.7L76.7,74.2L76.7,74.2z"/>
<path id="Fill-21" class="st0" d="M70,68.2c1.8,0,3.2-1.6,3.2-3.6c0-2-1.5-3.6-3.2-3.6c-1.8,0-3.2,1.6-3.2,3.6
	C66.8,66.6,68.2,68.2,70,68.2"/>
<path id="Fill-25" class="st0" d="M55.1,30.6c0-0.1-0.4-4.9-6.4-4.9c-6.1,0-6.4,4.9-6.4,4.9V32c0,0.4,0.3,0.7,0.7,0.7h11.5
	c0.4,0,0.7-0.3,0.7-0.7v-1.4H55.1z"/>
<path id="Fill-29" class="st0" d="M48.5,24.5c1.8,0,3.2-1.6,3.2-3.6c0-2-1.5-3.5-3.2-3.5c-1.8,0-3.2,1.6-3.2,3.6
	C45.3,23,46.7,24.5,48.5,24.5"/>
<path id="Fill-33" class="st0" d="M38.8,26.5C38.7,26.2,38.4,26,38,26c-0.1,0-0.3,0-0.3,0.1C14.1,36.3,21.5,60.3,21.6,60.5
	c0.1,0.4,0.6,0.7,1,0.5c0.2-0.1,0.4-0.2,0.5-0.4c0.1-0.2,0.1-0.4,0.1-0.6c0-0.1-1.9-5.7-0.8-12.5c1.3-9.2,6.7-15.9,16-19.9
	C38.8,27.4,39,26.8,38.8,26.5"/>
<path id="Fill-37" class="st0" d="M60.4,26c-0.1-0.1-0.2-0.1-0.3-0.1s-0.2,0-0.3,0.1c-0.2,0.1-0.4,0.3-0.4,0.4
	c-0.1,0.2-0.1,0.4,0,0.6c0.1,0.2,0.3,0.4,0.4,0.4C82,37.1,75.4,59,75.1,60c-0.1,0.4,0.1,0.9,0.5,1c0.4,0.1,0.9-0.1,1-0.5
	C76.7,60.3,84,36.3,60.4,26"/>
<path id="Fill-41" class="st0" d="M59.8,76.2c-11.6,4.9-21.1,0.1-21.2,0h-0.3c-0.1,0-0.2,0-0.3,0.1c-0.2,0.1-0.4,0.2-0.5,0.4
	c-0.1,0.2-0.1,0.4-0.1,0.6c0.1,0.2,0.2,0.4,0.4,0.5c0.2,0.1,4.7,2.4,11.2,2.4c3.9,0,7.7-0.8,11.4-2.4c0.4-0.2,0.6-0.6,0.4-1.1
	C60.7,76.2,60.2,76.1,59.8,76.2"/>
<path class="st0" d="M48.5,40.3C55.4,40.3,61,46,61,52.9c0,6.9-5.6,12.6-12.6,12.6c-6.9,0-12.6-5.6-12.6-12.6
	C35.9,45.9,41.5,40.3,48.5,40.3z M48.5,41.3c-6.4,0-11.6,5.2-11.6,11.6c0,6.4,5.2,11.6,11.6,11.6c6.4,0,11.6-5.2,11.6-11.6
	C60,46.5,54.8,41.3,48.5,41.3z M48.5,66.2c7.3,0,13.2-6,13.2-13.3c0-7.3-5.9-13.3-13.2-13.3c-7.4,0-13.3,6-13.3,13.3
	S41.1,66.2,48.5,66.2z M48.5,67.2c-7.9,0-14.3-6.4-14.3-14.3s6.4-14.3,14.3-14.3c7.9,0,14.2,6.4,14.2,14.3
	C62.7,60.7,56.3,67.2,48.5,67.2z M34.6,73.7v1.9c0,0.7-0.5,1.2-1.2,1.2H22c-0.7,0-1.2-0.5-1.2-1.2l0-1.4c0-0.7,0.3-1.7,1-2.7
	c1.1-1.7,3.1-2.7,5.9-2.7c2.8,0,4.7,1,5.8,2.6c0.5,0.8,0.9,1.6,1,2.3H34.6z M27.5,68.7c-2.1,0-3.7-1.8-3.7-4.1
	c0-2.3,1.6-4.1,3.7-4.1c2,0,3.7,1.9,3.7,4.1C31.2,66.9,29.5,68.7,27.5,68.7z M77.3,73.7v1.9c0,0.7-0.5,1.2-1.2,1.2H64.6
	c-0.7,0-1.2-0.5-1.2-1.2l0-1.4c0-0.7,0.3-1.7,1-2.7c1.1-1.7,3.1-2.7,5.9-2.7c2.8,0,4.7,1,5.8,2.6c0.5,0.8,0.9,1.6,1,2.3H77.3z
	 M70,68.7c-2.1,0-3.7-1.8-3.7-4.1c0-2.3,1.6-4.1,3.7-4.1c2,0,3.7,1.9,3.7,4.1C73.7,66.9,72.1,68.7,70,68.7z M55.7,30.1V32
	c0,0.7-0.5,1.2-1.2,1.2H43c-0.7,0-1.2-0.5-1.2-1.2l0-1.4c0-0.7,0.3-1.7,1-2.7c1.1-1.7,3.1-2.7,5.9-2.7c2.8,0,4.7,1,5.8,2.6
	c0.5,0.8,0.9,1.6,1,2.3H55.7z M48.5,25c-2.1,0-3.7-1.7-3.7-4c0-2.3,1.6-4.1,3.7-4.1c2,0,3.7,1.8,3.7,4C52.2,23.2,50.6,25,48.5,25z
	 M38.6,28c-9.2,3.9-14.5,10.5-15.7,19.5c-0.6,3.5-0.4,6.9,0.2,10c0.2,1,0.6,2.4,0.6,2.4c0,0.4,0,0.6-0.2,0.8
	c-0.1,0.3-0.3,0.4-0.7,0.6c-0.7,0.3-1.5-0.1-1.7-0.8c-0.2-0.5-0.6-2.3-0.9-4.1c-0.4-3.1-0.5-6.3,0-9.6c1.4-9.2,6.7-16.7,17.1-21.3
	c0.1-0.1,0.3-0.2,0.5-0.2c0.1,0,0.1,0,0.2,0c0.6,0,1.1,0.3,1.2,0.8C39.6,26.8,39.3,27.7,38.6,28z M77.9,47
	c0.8,5.4-0.1,12.4-0.9,13.7c-0.2,0.6-0.9,0.9-1.6,0.8c-0.7-0.2-1-0.9-0.9-1.6c0.2-0.7,0.4-1.3,0.6-2.3c1-5.2,0.8-10.7-1.3-15.9
	c-2.4-5.8-6.9-10.5-14.2-13.7c-0.3-0.1-0.5-0.4-0.7-0.7c-0.2-0.3-0.2-0.7,0-1c0.1-0.3,0.3-0.5,0.6-0.7c0.2-0.2,0.3-0.2,0.6-0.2
	c0.1,0,0.2,0,0.3,0c0.1,0,0.2,0.1,0.3,0.1C71.2,30.2,76.5,37.7,77.9,47z M38.3,75.7h0.5l0.1,0.1c0.2,0.2,3.2,1.3,6,1.7
	c4.7,0.7,9.7,0.3,14.6-1.8l0.1,0c0.7-0.2,1.5,0.1,1.5,0.9c0.2,0.7,0,1.3-0.7,1.7c-3.7,1.6-7.6,2.4-11.6,2.4c-2.9,0-5.7-0.5-8.2-1.2
	c-0.8-0.3-1.6-0.5-2.3-0.8c-0.2-0.1-0.5-0.2-0.6-0.3c-0.1-0.1-0.2-0.1-0.3-0.1c-0.3-0.1-0.4-0.3-0.6-0.7l-0.1-0.1v-0.1
	c0-0.2,0-0.3,0-0.4c0-0.2,0.1-0.3,0.1-0.5c0.1-0.3,0.3-0.4,0.7-0.6C37.9,75.7,38.1,75.7,38.3,75.7z"/>
</svg>
