<?xml version="1.0" encoding="utf-8"?>
<!-- Generator: Adobe Illustrator 22.1.0, SVG Export Plug-In . SVG Version: 6.00 Build 0)  -->
<svg version="1.1" id="Layer_1" xmlns="http://www.w3.org/2000/svg" xmlns:xlink="http://www.w3.org/1999/xlink" x="0px" y="0px"
	 width="100px" height="100px" viewBox="0 0 100 100" style="enable-background:new 0 0 100 100;" xml:space="preserve">
<style type="text/css">
	.st0{fill:#3FB6DF;stroke:#3FB6DF;stroke-width:0.5;}
</style>
<path class="st0" d="M76,73.5c-0.5,0.7-4.5,5.2-24.6,5.5c0.9-1.6,2.6-4.2,4.8-7c3.5-4.3,9.6-5.3,9.7-5.3c0.3-0.1,0.6-0.3,0.8-0.6
	c0.1-0.3,0.1-0.7-0.2-1l-4.5-5.2c2.4,0.7,5.5,1.5,9.3,2.2c2.7,0.5,4.6,2.9,4.6,5.6v5.9H76z M22,68.1c0-2.6,1.7-4.7,4.2-5.4
	c3.3-1,7.3-2.1,10-3L31.6,65c-0.2,0.3-0.3,0.6-0.2,1c0.1,0.3,0.4,0.5,0.8,0.6c0.1,0,6.1,1.1,9.7,5.3c2.4,2.8,4,5.4,4.8,7
	c-20.1-0.2-24.1-4.5-24.6-5.3V68.1z M48.4,17.9c4,0,8.1,1.3,11.2,3.5c2.6,1.8,5.6,5.2,5.6,10.9c0,10.1,1.3,15.4,3.5,20.7
	c-3.2,2-7.4,3.4-8.7,3.8c-0.4-0.2-0.8-0.4-1-0.5c-2.8-1.9-3.3-2.9-3.4-3v-3.7l0.3-0.3C61,44.2,61,34,61,33.6c0-0.5-0.4-1-1-1
	c0,0-4.6-0.1-9.1-1.9c-4.3-1.8-7.3-6-7.4-6.1c-0.3-0.4-0.8-0.5-1.3-0.3c-0.4,0.2-0.6,0.6-0.5,1.2c1,3.5-4,5.2-4.2,5.3
	c-0.4,0.1-0.6,0.5-0.6,0.9c0,0.5-0.5,12.2,4.8,17.7c0.3,0.3,0.5,0.5,0.9,0.7v3.2c-0.4,0.5-1.5,1.8-3.1,2.9c-0.2,0-0.3,0.1-0.5,0.3
	c-0.2,0.1-0.4,0.2-0.8,0.3c-1.4-0.4-6.4-1.9-9-3.5c2.1-4.8,3.7-9.5,3.7-20C32.8,23.7,40.7,17.9,48.4,17.9z M57.7,57.9l6.2,7.3
	c-2.3,0.6-6.3,2.2-9.2,5.7c-1.6,2-3,3.9-4,5.4c1.4-6.4,3.5-13.7,6.3-18.8C57.3,57.6,57.5,57.8,57.7,57.9z M40.2,58.1
	c0.2-0.1,0.4-0.2,0.6-0.4c1.1,3.2,4.1,11.6,5.9,17.7c-0.9-1.4-2-3-3.4-4.7c-2.8-3.4-7-5-9.2-5.7L40.2,58.1z M44.5,53.8v-2.3
	c1.2,0.5,2.6,0.9,4,0.9c1.8,0,3.5-0.4,4.9-1.2v2.1c-0.1,0.9,0.5,1.8,1.9,3.1c-2.9,5.2-5.2,12.8-6.6,19.3c-2-6.8-5.5-16.7-6.4-19.2
	c1.3-1.2,1.9-2.1,1.9-2.1C44.4,54.1,44.5,54,44.5,53.8z M48.6,50.2c-2.1,0-4-0.7-5.4-2.2c-4.1-4.3-4.3-13.1-4.3-15.6
	c1.7-0.7,4.1-2.2,4.7-4.6c1.4,1.5,3.8,3.5,6.6,4.7c3.5,1.5,7.2,1.9,8.8,2c-0.1,2.6-0.9,9.6-4.5,13.3C52.9,49.4,50.9,50.2,48.6,50.2z
	 M62.9,58.1c2.1-0.7,5.2-2,7.6-3.7c0.4-0.3,0.5-0.7,0.3-1.2C68.3,47.6,67,42.7,67,32.4c0-6.4-3.4-10.4-6.3-12.5
	c-3.4-2.6-7.8-3.9-12.4-3.9c-8.7,0-17.6,6.5-17.6,17.4c0,10.6-1.5,14.9-3.8,19.9c-0.2,0.4-0.1,0.9,0.3,1.2c1.8,1.4,5.2,2.8,7.7,3.5
	c-2.1,0.6-5.4,1.6-9.5,2.8c-3.3,1-5.6,3.9-5.6,7.4v5.8c0,0.1,0,0.2,0.1,0.3c0.2,0.6,3.2,6.6,27.9,6.7c0.1,0,0.2,0.1,0.3,0.1
	c0.1,0,0.2,0,0.3-0.1H49h0.3c0.1,0,0.2,0.1,0.3,0.1c0.1,0,0.2,0,0.3-0.1c24.7-0.2,27.7-6.2,27.9-6.9c0-0.1,0.1-0.2,0.1-0.3v-6.1
	c0-3.5-2.7-6.7-6.3-7.4C68.1,59.5,65.1,58.8,62.9,58.1z"/>
</svg>
