<?xml version="1.0" encoding="utf-8"?>
<!-- Generator: Adobe Illustrator 22.1.0, SVG Export Plug-In . SVG Version: 6.00 Build 0)  -->
<svg version="1.1" id="Layer_1" xmlns="http://www.w3.org/2000/svg" xmlns:xlink="http://www.w3.org/1999/xlink" x="0px" y="0px"
	 width="100px" height="100px" viewBox="0 0 100 100" style="enable-background:new 0 0 100 100;" xml:space="preserve">
<style type="text/css">
	.st0{fill:none;stroke:url(#SVGID_1_);stroke-width:3;}
	.st1{fill:none;stroke:url(#SVGID_2_);stroke-width:3;}
	.st2{fill:#FFFFFF;stroke:url(#SVGID_3_);stroke-width:3;}
</style>
<linearGradient id="SVGID_1_" gradientUnits="userSpaceOnUse" x1="60.4992" y1="40.7593" x2="66.1192" y2="34.6093" gradientTransform="matrix(1 0 0 -1 -14.29 87.71)">
	<stop  offset="0" style="stop-color:#2EE5FF"/>
	<stop  offset="1" style="stop-color:#44D83D"/>
</linearGradient>
<path class="st0" d="M76.8,18.1L17.1,77.8l4,4l59.7-59.7L76.8,18.1z"/>
<linearGradient id="SVGID_2_" gradientUnits="userSpaceOnUse" x1="63.2258" y1="35.0056" x2="69.3758" y2="40.6256" gradientTransform="matrix(1 0 0 -1 -14.29 87.71)">
	<stop  offset="0" style="stop-color:#2EE5FF"/>
	<stop  offset="1" style="stop-color:#44D83D"/>
</linearGradient>
<path class="st1" d="M20.1,22.1l59.7,59.7l4-4L24.1,18.1L20.1,22.1z"/>
<linearGradient id="SVGID_3_" gradientUnits="userSpaceOnUse" x1="59.0783" y1="43.2618" x2="70.1783" y2="35.8018" gradientTransform="matrix(1 0 0 -1 -14.29 87.71)">
	<stop  offset="0" style="stop-color:#2EE5FF"/>
	<stop  offset="1" style="stop-color:#44D83D"/>
</linearGradient>
<path class="st2" d="M50.2,53.6c3,0,5.5-2.4,5.5-5.5s-2.4-5.5-5.5-5.5c-3,0-5.5,2.4-5.5,5.5l0,0C44.7,51.2,47.2,53.6,50.2,53.6z"/>
</svg>
