<?xml version="1.0" encoding="utf-8"?>
<!-- Generator: Adobe Illustrator 22.1.0, SVG Export Plug-In . SVG Version: 6.00 Build 0)  -->
<svg version="1.1" id="Layer_1" xmlns="http://www.w3.org/2000/svg" xmlns:xlink="http://www.w3.org/1999/xlink" x="0px" y="0px"
	 width="100px" height="100px" viewBox="0 0 100 100" style="enable-background:new 0 0 100 100;" xml:space="preserve">
<style type="text/css">
	.st0{fill:none;stroke:#4FB646;}
	.st1{fill:#4FB646;}
</style>
<circle id="Oval-5-Copy-2" class="st0" cx="50" cy="50" r="49"/>
<path id="Shape" class="st1" d="M66.3,49.9c2.6,0,4.7-0.5,5.6-1.3c0.4-0.4,0.6-0.9,0.6-1.5c0-5.5-3.6-8.9-6.2-8.9
	c-2.6,0-6.2,3.4-6.2,8.9c0,0.6,0.2,1.1,0.6,1.6C61.5,49.4,63.7,49.9,66.3,49.9z M72.5,39.8c1.3,2.1,2.1,4.8,2.1,7.2
	c0,1.2-0.4,2.3-1.3,3.2c-1.3,1.3-4,2-7.1,2c-3.2,0-5.8-0.7-7.1-2c-0.9-0.9-1.3-1.9-1.3-3.2c0-2.4,0.8-5.2,2.2-7.2
	c0.6-1,1.4-1.8,2.3-2.4c0.1-0.1,0.1-0.2,0.1-0.3c0.1-0.2,0-0.4-0.2-0.6c-0.9-0.9-1.3-2.3-1.3-3.6c0-2.9,2.4-5.4,5.4-5.4h0.1
	c2.9,0,5.4,2.4,5.4,5.4c0,1.3-0.5,2.6-1.4,3.6c-0.1,0.2-0.2,0.4-0.1,0.5c0,0.2,0.1,0.2,0.1,0.4C71.1,38,71.9,38.8,72.5,39.8z
	 M69.4,32.8c0-1.8-1.5-3.2-3.2-3.2c-1.8,0-3.2,1.5-3.2,3.2c0,1.8,1.4,3.2,3.2,3.2C68,36,69.4,34.6,69.4,32.8z"/>
<path id="Shape_1_" class="st1" d="M33.6,27.5c2.9,0,5.4,2.4,5.4,5.4c0,1.3-0.5,2.6-1.4,3.6c-0.1,0.2-0.2,0.4-0.1,0.5
	c0,0.2,0.1,0.2,0.1,0.4c0.9,0.7,1.6,1.5,2.3,2.4c1.3,2.1,2.1,4.8,2.1,7.2c0,1.2-0.4,2.3-1.3,3.2c-1.3,1.3-4,2-7.1,2
	c-3.2,0-5.8-0.7-7.1-2c-0.9-0.9-1.3-1.9-1.3-3.2c0-2.4,0.8-5.2,2.2-7.2c0.6-1,1.4-1.8,2.3-2.4c0.1-0.1,0.1-0.2,0.1-0.3
	c0-0.2,0-0.4-0.2-0.6c-0.9-0.9-1.3-2.3-1.3-3.6C28.2,29.9,30.5,27.5,33.6,27.5L33.6,27.5z M36.7,32.8c0-1.8-1.5-3.2-3.2-3.2
	c-1.8,0-3.2,1.5-3.2,3.2c0,1.8,1.4,3.2,3.2,3.2C35.3,36,36.7,34.6,36.7,32.8z M39.1,48.6c0.4-0.4,0.6-0.9,0.6-1.5
	c0-5.5-3.6-8.9-6.2-8.9c-2.6,0-6.2,3.4-6.2,8.9c0,0.6,0.2,1.1,0.6,1.6c0.9,0.8,3,1.3,5.5,1.3C36.1,49.9,38.3,49.4,39.1,48.6z"/>
<path id="Shape_2_" class="st1" d="M44.5,40.3c3.6,0,7.2,0,10.7,0c1.4,0,1.4-2.4,0-2.4c-3.6,0-7.2,0-10.7,0
	C43,37.9,43,40.3,44.5,40.3z"/>
<path id="Shape_3_" class="st1" d="M49.8,53.7L49.8,53.7c3,0,5.4,2.4,5.4,5.4c0,1.3-0.5,2.6-1.4,3.6c-0.1,0.2-0.2,0.4-0.1,0.6
	c0,0.2,0.1,0.2,0.1,0.4c0.9,0.7,1.6,1.5,2.3,2.5c1.3,2.1,2.1,4.8,2.1,7.3c0,1.2-0.4,2.3-1.3,3.2c-1.3,1.3-3.9,2-7.1,2
	c-3.2,0-5.8-0.7-7-2c-0.9-0.9-1.3-2-1.3-3.2c0-2.5,0.8-5.2,2.1-7.3c0.6-1,1.4-1.8,2.3-2.5c0.1-0.1,0.1-0.2,0.1-0.3
	c0-0.2,0-0.4-0.2-0.6c-0.8-1-1.3-2.3-1.3-3.6C44.5,56.1,46.9,53.7,49.8,53.7z M49.9,55.8c-1.8,0-3.2,1.5-3.2,3.2
	c0,1.8,1.4,3.3,3.2,3.3c1.8,0,3.2-1.4,3.2-3.3C53,57.2,51.6,55.8,49.9,55.8z M55.5,74.9c0.4-0.4,0.6-0.9,0.6-1.5c0-5.6-3.6-9-6.2-9
	c-2.5,0-6.2,3.4-6.2,9c0,0.6,0.2,1.1,0.6,1.6c0.8,0.8,3,1.3,5.5,1.3C52.4,76.3,54.6,75.8,55.5,74.9z"/>
<path id="Shape_4_" class="st1" d="M31.9,56.6c2.5,2.6,5.2,5.2,7.7,7.8c1,1,2.7-0.6,1.6-1.7c-2.5-2.6-5.2-5.2-7.7-7.8
	C32.5,54,30.9,55.6,31.9,56.6z"/>
<path id="Shape_5_" class="st1" d="M66.2,55c-2.5,2.6-5.2,5.2-7.7,7.8c-1,1,0.5,2.7,1.6,1.7c2.5-2.6,5.2-5.2,7.7-7.8
	C68.9,55.6,67.2,54,66.2,55z"/>
</svg>
