<?xml version="1.0" encoding="utf-8"?>
<!-- Generator: Adobe Illustrator 22.1.0, SVG Export Plug-In . SVG Version: 6.00 Build 0)  -->
<svg version="1.1" id="Layer_1" xmlns="http://www.w3.org/2000/svg" xmlns:xlink="http://www.w3.org/1999/xlink" x="0px" y="0px"
	 width="100px" height="100px" viewBox="0 0 100 100" style="enable-background:new 0 0 100 100;" xml:space="preserve">
<style type="text/css">
	.st0{fill:#4FB646;}
</style>
<path class="st0" d="M56.8,57.6l14.9,12.2H26.5l14.8-12.2l7.1,4c0.4,0.2,0.8,0.2,1.2,0L56.8,57.6z M73.7,48.1v20.2l-14.6-12
	L73.7,48.1z M24.5,48.1l14.6,8.2l-14.6,12C24.5,68.3,24.5,48.1,24.5,48.1z M67.5,44.9l4.1,1.6l-4.1,2.4V44.9z M30.7,44.9v3.9
	l-4.1-2.4L30.7,44.9z M49,32.9c-0.6,0.1-1.1,0.6-1.1,1.3v1.2h-0.6c-1.7,0-3.1,1.4-3.1,3.1v1.2c0,0.9,0.5,1.9,1.4,2.4s2,0.7,3.5,0.7
	c1.3,0,2.1,0.2,2.3,0.4c0.3,0.1,0.2,0.1,0.2,0.3v1.2c0,0.4-0.3,0.6-0.6,0.6h-3.6c-0.4,0-0.5-0.1-0.6-0.1c0-0.7-0.6-1.2-1.3-1.2
	s-1.2,0.6-1.2,1.3c0,0.9,0.5,1.7,1.2,2.1c0.5,0.5,1.1,0.5,1.7,0.5h0.6v1.2c0,0.7,0.5,1.3,1.2,1.3s1.3-0.5,1.3-1.2v-1.3h0.6
	c1.7,0,3.1-1.4,3.1-3.1v-1.2c0-0.9-0.5-1.9-1.4-2.4s-2-0.7-3.5-0.7c-1.3,0-2.1-0.2-2.3-0.4s-0.1-0.1-0.1-0.3v-1.2
	c0-0.4,0.3-0.6,0.6-0.6h3.6c0.4,0,0.5,0,0.6,0.1c0,0.7,0.6,1.2,1.3,1.2S54,38.7,54,38c0-0.9-0.5-1.8-1.2-2.1s-1.3-0.4-1.9-0.4h-0.6
	v-1.2C50.3,33.5,49.8,33,49,32.9C49.1,32.9,49,32.9,49,32.9z M49.1,31.6c5.4,0,9.9,4.4,9.9,9.9c0,5.4-4.4,9.9-9.9,9.9
	s-9.9-4.4-9.9-9.9C39.2,36,43.7,31.6,49.1,31.6z M48.5,29.2c-6.5,0.3-11.7,5.7-11.7,12.3c0,6.8,5.5,12.3,12.3,12.3
	s12.3-5.6,12.3-12.3s-5.5-12.3-12.3-12.3H48.5z M31.8,23c-0.7,0.1-1.2,0.6-1.1,1.3v18l-7.8,3.1c-0.6,0.1-0.9,0.5-0.9,1.1v24.6
	c0,0.6,0.6,1.2,1.3,1.2H75c0.7,0,1.2-0.6,1.3-1.2V46.5c0-0.5-0.3-1-0.8-1.2l-7.8-3.1V24.3C67.5,23.6,67,23,66.4,23H51.6h-0.1
	c-0.7,0-1.2,0.6-1.2,1.3c0,0.7,0.6,1.2,1.3,1.2h13.5v24.6v0.1l-16.1,9l-16-9v-0.1V25.5h13.6c0.7,0,1.3-0.5,1.3-1.2S47.3,23,46.6,23
	H31.8L31.8,23z"/>
</svg>
