<?xml version="1.0" encoding="utf-8"?>
<!-- Generator: Adobe Illustrator 22.1.0, SVG Export Plug-In . SVG Version: 6.00 Build 0)  -->
<svg version="1.1" id="Layer_1" xmlns="http://www.w3.org/2000/svg" xmlns:xlink="http://www.w3.org/1999/xlink" x="0px" y="0px"
	 width="100px" height="100px" viewBox="0 0 100 100" style="enable-background:new 0 0 100 100;" xml:space="preserve">
<style type="text/css">
	.st0{fill:url(#SVGID_1_);stroke:url(#SVGID_2_);stroke-width:0.5;}
	.st1{fill:url(#SVGID_3_);stroke:url(#SVGID_4_);stroke-width:0.5;}
</style>
<linearGradient id="SVGID_1_" gradientUnits="userSpaceOnUse" x1="34.3796" y1="78.4368" x2="57.2781" y2="25.6313" gradientTransform="matrix(1 0 0 -1 0 102)">
	<stop  offset="0" style="stop-color:#00B6FB"/>
	<stop  offset="1" style="stop-color:#4FB646"/>
</linearGradient>
<linearGradient id="SVGID_2_" gradientUnits="userSpaceOnUse" x1="34.3796" y1="78.4368" x2="57.2781" y2="25.6313" gradientTransform="matrix(1 0 0 -1 0 102)">
	<stop  offset="0" style="stop-color:#00B6FB"/>
	<stop  offset="1" style="stop-color:#4FB646"/>
</linearGradient>
<path class="st0" d="M50.2,77.7c-1.8,0-3.6,0-5.3-0.1c-2.5-0.1-5.1-0.3-7.5-1.2c-4-1.5-7.3-5.2-8.6-9.6c-1.2-4.1-0.8-8.6,1.1-12.8
	c1-2.1,2.2-4,3.5-5.9c0.3-0.5,0.7-1,1.1-1.6c3.1-4.7,5.1-9,6.1-13.2c1.3-5,1.2-9.9-0.2-14.2c-0.1-0.4,0-0.9,0.4-1.1
	c0.4-0.2,0.9-0.2,1.2,0.2c7,7.4,12,16.7,14.4,26.5c1.6-3.7,2-8.4,1.2-14.2c0-0.4,0.1-0.8,0.5-0.9c0.3-0.2,0.8-0.1,1.1,0.1
	c4.4,3.7,6.7,9.1,8.7,14.3c1.9,4.8,3.6,10,2.9,15.2c-0.5,3.3-1.9,6.4-3.3,9c-1.8,3.5-4.3,7.2-8.3,8.6c-1.7,0.6-3.5,0.7-5.4,0.7
	C52.5,77.7,51.3,77.7,50.2,77.7z M42.9,22.4c0.6,3.6,0.4,7.5-0.7,11.5c-1.1,4.4-3.2,8.9-6.4,13.7c-0.3,0.5-0.7,1.1-1.1,1.6
	c-1.2,1.8-2.4,3.6-3.3,5.6c-1.7,3.7-2.1,7.9-1,11.5c1.1,3.8,4,7,7.5,8.4c2.2,0.8,4.6,1,6.9,1.1c2.9,0.1,5.8,0.1,8.7,0.1
	c1.7,0,3.3-0.1,4.8-0.6c3.4-1.2,5.6-4.6,7.2-7.8c1.3-2.4,2.7-5.4,3.1-8.4c0.7-4.8-1-9.7-2.8-14.3c-1.6-4.2-3.4-8.4-6.3-11.7
	c0.5,6.2-0.5,11.2-2.9,15.1c-0.2,0.3-0.6,0.5-1,0.4c-0.4-0.1-0.7-0.4-0.8-0.7C53.2,38.5,49,29.7,42.9,22.4z"/>
<linearGradient id="SVGID_3_" gradientUnits="userSpaceOnUse" x1="40.3074" y1="53.021" x2="52.8726" y2="24.9336" gradientTransform="matrix(1 0 0 -1 0 102)">
	<stop  offset="0" style="stop-color:#00B6FB"/>
	<stop  offset="1" style="stop-color:#4FB646"/>
</linearGradient>
<linearGradient id="SVGID_4_" gradientUnits="userSpaceOnUse" x1="40.3074" y1="53.021" x2="52.8726" y2="24.9336" gradientTransform="matrix(1 0 0 -1 0 102)">
	<stop  offset="0" style="stop-color:#00B6FB"/>
	<stop  offset="1" style="stop-color:#4FB646"/>
</linearGradient>
<path class="st1" d="M48.8,77.9c-0.9,0-1.8,0-2.7-0.1c-1.3,0-2.6-0.1-3.9-0.7c-2.1-0.8-3.9-2.9-4.6-5.3c-0.6-2.2-0.4-4.7,0.6-7
	c0.5-1.1,1.1-2.1,1.8-3.1c0.2-0.3,0.3-0.5,0.5-0.8c1.5-2.4,2.5-4.6,3-6.7c0.6-2.5,0.6-5-0.1-7.1c-0.1-0.4,0-0.9,0.4-1.1
	c0.4-0.2,0.8-0.2,1.1,0.2c3.2,3.5,5.6,7.9,6.9,12.6c0.4-1.6,0.4-3.5,0.1-5.8c0-0.4,0.1-0.8,0.5-0.9c0.3-0.2,0.7-0.1,1,0.1
	c2.3,2,3.4,4.9,4.4,7.6c0.9,2.6,1.8,5.3,1.5,8.2c-0.2,1.8-1,3.5-1.7,4.8c-1,1.9-2.2,3.9-4.4,4.7c-0.9,0.3-1.9,0.4-2.8,0.4
	C50,77.9,49.4,77.9,48.8,77.9z M45.8,50.1c0.1,1.5-0.1,3-0.5,4.6C44.7,57,43.7,59.4,42,62c-0.2,0.3-0.4,0.5-0.5,0.8
	c-0.6,1-1.2,1.9-1.6,2.9c-0.8,1.9-1,3.9-0.5,5.7c0.5,1.9,1.9,3.4,3.5,4.1c1,0.4,2.2,0.5,3.3,0.5c1.4,0.1,2.9,0.1,4.3,0
	c0.8,0,1.6-0.1,2.3-0.3c1.6-0.6,2.6-2.3,3.4-3.8c0.6-1.2,1.3-2.7,1.5-4.2c0.3-2.4-0.5-4.9-1.4-7.3c-0.6-1.7-1.3-3.4-2.2-4.9
	c0,2.7-0.5,4.9-1.6,6.7c-0.2,0.3-0.6,0.5-0.9,0.4c-0.4-0.1-0.7-0.4-0.7-0.7C50,57.7,48.3,53.6,45.8,50.1z"/>
</svg>
