<svg width="70" height="70" viewBox="0 0 70 70" fill="none" xmlns="http://www.w3.org/2000/svg">
<path fill-rule="evenodd" clip-rule="evenodd" d="M14.2071 64.6078C13.7379 65.1645 12.99 65.5102 12.2576 65.5102C12.0982 65.5102 11.5583 65.4631 10.6643 64.9311C9.91641 64.0668 9.82348 63.4449 9.82348 63.0409C9.82348 62.8747 9.87216 62.2888 10.4541 61.3168L41.4313 27.4325L39.7651 24.476C38.0656 21.4589 37.893 20.3566 37.8864 20.3566V20.3566C37.8864 19.2993 38.2427 18.9379 38.4108 18.7672L51.8006 4.73446L52.4622 5.47303L52.6658 5.70201L52.8959 5.89731L53.7633 6.63588L42.8343 18.7515L46.0959 21.7821L57.16 9.52056L59.2047 11.2581L48.1605 23.5017L51.4222 26.5323L62.6013 14.1428L64.0485 15.373C64.0374 15.4044 64.0175 15.4515 63.9866 15.5077L52.6636 30.9727C52.3471 31.3319 51.8847 31.6663 50.8181 31.7741L50.8004 31.7763C50.2339 31.7314 48.5389 31.2578 46.6381 30.4317L43.4981 29.0668L14.2071 64.6078ZM61.8755 61.3033C61.9662 61.3953 61.9729 61.5996 61.9662 61.6558C61.8932 62.107 61.6432 62.657 61.2825 63.1688C60.9727 63.4113 60.5545 63.5549 60.1495 63.5549C59.8906 63.5549 59.7402 63.4921 59.7247 63.4853L38.953 42.6079L38.5989 42.251L40.4333 39.9702L61.8755 61.3033ZM12.3439 19.214L12.262 19.1242L12.1779 19.0366C9.92751 16.7536 8.60204 14.5199 8.34535 12.5758C8.2325 11.7318 8.23471 10.5016 9.31899 9.06709L31.6153 31.2151L27.2096 36.0439L12.3439 19.214ZM50.8469 36.2684C50.9929 36.2684 51.1323 36.2594 51.2585 36.2414C53.4713 36.0169 55.0202 35.119 56.1267 33.772L67.6333 18.0579C68.961 16.0375 68.7397 13.5681 66.9694 11.9967L55.7394 2.4559L54.4825 1.05061C53.6837 0.343467 52.7543 0 51.8294 0C50.6986 0 49.5789 0.514079 48.7292 1.49958L35.231 15.6424C34.1246 16.7648 33.4608 18.3362 33.4608 20.3566C33.4608 22.1525 35.0385 25.1315 35.9237 26.7029L34.6424 28.0184L11.7044 5.14977C11.0383 4.4763 10.1554 4.13957 9.27029 4.13957C8.38517 4.13957 7.50004 4.4763 6.8362 5.14977C2.18929 9.86402 3.07441 16.1497 9.04901 22.2109L24.3174 39.4965L6.94684 58.5511C6.06171 59.898 5.39787 61.4694 5.39787 63.0409C5.39787 65.0613 6.28299 66.8572 7.83196 68.4286C9.15965 69.3265 10.7086 70 12.2576 70C14.2491 70 16.2407 69.1021 17.5684 67.5306L35.8241 45.7822L56.5958 66.6596C57.5141 67.5912 58.8064 68.0447 60.1496 68.0447C61.7251 68.0447 63.3692 67.4206 64.5619 66.2106C65.447 65.0882 66.1109 63.7413 66.3322 62.3943C66.5534 60.8229 66.1109 59.2515 65.0045 58.1291L43.3476 36.5782L44.8966 34.5578C46.3195 35.1773 49.1873 36.2684 50.8469 36.2684V36.2684Z" fill="url(#paint0_linear)"/>
<defs>
<linearGradient id="paint0_linear" x1="-4.27132" y1="35.1737" x2="39.5872" y2="75.6562" gradientUnits="userSpaceOnUse">
<stop stop-color="#20D0EE"/>
<stop offset="0.981733" stop-color="#15E186"/>
</linearGradient>
</defs>
</svg>
