<?xml version="1.0" encoding="utf-8"?>
<!-- Generator: Adobe Illustrator 22.1.0, SVG Export Plug-In . SVG Version: 6.00 Build 0)  -->
<svg version="1.1" id="Layer_1" xmlns="http://www.w3.org/2000/svg" xmlns:xlink="http://www.w3.org/1999/xlink" x="0px" y="0px"
	 width="100px" height="100px" viewBox="0 0 100 100" style="enable-background:new 0 0 100 100;" xml:space="preserve">
<style type="text/css">
	.st0{fill:none;stroke:#4FB646;}
	.st1{fill:#4FB646;}
</style>
<circle id="Oval-5-Copy" class="st0" cx="50" cy="50" r="49"/>
<path id="Shape" class="st1" d="M66,34c-4.3-4.3-10-6.6-16-6.6S38.3,29.7,34,34s-6.6,10-6.6,16s2.4,11.7,6.6,16
	c4.3,4.3,10,6.6,16,6.6s11.7-2.4,16-6.6c4.3-4.3,6.6-10,6.6-16S70.3,38.3,66,34z M70.6,49h-8.8c-0.1-3.5-0.6-6.8-1.4-9.8
	c1.7-0.9,3.2-1.9,4.7-3.2C68.3,39.4,70.3,44,70.6,49z M51,51h8.8c-0.1,3.2-0.5,6.3-1.3,9c-2.4-1-4.9-1.5-7.5-1.6V51z M63.6,34.5
	c-1.2,1-2.5,1.9-3.8,2.7c-0.4-1-0.7-1.9-1.2-2.8c-0.9-1.7-1.9-3.2-3-4.2C58.6,31,61.3,32.5,63.6,34.5z M51,29.7
	c2.1,0.5,4.1,2.4,5.7,5.6c0.4,0.9,0.8,1.8,1.2,2.7c-2.2,0.9-4.5,1.4-6.9,1.5V29.7z M58.5,40c0.8,2.7,1.2,5.8,1.3,9H51v-7.3
	C53.6,41.5,56.1,41,58.5,40z M49,49h-8.8c0.1-3.2,0.5-6.2,1.3-9c2.4,1,4.9,1.5,7.5,1.6L49,49L49,49z M49,29.7v9.9
	c-2.4-0.1-4.7-0.6-6.9-1.5c0.3-1,0.7-1.9,1.2-2.7C44.9,32.1,46.9,30.2,49,29.7z M44.4,30.2c-1.1,1.1-2.1,2.5-3,4.2
	c-0.4,0.9-0.8,1.8-1.2,2.8c-1.4-0.7-2.6-1.6-3.8-2.7C38.7,32.5,41.4,31,44.4,30.2z M35,35.9c1.4,1.3,3,2.3,4.7,3.2
	c-0.9,3-1.4,6.3-1.4,9.8h-8.8C29.7,44,31.8,39.4,35,35.9z M29.4,51h8.8c0.1,3.5,0.6,6.9,1.4,9.9c-1.7,0.9-3.2,1.9-4.6,3.2
	C31.8,60.6,29.7,56.1,29.4,51z M36.5,65.5c1.2-1,2.5-1.9,3.8-2.6c0.4,1,0.7,1.9,1.2,2.7c0.9,1.7,1.9,3.2,3,4.3
	C41.5,69,38.7,67.5,36.5,65.5z M49,70.3c-2.1-0.5-4.1-2.4-5.7-5.6c-0.4-0.8-0.8-1.7-1.1-2.7c2.2-0.9,4.5-1.4,6.9-1.5V70.3z
	 M41.5,60.1c-0.8-2.8-1.2-5.8-1.3-9H49v7.4C46.4,58.5,43.9,59.1,41.5,60.1z M51,70.3v-9.8c2.4,0.1,4.7,0.6,6.9,1.5
	c-0.3,1-0.7,1.8-1.1,2.7C55.1,67.9,53.1,69.8,51,70.3z M55.6,69.8c1.1-1.1,2.1-2.5,3-4.3c0.4-0.8,0.8-1.8,1.2-2.7
	c1.4,0.7,2.6,1.6,3.8,2.6C61.3,67.5,58.6,69,55.6,69.8z M65,64.1c-1.4-1.3-3-2.3-4.6-3.2c0.9-3,1.4-6.4,1.4-9.9h8.8
	C70.3,56.1,68.3,60.6,65,64.1z"/>
</svg>
