<?xml version="1.0" encoding="utf-8"?>
<!-- Generator: Adobe Illustrator 22.1.0, SVG Export Plug-In . SVG Version: 6.00 Build 0)  -->
<svg version="1.1" id="Layer_1" xmlns="http://www.w3.org/2000/svg" xmlns:xlink="http://www.w3.org/1999/xlink" x="0px" y="0px"
	 width="100px" height="100px" viewBox="0 0 100 100" style="enable-background:new 0 0 100 100;" xml:space="preserve">
<style type="text/css">
	.st0{fill:url(#Shape_3_);}
	.st1{fill:url(#Shape_4_);}
	.st2{fill:url(#Shape_5_);}
</style>
<linearGradient id="Shape_3_" gradientUnits="userSpaceOnUse" x1="1.6127" y1="100.6758" x2="1.9105" y2="99.7173" gradientTransform="matrix(68 0 0 -62 -67 6263)">
	<stop  offset="0" style="stop-color:#00B6FB"/>
	<stop  offset="1" style="stop-color:#4FB646"/>
</linearGradient>
<path id="Shape" class="st0" d="M82.6,20H17.4c-0.8,0-1.4,0.6-1.4,1.4v42.4c0,0.8,0.6,1.4,1.4,1.4h37.1v2.1c0,0.8,0.6,1.4,1.4,1.4
	h0.3l-3.8,8.2c-0.3,0.6-0.1,1.1,0.3,1.6c0.4,0.4,1,0.6,1.6,0.4l3.4-1.3l1.3,3.4c0.1,0.6,0.7,0.8,1.3,1l0,0c0.6,0,1-0.3,1.3-0.8
	l3-6.2l3,6.2c0.3,0.6,0.7,0.8,1.3,0.8l0,0c0.6,0,1.1-0.4,1.3-1l1.3-3.4l3.4,1.3c0.1,0,0.3,0.1,0.4,0.1l0,0c0.9,0,1.4-0.6,1.4-1.4
	c0-0.3-0.1-0.6-0.3-0.8l-3.7-7.9h0.1c0.8,0,1.4-0.6,1.4-1.4v-2.1h8.5c0.8,0,1.4-0.6,1.4-1.4V21.6C84,20.6,83.4,20,82.6,20z
	 M71.7,56.4l2.4,2.4l-2.4,2.4c-0.3,0.3-0.4,0.6-0.4,1v3.5h-1.1h-2.4c-0.4,0-0.7,0.1-1,0.4l-2.4,2.4l-2.4-2.4c-0.3-0.3-0.6-0.4-1-0.4
	h-2.4h-1.1v-3.5c0-0.4-0.1-0.7-0.4-1l-2.4-2.4l2.4-2.4c0.3-0.3,0.4-0.6,0.4-1v-3.5h3.5c0.4,0,0.7-0.1,1-0.4l2.4-2.4l2.4,2.4
	c0.3,0.3,0.6,0.4,1,0.4h3.5v3.5C71.2,55.9,71.4,56.2,71.7,56.4z M60.2,76.8l-0.6-1.6c-0.1-0.6-0.7-1-1.3-1c-0.1,0-0.3,0-0.4,0.1
	l-1.6,0.6l3-6.4h0.9l2.3,2.3l0.3,0.4L60.2,76.8z M72.2,74.9l-1.6-0.6c-0.7-0.3-1.6,0.1-1.8,0.8l-0.6,1.6l-2.6-5.4l0.3-0.6l2.3-2.3
	h0.8L72.2,74.9z M81.2,62.4h-6.5l2.4-2.4c0.6-0.6,0.6-1.4,0-2l-3-3.1v-4.2c0-0.8-0.6-1.4-1.4-1.4h-4.2l-3.1-3.1
	c-0.6-0.6-1.4-0.6-2,0l-3.1,3.1H56c-0.9,0-1.4,0.6-1.4,1.4v4.2L51.4,58c-0.3,0.3-0.4,0.6-0.4,1s0.1,0.7,0.4,1l2.4,2.4h-35V22.8h62.3
	V62.4z"/>
<linearGradient id="Shape_4_" gradientUnits="userSpaceOnUse" x1="1.648" y1="94.6371" x2="1.9458" y2="93.6786" gradientTransform="matrix(51 0 0 -3 -41 313)">
	<stop  offset="0" style="stop-color:#00B6FB"/>
	<stop  offset="1" style="stop-color:#4FB646"/>
</linearGradient>
<path id="Shape_1_" class="st1" d="M26.4,32h48.2c0.9,0,1.4-0.6,1.4-1.5S75.4,29,74.6,29H26.4c-0.9,0-1.4,0.6-1.4,1.5
	S25.6,32,26.4,32z"/>
<linearGradient id="Shape_5_" gradientUnits="userSpaceOnUse" x1="1.648" y1="94.6371" x2="1.9458" y2="93.6786" gradientTransform="matrix(51 0 0 -3 -41 320)">
	<stop  offset="0" style="stop-color:#00B6FB"/>
	<stop  offset="1" style="stop-color:#4FB646"/>
</linearGradient>
<path id="Shape_2_" class="st2" d="M26.4,39h48.2c0.9,0,1.4-0.6,1.4-1.5S75.4,36,74.6,36H26.4c-0.9,0-1.4,0.6-1.4,1.5
	S25.6,39,26.4,39z"/>
</svg>
