<?xml version="1.0" encoding="utf-8"?>
<!-- Generator: Adobe Illustrator 22.1.0, SVG Export Plug-In . SVG Version: 6.00 Build 0)  -->
<svg version="1.1" id="Layer_1" xmlns="http://www.w3.org/2000/svg" xmlns:xlink="http://www.w3.org/1999/xlink" x="0px" y="0px"
	 width="145px" height="145px" viewBox="0 0 145 145" style="enable-background:new 0 0 145 145;" xml:space="preserve">
<style type="text/css">
	.st0{fill:#FDECEA;}
	.st1{fill:#F0E5A6;}
</style>
<rect class="st0" width="145" height="145"/>
<path class="st1" d="M101.5,40.5c-3.5-1.6-7.2-2.5-10.9-2.5c-1.5,0-3,0.2-4.5,0.5c2.8-2.6,5.5-4.7,5.5-4.7c1.2-0.9,1.7-2.5,1.1-3.9
	c-0.5-1.3-1.8-2.2-3.2-2.2c-0.1,0-0.2,0-0.3,0c-6.6,0.7-12.6,3.7-16.4,8.3c-1,1.2-1.8,2.5-2.5,3.9c-0.7-1.4-1.6-2.7-2.5-3.9
	c-3.8-4.6-9.8-7.7-16.4-8.3c-0.1,0-0.2,0-0.3,0c-1.4,0-2.6,0.8-3.2,2.2c-0.6,1.4-0.1,3,1.1,3.9c0.1,0,2.6,2,5.3,4.5
	C53.1,38.1,52,38,50.8,38c-3.7,0-7.4,0.9-10.9,2.5c-1.4,0.6-2.2,2.1-1.9,3.6c0.2,1.5,1.4,2.7,3,2.8c0.1,0,6.4,0.8,11.6,2.4
	c-3.8,2-7.1,5.2-9.3,9.2c-0.8,1.4-0.5,3.1,0.6,4.2c0.6,0.6,1.5,0.9,2.3,0.9c0.7,0,1.3-0.2,1.9-0.6c0,0,2.4-1.6,5.3-3.1
	c-2.8,3.1-4.8,7-5.6,11.3c-0.1,0.2-0.1,0.5-0.1,0.8c-0.2,1.1-0.3,2.3-0.3,3.4v19.4c0,12.7,10.4,23,23,23c12.7,0,23-10.4,23-23V75.3
	c0-0.9-0.1-1.9-0.2-2.8c0.3-0.6,0.2-1.4-0.3-2c-0.8-3.9-2.7-7.5-5.3-10.5c-0.1-0.3-0.2-0.5-0.4-0.7c0,0,0,0-0.1,0
	c3.4,1.6,6.2,3.6,6.3,3.6c0.6,0.4,1.2,0.6,1.9,0.6c0.8,0,1.7-0.3,2.3-0.9c1.2-1.1,1.4-2.8,0.6-4.2c-2.3-4-5.6-7.2-9.3-9.2
	c5.2-1.6,11.5-2.4,11.6-2.4c1.5-0.2,2.7-1.3,3-2.8C103.7,42.6,102.9,41.1,101.5,40.5z M75.5,38.2c3.7-4.5,9.2-6.6,14.1-7.1
	c0,0-6.8,5.2-10.7,10c-0.2,0.2-0.3,0.4-0.5,0.6c-2.2,1.5-4.1,3.4-5.8,5.6c-0.1-0.9-0.3-1.8-0.6-2.7C72.8,42.3,73.9,40.1,75.5,38.2z
	 M89.3,71.4l-2.3,2.3L81.1,68l4.5-4.5C87.4,65.8,88.7,68.5,89.3,71.4z M86.4,105.6l-4.7-4.6l5.6-5.4l2.2,2.2
	C89,100.6,87.9,103.3,86.4,105.6z M56.7,108.5l5.1-5l6,5.9l-3.7,3.6C61.3,112.2,58.8,110.6,56.7,108.5z M51.2,97.9l2.4-2.4l5.6,5.4
	l-4.8,4.7C52.8,103.4,51.7,100.8,51.2,97.9z M89.7,88l-2.4,2.4l-6-6l5.6-5.5l2.7,2.7V88z M78.7,81.8L73,76.1l5.5-5.5l5.8,5.7
	L78.7,81.8z M50.9,81.8l3-2.9l5.6,5.5l-6,6l-2.6-2.6V81.8z M56.5,76.3l5.8-5.7l5.5,5.5l-5.7,5.7L56.5,76.3z M62.2,87l5.6,5.5l-6,5.9
	L56.2,93L62.2,87z M64.8,84.4l5.7-5.7l5.7,5.7l-5.7,5.6L64.8,84.4z M70.4,73.5l-5.5-5.5l5.5-5.4l5.5,5.4L70.4,73.5z M69.6,56.7
	c0.2,0,0.4,0,0.5-0.1c0.1,0,0.1,0,0.2,0c0.1,0,0.1,0,0.2,0c0.2,0,0.5,0.1,0.7,0.1c0,0,0,0,0.1,0l-0.8,0.8L69.6,56.7z M64.5,56.9
	l3.3,3.2l-5.4,5.3l-4.7-4.7C59.6,59,61.9,57.7,64.5,56.9z M73,60.1l3.2-3.2c2.5,0.8,4.8,2.2,6.8,3.9l-4.6,4.6L73,60.1z M64.1,50.9
	c-0.1-0.1-0.3-0.2-0.4-0.2c0.1,0,0.2,0,0.3,0C64,50.7,64.1,50.8,64.1,50.9z M55.1,63.4l4.6,4.6l-5.8,5.7l-2.5-2.5
	C52,68.3,53.3,65.7,55.1,63.4z M51.3,76.3l-0.3,0.3V76L51.3,76.3z M50.9,93L50.9,93L50.9,93L50.9,93z M64.4,101l6-5.9l6,5.9l-6,5.9
	L64.4,101z M73,92.5l5.6-5.5l6,6l-5.6,5.5L73,92.5z M89.7,76.4l-0.1-0.1l0.1-0.1V76.4z M76.5,50.8c0.4-0.1,0.8-0.1,1.2-0.2
	c-0.6,0.3-1.1,0.6-1.6,0.9C76.2,51.3,76.4,51.1,76.5,50.8z M65.1,38.2c1.6,1.9,2.7,4.1,3.4,6.4c-0.2,0.6-0.3,1.3-0.4,1.9
	c-1.9-2.3-4.2-4.3-6.7-5.7C57.5,36,51,31.1,51,31.1C55.9,31.6,61.4,33.7,65.1,38.2z M50.8,41.4c2.1,0,4.2,0.3,6.3,1.1
	c0.7,0.3,1.4,0.6,2.1,0.9c0.8,1,1.7,2.3,2.6,3.7c-0.1,0-0.2,0-0.3,0c-1.4,0-2.7,0.1-4,0.4c-0.7-0.3-1.3-0.5-1.9-0.8
	c-5.8-2.2-14.3-3.2-14.3-3.2C44,42.3,47.4,41.4,50.8,41.4z M46.1,60.1c2.2-3.8,5.9-7.6,10.9-9c0,0,0,0,0.1,0
	c1.6,0.7,3.2,1.6,4.8,2.4c-1.3,0.2-2.5,0.4-3.5,0.6C52.9,55.6,46.1,60.1,46.1,60.1z M70.3,114.2c-0.6,0-1.3,0-1.9-0.1l2-2l2,2
	C71.7,114.1,71,114.2,70.3,114.2z M76.7,113l-3.6-3.6l6-5.9l4.9,4.9C82,110.5,79.5,112.1,76.7,113z M95.3,60.1c0,0-6.8-4.5-12.2-6
	c-1-0.3-2.2-0.5-3.5-0.6c1.5-0.8,3.2-1.7,4.8-2.4c0,0,0,0,0,0C89.3,52.5,93.1,56.3,95.3,60.1z M85.8,46.7c-0.6,0.2-1.2,0.5-1.9,0.8
	c-1.3-0.3-2.7-0.4-4-0.4c-0.4,0-0.7,0-1.1,0c0.7-1,1.4-2.1,2-2.9c1.1-0.7,2.3-1.3,3.5-1.7c2.1-0.7,4.2-1.1,6.3-1.1
	c3.4,0,6.7,0.9,9.5,2.2C100.1,43.5,91.6,44.5,85.8,46.7z"/>
</svg>
