<?xml version="1.0" encoding="utf-8"?>
<!-- Generator: Adobe Illustrator 22.1.0, SVG Export Plug-In . SVG Version: 6.00 Build 0)  -->
<svg version="1.1" id="Layer_1" xmlns="http://www.w3.org/2000/svg" xmlns:xlink="http://www.w3.org/1999/xlink" x="0px" y="0px"
	 width="145px" height="145px" viewBox="0 0 145 145" style="enable-background:new 0 0 145 145;" xml:space="preserve">
<style type="text/css">
	.st0{fill:#E9F9E9;}
	.st1{fill:#BCEC93;}
</style>
<rect class="st0" width="145" height="145"/>
<path class="st1" d="M115.2,45.1l-7.7,1.2l-0.5-2c-0.2-0.7-0.6-1.3-1.2-1.6c0.4-1.9-1.5-3.6-3.3-3c-0.4-0.7-1-1.2-1.8-1.3l-2-0.4
	l0.8-7.8c0.2-2.4-2.8-3.8-4.5-2L89.7,34L88,32.7c-0.8-0.6-1.9-0.7-2.8-0.3c-0.1,0-0.2,0.1-0.3,0.2l-0.2-1.1
	c-0.4-2.4-3.7-2.9-4.8-0.8l-3.7,6.9l-1.9-0.8c-0.9-0.4-2-0.2-2.8,0.4C71,38,70.7,39,71,40l3.6,11.9c0,0,0,0,0,0c0,0-0.1,0.1-0.2,0.2
	c0.1-0.1-0.3,0.3-0.4,0.5L36.5,92.3c-3.3,3.5-4.6,8.6-3.4,13.3c-1.1,2.4-0.5,5.4,1.5,7.3l2.3,2.1c2,1.9,5,2.3,7.3,1
	c4.7,0.9,9.7-0.7,13-4.2l37.4-39.7c0.3-0.4,0.6-0.5,1.3-0.6l11.5,2.8c1,0.2,2-0.1,2.6-0.9c0.6-0.8,0.7-1.9,0.3-2.8l-0.9-1.9l6.7-4.1
	c2.1-1.3,1.3-4.5-1.1-4.8l-1.3-0.1c0.1-0.1,0.2-0.2,0.2-0.4c0.4-0.9,0.2-2-0.4-2.7l-1.4-1.5l5.4-5.6
	C119.1,47.7,117.6,44.7,115.2,45.1z M88.3,46.1l-0.1,0.2L88.3,46.1L88.3,46.1z M92.2,45.9L93,47l0.9,1.4l7-3.8l-2.6,5.7l-0.7,1.5
	l2.7,1.5l-11.5,4.2L92.2,45.9z M100.1,57.4l-6.1,5l4.1-4.3L100.1,57.4z M88.7,38l1.3,1.1l5.4-5.8l-0.6,6.2l-0.2,1.7l3.2,0.6
	l-1.3,1.2l-1.4,0.8L94,41.9c-0.6-0.9-1.5-1.3-2.5-1.2c-0.3,0-0.5,0.1-0.8,0.2c-0.1-0.2-0.1-0.3-0.2-0.5c-0.5-0.9-1.4-1.4-2.4-1.3
	l-0.4,0l-0.1-2.1L88.7,38z M76.4,41.7l1.6,0.7l3.7-7l1,6.2l0.3,1.7L86,43l-7.2,9.9l-3.6-11.7L76.4,41.7z M39.2,94.8l36.6-38.9
	l0.1,0.2c0.2,0.7,0.8,1.3,1.5,1.6l-41,43.5C36.6,98.9,37.6,96.6,39.2,94.8z M37.1,110.1c-0.9-0.9-1.1-2.3-0.5-3.4l0.4-0.7l0-0.1
	L85.9,54l-1.4,4.7c-0.3,0.9,0,2,0.7,2.6c0.7,0.7,1.7,0.9,2.7,0.5l2.4-0.9l-49.9,51.9c-0.3-0.1-0.7-0.3-0.9-0.6L37.1,110.1z
	 M54.6,109.2c-2.3,2.4-5.6,3.6-8.8,3.2L89,67.6c0,0.2,0,0.5,0.1,0.7c0.2,0.9,1,1.7,1.9,1.9l0.3,0.1L54.6,109.2z M105.9,66.5
	l-1.5,0.9l1.4,2.7l-11.9-2.9l9.5-7.8l0,1.4l0,1.7l7.9,0.8L105.9,66.5z M108.2,53.8L107,55l2,2.3l-1.9,0l0-0.2c0-1-0.6-1.9-1.5-2.4
	c-0.1-0.1-0.3-0.1-0.4-0.1c0.1-0.2,0.2-0.5,0.2-0.8c0.1-1-0.4-2-1.3-2.5l-1.8-1l0.3-0.7c0-0.1,0.1-0.1,0.1-0.2l1.2-1.8l0.3,1.2
	l0.4,1.7l7.8-1.3L108.2,53.8z"/>
</svg>
