<svg width="145" height="145" viewBox="0 0 145 145" fill="none" xmlns="http://www.w3.org/2000/svg">
<rect width="145" height="145" transform="matrix(-1 0 0 1 145 0)" fill="#E8F4FD"/>
<path fill-rule="evenodd" clip-rule="evenodd" d="M103.293 94.7789C103.293 89.0728 101.398 83.652 97.9657 79.2421C94.6629 74.999 92.8024 69.6477 92.5289 63.8795C92.2863 58.7516 90.0897 53.9028 86.2542 50.3085C78.6644 43.1966 66.6861 43.1904 59.09 50.2944C55.2783 53.8589 53.0803 58.6614 52.8063 63.7498C52.4927 69.586 50.6318 74.9269 47.3311 79.1113C43.8353 83.5448 41.9023 89.0161 41.9023 94.7789C41.9023 108.766 53.2412 120.104 67.2286 120.104C68.0761 120.104 68.92 120.061 69.7601 119.976C71.6449 119.786 73.5508 119.786 75.4365 119.976C76.2757 120.061 77.1195 120.104 77.9671 120.104C91.9545 120.104 103.293 108.766 103.293 94.7789ZM83.7374 52.9936C86.8674 55.9267 88.6547 59.872 88.8525 64.0534C89.1608 70.5563 91.2756 76.6388 95.0613 81.5023C97.9953 85.2717 99.6128 89.8988 99.6128 94.7786C99.6128 106.733 89.9216 116.424 77.9666 116.424C77.2434 116.424 76.5234 116.387 75.806 116.315C73.674 116.1 71.5208 116.1 69.3897 116.314C68.6714 116.387 67.9514 116.424 67.2282 116.424C55.2732 116.424 45.582 106.733 45.582 94.7786C45.582 89.8502 47.2321 85.1797 50.2203 81.3899C54.0128 76.5819 56.1279 70.5117 56.4806 63.9473C56.704 59.7986 58.4925 55.891 61.6032 52.982C67.7837 47.2019 77.562 47.207 83.7374 52.9936Z" fill="#FFE38D"/>
<path d="M64.5898 54.2069L67.3681 51.7936C67.3902 51.819 67.6091 51.9864 68.0812 52.2025C69.0301 52.6369 70.3499 52.911 72.1072 52.911C73.8312 52.911 75.1104 52.6088 76.0224 52.1308C76.4769 51.8926 76.6894 51.7051 76.7148 51.6709L79.6659 53.8695C79.3225 54.3305 78.6936 54.8858 77.7308 55.3904C76.2807 56.1504 74.4148 56.591 72.1072 56.591C69.8331 56.591 67.9908 56.2085 66.5494 55.5487C65.5874 55.1083 64.9479 54.6191 64.5898 54.2069Z" fill="#FFE38D"/>
<path fill-rule="evenodd" clip-rule="evenodd" d="M99.0702 28.2486C93.329 25.8412 86.4368 26.4488 80.6941 30.0018C74.9515 33.5547 71.3318 39.4509 70.9231 45.6638L70.8369 46.9738L72.0476 47.4814C77.789 49.8889 84.6821 49.2812 90.4239 45.7282C96.1669 42.175 99.7871 36.2784 100.195 30.066L100.281 28.7562L99.0702 28.2486ZM74.7481 44.5539C75.4742 40.0363 78.316 35.8004 82.6302 33.1313C86.9444 30.4621 92.0036 29.8095 96.3697 31.1761C95.6442 35.6931 92.802 39.9292 88.4874 42.5987C84.174 45.2678 79.1143 45.9204 74.7481 44.5539Z" fill="#FFE38D"/>
<path d="M73.8802 55.3985L70.3423 54.3856C70.3996 54.1855 70.4984 53.7516 70.6013 53.1157C71.4764 47.7048 70.6128 41.5201 66.6658 35.6563C64.4741 32.4003 61.416 29.4448 57.377 26.8629L59.3591 23.7622C63.8175 26.6123 67.2417 29.9215 69.7187 33.6014C74.2538 40.3388 75.2462 47.4459 74.2341 53.7033C74.1071 54.4884 73.9761 55.0634 73.8802 55.3985Z" fill="#FFE38D"/>
</svg>
