<?xml version="1.0" encoding="utf-8"?>
<!-- Generator: Adobe Illustrator 22.1.0, SVG Export Plug-In . SVG Version: 6.00 Build 0)  -->
<svg version="1.1" id="Layer_1" xmlns="http://www.w3.org/2000/svg" xmlns:xlink="http://www.w3.org/1999/xlink" x="0px" y="0px"
	 width="145px" height="145px" viewBox="0 0 145 145" style="enable-background:new 0 0 145 145;" xml:space="preserve">
<style type="text/css">
	.st0{fill:#E8F4FD;}
	.st1{fill:#BAE7B3;}
</style>
<rect class="st0" width="145" height="145"/>
<g>
	<path class="st1" d="M91.5,57.6c0-0.4,0.1-0.7,0.1-1.1c0-4.5-3.7-8.1-8.2-8.1c-0.3,0-0.6,0-0.9,0c-1.5-1.9-3.9-3.1-6.5-3.1
		c-1.6,0-3.1,0.4-4.4,1.2c-1.2-0.6-2.5-0.9-3.8-0.9c-2.6,0-5.1,1.2-6.7,3.2c-4.5,0-8.2,3.6-8.2,8.2c-2.1,1.5-3.4,3.9-3.4,6.5
		c0,4.5,3.7,8.1,8.2,8.1c1,0,1.8-0.8,1.8-1.8c0-1-0.8-1.8-1.8-1.8c-2.5,0-4.6-2-4.6-4.4c0-1.7,1-3.2,2.5-3.9l1.2-0.6l-0.2-1.3
		c0-0.3-0.1-0.5-0.1-0.7c0-2.4,2-4.4,4.6-4.4c0.2,0,0.5,0,0.7,0.1l1.3,0.2l0.6-1.1c0.8-1.4,2.3-2.4,4-2.4c1,0,2,0.3,2.8,0.9l1.2,0.9
		l1.1-1c0.8-0.7,1.9-1.2,3.1-1.2c1.7,0,3.2,0.9,4,2.4l0.7,1.3l1.4-0.4c0.4-0.1,0.8-0.2,1.2-0.2c2.5,0,4.6,2,4.6,4.4
		c0,0.5-0.1,0.9-0.2,1.3l-0.5,1.5l1.3,0.7c1.4,0.8,2.3,2.2,2.3,3.9c0,2.4-2,4.4-4.6,4.4c-1,0-1.8,0.8-1.8,1.8c0,1,0.8,1.8,1.8,1.8
		c4.5,0,8.2-3.6,8.2-8.1C94.6,61.4,93.4,59.1,91.5,57.6z"/>
	<path class="st1" d="M62.4,44.4c1,0,1.8-0.8,1.8-1.8c0-0.7,0.7-1.9,2.5-2.4c1-0.3,2-0.3,3,0c0.7,0.2,1.3,0.6,1.5,0.9l1.3,1.4
		l1.3-1.4c0.2-0.3,1-0.7,1.8-0.9c1.1-0.3,2.2-0.3,3.3,0.1c1.6,0.6,1.9,1.3,1.8,2.2c-0.1,1,0.6,1.9,1.6,2c1,0.1,1.9-0.6,2-1.6
		c0.3-2.5-0.8-4.7-4.1-6c-2.7-1.1-5.7-0.5-7.8,0.7c-1.8-1.1-4.5-1.6-7.1-0.7c-3.3,1.1-5,3.7-5,5.9C60.6,43.6,61.4,44.4,62.4,44.4z"
		/>
	<path class="st1" d="M104.7,58.9c-0.1-0.1-0.2-0.1-0.3-0.2c0.5-1.3,0.4-3-0.3-5c-0.7-2-2-3.3-3.7-3.9c-0.6-0.2-1.1-0.3-1.7-0.4
		c-0.1-1.2-0.7-2.4-1.7-3.7c-1-1.3-2.4-2-4-2.1c-1.2-0.1-2.4,0-3.5,0.3c-0.5,0.1-0.9,0.2-1.1,0.3c-1,0.4-1.4,1.4-1.1,2.4
		c0.4,1,1.4,1.4,2.4,1.1c0.1,0,0.4-0.1,0.7-0.2c0.8-0.2,1.6-0.3,2.2-0.2c0.7,0.1,1.2,0.3,1.6,0.7c0.9,1.1,1,2,0.9,2.6
		c-0.7,1.4,0.6,3.1,2.1,2.6c0,0,0.1,0,0.2,0c0.6-0.1,1.2-0.1,1.8,0.1c0.7,0.2,1.2,0.7,1.5,1.7c0.6,1.6,0.5,2.4,0.2,2.7
		c0,0,0,0,0.1,0c-1.6,0.6-1.5,2.9,0.1,3.5c0.1,0,0.2,0.1,0.4,0.2c0.4,0.2,0.7,0.4,1,0.6c0.9,0.6,1.3,1.4,1.2,2.3
		c-0.1,1-0.5,1.9-1.1,2.5c-0.4,0.4-0.9,0.7-1.1,0.8c-1,0.4-1.4,1.6-0.9,2.5c0,0.1,0.1,0.2,0.2,0.5c0.2,0.7,0.3,1.4,0.1,2
		c-0.2,0.6-0.6,1.1-1.4,1.5c-0.9,0.5-1.2,1.6-0.8,2.5c0.5,0.9,1.6,1.2,2.5,0.8c1.7-0.9,2.8-2.2,3.2-3.8c0.3-1.2,0.3-2.4,0-3.6
		c0.2-0.2,0.5-0.4,0.7-0.7c1.3-1.3,2.1-2.9,2.2-4.9C107.6,62,106.5,60.2,104.7,58.9z"/>
	<path class="st1" d="M119.4,63.8c0-5.6-3.7-10.5-8.8-12.1c0.5-1.4,0.7-2.8,0.7-4.3c0-7-5.7-12.7-12.7-12.7c-1.8,0-3.5,0.4-5.1,1
		c-1.7-5.1-6.5-8.7-12.1-8.7c-3.5,0-6.7,1.4-9.1,3.8c-2.4-2.4-5.6-3.8-9.1-3.8c-5.6,0-10.4,3.7-12.1,8.8c-1.6-0.7-3.4-1.1-5.2-1.1
		c-7,0-12.7,5.7-12.7,12.7c0,1.4,0.2,2.8,0.7,4.1c-5,1.8-8.4,6.5-8.4,12c0,6,4.1,11,9.6,12.3c-0.7,1.6-1.1,3.4-1.1,5.3
		c0,7,5.7,12.7,12.7,12.7c0.2,0,0.4,0,0.7,0c0.5,0,1,0,1.4-0.1c0.2,0,0.3,0,0.5,0c0.3,0.3,0.6,0.6,1,0.9c1,0.9,2.2,1.6,3.3,2.2
		c0.3,0.2,0.6,0.3,0.9,0.4c0.9,3.8,2,8.3,3.1,13.2c0.9,3.9,4.4,6.7,8.4,6.7h12.2c4.1,0,7.7-2.9,8.5-6.9c1-4.8,1.9-9.2,2.8-12.7
		c2.2-0.9,4.6-2.6,6.1-4.5c1,0.1,1.9,0.2,3.1,0.1c7,0,12.6-5.7,12.6-12.7c0-1.5-0.3-3-0.8-4.4C115.7,74.2,119.4,69.4,119.4,63.8z
		 M107.7,72.7c-1.3,0.1-2.1,1.6-1.4,2.8c0.9,1.4,1.4,3.1,1.4,4.8c0,5-4,9-9,9c0,0-0.3,0-0.4,0c-0.9,0.1-2,0-3-0.2
		c-0.8-0.2-1.7,0.2-2.1,1c-0.4,0.8-1.2,1.6-2.2,2.3c0.4-1.4,0.9-3,1.5-4.7c0.8-2.7,1.8-5.6,2.7-8.4c0.3-1,0.5-1.6,0.9-2.8
		c0.3-0.9,0.3-0.9,0.3-1.1c0.3-1-0.2-2-1.2-2.3c-1-0.3-2,0.2-2.3,1.2c-0.1,0.2-0.1,0.2-0.3,1.1c-0.4,1.2-0.6,1.8-0.9,2.8
		c-0.9,2.9-1.8,5.8-2.7,8.5c-0.6,1.8-1.1,3.5-1.6,5c-1.2,3.9-2.7,10.3-4.2,17.8c-0.5,2.3-2.5,4-4.9,4H66.1c-2.3,0-4.3-1.6-4.9-3.9
		c-2.3-9.9-4.3-18.2-5.6-22.2c-1-3.1-2-6.3-3-9.3c-0.4-1-0.7-2-1-2.8c-0.1-0.3-0.2-0.6-0.3-0.8c0-0.1-0.1-0.2-0.1-0.3
		c-0.3-1-1.4-1.4-2.4-1.1c-1,0.3-1.4,1.4-1.1,2.4c0,0,0,0.1,0.1,0.3c0.1,0.2,0.2,0.5,0.3,0.8c0.3,0.8,0.6,1.8,1,2.8c1,3,2,6.1,3,9.2
		c0.3,1,0.6,2.2,1,3.6c-0.1-0.1-0.3-0.2-0.4-0.3c-0.5-0.4-0.9-0.8-1.3-1.2c-0.4-0.5-1-0.7-1.7-0.6c-0.3,0-0.7,0.1-1.2,0.1
		c-0.4,0-0.9,0-1.3,0.1c-0.3,0-0.5,0-0.6,0c-5,0-9-4-9-9c0-2.1,0.7-4,1.9-5.6c0.2-0.2,0.3-0.4,0.3-0.7c0.6,1,1.5,1.9,2.7,2.6
		c0.9,0.5,2,0.1,2.5-0.8c0.5-0.9,0.1-2-0.8-2.5c-0.8-0.4-1.2-0.9-1.4-1.5c-0.2-0.6-0.1-1.3,0.1-2c0.1-0.3,0.2-0.4,0.2-0.5
		c0.5-0.9,0.1-2.1-0.9-2.5c-0.2-0.1-0.6-0.4-1.1-0.8c-0.7-0.7-1.1-1.5-1.1-2.5c0-0.9,0.4-1.6,1.2-2.3c0.3-0.2,0.7-0.4,1-0.6
		c0.2-0.1,0.4-0.2,0.4-0.2c1.6-0.5,1.7-2.8,0.2-3.4c-0.3-0.4-0.4-1.1,0.2-2.7c0.3-0.9,0.8-1.4,1.5-1.7c0.5-0.2,1.2-0.2,1.8-0.1
		c0.1,0,0.2,0,0.2,0c1.6,0.4,2.9-1.2,2.2-2.6c-0.2-0.6,0-1.4,0.9-2.6c0.3-0.4,0.8-0.7,1.6-0.7c0.7-0.1,1.5,0,2.2,0.2
		c0.3,0.1,0.6,0.2,0.7,0.2c1,0.4,2-0.1,2.4-1.1c0.4-1-0.1-2-1.1-2.4c-0.2-0.1-0.6-0.2-1.1-0.3c-1.2-0.3-2.4-0.4-3.5-0.3
		c-1.6,0.2-3,0.9-4,2.1c-1,1.3-1.5,2.5-1.7,3.7c-0.5,0-1.1,0.2-1.7,0.4c-1.7,0.6-3,1.9-3.7,3.9c-0.7,2-0.7,3.7-0.3,5
		c-0.1,0.1-0.2,0.1-0.3,0.2c-1.8,1.3-2.9,3.1-2.7,5.4c0.1,2,0.9,3.6,2.2,4.9c0.3,0.3,0.5,0.5,0.7,0.7c-0.2,0.9-0.3,1.9-0.2,2.9
		c-0.3-0.2-0.7-0.4-1.1-0.4c-5,0-9-4.1-9-9c0-4.5,3.3-8.2,7.6-8.9c1.3-0.2,1.9-1.6,1.3-2.7c-0.7-1.3-1.1-2.8-1.1-4.4c0-5,4-9,9-9
		c2,0,3.8,0.6,5.3,1.8c1.1,0.8,2.8,0.1,2.9-1.3c0.5-4.6,4.3-8.1,9-8.1c3.1,0,5.9,1.6,7.6,4.1c0.7,1.1,2.4,1.1,3.1,0
		c1.7-2.5,4.5-4.1,7.6-4.1c4.6,0,8.5,3.5,9,8.1c0.1,1.4,1.8,2.1,2.9,1.3c1.5-1.1,3.3-1.7,5.3-1.7c5,0,9,4,9,9c0,1.7-0.5,3.3-1.3,4.7
		c-0.7,1.1,0,2.6,1.4,2.8c4.5,0.5,8,4.4,8,9C115.8,68.4,112.3,72.3,107.7,72.7z"/>
	<path class="st1" d="M67.1,64.3c-0.2-1-1.1-1.7-2.1-1.5C64,63,63.3,64,63.5,65l4.4,23.8c0.1,0.6-0.3,1.3-1,1.5
		c-0.8,0.3-1.7-0.2-1.9-0.9l-4.5-15.8c-0.3-1-1.3-1.5-2.3-1.3c-1,0.3-1.5,1.3-1.3,2.3l4.5,15.8c0.8,2.8,3.8,4.3,6.6,3.4
		c2.4-0.8,3.9-3.2,3.5-5.7L67.1,64.3z"/>
	<path class="st1" d="M86.8,72.3c-1-0.3-2,0.3-2.3,1.3L80,89.4c-0.2,0.8-1.1,1.2-1.9,0.9c-0.7-0.2-1.1-0.9-1-1.5L81.5,65
		c0.2-1-0.5-2-1.5-2.1c-1-0.2-2,0.5-2.1,1.5l-4.4,23.8c-0.5,2.5,1,4.9,3.5,5.7c2.8,0.9,5.8-0.7,6.6-3.4l4.5-15.8
		C88.4,73.6,87.8,72.6,86.8,72.3z"/>
</g>
</svg>
