<?xml version="1.0" encoding="utf-8"?>
<!-- Generator: Adobe Illustrator 22.1.0, SVG Export Plug-In . SVG Version: 6.00 Build 0)  -->
<svg version="1.1" id="Layer_1" xmlns="http://www.w3.org/2000/svg" xmlns:xlink="http://www.w3.org/1999/xlink" x="0px" y="0px"
	 width="145px" height="145px" viewBox="0 0 145 145" style="enable-background:new 0 0 145 145;" xml:space="preserve">
<style type="text/css">
	.st0{fill:#F7E8FF;}
	.st1{fill:#FFB7B7;}
</style>
<rect class="st0" width="145" height="145"/>
<g>
	<path class="st1" d="M58.1,79.8c1,0,1.8-0.8,1.8-1.8s-0.8-1.8-1.8-1.8c-1,0-1.8,0.8-1.8,1.8S57.1,79.8,58.1,79.8z"/>
	<path class="st1" d="M78.4,87.1c-1,0-1.8,0.8-1.8,1.8c0,1,0.8,1.8,1.8,1.8c1,0,1.8-0.8,1.8-1.8C80.2,88,79.4,87.1,78.4,87.1z"/>
	<path class="st1" d="M83.9,67.8c1,0,1.8-0.8,1.8-1.8c0-1-0.8-1.8-1.8-1.8c-1,0-1.8,0.8-1.8,1.8C82,67,82.9,67.8,83.9,67.8z"/>
	<path class="st1" d="M120.5,90.3c-2.8-5.2-6.3-9.7-10.3-13.4c-4-3.7-8.2-6.5-12.5-8.6c-1.5-0.7-2.9-1.3-4.2-1.7
		c-0.3-0.1-0.5-0.2-0.7-0.2c0.2-1.1,0.3-2.2,0.3-3.3c0-9.5-7.6-17.2-17.1-17.2c-1.7,0-3.3,0.2-4.8,0.7c-0.2-0.6-0.4-1.2-0.7-1.8
		c-1-2.8-2.3-5.5-3.7-8.1c-0.3-0.6-0.6-1.1-1-1.7c-1.9-3.2-4.7-6.2-8.2-8.9c-2.3-1.8-4.7-3.5-7.2-4.9c-0.9-0.5-1.7-0.9-2.4-1.3
		c-0.4-0.2-0.8-0.4-0.9-0.5l-2.1-1l-0.5,2.3c-0.2,0.7-0.4,2.1-0.6,4.2c-0.4,3.5-0.6,7.8-0.6,12.9c0,5.1,1.1,10.3,3,15.3
		c0.6,1.6,1.2,3,1.9,4.3c-7.6,1.9-13.2,8.5-13.2,16.5c0,6.5,3.8,12.2,9.3,15c-0.1,0.2-0.1,0.5-0.2,0.7c-0.5,1.6-1,3.4-1.4,5.4
		c-1.3,5.6-2.1,11.2-2.1,16.4c0,4.6,0.6,8.8,2,12.3l0.8,2l1.9-1.1c4.8-2.7,9.2-6.7,13.2-11.5c2.8-3.4,5.2-6.9,7.2-10.5
		c0.6-1.1,1.1-2,1.6-3c2.1,0.8,4.3,1.3,6.7,1.3c6.4,0,11.9-3.4,15-8.4c1.3,0.3,2.7,0.5,4.2,0.8c5.6,0.9,11.3,1.4,16.7,1.1
		c3.5-0.2,6.7-0.7,9.6-1.5l2.2-0.6L120.5,90.3z M89.4,63c0,3.3-1.2,6.4-3.3,8.9c-3.1-3.1-7.5-5-12.2-5c-1.7,0-3.4,0.2-5,0.7
		c-1.2-3-3.3-5.6-5.9-7.5c0.9-4.3,3.8-7.8,7.6-9.5c0,0,0,0,0,0c0.2,0,0.3-0.1,0.4-0.2c1.5-0.6,3.2-1,5-1
		C83.4,49.4,89.4,55.5,89.4,63z M51.8,56.1c-0.7-1.3-1.3-2.8-1.9-4.4c-1.7-4.6-2.8-9.4-2.8-14c0-5,0.2-9.1,0.6-12.5
		c0.1-0.5,0.1-1,0.2-1.4c0.3,0.2,0.5,0.3,0.8,0.5c2.3,1.3,4.6,2.9,6.7,4.6c3.2,2.5,5.7,5.2,7.4,8c0.3,0.5,0.6,1,0.9,1.6
		c1.3,2.4,2.5,5,3.5,7.6c0.3,0.7,0.5,1.3,0.7,2c-3.9,2.2-6.9,5.9-8.2,10.3c-2.2-0.9-4.5-1.4-7-1.4c-0.2,0-0.3,0-0.5,0
		C52,56.6,51.9,56.3,51.8,56.1z M38.8,73.8c0-7.4,6.2-13.3,13.8-13.3c7.6,0,13.8,6,13.8,13.3c0,7.4-6.2,13.3-13.8,13.3
		C45,87.1,38.8,81.2,38.8,73.8z M62.4,100.8c-1.9,3.4-4.2,6.8-6.8,10c-3.2,3.8-6.6,7-10.2,9.4c-0.7-2.6-1-5.6-1-8.9
		c0-4.9,0.7-10.2,2-15.6c0.4-1.9,0.9-3.6,1.4-5.2c0-0.2,0.1-0.3,0.1-0.4c1.5,0.4,3.1,0.7,4.8,0.7c1.8,0,3.5-0.3,5.1-0.7
		c1.3,3.2,3.5,5.9,6.3,7.8C63.5,98.8,63,99.7,62.4,100.8z M73.9,97.3c-2.1,0-4.2-0.5-6-1.4c-0.2-0.2-0.4-0.4-0.7-0.6
		c-0.2-0.1-0.4-0.1-0.6-0.1c-2.5-1.5-4.4-3.8-5.5-6.5c5.4-2.9,9-8.5,9-14.9c0-0.9-0.1-1.8-0.2-2.6c1.3-0.4,2.6-0.6,4-0.6
		c7.6,0,13.7,6,13.7,13.3c0,1.7-0.3,3.4-1,4.9c-0.4,0.2-0.7,0.6-0.8,1.1c-0.1,0.2-0.1,0.4,0,0.6C83.4,94.6,79,97.3,73.9,97.3z
		 M109.6,90.7c-5.1,0.3-10.5-0.2-15.9-1.1c-1.2-0.2-2.2-0.4-3.3-0.6c0.5-1.6,0.8-3.4,0.8-5.2c0-3.4-1-6.5-2.8-9.2
		c1.3-1.4,2.4-3.1,3.2-4.9c0.2,0.1,0.4,0.1,0.6,0.2c1.1,0.4,2.4,0.9,3.8,1.6c4,1.9,7.9,4.5,11.6,8c3.2,3,6,6.4,8.4,10.4
		C114,90.4,111.9,90.6,109.6,90.7z"/>
</g>
</svg>
