<?xml version="1.0" encoding="utf-8"?>
<!-- Generator: Adobe Illustrator 22.1.0, SVG Export Plug-In . SVG Version: 6.00 Build 0)  -->
<svg version="1.1" id="Layer_1" xmlns="http://www.w3.org/2000/svg" xmlns:xlink="http://www.w3.org/1999/xlink" x="0px" y="0px"
	 width="145px" height="145px" viewBox="0 0 145 145" style="enable-background:new 0 0 145 145;" xml:space="preserve">
<style type="text/css">
	.st0{fill:#FDECEA;}
	.st1{fill:#FFCA7F;}
</style>
<rect class="st0" width="145" height="145"/>
<g>
	<path class="st1" d="M74.3,30.5l-2.4-1.1c-4.5-2-9.7,0.5-10.8,5.3l-3.5,14.9c-0.6,2.7-3.8,4-6.2,2.6l-2-1.3
		c-4.6-2.9-10.6-0.3-11.7,5c-0.7,3.4,0.9,6.9,4.1,8.5l8.2,4.2c1.5,0.8,2.3,2.3,2.2,3.9l-1.9,26.2c-0.3,3.8,2.3,7.3,6,8.1l0.9,0.2
		c4.9,1.1,9.6-2.6,9.5-7.6c-0.1-7,0.7-15.9,2.4-26.8c2.1-12.8,5.3-23.5,9-31.9C80,36.8,78.2,32.3,74.3,30.5z M65.6,72
		c-1.5,9.2-2.3,17.1-2.4,23.6c0,0-0.1,0-0.1,0.1c-0.9,0.4-2.1,0.3-4-1.1c-0.8-0.6-2-0.4-2.6,0.4c-0.6,0.8-0.4,2,0.4,2.6
		c2.3,1.7,4.4,2.2,6.3,1.9c0,2.6-2.4,4.6-5,4l-0.9-0.2c-2-0.5-3.3-2.3-3.2-4.3l1-14.2c1.4,1,2.8,1.4,4.4,1.1l-0.4,0
		c1.4-0.3,2-1.3,1.8-2.3c-0.2-0.9-1-1.4-1.8-1.4c0,0,0,0,0,0l0,0c-0.1,0-0.2,0-0.4,0c-0.7,0-1.3-0.3-2-0.9c-0.3-0.2-0.5-0.5-0.8-0.7
		c-0.1-0.1-0.2-0.3-0.3-0.3c-0.1-0.1-0.2-0.2-0.2-0.3l0.5-7.2c0.2-3.1-1.4-6-4.2-7.5l-8.2-4.2c-1.6-0.8-2.5-2.7-2.1-4.5
		c0.6-2.8,3.8-4.1,6.2-2.6l2,1.3c3.3,2.1,7.5,1.3,9.9-1.4c1.2,0.7,2.5,1.1,3.8,1.1c0.9,0,1.7-0.2,2.5-0.6c0.9-0.5,1.2-1.6,0.7-2.5
		c-0.5-0.9-1.6-1.2-2.5-0.7c-0.2,0.1-0.4,0.2-0.7,0.2c-0.6,0-1.3-0.3-2-0.7c0,0,0,0,0,0c0-0.1,0-0.1,0.1-0.2l3.5-14.9
		c0.6-2.5,3.3-3.9,5.7-2.8l2.4,1.1c2,0.9,3,3.3,2.1,5.4c-0.4,0.9-0.8,1.9-1.2,2.8c-0.2,0-0.3,0-0.5,0c-1.7,0.4-2.9,0.1-3.7-0.5
		c-0.3-0.2-0.4-0.4-0.5-0.4c-0.5-0.9-1.6-1.2-2.5-0.7c-0.9,0.5-1.2,1.6-0.7,2.5c0.3,0.5,0.7,1,1.5,1.5c1.3,0.9,2.9,1.4,4.9,1.3
		C69.6,53.3,67.2,62.1,65.6,72z"/>
	<path class="st1" d="M60.6,61.9c-0.1,0-0.2,0.2-0.5,0.3c-0.5,0.3-1.1,0.4-1.5,0.3c-0.6-0.2-1.1-0.4-1.4-0.6
		c-0.2-0.2-0.3-0.3-0.4-0.4c-0.1-0.9-0.9-1.6-1.8-1.6c-1,0-1.8,0.8-1.8,1.8c0,1,0.5,2.1,1.9,3.1c0.6,0.5,1.4,0.9,2.4,1.2
		c1.5,0.5,3,0.2,4.3-0.5c0.5-0.3,0.9-0.5,1.1-0.7c0.8-0.7,0.9-1.8,0.2-2.6C62.5,61.3,61.4,61.2,60.6,61.9z M56.9,61.4L56.9,61.4
		L56.9,61.4C56.9,61.4,56.9,61.4,56.9,61.4z"/>
	<path class="st1" d="M109.7,92.4c-2-1.7-4.4-3.1-7.2-4.5c-0.8-0.4-1.3-0.7-1.6-0.9c-0.3-0.2-0.4-0.4-0.7-0.8c0,0.1-1.4-3.2-2.3-5
		c-3.4-6.6-9.5-5.8-13.5,0c-0.7,0.9-1.1,1.9-1.6,2.9c-0.2,0.4-0.3,0.7-0.4,1.2c0,0,0,0.2-0.1,0.3c-0.1,0.2-0.2,0.5-0.2,0.6
		c-0.2,0.5-0.2,0.7-0.4,0.8c-0.2,0.1-0.4,0-1,0c-5.1-0.7-10.3,6.1-11.3,12.5c-1.1,7.3,9.4,10.4,15.7,6.4c3.9-2.4,7.6-2.2,14.8,0.5
		c7.8,3,12.9,1.2,13.9-5.5C114.3,97.8,112.7,94.9,109.7,92.4z M101.3,103c-8.2-3.1-13-3.4-18.1-0.2c-4.1,2.6-10.6,0.7-10.1-2.7
		c0.7-4.6,4.6-9.8,7.1-9.4c0.2,0,0.4,0,0.6,0c0.6,0.4,1.5,1,2.7,1.6c2.2,1.1,4.5,1.8,6.8,1.7c0.7,0,1.4-0.2,2.1-0.4
		c1-0.3,1.5-1.3,1.2-2.3c-0.3-1-1.3-1.5-2.3-1.2c-0.4,0.1-0.8,0.2-1.2,0.2c-1.5,0.1-3.2-0.4-4.9-1.3c-0.1,0-0.2-0.1-0.3-0.1
		c0.3-0.4,0.5-0.9,0.7-1.5c0-0.1,0.2-0.5,0.2-0.7c0-0.1,0.1-0.2,0.1-0.2c0.1-0.4,0.2-0.7,0.3-1c0.3-0.8,0.7-1.4,1.1-2.1
		c2.7-3.8,5.3-4.1,7.3-0.4c0.7,1.4,1.8,3.9,2.2,4.7c0.1,0.2,0.1,0.3,0.1,0.3c0.5,0.9,1,1.5,1.8,2.1c0.5,0.4,1.2,0.7,2.2,1.2
		c5.1,2.4,8.5,5.1,9.2,7.8c-1.4,0-2.9-0.2-4.3-0.6c-1.3-0.4-2.4-0.9-3.1-1.6c-0.8-0.7-1.9-0.6-2.6,0.2c-0.7,0.8-0.6,1.9,0.2,2.6
		c1.2,1.1,2.8,1.9,4.6,2.4c1.6,0.5,3.2,0.7,4.7,0.7C108.2,104.5,105.7,104.7,101.3,103z"/>
	<path class="st1" d="M87.8,107.9c-5.2,0.2-3.7,5.4-0.8,5C89.8,112.4,93.1,107.7,87.8,107.9z"/>
</g>
</svg>
