<?xml version="1.0" encoding="utf-8"?>
<!-- Generator: Adobe Illustrator 22.1.0, SVG Export Plug-In . SVG Version: 6.00 Build 0)  -->
<svg version="1.1" id="Layer_1" xmlns="http://www.w3.org/2000/svg" xmlns:xlink="http://www.w3.org/1999/xlink" x="0px" y="0px"
	 width="145px" height="145px" viewBox="0 0 145 145" style="enable-background:new 0 0 145 145;" xml:space="preserve">
<style type="text/css">
	.st0{fill:#FEF8E7;}
	.st1{fill:#FFBB7F;}
</style>
<rect class="st0" width="145" height="145"/>
<path class="st1" d="M108.6,45.1c-7.4-4.8-18.2-6.4-29.2-5c1.2-5.8-0.4-10.8-3.8-15c-0.9-1.1-1.9-2-2.9-2.8c-0.6-0.5-1.1-0.8-1.4-1
	l-0.5-0.3l-0.6,0.1c-1.1,0.1-2.7,0.5-4.3,1.3c-3.4,1.7-5.3,4.6-4.5,8.6l0.3,1.5l1.5,0c4.3,0,5.8,1.4,6,4.1c0.1,1.1-0.1,2.3-0.5,3.6
	c0,0.1-0.1,0.3-0.1,0.4c-6.5-0.9-13.5-0.8-20.2,0.7c-16.6,3.7-26,14.5-26,36.4c0,11.2,3.2,20,8.9,26.5c4.1,4.6,8.8,7.6,13.9,9.7
	c6.7,2.7,16.3,4.5,25.3,4.8c0.3,0,1.1,0.1,1.1,0.1l0-0.1c0.2,0,0.4,0,0.6,0c0.7,0,1.4,0,2.1,0l0,0.1c0.1,0,0.9-0.1,1.2-0.1
	c0.1,0,0.1,0,0.2,0c11.8-0.3,21.1-2.3,28.4-6.9c11-7.1,18.7-19.3,19-33.9C123.4,62.3,118.2,51.3,108.6,45.1z M72.3,114.8
	c-1.9,0-4.8-2.8-7.1-8c-3-6.8-4.8-16.6-4.8-28.9c0-12,2.1-20.9,5.7-26.7c1.4-2.2,2.9-3.9,4.3-5c1-0.7,1.9-1.1,2.5-1.2l0.1,0l0.1,0
	c0.4,0.1,1.3,0.5,2.3,1.4c1.4,1.3,2.9,3.2,4.3,5.6c3.4,6.2,5.5,14.9,5.5,26c0,11.4-1.9,21.1-5,28.1
	C77.6,111.6,74.4,114.8,72.3,114.8z M66.2,45c-1.1,1.2-2.2,2.6-3.2,4.2c-4,6.5-6.3,16-6.3,28.7c0,12.9,1.9,23.2,5.1,30.4
	c0.9,2,1.9,3.7,3,5.2c-2.6-0.8-5.2-1.9-7.5-3.4c-4-2.6-7.4-6.2-10-11.1c-7.2-13.4-7.9-31.6-1.1-43.6c2.4-4.2,6.5-7.1,11.8-8.7
	C60.7,45.8,63.5,45.3,66.2,45z M80,113.9c-0.1,0-0.2,0-0.3,0.1c5.3-6.6,9.1-20,9.1-36.1c0-11.6-2.2-21-6-27.8
	c-1.1-2-2.4-3.8-3.7-5.2c2.9,0.2,5.9,0.7,8.8,1.6c5.3,1.7,9.4,4.5,11.8,8.7c6.9,12,6.1,30.2-1.1,43.6c-2.6,4.9-6,8.5-10,11.1
	C86,111.9,83.1,113.1,80,113.9z M64.9,28.7c0.2-1.4,1.1-2.4,2.6-3.2c0.7-0.3,1.4-0.6,2.1-0.8c0.1,0,0.2,0,0.3-0.1
	c0.1,0.1,0.3,0.2,0.4,0.4c0.8,0.7,1.6,1.4,2.4,2.4c3,3.7,4.2,8.1,2.7,13.3c-0.8,0.2-1.6,0.3-2.4,0.5c-0.2,0-0.4-0.1-0.6-0.1
	c-0.1,0-0.1,0-0.2,0c0.5-1.6,0.7-3.2,0.6-4.8C72.6,32.1,70,29.2,64.9,28.7z M34.1,101.6c-5.1-5.8-8-13.7-8-24.1
	c0-20,8.2-29.4,23.2-32.8c1.9-0.4,3.7-0.7,5.6-0.9c-5.2,2-9.3,5.2-11.8,9.7c-7.5,13.2-6.7,32.7,1,47.2c2.8,5.2,6.4,9.1,10.6,12
	c-3-0.7-5.7-1.5-8-2.4C41.9,108.4,37.7,105.7,34.1,101.6z M119.4,77.5c-0.3,13.3-7.3,24.5-17.3,30.9c-3.1,2-6.8,3.5-10.9,4.5
	c4.3-2.9,8-6.9,10.8-12.2c7.8-14.4,8.6-34,1-47.2c-2.8-4.9-7.4-8.2-13.3-10.2c6.5,0.4,12.4,2,16.9,4.8
	C115.1,53.6,119.7,63.5,119.4,77.5z"/>
</svg>
