<?xml version="1.0" encoding="utf-8"?>
<!-- Generator: Adobe Illustrator 22.1.0, SVG Export Plug-In . SVG Version: 6.00 Build 0)  -->
<svg version="1.1" id="Layer_1" xmlns="http://www.w3.org/2000/svg" xmlns:xlink="http://www.w3.org/1999/xlink" x="0px" y="0px"
	 width="145px" height="145px" viewBox="0 0 145 145" style="enable-background:new 0 0 145 145;" xml:space="preserve">
<style type="text/css">
	.st0{fill:#F7E8FF;}
	.st1{fill:#AEDC98;}
</style>
<rect class="st0" width="145" height="145"/>
<g>
	<path class="st1" d="M112.8,56.8l-2.6-3.6c-0.3-0.4-0.5-1-0.4-1.5l0.6-5.8c0.3-2.6-1.2-5-3.6-6l-3.6-1.5c-0.7-0.3-1.2-0.9-1.3-1.6
		l-0.8-4.9c-0.5-2.7-2.8-4.8-5.6-4.8l-4.6-0.1c-0.5,0-1-0.2-1.4-0.6L85,22c-1.8-1.7-4.5-2.1-6.7-0.9l-4,2.1
		c-0.5,0.3-1.1,0.3-1.7,0.1l-6.1-2.2c-2.3-0.8-4.8-0.2-6.4,1.7L57.5,26c-0.4,0.5-1,0.7-1.6,0.7H51c-2.8,0-5.2,2.1-5.7,4.9l-0.6,3.8
		c-0.1,0.6-0.4,1.1-0.9,1.4l-5.1,3.4c-1.8,1.2-2.8,3.3-2.6,5.5l0.5,5.3c0.1,0.5-0.1,1.1-0.4,1.5l-3,4.1c-1.6,2.2-1.5,5.3,0.4,7.3
		l3.4,3.8c0.4,0.4,0.5,0.9,0.5,1.4v5.8c0,2.5,1.6,4.7,3.9,5.5l4.7,1.6c0.7,0.2,1.2,0.9,1.4,1.6l0.6,3.3c0.3,1.7,1.4,3.1,2.9,3.9
		l3.3,1.9c0.5,0.3,0.9,0.8,1,1.5l3.3,17.7c0.4,2.3,2.2,4.2,4.5,4.6l3.5,0.7c0.6,0.1,1,0.4,1.3,0.9c2.2,3.4,7.2,3.6,9.5,0.2l0.2-0.3
		c0.3-0.5,0.8-0.8,1.4-0.9l3.3-0.5c2.4-0.4,4.3-2.3,4.8-4.7l3.2-17.6c0.1-0.7,0.6-1.3,1.2-1.5l3.4-1.6c1.8-0.9,3.1-2.7,3.3-4.7
		l0.3-3.5c0.1-0.9,0.8-1.7,1.7-1.9l4.2-0.9c2.8-0.6,4.8-3.2,4.6-6.1l-0.3-4.7c0-0.6,0.1-1.1,0.5-1.5l3.3-3.9
		C114.3,61.9,114.4,58.9,112.8,56.8z M109.7,61.6l-3.3,3.9c-1,1.2-1.5,2.6-1.4,4.2l0.3,4.7c0.1,1.1-0.6,2-1.7,2.2l-4.2,0.9
		c-2.5,0.5-4.3,2.6-4.6,5.1l-0.3,3.5c-0.1,0.8-0.5,1.4-1.2,1.7L90,89.4c-1.7,0.8-2.9,2.4-3.2,4.2l-3.2,17.6
		c-0.2,0.9-0.9,1.6-1.7,1.7l-3.3,0.5c-1.5,0.2-2.9,1.1-3.8,2.3l-0.2,0.3c-0.9,1.2-2.6,1.2-3.5-0.1c-0.8-1.3-2.2-2.2-3.7-2.5
		l-3.5-0.7c-0.8-0.2-1.5-0.8-1.7-1.7l-3.3-17.7c-0.3-1.7-1.4-3.2-2.9-4l-3.3-1.9c-0.5-0.3-0.9-0.8-1-1.4l-0.6-3.3
		c-0.4-2-1.9-3.7-3.8-4.4l-4.7-1.6c-0.9-0.3-1.4-1.1-1.4-2v-5.8c0-1.4-0.5-2.8-1.5-3.9l-3.4-3.8c-0.7-0.8-0.7-1.9-0.1-2.7l3-4.1
		c0.8-1.2,1.2-2.6,1.1-4l-0.5-5.3c-0.1-0.8,0.3-1.6,0.9-2l5.1-3.4c1.4-0.9,2.3-2.3,2.5-3.9l0.6-3.8c0.2-1,1-1.8,2.1-1.8h4.9
		c1.7,0,3.3-0.7,4.4-2l2.7-3.2c0.6-0.7,1.5-0.9,2.3-0.6l6.1,2.2c1.5,0.6,3.2,0.4,4.7-0.3l4-2.1c0.8-0.4,1.8-0.3,2.4,0.3L87,29
		c1,1,2.4,1.6,3.8,1.6l4.6,0.1c1,0,1.8,0.8,2,1.8l0.8,4.9c0.3,2,1.7,3.6,3.5,4.4l3.6,1.5c0.9,0.4,1.4,1.3,1.3,2.2l-0.6,5.8
		c-0.1,1.4,0.2,2.9,1.1,4l2.6,3.6C110.4,59.7,110.4,60.8,109.7,61.6z"/>
	<path class="st1" d="M73.9,41.5c0.7-1,1.1-2.4,1.4-4.2c0.2-1.1,0.4-2.2,0.5-3.4c0-0.4,0.1-0.8,0.1-1.1c0-0.2,0-0.4,0-0.4
		c0-1-0.8-1.9-1.8-1.9c-1,0-1.9,0.8-1.9,1.8c0,0.1,0,0.2,0,0.4c0,0.3,0,0.6-0.1,1c-0.1,1-0.2,2-0.4,3c-0.3,1.3-0.6,2.3-0.9,2.9
		c-1.9,3.1-1.1,8.5,1.6,12.3c2.4,3.5,2.7,5.7,0.5,9.5c-3.3,5.6-3.8,8.2-2.3,12.8c0.1,0.2,0.9,2.5,1,3.1c0.6,2,0.8,4,0.8,9.3v21.3
		c0,1,0.8,1.8,1.8,1.8c1,0,1.8-0.8,1.8-1.8V86.5c0-5.6-0.2-8-0.9-10.3c-0.2-0.6-1-3-1-3.2c-1.1-3.5-0.8-5,2-9.8
		c3-5.1,2.5-8.8-0.7-13.4C73.5,47,72.9,43.2,73.9,41.5z"/>
	<path class="st1" d="M89.6,62.6c-1-4-0.9-4.4,1.2-6.4c0.1-0.1,0.3-0.3,0.5-0.4c0.3-0.2,1.3-1.1,1.3-1.1c4.3-3.6,5.4-7.2,2.1-13
		c-0.5-0.9-1.6-1.2-2.5-0.7s-1.2,1.6-0.7,2.5c2.3,4.2,1.8,5.9-1.3,8.4c0,0-1,0.9-1.3,1.1c-0.2,0.2-0.4,0.4-0.6,0.5
		c-3.2,3-3.5,4.8-2.2,10c0.9,3.4,0.8,3.5-1.8,5.7c-0.7,0.5-1.2,0.9-1.9,1.3c0,0-1.1,0.7-1.4,0.8c-0.9,0.6-1.5,1.4-1.7,2.5
		c-0.2,0.8-0.2,2-0.2,3.6c0,0.8,0,1.7,0.1,2.5c0,0.3,0,0.6,0,0.9c0,0.2,0,0.3,0,0.4c0.1,1,0.9,1.8,1.9,1.7c1-0.1,1.8-0.9,1.7-1.9
		c0-0.1,0-0.2,0-0.3c0-0.3,0-0.6,0-0.9c0-0.8,0-1.7-0.1-2.4c0-1.4,0-2.4,0.1-2.8c0-0.2,0-0.2,0.2-0.3c0.2-0.1,1.1-0.7,1.2-0.7
		c0.8-0.5,1.5-1,2.3-1.6C90.2,69,90.8,67.4,89.6,62.6z"/>
	<path class="st1" d="M101.4,64.9c-0.3-1-1.4-1.5-2.3-1.2c-1,0.3-1.5,1.4-1.2,2.3c0,0.1,0.1,0.3,0.2,0.7c0.2,1.1,0.3,2.3,0,3.3
		c-0.1,0.6-0.4,1.2-0.8,1.6C96.5,72.8,96.2,73,95,73c0,0,0,0-0.1,0c-1.3,0.1-2,0.2-2.9,0.8c-1.6,0.9-2.8,2.3-3.8,4.1
		c-0.6,1-1,2.1-1.4,3.2c-0.2,0.6-0.3,1.2-0.4,1.5c-0.2,1,0.4,2,1.4,2.2c1,0.2,2-0.4,2.2-1.4c0-0.2,0.1-0.6,0.3-1.1
		c0.3-0.9,0.6-1.7,1.1-2.5c0.7-1.3,1.5-2.2,2.4-2.7c0.3-0.2,0.6-0.2,1.4-0.3c0,0,0,0,0.1,0c2.1-0.2,3.4-0.7,5-2.7
		c0.7-0.9,1.2-2,1.5-3.1c0.4-1.6,0.3-3.3,0-4.9C101.6,65.5,101.5,65.2,101.4,64.9z"/>
	<path class="st1" d="M65.4,68.6c0,0-0.6-0.3-0.8-0.4c-0.3-0.2-0.5-0.3-0.7-0.4c-0.7-0.4-1.2-0.9-1.7-1.5c-0.6-0.8-0.6-1.7-0.2-3.2
		c0.1-0.3,0.2-0.6,0.4-1.2c0.8-2.7,1.1-3.9,0.5-5.6c-0.6-1.9-1.6-2.9-3.6-3.9c0,0-0.5-0.3-0.6-0.3c-0.2-0.1-0.4-0.2-0.6-0.3
		c-0.7-0.4-1.2-0.9-1.7-1.6c-0.3-0.5-0.5-1.2-0.5-2c0-1,0.2-2.1,0.6-3.2c0.1-0.4,0.3-0.8,0.4-1.1c0.1-0.2,0.1-0.3,0.2-0.4
		c0.5-0.9,0.1-2-0.8-2.5c-0.9-0.5-2-0.1-2.5,0.8c-0.2,0.4-0.5,1.1-0.8,1.9c-0.5,1.5-0.8,3-0.8,4.4c0,1.5,0.4,2.8,1.1,4
		c0.8,1.2,1.7,2.1,2.9,2.8c0.2,0.1,0.5,0.3,0.7,0.4c0.2,0.1,0.7,0.4,0.6,0.3c1.2,0.6,1.5,0.9,1.8,1.7c0.2,0.7,0.1,1.4-0.5,3.4
		c-0.2,0.6-0.3,0.9-0.4,1.3c-0.7,2.5-0.6,4.5,0.8,6.3c0.7,1,1.6,1.8,2.7,2.5c0.3,0.2,0.6,0.4,0.9,0.5c0.2,0.1,0.8,0.4,0.8,0.4
		c1.4,0.7,1.7,1.1,1.9,2.1c0.4,2.3,0.5,4.7,0.5,6.8c0,0.2,0,0.3,0,0.3c-0.1,1,0.7,1.9,1.7,1.9c1,0.1,1.9-0.7,1.9-1.7
		c0-0.1,0-0.2,0-0.4c0.1-2.3-0.1-5-0.5-7.5C68.8,70.9,67.7,69.8,65.4,68.6z"/>
	<path class="st1" d="M62.1,80.9c-0.1-0.3-0.3-0.7-0.5-1.1c-0.5-1.2-1-2.4-1.5-3.8c-0.8-2.3-2.3-3-5.7-3.8c-0.5-0.1-0.5-0.1-0.7-0.2
		c-1.3-0.3-2.1-0.6-2.7-1c-0.5-0.4-0.9-1.1-1.2-2.1c-0.3-1-0.3-2.2-0.3-3.1c0-0.1,0-0.2,0-0.2c0.1-1-0.6-1.9-1.7-2s-1.9,0.6-2,1.7
		c0,0.1,0,0.2,0,0.3c-0.1,1.3,0,2.8,0.4,4.3c0.4,1.7,1.3,3.1,2.5,4.1c1.1,0.8,2.2,1.2,4,1.7c0.2,0,0.2,0,0.7,0.2
		c2.2,0.5,2.8,0.8,3,1.5c0.5,1.4,1,2.7,1.6,3.9c0.2,0.4,0.4,0.8,0.5,1.2c0.1,0.2,0.2,0.4,0.2,0.4c0.4,0.9,1.5,1.3,2.5,0.9
		c0.9-0.4,1.3-1.5,0.9-2.5C62.2,81.2,62.1,81.1,62.1,80.9z"/>
</g>
</svg>
