<svg width="145" height="145" viewBox="0 0 145 145" fill="none" xmlns="http://www.w3.org/2000/svg">
<rect width="145" height="145" transform="matrix(-1 0 0 1 145 0)" fill="#FDECEA"/>
<path fill-rule="evenodd" clip-rule="evenodd" d="M78.6238 113.004C92.9525 113.004 104.384 98.7142 104.384 81.2636C104.384 63.8129 92.9525 49.5229 78.6238 49.5229C64.2951 49.5229 52.8633 63.8129 52.8633 81.2636C52.8633 98.7142 64.2951 113.004 78.6238 113.004ZM78.6238 53.2031C90.7169 53.2031 100.704 65.6876 100.704 81.2637C100.704 96.8398 90.7169 109.324 78.6238 109.324C66.5308 109.324 56.5434 96.8398 56.5434 81.2637C56.5434 65.6876 66.5308 53.2031 78.6238 53.2031Z" fill="#FFB3FD"/>
<path d="M80.6839 50.8706C82.3092 51.9961 83.9218 53.5007 85.4166 55.4345C87.4685 58.0893 89.1384 61.3534 90.2997 65.2784C92.4436 72.5244 92.8113 78.3181 92.1294 82.577C92.0132 83.3028 91.8905 83.8173 91.7957 84.1171L88.2866 83.0086C88.3276 82.879 88.4083 82.5404 88.4956 81.9952C89.0908 78.2779 88.7583 73.0399 86.7708 66.3225C85.7388 62.8345 84.2782 59.9794 82.5048 57.6851C81.2477 56.0586 79.9119 54.8123 78.5888 53.896C78.1375 53.5835 77.7244 53.3357 77.3615 53.1467C77.1628 53.0432 77.0381 52.9869 76.9995 52.9717L76.3263 52.7079L76.0127 52.0564C75.8589 51.7368 75.6549 51.2164 75.458 50.5277C74.5996 47.5253 74.6904 44.2705 76.4064 41.1849C77.2607 39.6489 78.4875 38.2495 80.1067 37.0176L82.335 39.9464C81.1146 40.8748 80.2262 41.8883 79.6226 42.9735C78.4469 45.0875 78.3832 47.3717 78.9963 49.5161C79.0376 49.6603 79.0782 49.7911 79.1166 49.9071C79.5572 50.1395 80.0866 50.4569 80.6839 50.8706Z" fill="#FFB3FD"/>
<path fill-rule="evenodd" clip-rule="evenodd" d="M37.7324 48.8352L38.6835 49.7836C42.3353 53.425 45.1556 54.8103 50.568 55.6299C61.8699 57.342 73.7933 52.4627 78.4204 43.4494L79.0339 42.2543L78.0826 41.3059C74.6204 37.8544 70.3379 35.9991 64.5175 35.1178C53.5897 33.4623 43.0934 38.3924 38.3459 47.6403L37.7324 48.8352ZM74.4571 42.9699C70.1724 49.698 60.4251 53.4005 51.1194 51.9908C46.988 51.3652 44.8696 50.4813 42.2839 48.1337C46.5522 41.1047 55.0444 37.4042 63.9668 38.7559C68.4747 39.4384 71.7848 40.7242 74.4571 42.9699Z" fill="#FFB3FD"/>
<path d="M74.2099 32.8504C73.7635 31.9375 74.1417 30.8355 75.0546 30.3891C75.9676 29.9427 77.0695 30.3209 77.5159 31.2338C77.5371 31.2772 77.5959 31.3887 77.6929 31.5583C77.8646 31.8588 78.0759 32.1982 78.3271 32.5668C79.053 33.6316 79.9459 34.6999 81.0078 35.695C82.8437 37.4155 84.9837 38.7286 87.4429 39.4832C88.4144 39.7813 88.9603 40.8106 88.6622 41.7821C88.3641 42.7536 87.3348 43.2995 86.3633 43.0014C83.3349 42.0721 80.7163 40.4653 78.4914 38.3803C77.2211 37.1898 76.1568 35.9165 75.2864 34.6396C74.7551 33.8603 74.3995 33.2382 74.2099 32.8504Z" fill="#FFB3FD"/>
</svg>
