<?xml version="1.0" encoding="utf-8"?>
<!-- Generator: Adobe Illustrator 22.1.0, SVG Export Plug-In . SVG Version: 6.00 Build 0)  -->
<svg version="1.1" id="Layer_1" xmlns="http://www.w3.org/2000/svg" xmlns:xlink="http://www.w3.org/1999/xlink" x="0px" y="0px"
	 width="145px" height="145px" viewBox="0 0 145 145" style="enable-background:new 0 0 145 145;" xml:space="preserve">
<style type="text/css">
	.st0{fill:#F3FFF7;}
	.st1{fill:#B5D6B7;}
</style>
<rect class="st0" width="145" height="145"/>
<g>
	<path class="st1" d="M116.1,37.2c-0.8-0.1-1.7,0-2.6,0.2c-1.4-3.2-4.6-4.4-9.5-2c-1.6,0.8-3.1,2.1-4.5,3.7C98.7,40,98,41,97.4,42
		c-0.2,0.4-0.4,0.7-0.6,1c-5.7-4.7-13.5-3.5-22.8,2.5c-7.6,4.9-16.1,12.8-24.3,22.3c0,0.1-0.1,0.1-0.2,0.2c-0.2,0.2-0.4,0.5-0.7,0.8
		c-0.7,0.8-1.5,1.7-2.4,2.8c-2.5,2.9-4.9,6.1-7.2,9.4c-2.7,3.9-5,7.6-6.8,11.2c-4.9,9.9-5.5,17.8,0,22.5c6.7,5.7,15.1,4.5,24.8-2.3
		c7.4-5.2,15.3-13.4,23.9-24C94.6,71.4,95.6,70,98.7,64c3.8-7.4,4.3-13.5,0.6-18.4c0.2-0.2,0.4-0.4,0.5-0.6c0,0,0.1-0.1,0.1-0.3
		c0.1-0.2,0.3-0.5,0.5-0.8c0.5-0.8,1.1-1.7,1.8-2.4c1.1-1.3,2.2-2.3,3.3-2.8c2.6-1.2,3.9-1.2,4.5,0c-1.6,0.9-3,2.1-4.2,3.5
		c-2.8,3.6-2.4,7.3,0.9,8.3c2.8,0.8,6-1.2,7.2-4.7l0,0c0.1-0.3,0.1-0.7,0.1-1c0-0.2,0-0.3,0-0.4c0.1-1.2,0.2-2.3,0.1-3.3
		c0.5-0.1,1.1-0.1,1.5-0.1c2,0.1,3,1.3,2.6,3.8c-0.2,1,0.5,1.9,1.5,2.1c1,0.2,1.9-0.5,2.1-1.5C122.8,40.6,120.2,37.5,116.1,37.2z
		 M95.4,62.3c-2.9,5.6-4,7-17.3,23.8c-18.7,23.4-33.9,34-43.4,25.8c-3.8-3.3-3.3-9.5,0.9-18.1c1.7-3.4,3.9-7,6.5-10.7
		c2.2-3.2,4.6-6.3,7-9.2c0.8-1,1.6-1.9,2.3-2.7c0.2-0.3,0.5-0.5,0.6-0.7c0.1-0.1,0.1-0.1,0.2-0.2c0,0,0.1-0.1,0.1-0.1
		C70.3,49.4,87,38.8,94.9,46.1C99.1,50.1,99.2,55.1,95.4,62.3z M110.5,44c0,0.2,0,0.5-0.1,0.7c0,0.1,0,0.2,0,0.3
		c-0.6,1.5-1.8,2.2-2.6,2c-0.1,0-0.1,0-0.1-0.2c0-0.5,0.3-1.3,1.1-2.3c0.5-0.7,1.1-1.3,1.8-1.8C110.6,43.1,110.6,43.5,110.5,44z"/>
	<path class="st1" d="M86.5,55.4c-1.5,0-2.7,1.2-2.7,2.6c0,1.5,1.2,2.6,2.7,2.6c1.5,0,2.6-1.2,2.6-2.6C89.1,56.6,88,55.4,86.5,55.4z
		"/>
	<path class="st1" d="M80.6,68.1c-1.5,0-2.7,1.2-2.7,2.6c0,1.5,1.2,2.6,2.7,2.6c1.5,0,2.6-1.2,2.6-2.6
		C83.3,69.3,82.1,68.1,80.6,68.1z"/>
	<path class="st1" d="M68,75.5c0-1.5-1.2-2.6-2.6-2.6c-1.5,0-2.7,1.2-2.7,2.6c0,1.5,1.2,2.6,2.7,2.6C66.8,78.2,68,77,68,75.5z"/>
	<path class="st1" d="M72.9,55.4c-1.5,0-2.7,1.2-2.7,2.6c0,1.5,1.2,2.6,2.7,2.6c1.5,0,2.6-1.2,2.6-2.6
		C75.5,56.6,74.4,55.4,72.9,55.4z"/>
	<path class="st1" d="M57.5,76.6c0-1.5-1.2-2.6-2.6-2.6c-1.5,0-2.7,1.2-2.7,2.6c0,1.5,1.2,2.6,2.7,2.6C56.4,79.2,57.5,78,57.5,76.6z
		"/>
	<path class="st1" d="M68.5,84.4c-1.5,0-2.7,1.2-2.7,2.6c0,1.5,1.2,2.6,2.7,2.6c1.5,0,2.6-1.2,2.6-2.6
		C71.1,85.6,69.9,84.4,68.5,84.4z"/>
	<path class="st1" d="M55.8,88.5c-1.5,0-2.7,1.2-2.7,2.6s1.2,2.6,2.7,2.6c1.5,0,2.6-1.2,2.6-2.6S57.3,88.5,55.8,88.5z"/>
	<path class="st1" d="M48.3,104.2c-1.5,0-2.7,1.2-2.7,2.6s1.2,2.7,2.7,2.7c1.5,0,2.6-1.2,2.6-2.7S49.8,104.2,48.3,104.2z"/>
	<path class="st1" d="M43,87.8c-1.5,0-2.7,1.2-2.7,2.6c0,1.5,1.2,2.6,2.7,2.6c1.5,0,2.6-1.2,2.6-2.6C45.7,89,44.5,87.8,43,87.8z"/>
</g>
</svg>
