<?xml version="1.0" encoding="utf-8"?>
<!-- Generator: Adobe Illustrator 22.1.0, SVG Export Plug-In . SVG Version: 6.00 Build 0)  -->
<svg version="1.1" id="Layer_1" xmlns="http://www.w3.org/2000/svg" xmlns:xlink="http://www.w3.org/1999/xlink" x="0px" y="0px"
	 width="145px" height="145px" viewBox="0 0 145 145" style="enable-background:new 0 0 145 145;" xml:space="preserve">
<style type="text/css">
	.st0{fill:#E8F4FD;}
	.st1{fill:#92EB92;}
</style>
<rect class="st0" width="145" height="145"/>
<g>
	<path class="st1" d="M73.4,32.3c-22.8,0-41.2,19.7-41.2,43.9c0,24.2,18.4,43.9,41.2,43.9c22.8,0,41.2-19.7,41.2-43.9
		C114.7,52,96.2,32.3,73.4,32.3z M73.4,116.4c-20.7,0-37.6-18-37.6-40.2C35.9,53.9,52.7,36,73.4,36c20.7,0,37.6,18,37.6,40.2
		C111,98.4,94.2,116.4,73.4,116.4z"/>
	<path class="st1" d="M84,76.2C84,68.9,79.2,63,73.4,63c-5.8,0-10.6,5.8-10.6,13.1s4.8,13.1,10.6,13.1C79.2,89.3,84,83.5,84,76.2z"
		/>
	<circle class="st1" cx="70.9" cy="57" r="2.9"/>
	<circle class="st1" cx="61.9" cy="62.9" r="2.9"/>
	<circle class="st1" cx="58.4" cy="72.5" r="2.9"/>
	<circle class="st1" cx="58.2" cy="82" r="2.9"/>
	<circle class="st1" cx="62.5" cy="90.5" r="2.9"/>
	<circle class="st1" cx="70" cy="94.8" r="2.9"/>
	<circle class="st1" cx="79.1" cy="93.6" r="2.9"/>
	<circle class="st1" cx="85.8" cy="87.6" r="2.9"/>
	<circle class="st1" cx="89.6" cy="78.6" r="2.9"/>
	<circle class="st1" cx="88.4" cy="68.9" r="2.9"/>
	<circle class="st1" cx="81.8" cy="59.1" r="2.9"/>
	<circle class="st1" cx="77.8" cy="54.1" r="1.8"/>
	<circle class="st1" cx="88.1" cy="61.2" r="1.8"/>
	<circle class="st1" cx="93.8" cy="72.6" r="1.8"/>
	<circle class="st1" cx="93.1" cy="84.9" r="1.8"/>
	<circle class="st1" cx="87" cy="94.5" r="1.8"/>
	<circle class="st1" cx="75.4" cy="99.9" r="1.8"/>
	<circle class="st1" cx="63.6" cy="96.5" r="1.8"/>
	<path class="st1" d="M54.7,87.2c-0.9,0.3-1.5,1.3-1.2,2.2c0.3,0.9,1.3,1.5,2.2,1.2c0.9-0.3,1.5-1.3,1.2-2.2
		C56.7,87.4,55.7,86.9,54.7,87.2z"/>
	<path class="st1" d="M54,76.9c-0.3-0.9-1.3-1.5-2.2-1.2c-0.9,0.3-1.5,1.3-1.2,2.2c0.3,0.9,1.3,1.5,2.2,1.2
		C53.7,78.8,54.2,77.8,54,76.9z"/>
	<path class="st1" d="M55.5,67.5c0.9-0.3,1.5-1.3,1.2-2.2c-0.3-0.9-1.3-1.5-2.2-1.2c-0.9,0.3-1.5,1.3-1.2,2.2
		C53.6,67.2,54.6,67.7,55.5,67.5z"/>
	<path class="st1" d="M63.6,57.7c0.9-0.3,1.5-1.3,1.2-2.2c-0.3-0.9-1.3-1.5-2.2-1.2c-0.9,0.3-1.5,1.3-1.2,2.2
		C61.7,57.4,62.7,58,63.6,57.7z"/>
</g>
</svg>
