<?xml version="1.0" encoding="utf-8"?>
<!-- Generator: Adobe Illustrator 22.1.0, SVG Export Plug-In . SVG Version: 6.00 Build 0)  -->
<svg version="1.1" id="Layer_1" xmlns="http://www.w3.org/2000/svg" xmlns:xlink="http://www.w3.org/1999/xlink" x="0px" y="0px"
	 width="145px" height="145px" viewBox="0 0 145 145" style="enable-background:new 0 0 145 145;" xml:space="preserve">
<style type="text/css">
	.st0{fill:#F7E8FF;}
	.st1{fill:#E6ABAB;}
</style>
<rect class="st0" width="145" height="145"/>
<g>
	<path class="st1" d="M86,47.4c-0.9-1.1-1.5-2.7-1.6-4.7c-0.1-3.1,1.2-6.7,4.4-10.7c1-1.3-0.1-3.2-1.7-3c-3.8,0.6-6.9,2.3-9.3,4.9
		c-0.3,0.3-0.5,0.6-0.8,0.9c-0.1-0.2-0.2-0.5-0.3-0.7c-1-2.5-2.5-4.4-4.5-5.3c-0.5-0.2-1.1-0.2-1.6,0c-2,1-3.4,2.9-4.3,5.2
		c-0.1,0.2-0.2,0.5-0.2,0.7c-0.1-0.2-0.3-0.3-0.4-0.5c-3-3.2-6.7-5-11.1-4.6c-1.6,0.2-2.3,2.2-1,3.2c0.6,0.5,1.1,1,1.6,1.5
		c3.7,4,4.1,8.1,2.7,11.9c-0.1,0.3-0.3,0.7-0.4,0.9C42.3,53,32,67.5,32,84c0,21.7,17.7,39.3,39.6,39.3c21.8,0,39.6-17.6,39.6-39.3
		C111.1,67.7,101,53.3,86,47.4z M71.5,119.7c-19.8,0-35.9-16-35.9-35.7c0-15.2,9.6-28.5,23.7-33.6c0.5-0.2,0.8-0.5,1-0.9
		c0.3-0.4,0.6-1.1,0.9-1.9c1.6-4.3,1.4-8.9-1.6-13.3c1.2,0.6,2.3,1.4,3.3,2.5c0.7,0.8,1.4,1.6,1.9,2.5c0.3,0.5,0.5,0.9,0.6,1.1
		c0.8,1.8,3.5,1.2,3.5-0.7c0,0,0-0.2,0-0.3c0-0.3,0-0.6,0.1-1c0.1-1,0.4-2,0.7-3c0.4-1.2,1-2.1,1.7-2.7c0.7,0.6,1.3,1.6,1.9,2.9
		c0.4,0.9,0.7,2,0.9,3c0.1,0.4,0.1,0.7,0.2,1c0,0.2,0,0.3,0.1,0.3c0.2,1.9,2.9,2.2,3.6,0.4c0.1-0.2,0.2-0.6,0.5-1.1
		c0.5-0.9,1.1-1.8,1.9-2.7c0.7-0.7,1.4-1.4,2.2-1.9c-3.3,6.4-2.6,12,0.6,15.6c0.2,0.3,0.5,0.5,0.9,0.7c13.8,5.2,23.1,18.4,23.1,33.3
		C107.4,103.7,91.3,119.7,71.5,119.7z"/>
	<path class="st1" d="M77.5,64.5c1.3,0,2.3-1,2.3-2.3c0-1.3-1-2.3-2.3-2.3c-1.3,0-2.3,1-2.3,2.3C75.2,63.5,76.2,64.5,77.5,64.5z"/>
	<path class="st1" d="M77.5,57.1c1.3,0,2.3-1,2.3-2.3c0-1.3-1-2.3-2.3-2.3c-1.3,0-2.3,1-2.3,2.3C75.2,56.1,76.2,57.1,77.5,57.1z"/>
	<path class="st1" d="M83.9,59.9c1.3,0,2.3-1,2.3-2.3c0-1.3-1-2.3-2.3-2.3c-1.3,0-2.3,1-2.3,2.3C81.6,58.9,82.7,59.9,83.9,59.9z"/>
	<path class="st1" d="M77.5,70.9c1.3,0,2.3-1,2.3-2.3c0-1.3-1-2.3-2.3-2.3c-1.3,0-2.3,1-2.3,2.3C75.2,69.9,76.2,70.9,77.5,70.9z"/>
	<path class="st1" d="M83,65.4c1.3,0,2.3-1,2.3-2.3c0-1.3-1-2.3-2.3-2.3c-1.3,0-2.3,1-2.3,2.3C80.7,64.4,81.7,65.4,83,65.4z"/>
	<path class="st1" d="M94.1,68.2c1.3,0,2.3-1,2.3-2.3c0-1.3-1-2.3-2.3-2.3c-1.3,0-2.3,1-2.3,2.3C91.8,67.1,92.8,68.2,94.1,68.2z"/>
	<path class="st1" d="M95.4,72.3c0,1.3,1,2.3,2.3,2.3c1.3,0,2.3-1,2.3-2.3c0-1.3-1-2.3-2.3-2.3C96.5,70,95.4,71,95.4,72.3z"/>
	<path class="st1" d="M98.2,78.7c0,1.3,1,2.3,2.3,2.3c1.3,0,2.3-1,2.3-2.3c0-1.3-1-2.3-2.3-2.3C99.2,76.4,98.2,77.5,98.2,78.7z"/>
	<path class="st1" d="M100.5,82.9c-1.3,0-2.3,1-2.3,2.3c0,1.3,1,2.3,2.3,2.3c1.3,0,2.3-1,2.3-2.3C102.8,83.9,101.8,82.9,100.5,82.9z
		"/>
	<path class="st1" d="M99.6,90.2c-1.3,0-2.3,1-2.3,2.3c0,1.3,1,2.3,2.3,2.3c1.3,0,2.3-1,2.3-2.3C101.9,91.3,100.8,90.2,99.6,90.2z"
		/>
	<path class="st1" d="M94.1,91.2c1.3,0,2.3-1,2.3-2.3c0-1.3-1-2.3-2.3-2.3c-1.3,0-2.3,1-2.3,2.3C91.8,90.1,92.8,91.2,94.1,91.2z"/>
	<path class="st1" d="M95,94.8c-1.3,0-2.3,1-2.3,2.3c0,1.3,1,2.3,2.3,2.3c1.3,0,2.3-1,2.3-2.3C97.3,95.9,96.2,94.8,95,94.8z"/>
	<path class="st1" d="M77.5,94.8c-1.3,0-2.3,1-2.3,2.3c0,1.3,1,2.3,2.3,2.3c1.3,0,2.3-1,2.3-2.3C79.8,95.9,78.8,94.8,77.5,94.8z"/>
	<path class="st1" d="M77.5,88.4c-1.3,0-2.3,1-2.3,2.3c0,1.3,1,2.3,2.3,2.3c1.3,0,2.3-1,2.3-2.3C79.8,89.4,78.8,88.4,77.5,88.4z"/>
	<path class="st1" d="M83,93c-1.3,0-2.3,1-2.3,2.3c0,1.3,1,2.3,2.3,2.3c1.3,0,2.3-1,2.3-2.3C85.3,94,84.3,93,83,93z"/>
	<path class="st1" d="M83,100.4c-1.3,0-2.3,1-2.3,2.3c0,1.3,1,2.3,2.3,2.3c1.3,0,2.3-1,2.3-2.3C85.3,101.4,84.3,100.4,83,100.4z"/>
	<path class="st1" d="M87.6,97.6c-1.3,0-2.3,1-2.3,2.3c0,1.3,1,2.3,2.3,2.3c1.3,0,2.3-1,2.3-2.3C89.9,98.6,88.9,97.6,87.6,97.6z"/>
	<path class="st1" d="M93.1,101.3c-1.3,0-2.3,1-2.3,2.3s1,2.3,2.3,2.3c1.3,0,2.3-1,2.3-2.3S94.4,101.3,93.1,101.3z"/>
	<path class="st1" d="M83,108.6c-1.3,0-2.3,1-2.3,2.3s1,2.3,2.3,2.3c1.3,0,2.3-1,2.3-2.3S84.3,108.6,83,108.6z"/>
	<circle class="st1" cx="87.6" cy="106.3" r="2.3"/>
	<path class="st1" d="M77.5,110.5c-1.3,0-2.3,1-2.3,2.3c0,1.3,1,2.3,2.3,2.3c1.3,0,2.3-1,2.3-2.3C79.8,111.5,78.8,110.5,77.5,110.5z
		"/>
	<path class="st1" d="M77.5,103.1c-1.3,0-2.3,1-2.3,2.3c0,1.3,1,2.3,2.3,2.3c1.3,0,2.3-1,2.3-2.3C79.8,104.2,78.8,103.1,77.5,103.1z
		"/>
	<path class="st1" d="M83,82c1.3,0,2.3-1,2.3-2.3c0-1.3-1-2.3-2.3-2.3c-1.3,0-2.3,1-2.3,2.3C80.7,80.9,81.7,82,83,82z"/>
	<path class="st1" d="M78.4,81c-1.3,0-2.3,1-2.3,2.3c0,1.3,1,2.3,2.3,2.3c1.3,0,2.3-1,2.3-2.3C80.7,82.1,79.7,81,78.4,81z"/>
	<path class="st1" d="M83,85.6c-1.3,0-2.3,1-2.3,2.3c0,1.3,1,2.3,2.3,2.3c1.3,0,2.3-1,2.3-2.3C85.3,86.7,84.3,85.6,83,85.6z"/>
	<path class="st1" d="M89.5,63.6c1.3,0,2.3-1,2.3-2.3c0-1.3-1-2.3-2.3-2.3c-1.3,0-2.3,1-2.3,2.3C87.2,62.5,88.2,63.6,89.5,63.6z"/>
	<circle class="st1" cx="83.9" cy="74.1" r="2.3"/>
	<path class="st1" d="M83,71.8c1.3,0,2.3-1,2.3-2.3c0-1.3-1-2.3-2.3-2.3c-1.3,0-2.3,1-2.3,2.3C80.7,70.8,81.7,71.8,83,71.8z"/>
	<path class="st1" d="M77.5,78.3c1.3,0,2.3-1,2.3-2.3c0-1.3-1-2.3-2.3-2.3c-1.3,0-2.3,1-2.3,2.3C75.2,77.3,76.2,78.3,77.5,78.3z"/>
	<path class="st1" d="M93.6,72.3c0-1.3-1-2.3-2.3-2.3C90,70,89,71,89,72.3c0,1.3,1,2.3,2.3,2.3C92.6,74.6,93.6,73.6,93.6,72.3z"/>
	<path class="st1" d="M88.5,70c1.3,0,2.3-1,2.3-2.3c0-1.3-1-2.3-2.3-2.3c-1.3,0-2.3,1-2.3,2.3C86.2,69,87.3,70,88.5,70z"/>
	<path class="st1" d="M95,74.6c-1.3,0-2.3,1-2.3,2.3c0,1.3,1,2.3,2.3,2.3c1.3,0,2.3-1,2.3-2.3C97.3,75.6,96.2,74.6,95,74.6z"/>
	<path class="st1" d="M97.3,83.3c0-1.3-1-2.3-2.3-2.3c-1.3,0-2.3,1-2.3,2.3c0,1.3,1,2.3,2.3,2.3C96.2,85.6,97.3,84.6,97.3,83.3z"/>
	<path class="st1" d="M88.5,76.4c-1.3,0-2.3,1-2.3,2.3c0,1.3,1,2.3,2.3,2.3c1.3,0,2.3-1,2.3-2.3C90.8,77.5,89.8,76.4,88.5,76.4z"/>
	<path class="st1" d="M88.5,82c-1.3,0-2.3,1-2.3,2.3c0,1.3,1,2.3,2.3,2.3c1.3,0,2.3-1,2.3-2.3C90.8,83,89.8,82,88.5,82z"/>
	<path class="st1" d="M88.5,90.2c-1.3,0-2.3,1-2.3,2.3c0,1.3,1,2.3,2.3,2.3c1.3,0,2.3-1,2.3-2.3C90.8,91.3,89.8,90.2,88.5,90.2z"/>
	<path class="st1" d="M65.5,65.4c1.3,0,2.3-1,2.3-2.3c0-1.3-1-2.3-2.3-2.3c-1.3,0-2.3,1-2.3,2.3C63.2,64.4,64.3,65.4,65.5,65.4z"/>
	<path class="st1" d="M65.5,57.1c1.3,0,2.3-1,2.3-2.3c0-1.3-1-2.3-2.3-2.3c-1.3,0-2.3,1-2.3,2.3C63.2,56.1,64.3,57.1,65.5,57.1z"/>
	<path class="st1" d="M60,59.9c1.3,0,2.3-1,2.3-2.3c0-1.3-1-2.3-2.3-2.3c-1.3,0-2.3,1-2.3,2.3C57.7,58.9,58.7,59.9,60,59.9z"/>
	<path class="st1" d="M58.6,69.5c0,1.3,1,2.3,2.3,2.3c1.3,0,2.3-1,2.3-2.3c0,1.3,1,2.3,2.3,2.3c1.3,0,2.3-1,2.3-2.3
		c0-1.3-1-2.3-2.3-2.3c-1.3,0-2.3,1-2.3,2.3c0-1.3-1-2.3-2.3-2.3C59.7,67.2,58.6,68.3,58.6,69.5z"/>
	<path class="st1" d="M60,66.3c1.3,0,2.3-1,2.3-2.3c0-1.3-1-2.3-2.3-2.3c-1.3,0-2.3,1-2.3,2.3C57.7,65.3,58.7,66.3,60,66.3z"/>
	<path class="st1" d="M49.9,69.1c1.3,0,2.3-1,2.3-2.3c0-1.3-1-2.3-2.3-2.3c-1.3,0-2.3,1-2.3,2.3C47.6,68.1,48.6,69.1,49.9,69.1z"/>
	<path class="st1" d="M46.2,74.6c1.3,0,2.3-1,2.3-2.3c0-1.3-1-2.3-2.3-2.3c-1.3,0-2.3,1-2.3,2.3C43.9,73.6,44.9,74.6,46.2,74.6z"/>
	<path class="st1" d="M42.5,81c1.3,0,2.3-1,2.3-2.3c0-1.3-1-2.3-2.3-2.3c-1.3,0-2.3,1-2.3,2.3C40.2,80,41.3,81,42.5,81z"/>
	<path class="st1" d="M44.8,86.1c0-1.3-1-2.3-2.3-2.3c-1.3,0-2.3,1-2.3,2.3c0,1.3,1,2.3,2.3,2.3C43.8,88.4,44.8,87.4,44.8,86.1z"/>
	<path class="st1" d="M45.8,93.5c0-1.3-1-2.3-2.3-2.3c-1.3,0-2.3,1-2.3,2.3c0,1.3,1,2.3,2.3,2.3C44.7,95.8,45.8,94.7,45.8,93.5z"/>
	<path class="st1" d="M49.4,99c0-1.3-1-2.3-2.3-2.3c-1.3,0-2.3,1-2.3,2.3c0,1.3,1,2.3,2.3,2.3C48.4,101.3,49.4,100.3,49.4,99z"/>
	<path class="st1" d="M49,91.2c1.3,0,2.3-1,2.3-2.3c0-1.3-1-2.3-2.3-2.3c-1.3,0-2.3,1-2.3,2.3C46.7,90.1,47.7,91.2,49,91.2z"/>
	<path class="st1" d="M51.7,96.7c1.3,0,2.3-1,2.3-2.3c0-1.3-1-2.3-2.3-2.3c-1.3,0-2.3,1-2.3,2.3C49.4,95.7,50.5,96.7,51.7,96.7z"/>
	<path class="st1" d="M65.5,95.8c-1.3,0-2.3,1-2.3,2.3c0,1.3,1,2.3,2.3,2.3c1.3,0,2.3-1,2.3-2.3C67.8,96.8,66.8,95.8,65.5,95.8z"/>
	<path class="st1" d="M65.5,88.4c-1.3,0-2.3,1-2.3,2.3c0,1.3,1,2.3,2.3,2.3c1.3,0,2.3-1,2.3-2.3C67.8,89.4,66.8,88.4,65.5,88.4z"/>
	<path class="st1" d="M60.9,97.6c1.3,0,2.3-1,2.3-2.3c0-1.3-1-2.3-2.3-2.3c-1.3,0-2.3,1-2.3,2.3C58.6,96.6,59.7,97.6,60.9,97.6z"/>
	<circle class="st1" cx="60.9" cy="102.7" r="2.3"/>
	<path class="st1" d="M55.4,97.6c-1.3,0-2.3,1-2.3,2.3c0,1.3,1,2.3,2.3,2.3c1.3,0,2.3-1,2.3-2.3C57.7,98.6,56.7,97.6,55.4,97.6z"/>
	<path class="st1" d="M49.9,102.2c-1.3,0-2.3,1-2.3,2.3c0,1.3,1,2.3,2.3,2.3c1.3,0,2.3-1,2.3-2.3C52.2,103.2,51.2,102.2,49.9,102.2z
		"/>
	<path class="st1" d="M60,108.6c-1.3,0-2.3,1-2.3,2.3s1,2.3,2.3,2.3c1.3,0,2.3-1,2.3-2.3S61.3,108.6,60,108.6z"/>
	<path class="st1" d="M55.4,105c-1.3,0-2.3,1-2.3,2.3c0,1.3,1,2.3,2.3,2.3c1.3,0,2.3-1,2.3-2.3C57.7,106,56.7,105,55.4,105z"/>
	<path class="st1" d="M65.5,110.5c-1.3,0-2.3,1-2.3,2.3c0,1.3,1,2.3,2.3,2.3c1.3,0,2.3-1,2.3-2.3C67.8,111.5,66.8,110.5,65.5,110.5z
		"/>
	<path class="st1" d="M65.5,103.1c-1.3,0-2.3,1-2.3,2.3c0,1.3,1,2.3,2.3,2.3c1.3,0,2.3-1,2.3-2.3C67.8,104.2,66.8,103.1,65.5,103.1z
		"/>
	<path class="st1" d="M58.6,80.6c0,1.3,1,2.3,2.3,2.3c1.3,0,2.3-1,2.3-2.3c0-1.3-1-2.3-2.3-2.3C59.7,78.3,58.6,79.3,58.6,80.6z"/>
	<path class="st1" d="M64.2,86.1c0-1.3-1-2.3-2.3-2.3c-1.3,0-2.3,1-2.3,2.3c0,1.3,1,2.3,2.3,2.3C63.1,88.4,64.2,87.4,64.2,86.1z"/>
	<path class="st1" d="M54.5,63.6c1.3,0,2.3-1,2.3-2.3c0-1.3-1-2.3-2.3-2.3c-1.3,0-2.3,1-2.3,2.3C52.2,62.5,53.2,63.6,54.5,63.6z"/>
	<path class="st1" d="M61.4,75.1c0-1.3-1-2.3-2.3-2.3c-1.3,0-2.3,1-2.3,2.3c0,1.3,1,2.3,2.3,2.3C60.4,77.4,61.4,76.3,61.4,75.1z"/>
	<path class="st1" d="M66.5,73.7c-1.3,0-2.3,1-2.3,2.3c0,1.3,1,2.3,2.3,2.3c1.3,0,2.3-1,2.3-2.3C68.8,74.7,67.7,73.7,66.5,73.7z"/>
	<path class="st1" d="M66.5,81c-1.3,0-2.3,1-2.3,2.3c0,1.3,1,2.3,2.3,2.3c1.3,0,2.3-1,2.3-2.3C68.8,82.1,67.7,81,66.5,81z"/>
	<path class="st1" d="M51.7,70.9c-1.3,0-2.3,1-2.3,2.3c0,1.3,1,2.3,2.3,2.3c1.3,0,2.3-1,2.3-2.3C54,72,53,70.9,51.7,70.9z"/>
	<path class="st1" d="M53.1,67.7c0,1.3,1,2.3,2.3,2.3c1.3,0,2.3-1,2.3-2.3c0-1.3-1-2.3-2.3-2.3C54.1,65.4,53.1,66.4,53.1,67.7z"/>
	<path class="st1" d="M46.7,77.8c0,1.3,1,2.3,2.3,2.3c1.3,0,2.3-1,2.3-2.3c0-1.3-1-2.3-2.3-2.3C47.7,75.5,46.7,76.6,46.7,77.8z"/>
	<path class="st1" d="M45.8,83.3c0,1.3,1,2.3,2.3,2.3c1.3,0,2.3-1,2.3-2.3c0-1.3-1-2.3-2.3-2.3C46.8,81,45.8,82.1,45.8,83.3z"/>
	<path class="st1" d="M54.5,76.4c-1.3,0-2.3,1-2.3,2.3c0,1.3,1,2.3,2.3,2.3c1.3,0,2.3-1,2.3-2.3C56.8,77.5,55.8,76.4,54.5,76.4z"/>
	<path class="st1" d="M53.1,84.3c0,1.3,1,2.3,2.3,2.3c1.3,0,2.3-1,2.3-2.3c0-1.3-1-2.3-2.3-2.3C54.1,82,53.1,83,53.1,84.3z"/>
	<path class="st1" d="M56.3,93c1.3,0,2.3-1,2.3-2.3c0-1.3-1-2.3-2.3-2.3c-1.3,0-2.3,1-2.3,2.3C54,92,55.1,93,56.3,93z"/>
</g>
</svg>
