<?xml version="1.0" encoding="utf-8"?>
<!-- Generator: Adobe Illustrator 22.1.0, SVG Export Plug-In . SVG Version: 6.00 Build 0)  -->
<svg version="1.1" id="Layer_1" xmlns="http://www.w3.org/2000/svg" xmlns:xlink="http://www.w3.org/1999/xlink" x="0px" y="0px"
	 width="145px" height="145px" viewBox="0 0 145 145" style="enable-background:new 0 0 145 145;" xml:space="preserve">
<style type="text/css">
	.st0{fill:#E8F4FD;}
	.st1{fill:#99E3B7;}
</style>
<rect class="st0" width="145" height="145"/>
<g>
	<path class="st1" d="M48.5,77.8V62.6c0-1-0.8-1.8-1.8-1.8c-1,0-1.8,0.8-1.8,1.8v11.6l-4.9-4.9v-9.8c0-1-0.8-1.8-1.8-1.8
		c-1,0-1.8,0.8-1.8,1.8v6.1l-7.4-7.4c-0.7-0.7-1.9-0.7-2.6,0c-0.7,0.7-0.7,1.9,0,2.6l7.4,7.4h-6.1c-1,0-1.8,0.8-1.8,1.8
		c0,1,0.8,1.8,1.8,1.8h9.8l4.9,4.9H30.7c-1,0-1.8,0.8-1.8,1.8c0,1,0.8,1.8,1.8,1.8h15.2l3.6,3.6c0.7,0.7,1.9,0.7,2.6,0
		c0.7-0.7,0.7-1.9,0-2.6L48.5,77.8z"/>
	<path class="st1" d="M58.6,63l10.8,10.8v5c0,1,0.8,1.8,1.8,1.8s1.8-0.8,1.8-1.8v-5L83.8,63c0.7-0.7,0.7-1.9,0-2.6
		c-0.7-0.7-1.9-0.7-2.6,0L73,68.6v-7l6.9-6.9c0.7-0.7,0.7-1.9,0-2.6c-0.7-0.7-1.9-0.7-2.6,0L73,56.4V45.9c0-1-0.8-1.8-1.8-1.8
		s-1.8,0.8-1.8,1.8v10.5l-4.3-4.3c-0.7-0.7-1.9-0.7-2.6,0c-0.7,0.7-0.7,1.9,0,2.6l6.9,6.9v7l-8.2-8.2c-0.7-0.7-1.9-0.7-2.6,0
		C57.9,61.1,57.9,62.3,58.6,63z"/>
	<path class="st1" d="M123.1,51.2c-5.7-5.7-22.5-2.9-33.1,4.9c-3.4-11.3-11.7-21.8-18.8-21.8c-6.5,0-15.1,10.8-18.7,21.9
		C42,48.3,25,45.4,19.3,51.2c-5.9,5.9-1.6,27.1,7.9,36.6c9.3,9.3,20.6,9.9,29,2.6c0.3,0.3,0.7,0.6,1.1,1c1.7,1.6,3.5,3.5,5.1,5.7
		c3.7,4.9,6.2,10.5,7,16.7c0,0,0,0,0,0.1c0,0.1,0,0.1,0,0.2c0,0,0,0,0,0c0,0,0,0,0,0c0,0.1,0,0.1,0,0.2c0,0,0,0.1,0.1,0.1
		c0,0,0,0,0,0c0,0,0,0,0,0c0,0.1,0.1,0.1,0.1,0.2c0,0,0.1,0.1,0.1,0.1c0,0,0,0,0,0c0,0,0.1,0.1,0.1,0.1c0,0,0.1,0.1,0.1,0.1
		c0,0,0,0,0,0c0,0,0.1,0.1,0.1,0.1c0,0,0.1,0,0.1,0.1c0,0,0,0,0.1,0c0,0,0.1,0,0.1,0.1c0,0,0.1,0,0.1,0c0,0,0.1,0,0.1,0
		c0,0,0.1,0,0.1,0c0,0,0.1,0,0.1,0c0,0,0,0,0,0c0,0,0,0,0.1,0c0,0,0.1,0,0.1,0c0,0,0,0,0.1,0c0,0,0,0,0.1,0c0,0,0.1,0,0.1,0
		c0,0,0,0,0.1,0c0,0,0,0,0.1,0c0,0,0.1,0,0.1,0c0,0,0.1,0,0.1,0c0,0,0.1,0,0.1,0c0,0,0.1,0,0.1,0c0.1,0,0.1,0,0.1-0.1
		c0,0,0.1,0,0.1-0.1c0,0,0,0,0.1,0c0.1,0,0.1-0.1,0.1-0.1c0,0,0,0,0.1-0.1c0,0,0,0,0.1,0c0,0,0.1-0.1,0.1-0.2c0,0,0,0,0-0.1
		c0,0,0,0,0,0c0,0,0,0,0,0c0-0.1,0.1-0.1,0.1-0.2c0,0,0,0,0-0.1c0,0,0,0,0,0c0,0,0,0,0,0c0-0.1,0-0.1,0.1-0.2c0,0,0,0,0-0.1
		c0,0,0,0,0,0c0,0,0,0,0-0.1c0,0,0-0.1,0-0.1c0.9-6.2,3.4-11.8,7-16.7c1.6-2.2,3.4-4.1,5.1-5.7c0.4-0.4,0.7-0.7,1.1-1
		c8.4,7.3,19.7,6.7,29-2.6C124.7,78.3,129,57.1,123.1,51.2z M71.2,37.9c6.6,0,16.6,15.6,16.6,27.8c0,11.8-6.7,18.7-16.6,18.7
		c-9.9,0-16.6-7-16.6-18.7c0-5.9,2.5-12.9,6.5-18.9C64.6,41.5,68.8,37.9,71.2,37.9z M29.8,85.2c-4.2-4.2-7.3-10.9-8.8-17.9
		c-1.3-6.3-0.8-11.8,0.9-13.5c4.3-4.3,20.4-1.3,29.6,6.3c-0.4,1.9-0.6,3.9-0.6,5.7c0,7.5,2.5,13.5,6.7,17.4
		c-0.8,1.3-1.7,2.5-2.8,3.6C47.8,93.7,38.1,93.5,29.8,85.2z M59.8,88.7c-0.4-0.3-0.7-0.6-1-0.9c0.7-0.8,1.3-1.6,1.8-2.4
		c2.6,1.5,5.5,2.5,8.8,2.7v13.4c-1.1-2.3-2.5-4.5-4.1-6.6C63.5,92.5,61.7,90.4,59.8,88.7z M77.1,94.8c-1.6,2.1-2.9,4.3-4.1,6.6V88.1
		c3.3-0.3,6.3-1.2,8.8-2.7c0.5,0.8,1.1,1.7,1.8,2.4c-0.3,0.3-0.6,0.6-1,0.9C80.8,90.4,78.9,92.5,77.1,94.8z M121.4,67.3
		c-1.4,7-4.6,13.8-8.8,17.9c-8.3,8.3-18,8.5-25,1.5c-1.1-1.1-2-2.3-2.8-3.6c4.2-3.9,6.7-9.9,6.7-17.4c0-1.9-0.2-3.8-0.6-5.7
		c9.2-7.5,25.3-10.5,29.6-6.2C122.2,55.5,122.6,60.9,121.4,67.3z"/>
	<path class="st1" d="M116.2,58.1c-0.7-0.7-1.9-0.7-2.6,0l-7.4,7.4v-6.1c0-1-0.8-1.8-1.8-1.8c-1,0-1.8,0.8-1.8,1.8v9.8l-4.9,4.9
		V62.6c0-1-0.8-1.8-1.8-1.8c-1,0-1.8,0.8-1.8,1.8v15.2l-3.6,3.6c-0.7,0.7-0.7,1.9,0,2.6c0.7,0.7,1.9,0.7,2.6,0l3.6-3.6h15.2
		c1,0,1.8-0.8,1.8-1.8c0-1-0.8-1.8-1.8-1.8h-11.5l4.9-4.9h9.8c1,0,1.8-0.8,1.8-1.8c0-1-0.8-1.8-1.8-1.8h-6.1l7.4-7.4
		C116.9,60,116.9,58.8,116.2,58.1z"/>
</g>
</svg>
