<?xml version="1.0" encoding="utf-8"?>
<!-- Generator: Adobe Illustrator 22.1.0, SVG Export Plug-In . SVG Version: 6.00 Build 0)  -->
<svg version="1.1" id="Layer_1" xmlns="http://www.w3.org/2000/svg" xmlns:xlink="http://www.w3.org/1999/xlink" x="0px" y="0px"
	 width="145px" height="145px" viewBox="0 0 145 145" style="enable-background:new 0 0 145 145;" xml:space="preserve">
<style type="text/css">
	.st0{fill:#E9F9E9;}
	.st1{fill:#FFABAB;}
</style>
<rect class="st0" width="145" height="145"/>
<path class="st1" d="M113.1,83.8c-0.2-0.7-0.4-1.4-0.7-2c1.1,0.6,2,1.2,2.6,1.6c0.8,0.6,2,0.5,2.6-0.3s0.5-2-0.3-2.6
	c-0.9-0.7-2.2-1.5-3.8-2.3c4.4-3.4,7.3-8.7,7.3-14.6c0-10.2-8.2-18.4-18.4-18.4C92.2,45.2,84,53.4,84,63.6c0,0.3,0,0.6,0,0.9
	c-0.2,0-0.4,0-0.7,0c-0.5,0-0.8-0.1-0.9-0.1c-0.9-0.1-1.7,0.4-2,1.1c-0.2-0.1-0.4-0.1-0.6-0.2c3.1-3.3,5.1-7.8,5.1-12.7
	c0-10.2-8.2-18.4-18.4-18.4c-10.2,0-18.4,8.2-18.4,18.4c0,0.6,0,1.2,0.1,1.8c-0.4,0-0.8,0.1-1.1,0.3c-1.6-0.5-3.2-1-4.7-1.5
	c-0.5-0.2-1-0.3-1.5-0.5c-0.2-0.2-0.4-0.4-0.6-0.6c-0.5-0.5-0.9-0.8-1.1-1c-0.8-0.6-2-0.5-2.6,0.3c0,0,0,0,0,0
	c-1.5-0.5-2.9-0.9-4.3-1.3c-1.1-0.3-2-0.6-2.8-0.9c-0.3-0.1-0.5-0.1-0.7-0.2c-0.2-0.1-0.2-0.1-0.3-0.1c-1-0.3-2,0.3-2.3,1.2
	c-0.3,1,0.3,2,1.2,2.3c0,0,0,0,0.3,0.1c0.3,0.1,0.5,0.1,0.7,0.2c0.8,0.2,1.8,0.5,2.8,0.8c2.4,0.7,5,1.5,7.7,2.3
	c0.3,0.3,0.6,0.6,0.8,1c1,1.2,1.7,2.3,2.2,3.4c-1.3-0.3-2.6-0.4-3.9-0.4c-10.2,0-18.4,8.2-18.4,18.4S27.8,96.7,38,96.7
	c6.6,0,12.4-3.5,15.7-8.8c0,0.2,0,0.3,0,0.5c0,10.2,8.2,18.4,18.4,18.4c6.1,0,11.4-2.9,14.8-7.5c0,0.3-0.1,0.7-0.1,1
	c0,10.2,8.2,18.4,18.4,18.4c10.2,0,18.4-8.2,18.4-18.4C123.6,93,119.3,86.8,113.1,83.8z M109.5,95.1c-0.1-0.1-0.2-0.2-0.2-0.3
	c-0.6-0.7-1.5-0.8-2.2-0.4c0-0.2-0.1-0.3-0.2-0.5c-1-1.6-1-2.9,0.2-4.8c0.1,0.1,0.2,0.3,0.3,0.4c0.4,0.7,0.9,1.4,1.4,2
	c0,0,0,0.1,0.1,0.1c-0.1,0.1-0.2,0.5-0.3,0.5c-0.4,0.9,0,2,0.9,2.4c0,0,0.1,0,0.1,0C109.5,94.9,109.5,95,109.5,95.1z M112.2,93
	c0.7,0,1.3,0,2,0C113.5,93.2,112.8,93.2,112.2,93C112.2,93.1,112.2,93.1,112.2,93z M113.3,89.3c0.1-0.4,0.1-0.8,0.1-1.2
	c0.6,0.4,1.1,0.8,1.6,1.3c0,0-0.1,0-0.1,0C114.3,89.4,113.8,89.3,113.3,89.3z M84.6,75c-1.4-1.3-2.9-2.3-4.6-3.2
	c-0.2-1-0.7-2.1-1.2-3.1c0.7,0.2,1.5,0.5,2.2,0.7c1.6,0.6,3.2,1.1,4.7,1.6c0.6,1.3,1.3,2.4,2.1,3.5C86.8,74.5,85.8,74.6,84.6,75z
	 M71.6,66.3c-1.6,0.6-3.3,0.9-5.1,0.9c-5.1,0-9.6-2.6-12.2-6.5C60.2,62.6,66,64.5,71.6,66.3z M74.6,69c0.2,0.3,0.5,0.7,0.6,1
	c-0.3,0-0.7,0-1,0.1c-0.7-0.1-1.4-0.1-2.1-0.1C73,69.7,73.8,69.4,74.6,69z M74.5,79.4c0.1,0,0.2,0,0.3-0.1c0.1,0.3,0.3,0.7,0.6,1
	c-0.4,0.9,0,1.9,0.7,2.3c-0.5,0.1-0.9,0.3-1.2,0.7c-0.1-0.2-0.2-0.3-0.2-0.4c-0.1-0.1-0.1-0.2-0.1-0.3c-0.3-0.5-0.8-0.9-1.4-1
	c-0.1,0-0.2,0-0.4-0.1c-0.3,0-0.6-0.1-1-0.2c-0.2,0-0.3-0.1-0.5-0.1c0.5-0.5,0.9-1,1.1-1.5c0.1-0.1,0.3-0.1,0.5-0.2
	c0.3-0.1,0.7-0.2,1-0.2C74.2,79.4,74.4,79.4,74.5,79.4z M80.3,76.2c0.2,0.1,0.4,0.3,0.6,0.4c-0.2,0.1-0.4,0.2-0.6,0.3
	C80.2,76.7,80.3,76.4,80.3,76.2z M91.1,73c5.2,1.9,9.7,3.6,13.3,5.1c-0.7,0.1-1.4,0.2-2.1,0.2C97.9,78.3,93.8,76.2,91.1,73z
	 M117.1,63.6c0,5.5-3,10.3-7.4,12.8c-0.6-0.2-1.1-0.5-1.7-0.8c-0.2-0.2-0.4-0.4-0.5-0.5c-0.5-0.5-0.9-0.8-1.1-1
	c-0.6-0.5-1.5-0.5-2.2-0.1c-4.3-1.7-9.6-3.7-15.7-5.9c0,0,0-0.1,0-0.1c1.9-0.2,3.9-0.5,5.8-1.1c2.2-0.7,4.2-1.7,5.9-3
	c0.1,0,0.1,0.1,0.2,0.1c0.7,0.3,1.4,0.4,1.9,0.4c0,0,0.1,0,0.2,0c0.7,0.1,1.4,0,2.2-0.2c1.6-0.5,2.7-1.6,2.9-3.2
	c0.8,0,1.7-0.1,2.4-0.2c2.7-0.6,4.3-2.7,3.2-5.6c-0.4-1-1.6-1.5-2.6-1c-1.7,0.9-2,0.5-0.5-1.6c0.4-0.5,0.4-1,0.3-1.5
	C114.4,53.8,117.1,58.4,117.1,63.6z M104.8,51c0-0.2,0.1-0.4,0.2-0.6c0.1-0.5,0.1-0.9,0-1.2c1,0.2,1.9,0.4,2.8,0.8
	C106.6,50,105.6,50.4,104.8,51z M101.5,48.9c-0.8,0.9-1.4,1.9-1.8,3c-0.6,1.6-0.7,3-0.6,5l0,0.3c-1,1.4-1.4,2.8-1.3,3.9
	c-1.4,1-2.9,1.8-4.7,2.4c-1.8,0.6-3.6,0.9-5.4,1c0-0.3,0-0.6,0-0.9C87.7,55.7,93.8,49.3,101.5,48.9z M81.2,52.5
	c0,4.6-2.1,8.6-5.3,11.3c-0.4-0.1-0.8-0.3-1.2-0.4c-0.1-0.1-0.2-0.2-0.4-0.4c-0.5-0.5-0.9-0.8-1.1-1c-0.7-0.6-1.7-0.5-2.4,0.1
	c-4.8-1.6-9.7-3.1-14.6-4.7c1.3-0.2,2.6-0.5,3.9-1c1.9-0.6,3.6-1.4,5.2-2.4c0.1,0.2,0.3,0.5,0.5,0.7c0.7,0.9,1.3,1.6,1.8,1.9
	c0.3,0.2,0.6,0.3,1,0.4c0,0,0,0,0,0c0,0,0,0,0,0c0.6,0,1.3-0.1,2-0.6c1.2-0.9,1.8-2.4,1.6-4.6c2.9-0.7,6-3.2,7.1-6.7
	C80.5,47.4,81.2,49.9,81.2,52.5z M67.3,46.3c0,0-0.1-0.1-0.2-0.3c-0.1-0.2-0.3-0.4-0.4-0.6c0.3,0.1,0.7,0,1.1-0.1
	c0.1-0.1,0.2-0.1,0.3-0.1c0.1,0,0.1-0.1,0.2-0.1c0.3-0.2,0.6-0.5,0.7-0.9l0.1,0.9c-0.6,0.1-1.1,0.4-1.4,1c-0.1,0.1-0.1,0.2-0.2,0.3
	C67.4,46.5,67.4,46.4,67.3,46.3z M68.5,52.5c-0.2-0.2-0.3-0.5-0.4-0.7c0.1-0.1,0.2-0.2,0.3-0.3C68.5,51.8,68.5,52.2,68.5,52.5z
	 M77.5,42.8c-0.2,0-0.4,0-0.7,0.1c-0.4,0.2-1.3,0.5-2.4,0.8c-0.1,0-0.3,0.1-0.5,0.1c-0.4,0.1-0.9,0.3-1.4,0.4l-0.4-3.1l-0.2-1.7
	c0-0.2-0.1-0.4-0.2-0.6C74,39.6,75.9,41,77.5,42.8z M66.5,37.8c0.9,0,1.8,0.1,2.7,0.3c-0.1,0.1-0.2,0.1-0.3,0.2
	c-0.9,0.8-1.6,1.6-2.1,2.4c-0.2-0.4-0.5-0.8-0.8-1.4c-0.7-1.3-2.6-1.3-3.2,0c-0.1,0.2-0.2,0.3-0.2,0.5c-1,2.4-0.5,4.9,0.8,7.2
	c0.2,0.4,0.5,0.8,0.7,1.1c-0.1,0.8-0.1,1.6,0,2.3c-1.4,1.1-3.1,1.9-5.1,2.5c-2.3,0.8-4.7,1.1-7,1.3c-0.1-0.6-0.1-1.2-0.1-1.8
	C51.8,44.4,58.4,37.8,66.5,37.8z M41.4,65c0,0.4,0,0.8,0,1.2c0,0,0,0,0,0.1c-0.5-0.3-1-0.7-1.5-1.4c-0.3-0.4-0.5-0.8-0.7-1.2
	c0.8,0.1,1.6,0.2,2.3,0.4c-0.1,0.2-0.1,0.5-0.1,0.8C41.4,64.8,41.4,64.9,41.4,65z M42.9,71.8c0.7,0,1.4-0.4,1.8-1.1
	c0,0,0.1-0.2,0.2-0.3c0.1,0.3,0.1,0.5,0.2,0.7c-0.3,0.1-0.5,0.2-0.7,0.4c-0.3,0.3-0.7,0.6-1.1,0.8c-0.1,0.1-0.3,0.2-0.4,0.2
	C42.9,72.4,42.9,72.1,42.9,71.8z M38,93c-8.1,0-14.7-6.6-14.7-14.7c0-7.2,5.2-13.2,12-14.5c0.1,0.7,0.4,1.7,1.2,3.4
	c0.2,0.5,0.5,1,0.8,1.5c0.7,1.2,1.4,2.2,2,2.8c0,0.5-0.3,1-0.8,1.6c-0.3,0.4-0.7,0.7-0.9,0.8c-1.5,1-0.9,3.3,0.9,3.4c0,0,0,0,0.1,0
	h0c0.6,0,1.4,0,2.4-0.2c1.5-0.3,2.9-0.8,4.3-1.6c0.2-0.1,0.3-0.2,0.5-0.3c1.3,0.6,2.8,0.8,4.2,0.5c0.9-0.2,1.7-0.7,2.3-1.4
	c0.4,1.3,0.6,2.6,0.6,4C52.7,86.4,46.1,93,38,93z M48.1,67.6c0.6,0.6,1.1,1.2,1.6,1.8c-0.1,0.2-0.2,0.3-0.3,0.4
	c-0.1,0.1-0.1,0.1-0.2,0.1l-0.1,0c-0.4-0.1-0.6-0.1-0.7-0.2c-0.1-0.1,0-0.2-0.1-0.6C48.4,68.6,48.3,68.1,48.1,67.6z M53.6,68.5
	c-0.1-0.5-0.4-0.9-0.8-1.2c-1.7-2.3-4-4.3-6.6-5.6c0,0,0-0.1,0-0.1c-0.2-1.3-0.7-2.6-1.3-3.9c1.5,0.5,3.1,1,4.6,1.4
	c2.6,6.8,9.2,11.7,17,11.7c-4.2,1.4-7.7,4.2-10,7.9c0-0.2,0-0.3,0-0.5C56.4,74.7,55.3,71.4,53.6,68.5z M72,103.1
	c-8.1,0-14.7-6.6-14.7-14.7S63.9,73.7,72,73.7c0.5,0,0.9,0,1.3,0.1c0,0.7-0.1,1.3-0.4,2c0,0,0,0.1,0,0.1c-0.3,0.1-0.6,0.1-0.9,0.2
	c-1.7,0.5-2.8,1-3.1,2.5c-0.1,0.1-0.3,0.2-0.5,0.4c-0.8,0.4-2.2,0.8-3.9,0.9c-1.9,0.1-2.4,2.6-0.7,3.5c0.4,0.2,1,0.4,1.7,0.6
	c0.8,0.2,1.7,0.4,2.8,0.6c1,0.2,2,0.4,3,0.5c0.2,0,0.3,0.1,0.4,0.1l0.1,0.1c0.4,0.7,0.8,1.5,1.2,2.2c0.1,0.2,0.3,0.5,0.4,0.7
	c0.7,1.2,1.3,2,1.7,2.5c0.9,0.9,2.5,0.7,3-0.5c0.7-1.5,0.8-3,0.6-4.3c0.3-0.1,0.7-0.3,1.1-0.5c1.1-0.7,2-1.7,2.6-3
	c0.2-0.4,1-1,2.1-1.5c1.3,2.2,2.1,4.8,2.1,7.6C86.8,96.5,80.2,103.1,72,103.1z M88.2,79.7c0.1,0,0.2,0,0.3-0.1
	c0.3-0.1,0.7-0.1,0.9-0.2c0.2,0,0.3,0,0.3-0.1c0.7-0.1,1.3-0.6,1.5-1.2c3.1,2.4,7,3.8,11.1,3.8c1.9,0,3.7-0.3,5.5-0.8
	c0.3,0.4,0.5,0.8,0.7,1.2c-1.1-0.2-2.2-0.3-3.4-0.3c-6.1,0-11.4,2.9-14.8,7.5c0-0.3,0.1-0.7,0.1-1C90.4,85.3,89.6,82.3,88.2,79.7z
	 M105.2,115.1c-8.1,0-14.7-6.6-14.7-14.7c0-8.1,6.5-14.7,14.6-14.7c-2.6,3.5-3.5,6.3-1.7,9.5c-0.1,0.2-0.2,0.5-0.3,0.8
	c-0.5,1.2-1,2.4-1.6,3.5c-0.7,1.4-1.5,2.6-2.2,3.4c-1.3,1.4,0.1,3.5,1.9,3c2.6-0.8,4.7-2.3,6.3-4.4c0.4-0.6,0.8-1.2,1.2-1.8
	c0.3,0.4,0.6,0.8,1,1.2c0.2,0.3,0.4,0.6,0.6,0.8c0.8,1,1.3,1.9,1.7,2.5c0.9,1.6,3.3,1.1,3.5-0.7c0.2-2.2-0.2-4.4-1-6.6
	c0.5-0.1,1-0.2,1.6-0.4c1.1-0.4,2.1-1.1,2.8-2c0.8,1.8,1.3,3.8,1.3,5.9C119.9,108.5,113.3,115.1,105.2,115.1z"/>
</svg>
