<svg width="145" height="145" viewBox="0 0 145 145" fill="none" xmlns="http://www.w3.org/2000/svg">
<rect width="145" height="145" fill="#E9F9E9"/>
<path fill-rule="evenodd" clip-rule="evenodd" d="M70.6741 104.955C79.3182 104.955 86.3138 97.8442 86.3138 89.0875C86.3138 79.312 78.8384 67.2341 70.6741 67.2341C62.5089 67.2341 55.0332 79.3118 55.0332 89.0875C55.0332 97.8444 62.029 104.955 70.6741 104.955ZM70.6743 70.9143C76.3387 70.9143 82.634 81.0854 82.634 89.0876C82.634 95.8252 77.2724 101.275 70.6743 101.275C64.0752 101.275 58.7135 95.8253 58.7135 89.0876C58.7135 81.0851 65.0089 70.9143 70.6743 70.9143Z" fill="#BAF286"/>
<path fill-rule="evenodd" clip-rule="evenodd" d="M101.954 87.839C101.954 81.784 100.264 75.9752 97.1246 70.9525C93.0128 64.3759 90.2102 57.3456 88.9067 50.1405C88.7946 49.5192 88.6702 48.9863 88.5293 48.5449C85.3418 38.617 78.1604 31.3523 70.2139 31.3523C62.0274 31.3523 54.6567 39.075 51.641 49.3869C51.5677 49.6356 51.5002 49.917 51.4401 50.2223C49.9568 57.6295 47.1791 64.6865 43.2233 71.0803C40.0263 76.2489 38.36 82.2375 38.4786 88.4628C38.8142 106.034 53.1221 119.91 70.6525 119.671C87.9993 119.435 101.954 105.256 101.954 87.839ZM85.0241 49.6673C85.109 49.9335 85.1988 50.318 85.2849 50.7951C86.6742 58.4745 89.6508 65.9413 94.0038 72.9037C96.7797 77.3453 98.2735 82.4792 98.2735 87.8394C98.2735 103.245 85.9342 115.783 70.602 115.992C55.0977 116.203 42.4546 103.941 42.1576 88.3931C42.0527 82.8805 43.5254 77.5876 46.3526 73.0167C50.5395 66.2494 53.479 58.7813 55.0494 50.9393C55.0899 50.7336 55.1313 50.5608 55.1717 50.4237C57.7791 41.508 63.9593 35.0328 70.2135 35.0328C76.274 35.0328 82.2743 41.1026 85.0241 49.6673Z" fill="#BAF286"/>
<path d="M71.5932 33.1931H67.9131V26.7529H71.5932V33.1931Z" fill="#BAF286"/>
</svg>
