<?xml version="1.0" encoding="utf-8"?>
<!-- Generator: Adobe Illustrator 22.1.0, SVG Export Plug-In . SVG Version: 6.00 Build 0)  -->
<svg version="1.1" id="Layer_1" xmlns="http://www.w3.org/2000/svg" xmlns:xlink="http://www.w3.org/1999/xlink" x="0px" y="0px"
	 width="145px" height="145px" viewBox="0 0 145 145" style="enable-background:new 0 0 145 145;" xml:space="preserve">
<style type="text/css">
	.st0{fill:#E9F9E9;}
	.st1{fill:#C3B58A;}
</style>
<rect class="st0" width="145" height="145"/>
<path class="st1" d="M105.9,79.6c-3.5-5.4-11.7-4.2-14.2,1.4c-1.2,2.8-2.1,3.6-5.7,4.8c-2-4.3-3.4-10.2-2.9-13.5
	c0.3-1.5,1.4-2.8,3.9-4.5c0.2-0.1,0.7-0.4,1.3-0.9c1.3-0.8,3-2,3.8-2.5c1.3-0.9,2.4-1.8,3.4-2.8c8.1-7.7,11.9-16.5,6.7-23.2
	c-3-3.9-7.2-4.3-11.5-2c-3.2,1.7-6.4,4.9-8.4,8.1c-0.5,0.9-1.1,1.8-1.8,2.7c-0.3,0.4-0.6,0.8-0.9,1.2c-0.1,0.1-0.3,0.3-0.3,0.5
	c-0.3,0.4-0.5,0.7-0.8,1.1c-0.1-2-0.3-4-0.7-6c-1.7-8-6.4-13-14.5-12.7c-8.2,0.3-12.7,5.1-13.9,13.1C48.7,50,49.4,56,51.1,64.1
	c0.4,2,1,4.3,1.7,6.7c0.6,1.9,1.2,3.9,1.9,6c0.5,1.6,1.1,3.1,1.6,4.6c-2.1-1.7-4.2-3-6.1-4c-5.1-2.5-9.4-2.2-12,1.9
	c-3,4.9-1.3,10.1,3.7,15.1c3.5,3.5,8.6,6.8,13.5,9.2c1,0.5,2,0.9,3,1.2c4.3,1.5,8.8,1.9,12.7,1.7c0.1,0.1,0.2,0.3,0.4,0.4
	c1.1,1.2,3.1,3.2,6.2,6.2c7.6,7.3,15.8,9.5,20.3,5.4c3.8-3.4,3.6-8.2,0.7-12.8c-0.6-0.9-1.4-2.1-2.4-3.4c-0.2-0.2-0.3-0.5-0.5-0.7
	c-0.7-1-1.5-2-2.3-3c1.6-0.7,3.3-1.4,4.8-2.1c1.8-0.9,3.3-1.7,4.5-2.6C107.8,90.5,109.2,84.6,105.9,79.6z M100.8,91
	c-1,0.7-2.4,1.5-4,2.3c-1.5,0.7-3.1,1.4-4.7,2.1c-0.6,0.2-1.1,0.4-1.5,0.6c-0.3,0.1-0.5,0.2-0.6,0.2c-1.2,0.4-1.6,1.9-0.8,2.9
	c0.1,0.1,0.2,0.2,0.3,0.4c0.3,0.3,0.6,0.7,0.9,1.1c0.9,1.1,1.8,2.3,2.6,3.4c0.2,0.2,0.3,0.4,0.5,0.7c0.9,1.3,1.7,2.3,2.2,3.2
	c2,3.2,2.1,6-0.1,8c-2.4,2.1-7.3,1.2-12.7-3.1c0.8-0.1,1.7-0.3,2.5-0.5c2.9-0.8,5.1-1.8,6.3-3.5c0.6-0.8,0.4-2-0.4-2.6
	c-0.8-0.6-2-0.4-2.6,0.4c-0.5,0.8-2.1,1.5-4.2,2.1c-1.2,0.3-2.5,0.5-3.7,0.7c-0.5,0.1-0.9,0.1-1.2,0.1c-0.1,0-0.1,0-0.2,0
	c-2.5-2.4-4.1-4.1-5.1-5.1c-0.1-0.1-0.1-0.1-0.2-0.2c-0.2-0.3-0.4-0.4-0.3-0.3c0.1,0.2,0.1,0.2,0.1,0.6c0,0.3,0,0.4-0.1,0.6
	c-0.1,0.2-0.2,0.4-0.6,0.9h0c-0.7,0.4-0.7,0.4-1.2,0.4v-1.8l-0.2-1.8c-0.1,0-0.3,0-0.6,0c-3.5,0.2-7.7-0.2-11.6-1.5
	c-0.9-0.3-1.8-0.7-2.6-1.1c-4.5-2.2-8.5-4.7-11.4-7.4c0.4-0.2,0.7-0.3,1.1-0.6c1.7-1,2.9-2.4,3.7-4.2c0.4-0.9-0.1-2-1-2.4
	c-0.9-0.4-2,0.1-2.4,1c-0.4,1.1-1.2,1.9-2.2,2.5c-0.6,0.4-1.3,0.6-1.9,0.8c-2.4-3.1-3.2-6.2-1.5-8.8c1.3-2.2,3.6-2.3,7.2-0.6
	c1.7,0.8,3.6,2.1,5.5,3.6c0.6,0.5,1.2,1,1.8,1.5c0,0.1,0,0.2,0,0.3c0.2,1.2,0.2,2.4,0.1,3.5C56,91,55.6,92,55,92.5
	c-0.8,0.6-0.9,1.8-0.3,2.6c0.6,0.8,1.8,0.9,2.6,0.3c1.5-1.2,2.3-3.1,2.5-5.5c0-0.2,0-0.3,0-0.5c1.4,1.2,3.6-0.4,2.8-2.2
	c-0.1-0.2-0.2-0.5-0.4-0.9c-0.3-0.7-0.6-1.6-1-2.5c-0.7-1.9-1.5-3.8-2.2-5.8c2,0.5,4.3,0.4,6.8-0.3c1-0.3,1.5-1.3,1.3-2.3
	c-0.3-1-1.3-1.5-2.3-1.3c-2.6,0.7-4.7,0.5-6.4-0.3c-0.4-0.2-0.7-0.4-0.9-0.5c-0.4-1.2-0.8-2.5-1.1-3.7c-0.7-2.3-1.2-4.5-1.7-6.4
	c-0.5-2.6-1-4.9-1.3-7.1c0.1-0.1,0.3-0.2,0.4-0.3c0.9-0.6,1.9-1.2,3-1.8c1.8-1,3.5-1.7,5-2.1c0.7-0.2,1.3-0.3,1.9-0.4
	c1-0.1,1.7-1,1.6-2c-0.1-1-1-1.7-2-1.6c-0.8,0.1-1.6,0.2-2.5,0.5C59,48.9,57,49.8,55,50.9c-0.7,0.4-1.4,0.8-2.1,1.2
	c-0.2-2.6-0.1-4.9,0.2-7.1c0,0,0.1,0,0.1,0c0.2-0.1,0.5-0.1,0.8-0.2c0.8-0.2,1.8-0.4,2.8-0.6c2.2-0.4,4.4-0.7,6.4-0.8
	c1.1-0.1,2.1-0.1,3,0c1,0.1,1.9-0.7,1.9-1.7c0.1-1-0.7-1.9-1.7-1.9c-1.1-0.1-2.2-0.1-3.4,0c-2.2,0.1-4.5,0.4-6.9,0.9
	c-0.7,0.1-1.3,0.3-1.9,0.4c1.5-3.8,4.5-5.8,9.3-6c6-0.2,9.4,3.4,10.8,9.8c0.5,2.3,0.7,4.7,0.7,7c-2.1-0.6-5-0.1-8.6,1.8
	c-0.9,0.5-1.2,1.6-0.8,2.5c0.5,0.9,1.6,1.2,2.5,0.8c1.8-1,3.3-1.5,4.5-1.6c0.8-0.1,1.3,0,1.6,0.1c0.1,0,0.1,0,0,0
	c0.2,0.2,0.3,0.3,0.5,0.4c0,1.7,2.2,2.5,3.3,1.1c0.1-0.1,0.3-0.3,0.5-0.6c0.4-0.5,0.8-1,1.3-1.6c0.6-0.8,1.2-1.7,1.9-2.5
	c0.6,0.3,1.2,0.7,1.7,1.1c1.2,0.9,2,1.8,2.4,2.8c0.4,0.9,1.5,1.4,2.4,1c0.9-0.4,1.4-1.5,1-2.4c-0.7-1.6-2-3-3.6-4.3
	c-0.6-0.5-1.2-0.8-1.8-1.2c0.6-0.9,1.2-1.8,1.7-2.7c0.6-1.1,1.5-2.1,2.4-3.1c0,0,0,0,0,0c0.3,0.1,0.5,0.3,0.9,0.4
	c0.9,0.4,1.8,0.9,2.6,1.4c0.8,0.4,1.4,0.9,1.9,1.2c0.5,0.4,0.8,0.7,1,0.9c0.7,0.8,1.8,0.9,2.6,0.2c0.8-0.7,0.9-1.8,0.2-2.6
	c-0.4-0.5-1-1-1.7-1.5c-0.6-0.5-1.4-1-2.3-1.5c-0.8-0.5-1.6-0.9-2.4-1.3c0.5-0.4,1.1-0.8,1.6-1.1c2.9-1.5,5.1-1.3,6.9,1
	c2.8,3.6,1.6,8.6-2.2,13.7c-0.5-0.9-1.1-1.7-1.7-2.5c-0.4-0.5-0.7-1-1.1-1.4c-0.7-0.8-1.8-0.8-2.6-0.2c-0.8,0.7-0.8,1.8-0.2,2.6
	c0.3,0.4,0.6,0.8,0.9,1.2c0.6,0.9,1.3,1.8,1.8,2.7c0.1,0.2,0.2,0.4,0.3,0.6c-0.5,0.5-1,1.1-1.6,1.6c-0.9,0.8-1.9,1.6-3,2.5
	c-0.7,0.5-2.3,1.6-3.5,2.4c-0.7,0.5-1.3,0.8-1.5,1c-3.2,2.3-4.9,4.2-5.4,6.9c-0.4,2.2-0.1,5,0.5,7.9c-0.1,0.1-0.2,0.3-0.3,0.5
	c-0.5,0.7-1.1,1.3-1.9,2c-1.7,1.4-3.8,2.4-6.3,2.7c-1,0.1-1.7,1.1-1.6,2.1c0.1,1,1.1,1.7,2.1,1.6c3.2-0.5,5.9-1.7,8.1-3.5
	c0.4-0.3,0.8-0.7,1.1-1c0.6,1.8,1.4,3.6,2.2,5.1c0.4,0.8,1.3,1.1,2.2,0.9c4.4-1.4,6.4-2.4,8-4.7c0.3,0.4,0.7,0.9,1.1,1.3
	c0.5,0.6,1.1,1.1,1.7,1.5c0.8,0.6,2,0.4,2.6-0.4c0.6-0.8,0.4-2-0.4-2.6c-0.4-0.3-0.8-0.7-1.2-1.1c-0.6-0.6-1-1.3-1.4-1.9
	c-0.1-0.2-0.2-0.4-0.3-0.5c1.8-2.2,5.5-2.4,7.1,0C105,84.9,104.1,88.6,100.8,91z"/>
</svg>
