<svg width="145" height="145" viewBox="0 0 145 145" fill="none" xmlns="http://www.w3.org/2000/svg">
<rect width="145" height="145" fill="#F7E8FF"/>
<path d="M92.7764 63.026C93.2452 63.9276 92.8944 65.0385 91.9928 65.5074C91.0912 65.9762 89.9802 65.6254 89.5114 64.7238C84.3337 54.7672 74.0436 48.3827 62.627 48.3827C45.9018 48.3827 32.3519 61.9385 32.3519 78.6679C32.3519 95.3853 45.9093 108.943 62.627 108.943C65.6112 108.943 68.5415 108.506 71.3603 107.658C72.3334 107.365 73.3597 107.916 73.6526 108.889C73.9455 109.862 73.3941 110.889 72.421 111.181C69.2603 112.133 65.9728 112.623 62.627 112.623C43.8768 112.623 28.6719 97.4177 28.6719 78.6679C28.6719 59.9064 43.869 44.7026 62.627 44.7026C75.4304 44.7026 86.9715 51.8633 92.7764 63.026Z" fill="#FFD699"/>
<path fill-rule="evenodd" clip-rule="evenodd" d="M39.4684 29.2625C38.7764 29.5535 38.3306 30.2358 38.342 30.9864C38.4317 36.8998 41.4078 42.4361 46.4483 45.7329C51.494 49.0324 57.7475 49.5514 63.2032 47.2728C63.8977 46.9827 64.3455 46.2991 64.3339 45.5466C64.2432 39.6328 61.2677 34.0979 56.2268 30.8005C51.1824 27.4912 44.9153 26.9711 39.4684 29.2625ZM60.5771 44.32C56.5415 45.5967 52.1086 45.0381 48.4624 42.6537C44.8225 40.273 42.5383 36.4249 42.0979 32.2117C46.1253 30.9288 50.5649 31.4883 54.21 33.8796C57.8515 36.2616 60.1353 40.1077 60.5771 44.32Z" fill="#FFD699"/>
<path fill-rule="evenodd" clip-rule="evenodd" d="M62.3703 45.9906C62.3593 46.7421 62.8064 47.4248 63.4997 47.715C67.2077 49.2672 71.4582 48.9159 74.8913 46.6765C78.3237 44.4259 80.3423 40.6673 80.4014 36.6439C80.4124 35.8925 79.9653 35.2098 79.272 34.9196C75.5632 33.3672 71.3127 33.7181 67.8801 35.9583C64.4509 38.2075 62.4294 41.9738 62.3703 45.9906ZM76.6029 37.8998C76.2139 40.2029 74.8969 42.272 72.8777 43.596C70.8572 44.914 68.4345 45.2955 66.1705 44.7337C66.5607 42.4333 67.8794 40.3596 69.8955 39.0372C71.9158 37.7188 74.3384 37.3375 76.6029 37.8998Z" fill="#FFD699"/>
<path fill-rule="evenodd" clip-rule="evenodd" d="M88.2681 117.033C103.427 117.033 115.715 104.745 115.715 89.5858C115.715 74.4271 103.427 62.1389 88.2681 62.1389C73.1092 62.1389 60.8203 74.4272 60.8203 89.5858C60.8203 104.744 73.1092 117.033 88.2681 117.033ZM88.2684 65.8186C101.395 65.8186 112.035 76.4591 112.035 89.5854C112.035 102.712 101.395 113.352 88.2684 113.352C75.1419 113.352 64.5006 102.712 64.5006 89.5854C64.5006 76.4593 75.1419 65.8186 88.2684 65.8186Z" fill="#FFD699"/>
<path d="M86.4277 63.979C86.4277 62.9627 87.2515 62.1389 88.2678 62.1389C89.284 62.1389 90.1078 62.9627 90.1078 63.979V115.194C90.1078 116.21 89.284 117.034 88.2678 117.034C87.2515 117.034 86.4277 116.21 86.4277 115.194V63.979Z" fill="#FFD699"/>
<path d="M107.676 106.392C108.395 107.11 108.395 108.275 107.676 108.994C106.958 109.713 105.793 109.713 105.074 108.994L68.8602 72.7803C68.1416 72.0617 68.1416 70.8967 68.8602 70.1781C69.5788 69.4595 70.7438 69.4595 71.4624 70.1781L107.676 106.392Z" fill="#FFD699"/>
<path d="M113.875 87.7458C114.891 87.7458 115.715 88.5697 115.715 89.5859C115.715 90.6021 114.891 91.4259 113.875 91.4259H62.6603C61.6441 91.4259 60.8203 90.6021 60.8203 89.5859C60.8203 88.5697 61.6441 87.7458 62.6603 87.7458H113.875Z" fill="#FFD699"/>
<path d="M105.074 70.1781C105.793 69.4595 106.958 69.4595 107.676 70.1781C108.395 70.8967 108.395 72.0617 107.676 72.7803L71.4624 108.994C70.7438 109.713 69.5788 109.713 68.8602 108.994C68.1416 108.275 68.1416 107.11 68.8602 106.392L105.074 70.1781Z" fill="#FFD699"/>
</svg>
