<svg width="145" height="145" viewBox="0 0 145 145" fill="none" xmlns="http://www.w3.org/2000/svg">
<rect width="145" height="145" transform="matrix(-1 0 0 1 145 0)" fill="#FDECEA"/>
<path fill-rule="evenodd" clip-rule="evenodd" d="M106.229 56.0836C105.923 56.0603 105.704 56.0479 105.15 56.0195C103.713 55.9461 103.147 55.8625 102.807 55.6757C93.9471 50.8094 88.9866 53.6274 86.8059 65.4291C84.658 77.0512 80.164 83.803 69.7404 91.093C65.2109 94.2609 57.9244 96.6532 49.1806 98.2524C45.9266 98.8475 42.6506 99.2958 39.6838 99.5854C37.4976 99.7988 35.5993 99.9032 35.2403 99.8708C33.0861 99.6769 29.9282 100.244 29.054 101.939C27.4793 104.994 31.248 106.848 41.3353 109.525C60.8392 114.699 84.1682 108.61 98.6072 94.629C105.162 88.2827 109.506 81.4174 111.757 74.6101C113.563 69.1482 113.878 63.9666 112.864 60.7387C111.855 57.5303 109.672 56.3455 106.229 56.0836ZM96.0475 91.9851C82.5351 105.069 60.5355 110.811 42.2793 105.968C38.826 105.051 36.2546 104.236 34.5156 103.532C34.6802 103.526 34.8172 103.528 34.9102 103.536C36.6042 103.689 43.6966 102.997 49.8429 101.872C59.0643 100.186 66.7848 97.6511 71.8497 94.1087C83.0489 86.2763 88.0975 78.6913 90.4249 66.0978C92.1731 56.6365 94.5028 55.3131 101.036 58.9012C102.059 59.4633 102.919 59.5904 104.962 59.6948C105.485 59.7215 105.685 59.7329 105.95 59.7531C108.057 59.9133 108.889 60.3648 109.353 61.8422C110.113 64.259 109.844 68.6731 108.263 73.4547C106.2 79.6932 102.178 86.049 96.0475 91.9851Z" fill="#FFABAB"/>
<path d="M97.274 57.0259C96.2825 57.2486 95.2982 56.6254 95.0754 55.6339C94.8527 54.6424 95.4759 53.658 96.4674 53.4353C96.6796 53.3876 97.1158 53.2573 97.6985 53.0258C98.6885 52.6324 99.6797 52.1015 100.597 51.4202C102.273 50.1755 103.509 48.5745 104.161 46.5496C106.304 39.9 105.068 34.4311 99.6723 29.9679C98.8893 29.3201 98.7796 28.1602 99.4273 27.3772C100.075 26.5942 101.235 26.4845 102.018 27.1322C108.649 32.6179 110.244 39.6718 107.664 47.6781C106.761 50.4814 105.05 52.6964 102.791 54.3744C101.598 55.2606 100.329 55.9406 99.0575 56.4457C98.2836 56.7532 97.6648 56.9381 97.274 57.0259Z" fill="#FFABAB"/>
<path d="M103.347 50.073C103.147 49.0766 103.792 48.1068 104.789 47.9067C105.785 47.7067 106.755 48.3522 106.955 49.3485C106.966 49.4056 106.992 49.5259 107.032 49.7001C107.1 49.9977 107.182 50.3311 107.278 50.691C107.551 51.7162 107.877 52.7398 108.251 53.6831C108.625 54.6263 109.026 55.4305 109.439 56.0456C110.005 56.8894 109.78 58.0325 108.936 58.5988C108.092 59.1651 106.949 58.9401 106.383 58.0962C105.807 57.2373 105.294 56.2084 104.83 55.0405C104.397 53.9489 104.029 52.7923 103.722 51.6374C103.537 50.9438 103.412 50.3988 103.347 50.073Z" fill="#FFABAB"/>
</svg>
