<?xml version="1.0" encoding="utf-8"?>
<!-- Generator: Adobe Illustrator 22.1.0, SVG Export Plug-In . SVG Version: 6.00 Build 0)  -->
<svg version="1.1" id="Layer_1" xmlns="http://www.w3.org/2000/svg" xmlns:xlink="http://www.w3.org/1999/xlink" x="0px" y="0px"
	 width="145px" height="145px" viewBox="0 0 145 145" style="enable-background:new 0 0 145 145;" xml:space="preserve">
<style type="text/css">
	.st0{fill:#FDECEA;}
	.st1{fill:#8EC990;}
</style>
<rect class="st0" width="145" height="145"/>
<path class="st1" d="M117.1,87.7c2.6-3.5,3.5-8,2.2-12.3c-1.8-5.9-7.2-9.8-13.2-10c-0.5-0.8-1.1-1.4-1.8-2
	c-0.1-3.9-1.7-7.6-4.4-10.3c0.2-0.9,0.3-1.9,0.3-2.9c0-7.1-4.9-13.1-11.6-14.6c-3.1-6-9.2-9.8-16.1-9.8c-6.8,0-12.8,3.7-16,9.6
	c-7.3,1-12.9,7.3-12.9,14.8c0,1.4,0.2,2.8,0.6,4.1c-1.9,2.4-3.1,5.3-3.3,8.3c-1.1,0.7-2,1.7-2.8,2.8c-6.1,0.1-11.5,4.1-13.2,10
	c-1.3,4.5-0.3,9.2,2.5,12.8c-2.5,2.5-4,6-4,9.8c0,7.7,6.3,14,14.1,14c3.4,0,6.6-1.2,9.1-3.4c6.5-1.6,11.6,0.7,14.3,5.4
	c0.1,0.2,0.1,0.2,0.2,0.4c0.1,0.2,0.1,0.2,0.3,0.4c0.2,0.3,0.4,0.6,0.5,0.9c2.1,3.6,3.7,5.7,5.6,7.2c0.2,0.2,0.5,0.3,0.7,0.3
	c1,1.2,2.4,1.9,4.1,1.9c4.3,0.1,7.1-2.8,10.8-9.2c0.2-0.3,0.3-0.6,0.5-0.9c0.1-0.2,0.5-0.9,0.5-0.9c2.7-4.7,7.9-7.1,14.4-5.4
	c2.5,2.2,5.8,3.4,9.2,3.4c7.8,0,14.1-6.3,14.1-14.1C121.8,94,120,90.3,117.1,87.7z M105.2,69.1c4.8-0.3,9.2,2.7,10.6,7.3
	c1,3.2,0.3,6.6-1.7,9.2c-0.7-0.3-1.4-0.6-2.1-0.9c-1.4-4.3-5.4-7.4-10.1-7.4c-2.2,0-4.2,0.7-6,1.8c-1.6-1-3.5-1.5-5.4-1.5
	c-5.6,0-10.2,4.3-10.7,9.9c-0.5,0.5-1,1.1-1.6,1.7c-1.3,1.4-2.6,2.9-3.9,4.6c-0.1-0.5-0.2-1.1-0.3-1.6c0.6-2.4,1.4-4.8,2.3-7.1
	c0.7-1.8,1.5-3.5,2.3-5c0.3-0.5,0.5-1,0.7-1.4c0.1-0.2,0.2-0.4,0.3-0.5c0.3-0.4,0.3-1,0.2-1.5c-1.1-3.6,1-7.4,4.7-8.5
	c1.5-0.5,3.2-0.4,4.6,0.2c0.8,0.3,1.8,0,2.3-0.7c0.9-1.5,2.3-2.5,4-3c2-0.6,4-0.3,5.6,0.7c0.2,0.4,0.6,0.7,1.1,0.8
	c0.6,0.5,1.1,1.2,1.5,1.9C103.8,68.8,104.5,69.2,105.2,69.1z M48,54.1c-0.5-1.3-0.7-2.6-0.7-3.9c0-6,4.6-10.9,10.5-11.3
	c0.7,0,1.3-0.4,1.6-1.1c2.4-5.1,7.4-8.4,13.1-8.4c5.7,0,10.8,3.4,13.2,8.5c0.3,0.6,0.8,1,1.4,1.1c5.4,0.8,9.5,5.6,9.5,11.1
	c0,1-0.1,2-0.4,3c-0.2,0.7,0,1.4,0.6,1.9c1.9,1.6,3.2,3.7,3.7,6.1c-1.9-0.6-4-0.6-6.1,0c-2.1,0.6-3.9,1.8-5.2,3.4
	c-1.8-0.5-3.8-0.4-5.6,0.1c-5.4,1.6-8.6,7-7.4,12.3c-0.2,0.4-0.5,0.9-0.7,1.4c-0.8,1.6-1.6,3.4-2.4,5.3c-0.1,0.2-0.2,0.4-0.3,0.7
	c-0.1-0.7-0.2-1.5-0.3-2.3c-0.7-5.5-1.1-11-1.1-16.1c0-1.3,0-2.6,0-3.8c0.2-5.2,0.6-9.9,1.3-14.2c0.3-2,0.6-3.7,0.9-5.2
	c0.1-0.5,0.2-1,0.3-1.3c0.1-0.2,0.1-0.4,0.1-0.4c0.3-1-0.3-2-1.3-2.3c-1-0.3-2,0.3-2.3,1.3c0,0.1-0.1,0.3-0.1,0.5
	C70.1,41,70,41.5,69.9,42c-0.3,1.5-0.7,3.3-1,5.4c-0.7,4.4-1.2,9.3-1.3,14.7c0,1.3-0.1,2.6,0,4c0,1.6,0.1,3.3,0.2,5
	c-1.2-2.9-3.6-5.3-6.9-6.3c-1.9-0.5-3.8-0.6-5.6-0.1c-1.3-1.6-3.1-2.8-5.2-3.4c-1.7-0.5-3.4-0.6-5.1-0.2c0.5-1.9,1.4-3.6,2.7-5
	C48.1,55.5,48.2,54.8,48,54.1z M28.4,76.5c1.4-4.6,5.8-7.7,10.6-7.4c0.7,0,1.4-0.3,1.7-1c0.6-1.2,1.5-2.1,2.6-2.7
	c0.1-0.1,0.3-0.1,0.4-0.2c1.6-0.8,3.4-1,5.2-0.5c1.7,0.5,3.1,1.6,4,3c0.5,0.8,1.4,1.1,2.3,0.7c1.5-0.6,3.1-0.7,4.6-0.2
	c3.7,1.1,5.8,4.9,4.7,8.6c-0.1,0.5-0.1,1,0.2,1.5c0,0.1,0.1,0.2,0.3,0.5c0.2,0.4,0.5,0.9,0.7,1.4c0.8,1.5,1.6,3.2,2.3,5
	c1.2,2.9,2,5.7,2.6,8.5c-1.2-1.6-2.5-3.1-3.8-4.5c-0.6-0.6-1.1-1.2-1.7-1.8c-0.4-5.4-5-9.7-10.5-9.7c-1.9,0-3.8,0.5-5.4,1.5
	c-1.7-1.2-3.8-1.8-5.9-1.8c-4.7,0-8.7,3-10.1,7.3c-1,0.3-1.9,0.7-2.8,1.3C28.1,83.4,27.4,79.9,28.4,76.5z M64.5,113
	c-0.1-0.2-0.1-0.2-0.2-0.4c-0.1-0.2-0.1-0.2-0.2-0.4c-3.6-6.2-10.5-9.3-18.8-7c-0.3,0.1-0.5,0.2-0.8,0.4c-1.9,1.7-4.4,2.7-7,2.7
	c-5.7,0-10.4-4.6-10.4-10.3c0-2.9,1.2-5.6,3.3-7.5c0.5,0,1.1-0.2,1.5-0.6c0.2-0.2,0.3-0.5,0.4-0.7c0.9-0.5,1.8-0.9,2.9-1.2
	c0.7-0.2,1.2-0.7,1.4-1.4c0.6-3.2,3.5-5.5,6.8-5.5c1.7,0,3.4,0.6,4.6,1.8c0.7,0.6,1.7,0.6,2.4,0.1c1.2-1,2.7-1.5,4.3-1.5
	c3.8,0,6.9,3.1,6.9,6.8c0,0.5,0.2,1,0.6,1.3c0.1,0.1,0.3,0.3,0.5,0.5c0.5,0.5,1,1,1.5,1.6c1.6,1.7,3.1,3.6,4.6,5.6
	c0.6,0.8,1.2,1.7,1.7,2.5c-1,1.8-1.9,3.6-2.6,5.4c-1.3,3.4-1.9,6.8-2,9.8c-0.2-0.4-0.5-0.8-0.7-1.2C64.8,113.6,64.7,113.3,64.5,113z
	 M107.6,108.5c-2.7,0-5.1-1-7.1-2.8c-0.2-0.2-0.5-0.3-0.8-0.4c-8.4-2.3-15.4,0.8-19,7c0-0.1-0.4,0.7-0.5,0.9
	c-0.2,0.3-0.4,0.6-0.5,0.9c-3.1,5.2-5.2,7.4-7.6,7.4c-2.9-0.1-4.3-6.9-1.2-15c0.7-1.8,1.6-3.6,2.7-5.4c0.7-0.3,1.1-1,1.1-1.7
	c0,0,0,0,0,0c0.4-0.7,0.9-1.3,1.3-2c1.5-2,3.1-3.9,4.6-5.7c0.6-0.6,1.1-1.1,1.5-1.6c0.3-0.3,0.5-0.5,0.6-0.5
	c0.4-0.3,0.6-0.8,0.6-1.3c0-3.8,3.1-6.9,7-6.9c1.6,0,3.1,0.5,4.4,1.5c0.7,0.6,1.7,0.5,2.4-0.1c1.3-1.2,2.9-1.8,4.7-1.8
	c3.3,0,6.2,2.4,6.8,5.6c0.1,0.7,0.7,1.3,1.4,1.4c0.8,0.2,1.6,0.5,2.3,0.8c0.1,0.2,0.2,0.5,0.4,0.7c0.4,0.4,1,0.6,1.5,0.6
	c2.3,1.9,3.8,4.8,3.8,8C118.1,103.9,113.4,108.5,107.6,108.5z"/>
</svg>
