<?xml version="1.0" encoding="utf-8"?>
<!-- Generator: Adobe Illustrator 22.1.0, SVG Export Plug-In . SVG Version: 6.00 Build 0)  -->
<svg version="1.1" id="Layer_1" xmlns="http://www.w3.org/2000/svg" xmlns:xlink="http://www.w3.org/1999/xlink" x="0px" y="0px"
	 width="145px" height="145px" viewBox="0 0 145 145" style="enable-background:new 0 0 145 145;" xml:space="preserve">
<style type="text/css">
	.st0{fill:#E9F9E9;}
	.st1{fill:#B7E8B3;}
</style>
<rect class="st0" width="145" height="145"/>
<path class="st1" d="M116.7,70.9l-6.9,1.7l-0.6-1.7c-0.3-0.9-1.1-1.6-2.1-1.7c-1-0.1-1.9,0.4-2.5,1.2l-7.9,13.5
	c-0.1,0.2-0.2,0.4-0.3,0.7L95.8,85l3.4-9.4c0.3-0.9,0.1-2-0.6-2.7c-0.7-0.7-1.7-0.9-2.6-0.6l-1.6,0.6l-2.9-6.4
	c-0.5-1-1.5-1.6-2.6-1.5c-1.1,0.1-2,0.9-2.2,2l-1.4,6.7l-1.6-0.2c-1-0.1-2,0.3-2.5,1.1c-0.5,0.8-0.5,1.9,0,2.7l7.7,12L77,97l-1.5,1
	V62.3l16,0c1,0,1.9-0.6,2.3-1.5c0.4-0.9,0.3-2-0.4-2.8l-1.3-1.5l5.4-5.3c0.8-0.8,1-2,0.5-3c-0.5-1-1.6-1.5-2.7-1.4l-7.5,1.1L87.5,46
	c-0.2-1-1-1.8-2-2c-1-0.2-2,0.2-2.6,1l-7.4,9.8v-2.2c0.2-0.2,0.3-0.4,0.5-0.6L83.5,37c0.4-0.9,0.3-2-0.3-2.8
	c-0.6-0.8-1.7-1.1-2.6-0.9l-2,0.5l-2.5-7.4c-0.8-2.3-4.1-2.3-4.9,0l-2.5,7.4l-2-0.5c-1-0.2-2,0.1-2.6,0.9c-0.6,0.8-0.7,1.9-0.3,2.8
	l7.5,15.1c0.1,0.2,0.3,0.5,0.5,0.6v1.5L65,45c-0.6-0.8-1.6-1.2-2.6-1c-1,0.2-1.7,1-2,2L60,47.9l-7.5-1.1c-1.1-0.1-2.2,0.4-2.7,1.4
	c-0.5,1-0.3,2.2,0.5,3l5.4,5.3L54.4,58c-0.7,0.8-0.8,1.8-0.4,2.8c0.4,0.9,1.3,1.5,2.3,1.5l15.5,0V98l-1.5-1l-11.9-7.6l7.7-12
	c0.5-0.8,0.5-1.9,0-2.7c-0.5-0.8-1.5-1.3-2.5-1.1L62,73.7L60.5,67c-0.2-1.1-1.1-1.9-2.2-2c-1.1-0.1-2.1,0.5-2.5,1.4l-2.9,6.4
	l-1.6-0.6c-0.9-0.3-2-0.1-2.7,0.6c-0.7,0.7-0.9,1.7-0.6,2.6l3.4,9.4l-0.7-0.4c-0.1-0.2-0.1-0.5-0.3-0.7l-7.9-13.5
	c-0.5-0.9-1.5-1.3-2.5-1.2c-1,0.1-1.8,0.8-2.1,1.7l-0.6,1.8l-6.9-1.7c-2.3-0.6-4.1,2.2-2.6,4l4.5,5.6l-1.3,1.3
	c-0.7,0.7-1,1.7-0.7,2.6c0.3,0.9,1.1,1.6,2.1,1.7l15.5,1.5c0.2,0,0.5,0,0.7,0l0.7,0.4l-10,0.9c-1,0.1-1.8,0.7-2.2,1.7
	c-0.3,0.9-0.1,2,0.6,2.7l1.2,1.2l-4.6,5.3c-0.7,0.8-0.8,2-0.3,2.9c0.6,0.9,1.7,1.4,2.7,1.2l6.7-1.6l0.5,1.6c0.3,1,1.1,1.7,2.1,1.8
	c1,0.1,1.9-0.3,2.5-1.2l7.7-12l11.9,7.6l3.5,2.3v16.2c0,1,0.8,1.8,1.8,1.8c1,0,1.8-0.8,1.8-1.8v-16.2l3.5-2.2l11.9-7.6l7.7,12
	c0.5,0.8,1.5,1.3,2.5,1.2c1-0.1,1.8-0.8,2.1-1.8l0.5-1.6l6.7,1.6c1.1,0.2,2.2-0.2,2.7-1.2c0.5-0.9,0.4-2.1-0.2-2.9l-4.6-5.4l1.2-1.2
	c0.7-0.7,0.9-1.7,0.6-2.7c-0.3-0.9-1.2-1.6-2.2-1.6l-10-0.9l0.7-0.4c0.2,0,0.5,0.1,0.7,0l15.5-1.5c1-0.1,1.8-0.8,2.1-1.7
	c0.3-0.9,0-1.9-0.6-2.6l-1.3-1.3l4.5-5.6C120.8,73.2,119,70.4,116.7,70.9z M86.5,77.6l1.7,0.3l1.4-6.7l2.2,4.7l0.7,1.5l2.4-0.9
	l-3.6,9.8l-5.7-8.9L86.5,77.6z M84.4,49.2L85,52l1.7-0.2l5.9-0.8l-5.4,5.4l1.1,1.3l0.8,1l-11.8,0L84.4,49.2z M58.7,58.6l0.8-1
	l1.1-1.3L55.2,51l5.9,0.8l1.7,0.2l0.6-2.9l7.1,9.5L58.7,58.6z M53.2,76.9l1.6,0.6l2.9-6.3l1.1,5l0.4,1.7l2.5-0.4l-5.7,8.9l-3.6-9.8
	L53.2,76.9z M47,100.4l-0.2-0.8l-0.5-1.7l-6.7,1.5l3.4-4l1.1-1.3l-1.8-1.8l10.4-0.9L47,100.4z M35.4,82.8l0.7-0.7l1.2-1.2l-4.5-5.6
	l5.3,1.3l1.6,0.4l0.9-2.6l5.5,9.3L35.4,82.8z M68.2,37.5l1.3,0.3l1.7,0.4l2.5-7.5l2,5.9l0.5,1.6l3-0.7l-5.5,11L68.2,37.5z
	 M107.7,99.5l-5-1.2l-1.7-0.4l-0.7,2.5l-5.7-8.9l10.4,0.9l-0.6,0.6l-1.2,1.2L107.7,99.5z M111.8,82.8L101,83.8l5.5-9.3l0.3,1
	l0.5,1.6l6.9-1.7l-3.4,4.2l-1.1,1.3L111.8,82.8z"/>
</svg>
