<?xml version="1.0" encoding="utf-8"?>
<!-- Generator: Adobe Illustrator 22.1.0, SVG Export Plug-In . SVG Version: 6.00 Build 0)  -->
<svg version="1.1" id="Layer_1" xmlns="http://www.w3.org/2000/svg" xmlns:xlink="http://www.w3.org/1999/xlink" x="0px" y="0px"
	 width="145px" height="145px" viewBox="0 0 145 145" style="enable-background:new 0 0 145 145;" xml:space="preserve">
<style type="text/css">
	.st0{fill:#FEF8E7;}
	.st1{fill:#FFB5CF;}
</style>
<rect class="st0" width="145" height="145"/>
<path class="st1" d="M118.5,71.9c-0.7,0-1.6,0-2.7-0.2c-1.7-0.3-3.3-0.8-4.8-1.7c-1.4-0.8-2.6-1.8-3.6-3.1c1-3.4,1-7-0.4-10.7
	c-0.6-1.6-2.8-1.6-3.4,0c-0.8,2.2-4,3.9-8.7,4.9c-2,0.4-4.3,0.7-6.5,0.8C87.6,62,87,62,86.4,62l0,0l0,0c0.1-0.1,0.2-0.2,0.3-0.4
	c1.1-1.4,2.3-2.8,3.5-4.1c1.4-1.5,2.7-2.7,3.9-3.7c0.2-0.1,0.4-0.3,0.6-0.4c6.5-4.6,10.9-6.1,14.7-5.6c1,0.1,1.9-0.6,2.1-1.6
	c0.1-1-0.6-1.9-1.6-2.1c-4.8-0.6-10.1,1.1-17.3,6.3c-0.2,0.2-0.4,0.3-0.7,0.5c-1.4,1.1-2.9,2.5-4.4,4.1c-0.8,0.8-1.5,1.7-2.2,2.5
	c-0.5-4.8,1-9.5,5.8-14.3c0.1-0.1,0.3-0.3,0.4-0.4c1-0.9,0.7-2.6-0.6-3.1c-4.4-1.7-8.1-2.1-11.2-1c-1.5-1-2.7-2.5-3.6-4.5
	c-0.6-1.3-1.1-2.8-1.4-4.2c-0.1-0.5-0.2-1-0.3-1.4c0-0.2-0.1-0.4-0.1-0.5c-0.2-1.7-2.4-2.3-3.4-0.8c-0.5,0.8-1.2,2.1-1.9,3.9
	c-0.7,1.8-1.2,3.5-1.5,5.3c-6.1-2.4-13.1,0.2-16.3,6.2c-0.2,0.4-0.4,0.8-0.6,1.2c-5.3-0.2-10.2,3-12.1,8.1c-0.8,2-1,4.1-0.7,6.1
	c-6.5,2.6-9.9,9.6-7.7,16.2c0.6,1.8,1.5,3.4,2.7,4.7c-4.8,4.1-5.8,11.3-2.1,16.6c0.7,1.1,1.6,2,2.6,2.7c-3.1,4.2-2.7,10.2,1.1,14
	c4,4,10.3,4.4,14.6,1c0.6,0.6,1.3,1.1,2.1,1.5c5.1,3,11.5,1.8,15.3-2.5c5.1,5.3,13.5,5.6,18.9,0.6c1.5-1.3,2.6-3,3.4-4.7
	c0.9,0.1,1.8,0,2.7-0.1c6.1-0.9,10.5-5.8,10.6-11.6c0.5-0.2,0.9-0.3,1.4-0.5c6.7-3.1,9.7-11,6.6-17.7c0,0,0,0,0-0.1c0,0,0,0,0,0
	l0-0.1c1.4-0.3,2.9-0.7,4.4-1.1c1.3-0.4,2.5-0.8,3.6-1.2c0.4-0.1,0.7-0.3,1-0.4c0.2-0.1,0.3-0.1,0.4-0.2
	C121.3,74.6,120.6,71.7,118.5,71.9z M88.5,65.6c2.4-0.2,4.8-0.4,7-0.9c3.7-0.8,6.7-1.9,8.8-3.6c0.4,5-2.2,9.9-6.4,12.8
	c-2.3-1.1-4.4-2.5-6.3-4.2c-1.4-1.3-2.7-2.7-3.7-4.1C88.1,65.6,88.3,65.6,88.5,65.6z M89.1,72.4c1.9,1.7,4.1,3.3,6.5,4.5
	c-0.6,5.3-5.1,9.5-10.5,9.5c-5.8,0-10.6-4.7-10.6-10.6c0-5.2,3.8-9.6,8.8-10.4c0.3,0.5,0.7,1.1,1.2,1.8
	C85.7,68.9,87.3,70.7,89.1,72.4z M66.7,76.4c-1.8,2.8-5,4.5-8.4,4.4C56,80.7,54,80,52.4,78.7c0-0.3-0.2-0.6-0.4-0.9
	c-0.3-0.4-0.7-0.6-1.2-0.6c-1.4-1.7-2.2-3.9-2.1-6.2c0.1-4.8,3.7-8.7,8.3-9.3c0,0.4-0.1,0.9-0.1,1.3C57,69.1,61.1,74.4,66.7,76.4z
	 M67.9,80.9c0.1-0.2,0.2-0.3,0.2-0.5c0.9-1,1.7-2,2.3-3.3c0.2,0,0.3,0,0.5,0C71.6,84.4,77.7,90,85.1,90c-0.3,0.7-0.6,1.4-1,2
	c-3,4.6-9,5.8-13.5,2.7C66.1,91.7,64.9,85.5,67.9,80.9z M86.8,42.4c-4.8,5.5-6.1,11.3-5.1,17c-2.5-1.8-4.6-3.7-6.2-5.8
	c0-0.1,0-0.1,0-0.2c-0.5-1.9-0.3-5,0.9-7C78.8,42.2,82,41.1,86.8,42.4z M71.9,34c0.2,0.6,0.5,1.2,0.8,1.8c0.9,2,2.1,3.7,3.5,4.9
	c-1.1,1-2.1,2.2-3,3.7c-0.5,0.9-0.9,1.9-1.2,2.9C70.3,43,70.5,38.4,71.9,34z M70.2,52.3c0.3,0.5,0.6,1,0.9,1.5
	c2.1,3.1,4.9,6,8.7,8.6c-4.6,1.8-8,6-8.8,11c-5.7-0.1-10.3-4.8-10.3-10.6C60.7,57.4,64.9,52.9,70.2,52.3z M54.5,44.5
	c2.4-4.6,8.1-6.4,12.6-4c0,2.8,0.4,5.6,1.4,8.4c-4.7,0.9-8.6,4.2-10.4,8.5C53.7,54.8,52.1,49.1,54.5,44.5z M42,53.4
	c1.3-3.3,4.4-5.5,7.8-5.7c-0.4,4,1.1,8.1,4,10.9c-3,1.1-5.5,3.3-7.1,6.1C42.4,62.9,40.3,57.9,42,53.4z M38.9,61.8
	c1.3,2.8,3.5,5.1,6.6,6.4c-0.2,0.8-0.3,1.7-0.3,2.6c-0.1,3,0.8,5.7,2.4,8c-0.5,0.2-1,0.5-1.6,0.6c-5.2,1.6-10.7-1.2-12.4-6.2
	C32.1,68.7,34.4,63.8,38.9,61.8z M33.8,93.6c-2.7-3.9-1.8-9.3,1.9-12.1c2.7,1.6,5.9,2.4,9.1,1.9c-1,2-1.6,4.2-1.6,6.5
	c0,2.3,0.6,4.6,1.6,6.5C41.1,98.4,36.3,97.3,33.8,93.6z M37.1,109.9c-2.6-2.7-2.8-6.8-0.5-9.6c3,1.1,6.4,1.1,9.4-0.3
	c-1.4,3.6-1,7.5,0.8,10.7C43.8,112.8,39.7,112.5,37.1,109.9z M53,111.8c-3.7-2.1-5.1-6.6-3.7-10.5c2.3,1.5,5,2.4,8,2.4
	c1.8,0,3.6-0.4,5.3-1c0,2.3,0.5,4.6,1.6,6.7C61.7,113,56.8,114.1,53,111.8z M57.3,100.1c-5.7,0-10.4-4.6-10.4-10.2
	c0-3.1,1.4-6,3.8-7.9c2.1,1.5,4.7,2.4,7.4,2.5c1.6,0,3.2-0.2,4.7-0.7c-0.8,4.2,0.3,8.6,3.1,11.8C64.1,98.4,60.8,100.1,57.3,100.1z
	 M82.9,110.4c-4.1,3.7-10.4,3.4-14.1-0.7c-2.3-2.5-3.1-5.9-2.3-9.2c0-0.1,0-0.1,0-0.2c0.8-0.7,1.6-1.5,2.2-2.4c2.8,1.8,5.9,2.4,9,2
	c1.1,3.5,3.9,6.3,7.3,7.6C84.5,108.6,83.8,109.6,82.9,110.4z M91,104.6c-4.3,0.6-8.4-1.8-9.7-5.6c2.3-1,4.4-2.7,5.9-4.9
	c0.3-0.4,0.5-0.8,0.7-1.2c2.7,3,6.5,4.6,10.5,4.5C98,101,95,104.1,91,104.6z M102,92.8c-4.5,2-9.7,0.4-12.2-3.6
	c4.8-1.6,8.5-5.8,9.4-10.9c2,0.6,4.4,0.8,7,0.5c0,0,0.1,0.1,0.1,0.1c0.2,0.3,0.4,0.6,0.5,1C109,84.8,106.9,90.6,102,92.8z
	 M106.2,75.2c-1.5,0.2-2.9,0.2-4.2,0c1.5-1.3,2.7-2.9,3.7-4.6c1,1,2.2,1.9,3.4,2.6c0.7,0.4,1.4,0.8,2.2,1.1
	C109.5,74.7,107.8,75,106.2,75.2z"/>
</svg>
