<svg width="145" height="148" viewBox="0 0 145 148" fill="none" xmlns="http://www.w3.org/2000/svg">
<rect width="145" height="147.028" fill="#E9F9E9"/>
<path d="M113.007 77.7087C113.007 76.6925 113.831 75.8687 114.847 75.8687C115.863 75.8687 116.687 76.6925 116.687 77.7087C116.687 95.1531 102.545 109.295 85.1003 109.295C67.6558 109.295 53.5137 95.1531 53.5137 77.7087C53.5137 76.6925 54.3375 75.8687 55.3537 75.8687C56.3699 75.8687 57.1937 76.6925 57.1937 77.7087C57.1937 93.1207 69.6883 105.615 85.1003 105.615C100.512 105.615 113.007 93.1207 113.007 77.7087Z" fill="#FBF0AF"/>
<path fill-rule="evenodd" clip-rule="evenodd" d="M60.6357 77.7087C60.6357 91.22 71.589 102.173 85.1003 102.173C98.6117 102.173 109.565 91.22 109.565 77.7087C109.565 76.6925 108.741 75.8687 107.725 75.8687H62.4758C61.4596 75.8687 60.6357 76.6925 60.6357 77.7087ZM105.805 79.5487C104.873 90.1657 95.9594 98.4932 85.1006 98.4932C74.2418 98.4932 65.3277 90.1657 64.3964 79.5487H105.805Z" fill="#FBF0AF"/>
<path d="M70.7036 95.3889C70.0004 96.1226 68.8356 96.1473 68.102 95.4441C67.3683 94.741 67.3436 93.5762 68.0468 92.8425L83.7716 76.436C84.4907 75.6857 85.688 75.6794 86.4149 76.422L102.141 92.4873C102.851 93.2135 102.839 94.3785 102.113 95.0894C101.387 95.8002 100.222 95.7878 99.5107 95.0616L85.1139 80.3539L70.7036 95.3889Z" fill="#FBF0AF"/>
<path d="M86.9408 100.333C86.9408 101.349 86.117 102.173 85.1008 102.173C84.0846 102.173 83.2607 101.349 83.2607 100.333V77.7087C83.2607 76.6925 84.0846 75.8687 85.1008 75.8687C86.117 75.8687 86.9408 76.6925 86.9408 77.7087V100.333Z" fill="#FBF0AF"/>
<path d="M96.5892 78.5008C96.1095 79.3967 94.9944 79.734 94.0985 79.2543C93.2026 78.7746 92.8652 77.6595 93.345 76.7636C94.2878 75.0029 94.9985 73.1589 95.4629 71.2581C95.6462 70.5074 96.2791 69.9513 97.0471 69.8659C98.805 69.6706 100.15 68.1781 100.15 66.394C100.15 64.6672 98.8856 63.208 97.194 62.9457C96.4302 62.8273 95.8218 62.2441 95.6712 61.486C93.1749 48.9196 80.2702 39.5014 64.9658 39.5014C49.6712 39.5014 36.7718 48.9084 34.266 61.4643C34.111 62.2408 33.4766 62.8311 32.6909 62.9298C30.9536 63.1481 29.6352 64.6293 29.6352 66.394C29.6352 68.2141 31.0341 69.7243 32.8371 69.8734C33.6258 69.9387 34.2844 70.5008 34.4727 71.2695C37.094 81.9721 47.3832 90.3142 60.2435 91.9733C61.2514 92.1033 61.963 93.0258 61.833 94.0336C61.7029 95.0415 60.7805 95.7531 59.7726 95.6231C45.9236 93.8365 34.6384 84.9873 31.2106 73.3058C28.1655 72.4638 25.9551 69.6748 25.9551 66.394C25.9551 63.2271 28.0184 60.5076 30.9191 59.57C34.3207 45.8043 48.4627 35.8213 64.9658 35.8213C81.4925 35.8213 95.6498 45.8321 99.0275 59.6264C101.848 60.6124 103.83 63.2915 103.83 66.394C103.83 69.6118 101.702 72.3655 98.7351 73.2614C98.2088 75.0661 97.4899 76.8187 96.5892 78.5008Z" fill="#FBF0AF"/>
</svg>
