<?xml version="1.0" encoding="utf-8"?>
<!-- Generator: Adobe Illustrator 22.1.0, SVG Export Plug-In . SVG Version: 6.00 Build 0)  -->
<svg version="1.1" id="Layer_1" xmlns="http://www.w3.org/2000/svg" xmlns:xlink="http://www.w3.org/1999/xlink" x="0px" y="0px"
	 width="145px" height="145px" viewBox="0 0 145 145" style="enable-background:new 0 0 145 145;" xml:space="preserve">
<style type="text/css">
	.st0{fill:#E9F9E9;}
	.st1{fill:#E2AEAE;}
</style>
<rect class="st0" width="145" height="145"/>
<g>
	<path class="st1" d="M108.5,37.7c-0.2-0.7-0.8-1.2-1.5-1.3c-8.8-1.2-16.3-1.4-24.8-0.1C70.1,38.2,59.1,43.1,49.8,52
		c-6.3,5.9-10.6,13.9-13.2,23.3c-2.9,10.4-3.4,21.4-2.6,31.2c0.1,0.8,0.1,1.6,0.2,2.2c0,0.4,0.1,0.7,0.1,0.8
		c0.1,0.8,0.8,1.5,1.6,1.6c10.9,1.2,20,1.1,28.8-0.8c10.7-2.3,20.5-7.3,29.5-15.5c8.9-8.1,14.1-18.3,16-29.8
		C111.7,55.7,110.9,46,108.5,37.7z M106.5,64.4C104.7,75,99.9,84.5,91.6,92c-9,8.2-18.3,12.9-29,14.9c-0.6-0.8-1.2-1.6-2-2.5
		c-0.4-0.5-0.9-1-1.4-1.6c-1.1-1.2-2.3-2.5-3.4-3.6c-0.4-0.4-0.8-0.8-1.1-1.1c-0.2-0.2-0.4-0.3-0.4-0.4c-0.7-0.7-1.9-0.7-2.6,0.1
		c-0.7,0.7-0.7,1.9,0.1,2.6c0.1,0.1,0.2,0.2,0.4,0.4c0.3,0.3,0.7,0.7,1.1,1.1c1.1,1.2,2.3,2.3,3.3,3.5c0.5,0.5,0.9,1,1.3,1.5
		c0.2,0.3,0.4,0.5,0.6,0.8c-6.4,0.8-13.2,0.7-20.8,0c0-0.4-0.1-0.9-0.1-1.4c-0.7-9.4-0.2-20,2.5-29.9c2.4-8.8,6.4-16.1,12.2-21.6
		c6.7-6.4,14.4-10.6,22.8-13c0.1,0.1,0.2,0.2,0.4,0.3c0.4,0.3,0.9,0.6,1.4,1c1.5,1.1,3,2.1,4.4,3.2c0.3,0.2,0.6,0.5,0.9,0.7
		c2,1.6,3.6,2.8,4.4,3.7c0.7,0.7,1.9,0.7,2.6,0c0.7-0.7,0.7-1.9,0-2.6c-1-1-2.6-2.4-4.8-4c-0.3-0.2-0.6-0.5-1-0.7
		c-1.2-0.9-2.4-1.8-3.7-2.7c1-0.2,2-0.4,3-0.5c7.7-1.2,14.6-1,22.5-0.1C107.3,47.5,107.9,56.1,106.5,64.4z"/>
	<path class="st1" d="M72.9,61.6c1.7,1.4,2.9,2.6,3.4,3.3c0.6,0.8,1.7,1,2.6,0.5c0.8-0.6,1-1.7,0.5-2.6c-0.8-1.1-2.2-2.5-4.1-4.1
		c-0.5-0.4-1-0.8-1.6-1.3c-1.3-1-2.7-2-4-3c-0.5-0.3-0.9-0.7-1.3-0.9c-0.2-0.2-0.4-0.3-0.5-0.4c-0.8-0.6-2-0.4-2.6,0.5
		s-0.4,2,0.5,2.6c0.1,0.1,0.2,0.2,0.5,0.3c0.4,0.3,0.8,0.6,1.3,0.9c1.3,1,2.7,2,3.9,2.9C71.9,60.8,72.4,61.3,72.9,61.6z"/>
	<path class="st1" d="M55,80.9c-0.9-0.8-2-1.7-3.3-2.5c-1.2-0.8-2.4-1.5-3.6-2.3c-0.4-0.2-0.8-0.5-1.2-0.7c-0.2-0.1-0.4-0.2-0.5-0.3
		c-0.9-0.5-2-0.1-2.5,0.8c-0.5,0.9-0.1,2,0.8,2.5c0.1,0,0.2,0.1,0.4,0.2c0.3,0.2,0.7,0.4,1.1,0.6c1.2,0.7,2.3,1.4,3.4,2.1
		c1.1,0.8,2.1,1.5,2.9,2.2c0.3,0.3,0.6,0.6,0.9,0.9c0.7,0.8,1.8,0.9,2.6,0.2c0.8-0.7,0.9-1.8,0.2-2.6C55.9,81.7,55.5,81.3,55,80.9z"
		/>
	<path class="st1" d="M79.6,86c-0.8-1.1-1.7-2.2-2.7-3.4c-1.1-1.3-2.4-2.6-3.6-3.8c-0.4-0.4-0.8-0.8-1.2-1.1
		c-0.2-0.2-0.4-0.3-0.5-0.4c-0.8-0.7-1.9-0.6-2.6,0.1c-0.7,0.8-0.6,1.9,0.1,2.6c0.1,0.1,0.2,0.2,0.4,0.4c0.3,0.3,0.7,0.7,1.1,1.1
		c1.2,1.1,2.3,2.3,3.4,3.6c1,1.1,1.8,2.1,2.5,3.1c0.2,0.3,0.4,0.5,0.5,0.8c0.6,0.8,1.7,1.1,2.6,0.5c0.8-0.6,1.1-1.7,0.5-2.6
		C80.1,86.6,79.9,86.3,79.6,86z"/>
	<path class="st1" d="M98,82.3C98,82.3,98,82.3,98,82.3C98,82.3,98,82.3,98,82.3L98,82.3z"/>
	<path class="st1" d="M98,82.3c0-0.2,0-0.4-0.1-0.6L98,82.3z"/>
	<path class="st1" d="M93.7,75.5c-0.4-0.4-0.7-0.7-0.9-0.9c-0.7-0.7-1.9-0.7-2.6,0c-0.7,0.7-0.7,1.9,0,2.6c0.1,0.1,0.4,0.4,0.7,0.7
		c0.6,0.6,1.1,1.3,1.6,1.9c0.8,1.1,1.5,2.2,1.8,3.1l-0.1-0.7c0.5,1.6,1.6,2.1,2.5,1.7c0.7-0.3,1.2-1,1.2-1.7c-0.6-2-1.4-3.3-2.4-4.6
		C95,76.9,94.4,76.2,93.7,75.5z"/>
	<path class="st1" d="M66,73.5c-0.8-0.6-1.6-1.1-2.1-1.4c-0.4-0.2-0.6-0.4-0.7-0.5c-0.9-0.5-2-0.3-2.5,0.6c-0.5,0.9-0.3,2,0.6,2.5
		c0.1,0.1,0.3,0.2,0.6,0.4c0.6,0.4,1.2,0.8,2,1.4c0.8,0.6,2,0.4,2.6-0.5C67,75.2,66.8,74,66,73.5z"/>
	<path class="st1" d="M91.6,54.5c0.1,0.1,0.3,0.2,0.6,0.4c0.6,0.4,1.2,0.8,2,1.4c0.8,0.6,2,0.4,2.6-0.5c0.6-0.8,0.4-2-0.5-2.6
		c-0.8-0.6-1.6-1.1-2.1-1.4c-0.4-0.2-0.6-0.4-0.7-0.5c-0.9-0.5-2-0.3-2.5,0.6C90.4,52.8,90.7,53.9,91.6,54.5z"/>
</g>
</svg>
