<svg width="145" height="145" viewBox="0 0 145 145" fill="none" xmlns="http://www.w3.org/2000/svg">
<rect width="145" height="145" transform="matrix(-1 0 0 1 145 0)" fill="#F3FFF7"/>
<path fill-rule="evenodd" clip-rule="evenodd" d="M107.272 87.0456C110.937 69.5302 103.805 53.0135 90.9299 50.3194C86.6352 49.4211 82.1888 50.1811 78.0081 52.4266C74.2417 54.4494 69.6285 54.4494 65.862 52.4265C61.6812 50.181 57.2358 49.4211 52.9404 50.3194C40.0654 53.0135 32.9334 69.5302 36.5977 87.0456C40.263 104.562 53.4184 116.834 66.2932 114.14C67.1954 113.952 68.078 113.692 68.9389 113.363C70.858 112.629 73.0122 112.629 74.931 113.363C75.7911 113.691 76.6744 113.951 77.5772 114.14C90.4518 116.834 103.607 104.562 107.272 87.0456ZM64.1209 55.6687C68.9748 58.2756 74.8957 58.2756 79.7495 55.6687C83.1945 53.8184 86.7652 53.2081 90.1765 53.9216C100.738 56.1316 106.964 70.5506 103.671 86.2921C100.376 102.034 88.8919 112.748 78.3309 110.538C77.6193 110.389 76.9234 110.185 76.245 109.925C73.4802 108.868 70.3903 108.868 67.6252 109.925C66.9461 110.185 66.2511 110.389 65.5403 110.538C54.9786 112.748 43.494 102.034 40.2 86.292C36.9067 70.5505 43.133 56.1316 53.6941 53.9216C57.1059 53.2081 60.6758 53.8183 64.1209 55.6687Z" fill="#FBC7C7"/>
<path d="M63.707 61.5747L66.4495 59.1208C66.4268 59.0955 66.4603 59.1262 66.5578 59.1986C66.781 59.3644 67.084 59.5418 67.4762 59.7162C68.711 60.265 70.4091 60.6074 72.6471 60.6074C74.8524 60.6074 76.5084 60.2276 77.7028 59.6197C78.0816 59.4269 78.3737 59.2303 78.5887 59.046C78.6845 58.9639 78.7191 58.927 78.7002 58.9517L81.6198 61.1919C81.487 61.3651 81.2778 61.588 80.9839 61.8399C80.5494 62.2124 80.0142 62.5726 79.3719 62.8995C77.6489 63.7764 75.4206 64.2874 72.6471 64.2874C69.9062 64.2874 67.6991 63.8424 65.9815 63.079C64.8525 62.5772 64.1117 62.0269 63.707 61.5747Z" fill="#FBC7C7"/>
<path fill-rule="evenodd" clip-rule="evenodd" d="M93.0247 28.8238C86.5322 28.4381 79.9466 31.4239 75.5147 36.9161C71.0827 42.4086 69.5555 49.4754 71.3037 55.7402L71.6566 57.0047L72.9672 57.0824C79.4601 57.4671 86.0445 54.4819 90.4761 48.99C94.9083 43.4984 96.4356 36.431 94.688 30.1662L94.3352 28.9016L93.0247 28.8238ZM74.5424 53.4286C73.6568 48.6565 75.001 43.4133 78.379 39.227C81.7568 35.041 86.5984 32.6194 91.4497 32.4771C92.335 37.2495 90.9907 42.4932 87.6126 46.6787C84.2349 50.8646 79.3941 53.2858 74.5424 53.4286Z" fill="#FBC7C7"/>
<path d="M73.9785 63.1464L70.3719 62.4148C70.3892 62.3292 70.4228 62.1178 70.4587 61.7919C71.085 56.1121 69.4875 49.1824 63.743 42.4827C61.4137 39.7661 58.4812 37.2389 54.8867 34.9413L56.8688 31.8406C60.7627 34.3296 63.9695 37.0932 66.5367 40.0873C73.0166 47.6447 74.8461 55.5802 74.1166 62.1953C74.0682 62.6341 74.0174 62.9548 73.9785 63.1464Z" fill="#FBC7C7"/>
</svg>
