<?xml version="1.0" encoding="utf-8"?>
<!-- Generator: Adobe Illustrator 22.1.0, SVG Export Plug-In . SVG Version: 6.00 Build 0)  -->
<svg version="1.1" id="Layer_1" xmlns="http://www.w3.org/2000/svg" xmlns:xlink="http://www.w3.org/1999/xlink" x="0px" y="0px"
	 width="145px" height="145px" viewBox="0 0 145 145" style="enable-background:new 0 0 145 145;" xml:space="preserve">
<style type="text/css">
	.st0{fill:#F7E8FF;}
	.st1{fill:#FFC0BF;}
</style>
<rect class="st0" width="145" height="145"/>
<g>
	<path class="st1" d="M95.5,44.1c0,0,0.1-0.1,0.1-0.1c1.9-2.4,4.2-4.3,7-5.7c0.9-0.5,1.3-1.6,0.8-2.5c-0.5-0.9-1.6-1.3-2.5-0.8
		c-3.2,1.6-5.8,3.8-8,6.5c-0.1-0.2-0.2-0.4-0.2-0.6c-1-2.5-2.3-5.1-4-7.5c-5.6-7.9-14-12.2-25.3-10.8c-1,0.1-1.7,1-1.6,2
		c0.8,7.2,2.2,11.7,5.8,15.5c2.1,2.2,4.8,3.8,8.1,4.9c-5.4,1.9-10.3,5.3-14.2,9.7c-1.1-0.1-2.3-0.2-3.4-0.2
		c-18,0-32.5,14.6-32.5,32.5c0,18,14.6,32.5,32.5,32.5c9,0,17.1-3.6,23-9.5c1.9,0.3,3.9,0.5,5.9,0.5c18.6,0,33.8-15.1,33.8-33.8
		C120.8,61,110.1,47.8,95.5,44.1z M65.7,26c9-0.6,15.5,3,20,9.4c1.5,2.1,2.7,4.4,3.6,6.7c0.1,0.3,0.2,0.6,0.3,0.8
		c-9.5,0.3-15.7-1.7-19.3-5.4C67.7,34.7,66.4,31.4,65.7,26z M58.2,115.8c-15.9,0-28.8-12.9-28.8-28.8c0-15.9,12.9-28.8,28.8-28.8
		C74.1,58.1,87.1,71,87.1,87c0,7.4-2.8,14.2-7.4,19.3c-0.5,0.2-1,0.6-1.1,1.2C73.3,112.6,66.1,115.8,58.2,115.8z M87.1,106.8
		c-1,0-2-0.1-3-0.2c4.2-5.5,6.7-12.3,6.7-19.7c0-15.3-10.6-28.1-24.8-31.6c5.6-5.5,13.1-8.7,21.1-8.7c0.8,0,1.7,0,2.5,0.1
		c-0.2,0.5-0.4,1-0.6,1.4c-0.5,1.4-0.9,2.4-1,3.1c-0.2,1,0.4,2,1.4,2.2c1,0.2,2-0.4,2.2-1.4c0-0.1,0.1-0.3,0.2-0.6
		c0.2-0.6,0.4-1.2,0.7-1.8c0.3-0.8,0.7-1.5,1.1-2.3c13.6,2.9,23.7,15,23.7,29.4C117.2,93.4,103.7,106.8,87.1,106.8z"/>
	<path class="st1" d="M64.4,65.9c0-3.4-2.8-6.2-6.2-6.2c-3.4,0-6.2,2.8-6.2,6.2c0,3.4,2,11.7,6.2,19.1
		C62.4,77.4,64.4,69.3,64.4,65.9z M55.7,65.9c0-1.4,1.1-2.5,2.5-2.5c1.4,0,2.5,1.1,2.5,2.5c0,1.9-0.8,5.8-2.5,10.3
		C56.5,71.6,55.7,67.6,55.7,65.9z"/>
	<path class="st1" d="M52,108c0,3.4,2.8,6.2,6.2,6.2c3.4,0,6.2-2.8,6.2-6.2c0-3.4-2-11.7-6.2-19.1C54,96.5,52,104.6,52,108z
		 M60.7,108c0,1.4-1.1,2.5-2.5,2.5c-1.4,0-2.5-1.1-2.5-2.5c0-1.9,0.8-5.8,2.5-10.3C60,102.3,60.7,106.3,60.7,108z"/>
	<path class="st1" d="M77.5,97.5c-2.4-2.4-9.7-6.8-17.9-9.1c2.4,8.3,6.7,15.5,9.1,17.9c1.2,1.2,2.8,1.8,4.4,1.8
		c1.6,0,3.2-0.6,4.4-1.8C79.9,103.8,79.9,99.9,77.5,97.5z M74.9,103.6c-0.5,0.5-1.1,0.7-1.8,0.7c-0.7,0-1.3-0.3-1.8-0.7
		c-1.3-1.3-3.5-4.7-5.5-9.1c4.5,2.1,7.9,4.3,9.1,5.5C75.8,101,75.8,102.6,74.9,103.6z"/>
	<path class="st1" d="M56.8,85.6c-2.4-8.3-6.7-15.5-9.1-17.9c-1.2-1.2-2.8-1.8-4.4-1.8c-1.6,0-3.2,0.6-4.4,1.8
		c-2.4,2.4-2.4,6.3,0,8.8C41.4,78.9,48.6,83.3,56.8,85.6z M41.6,70.3c0.5-0.5,1.1-0.7,1.8-0.7c0.7,0,1.3,0.3,1.8,0.7
		c1.3,1.3,3.5,4.7,5.5,9.1c-4.5-2.1-7.9-4.3-9.1-5.5c-0.5-0.5-0.7-1.1-0.7-1.8C40.8,71.4,41.1,70.8,41.6,70.3z"/>
	<path class="st1" d="M60.2,87c7.6,4.2,15.7,6.2,19.1,6.2c3.4,0,6.2-2.8,6.2-6.2c0-3.4-2.8-6.2-6.2-6.2C75.8,80.8,67.6,82.8,60.2,87
		z M81.8,87c0,1.4-1.1,2.5-2.5,2.5c-1.9,0-5.8-0.8-10.3-2.5c4.7-1.7,8.7-2.5,10.3-2.5C80.6,84.5,81.8,85.6,81.8,87z"/>
	<path class="st1" d="M56.3,87c-7.6-4.2-15.7-6.2-19.1-6.2S31,83.5,31,87c0,3.4,2.8,6.2,6.2,6.2S48.8,91.1,56.3,87z M34.7,87
		c0-1.4,1.1-2.5,2.5-2.5c1.9,0,5.8,0.8,10.3,2.5c-4.7,1.7-8.7,2.5-10.3,2.5C35.8,89.5,34.7,88.3,34.7,87z"/>
	<path class="st1" d="M77.5,76.5c2.4-2.4,2.4-6.3,0-8.8c-1.2-1.2-2.8-1.8-4.4-1.8c-1.6,0-3.2,0.6-4.4,1.8c-2.4,2.4-6.8,9.7-9.1,17.9
		C67.9,83.2,75,78.9,77.5,76.5z M71.3,70.3c0.5-0.5,1.1-0.7,1.8-0.7s1.3,0.3,1.8,0.7c0.5,0.5,0.7,1.1,0.7,1.8c0,0.7-0.3,1.3-0.7,1.8
		c-1.3,1.3-4.7,3.5-9.1,5.5C67.8,74.9,70.1,71.5,71.3,70.3z"/>
	<path class="st1" d="M39,97.5c-2.4,2.4-2.4,6.3,0,8.8c1.2,1.2,2.8,1.8,4.4,1.8c1.6,0,3.2-0.6,4.4-1.8c2.4-2.4,6.8-9.7,9.1-17.9
		C48.5,90.7,41.4,95,39,97.5z M45.1,103.6c-0.5,0.5-1.1,0.7-1.8,0.7c-0.7,0-1.3-0.3-1.8-0.7c-1-1-1-2.6,0-3.5
		c1.3-1.3,4.7-3.5,9.1-5.5C48.6,99.1,46.3,102.4,45.1,103.6z"/>
</g>
</svg>
