<svg width="98" height="98" viewBox="0 0 98 98" fill="none" xmlns="http://www.w3.org/2000/svg">
<path d="M5.84496 0.5H39.6548C42.6021 0.5 44.9997 2.89763 44.9997 5.84496V39.6548C44.9997 42.6021 42.6021 44.9997 39.6548 44.9997H5.84496C2.89763 44.9997 0.5 42.6021 0.5 39.6548V5.84496C0.5 2.89763 2.89763 0.5 5.84496 0.5ZM39.6548 42.4997C41.2241 42.4997 42.4997 41.2241 42.4997 39.6548V5.84496C42.4997 4.27558 41.2241 2.99998 39.6548 2.99998H5.84496C4.27558 2.99998 2.99998 4.27558 2.99998 5.84496V39.6548C2.99998 41.2241 4.27558 42.4997 5.84496 42.4997H39.6548Z" fill="#0497F4" stroke="#0497F4"/>
<path d="M58.3445 0.5H92.1543C95.1016 0.5 97.4992 2.89763 97.4992 5.84496V39.6548C97.4992 42.6021 95.1016 44.9997 92.1543 44.9997H58.3445C55.3971 44.9997 52.9995 42.6021 52.9995 39.6548V5.84496C52.9995 2.89763 55.3971 0.5 58.3445 0.5ZM92.1543 42.4997C93.7237 42.4997 94.9993 41.2241 94.9993 39.6548V5.84496C94.9993 4.27558 93.7237 2.99998 92.1543 2.99998H58.3445C56.7751 2.99998 55.4995 4.27558 55.4995 5.84496V39.6548C55.4995 41.2241 56.7751 42.4997 58.3445 42.4997H92.1543Z" fill="#0497F4" stroke="#0497F4"/>
<path d="M5.84496 52.7715H39.6548C42.6021 52.7715 44.9997 55.1691 44.9997 58.1164V91.9262C44.9997 94.8736 42.6021 97.2712 39.6548 97.2712H5.84496C2.89763 97.2712 0.5 94.8736 0.5 91.9262V58.1164C0.5 55.1691 2.89763 52.7715 5.84496 52.7715ZM39.6548 94.7712C41.2241 94.7712 42.4997 93.4956 42.4997 91.9262V58.1164C42.4997 56.5471 41.2241 55.2715 39.6548 55.2715H5.84496C4.27558 55.2715 2.99998 56.5471 2.99998 58.1164V91.9262C2.99998 93.4956 4.27558 94.7712 5.84496 94.7712H39.6548Z" fill="#0497F4" stroke="#0497F4"/>
<path d="M76.4994 73.4994V73.9994H76.9994H96.2492C96.9408 73.9994 97.4992 74.5578 97.4992 75.2494C97.4992 75.941 96.9408 76.4994 96.2492 76.4994H76.9994H76.4994V76.9994V96.2492C76.4994 96.9408 75.941 97.4992 75.2494 97.4992C74.5578 97.4992 73.9994 96.9408 73.9994 96.2492V76.9994V76.4994H73.4994H54.2495C53.5579 76.4994 52.9995 75.941 52.9995 75.2494C52.9995 74.5578 53.5579 73.9994 54.2495 73.9994H73.4994H73.9994V73.4994V54.2495C73.9994 53.5579 74.5578 52.9995 75.2494 52.9995C75.941 52.9995 76.4994 53.5579 76.4994 54.2495V73.4994Z" fill="#0497F4" stroke="#0497F4"/>
</svg>
