<svg width="145" height="145" viewBox="0 0 145 145" fill="none" xmlns="http://www.w3.org/2000/svg">
<rect width="145" height="145" fill="#E9F9E9"/>
<path d="M113.007 76.6369C113.007 75.6347 113.831 74.8223 114.847 74.8223C115.863 74.8223 116.687 75.6347 116.687 76.6369C116.687 93.8407 102.545 107.788 85.1003 107.788C67.6558 107.788 53.5137 93.8407 53.5137 76.6369C53.5137 75.6347 54.3375 74.8223 55.3537 74.8223C56.3699 74.8223 57.1937 75.6347 57.1937 76.6369C57.1937 91.8363 69.6883 104.159 85.1003 104.159C100.512 104.159 113.007 91.8363 113.007 76.6369Z" fill="#FBF0AF"/>
<path fill-rule="evenodd" clip-rule="evenodd" d="M60.6357 76.6369C60.6357 89.9619 71.589 100.764 85.1003 100.764C98.6117 100.764 109.565 89.9619 109.565 76.6369C109.565 75.6347 108.741 74.8223 107.725 74.8223H62.4758C61.4596 74.8223 60.6357 75.6347 60.6357 76.6369ZM105.805 78.4514C104.874 88.922 95.9595 97.1345 85.1007 97.1345C74.2418 97.1345 65.3278 88.922 64.3965 78.4514H105.805Z" fill="#FBF0AF"/>
<path d="M70.7036 94.0733C70.0004 94.7969 68.8356 94.8212 68.102 94.1277C67.3683 93.4343 67.3436 92.2856 68.0468 91.562L83.7716 75.3818C84.4907 74.6418 85.688 74.6356 86.4149 75.368L102.141 91.2117C102.851 91.9279 102.839 93.0768 102.113 93.7779C101.387 94.4789 100.222 94.4667 99.5107 93.7505L85.1139 79.2456L70.7036 94.0733Z" fill="#FBF0AF"/>
<path d="M86.9408 98.9494C86.9408 99.9516 86.117 100.764 85.1008 100.764C84.0846 100.764 83.2607 99.9516 83.2607 98.9494V76.6369C83.2607 75.6347 84.0846 74.8223 85.1008 74.8223C86.117 74.8223 86.9408 75.6347 86.9408 76.6369V98.9494Z" fill="#FBF0AF"/>
<path d="M96.5892 77.418C96.1095 78.3015 94.9944 78.6342 94.0985 78.1611C93.2026 77.688 92.8652 76.5883 93.345 75.7048C94.2878 73.9683 94.9985 72.1498 95.4629 70.2752C95.6462 69.5349 96.2791 68.9864 97.0471 68.9022C98.805 68.7095 100.15 67.2377 100.15 65.4782C100.15 63.7752 98.8856 62.3361 97.194 62.0775C96.4302 61.9607 95.8218 61.3855 95.6712 60.6378C93.1749 48.2448 80.2702 38.9565 64.9658 38.9565C49.6712 38.9565 36.7718 48.2338 34.266 60.6164C34.111 61.3823 33.4766 61.9644 32.6909 62.0618C30.9536 62.277 29.6352 63.7378 29.6352 65.4782C29.6352 67.2731 31.0341 68.7626 32.8371 68.9096C33.6258 68.9739 34.2844 69.5284 34.4727 70.2864C37.094 80.8414 47.3832 89.0684 60.2435 90.7046C61.2514 90.8329 61.963 91.7426 61.833 92.7366C61.7029 93.7305 60.7805 94.4323 59.7726 94.3041C45.9236 92.5421 34.6384 83.815 31.2106 72.2947C28.1655 71.4642 25.9551 68.7137 25.9551 65.4782C25.9551 62.355 28.0184 59.6729 30.9191 58.7483C34.3207 45.1725 48.4627 35.3271 64.9658 35.3271C81.4925 35.3271 95.6498 45.1998 99.0275 58.8039C101.848 59.7763 103.83 62.4184 103.83 65.4782C103.83 68.6515 101.702 71.3673 98.7351 72.2508C98.2088 74.0307 97.4899 75.759 96.5892 77.418Z" fill="#FBF0AF"/>
</svg>
