<svg width="145" height="145" viewBox="0 0 145 145" fill="none" xmlns="http://www.w3.org/2000/svg">
<rect width="145" height="145" transform="matrix(-1 0 0 1 145 0)" fill="#E9F9E9"/>
<path d="M89.597 106.229C83.4538 106.229 77.6345 104.115 73.0005 100.317C72.2146 99.6724 72.0997 98.513 72.7439 97.7271C73.3882 96.9412 74.5475 96.8263 75.3335 97.4705C79.3146 100.734 84.3112 102.549 89.597 102.549C100.807 102.549 110.235 94.3531 111.743 83.4951C111.879 82.5095 112.775 81.8113 113.764 81.9189C113.844 81.9276 113.911 81.9316 113.97 81.9316C114.963 81.9316 115.76 81.1443 115.76 80.1837C115.76 79.2231 114.963 78.4357 113.97 78.4357C113.906 78.4357 113.828 78.4418 113.725 78.4554C112.739 78.5861 111.828 77.9094 111.667 76.9277C109.934 66.308 100.613 58.3881 89.597 58.3881C78.5742 58.3881 69.25 66.3164 67.5238 76.9438C67.3603 77.9499 66.4102 78.6315 65.4048 78.4638C65.2901 78.4446 65.1937 78.4357 65.1086 78.4357C64.1153 78.4357 63.3187 79.2231 63.3187 80.1837C63.3187 81.1443 64.1153 81.9316 65.1086 81.9316C65.1773 81.9316 65.2602 81.9248 65.3663 81.9097C66.3754 81.7656 67.3093 82.4693 67.449 83.479C67.682 85.1629 68.1087 86.8027 68.7182 88.3723C69.0861 89.3197 68.6163 90.3858 67.669 90.7536C66.7217 91.1215 65.6556 90.6517 65.2877 89.7044C64.7609 88.3477 64.3508 86.9461 64.0628 85.5125C61.5451 85.0286 59.6387 82.8304 59.6387 80.1837C59.6387 77.494 61.6075 75.2676 64.1859 74.8326C66.8078 63.1973 77.2998 54.708 89.597 54.708C101.901 54.708 112.399 63.2074 115.013 74.8543C117.532 75.337 119.44 77.5359 119.44 80.1837C119.44 82.7879 117.594 84.9579 115.137 85.4879C112.757 97.4191 102.127 106.229 89.597 106.229Z" fill="#D0E083"/>
<path d="M91.8422 64.9455C91.7812 63.9311 92.5541 63.0593 93.5685 62.9983C93.6074 62.9961 93.6074 62.9961 93.7004 62.9926C94.2878 62.974 95.0475 63.0072 95.923 63.1318C97.2484 63.3205 98.5635 63.6852 99.8091 64.2741C101.202 64.9326 102.432 65.8389 103.439 67.0222C105.972 69.9968 106.691 72.8834 106.542 75.6834C106.54 75.721 106.53 75.8971 106.53 75.8784C106.525 76.8946 105.697 77.714 104.68 77.7086C103.664 77.7033 102.845 76.8751 102.85 75.8589C102.85 75.7926 102.853 75.7342 102.858 75.6524C102.862 75.572 102.862 75.572 102.867 75.4878C102.97 73.5483 102.477 71.5692 100.637 69.4077C99.9839 68.6409 99.1758 68.0454 98.2361 67.6011C97.3505 67.1823 96.386 66.9149 95.4043 66.7751C94.7545 66.6826 94.2038 66.6586 93.8169 66.6708C92.7718 66.7298 91.9032 65.958 91.8422 64.9455Z" fill="#D0E083"/>
<path d="M80.1831 35.4532C87.6701 39.9524 92.2896 47.7653 92.756 56.2913C92.8115 57.306 92.034 58.1736 91.0192 58.2291C90.0045 58.2846 89.137 57.507 89.0814 56.4923C88.6811 49.1737 84.7188 42.4722 78.2877 38.6076C68.823 32.9206 56.6431 34.9582 49.571 43.2561C48.9107 44.0309 47.7466 44.1223 46.9735 43.4599C46.8863 43.3852 46.8086 43.3281 46.7366 43.2848C45.8819 42.7712 44.7698 43.0438 44.2556 43.8894C43.7457 44.7277 44.016 45.8173 44.8674 46.3286C44.9219 46.3615 44.9953 46.3977 45.1006 46.4423C46.0424 46.8415 46.4779 47.9323 46.0699 48.8703C41.6498 59.0324 45.4392 70.9801 55.0641 76.7636C57.3597 78.1429 59.8407 79.0876 62.417 79.5816C63.415 79.773 64.069 80.7372 63.8776 81.7352C63.6862 82.7333 62.722 83.3872 61.724 83.1958C58.7247 82.6207 55.8365 81.521 53.1687 79.918C42.4107 73.4537 37.9087 60.3696 42.1163 48.8506C40.2091 47.1314 39.7276 44.2523 41.1113 41.9773C42.5163 39.6665 45.3662 38.7645 47.8066 39.7235C56.1556 31.0277 69.6198 29.1061 80.1831 35.4532Z" fill="#D0E083"/>
<path d="M57.5574 46.4171C57.0554 47.3007 55.9322 47.61 55.0486 47.108C54.165 46.606 53.8557 45.4828 54.3577 44.5992C54.8348 43.7594 55.7065 42.5815 56.9828 41.4038C58.9342 39.6031 61.2375 38.4221 63.8828 38.2005C66.8117 37.9553 69.3455 38.5662 71.4891 39.7485C72.0575 40.062 72.5605 40.3956 73.0228 40.7483C73.2808 40.9452 73.6745 41.273 73.6239 41.2349C74.436 41.8457 74.5992 42.9993 73.9884 43.8114C73.3776 44.6236 72.224 44.7868 71.4119 44.176C71.3686 44.1435 70.9618 43.8047 70.7904 43.6739C70.4658 43.4262 70.1125 43.192 69.7118 42.971C68.1771 42.1245 66.359 41.6862 64.1899 41.8677C62.449 42.0135 60.8726 42.8219 59.4784 44.1084C58.9165 44.6268 58.426 45.1859 58.0139 45.7427C57.774 46.0669 57.6203 46.3064 57.5574 46.4171Z" fill="#D0E083"/>
<path fill-rule="evenodd" clip-rule="evenodd" d="M56.4836 87.8284C55.4673 87.8284 54.6435 88.6522 54.6435 89.6684C54.6435 90.1741 54.2102 90.5989 53.6576 90.5989C53.105 90.5989 52.6717 90.1741 52.6717 89.6684C52.6717 88.6522 51.8479 87.8284 50.8317 87.8284H30.1975C29.1812 87.8284 28.3574 88.6522 28.3574 89.6684C28.3574 103.396 39.6929 114.509 53.6576 114.509C67.6228 114.509 78.9584 103.396 78.9584 89.6684C78.9584 88.6522 78.1346 87.8284 77.1184 87.8284H56.4836ZM49.3779 91.5081C50.098 93.1417 51.7475 94.2787 53.6579 94.2787C55.5683 94.2787 57.2177 93.1417 57.9378 91.5081H75.1979C74.2454 102.326 64.9725 110.829 53.6579 110.829C42.3437 110.829 33.0709 102.326 32.1184 91.5081H49.3779Z" fill="#D0E083"/>
<path d="M51.3574 92.4291C51.3574 91.4129 52.1812 90.5891 53.1975 90.5891C54.2137 90.5891 55.0375 91.4129 55.0375 92.4291V113.59C55.0375 114.606 54.2137 115.43 53.1975 115.43C52.1812 115.43 51.3574 114.606 51.3574 113.59V92.4291Z" fill="#D0E083"/>
<path d="M50.977 90.2079C51.6956 89.4893 52.8606 89.4893 53.5792 90.2079C54.2978 90.9265 54.2978 92.0915 53.5792 92.8101L38.8589 107.53C38.1403 108.249 36.9753 108.249 36.2567 107.53C35.5381 106.812 35.5381 105.647 36.2567 104.928L50.977 90.2079Z" fill="#D0E083"/>
<path d="M54.6571 92.8101C53.9385 92.0915 53.9385 90.9265 54.6571 90.2079C55.3757 89.4893 56.5407 89.4893 57.2593 90.2079L71.9796 104.928C72.6982 105.647 72.6982 106.812 71.9796 107.53C71.261 108.249 70.096 108.249 69.3774 107.53L54.6571 92.8101Z" fill="#D0E083"/>
</svg>
