<svg width="145" height="145" viewBox="0 0 145 145" fill="none" xmlns="http://www.w3.org/2000/svg">
<rect width="145" height="145" fill="#E8F4FD"/>
<path d="M91.0665 49.8698C90.2172 49.3117 89.9812 48.1708 90.5393 47.3215C91.0975 46.4723 92.2383 46.2363 93.0876 46.7944C103.484 53.6269 109.84 64.9447 109.84 77.3011C109.84 97.7078 92.6458 114.22 71.4719 114.22C50.2986 114.22 33.1045 97.7077 33.1045 77.3011C33.1045 64.5742 39.8492 52.9631 50.7614 46.2178C51.6258 45.6834 52.7597 45.951 53.294 46.8154C53.8284 47.6798 53.5608 48.8137 52.6964 49.3481C42.8488 55.4354 36.7846 65.8749 36.7846 77.3011C36.7846 95.6412 52.2985 110.54 71.4719 110.54C90.6459 110.54 106.16 95.6413 106.16 77.3011C106.16 66.208 100.447 56.0343 91.0665 49.8698Z" fill="#FBB4AF"/>
<path fill-rule="evenodd" clip-rule="evenodd" d="M77.0987 30.8477C73.8592 30.9877 71.4058 31.5496 69.1014 33.2388C66.3596 35.2488 64.7463 38.4704 64.4756 42.9969C61.022 41.8128 57.1251 41.5713 53.0206 42.8301C52.6379 42.9474 52.245 43.0881 51.8422 43.2504C50.9629 43.6047 50.0485 44.0567 49.1135 44.5839C48.3195 45.0316 47.5535 45.509 46.841 45.9867C46.4105 46.2754 46.0892 46.5031 45.9042 46.6401C44.2736 47.8473 45.5105 50.418 47.4714 49.8973C47.5246 49.8831 47.686 49.8388 47.7983 49.808C47.85 49.7937 47.8913 49.7824 47.9069 49.7782C48.0964 49.7267 48.2608 49.6841 48.429 49.6438C49.2238 49.4531 49.9363 49.3562 50.5659 49.3797C51.4725 49.4135 52.0119 49.6739 52.32 50.2222C53.6488 52.5862 55.8551 53.875 58.541 54.1207C57.3134 56.6351 57.8787 59.0619 60.2286 63.2509C61.7385 65.942 63.253 67.9104 64.7143 69.2661C65.671 70.1537 66.4537 70.6486 66.9934 70.8602C68.4221 71.4202 69.8683 70.0882 69.4274 68.6184C69.4086 68.5559 69.3706 68.4204 69.3198 68.2232C69.2325 67.8849 69.1447 67.5065 69.0627 67.0996C68.8433 66.011 68.7073 64.9311 68.694 63.9495C68.6858 63.3395 68.7261 62.7912 68.8161 62.3219C69.0382 61.1635 69.0744 61.1273 69.8957 60.8591C70.6511 60.6125 70.9385 60.5034 71.4149 60.2343C72.242 59.7655 72.8986 59.09 73.3707 58.289C76.1331 60.8767 79.8186 62.6947 82.785 62.7635C84.1851 62.7959 85.1068 61.3146 84.459 60.0729C83.5358 58.303 82.8431 55.7918 82.6151 53.9668C85.2063 54.0682 87.448 53.7841 89.4257 52.9296C92.9381 51.4118 94.9124 48.2595 94.8731 43.5226C94.8601 41.9543 93.0169 41.1202 91.8302 42.1455C89.3913 44.2527 88.5518 44.3232 85.1984 43.1202C82.9257 42.3048 80.3272 42.04 77.884 42.365C78.3145 40.9202 78.1156 39.5315 77.4744 37.5015C76.9019 35.6869 77.2958 34.6832 77.9986 34.333C79.7767 33.4471 79.0834 30.7619 77.0987 30.8477ZM68.1538 45.7246C67.8752 40.7983 69.0566 37.8349 71.2772 36.207C71.9833 35.6894 72.7445 35.3194 73.6027 35.0588C73.4558 36.124 73.56 37.3256 73.9651 38.6095C74.792 41.2275 74.7203 41.5043 72.1086 44.7017C70.7554 46.3584 72.8417 48.6012 74.5918 47.3711C76.9189 45.7354 80.8793 45.4805 83.9558 46.5842C86.7072 47.5713 88.6046 47.885 90.4796 47.2745C89.1305 49.9685 85.8907 50.6669 80.9385 50.1564C79.9588 50.0554 79.0732 50.7439 78.9295 51.7183C78.7011 53.2674 79.061 55.8139 79.7971 58.2548C77.5647 57.2241 75.2213 55.347 73.9303 53.2691C72.8879 51.5912 70.294 52.5112 70.5419 54.471C70.6869 55.6174 70.2763 56.6497 69.5989 57.0337C69.4164 57.1368 69.2705 57.1922 68.7535 57.361C66.734 58.0204 65.6947 59.0585 65.2019 61.6291C65.0626 62.3557 65.0041 63.1396 65.014 63.9746C64.4993 63.2417 63.9726 62.403 63.4382 61.4505C60.8582 56.8514 60.9373 56.2236 63.8248 53.1774C65.0988 51.8334 63.8131 49.6615 62.022 50.1319C58.8609 50.962 56.6021 50.3301 55.5282 48.4193C55.0517 47.5714 54.416 46.9372 53.66 46.4952C53.8107 46.4411 53.9574 46.3922 54.0996 46.3486C57.4961 45.307 60.7036 45.543 63.5317 46.5661C64.0599 46.7572 64.5256 46.9603 64.9217 47.1605C65.1444 47.2731 65.2846 47.353 65.3352 47.3849C66.6003 48.1827 68.2382 47.2179 68.1538 45.7246Z" fill="#FBB4AF"/>
<path d="M69.9811 49.64C70.2374 50.6233 69.6481 51.6283 68.6647 51.8847C67.6813 52.141 66.6764 51.5516 66.42 50.5683C66.4008 50.4947 66.3503 50.3233 66.2652 50.0684C66.117 49.6245 65.9277 49.1249 65.6943 48.584C65.0242 47.0308 64.1412 45.4763 63.0253 44.0325C59.6252 39.6335 54.8626 37.181 48.3255 37.5947C47.3113 37.6589 46.4371 36.8887 46.3729 35.8745C46.3087 34.8603 47.0788 33.9861 48.093 33.922C55.9254 33.4263 61.8281 36.4659 65.937 41.782C67.2548 43.4869 68.288 45.3059 69.0733 47.1262C69.5494 48.2296 69.8414 49.1043 69.9811 49.64Z" fill="#FBB4AF"/>
</svg>
