<svg width="145" height="145" viewBox="0 0 145 145" fill="none" xmlns="http://www.w3.org/2000/svg">
<rect width="145" height="145" fill="#FDECEA"/>
<path fill-rule="evenodd" clip-rule="evenodd" d="M77.5557 47.3587C77.3098 47.2797 76.9377 47.1786 76.4666 47.0802C75.9391 46.9701 75.3877 46.8866 74.8818 46.8464C74.0105 46.7464 73.0936 46.6968 72.1293 46.6968C71.1452 46.6968 70.2124 46.7493 69.3243 46.8556C69.2107 46.8699 69.0398 46.8931 68.8227 46.9255C68.4604 46.9796 68.0971 47.0406 67.7522 47.1084C67.3416 47.1891 66.9816 47.2743 66.732 47.3524C65.4344 47.7066 64.2509 48.209 63.1768 48.8642C60.6613 47.8818 57.7954 47.6561 54.3599 48.1278C49.434 48.8035 45.9607 50.5764 43.6105 53.7089C40.5649 57.7712 39.7625 63.8142 40.9993 72.1308C42.5767 82.7376 45.1681 92.4115 48.3184 99.4064C50.1973 103.58 52.2802 106.816 54.5427 109.03C56.9829 111.419 59.6806 112.672 62.534 112.672C62.9779 112.672 63.4246 112.642 63.8756 112.58C64.7413 112.461 65.5738 112.231 66.3647 111.892C68.1085 113.157 70.0489 113.811 72.1293 113.811C74.2185 113.811 76.1626 113.156 77.9075 111.886C78.7032 112.229 79.5397 112.461 80.4091 112.58C80.8586 112.642 81.3054 112.672 81.7499 112.672C84.6032 112.672 87.2992 111.419 89.7401 109.03C92.0026 106.816 94.0856 103.58 95.9646 99.4066C99.1158 92.409 101.708 82.7342 103.284 72.1307C104.521 63.8142 103.718 57.7712 100.672 53.7087C98.3236 50.5766 94.8496 48.8036 89.9237 48.1279C86.4827 47.6548 83.606 47.8838 81.0869 48.8728C80.0182 48.2167 78.8437 47.7137 77.5557 47.3587ZM72.1295 50.376C72.9572 50.376 73.7344 50.4181 74.5228 50.5076C74.9278 50.5406 75.3296 50.6013 75.7143 50.6817C76.0718 50.7564 76.3296 50.828 76.4473 50.8671C77.7932 51.2366 78.8671 51.7482 79.8059 52.4431L80.7074 53.1103L81.7135 52.6148C83.749 51.6124 86.1978 51.3295 89.4233 51.7729C93.4411 52.324 96.0233 53.6419 97.7284 55.9156C100.072 59.0411 100.75 64.1509 99.644 71.5887C98.1142 81.8804 95.6077 91.2363 92.6092 97.8948C90.9042 101.682 89.0616 104.545 87.1665 106.399C85.3739 108.153 83.571 108.992 81.7501 108.992C81.4736 108.992 81.193 108.972 80.9076 108.933C80.0938 108.822 79.3338 108.553 78.6269 108.127L77.4545 107.42L76.4407 108.34C75.1076 109.549 73.6879 110.13 72.1295 110.13C70.581 110.13 69.1623 109.55 67.8288 108.345L66.8159 107.43L65.6462 108.134C64.9463 108.555 64.1894 108.821 63.3766 108.933C63.0906 108.972 62.81 108.992 62.5343 108.992C60.7129 108.992 58.9085 108.153 57.117 106.4C55.2218 104.545 53.3793 101.682 51.6742 97.8946C48.6766 91.2387 46.1706 81.8836 44.6396 71.5886C43.5335 64.1509 44.212 59.0411 46.5548 55.9161C48.2611 53.6417 50.8428 52.324 54.8605 51.7728C58.0806 51.3307 60.5186 51.6097 62.5539 52.6054L63.5551 53.0953L64.4529 52.4348C65.384 51.7497 66.4558 51.2417 67.7596 50.8848C67.9234 50.8342 68.1674 50.7764 68.4619 50.7186C68.7453 50.6629 69.0552 50.6108 69.3661 50.5644C69.5474 50.5374 69.6877 50.5182 69.7657 50.5084C69.7663 50.5083 69.7669 50.5082 69.7674 50.5081C70.5044 50.4201 71.2898 50.376 72.1295 50.376Z" fill="#FFB7AD"/>
<path d="M82.0684 49.542L79.7325 52.3857C83.2677 55.2895 85.138 64.7795 84.5417 78.4464C84.0399 89.9655 80.5347 100.929 76.0761 108.795L79.2777 110.61C84.0072 102.265 87.6893 90.7487 88.2183 78.6067C88.8628 63.8349 86.8142 53.4401 82.0684 49.542Z" fill="#FFB7AD"/>
<path d="M64.5369 52.3857L62.2011 49.542C57.4553 53.4401 55.4067 63.8349 56.0511 78.6066C56.5802 90.7487 60.2623 102.265 64.9917 110.61L68.1934 108.795C63.7348 100.929 60.2296 89.9655 59.7277 78.4463C59.1315 64.7795 61.0018 55.2895 64.5369 52.3857Z" fill="#FFB7AD"/>
<path d="M71.0449 39.4931C72.5217 42.7374 73.3489 45.8684 73.5205 48.8163L77.1943 48.6025C76.9952 45.1804 76.0518 41.6098 74.3942 37.9682C72.1465 33.0321 67.1453 29.8506 61.6523 29.8506H60.1548C58.2504 29.8506 56.7034 31.3971 56.7034 33.302C56.7034 35.2062 58.2506 36.7534 60.1548 36.7534H61.1485C63.7201 36.7534 65.5092 38.6079 65.9159 41.6506C66.2366 44.0525 66.4225 46.4374 66.4702 48.7571L70.1495 48.6813C70.0989 46.2227 69.9023 43.7005 69.5635 41.1633C69.1515 38.0803 67.6531 35.5936 65.4065 34.2264C67.8765 35.1757 69.9291 37.0427 71.0449 39.4931Z" fill="#FFB7AD"/>
</svg>
