<svg width="145" height="145" viewBox="0 0 145 145" fill="none" xmlns="http://www.w3.org/2000/svg">
<rect width="145" height="145" fill="#FEF8E7"/>
<path fill-rule="evenodd" clip-rule="evenodd" d="M97.8468 44.6111C97.7834 44.5665 97.7206 44.521 97.6253 44.4532C97.5267 44.3829 97.439 44.3181 97.3612 44.2607C97.2479 44.1771 97.1558 44.1091 97.0821 44.0624C96.7752 43.4244 96.5489 41.6548 96.4851 39.3064C96.4441 37.7991 96.4663 36.1738 96.5284 34.5954C96.5423 34.2409 96.5572 33.9179 96.5721 33.6331C96.5809 33.464 96.5877 33.3466 96.5914 33.2875C96.6352 32.5873 96.277 31.9231 95.6679 31.5751C95.611 31.5426 95.5077 31.4842 95.3633 31.4036C95.1251 31.2706 94.8567 31.1228 94.5633 30.9638C93.7249 30.5095 92.8516 30.0551 91.9848 29.6295C91.5755 29.4286 91.1764 29.2384 90.7898 29.0607C89.5919 28.5103 88.5484 28.0945 87.68 27.8412C82.9072 26.4491 76.1902 34.4162 79.8734 38.9353C89.0963 50.25 88.3526 61.9501 80.1026 76.9375C74.8033 86.565 60.3697 92.737 46.214 94.5996C38.4707 95.6185 33.1413 97.9445 29.1818 101.215C28.76 101.564 28.2758 101.862 27.7384 102.111C26.9284 102.486 26.0403 102.733 25.1488 102.871C24.6184 102.953 24.2202 102.979 24.0286 102.979C22.978 102.979 22.1406 103.857 22.1906 104.907L22.5356 112.152C22.5559 112.578 22.7234 112.983 23.0095 113.299C23.358 113.684 24.0174 114.282 25.0223 115.019C26.6355 116.2 28.6629 117.37 31.1373 118.454C36.023 120.593 42.068 122.142 49.3779 122.866C71.0367 125.009 88.1547 120.226 100.018 109.863C110.209 100.962 115.903 88.2993 116.374 75.3303C116.764 64.592 112.972 56.6802 106.196 50.6151C104.245 48.8682 102.429 47.5642 99.7509 45.8454C98.2789 44.9007 98.0595 44.7607 97.8468 44.6111ZM83.3267 78.7121C79.9552 84.8373 73.7123 89.59 65.4859 93.1078C59.3829 95.7175 52.4816 97.4867 46.6942 98.2482C39.6372 99.1768 34.9534 101.221 31.5257 104.053C30.85 104.611 30.0982 105.073 29.2859 105.45C28.2101 105.948 27.0801 106.276 25.9494 106.469L26.1766 111.239C26.4574 111.484 26.7968 111.756 27.1974 112.05C28.594 113.073 30.3871 114.108 32.6134 115.083C37.1399 117.064 42.8091 118.517 49.7404 119.203C70.4329 121.251 86.5393 116.75 97.5973 107.091C107 98.8783 112.261 87.1782 112.697 75.1967C113.045 65.6167 109.743 58.729 103.742 53.3571C101.968 51.7692 100.29 50.5643 97.7634 48.9425C94.4389 46.8089 94.2866 46.7003 93.7993 45.7258C93.159 44.445 92.886 42.3317 92.8065 39.4064C92.7631 37.8065 92.7863 36.1042 92.8513 34.4508C92.0123 33.767 91.1815 33.3348 90.363 32.9329C89.9809 32.7453 89.6101 32.5686 89.2533 32.4046C88.2052 31.923 87.3132 31.5675 86.6497 31.374C86.1877 31.2393 84.6999 32.0249 83.5947 33.3358C82.4388 34.7068 82.1782 35.938 82.7261 36.6102C93.0669 49.2964 92.2245 62.5478 83.3267 78.7121ZM97.082 44.0627L97.0906 44.0803L97.0743 44.0476L97.082 44.0627Z" fill="#FFEE86"/>
<path d="M29.1819 104.053C28.3984 103.406 28.2879 102.246 28.9352 101.462C29.5824 100.679 30.7422 100.568 31.5256 101.216C31.9384 101.557 32.4591 102.15 32.951 103.018C34.0155 104.898 34.4685 107.293 34.011 110.169C33.8513 111.172 32.9083 111.856 31.9047 111.697C30.9011 111.537 30.2169 110.594 30.3766 109.59C30.7015 107.548 30.4077 105.995 29.749 104.832C29.595 104.56 29.4349 104.338 29.2823 104.164C29.2092 104.081 29.1708 104.044 29.1819 104.053Z" fill="#FFEE86"/>
<path d="M38.3256 110.445C37.315 110.338 36.5823 109.432 36.689 108.422C36.7958 107.411 37.7016 106.678 38.7122 106.785C38.7962 106.794 38.9709 106.81 39.2305 106.832C39.6706 106.869 40.184 106.907 40.7648 106.941C48.3584 107.397 56.9639 107.01 65.0669 105.15C76.1942 102.595 84.2496 97.649 88.0827 89.8618C88.5315 88.9501 89.6344 88.5748 90.5461 89.0236C91.4579 89.4723 91.8332 90.5753 91.3844 91.487C86.9767 100.442 77.9924 105.958 65.8904 108.737C57.3899 110.689 48.4582 111.09 40.5444 110.615C39.9335 110.578 39.3906 110.539 38.9215 110.499C38.6356 110.475 38.4351 110.456 38.3256 110.445Z" fill="#FFEE86"/>
</svg>
