<?xml version="1.0" encoding="utf-8"?>
<!-- Generator: Adobe Illustrator 22.1.0, SVG Export Plug-In . SVG Version: 6.00 Build 0)  -->
<svg version="1.1" id="Layer_1" xmlns="http://www.w3.org/2000/svg" xmlns:xlink="http://www.w3.org/1999/xlink" x="0px" y="0px"
	 width="145px" height="143px" viewBox="0 0 145 143" style="enable-background:new 0 0 145 143;" xml:space="preserve">
<style type="text/css">
	.st0{fill:#F3FFF7;}
	.st1{fill:#FFB3B3;}
</style>
<rect class="st0" width="145" height="143"/>
<g>
	<path class="st1" d="M63.5,74.1c0-1.4-1.1-2.6-2.6-2.6c-1.4,0-2.6,1.1-2.6,2.6c0,1.4,1.1,2.6,2.6,2.6
		C62.3,76.7,63.5,75.5,63.5,74.1z"/>
	<path class="st1" d="M78.9,72.4c-1.4,0-2.6,1.1-2.6,2.6c0,1.4,1.1,2.6,2.6,2.6c1.4,0,2.6-1.1,2.6-2.6
		C81.4,73.5,80.3,72.4,78.9,72.4z"/>
	<path class="st1" d="M72,98.9c-1.4,0-2.6,1.1-2.6,2.6c0,1.4,1.1,2.6,2.6,2.6c1.4,0,2.6-1.1,2.6-2.6C74.6,100,73.5,98.9,72,98.9z"/>
	<path class="st1" d="M90.8,68.1c-1.4,0-2.6,1.1-2.6,2.6c0,1.4,1.1,2.6,2.6,2.6c1.4,0,2.6-1.1,2.6-2.6
		C93.4,69.3,92.3,68.1,90.8,68.1z"/>
	<path class="st1" d="M78,91.2c-1.4,0-2.6,1.1-2.6,2.6c0,1.4,1.1,2.6,2.6,2.6c1.4,0,2.6-1.1,2.6-2.6C80.6,92.3,79.4,91.2,78,91.2z"
		/>
	<path class="st1" d="M65.2,90.3c-1.4,0-2.6,1.1-2.6,2.6c0,1.4,1.1,2.6,2.6,2.6c1.4,0,2.6-1.1,2.6-2.6
		C67.8,91.5,66.6,90.3,65.2,90.3z"/>
	<path class="st1" d="M54.9,66.4c0-1.4-1.1-2.6-2.6-2.6c-1.4,0-2.6,1.1-2.6,2.6c0,1.4,1.1,2.6,2.6,2.6C53.8,69,54.9,67.8,54.9,66.4z
		"/>
	<path class="st1" d="M72,62.1c-1.4,0-2.6,1.1-2.6,2.6c0,1.4,1.1,2.6,2.6,2.6c1.4,0,2.6-1.1,2.6-2.6C74.6,63.3,73.5,62.1,72,62.1z"
		/>
	<path class="st1" d="M85.7,81.8c-1.4,0-2.6,1.1-2.6,2.6c0,1.4,1.1,2.6,2.6,2.6c1.4,0,2.6-1.1,2.6-2.6
		C88.3,82.9,87.1,81.8,85.7,81.8z"/>
	<path class="st1" d="M72.9,83.5c0-1.4-1.1-2.6-2.6-2.6c-1.4,0-2.6,1.1-2.6,2.6c0,1.4,1.1,2.6,2.6,2.6
		C71.7,86.1,72.9,84.9,72.9,83.5z"/>
	<path class="st1" d="M56.7,81.8c-1.4,0-2.6,1.1-2.6,2.6c0,1.4,1.1,2.6,2.6,2.6c1.4,0,2.6-1.1,2.6-2.6
		C59.2,82.9,58.1,81.8,56.7,81.8z"/>
	<path class="st1" d="M106.2,47.8c-0.1-0.1-0.4-0.2-0.8-0.4c-0.6-0.3-1.4-0.7-2.2-1.1c-2.4-1.1-5-2.2-7.9-3.3
		c-7.1-2.6-14.4-4.3-21.6-4.7c0-0.5,0.1-1.1,0.2-1.6c0.3-2,0.9-3.9,1.9-5.7c0.8-1.6,1.9-3.1,3.3-4.3c0.7-0.6,0.8-1.7,0.1-2.4
		s-1.7-0.8-2.4-0.1c-1.7,1.5-3,3.3-4.1,5.3c-1.1,2.2-1.8,4.4-2.2,6.7c-0.1,0.8-0.2,1.5-0.2,2.2c-7.2,0.4-14.5,2.1-21.6,4.7
		c-2.9,1-5.5,2.2-7.9,3.3c-0.8,0.4-1.6,0.8-2.2,1.1c-0.4,0.2-0.7,0.3-0.8,0.4c-0.9,0.5-1.2,1.7-0.5,2.6c0.2,0.2,0.4,0.5,0.8,0.8
		c0.6,0.5,1.3,1,2.3,1.4c0.2,0.1,0.4,0.2,0.6,0.3c-0.3,0.6-0.7,1.2-1,1.9c-2,4.5-2.8,10.2-1.9,17.3c0.9,7.1,2.8,12.2,6.2,17.1
		c0.3,0.5,1.1,1.6,1.8,2.6c0.8,1.1,1.5,2.2,1.8,2.6c0.5,0.8,0.9,1.5,1.3,2.2c2.4,5,4.1,8,7,10.9c4.1,4.3,9.3,6.7,15.8,6.7
		c6.5,0,11.7-2.4,15.8-6.7c2.9-3,4.6-5.9,7-10.9c0.3-0.7,0.7-1.4,1.3-2.2c0.3-0.4,1-1.5,1.8-2.6l0,0c0.8-1.1,1.5-2.2,1.8-2.6
		c3.3-5,5.3-10,6.2-17.1c0.9-7.1,0-12.9-1.9-17.3c-0.3-0.7-0.6-1.4-1-1.9c0.2-0.1,0.4-0.2,0.6-0.3c0.9-0.4,1.7-0.9,2.3-1.4
		c0.4-0.3,0.7-0.6,0.8-0.8C107.4,49.5,107.1,48.3,106.2,47.8z M90.3,44.8c7.4,2.7,11.5,4.8,11.5,4.8s-5.1,2.3-11.1,0.2
		c-3.3-1.1-12.2-7.4-12.2-7.4S85.3,42.9,90.3,44.8z M83.4,50.7L83.4,50.7L83.4,50.7L83.4,50.7c0.4,0.4,0.7,0.6,0.7,0.6
		c0.1,0.1,0.2,0.1,0.2,0.2c0.1,0.1,0.1,0.2,0.2,0.3c0.1,0.1,0.2,0.3,0.5,0.6c0.4,0.5,0.7,1,1.1,1.6c0.3,0.6,0.6,1.1,0.9,1.7
		c0.2,0.3,0.3,0.8,0.3,1.2c0.1,0.6,0.1,1.2,0.1,1.8c-0.4,0-0.8-0.1-1.2-0.2c-1.7-0.3-3.4-0.9-4.9-1.7c-0.5-0.3-1-0.6-1.5-1
		c-3.5-2.7-5.4-6.6-5.9-12.5C77.4,45.8,81.7,49.3,83.4,50.7z M42.3,49.3c2.3-1.1,4.8-2.1,7.6-3.2c5.3-1.9,10.7-3.3,16.1-4
		c-3.4,2.6-6.9,5.4-7.8,6.2l0,0l0,0l0,0h0c-0.1,0.1-0.2,0.2-0.2,0.2c-2.5,1.8-4.7,2.5-7.8,2.5c-3.5,0-6.2-0.6-8.2-1.5
		C42.1,49.4,42.2,49.4,42.3,49.3z M70.2,43.3c-0.5,5.9-2.4,9.8-5.9,12.5c-0.5,0.4-1,0.7-1.5,1c-1.5,0.9-3.2,1.4-4.9,1.7
		c-0.4,0.1-0.8,0.1-1.2,0.2c0-0.6,0-1.2,0.1-1.8c0.1-0.5,0.2-0.9,0.3-1.2c0.2-0.5,0.5-1.1,0.9-1.7c0.3-0.6,0.7-1.1,1.1-1.6
		c0.2-0.3,0.4-0.5,0.5-0.6c0.1-0.1,0.1-0.2,0.2-0.3c0.1-0.1,0.2-0.1,0.2-0.2c0,0,0.3-0.2,0.7-0.6l0,0l0,0l0,0l0,0l0,0
		C62.4,49.3,66.7,45.8,70.2,43.3z M102.5,71.7c-0.8,6.6-2.6,11.1-5.6,15.7c-0.3,0.4-1,1.4-1.7,2.4l0,0c-0.8,1.2-1.7,2.3-2,2.8
		c-0.6,0.9-1.1,1.7-1.5,2.6c-2.2,4.7-3.8,7.4-6.4,10c-3.5,3.6-7.8,5.6-13.3,5.6c-5.5,0-9.8-2-13.3-5.6c-2.5-2.6-4.2-5.3-6.4-10
		c-0.4-0.8-0.9-1.7-1.5-2.6c-0.3-0.5-1.1-1.7-2-2.8l0,0l0,0l0,0l0,0l0,0l0,0c-0.7-1-1.4-2-1.7-2.4c-3-4.6-4.8-9.1-5.6-15.7
		c-0.8-6.5,0-11.7,1.7-15.6c0.4-0.9,0.8-1.6,1.2-2.2c1.7,0.4,3.6,0.6,5.8,0.6c1.4,0,2.7-0.1,3.9-0.4c0,0.1-0.1,0.2-0.1,0.2
		c-0.3,0.6-0.5,1.3-0.6,2c-0.2,1.2-0.2,2.5-0.1,3.7c0,0.3,0.1,0.5,0.1,0.6c0.1,0.8,0.8,1.4,1.6,1.4l0,0c0,0,0,0,0.1,0
		c0.9,0,2,0,3.3-0.3c2.1-0.4,4.1-1,6-2.1c0.6-0.4,1.3-0.8,1.8-1.2c2.7-2,4.5-4.6,5.7-7.8c1.2,3.2,3.1,5.8,5.7,7.8
		c0.6,0.4,1.2,0.9,1.8,1.2c1.9,1.1,4,1.8,6,2.1c1.3,0.2,2.5,0.3,3.3,0.3h0h0h0c0.1,0,0.1,0,0.1,0c0.8,0,1.5-0.6,1.6-1.4
		c0-0.1,0-0.4,0.1-0.6c0.1-1.2,0.1-2.5-0.1-3.7c-0.1-0.7-0.3-1.4-0.6-2c0-0.1-0.1-0.2-0.1-0.2c1.2,0.3,2.5,0.4,3.9,0.4
		c2.1,0,4.1-0.2,5.8-0.6c0.4,0.6,0.8,1.4,1.2,2.2C102.5,60,103.3,65.2,102.5,71.7z"/>
</g>
</svg>
