<?xml version="1.0" encoding="utf-8"?>
<!-- Generator: Adobe Illustrator 22.1.0, SVG Export Plug-In . SVG Version: 6.00 Build 0)  -->
<svg version="1.1" id="Layer_1" xmlns="http://www.w3.org/2000/svg" xmlns:xlink="http://www.w3.org/1999/xlink" x="0px" y="0px"
	 width="145px" height="145px" viewBox="0 0 145 145" style="enable-background:new 0 0 145 145;" xml:space="preserve">
<style type="text/css">
	.st0{fill:#E8F4FD;}
	.st1{fill:#E2D8D8;}
</style>
<rect class="st0" width="145" height="145"/>
<path class="st1" d="M94.6,59.5c-2.6-2.9-10-10.1-10.2-10.3c-1-1-1.7-2.2-2-3.4c-0.6-2-0.5-4.1,0.1-6.8c0.1-0.4,0.4-1.5,0.4-1.7
	c0.2-0.7,0.2-1.2,0.2-1.7c-0.2-1.9-1.7-2.6-3.8-2.8c-0.3,0-0.6-0.1-0.9-0.1c0.1-0.6-0.2-1.3-0.7-1.7c-0.3-0.3-0.9-0.6-1.7-0.9
	c-1.3-0.5-2.7-0.8-4.2-0.8c-1.6,0-3.1,0.4-4.6,0.9c-0.9,0.3-1.5,0.7-1.9,1c-0.5,0.3-0.8,0.9-0.8,1.5c-0.3,0-0.6,0-0.9,0.1
	c-2.1,0.2-3.6,0.9-3.8,2.8c0,0.5,0,0.9,0.2,1.7c0,0.2,0.3,1.3,0.4,1.7c0.6,2.7,0.7,4.8,0.1,6.8c-0.4,1.2-1,2.4-2,3.4
	c-0.3,0.2-7.6,7.4-10.2,10.3c-7.9,8.7-12.4,16.9-12.4,25.3c0,9.7,3.9,16.6,10.3,20.3c4.3,2.5,9.5,3.2,13,2.1v5.3
	c0,1,0.8,1.8,1.8,1.8c1,0,1.8-0.8,1.8-1.8v-4.6c0.5,0.2,0.9,0.3,1.4,0.4v4.1c0,1,0.8,1.8,1.8,1.8s1.8-0.8,1.8-1.8V109
	c0.5,0.1,0.9,0.1,1.4,0.1v3.3c0,1,0.8,1.8,1.8,1.8c1,0,1.8-0.8,1.8-1.8v-3.3c0.5,0,0.9-0.1,1.4-0.1v3.4c0,1,0.8,1.8,1.8,1.8
	c1,0,1.8-0.8,1.8-1.8v-4c0.5-0.1,1-0.3,1.4-0.4v4.4c0,1,0.8,1.8,1.8,1.8c1,0,1.8-0.8,1.8-1.8V107c3.5,1.3,9,0.6,13.4-2
	c6.4-3.7,10.3-10.6,10.3-20.3C107,76.4,102.5,68.2,94.6,59.5z M68.5,33.6c1.1-0.4,2.1-0.7,3.2-0.7c1,0,1.9,0.2,2.8,0.5
	c-0.1,0.8-0.3,1.6-0.4,2.4c-0.3,1.7-0.5,3.4-0.6,5c-0.1,1.9-0.1,3.7,0,5.1c0.4,3.5,2.3,7.6,9.1,20.3l0.3,0.6c1.6,3,2.6,4.9,3.5,6.8
	c2.6,5.2,3.6,13.4,1.9,19.7c-2,7.7-7.5,12.1-16.9,12.1c-9.4,0-14.6-4.2-16.4-11.6c-1.5-6.1-0.5-14.3,2.1-21.2
	c1.2-3.2,2.7-6.1,4.8-9.3c0.5-0.8,1.1-1.6,1.8-2.7c0.1-0.2,0.3-0.4,0.4-0.7l0.4-0.6c0.3-0.5,0.6-0.9,0.8-1.3c1.4-2,2.2-3.5,2.9-5
	c1.2-2.5,1.8-4.8,1.7-7.2c-0.1-3.5-0.5-6.7-1.1-9.5c-0.2-1.1-0.4-2-0.6-2.7C68.5,33.7,68.5,33.6,68.5,33.6z M48,101.9
	c-5.3-3-8.5-8.7-8.5-17.1c0-7.2,4.1-14.7,11.4-22.8c2.7-3,10.8-10.9,10.1-10.2c1.4-1.5,2.4-3.1,3-5c0.8-2.8,0.7-5.5-0.1-8.7
	c-0.1-0.4-0.3-1.3-0.4-1.6c0.1,0,0.3,0,0.4-0.1c0.4-0.1,0.9-0.1,1.4,0c0.1,0.3,0.1,0.5,0.2,0.8c0.5,2.7,0.9,5.6,1,8.9
	c0.1,1.8-0.4,3.5-1.3,5.5c-0.6,1.3-1.4,2.7-2.7,4.6c-0.2,0.4-0.5,0.7-0.8,1.2L61.2,58c-0.2,0.3-0.3,0.5-0.4,0.7
	c-0.7,1.1-1.3,1.9-1.8,2.8c-2.2,3.4-3.8,6.5-5.1,10C51,79,49.9,87.8,51.6,94.8c0.9,3.7,2.6,6.8,5,9.2
	C54.1,104.1,50.8,103.5,48,101.9z M94.8,101.9c-2.8,1.6-6,2.2-8.4,2.1c2.6-2.5,4.4-5.7,5.5-9.6c1.9-7.2,0.8-16.3-2.2-22.3
	c-1-1.9-2-3.9-3.6-6.9l-0.3-0.6c-6.4-11.9-8.4-16.1-8.7-18.9c-0.1-1.2-0.1-2.7,0-4.4c0.1-1.5,0.3-3.1,0.6-4.7c0-0.1,0-0.1,0-0.2
	c0.4,0,0.8,0,1.1,0.1c0.1,0,0.3,0,0.4,0.1c-0.1,0.3-0.3,1.3-0.4,1.6c-0.8,3.2-0.9,5.9-0.1,8.7c0.6,1.8,1.5,3.5,3,5
	C81,51,89.2,58.9,91.9,61.9c7.3,8.1,11.4,15.6,11.4,22.8C103.3,93.1,100.1,98.8,94.8,101.9z"/>
</svg>
