<?xml version="1.0" encoding="utf-8"?>
<!-- Generator: Adobe Illustrator 22.1.0, SVG Export Plug-In . SVG Version: 6.00 Build 0)  -->
<svg version="1.1" id="Layer_1" xmlns="http://www.w3.org/2000/svg" xmlns:xlink="http://www.w3.org/1999/xlink" x="0px" y="0px"
	 width="145px" height="145px" viewBox="0 0 145 145" style="enable-background:new 0 0 145 145;" xml:space="preserve">
<style type="text/css">
	.st0{fill:#FDECEA;}
	.st1{fill:#FFC68D;}
</style>
<rect class="st0" width="145" height="145"/>
<path class="st1" d="M119.3,47.7c-0.2-0.2-0.4-0.4-0.7-0.6c0.1-1,0.1-2.1-0.2-3.2c-0.3-1-0.8-1.9-1.5-2.6c-1.8-1.8-4.3-2.2-6.3-1.6
	c0.9-2.4,0.4-5.5-1.8-7.7c-0.9-0.9-2-1.5-3.1-1.8c-1.4-0.4-2.8-0.4-4.2-0.2c-0.2-0.3-0.4-0.5-0.6-0.7c-4.2-4.2-9.8-4.8-13.2-1.4
	c-2.7,2.7-2.9,6-0.8,8.1c1.1,1.1,2.4,1.9,3.7,2.1c0.3,0.9,0.9,1.8,1.7,2.9c2.1,2.6,3.3,5.4,2.7,7.5c-0.6,2-1.9,4.1-3.6,6.1l-0.3,0.3
	c-4.8-4.4-9.2-6.3-13.4-5.8c-3.5,0.4-6.3,2.2-9.5,5.6c-0.3,0.3-0.6,0.6-0.9,1c-0.2,0.2-0.9,1-0.9,0.9C61.4,62,48.9,78.6,44.1,86.4
	c-6,9.7-13.5,25.2-13.3,28.8c0.1,1.4,1.1,2.5,2.7,2.4c3.9-0.2,19.5-7.8,28.5-13.3c7.8-4.8,24.5-17.3,30.1-22.4
	C92,82,92.8,81.3,93,81.1c0.4-0.3,0.7-0.6,1-0.9c3.3-3.2,5.2-6,5.6-9.5c0.5-4.1-1.4-8.5-5.8-13.3l0.3-0.3c2-1.7,4.1-3,6.1-3.6
	c2.1-0.6,4.9,0.6,7.5,2.7c1,0.8,1.9,1.4,2.8,1.7l0,0.1l0.1,0.1c0.2,1.3,1,2.5,2,3.6c2.1,2.1,5.4,1.9,8.1-0.8
	C124.1,57.4,123.5,51.8,119.3,47.7z M95.9,70.2c-0.3,2.5-1.7,4.6-4.5,7.2c-0.3,0.3-0.6,0.5-0.9,0.9c-0.1,0.1-0.4,0.4-0.6,0.6
	L79.4,68.4L76.8,71l10.3,10.3c-4.9,4.1-13.2,10.4-20,15.1l-7.9-7.9l-2.6,2.6l7.4,7.4c-1.5,1-2.9,1.9-4,2.6
	c-7.5,4.6-20.4,10.9-25.3,12.5c1-3.3,4.4-10.7,8.1-17.5l5.4,5.4l1.3-1.3l-5.8-5.8c1.2-2.2,2.4-4.2,3.5-6.1c2.4-3.9,6.7-10,11.1-15.8
	l8.8,8.8l2.6-2.6l-9.2-9.2c3.5-4.5,6.7-8.6,8.7-10.8c0,0,0.7-0.7,0.8-0.9c0.3-0.4,0.6-0.7,0.9-0.9c2.6-2.8,4.8-4.2,7.2-4.5
	c3.2-0.4,7,1.4,11.7,6.1C94.5,63.2,96.3,67,95.9,70.2z M90.6,37.9C90.6,37.9,90.6,37.9,90.6,37.9L90.6,37.9
	C90.6,37.9,90.6,37.9,90.6,37.9z M99.8,46.1c-0.1,0.1-0.2,0.1-0.3,0.2L98.9,47c0-2.8-1.5-5.7-3.6-8.5c-0.3-0.3-0.5-0.6-0.6-0.8
	c-0.1-0.4-0.2-0.7-0.3-1c0,0,0.1-0.1,0.2-0.2c-0.1,0.1-0.1,0.1-0.2,0.1c-1.2-2.9-4.6-4-5.1-4.2c-0.1-0.6,0.2-1.3,1.1-2.2
	c1.8-1.8,5.1-1.4,8,1.4C101.4,35,102.9,42.6,99.8,46.1z M111.3,43.5c0.6-0.6,2-0.6,3,0.4c0.3,0.3,0.5,0.6,0.6,1
	c-1.3-0.5-2.6-1-4-1.2L111.3,43.5z M104.6,33.7c0.6,0.2,1.1,0.5,1.6,0.9c1.5,1.5,1.4,3.7,0.5,4.6l-1.5,1.5c0-0.9-0.1-1.8-0.3-2.8
	c-0.3-1.5-0.8-3.1-1.4-4.4C103.9,33.5,104.3,33.6,104.6,33.7z M118.1,58.2c-1.3,1.3-2.3,1.4-2.9,0.8c-0.3-0.3-0.5-0.6-0.7-0.8
	c0,0,0-0.1,0-0.1c-0.1-0.3-0.2-0.7-0.3-1c0-0.2,0.1-0.3,0.2-0.4c-0.1,0.1-0.2,0.2-0.3,0.3c-1.2-3-4.5-4.1-5.2-4.3
	c-0.3-0.2-0.6-0.4-0.9-0.6c-2.2-1.4-4.5-2.3-6.7-2.4l0.6-0.6c0.1-0.1,0.1-0.2,0.2-0.3c3.5-3.1,11.1-1.7,14.3,1.5
	C119.5,53.1,119.9,56.4,118.1,58.2z"/>
</svg>
