<svg width="145" height="145" viewBox="0 0 145 145" fill="none" xmlns="http://www.w3.org/2000/svg">
<rect width="145" height="145" fill="#E8F4FD"/>
<path fill-rule="evenodd" clip-rule="evenodd" d="M30.9246 111.838C43.1386 129.914 78.9994 125.841 93.427 105.77C105.289 89.2676 104.344 68.4141 93.4394 57.8418C83.2693 47.9819 71.1876 45.6012 60.6027 50.1048C50.9992 54.1908 44.39 63.405 44.4539 72.9272C44.5178 82.4471 41.4836 90.8837 35.6759 100.353C34.9005 101.617 34.0927 102.877 33.0994 104.385C32.9257 104.649 32.501 105.29 32.0498 105.97C31.5002 106.798 30.9115 107.686 30.6897 108.024C29.8827 109.253 30.1307 110.664 30.9246 111.838ZM90.4393 103.622C77.382 121.787 44.6044 125.51 33.9582 109.753C34.2364 109.332 34.6819 108.66 35.1072 108.019C35.5628 107.332 35.9951 106.68 36.1733 106.409C37.1866 104.871 38.0146 103.579 38.8134 102.276C44.9485 92.2738 48.2037 83.2229 48.1344 72.9023C48.0808 64.9284 53.7552 57.0176 62.044 53.4909C71.252 49.5732 81.7602 51.6439 90.8783 60.4838C100.422 69.7361 101.274 88.549 90.4393 103.622Z" fill="#FFE57F"/>
<path d="M89.0495 74.7353C88.9824 73.7213 89.75 72.8449 90.764 72.7778C91.778 72.7106 92.6544 73.4782 92.7215 74.4922C92.728 74.5902 92.7369 74.7628 92.7455 75.0049C92.8133 76.9219 92.7469 79.3683 92.4444 82.1531C91.9969 86.2726 91.1056 90.3383 89.6609 94.1601C87.2506 100.537 83.49 105.731 78.1427 109.269C77.2951 109.83 76.1535 109.597 75.5928 108.75C75.032 107.902 75.2645 106.761 76.112 106.2C80.7576 103.126 84.0637 98.5598 86.2186 92.8589C87.5439 89.3528 88.3699 85.5853 88.7859 81.7556C89.068 79.1587 89.1297 76.8857 89.0677 75.1351C89.0605 74.9313 89.0535 74.7963 89.0495 74.7353Z" fill="#FFE57F"/>
<path d="M85.4259 52.3487C85.5274 53.3599 84.7899 54.2618 83.7787 54.3633C82.7676 54.4647 81.8657 53.7272 81.7642 52.7161C81.758 52.654 81.7507 52.5594 81.7441 52.4341C81.6703 51.0374 81.808 49.2049 82.3217 47.0895C83.0929 43.9131 84.5728 40.7782 86.922 37.8582C89.1064 35.1429 91.9588 32.7292 95.5384 30.6927C96.4217 30.1902 97.5451 30.4988 98.0476 31.3821C98.5501 32.2654 98.2415 33.3888 97.3582 33.8913C94.1776 35.7009 91.6814 37.8131 89.7893 40.165C87.7934 42.6458 86.546 45.2884 85.8978 47.9578C85.4743 49.7022 85.3631 51.1814 85.419 52.2401C85.4226 52.3067 85.4254 52.3435 85.4259 52.3487Z" fill="#FFE57F"/>
<path fill-rule="evenodd" clip-rule="evenodd" d="M90.4804 39.1885C91.0984 38.4728 91.0733 37.4051 90.4223 36.7192C90.1744 36.4581 89.7319 36.0434 89.0995 35.5272C88.0713 34.6877 86.8645 33.8529 85.4837 33.0757C79.8673 29.9142 73.1579 28.6051 65.5371 30.2043C60.2061 31.3229 55.9728 33.1792 52.7251 35.5823C50.7219 37.0647 49.2069 38.6702 48.1165 40.2933C47.4348 41.3082 47.0396 42.1357 46.8606 42.6751C46.4211 43.9992 47.5574 45.3116 48.9307 45.0661C49.0727 45.0407 49.3525 44.9942 49.7512 44.9335C50.4225 44.8312 51.1751 44.7288 51.9896 44.633C54.5577 44.3313 57.1383 44.1642 59.5271 44.2015C62.215 44.2433 64.4589 44.5459 66.0789 45.1286C76.1638 48.7564 83.4606 47.3178 90.4804 39.1885ZM66.2923 33.8059C72.984 32.4017 78.7992 33.5363 83.6779 36.2826C84.7296 36.8745 85.6597 37.5022 86.4627 38.1309C80.9352 43.8198 75.4498 44.5888 67.324 41.6658C65.2563 40.922 62.6417 40.5695 59.5839 40.5218C57.2467 40.4854 54.7741 40.6283 52.3029 40.8944C53.0159 40.0967 53.8806 39.305 54.9136 38.5406C57.7263 36.4593 61.4695 34.8179 66.2923 33.8059Z" fill="#FFE57F"/>
<path fill-rule="evenodd" clip-rule="evenodd" d="M88.0778 40.8249C87.532 40.8804 87.0357 40.94 86.5975 40.9998C86.3295 41.0364 86.1369 41.0656 86.0282 41.0835C85.031 41.2479 84.353 42.186 84.5098 43.1845C85.838 51.6415 94.0013 56.927 101.068 55.7944C101.698 55.6934 102.396 55.6827 103.153 55.7591C104.708 55.9163 106.428 56.4291 108.182 57.189C108.95 57.5221 109.672 57.8797 110.323 58.2362C110.706 58.4465 110.975 58.6058 111.106 58.6883C112.541 59.5942 114.333 58.24 113.853 56.6122C113.65 55.9232 113.226 54.7815 112.541 53.3357C111.408 50.947 109.935 48.5605 108.076 46.3277C107.589 45.7434 107.081 45.1762 106.551 44.628C104.407 42.4103 101.084 41.2209 96.9115 40.7719C94.0346 40.4623 90.9923 40.5288 88.0778 40.8249ZM103.522 52.0975C102.464 51.9905 101.449 52.006 100.485 52.1605C95.869 52.9004 90.39 49.7308 88.6026 44.4706C91.2368 44.2113 93.9805 44.1576 96.5176 44.4306C99.9144 44.7961 102.484 45.716 103.905 47.1859C104.371 47.6678 104.819 48.167 105.247 48.6821C106.479 50.1615 107.524 51.7231 108.393 53.3045C106.743 52.6824 105.106 52.2574 103.522 52.0975Z" fill="#FFE57F"/>
</svg>
