<svg width="145" height="145" viewBox="0 0 145 145" fill="none" xmlns="http://www.w3.org/2000/svg">
<rect width="145" height="145" fill="#FEF8E7"/>
<path d="M53.5618 100.323L54.0359 103.972C51.4303 104.31 48.8101 103.434 46.9828 101.593C43.3469 97.9282 40.0403 93.2769 37.6825 87.6599C34.4502 79.9592 33.4349 71.3679 35.2626 61.9634C39.7593 38.8219 56.3831 26.9718 76.1908 26.7607C76.7796 26.7542 77.3715 26.8146 77.9643 26.9363L88.2773 29.0443C89.3876 29.2718 90.4358 29.7163 91.3658 30.355C95.8662 33.4476 100.752 38.0903 104.635 43.9675C110.348 52.6164 112.883 62.5005 111.078 73.4779C108.3 90.3725 99.6418 101.181 86.0719 105.784L84.8896 102.299C97.1334 98.1455 104.883 88.4716 107.447 72.8809C109.091 62.8757 106.793 53.9109 101.564 45.9959C97.9701 40.5555 93.4197 36.2315 89.282 33.3883C88.7588 33.029 88.1682 32.7785 87.5396 32.6497L77.2258 30.5415C76.8816 30.4708 76.5504 30.4371 76.2308 30.4406C58.0655 30.6342 43.0144 41.3632 38.8751 62.6654C37.1901 71.3355 38.1183 79.1897 41.0758 86.2356C43.2351 91.3798 46.2713 95.6508 49.595 99.0008C50.6073 100.021 52.0838 100.515 53.5618 100.323Z" fill="#C3BFBA"/>
<path d="M74.6193 104.056L75.0707 107.708C72.3226 108.048 69.451 108.136 66.4678 107.979L66.6619 104.304C69.4346 104.45 72.0907 104.368 74.6193 104.056Z" fill="#C3BFBA"/>
<path fill-rule="evenodd" clip-rule="evenodd" d="M79.6927 43.0816C83.3096 43.8784 86.9198 42.6706 87.6186 39.7984C88.3283 36.8815 85.5983 34.2418 81.9584 33.439C78.3409 32.6423 74.7318 33.8498 74.0318 36.7214C73.3218 39.6393 76.0521 42.2789 79.6927 43.0816ZM81.1663 37.0327C82.1918 37.2589 83.0669 37.7032 83.6062 38.2246C83.9702 38.5765 84.0681 38.8241 84.0428 38.9283C84.0129 39.0512 83.7804 39.2596 83.26 39.4336C82.5187 39.6817 81.5162 39.7149 80.4847 39.4877C79.4586 39.2614 78.5833 38.8171 78.0439 38.2957C77.6799 37.9438 77.582 37.6962 77.6073 37.5921C77.6372 37.4694 77.87 37.2608 78.3904 37.0867C79.1318 36.8387 80.1343 36.8054 81.1663 37.0327Z" fill="#C3BFBA"/>
<path fill-rule="evenodd" clip-rule="evenodd" d="M63.9117 44.082C63.2017 46.9998 65.932 49.6394 69.5725 50.4422C73.1892 51.239 76.7991 50.0313 77.4982 47.1594C78.209 44.2423 75.4784 41.6025 71.8382 40.7996C68.2207 40.0029 64.6117 41.2104 63.9117 44.082ZM73.4867 45.5854C73.8506 45.9372 73.9484 46.1845 73.9229 46.289C73.893 46.412 73.6605 46.6203 73.1402 46.7944C72.3989 47.0424 71.3964 47.0756 70.3649 46.8484C69.3389 46.6222 68.4635 46.1779 67.9242 45.6564C67.5602 45.3045 67.4622 45.0569 67.4876 44.9528C67.5175 44.8301 67.7502 44.6215 68.2707 44.4474C69.012 44.1994 70.0145 44.1662 71.0464 44.3934C72.072 44.6196 72.9474 45.064 73.4867 45.5854Z" fill="#C3BFBA"/>
<path fill-rule="evenodd" clip-rule="evenodd" d="M78.6324 48.6823C77.9224 51.6002 80.6527 54.2398 84.2932 55.0425C87.9099 55.8393 91.5199 54.6316 92.2189 51.7597C92.9297 48.8427 90.1991 46.2028 86.5589 45.3999C82.9415 44.6032 79.3324 45.8107 78.6324 48.6823ZM88.2069 50.1854C88.5709 50.5373 88.6687 50.7846 88.6432 50.8891C88.6133 51.012 88.3808 51.2204 87.8605 51.3945C87.1192 51.6425 86.1167 51.6757 85.0852 51.4485C84.0592 51.2222 83.1838 50.7779 82.6445 50.2565C82.2805 49.9046 82.1825 49.657 82.2079 49.5529C82.2378 49.4302 82.4705 49.2216 82.991 49.0475C83.7323 48.7995 84.7348 48.7662 85.7667 48.9935C86.7923 49.2197 87.6677 49.6641 88.2069 50.1854Z" fill="#C3BFBA"/>
<path fill-rule="evenodd" clip-rule="evenodd" d="M58.7441 126.123C65.5961 126.123 71.1647 120.658 71.1647 113.898C71.1647 111.459 70.4354 109.123 69.0924 107.136L60.3577 91.1979C59.6593 89.9236 57.8287 89.9236 57.1304 91.198L48.4037 107.124C47.0559 109.114 46.3242 111.454 46.3242 113.898C46.3242 120.658 51.8922 126.123 58.7441 126.123ZM51.4898 109.132L51.5882 108.972L58.7447 95.9116L65.9085 108.983L66.0056 109.141C66.9658 110.538 67.4852 112.179 67.4852 113.899C67.4852 118.61 63.5795 122.443 58.7446 122.443C53.91 122.443 50.0048 118.61 50.0048 113.899C50.0048 112.174 50.526 110.531 51.4898 109.132Z" fill="#C3BFBA"/>
<path fill-rule="evenodd" clip-rule="evenodd" d="M80.365 114.162C84.4387 114.162 87.7252 110.806 87.7252 106.685C87.7252 105.218 87.3063 103.809 86.5327 102.604L81.9931 93.9845C81.303 92.6744 79.4269 92.6744 78.737 93.9846L74.2014 102.597C73.4253 103.804 73.0049 105.215 73.0049 106.685C73.0049 110.806 76.2914 114.162 80.365 114.162ZM77.3242 104.546L77.4179 104.387L80.3653 98.7906L83.3164 104.394L83.409 104.55C83.8216 105.175 84.0453 105.91 84.0453 106.685C84.0453 108.791 82.3889 110.482 80.3653 110.482C78.3416 110.482 76.6852 108.791 76.6852 106.685C76.6852 105.909 76.9099 105.172 77.3242 104.546Z" fill="#C3BFBA"/>
<path fill-rule="evenodd" clip-rule="evenodd" d="M70.2449 93.9214C74.3185 93.9214 77.6051 90.5651 77.6051 86.4443C77.6051 84.9767 77.1861 83.5677 76.4126 82.3629L71.8729 73.7436C71.1829 72.4334 69.3068 72.4335 68.6168 73.7436L64.0813 82.3561C63.3052 83.5627 62.8848 84.9742 62.8848 86.4443C62.8848 90.5651 66.1713 93.9214 70.2449 93.9214ZM67.2038 84.305L67.2975 84.1468L70.2449 78.5499L73.1959 84.153L73.2886 84.3096C73.7011 84.9342 73.9249 85.6694 73.9249 86.4445C73.9249 88.5499 72.2685 90.2415 70.2448 90.2415C68.2211 90.2415 66.5647 88.5499 66.5647 86.4445C66.5647 85.6679 66.7895 84.9309 67.2038 84.305Z" fill="#C3BFBA"/>
</svg>
