<svg width="145" height="145" viewBox="0 0 145 145" fill="none" xmlns="http://www.w3.org/2000/svg">
<rect width="145" height="145" fill="#FEF8E7"/>
<path fill-rule="evenodd" clip-rule="evenodd" d="M58.5038 109.851C67.3459 111.385 75.2745 106.085 77.4812 97.374C79.2543 90.375 77.3502 83.7053 71.3069 81.7205C69.881 81.2521 68.8458 81.269 66.5319 81.5587C65.0017 81.7503 64.3228 81.782 63.5494 81.6476C62.7773 81.5136 62.116 81.257 60.8369 80.6417C60.622 80.5382 60.5051 80.4819 60.4018 80.4324C60.2321 80.3512 60.0886 80.2835 59.9495 80.2192C58.4251 79.5149 57.2665 79.1782 55.913 79.1984C49.1916 79.2996 45.7014 84.4338 44.9573 91.7193C44.0439 100.662 49.6636 108.317 58.5038 109.851ZM70.1588 85.2167C73.9433 86.4596 75.2715 91.112 73.9141 96.4701C72.1744 103.338 66.0578 107.426 59.1332 106.225C52.2218 105.026 47.8991 99.1377 48.6186 92.093C49.1966 86.4336 51.5687 82.9442 55.9685 82.8779C56.6543 82.8677 57.3385 83.0665 58.4062 83.5598C58.5283 83.6162 58.6575 83.6772 58.8135 83.7518C58.9121 83.799 59.0241 83.853 59.242 83.958C60.8115 84.7128 61.718 85.0647 62.9202 85.2733C64.1658 85.4897 65.107 85.4458 66.9894 85.2101C68.7619 84.9882 69.4301 84.9773 70.1588 85.2167Z" fill="#DF9E99"/>
<path d="M76.44 87.0524L74.1267 84.1903C75.5617 83.0304 76.8395 82.7944 79.7185 82.7036C79.8867 82.6983 79.8867 82.6983 80.0518 82.6928C81.2101 82.6534 81.8534 82.5855 82.426 82.419C83.0877 82.227 83.6576 81.9256 84.7257 81.2444C85.0269 81.0517 85.1845 80.9512 85.3424 80.8522C86.7629 79.9615 87.7859 79.5059 89.0789 79.3631C95.1125 78.6979 99.5775 83.004 100.807 89.23C102.422 97.4034 98.0542 106.118 90.2034 108.398C84.0431 110.188 76.9239 107.249 72.9316 102.058L75.8488 99.8142C78.9759 103.88 84.5879 106.197 89.1768 104.864C95.0587 103.155 98.4647 96.3603 97.1965 89.9432C96.3033 85.4192 93.3719 82.5922 89.4825 83.021C88.8744 83.0881 88.2859 83.3502 87.2974 83.9701C87.1535 84.0602 87.0098 84.1519 86.7047 84.347C85.3576 85.2063 84.5448 85.636 83.4527 85.953C82.5049 86.2286 81.6242 86.3215 80.1771 86.3708C80.0042 86.3765 80.0042 86.3765 79.8346 86.3819C77.7734 86.4469 77.0161 86.5867 76.44 87.0524Z" fill="#DF9E99"/>
<path fill-rule="evenodd" clip-rule="evenodd" d="M79.4753 42.3532L78.1508 41.3388C72.8404 37.2719 65.8709 35.8431 59.2491 37.6304C53.9222 39.0684 49.4677 42.4113 46.6498 46.9486L45.7695 48.366L47.0943 49.3803C52.4055 53.4469 59.375 54.8758 65.9961 53.0878C71.3231 51.6498 75.7774 48.3074 78.5951 43.7705L79.4753 42.3532ZM50.7717 47.4539C53.0938 44.4363 56.3734 42.2192 60.2085 41.1839C65.134 39.8545 70.2863 40.664 74.4741 43.2662C72.1521 46.2834 68.8726 48.5002 65.0372 49.5355C60.1123 50.8655 54.9601 50.056 50.7717 47.4539Z" fill="#DF9E99"/>
<path fill-rule="evenodd" clip-rule="evenodd" d="M103.416 63.1694L103.342 61.5309C103.043 54.9189 99.6008 48.7949 93.8842 45.0377C89.2993 42.0255 83.8129 40.9015 78.4698 41.7631L76.8506 42.0242L76.9246 43.6627C77.2232 50.2751 80.6653 56.3989 86.3816 60.1559C90.9665 63.1681 96.4537 64.2922 101.797 63.4305L103.416 63.1694ZM80.7638 45.202C84.6537 44.9434 88.5432 45.9321 91.8631 48.1132C96.0891 50.8907 98.8016 55.2161 99.5024 59.9916C95.6123 60.2502 91.7222 59.2615 88.4024 57.0804C84.1766 54.3031 81.4646 49.9779 80.7638 45.202Z" fill="#DF9E99"/>
<path d="M65.3811 83.4093L61.7231 83.812C61.7022 83.6218 61.6731 83.2832 61.6448 82.8084C61.3062 77.1335 61.9218 70.1292 64.2708 62.8411C65.4933 59.0473 67.3535 55.2263 69.6791 51.4611C71.1871 49.0196 72.8008 46.7463 74.4155 44.6978C74.982 43.9791 75.5091 43.3389 75.9838 42.7842C76.2726 42.4467 76.4827 42.2096 76.601 42.0803L79.3166 44.5639C79.225 44.664 79.0417 44.8709 78.7798 45.177C78.3365 45.695 77.8407 46.2972 77.3057 46.976C75.7732 48.9202 74.2395 51.0807 72.8101 53.395C70.6298 56.925 68.8961 60.486 67.7735 63.9699C65.5818 70.7699 65.0048 77.3348 65.3183 82.5892C65.3429 83.0014 65.3668 83.279 65.3811 83.4093Z" fill="#DF9E99"/>
<path d="M83.9062 83.5086L80.6262 85.1773C80.5727 85.0721 80.4786 84.8813 80.3497 84.6108C80.1386 84.1677 79.9043 83.657 79.6527 83.0844C78.9368 81.455 78.2219 79.6504 77.5545 77.7172C76.1227 73.57 75.106 69.4099 74.6878 65.4066C74.5486 64.0739 74.4669 62.6747 74.4384 61.2163C74.3589 57.1411 74.69 52.7981 75.2901 48.485C75.4786 47.1301 75.6806 45.877 75.883 44.7549C75.9542 44.3604 76.0204 44.01 76.0801 43.7071C76.1165 43.5225 76.143 43.393 76.158 43.3223L79.7582 44.0846C79.7467 44.1387 79.7237 44.2513 79.6907 44.4186C79.6348 44.7024 79.5722 45.0335 79.5047 45.4081C79.3107 46.4834 79.1165 47.6881 78.935 48.9921C78.3596 53.1283 78.0426 57.2871 78.1178 61.1445C78.1443 62.5031 78.22 63.7993 78.348 65.0242C78.7338 68.7182 79.6862 72.6149 81.0331 76.5163C81.6661 78.3498 82.3445 80.0623 83.0219 81.604C83.258 82.1413 83.4766 82.618 83.6719 83.0277C83.7868 83.2689 83.8669 83.4313 83.9062 83.5086Z" fill="#DF9E99"/>
</svg>
