<svg width="145" height="145" viewBox="0 0 145 145" fill="none" xmlns="http://www.w3.org/2000/svg">
<rect width="145" height="145" fill="#F3FFF7"/>
<path fill-rule="evenodd" clip-rule="evenodd" d="M58.7042 117.149C69.6946 117.149 78.6035 108.24 78.6035 97.2505C78.6035 93.2668 77.4292 89.4544 75.264 86.213L60.3246 58.4412C59.63 57.1501 57.7781 57.1501 57.0836 58.4414L42.1578 86.1939C39.9849 89.4396 38.8057 93.2594 38.8057 97.2505C38.8057 108.24 47.7144 117.149 58.7042 117.149ZM45.3554 88.0166L58.7039 63.1967L72.0653 88.035L72.1605 88.1926C73.952 90.8473 74.9231 93.9734 74.9231 97.2499C74.9231 106.207 67.6618 113.468 58.7038 113.468C49.7465 113.468 42.4853 106.207 42.4853 97.2499C42.4853 93.9671 43.4606 90.8345 45.2589 88.176L45.3554 88.0166Z" fill="#A5D0F5"/>
<path fill-rule="evenodd" clip-rule="evenodd" d="M106.04 83.9991C106.04 81.7927 105.393 79.6784 104.2 77.8763L96.5569 63.6678C95.8624 62.3766 94.0104 62.3767 93.3159 63.668L85.6805 77.8657C84.4832 79.6693 83.834 81.7875 83.834 83.9991C83.834 90.1309 88.8047 95.1016 94.9365 95.1016C101.068 95.1016 106.04 90.1308 106.04 83.9991ZM88.783 79.8466L88.8794 79.6871L94.9367 68.4239L101.001 79.6969L101.096 79.8539C101.916 81.0703 102.36 82.4992 102.36 83.9991C102.36 88.0982 99.0361 91.4215 94.9366 91.4215C90.8372 91.4215 87.5141 88.0984 87.5141 83.9991C87.5141 82.495 87.9598 81.0635 88.783 79.8466Z" fill="#A5D0F5"/>
<path fill-rule="evenodd" clip-rule="evenodd" d="M76.5097 60.2625C82.6416 60.2625 87.6131 55.2917 87.6131 49.16C87.6131 46.9536 86.9661 44.8393 85.7733 43.0372L78.1302 28.8287C77.4356 27.5375 75.5836 27.5376 74.8892 28.8289L67.2537 43.0266C66.0565 44.8302 65.4072 46.9484 65.4072 49.16C65.4072 55.2918 70.378 60.2625 76.5097 60.2625ZM70.4528 44.8482L76.5102 33.585L82.5741 44.8579L82.669 45.015C83.4892 46.2313 83.9333 47.6603 83.9333 49.1601C83.9333 53.2592 80.6095 56.5826 76.51 56.5826C72.4106 56.5826 69.0875 53.2594 69.0875 49.1601C69.0875 47.6561 69.5332 46.2246 70.3564 45.0077L70.4528 44.8482Z" fill="#A5D0F5"/>
<path d="M58.9696 104.977C59.9859 104.977 60.8097 105.801 60.8097 106.817C60.8097 107.833 59.9859 108.657 58.9696 108.657C52.5243 108.657 47.2988 103.432 47.2988 96.986C47.2988 95.0209 47.7869 93.1225 48.7049 91.4294C49.1893 90.536 50.3062 90.2045 51.1995 90.6889C52.0929 91.1733 52.4244 92.2902 51.94 93.1835C51.3121 94.3416 50.9789 95.6376 50.9789 96.986C50.9789 101.399 54.5567 104.977 58.9696 104.977Z" fill="#A5D0F5"/>
</svg>
