<?xml version="1.0" encoding="utf-8"?>
<!-- Generator: Adobe Illustrator 22.1.0, SVG Export Plug-In . SVG Version: 6.00 Build 0)  -->
<svg version="1.1" id="Layer_1" xmlns="http://www.w3.org/2000/svg" xmlns:xlink="http://www.w3.org/1999/xlink" x="0px" y="0px"
	 width="100px" height="100px" viewBox="0 0 100 100" style="enable-background:new 0 0 100 100;" xml:space="preserve">
<style type="text/css">
	.st0{fill:url(#SVGID_1_);stroke:url(#SVGID_2_);stroke-width:0.5;}
</style>
<linearGradient id="SVGID_1_" gradientUnits="userSpaceOnUse" x1="36.0034" y1="84.2033" x2="54.0178" y2="21.0242" gradientTransform="matrix(1 0 0 -1 0 102)">
	<stop  offset="0" style="stop-color:#00B6FB"/>
	<stop  offset="1" style="stop-color:#4FB646"/>
</linearGradient>
<linearGradient id="SVGID_2_" gradientUnits="userSpaceOnUse" x1="36.0166" y1="84.207" x2="54.031" y2="21.028" gradientTransform="matrix(1 0 0 -1 0 102)">
	<stop  offset="0" style="stop-color:#00B6FB"/>
	<stop  offset="1" style="stop-color:#4FB646"/>
</linearGradient>
<path class="st0" d="M84.8,69.8c0-0.1,0-0.2,0-0.2s0-0.1-0.1-0.2L69.1,40.5c0,0,0,0-0.1-0.1c0-0.1-0.1-0.1-0.1-0.2
	c-0.1-0.1-0.3-0.2-0.3-0.2l-17.9-4.5V15.8c0-0.5-0.3-0.8-0.8-0.8S49,15.3,49,15.8v19.4l-19.4-4.8c-0.1,0-0.1,0-0.2,0h-0.1h-0.1
	c-0.1,0-0.2,0.1-0.3,0.1c-0.1,0.1-0.2,0.1-0.2,0.2c0,0,0,0-0.1,0.1l-0.1,0.1L14.1,59.7c0,0.1-0.1,0.2-0.1,0.2c0,0.1,0,0.2,0,0.2
	c0,0.1,2.3,10.3,15.5,10.3c6.9,0,11-2.7,13.2-5c2.4-2.6,3.2-5,3.3-5.1c0-0.1,0-0.2,0-0.2V60c0-0.1,0-0.2-0.1-0.2L31.1,32.5l36.2,8.9
	L53,69.3v0.1v0.1c0,0.1,0,0.2,0,0.2c0,0.1,0,0.2,0.1,0.2C53.2,70.3,58.3,80,68.4,80s16.1-9.7,16.3-10.1C84.7,70,84.7,69.9,84.8,69.8
	z M29.3,68.9c-9.5,0-12.6-5.6-13.5-8h27.9C42.5,63.3,38.7,68.9,29.3,68.9z M16,59.2L29.3,33l14.2,26.2H16z M68.3,42.6l14.2,26.2
	H55.1L68.3,42.6z M68.7,78.5c-7.3,0-11.9-5.5-13.5-8h27.9C81.2,73,76,78.5,68.7,78.5z"/>
</svg>
