<?xml version="1.0" encoding="utf-8"?>
<!-- Generator: Adobe Illustrator 22.1.0, SVG Export Plug-In . SVG Version: 6.00 Build 0)  -->
<svg version="1.1" id="Layer_1" xmlns="http://www.w3.org/2000/svg" xmlns:xlink="http://www.w3.org/1999/xlink" x="0px" y="0px"
	 width="100px" height="100px" viewBox="0 0 100 100" style="enable-background:new 0 0 100 100;" xml:space="preserve">
<style type="text/css">
	.st0{fill:#F68D20;stroke:#F68D20;}
</style>
<path class="st0" d="M49.5,2C23.3,2,2,23.3,2,49.5S23.3,97,49.5,97S97,75.7,97,49.5S75.7,2,49.5,2z M49.5,93.8
	c-24.4,0-44.3-19.9-44.3-44.3S25.1,5.2,49.5,5.2s44.3,19.9,44.3,44.3S73.9,93.8,49.5,93.8z"/>
<path class="st0" d="M49.5,11.5c-0.9,0-1.6,0.7-1.6,1.6v36.4H24.2c-0.9,0-1.6,0.7-1.6,1.6c0,0.9,0.7,1.6,1.6,1.6h25.3
	c0.9,0,1.6-0.7,1.6-1.6v-38C51.1,12.2,50.4,11.5,49.5,11.5z"/>
</svg>
