<?xml version="1.0" encoding="utf-8"?>
<!-- Generator: Adobe Illustrator 22.1.0, SVG Export Plug-In . SVG Version: 6.00 Build 0)  -->
<svg version="1.1" id="Layer_1" xmlns="http://www.w3.org/2000/svg" xmlns:xlink="http://www.w3.org/1999/xlink" x="0px" y="0px"
	 width="100px" height="100px" viewBox="0 0 100 100" style="enable-background:new 0 0 100 100;" xml:space="preserve">
<style type="text/css">
	.st0{fill:#F68D2E;}
</style>
<path id="Fill-1" class="st0" d="M62.9,42.1h-3.3c-0.4,0-0.9,0.3-1,0.8c-0.2,1-0.5,1.8-1.1,2.6c-0.2,0.4-0.2,1,0.1,1.3l2.4,2.4
	l-1.7,1.7l-2.4-2.4c-0.3-0.3-0.9-0.4-1.3-0.1c-0.9,0.5-1.7,0.9-2.6,1.1c-0.4,0.1-0.8,0.5-0.8,1v3.3h-2.5v-3.3c0-0.4-0.3-0.9-0.8-1
	c-1-0.2-1.8-0.5-2.6-1.1c-0.4-0.2-1-0.2-1.3,0.1l-2.4,2.4l-1.7-1.7l2.4-2.4c0.3-0.3,0.4-0.9,0.1-1.3c-0.5-0.9-0.9-1.7-1.1-2.6
	c-0.1-0.4-0.5-0.8-1-0.8h-3.4v-2.5h3.3c0.4,0,0.9-0.3,1-0.8c0.2-1,0.5-1.8,1.1-2.6c0.2-0.4,0.2-1-0.1-1.3L40,32.7l1.7-1.7l2.4,2.4
	c0.3,0.3,0.9,0.4,1.3,0.1c0.9-0.5,1.7-0.9,2.6-1.1c0.4-0.1,0.8-0.5,0.8-1v-3.3h2.5v3.3c0,0.4,0.3,0.9,0.8,1c1,0.2,1.8,0.5,2.6,1.1
	c0.4,0.2,1,0.2,1.3-0.1l2.4-2.4l1.7,1.7L57.6,35c-0.3,0.3-0.4,0.9-0.1,1.3c0.5,0.9,0.9,1.7,1.1,2.6c0.1,0.4,0.5,0.8,1,0.8h3.3V42.1z
	 M63.4,37.7h-3.1c-0.2-0.6-0.4-1.2-0.8-1.7l2.2-2.2c0.3-0.3,0.4-0.6,0.4-1.1S62,32,61.7,31.7l-2.6-2.6c-0.5-0.5-1.5-0.5-2,0
	l-2.1,2.2c-0.5-0.3-1.2-0.5-1.7-0.8v-3c0-0.8-0.6-1.4-1.4-1.4h-3.7c-0.8,0-1.4,0.6-1.4,1.4v3.1c-0.6,0.2-1.2,0.4-1.7,0.8l-2.2-2.1
	c-0.5-0.5-1.5-0.5-2,0l-2.7,2.5c-0.3,0.3-0.4,0.6-0.4,1.1s0.1,0.8,0.4,1.1l2.2,2.2c-0.3,0.5-0.5,1.2-0.8,1.7h-3.1
	c-0.8,0-1.4,0.6-1.4,1.4v3.7c0,0.8,0.6,1.4,1.4,1.4h3.1c0.2,0.6,0.4,1.2,0.8,1.7l-2.2,2.2c-0.5,0.5-0.5,1.5,0,2l2.6,2.6
	c0.5,0.5,1.5,0.5,2,0l2.2-2.1c0.5,0.3,1.2,0.5,1.7,0.8v3.1c0,0.8,0.6,1.4,1.4,1.4h3.7c0.8,0,1.4-0.6,1.4-1.4v-3.1
	c0.6-0.2,1.2-0.4,1.7-0.8l2.1,2.1c0.5,0.5,1.5,0.5,2,0l2.6-2.6c0.3-0.3,0.4-0.6,0.4-1.1s-0.1-0.8-0.4-1.1l-2.2-2.2
	c0.3-0.5,0.5-1.2,0.8-1.7h3.1c0.8,0,1.4-0.6,1.4-1.4V39C64.9,38.4,64.3,37.7,63.4,37.7z"/>
<path id="Fill-3" class="st0" d="M50,44.4c-1.9,0-3.4-1.5-3.4-3.4s1.5-3.4,3.4-3.4c1.9,0,3.4,1.5,3.4,3.4S51.9,44.4,50,44.4
	 M50,35.5c-3,0-5.5,2.5-5.5,5.5s2.5,5.5,5.5,5.5c3,0,5.5-2.5,5.5-5.5S53,35.5,50,35.5"/>
<path id="Fill-5" class="st0" d="M26.4,39.9h-3.3c-0.5,0-1.1,0.4-1.1,1.1s0.4,1.1,1.1,1.1h3.4c0.5,0,1.1-0.4,1.1-1.1
	S26.9,39.9,26.4,39.9"/>
<path id="Fill-8" class="st0" d="M76.8,39.9h-3.4c-0.5,0-1.1,0.4-1.1,1.1s0.4,1.1,1.1,1.1h3.4c0.5,0,1.1-0.4,1.1-1.1
	S77.5,39.9,76.8,39.9"/>
<path id="Fill-11" class="st0" d="M34,56.9c-0.4-0.4-1.1-0.4-1.4,0l-2.4,2.4c-0.4,0.4-0.4,1.1,0,1.4s1.1,0.4,1.4,0l2.4-2.4
	C34.5,57.9,34.5,57.3,34,56.9"/>
<path id="Fill-13" class="st0" d="M69.7,21.2c-0.4-0.4-1.1-0.4-1.4,0L66,23.5c-0.4,0.4-0.4,1.1,0,1.4c0.4,0.4,1.1,0.4,1.4,0l2.4-2.4
	C70.2,22.2,70.2,21.6,69.7,21.2"/>
<path id="Fill-15" class="st0" d="M50,13c-0.5,0-1.1,0.4-1.1,1.1v3.4c0,0.5,0.4,1.1,1.1,1.1s1.1-0.4,1.1-1.1v-3.4
	C51,13.4,50.5,13,50,13"/>
<path id="Fill-17" class="st0" d="M69.7,59.2l-2.4-2.4c-0.4-0.4-1.1-0.4-1.4,0c-0.4,0.4-0.4,1.1,0,1.4l2.4,2.4
	c0.4,0.4,1.1,0.4,1.4,0C70.2,60.3,70.2,59.7,69.7,59.2"/>
<path id="Fill-19" class="st0" d="M34,23.6l-2.4-2.5c-0.4-0.4-1.1-0.4-1.4,0c-0.4,0.4-0.4,1.1,0,1.4l2.4,2.4c0.4,0.4,1.1,0.4,1.4,0
	C34.5,24.6,34.5,24,34,23.6"/>
<path id="Fill-21" class="st0" d="M52.4,20.5c-0.5-0.1-1.1,0.3-1.2,0.9c-0.1,0.5,0.3,1.1,0.9,1.2c8.5,1.1,15.2,7.7,16.1,16.2
	c0.1,0.5,0.5,0.9,1,0.9h0.1c0.8-0.1,1.2-0.6,1.1-1.2C69.3,29.1,61.8,21.6,52.4,20.5z"/>
<path id="Fill-23" class="st0" d="M58.3,70.7c0,0.3-0.3,0.6-0.6,0.6H42.2c-0.3,0-0.6-0.3-0.6-0.6v-1.5c0-0.3,0.3-0.6,0.6-0.6h15.5
	c0.3,0,0.6,0.3,0.6,0.6V70.7z M58.3,75.5c0,0.3-0.3,0.6-0.6,0.6H42.2c-0.3,0-0.6-0.3-0.6-0.6V74c0-0.3,0.3-0.6,0.6-0.6h15.5
	c0.3,0,0.6,0.3,0.6,0.6V75.5z M52.4,80.4c0,0.2-0.2,0.3-0.3,0.3h-4.3c-0.2,0-0.3-0.2-0.3-0.3v-2.4h4.9V80.4z M69.4,42.4
	c-0.5-0.1-1.1,0.3-1.2,0.9c-0.6,5.5-3.8,10.4-8.5,13.3c-2,1.3-3.2,3.4-3.2,5.8v4.2H43.4v-4.3c0-2.4-1.2-4.5-3.1-5.7
	c-5.5-3.4-8.8-9.2-8.8-15.8c0-9.4,7-17.2,16.2-18.4c0.5-0.1,1-0.5,0.9-1.2c-0.1-0.5-0.5-1-1.2-0.9c-10.2,1.3-18.1,10.1-18.1,20.4
	c0,3.5,1,7.1,2.7,10.2c1.7,3,4.2,5.5,7.1,7.3c1.4,0.9,2.2,2.4,2.2,4v4.4c-1.1,0.3-1.8,1.4-1.8,2.5v1.5c0,0.6,0.2,1.2,0.5,1.6
	c-0.3,0.4-0.5,1-0.5,1.6v1.5c0,1.5,1.2,2.7,2.7,2.7h3.2v2.4c0,1.3,1.1,2.5,2.5,2.5h4.3c1.3,0,2.5-1.1,2.5-2.5v-2.4h3.2
	c1.5,0,2.7-1.2,2.7-2.7v-1.5c0-0.6-0.2-1.2-0.5-1.6c0.3-0.4,0.5-1,0.5-1.6v-1.5c0-1.2-0.8-2.2-1.8-2.5v-4.4c0-1.7,0.9-3.2,2.3-4.1
	c5.3-3.3,8.7-8.7,9.5-14.8C70.4,42.9,70.1,42.4,69.4,42.4z"/>
</svg>
