<?xml version="1.0" encoding="UTF-8"?>
<svg width="154px" height="43px" viewBox="0 0 154 43" version="1.1" xmlns="http://www.w3.org/2000/svg" xmlns:xlink="http://www.w3.org/1999/xlink">
    <!-- Generator: Sketch 52.3 (67297) - http://www.bohemiancoding.com/sketch -->
    <title>leggup-logo</title>
    <desc>Created with Sketch.</desc>
    <g id="2" stroke="none" stroke-width="1" fill="none" fill-rule="evenodd">
        <g id="menu_1280-how-it-works" fill-rule="nonzero">
            <g id="menu">
                <g id="leggup-logo">
                    <path d="M121.335711,32.4223103 C121.335711,35.3095582 118.995134,37.6501351 116.107886,37.6501351 C113.220638,37.6501351 110.880062,35.3095582 110.880062,32.4223103 L110.880062,18.7106299 L106.227639,18.7106299 L106.227639,32.4223103 C106.227639,37.8788979 110.651077,42.3023361 116.107665,42.3023361 C121.564252,42.3023361 125.98769,37.8788979 125.98769,32.4223103 L125.98769,18.7106299 L121.335711,18.7106299 L121.335711,32.4223103 Z" id="Shape" fill="#57B952"></path>
                    <path d="M144.627969,30.9929814 L137.805598,30.9929814 L137.805598,23.3624763 L144.627969,23.3624763 C146.735075,23.3624763 148.443221,25.0706231 148.443221,27.1777289 C148.443221,29.2848347 146.735075,30.9929814 144.627969,30.9929814 M144.627969,18.7104969 L133.153175,18.7104969 L133.153175,41.086899 L137.805598,41.086899 L137.805598,35.6449608 L144.627969,35.6449608 C149.304292,35.6449607 153.095201,31.8540519 153.095201,27.1777289 C153.095201,22.5014059 149.304292,18.710497 144.627969,18.7104969" id="Shape" fill="#57B952"></path>
                    <path d="M85.9852381,17.5580969 L93.8298567,17.5576536 C93.0754428,19.4404608 91.711383,21.0158647 89.955867,22.0318701 C87.5904237,23.3963443 83.8777948,23.0288495 81.192733,22.2295814 C79.4900216,21.7215608 76.8763309,20.6270557 74.3490835,19.5693443 C71.5846711,18.4118907 68.9727536,17.3178289 67.0333206,16.7402103 C64.7866814,16.0708289 59.0796505,14.7888082 54.6156299,17.3679216 C51.4693989,19.1842188 49.173602,22.1760174 48.2333372,25.6850923 C47.2930724,29.1941672 47.7853696,32.9330423 49.6019186,36.0791278 C52.5869616,41.2484554 58.5758039,43.889601 64.4058541,42.607827 C70.2359042,41.326053 74.5646797,36.4165127 75.1062381,30.4718392 L75.3389701,27.9335093 L62.0169495,27.9335093 L62.0169495,32.5854887 L69.8628979,32.5854887 C68.3928961,36.2643931 64.6998607,38.5585379 60.7504694,38.2462064 C56.8010781,37.9338749 53.514552,35.0877623 52.6410876,31.2235285 C51.7676232,27.3592947 53.5105193,23.3763405 56.9416196,21.3957361 C59.3083928,20.0303753 63.0205784,20.3987567 65.7047536,21.1989113 C67.4034753,21.7047155 70.017166,22.7992206 72.5710113,23.8684577 C75.327001,25.0219216 77.9300526,26.1111072 79.8637227,26.6878392 C82.1103619,27.3576639 87.8169495,28.637468 92.2818567,26.0601278 C96.1326038,23.8318627 98.6644585,19.875375 99.0745268,15.445334 L99.309032,12.9056742 L85.9852381,12.9061175 L85.9852381,17.5580969 Z" id="Shape" fill="#636466"></path>
                    <polygon id="Shape" fill="#636466" points="4.65197938 18.7103196 0 18.7103196 0 41.0867216 14.8314536 41.0867216 14.8314536 36.4347423 4.65197938 36.4347423"></polygon>
                    <polygon id="Shape" fill="#636466" points="23.3826907 41.0867216 39.2284124 41.0867216 39.2284124 36.4347423 28.0346701 36.4347423 28.0346701 32.224732 39.2284124 32.224732 39.2284124 27.5727526 28.0346701 27.5727526 28.0346701 23.362299 39.2284124 23.362299 39.2284124 18.7103196 23.3826907 18.7103196"></polygon>
                    <path d="M76.3869732,14.1412371 C76.3868415,10.4826557 78.5906828,7.18427184 81.9707816,5.78421827 C85.3508805,4.3841647 89.2415298,5.15818053 91.8284062,7.74531959 L92.0114887,7.92795876 L95.300767,4.63779381 L95.1176845,4.45515464 C91.2002163,0.537663623 85.3086117,-0.634185119 80.1902286,1.48606192 C75.0718455,3.60630896 71.7347128,8.60108432 71.7349938,14.1412371 L71.7349938,14.3996804 L76.3869732,14.3996804 L76.3869732,14.1412371 Z" id="Shape" fill="#636466"></path>
                </g>
            </g>
        </g>
    </g>
</svg>