<svg width="70" height="70" viewBox="0 0 70 70" fill="none" xmlns="http://www.w3.org/2000/svg">
<path fill-rule="evenodd" clip-rule="evenodd" d="M40.0007 31.6883C32.0577 31.6883 25.594 25.2246 25.594 17.2817C25.594 9.33674 32.0577 2.875 40.0007 2.875C47.9436 2.875 54.4093 9.33674 54.4093 17.2817C54.4093 25.2246 47.9436 31.6883 40.0007 31.6883ZM13.469 37.2609C11.363 37.2609 9.65026 38.9757 9.65026 41.0817V56.8358C9.65026 58.9418 11.363 60.6546 13.469 60.6546H43.7236C45.8296 60.6546 47.5424 58.9418 47.5424 56.8358V41.0817C47.5424 38.9757 45.8296 37.2609 43.7236 37.2609H13.469ZM13.469 64.647H43.7236C48.0294 64.647 51.5348 61.1417 51.5348 56.8358V41.0817C51.5348 36.7739 48.0294 33.2685 43.7236 33.2685H13.469C9.16318 33.2685 5.65783 36.7739 5.65783 41.0817V56.8358C5.65783 61.1417 9.16318 64.647 13.469 64.647ZM3.875 21.8388C3.875 27.2705 8.29461 31.6881 13.7263 31.6881C19.158 31.6881 23.5776 27.2705 23.5776 21.8388C23.5776 16.4071 19.158 11.9895 13.7263 11.9895C8.29461 11.9895 3.875 16.4071 3.875 21.8388ZM63.945 60.5358C64.2944 60.7953 64.7096 60.9251 65.1288 60.9251C65.4362 60.9251 65.7456 60.8552 66.0291 60.7115C66.7018 60.3721 67.125 59.6814 67.125 58.9288V38.7871C67.125 38.0345 66.7018 37.3438 66.0291 37.0044C65.3584 36.6691 64.5519 36.733 63.945 37.1781L54.2973 44.2886C53.7863 44.6659 53.4849 45.2628 53.4849 45.8956V51.8203C53.4849 52.4531 53.7863 53.05 54.2973 53.4273L63.945 60.5358Z" fill="url(#paint0_linear)"/>
<defs>
<linearGradient id="paint0_linear" x1="-4.09962" y1="33.9143" x2="34.7171" y2="73.6597" gradientUnits="userSpaceOnUse">
<stop stop-color="#20D0EE"/>
<stop offset="0.981733" stop-color="#15E186"/>
</linearGradient>
</defs>
</svg>
