<svg width="50" height="80" viewBox="0 0 50 80" fill="none" xmlns="http://www.w3.org/2000/svg">
<path d="M48 72L48 8C48 4.68629 45.3137 2 42 2L8 2C4.68629 2 2 4.68629 2 8L2 72C2 75.3137 4.68629 78 8 78H42C45.3137 78 48 75.3137 48 72Z" stroke="url(#paint0_linear)" stroke-width="3"/>
<path d="M25.5 53C26.8807 53 28 51.8807 28 50.5C28 49.1193 26.8807 48 25.5 48C24.1193 48 23 49.1193 23 50.5C23 51.8807 24.1193 53 25.5 53Z" stroke="url(#paint1_linear)" stroke-width="3"/>
<path d="M17 43.5645C19.8333 41.8548 22.6667 41 25.5 41C28.3333 41 31.1667 41.8548 34 43.5645" stroke="url(#paint2_linear)" stroke-width="3" stroke-linecap="round"/>
<path d="M14 37.8091C17.8333 35.2697 21.6667 34 25.5 34C29.3333 34 33.1667 35.2697 37 37.8091" stroke="url(#paint3_linear)" stroke-width="3" stroke-linecap="round"/>
<path d="M10 31.6716C15.1667 27.8905 20.3333 26 25.5 26C30.6667 26 35.8333 27.8905 41 31.6716" stroke="url(#paint4_linear)" stroke-width="3" stroke-linecap="round"/>
<defs>
<linearGradient id="paint0_linear" x1="40.2296" y1="2" x2="-15.4767" y2="52.1554" gradientUnits="userSpaceOnUse">
<stop stop-color="#2EE5FF"/>
<stop offset="1" stop-color="#44D83D"/>
</linearGradient>
<linearGradient id="paint1_linear" x1="23" y1="48.8446" x2="28.0762" y2="52.2571" gradientUnits="userSpaceOnUse">
<stop stop-color="#2EE5FF"/>
<stop offset="1" stop-color="#44D83D"/>
</linearGradient>
<linearGradient id="paint2_linear" x1="17" y1="41.4332" x2="18.2013" y2="46.7867" gradientUnits="userSpaceOnUse">
<stop stop-color="#2EE5FF"/>
<stop offset="1" stop-color="#44D83D"/>
</linearGradient>
<linearGradient id="paint3_linear" x1="14" y1="34.6434" x2="15.9399" y2="42.5177" gradientUnits="userSpaceOnUse">
<stop stop-color="#2EE5FF"/>
<stop offset="1" stop-color="#44D83D"/>
</linearGradient>
<linearGradient id="paint4_linear" x1="10" y1="26.9581" x2="13.1512" y2="38.5366" gradientUnits="userSpaceOnUse">
<stop stop-color="#2EE5FF"/>
<stop offset="1" stop-color="#44D83D"/>
</linearGradient>
</defs>
</svg>
