<?xml version="1.0" encoding="utf-8"?>
<!-- Generator: Adobe Illustrator 22.1.0, SVG Export Plug-In . SVG Version: 6.00 Build 0)  -->
<svg version="1.1" id="Layer_1" xmlns="http://www.w3.org/2000/svg" xmlns:xlink="http://www.w3.org/1999/xlink" x="0px" y="0px"
	 width="100px" height="100px" viewBox="0 0 100 100" style="enable-background:new 0 0 100 100;" xml:space="preserve">
<style type="text/css">
	.st0{fill:none;stroke:url(#SVGID_1_);stroke-width:3;}
	.st1{fill:none;stroke:url(#SVGID_2_);stroke-width:3;}
	.st2{fill:none;stroke:url(#SVGID_3_);stroke-width:3;stroke-linecap:round;}
	.st3{fill:none;stroke:url(#SVGID_4_);stroke-width:3;stroke-linecap:round;}
	.st4{fill:none;stroke:url(#SVGID_5_);stroke-width:3;stroke-linecap:round;}
</style>
<linearGradient id="SVGID_1_" gradientUnits="userSpaceOnUse" x1="103.3103" y1="34.4104" x2="47.6003" y2="84.5704" gradientTransform="matrix(1 0 0 1 -25.5 -8.5)">
	<stop  offset="0" style="stop-color:#2EE5FF"/>
	<stop  offset="1" style="stop-color:#44D83D"/>
</linearGradient>
<path class="st0" d="M73.5,82.5v-64c0-3.3-2.7-6-6-6h-34c-3.3,0-6,2.7-6,6v64c0,3.3,2.7,6,6,6h34C70.8,88.5,73.5,85.8,73.5,82.5z"/>
<linearGradient id="SVGID_2_" gradientUnits="userSpaceOnUse" x1="74.0107" y1="67.829" x2="79.0907" y2="71.239" gradientTransform="matrix(1 0 0 1 -25.5 -8.5)">
	<stop  offset="0" style="stop-color:#2EE5FF"/>
	<stop  offset="1" style="stop-color:#44D83D"/>
</linearGradient>
<path class="st1" d="M51,63.5c1.4,0,2.5-1.1,2.5-2.5s-1.1-2.5-2.5-2.5s-2.5,1.1-2.5,2.5S49.6,63.5,51,63.5z"/>
<linearGradient id="SVGID_3_" gradientUnits="userSpaceOnUse" x1="75.6388" y1="58.7203" x2="76.8388" y2="64.0703" gradientTransform="matrix(1 0 0 1 -25.5 -8.5)">
	<stop  offset="0" style="stop-color:#2EE5FF"/>
	<stop  offset="1" style="stop-color:#44D83D"/>
</linearGradient>
<path class="st2" d="M42.5,54.1c2.5-1.6,5.5-2.5,8.5-2.6c3,0.1,6,0.9,8.5,2.6"/>
<linearGradient id="SVGID_4_" gradientUnits="userSpaceOnUse" x1="75.1067" y1="51.1508" x2="77.0467" y2="59.0308" gradientTransform="matrix(1 0 0 1 -25.5 -8.5)">
	<stop  offset="0" style="stop-color:#2EE5FF"/>
	<stop  offset="1" style="stop-color:#44D83D"/>
</linearGradient>
<path class="st3" d="M39.5,48.3c3.4-2.4,7.4-3.7,11.5-3.8c4.1,0.1,8.1,1.4,11.5,3.8"/>
<linearGradient id="SVGID_5_" gradientUnits="userSpaceOnUse" x1="74.2377" y1="42.3606" x2="77.3877" y2="53.9306" gradientTransform="matrix(1 0 0 1 -25.5 -8.5)">
	<stop  offset="0" style="stop-color:#2EE5FF"/>
	<stop  offset="1" style="stop-color:#44D83D"/>
</linearGradient>
<path class="st4" d="M35.5,42.2c5.2-3.8,10.3-5.7,15.5-5.7s10.3,1.9,15.5,5.7"/>
</svg>
