<?xml version="1.0" encoding="utf-8"?>
<!-- Generator: Adobe Illustrator 22.1.0, SVG Export Plug-In . SVG Version: 6.00 Build 0)  -->
<svg version="1.1" id="Layer_1" xmlns="http://www.w3.org/2000/svg" xmlns:xlink="http://www.w3.org/1999/xlink" x="0px" y="0px"
	 width="100px" height="100px" viewBox="0 0 100 100" style="enable-background:new 0 0 100 100;" xml:space="preserve">
<style type="text/css">
	.st0{fill:url(#SVGID_1_);stroke:url(#SVGID_2_);stroke-width:1.5;}
	.st1{fill:#FFFFFF;stroke:url(#SVGID_3_);stroke-width:3;}
	.st2{fill:#FFFFFF;stroke:url(#SVGID_4_);stroke-width:3;}
	.st3{fill:url(#SVGID_5_);}
	.st4{fill:url(#SVGID_6_);}
	.st5{fill:#FFFFFF;stroke:url(#SVGID_7_);stroke-width:3;}
	.st6{fill:#FFFFFF;stroke:url(#SVGID_8_);stroke-width:3;}
	.st7{fill:url(#SVGID_9_);}
	.st8{fill:url(#SVGID_10_);}
	.st9{fill:#FFFFFF;stroke:url(#SVGID_11_);stroke-width:3;}
	.st10{fill:#FFFFFF;stroke:url(#SVGID_12_);stroke-width:3;}
	.st11{fill:url(#SVGID_13_);}
	.st12{fill:url(#SVGID_14_);}
	.st13{fill:none;stroke:url(#SVGID_15_);stroke-width:2.5;}
	.st14{fill:none;stroke:url(#SVGID_16_);stroke-width:2.5;}
</style>
<linearGradient id="SVGID_1_" gradientUnits="userSpaceOnUse" x1="96.3406" y1="44.9892" x2="65.1106" y2="20.5092" gradientTransform="matrix(1 0 0 1 -12.79 -8.64)">
	<stop  offset="0" style="stop-color:#2EE5FF"/>
	<stop  offset="1" style="stop-color:#44D83D"/>
</linearGradient>
<linearGradient id="SVGID_2_" gradientUnits="userSpaceOnUse" x1="96.3406" y1="44.9892" x2="65.1106" y2="20.5092" gradientTransform="matrix(1 0 0 1 -12.79 -8.64)">
	<stop  offset="0" style="stop-color:#2EE5FF"/>
	<stop  offset="1" style="stop-color:#44D83D"/>
</linearGradient>
<path class="st0" d="M80.2,27c2.9-4.9,1.3-10.2-3.7-12.8c-3-1.6-6.1-0.3-9.5,4.1l-0.7,0.9l-0.7-1c-3-4.5-6-5.8-9.3-4
	c-5.2,2.7-6.5,7.3-3.7,12.4c1.9,3.4,6.4,7.8,13.6,13.1C73.5,34.8,78.1,30.5,80.2,27z M77.4,12.7c5.8,3.1,7.7,9.4,4.3,15.1
	c-2.3,3.8-7.2,8.3-14.8,13.5l-0.5,0.3l-0.5-0.3c-7.7-5.6-12.5-10.3-14.6-14c-3.2-5.9-1.6-11.5,4.3-14.6c4-2.1,7.7-0.8,10.9,3.6
	C70.1,12.1,73.8,10.8,77.4,12.7z"/>
<linearGradient id="SVGID_3_" gradientUnits="userSpaceOnUse" x1="31.1561" y1="73.775" x2="47.2261" y2="93.275" gradientTransform="matrix(1 0 0 1 -12.79 -8.64)">
	<stop  offset="0" style="stop-color:#2EE5FF"/>
	<stop  offset="1" style="stop-color:#44D83D"/>
</linearGradient>
<path class="st1" d="M41.2,76.7l-1.4-3.1C37,67,29.3,64,22.8,66.9c-3,1.3-5.3,3.7-6.7,6.7l-1.4,3.1c-0.7,1.5,0,3.2,1.5,3.8
	c0.4,0.2,0.8,0.2,1.2,0.3h21.2c1.6,0,2.9-1.3,2.9-2.9C41.5,77.4,41.4,77,41.2,76.7z"/>
<linearGradient id="SVGID_4_" gradientUnits="userSpaceOnUse" x1="34.139" y1="61.8515" x2="47.669" y2="70.8815" gradientTransform="matrix(1 0 0 1 -12.79 -8.64)">
	<stop  offset="0" style="stop-color:#2EE5FF"/>
	<stop  offset="1" style="stop-color:#44D83D"/>
</linearGradient>
<path class="st2" d="M28,64.4c3.7,0,6.7-2.9,6.7-6.6c0-3.7-2.9-6.7-6.6-6.7c-3.7,0-6.7,2.9-6.7,6.6c0,0,0,0,0,0.1
	C21.3,61.4,24.3,64.3,28,64.4z"/>
<linearGradient id="SVGID_5_" gradientUnits="userSpaceOnUse" x1="30.4676" y1="73.2579" x2="48.0376" y2="93.8279" gradientTransform="matrix(1 0 0 1 -12.79 -8.64)">
	<stop  offset="0" style="stop-color:#2EE5FF"/>
	<stop  offset="1" style="stop-color:#44D83D"/>
</linearGradient>
<path class="st3" d="M40.6,76.9l-1.4-3.1c-2.7-6.2-10-9-16.2-6.3c-2.8,1.2-5.1,3.5-6.3,6.3l-1.4,3.1c-0.5,1.1,0,2.5,1.1,3
	c0.3,0.1,0.6,0.2,0.9,0.2h21.3c1.2,0,2.2-1,2.2-2.3C40.8,77.5,40.7,77.2,40.6,76.9l0.6-0.3L40.6,76.9z M41.8,76.4
	c0.8,1.8,0,3.9-1.7,4.7c-0.5,0.2-1,0.3-1.5,0.3H17.4c-1.9,0-3.5-1.6-3.5-3.6c0-0.5,0.1-1,0.3-1.4l1.4-3.1c3-6.9,11-10,17.9-7
	c3.1,1.4,5.6,3.9,7,7L41.8,76.4l-0.6,0.3L41.8,76.4z"/>
<linearGradient id="SVGID_6_" gradientUnits="userSpaceOnUse" x1="33.4651" y1="61.4723" x2="48.3051" y2="71.3823" gradientTransform="matrix(1 0 0 1 -12.79 -8.64)">
	<stop  offset="0" style="stop-color:#2EE5FF"/>
	<stop  offset="1" style="stop-color:#44D83D"/>
</linearGradient>
<path class="st4" d="M28,64.4v-0.6c3.3,0,6-2.7,6-6s-2.7-6-6-6s-6,2.7-6,6s2.7,6,6,6V64.4z M28,64.4V65c-4.1,0-7.4-3.2-7.4-7.3
	c0-4.1,3.2-7.4,7.3-7.4s7.4,3.2,7.4,7.3c0,0,0,0.1,0,0.1c0,4-3.2,7.3-7.3,7.3c0,0,0,0,0,0L28,64.4z"/>
<linearGradient id="SVGID_7_" gradientUnits="userSpaceOnUse" x1="75.1529" y1="73.7859" x2="91.2229" y2="93.2859" gradientTransform="matrix(1 0 0 1 -12.79 -8.64)">
	<stop  offset="0" style="stop-color:#2EE5FF"/>
	<stop  offset="1" style="stop-color:#44D83D"/>
</linearGradient>
<path class="st5" d="M85.2,76.7l-1.4-3.1c-2.9-6.5-10.5-9.5-17-6.6c-3,1.3-5.3,3.7-6.6,6.6l-1.4,3.1c-0.7,1.5,0,3.2,1.5,3.8
	c0.4,0.2,0.8,0.2,1.2,0.3h21.2c1.6,0,2.9-1.3,2.9-2.9C85.5,77.4,85.4,77,85.2,76.7z"/>
<linearGradient id="SVGID_8_" gradientUnits="userSpaceOnUse" x1="78.159" y1="61.8515" x2="91.689" y2="70.8815" gradientTransform="matrix(1 0 0 1 -12.79 -8.64)">
	<stop  offset="0" style="stop-color:#2EE5FF"/>
	<stop  offset="1" style="stop-color:#44D83D"/>
</linearGradient>
<path class="st6" d="M72,64.4c3.7,0,6.7-2.9,6.7-6.6c0-3.7-2.9-6.7-6.6-6.7c-3.7,0-6.7,2.9-6.7,6.6c0,0,0,0,0,0.1
	C65.4,61.4,68.3,64.3,72,64.4z"/>
<linearGradient id="SVGID_9_" gradientUnits="userSpaceOnUse" x1="74.4747" y1="73.2689" x2="92.0447" y2="93.8389" gradientTransform="matrix(1 0 0 1 -12.79 -8.64)">
	<stop  offset="0" style="stop-color:#2EE5FF"/>
	<stop  offset="1" style="stop-color:#44D83D"/>
</linearGradient>
<path class="st7" d="M84.6,76.9l-1.4-3.1c-2.7-6.2-10-9-16.2-6.3c-2.8,1.2-5.1,3.5-6.3,6.3l-1.4,3.1c-0.5,1.1,0,2.5,1.1,3
	c0.3,0.1,0.6,0.2,0.9,0.2h21.3c1.2,0,2.2-1,2.2-2.3C84.8,77.5,84.7,77.2,84.6,76.9l0.6-0.3L84.6,76.9z M85.8,76.4
	c0.8,1.8,0,3.9-1.7,4.7c-0.5,0.2-1,0.3-1.5,0.3H61.4c-1.9,0-3.5-1.6-3.5-3.6c0-0.5,0.1-1,0.3-1.4l1.4-3.1c3-6.9,11-10,17.9-7
	c3.1,1.4,5.6,3.8,7,7L85.8,76.4l-0.6,0.3L85.8,76.4z"/>
<linearGradient id="SVGID_10_" gradientUnits="userSpaceOnUse" x1="77.4767" y1="61.4698" x2="92.3267" y2="71.3799" gradientTransform="matrix(1 0 0 1 -12.79 -8.64)">
	<stop  offset="0" style="stop-color:#2EE5FF"/>
	<stop  offset="1" style="stop-color:#44D83D"/>
</linearGradient>
<path class="st8" d="M72,64.4v-0.6c3.3,0,6-2.7,6-6s-2.7-6-6-6s-6,2.7-6,6s2.7,6,6,6V64.4z M72,64.4V65c-4.1,0-7.4-3.2-7.4-7.3
	s3.2-7.4,7.3-7.4c4.1,0,7.4,3.2,7.4,7.3c0,0,0,0,0,0.1c0,4-3.2,7.3-7.3,7.3c0,0,0,0,0,0V64.4z"/>
<linearGradient id="SVGID_11_" gradientUnits="userSpaceOnUse" x1="49.8433" y1="74.3973" x2="72.5833" y2="102.3473" gradientTransform="matrix(1 0 0 1 -12.79 -8.64)">
	<stop  offset="0" style="stop-color:#2EE5FF"/>
	<stop  offset="1" style="stop-color:#44D83D"/>
</linearGradient>
<path class="st9" d="M69.7,82.2l-2-4.4c-4.2-9.4-15.3-13.6-24.7-9.3c-4.1,1.9-7.4,5.2-9.3,9.3l-2,4.4c-0.9,2.1,0,4.5,2.1,5.4
	c0.5,0.2,1.1,0.4,1.7,0.4H66c2.3,0,4.1-1.8,4.1-4.1C70.1,83.4,69.9,82.8,69.7,82.2z"/>
<linearGradient id="SVGID_12_" gradientUnits="userSpaceOnUse" x1="54.0342" y1="57.5038" x2="73.3342" y2="70.5338" gradientTransform="matrix(1 0 0 1 -12.79 -8.64)">
	<stop  offset="0" style="stop-color:#2EE5FF"/>
	<stop  offset="1" style="stop-color:#44D83D"/>
</linearGradient>
<path class="st10" d="M50.7,64.7c5.2,0,9.5-4.2,9.5-9.5s-4.2-9.5-9.5-9.5s-9.5,4.2-9.5,9.5c0,0,0,0,0,0
	C41.2,60.5,45.5,64.7,50.7,64.7z"/>
<linearGradient id="SVGID_13_" gradientUnits="userSpaceOnUse" x1="49.1153" y1="73.914" x2="73.3653" y2="102.944" gradientTransform="matrix(1 0 0 1 -12.79 -8.64)">
	<stop  offset="0" style="stop-color:#2EE5FF"/>
	<stop  offset="1" style="stop-color:#44D83D"/>
</linearGradient>
<path class="st11" d="M69.1,82.5l-2-4.4C63,69,52.4,65,43.3,69c-4,1.8-7.2,5-9,9l-2,4.4c-0.8,1.7,0,3.8,1.8,4.6
	c0.4,0.2,0.9,0.3,1.4,0.3H66c1.9,0,3.5-1.5,3.5-3.4C69.4,83.4,69.3,83,69.1,82.5l0.6-0.3L69.1,82.5z M70.3,82c1.1,2.4,0,5.2-2.4,6.3
	c-0.6,0.3-1.3,0.4-1.9,0.4H35.5c-2.6,0-4.7-2.1-4.8-4.7c0-0.7,0.1-1.3,0.4-2l2-4.4c4.4-9.7,15.8-14,25.6-9.6
	c4.3,1.9,7.7,5.4,9.6,9.6L70.3,82l-0.6,0.3L70.3,82z"/>
<linearGradient id="SVGID_14_" gradientUnits="userSpaceOnUse" x1="53.418" y1="57.0386" x2="74.028" y2="70.9486" gradientTransform="matrix(1 0 0 1 -12.79 -8.64)">
	<stop  offset="0" style="stop-color:#2EE5FF"/>
	<stop  offset="1" style="stop-color:#44D83D"/>
</linearGradient>
<path class="st12" d="M50.7,64.7v-0.6c4.9,0,8.8-4,8.8-8.9c0-4.9-4-8.8-8.9-8.8c-4.9,0-8.8,4-8.8,8.8c0,4.9,4,8.9,8.9,8.8
	c0,0,0,0,0,0V64.7z M50.7,64.7v0.6c-5.6,0-10.1-4.6-10.1-10.2c0-5.6,4.6-10.1,10.2-10.1c5.6,0,10.1,4.6,10.1,10.2
	c0,5.6-4.6,10.1-10.2,10.1c0,0,0,0,0,0V64.7z"/>
<linearGradient id="SVGID_15_" gradientUnits="userSpaceOnUse" x1="35.1575" y1="36.0949" x2="49.5575" y2="43.5349" gradientTransform="matrix(1 0 0 1 -12.79 -8.64)">
	<stop  offset="0" style="stop-color:#2EE5FF"/>
	<stop  offset="1" style="stop-color:#44D83D"/>
</linearGradient>
<path class="st13" d="M24.5,37.9l10.6-0.1c0.7,0,1.2-0.5,1.2-1.2v-7c0-1-0.8-1.8-1.8-1.8h-0.1c-0.8,0.1-1.7,0-2.5-0.3
	c-1.4-0.6-1.2-3.2-1.2-4.2c-0.1-0.9-0.8-1.5-1.7-1.4c-0.8,0-1.4,0.6-1.4,1.4l0,0c0,0.5-0.2,1.3-0.4,2.7l0,0
	c-0.1,0.9-0.9,1.6-1.8,1.6l-1,0c-0.3,0-0.6,0.3-0.6,0.6v9.1C23.9,37.6,24.1,37.8,24.5,37.9L24.5,37.9z"/>
<linearGradient id="SVGID_16_" gradientUnits="userSpaceOnUse" x1="31.9925" y1="40.6087" x2="37.6025" y2="41.8387" gradientTransform="matrix(1 0 0 1 -12.79 -8.64)">
	<stop  offset="0" style="stop-color:#2EE5FF"/>
	<stop  offset="1" style="stop-color:#44D83D"/>
</linearGradient>
<path class="st14" d="M23.3,26.5h-2.8c-0.3,0-0.6,0.3-0.6,0.6l0,0v11c0,0.3,0.3,0.6,0.6,0.6h2.8c0.3,0,0.6-0.3,0.6-0.6v-11
	C23.9,26.7,23.7,26.5,23.3,26.5L23.3,26.5z"/>
</svg>
