<?xml version="1.0" encoding="utf-8"?>
<!-- Generator: Adobe Illustrator 22.1.0, SVG Export Plug-In . SVG Version: 6.00 Build 0)  -->
<svg version="1.1" id="Layer_1" xmlns="http://www.w3.org/2000/svg" xmlns:xlink="http://www.w3.org/1999/xlink" x="0px" y="0px"
	 width="100px" height="100px" viewBox="0 0 100 100" style="enable-background:new 0 0 100 100;" xml:space="preserve">
<style type="text/css">
	.st0{fill:none;stroke:url(#SVGID_1_);stroke-width:3;}
	.st1{fill:none;stroke:url(#SVGID_2_);stroke-width:3;}
	.st2{fill:none;stroke:url(#SVGID_3_);stroke-width:3;stroke-linecap:round;}
	.st3{fill:none;stroke:url(#SVGID_4_);stroke-width:3;stroke-linecap:round;}
</style>
<linearGradient id="SVGID_1_" gradientUnits="userSpaceOnUse" x1="103.3103" y1="34.4104" x2="47.6003" y2="84.5704" gradientTransform="matrix(1 0 0 1 -25.5 -8.5)">
	<stop  offset="0" style="stop-color:#2EE5FF"/>
	<stop  offset="1" style="stop-color:#44D83D"/>
</linearGradient>
<path class="st0" d="M73.5,82.5v-64c0-3.3-2.7-6-6-6h-34c-3.3,0-6,2.7-6,6v64c0,3.3,2.7,6,6,6h34C70.8,88.5,73.5,85.8,73.5,82.5z"/>
<linearGradient id="SVGID_2_" gradientUnits="userSpaceOnUse" x1="61.0692" y1="48.9612" x2="91.5292" y2="69.4412" gradientTransform="matrix(1 0 0 1 -25.5 -8.5)">
	<stop  offset="0" style="stop-color:#2EE5FF"/>
	<stop  offset="1" style="stop-color:#44D83D"/>
</linearGradient>
<path class="st1" d="M50.5,65.5c8.3,0,15-6.7,15-15s-6.7-15-15-15s-15,6.7-15,15S42.2,65.5,50.5,65.5z"/>
<linearGradient id="SVGID_3_" gradientUnits="userSpaceOnUse" x1="74.5" y1="58.5" x2="77.5" y2="58.5" gradientTransform="matrix(1 0 0 1 -25.5 -8.5)">
	<stop  offset="0" style="stop-color:#2EE5FF"/>
	<stop  offset="1" style="stop-color:#44D83D"/>
</linearGradient>
<path class="st2" d="M50.5,42v16"/>
<linearGradient id="SVGID_4_" gradientUnits="userSpaceOnUse" x1="66.5" y1="58.5" x2="85.5" y2="58.5" gradientTransform="matrix(1 0 0 1 -25.5 -8.5)">
	<stop  offset="0" style="stop-color:#2EE5FF"/>
	<stop  offset="1" style="stop-color:#44D83D"/>
</linearGradient>
<path class="st3" d="M58.5,50h-16"/>
</svg>
