<?xml version="1.0" encoding="utf-8"?>
<!-- Generator: Adobe Illustrator 22.1.0, SVG Export Plug-In . SVG Version: 6.00 Build 0)  -->
<svg version="1.1" id="Layer_1" xmlns="http://www.w3.org/2000/svg" xmlns:xlink="http://www.w3.org/1999/xlink" x="0px" y="0px"
	 width="100px" height="100px" viewBox="0 0 100 100" style="enable-background:new 0 0 100 100;" xml:space="preserve">
<style type="text/css">
	.st0{fill:none;stroke:url(#SVGID_1_);stroke-width:3.2;stroke-linecap:round;stroke-linejoin:round;}
	.st1{fill:none;stroke:url(#SVGID_2_);stroke-width:3.2;}
	.st2{fill:none;stroke:url(#SVGID_3_);stroke-width:3.2;stroke-linecap:round;stroke-linejoin:round;}
	.st3{fill:none;stroke:url(#SVGID_4_);stroke-width:3.2;stroke-linecap:round;stroke-linejoin:round;}
	.st4{fill:none;stroke:url(#SVGID_5_);stroke-width:3.2;stroke-linecap:round;}
	.st5{fill:none;stroke:url(#SVGID_6_);stroke-width:3.2;stroke-linecap:round;stroke-linejoin:round;}
	.st6{fill:none;stroke:url(#SVGID_7_);stroke-width:3.2;stroke-linecap:round;stroke-linejoin:round;}
	.st7{fill:none;stroke:url(#SVGID_8_);stroke-width:3.2;stroke-linecap:round;stroke-linejoin:round;}
</style>
<linearGradient id="SVGID_1_" gradientUnits="userSpaceOnUse" x1="48.8201" y1="35.6997" x2="84.4001" y2="50.7297" gradientTransform="matrix(1 0 0 1 -15.4 -8.4)">
	<stop  offset="0" style="stop-color:#2EE5FF"/>
	<stop  offset="1" style="stop-color:#44D83D"/>
</linearGradient>
<path class="st0" d="M50.6,57.9C41.1,43.4,36.4,33,36.4,26.6c0-9.6,7.9-14,14.2-14s14.2,4,14.2,14C64.8,33.3,60.1,43.7,50.6,57.9z"
	/>
<linearGradient id="SVGID_2_" gradientUnits="userSpaceOnUse" x1="65.7249" y1="29.9227" x2="74.6649" y2="35.9227" gradientTransform="matrix(1 0 0 1 -15.4 -8.4)">
	<stop  offset="0" style="stop-color:#2EE5FF"/>
	<stop  offset="1" style="stop-color:#44D83D"/>
</linearGradient>
<path class="st1" d="M54.7,28.9c2.4,0,4.4-2,4.4-4.4s-2-4.4-4.4-4.4c-2.4,0-4.4,2-4.4,4.4c0,0,0,0,0,0
	C50.3,26.9,52.3,28.9,54.7,28.9C54.7,28.9,54.7,28.9,54.7,28.9z"/>
<linearGradient id="SVGID_3_" gradientUnits="userSpaceOnUse" x1="61.7693" y1="43.3118" x2="63.6893" y2="44.6218" gradientTransform="matrix(1 0 0 1 -15.4 -8.4)">
	<stop  offset="0" style="stop-color:#2EE5FF"/>
	<stop  offset="1" style="stop-color:#44D83D"/>
</linearGradient>
<path class="st2" d="M46.3,34.6l1.9,1.9"/>
<linearGradient id="SVGID_4_" gradientUnits="userSpaceOnUse" x1="63.7576" y1="41.0135" x2="64.8676" y2="41.7635" gradientTransform="matrix(1 0 0 1 -15.4 -8.4)">
	<stop  offset="0" style="stop-color:#2EE5FF"/>
	<stop  offset="1" style="stop-color:#44D83D"/>
</linearGradient>
<path class="st3" d="M48.3,32.4l1.1,1.1"/>
<linearGradient id="SVGID_5_" gradientUnits="userSpaceOnUse" x1="59.3722" y1="37.7067" x2="67.1922" y2="42.9467" gradientTransform="matrix(1 0 0 1 -15.4 -8.4)">
	<stop  offset="0" style="stop-color:#2EE5FF"/>
	<stop  offset="1" style="stop-color:#44D83D"/>
</linearGradient>
<path class="st4" d="M51.7,28L44,35.7"/>
<linearGradient id="SVGID_6_" gradientUnits="userSpaceOnUse" x1="62.7831" y1="67.3586" x2="78.9232" y2="100.1986" gradientTransform="matrix(1 0 0 1 -15.4 -8.4)">
	<stop  offset="0" style="stop-color:#2EE5FF"/>
	<stop  offset="1" style="stop-color:#44D83D"/>
</linearGradient>
<path class="st5" d="M61.7,70.2c9.6-2.5,15.5-3.9,17.8-4.4c3.4-0.7,4.8,1.2,4,3.4S63.8,81.2,60.3,82.4c-3.6,1.2-14.6-2.2-18.8-2.1
	c-2.8,0.1-7.4,1.4-14,3.8"/>
<linearGradient id="SVGID_7_" gradientUnits="userSpaceOnUse" x1="55.5471" y1="68.2412" x2="63.1371" y2="86.0712" gradientTransform="matrix(1 0 0 1 -15.4 -8.4)">
	<stop  offset="0" style="stop-color:#2EE5FF"/>
	<stop  offset="1" style="stop-color:#44D83D"/>
</linearGradient>
<path class="st6" d="M27.5,69.9c5.3-4.1,9.2-6.2,11.5-6.3c1.9-0.1,5.2,1.8,8.8,2.6c2.7,0.5,5.5,0.8,8.2,0.9c4.4,0.4,5.1,1.2,5.1,2.5
	S60.1,72,56,72.8c-3.7,0.5-7.4,0.5-11.1,0"/>
<linearGradient id="SVGID_8_" gradientUnits="userSpaceOnUse" x1="31.2998" y1="82.5706" x2="44.8498" y2="86.2906" gradientTransform="matrix(1 0 0 1 -15.4 -8.4)">
	<stop  offset="0" style="stop-color:#2EE5FF"/>
	<stop  offset="1" style="stop-color:#44D83D"/>
</linearGradient>
<path class="st7" d="M27.5,63.9h-9.9v24.2h9.9V63.9z"/>
</svg>
