<?xml version="1.0" encoding="utf-8"?>
<!-- Generator: Adobe Illustrator 19.2.0, SVG Export Plug-In . SVG Version: 6.00 Build 0)  -->
<svg version="1.1" id="Layer_1" xmlns="http://www.w3.org/2000/svg" xmlns:xlink="http://www.w3.org/1999/xlink" x="0px" y="0px"
	 viewBox="0 0 95 95" style="enable-background:new 0 0 95 95;" xml:space="preserve">
<style type="text/css">
	.st0{fill:#12AEF9;}
</style>
<path class="st0" d="M47.5,0C21.3,0,0,21.3,0,47.5S21.3,95,47.5,95S95,73.7,95,47.5S73.7,0,47.5,0z M47.5,91.8
	c-24.4,0-44.3-19.9-44.3-44.3S23.1,3.2,47.5,3.2s44.3,19.9,44.3,44.3S71.9,91.8,47.5,91.8z"/>
<path class="st0" d="M47.5,9.5c-0.9,0-1.6,0.7-1.6,1.6v36.4H22.2c-0.9,0-1.6,0.7-1.6,1.6c0,0.9,0.7,1.6,1.6,1.6h25.3
	c0.9,0,1.6-0.7,1.6-1.6v-38C49.1,10.2,48.4,9.5,47.5,9.5z"/>
</svg>
