<svg width="95" height="95" viewBox="0 0 95 95" fill="none" xmlns="http://www.w3.org/2000/svg">
<path d="M45.9104 77.5833C42.4176 77.5833 39.5771 80.4238 39.5771 83.9166C39.5771 87.4094 42.4176 90.2499 45.9104 90.2499C49.4032 90.2499 52.2437 87.4094 52.2437 83.9166C52.2437 80.4238 49.4016 77.5833 45.9104 77.5833ZM45.9104 87.0833C44.164 87.0833 42.7437 85.663 42.7437 83.9166C42.7437 82.1702 44.164 80.7499 45.9104 80.7499C47.6568 80.7499 49.0771 82.1702 49.0771 83.9166C49.0771 85.663 47.6568 87.0833 45.9104 87.0833Z" fill="url(#paint0_linear)"/>
<path d="M41.1604 7.91667H47.4937C48.3677 7.91667 49.0771 7.20892 49.0771 6.33333C49.0771 5.45775 48.3677 4.75 47.4937 4.75H41.1604C40.2864 4.75 39.5771 5.45775 39.5771 6.33333C39.5771 7.20892 40.2848 7.91667 41.1604 7.91667Z" fill="url(#paint1_linear)"/>
<path d="M52.2437 7.91667H53.8271C54.7011 7.91667 55.4104 7.20892 55.4104 6.33333C55.4104 5.45775 54.7011 4.75 53.8271 4.75H52.2437C51.3697 4.75 50.6604 5.45775 50.6604 6.33333C50.6604 7.20892 51.3681 7.91667 52.2437 7.91667Z" fill="url(#paint2_linear)"/>
<path d="M6.64859 21.1248L6.24801 19.6302C6.02159 18.7862 5.15709 18.2812 4.30843 18.5107C3.46451 18.7387 2.96259 19.6048 3.18901 20.4503L3.58959 21.945C3.77959 22.6527 4.41926 23.1182 5.11751 23.1182C5.25209 23.1182 5.39143 23.1008 5.52918 23.0644C6.37309 22.8364 6.87501 21.9687 6.64859 21.1248Z" fill="url(#paint3_linear)"/>
<path d="M3.33457 15.6163C4.2054 15.5324 4.84349 14.7597 4.75957 13.8905C4.7469 13.7622 4.74057 13.6372 4.74057 13.5089C4.74057 13.2682 4.76432 13.0292 4.80707 12.798C4.9749 11.9383 4.41123 11.1102 3.55307 10.9439C2.69649 10.7872 1.86524 11.3429 1.70057 12.2011C1.61665 12.6365 1.57549 13.0798 1.57549 13.5121C1.57549 13.7369 1.58657 13.9633 1.60874 14.1929C1.68632 15.0099 2.37507 15.6242 3.18257 15.6242C3.23324 15.6242 3.2839 15.6227 3.33457 15.6163Z" fill="url(#paint4_linear)"/>
<path d="M10.6543 36.0811L10.2537 34.5849C10.0273 33.7409 9.16121 33.2327 8.31571 33.4654C7.47021 33.6919 6.9683 34.5579 7.19471 35.405L7.5953 36.9013C7.7853 37.6074 8.42338 38.0745 9.12321 38.0745C9.2578 38.0745 9.39555 38.0571 9.5333 38.0207C10.3804 37.7943 10.8823 36.9266 10.6543 36.0811Z" fill="url(#paint5_linear)"/>
<path d="M18.6707 65.9935L18.2701 64.4988C18.0437 63.6533 17.1776 63.1466 16.3305 63.3794C15.4866 63.6074 14.9847 64.4735 15.2111 65.319L15.6117 66.8136C15.8017 67.5214 16.4414 67.9869 17.1396 67.9869C17.2742 67.9869 17.4135 67.9695 17.5513 67.933C18.3968 67.705 18.8971 66.8374 18.6707 65.9935Z" fill="url(#paint6_linear)"/>
<path d="M8.6513 28.6014L8.25072 27.1067C8.0243 26.2612 7.15822 25.7545 6.31113 25.9873C5.46722 26.2153 4.9653 27.0814 5.19172 27.9269L5.5923 29.4215C5.7823 30.1293 6.42197 30.5948 7.12022 30.5948C7.2548 30.5948 7.39413 30.5774 7.53188 30.5409C8.37738 30.3145 8.87772 29.4469 8.6513 28.6014Z" fill="url(#paint7_linear)"/>
<path d="M7.30712 9.853C7.4417 9.853 7.57945 9.83559 7.7172 9.79917L9.21345 9.39859C10.0574 9.17217 10.5593 8.30609 10.3329 7.459C10.1065 6.61509 9.24195 6.10367 8.39329 6.33959L6.89704 6.74017C6.05312 6.96659 5.5512 7.83267 5.77762 8.67975C5.96762 9.38592 6.60729 9.853 7.30712 9.853Z" fill="url(#paint8_linear)"/>
<path d="M14.7853 7.84713C14.9199 7.84713 15.0576 7.82972 15.1954 7.7933L16.69 7.39272C17.5339 7.1663 18.0359 6.29863 17.8094 5.45314C17.583 4.60764 16.7201 4.10097 15.8714 4.33372L14.3768 4.7343C13.5329 4.96072 13.0309 5.82839 13.2574 6.67388C13.4458 7.38005 14.0854 7.84713 14.7853 7.84713Z" fill="url(#paint9_linear)"/>
<path d="M16.6662 58.5153L16.2656 57.019C16.0392 56.1751 15.1715 55.6716 14.326 55.8996C13.4805 56.126 12.9802 56.9937 13.2066 57.8392L13.6072 59.3354C13.7972 60.0432 14.4368 60.5087 15.1351 60.5087C15.2697 60.5087 15.409 60.4913 15.5452 60.4549C16.3923 60.2284 16.8926 59.3592 16.6662 58.5153Z" fill="url(#paint10_linear)"/>
<path d="M12.6589 43.559L12.2583 42.0644C12.0319 41.222 11.1658 40.7154 10.3187 40.945C9.47479 41.1714 8.97287 42.039 9.19929 42.8845L9.59987 44.3792C9.78987 45.0854 10.428 45.5525 11.1278 45.5525C11.2624 45.5525 11.4001 45.535 11.5379 45.4986C12.3834 45.2722 12.8853 44.403 12.6589 43.559Z" fill="url(#paint11_linear)"/>
<path d="M14.6634 51.0356L14.2629 49.541C14.0364 48.6971 13.1703 48.1872 12.3233 48.4216C11.4793 48.648 10.9774 49.5156 11.2038 50.3611L11.6044 51.8558C11.7944 52.562 12.4325 53.0291 13.1323 53.0291C13.2669 53.0291 13.4047 53.0116 13.5424 52.9752C14.3879 52.7488 14.8899 51.8811 14.6634 51.0356Z" fill="url(#paint12_linear)"/>
<path d="M88.6906 25.9887C87.8419 25.7575 86.9774 26.2626 86.751 27.1081L86.3504 28.6028C86.124 29.4467 86.6244 30.3144 87.4699 30.5424C87.6076 30.5788 87.7454 30.5962 87.8815 30.5962C88.5798 30.5962 89.221 30.1307 89.4094 29.4229L89.81 27.9283C90.0349 27.0828 89.5345 26.2167 88.6906 25.9887Z" fill="url(#paint13_linear)"/>
<path d="M90.6917 18.5092C89.8415 18.2781 88.9785 18.7863 88.7521 19.6286L88.3515 21.1233C88.1251 21.9672 88.627 22.8365 89.471 23.0629C89.6087 23.0993 89.7465 23.1167 89.881 23.1167C90.5809 23.1167 91.2205 22.6496 91.409 21.9435L91.8095 20.4488C92.0375 19.6049 91.5372 18.7356 90.6917 18.5092Z" fill="url(#paint14_linear)"/>
<path d="M93.2997 12.2028C93.1366 11.3462 92.3117 10.7905 91.4472 10.9456C90.5891 11.1103 90.0254 11.94 90.1901 12.7997C90.2344 13.0309 90.2581 13.27 90.2566 13.5122C90.2566 13.6389 90.2502 13.764 90.2376 13.8906C90.1552 14.7615 90.7933 15.5341 91.6626 15.6181C91.7132 15.6244 91.7639 15.626 91.8146 15.626C92.6221 15.626 93.3108 15.0116 93.39 14.1946C93.4122 13.9651 93.4232 13.7386 93.4232 13.5154C93.4248 13.08 93.3836 12.6382 93.2997 12.2028Z" fill="url(#paint15_linear)"/>
<path d="M78.3099 7.39261L79.8046 7.79319C79.9423 7.82961 80.0801 7.84703 80.2147 7.84703C80.9145 7.84703 81.5542 7.37994 81.7426 6.67378C81.969 5.82986 81.4671 4.96061 80.6232 4.73419L79.1285 4.33361C78.2767 4.10086 77.4153 4.60911 77.1889 5.45303C76.9641 6.29853 77.466 7.16619 78.3099 7.39261Z" fill="url(#paint16_linear)"/>
<path d="M85.7884 9.39877L87.2847 9.79935C87.4224 9.83577 87.5602 9.85319 87.6947 9.85319C88.3946 9.85319 89.0342 9.3861 89.2227 8.67994C89.4491 7.83444 88.9472 6.96677 88.1032 6.74036L86.607 6.33977C85.7583 6.10544 84.8922 6.61527 84.6674 7.45919C84.4426 8.30469 84.9429 9.17235 85.7884 9.39877Z" fill="url(#paint17_linear)"/>
<path d="M86.6857 33.4669C85.8387 33.2405 84.971 33.7424 84.7462 34.5864L84.3456 36.081C84.1192 36.9249 84.6195 37.7926 85.465 38.0206C85.6027 38.057 85.7405 38.0744 85.8767 38.0744C86.5749 38.0744 87.2162 37.6089 87.4046 36.9012L87.8052 35.4065C88.0316 34.561 87.5297 33.6934 86.6857 33.4669Z" fill="url(#paint18_linear)"/>
<path d="M76.6667 70.8558C75.8244 70.6309 74.9535 71.1297 74.7271 71.9752L74.4247 73.1025V72.8302C74.4247 72.8033 74.4104 72.7811 74.4089 72.7542V66.7137C74.4104 66.6868 74.4247 66.6647 74.4247 66.6378V65.0893C74.4247 65.0623 74.4104 65.0402 74.4089 65.0133V58.9728C74.4104 58.9459 74.4247 58.9238 74.4247 58.8968V57.3483C74.4247 57.3214 74.4104 57.2993 74.4089 57.2723V51.2319C74.4104 51.205 74.4247 51.1828 74.4247 51.1559V49.6074C74.4247 49.5805 74.4104 49.5583 74.4089 49.5314V43.491C74.4104 43.4641 74.4247 43.4419 74.4247 43.415V41.8665C74.4247 41.8396 74.4104 41.8174 74.4089 41.7905V35.7501C74.4104 35.7232 74.4247 35.701 74.4247 35.6741V34.1208C74.4247 34.0939 74.4104 34.0718 74.4089 34.0448V28.0044C74.4104 27.9775 74.4247 27.9553 74.4247 27.9284V26.3783C74.4247 26.3514 74.4104 26.3292 74.4089 26.3023V20.2635C74.4104 20.2366 74.4247 20.2144 74.4247 20.1875V18.6374C74.4247 18.6105 74.4104 18.5883 74.4089 18.5614V12.521C74.4104 12.4941 74.4247 12.4719 74.4247 12.445V10.8949C74.4247 10.868 74.4104 10.8458 74.4089 10.8189V6.97458C74.4104 3.13025 71.2818 0 67.4343 0H27.5517C23.7058 0 20.5771 3.13025 20.5771 6.97458V10.8918V10.8949V12.4434V12.4466V18.6327V18.6358V20.1843V20.1875V26.372V26.3752V27.9252V27.9284V34.1129V34.1161V35.6662V35.6693V41.8538V41.857V43.4071V43.4103V49.5948V49.5979V51.148V51.1512V57.3357V57.3388V58.8889V58.8921V65.0766V65.0798V66.6283V66.6314V72.8175V72.8207V73.093L20.2747 71.9657C20.0483 71.1218 19.1822 70.6119 18.3351 70.8463C17.4912 71.0727 16.9893 71.9403 17.2157 72.7858L17.6163 74.2805C17.8427 75.1228 18.7056 75.6311 19.5559 75.3999C20.0261 75.2748 20.3855 74.9487 20.5787 74.5417V78.299C20.4995 78.3085 20.4204 78.3022 20.3412 78.3243C19.4973 78.5507 18.9954 79.4184 19.2218 80.2639L19.6224 81.7586C19.7569 82.2621 20.1274 82.6326 20.5787 82.8099V88.0159C20.5787 91.8618 23.7074 94.9905 27.5533 94.9905H67.4343C71.2802 94.9905 74.4089 91.8603 74.4089 88.0159V82.8178C74.868 82.6437 75.2449 82.2716 75.381 81.7602L75.7816 80.2655C76.008 79.4216 75.5061 78.5523 74.6622 78.3259C74.5767 78.3038 74.4944 78.3085 74.4089 78.3006V74.5576C74.4104 74.5497 74.4152 74.5433 74.4152 74.5338C74.6052 74.9471 74.9709 75.2748 75.4444 75.4015C76.2899 75.6279 77.1575 75.1276 77.3839 74.2821L77.7845 72.7858C78.0125 71.9498 77.5122 71.0822 76.6667 70.8558ZM23.7438 12.6667H71.2438V72.8333H23.7438V12.6667V12.6667ZM27.5517 3.16667H67.4343C69.5338 3.16667 71.2422 4.87508 71.2422 6.97458V9.5H23.7422V6.97458C23.7438 4.87508 25.4522 3.16667 27.5517 3.16667ZM67.4343 91.8333H27.5517C25.4522 91.8333 23.7438 90.1249 23.7438 88.0254V76H71.2438V88.0254C71.2438 90.1249 69.5354 91.8333 67.4343 91.8333Z" fill="url(#paint19_linear)"/>
<path d="M80.6739 55.9012C79.8236 55.6685 78.9607 56.1767 78.7343 57.0207L78.3337 58.5153C78.1073 59.3592 78.6092 60.2285 79.4531 60.4549C79.5909 60.4913 79.7286 60.5087 79.8632 60.5087C80.563 60.5087 81.2027 60.0417 81.3911 59.3355L81.7917 57.8408C82.0197 56.9953 81.5178 56.1261 80.6739 55.9012Z" fill="url(#paint20_linear)"/>
<path d="M78.6712 63.3776C77.8209 63.1464 76.958 63.6515 76.7316 64.497L76.331 65.9917C76.1046 66.8356 76.6049 67.7033 77.4504 67.9313C77.5882 67.9677 77.7259 67.9851 77.8621 67.9851C78.5604 67.9851 79.2016 67.5196 79.39 66.8118L79.7906 65.3172C80.017 64.4733 79.5151 63.6056 78.6712 63.3776Z" fill="url(#paint21_linear)"/>
<path d="M82.6771 48.4216C81.8316 48.1872 80.964 48.6971 80.7391 49.541L80.3386 51.0372C80.1121 51.8827 80.6141 52.7504 81.4596 52.9768C81.5957 53.0132 81.7335 53.0306 81.8696 53.0306C82.5695 53.0306 83.2091 52.5636 83.3975 51.8574L83.7981 50.3611C84.023 49.5141 83.521 48.648 82.6771 48.4216Z" fill="url(#paint22_linear)"/>
<path d="M84.6814 40.9435C83.8312 40.7139 82.9683 41.2206 82.7418 42.0629L82.3413 43.5576C82.1148 44.4015 82.6168 45.2708 83.4607 45.4972C83.5984 45.5336 83.7362 45.551 83.8708 45.551C84.5706 45.551 85.2103 45.0839 85.3987 44.3778L85.7993 42.8831C86.0273 42.0392 85.5253 41.1699 84.6814 40.9435Z" fill="url(#paint23_linear)"/>
<defs>
<linearGradient id="paint0_linear" x1="33.2437" y1="83.9166" x2="45.9104" y2="96.5832" gradientUnits="userSpaceOnUse">
<stop offset="0.1882" stop-color="#20D0EE"/>
<stop offset="0.826432" stop-color="#0AED88"/>
</linearGradient>
<linearGradient id="paint1_linear" x1="34.8271" y1="6.33333" x2="36.7271" y2="12.0333" gradientUnits="userSpaceOnUse">
<stop offset="0.1882" stop-color="#20D0EE"/>
<stop offset="0.826432" stop-color="#0AED88"/>
</linearGradient>
<linearGradient id="paint2_linear" x1="48.2854" y1="6.33333" x2="51.2085" y2="10.718" gradientUnits="userSpaceOnUse">
<stop offset="0.1882" stop-color="#20D0EE"/>
<stop offset="0.826432" stop-color="#0AED88"/>
</linearGradient>
<linearGradient id="paint3_linear" x1="1.35054" y1="20.7868" x2="5.85139" y2="24.231" gradientUnits="userSpaceOnUse">
<stop offset="0.1882" stop-color="#20D0EE"/>
<stop offset="0.826432" stop-color="#0AED88"/>
</linearGradient>
<linearGradient id="paint4_linear" x1="-0.0550946" y1="13.2709" x2="4.35169" y2="16.3242" gradientUnits="userSpaceOnUse">
<stop offset="0.1882" stop-color="#20D0EE"/>
<stop offset="0.826432" stop-color="#0AED88"/>
</linearGradient>
<linearGradient id="paint5_linear" x1="5.35593" y1="35.7417" x2="9.8589" y2="39.1862" gradientUnits="userSpaceOnUse">
<stop offset="0.1882" stop-color="#20D0EE"/>
<stop offset="0.826432" stop-color="#0AED88"/>
</linearGradient>
<linearGradient id="paint6_linear" x1="13.3726" y1="65.6548" x2="17.8743" y2="69.0989" gradientUnits="userSpaceOnUse">
<stop offset="0.1882" stop-color="#20D0EE"/>
<stop offset="0.826432" stop-color="#0AED88"/>
</linearGradient>
<linearGradient id="paint7_linear" x1="3.3532" y1="28.2627" x2="7.85493" y2="31.7069" gradientUnits="userSpaceOnUse">
<stop offset="0.1882" stop-color="#20D0EE"/>
<stop offset="0.826432" stop-color="#0AED88"/>
</linearGradient>
<linearGradient id="paint8_linear" x1="3.39132" y1="8.06749" x2="6.83872" y2="12.57" gradientUnits="userSpaceOnUse">
<stop offset="0.1882" stop-color="#20D0EE"/>
<stop offset="0.826432" stop-color="#0AED88"/>
</linearGradient>
<linearGradient id="paint9_linear" x1="10.8726" y1="6.06212" x2="14.3195" y2="10.562" gradientUnits="userSpaceOnUse">
<stop offset="0.1882" stop-color="#20D0EE"/>
<stop offset="0.826432" stop-color="#0AED88"/>
</linearGradient>
<linearGradient id="paint10_linear" x1="11.3679" y1="58.1767" x2="15.8696" y2="61.621" gradientUnits="userSpaceOnUse">
<stop offset="0.1882" stop-color="#20D0EE"/>
<stop offset="0.826432" stop-color="#0AED88"/>
</linearGradient>
<linearGradient id="paint11_linear" x1="7.36082" y1="43.2211" x2="11.8616" y2="46.6653" gradientUnits="userSpaceOnUse">
<stop offset="0.1882" stop-color="#20D0EE"/>
<stop offset="0.826432" stop-color="#0AED88"/>
</linearGradient>
<linearGradient id="paint12_linear" x1="9.36538" y1="50.6968" x2="13.8674" y2="54.1407" gradientUnits="userSpaceOnUse">
<stop offset="0.1882" stop-color="#20D0EE"/>
<stop offset="0.826432" stop-color="#0AED88"/>
</linearGradient>
<linearGradient id="paint13_linear" x1="84.5121" y1="28.2644" x2="89.0133" y2="31.708" gradientUnits="userSpaceOnUse">
<stop offset="0.1882" stop-color="#20D0EE"/>
<stop offset="0.826432" stop-color="#0AED88"/>
</linearGradient>
<linearGradient id="paint14_linear" x1="86.5135" y1="20.785" x2="91.0144" y2="24.2282" gradientUnits="userSpaceOnUse">
<stop offset="0.1882" stop-color="#20D0EE"/>
<stop offset="0.826432" stop-color="#0AED88"/>
</linearGradient>
<linearGradient id="paint15_linear" x1="88.5306" y1="13.2728" x2="92.9374" y2="16.327" gradientUnits="userSpaceOnUse">
<stop offset="0.1882" stop-color="#20D0EE"/>
<stop offset="0.826432" stop-color="#0AED88"/>
</linearGradient>
<linearGradient id="paint16_linear" x1="74.8044" y1="6.06206" x2="78.2509" y2="10.5626" gradientUnits="userSpaceOnUse">
<stop offset="0.1882" stop-color="#20D0EE"/>
<stop offset="0.826432" stop-color="#0AED88"/>
</linearGradient>
<linearGradient id="paint17_linear" x1="82.2819" y1="8.06795" x2="85.7288" y2="12.5699" gradientUnits="userSpaceOnUse">
<stop offset="0.1882" stop-color="#20D0EE"/>
<stop offset="0.826432" stop-color="#0AED88"/>
</linearGradient>
<linearGradient id="paint18_linear" x1="82.507" y1="35.7435" x2="87.0071" y2="39.1881" gradientUnits="userSpaceOnUse">
<stop offset="0.1882" stop-color="#20D0EE"/>
<stop offset="0.826432" stop-color="#0AED88"/>
</linearGradient>
<linearGradient id="paint19_linear" x1="-13.1778" y1="47.4953" x2="73.0103" y2="102.551" gradientUnits="userSpaceOnUse">
<stop offset="0.1882" stop-color="#20D0EE"/>
<stop offset="0.826432" stop-color="#0AED88"/>
</linearGradient>
<linearGradient id="paint20_linear" x1="76.4957" y1="58.1767" x2="80.997" y2="61.6196" gradientUnits="userSpaceOnUse">
<stop offset="0.1882" stop-color="#20D0EE"/>
<stop offset="0.826432" stop-color="#0AED88"/>
</linearGradient>
<linearGradient id="paint21_linear" x1="74.4924" y1="65.6533" x2="78.9937" y2="69.0975" gradientUnits="userSpaceOnUse">
<stop offset="0.1882" stop-color="#20D0EE"/>
<stop offset="0.826432" stop-color="#0AED88"/>
</linearGradient>
<linearGradient id="paint22_linear" x1="78.5004" y1="50.6976" x2="83.0034" y2="54.1404" gradientUnits="userSpaceOnUse">
<stop offset="0.1882" stop-color="#20D0EE"/>
<stop offset="0.826432" stop-color="#0AED88"/>
</linearGradient>
<linearGradient id="paint23_linear" x1="80.5033" y1="43.2196" x2="85.0037" y2="46.6627" gradientUnits="userSpaceOnUse">
<stop offset="0.1882" stop-color="#20D0EE"/>
<stop offset="0.826432" stop-color="#0AED88"/>
</linearGradient>
</defs>
</svg>
