<svg width="95" height="95" viewBox="0 0 95 95" fill="none" xmlns="http://www.w3.org/2000/svg">
<g clip-path="url(#clip0)">
<path fill-rule="evenodd" clip-rule="evenodd" d="M63.0955 2.52507L58.9339 9.46161C66.9788 13.6215 72.4987 22.0047 72.5004 31.6679C72.5004 32.5895 71.7537 33.3345 70.8337 33.3345H24.1679C23.2479 33.3345 22.5013 32.5895 22.5013 31.6679C22.5013 22.0031 28.0228 13.6199 36.0677 9.46161L31.9061 2.52507C31.4328 1.73508 31.6878 0.711768 32.4777 0.238443C33.2677 -0.234882 34.291 0.0184472 34.7644 0.8101L39.156 8.12997C41.7709 7.19999 44.5709 6.66666 47.5008 6.66666C50.4308 6.66666 53.2307 7.19999 55.8457 8.12997L60.2373 0.8101C60.7106 0.0184472 61.7322 -0.236548 62.5239 0.238443C63.3139 0.711768 63.5689 1.73508 63.0955 2.52507ZM47.5008 10.0016C36.1143 10.0016 26.7512 18.8298 25.8979 30.0013H69.1038C68.2505 18.8298 58.8873 10.0016 47.5008 10.0016ZM56.9323 18.9397H59.129C59.7356 18.9397 60.2289 19.4314 60.2289 20.038V22.2346C60.2289 22.8413 59.7373 23.333 59.1306 23.333H56.9323C56.3257 23.333 55.834 22.8413 55.834 22.2346V20.038C55.834 19.4314 56.3257 18.9397 56.9323 18.9397ZM38.0675 18.9397H35.8692C35.2626 18.9397 34.7709 19.4314 34.7709 20.038V22.2346C34.7709 22.8413 35.2626 23.333 35.8692 23.333H38.0675C38.6742 23.333 39.1658 22.8413 39.1658 22.2346V20.038C39.1658 19.4314 38.6742 18.9397 38.0675 18.9397ZM24.1662 35.0012H70.8321C71.7537 35.0012 72.4987 35.7462 72.4987 36.6679V70.2856C72.4987 74.7239 68.8855 78.3338 64.4422 78.3338H62.4989V88.3436C62.4989 92.0136 59.509 95.0002 55.8324 95.0002C52.1558 95.0002 49.1658 92.0136 49.1658 88.3436V78.3338H45.8325V88.3436C45.8325 92.0136 42.8426 95.0002 39.166 95.0002C35.4894 95.0002 32.4994 92.0136 32.4994 88.3436V78.3338H30.5561C26.1145 78.3338 22.4996 74.7239 22.4996 70.2856V36.6679C22.4996 35.7462 23.2463 35.0012 24.1662 35.0012ZM64.4422 75.0005C67.0472 75.0005 69.1655 72.8856 69.1655 70.2856V38.3345H25.8329V70.2856C25.8329 72.8839 27.9528 75.0005 30.5578 75.0005H34.1661C35.086 75.0005 35.8327 75.7455 35.8327 76.6672V88.3436C35.8327 90.1753 37.3277 91.6669 39.166 91.6669C41.0043 91.6669 42.4993 90.1769 42.4993 88.3436V76.6672C42.4993 75.7455 43.2459 75.0005 44.1659 75.0005H50.8324C51.7524 75.0005 52.4991 75.7455 52.4991 76.6672V88.3436C52.4991 90.1753 53.994 91.6669 55.8324 91.6669C57.6707 91.6669 59.1656 90.1769 59.1656 88.3436V76.6672C59.1656 75.7455 59.9123 75.0005 60.8323 75.0005H64.4422ZM79.9986 35.0012C76.782 35.0012 74.1654 37.6212 74.1654 40.8411V64.1607C74.1654 67.3807 76.782 70.0006 79.9986 70.0006C83.2152 70.0006 85.8318 67.3807 85.8318 64.1607V40.8411C85.8318 37.6212 83.2152 35.0012 79.9986 35.0012ZM82.4986 64.1607C82.4986 65.5424 81.3769 66.6673 79.9986 66.6673C78.6203 66.6673 77.4986 65.5424 77.4986 64.1607V40.8411C77.4986 39.4595 78.6203 38.3345 79.9986 38.3345C81.3769 38.3345 82.4986 39.4595 82.4986 40.8411V64.1607ZM9.1665 40.8411C9.1665 37.6212 11.7831 35.0012 14.9997 35.0012C18.2163 35.0012 20.833 37.6212 20.833 40.8411V64.1607C20.833 67.3807 18.2163 70.0006 14.9997 70.0006C11.7831 70.0006 9.1665 67.3807 9.1665 64.1607V40.8411ZM14.9997 66.6673C16.378 66.6673 17.4997 65.5424 17.4997 64.1607V40.8411C17.4997 39.4595 16.378 38.3345 14.9997 38.3345C13.6214 38.3345 12.4998 39.4595 12.4998 40.8411V64.1607C12.4998 65.5424 13.6214 66.6673 14.9997 66.6673Z" fill="url(#paint0_linear)"/>
</g>
<defs>
<linearGradient id="paint0_linear" x1="-29.1662" y1="47.4998" x2="63.6914" y2="122.436" gradientUnits="userSpaceOnUse">
<stop offset="0.1882" stop-color="#20D0EE"/>
<stop offset="0.826432" stop-color="#0AED88"/>
</linearGradient>
<clipPath id="clip0">
<rect width="95" height="95" fill="white"/>
</clipPath>
</defs>
</svg>
