<svg width="95" height="95" viewBox="0 0 95 95" fill="none" xmlns="http://www.w3.org/2000/svg">
<path d="M38.4411 0H5.66607C2.54125 0 0 2.54125 0 5.66607V38.4411C0 41.5659 2.54125 44.1071 5.66607 44.1071H38.4411C41.5659 44.1071 44.1071 41.5659 44.1071 38.4411V5.66607C44.1071 2.54125 41.5659 0 38.4411 0ZM40.7143 38.4411C40.7143 39.6947 39.6947 40.7143 38.4411 40.7143H5.66607C4.41241 40.7143 3.39286 39.6947 3.39286 38.4411V5.66607C3.39286 4.41241 4.41241 3.39286 5.66607 3.39286H38.4411C39.6947 3.39286 40.7143 4.41241 40.7143 5.66607V38.4411Z" fill="url(#paint0_linear)"/>
<path d="M89.3341 0H56.5591C53.4343 0 50.8931 2.54125 50.8931 5.66607V38.4411C50.8931 41.5659 53.4343 44.1071 56.5591 44.1071H89.3341C92.459 44.1071 95.0002 41.5659 95.0002 38.4411V5.66607C95.0002 2.54125 92.459 0 89.3341 0ZM91.6074 38.4411C91.6074 39.6947 90.5878 40.7143 89.3341 40.7143H56.5591C55.3055 40.7143 54.2859 39.6947 54.2859 38.4411V5.66607C54.2859 4.41241 55.3055 3.39286 56.5591 3.39286H89.3341C90.5878 3.39286 91.6074 4.41241 91.6074 5.66607V38.4411Z" fill="url(#paint1_linear)"/>
<path d="M38.4411 50.8928H5.66607C2.54125 50.8928 0 53.4341 0 56.5589V89.3339C0 92.4587 2.54125 95 5.66607 95H38.4411C41.5659 95 44.1071 92.4587 44.1071 89.3339V56.5589C44.1071 53.4341 41.5659 50.8928 38.4411 50.8928ZM40.7143 89.3339C40.7143 90.5876 39.6947 91.6071 38.4411 91.6071H5.66607C4.41241 91.6071 3.39286 90.5876 3.39286 89.3339V56.5589C3.39286 55.3052 4.41241 54.2857 5.66607 54.2857H38.4411C39.6947 54.2857 40.7143 55.3052 40.7143 56.5589V89.3339Z" fill="url(#paint2_linear)"/>
<path d="M93.3077 71.3077H74.6923V52.6923C74.6923 51.7565 73.9358 51 73 51C72.0642 51 71.3077 51.7565 71.3077 52.6923V71.3077H52.6923C51.7565 71.3077 51 72.0642 51 73C51 73.9358 51.7565 74.6923 52.6923 74.6923H71.3077V93.3077C71.3077 94.2435 72.0642 95 73 95C73.9358 95 74.6923 94.2435 74.6923 93.3077V74.6923H93.3077C94.2435 74.6923 95 73.9358 95 73C95 72.0642 94.2435 71.3077 93.3077 71.3077Z" fill="url(#paint3_linear)"/>
<defs>
<linearGradient id="paint0_linear" x1="0" y1="0" x2="47.5769" y2="39.9778" gradientUnits="userSpaceOnUse">
<stop stop-color="#2EE5FF"/>
<stop offset="1" stop-color="#44D83D"/>
</linearGradient>
<linearGradient id="paint1_linear" x1="50.8931" y1="0" x2="98.47" y2="39.9778" gradientUnits="userSpaceOnUse">
<stop stop-color="#2EE5FF"/>
<stop offset="1" stop-color="#44D83D"/>
</linearGradient>
<linearGradient id="paint2_linear" x1="0" y1="50.8928" x2="47.5769" y2="90.8706" gradientUnits="userSpaceOnUse">
<stop stop-color="#2EE5FF"/>
<stop offset="1" stop-color="#44D83D"/>
</linearGradient>
<linearGradient id="paint3_linear" x1="51" y1="51" x2="98.4613" y2="90.8807" gradientUnits="userSpaceOnUse">
<stop stop-color="#2EE5FF"/>
<stop offset="1" stop-color="#44D83D"/>
</linearGradient>
</defs>
</svg>
