<?xml version="1.0" encoding="utf-8"?>
<!-- Generator: Adobe Illustrator 19.2.0, SVG Export Plug-In . SVG Version: 6.00 Build 0)  -->
<svg version="1.1" id="Layer_1" xmlns="http://www.w3.org/2000/svg" xmlns:xlink="http://www.w3.org/1999/xlink" x="0px" y="0px"
	 viewBox="0 0 95 95" style="enable-background:new 0 0 95 95;" xml:space="preserve">
<style type="text/css">
	.st0{fill:#12AEF9;}
</style>
<g>
	<path class="st0" d="M38,0.6H8c-3.6,0-6.5,2.9-6.5,6.5v29.9c0,3.6,2.9,6.5,6.5,6.5H38c3.6,0,6.5-2.9,6.5-6.5V7.2
		C44.5,3.5,41.6,0.6,38,0.6z M41.5,37.1c0,2-1.6,3.5-3.5,3.5H8c-2,0-3.5-1.6-3.5-3.5V7.2c0-2,1.6-3.5,3.5-3.5H38
		c2,0,3.5,1.6,3.5,3.5V37.1z"/>
	<path class="st0" d="M38,50.7H8c-3.6,0-6.5,2.9-6.5,6.5v29.9c0,3.6,2.9,6.5,6.5,6.5H38c3.6,0,6.5-2.9,6.5-6.5V57.2
		C44.5,53.6,41.6,50.7,38,50.7z M41.5,87.1c0,2-1.6,3.5-3.5,3.5H8c-2,0-3.5-1.6-3.5-3.5V57.2c0-2,1.6-3.5,3.5-3.5H38
		c2,0,3.5,1.6,3.5,3.5V87.1z"/>
	<path class="st0" d="M87,0.6H57c-3.6,0-6.5,2.9-6.5,6.5v29.9c0,3.6,2.9,6.5,6.5,6.5H87c3.6,0,6.5-2.9,6.5-6.5V7.2
		C93.5,3.5,90.6,0.6,87,0.6z M90.5,37.1c0,2-1.6,3.5-3.5,3.5H57c-2,0-3.5-1.6-3.5-3.5V7.2c0-2,1.6-3.5,3.5-3.5H87
		c2,0,3.5,1.6,3.5,3.5V37.1z"/>
	<path class="st0" d="M92,71H73.5V52.2c0-0.8-0.7-1.5-1.5-1.5s-1.5,0.7-1.5,1.5V71H52c-0.8,0-1.5,0.7-1.5,1.5S51.2,74,52,74h18.5
		v18.8c0,0.8,0.7,1.5,1.5,1.5s1.5-0.7,1.5-1.5V74H92c0.8,0,1.5-0.7,1.5-1.5S92.8,71,92,71z"/>
</g>
</svg>
