<svg width="70" height="70" viewBox="0 0 70 70" fill="none" xmlns="http://www.w3.org/2000/svg">
<path fill-rule="evenodd" clip-rule="evenodd" d="M34.5 0C50.2392 0 63 12.3104 63 27.4967C63 35.0748 59.8215 43.4427 54.6477 48.4541L34.5 70L14.4323 48.5227C9.22746 43.5415 6 35.1306 6 27.4967C6 12.3104 18.7608 0 34.5 0ZM52.6674 46.3993C57.1749 42.0334 60.15 34.467 60.15 27.4967C60.15 13.9138 48.6895 2.85714 34.5 2.85714C20.3105 2.85714 8.85 13.9138 8.85 27.4967C8.85 34.5065 11.8633 42.114 16.4003 46.4561L34.5011 65.8218L52.6674 46.3993ZM21.968 32.132V40.4198H47.0314V32.132C45.9807 32.9004 44.7322 33.4099 43.3749 33.5555C43.1893 34.5927 42.2878 35.3843 41.2007 35.3843H39.9553C38.8833 35.3843 37.9889 34.6159 37.7862 33.6009H31.2374C31.0348 34.6159 30.1403 35.3843 29.0683 35.3843H27.8229C26.7368 35.3843 25.8363 34.5947 25.6497 33.5595C24.2813 33.417 23.0248 32.9044 21.968 32.132ZM29.264 33.1652V30.8168C29.264 30.7116 29.1732 30.6207 29.0683 30.6207H27.8229C27.716 30.6207 27.6263 30.7106 27.6263 30.8168V33.1652C27.6263 33.2724 27.716 33.3624 27.8229 33.3624H29.0683C29.1732 33.3624 29.264 33.2704 29.264 33.1652ZM41.3974 33.1652V30.8168C41.3974 30.7106 41.3076 30.6207 41.2007 30.6207H39.9553C39.8484 30.6207 39.7597 30.7106 39.7597 30.8168V33.1652C39.7597 33.2724 39.8484 33.3624 39.9553 33.3624H41.2007C41.3076 33.3624 41.3974 33.2724 41.3974 33.1652ZM48.1579 20.6557H20.8416V25.9652C20.8416 28.7777 22.9159 31.1059 25.6094 31.5103V30.8168C25.6094 29.5945 26.6027 28.5987 27.8229 28.5987H29.0683C30.2885 28.5987 31.2808 29.5945 31.2808 30.8168V31.579H37.7428V30.8168C37.7428 29.5945 38.7351 28.5987 39.9553 28.5987H41.2007C42.4209 28.5987 43.4142 29.5945 43.4142 30.8168V31.5063C46.0956 31.0918 48.1579 28.7686 48.1579 25.9652V20.6557ZM32.2781 16.3076C31.4321 16.3076 30.7443 16.997 30.7443 17.8442V18.6338H37.5472V17.8442C37.5472 16.997 36.8604 16.3076 36.0154 16.3076H32.2781ZM39.564 18.6338H50.1747V25.9652C50.1747 27.423 49.7572 28.7817 49.0483 29.9413V42.4418H19.9511V29.9413C19.2412 28.7817 18.8247 27.423 18.8247 25.9652V18.6338H28.7275V17.8442C28.7275 15.8819 30.3198 14.2856 32.2781 14.2856H36.0154C37.9717 14.2856 39.564 15.8819 39.564 17.8442V18.6338Z" fill="url(#paint0_linear)"/>
<defs>
<linearGradient id="paint0_linear" x1="-1.18661" y1="35.1737" x2="41.9002" y2="70.2587" gradientUnits="userSpaceOnUse">
<stop stop-color="#20D0EE"/>
<stop offset="0.981733" stop-color="#15E186"/>
</linearGradient>
</defs>
</svg>
