<svg width="70" height="70" viewBox="0 0 70 70" fill="none" xmlns="http://www.w3.org/2000/svg">
<path fill-rule="evenodd" clip-rule="evenodd" d="M35.0746 50.0391C22.3851 50.0391 12.0986 40.1231 12.0986 27.8906C12.0986 15.6581 22.3851 5.74219 35.0746 5.74219C47.7641 5.74219 58.0506 15.6581 58.0506 27.8906C58.0506 40.1231 47.7641 50.0391 35.0746 50.0391M64.1513 28.0263C64.1513 12.5475 51.1327 0 35.0757 0C19.0186 0 6 12.5475 6 28.0263C6 35.8072 9.29265 42.8422 14.6027 47.9194H14.5936L35.0757 69.7266L55.6303 47.8494C55.6326 47.8472 55.6349 47.845 55.6372 47.8428L55.6689 47.8122H55.6667C60.9086 42.7416 64.1513 35.7503 64.1513 28.0263" fill="url(#paint0_linear)"/>
<defs>
<linearGradient id="paint0_linear" x1="-23.0757" y1="34.8633" x2="45.5176" y2="92.0694" gradientUnits="userSpaceOnUse">
<stop offset="0.1882" stop-color="#20D0EE"/>
<stop offset="0.826432" stop-color="#0AED88"/>
</linearGradient>
</defs>
</svg>
