<?xml version="1.0" encoding="utf-8"?>
<!-- Generator: Adobe Illustrator 22.1.0, SVG Export Plug-In . SVG Version: 6.00 Build 0)  -->
<svg version="1.1" id="Layer_1" xmlns="http://www.w3.org/2000/svg" xmlns:xlink="http://www.w3.org/1999/xlink" x="0px" y="0px"
	 width="100px" height="100px" viewBox="0 0 100 100" style="enable-background:new 0 0 100 100;" xml:space="preserve">
<style type="text/css">
	.st0{fill:none;stroke:url(#SVGID_1_);stroke-width:3.2;}
	.st1{fill:none;stroke:url(#SVGID_2_);stroke-width:3.2;stroke-linecap:square;}
	.st2{fill:#D8D8D8;}
	.st3{fill:none;stroke:url(#SVGID_3_);stroke-width:3.2;stroke-linecap:round;}
	.st4{fill:none;stroke:url(#SVGID_4_);stroke-width:3.2;stroke-linecap:round;}
	.st5{fill:#FFFFFF;stroke:url(#SVGID_5_);stroke-width:3.2;}
	.st6{fill:none;stroke:url(#SVGID_6_);stroke-width:3.2;stroke-linecap:round;}
	.st7{fill:none;stroke:url(#SVGID_7_);stroke-width:3.2;stroke-linecap:round;}
	.st8{fill:none;stroke:url(#SVGID_8_);stroke-width:3.2;}
	.st9{fill:none;stroke:url(#SVGID_9_);stroke-width:3.2;}
	.st10{fill:none;stroke:url(#SVGID_10_);stroke-width:3.2;}
</style>
<linearGradient id="SVGID_1_" gradientUnits="userSpaceOnUse" x1="30.0648" y1="62.6447" x2="84.7949" y2="8.3847" gradientTransform="matrix(1 0 0 -1 -9.5 88.49)">
	<stop  offset="0" style="stop-color:#2EE5FF"/>
	<stop  offset="1" style="stop-color:#44D83D"/>
</linearGradient>
<path class="st0" d="M82,27.5H12.8c-1.2,0-2.2,1-2.2,2.2l0,0v45.5c0,1.2,1,2.2,2.2,2.2l0,0H82c1.2,0,2.2-1,2.2-2.2l0,0V29.7
	C84.2,28.5,83.2,27.5,82,27.5z"/>
<linearGradient id="SVGID_2_" gradientUnits="userSpaceOnUse" x1="18.6" y1="51.39" x2="94.1" y2="51.39" gradientTransform="matrix(1 0 0 -1 -9.5 88.49)">
	<stop  offset="0" style="stop-color:#2EE5FF"/>
	<stop  offset="1" style="stop-color:#44D83D"/>
</linearGradient>
<path class="st1" d="M10.7,37.1H83"/>
<path class="st2" d="M18.3,50.8L18.3,50.8z"/>
<linearGradient id="SVGID_3_" gradientUnits="userSpaceOnUse" x1="26.2" y1="37.69" x2="71.6" y2="37.69" gradientTransform="matrix(1 0 0 -1 -9.5 88.49)">
	<stop  offset="0" style="stop-color:#2EE5FF"/>
	<stop  offset="1" style="stop-color:#44D83D"/>
</linearGradient>
<path class="st3" d="M18.3,50.8h42.2"/>
<path class="st2" d="M18.3,63L18.3,63z"/>
<linearGradient id="SVGID_4_" gradientUnits="userSpaceOnUse" x1="26.2" y1="25.49" x2="59.5" y2="25.49" gradientTransform="matrix(1 0 0 -1 -9.5 88.49)">
	<stop  offset="0" style="stop-color:#2EE5FF"/>
	<stop  offset="1" style="stop-color:#44D83D"/>
</linearGradient>
<path class="st4" d="M18.3,63h30.1"/>
<linearGradient id="SVGID_5_" gradientUnits="userSpaceOnUse" x1="61.8718" y1="63.4228" x2="100.8118" y2="37.4828" gradientTransform="matrix(1 0 0 -1 -9.5 88.49)">
	<stop  offset="0" style="stop-color:#2EE5FF"/>
	<stop  offset="1" style="stop-color:#44D83D"/>
</linearGradient>
<path class="st5" d="M71.4,57.1C82,57.2,90.7,48.7,90.8,38c0.1-10.6-8.4-19.3-19.1-19.4C61.1,18.5,52.5,27,52.4,37.7
	c0,0.1,0,0.1,0,0.2C52.3,48.4,60.8,57,71.4,57.1z"/>
<linearGradient id="SVGID_6_" gradientUnits="userSpaceOnUse" x1="68.5133" y1="55.0506" x2="81.5932" y2="45.7106" gradientTransform="matrix(1 0 0 -1 -9.5 88.49)">
	<stop  offset="0" style="stop-color:#2EE5FF"/>
	<stop  offset="1" style="stop-color:#44D83D"/>
</linearGradient>
<path class="st6" d="M58.7,31.7l13.4,12.6"/>
<linearGradient id="SVGID_7_" gradientUnits="userSpaceOnUse" x1="101.7069" y1="65.4518" x2="82.1569" y2="43.9018" gradientTransform="matrix(1 0 0 -1 -9.5 88.49)">
	<stop  offset="0" style="stop-color:#2EE5FF"/>
	<stop  offset="1" style="stop-color:#44D83D"/>
</linearGradient>
<path class="st7" d="M72.1,44.1l23.5-23.7"/>
<linearGradient id="SVGID_8_" gradientUnits="userSpaceOnUse" x1="24.018" y1="56.6527" x2="26.048" y2="55.2827" gradientTransform="matrix(1 0 0 -1 -9.5 88.49)">
	<stop  offset="0" style="stop-color:#2EE5FF"/>
	<stop  offset="1" style="stop-color:#44D83D"/>
</linearGradient>
<path class="st8" d="M15.5,33.5c0.6,0,1-0.4,1-1c0-0.6-0.4-1-1-1s-1,0.4-1,1C14.5,33.1,14.9,33.5,15.5,33.5z"/>
<linearGradient id="SVGID_9_" gradientUnits="userSpaceOnUse" x1="29.5181" y1="56.6674" x2="31.5481" y2="55.2974" gradientTransform="matrix(1 0 0 -1 -9.5 88.49)">
	<stop  offset="0" style="stop-color:#2EE5FF"/>
	<stop  offset="1" style="stop-color:#44D83D"/>
</linearGradient>
<path class="st9" d="M21,33.5c0.6,0,1-0.4,1-1c0-0.6-0.4-1-1-1s-1,0.4-1,1C20,33.1,20.5,33.5,21,33.5z"/>
<linearGradient id="SVGID_10_" gradientUnits="userSpaceOnUse" x1="35.0112" y1="56.6573" x2="37.0412" y2="55.2873" gradientTransform="matrix(1 0 0 -1 -9.5 88.49)">
	<stop  offset="0" style="stop-color:#2EE5FF"/>
	<stop  offset="1" style="stop-color:#44D83D"/>
</linearGradient>
<path class="st10" d="M26.5,33.5c0.6,0,1-0.4,1-1c0-0.6-0.4-1-1-1s-1,0.4-1,1C25.5,33.1,25.9,33.5,26.5,33.5z"/>
</svg>
