<?xml version="1.0" encoding="utf-8"?>
<!-- Generator: Adobe Illustrator 22.1.0, SVG Export Plug-In . SVG Version: 6.00 Build 0)  -->
<svg version="1.1" id="Layer_1" xmlns="http://www.w3.org/2000/svg" xmlns:xlink="http://www.w3.org/1999/xlink" x="0px" y="0px"
	 width="100px" height="100px" viewBox="0 0 100 100" style="enable-background:new 0 0 100 100;" xml:space="preserve">
<style type="text/css">
	.st0{fill:url(#SVGID_1_);stroke:url(#SVGID_2_);}
	.st1{fill:url(#SVGID_3_);stroke:url(#SVGID_4_);}
	.st2{fill:url(#SVGID_5_);stroke:url(#SVGID_6_);}
	.st3{fill:url(#SVGID_7_);stroke:url(#SVGID_8_);}
	.st4{fill:url(#SVGID_9_);stroke:url(#SVGID_10_);}
</style>
<linearGradient id="SVGID_1_" gradientUnits="userSpaceOnUse" x1="37.1696" y1="20.8365" x2="56.5496" y2="11.7565" gradientTransform="matrix(1 0 0 -1 -18.31 92.74)">
	<stop  offset="0" style="stop-color:#2EE5FF"/>
	<stop  offset="1" style="stop-color:#44D83D"/>
</linearGradient>
<linearGradient id="SVGID_2_" gradientUnits="userSpaceOnUse" x1="35.6727" y1="22.8234" x2="57.6527" y2="9.9534" gradientTransform="matrix(1 0 0 -1 -18.31 92.74)">
	<stop  offset="0" style="stop-color:#2EE5FF"/>
	<stop  offset="1" style="stop-color:#44D83D"/>
</linearGradient>
<path class="st0" d="M22.8,66.5v19.7h11.1V66.5H22.8z M22.8,64.8h11.1c1.4,0,2.5,0.7,2.5,1.7v19.7c0,0.9-1.1,1.7-2.5,1.7H22.8
	c-1.4,0-2.5-0.7-2.5-1.7V66.5C20.4,65.5,21.5,64.8,22.8,64.8z"/>
<linearGradient id="SVGID_3_" gradientUnits="userSpaceOnUse" x1="58.1256" y1="24.9964" x2="79.5256" y2="18.0764" gradientTransform="matrix(1 0 0 -1 -18.31 92.74)">
	<stop  offset="0" style="stop-color:#2EE5FF"/>
	<stop  offset="1" style="stop-color:#44D83D"/>
</linearGradient>
<linearGradient id="SVGID_4_" gradientUnits="userSpaceOnUse" x1="55.927" y1="26.7324" x2="81.3012" y2="16.4847" gradientTransform="matrix(1 0 0 -1 -18.31 92.74)">
	<stop  offset="0" style="stop-color:#2EE5FF"/>
	<stop  offset="1" style="stop-color:#44D83D"/>
</linearGradient>
<path class="st1" d="M44.8,56.1v30.1h11.1V56.1H44.8z M44.8,54.4h11.1c1.4,0,2.5,0.7,2.5,1.7v30.1c0,0.9-1.1,1.7-2.5,1.7H44.8
	c-1.4,0-2.5-0.7-2.5-1.7V56.1C42.3,55.2,43.4,54.4,44.8,54.4z"/>
<linearGradient id="SVGID_5_" gradientUnits="userSpaceOnUse" x1="80.1734" y1="30.6046" x2="102.5834" y2="25.3746" gradientTransform="matrix(1 0 0 -1 -18.31 92.74)">
	<stop  offset="0" style="stop-color:#2EE5FF"/>
	<stop  offset="1" style="stop-color:#44D83D"/>
</linearGradient>
<linearGradient id="SVGID_6_" gradientUnits="userSpaceOnUse" x1="77.5647" y1="32.0061" x2="104.7547" y2="24.0761" gradientTransform="matrix(1 0 0 -1 -18.31 92.74)">
	<stop  offset="0" style="stop-color:#2EE5FF"/>
	<stop  offset="1" style="stop-color:#44D83D"/>
</linearGradient>
<path class="st2" d="M67.3,43.3v42.9h11.1V43.3H67.3z M67.3,41.6h11.1c1.4,0,2.5,0.7,2.5,1.6v42.9c0,0.9-1.1,1.7-2.5,1.7H67.3
	c-1.4,0-2.5-0.7-2.5-1.7V43.3C64.8,42.4,65.9,41.6,67.3,41.6z"/>
<linearGradient id="SVGID_7_" gradientUnits="userSpaceOnUse" x1="67.2442" y1="49.0487" x2="59.0242" y2="62.8787" gradientTransform="matrix(1 0 0 -1 -18.31 92.74)">
	<stop  offset="0" style="stop-color:#2EE5FF"/>
	<stop  offset="1" style="stop-color:#44D83D"/>
</linearGradient>
<linearGradient id="SVGID_8_" gradientUnits="userSpaceOnUse" x1="67.9801" y1="47.0579" x2="58.3101" y2="64.5479" gradientTransform="matrix(1 0 0 -1 -18.31 92.74)">
	<stop  offset="0" style="stop-color:#2EE5FF"/>
	<stop  offset="1" style="stop-color:#44D83D"/>
</linearGradient>
<path class="st3" d="M21.4,52.1c-0.8,0.1-1.5-0.4-1.8-1.1c-0.3-0.5-0.1-1.2,0.4-1.5c0.1,0,0.1-0.1,0.2-0.1
	c11.9-2.7,21.3-6.7,28.2-12C55.2,32,61,25.5,65.6,18.2c0.4-0.5,1.1-0.6,1.6-0.2c0.1,0,0.1,0.1,0.1,0.1c0.6,0.5,0.8,1.3,0.5,2
	c-4.7,7.5-10.6,14.2-17.6,19.6C43.2,45.2,33.6,49.4,21.4,52.1z"/>
<linearGradient id="SVGID_9_" gradientUnits="userSpaceOnUse" x1="86.9256" y1="64.5162" x2="82.8656" y2="80.5662" gradientTransform="matrix(1 0 0 -1 -18.31 92.74)">
	<stop  offset="0" style="stop-color:#2EE5FF"/>
	<stop  offset="1" style="stop-color:#44D83D"/>
</linearGradient>
<linearGradient id="SVGID_10_" gradientUnits="userSpaceOnUse" x1="86.1282" y1="62.78" x2="82.9882" y2="82.31" gradientTransform="matrix(1 0 0 -1 -18.31 92.74)">
	<stop  offset="0" style="stop-color:#2EE5FF"/>
	<stop  offset="1" style="stop-color:#44D83D"/>
</linearGradient>
<path class="st4" d="M59.1,21.5c-0.5-0.3-0.6-0.9-0.3-1.4c0.1-0.1,0.2-0.2,0.3-0.3l12.1-8.2c0.5-0.3,1.1-0.1,1.4,0.4
	c0.1,0.2,0.1,0.4,0.1,0.7l-3.6,13.6c-0.1,0.5-0.7,0.8-1.2,0.7c-0.1,0-0.2-0.1-0.3-0.1L59.1,21.5z"/>
</svg>
