<?xml version="1.0" encoding="utf-8"?>
<!-- Generator: Adobe Illustrator 22.1.0, SVG Export Plug-In . SVG Version: 6.00 Build 0)  -->
<svg version="1.1" id="Layer_1" xmlns="http://www.w3.org/2000/svg" xmlns:xlink="http://www.w3.org/1999/xlink" x="0px" y="0px"
	 width="100px" height="100px" viewBox="0 0 100 100" style="enable-background:new 0 0 100 100;" xml:space="preserve">
<style type="text/css">
	.st0{fill:#F68D20;stroke:#F68D20;}
</style>
<path class="st0" d="M49,80c-3.3,0-6,2.7-6,6s2.7,6,6,6s6-2.7,6-6S52.3,80,49,80z M49,89c-1.7,0-3-1.3-3-3s1.3-3,3-3s3,1.3,3,3
	S50.7,89,49,89z"/>
<path class="st0" d="M43.2,9.9h6.3c0.9,0,1.6-0.7,1.6-1.6c0-0.9-0.7-1.6-1.6-1.6h-6.3c-0.9,0-1.6,0.7-1.6,1.6
	C41.6,9.2,42.3,9.9,43.2,9.9z"/>
<path class="st0" d="M54.2,9.9h1.6c0.9,0,1.6-0.7,1.6-1.6c0-0.9-0.7-1.6-1.6-1.6h-1.6c-0.9,0-1.6,0.7-1.6,1.6
	C52.7,9.2,53.4,9.9,54.2,9.9z"/>
<path class="st0" d="M8.6,23.1l-0.4-1.5c-0.2-0.8-1.1-1.3-1.9-1.1c-0.8,0.2-1.3,1.1-1.1,1.9l0.4,1.5c0.2,0.7,0.8,1.2,1.5,1.2
	c0.1,0,0.3,0,0.4-0.1C8.4,24.8,8.9,24,8.6,23.1z"/>
<path class="st0" d="M5.3,17.6c0.9-0.1,1.5-0.9,1.4-1.7c0-0.1,0-0.3,0-0.4c0-0.2,0-0.5,0.1-0.7c0.2-0.9-0.4-1.7-1.3-1.9
	c-0.9-0.2-1.7,0.4-1.9,1.3c-0.1,0.4-0.1,0.9-0.1,1.3c0,0.2,0,0.5,0,0.7c0.1,0.8,0.8,1.4,1.6,1.4C5.2,17.6,5.3,17.6,5.3,17.6z"/>
<path class="st0" d="M12.7,38.1l-0.4-1.5c-0.2-0.8-1.1-1.4-1.9-1.1c-0.8,0.2-1.3,1.1-1.1,1.9l0.4,1.5c0.2,0.7,0.8,1.2,1.5,1.2
	c0.1,0,0.3,0,0.4-0.1C12.4,39.8,12.9,38.9,12.7,38.1z"/>
<path class="st0" d="M20.7,68l-0.4-1.5c-0.2-0.8-1.1-1.4-1.9-1.1c-0.8,0.2-1.3,1.1-1.1,1.9l0.4,1.5c0.2,0.7,0.8,1.2,1.5,1.2
	c0.1,0,0.3,0,0.4-0.1C20.4,69.7,20.9,68.8,20.7,68z"/>
<path class="st0" d="M10.7,30.6l-0.4-1.5C10,28.3,9.2,27.8,8.3,28c-0.8,0.2-1.3,1.1-1.1,1.9l0.4,1.5c0.2,0.7,0.8,1.2,1.5,1.2
	c0.1,0,0.3,0,0.4-0.1C10.4,32.3,10.9,31.4,10.7,30.6z"/>
<path class="st0" d="M9.3,11.9c0.1,0,0.3,0,0.4-0.1l1.5-0.4c0.8-0.2,1.3-1.1,1.1-1.9c-0.2-0.8-1.1-1.4-1.9-1.1L8.9,8.7
	C8.1,9,7.6,9.8,7.8,10.7C8,11.4,8.6,11.9,9.3,11.9z"/>
<path class="st0" d="M16.8,9.8c0.1,0,0.3,0,0.4-0.1l1.5-0.4c0.8-0.2,1.3-1.1,1.1-1.9c-0.2-0.8-1.1-1.4-1.9-1.1l-1.5,0.4
	C15.5,7,15,7.8,15.3,8.7C15.4,9.4,16.1,9.8,16.8,9.8z"/>
<path class="st0" d="M18.7,60.5L18.3,59c-0.2-0.8-1.1-1.3-1.9-1.1c-0.8,0.2-1.3,1.1-1.1,1.9l0.4,1.5c0.2,0.7,0.8,1.2,1.5,1.2
	c0.1,0,0.3,0,0.4-0.1C18.4,62.2,18.9,61.4,18.7,60.5z"/>
<path class="st0" d="M14.7,45.6l-0.4-1.5c-0.2-0.8-1.1-1.3-1.9-1.1c-0.8,0.2-1.3,1.1-1.1,1.9l0.4,1.5c0.2,0.7,0.8,1.2,1.5,1.2
	c0.1,0,0.3,0,0.4-0.1C14.4,47.3,14.9,46.4,14.7,45.6z"/>
<path class="st0" d="M16.7,53l-0.4-1.5c-0.2-0.8-1.1-1.4-1.9-1.1c-0.8,0.2-1.3,1.1-1.1,1.9l0.4,1.5c0.2,0.7,0.8,1.2,1.5,1.2
	c0.1,0,0.3,0,0.4-0.1C16.4,54.7,16.9,53.9,16.7,53z"/>
<path class="st0" d="M90.7,28c-0.8-0.2-1.7,0.3-1.9,1.1l-0.4,1.5c-0.2,0.8,0.3,1.7,1.1,1.9c0.1,0,0.3,0.1,0.4,0.1
	c0.7,0,1.3-0.5,1.5-1.2l0.4-1.5C92,29.1,91.5,28.2,90.7,28z"/>
<path class="st0" d="M92.7,20.5c-0.9-0.2-1.7,0.3-1.9,1.1l-0.4,1.5c-0.2,0.8,0.3,1.7,1.1,1.9c0.1,0,0.3,0.1,0.4,0.1
	c0.7,0,1.3-0.5,1.5-1.2l0.4-1.5C94,21.6,93.5,20.7,92.7,20.5z"/>
<path class="st0" d="M95.3,14.2c-0.2-0.9-1-1.4-1.9-1.3c-0.9,0.2-1.4,1-1.3,1.9c0,0.2,0.1,0.5,0.1,0.7c0,0.1,0,0.3,0,0.4
	c-0.1,0.9,0.6,1.6,1.4,1.7c0.1,0,0.1,0,0.2,0c0.8,0,1.5-0.6,1.6-1.4c0-0.2,0-0.5,0-0.7C95.4,15.1,95.4,14.6,95.3,14.2z"/>
<path class="st0" d="M80.3,9.4l1.5,0.4c0.1,0,0.3,0.1,0.4,0.1c0.7,0,1.3-0.5,1.5-1.2C84,7.8,83.5,7,82.6,6.7l-1.5-0.4
	c-0.9-0.2-1.7,0.3-1.9,1.1C79,8.3,79.5,9.2,80.3,9.4z"/>
<path class="st0" d="M87.8,11.4l1.5,0.4c0.1,0,0.3,0.1,0.4,0.1c0.7,0,1.3-0.5,1.5-1.2c0.2-0.8-0.3-1.7-1.1-1.9l-1.5-0.4
	c-0.8-0.2-1.7,0.3-1.9,1.1C86.4,10.3,86.9,11.2,87.8,11.4z"/>
<path class="st0" d="M88.7,35.5c-0.8-0.2-1.7,0.3-1.9,1.1l-0.4,1.5c-0.2,0.8,0.3,1.7,1.1,1.9c0.1,0,0.3,0.1,0.4,0.1
	c0.7,0,1.3-0.5,1.5-1.2l0.4-1.5C90,36.6,89.5,35.7,88.7,35.5z"/>
<path class="st0" d="M78.7,72.9c-0.8-0.2-1.7,0.3-1.9,1.1l-0.3,1.1v-0.3c0,0,0,0,0-0.1v-6c0,0,0,0,0-0.1v-1.5c0,0,0,0,0-0.1v-6
	c0,0,0,0,0-0.1v-1.5c0,0,0,0,0-0.1v-6c0,0,0,0,0-0.1v-1.5c0,0,0,0,0-0.1v-6c0,0,0,0,0-0.1v-1.5c0,0,0,0,0-0.1v-6c0,0,0,0,0-0.1v-1.6
	c0,0,0,0,0-0.1v-6c0,0,0,0,0-0.1v-1.6c0,0,0,0,0-0.1v-6c0,0,0,0,0-0.1v-1.6c0,0,0,0,0-0.1v-6c0,0,0,0,0-0.1v-1.6c0,0,0,0,0-0.1V9
	c0-3.8-3.1-7-7-7H29.6c-3.8,0-7,3.1-7,7v3.9v0v1.5v0v6.2v0v1.5v0v6.2v0v1.5v0v6.2v0v1.6v0v6.2v0v1.6v0v6.2v0v1.6v0v6.2v0v1.6v0v6.2
	v0v1.5v0v6.2v0v0.3L22.3,74c-0.2-0.8-1.1-1.4-1.9-1.1c-0.8,0.2-1.3,1.1-1.1,1.9l0.4,1.5c0.2,0.8,1.1,1.4,1.9,1.1
	c0.5-0.1,0.8-0.5,1-0.9v3.8c-0.1,0-0.2,0-0.2,0c-0.8,0.2-1.3,1.1-1.1,1.9l0.4,1.5c0.1,0.5,0.5,0.9,1,1.1V90c0,3.8,3.1,7,7,7h39.9
	c3.8,0,7-3.1,7-7v-5.2c0.5-0.2,0.8-0.5,1-1.1l0.4-1.5c0.2-0.8-0.3-1.7-1.1-1.9c-0.1,0-0.2,0-0.3,0v-3.7c0,0,0,0,0,0
	c0.2,0.4,0.6,0.7,1,0.9c0.8,0.2,1.7-0.3,1.9-1.1l0.4-1.5C80,73.9,79.5,73.1,78.7,72.9z M25.7,14.7h47.5v60.2H25.7V14.7z M29.6,5.2
	h39.9c2.1,0,3.8,1.7,3.8,3.8v2.5H25.7V9C25.7,6.9,27.5,5.2,29.6,5.2z M69.4,93.8H29.6c-2.1,0-3.8-1.7-3.8-3.8V78h47.5v12
	C73.2,92.1,71.5,93.8,69.4,93.8z"/>
<path class="st0" d="M82.7,57.9c-0.9-0.2-1.7,0.3-1.9,1.1l-0.4,1.5c-0.2,0.8,0.3,1.7,1.1,1.9c0.1,0,0.3,0.1,0.4,0.1
	c0.7,0,1.3-0.5,1.5-1.2l0.4-1.5C84,59,83.5,58.1,82.7,57.9z"/>
<path class="st0" d="M80.7,65.4c-0.9-0.2-1.7,0.3-1.9,1.1L78.3,68c-0.2,0.8,0.3,1.7,1.1,1.9c0.1,0,0.3,0.1,0.4,0.1
	c0.7,0,1.3-0.5,1.5-1.2l0.4-1.5C82,66.5,81.5,65.6,80.7,65.4z"/>
<path class="st0" d="M84.7,50.4c-0.8-0.2-1.7,0.3-1.9,1.1L82.3,53c-0.2,0.8,0.3,1.7,1.1,1.9c0.1,0,0.3,0.1,0.4,0.1
	c0.7,0,1.3-0.5,1.5-1.2l0.4-1.5C86,51.5,85.5,50.6,84.7,50.4z"/>
<path class="st0" d="M86.7,42.9c-0.9-0.2-1.7,0.3-1.9,1.1l-0.4,1.5c-0.2,0.8,0.3,1.7,1.1,1.9c0.1,0,0.3,0.1,0.4,0.1
	c0.7,0,1.3-0.5,1.5-1.2l0.4-1.5C88,44,87.5,43.2,86.7,42.9z"/>
</svg>
