<?xml version="1.0" encoding="utf-8"?>
<!-- Generator: Adobe Illustrator 22.1.0, SVG Export Plug-In . SVG Version: 6.00 Build 0)  -->
<svg version="1.1" id="Layer_1" xmlns="http://www.w3.org/2000/svg" xmlns:xlink="http://www.w3.org/1999/xlink" x="0px" y="0px"
	 width="100px" height="100px" viewBox="0 0 100 100" style="enable-background:new 0 0 100 100;" xml:space="preserve">
<style type="text/css">
	.st0{fill:url(#Shape_7_);stroke:url(#Shape_8_);stroke-width:0.5;}
	.st1{fill:url(#Shape_9_);stroke:url(#Shape_10_);stroke-width:0.5;}
	.st2{fill:url(#Shape_11_);stroke:url(#Shape_12_);stroke-width:0.5;}
	.st3{fill:url(#Shape_13_);stroke:url(#Shape_14_);stroke-width:0.5;}
	.st4{fill:url(#Shape_15_);stroke:url(#Shape_16_);stroke-width:0.5;}
	.st5{fill:url(#Shape_17_);}
	.st6{fill:url(#Shape_18_);}
</style>
<linearGradient id="Shape_7_" gradientUnits="userSpaceOnUse" x1="1.4392" y1="100.6141" x2="1.737" y2="99.6556" gradientTransform="matrix(82 0 0 -50.5161 -80 5104.1289)">
	<stop  offset="0" style="stop-color:#00B6FB"/>
	<stop  offset="1" style="stop-color:#4FB646"/>
</linearGradient>
<linearGradient id="Shape_8_" gradientUnits="userSpaceOnUse" x1="1.4392" y1="100.6141" x2="1.737" y2="99.6556" gradientTransform="matrix(82 0 0 -50.5161 -80 5104.1289)">
	<stop  offset="0" style="stop-color:#00B6FB"/>
	<stop  offset="1" style="stop-color:#4FB646"/>
</linearGradient>
<path id="Shape" class="st0" d="M87.5,70.5h-75C10.6,70.5,9,68.9,9,67V23.5c0-1.9,1.6-3.5,3.5-3.5h75c1.9,0,3.5,1.6,3.5,3.5V67
	C91,68.9,89.4,70.5,87.5,70.5z M12.5,21.8c-1,0-1.7,0.8-1.7,1.7V67c0,1,0.8,1.7,1.7,1.7h75c1,0,1.7-0.8,1.7-1.7V23.5
	c0-0.5-0.2-0.9-0.5-1.2c-0.3-0.3-0.8-0.5-1.2-0.5L12.5,21.8z"/>
<linearGradient id="Shape_9_" gradientUnits="userSpaceOnUse" x1="1.4392" y1="91.3497" x2="1.737" y2="90.3912" gradientTransform="matrix(82 0 0 -1.871 -80 232.129)">
	<stop  offset="0" style="stop-color:#00B6FB"/>
	<stop  offset="1" style="stop-color:#4FB646"/>
</linearGradient>
<linearGradient id="Shape_10_" gradientUnits="userSpaceOnUse" x1="1.4392" y1="91.3497" x2="1.737" y2="90.3912" gradientTransform="matrix(82 0 0 -1.871 -80 232.129)">
	<stop  offset="0" style="stop-color:#00B6FB"/>
	<stop  offset="1" style="stop-color:#4FB646"/>
</linearGradient>
<path id="Shape_1_" class="st1" d="M90.1,63H9.9C9.4,63,9,62.6,9,62.1c0-0.5,0.4-0.9,0.9-0.9h80.2c0.5,0,0.9,0.4,0.9,0.9
	C91,62.6,90.6,63,90.1,63z"/>
<linearGradient id="Shape_11_" gradientUnits="userSpaceOnUse" x1="2.1051" y1="99.0462" x2="2.4029" y2="98.0877" gradientTransform="matrix(9.3182 0 0 -9.3548 21.5682 995.4839)">
	<stop  offset="0" style="stop-color:#00B6FB"/>
	<stop  offset="1" style="stop-color:#4FB646"/>
</linearGradient>
<linearGradient id="Shape_12_" gradientUnits="userSpaceOnUse" x1="2.1051" y1="99.0462" x2="2.4029" y2="98.0877" gradientTransform="matrix(9.3182 0 0 -9.3548 21.5682 995.4839)">
	<stop  offset="0" style="stop-color:#00B6FB"/>
	<stop  offset="1" style="stop-color:#4FB646"/>
</linearGradient>
<path id="Shape_2_" class="st2" d="M38.8,78c-0.5,0-0.9-0.4-0.9-0.9c0-0.5,0.4-0.9,0.9-0.9c3.6,0,6.5-2.9,6.5-6.5
	c0-0.5,0.4-0.9,0.9-0.9s0.9,0.4,0.9,0.9C47.2,74.2,43.4,78,38.8,78z"/>
<linearGradient id="Shape_13_" gradientUnits="userSpaceOnUse" x1="2.0878" y1="99.0409" x2="2.3856" y2="98.0824" gradientTransform="matrix(9.3182 0 0 -9.3548 35.5455 995.4839)">
	<stop  offset="0" style="stop-color:#00B6FB"/>
	<stop  offset="1" style="stop-color:#4FB646"/>
</linearGradient>
<linearGradient id="Shape_14_" gradientUnits="userSpaceOnUse" x1="2.0878" y1="99.0409" x2="2.3856" y2="98.0824" gradientTransform="matrix(9.3182 0 0 -9.3548 35.5455 995.4839)">
	<stop  offset="0" style="stop-color:#00B6FB"/>
	<stop  offset="1" style="stop-color:#4FB646"/>
</linearGradient>
<path id="Shape_3_" class="st3" d="M60.2,78c-4.6,0-8.4-3.8-8.4-8.4c0-0.5,0.4-0.9,0.9-0.9s0.9,0.4,0.9,0.9c0,3.6,2.9,6.5,6.5,6.5
	c0.5,0,0.9,0.4,0.9,0.9C61.2,77.6,60.8,78,60.2,78z"/>
<linearGradient id="Shape_15_" gradientUnits="userSpaceOnUse" x1="1.6669" y1="91.3497" x2="1.9646" y2="90.3912" gradientTransform="matrix(22.3636 0 0 -1.871 8.5227 247.0968)">
	<stop  offset="0" style="stop-color:#00B6FB"/>
	<stop  offset="1" style="stop-color:#4FB646"/>
</linearGradient>
<linearGradient id="Shape_16_" gradientUnits="userSpaceOnUse" x1="1.6669" y1="91.3497" x2="1.9646" y2="90.3912" gradientTransform="matrix(22.3636 0 0 -1.871 8.5227 247.0968)">
	<stop  offset="0" style="stop-color:#00B6FB"/>
	<stop  offset="1" style="stop-color:#4FB646"/>
</linearGradient>
<path id="Shape_4_" class="st4" d="M59.4,78H38.8c-0.5,0-0.9-0.4-0.9-0.9c0-0.5,0.4-0.9,0.9-0.9h20.6c0.5,0,0.9,0.4,0.9,0.9
	C60.2,77.6,59.9,78,59.4,78z"/>
<g id="logo" transform="translate(25.000000, 9.000000)">
	
		<linearGradient id="Shape_17_" gradientUnits="userSpaceOnUse" x1="-23.3733" y1="90.9964" x2="-23.0755" y2="90.0379" gradientTransform="matrix(31.2 0 0 -18.2 750.8 1684.1997)">
		<stop  offset="0" style="stop-color:#00B6FB"/>
		<stop  offset="1" style="stop-color:#4FB646"/>
	</linearGradient>
	<path id="Shape_5_" class="st5" d="M32.1,30.6l4.7,0c-0.5,1.1-1.3,2.1-2.3,2.7c-1.4,0.8-3.7,0.6-5.3,0.1c-1-0.3-2.6-1-4.1-1.6
		c-1.7-0.7-3.3-1.4-4.4-1.7c-1.4-0.4-4.8-1.2-7.5,0.4c-1.9,1.1-3.3,2.9-3.9,5c-0.6,2.1-0.3,4.4,0.8,6.3c1.8,3.1,5.4,4.7,9,4
		s6.1-3.8,6.5-7.4l0.1-1.5h-8.1v2.8h4.7c-0.9,2.2-3.1,3.6-5.5,3.4s-4.4-1.9-4.9-4.3c-0.5-2.3,0.5-4.8,2.6-6c1.4-0.8,3.7-0.6,5.3-0.1
		c1,0.3,2.6,1,4.2,1.6c1.7,0.7,3.2,1.4,4.4,1.7c1.4,0.4,4.8,1.2,7.5-0.4c2.3-1.4,3.9-3.7,4.1-6.4l0.1-1.5l-8.1,0V30.6z"/>
	
		<linearGradient id="Shape_18_" gradientUnits="userSpaceOnUse" x1="-23.2136" y1="89.8802" x2="-22.9158" y2="88.9217" gradientTransform="matrix(14.7333 0 0 -8.6667 370.3334 799.3334)">
		<stop  offset="0" style="stop-color:#00B6FB"/>
		<stop  offset="1" style="stop-color:#4FB646"/>
	</linearGradient>
	<path id="Shape_6_" class="st6" d="M26.6,28.5c0-2.3,1.4-4.3,3.5-5.2c2.1-0.9,4.5-0.4,6.2,1.2l0.1,0.1l2.1-2l-0.1-0.1
		c-2.4-2.4-6.1-3.2-9.3-1.8c-3.2,1.3-5.3,4.4-5.3,7.9v0.2h2.9V28.5z"/>
</g>
</svg>
