<?xml version="1.0" encoding="utf-8"?>
<!-- Generator: Adobe Illustrator 22.1.0, SVG Export Plug-In . SVG Version: 6.00 Build 0)  -->
<svg version="1.1" id="Layer_1" xmlns="http://www.w3.org/2000/svg" xmlns:xlink="http://www.w3.org/1999/xlink" x="0px" y="0px"
	 width="100px" height="100px" viewBox="0 0 100 100" style="enable-background:new 0 0 100 100;" xml:space="preserve">
<style type="text/css">
	.st0{fill:#04B6F1;}
	.st1{fill:#F68D2E;stroke:#F68D2E;stroke-width:0.5;}
</style>
<g id="Group-4" transform="translate(21.000000, 0.220050)">
	<path id="Fill-1" class="st0" d="M28.8,18.6c-2.1,0-3.8,1.7-3.8,3.8c0,2,1.7,3.8,3.8,3.8c2.1,0,3.8-1.7,3.8-3.8
		C32.6,20.4,30.8,18.6,28.8,18.6 M28.8,28.1c-3.2,0-5.7-2.5-5.7-5.7s2.5-5.7,5.7-5.7s5.7,2.5,5.7,5.7S32,28.1,28.8,28.1"/>
	<path id="Stroke-3" class="st1" d="M28.8,18.6c-2.1,0-3.8,1.7-3.8,3.8c0,2,1.7,3.8,3.8,3.8c2.1,0,3.8-1.7,3.8-3.8
		C32.6,20.4,30.8,18.6,28.8,18.6 M28.8,28.1c-3.2,0-5.7-2.5-5.7-5.7s2.5-5.7,5.7-5.7s5.7,2.5,5.7,5.7S32,28.1,28.8,28.1"/>
</g>
<g id="Group-8" transform="translate(21.000000, 51.220050)">
	<path id="Fill-5" class="st0" d="M28.8,18.3c-2.1,0-3.8,1.7-3.8,3.8c0,2,1.7,3.8,3.8,3.8c2.1,0,3.8-1.7,3.8-3.8
		C32.6,20.1,30.8,18.3,28.8,18.3 M28.8,27.8c-3.2,0-5.7-2.5-5.7-5.7c0-3.2,2.6-5.7,5.7-5.7c3.2,0,5.7,2.5,5.7,5.7
		C34.5,25.3,32,27.8,28.8,27.8"/>
	<path id="Stroke-7" class="st1" d="M28.8,18.3c-2.1,0-3.8,1.7-3.8,3.8c0,2,1.7,3.8,3.8,3.8c2.1,0,3.8-1.7,3.8-3.8
		C32.6,20.1,30.8,18.3,28.8,18.3 M28.8,27.8c-3.2,0-5.7-2.5-5.7-5.7c0-3.2,2.6-5.7,5.7-5.7c3.2,0,5.7,2.5,5.7,5.7
		C34.5,25.3,32,27.8,28.8,27.8"/>
</g>
<g id="Group-12" transform="translate(0.000000, 7.720050)">
	<path id="Fill-9" class="st0" d="M26.8,49.2c-3.6-9.2-1.3-19.6,5.6-26.4h0.1l1.4,2.3c0.5,0.8,1.7,0.8,2.1-0.1l3.5-6.7
		c0.4-0.8-0.2-1.8-1.2-1.8l-7.5,0.3c-1,0.1-1.4,1.1-1,1.9l1.5,2.4v0.1c-7.7,7.4-10.3,18.7-6.3,28.7c2.6,6.7,7.7,11.8,14,14.5
		c0.5,0.2,1.1,0,1.2-0.5c0.2-0.5-0.1-1-0.5-1.2C33.9,60.1,29.2,55.3,26.8,49.2"/>
	<path id="Stroke-11" class="st1" d="M26.8,49.2c-3.6-9.2-1.3-19.6,5.6-26.4h0.1l1.4,2.3c0.5,0.8,1.7,0.8,2.1-0.1l3.5-6.7
		c0.4-0.8-0.2-1.8-1.2-1.8l-7.5,0.3c-1,0.1-1.4,1.1-1,1.9l1.5,2.4v0.1c-7.7,7.4-10.3,18.7-6.3,28.7c2.6,6.7,7.7,11.8,14,14.5
		c0.5,0.2,1.1,0,1.2-0.5c0.2-0.5-0.1-1-0.5-1.2C33.9,60.1,29.2,55.3,26.8,49.2"/>
</g>
<path id="Fill-13" class="st0" d="M68.3,67.1c7.7-7.4,10.3-18.7,6.3-28.7c-2.6-6.7-7.7-11.9-14-14.6c-0.5-0.2-1.1,0-1.2,0.5
	c-0.2,0.5,0.1,1,0.5,1.2c5.9,2.7,10.6,7.4,13,13.6c3.6,9.1,1.3,19.5-5.6,26.3l-1.4-2.3c-0.5-0.8-1.7-0.7-2,0.1L60.2,70
	c-0.4,0.8,0.2,1.8,1.1,1.7l7.6-0.4c0.9-0.1,1.4-1,1-1.9L68.3,67.1z"/>
<path id="Stroke-15" class="st1" d="M68.3,67.1c7.7-7.4,10.3-18.7,6.3-28.7c-2.6-6.7-7.7-11.9-14-14.6c-0.5-0.2-1.1,0-1.2,0.5
	c-0.2,0.5,0.1,1,0.5,1.2c5.9,2.7,10.6,7.4,13,13.6c3.6,9.1,1.3,19.5-5.6,26.3l-1.4-2.3c-0.5-0.8-1.7-0.7-2,0.1L60.2,70
	c-0.4,0.8,0.2,1.8,1.1,1.7l7.6-0.4c0.9-0.1,1.4-1,1-1.9L68.3,67.1z"/>
</svg>
