<svg width="70" height="70" viewBox="0 0 70 70" fill="none" xmlns="http://www.w3.org/2000/svg">
<path fill-rule="evenodd" clip-rule="evenodd" d="M35.5 37.9167C27.5584 37.9167 21.125 31.39 21.125 23.3333C21.125 15.2767 27.5584 8.75 35.5 8.75C43.4416 8.75 49.875 15.2767 49.875 23.3333C49.875 31.39 43.4416 37.9167 35.5 37.9167ZM35.5 32.0833C40.2659 32.0833 44.125 28.1683 44.125 23.3333C44.125 18.4983 40.2659 14.5833 35.5 14.5833C30.7341 14.5833 26.875 18.4983 26.875 23.3333C26.875 28.1683 30.7341 32.0833 35.5 32.0833ZM61.375 53.5937C61.375 45.7723 47.4859 40.8333 35.5 40.8333C23.5141 40.8333 9.625 45.7723 9.625 53.5937V61.2499H61.375V53.5937ZM15.375 53.2291C15.375 50.0351 26.4265 46.6666 35.5 46.6666C44.5735 46.6666 55.625 50.0351 55.625 53.2291V55.4166H15.375V53.2291Z" fill="url(#paint0_linear)"/>
<defs>
<linearGradient id="paint0_linear" x1="3.10031" y1="35.1302" x2="36.0963" y2="67.6549" gradientUnits="userSpaceOnUse">
<stop stop-color="#20D0EE"/>
<stop offset="0.981733" stop-color="#15E186"/>
</linearGradient>
</defs>
</svg>
