<svg width="70" height="70" viewBox="0 0 70 70" fill="none" xmlns="http://www.w3.org/2000/svg">
<path fill-rule="evenodd" clip-rule="evenodd" d="M37.1783 64.9659C37.1783 65.2058 36.9609 65.4254 36.7185 65.4254C36.5735 65.4254 36.3628 65.4345 36.1046 65.448C35.946 65.4571 35.7422 65.4707 35.5156 65.4729C35.2143 65.1719 34.8632 64.932 34.4917 64.7282V48.673H37.1761C37.1783 48.7093 37.1942 48.7409 37.1965 48.7749C37.1965 48.827 37.1783 48.8745 37.1783 48.9243V64.9659ZM28.9056 65.4684C28.6609 65.4684 28.4412 65.4548 28.2758 65.4458C28.0312 65.4322 27.8341 65.4254 27.6959 65.4254C27.4558 65.4254 27.2361 65.2058 27.2361 64.9659V48.9356C27.2361 48.8473 27.2089 48.7613 27.2043 48.673H29.9612V64.8233C29.6599 65.0067 29.3722 65.2126 29.1185 65.4639C29.0573 65.4662 28.9871 65.4684 28.9056 65.4684V65.4684ZM20.3655 44.7164C20.1231 44.7164 19.9056 44.4968 19.9056 44.2569V26.6965C19.9056 24.3537 21.813 22.4478 24.1553 22.4478H40.1029C42.4474 22.4478 44.3548 24.3537 44.3548 26.6965V44.2569C44.3548 44.4968 44.1351 44.7164 43.8949 44.7164C43.7205 44.7164 43.3332 44.6711 43.1497 44.6327C42.6808 44.4765 42.1937 44.3972 41.7112 44.3972C41.7067 44.3972 41.7044 44.3995 41.6999 44.3995V31.803C41.6999 30.5535 40.6873 29.5395 39.4346 29.5395C38.1819 29.5395 37.1693 30.5535 37.1693 31.803V44.146H27.1885V31.803C27.1885 30.5535 26.1759 29.5395 24.9232 29.5395C23.6705 29.5395 22.6579 30.5535 22.6579 31.803V44.4154C22.2162 44.4199 21.7722 44.4833 21.3418 44.6191C21.0994 44.6643 20.5693 44.7164 20.3655 44.7164V44.7164ZM48.8015 45.0899C48.8468 44.8183 48.8853 44.5421 48.8853 44.2569V26.6965C48.8853 21.8706 44.9347 17.9208 40.1028 17.9208H24.1552C19.3257 17.9208 15.375 21.8706 15.375 26.6965V44.2569C15.375 47.0003 17.6199 49.2434 20.3654 49.2434C20.9499 49.2434 22.1822 49.1235 22.7055 48.9356V64.9659C22.7055 67.7093 24.9504 69.9525 27.6959 69.9525C27.9065 69.9525 28.3573 69.9955 28.9055 69.9955C30.054 69.9955 31.6261 69.8121 32.3125 68.6758C32.8449 69.8099 34.3332 70 35.4613 70C36.0276 70 36.501 69.9525 36.7185 69.9525C39.464 69.9525 41.7089 67.7093 41.7089 64.9659V62.0731V49.2434C45.0389 49.2434 45.4793 49.6509 47 48.4375C48.8015 47 48.8015 45.0899 48.8015 45.0899ZM32.7535 5.52706C34.8421 5.52706 36.5411 7.22471 36.5411 9.31168C36.5411 11.3986 34.8421 13.0963 32.7535 13.0963C30.6649 13.0963 28.966 11.3986 28.966 9.31168C28.966 7.22471 30.6649 5.52706 32.7535 5.52706M32.7536 17.6233C37.3476 17.6233 41.0717 13.9021 41.0717 9.31167C41.0717 4.72124 37.3476 1 32.7536 1C28.1596 1 24.4355 4.72124 24.4355 9.31167C24.4355 13.9021 28.1596 17.6233 32.7536 17.6233" fill="url(#paint0_linear)"/>
<defs>
<linearGradient id="paint0_linear" x1="11.15" y1="35.6712" x2="45.2368" y2="52.2257" gradientUnits="userSpaceOnUse">
<stop stop-color="#20D0EE"/>
<stop offset="0.981733" stop-color="#15E186"/>
</linearGradient>
</defs>
</svg>
