<?xml version="1.0" encoding="utf-8"?>
<!-- Generator: Adobe Illustrator 22.1.0, SVG Export Plug-In . SVG Version: 6.00 Build 0)  -->
<svg version="1.1" id="Layer_1" xmlns="http://www.w3.org/2000/svg" xmlns:xlink="http://www.w3.org/1999/xlink" x="0px" y="0px"
	 width="100px" height="100px" viewBox="0 0 100 100" style="enable-background:new 0 0 100 100;" xml:space="preserve">
<style type="text/css">
	.st0{fill:#F68D2E;}
</style>
<path class="st0" d="M66.7,9.2h-0.3C66.2,9.1,66,9,65.7,9H47.6c-0.6,0-1.1,0.5-1.1,1.1v2.6H29.2c-0.5,0-0.8,0.2-1,0.7
	c-0.1,0.3,0,0.8,0.2,1.1l5.5,5.7l-5.7,7.3c-0.2,0.3-0.2,0.8-0.1,1.1c0.2,0.3,0.6,0.6,1,0.6h11.3C40.1,30,40,30.5,40,31.2
	c0,2.1,0.9,3.9,2.4,5.1l-0.8,1.1l-3.1,1.3c-1.5,0.6-2.7,1.7-3.5,3.2l-3.4,6.6c-1,1.9-0.3,4.2,1.4,5.5l6.2,4.3
	C39,58.4,39,58.7,39,58.9v0.3l-3.1,25.1h-1.5c-0.6,0-1.1,0.5-1.1,1.1c0,0.6,0.5,1.1,1.1,1.1H37h5.9h0.2h0.2h0.2c0.1,0,0.2,0,0.2-0.1
	l0.1-0.1c0,0,0-0.1,0.1-0.1v-0.3l3.2-17.7l1.8,5.5l3.4,11c-0.1,0.2-0.2,0.5-0.2,0.7c0,0.6,0.5,1.1,1.1,1.1h0.6h5.2h2.7
	c0.6,0,1.1-0.5,1.1-1.1c0-0.6-0.5-1.1-1.1-1.1h-1.8l-2.7-13.1l-3.4-12.4v-9.1l3,2.5c0.2,0.2,0.5,0.2,0.7,0.2h8v32.9
	c0,0.6,0.5,1.1,1.1,1.1s1.1-0.5,1.1-1.1V10.4C67.8,9.7,67.3,9.2,66.7,9.2z M41.4,27.1h-10l4.9-6.3c0.3-0.5,0.3-1,0-1.5l-4.4-4.4
	h14.6v9.6C44.4,24.6,42.7,25.6,41.4,27.1z M42.3,31.3c0-2.5,2.1-4.6,4.6-4.6c2.5,0,4.6,2.1,4.6,4.6c0,2.5-2.1,4.6-4.6,4.6
	C44.4,35.9,42.3,33.8,42.3,31.3z M49.4,38l-2.8,1.6L43.9,38l0.3-0.5c0.8,0.3,1.7,0.6,2.6,0.6c0.8,0,1.6-0.1,2.3-0.5L49.4,38z
	 M55.1,71.6l2.6,12.6h-3.1L51.1,73l-3.2-9.5c-0.1-0.5-0.6-0.8-1.1-0.8c-0.5,0-0.9,0.5-1,0.9L42,84.3h-3.8l3-24.3h10.6L55.1,71.6z
	 M65.5,50.1h-7.7v0.1l-4.4-3.9c-0.3-0.2-0.8-0.3-1.1-0.1c-0.3,0.2-0.7,0.6-0.7,1v10.6h-7.4c0.7-0.9,0.9-2.2,0.5-3.2
	c-0.6-1.3-1.8-1.9-3.1-1.8l0.5-6.9c0-0.5-0.2-0.9-0.7-1.1c-0.5-0.2-0.9,0-1.3,0.3l-3.9,4.7c-0.3,0.5-0.3,1.1,0.1,1.5l3.1,3.1
	c0.1,0.3,0.3,0.6,0.7,0.7c0.2,0.2,0.6,0.2,0.9,0.2l0.7-0.1c0.5-0.1,0.8,0.1,1,0.5c0.2,0.5,0,0.9-0.3,1.1l-0.6,0.1
	c-0.3,0.1-0.7,0.1-0.9,0l-6.5-4.6c-0.8-0.6-1.1-1.7-0.7-2.6l3.4-6.6c0.5-1,1.4-1.7,2.4-2.2l2.8-1.1l3.8,2.3h0.6c0.2,0,0.3,0,0.6-0.1
	l3.9-2.3l2.3,1l4.9,7.3c0.2,0.3,0.6,0.5,0.9,0.5h6.4V50.1z M39.5,49.1l-0.1,2.1l-0.9-0.9L39.5,49.1z M65.5,46.2h-5.8l-4.7-7.1
	c-0.1-0.1-0.2-0.3-0.5-0.3l-2.8-1.3l-0.7-0.9c1.6-1.3,2.5-3.2,2.5-5.4c0-1.8-0.7-3.4-1.8-4.7h13.8V46.2z M65.5,24.5H48.7V11.2h16.9
	V24.5z"/>
</svg>
