<?xml version="1.0" encoding="utf-8"?>
<!-- Generator: Adobe Illustrator 19.2.0, SVG Export Plug-In . SVG Version: 6.00 Build 0)  -->
<svg version="1.1" id="Layer_1" xmlns="http://www.w3.org/2000/svg" xmlns:xlink="http://www.w3.org/1999/xlink" x="0px" y="0px"
	 width="100px" height="100px" viewBox="0 0 100 100" style="enable-background:new 0 0 100 100;" xml:space="preserve">
<style type="text/css">
	.st0{fill:#04B6F1;}
</style>
<path class="st0" d="M73.6,28.5L73.6,28.5c-3.4-3.4-8.1-5.3-13-5c-3.9,0.2-7.6,1.5-10.7,3.8c-3.1-2.3-6.8-3.6-10.7-3.8l0,0
	c-4.8-0.2-9.5,1.6-13,5l0,0c-7.1,7.1-7.1,18.5,0,25.6L48,75.6l0,0c0.5,0.5,1.2,0.9,2.1,0.9c0.7,0,1.5-0.3,2.1-0.9l21.7-21.5l0,0l0,0
	C80.7,46.9,80.8,35.6,73.6,28.5z M71.7,52L50.1,73.5L28.4,52l0,0c-0.1-0.1-0.3-0.3-0.4-0.4h10.1c0.7,0,1.3-0.4,1.4-1.1l0,0l0,0l0,0
	l0,0l0,0c0,0,0-0.1,0.1-0.2c0-0.2,0.1-0.4,0.2-0.7c0.2-0.6,0.4-1.3,0.7-2c0-0.1,0.1-0.2,0.1-0.2c0.4,1.1,0.8,2.4,1.2,3.7l0,0l0,0
	c0.5,1.6,1.1,3.2,1.5,4.5c0.2,0.6,0.5,1.2,0.7,1.6c0.1,0.2,0.2,0.4,0.4,0.6c0.1,0.1,0.2,0.2,0.4,0.4c0.2,0.1,0.5,0.4,1,0.4
	c0.7,0,1.1-0.4,1.1-0.5l0,0c0.1-0.1,0.3-0.3,0.3-0.4c0.1-0.2,0.3-0.5,0.4-0.8c0.3-0.6,0.6-1.4,0.9-2.3c0.7-1.8,1.6-4.2,2.4-6.6v0
	l0,0c0.9-2.4,1.7-4.7,2.4-6.5c0-0.1,0.1-0.1,0.1-0.2c0.1,0.3,0.2,0.6,0.4,0.9l0.1,0.1c0.3,0.7,0.6,1.5,0.9,2.2
	c0.6,1.5,1.4,3.1,2.1,4.4c0.4,0.6,0.8,1.2,1.3,1.7c0.4,0.4,1.1,0.9,2,0.9h11.7C71.9,51.7,71.8,51.9,71.7,52z M60.6,48.6
	c0,0-0.1-0.1-0.1-0.1c-0.2-0.2-0.5-0.6-0.8-1.1c-0.6-1-1.3-2.5-1.9-4c-0.3-0.7-0.6-1.5-0.9-2.2l-0.1-0.2c-0.3-0.6-0.5-1.3-0.7-1.8
	c-0.2-0.6-0.5-1.1-0.7-1.5c-0.1-0.2-0.2-0.4-0.4-0.6c-0.1-0.1-0.2-0.2-0.4-0.4c-0.2-0.1-0.5-0.3-1-0.3c-0.7,0-1.1,0.4-1.1,0.5l0,0
	c-0.1,0.1-0.3,0.3-0.3,0.4c-0.1,0.2-0.3,0.5-0.4,0.8c-0.3,0.6-0.6,1.4-0.9,2.3c-0.7,1.8-1.6,4.2-2.4,6.6l0,0
	c-0.9,2.4-1.7,4.7-2.4,6.5l0,0c-0.4-1-0.8-2.2-1.2-3.5l0,0l0,0c-0.5-1.6-1.1-3.2-1.5-4.5c-0.2-0.6-0.5-1.2-0.7-1.6
	c-0.1-0.2-0.2-0.4-0.4-0.6c-0.1-0.1-0.2-0.2-0.4-0.4c-0.2-0.1-0.5-0.4-1-0.4c-0.5,0-0.9,0.2-1.1,0.4c-0.2,0.2-0.4,0.3-0.5,0.5
	c-0.2,0.3-0.4,0.6-0.6,0.9c-0.3,0.6-0.6,1.5-0.9,2.2c-0.3,0.7-0.5,1.5-0.7,2H25.9c-3.2-5.7-2.3-13.1,2.6-18
	c2.8-2.8,6.7-4.3,10.7-4.1c3.7,0.2,7.1,1.5,9.8,3.8l1,0.9l1-0.8c2.7-2.3,6.2-3.7,9.8-3.9l0,0l0,0c4-0.2,7.9,1.3,10.7,4.1
	c4.9,4.9,5.8,12.2,2.6,18H60.6z"/>
<path class="st0" d="M29.8,48.2C29.8,48.2,29.8,48.2,29.8,48.2C29.8,48.2,29.8,48.2,29.8,48.2z"/>
<path class="st0" d="M29.8,48.2C29.8,48.2,29.8,48.2,29.8,48.2C29.8,48.2,29.8,48.2,29.8,48.2z"/>
<path class="st0" d="M29.8,48.2C29.8,48.2,29.8,48.2,29.8,48.2C29.8,48.2,29.8,48.2,29.8,48.2C29.8,48.2,29.8,48.2,29.8,48.2z"/>
<polygon class="st0" points="29.8,48.2 29.8,48.2 29.8,48.2 "/>
</svg>
