<?xml version="1.0" encoding="UTF-8"?>
<svg width="169px" height="113px" viewBox="0 0 169 113" version="1.1" xmlns="http://www.w3.org/2000/svg" xmlns:xlink="http://www.w3.org/1999/xlink">
    <!-- Generator: Sketch 52.3 (67297) - http://www.bohemiancoding.com/sketch -->
    <title>diploma-icon</title>
    <desc>Created with Sketch.</desc>
    <g id="Page-1" stroke="none" stroke-width="1" fill="none" fill-rule="evenodd">
        <g id="About-Us" transform="translate(-746.000000, -1098.000000)" fill="#FFFFFF" fill-rule="nonzero">
            <g id="Diplomas" transform="translate(0.000000, 866.000000)">
                <g id="3" transform="translate(746.000000, 232.000000)">
                    <path d="M5.1277704,2 C3.80406657,2 3.40096145,2.07784319 2.98950631,2.2978918 C2.68619141,2.46010639 2.46010639,2.68619141 2.2978918,2.98950631 C2.07784319,3.40096145 2,3.80406657 2,5.1277704 L2,107.87223 C2,109.195933 2.07784319,109.599039 2.2978918,110.010494 C2.46010639,110.313809 2.68619141,110.539894 2.98950631,110.702108 C3.40096145,110.922157 3.80406657,111 5.1277704,111 L163.87223,111 C165.195933,111 165.599039,110.922157 166.010494,110.702108 C166.313809,110.539894 166.539894,110.313809 166.702108,110.010494 C166.922157,109.599039 167,109.195933 167,107.87223 L167,5.1277704 C167,3.80406657 166.922157,3.40096145 166.702108,2.98950631 C166.539894,2.68619141 166.313809,2.46010639 166.010494,2.2978918 C165.599039,2.07784319 165.195933,2 163.87223,2 L5.1277704,2 Z M5.1277704,0 L163.87223,4.14336123e-16 C165.655267,8.67974518e-17 166.30184,0.185651222 166.953691,0.534265408 C167.605543,0.882879593 168.11712,1.39445674 168.465735,2.04630859 C168.814349,2.69816044 169,3.34473292 169,5.1277704 L169,107.87223 C169,109.655267 168.814349,110.30184 168.465735,110.953691 C168.11712,111.605543 167.605543,112.11712 166.953691,112.465735 C166.30184,112.814349 165.655267,113 163.87223,113 L5.1277704,113 C3.34473292,113 2.69816044,112.814349 2.04630859,112.465735 C1.39445674,112.11712 0.882879593,111.605543 0.534265408,110.953691 C0.185651222,110.30184 2.18359114e-16,109.655267 0,107.87223 L2.76224082e-16,5.1277704 C5.78649679e-17,3.34473292 0.185651222,2.69816044 0.534265408,2.04630859 C0.882879593,1.39445674 1.39445674,0.882879593 2.04630859,0.534265408 C2.69816044,0.185651222 3.34473292,3.27538671e-16 5.1277704,0 Z M153.252324,96.0006823 L157.630463,95.2817378 L151.61893,88.5188505 C150.619099,91.189365 148.666832,93.4179884 146.162549,94.7262373 L151.684098,100.933624 L152.370284,96.8503123 C152.45009,96.4063301 152.805903,96.0641083 153.252324,96.0006823 Z M140.869961,93.9097144 C146.07891,93.9097144 150.279316,89.7093082 150.279316,84.5003585 C150.279316,79.2914089 146.07891,75.0910027 140.869961,75.0910027 C135.660662,75.0910027 131.460605,79.2914089 131.460605,84.5003585 C131.460605,89.7093082 135.660662,93.9097144 140.869961,93.9097144 Z M130.055474,100.933624 L135.577024,94.7262373 C133.061589,93.4186854 131.090155,91.1991229 130.088233,88.5188505 L124.109458,95.2817378 L128.487248,96.0006823 C128.93367,96.0641083 129.289483,96.4063301 129.369637,96.8503123 L130.055474,100.933624 Z M160.727535,95.8219046 C160.814659,96.3927388 160.422602,96.9259356 159.851768,97.0130593 L154.330567,97.9278578 L153.415768,103.482166 C153.378131,103.731688 153.251976,103.958558 153.059955,104.12235 C152.620852,104.496982 151.960803,104.444359 151.586171,104.004908 L144.071581,95.5431088 C143.05084,95.8410718 141.985144,96.0003338 140.869961,96.0003338 C139.763142,96.0003338 138.681414,95.8361928 137.667992,95.5431088 L130.15375,104.004908 C129.990306,104.196928 129.762739,104.323083 129.513565,104.360372 C128.942731,104.44645 128.409883,104.053 128.324153,103.482166 L127.409354,97.9278578 L121.887805,97.0130593 C121.686724,96.9823918 121.499233,96.8938741 121.347638,96.7583097 C120.917596,96.3725261 120.881701,95.7117802 121.267136,95.2817378 L129.500322,86.035826 C129.432017,85.5325997 129.369637,85.0217066 129.369637,84.5003585 C129.369637,78.1612407 134.530843,73.0000348 140.869961,73.0000348 L140.869961,72.9996863 C147.20873,72.9996863 152.370284,78.1612407 152.370284,84.5000101 C152.370284,85.0213581 152.307555,85.5325997 152.239599,86.035826 L160.472785,95.2817378 C160.60835,95.4329845 160.696867,95.6208231 160.727535,95.8219046 Z M24.376,42 L24.376,25.2 L30.208,25.2 C32.8320131,25.2 34.9759917,25.995992 36.64,27.588 C38.3040083,29.180008 39.136,31.1839879 39.136,33.6 C39.136,36.000012 38.3000084,37.999992 36.628,39.6 C34.9559916,41.200008 32.816013,42 30.208,42 L24.376,42 Z M26.272,40.248 L30.208,40.248 C32.3040105,40.248 33.9879936,39.6200063 35.26,38.364 C36.5320064,37.1079937 37.168,35.5200096 37.168,33.6 C37.168,31.6959905 36.5280064,30.1120063 35.248,28.848 C33.9679936,27.5839937 32.2880104,26.952 30.208,26.952 L26.272,26.952 L26.272,40.248 Z M44.812,42 L44.812,25.2 L46.708,25.2 L46.708,42 L44.812,42 Z M53.128,42 L53.128,25.2 L59.416,25.2 C61.3360096,25.2 62.8639943,25.6799952 64,26.64 C65.1360057,27.6000048 65.704,28.9119917 65.704,30.576 C65.704,32.3200087 65.0760063,33.6719952 63.82,34.632 C62.5639937,35.5920048 60.9920094,36.072 59.104,36.072 L55.024,36.072 L55.024,42 L53.128,42 Z M55.024,34.344 L59.176,34.344 C60.568007,34.344 61.6839958,34.0040034 62.524,33.324 C63.3640042,32.6439966 63.784,31.7360057 63.784,30.6 C63.784,29.4319942 63.380004,28.5320032 62.572,27.9 C61.763996,27.2679968 60.664007,26.952 59.272,26.952 L55.024,26.952 L55.024,34.344 Z M70.66,42 L70.66,25.2 L72.556,25.2 L72.556,40.248 L82.012,40.248 L82.012,42 L70.66,42 Z M100.024,39.744 C98.4079919,41.4400085 96.3520125,42.288 93.856,42.288 C91.3599875,42.288 89.312008,41.4400085 87.712,39.744 C86.111992,38.0479915 85.312,36.000012 85.312,33.6 C85.312,31.2159881 86.1199919,29.1720085 87.736,27.468 C89.3520081,25.7639915 91.4079875,24.912 93.904,24.912 C96.4000125,24.912 98.447992,25.7599915 100.048,27.456 C101.648008,29.1520085 102.448,31.199988 102.448,33.6 C102.448,35.9840119 101.640008,38.0319914 100.024,39.744 Z M89.152,38.52 C90.4160063,39.8640067 91.9999905,40.536 93.904,40.536 C95.8080095,40.536 97.3799938,39.8680067 98.62,38.532 C99.8600062,37.1959933 100.48,35.5520098 100.48,33.6 C100.48,31.6639903 99.8520063,30.0240067 98.596,28.68 C97.3399937,27.3359933 95.7600095,26.664 93.856,26.664 C91.9519905,26.664 90.3800062,27.3319933 89.14,28.668 C87.8999938,30.0040067 87.28,31.6479902 87.28,33.6 C87.28,35.5360097 87.9039938,37.1759933 89.152,38.52 Z M107.956,42 L107.956,25.2 L109.876,25.2 L115.996,34.368 L122.116,25.2 L124.036,25.2 L124.036,42 L122.14,42 L122.14,28.392 L116.02,37.392 L115.924,37.392 L109.804,28.416 L109.804,42 L107.956,42 Z M128.848,42 L136.504,25.08 L138.28,25.08 L145.936,42 L143.896,42 L141.928,37.56 L132.784,37.56 L130.792,42 L128.848,42 Z M133.528,35.856 L141.184,35.856 L137.368,27.288 L133.528,35.856 Z M25,62 L110,62 L110,64 L25,64 L25,62 Z M25,70 L110,70 L110,72 L25,72 L25,70 Z M25,78 L110,78 L110,80 L25,80 L25,78 Z M25,86 L60,86 L60,88 L25,88 L25,86 Z" id="diploma-icon"></path>
                </g>
            </g>
        </g>
    </g>
</svg>