<?xml version="1.0" encoding="UTF-8" standalone="no"?>
<svg
   xmlns:dc="http://purl.org/dc/elements/1.1/"
   xmlns:cc="http://creativecommons.org/ns#"
   xmlns:rdf="http://www.w3.org/1999/02/22-rdf-syntax-ns#"
   xmlns:svg="http://www.w3.org/2000/svg"
   xmlns="http://www.w3.org/2000/svg"
   xmlns:sodipodi="http://sodipodi.sourceforge.net/DTD/sodipodi-0.dtd"
   xmlns:inkscape="http://www.inkscape.org/namespaces/inkscape"
   width="233px"
   height="102px"
   viewBox="0 0 233 102"
   version="1.1"
   id="svg3336"
   inkscape:version="0.91 r13725"
   sodipodi:docname="logo.svg">
  <metadata
     id="metadata3406">
    <rdf:RDF>
      <cc:Work
         rdf:about="">
        <dc:format>image/svg+xml</dc:format>
        <dc:type
           rdf:resource="http://purl.org/dc/dcmitype/StillImage" />
      </cc:Work>
    </rdf:RDF>
  </metadata>
  <defs
     id="defs3404" />
  <sodipodi:namedview
     pagecolor="#ffffff"
     bordercolor="#666666"
     borderopacity="1"
     objecttolerance="10"
     gridtolerance="10"
     guidetolerance="10"
     inkscape:pageopacity="0"
     inkscape:pageshadow="2"
     inkscape:window-width="1680"
     inkscape:window-height="998"
     id="namedview3402"
     showgrid="false"
     inkscape:zoom="6.6523605"
     inkscape:cx="116.5"
     inkscape:cy="51"
     inkscape:window-x="-8"
     inkscape:window-y="-8"
     inkscape:window-maximized="1"
     inkscape:current-layer="svg3336" />
  <!-- Generator: sketchtool 52.3 (67297) - http://www.bohemiancoding.com/sketch -->
  <title
     id="title3338">4C7133C0-424B-4A5C-8334-73D03C8F8C75</title>
  <desc
     id="desc3340">Created with sketchtool.</desc>
  <g
     style="fill:none;fill-rule:evenodd;stroke:none;stroke-width:1"
     transform="translate(-160,-20)"
     id="Main-Page">
    <g
       transform="translate(160,20)"
       id="header-dark">
      <g
         id="logo_2geart">
        <g
           style="fill:#ffffff"
           transform="translate(118,19)"
           id="Group">
          <path
             inkscape:connector-curvature="0"
             id="Path"
             d="m 19.123595,33.314815 -17.7022467,0 0,-2.981482 9.0449437,-12.055555 c 1.421348,-1.814815 2.325843,-3.370371 2.842697,-4.537037 0.516854,-1.166667 0.775281,-2.462963 0.775281,-3.7592595 0,-1.6851852 -0.387641,-3.1111111 -1.162922,-4.1481482 -0.775281,-1.037037 -1.808988,-1.5555555 -3.1011233,-1.5555555 -1.6797753,0 -2.8426966,0.5185185 -3.747191,1.6851852 -0.9044944,1.1666666 -1.2921348,2.7222222 -1.2921348,4.796296 l -3.87640452,0 c 0,-2.9814812 0.77528092,-5.3148146 2.45505622,-7.1296294 1.5505618,-1.8148148 3.747191,-2.72222219 6.5898876,-2.72222219 2.5842698,0 4.5224718,0.77777779 5.9438198,2.33333329 1.421349,1.5555556 2.19663,3.6296297 2.19663,6.2222223 0,3.111111 -1.679776,6.87037 -4.910113,11.277778 l -7.1067413,9.333333 13.1797753,0 -0.129214,3.240741 z" />
          <path
             inkscape:connector-curvature="0"
             id="path3348"
             d="m 43.674157,29.425926 -0.646067,0.907407 c -2.067416,2.333334 -4.910112,3.5 -8.786517,3.5 -3.488764,0 -6.202247,-1.166666 -8.140449,-3.5 C 24.162921,28 23.129213,24.759259 23.129213,20.611111 l 0,-6.222222 c 0,-4.5370372 0.904495,-7.7777779 2.713484,-10.1111112 1.808988,-2.2037037 4.522471,-3.37037039 8.011236,-3.37037039 2.97191,0 5.426966,0.90740739 7.106741,2.59259259 1.679775,1.6851852 2.713483,4.1481481 2.842697,7.259259 l -4.005618,0 C 39.668539,8.8148148 39.022472,7.2592593 38.117978,6.0925926 37.213483,4.9259259 35.792135,4.4074074 33.853933,4.4074074 c -2.325843,0 -4.005618,0.7777778 -5.039326,2.2037037 C 27.780899,8.1666667 27.134831,10.5 27.134831,13.87037 l 0,6.481482 c 0,3.240741 0.646068,5.703704 1.808989,7.388889 1.162922,1.685185 2.97191,2.592592 5.297753,2.592592 2.196629,0 3.747191,-0.518518 4.910112,-1.555555 l 0.646068,-0.518519 0,-7.388889 -5.814607,0 0,-3.5 9.820225,0 -0.129214,12.055556 z" />
          <path
             style="fill-rule:nonzero"
             inkscape:connector-curvature="0"
             id="Shape"
             d="m 57.88764,33.833333 c -2.97191,0 -5.168539,-0.907407 -6.848314,-2.592592 -1.550562,-1.814815 -2.325843,-4.407408 -2.455056,-7.777778 l 0,-2.851852 c 0,-3.5 0.775281,-6.351852 2.325842,-8.296296 1.550562,-2.074074 3.747191,-2.9814817 6.460674,-2.9814817 2.713484,0 4.780899,0.9074077 6.202248,2.7222227 1.421348,1.814814 2.067415,4.537037 2.067415,8.296296 l 0,2.592592 -13.179775,0 0,0.518519 c 0,2.592593 0.516854,4.407407 1.421348,5.574074 0.904495,1.166667 2.325843,1.685185 4.134832,1.685185 1.162921,0 2.196629,-0.259259 2.97191,-0.648148 C 61.893258,29.685185 62.668539,28.907407 63.44382,28 l 2.067416,2.462963 c -1.679775,2.203704 -4.264045,3.37037 -7.623596,3.37037 z M 57.370786,12.444444 c -1.550561,0 -2.842696,0.518519 -3.617977,1.685186 -0.775281,1.166666 -1.162921,2.851851 -1.292135,5.185185 l 9.303371,0 0,-0.518519 C 61.634831,16.592593 61.247191,14.907407 60.601124,14 59.955056,12.962963 58.792135,12.444444 57.370786,12.444444 Z" />
          <path
             style="fill-rule:nonzero"
             inkscape:connector-curvature="0"
             id="path3351"
             d="m 81.921348,33.314815 c -0.258427,-0.518519 -0.38764,-1.425926 -0.516854,-2.592593 -1.421348,2.074074 -3.101123,2.981482 -5.297752,2.981482 -2.19663,0 -3.876405,-0.648148 -5.039326,-1.814815 -1.162922,-1.166667 -1.808989,-2.851852 -1.808989,-5.055556 0,-2.462963 0.775281,-4.277777 2.455056,-5.703703 1.679775,-1.425926 3.876405,-2.203704 6.719101,-2.203704 l 2.842697,0 0,-2.462963 c 0,-1.425926 -0.258427,-2.462963 -0.904495,-2.981482 -0.646067,-0.518518 -1.550561,-0.907407 -2.842696,-0.907407 -1.162922,0 -2.067416,0.388889 -2.842697,1.037037 -0.775281,0.648148 -1.033708,1.555556 -1.033708,2.592593 l -3.876404,0 c 0,-1.166667 0.38764,-2.333334 1.033708,-3.5 0.775281,-1.166667 1.679775,-1.944445 2.842696,-2.592593 1.162922,-0.648148 2.58427,-0.9074073 4.005618,-0.9074073 2.455057,0 4.264045,0.6481481 5.55618,1.8148153 1.292135,1.166666 1.938202,2.981481 1.938202,5.314814 l 0,12.055556 c 0,1.814815 0.258427,3.37037 0.775281,4.796296 l 0,0.388889 -4.005618,0 0,-0.259259 z m -5.168539,-2.981482 c 0.904494,0 1.808989,-0.259259 2.713483,-0.777777 0.904494,-0.518519 1.550562,-1.166667 1.938202,-1.944445 l 0,-5.703704 -2.196629,0 c -1.808989,0 -3.230337,0.388889 -4.393258,1.296297 -1.033708,0.777777 -1.550562,1.944444 -1.550562,3.37037 0,1.296296 0.258427,2.333333 0.775281,2.981482 0.516854,0.388888 1.421348,0.777777 2.713483,0.777777 z" />
          <path
             inkscape:connector-curvature="0"
             id="path3353"
             d="m 100.52809,13.222222 c -0.51685,-0.129629 -1.162922,-0.129629 -1.808989,-0.129629 -1.938202,0 -3.35955,1.037037 -4.134831,3.24074 l 0,16.981482 -3.876405,0 0,-23.7222224 3.747191,0 0.129214,2.4629634 c 1.033707,-1.944445 2.455056,-2.8518523 4.393258,-2.8518523 0.646067,0 1.162922,0.1296296 1.550562,0.2592593 l 0,3.759259 z" />
          <path
             inkscape:connector-curvature="0"
             id="path3355"
             d="m 110.47753,3.8888889 0,5.7037037 3.61798,0 0,3.1111114 -3.61798,0 0,14.777777 c 0,0.907408 0.12921,1.685186 0.51685,2.074075 0.25843,0.518518 0.77528,0.777777 1.55056,0.777777 0.51686,0 1.03371,-0.129629 1.55057,-0.259259 l 0,3.240741 c -0.9045,0.259259 -1.80899,0.388889 -2.71349,0.388889 -1.55056,0 -2.71348,-0.518519 -3.48876,-1.685186 -0.77528,-1.037037 -1.16292,-2.592592 -1.16292,-4.666666 l 0,-14.648148 -3.61798,0 0,-3.1111114 3.61798,0 0,-5.7037037 3.74719,0 z" />
        </g>
        <g
           id="g3357">
          <ellipse
             style="fill:#febb16"
             ry="51"
             rx="50.741772"
             cy="51"
             cx="50.741772"
             id="Oval" />
          <path
             style="fill:#ffffff"
             inkscape:connector-curvature="0"
             id="path3360"
             d="M 39.637975,63.007595 C 39.250633,52.678481 37.83038,49.321519 37.83038,49.321519 L 32.536709,27.759494 c 0,0 -1.420253,-5.035443 3.227848,-6.326583 4.648101,-1.291139 6.455696,3.873418 6.455696,3.873418 0,0 3.744304,14.46076 4.518987,17.43038 1.032912,4.002531 3.486076,5.93924 5.422785,-1.420253 1.032912,-4.131646 4.131646,-16.397469 4.131646,-16.397469 0,0 1.291139,-5.681012 6.326582,-4.389873 4.777215,1.291139 2.96962,6.58481 2.96962,6.58481 l -5.681012,24.402532 6.713924,7.875949 c 0,0 1.291139,-2.582278 3.356962,-1.291139 5.164557,2.96962 6.326582,3.098734 1.807595,13.427848 -3.227848,7.488607 -11.620253,11.103797 -16.78481,11.232911 -9.167089,0.387342 -16.78481,-3.744304 -20.529114,-11.103797 -1.420253,-3.356962 5.551899,-1.032912 5.164557,-8.650633 z" />
          <path
             style="fill:#080808;fill-rule:nonzero"
             inkscape:connector-curvature="0"
             id="path3362"
             d="m 53.96962,83.794937 c -9.296202,0 -16.655696,-4.389874 -20.529114,-11.878481 -0.387341,-0.64557 -0.387341,-1.420254 -0.258227,-2.065823 0.387341,-0.903798 1.162025,-1.549367 2.194936,-1.807595 1.549367,-0.64557 3.098734,-1.420253 2.96962,-5.035443 -0.387341,-9.941772 -1.678481,-13.298734 -1.678481,-13.298734 l 0,-0.129114 -5.293671,-21.562026 c -0.516455,-1.678481 -0.258227,-3.615189 0.516456,-5.164556 0.774684,-1.420254 2.065823,-2.324051 3.61519,-2.711393 0.516456,-0.129114 1.162025,-0.258228 1.678481,-0.258228 4.389873,0 6.068355,4.777215 6.068355,5.035443 l 0,0.129114 c 0,0.129114 3.744303,14.46076 4.518987,17.43038 0.129114,0.903797 0.645569,1.807595 1.291139,2.582279 0.258228,-0.129114 0.903798,-0.903798 1.807595,-4.002532 1.032912,-4.002532 4.002532,-15.881013 4.131646,-16.397469 0.387341,-1.936708 2.194936,-5.551898 6.068354,-5.551898 0.64557,0 1.162025,0.129114 1.807595,0.258228 1.549367,0.258227 2.840506,1.291139 3.61519,2.582278 0.774683,1.678481 0.903797,3.744304 0.387342,5.551899 l -5.422785,23.756962 5.293671,6.197468 c 0.645569,-0.645569 1.420253,-0.903797 2.32405,-1.032911 0.64557,0 1.162026,0.129114 1.678481,0.516455 L 71.4,57.326582 c 2.453165,1.420253 4.131646,2.453165 4.518987,4.777215 0.258228,1.936709 -0.387341,4.518988 -2.840506,9.941773 -3.227848,7.488607 -11.620253,11.749367 -17.946835,12.007595 L 53.96962,83.794937 Z M 35.764557,70.75443 c 3.356962,7.101266 10.458228,10.84557 19.237975,10.587342 4.389873,-0.129114 12.52405,-3.227848 15.751898,-10.458228 1.807595,-4.002531 2.840507,-6.972152 2.582279,-8.521519 0,-1.162025 -1.032911,-1.678481 -3.227848,-2.96962 l -0.64557,-0.387342 c -0.129114,-0.129114 -0.258228,-0.129114 -0.387342,-0.129114 -0.516455,0.129114 -0.903797,0.516456 -1.162025,1.032912 l -0.774684,1.549367 -1.291139,-1.420253 -7.101266,-8.263291 5.810127,-25.048102 c 0.387342,-1.162025 0.387342,-2.453164 -0.129114,-3.61519 -0.387342,-0.774683 -1.162025,-1.291139 -1.936709,-1.420253 -0.387342,-0.129114 -0.774683,-0.129114 -1.162025,-0.129114 -2.840506,0 -3.61519,3.486076 -3.61519,3.61519 0,0.129114 -3.098734,12.394937 -4.131646,16.397468 -0.645569,2.582279 -1.807594,5.939241 -4.131645,5.939241 -1.678481,0 -2.96962,-1.549367 -3.744304,-4.518987 -0.774683,-2.840507 -4.260759,-16.397469 -4.518987,-17.43038 -0.129114,-0.258228 -1.162025,-3.227848 -3.744304,-3.227848 -0.387342,0 -0.774684,0 -1.162025,0.129114 -1.936709,0.516455 -3.098734,2.582278 -2.453165,4.518987 0,0.129114 0,0.258228 0.129114,0.258228 l 5.293671,21.562025 c 0.258228,0.64557 1.420253,4.389874 1.807595,14.073418 0.258228,5.293671 -2.840506,6.713924 -4.518988,7.488608 -0.387341,0.129113 -0.645569,0.258227 -0.774683,0.387341 z" />
          <path
             style="fill:#ffffff"
             inkscape:connector-curvature="0"
             id="path3364"
             d="m 41.962025,62.362025 0,-9.425316 c 0,-2.453165 -2.065823,-4.518988 -4.518987,-4.518988 -2.453165,0 -4.518987,2.065823 -4.518987,4.518988 l 0,7.101266 c 0,0.645569 0,1.549367 0,2.840506 0,4.002532 1.032911,8.005063 3.098734,11.362025 1.807595,2.711393 4.389873,5.035443 7.359493,6.455696 C 47.126582,82.116456 51,82.762025 55.002532,82.632911 57.455696,68.43038 48.417721,62.362025 41.962025,62.362025 Z" />
          <path
             style="fill:#080808;fill-rule:nonzero"
             inkscape:connector-curvature="0"
             id="path3366"
             d="M 53.840506,83.924051 C 50.096202,83.794937 46.351899,83.149367 42.865823,81.858228 39.637975,80.308861 36.926582,77.98481 34.989873,75.01519 32.794937,71.4 31.632911,67.13924 31.632911,62.878481 c 0,-1.162025 0,-2.065823 0,-2.840506 l 0,-7.101266 c 0,-3.227848 2.582279,-5.810127 5.681013,-5.810127 3.227848,0 5.810127,2.582279 5.810127,5.810127 l 0,8.134177 c 3.744303,0.387342 7.101265,2.324051 9.55443,5.164557 2.324051,2.840506 4.906329,8.005063 3.356962,16.397468 l -0.129114,0.903798 -0.903797,0.129114 c -0.258228,0.129114 -0.64557,0.258228 -1.162026,0.258228 z M 37.443038,49.708861 c -1.807595,0 -3.227848,1.420253 -3.227848,3.227848 l 0,7.101266 c 0,0.645569 0,1.549367 0,2.711392 0,3.744304 1.032911,7.488608 2.96962,10.716456 1.678481,2.582278 4.002532,4.518987 6.713924,5.93924 3.227848,1.162026 6.58481,1.807595 9.941772,1.807595 1.032912,-6.843038 -1.032911,-10.974683 -2.96962,-13.427848 -2.194937,-2.711392 -5.422785,-4.260759 -8.908861,-4.389873 l -1.291139,0 0,-10.458228 c 0,-1.807595 -1.420253,-3.227848 -3.227848,-3.227848 z" />
          <path
             style="fill:#ffffff"
             inkscape:connector-curvature="0"
             id="path3368"
             d="m 65.589873,48.03038 c 2.453165,0.774683 3.744304,3.356962 2.969621,5.810126 l -2.969621,9.037975 c -0.645569,2.453165 -3.227848,3.873418 -5.681012,3.227848 -2.453165,-0.64557 -3.873418,-3.227848 -3.227848,-5.681013 0,-0.129114 0.129114,-0.258227 0.129114,-0.387341 L 59.779747,51 c 0.774683,-2.453165 3.356962,-3.744304 5.810126,-2.96962 z" />
          <path
             style="fill:#080808;fill-rule:nonzero"
             inkscape:connector-curvature="0"
             id="path3370"
             d="m 61.2,67.268354 c -3.227848,0 -5.810127,-2.582278 -5.810127,-5.810126 0,-0.64557 0.129114,-1.291139 0.258228,-1.807595 l 2.969621,-9.037975 c 1.032911,-3.098734 4.260759,-4.777215 7.359493,-3.744304 3.098734,1.032912 4.777215,4.26076 3.744304,7.359494 l -2.96962,9.037975 C 65.977215,65.718987 63.782278,67.268354 61.2,67.268354 Z m 2.96962,-18.205063 c -1.420253,0 -2.711392,0.903798 -3.098734,2.324051 l -2.96962,9.037974 c -0.516456,1.807595 0.387342,3.61519 2.065823,4.26076 1.807594,0.516456 3.615189,-0.387342 4.131645,-2.065823 l 2.96962,-9.037975 C 67.78481,51.774684 66.881013,49.967089 65.073418,49.321519 64.944304,49.063291 64.556962,49.063291 64.16962,49.063291 Z" />
          <path
             style="fill:#ffffff"
             inkscape:connector-curvature="0"
             id="path3372"
             d="m 72.949367,55.002532 c 2.324051,0.774683 3.61519,3.356962 2.840506,5.810126 l -1.678481,4.777215 c -0.516455,2.453165 -2.96962,4.002532 -5.422784,3.486076 -2.453165,-0.516455 -4.002532,-2.96962 -3.486076,-5.551898 0.129114,-0.258228 0.129114,-0.516456 0.258227,-0.903798 l 1.678481,-4.777215 c 0.903798,-2.324051 3.486076,-3.61519 5.810127,-2.840506 z" />
          <path
             style="fill:#080808;fill-rule:nonzero"
             inkscape:connector-curvature="0"
             id="path3374"
             d="m 69.979747,70.108861 c -3.227848,0 -5.810127,-2.582279 -5.810127,-5.810127 0,-0.645569 0.129114,-1.291139 0.258228,-1.807595 l 1.678481,-4.777215 c 1.032911,-3.098734 4.26076,-4.777215 7.359494,-3.744304 3.098734,1.032912 4.777215,4.389874 3.744304,7.359494 l -1.678481,4.777215 c -0.774684,2.324051 -3.098735,4.002532 -5.551899,4.002532 z m 1.549367,-14.073418 c -1.420253,0 -2.711392,0.903797 -3.098734,2.324051 l -1.678481,4.777215 c -0.516456,1.807595 0.387341,3.61519 2.065823,4.260759 1.807594,0.516456 3.615189,-0.387341 4.131645,-2.194936 l 1.678481,-4.777216 c 0.516456,-1.807594 -0.387342,-3.615189 -2.194937,-4.260759 -0.258228,0 -0.516455,-0.129114 -0.903797,-0.129114 z" />
        </g>
        <g
           style="fill:#ffffff"
           transform="translate(119,69)"
           id="g3376">
          <path
             style="fill-rule:nonzero"
             inkscape:connector-curvature="0"
             id="path3378"
             d="m 9.5955056,6.4571429 c 0,1.9285714 -0.5168539,3.4714285 -1.5505618,4.5000001 C 7.011236,11.985714 5.4606742,12.5 3.3932584,12.5 l -3.35955053,0 0,-12.08571429 3.61797753,0 c 1.8089888,0 3.3595506,0.51428572 4.3932584,1.54285719 1.0337079,1.2857142 1.5505618,2.7 1.5505618,4.5 z M 8.1741573,6.5857143 c 0,-1.5428572 -0.3876405,-2.7 -1.1629213,-3.4714286 C 6.2359551,2.3428571 5.0730337,1.9571429 3.5224719,1.9571429 l -2.0674157,0 0,9.6428571 1.6797753,0 c 1.6797752,0 2.9719101,-0.385714 3.747191,-1.157143 C 7.6573034,9.4142857 8.1741573,8.1285714 8.1741573,6.5857143 Z" />
          <path
             style="fill-rule:nonzero"
             inkscape:connector-curvature="0"
             id="path3380"
             d="m 15.926966,12.757143 c -1.292134,0 -2.325842,-0.385714 -3.101123,-1.157143 -0.775281,-0.771429 -1.162922,-1.9285714 -1.162922,-3.3428571 0,-1.4142858 0.387641,-2.5714286 1.033708,-3.4714286 C 13.47191,3.8857143 14.376405,3.5 15.539326,3.5 c 1.162921,0 2.067416,0.3857143 2.713483,1.1571429 0.646067,0.7714285 1.033708,1.6714285 1.033708,2.9571428 l 0,0.9 -6.331461,0 c 0,1.0285714 0.258427,1.8000003 0.775281,2.4428573 0.516854,0.514286 1.162921,0.771428 2.196629,0.771428 1.033708,0 1.938202,-0.257142 2.842697,-0.642857 l 0,1.157143 c -0.516854,0.257143 -0.904495,0.385714 -1.421348,0.385714 -0.258427,0.128572 -0.904495,0.128572 -1.421349,0.128572 z m -0.38764,-8.1000001 c -0.775281,0 -1.292135,0.2571428 -1.679775,0.6428571 -0.387641,0.5142857 -0.646068,1.1571429 -0.775281,1.9285714 l 4.651685,0 c 0,-0.9 -0.129213,-1.5428571 -0.516854,-1.9285714 -0.38764,-0.3857143 -1.033708,-0.6428571 -1.679775,-0.6428571 z" />
          <path
             inkscape:connector-curvature="0"
             id="path3382"
             d="m 27.426966,10.185714 c 0,0.771429 -0.258427,1.414286 -0.904494,1.928572 -0.646068,0.514285 -1.550562,0.642857 -2.58427,0.642857 -1.162921,0 -2.067416,-0.128572 -2.842696,-0.514286 l 0,-1.285714 C 21.483146,11.214286 22,11.342857 22.516854,11.471429 23.033708,11.6 23.550562,11.6 23.938202,11.6 c 0.775281,0 1.292135,-0.128571 1.679775,-0.385714 0.387641,-0.257143 0.516854,-0.514286 0.516854,-1.028572 0,-0.385714 -0.129213,-0.6428569 -0.516854,-0.8999997 -0.258426,-0.2571429 -0.904494,-0.5142857 -1.808988,-0.9 C 23.033708,8.1285714 22.38764,7.7428571 22,7.6142857 21.61236,7.3571429 21.353933,7.1 21.224719,6.8428571 21.095506,6.5857143 20.966292,6.2 20.966292,5.8142857 c 0,-0.7714286 0.258427,-1.2857143 0.904494,-1.6714286 C 22.516854,3.7571429 23.292135,3.5 24.325843,3.5 c 0.904494,0 1.938202,0.2571429 2.842696,0.6428571 L 26.651685,5.3 C 25.747191,4.9142857 24.97191,4.7857143 24.196629,4.7857143 c -0.646067,0 -1.162921,0.1285714 -1.421348,0.2571428 -0.258427,0.1285715 -0.516854,0.5142858 -0.516854,0.7714286 0,0.2571429 0,0.3857143 0.129213,0.6428572 0.129214,0.1285714 0.258427,0.3857142 0.646068,0.5142857 C 23.292135,7.1 23.808989,7.3571429 24.58427,7.6142857 25.617977,8 26.393258,8.3857143 26.780899,8.7714286 c 0.38764,0.3857143 0.646067,0.7714285 0.646067,1.4142854 z" />
          <path
             style="fill-rule:nonzero"
             inkscape:connector-curvature="0"
             id="path3384"
             d="m 29.623595,1.0571429 c 0,-0.2571429 0.129214,-0.51428576 0.258428,-0.64285719 0.129213,-0.12857142 0.38764,-0.25714285 0.516853,-0.25714285 0.258427,0 0.387641,0.12857143 0.516854,0.25714285 C 31.044944,0.54285714 31.174157,0.8 31.174157,1.0571429 31.174157,1.3142857 31.044944,1.5714286 30.91573,1.7 30.786517,1.8285714 30.52809,1.9571429 30.398876,1.9571429 30.140449,1.9571429 30.011236,1.8285714 29.882023,1.7 29.752809,1.5714286 29.623595,1.4428571 29.623595,1.0571429 Z m 1.550562,11.5714281 -1.421348,0 0,-9.128571 1.421348,0 0,9.128571 z" />
          <path
             style="fill-rule:nonzero"
             inkscape:connector-curvature="0"
             id="path3386"
             d="m 41.511236,3.6285714 0,0.9 -1.679775,0.2571429 c 0.129213,0.1285714 0.258427,0.3857143 0.38764,0.7714286 0.129214,0.3857142 0.129214,0.6428571 0.129214,1.0285714 0,0.9 -0.258427,1.5428571 -0.904495,2.0571428 -0.646067,0.5142858 -1.421348,0.7714286 -2.455056,0.7714286 -0.258427,0 -0.516854,0 -0.775281,-0.1285714 -0.516854,0.2571428 -0.904494,0.6428571 -0.904494,1.1571427 0,0.257143 0.129213,0.385714 0.258427,0.514286 0.258427,0.128571 0.516854,0.128571 1.033708,0.128571 l 1.550561,0 c 1.033708,0 1.679776,0.257143 2.19663,0.642857 0.516854,0.385715 0.77528,1.028572 0.77528,1.8 0,1.028572 -0.38764,1.8 -1.162921,2.314286 -0.775281,0.514286 -1.938202,0.771429 -3.488764,0.771429 -1.162921,0 -2.067416,-0.257143 -2.713483,-0.642857 -0.646067,-0.385715 -0.904494,-1.028572 -0.904494,-1.8 0,-0.514286 0.129213,-1.028572 0.516853,-1.414286 0.387641,-0.385714 0.904495,-0.642857 1.421349,-0.771429 C 34.533708,11.857143 34.404494,11.728571 34.275281,11.471429 34.146067,11.214286 34.016854,10.957143 34.016854,10.7 c 0,-0.385714 0.129213,-0.642857 0.258427,-0.9 0.129213,-0.2571429 0.38764,-0.5142857 0.775281,-0.7714286 C 34.533708,8.9 34.146067,8.5142857 33.88764,8 33.629213,7.4857143 33.5,6.9714286 33.5,6.4571429 c 0,-1.0285715 0.258427,-1.6714286 0.904494,-2.3142858 0.646068,-0.5142857 1.421349,-0.7714285 2.455057,-0.7714285 0.516853,0 0.904494,0 1.292134,0.1285714 l 3.359551,0 0,0.1285714 z M 34.146067,14.171429 c 0,0.514285 0.258427,0.9 0.646068,1.157142 0.38764,0.257143 1.033708,0.385715 1.808989,0.385715 1.162921,0 1.938202,-0.128572 2.584269,-0.514286 0.516854,-0.385714 0.775281,-0.771429 0.775281,-1.414286 0,-0.514285 -0.129213,-0.771428 -0.38764,-1.028571 C 39.314607,12.628571 38.668539,12.5 37.893258,12.5 l -1.679775,0 c -0.646067,0 -1.162921,0.128571 -1.421348,0.385714 -0.258427,0.128572 -0.646068,0.642857 -0.646068,1.285715 z m 0.775281,-7.7142861 c 0,0.6428571 0.129214,1.1571428 0.516854,1.4142857 0.387641,0.2571428 0.904495,0.5142857 1.421349,0.5142857 1.292134,0 1.938202,-0.6428572 1.938202,-1.9285714 C 38.797753,5.1714286 38.151685,4.4 36.730337,4.4 36.08427,4.4 35.567416,4.5285714 35.308989,4.9142857 35.050562,5.3 34.921348,5.8142857 34.921348,6.4571429 Z" />
          <path
             inkscape:connector-curvature="0"
             id="path3388"
             d="m 49.522472,12.628571 0,-5.9142853 c 0,-0.7714286 -0.129214,-1.2857143 -0.516854,-1.6714286 C 48.617978,4.6571429 48.101124,4.5285714 47.455056,4.5285714 46.550562,4.5285714 45.775281,4.7857143 45.38764,5.3 45,5.8142857 44.741573,6.5857143 44.741573,7.7428571 l 0,4.7571429 -1.421348,0 0,-9.1285714 1.162921,0 0.258427,1.2857143 0.129213,0 c 0.258427,-0.3857143 0.646068,-0.7714286 1.162922,-1.0285715 0.516854,-0.2571428 1.033708,-0.3857143 1.679775,-0.3857143 1.033708,0 1.938202,0.2571429 2.455056,0.7714286 C 50.685393,4.5285714 50.94382,5.3 50.94382,6.4571429 l 0,5.9142861 -1.421348,0 0,0.257142 z" />
          <path
             style="fill-rule:nonzero"
             inkscape:connector-curvature="0"
             id="path3390"
             d="m 58.308989,0.54285714 3.35955,0 c 1.550562,0 2.713484,0.25714286 3.488764,0.77142856 C 65.803371,1.8285714 66.191011,2.6 66.191011,3.5 c 0,0.6428571 -0.258427,1.2857143 -0.646067,1.8 -0.387641,0.5142857 -1.033708,0.7714286 -1.679775,0.9 l 0,0.1285714 c 1.808988,0.2571429 2.713483,1.2857143 2.713483,2.8285715 0,1.0285711 -0.387641,1.9285711 -1.033708,2.4428571 -0.646068,0.514286 -1.679775,0.9 -3.101124,0.9 l -4.134831,0 0,-11.95714286 z m 1.421348,5.27142856 2.325843,0 c 1.033708,0 1.679775,-0.1285714 2.067415,-0.5142857 C 64.511236,4.9142857 64.769663,4.5285714 64.769663,3.7571429 64.769663,3.1142857 64.511236,2.6 63.994382,2.3428571 63.477528,2.0857143 62.702247,1.9571429 61.668539,1.9571429 l -1.938202,0 0,3.8571428 z m 0,1.1571429 0,4.5000004 2.455056,0 c 0.904495,0 1.679776,-0.128572 2.19663,-0.514286 0.516853,-0.385714 0.77528,-0.9 0.77528,-1.8000001 0,-0.7714286 -0.258427,-1.2857143 -0.77528,-1.6714286 C 63.865169,7.1 63.089888,6.9714286 62.05618,6.9714286 c 0,0 -2.325843,0 -2.325843,0 z" />
          <path
             inkscape:connector-curvature="0"
             id="path3392"
             d="m 70.455056,3.6285714 0,5.9142857 c 0,0.7714289 0.129214,1.2857139 0.516854,1.6714289 0.387641,0.385714 0.904495,0.514285 1.550562,0.514285 0.904494,0 1.679775,-0.257142 2.067416,-0.771428 0.38764,-0.514286 0.646067,-1.2857144 0.646067,-2.4428573 l 0,-4.7571428 1.421348,0 0,9.1285711 -1.162921,0 -0.258427,-1.157143 c -0.258427,0.385715 -0.646067,0.771429 -1.162921,1.028572 -0.516854,0.257143 -1.033708,0.385714 -1.679776,0.385714 -1.033707,0 -1.938202,-0.257143 -2.455056,-0.771428 -0.516854,-0.514286 -0.775281,-1.285715 -0.775281,-2.4428576 l 0,-6.0428571 1.421349,0 0,-0.2571429 -0.129214,0 z" />
          <path
             inkscape:connector-curvature="0"
             id="path3394"
             d="m 83.764045,3.5 c 0.38764,0 0.775281,0 1.033708,0.1285714 l -0.129214,1.2857143 c -0.38764,-0.1285714 -0.646067,-0.1285714 -1.033707,-0.1285714 -0.775281,0 -1.292135,0.2571428 -1.808989,0.9 -0.516854,0.6428571 -0.775281,1.2857143 -0.775281,2.1857143 l 0,4.7571424 -1.421348,0 0,-9.128571 1.162921,0 0.129213,1.6714286 0.129214,0 C 81.438202,4.5285714 81.825843,4.1428571 82.213483,3.8857143 82.601124,3.6285714 83.117977,3.5 83.764045,3.5 Z" />
          <path
             style="fill-rule:nonzero"
             inkscape:connector-curvature="0"
             id="path3396"
             d="m 90.353933,12.757143 c -1.292135,0 -2.325843,-0.385714 -3.101124,-1.157143 -0.775281,-0.771429 -1.162921,-1.9285714 -1.162921,-3.3428571 0,-1.4142858 0.38764,-2.5714286 1.033707,-3.4714286 C 87.898876,3.8857143 88.803371,3.5 89.966292,3.5 c 1.162922,0 2.067416,0.3857143 2.713483,1.1571429 0.646068,0.7714285 1.033708,1.6714285 1.033708,2.9571428 l 0,0.9 -6.33146,0 c 0,1.0285714 0.258426,1.8000003 0.77528,2.4428573 0.516854,0.514286 1.162922,0.771428 2.19663,0.771428 1.033707,0 1.938202,-0.257142 2.842696,-0.642857 l 0,1.157143 C 92.679775,12.5 92.292135,12.628571 91.775281,12.628571 91.516854,12.757143 91,12.757143 90.353933,12.757143 Z M 89.966292,4.6571429 c -0.775281,0 -1.292135,0.2571428 -1.679775,0.6428571 -0.387641,0.5142857 -0.646068,1.1571429 -0.775281,1.9285714 l 4.651685,0 c 0,-0.9 -0.129213,-1.5428571 -0.516854,-1.9285714 -0.38764,-0.3857143 -0.904494,-0.6428571 -1.679775,-0.6428571 z" />
          <path
             style="fill-rule:nonzero"
             inkscape:connector-curvature="0"
             id="path3398"
             d="m 101.72472,12.628571 -0.25843,-1.285714 -0.12921,0 c -0.38764,0.514286 -0.9045,0.9 -1.29214,1.157143 -0.387637,0.257143 -1.033704,0.257143 -1.679772,0.257143 -0.904494,0 -1.550561,-0.257143 -2.067415,-0.642857 -0.516854,-0.385715 -0.775281,-1.157143 -0.775281,-1.928572 0,-1.7999997 1.421348,-2.6999997 4.393258,-2.8285711 l 1.55056,0 0,-0.6428572 c 0,-0.6428571 -0.12921,-1.1571428 -0.51685,-1.5428571 -0.25843,-0.3857143 -0.77528,-0.5142857 -1.42135,-0.5142857 -0.775281,0 -1.550562,0.2571428 -2.58427,0.6428571 L 96.55618,4.2714286 C 96.94382,4.0142857 97.460674,3.8857143 97.977528,3.7571429 98.494382,3.6285714 99.011236,3.5 99.52809,3.5 c 1.03371,0 1.80899,0.2571429 2.32584,0.7714286 0.51686,0.5142857 0.77528,1.2857143 0.77528,2.3142857 l 0,6.1714287 c 0,-0.128572 -0.90449,-0.128572 -0.90449,-0.128572 z M 98.623595,11.6 c 0.904495,0 1.550565,-0.257143 1.938205,-0.642857 0.51685,-0.514286 0.77528,-1.157143 0.77528,-1.9285716 l 0,-0.7714285 -1.42135,0 c -1.033707,0 -1.808988,0.2571428 -2.325842,0.5142857 -0.516854,0.2571428 -0.775281,0.7714285 -0.775281,1.4142854 0,0.514286 0.129213,0.9 0.38764,1.157143 C 97.460674,11.6 98.106742,11.6 98.623595,11.6 Z" />
          <path
             inkscape:connector-curvature="0"
             id="path3400"
             d="m 106.76404,3.6285714 0,5.9142857 c 0,0.7714289 0.12922,1.2857139 0.51686,1.6714289 0.38764,0.385714 0.90449,0.514285 1.55056,0.514285 0.9045,0 1.67978,-0.257142 2.06742,-0.771428 0.38764,-0.514286 0.64606,-1.2857144 0.64606,-2.4428573 l 0,-4.7571428 1.42135,0 0,9.1285711 -1.16292,0 -0.25843,-1.157143 -0.12921,0 c -0.25843,0.385715 -0.64607,0.771429 -1.16292,1.028572 -0.51685,0.257143 -1.03371,0.385714 -1.67978,0.385714 -1.0337,0 -1.9382,-0.257143 -2.45505,-0.771428 -0.51686,-0.514286 -0.77528,-1.285715 -0.77528,-2.4428576 l 0,-6.0428571 1.42134,0 0,-0.2571429 z" />
        </g>
      </g>
    </g>
  </g>
</svg>
