<?xml version="1.0" encoding="utf-8"?>
<!-- Generator: Adobe Illustrator 19.2.0, SVG Export Plug-In . SVG Version: 6.00 Build 0)  -->
<svg version="1.1" id="Layer_1" xmlns="http://www.w3.org/2000/svg" xmlns:xlink="http://www.w3.org/1999/xlink" x="0px" y="0px"
	 width="67px" height="68px" viewBox="0 0 67 68" style="enable-background:new 0 0 67 68;" xml:space="preserve">
<style type="text/css">
	.st0{fill:url(#SVGID_1_);}
	.st1{fill:url(#SVGID_2_);}
	.st2{fill:url(#SVGID_3_);}
	.st3{fill:url(#SVGID_4_);}
</style>
<g>
	<linearGradient id="SVGID_1_" gradientUnits="userSpaceOnUse" x1="2.627" y1="2.0371" x2="63.2937" y2="66.8704">
		<stop  offset="0" style="stop-color:#00B6FB"/>
		<stop  offset="1" style="stop-color:#4FB646"/>
	</linearGradient>
	<path class="st0" d="M27.1,0.3H4c-2.2,0-4,1.8-4,4v23.1c0,2.2,1.8,4,4,4h23.1c2.2,0,4-1.8,4-4V4.3C31.1,2.1,29.3,0.3,27.1,0.3z
		 M28.7,4.3v23.1c0,0.9-0.7,1.6-1.6,1.6H4c-0.9,0-1.6-0.7-1.6-1.6V4.3c0-0.9,0.7-1.6,1.6-1.6h23.1C28,2.7,28.7,3.4,28.7,4.3z"/>
	<linearGradient id="SVGID_2_" gradientUnits="userSpaceOnUse" x1="21.746" y1="-15.8532" x2="82.4127" y2="48.9801">
		<stop  offset="0" style="stop-color:#00B6FB"/>
		<stop  offset="1" style="stop-color:#4FB646"/>
	</linearGradient>
	<path class="st1" d="M62.9,0.3H39.9c-2.2,0-4,1.8-4,4v23.1c0,2.2,1.8,4,4,4h23.1c2.2,0,4-1.8,4-4V4.3C66.9,2.1,65.1,0.3,62.9,0.3z
		 M64.5,4.3v23.1c0,0.9-0.7,1.6-1.6,1.6H39.9c-0.9,0-1.6-0.7-1.6-1.6V4.3c0-0.9,0.7-1.6,1.6-1.6h23.1C63.8,2.7,64.5,3.4,64.5,4.3z"
		/>
	<linearGradient id="SVGID_3_" gradientUnits="userSpaceOnUse" x1="-15.1854" y1="18.7047" x2="45.4813" y2="83.538">
		<stop  offset="0" style="stop-color:#00B6FB"/>
		<stop  offset="1" style="stop-color:#4FB646"/>
	</linearGradient>
	<path class="st2" d="M27.1,36H4c-2.2,0-4,1.8-4,4v23.1c0,2.2,1.8,4,4,4h23.1c2.2,0,4-1.8,4-4V40C31.1,37.8,29.3,36,27.1,36z
		 M28.7,40v23.1c0,0.9-0.7,1.6-1.6,1.6H4c-0.9,0-1.6-0.7-1.6-1.6V40c0-0.9,0.7-1.6,1.6-1.6h23.1C28,38.4,28.7,39.1,28.7,40z"/>
	<linearGradient id="SVGID_4_" gradientUnits="userSpaceOnUse" x1="3.8558" y1="0.8873" x2="64.5224" y2="65.7207">
		<stop  offset="0" style="stop-color:#00B6FB"/>
		<stop  offset="1" style="stop-color:#4FB646"/>
	</linearGradient>
	<path class="st3" d="M65.7,50.5H52.6V37.4c0-0.7-0.5-1.2-1.2-1.2s-1.2,0.5-1.2,1.2v13.1H37.1c-0.7,0-1.2,0.5-1.2,1.2
		s0.5,1.2,1.2,1.2h13.1V66c0,0.7,0.5,1.2,1.2,1.2s1.2-0.5,1.2-1.2V52.9h13.1c0.7,0,1.2-0.5,1.2-1.2S66.4,50.5,65.7,50.5z"/>
</g>
</svg>
