<?xml version="1.0" encoding="utf-8"?>
<!-- Generator: Adobe Illustrator 19.2.0, SVG Export Plug-In . SVG Version: 6.00 Build 0)  -->
<svg version="1.1" id="Layer_1" xmlns="http://www.w3.org/2000/svg" xmlns:xlink="http://www.w3.org/1999/xlink" x="0px" y="0px"
	 width="120px" height="140px" viewBox="0 0 120 140" style="enable-background:new 0 0 120 140;" xml:space="preserve">
<style type="text/css">
	.st0{fill:#124AFF;}
	.st1{fill:#0C071F;}
</style>
<path class="st0" d="M60.7,36.7c8,0,14.6-4.1,14.6-9.1s-6.5-9.1-14.6-9.1c-8,0-14.6,4.1-14.6,9.1S52.7,36.7,60.7,36.7z M60.7,19.7
	c7.3,0,13.3,3.5,13.3,7.9s-5.9,7.9-13.3,7.9c-7.3,0-13.3-3.5-13.3-7.9S53.3,19.7,60.7,19.7z"/>
<path class="st0" d="M60.7,43c8.1,0,14.6-3.3,14.6-6.9h-1.2c0,3.6-6.1,5.7-13.3,5.7c-7.2,0-13.3-2.1-13.3-5.7h-1.2
	C46.2,39.7,52.6,43,60.7,43z"/>
<path class="st0" d="M60.7,49c8.1,0,14.6-3.3,14.6-6.9h-1.2c0,3.6-6.1,5.7-13.3,5.7c-7.2,0-13.3-2.1-13.3-5.7h-1.2
	C46.2,45.7,52.6,49,60.7,49z"/>
<path class="st0" d="M82.6,25.4l11.3-11.2v10.9h1.2V11.8H81.7V13h11l-11,11.3L82.6,25.4z"/>
<path class="st0" d="M39.3,54.2H28.8L40,42.8l-0.6-1l-11,11V42.1h-1.2v13.3h12.1V54.2z"/>
<path class="st0" d="M21.1,6.9v54.6h80V6.9H21.1z M99.9,60.3H22.3V8.1h77.6V60.3z"/>
<path class="st0" d="M75.7,71.2H44.1v1.2h31.5V71.2z"/>
<path class="st1" d="M32.1,115.3h-5.4l-1.1,2.6h-1.5l4.6-10.2h1.4l4.6,10.2h-1.5L32.1,115.3z M31.6,114.1l-2.2-5l-2.2,5H31.6z
	 M40.2,110c1,0,1.8,0.3,2.3,0.9c0.6,0.6,0.9,1.4,0.9,2.5v4.5H42v-4.3c0-0.8-0.2-1.3-0.5-1.7c-0.4-0.4-0.9-0.6-1.5-0.6
	c-0.8,0-1.4,0.2-1.8,0.7c-0.4,0.4-0.7,1.1-0.7,1.9v4h-1.4v-7.7h1.3v1.2c0.3-0.4,0.7-0.7,1.1-0.9C39.1,110.1,39.6,110,40.2,110z
	 M48.9,110c1.1,0,1.9,0.3,2.5,0.8c0.6,0.5,0.9,1.3,0.9,2.4v4.7h-1.3v-1c-0.2,0.4-0.6,0.6-1,0.8c-0.4,0.2-0.9,0.3-1.5,0.3
	c-0.9,0-1.6-0.2-2.1-0.6c-0.5-0.4-0.8-1-0.8-1.6c0-0.7,0.2-1.2,0.7-1.6c0.5-0.4,1.3-0.6,2.4-0.6h2.2v-0.3c0-0.6-0.2-1.1-0.5-1.4
	c-0.4-0.3-0.9-0.5-1.5-0.5c-0.5,0-0.9,0.1-1.3,0.2c-0.4,0.1-0.8,0.3-1.1,0.6l-0.6-1.1c0.4-0.3,0.9-0.6,1.4-0.7
	C47.6,110.1,48.2,110,48.9,110z M48.5,116.8c0.5,0,1-0.1,1.4-0.3c0.4-0.2,0.7-0.6,0.8-1v-1.1h-2.2c-1.2,0-1.8,0.4-1.8,1.2
	c0,0.4,0.2,0.7,0.5,0.9C47.6,116.7,48,116.8,48.5,116.8z M54.8,107h1.4v10.8h-1.4V107z M65.7,110.1l-3.8,8.5
	c-0.3,0.8-0.7,1.3-1.2,1.7c-0.4,0.3-1,0.5-1.6,0.5c-0.4,0-0.7-0.1-1.1-0.2c-0.4-0.1-0.6-0.3-0.9-0.5l0.6-1.1
	c0.4,0.4,0.9,0.6,1.4,0.6c0.3,0,0.6-0.1,0.8-0.3c0.2-0.2,0.4-0.5,0.6-0.9l0.2-0.5l-3.4-7.7h1.5l2.7,6.2l2.7-6.2H65.7z M71.6,117.4
	c-0.2,0.2-0.5,0.3-0.8,0.4c-0.3,0.1-0.6,0.1-0.9,0.1c-0.8,0-1.4-0.2-1.8-0.6c-0.4-0.4-0.6-1-0.6-1.8v-4.2h-1.3v-1.2h1.3v-1.7h1.4
	v1.7H71v1.2h-2.2v4.2c0,0.4,0.1,0.7,0.3,1c0.2,0.2,0.5,0.3,0.9,0.3c0.4,0,0.8-0.1,1.1-0.4L71.6,117.4z M73.3,110.1h1.4v7.7h-1.4
	V110.1z M74,108.6c-0.3,0-0.5-0.1-0.7-0.3c-0.2-0.2-0.3-0.4-0.3-0.6c0-0.3,0.1-0.5,0.3-0.6c0.2-0.2,0.4-0.3,0.7-0.3s0.5,0.1,0.7,0.3
	c0.2,0.2,0.3,0.4,0.3,0.6c0,0.3-0.1,0.5-0.3,0.7C74.5,108.5,74.2,108.6,74,108.6z M80.7,117.9c-0.8,0-1.5-0.2-2.1-0.5
	c-0.6-0.3-1.1-0.8-1.4-1.4c-0.4-0.6-0.5-1.3-0.5-2c0-0.8,0.2-1.4,0.5-2c0.4-0.6,0.8-1.1,1.4-1.4c0.6-0.3,1.3-0.5,2.1-0.5
	c0.7,0,1.3,0.1,1.9,0.4c0.6,0.3,1,0.7,1.3,1.2l-1.1,0.7c-0.2-0.4-0.5-0.6-0.9-0.8c-0.4-0.2-0.8-0.3-1.2-0.3c-0.5,0-1,0.1-1.4,0.3
	c-0.4,0.2-0.7,0.5-0.9,1c-0.2,0.4-0.3,0.9-0.3,1.4c0,0.5,0.1,1,0.3,1.4c0.2,0.4,0.6,0.7,0.9,0.9c0.4,0.2,0.9,0.3,1.4,0.3
	c0.4,0,0.8-0.1,1.2-0.3c0.4-0.2,0.7-0.5,0.9-0.8l1.1,0.7c-0.3,0.5-0.7,0.9-1.3,1.2C82,117.8,81.4,117.9,80.7,117.9z M88.5,110
	c1.1,0,1.9,0.3,2.5,0.8c0.6,0.5,0.9,1.3,0.9,2.4v4.7h-1.3v-1c-0.2,0.4-0.6,0.6-1,0.8c-0.4,0.2-0.9,0.3-1.5,0.3
	c-0.9,0-1.6-0.2-2.1-0.6c-0.5-0.4-0.8-1-0.8-1.6c0-0.7,0.2-1.2,0.7-1.6c0.5-0.4,1.3-0.6,2.4-0.6h2.2v-0.3c0-0.6-0.2-1.1-0.5-1.4
	c-0.4-0.3-0.9-0.5-1.5-0.5c-0.5,0-0.9,0.1-1.3,0.2c-0.4,0.1-0.8,0.3-1.1,0.6l-0.6-1.1c0.4-0.3,0.9-0.6,1.4-0.7
	C87.3,110.1,87.9,110,88.5,110z M88.2,116.8c0.5,0,1-0.1,1.4-0.3c0.4-0.2,0.7-0.6,0.8-1v-1.1h-2.2c-1.2,0-1.8,0.4-1.8,1.2
	c0,0.4,0.2,0.7,0.5,0.9C87.2,116.7,87.6,116.8,88.2,116.8z M94.4,107h1.4v10.8h-1.4V107z M32.6,125.6c1.3,0,2.4,0.3,3.1,1
	c0.8,0.6,1.1,1.5,1.1,2.6s-0.4,2-1.1,2.6c-0.8,0.6-1.8,0.9-3.1,0.9h-2.5v3.1h-1.5v-10.2H32.6z M32.6,131.5c0.9,0,1.6-0.2,2.1-0.6
	c0.5-0.4,0.7-1,0.7-1.7c0-0.7-0.2-1.3-0.7-1.7c-0.5-0.4-1.2-0.6-2.1-0.6h-2.5v4.6H32.6z M40.1,129.4c0.2-0.4,0.6-0.8,1.1-1
	c0.5-0.2,1.1-0.4,1.7-0.4v1.4c-0.1,0-0.2,0-0.3,0c-0.8,0-1.4,0.2-1.8,0.7c-0.4,0.4-0.6,1.1-0.6,1.9v3.9h-1.4v-7.7h1.3V129.4z
	 M47.8,135.9c-0.8,0-1.5-0.2-2.1-0.5s-1.1-0.8-1.4-1.4c-0.3-0.6-0.5-1.3-0.5-2c0-0.8,0.2-1.4,0.5-2c0.4-0.6,0.8-1.1,1.4-1.4
	c0.6-0.3,1.3-0.5,2.1-0.5s1.5,0.2,2.1,0.5c0.6,0.3,1.1,0.8,1.4,1.4c0.4,0.6,0.5,1.3,0.5,2c0,0.8-0.2,1.4-0.5,2
	c-0.3,0.6-0.8,1.1-1.4,1.4C49.3,135.8,48.6,135.9,47.8,135.9z M47.8,134.7c0.5,0,0.9-0.1,1.3-0.3c0.4-0.2,0.7-0.6,0.9-1
	c0.2-0.4,0.3-0.9,0.3-1.4c0-0.5-0.1-1-0.3-1.4c-0.2-0.4-0.5-0.7-0.9-1c-0.4-0.2-0.8-0.3-1.3-0.3c-0.5,0-0.9,0.1-1.3,0.3
	c-0.4,0.2-0.7,0.5-0.9,1c-0.2,0.4-0.3,0.9-0.3,1.4c0,0.5,0.1,1,0.3,1.4c0.2,0.4,0.5,0.7,0.9,1C46.9,134.6,47.3,134.7,47.8,134.7z
	 M61.1,125v10.8h-1.3v-1.2c-0.3,0.4-0.7,0.8-1.2,1c-0.5,0.2-1,0.3-1.6,0.3c-0.7,0-1.4-0.2-2-0.5c-0.6-0.3-1.1-0.8-1.4-1.4
	c-0.3-0.6-0.5-1.3-0.5-2.1c0-0.8,0.2-1.5,0.5-2.1c0.3-0.6,0.8-1.1,1.4-1.4c0.6-0.3,1.3-0.5,2-0.5c0.6,0,1.1,0.1,1.5,0.3
	c0.5,0.2,0.9,0.5,1.2,0.9V125H61.1z M57.1,134.7c0.5,0,0.9-0.1,1.3-0.3c0.4-0.2,0.7-0.6,0.9-1c0.2-0.4,0.3-0.9,0.3-1.4
	c0-0.5-0.1-1-0.3-1.4c-0.2-0.4-0.5-0.7-0.9-1s-0.8-0.3-1.3-0.3c-0.5,0-0.9,0.1-1.3,0.3c-0.4,0.2-0.7,0.5-0.9,1
	c-0.2,0.4-0.3,0.9-0.3,1.4c0,0.5,0.1,1,0.3,1.4c0.2,0.4,0.5,0.7,0.9,1C56.2,134.6,56.6,134.7,57.1,134.7z M71,128.1v7.7h-1.3v-1.2
	c-0.3,0.4-0.7,0.7-1.1,0.9c-0.5,0.2-1,0.3-1.5,0.3c-1,0-1.8-0.3-2.4-0.8c-0.6-0.6-0.9-1.4-0.9-2.5v-4.5h1.4v4.3
	c0,0.8,0.2,1.3,0.5,1.7c0.4,0.4,0.9,0.6,1.5,0.6c0.7,0,1.3-0.2,1.8-0.7c0.4-0.4,0.6-1.1,0.6-1.9v-4H71z M77,135.9
	c-0.8,0-1.5-0.2-2.1-0.5c-0.6-0.3-1.1-0.8-1.4-1.4c-0.4-0.6-0.5-1.3-0.5-2c0-0.8,0.2-1.4,0.5-2c0.4-0.6,0.8-1.1,1.4-1.4
	c0.6-0.3,1.3-0.5,2.1-0.5c0.7,0,1.3,0.1,1.9,0.4c0.6,0.3,1,0.7,1.3,1.2l-1.1,0.7c-0.2-0.4-0.5-0.6-0.9-0.8c-0.4-0.2-0.8-0.3-1.2-0.3
	c-0.5,0-1,0.1-1.4,0.3c-0.4,0.2-0.7,0.5-0.9,1c-0.2,0.4-0.3,0.9-0.3,1.4c0,0.5,0.1,1,0.3,1.4c0.2,0.4,0.6,0.7,0.9,0.9
	c0.4,0.2,0.9,0.3,1.4,0.3c0.4,0,0.8-0.1,1.2-0.3c0.4-0.2,0.7-0.5,0.9-0.8l1.1,0.7c-0.3,0.5-0.7,0.9-1.3,1.2
	C78.3,135.8,77.7,135.9,77,135.9z M86.4,135.4c-0.2,0.2-0.5,0.3-0.8,0.4c-0.3,0.1-0.6,0.1-0.9,0.1c-0.8,0-1.4-0.2-1.8-0.6
	c-0.4-0.4-0.6-1-0.6-1.8v-4.2H81v-1.2h1.3v-1.7h1.4v1.7h2.2v1.2h-2.2v4.2c0,0.4,0.1,0.7,0.3,1c0.2,0.2,0.5,0.3,0.9,0.3
	c0.4,0,0.8-0.1,1.1-0.4L86.4,135.4z M90.3,135.9c-0.6,0-1.2-0.1-1.8-0.2c-0.6-0.2-1-0.4-1.4-0.7l0.6-1.1c0.3,0.2,0.8,0.4,1.2,0.6
	s1,0.2,1.5,0.2c1.2,0,1.8-0.3,1.8-1.1c0-0.2-0.1-0.4-0.2-0.6c-0.2-0.1-0.4-0.2-0.6-0.3c-0.2-0.1-0.6-0.1-1.1-0.2
	c-0.6-0.1-1.1-0.2-1.5-0.3c-0.4-0.1-0.7-0.3-1-0.6c-0.3-0.3-0.4-0.7-0.4-1.3c0-0.7,0.3-1.3,0.9-1.7c0.6-0.4,1.4-0.6,2.4-0.6
	c0.5,0,1,0.1,1.5,0.2c0.5,0.1,0.9,0.3,1.3,0.5l-0.6,1.1c-0.6-0.4-1.4-0.6-2.2-0.6c-0.6,0-1,0.1-1.4,0.3c-0.3,0.2-0.5,0.5-0.5,0.8
	c0,0.3,0.1,0.5,0.3,0.6c0.2,0.1,0.4,0.3,0.6,0.3c0.3,0.1,0.6,0.1,1.1,0.2c0.6,0.1,1.1,0.2,1.5,0.4c0.4,0.1,0.7,0.3,1,0.6
	c0.3,0.3,0.4,0.7,0.4,1.2c0,0.7-0.3,1.3-0.9,1.7C92.2,135.7,91.4,135.9,90.3,135.9z"/>
</svg>
