<svg width="74" height="74" viewBox="0 0 74 74" fill="none" xmlns="http://www.w3.org/2000/svg">
<path fill-rule="evenodd" clip-rule="evenodd" d="M66.0265 0H7.9735C3.57658 0 0 3.57658 0 7.9735V66.0265C0 70.4229 3.57658 74 7.9735 74H66.0265C70.4229 74 74 70.4229 74 66.0265V7.9735C74 3.57658 70.4229 0 66.0265 0ZM69.6641 66.0265C69.6641 68.0324 68.0324 69.6641 66.0265 69.6641H7.9735C5.96756 69.6641 4.33594 68.0324 4.33594 66.0265V7.9735C4.33594 5.96756 5.96756 4.33594 7.9735 4.33594H66.0265C68.0324 4.33594 69.6641 5.96756 69.6641 7.9735V66.0265ZM15.7355 17.0365C17.7093 17.0365 18.0808 18.2442 18.1508 19.3355C18.1739 20.0553 18.8469 20.2874 19.6599 20.2874C20.6586 20.2874 21.1696 20.009 21.1696 18.8477C21.1696 16.0609 18.8237 14.3887 15.6192 14.3887C12.6699 14.3887 10.2778 15.8283 10.2778 19.707V26.186C10.2778 30.0641 12.6467 31.5038 15.7124 31.5038C18.7775 31.5038 21.1696 30.0641 21.1696 26.186V23.4224C21.1696 22.9115 20.8212 22.4469 20.2177 22.4469H16.2696C15.6661 22.4469 15.3409 23.0509 15.3409 23.6313C15.3409 24.2354 15.6661 24.8158 16.2696 24.8158H18.1508V26.186C18.1508 27.9972 17.222 28.8565 15.7124 28.8565C14.1796 28.8565 13.2971 27.9972 13.2971 26.186V19.7064C13.2971 17.8958 14.1796 17.0365 15.7355 17.0365ZM25.8827 15.3184C25.8827 14.668 26.6257 14.3896 27.3918 14.3896C28.1353 14.3896 28.9015 14.668 28.9015 15.3184V30.4129C28.9015 31.0401 28.1353 31.3653 27.3918 31.3653C26.6262 31.3653 25.8827 31.0401 25.8827 30.4129V15.3184ZM43.4387 14.3896H35.3336C34.6606 14.3896 34.0103 14.7143 34.0103 15.3415V30.4129C34.0103 31.0401 34.7532 31.3653 35.5194 31.3653C36.2629 31.3653 37.029 31.0401 37.029 30.4129V24.0501H40.5819C41.2323 24.0501 41.5106 23.4229 41.5106 22.8888C41.5106 22.2621 41.1854 21.6817 40.5819 21.6817H37.029V17.0369H43.4387C44.0422 17.0369 44.3674 16.4097 44.3674 15.6899C44.3674 15.0632 44.0885 14.3896 43.4387 14.3896ZM59.443 38.4955C59.443 40.316 57.9672 41.7919 56.1469 41.7919C54.326 41.7919 52.85 40.316 52.85 38.4955C52.85 36.6752 54.3261 35.1992 56.1469 35.1992C57.9671 35.1992 59.443 36.6751 59.443 38.4955ZM36.3194 38.0083H49.0041C49.3374 38.0083 49.6075 37.7381 49.6075 37.4048C49.6075 37.0715 49.3374 36.8013 49.0041 36.8013H36.3194C35.9861 36.8013 35.7159 37.0715 35.7159 37.4048C35.7159 37.7381 35.9861 38.0083 36.3194 38.0083ZM24.975 43.9091H37.6595C37.9929 43.9091 38.263 43.6389 38.263 43.3056C38.263 42.9723 37.9929 42.7021 37.6595 42.7021H24.975C24.6417 42.7021 24.3715 42.9723 24.3715 43.3056C24.3715 43.6389 24.6417 43.9091 24.975 43.9091ZM28.9837 50.7217C28.6504 50.7217 28.3802 50.4514 28.3802 50.1181C28.3802 49.7848 28.6504 49.5146 28.9837 49.5146H41.6683C42.0016 49.5146 42.2718 49.7848 42.2718 50.1181C42.2718 50.4514 42.0016 50.7217 41.6683 50.7217H28.9837ZM35.6396 57.1323H24.2424C23.9091 57.1323 23.6389 57.4024 23.6389 57.7357C23.6389 58.0691 23.9091 58.3393 24.2424 58.3393H35.6396C35.9729 58.3393 36.2431 58.0691 36.2431 57.7357C36.2431 57.4024 35.9729 57.1323 35.6396 57.1323ZM61.569 40.8426C59.6762 43.4938 57.1417 43.8008 54.4143 42.1817C54.322 42.127 54.0721 41.9874 53.8216 41.8474C53.5682 41.7058 53.3143 41.564 53.2225 41.5094C48.835 38.9048 44.4526 39.9262 41.5136 44.042C40.2648 45.7925 43.1533 47.4517 44.3882 45.7216C45.9067 43.5951 47.8375 42.9798 49.9492 43.6534C48.868 45.5302 47.9226 47.3957 46.5887 50.046C45.2544 52.6964 42.3085 54.8129 39.4779 53.1575C37.4355 51.9637 35.5936 54.8979 37.6299 56.088C41.4944 58.3465 46.0255 56.9597 48.3386 54.0238C48.4189 54.0667 48.5036 54.1054 48.5967 54.1379C50.4863 54.7963 52.9634 56.5491 53.7182 57.1703C54.2944 57.6447 55.1865 59.6022 55.9189 61.2091C56.1456 61.7065 56.357 62.1703 56.539 62.5461C57.473 64.4755 60.4891 63.0703 59.5517 61.1327C59.3753 60.7679 59.1746 60.3297 58.9573 59.8551L58.9572 59.8549L58.9572 59.8549C58.0998 57.9824 56.9832 55.5439 56.0717 54.8172C55.1552 54.0866 53.3758 52.7269 51.8667 51.9555C52.8877 49.9778 53.9508 48.0215 55.0699 46.099C58.6372 47.192 62.0279 45.9045 64.4427 42.5218C65.6926 40.7715 62.8048 39.1123 61.569 40.8426Z" fill="#3F58BA"/>
</svg>
