<svg width="70" height="70" viewBox="0 0 70 70" fill="none" xmlns="http://www.w3.org/2000/svg">
<path fill-rule="evenodd" clip-rule="evenodd" d="M41.2467 58.8533C49.8707 54.7058 55.8892 45.5845 55.8892 35C55.8892 24.4133 49.8733 15.2942 41.2467 11.1467C52.6571 12.2835 61.6199 22.5438 61.6199 35C61.6199 47.4585 52.6571 57.7165 41.2467 58.8533M8.38044 35C8.38044 21.7837 18.4639 11.0326 30.86 11.0326C43.2587 11.0326 53.3422 21.7837 53.3422 35C53.3422 48.2163 43.2587 58.9674 30.86 58.9674C18.4639 58.9674 8.38044 48.2163 8.38044 35M39.1377 8.75H31.2497C31.2192 8.75 31.1937 8.7637 31.1632 8.76598C31.0613 8.7637 30.9619 8.75 30.8601 8.75C17.0606 8.75 5.8335 20.526 5.8335 35C5.8335 49.474 17.0606 61.25 30.8601 61.25H39.1377C52.9398 61.25 64.1668 49.474 64.1668 35C64.1668 20.526 52.9398 8.75 39.1377 8.75M25.6093 23.4112V35.6642C27.5017 35.7806 29.2005 35.8583 31.1387 35.8583C37.2999 35.8583 40.504 33.2447 40.504 29.4989C40.504 25.9472 37.8831 23.3336 31.48 23.3336C29.9748 23.3336 27.2113 23.3724 25.6093 23.4112V23.4112ZM22.94 48.6957V21.382C24.8324 21.382 29.2973 21.3044 31.2381 21.3044C40.6491 21.3044 43.3158 25.4792 43.3158 29.5377C43.3158 33.7902 39.6788 37.8875 31.2381 37.8875C29.636 37.8875 27.5501 37.8487 25.6093 37.7323V48.6957H22.94Z" fill="url(#paint0_linear)"/>
<defs>
<linearGradient id="paint0_linear" x1="-1.52123" y1="35.1302" x2="31.296" y2="71.5938" gradientUnits="userSpaceOnUse">
<stop stop-color="#20D0EE"/>
<stop offset="0.981733" stop-color="#15E186"/>
</linearGradient>
</defs>
</svg>
