<?xml version="1.0" encoding="utf-8"?>
<!-- Generator: Adobe Illustrator 19.2.0, SVG Export Plug-In . SVG Version: 6.00 Build 0)  -->
<svg version="1.1" id="Layer_1" xmlns="http://www.w3.org/2000/svg" xmlns:xlink="http://www.w3.org/1999/xlink" x="0px" y="0px"
	 width="120px" height="140px" viewBox="0 0 120 140" style="enable-background:new 0 0 120 140;" xml:space="preserve">
<style type="text/css">
	.st0{fill:#0C071F;}
	.st1{fill:#124AFF;}
</style>
<path class="st0" d="M39.7,117.4c-1,0-1.9-0.2-2.8-0.7c-0.8-0.5-1.5-1.1-1.9-1.9c-0.5-0.8-0.7-1.7-0.7-2.7s0.2-1.9,0.7-2.7
	c0.5-0.8,1.1-1.4,1.9-1.9c0.8-0.5,1.8-0.7,2.8-0.7c0.8,0,1.5,0.1,2.2,0.4c0.7,0.3,1.2,0.7,1.7,1.2l-0.9,0.9
	c-0.8-0.8-1.7-1.2-2.9-1.2c-0.8,0-1.4,0.2-2.1,0.5c-0.6,0.3-1.1,0.8-1.4,1.4c-0.3,0.6-0.5,1.3-0.5,2c0,0.7,0.2,1.4,0.5,2
	c0.4,0.6,0.8,1.1,1.4,1.4c0.6,0.3,1.3,0.5,2.1,0.5c1.1,0,2.1-0.4,2.9-1.2l0.9,0.9c-0.5,0.5-1,0.9-1.7,1.2
	C41.2,117.3,40.5,117.4,39.7,117.4z M48.2,109.5c1.1,0,1.9,0.3,2.5,0.8c0.6,0.5,0.9,1.3,0.9,2.4v4.7h-1.3v-1c-0.2,0.4-0.6,0.6-1,0.8
	c-0.4,0.2-0.9,0.3-1.5,0.3c-0.9,0-1.6-0.2-2.1-0.6c-0.5-0.4-0.8-1-0.8-1.7c0-0.7,0.2-1.2,0.7-1.6c0.5-0.4,1.3-0.6,2.4-0.6h2.2v-0.3
	c0-0.6-0.2-1.1-0.5-1.4c-0.4-0.3-0.9-0.5-1.5-0.5c-0.5,0-0.9,0.1-1.3,0.2c-0.4,0.1-0.8,0.3-1.1,0.6l-0.6-1.1
	c0.4-0.3,0.9-0.6,1.4-0.7C46.9,109.6,47.5,109.5,48.2,109.5z M47.8,116.3c0.5,0,1-0.1,1.4-0.4c0.4-0.2,0.7-0.6,0.8-1v-1.1h-2.2
	c-1.2,0-1.8,0.4-1.8,1.2c0,0.4,0.2,0.7,0.5,0.9C46.9,116.2,47.3,116.3,47.8,116.3z M58.2,109.5c0.7,0,1.4,0.2,2,0.5
	c0.6,0.3,1.1,0.8,1.4,1.4c0.3,0.6,0.5,1.3,0.5,2.1s-0.2,1.5-0.5,2.1c-0.3,0.6-0.8,1.1-1.4,1.4c-0.6,0.3-1.3,0.5-2,0.5
	c-0.6,0-1.1-0.1-1.5-0.3c-0.5-0.2-0.8-0.5-1.2-0.9v4h-1.4v-10.6h1.3v1.2c0.3-0.4,0.7-0.7,1.2-1C57.1,109.6,57.6,109.5,58.2,109.5z
	 M58,116.2c0.5,0,0.9-0.1,1.3-0.3c0.4-0.2,0.7-0.6,0.9-1c0.2-0.4,0.4-0.9,0.4-1.4s-0.1-1-0.4-1.4c-0.2-0.4-0.5-0.7-0.9-1
	c-0.4-0.2-0.8-0.3-1.3-0.3c-0.5,0-0.9,0.1-1.3,0.4c-0.4,0.2-0.7,0.5-0.9,0.9c-0.2,0.4-0.3,0.9-0.3,1.4s0.1,1,0.3,1.4
	c0.2,0.4,0.5,0.7,0.9,1C57.1,116.1,57.6,116.2,58,116.2z M64,109.6h1.4v7.7H64V109.6z M64.7,108.1c-0.3,0-0.5-0.1-0.7-0.3
	c-0.2-0.2-0.3-0.4-0.3-0.6c0-0.3,0.1-0.5,0.3-0.6c0.2-0.2,0.4-0.3,0.7-0.3s0.5,0.1,0.7,0.3c0.2,0.2,0.3,0.4,0.3,0.6
	c0,0.3-0.1,0.5-0.3,0.7C65.2,108,65,108.1,64.7,108.1z M72.4,116.9c-0.2,0.2-0.5,0.3-0.8,0.4c-0.3,0.1-0.6,0.1-0.9,0.1
	c-0.8,0-1.4-0.2-1.8-0.6c-0.4-0.4-0.6-1-0.6-1.8v-4.2H67v-1.2h1.3v-1.7h1.4v1.7h2.2v1.2h-2.2v4.2c0,0.4,0.1,0.7,0.3,1
	c0.2,0.2,0.5,0.3,0.9,0.3c0.4,0,0.8-0.1,1.1-0.4L72.4,116.9z M77,109.5c1.1,0,1.9,0.3,2.5,0.8c0.6,0.5,0.9,1.3,0.9,2.4v4.7h-1.3v-1
	c-0.2,0.4-0.6,0.6-1,0.8c-0.4,0.2-0.9,0.3-1.5,0.3c-0.9,0-1.6-0.2-2.1-0.6c-0.5-0.4-0.8-1-0.8-1.7c0-0.7,0.2-1.2,0.7-1.6
	c0.5-0.4,1.3-0.6,2.4-0.6h2.2v-0.3c0-0.6-0.2-1.1-0.5-1.4c-0.4-0.3-0.9-0.5-1.5-0.5c-0.5,0-0.9,0.1-1.3,0.2
	c-0.4,0.1-0.8,0.3-1.1,0.6l-0.6-1.1c0.4-0.3,0.9-0.6,1.4-0.7C75.7,109.6,76.3,109.5,77,109.5z M76.6,116.3c0.5,0,1-0.1,1.4-0.4
	c0.4-0.2,0.7-0.6,0.8-1v-1.1h-2.2c-1.2,0-1.8,0.4-1.8,1.2c0,0.4,0.2,0.7,0.5,0.9C75.7,116.2,76.1,116.3,76.6,116.3z M82.9,106.5h1.4
	v10.8h-1.4V106.5z"/>
<path class="st1" d="M89.9,25.7H30.5c-3.6,0-6.5,2.9-6.5,6.5v37.1c0,3.6,2.9,6.5,6.5,6.5h59.2c3.6,0,6.5-2.9,6.5-6.5V32.3
	C96.4,28.6,93.4,25.7,89.9,25.7z M30.5,26.9h59.2c2.9,0,5.3,2.4,5.3,5.3v8.1L66,51.1v-5.5c0-1.3-1.1-2.4-2.4-2.4h-6.9
	c-1.3,0-2.4,1.1-2.4,2.4v5.5L25.1,40.4v-8.1C25.2,29.4,27.6,26.9,30.5,26.9z M64.9,45.6v12.6c0,0.7-0.5,1.2-1.2,1.2h-6.9
	c-0.7,0-1.2-0.5-1.2-1.2V45.6c0-0.7,0.5-1.2,1.2-1.2h6.9C64.3,44.4,64.9,44.9,64.9,45.6z M89.9,74.7H30.5c-2.9,0-5.3-2.4-5.3-5.3
	V41.6l29.1,10.7v5.8c0,1.3,1.1,2.4,2.4,2.4h6.9c1.3,0,2.4-1.1,2.4-2.4v-5.8l29.1-10.7v27.8C95.2,72.3,92.8,74.7,89.9,74.7z"/>
<path class="st1" d="M51.2,21c0-1.3,1.1-2.4,2.4-2.4h13.3c1.3,0,2.4,1.1,2.4,2.4v4.7h1.2V21c0-1.9-1.6-3.6-3.6-3.6H53.6
	c-1.9,0-3.6,1.6-3.6,3.6v4.7h1.2V21z"/>
</svg>
