<svg width="70" height="70" viewBox="0 0 70 70" fill="none" xmlns="http://www.w3.org/2000/svg">
<path fill-rule="evenodd" clip-rule="evenodd" d="M11.5 17H57.5C60.6756 17 63.25 19.5371 63.25 22.6667V48.1667C63.25 51.2963 60.6756 53.8333 57.5 53.8333H11.5C8.32436 53.8333 5.75 51.2963 5.75 48.1667V22.6667C5.75 19.5371 8.32436 17 11.5 17ZM8.625 22.4306C8.625 20.9961 9.91218 19.8333 11.5 19.8333H57.5C59.0878 19.8333 60.375 20.9961 60.375 22.4306V48.4028C60.375 49.8372 59.0878 51 57.5 51H11.5C9.91218 51 8.625 49.8372 8.625 48.4028V22.4306ZM54.625 25.5H37.375V28.3333H54.625V25.5ZM54.625 34H37.375V36.8333H54.625V34ZM37.375 42.5H46V45.3333H37.375V42.5ZM15.8125 31.1667C15.8125 33.3203 16.7878 35.2495 18.3269 36.5487C15.1228 38.2075 12.9375 41.5189 12.9375 45.3333H15.8125C15.8125 41.4226 19.0284 38.252 22.9962 38.25H23H23.0038C26.9716 38.252 30.1875 41.4226 30.1875 45.3333H33.0625C33.0625 41.5189 30.8772 38.2075 27.6731 36.5487C29.2122 35.2495 30.1875 33.3203 30.1875 31.1667C30.1875 27.2546 26.9695 24.0833 23 24.0833C19.0305 24.0833 15.8125 27.2546 15.8125 31.1667ZM27.3125 31.1667C27.3125 33.5139 25.3817 35.4167 23 35.4167C20.6183 35.4167 18.6875 33.5139 18.6875 31.1667C18.6875 28.8195 20.6183 26.9167 23 26.9167C25.3817 26.9167 27.3125 28.8195 27.3125 31.1667Z" fill="url(#paint0_linear)"/>
<defs>
<linearGradient id="paint0_linear" x1="-1.49966" y1="35.508" x2="19.5317" y2="68.3398" gradientUnits="userSpaceOnUse">
<stop stop-color="#20D0EE"/>
<stop offset="0.981733" stop-color="#15E186"/>
</linearGradient>
</defs>
</svg>
