<svg width="214" height="65" viewBox="0 0 214 65" fill="none" xmlns="http://www.w3.org/2000/svg">
<path d="M27.4538 49.32L27.7846 40.8267H29.1077C30.4308 40.8267 31.7538 39.52 31.7538 38.2133L33.4077 20.2467C33.4077 17.96 31.7538 16 29.4385 16H14.2231C11.9077 16 10.2538 17.96 10.2538 20.2467L11.5769 38.2133C11.5769 39.8467 12.9 40.8267 14.2231 40.8267H15.5462L15.8769 49.32C7.60769 49.9733 0 52.5867 0 57.16C0 62.7133 10.9154 65 21.5 65C31.7538 65 43 62.3867 43 57.16C43 52.5867 35.7231 50.3 27.4538 49.32ZM4.63077 57.16C4.63077 56.18 8.93077 54.22 16.5385 53.5667L16.8692 56.8333C16.8692 58.4667 17.5308 60.1 18.8538 61.08C9.92308 60.4267 4.96154 58.14 4.63077 57.16ZM25.1385 60.7533C26.4615 59.7733 27.1231 58.4667 27.1231 56.5067L27.4538 53.24C34.7308 53.8933 38.7 55.8533 39.0308 56.8333C38.3692 58.14 33.7385 60.4267 25.1385 60.7533Z" fill="url(#paint0_linear)"/>
<path d="M22.5 15C26.6421 15 30 11.6421 30 7.5C30 3.35786 26.6421 0 22.5 0C18.3579 0 15 3.35786 15 7.5C15 11.6421 18.3579 15 22.5 15Z" fill="url(#paint1_linear)"/>
<path d="M74.2011 43.9701C72.8192 44.7993 71.1609 45.0757 69.2262 45.0757C65.9096 45.0757 63.1458 43.9701 61.2112 41.4827C59.0001 39.2717 57.8946 36.2315 57.8946 32.9149C57.8946 29.3219 59.0001 26.5581 61.2112 24.347C63.4222 22.136 66.186 20.7541 69.5026 20.7541C72.8192 20.7541 75.8594 22.136 78.8996 24.8998L81.1106 22.4124C79.4524 20.7541 77.7941 19.6485 76.1358 18.8194C74.4775 17.9902 72.2664 17.7139 69.779 17.7139C65.6333 17.7139 62.0403 19.0958 59.0001 22.136C56.2363 25.1762 54.8544 28.7691 54.8544 32.9149C54.8544 37.337 56.2363 40.9299 59.0001 43.6938C61.7639 46.734 65.3569 48.1159 69.5026 48.1159C71.99 48.1159 74.2011 47.5631 76.1358 46.734C78.0704 45.9048 79.7287 44.5229 81.387 42.8646L78.6232 40.9299C77.2413 42.3119 75.583 43.4174 74.2011 43.9701Z" fill="url(#paint2_linear)"/>
<path d="M96.8643 25.4516C93.5478 25.4516 91.0603 26.8335 89.402 29.5974V16.8838H86.0854V47.5622H89.402V35.125C89.402 33.1903 89.9548 31.532 91.3367 30.1501C92.7186 28.7682 94.1005 28.2154 96.0352 28.2154C97.9699 28.2154 99.3518 28.7682 100.457 29.8737C101.563 30.9793 102.116 32.6376 102.116 34.5722V47.2858H105.432V33.7431C105.432 30.9793 104.603 29.0446 103.221 27.3863C101.563 26.2808 99.3518 25.4516 96.8643 25.4516Z" fill="url(#paint3_linear)"/>
<path d="M115.935 17.437H112.342V21.03H115.935V17.437Z" fill="url(#paint4_linear)"/>
<path d="M115.658 26.0054H112.342V47.8395H115.658V26.0054Z" fill="url(#paint5_linear)"/>
<path d="M148.271 25.4521C144.955 25.4521 142.467 26.8341 140.533 29.8743C139.151 27.1104 136.663 25.4521 133.623 25.4521C130.859 25.4521 128.372 26.8341 126.714 29.5979V26.0049H123.397V47.8391H126.714V35.4019C126.714 33.4672 127.266 31.8089 128.372 30.427C129.477 29.0451 130.859 28.4923 132.794 28.4923C134.452 28.4923 135.834 29.0451 136.94 30.1506C138.045 31.2562 138.322 32.9145 138.322 34.8491V47.5627H141.638V35.1255C141.638 32.9145 142.191 31.5326 143.297 30.1506C144.402 29.0451 145.784 28.216 147.719 28.216C149.377 28.216 150.759 28.7687 151.864 29.8743C152.97 30.9798 153.246 32.6381 153.246 34.8491V47.5627H156.563V34.02C156.563 31.2562 155.734 29.3215 154.352 27.6632C152.694 26.2813 150.759 25.4521 148.271 25.4521Z" fill="url(#paint6_linear)"/>
<path d="M172.317 25.4521C169.276 25.4521 166.789 26.5577 164.854 28.7687C162.92 30.9798 161.814 33.7436 161.814 36.7838C161.814 40.1004 162.92 42.8642 164.854 45.0753C167.065 47.2863 169.553 48.3918 172.593 48.3918C176.186 48.3918 179.226 47.0099 181.437 44.2461L179.503 42.3114C177.568 44.2461 175.357 45.3516 172.593 45.3516C170.658 45.3516 169 44.7989 167.342 43.417C165.683 42.0351 165.131 40.3768 164.854 38.1657H182.266C182.266 37.8893 182.266 37.3366 182.266 37.0602C182.266 33.7436 181.437 30.9798 179.503 28.7687C178.121 26.5577 175.633 25.4521 172.317 25.4521ZM165.131 35.4019C165.407 33.1908 166.236 31.5326 167.342 30.1506C168.447 28.7687 170.382 28.216 172.04 28.216C173.975 28.216 175.633 29.0451 177.015 30.427C178.121 31.8089 178.95 33.4672 179.226 35.6783H165.131V35.4019Z" fill="url(#paint7_linear)"/>
<path d="M210.457 18.2661V41.7586L191.94 18.2661H188.9V47.5626H191.94V23.5174L211.01 47.5626H213.774V18.2661H210.457Z" fill="url(#paint8_linear)"/>
<defs>
<linearGradient id="paint0_linear" x1="246.828" y1="80.6339" x2="-5.45704" y2="34.3402" gradientUnits="userSpaceOnUse">
<stop stop-color="#2AAFC0"/>
<stop offset="1" stop-color="#5074C6"/>
</linearGradient>
<linearGradient id="paint1_linear" x1="249.722" y1="48.8449" x2="0.808791" y2="3.7363" gradientUnits="userSpaceOnUse">
<stop stop-color="#2AAFC0"/>
<stop offset="1" stop-color="#5074C6"/>
</linearGradient>
<linearGradient id="paint2_linear" x1="212.566" y1="58.8785" x2="1.59504" y2="20.6455" gradientUnits="userSpaceOnUse">
<stop stop-color="#2AAFC0"/>
<stop offset="1" stop-color="#5074C6"/>
</linearGradient>
<linearGradient id="paint3_linear" x1="213.266" y1="55.0192" x2="2.29416" y2="16.7865" gradientUnits="userSpaceOnUse">
<stop stop-color="#2AAFC0"/>
<stop offset="1" stop-color="#5074C6"/>
</linearGradient>
<linearGradient id="paint4_linear" x1="216.375" y1="37.8613" x2="5.40379" y2="-0.371396" gradientUnits="userSpaceOnUse">
<stop stop-color="#2AAFC0"/>
<stop offset="1" stop-color="#5074C6"/>
</linearGradient>
<linearGradient id="paint5_linear" x1="213.313" y1="54.7593" x2="2.34127" y2="16.5264" gradientUnits="userSpaceOnUse">
<stop stop-color="#2AAFC0"/>
<stop offset="1" stop-color="#5074C6"/>
</linearGradient>
<linearGradient id="paint6_linear" x1="214.057" y1="50.6529" x2="3.08551" y2="12.4202" gradientUnits="userSpaceOnUse">
<stop stop-color="#2AAFC0"/>
<stop offset="1" stop-color="#5074C6"/>
</linearGradient>
<linearGradient id="paint7_linear" x1="215.171" y1="44.5056" x2="4.19968" y2="6.27265" gradientUnits="userSpaceOnUse">
<stop stop-color="#2AAFC0"/>
<stop offset="1" stop-color="#5074C6"/>
</linearGradient>
<linearGradient id="paint8_linear" x1="216.763" y1="35.7213" x2="5.79146" y2="-2.51151" gradientUnits="userSpaceOnUse">
<stop stop-color="#2AAFC0"/>
<stop offset="1" stop-color="#5074C6"/>
</linearGradient>
</defs>
</svg>
