<svg width="629" height="829" viewBox="0 0 629 829" fill="none" xmlns="http://www.w3.org/2000/svg">
<path opacity="0.3" d="M314.987 828.193C306.996 828.193 299.805 826.595 294.212 823.399L12.1593 660.399C7.36516 657.603 4.5686 654.007 4.5686 650.411C4.5686 646.816 7.36516 643.62 12.1593 640.823L292.215 477.824C297.808 474.628 304.999 473.03 312.989 473.03C320.979 473.03 328.17 474.628 333.763 477.824L615.816 640.823C620.61 643.62 623.407 647.215 623.407 650.811C623.407 654.407 620.61 657.603 615.816 660.399L335.761 823.399C330.168 826.595 322.977 828.193 314.987 828.193Z" fill="#A266DE"/>
<path d="M617.814 510.559C630.598 517.75 630.598 529.735 617.814 536.927L337.758 699.926C325.374 707.117 304.599 707.117 292.215 699.926L10.1617 536.927C-2.62258 529.735 -2.62258 517.75 10.1617 510.559L290.217 347.56C302.602 340.368 323.376 340.368 335.761 347.56L617.814 510.559Z" fill="white"/>
<path d="M314.987 701.124C306.996 701.124 299.805 699.526 294.212 696.33L12.1592 533.331C7.3651 530.534 4.56854 526.939 4.56854 523.343C4.56854 519.748 7.3651 516.551 12.1592 513.755L292.215 350.756C297.808 347.559 304.999 345.961 312.989 345.961C320.979 345.961 328.17 347.559 333.763 350.756L615.816 513.755C620.61 516.551 623.407 520.147 623.407 523.743C623.407 527.338 620.61 530.534 615.816 533.331L335.761 696.33C330.168 699.526 322.977 701.124 314.987 701.124Z" fill="url(#paint0_linear)"/>
<path d="M627.402 556.103C627.802 555.703 628.201 555.304 628.201 554.904V554.505C628.201 554.105 628.201 554.105 628.601 553.706C629 552.507 629 551.708 629 550.51L627.402 524.142C627.402 525.341 627.003 526.14 627.003 527.338C627.003 527.738 627.003 527.738 626.603 528.137C626.204 528.936 625.804 529.336 625.804 530.135C625.404 530.534 625.404 531.333 625.005 531.733C624.605 532.132 623.806 532.931 623.407 533.331C623.007 533.73 622.608 534.13 621.809 534.929C620.61 535.728 619.412 536.926 618.213 537.725L338.158 700.725C336.56 701.524 334.962 702.323 332.964 703.122C332.165 703.521 331.766 703.521 330.967 703.521C329.768 703.921 328.57 704.32 326.972 704.72C325.773 705.119 324.974 705.119 323.776 705.119C322.977 705.119 321.778 705.519 320.979 705.519C319.781 705.519 318.982 705.519 317.783 705.519C316.984 705.519 315.786 705.519 314.987 705.519C312.989 705.519 311.391 705.519 309.393 705.119C308.994 705.119 308.594 705.119 308.195 705.119C306.996 705.119 305.398 704.72 304.2 704.32C302.602 703.921 301.403 703.521 300.205 703.122C299.406 702.722 299.006 702.722 298.207 702.323C296.21 701.524 294.212 700.725 292.614 699.926L10.1617 536.926C3.76955 533.331 0.573486 528.537 0.573486 523.743L2.17152 550.11C2.17152 554.904 5.36758 559.698 11.7597 563.294L293.813 726.293C295.411 727.092 297.408 728.291 299.406 728.69C300.205 729.09 300.604 729.09 301.403 729.489C302.602 729.889 304.2 730.288 305.398 730.688C305.798 730.688 305.798 730.688 306.197 730.688C307.396 731.087 308.195 731.087 309.393 731.087C309.793 731.087 310.192 731.087 310.592 731.087C312.19 731.087 314.188 731.487 315.786 731.487C315.786 731.487 315.786 731.487 316.185 731.487C316.984 731.487 318.183 731.487 318.982 731.487C320.18 731.487 320.979 731.487 322.178 731.487C322.977 731.487 324.175 731.087 324.974 731.087C325.773 731.087 326.972 730.688 327.771 730.688C327.771 730.688 327.771 730.688 328.17 730.688C329.369 730.288 330.567 729.889 332.165 729.489C332.964 729.09 333.364 729.09 334.163 728.69C336.16 727.891 337.758 727.092 339.357 726.293L619.412 563.294C620.61 562.495 621.809 561.696 623.007 560.897C623.007 560.897 623.007 560.497 623.407 560.497C623.806 560.098 624.206 559.698 625.005 558.899C625.404 558.5 626.204 557.701 626.603 557.301C627.003 556.902 627.003 556.502 627.402 556.103Z" fill="#DFCBFA"/>
<path d="M312.202 11.1862C313.001 10.7867 313.401 10.7867 314.2 10.3872C314.599 10.3872 314.999 9.98771 315.398 9.98771C315.798 9.98771 316.197 9.98771 316.597 9.5882C316.996 9.5882 317.396 9.5882 318.195 9.18869C318.594 9.18869 318.594 9.18869 318.994 9.18869C319.393 9.18869 320.192 9.18869 320.592 9.18869H320.991C321.79 9.18869 322.19 9.18869 322.989 9.5882H323.388C323.788 9.5882 324.188 9.98771 324.987 9.98771H325.386C325.786 10.3872 326.585 10.3872 326.984 10.7867L310.205 1.19852C309.805 0.799017 309.406 0.799017 309.006 0.399508C309.006 0.399508 309.006 0.399508 308.607 0.399508H308.207C307.808 0.399508 307.808 0.399508 307.408 0C307.009 0 307.009 0 306.609 0H306.21C306.21 0 306.21 0 305.81 0C305.411 0 304.612 0 304.212 0H303.813C303.413 0 303.014 0 302.614 0H302.215C301.815 0 301.815 0 301.416 0C301.016 0 301.016 0 300.617 0C300.217 0 300.217 0 299.818 0C299.418 0 299.018 0 298.619 0.399508H298.219C298.219 0.399508 297.82 0.399508 297.82 0.799017C297.021 0.799017 296.621 1.19852 295.822 1.59803C295.423 1.59803 295.423 1.59803 295.023 1.99754H294.624C293.425 2.39705 292.227 3.19607 291.428 3.59557L146.007 87.4923C144.409 88.2913 143.21 89.0903 142.012 90.2889C141.612 90.2889 141.612 90.6884 141.213 90.6884C140.014 91.8869 138.816 92.6859 137.617 93.8844C137.617 93.8844 137.218 93.8844 137.218 94.284C137.218 94.284 136.818 94.6835 136.818 95.083C136.019 95.882 135.62 96.2815 135.22 97.0805C135.22 97.48 134.821 97.48 134.821 97.8795L134.421 98.279C134.022 98.6786 133.622 99.0781 133.223 99.4776C132.823 99.8771 132.823 99.8771 132.424 100.277C132.424 100.676 132.024 100.676 132.024 101.076C131.625 101.475 131.625 101.875 131.225 101.875C131.225 102.274 130.826 102.274 130.826 102.674C130.426 103.073 130.426 103.473 130.026 103.872C130.026 104.272 129.627 104.272 129.627 104.671C129.627 104.671 129.627 105.071 129.227 105.071C128.828 105.87 128.428 106.669 128.029 107.468C128.029 107.468 128.029 107.867 127.629 107.867C127.23 108.267 126.83 109.066 126.83 109.465C126.83 109.865 126.431 109.865 126.431 110.264C126.431 110.664 126.031 110.664 126.031 111.063C126.031 111.463 125.632 111.463 125.632 111.862C125.232 112.661 125.232 113.061 124.833 113.86V114.259C124.433 115.058 124.034 115.857 124.034 116.656V117.056C124.034 117.455 123.634 117.455 123.634 117.855C123.634 118.254 123.235 118.654 123.235 119.053C123.235 119.453 123.235 119.852 122.835 119.852C122.835 120.252 122.436 120.651 122.436 121.051C122.436 121.451 122.436 121.451 122.036 121.85C122.036 122.25 122.036 122.649 121.637 123.049C121.637 123.448 121.237 123.848 121.237 124.247V124.647C121.237 125.046 121.237 125.446 121.237 125.446C121.237 126.245 120.838 127.044 120.838 127.443V127.843V128.242C120.838 129.84 120.438 131.438 120.438 133.036L121.637 498.187C121.637 506.577 124.433 512.569 129.227 514.966L146.007 524.554C141.213 521.758 138.416 515.765 138.416 507.775L137.218 142.624C137.218 141.026 137.218 139.428 137.617 137.83C137.617 137.431 137.617 137.031 137.617 136.632C137.617 135.833 138.017 135.034 138.017 134.634C138.017 134.235 138.017 133.835 138.416 133.036C138.416 132.637 138.816 132.237 138.816 131.838C138.816 131.039 139.215 130.639 139.215 129.84C139.215 129.441 139.615 129.041 139.615 128.642C140.014 127.843 140.014 127.044 140.414 126.644C140.414 126.245 140.813 126.245 140.813 125.845C141.213 125.046 141.612 123.848 142.012 123.049V122.649C142.411 121.85 142.811 121.051 143.21 120.252C143.21 119.852 143.61 119.852 143.61 119.453C144.009 118.654 144.409 117.855 144.808 117.056C144.808 117.056 144.808 116.656 145.208 116.656C145.607 115.857 146.406 114.659 146.806 113.86C146.806 113.46 147.205 113.46 147.205 113.061C147.605 112.262 148.004 111.862 148.404 111.063C148.803 110.664 148.803 110.264 149.203 110.264C149.602 109.865 150.002 109.066 150.401 108.666C150.801 108.267 151.2 107.867 151.6 107.468C151.999 107.068 152.399 106.669 152.798 106.269C153.198 105.47 153.997 105.071 154.396 104.272C154.796 103.872 154.796 103.872 155.196 103.473C156.394 102.274 157.593 101.076 158.791 100.277C159.191 100.277 159.191 99.8771 159.59 99.8771C160.789 98.6785 162.387 97.8795 163.585 97.0805L309.006 13.1838C310.205 12.3848 311.403 11.9852 312.202 11.5857C311.403 11.5857 311.803 11.1862 312.202 11.1862Z" fill="#DFCBFA"/>
<path d="M307.808 13.1841C322.589 4.79447 334.175 11.5861 334.175 28.3655L335.374 393.516C335.374 410.295 323.788 430.67 309.006 439.06L163.585 522.957C148.803 531.346 137.218 524.555 136.818 507.775L135.62 142.625C135.62 125.845 147.205 105.471 161.987 96.6814L307.808 13.1841Z" fill="#F9FCFF"/>
<path d="M307.808 21.973C318.195 15.9804 326.585 20.7745 326.984 32.7598L328.183 397.91C328.183 409.896 319.793 424.677 309.406 430.67L163.985 514.567C153.597 520.559 144.808 515.765 144.808 503.78L143.61 138.629C143.61 126.644 151.999 111.862 162.387 105.87L209.129 78.7032C215.521 75.1076 221.514 74.7081 225.908 77.5047C227.506 78.7032 230.303 78.7032 232.7 77.1052L237.494 74.3086C239.891 72.7106 242.688 69.914 244.286 66.718C248.68 58.7278 254.673 52.3357 261.065 48.7401L307.808 21.973Z" fill="#222698"/>
<path d="M223.112 196.957L179.965 221.727C174.771 224.923 170.377 232.513 170.377 238.506V288.045C170.377 294.038 174.771 296.834 179.965 293.638L223.112 268.869C228.306 265.672 232.7 258.481 232.7 252.089V202.55C232.7 196.158 228.306 193.761 223.112 196.957Z" fill="#F9FCFF"/>
<path d="M293.825 236.908L250.678 261.677C245.484 264.873 241.09 272.065 241.09 278.457V327.996C241.09 333.988 245.484 336.785 250.678 333.589L293.825 308.819C299.019 305.623 303.413 298.432 303.413 292.04V242.501C303.413 236.508 299.019 234.111 293.825 236.908Z" fill="#F9FCFF"/>
<path d="M293.425 156.207L250.278 180.977C245.085 184.173 240.69 191.764 240.69 197.756V247.295C240.69 253.288 245.085 256.084 250.278 252.888L293.425 228.119C298.619 224.923 303.014 217.332 303.014 211.34V161.8C303.014 155.408 299.018 153.011 293.425 156.207Z" fill="#F9FCFF"/>
<path d="M223.511 277.658L180.364 302.428C175.171 305.624 170.776 312.815 170.776 319.207V368.746C170.776 374.739 175.171 377.535 180.364 374.339L223.511 349.57C228.705 346.374 233.1 339.182 233.1 332.79V283.251C233.1 277.259 228.705 274.462 223.511 277.658Z" fill="#F9FCFF"/>
<path d="M158.173 181.796L158.573 306.442L0.399508 398.111L0 273.065L158.173 181.796ZM182.575 148.019L182.176 44.9089L52.3356 119.617L52.7351 222.727L182.575 148.019ZM309.619 206.747L310.018 322.604L411.891 265.886L413.491 146.82L309.619 206.747Z" fill="url(#paint1_linear)"/>
<path opacity="0.3" d="M291.207 541.177C303.592 533.986 323.967 533.986 336.751 541.177C349.136 548.368 349.535 560.354 336.751 567.545C324.366 574.736 303.991 574.736 291.207 567.545C278.822 559.954 278.423 548.368 291.207 541.177Z" fill="#A266DE"/>
<path d="M315.177 547.17C312.381 547.969 314.778 550.366 316.376 551.564C320.371 554.76 324.366 557.557 326.763 556.358C327.962 555.959 328.361 553.961 328.361 553.162C328.361 551.564 327.562 553.162 325.565 549.966C323.967 547.969 318.373 546.371 315.177 547.17Z" fill="#103450"/>
<path d="M321.57 492.437L321.969 551.165C322.768 553.163 323.967 553.962 325.165 553.962C328.361 554.361 328.761 552.763 328.761 552.763C328.761 552.763 335.552 502.425 336.351 495.633C337.15 488.842 336.351 490.839 336.351 490.839L321.57 492.437Z" fill="#103450"/>
<path d="M293.604 546.371C290.807 546.371 292.405 549.167 294.403 551.165C297.998 554.76 302.393 557.557 304.79 556.758C305.989 556.358 306.388 554.361 306.388 553.562C306.388 551.964 305.589 553.562 303.592 550.366C301.594 547.969 296.4 546.371 293.604 546.371Z" fill="#103450"/>
<path d="M299.197 492.437L299.597 551.165C300.396 553.163 301.594 553.962 302.793 553.962C305.989 554.361 306.388 552.763 306.388 552.763C306.388 552.763 313.18 502.425 313.979 495.633C314.778 488.842 313.979 490.839 313.979 490.839L299.197 492.437Z" fill="#103450"/>
<path d="M305.19 435.307C296.8 448.491 294.803 461.675 296.8 476.057C298.798 490.439 299.597 499.229 299.597 499.229C299.597 499.229 318.374 506.819 336.351 495.234C336.351 495.234 340.347 473.261 340.746 458.079C341.146 442.898 334.753 435.307 334.753 435.307H305.19Z" fill="#F079F6"/>
<path d="M330.359 389.364C331.158 389.763 331.957 390.163 332.756 390.562C336.751 393.359 338.749 398.153 339.148 402.947C339.947 410.138 337.55 417.729 335.952 424.92C335.552 427.317 334.753 431.312 335.153 435.307C335.153 435.707 324.366 444.096 305.589 435.307C305.589 435.307 303.192 422.523 301.594 416.131C300.396 410.138 296.001 400.15 298.798 394.158C299.597 392.959 310.383 388.165 317.175 388.165C321.17 388.565 326.364 387.766 330.359 389.364Z" fill="#F9CBEB"/>
<path d="M322.369 388.965L322.768 376.18C322.768 376.18 325.964 375.781 325.565 372.585C325.165 368.989 321.57 371.386 321.17 372.585C321.17 372.585 320.371 360.599 313.979 359.401C307.587 358.202 304.79 359.001 304.79 362.198C304.79 365.394 304.391 376.18 304.79 380.175C305.19 384.17 304.79 386.168 310.783 386.168L311.182 390.563C311.182 390.563 313.979 392.96 321.969 390.962L322.369 388.965Z" fill="#FFC6A0"/>
<path d="M298.398 394.158C296.001 394.957 291.606 428.515 291.606 428.515L284.815 458.079L290.408 460.876C290.408 460.876 298.798 444.895 300.795 436.905C303.192 427.317 309.584 389.763 298.398 394.158Z" fill="#F9CBEB"/>
<path d="M281.619 460.077C280.021 461.675 276.825 461.675 277.224 463.273C277.624 464.472 280.021 464.472 280.021 464.472C280.021 464.472 275.626 467.668 276.026 468.866C276.425 469.665 279.222 469.266 279.222 469.266C279.222 469.266 280.42 470.464 281.619 470.065C282.817 470.065 285.214 469.266 287.611 466.869C290.008 464.472 290.008 460.477 290.008 460.477L284.415 457.68C284.815 458.08 283.616 458.479 281.619 460.077Z" fill="#FCD9C3"/>
<path d="M307.187 373.783C304.79 368.19 299.996 361.798 305.589 357.004C311.182 352.609 320.371 353.408 325.964 357.004C331.957 360.599 335.952 367.391 337.55 374.183C339.148 380.974 339.148 388.165 338.349 395.357C337.949 400.151 337.15 405.344 333.954 408.94C330.359 413.334 323.967 414.533 318.773 412.935C313.579 411.337 309.185 406.942 307.187 401.749C305.19 396.555 305.19 390.962 306.388 385.369C307.187 382.173 308.386 378.577 307.587 375.381C307.986 374.982 307.587 374.183 307.187 373.783Z" fill="#103450"/>
<g clip-path="url(#clip0)">
<path d="M120.96 98.1793C120.96 97.7433 120.4 97.7433 120.4 97.7433C120.4 97.7433 119.84 98.1793 119.84 98.6154C104.72 106.464 95.2 129.139 98 149.197C99.68 159.226 103.6 167.075 110.32 170.999C110.32 170.999 110.88 170.999 110.88 170.563C114.8 161.842 120.96 154.865 127.68 151.377C134.4 147.889 141.68 147.889 147.84 151.813C147.84 151.813 147.84 151.813 148.4 151.813C148.4 151.813 148.4 151.813 148.96 151.377C153.44 141.784 155.12 130.883 153.44 120.854C150.64 101.232 136.08 91.2026 120.96 98.1793ZM148.4 150.069C142.24 146.58 134.96 146.144 128.24 150.069C121.52 153.993 115.36 160.534 110.88 169.691C104.72 165.767 100.8 158.354 99.68 148.761C99.68 148.325 99.68 147.889 99.68 147.453L103.04 145.708C103.04 145.708 103.6 145.272 103.6 144.836C103.6 144.4 103.04 144.4 103.04 144.4L99.68 146.144C99.12 137.424 100.8 128.267 104.16 119.982L108.08 122.598C108.08 122.598 108.08 122.598 108.64 122.598C109.2 122.598 108.64 122.598 109.2 122.162C109.2 121.726 109.2 121.29 109.2 121.29L104.16 118.674C108.08 110.825 113.68 103.848 120.4 100.36L121.52 106.9C121.52 107.336 122.08 107.336 122.08 107.336C122.08 107.336 122.64 106.9 122.64 106.464L121.52 99.4875C134.96 92.9468 148.4 101.668 152.32 119.11C152.32 119.11 152.32 119.11 151.76 119.11L147.84 120.854C147.84 120.854 147.28 121.29 147.28 121.726C147.28 122.162 147.84 122.162 147.84 122.162L151.76 119.982C151.76 119.982 151.76 119.546 152.32 119.546C152.32 119.982 152.32 120.418 152.32 121.29C154 130.883 152.32 140.912 148.4 150.069Z" fill="white"/>
<path d="M138.88 104.285L128.8 125.651C127.68 125.215 126.56 125.215 125.44 125.651C122.64 127.395 120.4 132.192 120.96 135.68C121.52 139.604 124.32 141.348 127.12 140.04C129.92 138.732 132.16 133.936 131.6 130.011C131.6 128.703 131.04 127.395 129.92 126.523L139.44 105.157C139.44 104.721 139.44 104.285 139.44 104.285H138.88ZM127.68 138.732C124.88 140.04 122.64 138.732 122.08 135.244C121.52 131.755 123.2 128.267 125.44 127.395C128.24 126.087 130.48 127.831 131.04 130.883C131.6 133.936 129.92 137.86 127.68 138.732Z" fill="white"/>
</g>
<path d="M219.516 252.489L214.722 255.286L220.315 242.901C220.315 242.501 221.913 236.109 219.516 226.122C217.519 218.131 213.124 216.533 211.526 215.734C211.526 215.734 211.526 215.335 211.127 215.734C210.328 216.134 208.33 216.933 204.335 218.931C201.139 216.933 198.342 216.134 198.342 216.134H197.943L197.543 216.533C197.543 216.533 196.744 219.73 196.345 224.124C187.955 228.918 180.364 241.303 177.568 246.097C176.769 247.695 176.769 249.293 177.568 249.693L180.364 250.891C181.163 251.291 181.962 250.891 182.761 250.092L188.754 244.1C189.553 244.1 191.95 244.499 195.546 241.702C188.754 254.087 187.556 267.67 187.556 270.467L182.362 273.264C181.962 273.264 181.962 273.663 181.962 274.063L181.563 280.854C181.563 281.254 181.962 281.254 181.962 281.254L219.516 260.479C219.916 260.479 219.916 260.08 219.916 259.68L220.315 252.889C219.916 252.489 219.916 252.489 219.516 252.489ZM210.328 216.933H210.727C212.325 217.332 216.72 218.931 218.318 226.921C220.315 236.109 219.516 242.102 219.117 242.901L214.323 253.288C214.722 248.095 215.521 236.509 212.325 228.519C210.328 224.124 207.531 220.928 204.335 218.931C206.732 218.531 209.529 217.332 210.328 216.933ZM196.744 240.104C196.744 239.705 197.144 239.705 196.744 239.305C196.744 239.305 196.345 239.305 195.945 239.305C191.151 244.1 188.355 242.901 188.355 242.901C188.355 242.901 187.955 242.901 187.955 243.301L181.563 249.293C181.163 249.693 180.764 250.092 180.364 249.693L177.568 248.494C176.769 248.095 176.769 247.296 177.568 246.097C180.364 241.303 187.955 228.918 195.945 224.524C196.345 224.524 196.345 224.124 196.345 223.725C196.744 220.529 197.144 218.131 197.543 216.933C199.94 217.732 207.931 220.928 211.526 229.318C215.521 238.107 213.524 252.489 213.124 255.286L187.955 269.269C187.955 266.871 189.154 252.09 196.744 240.104ZM218.717 259.281L182.362 279.656V274.063L219.117 253.688L218.717 259.281Z" fill="#124AFF"/>
<path d="M194.347 230.916L190.352 233.313C189.953 233.313 189.953 233.712 189.953 234.112C189.953 234.511 190.352 234.511 190.352 234.511L194.347 232.114C194.747 232.114 194.747 231.715 194.747 231.315C194.747 230.916 194.347 230.916 194.347 230.916Z" fill="#124AFF"/>
<path d="M214.323 312.416C213.923 304.426 208.33 301.229 201.538 305.624C194.747 310.019 189.154 320.006 189.553 328.396C189.953 336.386 195.546 339.582 202.337 335.188C208.73 330.793 214.323 320.805 214.323 312.416ZM201.938 333.989C195.546 337.984 189.953 335.188 189.953 327.597C189.553 320.006 194.747 310.418 201.139 306.423C207.531 302.428 213.124 305.225 213.124 312.815C213.524 320.805 208.33 329.994 201.938 333.989Z" fill="#D115FF"/>
<path d="M214.722 326.798L218.717 323.202L217.918 318.009L221.514 312.416L219.117 309.22L221.514 302.828L217.519 302.029L218.318 296.036L213.524 297.634L212.325 292.84L207.531 296.435L204.734 293.639L200.739 299.232L196.744 298.832L193.948 305.225L189.154 307.222L188.754 313.614L184.36 317.609L185.159 322.803L181.563 328.396L184.36 331.592L181.962 337.984L185.958 338.783L184.759 344.376L189.154 342.778L181.163 363.952L188.754 357.56L191.551 364.352L198.742 345.575L202.337 340.781L206.332 341.18L213.923 350.369L216.32 340.381L223.911 337.185L214.722 326.798ZM189.553 356.362L183.161 361.555L189.953 343.577L191.151 347.572L195.945 343.977L198.342 346.374L192.35 362.354L189.553 356.362ZM198.342 345.175L195.546 342.379L191.151 345.974L189.953 341.58L185.558 343.178L185.958 337.585L182.362 336.786L184.759 330.793L182.761 327.597L186.357 322.403L185.558 317.609L189.953 313.614L190.752 308.021L195.146 306.024L197.543 300.031L201.538 300.43L204.734 295.636L207.531 298.433L211.926 294.837L213.124 299.232L217.519 297.634L216.72 303.227L220.315 304.026L217.918 310.019L220.315 312.815L216.72 318.009L217.519 322.803L213.124 326.798L212.725 332.791L208.33 334.788L205.933 340.781L201.938 340.381L198.342 345.175ZM215.521 339.982L213.524 348.371L206.732 340.381L208.729 335.188L213.524 333.19L214.323 327.997L221.913 337.185L215.521 339.982Z" fill="#D115FF"/>
<path d="M257.07 219.33C253.474 221.328 250.678 224.923 250.678 227.32C250.678 229.717 253.874 230.117 257.47 228.119C261.065 226.122 263.862 222.526 263.862 220.129C263.862 217.333 261.065 217.333 257.07 219.33ZM257.869 226.921C254.274 228.918 251.876 228.519 251.876 226.921C251.876 225.323 253.874 222.526 257.47 220.529C261.065 218.531 263.462 218.931 263.462 220.529C263.462 221.727 261.065 224.923 257.869 226.921Z" fill="#7015FF"/>
<path d="M258.269 232.114C254.673 234.112 252.276 233.712 252.276 232.114L251.477 232.514C251.477 234.911 254.673 235.31 258.269 233.313C261.864 231.315 264.661 227.72 264.661 225.323L263.862 225.722C263.862 227.32 261.465 230.117 258.269 232.114Z" fill="#7015FF"/>
<path d="M258.269 237.308C254.673 239.305 252.276 238.906 252.276 237.308L251.477 237.707C251.477 240.104 254.673 240.504 258.269 238.506C261.864 236.509 264.661 232.913 264.661 230.516L263.862 230.916C264.261 232.514 261.864 235.71 258.269 237.308Z" fill="#7015FF"/>
<path d="M258.668 242.901C255.073 244.899 252.675 244.499 252.675 242.901L251.876 243.7C251.876 246.097 255.073 246.497 258.668 244.499C262.264 242.501 265.06 238.906 265.06 236.509L264.261 236.908C264.261 238.107 262.264 241.303 258.668 242.901Z" fill="#7015FF"/>
<path d="M290.629 218.931L289.83 216.134C289.43 214.936 289.031 213.338 289.031 211.74L288.232 201.752C287.433 190.166 280.242 184.973 271.852 189.767C264.661 193.762 258.668 204.548 257.869 214.936L258.668 214.536C259.467 204.548 265.06 194.561 271.852 190.566C279.842 186.171 286.634 191.365 287.433 202.151L288.232 212.139C288.232 213.737 288.631 215.335 289.031 216.933L289.83 219.73C289.83 220.129 289.83 220.928 289.83 221.727C289.43 222.526 289.031 222.926 288.631 223.325L266.259 235.71V236.909L288.631 224.524C289.43 224.124 290.229 223.325 290.629 222.127C291.028 220.529 291.028 219.73 290.629 218.931Z" fill="#7015FF"/>
<path d="M277.045 184.573L273.849 186.171C274.648 184.173 275.847 179.379 276.646 176.982C276.646 176.583 277.045 174.585 276.646 174.186C276.246 173.786 275.447 174.585 273.849 176.583C272.251 179.379 271.053 179.779 269.455 179.379C267.857 179.379 266.658 178.98 265.859 180.178C265.46 180.977 265.859 182.176 265.859 182.176C266.259 184.173 268.656 187.369 269.455 188.568L265.859 190.565V191.764L277.045 185.372V184.573ZM266.658 181.377C266.658 180.977 266.658 180.578 266.658 180.578C267.058 180.178 268.656 180.178 269.455 180.178C271.452 180.178 272.651 179.779 274.648 176.982C275.847 174.985 276.246 174.985 276.246 174.985C276.246 174.985 276.246 175.384 276.246 176.583C275.447 179.379 273.849 184.972 273.45 186.57L271.053 187.769C269.854 187.369 267.058 183.774 266.658 181.377Z" fill="#7015FF"/>
<path d="M82.4316 286.085C93.4211 279.669 102.137 269.102 102.137 262.308C102.137 255.515 93.4211 255.138 82.4316 261.554C71.4422 267.969 62.7264 278.537 62.7264 285.33C62.7264 292.124 71.8211 292.501 82.4316 286.085ZM82.4316 263.441C92.2843 257.779 100.242 257.779 100.242 263.441C100.242 269.102 92.2843 278.914 82.4316 284.576C72.579 290.237 64.6211 290.237 64.6211 284.576C64.6211 278.537 72.579 269.102 82.4316 263.441Z" fill="#F9F9F9"/>
<path d="M82.4316 294.766C93.4211 288.35 102.137 278.914 102.137 274.008L100.621 275.14C100.621 280.047 92.2842 287.595 82.8106 293.256C72.9579 298.917 65 301.181 65 296.275L63.4842 297.407C62.7263 301.936 71.4421 301.181 82.4316 294.766Z" fill="#F9F9F9"/>
<path d="M82.4316 302.692C93.4211 296.276 102.137 286.84 102.137 281.934L100.621 283.066C100.621 287.973 92.2842 295.521 82.8106 301.182C72.9579 306.843 65 309.108 65 304.201L63.4842 305.333C62.7263 309.862 71.4421 309.108 82.4316 302.692Z" fill="#F9F9F9"/>
<path d="M111.989 253.628L127.147 229.851V244.193L129.042 243.438V225.323L110.853 235.89V237.777L125.631 229.097L110.853 252.873L111.989 253.628Z" fill="#F9F9F9"/>
<path d="M53.6316 326.846L39.6106 335.149L54.3895 310.994L53.6316 310.24L38.8527 334.017V319.297L37.3369 320.052V338.168L53.6316 328.355V326.846Z" fill="#F9F9F9"/>
<path d="M29 277.782V351L137 287.218V214L29 277.782ZM135.484 286.84L30.5158 348.358V278.537L135.484 216.642V286.84Z" fill="#F9F9F9"/>
<path d="M60.0737 347.603L102.895 322.317V320.807L60.0737 345.716V347.603Z" fill="#F9F9F9"/>
<path d="M269.854 276.46C274.249 273.663 277.445 266.871 277.046 261.278C276.646 255.685 273.05 252.889 268.656 255.685C264.261 258.482 261.065 265.273 261.465 270.867C261.465 276.46 265.46 279.256 269.854 276.46ZM268.656 256.484C272.651 254.087 275.847 256.085 276.247 261.678C276.646 266.871 273.45 273.264 269.455 275.661C265.46 278.058 262.264 276.06 261.864 270.467C261.864 265.273 264.661 258.881 268.656 256.484Z" fill="#31ACEB"/>
<path d="M289.43 281.254L284.636 284.05V282.053C284.636 281.254 283.837 280.455 283.038 281.254L281.041 282.452C278.644 278.457 274.249 277.259 269.854 280.455C263.063 284.849 258.269 295.237 258.668 304.425C258.668 305.224 259.068 312.815 259.068 312.815V313.614L269.854 306.822L270.254 311.616C270.254 314.413 272.251 315.612 274.249 314.413L290.629 304.026C292.626 302.827 294.224 299.232 294.224 296.835L293.425 284.45C293.425 281.254 291.428 280.055 289.43 281.254ZM292.626 284.45V286.048L283.438 296.435V294.837C283.438 293.639 282.639 293.239 281.84 294.038L280.641 294.837C279.842 295.237 279.443 296.435 279.443 297.634V299.232L269.854 300.43V298.832C269.854 296.435 271.053 294.038 272.651 292.84L289.031 282.452C291.028 281.254 292.626 282.053 292.626 284.45ZM283.038 294.837L283.438 299.232C283.438 299.631 283.038 300.43 282.639 300.43L281.44 301.229C281.041 301.629 280.641 301.229 280.641 300.83L280.242 296.435C280.242 296.036 280.641 295.237 281.041 295.237L282.239 294.438C282.639 294.438 283.038 294.438 283.038 294.837ZM283.837 282.852V284.849L278.244 288.445V286.447C278.244 286.048 278.644 285.249 278.644 285.249L283.038 282.452C283.438 282.053 283.837 282.452 283.837 282.852ZM259.867 312.016C259.867 310.018 259.467 304.026 259.467 304.026C259.068 295.636 263.862 285.249 270.254 281.254C274.648 278.457 278.644 279.256 280.641 282.852L279.043 284.05C278.244 284.45 277.845 285.648 277.845 286.847V288.845L273.05 291.641C271.053 292.84 269.455 296.435 269.455 298.832L269.854 305.624L259.867 312.016ZM290.629 302.827L274.249 313.215C272.651 314.413 271.053 313.215 271.053 311.217L270.653 301.229L280.242 300.031V302.028C280.242 303.227 281.041 303.626 281.84 302.827L283.038 302.028C283.837 301.629 284.237 300.43 284.237 299.232V297.234L293.425 286.847L293.825 296.835C293.425 298.832 292.227 301.629 290.629 302.827Z" fill="#31ACEB"/>
<path d="M360.213 222.069C360.215 219.074 358.229 217.361 355.91 219.071C353.591 220.353 351.602 224.202 351.6 227.197C351.598 230.192 353.584 231.904 355.903 230.195C358.553 228.913 360.542 225.064 360.213 222.069ZM356.235 228.911C354.579 229.766 352.924 228.909 352.925 226.342C352.927 224.203 354.253 221.209 356.24 220.355C357.896 219.5 359.552 220.357 359.55 222.924C359.217 225.063 357.891 227.629 356.235 228.911Z" fill="white"/>
<path d="M370.136 238.333C372.455 237.051 374.444 233.202 374.446 230.207C374.448 227.212 372.462 225.5 370.143 227.21C367.824 228.492 365.835 232.341 365.833 235.336C365.831 238.33 367.817 239.615 370.136 238.333ZM370.142 228.493C371.798 227.639 373.453 228.495 373.452 231.062C373.45 233.201 372.124 236.195 370.137 237.05C368.481 237.904 366.825 237.048 366.827 234.481C366.829 232.341 368.486 229.348 370.142 228.493Z" fill="white"/>
<path d="M372.804 208.814L371.811 208.386L353.905 247.307L354.898 247.735L372.804 208.814Z" fill="white"/>
<path d="M345.283 267.837L344.982 219.92C344.985 216.07 343.331 213.929 341.013 213.5L373.807 194.269C377.45 192.132 380.429 194.273 380.426 198.979L380.41 223.366L381.404 222.938L381.42 198.552C381.423 192.99 377.783 190.421 373.807 192.985L337.039 214.353L337.038 215.637C340.682 213.5 343.661 215.641 343.658 220.347L343.958 268.264C343.954 273.826 347.595 276.395 351.901 274.259L361.176 268.703L361.177 267.42L351.902 272.975C348.589 275.112 345.28 272.543 345.283 267.837Z" fill="white"/>
<path d="M371.124 246.034C366.487 248.598 362.842 252.874 362.84 255.869C362.838 258.864 366.48 258.866 371.118 256.302C375.755 253.738 379.4 249.462 379.402 246.468C379.404 243.473 375.762 243.47 371.124 246.034ZM371.118 255.019C366.812 257.583 363.832 257.153 363.833 255.442C363.835 253.731 366.817 249.882 371.123 247.318C375.43 244.754 378.409 245.183 378.408 246.895C378.407 248.606 375.425 252.455 371.118 255.019Z" fill="white"/>
<path d="M371.114 262.292C366.808 264.856 363.828 264.427 363.829 262.715L362.835 263.142C362.833 266.137 366.476 266.14 371.113 263.576C375.75 261.012 379.396 256.736 379.397 253.741L378.404 254.168C378.402 256.307 375.42 259.728 371.114 262.292Z" fill="white"/>
<path d="M371.44 269.565C367.134 272.129 364.154 271.7 364.155 269.988L363.162 270.415C363.16 273.41 366.802 273.413 371.44 270.849C376.077 268.285 379.722 264.009 379.724 261.014L378.73 261.441C378.398 263.58 375.746 267.429 371.44 269.565Z" fill="white"/>
<path d="M378.418 232.776C378.416 235.771 382.058 235.773 386.695 233.209C391.333 230.645 394.978 226.369 394.98 223.375C394.982 220.38 391.339 220.377 386.702 222.941C382.064 225.933 378.419 230.209 378.418 232.776ZM386.701 224.225C391.007 221.661 393.987 222.09 393.986 223.802C393.985 225.513 391.002 229.362 386.696 231.926C382.39 234.49 379.41 234.06 379.411 232.349C379.412 230.638 382.395 226.789 386.701 224.225Z" fill="white"/>
<path d="M386.692 238.771C382.386 241.335 379.406 240.906 379.407 239.194L378.413 240.049C378.411 243.044 382.053 243.046 386.691 240.482C391.328 237.918 394.973 233.642 394.975 230.648L393.982 231.075C393.981 232.358 390.998 236.207 386.692 238.771Z" fill="white"/>
<path d="M386.687 246.472C384.368 247.754 382.381 248.609 381.057 248.18L380.725 249.463C382.38 249.464 384.367 249.038 386.686 247.328C391.324 244.764 394.969 240.488 394.971 237.493L393.977 237.92C393.976 240.06 390.993 243.908 386.687 246.472Z" fill="white"/>
<path d="M386.682 253.317C384.364 254.599 382.376 255.453 381.052 255.025L380.72 256.308C382.376 256.309 384.363 255.883 386.682 254.173C391.319 251.609 394.964 247.333 394.966 244.338L393.973 244.765C393.971 247.332 390.989 250.753 386.682 253.317Z" fill="white"/>
<defs>
<linearGradient id="paint0_linear" x1="310.749" y1="353.37" x2="318.954" y2="784.159" gradientUnits="userSpaceOnUse">
<stop stop-color="white"/>
<stop offset="0.2663" stop-color="#FCFBFF"/>
<stop offset="0.5586" stop-color="#F4EDFD"/>
<stop offset="0.8622" stop-color="#E7D7FB"/>
<stop offset="1" stop-color="#DFCBFA"/>
</linearGradient>
<linearGradient id="paint1_linear" x1="169.903" y1="83.8915" x2="246.935" y2="474.974" gradientUnits="userSpaceOnUse">
<stop stop-color="#FBCFED"/>
<stop offset="0.1983" stop-color="#FABBE5" stop-opacity="0.794"/>
<stop offset="0.707" stop-color="#F78ED3" stop-opacity="0.2656"/>
<stop offset="0.9627" stop-color="#F67CCC" stop-opacity="0"/>
</linearGradient>
<clipPath id="clip0">
<rect width="56" height="75" fill="white" transform="translate(98 96)"/>
</clipPath>
</defs>
</svg>
