<svg width="700" height="783" viewBox="0 0 700 783" fill="none" xmlns="http://www.w3.org/2000/svg">
<path opacity="0.3" d="M643.685 498.148C654.072 504.207 654.072 514.162 643.685 520.221L410.407 655.686C400.02 661.745 382.708 661.745 372.321 655.686L137.313 520.221C126.926 514.162 126.493 504.207 137.313 498.148L370.59 362.683C380.977 356.624 398.289 356.624 408.676 362.683L643.685 498.148Z" fill="#A266DE"/>
<path d="M643.685 357.922C654.072 363.981 654.072 373.936 643.685 379.995L410.407 515.46C400.02 521.519 382.708 521.519 372.321 515.46L137.313 379.995C126.926 373.936 126.493 363.981 137.313 357.922L370.59 222.457C380.977 216.398 398.289 216.398 408.676 222.457L643.685 357.922Z" fill="white"/>
<path d="M391.365 512.863C385.738 512.863 380.112 511.565 375.784 509.401L140.776 373.936C137.746 372.205 136.448 370.041 136.448 369.175C136.448 367.877 138.179 366.145 140.776 364.414L374.053 228.949C377.948 226.785 383.574 225.487 389.201 225.487C395.26 225.487 400.886 226.785 404.781 228.949L639.79 364.414C642.819 366.145 644.118 368.309 644.118 369.175C644.118 370.473 642.386 372.205 639.79 373.936L406.513 509.401C402.617 511.565 397.424 512.863 391.365 512.863Z" fill="url(#paint0_linear)"/>
<path d="M651.475 392.113C651.475 391.681 651.908 391.248 652.341 390.815V390.382V389.949C652.773 389.084 652.773 388.218 652.773 387.353L651.475 369.175C651.475 370.041 651.475 370.906 651.042 371.772V372.205C651.042 372.638 650.609 373.07 650.177 373.936C649.744 374.369 649.744 374.802 649.311 375.234C648.878 375.667 648.445 376.1 648.013 376.533C647.58 376.966 647.147 377.398 646.714 377.831C645.849 378.697 644.983 379.562 643.685 379.995L410.408 515.46C409.109 516.326 407.811 516.759 406.08 517.624C405.647 517.624 404.781 518.057 404.349 518.057C403.483 518.49 402.185 518.923 401.319 518.923C400.453 518.923 399.588 519.355 398.722 519.355C397.857 519.355 396.991 519.788 396.558 519.788C395.693 519.788 394.827 519.788 393.961 519.788C393.096 519.788 392.23 519.788 391.365 519.788C389.634 519.788 388.335 519.788 386.604 519.355C386.171 519.355 385.738 519.355 385.306 519.355C384.007 519.355 383.142 518.923 381.843 518.923C380.545 518.49 379.679 518.49 378.381 518.057C377.948 518.057 377.082 517.624 376.65 517.624C374.918 517.192 373.62 516.326 371.889 515.46L136.881 379.995C131.687 376.966 129.09 373.07 129.09 368.742L130.389 386.92C130.389 390.815 132.986 395.143 138.179 398.173L373.187 533.638C374.486 534.503 376.217 534.936 377.948 535.802C378.381 535.802 379.246 536.235 379.679 536.235C380.978 536.667 381.843 537.1 383.142 537.1H383.574C384.44 537.1 385.306 537.533 386.171 537.533C386.604 537.533 387.037 537.533 387.47 537.533C388.768 537.533 390.499 537.966 391.797 537.966C391.797 537.966 391.797 537.966 392.23 537.966C393.096 537.966 393.961 537.966 394.827 537.966C395.693 537.966 396.558 537.966 397.424 537.966C398.289 537.966 399.155 537.533 399.588 537.533C400.453 537.533 401.319 537.533 401.752 537.1C401.752 537.1 401.752 537.1 402.185 537.1C403.483 536.667 404.349 536.667 405.214 536.235C405.647 536.235 406.513 535.802 406.945 535.802C408.677 535.369 409.975 534.503 411.273 533.638L644.983 398.173C645.849 397.74 647.147 396.874 648.013 396.009C648.013 396.009 648.013 396.009 648.445 395.576C648.878 395.143 649.311 394.71 649.744 394.277C650.177 393.845 650.609 393.412 651.042 392.979C651.042 392.979 651.475 392.546 651.475 392.113Z" fill="#DFCBFA"/>
<path opacity="0.1" d="M376.216 440.587C342.891 440.587 311.73 433.229 287.926 419.38C264.988 405.963 252.004 388.651 252.004 370.041C252.004 351.863 264.555 334.552 287.061 321.135C310.431 307.718 341.593 299.928 374.918 299.928C408.243 299.928 439.405 307.285 463.208 321.135C486.147 334.552 499.13 351.863 499.13 370.474C499.13 388.651 486.579 405.963 464.074 419.38C440.703 433.229 409.542 440.587 376.216 440.587Z" fill="#A266DE"/>
<path d="M517.741 317.672C517.741 318.538 517.741 318.971 517.741 319.836C517.741 320.269 517.741 321.135 517.741 321.568C517.741 322 517.741 322.866 517.741 323.299C517.741 323.732 517.741 324.597 517.308 325.03C517.308 325.463 516.876 326.328 516.876 326.761C516.876 327.194 516.443 328.06 516.443 328.492C516.443 328.925 516.01 329.791 516.01 330.224C516.01 330.656 515.577 331.522 515.577 331.955C515.577 332.387 515.144 333.253 515.144 333.686C514.712 334.119 514.712 334.984 514.279 335.417C513.846 335.85 513.846 336.283 513.413 337.148C512.98 337.581 512.98 338.447 512.548 338.879C512.115 339.312 512.115 339.745 511.682 340.611C511.249 341.476 510.816 341.909 510.384 342.775C509.951 343.207 509.951 343.64 509.518 344.073C509.085 344.939 508.22 345.804 507.787 346.67C507.354 347.103 507.354 347.535 506.921 347.535C506.056 348.834 504.757 350.132 503.459 351.431C503.026 351.863 503.026 351.863 502.593 352.296C501.728 353.162 500.862 354.027 499.564 355.326C499.131 355.758 498.698 356.191 498.265 356.624C497.832 357.057 496.967 357.49 496.534 358.355C496.101 358.788 495.236 359.221 494.803 359.654C494.37 360.086 493.505 360.519 492.639 361.385C492.206 361.818 491.341 362.25 490.908 362.683C490.042 363.116 489.609 363.549 488.744 363.982C487.878 364.414 487.445 364.847 486.58 365.28C485.714 365.713 485.281 366.146 484.416 366.578C483.55 367.011 482.685 367.877 481.386 368.31C478.789 370.041 475.76 371.339 472.73 372.638C471.865 373.07 470.999 373.503 470.566 373.936C467.97 375.234 465.373 376.533 462.343 377.398C461.91 377.398 461.478 377.831 461.045 377.831C458.015 379.129 454.986 379.995 451.956 380.861C449.792 381.726 447.628 382.159 445.464 382.592C443.733 383.025 442.002 383.457 440.271 383.89C438.107 384.323 435.51 384.756 433.346 385.189C431.615 385.621 429.884 386.054 428.152 386.054C427.287 386.054 426.854 386.487 425.988 386.487C422.959 386.92 420.362 387.353 417.332 387.785C416.467 387.785 415.601 387.785 414.736 388.218C411.273 388.651 407.811 389.084 404.349 389.084C403.916 389.084 403.05 389.084 402.617 389.084C400.453 389.084 397.857 389.084 395.693 389.084C393.529 389.084 390.932 389.084 388.768 389.084C387.037 389.084 384.873 389.084 383.141 389.084C380.977 389.084 378.814 389.084 376.65 388.651C374.486 388.651 372.754 388.218 370.59 388.218C368.426 388.218 366.262 387.785 364.098 387.353C362.367 386.92 360.203 386.92 358.472 386.487C356.308 386.054 354.144 385.621 351.547 385.189C349.383 384.756 346.787 384.323 344.623 383.89C344.19 383.89 343.324 383.457 342.891 383.457C339.862 382.592 336.399 381.726 333.37 380.861C332.504 380.428 331.639 380.428 330.773 379.995C328.176 379.129 325.58 378.264 322.983 377.398C322.117 376.965 321.684 376.965 320.819 376.533C318.655 375.667 316.491 374.802 313.894 373.503C312.596 373.07 311.73 372.638 310.432 372.205C307.402 370.474 303.94 369.175 300.91 367.444C290.09 360.952 281.434 354.027 275.375 346.237C273.644 344.073 271.913 341.909 270.615 339.745C269.749 338.447 269.316 337.581 268.883 336.283C267.585 334.119 266.719 331.522 265.854 329.358C265.421 328.06 264.988 327.194 264.988 325.896C264.123 322.433 263.69 318.971 263.69 315.076L263.257 348.834C263.257 367.877 275.808 386.92 300.91 401.202C303.94 402.933 306.969 404.664 309.999 405.963C310.865 406.396 312.163 406.828 313.461 407.261C315.193 408.127 317.357 408.992 319.088 409.858C319.52 409.858 319.953 410.291 319.953 410.291C320.819 410.724 321.252 410.724 322.117 411.156C324.714 412.022 327.311 412.888 329.908 413.753C330.773 414.186 331.639 414.186 332.504 414.619C332.937 414.619 333.803 415.052 334.236 415.052C336.832 415.917 339.429 416.35 342.026 417.216C342.459 417.216 343.324 417.648 343.757 417.648C345.056 418.081 346.354 418.081 347.652 418.514C348.518 418.514 349.816 418.947 350.682 418.947C352.846 419.38 355.01 419.812 357.607 420.245C358.472 420.245 359.338 420.678 360.203 420.678C361.069 420.678 362.367 420.678 363.233 421.111C365.397 421.544 367.561 421.543 369.725 421.976C370.59 421.976 371.889 422.409 372.754 422.409C373.62 422.409 374.486 422.409 375.784 422.409C377.948 422.409 380.112 422.842 382.276 422.842C383.142 422.842 384.44 422.842 385.305 422.842C386.171 422.842 387.037 422.842 387.902 422.842C390.066 422.842 392.663 422.842 394.827 422.842C396.125 422.842 396.991 422.842 398.289 422.842C399.588 422.842 400.453 422.842 401.752 422.842C402.185 422.842 403.05 422.842 403.483 422.842C406.513 422.842 409.109 422.409 412.139 421.976C412.572 421.976 413.437 421.976 413.87 421.976C414.736 421.976 415.601 421.976 416.467 421.543C419.496 421.111 422.526 420.678 425.123 420.245C425.988 420.245 426.421 419.812 427.287 419.812C427.72 419.812 428.152 419.812 428.152 419.812C429.451 419.38 430.749 419.38 432.048 418.947C434.212 418.514 436.808 418.081 438.972 417.648C440.703 417.216 442.435 416.783 444.166 416.35C446.33 415.917 448.494 415.052 450.658 414.619C451.09 414.619 451.523 414.186 451.956 414.186C454.553 413.32 457.15 412.455 459.746 411.589C460.179 411.589 460.612 411.156 461.045 411.156C463.642 410.291 466.671 408.992 469.268 407.694C470.134 407.261 470.999 406.828 471.432 406.396C474.462 405.097 477.058 403.366 480.088 402.068C480.521 401.635 480.953 401.635 481.819 401.202C482.252 400.769 482.685 400.769 483.117 400.336C483.983 399.904 484.849 399.471 485.281 399.038C486.147 398.605 486.58 398.173 487.445 397.74C488.311 397.307 488.744 396.874 489.609 396.441C490.042 396.009 490.908 395.576 491.341 395.143C492.206 394.71 492.639 394.277 493.505 393.412C493.937 392.979 494.803 392.546 495.236 392.113C495.669 391.681 496.534 391.248 496.967 390.382C497.4 389.949 497.4 389.949 497.832 389.517C498.265 389.517 498.265 389.084 498.265 389.084C499.131 388.218 500.429 387.353 501.295 386.054C501.728 385.621 501.728 385.621 502.16 385.189C503.459 383.89 504.324 382.592 505.623 381.293C506.056 380.861 506.056 380.861 506.488 380.428C506.921 379.562 507.787 378.697 508.22 377.831C508.652 377.398 508.652 376.965 509.085 376.533C509.518 375.667 509.951 375.234 510.384 374.369L510.816 373.936C510.816 373.503 511.249 373.503 511.249 373.07C511.682 372.638 512.115 371.772 512.115 371.339C512.548 370.906 512.548 370.474 512.98 369.608C513.413 369.175 513.413 368.31 513.846 367.877C513.846 367.444 514.279 367.444 514.279 367.011C514.279 366.578 514.279 366.578 514.712 366.146C515.144 365.713 515.144 364.847 515.144 364.414C515.144 363.982 515.577 363.116 515.577 362.683C515.577 362.25 516.01 361.385 516.01 360.952C516.01 360.519 516.01 360.086 516.443 360.086C516.443 359.654 516.443 359.654 516.443 359.221C516.443 358.788 516.443 357.922 516.876 357.49C516.876 357.057 516.876 356.191 516.876 355.758C516.876 355.326 516.876 354.46 516.876 354.027C516.876 353.595 516.876 353.162 516.876 352.729C516.876 352.296 516.876 351.863 516.876 351.431L517.741 317.672Z" fill="#DFCBFA"/>
<path d="M517.741 0H264.123V316.807C264.123 335.85 276.674 354.893 301.776 369.175C351.547 397.74 431.615 397.74 481.386 369.175C506.056 354.893 518.607 335.85 518.174 316.807V0H517.741Z" fill="url(#paint1_linear)"/>
<path d="M480.088 265.304C529.859 293.869 529.859 340.611 480.52 369.175C431.182 397.74 350.682 397.74 300.91 369.175C251.139 340.611 251.139 293.869 300.477 265.304C350.249 236.74 430.316 236.74 480.088 265.304Z" fill="#FFCCEF"/>
<path d="M391.365 387.353C358.04 387.353 326.878 379.995 303.074 366.146C280.136 352.729 267.152 335.417 267.152 316.807C267.152 298.629 279.703 281.318 302.209 267.901C325.58 254.484 356.741 246.694 390.066 246.694C423.392 246.694 454.553 254.051 478.357 267.901C501.295 281.318 514.279 298.629 514.279 317.24C514.279 335.417 501.728 352.729 479.222 366.146C455.851 379.995 424.69 387.353 391.365 387.353Z" fill="url(#paint2_linear)"/>
<path d="M470.567 192.594C422.093 171.82 355.443 171.387 307.402 192.594L307.835 43.2796C355.876 22.5054 422.959 22.5054 470.999 43.2796L470.567 192.594Z" fill="url(#paint3_linear)"/>
<path opacity="0.3" d="M251.454 706.356C256.215 709.385 256.215 713.713 251.454 716.743L142.823 779.931C138.062 782.961 129.839 782.961 125.078 779.931L15.5805 716.743C10.8198 713.713 10.8198 709.385 15.5805 706.356L124.645 643.168C129.406 640.138 137.629 640.138 142.39 643.168L251.454 706.356Z" fill="#A266DE"/>
<path d="M251.454 674.329C256.215 677.359 256.215 681.687 251.454 684.716L142.823 747.904C138.062 750.934 129.839 750.934 125.078 747.904L15.5805 684.716C10.8198 681.687 10.8198 677.359 15.5805 674.329L124.645 611.141C129.406 608.111 137.629 608.111 142.39 611.141L251.454 674.329Z" fill="white"/>
<path d="M133.734 744.875C131.57 744.875 128.974 744.442 127.675 743.577L18.1776 680.388C17.7448 680.388 17.7449 679.955 17.7449 679.955L18.1776 679.523L127.242 616.334C128.973 615.469 131.137 615.036 133.301 615.036C135.465 615.036 138.062 615.469 139.361 616.334L248.858 679.523C249.291 679.523 249.291 679.955 249.291 679.955L248.858 680.388L139.793 743.577C138.495 744.009 136.331 744.875 133.734 744.875Z" fill="url(#paint4_linear)"/>
<path d="M255.35 690.775L255.783 690.342C255.783 690.342 255.783 690.343 255.783 689.91C255.783 689.91 255.783 689.91 255.783 689.477C255.783 689.044 255.783 688.611 255.783 688.179L254.917 679.523C254.917 679.955 254.917 680.388 254.917 680.821C254.917 680.821 254.917 680.821 254.917 681.254C254.917 681.687 254.484 681.687 254.484 682.119C254.484 682.119 254.484 682.552 254.051 682.552C254.051 682.985 253.619 682.985 253.619 683.418L253.186 683.851C252.753 684.283 252.32 684.716 251.887 684.716L142.823 747.904C142.39 748.337 141.524 748.77 140.659 748.77C140.226 748.77 140.226 748.77 139.793 749.203C139.36 749.203 138.928 749.636 138.495 749.636C138.062 749.636 137.629 749.636 137.196 749.636C136.764 749.636 136.331 749.636 135.898 749.636C135.465 749.636 135.032 749.636 134.6 749.636C134.167 749.636 133.734 749.636 133.301 749.636C132.436 749.636 132.003 749.636 131.137 749.636H130.704C130.272 749.636 129.839 749.636 128.973 749.203C128.54 749.203 128.108 748.77 127.242 748.77C126.809 748.77 126.809 748.77 126.376 748.337C125.511 747.904 125.078 747.904 124.212 747.472L14.7149 684.283C12.1182 682.985 10.8198 680.821 10.8198 679.09L11.6854 687.746C11.6854 689.477 12.9838 691.641 15.5806 692.939L125.078 756.128C125.944 756.56 126.376 756.993 127.242 756.993C127.675 756.993 127.675 756.993 128.108 757.426C128.54 757.426 128.973 757.859 129.839 757.859C129.839 757.859 129.839 757.859 130.272 757.859C130.704 757.859 131.137 757.859 131.57 757.859H132.003C132.868 757.859 133.301 757.859 134.167 757.859C134.6 757.859 135.032 757.859 135.465 757.859C135.898 757.859 136.331 757.859 136.764 757.859C137.196 757.859 137.629 757.859 138.062 757.859C138.495 757.859 138.927 757.859 139.36 757.859C139.793 757.859 140.226 757.426 140.659 757.426C141.091 757.426 141.091 757.426 141.524 756.993C142.39 756.56 142.823 756.56 143.688 756.128L252.753 692.939C253.186 692.507 253.619 692.507 254.051 692.074L254.484 691.641C254.484 691.208 254.917 691.208 254.917 690.775C254.917 691.208 254.917 690.775 255.35 690.775Z" fill="#DFCBFA"/>
<path d="M140.659 457.498L140.226 338.047C164.03 341.942 186.102 348.866 205.145 358.388C234.143 373.103 249.723 391.713 252.753 410.756L253.186 530.208C250.156 511.165 234.143 492.555 205.578 477.84C186.968 468.318 164.463 461.826 140.659 457.498ZM221.592 621.528C250.589 619.797 280.452 627.587 302.957 644.899C307.718 648.794 311.613 652.689 315.508 656.585V569.592C312.046 565.265 307.718 561.369 302.957 557.907C280.885 540.595 251.022 532.805 221.592 534.536V621.528ZM0.432823 489.525C31.1613 475.243 68.8146 468.751 106.035 469.617L105.602 351.03C68.3818 349.732 30.2957 356.657 0 370.939L0.432823 489.525Z" fill="url(#paint5_linear)"/>
<path opacity="0.3" d="M158.836 667.837C145.419 660.047 123.347 660.047 109.497 667.837C96.0805 675.627 95.6477 688.611 109.497 696.402C122.914 704.192 144.986 704.192 158.836 696.402C172.253 688.611 172.253 675.627 158.836 667.837Z" fill="#A266DE"/>
<path d="M132.868 674.329C135.898 675.195 133.301 677.792 131.57 679.09C127.242 682.552 122.914 685.582 120.317 684.284C119.019 683.851 118.586 681.687 118.586 680.821C118.586 679.09 119.452 680.821 121.616 677.359C123.347 675.628 129.406 673.464 132.868 674.329Z" fill="#103450"/>
<path d="M125.944 615.469L125.511 679.09C124.646 681.254 123.347 682.119 122.049 682.119C118.586 682.552 118.154 680.821 118.154 680.821C118.154 680.821 110.796 626.289 109.93 618.931C109.065 611.574 109.93 613.738 109.93 613.738L125.944 615.469Z" fill="#103450"/>
<path d="M156.24 673.463C159.269 673.463 157.538 676.493 155.374 678.657C151.479 682.552 146.718 685.582 144.121 684.716C142.823 684.283 142.39 682.119 142.39 681.254C142.39 679.523 143.256 681.254 145.42 677.791C147.151 675.627 153.21 673.463 156.24 673.463Z" fill="#103450"/>
<path d="M149.748 615.469L149.315 679.09C148.449 681.254 147.151 682.119 145.853 682.119C142.39 682.552 141.957 680.821 141.957 680.821C141.957 680.821 134.6 626.289 133.734 618.931C132.869 611.574 133.734 613.738 133.734 613.738L149.748 615.469Z" fill="#103450"/>
<path d="M143.688 553.579C152.777 567.861 154.941 582.143 152.777 597.724C150.613 613.305 149.748 622.826 149.748 622.826C149.748 622.826 129.406 631.049 109.93 618.498C109.93 618.498 105.603 594.694 105.17 578.248C104.737 561.802 111.662 553.579 111.662 553.579H143.688Z" fill="#4A74FC"/>
<path d="M115.989 503.375C115.124 503.807 114.258 504.24 113.392 504.673C109.065 507.703 106.901 512.896 106.468 518.09C105.602 525.88 108.199 534.103 109.93 541.894C110.363 544.49 111.229 548.818 110.796 553.146C110.796 553.579 122.481 562.668 142.823 553.146C142.823 553.146 145.419 539.297 147.15 532.372C148.449 525.88 153.21 515.06 150.18 508.568C149.314 507.27 137.629 502.076 130.272 502.076C126.376 502.509 120.75 501.643 115.989 503.375Z" fill="#F9FCFF"/>
<path d="M125.078 502.942L124.645 489.092C124.645 489.092 121.183 488.659 121.616 485.197C122.049 481.302 125.944 483.899 126.377 485.197C126.377 485.197 127.242 472.213 134.167 470.915C141.092 469.616 144.121 470.482 144.121 473.944C144.121 477.407 144.554 489.092 144.121 493.42C143.689 497.748 144.121 499.912 137.629 499.912L137.197 504.673C137.197 504.673 134.167 507.27 125.511 505.106L125.078 502.942Z" fill="#FFC6A0"/>
<path d="M151.046 508.568C153.643 509.434 158.404 545.789 158.404 545.789L173.119 536.267L176.581 542.326C176.581 542.326 160.135 563.533 151.479 557.474C142.39 551.415 138.928 503.807 151.046 508.568Z" fill="#F9FCFF"/>
<path d="M175.283 533.238C177.014 531.506 177.014 528.044 178.312 528.477C179.611 528.91 180.044 531.074 180.044 531.074C180.044 531.074 183.506 526.313 184.372 526.746C185.237 527.179 185.237 529.775 185.237 529.775C185.237 529.775 186.536 531.074 186.536 532.372C186.536 533.67 185.67 536.7 183.506 538.864C181.342 541.461 176.581 541.894 176.581 541.894L173.119 535.834C172.686 536.267 173.552 534.969 175.283 533.238Z" fill="#FFC6A0"/>
<path d="M140.226 486.063C140.659 480.004 151.911 475.243 147.583 469.184C146.285 467.02 143.688 466.154 141.092 465.721C137.196 464.856 133.301 465.289 129.839 466.154C126.376 467.02 122.914 469.184 119.884 470.915C115.989 473.079 112.094 475.243 110.363 479.138C108.632 482.6 109.065 486.496 108.199 490.391C106.901 495.584 103.438 500.345 100.841 505.106C98.2447 509.867 96.5135 515.926 99.543 520.686C101.274 523.716 105.169 525.88 107.333 528.91C110.363 533.238 110.796 538.864 114.258 542.759C116.855 545.789 121.183 547.087 125.078 545.789C128.973 544.49 132.003 541.461 132.868 537.133C133.301 534.103 132.436 530.641 133.301 527.611C135.032 521.985 141.524 518.522 141.524 512.896C141.524 509.434 138.928 506.837 138.928 503.375C138.928 500.345 141.524 497.748 141.957 494.286C142.39 491.689 141.524 489.092 141.092 486.928C140.226 486.928 140.226 486.496 140.226 486.063Z" fill="#103450"/>
<path opacity="0.3" d="M697.403 603.445L635.946 567.955C633.349 566.224 628.588 566.224 625.992 567.955L564.967 603.445C562.371 605.176 562.371 607.773 564.967 609.071L626.424 644.56C629.021 646.291 633.782 646.291 636.379 644.56L697.403 609.071C700.433 607.34 700.433 604.743 697.403 603.445Z" fill="#A266DE"/>
<path d="M697.404 523.378C700 525.109 700 527.705 697.404 529.004L636.379 564.493C633.783 566.224 629.022 566.224 626.425 564.493L564.968 529.004C562.371 527.273 562.371 524.676 564.968 523.378L625.992 487.888C628.589 486.157 633.35 486.157 635.947 487.888L697.404 523.378Z" fill="white"/>
<path d="M631.619 560.165C630.753 560.165 629.887 559.732 629.455 559.732L571.46 526.407L629.022 493.082C629.455 493.082 630.32 492.649 631.186 492.649C632.051 492.649 632.917 493.082 633.35 493.082L691.344 526.407L633.783 559.732C633.783 560.165 632.917 560.165 631.619 560.165Z" fill="url(#paint6_linear)"/>
<path d="M699.567 537.227C699.567 537.227 700 537.227 699.567 537.227C700 536.794 700 536.794 699.567 537.227C700 536.794 700 536.794 700 536.794C700 536.361 700 536.361 700 535.928L699.567 526.407C699.567 526.84 699.567 526.84 699.567 527.273V527.705V528.138L699.135 528.571C699.135 528.571 699.135 528.571 698.702 529.004C698.269 529.004 698.269 529.437 697.836 529.437L636.812 564.926C636.379 564.926 635.946 565.359 635.514 565.359H635.081C634.648 565.359 634.648 565.359 634.215 565.791C633.782 565.791 633.782 565.791 633.35 565.791H632.917C632.484 565.791 632.484 565.791 632.051 565.791H631.618C631.186 565.791 630.753 565.791 630.32 565.791C630.32 565.791 630.32 565.791 629.887 565.791C629.454 565.791 629.454 565.791 629.022 565.791C628.589 565.791 628.589 565.791 628.156 565.359H627.723C627.29 565.359 626.858 564.926 626.425 564.926L564.968 529.437C563.669 528.571 562.804 527.705 562.804 526.407L563.237 535.928C563.237 536.794 564.102 538.092 565.401 538.958L626.858 574.447C627.29 574.447 627.723 574.88 628.156 574.88H628.589C629.022 574.88 629.022 574.88 629.454 575.313C629.887 575.313 629.887 575.313 630.32 575.313C630.32 575.313 630.32 575.313 630.753 575.313C631.186 575.313 631.618 575.313 632.051 575.313H632.484C632.917 575.313 632.917 575.313 633.35 575.313H633.782H634.215C634.648 575.313 634.648 575.313 635.081 574.88H635.514C635.946 574.88 636.379 574.447 636.812 574.447L697.836 538.958C698.269 538.958 698.269 538.525 698.702 538.525C698.702 538.525 698.702 538.525 699.135 538.092C699.135 537.66 699.567 537.66 699.567 537.227C699.567 537.66 699.567 537.227 699.567 537.227Z" fill="#DFCBFA"/>
<path d="M191.729 410.756C199.952 414.652 206.444 410.756 206.444 402.1C206.444 393.445 199.952 383.057 191.729 379.162C183.505 375.267 177.014 379.162 177.014 387.818C177.014 396.474 183.505 406.861 191.729 410.756ZM191.729 380.028C199.086 383.49 205.145 393.012 205.145 401.235C205.145 409.458 199.086 412.92 191.729 409.458C184.371 405.996 178.312 396.474 178.312 388.251C178.312 380.028 184.371 376.565 191.729 380.028Z" fill="#F9F9F9"/>
<path d="M225.919 413.353V414.652L244.097 423.74L212.503 442.351C209.04 431.963 201.25 422.009 191.728 417.248C179.177 411.189 168.79 417.248 168.79 431.098V443.649V444.082L169.656 444.947L189.564 433.262L201.25 451.439L212.503 444.947C213.368 447.544 213.368 450.141 213.368 452.738C213.368 452.738 213.368 462.259 213.368 464.856L183.072 450.141V451.439L214.667 467.02V466.154C214.667 466.154 214.667 454.469 214.667 453.17C214.667 450.141 214.234 447.111 213.368 444.082L244.962 425.471V444.947L246.261 445.38V423.74L225.919 413.353ZM200.817 448.842L189.564 430.665L170.089 442.351V431.098C170.089 418.114 179.61 412.488 191.728 418.114C200.817 422.442 208.607 432.396 211.637 442.351L200.817 448.842ZM244.962 424.173L244.529 423.74L244.962 424.173Z" fill="#F9F9F9"/>
<path d="M242.372 550.549L242 590.799L300.422 619.797L300.794 579.547L242.372 550.549ZM299.305 618.498L242.744 590.367L243.116 551.848L299.678 579.98L299.305 618.498Z" fill="#0045F2"/>
<path d="M270.653 601.619L271.769 602.052V586.039L297.073 598.157V597.291L271.769 585.173L272.141 568.727L271.025 568.294V584.74L245.721 572.189V573.055L271.025 585.606L270.653 601.619Z" fill="#0045F2"/>
<path d="M281.071 580.412L279.955 579.98V585.606L280.699 586.039L281.071 580.412Z" fill="#0045F2"/>
<path d="M286.282 584.74L285.538 584.308L285.166 588.203L286.282 588.636V584.74Z" fill="#0045F2"/>
<path d="M291.492 585.606L290.748 585.173V590.799L291.492 591.232V585.606Z" fill="#0045F2"/>
<path d="M278.095 580.845L277.35 580.412V583.875L278.095 584.74V580.845Z" fill="#0045F2"/>
<path d="M288.887 581.711L288.143 581.278V589.501L288.887 589.934V581.711Z" fill="#0045F2"/>
<path d="M264.699 567.861V566.996L253.908 561.802V562.668L264.699 567.861Z" fill="#0045F2"/>
<path d="M264.699 572.622V571.756L253.908 566.13V566.996L264.699 572.622Z" fill="#0045F2"/>
<path d="M264.699 576.95V576.084L253.908 570.891V571.756L264.699 576.95Z" fill="#0045F2"/>
<path d="M283.678 577.383L282.933 576.95L282.561 586.904L283.678 587.337V577.383Z" fill="#0045F2"/>
<path d="M288.886 603.35L289.631 603.783V608.977L288.514 608.544L288.886 603.35Z" fill="#0045F2"/>
<path d="M283.305 604.216L284.049 604.649V606.38L283.305 605.947V604.216Z" fill="#0045F2"/>
<path d="M278.096 595.993L278.84 596.426V603.783L278.096 603.35V595.993Z" fill="#0045F2"/>
<path d="M291.492 602.052L292.236 602.485V610.275L291.492 609.842V602.052Z" fill="#0045F2"/>
<path d="M280.701 600.321L281.445 600.754V605.082L280.701 604.649V600.321Z" fill="#0045F2"/>
<path d="M286.282 596.426L287.026 596.859V607.679L285.91 607.246L286.282 596.426Z" fill="#0045F2"/>
<path d="M259.117 607.245L282.188 618.931V618.065L259.117 606.38V607.245Z" fill="#0045F2"/>
<path d="M250.931 562.235C250.187 561.802 249.443 560.937 249.443 560.071C249.443 559.205 250.187 558.773 250.931 559.205C251.675 559.638 252.419 560.504 252.419 561.369C252.419 562.235 251.675 562.668 250.931 562.235ZM250.931 560.071C250.559 560.071 250.559 560.071 250.559 560.504C250.559 560.937 250.931 561.369 250.931 561.369C251.303 561.369 251.303 561.369 251.303 560.937C251.303 560.504 251.303 560.504 250.931 560.071Z" fill="#0045F2"/>
<path d="M250.931 566.563C250.187 566.13 249.443 565.265 249.443 564.399C249.443 563.533 250.187 563.101 250.931 563.533C251.675 563.966 252.419 564.832 252.419 565.697C252.419 566.563 251.675 566.996 250.931 566.563ZM250.931 564.399C250.559 564.399 250.559 564.399 250.559 564.832C250.559 565.264 250.931 565.697 250.931 565.697C250.931 565.697 251.303 565.697 251.303 565.265C251.303 564.832 251.303 564.832 250.931 564.399Z" fill="#0045F2"/>
<path d="M250.931 570.891C250.187 570.458 249.443 569.592 249.443 568.727C249.443 567.861 250.187 567.428 250.931 567.861C251.675 568.294 252.419 569.16 252.419 570.025C252.419 570.891 251.675 571.324 250.931 570.891ZM250.931 569.16C250.559 569.16 250.559 569.16 250.559 569.592C250.559 570.025 250.931 570.458 250.931 570.458C251.303 570.458 251.303 570.458 251.303 570.025C251.303 569.592 251.303 569.16 250.931 569.16Z" fill="#0045F2"/>
<path d="M264.699 587.77V586.904L253.908 581.278V582.576L264.699 587.77Z" fill="#0045F2"/>
<path d="M264.699 592.098V591.232L253.908 586.039V586.904L264.699 592.098Z" fill="#0045F2"/>
<path d="M264.327 596.859V595.56L253.908 590.367V591.232L264.327 596.859Z" fill="#0045F2"/>
<path d="M250.558 581.711C249.814 581.278 249.07 580.412 249.07 579.547C249.07 578.681 249.814 578.248 250.558 578.681C251.302 579.114 252.046 579.98 252.046 580.845C252.046 581.711 251.674 582.144 250.558 581.711ZM250.558 579.98C250.186 579.98 250.186 579.98 250.186 580.412C250.186 580.845 250.558 581.278 250.558 581.278C250.93 581.278 250.93 581.278 250.93 580.845C250.93 580.413 250.93 579.98 250.558 579.98Z" fill="#0045F2"/>
<path d="M250.558 586.039C249.814 585.606 249.07 584.74 249.07 583.875C249.07 583.009 249.814 582.576 250.558 583.009C251.302 583.442 252.046 584.308 252.046 585.173C252.046 586.039 251.302 586.472 250.558 586.039ZM250.558 584.308C250.186 584.308 250.186 584.308 250.186 584.74C250.186 585.173 250.558 585.606 250.558 585.606C250.558 585.606 250.93 585.606 250.93 585.173C251.302 584.74 250.93 584.308 250.558 584.308Z" fill="#0045F2"/>
<path d="M250.558 590.799C249.814 590.366 249.07 589.501 249.07 588.635C249.07 587.77 249.814 587.337 250.558 587.77C251.302 588.203 252.046 589.068 252.046 589.934C252.046 590.799 251.302 590.799 250.558 590.799ZM250.558 588.635C250.186 588.635 250.186 588.635 250.186 589.068C250.186 589.501 250.558 589.934 250.558 589.934C250.558 589.934 250.93 589.934 250.93 589.501C250.93 589.068 250.93 588.635 250.558 588.635Z" fill="#0045F2"/>
<path d="M611.71 516.453C609.113 516.453 605.65 516.453 603.919 516.453C613.441 511.692 626.857 509.095 639.841 510.394C660.183 512.558 672.301 522.512 667.107 532.899C667.107 532.899 667.107 533.332 666.675 533.332H667.973C667.973 533.332 667.973 532.899 668.406 532.899C674.032 522.079 661.481 511.692 640.274 509.528C627.29 508.23 613.441 510.826 603.486 515.587C603.486 515.154 603.486 513.856 603.486 511.692H602.188C602.188 513.423 602.188 516.02 602.188 516.02C602.621 516.02 603.486 516.02 611.71 516.02V516.453Z" fill="#124AFF"/>
<path d="M657.153 546.749L657.586 542.421H647.632V542.853H655.422C645.901 547.614 632.917 549.345 620.798 548.48C600.89 546.749 588.338 536.361 593.532 525.974H592.234C588.339 533.332 593.532 540.689 603.919 545.45C608.247 547.181 613.874 548.48 619.933 549.345C632.484 550.644 645.9 548.48 655.855 543.719L655.422 547.181L657.153 546.749Z" fill="#124AFF"/>
<path d="M638.975 538.958L639.408 539.391C642.005 538.525 644.169 537.66 646.333 536.361L660.182 528.138H659.75C659.75 528.138 654.123 525.974 651.526 524.243C649.362 522.512 647.631 519.05 647.631 519.05H647.198C647.198 519.05 639.841 518.617 635.946 517.751C632.051 516.886 626.424 514.289 626.424 514.289H625.992L612.142 522.512C604.785 526.84 603.486 533.332 608.247 538.093L610.411 540.257L615.604 541.122C617.768 541.555 619.932 541.555 622.096 541.555V541.122C619.932 541.122 617.768 540.689 616.037 540.689L611.276 539.824L609.113 537.66C604.352 532.899 605.65 526.84 612.575 522.512L625.559 514.722C626.857 515.154 631.618 517.318 635.08 517.751C638.543 518.617 644.602 519.05 646.333 519.05C646.766 519.915 648.497 522.512 650.661 524.243C652.825 525.974 657.153 527.706 658.451 528.138L645.467 535.929C643.736 537.227 641.572 538.093 638.975 538.958Z" fill="#124AFF"/>
<path d="M632.051 535.063L633.349 536.361H634.215C635.08 536.361 635.946 535.929 636.812 535.929C637.677 535.496 638.543 535.496 638.976 535.063L639.841 534.63L638.543 533.332C638.976 532.899 639.408 532.899 639.841 532.466L642.871 532.899L643.304 532.466C644.169 531.601 644.602 530.735 645.035 529.87V529.437L642.005 529.004C642.005 528.571 642.005 528.138 642.005 528.138L644.602 527.273L644.169 526.84C643.736 526.407 643.736 525.974 643.304 525.542C642.871 525.109 642.438 524.676 642.005 524.243L641.572 523.81L638.976 524.676C638.543 524.243 638.11 524.243 637.244 523.81L638.11 522.512H637.244C635.513 522.079 633.782 522.079 632.051 521.646H631.185L630.32 522.945C629.454 522.945 629.021 522.945 628.156 522.945L626.857 521.646H625.992C625.126 521.646 624.261 522.079 623.395 522.079C622.529 522.512 621.664 522.512 621.231 522.945L620.366 523.378L621.664 524.676C621.231 525.109 620.798 525.109 620.366 525.542L617.336 525.109L616.903 525.542C616.037 526.407 615.605 527.273 615.172 528.138V528.571L618.202 529.004C618.202 529.437 618.202 529.87 618.202 529.87L615.605 531.601L616.038 532.033C616.47 532.466 616.47 532.899 616.903 533.332C617.336 533.765 617.769 534.197 618.202 534.63L618.634 535.063L621.231 534.197C621.664 534.63 622.097 534.63 622.962 534.63L622.097 535.929H622.962C624.693 536.361 626.425 536.361 628.156 536.794H629.021L629.887 535.496C630.752 535.496 631.618 535.496 632.051 535.063ZM629.887 534.63H629.454L628.589 535.929C626.857 535.929 625.559 535.496 624.261 535.496L625.126 534.197H624.693C623.828 533.765 623.395 533.765 622.529 533.332H622.097L619.5 534.197C619.067 533.765 618.634 533.765 618.202 533.332C617.769 532.899 617.769 532.466 617.336 532.033L619.933 531.168V530.735C619.933 530.302 619.5 529.87 619.933 529.437V529.004L617.336 528.571C617.769 527.706 618.202 526.84 618.634 526.407L621.231 526.84H621.664C622.097 526.407 622.962 525.974 623.395 525.542H623.828L622.529 524.243C622.962 523.81 623.828 523.81 624.693 523.378C625.559 523.378 625.992 522.945 626.857 522.945L628.156 524.243H628.589C629.454 524.243 630.32 524.243 631.185 524.243H631.618L632.484 522.945C634.215 522.945 635.513 523.378 636.812 523.378L635.946 524.676H636.379C637.244 525.109 637.677 525.109 638.543 525.542H638.976L641.572 524.676C642.005 525.109 642.438 525.109 642.871 525.542C643.303 525.974 643.304 526.407 643.736 526.407L641.14 527.273V527.706C641.14 528.138 641.572 528.571 641.14 529.004V529.437L643.736 529.87C643.304 530.735 642.871 531.601 642.438 532.033L639.841 531.601H639.408C638.976 532.033 638.11 532.466 637.677 532.899H637.244L638.543 534.197C638.11 534.63 637.244 534.63 636.379 535.063C635.513 535.063 635.08 535.496 634.215 535.496L632.916 534.197H632.484C631.618 534.63 630.752 534.63 629.887 534.63Z" fill="#124AFF"/>
<path d="M632.484 544.152C632.484 544.152 632.916 544.152 633.349 544.152C633.782 544.152 634.215 544.152 634.648 543.719C635.08 543.719 635.513 543.286 635.513 543.286C635.946 543.286 635.946 542.853 635.513 542.853L635.08 542.421C635.08 542.421 635.08 542.421 635.513 542.421H636.379C636.812 542.421 636.812 542.421 637.244 542.421C637.677 541.988 637.677 541.555 638.11 541.122C638.11 541.122 638.11 540.689 637.677 540.689H636.812H637.677C638.11 540.689 638.11 540.257 638.11 540.257L637.677 539.824L637.244 539.391C637.244 539.391 636.812 539.391 636.379 539.391H635.513C635.513 539.391 635.513 539.391 635.08 539.391L635.513 538.958C635.513 538.958 635.513 538.525 635.08 538.525C634.215 538.525 633.782 538.093 632.916 538.093C632.484 538.093 632.484 538.093 632.051 538.525L631.618 538.958H631.185L630.753 538.525C630.753 538.525 630.32 538.525 629.887 538.525C629.454 538.525 629.021 538.525 628.589 538.958C628.156 538.958 627.723 539.391 627.723 539.391C627.29 539.391 627.29 539.824 627.723 539.824L628.156 540.257C628.156 540.257 628.156 540.257 627.723 540.257H626.857C626.425 540.257 626.425 540.257 625.992 540.257C625.559 540.689 625.559 541.122 625.126 541.555C625.126 541.555 625.126 541.988 625.559 541.988H626.425H625.559C625.126 541.988 625.126 542.421 625.126 542.421L625.559 542.853L625.992 543.286C625.992 543.286 626.425 543.286 626.857 543.286H627.723C627.723 543.286 627.723 543.286 628.156 543.286L627.723 543.719C627.723 543.719 627.723 544.152 628.156 544.152C629.021 544.152 629.454 544.585 630.32 544.585C630.752 544.585 630.753 544.585 631.185 544.152L631.618 543.719C632.051 543.719 632.051 543.719 632.484 544.152ZM632.484 542.853C632.051 542.853 631.618 542.853 631.618 542.853C631.185 542.853 631.185 542.853 631.185 543.286L630.753 543.719C630.32 543.719 629.887 543.719 629.454 543.719L629.887 543.286C629.887 543.286 629.887 542.853 629.454 542.853C629.021 542.853 629.021 542.853 628.589 542.421C628.589 542.421 628.156 542.421 627.723 542.421H627.29C627.29 542.421 627.29 542.421 626.857 541.988C626.857 541.988 626.857 541.988 626.425 541.555H626.857C627.29 541.555 627.29 541.122 627.29 541.122V540.689C627.29 540.689 627.29 540.257 626.857 540.257H625.992C625.992 540.257 625.992 539.824 626.425 539.824H627.29C627.723 539.824 627.723 539.824 628.156 539.824C628.156 539.824 628.589 539.391 629.021 539.391C629.021 539.391 629.454 538.958 629.021 538.958L628.589 538.525H629.021H629.454L629.887 538.958C629.887 538.958 630.32 538.958 630.753 538.958C631.185 538.958 631.618 538.958 631.618 538.958C632.051 538.958 632.051 538.958 632.051 538.525L632.484 538.093C632.916 538.093 633.349 538.093 633.782 538.093L633.349 538.525C633.349 538.525 633.349 538.958 633.782 538.958C634.215 538.958 634.215 538.958 634.648 539.391C634.648 539.391 635.08 539.391 635.513 539.391H635.946C635.946 539.391 636.379 539.391 636.379 539.824C636.379 539.824 636.379 539.824 636.812 540.257H636.379C635.946 540.257 635.946 540.689 635.946 540.689V541.122C635.946 541.122 635.946 541.555 636.379 541.555H637.244C637.244 541.555 637.244 541.988 636.812 541.988H635.946C635.513 541.988 635.513 541.988 635.08 541.988C635.08 541.988 634.648 542.421 634.215 542.421C634.215 542.421 633.782 542.853 634.215 542.853L634.648 543.286H634.215H633.782L633.349 542.853C632.916 542.853 632.916 542.853 632.484 542.853Z" fill="#124AFF"/>
<path d="M633.35 527.705C631.618 526.84 628.589 527.273 626.858 528.138C625.127 529.004 625.559 530.735 627.291 531.168C629.022 532.033 632.051 531.601 633.782 530.735C635.081 529.869 635.081 528.138 633.35 527.705ZM628.156 530.735C626.858 530.302 626.858 529.004 627.723 528.571C629.022 527.705 630.753 527.705 632.051 528.138C633.349 528.571 633.35 529.869 632.484 530.302C631.618 531.168 629.454 531.168 628.156 530.735Z" fill="#124AFF"/>
<path d="M463.642 315.508C462.776 307.718 458.448 300.361 451.956 293.436C453.687 292.137 454.553 290.839 454.12 289.108C453.687 285.646 448.926 282.616 443.733 282.616C438.107 282.616 434.211 285.213 434.211 288.675C434.644 292.137 439.405 295.167 444.599 295.167C446.33 295.167 448.061 294.734 449.359 294.301C455.419 300.793 459.314 307.718 460.179 315.076C461.91 328.925 451.956 341.476 433.779 349.699C431.615 348.401 428.585 347.535 425.556 347.535C419.496 347.535 414.736 350.132 414.736 353.594C414.736 357.057 419.929 360.086 425.988 360.086C432.048 360.086 436.808 357.49 436.808 354.027C436.808 353.162 436.375 352.296 435.51 351.431C454.986 343.207 465.373 329.791 463.642 315.508ZM437.241 289.108C437.241 286.511 439.838 284.78 443.733 284.78C447.628 284.78 451.091 286.944 451.091 289.108C451.523 291.705 448.494 293.436 444.599 293.436C440.703 293.436 437.674 291.705 437.241 289.108ZM426.421 358.788C422.093 358.788 418.631 356.624 418.198 354.46C418.198 351.863 421.66 350.132 425.988 350.132C430.316 350.132 433.779 352.296 434.211 354.46C434.644 356.624 430.749 358.788 426.421 358.788Z" fill="#F9F4F9"/>
<path d="M440.271 315.508C438.972 298.629 416.034 284.347 389.633 284.347C374.053 284.347 358.905 289.108 349.383 297.331C348.085 296.898 347.22 296.898 345.921 296.898C340.295 296.898 335.534 299.495 335.101 302.957C334.668 306.42 338.996 309.449 344.623 309.449C350.249 309.449 355.01 306.852 355.443 303.39C355.443 301.226 354.144 299.495 351.98 298.197C361.069 290.406 374.918 286.078 389.633 286.078C414.736 286.511 435.943 299.495 437.241 315.508C438.539 331.522 416.9 344.506 389.201 344.506C370.158 344.506 353.279 338.014 345.488 328.059C349.383 327.194 352.413 325.03 352.846 322C353.279 318.538 348.518 315.508 342.892 315.508C337.265 315.508 332.072 318.105 332.072 322C331.639 325.463 336.4 328.492 342.026 328.492C342.459 328.492 342.459 328.492 342.892 328.492C350.682 339.312 369.292 346.237 389.633 346.237C418.631 346.237 441.569 332.387 440.271 315.508ZM351.98 302.525C351.98 305.121 348.518 306.852 344.623 306.852C340.728 306.852 337.698 304.688 337.698 302.092C337.698 299.495 341.16 297.764 345.056 297.764C349.383 298.197 352.413 300.361 351.98 302.525ZM334.668 321.568C335.101 318.971 338.564 317.24 342.459 317.24C346.354 317.24 349.816 319.404 349.383 322C349.383 324.597 345.921 326.328 341.593 326.328C337.265 326.328 334.668 324.164 334.668 321.568Z" fill="#F9F4F9"/>
<path d="M337.698 272.661C342.891 272.661 347.652 270.065 347.652 266.602C347.652 265.737 347.652 264.871 347.219 264.006C360.203 259.245 374.918 257.081 389.633 257.081C420.795 257.514 450.225 268.766 468.402 287.377C466.238 288.675 465.373 290.406 465.373 292.137C465.805 295.6 470.566 298.629 476.193 298.629C481.819 298.629 485.714 296.032 485.281 292.57C484.848 289.108 479.655 286.078 474.461 286.078C473.163 286.078 471.865 286.078 470.566 286.511C451.956 267.901 421.227 255.782 389.633 255.35C374.485 255.35 359.338 257.514 345.921 262.274C344.19 260.976 341.593 260.11 338.996 259.678C333.803 259.678 329.042 262.274 329.042 265.737C328.176 269.632 332.071 272.229 337.698 272.661ZM482.252 292.137C482.685 294.734 479.655 296.465 475.76 296.465C471.865 296.465 468.402 294.301 467.969 292.137C467.537 289.973 470.566 287.809 474.461 287.809C478.357 287.377 481.819 289.541 482.252 292.137ZM338.563 261.409C342.459 261.409 345.055 263.573 345.055 266.17C345.055 268.766 341.593 270.497 337.698 270.497C333.803 270.497 331.206 268.334 331.206 265.737C331.639 263.573 334.668 261.409 338.563 261.409Z" fill="#F9F4F9"/>
<path d="M403.915 306.42C409.542 306.42 413.87 303.823 413.87 300.36C413.87 296.898 409.109 293.869 403.483 293.869C400.02 293.869 396.991 294.734 395.259 296.465C393.095 296.033 391.364 296.033 389.2 296.033C372.754 296.033 358.904 304.256 358.472 314.643C358.039 325.03 371.888 333.686 389.2 333.686C402.617 333.686 414.303 328.925 418.631 321.568C418.631 321.568 418.631 321.568 419.063 321.568C424.69 321.568 429.45 318.971 429.018 315.508C428.585 312.046 423.824 309.016 418.198 309.016C412.571 309.016 407.811 311.613 408.243 315.076C408.243 317.672 411.273 320.269 415.601 321.135C411.706 327.627 401.319 331.955 389.2 331.955C373.62 331.955 361.068 324.164 361.501 314.643C361.934 305.121 374.485 297.764 389.2 297.764C390.932 297.764 392.23 297.764 393.961 298.196C393.528 298.629 393.528 299.495 393.528 299.928C393.528 303.39 398.289 306.42 403.915 306.42ZM411.273 315.076C411.273 312.479 414.303 310.748 418.631 310.748C422.526 310.748 425.988 312.912 425.988 315.076C425.988 317.672 422.958 319.404 418.631 319.404C414.735 319.404 411.273 317.672 411.273 315.076ZM403.915 295.6C407.811 295.6 411.273 297.764 411.273 299.928C411.273 302.524 408.243 304.256 404.348 304.256C400.453 304.256 396.991 302.092 396.991 299.928C396.991 297.764 399.587 295.6 403.915 295.6Z" fill="#F9F4F9"/>
<path d="M426.421 284.347C432.047 284.347 435.942 281.75 435.942 278.288C435.51 274.826 431.182 271.796 425.988 271.796C422.959 271.796 420.362 272.662 418.631 273.96C409.542 270.93 399.588 269.632 389.633 269.632C351.547 269.199 318.222 289.541 315.192 314.643C312.163 336.715 338.563 356.191 376.649 359.654C377.082 363.116 381.843 365.713 387.902 365.713C393.961 365.713 399.155 363.116 399.155 359.221C399.155 355.758 393.961 352.729 387.902 352.729C382.709 352.729 378.381 354.893 377.082 357.49C340.727 354.027 315.625 335.417 318.222 314.21C321.251 289.973 353.278 270.93 389.633 271.363C399.155 271.363 408.244 272.662 416.899 275.691C416.467 276.557 416.034 277.422 416.034 278.288C416.467 281.75 420.795 284.347 426.421 284.347ZM387.469 354.893C391.797 354.893 395.26 357.057 395.26 359.221C395.26 361.818 391.797 363.549 387.469 363.549C383.141 363.549 379.679 361.385 379.679 359.221C379.679 357.057 383.141 354.893 387.469 354.893ZM425.555 273.527C429.451 273.527 432.48 275.691 432.913 277.855C432.913 280.452 430.316 282.183 426.421 282.183C422.526 282.183 419.496 280.019 419.063 277.855C419.063 275.691 422.093 273.527 425.555 273.527Z" fill="#F9F4F9"/>
<path d="M495.236 310.315C494.803 306.852 489.609 303.823 483.983 303.823C478.357 303.823 474.029 306.42 474.894 309.882C475.327 312.912 479.655 315.508 484.848 315.941C489.176 347.535 446.33 372.637 389.201 372.637C383.574 372.637 377.515 372.205 371.889 371.772C371.889 371.339 371.889 371.339 371.889 370.906C371.889 367.444 367.128 364.414 360.636 364.414C354.577 364.414 349.383 367.011 348.95 370.906C348.518 374.369 353.711 377.398 360.203 377.398C364.964 377.398 368.859 375.667 370.59 373.503C376.649 373.936 382.709 374.369 388.768 374.369C448.061 374.369 491.773 348.401 487.445 315.941C492.639 315.941 496.101 313.344 495.236 310.315ZM360.636 375.667C356.308 375.667 352.846 373.503 352.846 371.339C352.846 368.742 356.741 367.011 361.069 367.011C365.397 367.011 368.859 369.175 368.859 371.339C368.859 373.503 364.964 375.667 360.636 375.667ZM485.714 314.643C481.819 314.643 477.924 312.479 477.924 310.315C477.491 307.718 480.521 305.987 484.416 305.987C488.311 305.987 492.206 308.151 492.206 310.315C492.639 312.912 490.042 314.643 485.714 314.643Z" fill="#F9F4F9"/>
<path d="M329.475 356.624C326.878 356.624 324.282 357.057 322.118 358.355C301.343 347.102 291.389 331.089 294.419 314.21C296.15 303.823 302.209 293.436 311.73 284.78C312.596 285.212 313.894 285.212 315.193 285.212C320.819 285.212 325.58 282.616 326.013 279.153C326.446 275.691 322.55 272.661 316.924 272.661C311.298 272.661 306.97 275.258 306.104 278.721C305.671 280.885 306.97 282.616 309.134 283.914C299.179 293.003 292.687 303.823 290.956 314.21C287.927 331.522 298.314 347.968 319.521 359.653C318.222 360.519 317.357 361.817 317.357 363.116C316.924 366.578 321.685 369.608 328.177 369.608C334.669 369.608 339.862 367.011 339.862 363.116C340.295 359.653 335.534 357.057 329.475 356.624ZM308.701 278.721C309.134 276.124 312.596 274.393 316.058 274.393C319.521 274.393 322.55 276.557 322.55 279.153C322.118 281.75 319.088 283.481 315.193 283.481C311.298 283.048 308.268 281.317 308.701 278.721ZM328.177 367.877C323.849 367.877 320.386 365.713 320.819 363.549C321.252 360.952 324.714 359.221 329.042 359.221C333.37 359.221 336.833 361.385 336.4 363.549C335.967 365.713 332.937 367.877 328.177 367.877Z" fill="#F9F4F9"/>
<path d="M32.4594 454.901C34.6234 453.17 36.3545 450.141 36.3545 446.678C36.3545 442.35 32.8922 439.321 28.997 440.186C25.1018 441.052 22.0723 445.38 22.0723 449.708C22.0723 452.737 23.8035 455.334 26.4002 456.2C21.6395 458.797 18.177 464.423 18.177 470.915V471.78L41.1153 467.02V466.154C41.1153 459.662 37.6529 455.334 32.4594 454.901ZM23.8034 449.275C23.8034 445.813 25.9674 442.35 29.4298 441.918C32.4594 441.485 35.0562 443.649 35.0562 447.111C35.0562 450.573 32.8922 454.036 29.4298 454.469C26.4002 455.334 23.8034 452.737 23.8034 449.275ZM19.9083 469.616C19.9083 463.557 24.2362 457.931 29.8626 456.633C35.0561 455.334 39.8169 459.662 40.2497 465.289L19.9083 469.616Z" fill="#DC52E3"/>
<path d="M58.4269 449.275C60.5909 447.544 62.3221 444.514 62.3221 441.052C62.3221 436.724 58.8597 433.695 54.9646 434.56C51.0694 435.426 48.0398 439.754 48.0398 444.082C48.0398 447.111 49.771 449.708 52.3678 450.574C47.607 453.17 44.1446 458.797 44.1446 465.289V466.154L67.0829 461.393V460.528C67.0829 454.469 63.6205 450.141 58.4269 449.275ZM49.771 444.082C49.771 440.619 51.935 437.157 55.3974 436.724C58.8598 436.291 61.0238 438.455 61.0238 441.918C61.0238 445.38 58.8598 448.842 55.3974 449.275C51.935 449.708 49.771 447.544 49.771 444.082ZM45.8759 463.99C45.8759 457.931 50.2038 452.305 55.8301 451.006C61.4565 449.708 65.7845 454.036 66.2173 459.662L45.8759 463.99Z" fill="#DC52E3"/>
<path d="M84.395 444.082C86.5589 442.351 88.2901 439.321 88.2901 435.859C88.2901 431.531 84.8278 428.501 80.9326 429.367C77.0375 430.232 74.008 434.56 74.008 438.888C74.008 441.918 75.7391 444.515 78.3359 445.38C73.5752 447.977 70.1128 453.603 70.1128 460.095V460.961L93.0508 456.2V455.334C93.0508 449.275 89.1557 444.515 84.395 444.082ZM75.3063 438.888C75.3063 435.426 77.4703 431.963 80.9326 431.531C83.9622 431.098 86.5589 433.262 86.5589 436.724C86.5589 440.187 84.395 443.649 80.9326 444.082C78.3359 444.515 75.7391 442.351 75.3063 438.888ZM71.4112 458.797C71.4112 452.738 75.7391 447.111 81.3654 445.813C86.559 444.515 91.3197 448.842 91.7524 454.469L71.4112 458.797Z" fill="#DC52E3"/>
<path d="M24.6688 407.294C25.1016 407.294 25.1016 407.294 25.5344 406.861L29.4296 415.517C28.9968 416.383 28.5641 417.248 28.5641 418.114C28.5641 419.845 29.4296 420.711 30.728 421.143L27.2657 434.56L28.5641 434.993L32.0264 421.143C32.892 420.711 33.3248 420.278 33.7576 419.845L41.548 420.711V421.143C41.548 422.009 41.9807 422.875 42.4135 423.307C41.1151 424.606 38.9511 427.635 34.1904 434.56L35.056 435.426C38.0856 431.53 42.4136 425.471 43.7119 424.173C44.1447 424.173 44.5775 424.173 45.0103 424.173C45.4431 424.173 45.8759 423.74 45.8759 423.74L51.0695 433.262L52.3679 432.396L47.1743 422.875C47.6071 422.442 47.6071 421.576 48.0399 421.143L61.4566 418.547C61.8894 419.845 62.3222 420.278 63.6206 420.711L59.2926 430.232L60.591 430.665L65.3518 420.278C65.7846 420.278 66.2173 419.845 66.6501 419.412L74.8733 427.635L75.7389 426.337L67.0829 418.114C67.5157 417.681 67.5158 416.815 67.5158 416.383V415.95L74.8733 412.055C75.3061 412.487 76.1717 412.92 77.0373 412.487L80.0668 425.039L81.3652 424.606L78.3357 412.055C79.2013 411.189 80.0668 409.891 79.634 408.592C79.634 407.727 79.2012 406.861 78.7684 406.428L82.2308 396.474C82.6636 396.474 82.6636 396.474 83.0964 396.474C84.8276 396.041 86.126 394.31 86.126 392.146C86.126 390.415 84.8276 389.116 83.0964 389.116L80.0668 376.998C80.4996 376.133 80.9324 375.267 80.9324 373.969C80.9324 371.805 79.634 370.506 77.9029 370.939C76.6045 371.372 75.7388 372.237 75.3061 373.536H66.6501V373.103C66.6501 370.939 65.3517 369.641 63.6206 370.073C63.1878 370.073 62.3222 370.506 61.8894 370.939L56.263 367.044C56.6958 366.611 56.6958 365.746 56.6958 365.313C56.6958 363.149 55.3974 361.85 53.6662 362.283C51.935 362.716 50.6367 364.447 50.6367 366.611C50.6367 367.477 50.6367 367.909 51.0695 368.342L45.4431 374.401C45.0103 373.969 44.5775 373.969 43.7119 374.401C41.9808 374.834 40.6823 376.565 40.6823 378.729V379.162L32.0264 382.625C31.5936 381.759 30.2952 380.893 29.4296 381.326C27.6984 381.759 26.4001 383.49 26.4001 385.654C26.4001 386.52 26.8328 387.385 27.6984 388.251L25.1017 401.668C23.3705 402.1 22.0721 403.832 22.0721 405.996C21.6393 405.996 22.9377 407.294 24.6688 407.294ZM31.5936 418.979C30.728 418.979 29.8624 418.547 29.8624 417.248C29.8624 415.95 30.728 415.084 31.5936 415.084C32.4592 415.084 33.3248 415.517 33.3248 416.815C33.3248 418.114 32.4592 418.979 31.5936 418.979ZM34.6232 417.681C34.6232 417.248 34.6232 416.815 34.6232 416.815C34.6232 415.95 34.1904 415.084 33.3248 414.219L38.0856 402.966C38.5184 402.966 38.5184 402.966 38.9512 402.966L42.4135 417.248C41.9807 417.681 41.548 418.114 41.548 418.547L34.6232 417.681ZM41.9807 398.638C41.9807 398.205 41.9807 398.205 41.9807 397.772L51.0695 389.982C51.5023 390.415 51.9351 390.415 52.3679 390.415L52.8006 402.1C51.5022 402.533 50.6367 404.264 50.6367 405.996C50.6367 406.861 51.0694 407.727 51.5022 408.159L45.8759 416.383C45.4431 415.95 45.0103 415.95 44.1447 415.95C44.1447 415.95 44.1447 415.95 43.7119 415.95L40.2496 401.668C41.5479 401.235 42.4135 399.936 41.9807 398.638ZM45.4431 374.401L51.0695 368.342C51.5023 368.342 51.5023 368.775 51.9351 368.775L52.3679 383.923C51.9351 383.923 51.935 384.356 51.5022 384.356L45.4431 378.297C45.8759 377.431 45.8759 376.998 45.8759 376.133C46.3087 375.267 45.8759 374.834 45.4431 374.401ZM54.5319 367.477L60.1582 371.372C59.7254 371.805 59.7254 372.67 59.7254 373.536C59.7254 374.401 60.1582 374.834 60.591 375.7L54.9646 383.923C54.5318 383.923 54.5318 383.49 54.099 383.49L53.6662 368.342C53.6662 367.909 54.0991 367.909 54.5319 367.477ZM66.6501 396.474L63.6206 412.055C63.6206 412.055 63.6206 412.055 63.1878 412.055C62.755 412.055 61.8894 412.487 61.4566 412.92L55.3974 407.294C55.8302 406.428 56.263 405.563 56.263 404.697C56.263 402.966 54.9646 401.668 53.6662 401.668L53.2335 389.982C53.6663 389.549 54.0991 389.549 54.5319 388.684L64.0534 392.579C64.0534 393.012 64.0534 393.012 64.0534 393.444C64.919 395.176 65.7845 396.474 66.6501 396.474ZM69.6797 393.012C69.6797 393.877 68.8141 395.176 67.9485 395.176C67.0829 395.176 66.2174 394.743 66.2174 393.444C66.2174 392.146 67.0829 391.28 67.9485 391.28C68.8141 391.28 69.6797 391.713 69.6797 393.012ZM47.1743 417.681L52.8006 409.025C53.2334 409.025 53.2334 409.025 53.6662 409.025C54.099 409.025 54.5319 408.592 54.5319 408.592L60.591 414.651C60.591 415.084 60.1582 415.517 60.1582 415.95L46.7415 418.547C47.1743 418.114 47.1743 417.681 47.1743 417.681ZM51.5022 387.385C51.5022 386.52 52.3679 385.221 53.2335 385.221C54.0991 385.221 54.9646 385.654 54.9646 386.953C54.9646 388.251 54.0991 389.116 53.2335 389.116C52.3679 389.116 51.5022 388.251 51.5022 387.385ZM53.6662 403.399C54.5318 403.399 55.3974 403.832 55.3974 405.13C55.3974 406.428 54.5318 407.294 53.6662 407.294C52.8006 407.294 51.9351 406.861 51.9351 405.563C51.9351 404.264 52.8006 403.832 53.6662 403.399ZM38.9512 401.235C38.0856 401.235 37.22 400.802 37.22 399.504C37.22 398.205 38.0856 397.34 38.9512 397.34C39.8167 397.34 40.6823 397.772 40.6823 399.071C40.6823 399.936 40.2495 400.802 38.9512 401.235ZM42.8463 420.278C42.8463 419.412 43.7119 418.114 44.5775 418.114C45.4431 418.114 46.3087 418.547 46.3087 419.845C46.3087 420.711 45.4431 422.009 44.5775 422.009C43.7119 422.009 42.8463 421.143 42.8463 420.278ZM63.6206 417.681C62.755 417.681 61.8894 417.248 61.8894 415.95C61.8894 414.651 62.755 413.786 63.6206 413.786C64.4861 413.786 65.3518 414.219 65.3518 415.517C65.3518 416.815 64.4861 417.681 63.6206 417.681ZM66.2174 413.353C65.7846 412.92 65.7846 412.92 65.3518 412.487L68.3813 396.907C68.8141 396.907 68.8141 396.907 69.2469 396.474L74.8733 405.563C74.4405 406.428 74.0077 407.294 74.0077 408.592C74.0077 409.025 74.0077 409.458 74.0077 409.458L66.2174 413.353ZM76.6045 409.891C75.7389 409.891 74.8733 409.458 74.8733 408.159C74.8733 406.861 75.7389 405.996 76.6045 405.996C77.4701 405.996 78.3357 406.428 78.3357 407.727C77.9029 408.592 77.4701 409.891 76.6045 409.891ZM84.3948 391.28C84.3948 392.146 83.5292 393.444 82.6637 393.444C81.7981 393.444 80.9324 393.012 80.9324 391.713C80.9324 390.415 81.7981 389.549 82.6637 389.549C83.5292 389.549 84.3948 390.415 84.3948 391.28ZM81.3652 388.684C80.4997 389.549 79.634 390.848 79.634 392.146C79.634 393.444 80.0668 394.31 80.9324 394.743L77.47 404.264C77.0372 404.264 76.6045 404.264 76.1717 404.264C75.7389 404.264 75.7388 404.264 75.3061 404.697L69.6797 395.608C70.1125 394.743 70.5453 393.877 70.5453 393.012C70.5453 392.146 70.1125 391.28 69.6797 390.848L76.1717 377.864C76.6045 377.864 76.6045 377.864 77.0373 377.864C77.4701 377.864 77.4701 377.864 77.9029 377.431L81.3652 388.684ZM77.47 371.805C78.3356 371.805 79.2013 372.237 79.2013 373.536C79.2013 374.401 78.3356 375.7 77.47 375.7C76.6044 375.7 75.7389 375.267 75.7389 373.969C75.7389 372.67 76.6044 371.805 77.47 371.805ZM65.3518 373.969H74.0077C74.0077 374.834 74.4405 375.7 74.8733 376.133L68.3813 389.116C67.9485 389.116 67.9486 389.116 67.5158 389.116C66.6502 389.116 65.7846 389.982 65.3518 390.848L55.8302 386.953C55.8302 386.52 55.8302 386.087 55.8302 385.654C55.8302 384.789 55.8302 384.356 55.3974 383.923L61.0238 375.7C61.4566 375.7 61.8894 376.133 62.3221 375.7C64.0533 376.133 64.919 375.267 65.3518 373.969ZM64.4861 372.237C64.4861 373.103 63.6206 374.401 62.755 374.401C61.8894 374.401 61.0238 373.969 61.0238 372.67C61.0238 371.805 61.8894 370.506 62.755 370.506C63.6206 370.506 64.4861 371.372 64.4861 372.237ZM52.8006 363.149C53.6662 363.149 54.5319 363.582 54.5319 364.88C54.5319 366.178 53.6662 367.044 52.8006 367.044C51.935 367.044 51.0695 366.611 51.0695 365.313C51.0695 364.014 51.935 363.149 52.8006 363.149ZM42.8463 374.834C43.7119 374.834 44.5775 375.267 44.5775 376.565C44.5775 377.431 43.7119 378.729 42.8463 378.729C41.9807 378.729 41.1151 378.297 41.1151 376.998C41.1151 375.7 41.9807 374.834 42.8463 374.834ZM32.0264 383.057L40.6823 379.162C41.1151 380.028 42.4135 380.461 43.2791 380.028C43.7119 380.028 44.1447 379.595 44.5775 379.162L50.6367 385.221C50.2039 385.654 50.2039 386.52 50.2039 387.385C50.2039 387.818 50.2039 388.251 50.6367 388.684L41.548 396.041C41.1152 395.608 40.2496 395.176 39.384 395.176C38.9512 395.176 38.9511 395.176 38.5183 395.608L31.5936 385.221C31.5936 384.789 32.0264 383.923 32.0264 383.057ZM28.5641 381.759C29.4296 381.759 30.2952 382.192 30.2952 383.49C30.2952 384.789 29.4296 385.654 28.5641 385.654C27.6985 385.654 26.8328 385.221 26.8328 383.923C26.8328 382.625 27.6985 381.759 28.5641 381.759ZM28.9968 386.953C29.4296 386.953 29.8624 386.952 29.8624 386.52L36.7872 396.907C36.3544 397.772 35.9216 398.638 35.9216 399.504C35.9216 400.369 36.3544 401.235 36.7872 402.1L32.0264 413.353C31.5936 413.353 31.5936 413.353 31.1608 413.353C30.728 413.353 30.2952 413.786 29.8624 413.786L25.9672 405.563C26.8328 404.697 26.8328 403.832 26.8328 402.533C26.8328 401.235 25.9673 399.936 25.1017 399.504L27.6984 386.52C28.564 387.385 28.564 387.385 28.9968 386.953ZM24.2361 401.668C25.1017 401.668 25.9672 402.1 25.9672 403.399C25.9672 404.697 25.1017 405.563 24.2361 405.563C23.3705 405.563 22.5049 405.13 22.5049 403.832C22.5049 402.533 23.3705 401.668 24.2361 401.668Z" fill="#DC52E3"/>
<path d="M348.268 143.636C352.051 143.636 355.078 140.61 355.078 136.827C355.078 134.178 353.565 132.287 351.673 131.152L362.644 105.047C363.401 105.426 364.158 105.426 364.914 105.426C366.049 105.426 367.184 105.047 367.941 104.669L379.669 116.775C378.534 117.91 377.777 119.424 377.777 121.315C377.777 125.098 380.804 128.125 384.587 128.125C388.371 128.125 391.397 125.098 391.397 121.315C391.397 119.424 390.641 117.91 389.506 116.397L398.585 99.7507C401.612 101.264 404.639 102.021 408.422 102.021C410.692 102.021 412.962 101.642 415.232 100.886L425.446 123.963C426.203 125.855 428.095 126.99 429.986 127.747C430.743 128.125 431.5 128.125 431.878 128.125C433.013 128.125 434.526 127.747 435.661 126.99C437.553 125.855 438.688 124.342 439.066 122.072C439.445 120.18 439.066 117.91 437.931 116.397L423.176 96.3458C428.095 92.1842 431.121 86.131 431.121 79.3212C431.121 66.8364 420.907 57 408.8 57C396.694 57 386.479 67.2148 386.479 79.3212C386.479 87.6443 391.019 94.8325 397.829 98.6157L388.749 115.262C387.614 114.505 386.479 114.505 385.344 114.505C384.209 114.505 382.696 114.884 381.939 115.64L370.211 103.534C371.724 102.399 372.481 100.507 372.481 98.6157C372.481 94.8325 369.454 91.8059 365.671 91.8059C361.888 91.8059 358.861 94.8325 358.861 98.6157C358.861 100.886 359.996 102.777 361.888 104.291L350.916 130.395C350.16 130.395 349.781 130.017 349.025 130.017C345.241 130.017 342.215 133.043 342.215 136.827C341.458 140.61 344.485 143.636 348.268 143.636ZM421.663 98.2374L436.418 118.289C437.175 119.424 437.553 120.937 437.553 122.45C437.174 123.963 436.418 125.098 434.905 125.855C433.77 126.612 432.256 126.99 430.743 126.233C429.23 125.855 428.095 124.72 427.338 123.585L417.123 100.886L418.258 100.129C419.393 99.3724 420.528 98.994 421.663 98.2374ZM387.992 80.0778C387.992 68.7281 397.072 59.2699 408.8 59.2699C420.528 59.2699 429.608 68.3497 429.608 80.0778C429.608 86.8877 426.203 92.9408 420.907 96.7241L417.88 98.6157C415.232 99.7507 412.205 100.507 409.178 100.507C406.152 100.507 403.125 99.7507 400.477 98.6157L413.34 75.1596L415.988 86.131L417.88 85.7527L414.475 70.6197L401.234 78.9428L401.99 80.4561L411.827 74.4029L398.964 97.8591C392.154 94.0758 387.992 87.6443 387.992 80.0778ZM389.884 121.694C389.884 124.342 387.614 126.612 384.966 126.612C382.317 126.612 380.047 124.342 380.047 121.694C380.047 119.045 382.317 116.775 384.966 116.775C387.614 116.775 389.884 118.667 389.884 121.694ZM359.996 98.994C359.996 96.3458 362.266 94.0758 364.914 94.0758C367.563 94.0758 369.833 96.3458 369.833 98.994C369.833 101.642 367.563 103.912 364.914 103.912C362.266 103.912 359.996 101.642 359.996 98.994ZM348.268 131.908C350.916 131.908 353.186 134.178 353.186 136.827C353.186 139.475 350.916 141.745 348.268 141.745C345.62 141.745 343.35 139.475 343.35 136.827C343.35 134.178 345.62 131.908 348.268 131.908Z" fill="#A266DE"/>
<path d="M333.892 150.068V63.8098H332V151.96H439.823V150.068H333.892Z" fill="#A266DE"/>
<defs>
<linearGradient id="paint0_linear" x1="338.628" y1="214.074" x2="482.508" y2="643.233" gradientUnits="userSpaceOnUse">
<stop stop-color="white"/>
<stop offset="0.2663" stop-color="#FCFBFF"/>
<stop offset="0.5586" stop-color="#F4EDFD"/>
<stop offset="0.8622" stop-color="#E7D7FB"/>
<stop offset="1" stop-color="#DFCBFA"/>
</linearGradient>
<linearGradient id="paint1_linear" x1="387.872" y1="352.665" x2="392.799" y2="23.4987" gradientUnits="userSpaceOnUse">
<stop stop-color="#F87CCA"/>
<stop offset="1" stop-color="#FA7CCB" stop-opacity="0"/>
</linearGradient>
<linearGradient id="paint2_linear" x1="267.314" y1="317.271" x2="514.244" y2="317.271" gradientUnits="userSpaceOnUse">
<stop stop-color="#F87CCA"/>
<stop offset="1" stop-color="#FA7CCB" stop-opacity="0"/>
</linearGradient>
<linearGradient id="paint3_linear" x1="389.792" y1="10.385" x2="387.674" y2="268.785" gradientUnits="userSpaceOnUse">
<stop stop-color="#FBCFED"/>
<stop offset="0.1983" stop-color="#FABBE5" stop-opacity="0.794"/>
<stop offset="0.707" stop-color="#F78ED3" stop-opacity="0.2656"/>
<stop offset="0.9627" stop-color="#F67CCC" stop-opacity="0"/>
</linearGradient>
<linearGradient id="paint4_linear" x1="103.738" y1="597.969" x2="165.524" y2="768.349" gradientUnits="userSpaceOnUse">
<stop stop-color="white"/>
<stop offset="0.2663" stop-color="#FCFBFF"/>
<stop offset="0.5586" stop-color="#F4EDFD"/>
<stop offset="0.8622" stop-color="#E7D7FB"/>
<stop offset="1" stop-color="#DFCBFA"/>
</linearGradient>
<linearGradient id="paint5_linear" x1="225.119" y1="349.141" x2="73.7276" y2="719.21" gradientUnits="userSpaceOnUse">
<stop stop-color="#FBCFED"/>
<stop offset="0.1983" stop-color="#FABBE5" stop-opacity="0.794"/>
<stop offset="0.707" stop-color="#F78ED3" stop-opacity="0.2656"/>
<stop offset="0.9627" stop-color="#F67CCC" stop-opacity="0"/>
</linearGradient>
<linearGradient id="paint6_linear" x1="608.032" y1="479.237" x2="666.074" y2="595.32" gradientUnits="userSpaceOnUse">
<stop stop-color="white"/>
<stop offset="0.2663" stop-color="#FCFBFF"/>
<stop offset="0.5586" stop-color="#F4EDFD"/>
<stop offset="0.8622" stop-color="#E7D7FB"/>
<stop offset="1" stop-color="#DFCBFA"/>
</linearGradient>
</defs>
</svg>
