<svg width="1162" height="465" viewBox="0 0 1162 465" fill="none" xmlns="http://www.w3.org/2000/svg">
<path d="M1095.5 465C1058.77 465 1029 435.227 1029 398.5C1029 361.773 1058.77 332 1095.5 332C1132.23 332 1162 361.773 1162 398.5C1162 435.227 1132.23 465 1095.5 465ZM1095.5 444.733C1121.03 444.733 1141.73 424.034 1141.73 398.5C1141.73 372.966 1121.03 352.267 1095.5 352.267C1069.97 352.267 1049.27 372.966 1049.27 398.5C1049.27 424.034 1069.97 444.733 1095.5 444.733Z" fill="#00B6FB"/>
<path opacity="0.5" d="M981.5 275C917.711 275 866 223.289 866 159.5C866 95.7111 917.711 44 981.5 44C1045.29 44 1097 95.7111 1097 159.5C1097 223.289 1045.29 275 981.5 275ZM981.5 239.8C1025.85 239.8 1061.8 203.848 1061.8 159.5C1061.8 115.152 1025.85 79.2 981.5 79.2C937.152 79.2 901.2 115.152 901.2 159.5C901.2 203.848 937.152 239.8 981.5 239.8Z" fill="white"/>
<path d="M207.5 415C92.9009 415 0 322.099 0 207.5C0 92.9009 92.9009 0 207.5 0C322.099 0 415 92.9009 415 207.5C415 322.099 322.099 415 207.5 415ZM207.5 351.762C287.174 351.762 351.762 287.174 351.762 207.5C351.762 127.826 287.174 63.2381 207.5 63.2381C127.826 63.2381 63.2381 127.826 63.2381 207.5C63.2381 287.174 127.826 351.762 207.5 351.762Z" fill="#F7EA48"/>
</svg>
