<svg width="94" height="91" viewBox="0 0 94 91" fill="none" xmlns="http://www.w3.org/2000/svg">
<line x1="31.3639" y1="56.2427" x2="38.0606" y2="62.9394" stroke="url(#paint0_linear)" stroke-width="3"/>
<line x1="35.0607" y1="50.9393" x2="43.0607" y2="58.9393" stroke="url(#paint1_linear)" stroke-width="3"/>
<path d="M60.051 42.467C51.0256 51.5239 42.2863 59.1086 35.4677 64.0513C32.0487 66.5297 29.1689 68.3023 27.0097 69.2739C25.9222 69.7632 25.1025 70.01 24.5364 70.078C24.2856 70.1082 24.1376 70.0984 24.0585 70.0852C24.045 70.0061 24.0347 69.8581 24.064 69.6073C24.1301 69.0409 24.3739 68.2204 24.8595 67.1312C25.8235 64.9686 27.5861 62.0827 30.0526 58.655C34.9714 51.8192 42.5256 43.0535 51.5509 33.9966C60.5763 24.9396 69.3156 17.355 76.1342 12.4123C79.5533 9.93391 82.4331 8.16127 84.5923 7.18967C85.6798 6.70035 86.4994 6.45363 87.0656 6.38557C87.3163 6.35543 87.4644 6.36519 87.5435 6.37839C87.557 6.45745 87.5672 6.60549 87.538 6.85633C87.4719 7.42273 87.228 8.24324 86.7425 9.3324C85.7784 11.495 84.0159 14.3809 81.5494 17.8086C76.6305 24.6444 69.0764 33.4101 60.051 42.467ZM23.9821 70.0649C23.9822 70.0648 23.9838 70.0655 23.9868 70.0671C23.9835 70.0658 23.9821 70.065 23.9821 70.0649ZM24.0768 70.1569C24.0784 70.1598 24.0791 70.1614 24.079 70.1615C24.0789 70.1615 24.0781 70.1601 24.0768 70.1569ZM87.6198 6.39868C87.6198 6.39875 87.6181 6.39808 87.6151 6.39642C87.6184 6.39777 87.6199 6.3986 87.6198 6.39868ZM87.5252 6.30682C87.5235 6.30384 87.5229 6.3022 87.5229 6.30213C87.523 6.30206 87.5239 6.30355 87.5252 6.30682Z" stroke="url(#paint2_linear)" stroke-width="3"/>
<path d="M23.1654 82.9997C27.1654 78.9997 26.1654 73.9997 23.1654 71.4997C23.1654 69.4997 9.101 64.5795 7.66549 77.5C6.66552 86.5003 -0.834679 85 3.16534 88C6.93892 90.8302 18.1654 87.9997 23.1654 82.9997Z" stroke="url(#paint3_linear)" stroke-width="3"/>
<defs>
<linearGradient id="paint0_linear" x1="30.3394" y1="58.6234" x2="33.3497" y2="57.3061" gradientUnits="userSpaceOnUse">
<stop stop-color="#4A74FC"/>
<stop offset="1" stop-color="#EF79F5"/>
</linearGradient>
<linearGradient id="paint1_linear" x1="34.168" y1="53.452" x2="37.1593" y2="51.9366" gradientUnits="userSpaceOnUse">
<stop stop-color="#4A74FC"/>
<stop offset="1" stop-color="#EF79F5"/>
</linearGradient>
<linearGradient id="paint2_linear" x1="24.7885" y1="60.879" x2="35.3256" y2="70.5032" gradientUnits="userSpaceOnUse">
<stop stop-color="#4A74FC"/>
<stop offset="1" stop-color="#EF79F5"/>
</linearGradient>
<linearGradient id="paint3_linear" x1="4.41012" y1="87.2601" x2="25.0008" y2="80.72" gradientUnits="userSpaceOnUse">
<stop stop-color="#4A74FC"/>
<stop offset="1" stop-color="#EF79F5"/>
</linearGradient>
</defs>
</svg>
