<svg width="70" height="70" viewBox="0 0 70 70" fill="none" xmlns="http://www.w3.org/2000/svg">
<path fill-rule="evenodd" clip-rule="evenodd" d="M42.0267 27.6112L35.1714 40.6418C34.6806 41.5781 34.9351 42.7242 35.7826 43.3778L43.4241 49.2737L53.6786 62.7328C54.2807 63.5211 54.1103 64.6407 53.3037 65.2259C52.8992 65.5195 52.4039 65.6366 51.9131 65.5615C51.4155 65.482 50.9815 65.2192 50.6929 64.8217L41.0405 51.4267C40.911 51.2435 40.7497 51.0823 40.5679 50.9453L29.075 42.3134C26.6551 40.4961 25.9553 37.2787 27.4049 34.6642L33.3627 23.9389C33.6626 23.3957 33.7172 22.7531 33.5104 22.1701C33.3036 21.585 32.8537 21.1146 32.272 20.8651L27.0414 18.6436C26.746 18.52 26.4392 18.4603 26.1325 18.4603C25.4167 18.4603 24.7214 18.7894 24.2829 19.3856L17.9593 27.9888C17.4958 28.6159 16.621 28.7771 15.9552 28.3487C15.6258 28.1367 15.3985 27.8099 15.3236 27.4301C15.2486 27.0525 15.3326 26.6683 15.5576 26.3503C15.5599 26.3503 15.5599 26.3503 15.5599 26.3503L22.7264 16.2521C23.5876 15.042 25.21 14.607 26.5847 15.2231L48.5706 25.0695C49.6181 25.5332 50.8474 25.1755 51.4518 24.2304L57.0188 15.5345C57.4596 14.8455 58.3775 14.6203 59.1024 15.0288C59.4637 15.2319 59.7204 15.5588 59.8249 15.9518C59.9295 16.3427 59.8704 16.7512 59.6568 17.1001L52.5834 28.6093C52.2335 29.1746 51.4973 29.402 50.8792 29.1348L44.9692 26.5976C43.8694 26.1228 42.5765 26.5689 42.0267 27.6112V27.6112ZM29.4431 48.8166L24.1534 56.6403C23.708 57.2873 22.8014 57.4794 22.1243 57.0599L8.44098 48.545C7.97518 48.2557 7.65707 47.8053 7.54573 47.2775C7.43666 46.7497 7.548 46.2154 7.86384 45.7715C8.47961 44.8904 9.73388 44.6497 10.645 45.2327L20.7064 51.6321C21.2154 51.9523 21.8289 52.0605 22.431 51.9435C23.0241 51.8176 23.5421 51.4687 23.8693 50.9696L26.9346 46.286L29.8157 48.4501C29.6862 48.5671 29.5453 48.6665 29.4431 48.8166V48.8166ZM40.8292 5.41643C43.4059 5.41643 45.5054 7.45681 45.5054 9.96313C45.5054 12.4695 43.4059 14.5076 40.8292 14.5076C38.2502 14.5076 36.1507 12.4695 36.1507 9.96313C36.1507 7.45681 38.2502 5.41643 40.8292 5.41643V5.41643ZM49.041 33.1759C51.7654 34.3484 54.9579 33.3525 56.4825 30.8749L63.5582 19.3635C64.4012 17.9922 64.6352 16.3868 64.224 14.8411C63.8104 13.2953 62.8016 12.0035 61.3791 11.2041C58.5093 9.59215 54.9011 10.471 53.156 13.2026L48.6525 20.2446L44.2466 18.2704C47.6413 16.9455 50.0499 13.7281 50.0499 9.96313C50.0499 5.02115 45.9144 1 40.8292 1C35.7417 1 31.6063 5.02115 31.6063 9.96313C31.6063 10.9767 31.8199 11.9373 32.1402 12.8471L28.4888 11.213C25.1055 9.69815 21.1041 10.7581 18.9841 13.7436L11.8175 23.8417C10.8927 25.1446 10.5519 26.7168 10.8632 28.2692C11.1722 29.8238 12.0925 31.162 13.4535 32.0342C16.1666 33.7765 19.7703 33.1251 21.6562 30.5547L26.9119 23.4089L28.1889 23.9522L23.4081 32.5664C21.4835 36.0289 21.7585 40.0942 23.8626 43.2254C23.5672 43.3977 23.299 43.6141 23.1014 43.9144L21.27 46.71L13.1331 41.5384C10.1679 39.6525 6.11199 40.432 4.11016 43.2784C3.09675 44.716 2.73547 46.4494 3.09221 48.1586C3.44895 49.8655 4.48054 51.3229 5.99156 52.2636L19.6749 60.7785C20.6724 61.399 21.7926 61.6949 22.9014 61.6949C24.8646 61.6949 26.7983 60.7675 27.9503 59.0649L33.2423 51.239C33.2764 51.1882 33.2809 51.1286 33.3104 51.0756L37.5186 54.2356L46.9733 67.3546C47.9731 68.7435 49.4727 69.6533 51.1951 69.9205C51.5382 69.9757 51.879 70 52.2176 70C53.5854 70 54.9079 69.576 56.0235 68.7656C58.832 66.7252 59.4182 62.841 57.3301 60.105L46.9006 46.4119C46.7824 46.2551 46.6415 46.116 46.487 45.9945L40.0657 41.0415L45.0964 31.48L49.041 33.1759Z" fill="url(#paint0_linear)"/>
<defs>
<linearGradient id="paint0_linear" x1="-4.79112" y1="35.6712" x2="38.2911" y2="74.0478" gradientUnits="userSpaceOnUse">
<stop stop-color="#20D0EE"/>
<stop offset="0.981733" stop-color="#15E186"/>
</linearGradient>
</defs>
</svg>
