<?xml version="1.0" encoding="utf-8"?>
<!-- Generator: Adobe Illustrator 22.1.0, SVG Export Plug-In . SVG Version: 6.00 Build 0)  -->
<svg version="1.1" id="Layer_1" xmlns="http://www.w3.org/2000/svg" xmlns:xlink="http://www.w3.org/1999/xlink" x="0px" y="0px"
	 width="100px" height="100px" viewBox="0 0 100 100" style="enable-background:new 0 0 100 100;" xml:space="preserve">
<style type="text/css">
	.st0{fill:none;stroke:#4FB646;}
	.st1{fill:#4FB646;stroke:#4FB646;stroke-width:0.5;}
</style>
<circle id="Oval-5" class="st0" cx="50" cy="50" r="49"/>
<path id="Shape" class="st1" d="M50,26.1c-13.2,0-23.9,10.7-23.9,23.9c0,13.2,10.7,23.9,23.9,23.9S73.9,63.2,73.9,50
	C73.9,36.8,63.2,26.1,50,26.1z M49.1,27.2h1c7.5,0,14.1,3.6,18.3,9.2l0.2,0.3l-0.2,0.3L62,47.9l-0.5,0.8l-0.5-0.8L49.6,28.1
	L49.1,27.2z M47.8,27.3l0.2,0.3l6.3,10.9l0.5,0.9l-1,0c-7.7,0-15.4,0-23.1,0h-1l0.5-0.8c3.5-6.1,9.8-10.4,17.2-11.2L47.8,27.3
	L47.8,27.3z M68.9,38.3h0.3h0.3l0.2,0.3c2,3.4,3.1,7.3,3.1,11.4c0,3.2-0.6,6.2-1.8,8.9l-0.1,0.3h-0.4l-12.8,0h-1l0.5-0.8
	c3.8-6.6,7.7-13.2,11.5-19.8L68.9,38.3L68.9,38.3z M29.3,40.5h0.4h12.6h1l-0.5,0.8l-11.6,20l-0.5,0.9l-0.5-0.9
	c-1.9-3.3-3-7.2-3-11.3c0-3.3,0.7-6.4,1.9-9.2L29.3,40.5z M44.5,40.5h0.3h10.3h0.3l0.2,0.3l5.1,8.8l0.2,0.3l-0.2,0.3l-5.1,8.8
	l-0.2,0.3h-0.3l-10.3,0h-0.3l-0.2-0.3l-5.1-8.8l-0.2-0.3l0.2-0.3l5.1-8.8L44.5,40.5L44.5,40.5z M38.5,51l0.5,0.8l4.8,8.2l6.9,11.9
	l0.5,0.8l-1,0c0,0-0.1,0-0.1,0c-7.5,0-14.2-3.7-18.4-9.3l-0.2-0.3l0.2-0.3l6.4-11L38.5,51z M45.1,60.3h1c7.7,0,15.5,0,23.2,0h1
	l-0.5,0.8c-3.5,6.2-9.8,10.6-17.2,11.4l-0.4,0.1l-0.2-0.3l-6.5-11.2L45.1,60.3L45.1,60.3z"/>
</svg>
