<?xml version="1.0" encoding="utf-8"?>
<!-- Generator: Adobe Illustrator 19.2.0, SVG Export Plug-In . SVG Version: 6.00 Build 0)  -->
<svg version="1.1" id="Layer_1" xmlns="http://www.w3.org/2000/svg" xmlns:xlink="http://www.w3.org/1999/xlink" x="0px" y="0px"
	 width="120px" height="140px" viewBox="0 0 120 140" style="enable-background:new 0 0 120 140;" xml:space="preserve">
<style type="text/css">
	.st0{fill:#0C071F;}
	.st1{fill:#124AFF;}
</style>
<path class="st0" d="M50.6,108.4v3.6h5.1v1.3h-5.1v4.1h-1.5v-10.2h7.2v1.3H50.6z M65,113.5c0,0.1,0,0.2,0,0.4h-6.3
	c0.1,0.7,0.4,1.2,0.9,1.7c0.5,0.4,1.2,0.6,1.9,0.6c0.9,0,1.7-0.3,2.2-0.9l0.8,0.9c-0.4,0.4-0.8,0.7-1.3,0.9
	c-0.5,0.2-1.1,0.3-1.7,0.3c-0.8,0-1.5-0.2-2.2-0.5c-0.6-0.3-1.1-0.8-1.5-1.4c-0.3-0.6-0.5-1.3-0.5-2c0-0.7,0.2-1.4,0.5-2
	c0.3-0.6,0.8-1.1,1.4-1.4c0.6-0.3,1.3-0.5,2-0.5c0.7,0,1.4,0.2,2,0.5c0.6,0.3,1,0.8,1.4,1.4C64.8,112,65,112.7,65,113.5z
	 M61.2,110.7c-0.7,0-1.2,0.2-1.7,0.6c-0.4,0.4-0.7,0.9-0.8,1.6h5c-0.1-0.7-0.3-1.2-0.8-1.6C62.4,110.9,61.8,110.7,61.2,110.7z
	 M73.9,113.5c0,0.1,0,0.2,0,0.4h-6.3c0.1,0.7,0.4,1.2,0.9,1.7c0.5,0.4,1.2,0.6,1.9,0.6c0.9,0,1.7-0.3,2.2-0.9l0.8,0.9
	c-0.4,0.4-0.8,0.7-1.3,0.9c-0.5,0.2-1.1,0.3-1.7,0.3c-0.8,0-1.5-0.2-2.2-0.5c-0.6-0.3-1.1-0.8-1.5-1.4c-0.3-0.6-0.5-1.3-0.5-2
	c0-0.7,0.2-1.4,0.5-2c0.3-0.6,0.8-1.1,1.4-1.4c0.6-0.3,1.3-0.5,2-0.5c0.7,0,1.4,0.2,2,0.5c0.6,0.3,1,0.8,1.4,1.4
	C73.8,112,73.9,112.7,73.9,113.5z M70.1,110.7c-0.7,0-1.2,0.2-1.7,0.6c-0.4,0.4-0.7,0.9-0.8,1.6h5c-0.1-0.7-0.3-1.2-0.8-1.6
	C71.3,110.9,70.8,110.7,70.1,110.7z"/>
<path class="st1" d="M51.1,36c0-2.8-2.3-5.1-5.1-5.1c-2.8,0-5.1,2.3-5.1,5.1c0,2.8,2.3,5.1,5.1,5.1C48.8,41.1,51.1,38.8,51.1,36z
	 M46,39.7c-2.1,0-3.9-1.7-3.9-3.9c0-2.1,1.7-3.9,3.9-3.9c2.1,0,3.9,1.7,3.9,3.9C49.7,38,48,39.7,46,39.7z"/>
<path class="st1" d="M62.6,55.9c2.8,0,5.1-2.3,5.1-5.1c0-2.8-2.3-5.1-5.1-5.1s-5.1,2.3-5.1,5.1C57.5,53.6,59.8,55.9,62.6,55.9z
	 M62.6,46.9c2.1,0,3.9,1.7,3.9,3.9c0,2.2-1.7,3.9-3.9,3.9c-2.1,0-3.9-1.7-3.9-3.9C58.7,48.6,60.5,46.9,62.6,46.9z"/>
<path class="st1" d="M64.8,29.8L43.3,55.5l1,0.9l21.4-25.7L64.8,29.8z"/>
<path class="st1" d="M32.9,69.1V25.9c0-3.3-1.8-6.2-4.5-7.8h39c4.4,0,7.9,3.5,7.9,7.9v21.8h1.2V26c0-5-4.1-9.1-9.1-9.1H23.8v1.2
	c4.2,0,7.8,3.5,7.8,7.8v43.2c0,5.2,4.2,9.3,9.3,9.3h10.9v-1.2H40.9C36.5,77.2,32.9,73.6,32.9,69.1z"/>
<path class="st1" d="M63.7,63.3c-5.6,0-9.8,1.9-9.8,4.5c0,2.5,4.2,4.5,9.8,4.5s9.8-1.9,9.8-4.5C73.5,65.2,69.3,63.3,63.7,63.3z
	 M63.7,71.1c-5.1,0-8.6-1.7-8.6-3.3c0-1.6,3.5-3.3,8.6-3.3s8.6,1.7,8.6,3.3C72.3,69.4,68.8,71.1,63.7,71.1z"/>
<path class="st1" d="M63.7,77.8c-5.1,0-8.6-1.7-8.6-3.3h-1.2c0,2.5,4.2,4.5,9.8,4.5s9.8-1.9,9.8-4.5h-1.2
	C72.3,76.1,68.8,77.8,63.7,77.8z"/>
<path class="st1" d="M63.7,84.5c-5.1,0-8.6-1.7-8.6-3.3h-1.2c0,2.5,4.2,4.5,9.8,4.5s9.8-1.9,9.8-4.5h-1.2
	C72.3,82.7,68.8,84.5,63.7,84.5z"/>
<path class="st1" d="M72.3,55.1c0,2.5,4.2,4.5,9.8,4.5c5.6,0,9.8-1.9,9.8-4.5c0-2.5-4.2-4.5-9.8-4.5C76.5,50.6,72.3,52.5,72.3,55.1z
	 M82.1,51.7c5.1,0,8.6,1.7,8.6,3.3c0,1.6-3.5,3.3-8.6,3.3s-8.6-1.7-8.6-3.3C73.5,53.4,77,51.7,82.1,51.7z"/>
<path class="st1" d="M82.1,64.7c-5.1,0-8.6-1.7-8.6-3.3h-1.2c0,2.5,4.2,4.5,9.8,4.5c5.6,0,9.8-1.9,9.8-4.5h-1.2
	C90.7,62.9,87.2,64.7,82.1,64.7z"/>
<path class="st1" d="M82.1,71.6c-2.5,0-5.1-0.5-6.7-1.3L75,71.4c1.8,0.8,4.5,1.5,7.3,1.5c5.6,0,9.8-1.9,9.8-4.5h-1.2
	C90.7,69.8,87.2,71.6,82.1,71.6z"/>
<path class="st1" d="M82.1,77.8c-2.5,0-5.1-0.5-6.7-1.3L75,77.6c1.8,0.8,4.5,1.5,7.3,1.5c5.6,0,9.8-1.9,9.8-4.5h-1.2
	C90.7,76.1,87.2,77.8,82.1,77.8z"/>
</svg>
