<svg width="70" height="70" viewBox="0 0 70 70" fill="none" xmlns="http://www.w3.org/2000/svg">
<path fill-rule="evenodd" clip-rule="evenodd" d="M61.1252 17.5834C61.1252 20.713 58.4762 23.2501 55.2085 23.2501C52.4516 23.2501 50.135 21.4442 49.4782 19.0001H10.8335V16.1667H49.4782C50.135 13.7227 52.4516 11.9167 55.2085 11.9167C58.4762 11.9167 61.1252 14.4538 61.1252 17.5834ZM11.0199 33.1667H10.8335V34.5834V36.0001H11.0199C11.6767 38.4442 13.9932 40.2501 16.7502 40.2501C19.5071 40.2501 21.8236 38.4442 22.4804 36.0001H58.1668V33.1667H22.4804C21.8236 30.7227 19.5071 28.9167 16.7502 28.9167C13.9932 28.9167 11.6767 30.7227 11.0199 33.1667ZM10.8335 50.1667H28.7699C29.4267 47.7227 31.7432 45.9167 34.5002 45.9167C37.2571 45.9167 39.5736 47.7227 40.2304 50.1667H58.1668V53.0001H40.2304C39.5736 55.4442 37.2571 57.2501 34.5002 57.2501C31.7432 57.2501 29.4267 55.4442 28.7699 53.0001H10.8335V50.1667Z" fill="url(#paint0_linear)"/>
<defs>
<linearGradient id="paint0_linear" x1="4.49267" y1="34.6959" x2="32.8347" y2="66.1378" gradientUnits="userSpaceOnUse">
<stop stop-color="#20D0EE"/>
<stop offset="0.981733" stop-color="#15E186"/>
</linearGradient>
</defs>
</svg>
