<?xml version="1.0" encoding="utf-8"?>
<!-- Generator: Adobe Illustrator 19.2.0, SVG Export Plug-In . SVG Version: 6.00 Build 0)  -->
<svg version="1.1" id="Layer_1" xmlns="http://www.w3.org/2000/svg" xmlns:xlink="http://www.w3.org/1999/xlink" x="0px" y="0px"
	 width="120px" height="140px" viewBox="0 0 120 140" style="enable-background:new 0 0 120 140;" xml:space="preserve">
<style type="text/css">
	.st0{fill:#0C071F;}
	.st1{fill:#124AFF;}
</style>
<path class="st0" d="M31.5,108.4v3.6h5.1v1.3h-5.1v4.1H30v-10.2h7.2v1.3H31.5z M42.1,117.4c-0.8,0-1.5-0.2-2.1-0.5
	c-0.6-0.3-1.1-0.8-1.4-1.4c-0.3-0.6-0.5-1.3-0.5-2c0-0.8,0.2-1.4,0.5-2c0.4-0.6,0.8-1.1,1.4-1.4c0.6-0.3,1.3-0.5,2.1-0.5
	c0.8,0,1.5,0.2,2.1,0.5c0.6,0.3,1.1,0.8,1.4,1.4c0.4,0.6,0.5,1.3,0.5,2c0,0.8-0.2,1.4-0.5,2c-0.3,0.6-0.8,1.1-1.4,1.4
	C43.6,117.3,42.9,117.4,42.1,117.4z M42.1,116.2c0.5,0,0.9-0.1,1.3-0.3c0.4-0.2,0.7-0.6,0.9-1c0.2-0.4,0.3-0.9,0.3-1.4
	s-0.1-1-0.3-1.4c-0.2-0.4-0.5-0.7-0.9-1c-0.4-0.2-0.8-0.3-1.3-0.3c-0.5,0-0.9,0.1-1.3,0.3c-0.4,0.2-0.7,0.5-0.9,1
	c-0.2,0.4-0.3,0.9-0.3,1.4s0.1,1,0.3,1.4c0.2,0.4,0.5,0.7,0.9,1C41.2,116.1,41.6,116.2,42.1,116.2z M49.4,110.9
	c0.2-0.4,0.6-0.8,1.1-1c0.5-0.2,1.1-0.4,1.7-0.4v1.4c-0.1,0-0.2,0-0.3,0c-0.8,0-1.4,0.2-1.8,0.7c-0.4,0.4-0.6,1.1-0.6,1.9v3.9h-1.4
	v-7.7h1.3V110.9z M60.9,113.5c0,0.1,0,0.2,0,0.4h-6.3c0.1,0.7,0.4,1.2,0.9,1.7c0.5,0.4,1.2,0.6,1.9,0.6c0.9,0,1.7-0.3,2.2-0.9
	l0.8,0.9c-0.4,0.4-0.8,0.7-1.3,0.9c-0.5,0.2-1.1,0.3-1.7,0.3c-0.8,0-1.5-0.2-2.2-0.5c-0.6-0.3-1.1-0.8-1.5-1.4
	c-0.3-0.6-0.5-1.3-0.5-2c0-0.7,0.2-1.4,0.5-2c0.3-0.6,0.8-1.1,1.4-1.4c0.6-0.3,1.3-0.5,2-0.5c0.7,0,1.4,0.2,2,0.5
	c0.6,0.3,1,0.8,1.4,1.4C60.7,112,60.9,112.7,60.9,113.5z M57.1,110.7c-0.7,0-1.2,0.2-1.7,0.6c-0.4,0.4-0.7,0.9-0.8,1.6h5
	c-0.1-0.7-0.3-1.2-0.8-1.6C58.3,110.9,57.8,110.7,57.1,110.7z M66.2,117.4c-0.8,0-1.5-0.2-2.1-0.5c-0.6-0.3-1.1-0.8-1.4-1.4
	c-0.4-0.6-0.5-1.3-0.5-2c0-0.8,0.2-1.4,0.5-2c0.4-0.6,0.8-1.1,1.4-1.4c0.6-0.3,1.3-0.5,2.1-0.5c0.7,0,1.3,0.1,1.9,0.4
	c0.6,0.3,1,0.7,1.3,1.2l-1.1,0.7c-0.2-0.4-0.5-0.6-0.9-0.8c-0.4-0.2-0.8-0.3-1.2-0.3c-0.5,0-1,0.1-1.4,0.3c-0.4,0.2-0.7,0.5-0.9,1
	c-0.2,0.4-0.3,0.9-0.3,1.4c0,0.5,0.1,1,0.3,1.4c0.2,0.4,0.6,0.7,0.9,0.9c0.4,0.2,0.9,0.3,1.4,0.3c0.4,0,0.8-0.1,1.2-0.3
	c0.4-0.2,0.7-0.5,0.9-0.8l1.1,0.7c-0.3,0.5-0.7,0.9-1.3,1.2C67.6,117.3,66.9,117.4,66.2,117.4z M74,109.5c1.1,0,1.9,0.3,2.5,0.8
	c0.6,0.5,0.9,1.3,0.9,2.4v4.7H76v-1c-0.2,0.4-0.6,0.6-1,0.8c-0.4,0.2-0.9,0.3-1.5,0.3c-0.9,0-1.6-0.2-2.1-0.6
	c-0.5-0.4-0.8-1-0.8-1.7c0-0.7,0.2-1.2,0.7-1.6c0.5-0.4,1.3-0.6,2.4-0.6h2.2v-0.3c0-0.6-0.2-1.1-0.5-1.4c-0.4-0.3-0.9-0.5-1.5-0.5
	c-0.5,0-0.9,0.1-1.3,0.2c-0.4,0.1-0.8,0.3-1.1,0.6l-0.6-1.1c0.4-0.3,0.9-0.6,1.4-0.7C72.8,109.6,73.4,109.5,74,109.5z M73.7,116.3
	c0.5,0,1-0.1,1.4-0.4c0.4-0.2,0.7-0.6,0.8-1v-1.1h-2.2c-1.2,0-1.8,0.4-1.8,1.2c0,0.4,0.2,0.7,0.5,0.9
	C72.7,116.2,73.2,116.3,73.7,116.3z M82.1,117.4c-0.6,0-1.2-0.1-1.8-0.2c-0.6-0.2-1-0.4-1.4-0.7l0.6-1.1c0.3,0.2,0.8,0.4,1.2,0.6
	c0.5,0.1,1,0.2,1.5,0.2c1.2,0,1.8-0.4,1.8-1.1c0-0.2-0.1-0.4-0.2-0.6s-0.4-0.2-0.6-0.3c-0.2-0.1-0.6-0.1-1.1-0.2
	c-0.6-0.1-1.1-0.2-1.5-0.3c-0.4-0.1-0.7-0.3-1-0.6c-0.3-0.3-0.4-0.7-0.4-1.3c0-0.7,0.3-1.3,0.9-1.7c0.6-0.4,1.4-0.6,2.4-0.6
	c0.5,0,1,0.1,1.5,0.2c0.5,0.1,0.9,0.3,1.3,0.5l-0.6,1.1c-0.6-0.4-1.4-0.6-2.2-0.6c-0.6,0-1,0.1-1.4,0.3c-0.3,0.2-0.5,0.5-0.5,0.8
	c0,0.3,0.1,0.5,0.3,0.6c0.2,0.1,0.4,0.3,0.6,0.3c0.3,0.1,0.6,0.1,1.1,0.2c0.6,0.1,1.1,0.2,1.5,0.4c0.4,0.1,0.7,0.3,1,0.6
	c0.3,0.3,0.4,0.7,0.4,1.2c0,0.7-0.3,1.3-0.9,1.7C84,117.2,83.2,117.4,82.1,117.4z M91.6,116.9c-0.2,0.2-0.5,0.3-0.8,0.4
	c-0.3,0.1-0.6,0.1-0.9,0.1c-0.8,0-1.4-0.2-1.8-0.6c-0.4-0.4-0.6-1-0.6-1.8v-4.2h-1.3v-1.2h1.3v-1.7h1.4v1.7h2.2v1.2h-2.2v4.2
	c0,0.4,0.1,0.7,0.3,1c0.2,0.2,0.5,0.3,0.9,0.3c0.4,0,0.8-0.1,1.1-0.4L91.6,116.9z"/>
<path class="st1" d="M33.3,75.5c2.5,0,4.6-2.1,4.6-4.6c0-1.7-1-3.2-2.3-4L43.2,49c0.5,0.2,1.1,0.2,1.6,0.2c0.7,0,1.5-0.2,2.2-0.5
	l8.1,8.4c-0.7,0.8-1.2,1.9-1.2,3.2c0,2.5,2.1,4.6,4.6,4.6s4.6-2.1,4.6-4.6c0-1.2-0.5-2.4-1.3-3.3L68,45.5c2.1,1,4.2,1.6,6.7,1.6
	c1.7,0,3.3-0.2,4.7-0.7l7.2,15.9c0.6,1.2,1.7,2.2,3,2.5c0.5,0.1,1,0.2,1.5,0.2c0.8,0,1.7-0.2,2.5-0.7c1.2-0.7,2.1-1.9,2.3-3.3
	c0.2-1.3,0-2.8-0.8-3.9L84.9,43.5c3.3-2.8,5.5-7,5.5-11.8c0-8.5-6.9-15.4-15.4-15.4c-8.5,0-15.4,6.9-15.4,15.4
	c0,5.7,3.2,10.7,7.6,13.3L61,56.4c-0.7-0.4-1.5-0.6-2.3-0.6s-1.7,0.2-2.4,0.7l-8-8.4c1-0.8,1.5-2.1,1.5-3.4c0-2.5-2.1-4.6-4.6-4.6
	c-2.5,0-4.6,2.1-4.6,4.6c0,1.6,0.7,2.9,1.9,3.8l-7.6,17.9c-0.4-0.1-0.8-0.2-1.2-0.2c-2.5,0-4.6,2.1-4.6,4.6
	C29,73.4,30.8,75.5,33.3,75.5z M83.8,44.1L94,57.8c0.6,0.8,0.8,1.9,0.6,2.9c-0.2,1.1-0.8,1.9-1.8,2.4c-0.8,0.5-1.9,0.6-2.9,0.4
	c-1-0.2-1.8-1-2.3-1.9l-7-15.8l0.7-0.5c0.7-0.4,1.6-0.8,2.2-1.3L83.8,44.1z M60.5,31.6c0-7.9,6.4-14.2,14.2-14.2s14.2,6.4,14.2,14.2
	c0,4.7-2.3,9-5.9,11.5l-2.2,1.3c-1.8,0.8-3.9,1.3-6.1,1.3s-4.2-0.5-6.1-1.3l8.9-16.3l1.7,7.6l1.2-0.2l-2.3-10.4L69,30.8l0.6,1
	l6.8-4.2l-9,16.3C63.4,41.4,60.5,36.8,60.5,31.6z M62,60.3c0,1.9-1.6,3.4-3.4,3.4c-1.8,0-3.4-1.6-3.4-3.4c0-1.8,1.6-3.4,3.4-3.4
	C60.4,56.9,62,58.4,62,60.3z M41.5,44.5c0-1.9,1.6-3.4,3.4-3.4s3.4,1.6,3.4,3.4c0,1.8-1.6,3.4-3.4,3.4S41.5,46.5,41.5,44.5z
	 M33.3,67.3c1.9,0,3.4,1.6,3.4,3.4c0,1.8-1.6,3.4-3.4,3.4c-1.8,0-3.4-1.6-3.4-3.4C29.9,68.9,31.4,67.3,33.3,67.3z"/>
<path class="st1" d="M23.4,80V20.5h-1.2v60.6h74.1V80H23.4z"/>
</svg>
