<?xml version="1.0" encoding="utf-8"?>
<!-- Generator: Adobe Illustrator 19.2.0, SVG Export Plug-In . SVG Version: 6.00 Build 0)  -->
<svg version="1.1" id="Layer_1" xmlns="http://www.w3.org/2000/svg" xmlns:xlink="http://www.w3.org/1999/xlink" x="0px" y="0px"
	 viewBox="0 0 95 95" style="enable-background:new 0 0 95 95;" xml:space="preserve">
<style type="text/css">
	.st0{fill:url(#SVGID_1_);}
	.st1{fill:url(#SVGID_2_);}
</style>
<g>
	<linearGradient id="SVGID_1_" gradientUnits="userSpaceOnUse" x1="11.5573" y1="9.7707" x2="82.2239" y2="84.104">
		<stop  offset="0.1882" style="stop-color:#20D0EE"/>
		<stop  offset="0.8264" style="stop-color:#0AED88"/>
	</linearGradient>
	<path class="st0" d="M85.5,22c-1-3.4-2-6.7-3-10.1c-0.3-1.3-1-1.7-2.3-1.7c-21.8,0-43.7,0-65.5,0c-1.4,0-2,0.6-2.3,1.9
		C10.2,19.7,8,27.3,5.7,34.9c-0.2,0.6-0.5,1.2-0.7,1.9c0,1.1,0,2.3,0,3.4c0.9,2.8,2,5.4,4.4,7.3c0.4,0.3,0.5,1.2,0.5,1.9
		c0,9.4,0,18.8,0,28.1c0,5,2.3,7.4,7.4,7.4c20.1,0,40.3,0,60.4,0c5,0,7.4-2.4,7.4-7.4c0-9.3,0-18.6,0-27.9c0-1.1,0.5-1.9,1.1-2.8
		c1.5-2,2.6-4.4,3.8-6.6c0-1.1,0-2.3,0-3.4C88.5,31.8,87,27,85.5,22z M49,13.4c5,0,9.9,0,14.8,0c0.8,6.6,1.6,13,2.4,19.5
		c0.2,1.6,0.4,3.1,0.5,4.7c0.2,5-3.4,8.9-8.4,9.3c-4.4,0.3-8.9-3.3-9.1-8C48.8,32,49,25.1,49,18.3C49,16.7,49,15,49,13.4z
		 M28.4,37.3c0.4-5.1,1.2-10.1,1.8-15.2c0.3-2.9,0.7-5.7,1.1-8.8c5,0,9.8,0,14.7,0c0,0.5,0.1,1,0.1,1.4c0,7.6,0,15.2,0,22.8
		c0,4.5-2.7,7.9-6.7,8.9C33.4,48,27.9,43.4,28.4,37.3z M8.2,39.8C8,38.9,8.1,37.9,8.3,37c2.1-7.5,4.3-14.9,6.5-22.4
		c0.2-0.5,0.8-1.3,1.2-1.3c3.9-0.1,7.9-0.1,12.1-0.1c-0.6,5.2-1.2,10-1.8,14.9c-0.4,3.6-0.9,7.2-1.4,10.8c-0.5,4.4-4,7.7-8.2,7.8
		C12.7,46.9,9,44,8.2,39.8z M82,53.6c0,8,0,16,0,24c0,3.1-1.1,4.2-4.2,4.2c-20.3,0-40.5,0-60.8,0c-3,0-4.1-1.1-4.1-4
		c0-8.9,0-17.9,0-26.8c0-0.5,0.1-1,0.1-1.6c5.8,1.3,10.4-0.4,13.7-5.5c2.5,3.8,5.9,5.9,10.4,5.9c4.5,0,7.9-2.1,10.4-5.8
		c5.4,8.1,16,7.5,20.8,0c3.3,5,7.8,6.8,13.8,5.4C82,50.8,82,52.2,82,53.6z M82.9,45.5c-3.2,2-7.2,1.6-10-0.7
		c-2.4-2.1-2.9-4.9-3.2-7.8c-0.9-7.2-1.8-14.5-2.6-21.7c-0.1-0.6,0-1.2,0-2c4,0,7.9,0,11.9,0.1c0.4,0,1,0.6,1.2,1.1
		c2.3,7.6,4.5,15.3,6.7,22.9C87.6,40.1,85.7,43.8,82.9,45.5z"/>
	<linearGradient id="SVGID_2_" gradientUnits="userSpaceOnUse" x1="12.3955" y1="8.9738" x2="83.0622" y2="83.3071">
		<stop  offset="0.1882" style="stop-color:#20D0EE"/>
		<stop  offset="0.8264" style="stop-color:#0AED88"/>
	</linearGradient>
	<path class="st1" d="M75.7,66.1c-2.4,0-4.8,0-7.2,0c-1,0-2,0.3-2,1.5c0,1.2,1,1.4,2,1.4c2.1,0,4.1,0,6.4,0
		c-0.7,3.5-3.8,5.9-7.1,5.8c-3.5-0.1-6.6-3-6.9-6.3c-0.4-3.7,1.8-7,5.2-7.9c2.6-0.7,4.8,0,6.9,1.6c0.5,0.4,1.8,0.5,2.2,0.2
		c0.9-0.7,0.5-1.7-0.3-2.4c-0.3-0.3-0.7-0.6-1-0.8c-3.9-2.8-9.3-2.4-12.8,0.9c-3.6,3.4-4.3,8.7-1.7,12.9c2.3,3.7,6.6,5.5,10.9,4.6
		c4.1-0.8,7.4-4.4,8-8.5C78.6,66.7,78.1,66.1,75.7,66.1z"/>
</g>
</svg>
