<?xml version="1.0" encoding="utf-8"?>
<!-- Generator: Adobe Illustrator 22.1.0, SVG Export Plug-In . SVG Version: 6.00 Build 0)  -->
<svg version="1.1" id="Layer_1" xmlns="http://www.w3.org/2000/svg" xmlns:xlink="http://www.w3.org/1999/xlink" x="0px" y="0px"
	 width="100px" height="100px" viewBox="0 0 100 100" style="enable-background:new 0 0 100 100;" xml:space="preserve">
<style type="text/css">
	.st0{fill:url(#SVGID_1_);}
</style>
<linearGradient id="SVGID_1_" gradientUnits="userSpaceOnUse" x1="44.5086" y1="79.5815" x2="58.444" y2="28.1505" gradientTransform="matrix(1 0 0 -1 0 102)">
	<stop  offset="0" style="stop-color:#00B6FB"/>
	<stop  offset="1" style="stop-color:#4FB646"/>
</linearGradient>
<path class="st0" d="M52.1,26.5c4.9-4.3,10.7-5.9,16.8-3.2c9.5,4.2,13.1,15.9,7.9,25C72.6,55.9,64,64.5,50.4,74.1
	c-0.7,0.5-1.7,0.5-2.4,0c-13.7-9.7-22.3-18.2-26.5-25.8c-5.2-9.1-1.5-20.8,7.9-25c6.2-2.7,11.9-1.1,16.8,3.2c1.1,1,2.1,2,3,3
	C50,28.5,51,27.5,52.1,26.5z M53.7,28.4c-1,0.9-1.9,1.8-2.7,2.7c-0.3,0.3-0.5,0.6-0.7,0.9c-0.1,0.2-0.2,0.3-0.2,0.3
	c-0.5,0.8-1.6,0.8-2.1,0c0,0-0.1-0.2-0.2-0.3c-0.2-0.3-0.4-0.6-0.7-0.9c-0.8-0.9-1.7-1.9-2.7-2.7c-4.3-3.7-9.1-5.1-14.2-2.8
	c-8.1,3.6-11.2,13.6-6.8,21.5c4,7.1,12.3,15.4,25.6,24.8c13.3-9.4,21.5-17.7,25.6-24.8c4.4-7.9,1.3-17.9-6.8-21.5
	C62.8,23.4,58,24.7,53.7,28.4z M48.9,72.1C48.9,72.1,48.9,72.1,48.9,72.1C48.9,72.1,48.9,72.1,48.9,72.1z"/>
</svg>
