<svg width="75" height="72" viewBox="0 0 75 72" fill="none" xmlns="http://www.w3.org/2000/svg">
<path fill-rule="evenodd" clip-rule="evenodd" d="M57.9338 2.77147e-09C61.8652 2.77147e-09 65.1666 2.71127 66.0346 6.34288C70.516 6.46795 74.1233 10.1117 74.1233 14.5758V52.8566V63.667C74.1233 68.2101 70.3884 71.9062 65.7975 71.9062H16.1896C12.2581 71.9062 8.95676 69.1949 8.08871 65.5633C3.60729 65.4382 0 61.7944 0 57.3302V12.3803C0 5.55378 5.61238 -0.000143259 12.5108 2.77147e-09H57.9338ZM65.7975 69.0412C68.7918 69.0412 71.2279 66.6305 71.2279 63.6673V53.487L66.2599 48.9803L63.3644 46.3538L63.0245 46.0455C62.0244 45.1382 60.4828 45.1006 59.4387 45.9577L52.9281 51.3023C51.7681 52.2546 50.3114 52.7292 48.8303 52.6616L52.2035 58.7912C52.5859 59.486 52.3266 60.3561 51.6244 60.7346C51.4045 60.853 51.1673 60.9093 50.9333 60.9093C50.4202 60.9093 49.9232 60.639 49.6606 60.1616L39.2658 41.2733L32.1147 28.2789C31.6386 27.4137 30.7603 26.8874 29.765 26.8705C28.7756 26.8547 27.8738 27.3501 27.3682 28.1985L10.7592 56.0669V62.7042V63.6673C10.7592 64.3369 10.8845 64.9778 11.1117 65.5694C11.8896 67.5963 13.8718 69.0412 16.1896 69.0412H65.7975ZM66.2598 45.0931L71.2279 49.5999V14.5758C71.2279 11.7669 69.0384 9.45601 66.2596 9.22306L63.3642 9.20215H36.717C35.9174 9.20215 35.2692 8.56075 35.2692 7.7695C35.2692 6.97826 35.9174 6.33686 36.717 6.33686H63.0116C62.2338 4.30996 60.2516 2.86514 57.9338 2.86514H12.5108C7.20893 2.86514 2.89544 7.13355 2.89544 12.3803V57.3302C2.89544 60.1392 5.08498 62.45 7.86359 62.6831V55.6758V14.5758C7.86359 10.0328 11.5986 6.33672 16.1894 6.33672H25.1352C25.9348 6.33672 26.5829 6.97811 26.5829 7.76936C26.5829 8.56061 25.9348 9.202 25.1352 9.202H16.1894C13.1951 9.202 10.759 11.6127 10.759 14.5758V50.4266L24.8742 26.7428C25.9164 24.9942 27.7638 23.9737 29.8145 24.0055C31.8658 24.0402 33.6763 25.1254 34.6576 26.9083L39.258 35.2678V35.2679L41.8086 39.9027L46.3765 48.2028C46.8215 49.0114 47.6008 49.575 48.5146 49.7486C49.4284 49.9224 50.3633 49.6849 51.0794 49.0969L57.5899 43.7523C59.2347 42.4022 61.4778 42.1306 63.3643 42.9114L66.2598 45.0931ZM32.263 7.22157C32.2268 7.13561 32.1819 7.05252 32.1298 6.97372C32.0777 6.89636 32.0169 6.82186 31.9503 6.75596C31.8837 6.69006 31.8099 6.62989 31.7303 6.57831C31.6521 6.52674 31.5681 6.48233 31.4798 6.44651C31.3929 6.4107 31.3017 6.38347 31.2091 6.36485C31.0223 6.3276 30.8312 6.3276 30.6445 6.36485C30.5518 6.38347 30.4606 6.4107 30.3723 6.44651C30.2854 6.48233 30.2015 6.52674 30.1233 6.57831C30.0437 6.62989 29.9698 6.69006 29.9032 6.75596C29.8366 6.82186 29.7758 6.89636 29.7223 6.97372C29.6702 7.05252 29.6267 7.13561 29.5905 7.22157C29.5543 7.30753 29.5254 7.39779 29.508 7.48947C29.4892 7.5826 29.479 7.67572 29.479 7.77027C29.479 7.86339 29.4892 7.95652 29.508 8.04964C29.5254 8.14133 29.5543 8.23158 29.5905 8.31754C29.6267 8.4035 29.6702 8.48659 29.7223 8.56539C29.7758 8.64275 29.8366 8.71725 29.9032 8.78315C29.9698 8.84905 30.0437 8.90922 30.1233 8.9608C30.2015 9.01237 30.2854 9.05679 30.3723 9.0926C30.4606 9.12842 30.5518 9.15564 30.6445 9.17426C30.7371 9.19289 30.8327 9.20291 30.9268 9.20291C31.0209 9.20291 31.1164 9.19289 31.2091 9.17426C31.3017 9.15564 31.3929 9.12842 31.4798 9.0926C31.5681 9.05679 31.6521 9.01237 31.7303 8.9608C31.8099 8.90922 31.8837 8.84905 31.9503 8.78315C32.0169 8.71725 32.0777 8.64275 32.1298 8.56539C32.1819 8.48659 32.2268 8.4035 32.263 8.31754C32.2992 8.23158 32.3282 8.14133 32.3455 8.04964C32.3644 7.95652 32.3745 7.86339 32.3745 7.77027C32.3745 7.67572 32.3644 7.5826 32.3455 7.48947C32.3282 7.39779 32.2992 7.30753 32.263 7.22157ZM47.5349 25.4376C47.5349 21.3665 50.8819 18.0542 54.996 18.0542C59.1102 18.0542 62.4571 21.3662 62.4571 25.4376C62.4571 29.5089 59.11 32.821 54.996 32.821C50.8819 32.821 47.5349 29.5087 47.5349 25.4376ZM50.4303 25.4376C50.4303 27.929 52.4784 29.9557 54.996 29.9557C57.5136 29.9557 59.5617 27.9287 59.5617 25.4376C59.5617 22.9462 57.5135 20.9195 54.996 20.9195C52.4784 20.9195 50.4303 22.9462 50.4303 25.4376ZM54.9135 63.6676C54.9656 63.7449 55.0105 63.828 55.0467 63.9154C55.0829 64.0012 55.1119 64.0915 55.1307 64.1833C55.1495 64.275 55.1582 64.3696 55.1582 64.4627C55.1582 64.5558 55.1495 64.6504 55.1307 64.7421C55.1119 64.8337 55.0829 64.924 55.0467 65.01C55.0105 65.0974 54.9656 65.1804 54.9135 65.2578C54.8614 65.3366 54.8006 65.4097 54.734 65.4756C54.7009 65.5084 54.666 65.5397 54.6293 65.5694C54.5924 65.5992 54.5539 65.6273 54.5139 65.6532C54.4358 65.7048 54.3518 65.7492 54.2635 65.785C54.1766 65.8208 54.0854 65.8495 53.9928 65.8667C53.9001 65.8853 53.8046 65.8953 53.7105 65.8953C53.6164 65.8953 53.5208 65.8853 53.4282 65.8667C53.3355 65.8495 53.2443 65.8208 53.1574 65.785C53.0691 65.7492 52.9852 65.7048 52.907 65.6532C52.867 65.6274 52.8285 65.5992 52.7916 65.5694C52.7551 65.5397 52.7201 65.5084 52.6869 65.4756C52.6203 65.4097 52.5595 65.3366 52.5074 65.2578C52.4553 65.1804 52.4104 65.0974 52.3742 65.01C52.338 64.924 52.3091 64.8337 52.2917 64.7421C52.2729 64.6504 52.2627 64.5558 52.2627 64.4627C52.2627 64.3696 52.2729 64.275 52.2917 64.1833C52.3091 64.0916 52.338 64.0014 52.3742 63.9154C52.4104 63.828 52.4553 63.7449 52.5074 63.6676C52.5595 63.5888 52.6203 63.5157 52.6869 63.4498C52.7535 63.3839 52.8274 63.3237 52.907 63.2722C52.9852 63.2206 53.0691 63.1762 53.1574 63.1404C53.2443 63.1045 53.3355 63.0759 53.4282 63.0587C53.6149 63.0215 53.806 63.0215 53.9928 63.0587C54.0854 63.0759 54.1766 63.1045 54.2635 63.1404C54.3518 63.1762 54.4358 63.2206 54.5139 63.2722C54.5936 63.3237 54.6674 63.3839 54.734 63.4498C54.8006 63.5157 54.8614 63.5888 54.9135 63.6676Z" fill="#3F58BA"/>
</svg>
