<?xml version="1.0" encoding="utf-8"?>
<!-- Generator: Adobe Illustrator 22.1.0, SVG Export Plug-In . SVG Version: 6.00 Build 0)  -->
<svg version="1.1" id="Layer_1" xmlns="http://www.w3.org/2000/svg" xmlns:xlink="http://www.w3.org/1999/xlink" x="0px" y="0px"
	 width="100px" height="100px" viewBox="0 0 100 100" style="enable-background:new 0 0 100 100;" xml:space="preserve">
<style type="text/css">
	.st0{fill:none;stroke:#4FB646;}
	.st1{fill:#4FB646;}
</style>
<circle id="Oval-5-Copy-2" class="st0" cx="50" cy="50" r="49"/>
<path id="Shape" class="st1" d="M74.3,60.4c-0.3-1.2-1.1-2.1-2.1-2.8c-0.4-0.2-0.8-0.4-1.2-0.5V42.9c0.4-0.1,0.8-0.3,1.2-0.5
	c2.2-1.3,2.9-4,1.7-6.2c-0.6-1-1.6-1.8-2.8-2.1c-1.2-0.3-2.4-0.2-3.4,0.5c-0.4,0.2-0.7,0.5-1,0.8l-12.4-7.1c0.1-0.4,0.2-0.8,0.2-1.3
	c0-2.5-2-4.5-4.5-4.5c-2.5,0-4.5,2-4.5,4.5c0,0.4,0.1,0.9,0.2,1.3l-12.4,7.1c-0.3-0.3-0.6-0.6-1-0.8c-1-0.6-2.3-0.8-3.4-0.5
	c-1.2,0.3-2.1,1.1-2.8,2.1c-1.3,2.2-0.5,4.9,1.7,6.2c0.4,0.2,0.8,0.4,1.2,0.5v14.3c-0.4,0.1-0.8,0.3-1.2,0.5c-1,0.6-1.8,1.6-2.1,2.8
	c-0.3,1.2-0.2,2.4,0.5,3.4c0.6,1,1.6,1.8,2.8,2.1c0.4,0.1,0.8,0.2,1.2,0.2c0.8,0,1.6-0.2,2.3-0.6c0.4-0.2,0.7-0.5,1-0.8l12.4,7.1
	c-0.1,0.4-0.2,0.8-0.2,1.3c0,2.5,2,4.5,4.5,4.5c2.5,0,4.5-2,4.5-4.5c0-0.4-0.1-0.9-0.2-1.3l12.4-7.1c0.3,0.3,0.6,0.6,1,0.8
	c0.7,0.4,1.5,0.6,2.3,0.6c0.4,0,0.8-0.1,1.2-0.2c1.2-0.3,2.1-1.1,2.8-2.1C74.5,62.8,74.6,61.5,74.3,60.4z M68.7,36.4
	c0.4-0.2,0.8-0.3,1.2-0.3c0.2,0,0.4,0,0.6,0.1c0.6,0.2,1.1,0.6,1.4,1.1c0.7,1.1,0.3,2.6-0.9,3.2c-0.5,0.3-1.2,0.4-1.8,0.2
	s-1.1-0.6-1.4-1.1v0C67.2,38.5,67.6,37,68.7,36.4z M49.9,24.5c1.3,0,2.4,1.1,2.4,2.4c0,1.3-1.1,2.4-2.4,2.4c-1.3,0-2.4-1.1-2.4-2.4
	C47.5,25.6,48.6,24.5,49.9,24.5z M46.7,30c0.6,0.6,1.3,1.1,2.2,1.3v7.1c0,0.6,0.5,1.1,1.1,1.1c0.6,0,1.1-0.5,1.1-1.1v-7.2
	c0.8-0.2,1.6-0.7,2.2-1.3l12.4,7.2c0,0,0,0.1,0,0.1c-0.2,0.8-0.2,1.7,0,2.4l-12.4,7.1c-0.6-0.6-1.3-1-2.1-1.2
	c-1.2-0.3-2.4-0.2-3.4,0.5c-0.4,0.2-0.7,0.5-1,0.8l-12.4-7.2c0.2-0.8,0.2-1.6,0-2.4c0,0,0-0.1,0-0.1L46.7,30z M51.1,52.1
	c-1.1,0.7-2.6,0.3-3.2-0.9c-0.7-1.1-0.3-2.6,0.9-3.2c0.4-0.2,0.8-0.3,1.2-0.3c0.2,0,0.4,0,0.6,0.1c0.6,0.2,1.1,0.6,1.4,1.1
	C52.6,49.9,52.2,51.4,51.1,52.1z M28.7,40.5c-1.1-0.7-1.5-2.1-0.9-3.2c0.3-0.5,0.8-0.9,1.4-1.1c0.2-0.1,0.4-0.1,0.6-0.1
	c0.4,0,0.8,0.1,1.2,0.3c0.5,0.3,0.9,0.8,1.1,1.4c0.2,0.6,0.1,1.3-0.2,1.8c-0.3,0.5-0.8,0.9-1.4,1.1C29.9,40.9,29.3,40.8,28.7,40.5z
	 M32.2,62.2c-0.2,0.6-0.6,1.1-1.1,1.4c-0.5,0.3-1.2,0.4-1.8,0.2c-0.6-0.2-1.1-0.6-1.4-1.1c-0.3-0.5-0.4-1.2-0.2-1.8
	c0.2-0.6,0.6-1.1,1.1-1.4c1.1-0.7,2.6-0.3,3.2,0.9C32.3,60.9,32.4,61.6,32.2,62.2z M46.7,70l-12.4-7.2c0,0,0-0.1,0-0.1
	c0.2-0.8,0.2-1.7,0-2.4l8.3-4.8c0.5-0.3,0.7-1,0.4-1.5c-0.3-0.5-1-0.7-1.5-0.4l-8.3,4.8c-0.6-0.6-1.4-1.1-2.2-1.3V42.8
	c0,0,0.1,0,0.1,0c0.8-0.2,1.5-0.6,2.1-1.2l12.4,7.2c-0.3,1.1-0.2,2.4,0.4,3.5c0.6,1.1,1.7,1.8,2.8,2.1v14.3
	C48,68.9,47.2,69.4,46.7,70z M49.9,75.5c-1.3,0-2.4-1.1-2.4-2.4c0-1.3,1.1-2.4,2.4-2.4c1.3,0,2.4,1.1,2.4,2.4
	C52.3,74.4,51.2,75.5,49.9,75.5z M57.5,53.1c-0.5-0.3-1.2-0.1-1.5,0.4c-0.3,0.5-0.1,1.2,0.4,1.5l9.2,5.3c-0.2,0.8-0.2,1.6,0,2.4
	c0,0,0,0.1,0,0.1L53.2,70c-0.6-0.6-1.3-1.1-2.2-1.3V54.4c0.4-0.1,0.8-0.3,1.2-0.5c1.8-1.1,2.7-3.2,2.1-5.2l12.4-7.1
	c0.6,0.6,1.3,1,2.1,1.2c0,0,0.1,0,0.1,0v14.3c-0.8,0.2-1.6,0.6-2.2,1.3L57.5,53.1z M72,62.7c-0.3,0.5-0.8,0.9-1.4,1.1
	c-0.6,0.2-1.3,0.1-1.8-0.2c-0.5-0.3-0.9-0.8-1.1-1.4c-0.2-0.6-0.1-1.3,0.2-1.8c0.4-0.8,1.2-1.2,2.1-1.2c0.4,0,0.8,0.1,1.2,0.3
	c0.5,0.3,0.9,0.8,1.1,1.4C72.4,61.6,72.3,62.2,72,62.7z"/>
<path id="Shape_1_" class="st1" d="M67.1,41.6c-0.2-0.2-0.5-0.3-0.8-0.3c-0.3,0-0.6,0.1-0.8,0.3c-0.2,0.2-0.3,0.5-0.3,0.8
	c0,0.3,0.1,0.6,0.3,0.8c0.2,0.2,0.5,0.3,0.8,0.3c0.3,0,0.6-0.1,0.8-0.3c0.2-0.2,0.3-0.5,0.3-0.8C67.4,42.1,67.3,41.8,67.1,41.6z"/>
</svg>
