<svg width="70" height="70" viewBox="0 0 70 70" fill="none" xmlns="http://www.w3.org/2000/svg">
<path fill-rule="evenodd" clip-rule="evenodd" d="M32.2483 7.0376V46.0555H38.7513V7.0376H32.2483ZM32.0286 53.327C31.0912 54.2729 30.6226 55.3665 30.6226 56.608C30.6226 57.9677 31.0912 59.1501 32.0286 60.1551C32.966 61.1601 34.1963 61.6626 35.7195 61.6626C37.067 61.6626 38.1801 61.1601 39.0589 60.1551C39.9376 59.1501 40.377 57.9677 40.377 56.608C40.377 55.4257 39.923 54.3468 39.0149 53.3713C38.1068 52.3959 37.0084 51.9081 35.7195 51.9081C34.1963 51.9081 32.966 52.3811 32.0286 53.327Z" fill="url(#paint0_linear)"/>
<defs>
<linearGradient id="paint0_linear" x1="29.3927" y1="34.4856" x2="41.2763" y2="36.6077" gradientUnits="userSpaceOnUse">
<stop stop-color="#20D0EE"/>
<stop offset="0.981733" stop-color="#15E186"/>
</linearGradient>
</defs>
</svg>
