<?xml version="1.0" encoding="utf-8"?>
<!-- Generator: Adobe Illustrator 22.1.0, SVG Export Plug-In . SVG Version: 6.00 Build 0)  -->
<svg version="1.1" id="Layer_1" xmlns="http://www.w3.org/2000/svg" xmlns:xlink="http://www.w3.org/1999/xlink" x="0px" y="0px"
	 width="150px" height="150px" viewBox="0 0 150 150" style="enable-background:new 0 0 150 150;" xml:space="preserve">
<style type="text/css">
	.st0{fill:#2E3543;}
	.st1{fill:#CACACA;}
	.st2{fill:#9C4A73;}
	.st3{fill:#CDCDCD;}
	.st4{fill:#00B4F9;}
	.st5{fill:#EAC2A7;}
	.st6{fill:none;stroke:#0E7BCE;}
	.st7{fill:#FFFFFF;}
	.st8{fill:none;stroke:#2E3543;}
</style>
<polygon id="Fill-9_1_" class="st0" points="103.2,116.8 107.3,116.8 107.3,77.7 103.2,77.7 "/>
<polygon id="Path-3" class="st1" points="107.4,77.6 130.7,88.9 130.4,117.6 107.1,117.4 "/>
<polygon id="Fill-11_1_" class="st0" points="65.4,116.8 107.3,116.8 107.3,113.2 65.4,113.2 "/>
<path id="Fill-12_2_" class="st2" d="M143.5,119.9H6.8c-0.3,0-0.6-0.3-0.6-0.8v-1.6c0-0.4,0.3-0.8,0.6-0.8h136.7
	c0.3,0,0.6,0.3,0.6,0.8v1.6C144.1,119.5,143.8,119.9,143.5,119.9"/>
<path id="Fill-31" class="st3" d="M143.5,123H6.8c-0.3,0-0.6-0.3-0.6-0.8v-1.6c0-0.4,0.3-0.8,0.6-0.8h136.7c0.3,0,0.6,0.3,0.6,0.8
	v1.6C144.1,122.7,143.8,123,143.5,123"/>
<path id="Fill-13_1_" class="st4" d="M16.1,68.5l-4.9,42.9c-0.3,2.9,1.9,5.4,4.8,5.4h42.2v-3.6h30.2v-5.6L66,106.3l-4.6-37.8
	c-0.4-3.4-3.3-5.9-6.7-5.9h-32C19.4,62.5,16.5,65.1,16.1,68.5"/>
<path id="Fill-14" class="st5" d="M88.3,107.5h5.2c3.1,0,5.6,2.5,5.6,5.6H88.3C88.3,113.2,88.4,107.5,88.3,107.5"/>
<path id="Fill-15_1_" class="st5" d="M58.1,108.9h7.3c4.3,0,7.9,3.5,7.9,7.9H58.1C58.1,116.8,58.2,108.9,58.1,108.9"/>
<path id="Stroke-16" class="st6" d="M53.7,69.9l4.4,39.1"/>
<polyline id="Stroke-17" class="st6" points="28.1,74.2 23.1,108.9 58.1,108.9 "/>
<path id="Fill-18_1_" class="st5" d="M43.4,34.3c-4.8,0-8.7,4-8.7,8.8v22.5c0,2.5,2,4.5,4.5,4.5s4.5-2,4.5-4.5v-5.4
	c4.8-0.1,8.6-4,8.6-8.7V43C52.2,38.3,48.3,34.3,43.4,34.3"/>
<circle id="Oval" class="st7" cx="46.2" cy="54.3" r="2.2"/>
<path id="Fill-27" class="st0" d="M34.9,42.3c-0.5,0-1-0.3-1-0.9c0-0.9,0-2.3,0-4.7c0-3.7,4.8-4.8,8.2-4.8c3.5,0,5.3,0.3,5.3-1.5
	v-1.7c0,0,7.1,0,7.1,7.2c0,6-6.9,5-9.8,5h-2.1c-1-0.1-1.9,0.8-1.9,1.8v1.6c0,0.6-0.5,1-1.1,1s-1.1-0.4-1.1-1v-1.2
	c0-0.4-0.3-0.8-0.9-0.8C37.6,42.3,34.9,42.3,34.9,42.3z"/>
<path id="Rectangle" class="st0" d="M34,39.9h3.3v8.9c0,1.8-1.5,3.4-3.4,3.4L34,39.9L34,39.9z"/>
<path id="Stroke-21" class="st6" d="M45.2,62.5v4.9c0,3.4-2.8,6.1-6.1,6.1c-3.4,0-6.1-2.8-6.1-6.1v-4.9"/>
<path id="Stroke-29" class="st8" d="M48.3,45.6c0.2,1.6-1,3-2.7,3.2c-1.6,0.2-3-1-3.2-2.7s1-3,2.7-3.2C46.7,42.7,48.2,44,48.3,45.6z
	"/>
<path id="Stroke-30" class="st8" d="M56.5,46.1c0,1.6-1.3,2.9-2.9,2.9s-2.9-1.3-2.9-2.9s1.3-2.9,2.9-2.9
	C55.2,43.2,56.5,44.5,56.5,46.1z"/>
</svg>
