<?xml version="1.0" encoding="utf-8"?>
<!-- Generator: Adobe Illustrator 22.1.0, SVG Export Plug-In . SVG Version: 6.00 Build 0)  -->
<svg version="1.1" id="Layer_1" xmlns="http://www.w3.org/2000/svg" xmlns:xlink="http://www.w3.org/1999/xlink" x="0px" y="0px"
	 width="379px" height="447px" viewBox="0 0 379 447" style="enable-background:new 0 0 379 447;" xml:space="preserve">
<style type="text/css">
	.st0{opacity:0.1;enable-background:new    ;}
	.st1{fill:#0995FF;}
	.st2{fill:#2E3543;}
	.st3{fill:#77C54F;}
	.st4{fill:#304970;}
	.st5{fill:#5D913C;}
	.st6{fill:#EAC2A7;}
	.st7{fill:#090A0A;}
	.st8{fill:#00B6FB;}
	.st9{fill:#007EA5;}
	.st10{fill:#F6C167;}
	.st11{fill:#F89937;}
</style>
<ellipse class="st0" cx="229" cy="426.5" rx="150" ry="20.5"/>
<path class="st1" d="M134.5,142L16.6,182.5l-5.5-18.9l120.1-32.3L134.5,142z"/>
<path class="st2" d="M14.7,185.8l-5.7,1.6c-1.4,0.5-3-0.3-3.3-1.9l-5.5-18.6c-0.5-1.4,0.3-3,1.9-3.3l5.7-1.6c1.4-0.5,3,0.3,3.3,1.9
	l5.5,18.6C16.9,183.9,16,185.3,14.7,185.8z"/>
<path class="st2" d="M125.8,426.6c0,0,1.9,2.5,8.5,2.5c6.6,0,15.3-1.6,15.3-1.6l2.7,1.1h6.8c0.5,0,1.4-0.5,1.4-1.4c0-1.1,0-3.3,0-6
	c0-1.9-0.3-4.4-0.5-5.5h-14c-0.3,0.3-2.7,2.2-5.2,3.6c-4.7,2.7-9.6,2.2-12.6,3C125.2,422.8,125.8,426.6,125.8,426.6z"/>
<path class="st2" d="M165.7,426.6c0,0,1.9,2.5,8.5,2.5c6.6,0,15.3-1.6,15.3-1.6l2.7,1.1h6.8c0.5,0,1.4-0.5,1.4-1.4c0-1.1,0-3.3,0-6
	c0-1.9-0.3-4.4-0.5-5.5h-14c-0.3,0.3-2.7,2.2-5.2,3.6c-4.7,2.7-9.6,2.2-12.6,3C165.2,422.8,165.7,426.6,165.7,426.6z"/>
<path class="st3" d="M213.6,191.3c0.3-12.3-9.9-22.7-22.4-22.7h-44.6c-7.9,0-15.3,2.7-22.7,5.7l-23.5,9.3L86.1,159l-12.3,3.8
	L88,196.5c1.6,3.6,6.3,6.3,11.2,4.9c0,0,15.3-3,27.9-5.5c2.7-0.5,5.5,0.8,5.7,3.8l7.7,70.9h71.7L213.6,191.3z"/>
<path class="st4" d="M201.6,415.7h-18.3l-6.8-127.5h-4.9l-9,127.5h-18.1l-3.8-145h67.6L201.6,415.7z"/>
<path class="st5" d="M192.3,195.9l2.7,8.2l1.9,66h-2.7L192.3,195.9z"/>
<path class="st6" d="M205.7,287.9c5.7,0,10.4-4.7,10.4-10.4c0-5.7-4.7-10.4-10.4-10.4c-5.7,0-10.4,4.7-10.4,10.4
	C195.3,283.2,199.9,287.9,205.7,287.9z"/>
<path class="st6" d="M73,154.9c5.7,0,10.4-4.7,10.4-10.4c0-5.7-4.7-10.4-10.4-10.4s-10.4,4.7-10.4,10.4
	C62.6,150.2,67.2,154.9,73,154.9z"/>
<path class="st2" d="M207.6,151.6c2.5,13.1-5.7,25.7-18.9,28.5c-13.1,2.5-25.7-5.7-28.5-18.9l-3.6-15.1c-1.6-0.3-3.3-1.1-4.9-1.9
	c-0.3,0-0.3,0-0.3,0c-8.8,1.6-17.5-3.8-19.2-12.6c-1.6-7.1,2.2-14.5,8.5-17.8c3-7.1,9.3-12.9,17.5-14.8c13.1-3,26,5.7,28.7,18.9
	c1.1,4.9,0.3,9.9-1.4,14.2C196.1,133.3,204.9,140.9,207.6,151.6z"/>
<path class="st6" d="M160,129.7c1.1,2.7-0.5,5.5-3.3,6l-2.7,0.5l4.4,20.8c0,0,0.3,2.5,1.9,7.9c1.1,3.6,5.2,8.2,6.3,9.6
	c-0.3,1.9-2.2,3.8-4.4,4.1c-2.7,0.5-5.5-1.6-6-4.4l-2.5-14.8l-2.5,0.5c-6.8,1.4-14-3-15.3-10.4l-1.4-6.8l-2.5,0.5
	c-1.1,0.3-2.2-0.5-2.2-1.6c-0.3-1.1,0.5-2.2,1.6-2.2l2.5-0.5l-1.6-7.4l23-4.7C157.2,126.4,159.7,127.5,160,129.7z"/>
<path class="st2" d="M351.3,266.3h-66.5l4.1,150.2h17.5l9-132.2h4.7l6.6,132.2H345L351.3,266.3z"/>
<path class="st7" d="M272.7,422.8c3-0.8,7.7-0.3,12.3-3c2.5-1.4,4.9-3.3,5.2-3.6h13.7c0.3,1.1,0.5,3.6,0.5,5.2c0,2.7,0,4.7,0,6
	c0,0.8-0.5,1.4-1.4,1.4h-6.6l-2.5-1.1c0,0-8.8,1.6-15.1,1.4c-6.6,0-8.5-2.5-8.5-2.5S269.7,423.6,272.7,422.8z"/>
<path class="st7" d="M311.9,422.8c3-0.8,7.7-0.3,12.3-3c2.5-1.4,4.9-3.3,5.2-3.6h13.7c0.3,1.1,0.5,3.6,0.5,5.2c0,2.7,0,4.7,0,6
	c0,0.8-0.5,1.4-1.4,1.4h-6.6l-2.5-1.1c0,0-8.8,1.6-15.1,1.4c-6.6,0-8.5-2.5-8.5-2.5S308.8,423.6,311.9,422.8z"/>
<path class="st8" d="M354.8,202.2l-3.3,64h-66.8l-6-76.6c-0.3-3.3-2.7-6-5.7-6.6l-31.7-6.6c-3.8-0.8-7.1-3.6-8.5-7.1L218,133.3
	l15.3-4.7l15.6,32h95.8c6.8,0,13.1,3.6,16.7,9.3c3.8,6.3,4.1,14,0.3,20.3L354.8,202.2z"/>
<path class="st6" d="M326.4,113.6v43.2v7.1c0,4.4-3.6,7.9-7.9,7.9c-4.4,0-7.9-3.6-7.9-7.9v-7.1c0-2.5-2.2-4.4-4.4-4.1l-5.7,0.8
	c-3.6,0-6.6-3-6.6-6.6v-10.7l-4.7-0.3c-1.6,0-1.9-1.6-1.1-3l9.3-24.4L326.4,113.6z"/>
<path class="st2" d="M286.7,129.2c-1.4-1.1-2.2-2.5-2.2-4.4c-0.3-1.6,0.3-3.3,1.4-4.7c1.1-1.4,2.5-2.2,4.4-2.2
	c3.6-0.3,6.6,2.2,6.8,5.7c0.3,1.6-0.3,3.3-1.4,4.7c-1.1,1.4-2.5,2.2-4.4,2.2c-0.3,0-0.3,0-0.5,0
	C289.1,130.8,287.8,130.3,286.7,129.2z M294.6,124c-0.3-2.2-2.2-3.8-4.4-3.6c-1.1,0-1.9,0.5-2.7,1.4c-0.5,0.8-1.1,1.9-0.8,3
	c0,1.1,0.5,1.9,1.4,2.7c0.8,0.8,1.9,1.1,3,0.8c1.1,0,1.9-0.5,2.7-1.4C294.3,126.2,294.6,125.1,294.6,124z"/>
<path class="st2" d="M298.2,124.5c0-3.6,2.7-6.3,6.3-6.3c3.6,0,6.3,2.7,6.3,6.3c0,3.6-2.7,6.3-6.3,6.3
	C300.9,130.8,298.2,127.8,298.2,124.5z M300.6,124.5c0,2.2,1.6,3.8,3.8,3.8c2.2,0,3.8-1.6,3.8-3.8c0-2.2-1.6-3.8-3.8-3.8
	C302.3,120.4,300.6,122.3,300.6,124.5z"/>
<path class="st2" d="M299.3,87.6v3.6c0,3.6,3.6,3,10.7,3c6.8,0,16.4,2.2,16.4,9.9c0,2.2,0,29.6,0,29.6c-3.6,0-6.6-3-6.6-6.6v-11.8
	h-1.1c-0.8,0-1.6,0.8-1.6,1.6v2.5c0,1.1-1.1,2.2-2.2,2.2c-1.1,0-2.2-1.1-2.2-2.2V116c0-2.2-1.6-3.8-3.8-3.8h-4.1
	c-5.7,0-19.4,2.2-19.4-10.1C285.3,87.6,299.3,87.6,299.3,87.6z"/>
<path class="st9" d="M318.4,180.1c7.4,0,13.4-6,13.4-13.4v-6h-2.2v6c0,6.3-4.9,11.2-11.2,11.2c-6.3,0-11.2-4.9-11.2-11.2v-6H305v6
	C305,174,311,180.1,318.4,180.1z"/>
<path class="st2" d="M226.5,154.3c-1.9,0-3.3-1.6-3.3-3.3v-52c0-1.9,1.6-3.3,3.3-3.3c1.9,0,3.3,1.6,3.3,3.3v52
	C230,152.7,228.4,154.3,226.5,154.3z"/>
<path class="st10" d="M252.5,50.6l-26.8-28.2l-26.8,28.5c-5.7,6.3-9,14.5-9,23.5c0,19.7,16.1,35.8,35.8,35.8
	c20,0,35.8-16.1,35.8-35.8C261.5,65.7,258.2,57.5,252.5,50.6z"/>
<path class="st11" d="M239.1,64.6l-13.1-17.2l-13.1,17.2c-2.7,3.3-4.4,7.1-4.4,11.8c0,9.9,7.9,17.5,17.5,17.5
	c9.9,0,17.5-7.9,17.5-17.5C243.7,72,241.8,67.9,239.1,64.6z"/>
<path class="st11" d="M222.1,7.9L217.7,0l-4.4,7.9c-0.8,0.8-1.6,2.2-1.6,3.8c0,3.3,2.5,5.7,5.7,5.7c3.3,0,5.7-2.5,5.7-5.7
	C223.7,10.4,222.9,9.3,222.1,7.9z"/>
<path class="st11" d="M246.2,43V14.5h-7.1V43c0,1.9,1.6,3.8,3.8,3.8C244.5,46.2,246.2,44.9,246.2,43z"/>
<path class="st11" d="M204.3,50.6V37.2h-7.1v13.4c0,1.9,1.6,3.8,3.8,3.8C202.7,54.5,204.3,52.5,204.3,50.6z"/>
<path class="st6" d="M225.4,141.2c5.6,0,10.1-4.5,10.1-10.1c0-5.6-4.5-10.1-10.1-10.1s-10.1,4.5-10.1,10.1
	C215.3,136.7,219.8,141.2,225.4,141.2z"/>
<path class="st8" d="M285.9,211.5l-31.2,8.2l1.9,13.7l34.5-5.2L285.9,211.5z"/>
<path class="st6" d="M248.9,216.5c-0.3,0-0.8,0.3-1.1,0.3l-23.5,4.7c-1.4,0.3-2.2,1.6-1.9,3c0.3,1.4,1.4,2.2,2.7,1.9l16.1-1.4
	c0,1.1,0,2.2,0,3.3c1.1,5.5,6.6,9,12,7.9c5.5-1.1,9-6.6,7.9-12C259.9,218.9,254.1,215.4,248.9,216.5z"/>
<path class="st9" d="M282,231.8l-0.3-2.2c0.3,0,29.8-3.3,73.1-27.4l-0.3,2.7C311,229.3,282.3,231.8,282,231.8z"/>
<path class="st9" d="M280.4,212.9l-0.3-2.7c0.3,0,13.7-1.6,50.1-20.5l8.2-1.4C301.5,209.1,281.2,212.6,280.4,212.9z"/>
</svg>
