<?xml version="1.0" encoding="utf-8"?>
<!-- Generator: Adobe Illustrator 22.1.0, SVG Export Plug-In . SVG Version: 6.00 Build 0)  -->
<svg version="1.1" id="Layer_1" xmlns="http://www.w3.org/2000/svg" xmlns:xlink="http://www.w3.org/1999/xlink" x="0px" y="0px"
	 width="150px" height="150px" viewBox="0 0 150 150" style="enable-background:new 0 0 150 150;" xml:space="preserve">
<style type="text/css">
	.st0{fill:#2E3543;}
	.st1{fill:#00B6FB;}
	.st2{fill:#FEC997;}
	.st3{fill:#0E7BCE;}
	.st4{fill:#F6C167;}
	.st5{fill:#F89937;}
	.st6{fill:#EAC2A7;}
</style>
<path id="Fill-21" class="st0" d="M89.6,79.9l-3.4,53.4c0,0.4-0.4,0.7-0.8,0.7H74.9c-0.4,0-0.7-0.3-0.7-0.6
	c-0.1-0.6,0.2-1.1,0.8-1.3l7.2-2.8l-3.3-44.9c0-0.6-0.9-0.6-0.9,0l-4.4,49c0,0.3-0.3,0.6-0.7,0.6h-10c-0.3,0-0.6-0.2-0.7-0.6
	c-0.1-0.5,0.2-1,0.7-1.1l6-1.7l-1.5-50.7L89.6,79.9z"/>
<path id="Fill-23" class="st1" d="M65.7,46.5c0.6-1.9,3.9-1.7,5.1-1.7l3.8-0.1l24,0c1.2,0,2.2-0.7,2.7-1.8l3.9-9.6l5.2,2l-5,13.3
	c-0.4,1.1-1.5,1.9-2.8,1.9l-8.5,0.7c-1.5,0-2.8,1.1-3,2.7l-1.5,26.3H67.5V53.8C67.4,52.4,65.1,48.4,65.7,46.5z"/>
<path id="Fill-1" class="st2" d="M38.6,65.2c-0.2,0.2-0.3,0.4-0.3,0.7c0,0.4,0.3,0.8,0.6,0.9c-0.2,0.2-0.3,0.4-0.3,0.6l0,0
	c0,0.4,0.2,0.7,0.6,0.8C39.1,68.5,39,68.7,39,69v0.1c0,0.5,0.4,0.9,0.8,0.9h4.6c0,0,1.2,0,1.4-0.3c0.2-0.1,0.5-0.3,0.6-0.3
	s0.2-0.1,0.2-0.1h2v-4.9c0,0-1.8-0.1-2.7-0.5c-0.1-0.1-0.3-0.2-0.4-0.2c-0.6-0.6-1.5-2.4-1.6-3.3c-0.1-0.9,0.1-1.5,0-1.9
	c-0.1-0.4-1.6-0.8-2.1,1.6c-0.2,1-0.1,1.9,0,2.6c0,0.1,0.1,0.3,0.1,0.4h-3c-0.2,0-0.4,0.1-0.5,0.2c-0.3,0.2-0.5,0.5-0.5,0.9
	C37.9,64.6,38.2,65,38.6,65.2"/>
<path id="Fill-1_1_" class="st1" d="M69.1,44.9c-4.9,0-8.6,0.8-8.6,7.6c0,4.3-0.1,7.5-0.4,9.8c-0.2,1.3-1.3,2.2-2.6,2.2H47v5.4h14.4
	c2.2,0,4.1-1.6,4.5-3.9l1.9-12.9L69.1,44.9z"/>
<path class="st3" d="M79.1,52.1c-2.9,0-5.1-1.9-5.1-4.3v-3.1h1v3.1c0,1.8,1.8,3.3,4.1,3.3c2.2,0,4.1-1.5,4.1-3.3v-3.1h1v3.1
	C84.1,50.2,82,52.1,79.1,52.1z"/>
<path id="Fill-1_2_" class="st0" d="M108,41.6c0.6,0,1.1-0.5,1.1-1.1V23.7h-2.2v16.8C106.8,41.1,107.3,41.6,108,41.6"/>
<path id="Fill-3" class="st4" d="M100.3,7.7L100.3,7.7l7.7-7.7l7.7,7.7l0,0c1.8,1.9,3,4.5,3,7.3c0,5.8-4.8,10.6-10.6,10.6
	S97.5,20.8,97.5,15C97.5,12.2,98.6,9.6,100.3,7.7"/>
<path id="Fill-5" class="st5" d="M104.3,11L104.3,11l3.8-3.8l3.8,3.8l0,0c0.9,1,1.4,2.2,1.4,3.6c0,3-2.4,5.2-5.2,5.2
	c-3,0-5.2-2.4-5.2-5.2C102.8,13.3,103.4,12,104.3,11"/>
<path id="Fill-7" class="st5" d="M111.7,3.7L111.7,3.7l1.1-1.9l1.1,1.9l0,0c0.2,0.3,0.4,0.7,0.4,1.1c0,0.8-0.7,1.6-1.6,1.6
	c-0.8,0-1.6-0.7-1.6-1.6C111.3,4.4,111.4,4,111.7,3.7"/>
<path id="Fill-13" class="st6" d="M104.7,33.6c0,2,1.7,3.8,3.8,3.8c2,0,3.8-1.7,3.8-3.8s-1.7-3.8-3.8-3.8
	C106.3,29.8,104.7,31.5,104.7,33.6"/>
<path id="Fill-17" class="st6" d="M82.3,28.9v15.7c0,3.4-0.9,5-2.8,5c-2.1,0-3.2-1.6-3.2-5c0.2-0.9-0.5-1.6-1.4-1.5l-2.5,0.3
	c-1.3,0-2.5-1.1-2.5-2.5v-4l-1.5-0.1c-0.6,0-0.8-0.7-0.4-1.1l2.1-6.8C70.2,28.9,82.3,28.9,82.3,28.9z"/>
<path id="Rectangle" class="st0" d="M82.3,29.8h-1.8V38c0,1,0.8,1.8,1.8,1.8V29.8z"/>
<path class="st0" d="M67.7,34.8c-1.5,0-2.9-1.2-2.9-2.9c0-1.6,1.2-2.9,2.9-2.9s2.9,1.2,2.9,2.9C70.5,33.7,69.2,34.8,67.7,34.8z
	 M67.7,30.3c-1,0-1.8,0.8-1.8,1.8c0,1,0.8,1.8,1.8,1.8c1,0,1.8-0.8,1.8-1.8C69.5,31.2,68.7,30.3,67.7,30.3z"/>
<path class="st0" d="M74,34.8c-1.5,0-2.9-1.2-2.9-2.9c0-1.6,1.2-2.9,2.9-2.9s2.9,1.2,2.9,2.9C76.9,33.7,75.7,34.8,74,34.8z M74,30.3
	c-1,0-1.8,0.8-1.8,1.8c0,1,0.9,1.7,1.8,1.7c0.9,0,1.8-0.8,1.8-1.8C75.9,31.1,75,30.3,74,30.3z"/>
<path id="Fill-19" class="st0" d="M81.7,30.8c0.4,0,0.7-0.3,0.7-0.7c0-0.6,0-1.7,0-3.6c0-2.9-3.5-3.7-6-3.7c-2.6,0-4,0.2-4-1.1v-1.3
	c0,0-5.2,0-5.2,5.5c0,4.6,5.1,3.8,7.2,3.8h1.5c0.8,0,1.4,0.6,1.4,1.4v1.2c0,0.4,0.4,0.8,0.8,0.8s0.8-0.4,0.8-0.8v-0.9
	c0-0.3,0.3-0.6,0.6-0.6L81.7,30.8z"/>
</svg>
