<?xml version="1.0" encoding="utf-8"?>
<!-- Generator: Adobe Illustrator 22.1.0, SVG Export Plug-In . SVG Version: 6.00 Build 0)  -->
<svg version="1.1" id="Layer_1" xmlns="http://www.w3.org/2000/svg" xmlns:xlink="http://www.w3.org/1999/xlink" x="0px" y="0px"
	 width="150px" height="150px" viewBox="0 0 150 150" style="enable-background:new 0 0 150 150;" xml:space="preserve">
<style type="text/css">
	.st0{fill:#FFFFFF;stroke:#D8D6D6;stroke-width:2;}
	.st1{fill:#444444;}
	.st2{fill:#F89937;}
	.st3{fill:#F5F5F5;}
	.st4{fill:#68C157;}
	.st5{fill:#0080FF;}
	.st6{fill:#FFFF00;}
	.st7{fill:#EAC2A7;}
	.st8{fill:#2E3543;}
	.st9{fill:#00B6FB;}
	.st10{fill:none;stroke:#0E7BCE;}
	.st11{fill:#F6C167;}
	.st12{fill:none;stroke:#2E3543;}
</style>
<polygon id="Fill-1" class="st0" points="42.1,104 128.4,104 128.4,0.7 42.1,0.7 "/>
<path id="Programs" class="st1" d="M55.9,17.1h-1.3V10c0.4,0,1.6,0,2,0c2.1,0,2.7,1.1,2.7,2.3s-0.9,2.3-2.6,2.3c-0.2,0-0.6,0-0.9,0
	L55.9,17.1L55.9,17.1z M56.8,11.1c-0.3,0-0.5,0-0.9,0v2.2c0.3,0,0.6,0.1,0.9,0.1c0.7,0,1.3-0.4,1.3-1.2
	C58.1,11.5,57.6,11.1,56.8,11.1z M63,17.1h-1.3V10c0.4,0,1.9,0,2.2,0c1.9,0,2.6,1,2.6,2.2s-0.8,1.8-1.4,2l2.2,2.9h-1.6l-1.8-2.7H63
	L63,17.1L63,17.1z M64,11.1c-0.3,0-0.5,0-0.8,0v2.1h0.7c0.7,0,1.4-0.4,1.4-1.1C65.2,11.6,65,11.1,64,11.1z M68.6,13.5
	c0-2.1,1.6-3.7,3.7-3.7s3.8,1.5,3.8,3.7c0,2.1-1.6,3.7-3.8,3.7C70.2,17.2,68.6,15.7,68.6,13.5z M69.9,13.5c0,1.5,1,2.5,2.4,2.5
	c1.5,0,2.4-1.1,2.4-2.5c0-1.5-1-2.5-2.4-2.5S69.9,12.1,69.9,13.5z M81.4,14.4v-1.2h2.9v2.9c-0.6,0.6-1.7,1-2.7,1
	c-2.3,0-3.8-1.5-3.8-3.7c0-2,1.4-3.7,3.6-3.7c1,0,1.7,0.3,2.3,0.7l-0.5,1.2c-0.4-0.4-1-0.5-1.6-0.5c-1.4,0-2.4,0.9-2.4,2.5
	s1,2.5,2.4,2.5c0.5,0,1.2-0.3,1.5-0.5v-1.1L81.4,14.4L81.4,14.4z M87.9,17.1h-1.2V10c0.4,0,1.9,0,2.2,0c1.9,0,2.6,1,2.6,2.2
	s-0.8,1.8-1.4,2l2.2,2.9h-1.6l-1.9-2.7h-0.9C87.9,14.4,87.9,17.1,87.9,17.1z M88.8,11.1c-0.3,0-0.5,0-0.8,0v2.1h0.8
	c0.7,0,1.4-0.4,1.4-1.1C90.1,11.6,89.8,11.1,88.8,11.1z M93.3,17.1l3-7.1h1.1l3,7.1H99l-0.7-1.8h-3l-0.7,1.8H93.3z M96.8,11.6
	l-1,2.6h2.1L96.8,11.6z M102.4,17.1V10h1.3l2.5,3.3l2.3-3.3h1.2v7.1h-1.3V12l-2.3,3.2h-0.2l-2.3-3.1v5.1L102.4,17.1L102.4,17.1z
	 M115.4,15.2c0-1.4-3.2-1.1-3.2-3.4c0-1.1,0.8-1.9,2.2-1.9c0.9,0,1.6,0.3,2,0.7l-0.6,0.9c-0.4-0.4-0.7-0.5-1.3-0.5s-1,0.3-1,0.8
	c0,1.5,3.2,1,3.2,3.4c0,1.2-1,2-2.4,2c-0.9,0-2-0.4-2.3-1.1l0.7-0.8c0.5,0.5,1.1,0.8,1.6,0.8C115,16,115.4,15.7,115.4,15.2z"/>
<polygon id="Fill-2" class="st2" points="47.9,79.1 63.6,79.1 63.6,63.5 47.9,63.5 "/>
<polygon id="Fill-3" class="st2" points="47.9,97.9 63.6,97.9 63.6,82.4 47.9,82.4 "/>
<polygon id="Fill-4" class="st3" points="47.9,41.3 63.6,41.3 63.6,25.7 47.9,25.7 "/>
<polygon id="Fill-5" class="st2" points="47.9,60.2 63.6,60.2 63.6,44.6 47.9,44.6 "/>
<polygon id="Fill-6" class="st4" points="67.1,79.1 82.7,79.1 82.7,63.5 67.1,63.5 "/>
<polygon id="Fill-7" class="st4" points="67.1,97.9 82.7,97.9 82.7,82.4 67.1,82.4 "/>
<polygon id="Fill-8" class="st4" points="67.1,41.3 82.7,41.3 82.7,25.7 67.1,25.7 "/>
<polygon id="Fill-9" class="st4" points="67.1,60.2 82.7,60.2 82.7,44.6 67.1,44.6 "/>
<polygon id="Fill-10" class="st5" points="86.5,79.1 102.1,79.1 102.1,63.5 86.5,63.5 "/>
<polygon id="Fill-11" class="st5" points="86.5,97.9 102.1,97.9 102.1,82.4 86.5,82.4 "/>
<polygon id="Fill-12" class="st3" points="86.5,41.3 102.1,41.3 102.1,25.7 86.5,25.7 "/>
<polygon id="Fill-13" class="st3" points="86.5,60.2 102.1,60.2 102.1,44.6 86.5,44.6 "/>
<polygon id="Fill-14" class="st6" points="106,79.1 121.7,79.1 121.7,63.5 106,63.5 "/>
<polygon id="Fill-15" class="st6" points="106,97.9 121.7,97.9 121.7,82.4 106,82.4 "/>
<polygon id="Fill-16" class="st3" points="106,41.3 121.7,41.3 121.7,25.7 106,25.7 "/>
<polygon id="Fill-17" class="st6" points="106,60.2 121.7,60.2 121.7,44.6 106,44.6 "/>
<path id="Fill-15_1_" class="st7" d="M87,35.1c0,1.7-1.4,3.1-3.1,3.1s-3.1-1.4-3.1-3.1c0-1.7,1.4-3.1,3.1-3.1S87,33.4,87,35.1"/>
<path id="Fill-21" class="st8" d="M42.2,80.9l3.3,52.6c0,0.4,0.4,0.7,0.7,0.7h10.4c0.4,0,0.6-0.3,0.7-0.6c0.1-0.5-0.3-1.1-0.8-1.4
	l-7.1-2.7l3.2-44.2c0-0.5,0.9-0.6,0.9,0l4.3,48.2c0,0.4,0.3,0.6,0.6,0.6h9.9c0.4,0,0.6-0.3,0.6-0.5c0.1-0.5-0.2-1-0.7-1.1l-6-1.6
	l1.6-49.8L42.2,80.9z"/>
<path id="Fill-23" class="st9" d="M80.7,35.4l-2.9,8.8c-0.5,1.4-1.8,2.2-3.3,2.2H63.3c-0.1,0-0.2,0-0.4,0l-6-0.1l-23.6-0.1
	c-1.2,0-2.2-0.7-2.7-1.7L26.8,35l-5.1,2L26.6,50c0.5,1.1,1.5,1.8,2.7,1.8l8.4,0.6c1.5,0,2.7,1.1,2.9,2.6l1.6,25.7H64L65.7,55
	c0.1-1.4,1.1-2.5,2.5-2.7l9.6-0.1c1.6-0.4,3.9-2,4.4-3.6L86,37.2L80.7,35.4z"/>
<path id="Stroke-21" class="st10" d="M57,46.2v3c0,2-2,3.8-4.5,3.8S48,51.3,48,49.1v-3"/>
<path id="Fill-25" class="st7" d="M91.7,33.7L84,34.6V32h7.7c0.5,0,0.8,0.4,0.8,0.8C92.4,33.2,92.1,33.6,91.7,33.7"/>
<path id="Fill-1_1_" class="st8" d="M24.1,43.1c-0.6,0-1.1-0.5-1.1-1.1V25.5h2.2V42C25.2,42.7,24.6,43.1,24.1,43.1"/>
<path id="Fill-3_1_" class="st11" d="M31.4,8.4L31.4,8.4L24,1.1l-7.4,7.4l0,0c-1.7,1.8-2.8,4.3-2.8,7.1c-0.1,5.5,4.5,10.1,10.1,10.1
	c5.7,0,10.2-4.6,10.2-10.2C34.3,12.6,33.2,10.2,31.4,8.4"/>
<path id="Fill-5_1_" class="st2" d="M27.7,11.5L27.7,11.5L24,7.8l-3.7,3.7l0,0c-0.8,0.9-1.4,2.1-1.4,3.5c0,2.8,2.3,5,5,5s5-2.3,5-5
	C29.1,13.7,28.6,12.4,27.7,11.5"/>
<path id="Fill-7_1_" class="st2" d="M20.5,4.6L20.5,4.6l-1.1-1.8l-1.1,1.8l0,0c-0.2,0.3-0.3,0.6-0.3,1c0,0.8,0.6,1.6,1.5,1.6
	c0.8,0,1.5-0.6,1.5-1.5C21,5.3,20.8,4.9,20.5,4.6"/>
<path id="Fill-13_1_" class="st7" d="M27.4,35.2c0,2-1.6,3.7-3.7,3.7S20,37.3,20,35.2c0-2,1.6-3.7,3.7-3.7S27.4,33.2,27.4,35.2"/>
<g id="Group-32" transform="translate(38.394388, 22.909170)">
	<path id="Fill-17_1_" class="st7" d="M11,7.8v15.6c0,3.3,0.9,4.9,2.7,4.9c2,0,3.1-1.6,3.1-4.9c-0.2-0.8,0.5-1.6,1.4-1.6l2.4,0.4
		c1.3,0,2.4-1.1,2.4-2.4v-3.9l1.7-0.1c0.5,0,0.8-0.7,0.5-1.1l-2.1-6.8L11,7.8L11,7.8z"/>
	<path id="Rectangle" class="st8" d="M11,8.7h1.8v8.1c0,1-0.8,1.8-1.8,1.8V8.7z"/>
	<path id="Stroke-1" class="st12" d="M27.7,10.9c0,1.3-1,2.3-2.3,2.3s-2.3-1-2.3-2.3s1-2.3,2.3-2.3C26.7,8.7,27.7,9.7,27.7,10.9z"/>
	<path id="Stroke-3" class="st12" d="M21.3,10.9c0,1.3-1,2.3-2.3,2.3s-2.3-1-2.3-2.3s1-2.3,2.3-2.3S21.3,9.7,21.3,10.9z"/>
	<path id="Fill-19" class="st8" d="M11.6,9.5c-0.4,0-0.6-0.3-0.6-0.6c0-0.6,0-1.7,0-3.6c0-2.7,3.5-3.7,6-3.7s3.8,0.3,3.8-1.1v-1.3
		c0,0,5.1,0,5.1,5.4c0,4.5-5,3.8-7.1,3.8h-1.5c-0.8,0-1.5,0.6-1.5,1.5v1.2c0,0.5-0.4,0.8-0.8,0.8c-0.5,0-0.8-0.4-0.8-0.8v-0.9
		c0-0.4-0.3-0.5-0.6-0.5L11.6,9.5z"/>
</g>
</svg>
