<svg width="192" height="185" viewBox="0 0 192 185" fill="none" xmlns="http://www.w3.org/2000/svg">
<path d="M54.4132 87.5663C55.537 87.5663 56.4736 86.6297 56.4736 85.5059H52.3528C52.3528 86.6297 53.2893 87.5663 54.4132 87.5663Z" fill="white"/>
<path d="M92.1561 49.0747L94.7784 54.9749C94.8721 55.0686 94.9657 55.2559 95.153 55.2559L101.615 55.9114C101.99 55.9114 102.177 56.3798 101.896 56.6607L97.1198 60.9688C97.0261 61.0624 96.9324 61.2498 97.0261 61.3434L98.3372 67.7118C98.4309 68.0865 98.0563 68.3674 97.6817 68.1801L92.0624 64.9022C91.9688 64.8086 91.7815 64.8086 91.5942 64.9022L85.9749 68.1801C85.694 68.3674 85.2257 68.0865 85.3194 67.7118L86.6305 61.3434C86.6305 61.1561 86.6305 61.0624 86.5369 60.9688L81.7605 56.6607C81.4796 56.3798 81.6669 55.9114 82.0415 55.9114L88.5036 55.2559C88.6909 55.2559 88.7846 55.1622 88.8782 54.9749L91.5005 49.0747C91.5005 48.7938 91.9688 48.7938 92.1561 49.0747Z" fill="#F6C167"/>
<path d="M91.9687 53.2892L93.5608 56.7544C93.5608 56.848 93.6545 56.848 93.7481 56.9417L97.5879 57.3163C97.7752 57.3163 97.8689 57.5972 97.7752 57.7845L94.9656 60.3132C94.8719 60.4068 94.8719 60.5005 94.8719 60.5941L95.6212 64.3403C95.6212 64.5276 95.4339 64.7149 95.2466 64.6213L91.875 62.7482C91.7814 62.7482 91.6877 62.7482 91.5941 62.7482L88.2225 64.6213C88.0352 64.7149 87.8479 64.5276 87.8479 64.3403L88.5972 60.5941C88.5972 60.5005 88.5971 60.4068 88.5035 60.3132L85.6939 57.7845C85.5066 57.5972 85.6002 57.4099 85.8812 57.3163L89.721 56.9417C89.8146 56.9417 89.9083 56.848 89.9083 56.7544L91.5004 53.2892C91.5941 53.1019 91.875 53.1019 91.9687 53.2892Z" fill="#F89937"/>
<path d="M181.97 49.0747L184.593 54.9749C184.686 55.0686 184.78 55.2559 184.967 55.2559L191.429 55.9114C191.804 55.9114 191.991 56.3798 191.71 56.6607L186.934 60.9688C186.84 61.0624 186.747 61.2498 186.84 61.3434L188.151 67.7118C188.245 68.0865 187.87 68.3674 187.496 68.1801L181.877 64.9022C181.783 64.8086 181.596 64.8086 181.408 64.9022L175.789 68.1801C175.508 68.3674 175.04 68.0865 175.134 67.7118L176.445 61.3434C176.445 61.1561 176.445 61.0624 176.351 60.9688L171.575 56.6607C171.294 56.3798 171.481 55.9114 171.856 55.9114L178.318 55.2559C178.505 55.2559 178.599 55.1622 178.692 54.9749L181.315 49.0747C181.315 48.7938 181.783 48.7938 181.97 49.0747Z" fill="#F6C167"/>
<path d="M181.783 53.2892L183.375 56.7544C183.375 56.848 183.469 56.848 183.562 56.9417L187.402 57.3163C187.589 57.3163 187.683 57.5972 187.589 57.7845L184.78 60.3132C184.686 60.4068 184.686 60.5005 184.686 60.5941L185.435 64.3403C185.435 64.5276 185.248 64.7149 185.061 64.6213L181.689 62.7482C181.595 62.7482 181.502 62.7482 181.408 62.7482L178.037 64.6213C177.849 64.7149 177.662 64.5276 177.662 64.3403L178.411 60.5941C178.411 60.5005 178.411 60.4068 178.318 60.3132L175.508 57.7845C175.321 57.5972 175.414 57.4099 175.695 57.3163L179.535 56.9417C179.629 56.9417 179.722 56.848 179.722 56.7544L181.315 53.2892C181.408 53.1019 181.689 53.1019 181.783 53.2892Z" fill="#F89937"/>
<path d="M159.773 37.8362L162.396 43.7364C162.489 43.83 162.583 44.0174 162.77 44.0174L169.232 44.6729C169.607 44.6729 169.794 45.1412 169.513 45.4222L164.737 49.7302C164.643 49.8239 164.55 50.0112 164.643 50.1049L165.954 56.4733C166.048 56.8479 165.673 57.1289 165.299 56.9416L159.68 53.6637C159.586 53.5701 159.399 53.5701 159.211 53.6637L153.592 56.9416C153.311 57.1289 152.843 56.8479 152.937 56.4733L154.248 50.1049C154.248 49.9176 154.248 49.8239 154.154 49.7302L149.378 45.4222C149.097 45.1412 149.284 44.6729 149.659 44.6729L156.121 44.0174C156.308 44.0174 156.402 43.9237 156.495 43.7364L159.118 37.8362C159.211 37.5552 159.68 37.5552 159.773 37.8362Z" fill="#F6C167"/>
<path d="M159.586 42.0505L161.178 45.5157C161.178 45.6094 161.272 45.6094 161.365 45.703L165.205 46.0776C165.393 46.0776 165.486 46.3586 165.393 46.5459L162.583 49.0745C162.489 49.1682 162.489 49.2618 162.489 49.3555L163.238 53.1016C163.238 53.2889 163.051 53.4763 162.864 53.3826L159.492 51.5096C159.399 51.5096 159.305 51.5096 159.211 51.5096L155.84 53.3826C155.653 53.4763 155.465 53.2889 155.465 53.1016L156.214 49.3555C156.214 49.2618 156.214 49.1682 156.121 49.0745L153.311 46.5459C153.124 46.3586 153.218 46.1713 153.498 46.0776L157.338 45.703C157.432 45.703 157.526 45.6094 157.526 45.5157L159.118 42.0505C159.211 41.8632 159.492 41.8632 159.586 42.0505Z" fill="#F89937"/>
<path d="M112.946 37.8362L115.569 43.7364C115.662 43.83 115.756 44.0174 115.943 44.0174L122.405 44.6729C122.78 44.6729 122.967 45.1412 122.686 45.4222L117.91 49.7302C117.816 49.8239 117.723 50.0112 117.816 50.1049L119.128 56.4733C119.221 56.8479 118.847 57.1289 118.472 56.9416L112.853 53.6637C112.759 53.5701 112.572 53.5701 112.384 53.6637L106.765 56.9416C106.484 57.1289 106.016 56.8479 106.11 56.4733L107.421 50.1049C107.421 49.9176 107.421 49.8239 107.327 49.7302L102.551 45.4222C102.27 45.1412 102.457 44.6729 102.832 44.6729L109.294 44.0174C109.481 44.0174 109.575 43.9237 109.668 43.7364L112.291 37.8362C112.291 37.5552 112.853 37.5552 112.946 37.8362Z" fill="#F6C167"/>
<path d="M112.758 42.0505L114.35 45.5157C114.35 45.6094 114.444 45.6094 114.538 45.703L118.378 46.0776C118.565 46.0776 118.659 46.3586 118.565 46.5459L115.755 49.0745C115.662 49.1682 115.662 49.2618 115.662 49.3555L116.411 53.1016C116.411 53.2889 116.224 53.4763 116.036 53.3826L112.665 51.5096C112.571 51.5096 112.477 51.5096 112.384 51.5096L109.012 53.3826C108.825 53.4763 108.638 53.2889 108.638 53.1016L109.387 49.3555C109.387 49.2618 109.387 49.1682 109.293 49.0745L106.484 46.5459C106.296 46.3586 106.39 46.1713 106.671 46.0776L110.511 45.703C110.604 45.703 110.698 45.6094 110.698 45.5157L112.29 42.0505C112.384 41.8632 112.665 41.8632 112.758 42.0505Z" fill="#F89937"/>
<path d="M136.36 34.0901L138.982 39.9903C139.076 40.0839 139.169 40.2713 139.357 40.2713L145.819 40.9268C146.193 40.9268 146.381 41.3951 146.1 41.6761L141.323 45.9841C141.23 46.0778 141.136 46.2651 141.23 46.3588L142.541 52.7272C142.635 53.1018 142.26 53.3828 141.885 53.1955L136.266 49.9176C136.173 49.824 135.985 49.824 135.798 49.9176L130.179 53.1955C129.898 53.3828 129.429 53.1018 129.523 52.7272L130.834 46.3588C130.834 46.1715 130.834 46.0778 130.741 45.9841L125.964 41.6761C125.683 41.3951 125.871 40.9268 126.245 40.9268L132.707 40.2713C132.895 40.2713 132.988 40.1776 133.082 39.9903L135.704 34.0901C135.704 33.8092 136.173 33.8092 136.36 34.0901Z" fill="#F6C167"/>
<path d="M136.08 38.3045L137.672 41.7697C137.672 41.8634 137.766 41.8634 137.859 41.9571L141.699 42.3316C141.886 42.3316 141.98 42.6126 141.886 42.7999L139.077 45.3286C138.983 45.4222 138.983 45.5159 138.983 45.6095L139.732 49.3557C139.732 49.543 139.545 49.7303 139.358 49.6367L135.986 47.7636C135.893 47.7636 135.799 47.7636 135.705 47.7636L132.334 49.6367C132.146 49.7303 131.959 49.543 131.959 49.3557L132.708 45.6095C132.708 45.5159 132.708 45.4222 132.615 45.3286L129.805 42.7999C129.618 42.6126 129.711 42.4253 129.992 42.3316L133.832 41.9571C133.926 41.9571 134.02 41.8634 134.02 41.7697L135.612 38.3045C135.705 38.1172 136.08 38.1172 136.08 38.3045Z" fill="#F89937"/>
<path d="M107.421 76.0467L113.415 90.7504H163.145L168.577 74.8292L173.353 76.0467L169.045 93.9346C168.671 95.714 167.172 97.0252 165.393 97.2125L154.435 98.5236C152.656 98.7109 151.345 100.209 151.345 101.989L150.689 127.088H126.339L124.653 101.708C124.56 100.022 123.249 98.6173 121.563 98.43L110.699 96.9315C109.013 96.7442 107.608 95.433 107.14 93.8409L102.458 76.7023L107.421 76.0467Z" fill="#77C54F"/>
<path d="M120.719 183.749C120.719 183.749 121.374 184.685 123.809 184.685C126.151 184.685 129.335 184.123 129.335 184.123L130.365 184.498H132.894C133.081 184.498 133.362 184.311 133.362 184.03C133.362 183.655 133.362 182.812 133.362 181.876C133.362 181.22 133.268 180.283 133.175 179.909H128.117C128.024 180.002 127.087 180.658 126.244 181.22C124.559 182.25 122.779 181.969 121.655 182.344C120.532 182.437 120.719 183.749 120.719 183.749Z" fill="#090A0A"/>
<path d="M135.235 183.749C135.235 183.749 135.891 184.685 138.326 184.685C140.667 184.685 143.851 184.123 143.851 184.123L144.882 184.498H147.41C147.598 184.498 147.878 184.311 147.878 184.03C147.878 183.655 147.878 182.812 147.878 181.876C147.878 181.22 147.785 180.283 147.691 179.909H142.634C142.54 180.002 141.604 180.658 140.761 181.22C139.075 182.25 137.296 181.969 136.172 182.344C135.048 182.437 135.235 183.749 135.235 183.749Z" fill="#090A0A"/>
<path d="M148.253 179.815H141.604L139.075 133.457H137.296L134.018 179.815H127.462L126.057 127.182H150.688L148.253 179.815Z" fill="#2E3543"/>
<path d="M171.2 77.5453C173.269 77.5453 174.946 75.8681 174.946 73.7991C174.946 71.7302 173.269 70.053 171.2 70.053C169.131 70.053 167.454 71.7302 167.454 73.7991C167.454 75.8681 169.131 77.5453 171.2 77.5453Z" fill="#EAC2A7"/>
<path d="M104.424 78.2945C106.493 78.2945 108.17 76.6173 108.17 74.5484C108.17 72.4795 106.493 70.8022 104.424 70.8022C102.355 70.8022 100.678 72.4795 100.678 74.5484C100.678 76.6173 102.355 78.2945 104.424 78.2945Z" fill="#EAC2A7"/>
<path d="M126.808 70.3339L127.089 81.2914L127.183 85.7867C127.183 87.2852 128.494 88.5964 130.086 88.5027L132.521 88.2217C133.457 88.0344 134.394 88.8773 134.394 89.9075L134.488 92.9044C134.488 94.7775 135.986 96.1823 137.859 96.1823C139.732 96.1823 141.137 94.6838 141.137 92.8108L141.043 89.8138L140.575 71.7387L128.306 69.8656L126.808 70.3339Z" fill="#EAC2A7"/>
<path d="M132.239 93.0917V90.6567H133.176V93.0917C133.176 95.5267 135.33 97.6808 137.765 97.6808C140.2 97.6808 142.354 95.6204 142.354 93.0917V90.6567H143.29V93.0917C143.29 96.1823 140.855 98.6173 137.765 98.6173C134.862 98.6173 132.146 96.1823 132.239 93.0917Z" fill="#5D913C"/>
<path d="M140.668 68.3671C140.481 68.3671 140.387 68.3671 140.387 68.3671C139.451 66.0258 136.079 65.3702 133.644 65.4638C130.647 65.5575 129.242 65.8384 129.242 64.34V62.9352C129.242 62.9352 123.342 63.0288 123.717 69.0227C123.81 74.1736 129.523 73.1435 131.865 73.0498H133.644C134.581 73.0498 135.33 73.799 135.424 74.7356V76.0467C135.424 76.515 135.892 76.9832 136.36 76.9832C136.828 76.9832 137.297 76.6086 137.297 76.0467V75.0165C137.297 74.6419 137.578 74.3609 137.952 74.3609H138.327L138.514 83.0707C138.514 84.5692 139.825 85.8804 141.417 85.7867H141.511C143.009 85.7867 144.321 84.4756 144.227 82.8835L143.946 71.1768C143.478 69.491 142.26 68.3671 140.668 68.3671Z" fill="#2E3543"/>
<path d="M128.306 82.4151C128.493 83.6326 129.524 84.3818 130.741 84.3818C131.959 84.3818 132.895 83.3516 133.082 82.3214L128.306 82.4151Z" fill="white"/>
<path d="M127.933 80.6357L124.936 80.7293C124.374 80.7293 123.812 80.2611 123.812 79.6055V79.4182C123.812 78.8562 124.28 78.2943 124.936 78.2943L127.933 78.2007C128.494 78.2007 129.056 78.6689 129.056 79.3245V79.5118C129.056 80.1674 128.588 80.542 127.933 80.6357Z" fill="#EAC2A7"/>
<path d="M51.6961 90.1885C45.7959 90.1885 40.9259 85.4121 40.9259 79.4183V64.621C40.9259 58.7208 45.7022 53.8508 51.6961 53.8508C57.5963 53.8508 62.4663 58.6272 62.4663 64.621V79.4183C62.4663 85.4121 57.6899 90.1885 51.6961 90.1885Z" fill="#2E3543"/>
<path d="M19.1046 63.5907L26.2223 78.0134L39.0528 78.2943H44.2975H59.3757C61.717 78.2007 63.7774 79.6992 64.433 81.9469L68.3665 94.5901L81.478 94.6837V98.8045L67.0553 99.1791C65.6505 99.2728 64.3393 98.6172 63.6838 97.3997L60.4059 91.6868L57.9709 104.049L42.3307 104.33L39.1465 86.3485C38.9592 85.5057 38.3036 84.9438 37.5544 84.8501L26.2223 83.6326C24.4429 83.4453 22.9444 82.3215 22.1952 80.6357L15.1711 65.3701L19.1046 63.5907Z" fill="#F5E622"/>
<path d="M64.8081 167.921C63.7779 167.64 62.1857 167.827 60.5936 166.985C59.8444 166.423 58.9079 165.861 58.8142 165.767H54.1315C54.0379 166.142 53.9442 166.891 53.9442 167.546C53.9442 168.389 53.9442 169.139 53.9442 169.607C53.9442 169.888 54.2252 170.075 54.4125 170.075H56.7538L57.5967 169.607C57.5967 169.607 60.5 170.169 62.7477 170.169C64.9953 170.169 65.5573 169.42 65.5573 169.42C65.5573 169.42 65.8382 168.202 64.8081 167.921Z" fill="#090A0A"/>
<path d="M54.9744 167.921C53.9442 167.64 52.3521 167.827 50.76 166.985C50.0108 166.423 49.0742 165.861 48.9806 165.767H44.2979C44.2042 166.142 44.1106 166.891 44.1106 167.546C44.1106 168.389 44.1106 169.139 44.1106 169.607C44.1106 169.888 44.3916 170.075 44.5789 170.075H46.9202L47.7631 169.607C47.7631 169.607 50.6664 170.169 52.914 170.169C55.1617 170.169 55.7237 169.42 55.7237 169.42C55.7237 169.42 56.0983 168.202 54.9744 167.921Z" fill="#090A0A"/>
<path d="M50.479 86.0677C47.4821 86.0677 45.0471 83.7264 45.0471 80.6358V78.2944H45.89V80.6358C45.89 83.0708 47.9504 85.1311 50.3854 85.1311C52.8204 85.1311 54.8808 83.0708 54.8808 80.6358V78.2008H55.7236V80.6358C55.9109 83.6327 53.4759 86.0677 50.479 86.0677Z" fill="#F68D2E"/>
<path d="M52.1644 58.3463C49.5421 58.3463 47.4817 63.6846 47.4817 66.3069V78.1072V82.1343C50.0103 85.4122 53.6628 83.4455 53.4755 80.7295V78.0136C53.2882 77.1707 54.0375 76.3278 54.8803 76.4215L57.3153 76.7961C58.7201 76.7961 59.7503 75.6722 59.7503 74.3611V70.2403L61.5297 70.1467C62.1853 70.1467 62.3726 69.3974 61.998 69.0228L57.5963 59.1892L52.1644 58.3463Z" fill="#EAC2A7"/>
<path d="M59.2832 67.899C59.1896 67.899 59.0959 67.899 59.0959 67.899C58.4403 67.8053 57.8784 67.5244 57.5038 67.0561C57.0355 66.4942 56.8482 65.9322 56.9419 65.2766C57.0355 63.9655 58.1594 62.9353 59.4705 63.029C60.1261 63.1226 60.688 63.4036 61.0626 63.8718C61.5309 64.4338 61.7182 64.9957 61.6246 65.6513C61.5309 66.3069 61.2499 66.8688 60.7817 67.2434C60.4071 67.7117 59.8451 67.899 59.2832 67.899ZM57.6911 65.464C57.6911 65.9322 57.7848 66.2132 58.0657 66.4942C58.3467 66.7751 58.7213 67.0561 59.0959 67.0561C59.4705 67.0561 59.8451 66.9624 60.1261 66.6814C60.4071 66.4005 60.688 66.0259 60.688 65.6513C60.688 65.2767 60.5944 64.9021 60.3134 64.6211C60.0324 64.3402 59.6578 64.0592 59.2832 64.0592C58.6276 63.9655 57.7848 64.5274 57.6911 65.464Z" fill="#373463"/>
<path d="M53.9441 67.8989C52.633 67.8989 51.6028 66.8687 51.6028 65.5575C51.6028 64.2464 52.633 63.2162 53.9441 63.2162C55.2553 63.2162 56.2855 64.2464 56.2855 65.5575C56.2855 66.8687 55.2553 67.8989 53.9441 67.8989ZM53.9441 64.059C53.1949 64.059 52.4457 64.8083 52.4457 65.5575C52.4457 66.3068 53.1949 67.056 53.9441 67.056C54.6934 67.056 55.4426 66.3068 55.4426 65.5575C55.4426 64.7146 54.787 64.059 53.9441 64.059Z" fill="#373463"/>
<path d="M42.4259 141.885L44.5799 165.767L48.607 165.58L49.6372 141.885H42.4259Z" fill="#EAC2A7"/>
<path d="M51.9778 141.885L54.1318 165.767L58.1589 165.58L59.1891 141.885H51.9778Z" fill="#EAC2A7"/>
<path d="M42.3308 104.143C42.3308 104.143 40.3641 112.665 39.6148 116.224C38.772 119.783 35.3068 142.073 35.3068 142.073H66.0252C64.9013 132.52 62.279 120.064 60.9679 115.475C59.7504 111.073 57.971 104.049 57.971 104.049L42.3308 104.143Z" fill="#7A8291"/>
<path d="M47.5754 65.1828C47.5754 65.1828 54.5057 64.7145 55.6296 58.7207C56.2852 61.343 59.5631 62.4668 59.5631 62.4668L61.4361 61.343L59.4694 57.2223L48.3246 55.6301L45.1404 59.7509L47.5754 65.1828Z" fill="#2E3543"/>
<path d="M17.6076 74.1737C18.2632 74.1737 18.7314 73.6118 18.7314 73.0499V55.2557C18.7314 54.6001 18.1695 54.1318 17.6076 54.1318C16.952 54.1318 16.4838 54.6938 16.4838 55.2557V73.0499C16.3901 73.6118 16.952 74.1737 17.6076 74.1737Z" fill="#2E3543"/>
<path d="M4.49538 29.1263L17.6069 15.1719L30.8121 29.1263C33.6217 32.2169 35.3074 36.244 35.3074 40.7394C35.3074 50.4794 27.4405 58.4399 17.6069 58.4399C7.77326 58.4399 0 50.573 0 40.7394C0 36.4313 1.68577 32.4042 4.49538 29.1263Z" fill="#F6C167"/>
<path d="M11.1452 35.963L17.6073 27.4406L24.0694 35.963C25.4742 37.5551 26.2234 39.5219 26.2234 41.6759C26.2234 46.4523 22.3836 50.3857 17.5136 50.3857C12.6436 50.3857 8.80383 46.5459 8.80383 41.6759C8.80383 39.5219 9.74037 37.5551 11.1452 35.963Z" fill="#F89937"/>
<path d="M4.02648 25.0056L6.18052 21.1658L8.33454 25.0056C8.80281 25.4738 9.08378 26.1294 9.08378 26.8786C9.08378 28.4707 7.86628 29.6882 6.27417 29.6882C4.68205 29.6882 3.46455 28.4707 3.46455 26.8786C3.27725 26.223 3.55821 25.5675 4.02648 25.0056Z" fill="#F89937"/>
<path d="M22.0087 13.9544V0H25.5675V13.9544C25.5675 14.8909 24.8183 15.8274 23.6944 15.8274C22.7579 15.6401 22.0087 14.8909 22.0087 13.9544Z" fill="#F89937"/>
<path d="M28.6577 17.4195V10.7701H32.2165V17.4195C32.2165 18.3561 31.4673 19.2926 30.3435 19.2926C29.4069 19.199 28.6577 18.2624 28.6577 17.4195Z" fill="#F89937"/>
<path d="M17.2319 66.9623C18.9388 66.9623 20.3225 65.5786 20.3225 63.8717C20.3225 62.1648 18.9388 60.7811 17.2319 60.7811C15.525 60.7811 14.1414 62.1648 14.1414 63.8717C14.1414 65.5786 15.525 66.9623 17.2319 66.9623Z" fill="#EAC2A7"/>
<path d="M82.5094 96.276H82.4157C81.8538 96.276 81.3855 95.8077 81.3855 95.1522V91.2187C81.3855 90.5631 81.8538 90.0948 82.4157 90.0948C82.9776 90.0948 83.4459 90.5631 83.4459 91.2187V95.2458C83.5395 95.9014 83.0713 96.276 82.5094 96.276Z" fill="#EAC2A7"/>
<path d="M81.1038 97.8682V96.1824C81.1038 94.4029 82.5086 92.9982 84.288 92.9982C86.0674 92.9982 87.4722 94.4029 87.4722 96.1824V96.6506C87.4722 98.4301 86.0674 99.8349 84.288 99.8349H83.2578C82.0403 99.9285 81.1038 98.5238 81.1038 97.8682Z" fill="#EAC2A7"/>
<path d="M56.5676 73.7055C57.8787 73.7055 59.0026 72.5817 59.0026 71.2705H54.1326C54.1326 72.5817 55.2564 73.7055 56.5676 73.7055Z" fill="white"/>
</svg>
