<svg width="154" height="154" viewBox="0 0 154 154" fill="none" xmlns="http://www.w3.org/2000/svg">
<path d="M107.652 1.27502H20.4917V106.013H107.652V1.27502Z" fill="white"/>
<path d="M108.928 107.471H19.1261V0H109.019L108.928 107.471ZM21.8584 104.738H106.286V2.7323H21.8584V104.738Z" fill="#C1C1C1"/>
<path d="M43.0795 30.1465H29.418V43.808H43.0795V30.1465Z" fill="#DBDBDB"/>
<path d="M61.9317 30.1465H48.2701V43.808H61.9317V30.1465Z" fill="#68C157"/>
<path d="M80.7838 30.1465H67.1223V43.808H80.7838V30.1465Z" fill="#DBDBDB"/>
<path d="M99.547 30.1465H85.8855V43.808H99.547V30.1465Z" fill="#DBDBDB"/>
<path d="M43.0795 48.3618H29.418V62.0233H43.0795V48.3618Z" fill="#FFFF00"/>
<path d="M61.9317 48.3618H48.2701V62.0233H61.9317V48.3618Z" fill="#68C157"/>
<path d="M80.7838 48.3618H67.1223V62.0233H80.7838V48.3618Z" fill="#DBDBDB"/>
<path d="M99.547 48.3618H85.8855V62.0233H99.547V48.3618Z" fill="#F89937"/>
<path d="M43.0795 66.5771H29.418V80.2387H43.0795V66.5771Z" fill="#FFFF00"/>
<path d="M61.9317 66.5771H48.2701V80.2387H61.9317V66.5771Z" fill="#68C157"/>
<path d="M80.7838 66.5771H67.1223V80.2387H80.7838V66.5771Z" fill="#0080FF"/>
<path d="M99.547 66.5771H85.8855V80.2387H99.547V66.5771Z" fill="#F89937"/>
<path d="M43.0795 84.7925H29.418V98.454H43.0795V84.7925Z" fill="#FFFF00"/>
<path d="M61.9317 84.7925H48.2701V98.454H61.9317V84.7925Z" fill="#68C157"/>
<path d="M80.7838 84.7925H67.1223V98.454H80.7838V84.7925Z" fill="#0080FF"/>
<path d="M99.547 84.7925H85.8855V98.454H99.547V84.7925Z" fill="#F89937"/>
<path d="M29.0541 20.9476V12.5686C29.5095 12.5686 30.8756 12.5686 31.4221 12.5686C33.8812 12.5686 34.7008 13.8437 34.7008 15.3009C34.7008 16.7581 33.6079 18.0332 31.6042 18.0332C31.331 18.0332 30.8756 18.0332 30.5113 18.0332V21.0387L29.0541 20.9476ZM30.5113 13.8437V16.3938C30.8756 16.3938 31.2399 16.4849 31.5132 16.4849C32.4239 16.4849 33.0615 16.0295 33.0615 15.1187C33.0615 14.208 32.515 13.8437 31.5132 13.8437C31.331 13.7526 30.9667 13.8437 30.5113 13.8437Z" fill="#444444"/>
<path d="M36.9771 20.9476V12.5686C37.4324 12.5686 39.254 12.5686 39.5272 12.5686C41.8041 12.5686 42.5327 13.7526 42.5327 15.1187C42.5327 16.576 41.622 17.3046 40.8933 17.4867L43.5346 20.9476H41.7131L39.5272 17.76H38.5254V20.9476H36.9771ZM38.5254 13.8437V16.3027H39.5272C40.3469 16.3027 41.1666 15.8473 41.1666 15.0277C41.1666 14.3901 40.8023 13.8437 39.6183 13.8437C39.254 13.7526 38.8897 13.8437 38.5254 13.8437Z" fill="#444444"/>
<path d="M48.9088 12.3865C51.3679 12.3865 53.2805 14.1169 53.2805 16.7581C53.2805 19.3083 51.3679 21.1298 48.9088 21.1298C46.4497 21.1298 44.5371 19.3994 44.5371 16.7581C44.5371 14.208 46.3586 12.3865 48.9088 12.3865ZM48.9088 19.6726C50.6392 19.6726 51.7322 18.3975 51.7322 16.7581C51.7322 15.0277 50.4571 13.8437 48.9088 13.8437C47.2694 13.8437 46.0854 15.0277 46.0854 16.7581C46.0854 18.3065 47.3605 19.6726 48.9088 19.6726Z" fill="#444444"/>
<path d="M59.1097 16.3937H62.4795V19.8547C61.7509 20.5833 60.3848 21.0387 59.2918 21.0387C56.5595 21.0387 54.9202 19.3082 54.9202 16.667C54.9202 14.299 56.5595 12.2953 59.1097 12.2953C60.2937 12.2953 61.1134 12.5685 61.842 13.115L61.2044 14.299C60.749 13.9347 60.0205 13.6614 59.2918 13.6614C57.6525 13.6614 56.4685 14.7544 56.4685 16.5759C56.4685 18.3974 57.6525 19.4903 59.2918 19.4903C59.9294 19.4903 60.7491 19.2171 61.0223 18.9439V17.6688H59.0186L59.1097 16.3937Z" fill="#444444"/>
<path d="M64.9387 20.9476V12.5686C65.3941 12.5686 67.2156 12.5686 67.4889 12.5686C69.7658 12.5686 70.4944 13.7526 70.4944 15.1187C70.4944 16.576 69.5836 17.3046 68.855 17.4867L71.4963 20.9476H69.6747L67.3978 17.76H66.3959V20.9476H64.9387ZM66.3959 13.8437V16.3027H67.3978C68.2175 16.3027 69.0372 15.8473 69.0372 15.0277C69.0372 14.3901 68.6729 13.8437 67.4889 13.8437C67.1246 13.7526 66.7602 13.8437 66.3959 13.8437Z" fill="#444444"/>
<path d="M75.7768 12.3865H77.0519L80.6039 20.7655H79.0556L78.1448 18.5797H74.5928L73.6821 20.7655H72.2249L75.7768 12.3865ZM75.1393 17.3957H77.5983L76.4144 14.3902L75.1393 17.3957Z" fill="#444444"/>
<path d="M82.5154 12.4774H83.9726L86.796 16.3937L89.5283 12.4774H90.8945V20.8565H89.4372V14.7543L86.8871 18.4885H86.7049L84.0637 14.7543V20.7654H82.6064L82.5154 12.4774C82.6065 12.4774 82.5154 12.4774 82.5154 12.4774Z" fill="#444444"/>
<path d="M93.4453 14.6634C93.4453 13.3883 94.4472 12.3865 96.0866 12.3865C97.0884 12.3865 97.9992 12.7508 98.4546 13.2972L97.6349 14.3902C97.2705 14.0259 96.8152 13.7526 96.1777 13.7526C95.449 13.7526 94.9937 14.1169 94.9937 14.6634C94.9937 16.3939 98.8189 15.8474 98.8189 18.6708C98.8189 20.128 97.5438 21.0388 95.9955 21.0388C94.9026 21.0388 93.6275 20.5834 93.2632 19.7637L94.0829 18.7618C94.5383 19.3994 95.3579 19.6726 95.9955 19.6726C96.7241 19.6726 97.1795 19.3083 97.1795 18.6708C97.2705 16.9403 93.4453 17.3957 93.4453 14.6634Z" fill="#444444"/>
<path d="M32.3316 150.823C31.3297 150.55 29.6903 150.732 28.142 149.821C27.3223 149.366 26.5027 148.728 26.4116 148.637H21.7666C21.6756 149.002 21.5845 149.821 21.5845 150.459C21.5845 151.37 21.5845 152.098 21.5845 152.462C21.5845 152.736 21.8577 152.918 22.0399 152.918H24.3168L25.2275 152.553C25.2275 152.553 28.142 153.1 30.3279 153.1C32.5137 153.1 33.1512 152.28 33.1512 152.28C33.1512 152.28 33.3334 151.005 32.3316 150.823Z" fill="#090A0A"/>
<path d="M19.0346 150.823C18.0328 150.55 16.3934 150.732 14.8451 149.821C14.0254 149.366 13.2057 148.728 13.1147 148.637H8.46976C8.37869 149.002 8.2876 149.821 8.2876 150.459C8.2876 151.37 8.2876 152.098 8.2876 152.462C8.2876 152.736 8.56083 152.918 8.74298 152.918H11.0199L11.9307 152.553C11.9307 152.553 14.8451 153.1 17.0309 153.1C19.2168 153.1 19.8544 152.28 19.8544 152.28C19.8544 152.28 20.0365 151.005 19.0346 150.823Z" fill="#090A0A"/>
<path d="M4.46317 100.367H28.2342L30.9665 74.9562C31.0576 73.499 32.2416 72.406 33.6077 72.406H45.2655C46.6317 72.406 47.7246 71.4953 48.089 70.2202L51.3677 56.3765L47.2692 55.1014L42.7154 66.395H11.4761C7.28656 66.395 3.91671 69.8559 4.00779 73.9543L4.46317 100.367Z" fill="#77C54F"/>
<path d="M5.73853 100.367H28.2345L26.9594 148.637H20.9484L17.9428 106.195H16.3034L14.0265 148.637H7.92433L5.73853 100.367Z" fill="#2E3543"/>
<path d="M13.9347 102.188H0V116.123H13.9347V102.188Z" fill="#0080FF"/>
<path d="M10.3831 100.276H9.47235L10.1099 78.3261L11.0207 75.5938L10.3831 100.276Z" fill="#5D913C"/>
<path d="M62.4793 42.6239H48.5446V56.5586H62.4793V42.6239Z" fill="#0080FF"/>
<path d="M7.46866 105.194C9.38007 105.194 10.9296 103.644 10.9296 101.733C10.9296 99.8212 9.38007 98.2717 7.46866 98.2717C5.55725 98.2717 4.00775 99.8212 4.00775 101.733C4.00775 103.644 5.55725 105.194 7.46866 105.194Z" fill="#EAC2A7"/>
<path d="M50.0008 57.6516C51.9122 57.6516 53.4617 56.1021 53.4617 54.1906C53.4617 52.2792 51.9122 50.7297 50.0008 50.7297C48.0894 50.7297 46.5399 52.2792 46.5399 54.1906C46.5399 56.1021 48.0894 57.6516 50.0008 57.6516Z" fill="#EAC2A7"/>
<path d="M22.041 45.3562L11.5671 49.7279L15.2102 65.9395L15.8478 68.5808C16.2121 70.2201 17.8514 71.222 19.4908 70.8577C21.1302 70.4934 22.1321 68.854 21.7677 67.2146L21.1302 64.5734C20.948 63.6626 21.5856 62.7519 22.4963 62.6608L24.7733 62.3875C26.1394 62.1143 27.0502 60.6571 26.6859 59.2909L25.7751 55.2836L23.4982 45.5383L22.041 45.3562Z" fill="#EAC2A7"/>
<path d="M18.5793 73.8632C15.756 73.8632 13.5701 71.5863 13.5701 68.7629V66.486H14.3898V68.7629C14.3898 71.1309 16.3024 72.9524 18.5793 73.0435C20.8563 73.1346 22.7689 71.1309 22.86 68.854V66.577H23.6797V68.854C23.6797 71.6773 21.3117 73.8632 18.5793 73.8632Z" fill="#5D913C"/>
<path d="M8.56158 49.9101L10.9296 60.3839C11.2028 61.75 12.66 62.6608 14.0262 62.2965H14.1173C15.4835 62.0232 16.3942 60.566 16.0299 59.1999L14.2994 51.4583L14.5727 51.3673C14.937 51.2762 15.2102 51.5494 15.3013 51.8226L15.4835 52.7334C15.5745 53.2799 16.0299 53.462 16.4853 53.371C16.9407 53.2799 17.2139 52.7334 17.1228 52.3691L16.8496 51.1851C16.6674 50.3654 17.2139 49.5457 18.0336 49.3636L19.673 48.9993C21.7677 48.5439 27.0502 48.1796 26.0483 43.5347C24.9554 38.1612 19.764 39.3452 19.764 39.3452L20.0373 40.6202C20.3105 41.8953 18.9443 41.9864 16.3031 42.6239C14.1173 43.0793 11.2028 44.4455 10.9296 46.7224C10.9296 46.7224 10.8385 46.7224 10.6563 46.8134C9.38126 47.1777 8.56158 48.635 8.56158 49.9101Z" fill="#2E3543"/>
<path d="M20.5823 57.7426C20.9466 58.6533 22.0396 59.2909 23.1325 59.1087C24.2254 58.8355 24.954 57.9247 24.863 56.8318L20.5823 57.7426Z" fill="white"/>
<path d="M23.4977 54.1907V54.0086C23.4066 53.4621 23.7709 52.9156 24.2263 52.8245L26.8675 52.187C27.414 52.0959 27.9605 52.4602 28.0515 52.9156V53.0978C28.1426 53.6443 27.7783 54.1907 27.3229 54.2818L24.6817 54.9193C24.2263 55.1015 23.6798 54.7372 23.4977 54.1907Z" fill="#EAC2A7"/>
<path d="M98.8182 64.6645V50.2744C98.8182 44.4455 103.554 39.8005 109.292 39.8005C115.121 39.8005 119.766 44.5365 119.766 50.2744V64.6645C119.766 70.4934 115.03 75.1383 109.292 75.1383C103.463 75.1383 98.8182 70.4934 98.8182 64.6645Z" fill="#2E3543"/>
<path d="M141.078 49.2726L134.156 63.2984L121.678 63.5716H116.578L101.824 63.4806V63.3895L87.5247 63.1163L81.3315 50.7298L76.9598 52.2781L83.2441 65.7575C84.0638 67.4879 85.7032 68.6719 87.5247 68.9452L97.2699 70.0381C98.6361 70.2202 99.729 71.2221 100.002 72.5882L103.099 88.5267L118.309 88.7999L121.496 71.4042C121.678 70.5845 122.316 70.0381 123.045 69.947L134.065 68.763C135.795 68.5808 137.253 67.4879 137.981 65.8486L144.812 51.003L141.078 49.2726Z" fill="#F5E622"/>
<path d="M95.8141 152.098C95.8141 152.098 96.3605 152.827 98.5464 152.827C100.732 152.827 103.556 152.28 103.556 152.28L104.375 152.736H106.652C106.834 152.736 107.108 152.554 107.108 152.28C107.108 151.825 107.108 151.096 107.108 150.277C107.108 149.639 107.017 148.911 106.925 148.546H102.372C102.281 148.637 101.37 149.184 100.641 149.73C99.0929 150.55 97.5446 150.368 96.5427 150.641C95.5409 150.914 95.8141 152.098 95.8141 152.098Z" fill="#090A0A"/>
<path d="M105.376 152.098C105.376 152.098 105.923 152.827 108.109 152.827C110.295 152.827 113.118 152.28 113.118 152.28L113.938 152.736H116.215C116.397 152.736 116.67 152.554 116.67 152.28C116.67 151.825 116.67 151.096 116.67 150.277C116.67 149.639 116.579 148.911 116.488 148.546H111.934C111.843 148.637 110.932 149.184 110.204 149.73C108.655 150.55 107.107 150.368 106.105 150.641C105.012 150.914 105.376 152.098 105.376 152.098Z" fill="#090A0A"/>
<path d="M105.376 65.7575V63.3895H106.196V65.7575C106.196 68.1255 108.199 70.1292 110.567 70.1292C112.935 70.1292 114.939 68.1255 114.939 65.7575V63.4806H115.759V65.7575C115.759 68.7631 113.391 71.04 110.476 71.04C107.562 71.131 105.194 68.7631 105.376 65.7575Z" fill="#F68D2E"/>
<path d="M103.555 44.9919L99.2743 54.555C98.91 54.9193 99.0921 55.6479 99.7297 55.6479L101.46 55.739V59.7464C101.46 61.0214 102.462 62.1144 103.828 62.1144L106.196 61.7501C107.016 61.659 107.744 62.4787 107.562 63.2984V65.9396C107.38 68.5808 110.932 70.4934 113.391 67.3057V63.3894V51.9138C113.391 49.3636 111.388 44.1722 108.837 44.1722L103.555 44.9919Z" fill="#EAC2A7"/>
<path d="M100.458 52.8244C100.002 52.4601 99.729 51.9137 99.6379 51.2761C99.5468 50.6386 99.729 50.0921 100.184 49.5457C100.549 49.0903 101.095 48.817 101.733 48.726C103.008 48.6349 104.101 49.6367 104.192 50.9118C104.283 51.5493 104.101 52.0958 103.645 52.6423C103.281 53.0977 102.734 53.3709 102.097 53.462C102.097 53.462 102.006 53.462 101.915 53.462C101.368 53.3709 100.822 53.2798 100.458 52.8244ZM103.463 51.094C103.372 50.1832 102.552 49.6367 101.915 49.7278C101.55 49.7278 101.186 50.0011 100.913 50.2743C100.64 50.5475 100.549 50.9118 100.549 51.2761C100.549 51.6404 100.822 52.0047 101.095 52.278C101.368 52.5512 101.733 52.6423 102.097 52.6423C102.461 52.6423 102.826 52.369 103.099 52.0958C103.372 51.7315 103.463 51.5494 103.463 51.094Z" fill="#373463"/>
<path d="M104.831 51.0942C104.831 49.8191 105.833 48.8173 107.108 48.8173C108.383 48.8173 109.385 49.8191 109.385 51.0942C109.385 52.3693 108.383 53.3711 107.108 53.3711C105.833 53.3711 104.831 52.4603 104.831 51.0942ZM105.65 51.0942C105.65 51.8228 106.379 52.5514 107.108 52.5514C107.836 52.5514 108.565 51.8228 108.565 51.0942C108.565 50.3656 107.836 49.6369 107.108 49.6369C106.288 49.728 105.65 50.2745 105.65 51.0942Z" fill="#373463"/>
<path d="M111.297 125.322L112.299 148.455L116.215 148.546L118.31 125.322H111.297Z" fill="#EAC2A7"/>
<path d="M102.006 125.322L103.008 148.455L106.924 148.546L109.019 125.322H102.006Z" fill="#EAC2A7"/>
<path d="M103.191 88.5265C103.191 88.5265 101.461 95.3572 100.277 99.6378C99.0015 104.101 96.4513 116.214 95.3584 125.504H125.232C125.232 125.504 121.862 103.827 121.042 100.366C120.313 96.9055 118.401 88.6176 118.401 88.6176L103.191 88.5265Z" fill="#7A8291"/>
<path d="M115.669 46.4493L112.572 42.4419L101.734 43.9902L99.8215 47.9976L101.643 49.0905C101.643 49.0905 104.831 47.9976 105.468 45.4474C106.561 51.2763 113.301 51.7317 113.301 51.7317L115.669 46.4493Z" fill="#2E3543"/>
<path d="M142.898 57.5606C142.26 57.5606 141.805 57.0141 141.805 56.4677V39.1631C141.805 38.5256 142.352 38.0702 142.898 38.0702C143.536 38.0702 143.991 38.6166 143.991 39.1631V56.4677C144.082 57.0141 143.536 57.5606 142.898 57.5606Z" fill="#2E3543"/>
<path d="M150.64 24.7728L142.899 16.5759L135.157 24.7728C133.518 26.5944 132.516 28.9624 132.516 31.6036C132.516 37.3414 137.161 41.9863 142.899 41.9863C148.637 41.9863 153.281 37.3414 153.281 31.6036C153.281 29.1445 152.28 26.7765 150.64 24.7728Z" fill="#F6C167"/>
<path d="M146.725 28.7803L142.899 23.7711L139.074 28.7803C138.255 29.6911 137.799 30.8751 137.799 32.1502C137.799 34.9736 140.076 37.2505 142.899 37.2505C145.723 37.2505 148 34.9736 148 32.1502C148.091 30.9662 147.544 29.6911 146.725 28.7803Z" fill="#F89937"/>
<path d="M150.914 22.405L149.639 20.1281L148.364 22.405C148.09 22.6782 147.908 23.0425 147.908 23.4979C147.908 24.4087 148.637 25.1373 149.548 25.1373C150.458 25.1373 151.187 24.4087 151.187 23.4979C151.369 23.1336 151.187 22.7693 150.914 22.405Z" fill="#F89937"/>
<path d="M140.349 15.9385V7.74158H138.255V15.9385C138.255 16.4849 138.71 17.0314 139.347 17.0314C139.894 16.9403 140.349 16.4849 140.349 15.9385Z" fill="#F89937"/>
<path d="M136.432 17.8511V13.9348H134.338V17.8511C134.338 18.3976 134.793 18.944 135.43 18.944C135.977 18.944 136.432 18.3976 136.432 17.8511Z" fill="#F89937"/>
<path d="M142.901 53.4621C144.561 53.4621 145.906 52.1165 145.906 50.4566C145.906 48.7967 144.561 47.451 142.901 47.451C141.241 47.451 139.895 48.7967 139.895 50.4566C139.895 52.1165 141.241 53.4621 142.901 53.4621Z" fill="#EAC2A7"/>
<path d="M79.1464 48.6349C79.0553 48.6349 78.8732 48.6349 78.7821 48.6349H71.587C71.2227 48.6349 70.8584 48.9992 70.8584 49.3635C70.8584 49.7278 71.0406 50.0921 71.4959 50.0921L76.323 50.6386C76.2319 51.0029 76.1408 51.2761 76.1408 51.6404C76.1408 53.2798 77.507 54.646 79.1464 54.646C80.7857 54.646 82.1519 53.2798 82.1519 51.6404C82.243 49.91 80.7857 48.6349 79.1464 48.6349Z" fill="#EAC2A7"/>
</svg>
