<svg width="70" height="70" viewBox="0 0 70 70" fill="none" xmlns="http://www.w3.org/2000/svg">
<path d="M32.508 12.9756C32.4632 13.0301 32.4187 13.0849 32.3745 13.1399H32.692C33.3423 13.7295 33.9478 14.3708 34.4999 15.0579C35.0521 14.3708 35.6576 13.7295 36.3078 13.1399H36.6254C36.5811 13.0849 36.5366 13.0301 36.4918 12.9756C39.401 10.4145 43.1689 8.875 47.0624 8.875C55.6608 8.875 62.4166 16.0342 62.4166 25.1458C62.4166 36.3283 52.9249 45.44 38.5478 59.2554L34.4999 63.1604L30.452 59.285C16.0749 45.44 6.58325 36.3283 6.58325 25.1458C6.58325 16.0342 13.3391 8.875 21.9374 8.875C25.8309 8.875 29.5988 10.4145 32.508 12.9756Z" fill="url(#paint0_linear)"/>
<defs>
<linearGradient id="paint0_linear" x1="-0.456269" y1="36.1524" x2="33.652" y2="71.2332" gradientUnits="userSpaceOnUse">
<stop stop-color="#20D0EE"/>
<stop offset="0.981733" stop-color="#15E186"/>
</linearGradient>
</defs>
</svg>
