<svg width="445" height="141" viewBox="0 0 445 141" fill="none" xmlns="http://www.w3.org/2000/svg">
<path fill-rule="evenodd" clip-rule="evenodd" d="M42.8247 91.8777C45.9303 90.3638 48.3446 88.307 50.0676 85.7022C51.788 83.0974 52.6494 80.1999 52.6494 77.0043C52.6494 73.8966 51.8305 71.0603 50.1926 68.4954C48.5574 65.9358 46.1617 63.8764 43.0135 62.3226C39.8653 60.7687 36.0657 59.9891 31.6147 59.9891C25.8208 59.9891 21.1385 61.5456 17.5702 64.6534C14.0019 67.7637 12.2178 71.9224 12.2178 77.1321C12.2178 82.3417 14.0232 86.4791 17.634 89.5469C21.2448 92.612 26.1133 94.1473 32.2448 94.1473C36.1907 94.1473 39.7191 93.389 42.8247 91.8777ZM58.5071 61.2503C64.9284 68.8972 68.1404 79.7369 68.1404 93.7668C68.1404 103.598 66.3988 111.979 62.9156 118.913C59.4297 125.844 54.5586 131.097 48.3048 134.667C42.0483 138.241 34.7628 140.023 26.451 140.023C22.1675 140.023 18.1392 139.584 14.3582 138.701C10.5825 137.817 7.30674 136.538 4.53613 134.856L9.31955 125.025C13.6031 127.797 19.2719 129.183 26.3234 129.183C35.4754 129.183 42.6359 126.35 47.7996 120.677C52.9632 115.005 55.5477 106.748 55.5477 95.9113V92.7611C53.027 96.5393 49.5412 99.4182 45.0928 101.392C40.6417 103.369 35.6456 104.354 30.1044 104.354C24.3106 104.354 19.123 103.263 14.5497 101.078C9.97098 98.894 6.4027 95.765 3.84215 91.6888C1.27894 87.6126 0 82.9298 0 77.635C0 72.09 1.36403 67.2156 4.09475 63.0144C6.82015 58.8131 10.5373 55.5591 15.241 53.2469C19.9446 50.9348 25.2332 49.78 31.1121 49.78C42.9497 49.78 52.0831 53.6035 58.5071 61.2503Z" fill="#202020"/>
<path fill-rule="evenodd" clip-rule="evenodd" d="M133.132 91.8777C136.238 90.3638 138.652 88.307 140.375 85.7022C142.095 83.0974 142.957 80.1999 142.957 77.0043C142.957 73.8966 142.138 71.0603 140.5 68.4954C138.865 65.9358 136.469 63.8764 133.321 62.3226C130.173 60.7687 126.373 59.9891 121.922 59.9891C116.128 59.9891 111.446 61.5456 107.878 64.6534C104.309 67.7637 102.525 71.9224 102.525 77.1321C102.525 82.3417 104.331 86.4791 107.941 89.5469C111.552 92.612 116.421 94.1473 122.552 94.1473C126.498 94.1473 130.026 93.389 133.132 91.8777ZM148.814 61.2503C155.236 68.8972 158.448 79.7369 158.448 93.7668C158.448 103.598 156.706 111.979 153.223 118.913C149.737 125.844 144.866 131.097 138.612 134.667C132.356 138.241 125.07 140.023 116.758 140.023C112.475 140.023 108.447 139.584 104.666 138.701C100.89 137.817 97.6141 136.538 94.8435 134.856L99.6269 125.025C103.91 127.797 109.579 129.183 116.631 129.183C125.783 129.183 132.943 126.35 138.107 120.677C143.271 115.005 145.855 106.748 145.855 95.9113V92.7611C143.334 96.5393 139.849 99.4182 135.4 101.392C130.949 103.369 125.953 104.354 120.412 104.354C114.618 104.354 109.43 103.263 104.857 101.078C100.278 98.894 96.7101 95.765 94.1495 91.6888C91.5863 87.6126 90.3074 82.9298 90.3074 77.635C90.3074 72.09 91.6714 67.2156 94.4021 63.0144C97.1275 58.8131 100.845 55.5591 105.548 53.2469C110.252 50.9348 115.541 49.78 121.42 49.78C133.257 49.78 142.39 53.6035 148.814 61.2503Z" fill="#202020"/>
<path fill-rule="evenodd" clip-rule="evenodd" d="M246.766 93.321L231.961 138.021H223.155L212.115 104.943L200.884 138.021H192.014L177.209 93.321H185.824L196.927 127.293L208.478 93.321H216.135L227.43 127.485L238.853 93.321H246.766Z" fill="#202020"/>
<path fill-rule="evenodd" clip-rule="evenodd" d="M284.57 121.162L276.147 101.622L267.787 121.162H284.57ZM287.314 127.676H264.979L260.576 138.02H252.025L272.127 93.3206H280.295L300.46 138.02H291.781L287.314 127.676Z" fill="#202020"/>
<path fill-rule="evenodd" clip-rule="evenodd" d="M313.477 93.321H321.773V130.997H345.129V138.021H313.477V93.321Z" fill="#202020"/>
<path fill-rule="evenodd" clip-rule="evenodd" d="M373.993 119.31L366.909 126.589V138.02H358.613V93.3198H366.909V116.244L388.989 93.3198H398.306L379.544 113.307L399.454 138.02H389.755L373.993 119.31Z" fill="#202020"/>
<path fill-rule="evenodd" clip-rule="evenodd" d="M416.824 137.19C413.612 136.211 411.07 134.913 409.198 133.295L412.069 126.845C413.899 128.293 416.143 129.474 418.802 130.389C421.461 131.305 424.13 131.762 426.811 131.762C430.129 131.762 432.607 131.23 434.245 130.166C435.883 129.102 436.702 127.697 436.702 125.951C436.702 124.674 436.244 123.621 435.33 122.79C434.415 121.96 433.256 121.311 431.852 120.843C430.448 120.375 428.534 119.842 426.109 119.246C422.705 118.438 419.951 117.629 417.845 116.82C415.739 116.011 413.931 114.744 412.42 113.02C410.91 111.296 410.155 108.965 410.155 106.028C410.155 103.559 410.825 101.313 412.165 99.2911C413.505 97.2689 415.526 95.6619 418.228 94.4699C420.929 93.2779 424.237 92.6819 428.151 92.6819C430.873 92.6819 433.554 93.0225 436.191 93.7036C438.829 94.3847 441.105 95.3639 443.019 96.641L440.403 103.091C438.446 101.941 436.404 101.068 434.277 100.472C432.15 99.8764 430.086 99.5784 428.087 99.5784C424.811 99.5784 422.375 100.132 420.78 101.239C419.185 102.346 418.387 103.814 418.387 105.645C418.387 106.922 418.844 107.965 419.759 108.774C420.674 109.583 421.833 110.221 423.237 110.69C424.641 111.158 426.555 111.69 428.98 112.286C432.299 113.052 435.021 113.85 437.148 114.681C439.276 115.511 441.094 116.777 442.605 118.48C444.115 120.183 444.87 122.482 444.87 125.377C444.87 127.846 444.2 130.081 442.86 132.082C441.52 134.082 439.488 135.679 436.766 136.871C434.043 138.063 430.725 138.659 426.811 138.659C423.365 138.659 420.036 138.169 416.824 137.19Z" fill="#202020"/>
<path fill-rule="evenodd" clip-rule="evenodd" d="M35.5667 15.0835C35.5667 23.4142 28.8183 30.1671 20.4932 30.1671C12.1681 30.1671 5.41705 23.4142 5.41705 15.0835C5.41705 6.75287 12.1681 0 20.4932 0C28.8183 0 35.5667 6.75287 35.5667 15.0835Z" fill="#1C2541"/>
<path fill-rule="evenodd" clip-rule="evenodd" d="M90.3076 15.0835C90.3076 23.4142 83.5592 30.1671 75.2341 30.1671C66.909 30.1671 60.158 23.4142 60.158 15.0835C60.158 6.75287 66.909 0 75.2341 0C83.5592 0 90.3076 6.75287 90.3076 15.0835Z" fill="#118AB2"/>
<path fill-rule="evenodd" clip-rule="evenodd" d="M141.714 15.0835C141.714 23.4142 134.965 30.1671 126.64 30.1671C118.315 30.1671 111.564 23.4142 111.564 15.0835C111.564 6.75287 118.315 0 126.64 0C134.965 0 141.714 6.75287 141.714 15.0835Z" fill="#6FFFE9"/>
</svg>
