<svg width="70" height="70" viewBox="0 0 70 70" fill="none" xmlns="http://www.w3.org/2000/svg">
<path fill-rule="evenodd" clip-rule="evenodd" d="M52.2498 46.2083L57.8332 52.0416V54.9583H13.1665V52.0416L18.7498 46.2083V31.6249C18.7498 22.6416 23.3003 15.1749 31.3123 13.1916V11.2083C31.3123 8.78742 33.1828 6.83325 35.4998 6.83325C37.8169 6.83325 39.6873 8.78742 39.6873 11.2083V13.1916C47.6715 15.1749 52.2498 22.6708 52.2498 31.6249V46.2083ZM17.1145 52.0416H53.8851L50.2758 48.2706C49.7522 47.7237 49.4581 46.9818 49.4581 46.2083V31.6249C49.4581 23.6662 45.4642 17.6246 39.0415 16.0292C37.7836 15.7167 36.8956 14.5425 36.8956 13.1916V11.2083C36.8956 10.3982 36.2751 9.74992 35.4998 9.74992C34.7245 9.74992 34.104 10.3982 34.104 11.2083V13.1916C34.104 14.5434 33.2149 15.718 31.9559 16.0297C25.5107 17.6251 21.5415 23.6325 21.5415 31.6249V46.2083C21.5415 46.9818 21.2473 47.7237 20.7238 48.2706L17.1145 52.0416ZM41.0832 57.8749C41.0832 61.0833 38.5707 63.7083 35.4998 63.7083C32.4011 63.7083 29.9165 61.0833 29.9165 57.8749H41.0832Z" fill="url(#paint0_linear)"/>
<defs>
<linearGradient id="paint0_linear" x1="7.53489" y1="35.4119" x2="42.2655" y2="62.6875" gradientUnits="userSpaceOnUse">
<stop stop-color="#20D0EE"/>
<stop offset="0.981733" stop-color="#15E186"/>
</linearGradient>
</defs>
</svg>
