<?xml version="1.0" encoding="utf-8"?>
<!-- Generator: Adobe Illustrator 19.2.0, SVG Export Plug-In . SVG Version: 6.00 Build 0)  -->
<svg version="1.1" id="Layer_1" xmlns="http://www.w3.org/2000/svg" xmlns:xlink="http://www.w3.org/1999/xlink" x="0px" y="0px"
	 width="120px" height="140px" viewBox="0 0 120 140" style="enable-background:new 0 0 120 140;" xml:space="preserve">
<style type="text/css">
	.st0{fill:#0C071F;}
	.st1{fill:#124AFF;}
</style>
<path class="st0" d="M25.9,117l0-7.4l-3.7,6.2h-0.7l-3.7-6.2v7.4h-1.4v-10.2h1.2l4.3,7.2l4.2-7.2h1.2l0,10.2H25.9z M33.5,117.1
	c-0.8,0-1.5-0.2-2.1-0.5c-0.6-0.3-1.1-0.8-1.4-1.4c-0.3-0.6-0.5-1.3-0.5-2c0-0.8,0.2-1.4,0.5-2c0.4-0.6,0.8-1.1,1.4-1.4
	c0.6-0.3,1.3-0.5,2.1-0.5c0.8,0,1.5,0.2,2.1,0.5c0.6,0.3,1.1,0.8,1.4,1.4c0.4,0.6,0.5,1.3,0.5,2c0,0.8-0.2,1.4-0.5,2
	c-0.3,0.6-0.8,1.1-1.4,1.4C35,116.9,34.3,117.1,33.5,117.1z M33.5,115.9c0.5,0,0.9-0.1,1.3-0.3c0.4-0.2,0.7-0.6,0.9-1
	c0.2-0.4,0.3-0.9,0.3-1.4c0-0.5-0.1-1-0.3-1.4c-0.2-0.4-0.5-0.7-0.9-1c-0.4-0.2-0.8-0.3-1.3-0.3c-0.5,0-0.9,0.1-1.3,0.3
	c-0.4,0.2-0.7,0.5-0.9,1c-0.2,0.4-0.3,0.9-0.3,1.4c0,0.5,0.1,1,0.3,1.4c0.2,0.4,0.5,0.7,0.9,1C32.6,115.7,33,115.9,33.5,115.9z
	 M43.8,116.5c-0.2,0.2-0.5,0.3-0.8,0.4c-0.3,0.1-0.6,0.1-0.9,0.1c-0.8,0-1.4-0.2-1.8-0.6c-0.4-0.4-0.6-1-0.6-1.8v-4.2h-1.3v-1.2h1.3
	v-1.7h1.4v1.7h2.2v1.2h-2.2v4.2c0,0.4,0.1,0.7,0.3,1c0.2,0.2,0.5,0.3,0.9,0.3c0.4,0,0.8-0.1,1.1-0.4L43.8,116.5z M45.5,109.3h1.4
	v7.7h-1.4V109.3z M46.2,107.8c-0.3,0-0.5-0.1-0.7-0.3c-0.2-0.2-0.3-0.4-0.3-0.6c0-0.3,0.1-0.5,0.3-0.6c0.2-0.2,0.4-0.3,0.7-0.3
	c0.3,0,0.5,0.1,0.7,0.3c0.2,0.2,0.3,0.4,0.3,0.6c0,0.3-0.1,0.5-0.3,0.7C46.7,107.7,46.5,107.8,46.2,107.8z M56.5,109.3l-3.4,7.7
	h-1.4l-3.4-7.7h1.5l2.7,6.2l2.7-6.2H56.5z M60.3,109.2c1.1,0,1.9,0.3,2.5,0.8c0.6,0.5,0.9,1.3,0.9,2.4v4.7h-1.3v-1
	c-0.2,0.4-0.6,0.6-1,0.8c-0.4,0.2-0.9,0.3-1.5,0.3c-0.9,0-1.6-0.2-2.1-0.6c-0.5-0.4-0.8-1-0.8-1.7c0-0.7,0.2-1.2,0.7-1.6
	c0.5-0.4,1.3-0.6,2.4-0.6h2.2v-0.3c0-0.6-0.2-1.1-0.5-1.4c-0.4-0.3-0.9-0.5-1.5-0.5c-0.5,0-0.9,0.1-1.3,0.2
	c-0.4,0.1-0.8,0.3-1.1,0.6l-0.6-1.1c0.4-0.3,0.9-0.6,1.4-0.7C59.1,109.3,59.7,109.2,60.3,109.2z M60,116c0.5,0,1-0.1,1.4-0.4
	c0.4-0.2,0.7-0.6,0.8-1v-1.1h-2.2c-1.2,0-1.8,0.4-1.8,1.2c0,0.4,0.2,0.7,0.5,0.9C59.1,115.9,59.5,116,60,116z M70.6,116.5
	c-0.2,0.2-0.5,0.3-0.8,0.4c-0.3,0.1-0.6,0.1-0.9,0.1c-0.8,0-1.4-0.2-1.8-0.6c-0.4-0.4-0.6-1-0.6-1.8v-4.2h-1.3v-1.2h1.3v-1.7h1.4
	v1.7h2.2v1.2h-2.2v4.2c0,0.4,0.1,0.7,0.3,1c0.2,0.2,0.5,0.3,0.9,0.3c0.4,0,0.8-0.1,1.1-0.4L70.6,116.5z M72.3,109.3h1.4v7.7h-1.4
	V109.3z M73,107.8c-0.3,0-0.5-0.1-0.7-0.3c-0.2-0.2-0.3-0.4-0.3-0.6c0-0.3,0.1-0.5,0.3-0.6c0.2-0.2,0.4-0.3,0.7-0.3
	c0.3,0,0.5,0.1,0.7,0.3c0.2,0.2,0.3,0.4,0.3,0.6c0,0.3-0.1,0.5-0.3,0.7C73.5,107.7,73.3,107.8,73,107.8z M79.7,117.1
	c-0.8,0-1.5-0.2-2.1-0.5c-0.6-0.3-1.1-0.8-1.4-1.4c-0.3-0.6-0.5-1.3-0.5-2c0-0.8,0.2-1.4,0.5-2c0.4-0.6,0.8-1.1,1.4-1.4
	c0.6-0.3,1.3-0.5,2.1-0.5c0.8,0,1.5,0.2,2.1,0.5c0.6,0.3,1.1,0.8,1.4,1.4c0.4,0.6,0.5,1.3,0.5,2c0,0.8-0.2,1.4-0.5,2
	c-0.3,0.6-0.8,1.1-1.4,1.4C81.1,116.9,80.5,117.1,79.7,117.1z M79.7,115.9c0.5,0,0.9-0.1,1.3-0.3c0.4-0.2,0.7-0.6,0.9-1
	c0.2-0.4,0.3-0.9,0.3-1.4c0-0.5-0.1-1-0.3-1.4c-0.2-0.4-0.5-0.7-0.9-1c-0.4-0.2-0.8-0.3-1.3-0.3c-0.5,0-0.9,0.1-1.3,0.3
	c-0.4,0.2-0.7,0.5-0.9,1c-0.2,0.4-0.3,0.9-0.3,1.4c0,0.5,0.1,1,0.3,1.4c0.2,0.4,0.5,0.7,0.9,1C78.7,115.7,79.2,115.9,79.7,115.9z
	 M89.8,109.2c1,0,1.8,0.3,2.3,0.9c0.6,0.6,0.9,1.4,0.9,2.5v4.5h-1.4v-4.3c0-0.7-0.2-1.3-0.5-1.7c-0.4-0.4-0.9-0.6-1.5-0.6
	c-0.8,0-1.4,0.2-1.8,0.7c-0.4,0.4-0.7,1.1-0.7,1.9v4h-1.4v-7.7H87v1.2c0.3-0.4,0.7-0.7,1.1-0.9C88.6,109.3,89.2,109.2,89.8,109.2z
	 M98.4,109.2c1.1,0,1.9,0.3,2.5,0.8c0.6,0.5,0.9,1.3,0.9,2.4v4.7h-1.3v-1c-0.2,0.4-0.6,0.6-1,0.8c-0.4,0.2-0.9,0.3-1.5,0.3
	c-0.9,0-1.6-0.2-2.1-0.6c-0.5-0.4-0.8-1-0.8-1.7c0-0.7,0.2-1.2,0.7-1.6c0.5-0.4,1.3-0.6,2.4-0.6h2.2v-0.3c0-0.6-0.2-1.1-0.5-1.4
	c-0.4-0.3-0.9-0.5-1.5-0.5c-0.5,0-0.9,0.1-1.3,0.2c-0.4,0.1-0.8,0.3-1.1,0.6l-0.6-1.1c0.4-0.3,0.9-0.6,1.4-0.7
	C97.2,109.3,97.8,109.2,98.4,109.2z M98.1,116c0.5,0,1-0.1,1.4-0.4c0.4-0.2,0.7-0.6,0.8-1v-1.1h-2.2c-1.2,0-1.8,0.4-1.8,1.2
	c0,0.4,0.2,0.7,0.5,0.9C97.1,115.9,97.6,116,98.1,116z M104.3,106.2h1.4V117h-1.4V106.2z M50,124.8c1.3,0,2.4,0.3,3.1,0.9
	c0.8,0.6,1.1,1.5,1.1,2.6c0,1.1-0.4,2-1.1,2.6c-0.8,0.6-1.8,0.9-3.1,0.9h-2.5v3.1H46v-10.2H50z M50,130.6c0.9,0,1.6-0.2,2.1-0.6
	c0.5-0.4,0.7-1,0.7-1.7c0-0.7-0.2-1.3-0.7-1.7c-0.5-0.4-1.2-0.6-2.1-0.6h-2.5v4.6H50z M59.5,135.1c-0.8,0-1.5-0.2-2.1-0.5
	c-0.6-0.3-1.1-0.8-1.4-1.4c-0.3-0.6-0.5-1.3-0.5-2c0-0.8,0.2-1.4,0.5-2c0.4-0.6,0.8-1.1,1.4-1.4c0.6-0.3,1.3-0.5,2.1-0.5
	s1.5,0.2,2.1,0.5c0.6,0.3,1.1,0.8,1.4,1.4c0.4,0.6,0.5,1.3,0.5,2c0,0.8-0.2,1.4-0.5,2c-0.3,0.6-0.8,1.1-1.4,1.4
	C61,134.9,60.3,135.1,59.5,135.1z M59.5,133.9c0.5,0,0.9-0.1,1.3-0.3c0.4-0.2,0.7-0.6,0.9-1c0.2-0.4,0.3-0.9,0.3-1.4
	c0-0.5-0.1-1-0.3-1.4c-0.2-0.4-0.5-0.7-0.9-1c-0.4-0.2-0.8-0.3-1.3-0.3s-0.9,0.1-1.3,0.3c-0.4,0.2-0.7,0.5-0.9,1
	c-0.2,0.4-0.3,0.9-0.3,1.4c0,0.5,0.1,1,0.3,1.4c0.2,0.4,0.5,0.7,0.9,1C58.6,133.7,59,133.9,59.5,133.9z M68.8,135.1
	c-0.8,0-1.5-0.2-2.1-0.5c-0.6-0.3-1.1-0.8-1.4-1.4c-0.3-0.6-0.5-1.3-0.5-2c0-0.8,0.2-1.4,0.5-2c0.4-0.6,0.8-1.1,1.4-1.4
	c0.6-0.3,1.3-0.5,2.1-0.5c0.8,0,1.5,0.2,2.1,0.5c0.6,0.3,1.1,0.8,1.4,1.4c0.4,0.6,0.5,1.3,0.5,2c0,0.8-0.2,1.4-0.5,2
	c-0.3,0.6-0.8,1.1-1.4,1.4C70.2,134.9,69.6,135.1,68.8,135.1z M68.8,133.9c0.5,0,0.9-0.1,1.3-0.3c0.4-0.2,0.7-0.6,0.9-1
	c0.2-0.4,0.3-0.9,0.3-1.4c0-0.5-0.1-1-0.3-1.4c-0.2-0.4-0.5-0.7-0.9-1c-0.4-0.2-0.8-0.3-1.3-0.3c-0.5,0-0.9,0.1-1.3,0.3
	c-0.4,0.2-0.7,0.5-0.9,1c-0.2,0.4-0.3,0.9-0.3,1.4c0,0.5,0.1,1,0.3,1.4c0.2,0.4,0.5,0.7,0.9,1C67.8,133.7,68.3,133.9,68.8,133.9z
	 M74.7,124.2h1.4V135h-1.4V124.2z"/>
<path class="st1" d="M36.2,50.7c-5.8,0-10.3,2.1-10.3,4.7c0,2.7,4.5,4.7,10.3,4.7c5.8,0,10.3-2.1,10.3-4.7
	C46.5,52.7,42,50.7,36.2,50.7z M36.2,58.9c-5.3,0-9.1-1.8-9.1-3.5c0-1.7,3.8-3.5,9.1-3.5c5.3,0,9.1,1.8,9.1,3.5
	C45.3,57.1,41.6,58.9,36.2,58.9z"/>
<path class="st1" d="M36.2,64.7c-5.3,0-9.1-1.8-9.1-3.5h-1.2c0,2.7,4.5,4.7,10.3,4.7c5.8,0,10.3-2.1,10.3-4.7h-1.2
	C45.3,62.8,41.6,64.7,36.2,64.7z"/>
<path class="st1" d="M36.2,70.4c-5.3,0-9.1-1.8-9.1-3.5h-1.2c0,2.7,4.5,4.7,10.3,4.7c5.8,0,10.3-2.1,10.3-4.7h-1.2
	C45.3,68.6,41.6,70.4,36.2,70.4z"/>
<path class="st1" d="M36.2,76.5c-5.3,0-9.1-1.8-9.1-3.5h-1.2c0,2.7,4.5,4.7,10.3,4.7c5.8,0,10.3-2.1,10.3-4.7h-1.2
	C45.3,74.7,41.6,76.5,36.2,76.5z"/>
<path class="st1" d="M87,70l-1.2-3.5c-0.6-1.6-0.8-3.3-0.8-5V50.6c0-12.4-10.8-22.4-23.9-22.4c-11.5,0-21.5,7.6-23.5,18.3l1.2,0.2
	C40.7,36.6,50.1,29.3,61,29.3c12.5,0,22.7,9.6,22.7,21.2v10.9c0,1.8,0.4,3.6,1,5.5l1.2,3.5c0.2,0.6,0.1,1.3-0.2,1.8
	c-0.5,0.6-1.2,1-1.9,1h-35v1.2h35c1.2,0,2.3-0.6,3-1.5C87.2,72,87.3,70.9,87,70z"/>
<path class="st1" d="M69.5,25.8h-4.9c1.2-1.8,3.9-5.9,5-8.2c0.2-0.6,1.1-2.2,0.1-3c-0.7-0.7-2.2-0.4-4.2,0.8
	c-2.9,1.7-4.4,1.6-6.9,0.5c-2.3-1-4.4-1.9-5.5-1.1c-0.7,0.6-0.4,1.8-0.2,2.2c0.7,2.4,3.8,6.9,5.1,8.9h-5.7V27h17.3v-1.2H69.5z
	 M54,16.6c-0.2-0.6-0.1-1-0.1-1c0.5-0.4,2.9,0.7,4.1,1.2c2.8,1.2,4.6,1.5,8-0.5c2.1-1.2,2.8-1.1,2.9-1c0,0,0.1,0.5-0.4,1.7
	c-1.2,2.5-4.5,7.5-5.3,8.7h-3.9C58.7,24.8,54.7,19.3,54,16.6z"/>
</svg>
