<svg width="99" height="74" viewBox="0 0 99 74" fill="none" xmlns="http://www.w3.org/2000/svg">
<path fill-rule="evenodd" clip-rule="evenodd" d="M86.0553 19.1019C84.2675 15.4513 81.815 14.0084 81.815 14.0084C81.815 14.0084 93.9001 9.58589 98.2815 16.1138C102.663 22.6416 85.8947 35.3819 78.0364 40.9132C70.1786 46.4444 51.9531 56.0874 36.614 60.0449C21.2749 64.0024 1.96931 65.0454 0.231078 58.1241C-1.40548 51.6057 6.04607 46.259 10.1379 43.7785C10.1379 43.7785 9.83285 49.6815 11.4084 52.1747C12.5366 53.9599 14.3598 55.003 18.2011 54.659C16.107 50.5038 14.7299 45.8638 14.2663 40.8982C12.3544 20.4148 26.6535 2.18461 46.204 0.179869C63.3362 -1.57678 78.8136 9.70994 83.668 26.3122C86.2822 24.1587 87.3267 21.6987 86.0553 19.1019ZM53.2656 73.8174C44.5432 74.7151 36.245 72.2579 29.5263 67.4493C35.2543 66.6866 45.016 64.6988 57.2796 59.5074C70.9355 53.7263 79.9562 47.5728 85.1052 43.3171C82.1779 59.3568 69.5164 72.1458 53.2656 73.8174Z" fill="url(#paint0_linear)"/>
<defs>
<linearGradient id="paint0_linear" x1="-49.5" y1="37" x2="21.4727" y2="131.95" gradientUnits="userSpaceOnUse">
<stop offset="0.1882" stop-color="#20D0EE"/>
<stop offset="0.826432" stop-color="#0AED88"/>
</linearGradient>
</defs>
</svg>
