<svg width="70" height="70" viewBox="0 0 70 70" fill="none" xmlns="http://www.w3.org/2000/svg">
<path fill-rule="evenodd" clip-rule="evenodd" d="M6 27.4967C6 12.3104 18.7608 0 34.5 0C50.2392 0 63 12.3104 63 27.4967C63 35.0748 59.8215 43.4427 54.6477 48.4541L34.5 70L14.4323 48.5227C9.22746 43.5415 6 35.1306 6 27.4967ZM21.968 30.7033V38.9911H47.0314V30.7033C45.9807 31.4716 44.7322 31.9812 43.3749 32.1267C43.1893 33.164 42.2878 33.9556 41.2007 33.9556H39.9553C38.8833 33.9556 37.9889 33.1872 37.7862 32.1722H31.2374C31.0348 33.1872 30.1403 33.9556 29.0683 33.9556H27.8229C26.7368 33.9556 25.8363 33.166 25.6497 32.1308C24.2813 31.9882 23.0248 31.4757 21.968 30.7033ZM29.264 31.7365V29.3881C29.264 29.2829 29.1732 29.1919 29.0683 29.1919H27.8229C27.716 29.1919 27.6263 29.2819 27.6263 29.3881V31.7365C27.6263 31.8437 27.716 31.9337 27.8229 31.9337H29.0683C29.1732 31.9337 29.264 31.8417 29.264 31.7365ZM41.3974 31.7365V29.3881C41.3974 29.2819 41.3076 29.1919 41.2007 29.1919H39.9553C39.8484 29.1919 39.7597 29.2819 39.7597 29.3881V31.7365C39.7597 31.8437 39.8484 31.9337 39.9553 31.9337H41.2007C41.3076 31.9337 41.3974 31.8437 41.3974 31.7365ZM48.1579 19.227H20.8416V24.5365C20.8416 27.349 22.9159 29.6772 25.6094 30.0816V29.3881C25.6094 28.1658 26.6027 27.17 27.8229 27.17H29.0683C30.2885 27.17 31.2808 28.1658 31.2808 29.3881V30.1503H37.7428V29.3881C37.7428 28.1658 38.7351 27.17 39.9553 27.17H41.2007C42.4209 27.17 43.4142 28.1658 43.4142 29.3881V30.0775C46.0956 29.663 48.1579 27.3399 48.1579 24.5365V19.227ZM32.2781 14.8788C31.4321 14.8788 30.7443 15.5683 30.7443 16.4155V17.2051H37.5472V16.4155C37.5472 15.5683 36.8604 14.8788 36.0154 14.8788H32.2781ZM39.564 17.2051H50.1747V24.5365C50.1747 25.9943 49.7572 27.353 49.0483 28.5126V41.013H19.9511V28.5126C19.2412 27.353 18.8247 25.9943 18.8247 24.5365V17.2051H28.7275V16.4155C28.7275 14.4532 30.3198 12.8569 32.2781 12.8569H36.0154C37.9717 12.8569 39.564 14.4532 39.564 16.4155V17.2051Z" fill="url(#paint0_linear)"/>
<defs>
<linearGradient id="paint0_linear" x1="-22.5" y1="35" x2="46.0483" y2="90.8179" gradientUnits="userSpaceOnUse">
<stop offset="0.1882" stop-color="#20D0EE"/>
<stop offset="0.826432" stop-color="#0AED88"/>
</linearGradient>
</defs>
</svg>
