<?xml version="1.0" encoding="utf-8"?>
<!-- Generator: Adobe Illustrator 19.2.0, SVG Export Plug-In . SVG Version: 6.00 Build 0)  -->
<svg version="1.1" id="Layer_1" xmlns="http://www.w3.org/2000/svg" xmlns:xlink="http://www.w3.org/1999/xlink" x="0px" y="0px"
	 width="300px" height="50px" viewBox="0 0 300 50" style="enable-background:new 0 0 300 50;" xml:space="preserve">
<style type="text/css">
	.st0{fill:#7DC262;}
	.st1{fill:#3A3A3C;}
	.st2{fill:#90C64E;}
	.st3{fill:#D6DE41;}
	.st4{fill:#EC5832;}
	.st5{fill:#F29333;}
</style>
<g>
	<g>
		<path class="st0" d="M11.5,34.9H20c2.8,0,5-2,5-9V11.8c0-0.3-0.5-0.5-0.7,0c-3.1,6.5-7.8,10.4-7.8,10.4c-0.2,0.2,2.6-0.5,3.7-1.1
			c0.1,0,0.5-0.2,0.3,0.1c0,0-2.4,3.6-6.1,6.4c-0.2,0.1,2.1,0.2,4.4-0.6c0,0,0.2-0.1,0.1,0.1C17.4,29.3,15.4,32,11.5,34.9z"/>
		<path class="st1" d="M26,15.4c0.4,8.4,0.1,19.3-0.7,22.9c-0.4,1.5-1.4,2.9-2,3.2c-0.5,0.3-0.4,0.3,0.1,0.3c-0.2,0,10.3,0.2,11.2,0
			c0.3-0.1,0.1-0.2-0.2-0.4c-0.3-0.2-2.3-1.5-2.7-3.1c-0.5-2-1.5-13.9-0.6-20.4c0.1-0.7-2.3,2.6-2.6,2.6c-0.5,0-0.7-1.9-1.7-4.2
			C26.7,16.1,26,15,26,15.4z"/>
		<path class="st2" d="M33.8,13.1c1.4-3.1,0.4-6.5-0.2-6.7C32.7,6,29,8.1,27.7,11.2s0.3,6.3,1.2,6.5C29.9,17.9,32.5,16.1,33.8,13.1z
			"/>
		<path class="st3" d="M39.4,18.6c3.2-1.1,5.8-3.3,5.4-4.2c-0.4-1-3.8-1.5-7.1-0.5c-4.6,1.4-5.6,4.3-5.2,5
			C33,19.6,36.2,19.7,39.4,18.6z"/>
		<g>
			<path class="st4" d="M38.8,22.1c-3-1.5-6.2-1-6.7-0.4l11.5,6.6C44,27.3,41.8,23.6,38.8,22.1z"/>
			<path class="st4" d="M36.8,27.8c3,1.5,6.2,1,6.7,0.4l-11.5-6.6C31.7,22.6,33.8,26.3,36.8,27.8z"/>
		</g>
		<g>
			<path class="st5" d="M35.4,28.2c-1.4-1.4-3.3-1.7-3.7-1.5l5.3,5.8C37.4,32.1,36.8,29.6,35.4,28.2z"/>
			<path class="st5" d="M33.2,31c1.4,1.4,3.3,1.7,3.7,1.5l-5.3-5.8C31.3,27.1,31.8,29.6,33.2,31z"/>
		</g>
	</g>
	<path class="st2" d="M28.9,50.7C15,50.7,3.7,39.4,3.7,25.5C3.7,11.6,15,0.3,28.9,0.3s25.2,11.3,25.2,25.2
		C54.1,39.4,42.8,50.7,28.9,50.7z M28.9,1.1C15.4,1.1,4.5,12,4.5,25.5s11,24.4,24.4,24.4s24.4-11,24.4-24.4S42.3,1.1,28.9,1.1z"/>
</g>
<g>
	<path class="st1" d="M74.5,14.5c4.2,0,6.7,2.3,6.7,6.2c0,4.1-2.8,6.5-8,6.5h-3v6.6c0,0.2-0.1,0.3-0.3,0.3h-2.5
		c-0.2,0-0.3-0.1-0.3-0.3V14.8c0-0.2,0.1-0.3,0.3-0.3H74.5z M70.2,24.3h3c3.1,0,4.8-1.3,4.8-3.7c0-2.1-1.3-3.4-3.5-3.4h-4.3V24.3z"
		/>
	<path class="st1" d="M92.3,22.7c0,0.2-0.1,0.3-0.3,0.3c-3,0.1-4.4,2.3-4.4,7.4v3.3c0,0.2-0.1,0.3-0.3,0.3h-2.5
		c-0.2,0-0.3-0.1-0.3-0.3V20.8c0-0.2,0.1-0.3,0.3-0.3h1.4c0.2,0,0.3,0.1,0.4,0.3l0.4,1.6c0.2,0.3,0.3,0.4,0.6,0.1
		c1.1-1.5,2.4-2.2,4.4-2.2c0.2,0,0.3,0.1,0.3,0.3V22.7z"/>
	<path class="st1" d="M107.4,27.2c0,4.4-2.5,7.1-6.4,7.1c-4,0-6.5-2.7-6.5-7.1c0-4.3,2.5-7,6.5-7C105,20.2,107.4,22.9,107.4,27.2z
		 M97.6,27.2c0,2.7,1.3,4.3,3.4,4.3c2.1,0,3.4-1.6,3.4-4.3c0-2.7-1.3-4.2-3.4-4.2C98.9,23,97.6,24.6,97.6,27.2z"/>
	<path class="st1" d="M118.5,25.3c0.2,0,0.3,0.1,0.3,0.3v2.2c0,0.2-0.1,0.3-0.3,0.3H111c-0.2,0-0.3-0.1-0.3-0.3v-2.2
		c0-0.2,0.1-0.3,0.3-0.3H118.5z"/>
	<path class="st1" d="M125.8,30.7c0,0.5,0.2,0.8,0.6,0.8c0.1,0,0.1,0,0.2,0c0.2,0,0.3,0,0.4,0.2l0.8,2c0.1,0.2,0,0.3-0.1,0.4
		c-0.4,0.2-0.9,0.3-1.3,0.3c-2.3,0-3.7-1.3-3.7-3.6V14.3c0-0.2,0.1-0.3,0.3-0.3h2.5c0.2,0,0.3,0.1,0.3,0.3V30.7z"/>
	<path class="st1" d="M132.3,20.6c1-0.3,1.9-0.4,3-0.4c3.8,0,6.1,2,6.1,5.3v8.2c0,0.2-0.1,0.3-0.3,0.3h-1.4c-0.2,0-0.3-0.1-0.4-0.3
		l-0.2-0.9c-0.2-0.4-0.3-0.4-0.7-0.1c-0.9,1-2.1,1.5-3.8,1.5c-3.1,0-4.8-1.6-4.8-4.2s1.8-4.3,5.1-4.3h3.5v-0.2
		c0-1.7-1.1-2.6-3.2-2.6c-0.8,0-1.5,0.1-2.2,0.3l-1,0.3c-0.2,0.1-0.3,0-0.4-0.2l-0.6-2.1c-0.1-0.2,0-0.3,0.2-0.4L132.3,20.6z
		 M134.9,28.2c-1.4,0-2,0.6-2,1.6c0,1.1,0.8,1.8,2.1,1.8c2.2,0,3.4-1.1,3.4-3.2v-0.2H134.9z"/>
	<path class="st1" d="M147.3,21.9c0.2,0.3,0.3,0.3,0.6,0c1.1-1.2,2.5-1.7,3.9-1.7c3.2,0,5.1,2,5.1,5.3v8.2c0,0.2-0.1,0.3-0.3,0.3
		h-2.5c-0.2,0-0.3-0.1-0.3-0.3v-7.9c0-1.8-0.9-2.8-2.4-2.8c-2.1,0-3.3,1.5-3.3,4.2v6.5c0,0.2-0.1,0.3-0.3,0.3h-2.5
		c-0.2,0-0.3-0.1-0.3-0.3V20.8c0-0.2,0.1-0.3,0.3-0.3h1.4c0.2,0,0.3,0.1,0.3,0.3L147.3,21.9z"/>
	<path class="st1" d="M172.5,33.7c0,0.2-0.1,0.3-0.3,0.3h-1.4c-0.2,0-0.3-0.1-0.3-0.3l-0.3-1.2c-0.1-0.3-0.3-0.3-0.6,0
		c-1,1.1-2.3,1.7-3.9,1.7c-3.7,0-5.9-2.7-5.9-7.1s2.3-7,6.3-7c1,0,1.7,0.1,2.5,0.5l0.8,0.4v-6.7c0-0.2,0.1-0.3,0.3-0.3h2.5
		c0.2,0,0.3,0.1,0.3,0.3V33.7z M168.6,23.5c-0.7-0.3-1.4-0.5-2.3-0.5c-2.1,0-3.4,1.6-3.4,4.2c0,2.7,1.2,4.3,3.3,4.3
		c2.1,0,3.2-1.8,3.2-4.1v-3.6L168.6,23.5z"/>
	<path class="st1" d="M179.4,28c-2.3-0.6-3.4-1.8-3.4-3.8c0-2.5,1.9-4,5.1-4c1.3,0,2.5,0.2,3.5,0.4l1.2,0.3c0.2,0.1,0.3,0.2,0.2,0.4
		l-0.6,2.1c-0.1,0.2-0.2,0.3-0.4,0.2l-1.2-0.3c-0.8-0.2-1.9-0.3-2.7-0.3c-1.3,0-2,0.5-2,1.2c0,0.6,0.4,1,1.3,1.3l2.8,0.7
		c2.4,0.6,3.5,1.9,3.5,3.9c0,2.6-2,4.2-5.3,4.2c-1.5,0-2.9-0.2-4.3-0.6l-1.1-0.3c-0.2-0.1-0.3-0.2-0.2-0.4l0.6-2.1
		c0.1-0.2,0.2-0.3,0.4-0.2l1,0.3c1.1,0.3,2.5,0.5,3.6,0.5c1.4,0,2.2-0.5,2.2-1.4c0-0.7-0.4-1.1-1.3-1.4L179.4,28z"/>
	<path class="st1" d="M192.7,18.4c0,1.3-0.1,2.2-0.4,3.2c-0.1,0.3,0.1,0.5,0.4,0.3c1-1,2.2-1.6,3.7-1.6c3.2,0,5.1,2,5.1,5.3v8.2
		c0,0.2-0.1,0.3-0.3,0.3h-2.5c-0.2,0-0.3-0.1-0.3-0.3v-7.9c0-1.8-0.9-2.8-2.4-2.8c-2.3,0-3.2,1.8-3.3,4.2v6.5c0,0.2-0.1,0.3-0.3,0.3
		h-2.5c-0.2,0-0.3-0.1-0.3-0.3V14.3c0-0.2,0.1-0.3,0.3-0.3h2.5c0.2,0,0.3,0.1,0.3,0.3V18.4z"/>
	<path class="st1" d="M206.8,20.6c1-0.3,1.9-0.4,3-0.4c3.8,0,6.1,2,6.1,5.3v8.2c0,0.2-0.1,0.3-0.3,0.3h-1.4c-0.2,0-0.3-0.1-0.4-0.3
		l-0.2-0.9c-0.2-0.4-0.3-0.4-0.7-0.1c-0.9,1-2.1,1.5-3.8,1.5c-3.1,0-4.8-1.6-4.8-4.2s1.8-4.3,5.1-4.3h3.5v-0.2
		c0-1.7-1.1-2.6-3.2-2.6c-0.8,0-1.5,0.1-2.2,0.3l-1,0.3c-0.2,0.1-0.3,0-0.4-0.2l-0.6-2.1c-0.1-0.2,0-0.3,0.2-0.4L206.8,20.6z
		 M209.4,28.2c-1.4,0-2,0.6-2,1.6c0,1.1,0.8,1.8,2.1,1.8c2.2,0,3.4-1.1,3.4-3.2v-0.2H209.4z"/>
	<path class="st1" d="M220.4,18.5c0-3,1.8-4.9,4.7-4.9c0.5,0,1,0.1,1.6,0.3l0.2,0.1c0.2,0.1,0.3,0.2,0.2,0.4l-0.6,2
		c-0.1,0.2-0.2,0.3-0.4,0.2l-0.1-0.1c-0.3-0.1-0.5-0.1-0.9-0.1c-1,0-1.6,0.8-1.6,2v1.9h3.1c0.2,0,0.3,0.1,0.3,0.3v2.2
		c0,0.2-0.1,0.3-0.3,0.3h-3.1v10.5c0,0.2-0.1,0.3-0.3,0.3h-2.5c-0.2,0-0.3-0.1-0.3-0.3V23.2H219c-0.2,0-0.3-0.1-0.3-0.3v-2.2
		c0-0.2,0.1-0.3,0.3-0.3h1.4V18.5z"/>
	<path class="st1" d="M237,20.5c0.2,0,0.3,0.1,0.3,0.3v2.2c0,0.2-0.1,0.3-0.3,0.3h-3.1V30c0,1,0.4,1.5,1.1,1.5c0.3,0,0.5,0,0.7-0.1
		c0.2-0.1,0.3-0.1,0.4,0.1l0.9,1.9c0.1,0.2,0,0.3-0.1,0.4c-0.5,0.3-1.2,0.5-1.9,0.5c-2.7,0-4.2-1.6-4.2-4.3v-6.8h-1.4
		c-0.2,0-0.3-0.1-0.3-0.3v-2.2c0-0.2,0.1-0.3,0.3-0.3h1.4v-3.2c0-0.2,0.1-0.3,0.3-0.3l2.5-0.8c0.2-0.1,0.4,0,0.4,0.3v4.1H237z"/>
</g>
<g>
	<path class="st2" d="M245.2,32.3c0,1.3-0.7,2-2,2c-1.2,0-1.9-0.8-1.9-2s0.7-2,1.9-2C244.5,30.3,245.2,31.1,245.2,32.3z"/>
	<path class="st2" d="M256.8,34c-0.8,0.2-1.7,0.4-2.6,0.4c-4.3,0-6.6-2.7-6.6-7.1c0-4.3,2.3-7,6.7-7c0.7,0,1.5,0.1,2.4,0.3l1.2,0.3
		c0.2,0.1,0.3,0.2,0.2,0.4l-0.6,2.1c-0.1,0.2-0.2,0.3-0.4,0.2l-1-0.3c-0.7-0.2-1.4-0.3-1.9-0.3c-2.5,0-3.6,1.6-3.6,4.2
		c0,2.7,1.2,4.3,3.6,4.3c0.6,0,1.4-0.1,2.1-0.3l0.9-0.3c0.2-0.1,0.3,0,0.4,0.2l0.6,2.1c0.1,0.2,0,0.3-0.2,0.4L256.8,34z"/>
	<path class="st2" d="M273.3,27.2c0,4.4-2.5,7.1-6.4,7.1c-4,0-6.5-2.7-6.5-7.1c0-4.3,2.5-7,6.5-7C270.9,20.2,273.3,22.9,273.3,27.2z
		 M263.5,27.2c0,2.7,1.3,4.3,3.4,4.3c2.1,0,3.4-1.6,3.4-4.3c0-2.7-1.3-4.2-3.4-4.2C264.8,23,263.5,24.6,263.5,27.2z"/>
	<path class="st2" d="M278.7,21.8c0.2,0.3,0.3,0.3,0.7,0c1.1-1.2,2.3-1.7,3.6-1.7c1.6,0,2.9,0.8,3.6,1.9c0.4,0.4,0.6,0.3,1,0
		c1.2-1.5,2.5-1.9,3.8-1.9c3.1,0,4.9,2,4.9,5.3v8.2c0,0.2-0.1,0.3-0.3,0.3h-2.5c-0.2,0-0.3-0.1-0.3-0.3v-7.9c0-1.8-0.7-2.8-2.2-2.8
		c-2.1,0-3.1,1.6-3.1,4.2v6.5c0,0.2-0.1,0.3-0.3,0.3h-2.5c-0.2,0-0.3-0.1-0.3-0.3v-7.9c0-1.7-0.8-2.8-2.2-2.8
		c-2.2,0-3.1,1.6-3.1,4.2v6.5c0,0.2-0.1,0.3-0.3,0.3h-2.5c-0.2,0-0.3-0.1-0.3-0.3V20.8c0-0.2,0.1-0.3,0.3-0.3h1.4
		c0.2,0,0.3,0.1,0.3,0.3L278.7,21.8z"/>
</g>
</svg>
