<?xml version="1.0" encoding="utf-8"?>
<!-- Generator: Adobe Illustrator 19.2.0, SVG Export Plug-In . SVG Version: 6.00 Build 0)  -->
<svg version="1.1" id="Layer_1" xmlns="http://www.w3.org/2000/svg" xmlns:xlink="http://www.w3.org/1999/xlink" x="0px" y="0px"
	 width="120px" height="140px" viewBox="0 0 120 140" style="enable-background:new 0 0 120 140;" xml:space="preserve">
<style type="text/css">
	.st0{fill:#0C071F;}
	.st1{fill:#124AFF;}
</style>
<path class="st0" d="M45.8,107.1c1.3,0,2.4,0.3,3.1,0.9c0.8,0.6,1.1,1.5,1.1,2.6s-0.4,2-1.1,2.6c-0.8,0.6-1.8,0.9-3.1,0.9h-2.5v3.1
	h-1.5v-10.2H45.8z M45.7,113c0.9,0,1.6-0.2,2.1-0.6c0.5-0.4,0.7-1,0.7-1.7c0-0.7-0.2-1.3-0.7-1.7c-0.5-0.4-1.2-0.6-2.1-0.6h-2.5v4.6
	H45.7z M53.2,110.9c0.2-0.4,0.6-0.8,1.1-1c0.5-0.2,1.1-0.4,1.7-0.4v1.4c-0.1,0-0.2,0-0.3,0c-0.8,0-1.4,0.2-1.8,0.7
	c-0.4,0.4-0.6,1.1-0.6,1.9v3.9h-1.4v-7.7h1.3V110.9z M61,117.4c-0.8,0-1.5-0.2-2.1-0.5s-1.1-0.8-1.4-1.4c-0.3-0.6-0.5-1.3-0.5-2
	c0-0.8,0.2-1.4,0.5-2c0.4-0.6,0.8-1.1,1.4-1.4c0.6-0.3,1.3-0.5,2.1-0.5c0.8,0,1.5,0.2,2.1,0.5c0.6,0.3,1.1,0.8,1.4,1.4
	c0.4,0.6,0.5,1.3,0.5,2c0,0.8-0.2,1.4-0.5,2c-0.3,0.6-0.8,1.1-1.4,1.4C62.4,117.3,61.7,117.4,61,117.4z M61,116.2
	c0.5,0,0.9-0.1,1.3-0.3c0.4-0.2,0.7-0.6,0.9-1c0.2-0.4,0.3-0.9,0.3-1.4s-0.1-1-0.3-1.4c-0.2-0.4-0.5-0.7-0.9-1
	c-0.4-0.2-0.8-0.3-1.3-0.3c-0.5,0-0.9,0.1-1.3,0.3c-0.4,0.2-0.7,0.5-0.9,1c-0.2,0.4-0.3,0.9-0.3,1.4s0.1,1,0.3,1.4
	c0.2,0.4,0.5,0.7,0.9,1C60,116.1,60.5,116.2,61,116.2z M69.8,107.6c-0.8,0-1.3,0.5-1.3,1.4v0.7h2.2v1.2h-2.2v6.6h-1.4v-6.6h-1.3
	v-1.2h1.3v-0.7c0-0.8,0.2-1.4,0.7-1.8c0.4-0.4,1.1-0.7,1.9-0.7c0.3,0,0.6,0,0.9,0.1c0.3,0.1,0.5,0.2,0.7,0.3l-0.4,1.1
	C70.5,107.7,70.2,107.6,69.8,107.6z M73.2,109.6h1.4v7.7h-1.4V109.6z M73.9,108.1c-0.3,0-0.5-0.1-0.7-0.3c-0.2-0.2-0.3-0.4-0.3-0.6
	c0-0.3,0.1-0.5,0.3-0.6c0.2-0.2,0.4-0.3,0.7-0.3s0.5,0.1,0.7,0.3c0.2,0.2,0.3,0.4,0.3,0.6c0,0.3-0.1,0.5-0.3,0.7
	C74.4,108,74.2,108.1,73.9,108.1z M81.7,116.9c-0.2,0.2-0.5,0.3-0.8,0.4c-0.3,0.1-0.6,0.1-0.9,0.1c-0.8,0-1.4-0.2-1.8-0.6
	c-0.4-0.4-0.6-1-0.6-1.8v-4.2h-1.3v-1.2h1.3v-1.7h1.4v1.7h2.2v1.2h-2.2v4.2c0,0.4,0.1,0.7,0.3,1c0.2,0.2,0.5,0.3,0.9,0.3
	c0.4,0,0.8-0.1,1.1-0.4L81.7,116.9z"/>
<path class="st1" d="M50.4,32.7c11.5,0,20.6-4,20.6-9.1s-9.1-9.1-20.6-9.1c-11.5,0-20.6,4-20.6,9.1S38.9,32.7,50.4,32.7z M50.4,15.6
	c10.6,0,19.4,3.6,19.4,7.9c0,4.2-8.9,7.9-19.4,7.9c-10.6,0-19.4-3.6-19.4-7.9C31,19.2,39.9,15.6,50.4,15.6z"/>
<path class="st1" d="M50.4,42.2c11.5,0,20.6-4,20.6-9.1h-1.2c0,4.2-8.9,7.9-19.4,7.9C39.9,41,31,37.4,31,33.2h-1.2
	C29.8,38.2,38.9,42.2,50.4,42.2z"/>
<path class="st1" d="M50.4,50.5c-10.6,0-19.4-3.6-19.4-7.9h-1.2c0,5.1,9.1,9.1,20.6,9.1c5.6,0,10.7-1,14.6-2.7l-0.5-1.1
	C60.8,49.6,55.9,50.5,50.4,50.5z"/>
<path class="st1" d="M50.4,59.3c-10.6,0-19.4-3.6-19.4-7.9h-1.2c0,5.1,9.1,9.1,20.6,9.1c6.4,0,12.2-1.9,13.9-2.5L64,56.9
	C62.3,57.5,56.7,59.3,50.4,59.3z"/>
<path class="st1" d="M50.4,69.1c-10.6,0-19.4-3.6-19.4-7.9h-1.2c0,5.1,9.1,9.1,20.6,9.1c6.4,0,12.2-1.9,13.9-2.5L64,66.6
	C62.3,67.2,56.7,69.1,50.4,69.1z"/>
<path class="st1" d="M66.9,49.3c0,3.2,5.5,5.7,12.5,5.7c7,0,12.5-2.5,12.5-5.7c0-3.2-5.5-5.7-12.5-5.7
	C72.4,43.6,66.9,46.1,66.9,49.3z M79.4,44.8c6.8,0,11.3,2.3,11.3,4.5c0,2.2-4.5,4.5-11.3,4.5c-6.8,0-11.3-2.3-11.3-4.5
	C68.1,47.1,72.6,44.8,79.4,44.8z"/>
<path class="st1" d="M79.4,60.9c-6.8,0-11.3-2.3-11.3-4.5h-1.2c0,3.2,5.5,5.7,12.5,5.7c7,0,12.5-2.5,12.5-5.7h-1.2
	C90.7,58.6,86.2,60.9,79.4,60.9z"/>
<path class="st1" d="M79.4,68c-6.8,0-11.3-2.3-11.3-4.5h-1.2c0,3.2,5.5,5.7,12.5,5.7c7,0,12.5-2.5,12.5-5.7h-1.2
	C90.7,65.7,86.2,68,79.4,68z"/>
<path class="st1" d="M79.4,74.6c-6.8,0-11.3-2.3-11.3-4.5h-1.2c0,3.2,5.5,5.7,12.5,5.7c7,0,12.5-2.5,12.5-5.7h-1.2
	C90.7,72.3,86.2,74.6,79.4,74.6z"/>
</svg>
