<?xml version="1.0" encoding="utf-8"?>
<!-- Generator: Adobe Illustrator 22.1.0, SVG Export Plug-In . SVG Version: 6.00 Build 0)  -->
<svg version="1.1" id="Layer_1" xmlns="http://www.w3.org/2000/svg" xmlns:xlink="http://www.w3.org/1999/xlink" x="0px" y="0px"
	 width="100px" height="100px" viewBox="0 0 100 100" style="enable-background:new 0 0 100 100;" xml:space="preserve">
<style type="text/css">
	.st0{fill:none;stroke:#4FB646;}
	.st1{fill:#4FB646;}
</style>
<circle id="Oval-5" class="st0" cx="50" cy="50" r="49"/>
<path id="Shape" class="st1" d="M55.2,41.2H36c-0.6,0-1,0.3-1,0.6c0,0.3,0.5,0.6,1,0.6h19.3c0.6,0,1-0.3,1-0.6
	C56.3,41.5,55.8,41.2,55.2,41.2z"/>
<path id="Shape_1_" class="st1" d="M46.5,46.2H35.9c-0.5,0-1,0.3-1,0.6s0.4,0.6,1,0.6h10.6c0.5,0,1-0.3,1-0.6
	C47.5,46.5,47,46.2,46.5,46.2z"/>
<path id="Shape_2_" class="st1" d="M57.5,55c-2.1,0-3.8,1.7-3.8,3.8c0,2.1,1.7,3.8,3.8,3.8c2.1,0,3.8-1.7,3.8-3.8
	C61.3,56.7,59.6,55,57.5,55z M57.5,60.8c-1.1,0-2-0.9-2-2c0-1.1,0.9-2,2-2c1.1,0,2,0.9,2,2C59.6,59.9,58.7,60.8,57.5,60.8z"/>
<path id="Shape_3_" class="st1" d="M74.9,28.6H25.1c-1.5,0-2.7,1.2-2.7,2.7v35.6c0,1.5,1.2,2.7,2.7,2.7h23.7l-1.6,4l0,0
	c-0.1,0.2-0.1,0.4-0.1,0.6c0,0.3,0.1,0.7,0.4,1c0.3,0.3,0.7,0.4,1,0.4c0.1,0,0.2,0,0.3,0l2.6-0.4l0.1,0l0,0l1.6,2
	c0.1,0.1,0.3,0.3,0.5,0.4c0.2,0.1,0.4,0.2,0.7,0.2c0.3,0,0.6-0.1,0.9-0.3c0.2-0.2,0.4-0.4,0.4-0.6l2.1-5.5l2.1,5.5
	c0.1,0.2,0.2,0.4,0.4,0.6c0.2,0.2,0.5,0.3,0.9,0.3c0.3,0,0.5-0.1,0.7-0.2c0.2-0.1,0.3-0.2,0.4-0.4l0,0l1.6-2l0.1,0l0.1,0l2.6,0.4
	c0.1,0,0.2,0,0.3,0c0.3,0,0.7-0.1,1-0.4c0.3-0.3,0.4-0.6,0.4-1c0-0.2,0-0.4-0.1-0.6l0,0l-1.6-4h8.4c1.5,0,2.7-1.2,2.7-2.7V31.3
	C77.6,29.8,76.4,28.6,74.9,28.6z M54.1,75l-0.9-1.1l0,0c-0.2-0.3-0.5-0.5-0.8-0.6C52,73.1,51.7,73,51.4,73c-0.1,0-0.2,0-0.3,0
	l-1.5,0.3l2.4-6.1c1.3,0.9,2.8,1.4,4.5,1.6L54.1,75z M57.5,66.8c-4.3,0-7.8-3.5-7.8-7.7c0-4.2,3.5-7.7,7.8-7.7s7.8,3.5,7.8,7.7
	C65.4,63.4,61.8,66.8,57.5,66.8z M47.9,61.5H30.5V36h38.9v25.5h-2.4c0.2-0.8,0.3-1.6,0.3-2.4c0-5.4-4.4-9.7-9.9-9.7
	s-9.9,4.3-9.9,9.7C47.6,60,47.7,60.8,47.9,61.5z M64.3,73c-0.1,0-0.2,0-0.3,0c-0.3,0-0.7,0.1-0.9,0.2c-0.3,0.1-0.6,0.3-0.8,0.6l0,0
	L61.3,75l-2.4-6.2c1.6-0.2,3.1-0.9,4.4-1.8l2.5,6.3L64.3,73z M75.6,66.9c0,0.4-0.3,0.7-0.7,0.7h-9.1L65,65.5c0.5-0.6,1-1.2,1.3-2
	h4.5c0.4,0,0.7-0.3,0.7-0.7V34.7c0-0.4-0.3-0.7-0.7-0.7H29.2c-0.4,0-0.7,0.3-0.7,0.7v28.2c0,0.4,0.3,0.7,0.7,0.7h19.5
	c0.4,0.8,1,1.6,1.6,2.2l-0.7,1.8H25.1c-0.4,0-0.7-0.3-0.7-0.7V31.3c0-0.4,0.3-0.7,0.7-0.7h49.8c0.4,0,0.7,0.3,0.7,0.7V66.9z"/>
</svg>
