<svg width="67" height="68" viewBox="0 0 67 68" fill="none" xmlns="http://www.w3.org/2000/svg">
<path d="M27.0855 0.298584H3.9923C1.79056 0.298584 0 2.08914 0 4.29088V27.3841C0 29.5858 1.79056 31.3764 3.9923 31.3764H27.0855C29.2872 31.3764 31.0778 29.5858 31.0778 27.3841V4.29088C31.0778 2.08914 29.2872 0.298584 27.0855 0.298584ZM28.6872 27.3841C28.6872 28.2674 27.9688 28.9858 27.0855 28.9858H3.9923C3.10897 28.9858 2.3906 28.2674 2.3906 27.3841V4.29088C2.3906 3.40756 3.10897 2.68918 3.9923 2.68918H27.0855C27.9688 2.68918 28.6872 3.40756 28.6872 4.29088V27.3841Z" fill="url(#paint0_linear)"/>
<path d="M62.9448 0.298584H39.8517C37.6499 0.298584 35.8594 2.08914 35.8594 4.29088V27.3841C35.8594 29.5858 37.6499 31.3764 39.8517 31.3764H62.9448C65.1466 31.3764 66.9371 29.5858 66.9371 27.3841V4.29088C66.9371 2.08914 65.1466 0.298584 62.9448 0.298584ZM64.5465 27.3841C64.5465 28.2674 63.8282 28.9858 62.9448 28.9858H39.8517C38.9683 28.9858 38.25 28.2674 38.25 27.3841V4.29088C38.25 3.40756 38.9683 2.68918 39.8517 2.68918H62.9448C63.8282 2.68918 64.5465 3.40756 64.5465 4.29088V27.3841Z" fill="url(#paint1_linear)"/>
<path d="M27.0855 36H3.9923C1.79056 36 0 37.7906 0 39.9923V63.0855C0 65.2872 1.79056 67.0778 3.9923 67.0778H27.0855C29.2872 67.0778 31.0778 65.2872 31.0778 63.0855V39.9923C31.0778 37.7906 29.2872 36 27.0855 36ZM28.6872 63.0855C28.6872 63.9688 27.9688 64.6872 27.0855 64.6872H3.9923C3.10897 64.6872 2.3906 63.9688 2.3906 63.0855V39.9923C2.3906 39.109 3.10897 38.3906 3.9923 38.3906H27.0855C27.9688 38.3906 28.6872 39.109 28.6872 39.9923V63.0855Z" fill="url(#paint2_linear)"/>
<path d="M65.7418 50.5011H52.5936V37.3528C52.5936 36.6918 52.0593 36.1575 51.3983 36.1575C50.7373 36.1575 50.203 36.6918 50.203 37.3528V50.5011H37.0547C36.3937 50.5011 35.8594 51.0354 35.8594 51.6964C35.8594 52.3574 36.3937 52.8917 37.0547 52.8917H50.203V66.0399C50.203 66.7009 50.7373 67.2352 51.3983 67.2352C52.0593 67.2352 52.5936 66.7009 52.5936 66.0399V52.8917H65.7418C66.4028 52.8917 66.9371 52.3574 66.9371 51.6964C66.9371 51.0354 66.4028 50.5011 65.7418 50.5011Z" fill="url(#paint3_linear)"/>
<defs>
<linearGradient id="paint0_linear" x1="0.374992" y1="0.964557" x2="28.053" y2="25.0844" gradientUnits="userSpaceOnUse">
<stop stop-color="#0497F4"/>
<stop offset="1" stop-color="#0BCBF9"/>
</linearGradient>
<linearGradient id="paint1_linear" x1="36.2344" y1="0.964557" x2="63.9124" y2="25.0844" gradientUnits="userSpaceOnUse">
<stop stop-color="#0497F4"/>
<stop offset="1" stop-color="#0BCBF9"/>
</linearGradient>
<linearGradient id="paint2_linear" x1="0.374992" y1="36.666" x2="28.053" y2="60.7859" gradientUnits="userSpaceOnUse">
<stop stop-color="#0497F4"/>
<stop offset="1" stop-color="#0BCBF9"/>
</linearGradient>
<linearGradient id="paint3_linear" x1="36.2344" y1="36.8234" x2="63.9124" y2="60.9433" gradientUnits="userSpaceOnUse">
<stop stop-color="#0497F4"/>
<stop offset="1" stop-color="#0BCBF9"/>
</linearGradient>
</defs>
</svg>
