<svg width="70" height="69" viewBox="0 0 70 69" fill="none" xmlns="http://www.w3.org/2000/svg">
<path d="M51.9367 17.8772C48.0514 17.8772 44.8906 21.0052 44.8906 24.8499C44.8906 28.6945 48.0514 31.8226 51.9367 31.8226C55.8218 31.8226 58.9828 28.6947 58.9828 24.8499C58.9828 21.0049 55.822 17.8772 51.9367 17.8772ZM51.9367 29.1167C49.5592 29.1167 47.625 27.2027 47.625 24.8499C47.625 22.4971 49.5592 20.5831 51.9367 20.5831C54.3141 20.5831 56.2484 22.4971 56.2484 24.8499C56.2484 27.2024 54.3142 29.1167 51.9367 29.1167Z" fill="url(#paint0_linear)"/>
<path d="M51.9846 61.1875C51.9504 61.105 51.908 61.0265 51.8588 60.9534C51.8096 60.879 51.7522 60.81 51.6893 60.7478C51.6264 60.6856 51.5566 60.6287 51.4814 60.58C51.4076 60.5313 51.3283 60.4894 51.2449 60.4556C51.1629 60.4217 51.0768 60.3947 50.9893 60.3784C50.8129 60.3433 50.6324 60.3433 50.4561 60.3784C50.3686 60.3947 50.2824 60.4217 50.2004 60.4556C50.117 60.4894 50.0377 60.5313 49.9639 60.58C49.8887 60.6287 49.8189 60.6856 49.7561 60.7478C49.6932 60.81 49.6357 60.879 49.5865 60.9534C49.5373 61.0265 49.4949 61.105 49.4607 61.1875C49.4266 61.2687 49.3992 61.3539 49.3828 61.4405C49.365 61.5271 49.3555 61.6164 49.3555 61.7043C49.3555 61.7923 49.365 61.8816 49.3828 61.9681C49.3992 62.0547 49.4266 62.14 49.4607 62.2212C49.4949 62.3037 49.5373 62.3821 49.5865 62.4552C49.6357 62.5296 49.6932 62.5986 49.7561 62.6609C49.7874 62.6918 49.8205 62.7215 49.8549 62.7495C49.8898 62.7776 49.9261 62.8043 49.9639 62.8286C50.0377 62.8773 50.117 62.9193 50.2004 62.9531C50.2824 62.9869 50.3686 63.014 50.4561 63.0302C50.5436 63.0478 50.6338 63.0573 50.7227 63.0573C50.8115 63.0573 50.9018 63.0478 50.9893 63.0302C51.0768 63.014 51.1629 62.9869 51.2449 62.9531C51.3283 62.9193 51.4076 62.8773 51.4814 62.8286C51.5192 62.8041 51.5555 62.7776 51.5904 62.7495C51.625 62.7215 51.658 62.6918 51.6893 62.6609C51.7522 62.5986 51.8096 62.5296 51.8588 62.4552C51.908 62.3821 51.9504 62.3037 51.9846 62.2212C52.0188 62.14 52.0461 62.0547 52.0639 61.9681C52.0816 61.8816 52.0898 61.7923 52.0898 61.7043C52.0898 61.6164 52.0816 61.5271 52.0639 61.4405C52.0461 61.3538 52.0188 61.2685 51.9846 61.1875Z" fill="url(#paint1_linear)"/>
<path d="M30.4689 7.64733C30.4348 7.56616 30.3924 7.48769 30.3432 7.41327C30.2939 7.34022 30.2365 7.26986 30.1736 7.20763C30.1107 7.14539 30.041 7.08857 29.9658 7.03986C29.892 6.99115 29.8127 6.94921 29.7293 6.91539C29.6473 6.88157 29.5611 6.85586 29.4736 6.83827C29.2973 6.8031 29.1168 6.8031 28.9404 6.83827C28.8529 6.85586 28.7668 6.88157 28.6834 6.91539C28.6014 6.94921 28.5221 6.99115 28.4482 7.03986C28.373 7.08857 28.3033 7.14539 28.2404 7.20763C28.1775 7.26986 28.1201 7.34022 28.0695 7.41327C28.0203 7.48769 27.9793 7.56616 27.9451 7.64733C27.9109 7.72851 27.8836 7.81375 27.8672 7.90034C27.8494 7.98828 27.8398 8.07622 27.8398 8.16551C27.8398 8.25345 27.8494 8.3414 27.8672 8.42934C27.8836 8.51593 27.9109 8.60116 27.9451 8.68234C27.9793 8.76352 28.0203 8.84199 28.0695 8.9164C28.1201 8.98946 28.1775 9.05981 28.2404 9.12205C28.3033 9.18428 28.373 9.24111 28.4482 9.28981C28.5221 9.33852 28.6014 9.38046 28.6834 9.41428C28.7668 9.44811 28.8529 9.47381 28.9404 9.4914C29.0279 9.50899 29.1182 9.51846 29.207 9.51846C29.2959 9.51846 29.3861 9.50899 29.4736 9.4914C29.5611 9.47381 29.6473 9.44811 29.7293 9.41428C29.8127 9.38046 29.892 9.33852 29.9658 9.28981C30.041 9.24111 30.1107 9.18428 30.1736 9.12205C30.2365 9.05981 30.2939 8.98946 30.3432 8.9164C30.3924 8.84199 30.4348 8.76352 30.4689 8.68234C30.5031 8.60116 30.5305 8.51593 30.5469 8.42934C30.5646 8.3414 30.5742 8.25345 30.5742 8.16551C30.5742 8.07622 30.5646 7.98828 30.5469 7.90034C30.5305 7.81375 30.5031 7.72851 30.4689 7.64733Z" fill="url(#paint2_linear)"/>
<path d="M62.3612 6.81755C61.5415 3.38797 58.4237 0.827515 54.711 0.827515H11.8148C5.30018 0.827379 0 6.07235 0 12.5191V54.9685C0 59.1844 3.40662 62.6255 7.63875 62.7436C8.45852 66.1732 11.5763 68.7337 15.289 68.7337H62.1373C66.4728 68.7337 70 65.2432 70 60.9529V50.7438V14.5925C70 10.3767 66.5934 6.93566 62.3612 6.81755ZM67.2656 60.9531C67.2656 63.7514 64.9651 66.0281 62.1373 66.0281H15.289C13.1001 66.0281 11.2282 64.6636 10.4936 62.7495C10.2791 62.1907 10.1607 61.5855 10.1607 60.9531V60.0436V53.7755L25.8457 27.4574C26.3233 26.6562 27.1749 26.1884 28.1092 26.2032C29.0492 26.2192 29.8787 26.7163 30.3282 27.5333L37.0815 39.8048L46.8981 57.6425C47.1461 58.0933 47.6154 58.3486 48.1 58.3486C48.3209 58.3486 48.545 58.2954 48.7527 58.1835C49.4158 57.8261 49.6606 57.0044 49.2996 56.3483L46.114 50.5597C47.5126 50.6235 48.8883 50.1753 49.9838 49.276L56.1322 44.2287C57.1182 43.4192 58.5741 43.4548 59.5186 44.3116L59.8396 44.6028L62.574 47.0831L67.2656 51.3391V60.9531ZM67.2656 47.6683L62.5738 43.4122L59.8395 41.3518C58.0579 40.6144 55.9396 40.8709 54.3863 42.146L48.2379 47.1933C47.5617 47.7485 46.6788 47.9728 45.8158 47.8087C44.9529 47.6447 44.2169 47.1125 43.7966 46.3489L39.4829 38.5105L37.0742 34.1335V34.1334L32.7296 26.239C31.803 24.5552 30.0932 23.5304 28.156 23.4976C26.2194 23.4676 24.4747 24.4313 23.4905 26.0827L10.1605 48.4489V14.5925C10.1605 11.7942 12.4611 9.51763 15.2888 9.51763H23.737C24.4921 9.51763 25.1042 8.91191 25.1042 8.16468C25.1042 7.41745 24.4921 6.81173 23.737 6.81173H15.2888C10.9534 6.81173 7.42615 10.3022 7.42615 14.5925V53.4061V60.0237C4.80211 59.8035 2.73438 57.6212 2.73438 54.9685V12.5191C2.73438 7.56424 6.80791 3.53327 11.8148 3.53327H54.711C56.8999 3.53327 58.7718 4.89772 59.5064 6.81187H34.6745C33.9194 6.81187 33.3073 7.41758 33.3073 8.16482C33.3073 8.91205 33.9194 9.51776 34.6745 9.51776H59.8393L62.5737 9.53751C65.1979 9.7575 67.2656 11.9398 67.2656 14.5925V47.6683Z" fill="url(#paint3_linear)"/>
<defs>
<linearGradient id="paint0_linear" x1="45.0607" y1="18.176" x2="57.4976" y2="29.1282" gradientUnits="userSpaceOnUse">
<stop stop-color="#0497F4"/>
<stop offset="1" stop-color="#0BCBF9"/>
</linearGradient>
<linearGradient id="paint1_linear" x1="49.3885" y1="60.41" x2="51.8011" y2="62.5352" gradientUnits="userSpaceOnUse">
<stop stop-color="#0497F4"/>
<stop offset="1" stop-color="#0BCBF9"/>
</linearGradient>
<linearGradient id="paint2_linear" x1="27.8728" y1="6.86989" x2="30.2866" y2="8.99494" gradientUnits="userSpaceOnUse">
<stop stop-color="#0497F4"/>
<stop offset="1" stop-color="#0BCBF9"/>
</linearGradient>
<linearGradient id="paint3_linear" x1="0.844637" y1="2.28269" x2="61.5463" y2="56.812" gradientUnits="userSpaceOnUse">
<stop stop-color="#0497F4"/>
<stop offset="1" stop-color="#0BCBF9"/>
</linearGradient>
</defs>
</svg>
