<svg width="75" height="68" viewBox="0 0 75 68" fill="none" xmlns="http://www.w3.org/2000/svg">
<path d="M71.5744 24.0577V6.01652C71.5744 3.12828 69.2145 0.778442 66.314 0.778442H5.26043C2.3597 0.778442 0 3.12828 0 6.01652V42.769C0 45.6573 2.35986 48.0071 5.26043 48.0071H22.5633L20.5826 50.1299H17.6151C16.9405 50.1299 16.3936 50.6745 16.3936 51.3462C16.3936 52.0179 16.9405 52.5625 17.6151 52.5625H34.6115V64.2929C34.6115 65.9874 35.996 67.3661 37.6979 67.3661H50.8289C52.5307 67.3661 53.9153 65.9875 53.9153 64.2929V61.8224H70.3545C72.6616 61.8224 74.5385 59.9527 74.5385 57.6546V28.044C74.5385 26.1689 73.2887 24.5794 71.5744 24.0577ZM72.0955 28.044V28.3763H44.0036V28.044C44.0036 27.0872 44.7853 26.3088 45.7462 26.3088H70.3545C71.3146 26.309 72.0955 27.0874 72.0955 28.044ZM50.8289 38.3198H44.0036V30.8089H72.0955V54.8896H53.9153V41.3929C53.9153 39.6984 52.5307 38.3198 50.8289 38.3198ZM51.4724 42.9917H37.0546V41.393C37.0546 41.0398 37.3432 40.7523 37.698 40.7523H50.8291C51.1838 40.7523 51.4725 41.0397 51.4725 41.393V42.9917H51.4724ZM69.1313 7.2328V23.8763H45.746C43.4381 23.8763 41.5605 25.7459 41.5605 28.044V38.3198H37.6977C35.9973 38.3198 34.6138 39.6963 34.6117 41.389H2.44276V7.2328H69.1313ZM37.0543 45.4242H51.4721V60.262H37.0543V45.4242ZM5.26026 3.21099H66.3138C67.4294 3.21099 68.3927 3.86161 68.8487 4.80025H2.72516C3.18134 3.86161 4.14466 3.21099 5.26026 3.21099ZM2.65041 43.8217H34.6115V45.5747H5.26026C4.08066 45.5746 3.06945 44.8482 2.65041 43.8217ZM23.9172 50.1299L25.8979 48.0071H34.6115V50.1299H23.9172ZM50.8288 64.9337H37.6977C37.343 64.9337 37.0543 64.6464 37.0543 64.293V62.6945H51.4721V64.293C51.4722 64.6462 51.1835 64.9337 50.8288 64.9337ZM70.3544 59.39H53.9151V57.3223H72.0954V57.6548C72.0954 58.6114 71.3145 59.39 70.3544 59.39Z" fill="url(#paint0_linear)"/>
<defs>
<linearGradient id="paint0_linear" x1="0.899399" y1="2.20537" x2="60.7466" y2="60.5863" gradientUnits="userSpaceOnUse">
<stop stop-color="#0497F4"/>
<stop offset="1" stop-color="#0BCBF9"/>
</linearGradient>
</defs>
</svg>
