<?xml version="1.0" encoding="utf-8"?>
<!-- Generator: Adobe Illustrator 19.2.0, SVG Export Plug-In . SVG Version: 6.00 Build 0)  -->
<svg version="1.1" id="Layer_1" xmlns="http://www.w3.org/2000/svg" xmlns:xlink="http://www.w3.org/1999/xlink" x="0px" y="0px"
	 width="120px" height="140px" viewBox="0 0 120 140" style="enable-background:new 0 0 120 140;" xml:space="preserve">
<style type="text/css">
	.st0{fill:#0C071F;}
	.st1{fill:#124AFF;}
</style>
<path class="st0" d="M33.4,117.4c-0.8,0-1.5-0.1-2.2-0.3c-0.7-0.2-1.3-0.6-1.7-0.9L30,115c0.4,0.4,0.9,0.6,1.5,0.9
	c0.6,0.2,1.2,0.3,1.9,0.3c0.8,0,1.5-0.1,1.9-0.4c0.4-0.3,0.6-0.7,0.6-1.2c0-0.4-0.1-0.6-0.4-0.8c-0.2-0.2-0.5-0.4-0.8-0.5
	c-0.3-0.1-0.8-0.2-1.4-0.4c-0.8-0.2-1.4-0.4-1.9-0.6c-0.5-0.2-0.9-0.5-1.2-0.8c-0.3-0.4-0.5-0.9-0.5-1.6c0-0.5,0.1-1,0.4-1.5
	c0.3-0.4,0.7-0.8,1.3-1.1c0.6-0.3,1.3-0.4,2.2-0.4c0.6,0,1.2,0.1,1.8,0.2c0.6,0.2,1.1,0.4,1.5,0.7l-0.5,1.2
	c-0.4-0.3-0.9-0.5-1.4-0.6c-0.5-0.1-1-0.2-1.4-0.2c-0.8,0-1.5,0.2-1.9,0.5c-0.4,0.3-0.6,0.7-0.6,1.2c0,0.4,0.1,0.6,0.4,0.9
	c0.2,0.2,0.5,0.4,0.9,0.5c0.4,0.1,0.8,0.2,1.4,0.4c0.8,0.2,1.4,0.4,1.9,0.6c0.5,0.2,0.9,0.5,1.2,0.8c0.3,0.4,0.5,0.9,0.5,1.5
	c0,0.5-0.1,1-0.4,1.5c-0.3,0.4-0.7,0.8-1.3,1.1C35,117.3,34.3,117.4,33.4,117.4z M43.7,116.9c-0.2,0.2-0.5,0.3-0.8,0.4
	c-0.3,0.1-0.6,0.1-0.9,0.1c-0.8,0-1.4-0.2-1.8-0.6c-0.4-0.4-0.6-1-0.6-1.8v-4.2h-1.3v-1.2h1.3v-1.7h1.4v1.7h2.2v1.2h-2.2v4.2
	c0,0.4,0.1,0.7,0.3,1c0.2,0.2,0.5,0.3,0.9,0.3c0.4,0,0.8-0.1,1.1-0.4L43.7,116.9z M46.7,110.9c0.2-0.4,0.6-0.8,1.1-1
	c0.5-0.2,1.1-0.4,1.7-0.4v1.4c-0.1,0-0.2,0-0.3,0c-0.8,0-1.4,0.2-1.8,0.7c-0.4,0.4-0.6,1.1-0.6,1.9v3.9h-1.4v-7.7h1.3V110.9z
	 M54.1,109.5c1.1,0,1.9,0.3,2.5,0.8c0.6,0.5,0.9,1.3,0.9,2.4v4.7H56v-1c-0.2,0.4-0.6,0.6-1,0.8c-0.4,0.2-0.9,0.3-1.5,0.3
	c-0.9,0-1.6-0.2-2.1-0.6c-0.5-0.4-0.8-1-0.8-1.7c0-0.7,0.2-1.2,0.7-1.6c0.5-0.4,1.3-0.6,2.4-0.6H56v-0.3c0-0.6-0.2-1.1-0.5-1.4
	c-0.4-0.3-0.9-0.5-1.5-0.5c-0.5,0-0.9,0.1-1.3,0.2c-0.4,0.1-0.8,0.3-1.1,0.6l-0.6-1.1c0.4-0.3,0.9-0.6,1.4-0.7
	C52.8,109.6,53.4,109.5,54.1,109.5z M53.7,116.3c0.5,0,1-0.1,1.4-0.4c0.4-0.2,0.7-0.6,0.8-1v-1.1h-2.2c-1.2,0-1.8,0.4-1.8,1.2
	c0,0.4,0.2,0.7,0.5,0.9C52.8,116.2,53.2,116.3,53.7,116.3z M64.3,116.9c-0.2,0.2-0.5,0.3-0.8,0.4c-0.3,0.1-0.6,0.1-0.9,0.1
	c-0.8,0-1.4-0.2-1.8-0.6c-0.4-0.4-0.6-1-0.6-1.8v-4.2h-1.3v-1.2h1.3v-1.7h1.4v1.7h2.2v1.2h-2.2v4.2c0,0.4,0.1,0.7,0.3,1
	c0.2,0.2,0.5,0.3,0.9,0.3c0.4,0,0.8-0.1,1.1-0.4L64.3,116.9z M72.7,113.5c0,0.1,0,0.2,0,0.4h-6.3c0.1,0.7,0.4,1.2,0.9,1.7
	c0.5,0.4,1.2,0.6,1.9,0.6c0.9,0,1.7-0.3,2.2-0.9l0.8,0.9c-0.4,0.4-0.8,0.7-1.3,0.9c-0.5,0.2-1.1,0.3-1.7,0.3c-0.8,0-1.5-0.2-2.2-0.5
	c-0.6-0.3-1.1-0.8-1.5-1.4c-0.3-0.6-0.5-1.3-0.5-2c0-0.7,0.2-1.4,0.5-2c0.3-0.6,0.8-1.1,1.4-1.4c0.6-0.3,1.3-0.5,2-0.5
	c0.7,0,1.4,0.2,2,0.5c0.6,0.3,1,0.8,1.4,1.4C72.6,112,72.7,112.7,72.7,113.5z M68.9,110.7c-0.7,0-1.2,0.2-1.7,0.6
	c-0.4,0.4-0.7,0.9-0.8,1.6h5c-0.1-0.7-0.3-1.2-0.8-1.6C70.2,110.9,69.6,110.7,68.9,110.7z M82.1,109.6v6.7c0,1.4-0.3,2.4-1,3
	c-0.7,0.7-1.7,1-3,1c-0.7,0-1.4-0.1-2.1-0.3c-0.7-0.2-1.2-0.5-1.6-0.8l0.7-1.1c0.4,0.3,0.8,0.6,1.3,0.7c0.5,0.2,1.1,0.3,1.7,0.3
	c0.9,0,1.6-0.2,2-0.6c0.4-0.4,0.7-1.1,0.7-2v-0.6c-0.3,0.4-0.7,0.7-1.2,0.9c-0.5,0.2-1,0.3-1.6,0.3c-0.7,0-1.4-0.2-2-0.5
	c-0.6-0.3-1.1-0.8-1.4-1.3c-0.3-0.6-0.5-1.2-0.5-2c0-0.7,0.2-1.4,0.5-1.9c0.3-0.6,0.8-1,1.4-1.3c0.6-0.3,1.3-0.5,2-0.5
	c0.6,0,1.1,0.1,1.6,0.3c0.5,0.2,0.9,0.5,1.2,0.9v-1.2H82.1z M78.1,115.8c0.5,0,1-0.1,1.4-0.3c0.4-0.2,0.7-0.5,0.9-0.9
	c0.2-0.4,0.4-0.8,0.4-1.3c0-0.7-0.2-1.4-0.7-1.8c-0.5-0.5-1.1-0.7-1.9-0.7c-0.8,0-1.4,0.2-1.9,0.7c-0.5,0.5-0.7,1.1-0.7,1.8
	c0,0.5,0.1,0.9,0.3,1.3c0.2,0.4,0.6,0.7,0.9,0.9C77.1,115.7,77.6,115.8,78.1,115.8z M91.6,109.6l-3.8,8.5c-0.3,0.8-0.7,1.3-1.2,1.7
	c-0.4,0.3-1,0.5-1.6,0.5c-0.4,0-0.7-0.1-1.1-0.2c-0.4-0.1-0.6-0.3-0.9-0.5l0.6-1.1c0.4,0.4,0.9,0.6,1.4,0.6c0.3,0,0.6-0.1,0.8-0.3
	c0.2-0.2,0.4-0.5,0.6-0.9l0.2-0.5l-3.4-7.7h1.5l2.7,6.2l2.7-6.2H91.6z"/>
<path class="st1" d="M82.3,70.8h-5.7l6.3-10.7c0,0,0-0.1,0.1-0.1c0-0.2,1.5-6.9-1.7-20.1c-2.5-10.8-8-15.6-9.7-17.3
	c-0.1-0.1-0.1-0.1-0.2-0.2c0-0.2-0.1-0.4-0.6-0.5h-0.1c-1-0.2-3.2-0.4-8-0.8c-3.9-4.6-7.2-7.3-7.3-7.4c-0.1-0.1-0.4-0.1-0.6-0.1
	c-0.2,0.1-0.4,0.2-0.4,0.5c0,0-0.7,3.2-1.3,7.9c-9.6,0.2-18.1,9.7-21.3,13.7c-1.1,1.3-0.8,3.3,0.4,4.5l3.4,3.2
	c0.7,0.7,1.9,1,2.9,0.5l7-2.9c0.8,0.7,3.6,2.4,7.8,1.3c-7.8,9.9-8.2,25.3-8.2,28.6h-5.8c-0.4,0-0.6,0.2-0.6,0.6v7.6
	c0,0.4,0.2,0.6,0.6,0.6h43.2c0.4,0,0.6-0.2,0.6-0.6v-7.5C82.9,71,82.5,70.8,82.3,70.8z M70,22.9c0.1,0.1,0.2,0.2,0.5,0.5
	c1.7,1.6,6.9,6.2,9.3,16.7c2.9,12.1,1.9,18.7,1.7,19.5l-5.3,9.1c0.5-5.7,1-19-3.3-30.2c-2.4-6.4-6.2-12-9.6-16.3
	C66,22.5,69.1,22.8,70,22.9z M55.2,41.3c0.2-0.2,0.2-0.5,0-0.7c-0.1-0.2-0.5-0.4-0.7-0.2c-5.6,2.3-8.7-0.6-8.9-0.7
	c-0.1-0.1-0.5-0.2-0.6-0.1l-7.3,3c-0.5,0.2-1.1,0.1-1.6-0.2l-3.4-3.2c-0.8-0.7-0.8-1.9-0.2-2.8c3.2-4,11.5-13.3,20.9-13.3h0.1
	c0.2,0,0.6-0.2,0.6-0.5c0.5-3.4,1-5.9,1.2-7.3c2.8,2.4,12.1,11.5,16.7,23.8c4.9,13,3.4,28.9,3,31.9H46
	C45.9,67.4,46.5,50.7,55.2,41.3z M81.7,78.4H39.5V72h42.2V78.4z"/>
<path class="st1" d="M51.7,29l-4.4,0.1c-0.4,0-0.6,0.2-0.6,0.6c0,0.4,0.2,0.6,0.6,0.6l4.4-0.1c0.4,0,0.6-0.2,0.6-0.6
	C52.3,29.2,52,29,51.7,29z"/>
</svg>
