<?xml version="1.0" encoding="UTF-8"?>
<svg width="233px" height="102px" viewBox="0 0 233 102" version="1.1" xmlns="http://www.w3.org/2000/svg" xmlns:xlink="http://www.w3.org/1999/xlink">
    <!-- Generator: sketchtool 52.3 (67297) - http://www.bohemiancoding.com/sketch -->
    <title>8627230F-B463-4485-BFE2-03966E468058</title>
    <desc>Created with sketchtool.</desc>
    <g id="Page-1" stroke="none" stroke-width="1" fill="none" fill-rule="evenodd">
        <g id="Services-Design" transform="translate(-60.000000, -20.000000)">
            <g id="header-dark-1920" transform="translate(60.000000, 20.000000)">
                <g id="header-dark">
                    <g id="logo_2geart">
                        <g id="Group" transform="translate(118.000000, 19.000000)" fill="#000000">
                            <path d="M19.1235955,33.3148148 L1.42134831,33.3148148 L1.42134831,30.3333333 L10.4662921,18.2777778 C11.8876404,16.462963 12.7921348,14.9074074 13.3089888,13.7407407 C13.8258427,12.5740741 14.0842697,11.2777778 14.0842697,9.98148148 C14.0842697,8.2962963 13.6966292,6.87037037 12.9213483,5.83333333 C12.1460674,4.7962963 11.1123596,4.27777778 9.82022472,4.27777778 C8.14044944,4.27777778 6.97752809,4.7962963 6.07303371,5.96296296 C5.16853933,7.12962963 4.78089888,8.68518519 4.78089888,10.7592593 L0.904494382,10.7592593 C0.904494382,7.77777778 1.67977528,5.44444444 3.35955056,3.62962963 C4.91011236,1.81481481 7.10674157,0.907407407 9.9494382,0.907407407 C12.5337079,0.907407407 14.4719101,1.68518519 15.8932584,3.24074074 C17.3146067,4.7962963 18.0898876,6.87037037 18.0898876,9.46296296 C18.0898876,12.5740741 16.4101124,16.3333333 13.1797753,20.7407407 L6.07303371,30.0740741 L19.252809,30.0740741 L19.1235955,33.3148148 Z" id="Path"></path>
                            <path d="M43.6741573,29.4259259 L43.0280899,30.3333333 C40.9606742,32.6666667 38.1179775,33.8333333 34.241573,33.8333333 C30.752809,33.8333333 28.0393258,32.6666667 26.1011236,30.3333333 C24.1629213,28 23.1292135,24.7592593 23.1292135,20.6111111 L23.1292135,14.3888889 C23.1292135,9.85185185 24.0337079,6.61111111 25.8426966,4.27777778 C27.6516854,2.07407407 30.3651685,0.907407407 33.8539326,0.907407407 C36.8258427,0.907407407 39.2808989,1.81481481 40.9606742,3.5 C42.6404494,5.18518519 43.6741573,7.64814815 43.8033708,10.7592593 L39.7977528,10.7592593 C39.6685393,8.81481481 39.0224719,7.25925926 38.1179775,6.09259259 C37.2134831,4.92592593 35.7921348,4.40740741 33.8539326,4.40740741 C31.5280899,4.40740741 29.8483146,5.18518519 28.8146067,6.61111111 C27.7808989,8.16666667 27.1348315,10.5 27.1348315,13.8703704 L27.1348315,20.3518519 C27.1348315,23.5925926 27.7808989,26.0555556 28.9438202,27.7407407 C30.1067416,29.4259259 31.9157303,30.3333333 34.241573,30.3333333 C36.4382022,30.3333333 37.988764,29.8148148 39.1516854,28.7777778 L39.7977528,28.2592593 L39.7977528,20.8703704 L33.9831461,20.8703704 L33.9831461,17.3703704 L43.8033708,17.3703704 L43.6741573,29.4259259 Z" id="Path"></path>
                            <path d="M57.8876404,33.8333333 C54.9157303,33.8333333 52.7191011,32.9259259 51.0393258,31.2407407 C49.488764,29.4259259 48.7134831,26.8333333 48.5842697,23.462963 L48.5842697,20.6111111 C48.5842697,17.1111111 49.3595506,14.2592593 50.9101124,12.3148148 C52.4606742,10.2407407 54.6573034,9.33333333 57.3707865,9.33333333 C60.0842697,9.33333333 62.1516854,10.2407407 63.5730337,12.0555556 C64.994382,13.8703704 65.6404494,16.5925926 65.6404494,20.3518519 L65.6404494,22.9444444 L52.4606742,22.9444444 L52.4606742,23.462963 C52.4606742,26.0555556 52.9775281,27.8703704 53.8820225,29.037037 C54.7865169,30.2037037 56.2078652,30.7222222 58.0168539,30.7222222 C59.1797753,30.7222222 60.2134831,30.462963 60.988764,30.0740741 C61.8932584,29.6851852 62.6685393,28.9074074 63.4438202,28 L65.511236,30.462963 C63.8314607,32.6666667 61.247191,33.8333333 57.8876404,33.8333333 Z M57.3707865,12.4444444 C55.8202247,12.4444444 54.5280899,12.962963 53.752809,14.1296296 C52.9775281,15.2962963 52.5898876,16.9814815 52.4606742,19.3148148 L61.7640449,19.3148148 L61.7640449,18.7962963 C61.6348315,16.5925926 61.247191,14.9074074 60.6011236,14 C59.9550562,12.962963 58.7921348,12.4444444 57.3707865,12.4444444 Z" id="Shape" fill-rule="nonzero"></path>
                            <path d="M81.9213483,33.3148148 C81.6629213,32.7962963 81.5337079,31.8888889 81.4044944,30.7222222 C79.9831461,32.7962963 78.3033708,33.7037037 76.1067416,33.7037037 C73.9101124,33.7037037 72.2303371,33.0555556 71.0674157,31.8888889 C69.9044944,30.7222222 69.258427,29.037037 69.258427,26.8333333 C69.258427,24.3703704 70.0337079,22.5555556 71.7134831,21.1296296 C73.3932584,19.7037037 75.5898876,18.9259259 78.4325843,18.9259259 L81.2752809,18.9259259 L81.2752809,16.462963 C81.2752809,15.037037 81.0168539,14 80.3707865,13.4814815 C79.7247191,12.962963 78.8202247,12.5740741 77.5280899,12.5740741 C76.3651685,12.5740741 75.4606742,12.962963 74.6853933,13.6111111 C73.9101124,14.2592593 73.6516854,15.1666667 73.6516854,16.2037037 L69.7752809,16.2037037 C69.7752809,15.037037 70.1629213,13.8703704 70.8089888,12.7037037 C71.5842697,11.537037 72.488764,10.7592593 73.6516854,10.1111111 C74.8146067,9.46296296 76.2359551,9.2037037 77.6573034,9.2037037 C80.1123596,9.2037037 81.9213483,9.85185185 83.2134831,11.0185185 C84.505618,12.1851852 85.1516854,14 85.1516854,16.3333333 L85.1516854,28.3888889 C85.1516854,30.2037037 85.4101124,31.7592593 85.9269663,33.1851852 L85.9269663,33.5740741 L81.9213483,33.5740741 L81.9213483,33.3148148 Z M76.752809,30.3333333 C77.6573034,30.3333333 78.5617978,30.0740741 79.4662921,29.5555556 C80.3707865,29.037037 81.0168539,28.3888889 81.4044944,27.6111111 L81.4044944,21.9074074 L79.2078652,21.9074074 C77.3988764,21.9074074 75.9775281,22.2962963 74.8146067,23.2037037 C73.7808989,23.9814815 73.2640449,25.1481481 73.2640449,26.5740741 C73.2640449,27.8703704 73.5224719,28.9074074 74.0393258,29.5555556 C74.5561798,29.9444444 75.4606742,30.3333333 76.752809,30.3333333 Z" id="Shape" fill-rule="nonzero"></path>
                            <path d="M100.52809,13.2222222 C100.011236,13.0925926 99.3651685,13.0925926 98.7191011,13.0925926 C96.7808989,13.0925926 95.3595506,14.1296296 94.5842697,16.3333333 L94.5842697,33.3148148 L90.7078652,33.3148148 L90.7078652,9.59259259 L94.4550562,9.59259259 L94.5842697,12.0555556 C95.6179775,10.1111111 97.0393258,9.2037037 98.9775281,9.2037037 C99.6235955,9.2037037 100.140449,9.33333333 100.52809,9.46296296 L100.52809,13.2222222 Z" id="Path"></path>
                            <path d="M110.477528,3.88888889 L110.477528,9.59259259 L114.095506,9.59259259 L114.095506,12.7037037 L110.477528,12.7037037 L110.477528,27.4814815 C110.477528,28.3888889 110.606742,29.1666667 110.994382,29.5555556 C111.252809,30.0740741 111.769663,30.3333333 112.544944,30.3333333 C113.061798,30.3333333 113.578652,30.2037037 114.095506,30.0740741 L114.095506,33.3148148 C113.191011,33.5740741 112.286517,33.7037037 111.382022,33.7037037 C109.831461,33.7037037 108.668539,33.1851852 107.893258,32.0185185 C107.117978,30.9814815 106.730337,29.4259259 106.730337,27.3518519 L106.730337,12.7037037 L103.11236,12.7037037 L103.11236,9.59259259 L106.730337,9.59259259 L106.730337,3.88888889 L110.477528,3.88888889 Z" id="Path"></path>
                        </g>
                        <g id="Group">
                            <ellipse id="Oval" fill="#FEBB16" cx="50.7417722" cy="51" rx="50.7417722" ry="51"></ellipse>
                            <path d="M39.6379747,63.0075949 C39.2506329,52.678481 37.8303797,49.321519 37.8303797,49.321519 L32.5367089,27.7594937 C32.5367089,27.7594937 31.1164557,22.7240506 35.764557,21.4329114 C40.4126582,20.1417722 42.2202532,25.3063291 42.2202532,25.3063291 C42.2202532,25.3063291 45.964557,39.7670886 46.7392405,42.7367089 C47.7721519,46.7392405 50.2253165,48.6759494 52.1620253,41.3164557 C53.1949367,37.1848101 56.2936709,24.9189873 56.2936709,24.9189873 C56.2936709,24.9189873 57.5848101,19.2379747 62.6202532,20.5291139 C67.3974684,21.8202532 65.5898734,27.1139241 65.5898734,27.1139241 L59.9088608,51.5164557 L66.6227848,59.3924051 C66.6227848,59.3924051 67.9139241,56.8101266 69.9797468,58.1012658 C75.1443038,61.0708861 76.3063291,61.2 71.7873418,71.5291139 C68.5594937,79.0177215 60.1670886,82.6329114 55.0025316,82.7620253 C45.835443,83.1493671 38.2177215,79.0177215 34.4734177,71.6582278 C33.0531646,68.3012658 40.0253165,70.6253165 39.6379747,63.0075949 Z" id="Path" fill="#FFFFFF"></path>
                            <path d="M53.9696203,83.7949367 C44.6734177,83.7949367 37.3139241,79.4050633 33.4405063,71.9164557 C33.0531646,71.2708861 33.0531646,70.4962025 33.1822785,69.8506329 C33.5696203,68.9468354 34.3443038,68.3012658 35.3772152,68.043038 C36.9265823,67.3974684 38.4759494,66.6227848 38.3468354,63.0075949 C37.9594937,53.0658228 36.6683544,49.7088608 36.6683544,49.7088608 L36.6683544,49.5797468 L31.3746835,28.0177215 C30.8582278,26.3392405 31.1164557,24.4025316 31.8911392,22.8531646 C32.6658228,21.4329114 33.956962,20.5291139 35.5063291,20.1417722 C36.0227848,20.0126582 36.6683544,19.8835443 37.1848101,19.8835443 C41.5746835,19.8835443 43.2531646,24.6607595 43.2531646,24.9189873 L43.2531646,25.0481013 C43.2531646,25.1772152 46.9974684,39.5088608 47.7721519,42.478481 C47.9012658,43.3822785 48.4177215,44.2860759 49.0632911,45.0607595 C49.321519,44.9316456 49.9670886,44.156962 50.8708861,41.0582278 C51.9037975,37.0556962 54.8734177,25.1772152 55.0025316,24.6607595 C55.3898734,22.7240506 57.1974684,19.1088608 61.0708861,19.1088608 C61.7164557,19.1088608 62.2329114,19.2379747 62.878481,19.3670886 C64.4278481,19.6253165 65.7189873,20.6582278 66.4936709,21.9493671 C67.2683544,23.6278481 67.3974684,25.6936709 66.8810127,27.5012658 L61.4582278,51.2582278 L66.7518987,57.4556962 C67.3974684,56.8101266 68.1721519,56.5518987 69.0759494,56.4227848 C69.721519,56.4227848 70.2379747,56.5518987 70.7544304,56.9392405 L71.4,57.3265823 C73.8531646,58.7468354 75.5316456,59.7797468 75.9189873,62.1037975 C76.1772152,64.0405063 75.5316456,66.6227848 73.078481,72.0455696 C69.8506329,79.5341772 61.4582278,83.7949367 55.1316456,84.0531646 L53.9696203,83.7949367 Z M35.764557,70.7544304 C39.121519,77.8556962 46.2227848,81.6 55.0025316,81.3417722 C59.3924051,81.2126582 67.5265823,78.1139241 70.7544304,70.8835443 C72.5620253,66.8810127 73.5949367,63.9113924 73.3367089,62.3620253 C73.3367089,61.2 72.3037975,60.6835443 70.1088608,59.3924051 L69.4632911,59.0050633 C69.3341772,58.8759494 69.2050633,58.8759494 69.0759494,58.8759494 C68.5594937,59.0050633 68.1721519,59.3924051 67.9139241,59.9088608 L67.1392405,61.4582278 L65.8481013,60.0379747 L58.7468354,51.7746835 L64.556962,26.7265823 C64.9443038,25.564557 64.9443038,24.2734177 64.4278481,23.1113924 C64.0405063,22.3367089 63.2658228,21.8202532 62.4911392,21.6911392 C62.1037975,21.5620253 61.7164557,21.5620253 61.3291139,21.5620253 C58.4886076,21.5620253 57.7139241,25.0481013 57.7139241,25.1772152 C57.7139241,25.3063291 54.6151899,37.5721519 53.5822785,41.5746835 C52.9367089,44.156962 51.7746835,47.5139241 49.4506329,47.5139241 C47.7721519,47.5139241 46.4810127,45.964557 45.7063291,42.9949367 C44.9316456,40.1544304 41.4455696,26.5974684 41.1873418,25.564557 C41.0582278,25.3063291 40.0253165,22.3367089 37.443038,22.3367089 C37.0556962,22.3367089 36.6683544,22.3367089 36.2810127,22.4658228 C34.3443038,22.9822785 33.1822785,25.0481013 33.8278481,26.9848101 C33.8278481,27.1139241 33.8278481,27.243038 33.956962,27.243038 L39.2506329,48.8050633 C39.5088608,49.4506329 40.6708861,53.1949367 41.0582278,62.878481 C41.3164557,68.1721519 38.2177215,69.5924051 36.5392405,70.3670886 C36.1518987,70.4962025 35.8936709,70.6253165 35.764557,70.7544304 Z" id="Shape" fill="#080808" fill-rule="nonzero"></path>
                            <path d="M41.9620253,62.3620253 L41.9620253,52.9367089 C41.9620253,50.4835443 39.8962025,48.4177215 37.443038,48.4177215 C34.9898734,48.4177215 32.9240506,50.4835443 32.9240506,52.9367089 L32.9240506,60.0379747 C32.9240506,60.6835443 32.9240506,61.5873418 32.9240506,62.878481 C32.9240506,66.8810127 33.956962,70.8835443 36.0227848,74.2405063 C37.8303797,76.9518987 40.4126582,79.2759494 43.3822785,80.6962025 C47.1265823,82.1164557 51,82.7620253 55.0025316,82.6329114 C57.4556962,68.4303797 48.4177215,62.3620253 41.9620253,62.3620253 Z" id="Path" fill="#FFFFFF"></path>
                            <path d="M53.8405063,83.9240506 C50.0962025,83.7949367 46.3518987,83.1493671 42.8658228,81.8582278 C39.6379747,80.3088608 36.9265823,77.9848101 34.9898734,75.0151899 C32.7949367,71.4 31.6329114,67.1392405 31.6329114,62.878481 C31.6329114,61.7164557 31.6329114,60.8126582 31.6329114,60.0379747 L31.6329114,52.9367089 C31.6329114,49.7088608 34.2151899,47.1265823 37.3139241,47.1265823 C40.5417722,47.1265823 43.1240506,49.7088608 43.1240506,52.9367089 L43.1240506,61.0708861 C46.8683544,61.4582278 50.2253165,63.3949367 52.678481,66.235443 C55.0025316,69.0759494 57.5848101,74.2405063 56.035443,82.6329114 L55.9063291,83.5367089 L55.0025316,83.6658228 C54.7443038,83.7949367 54.356962,83.9240506 53.8405063,83.9240506 Z M37.443038,49.7088608 C35.635443,49.7088608 34.2151899,51.1291139 34.2151899,52.9367089 L34.2151899,60.0379747 C34.2151899,60.6835443 34.2151899,61.5873418 34.2151899,62.7493671 C34.2151899,66.4936709 35.2481013,70.2379747 37.1848101,73.4658228 C38.8632911,76.0481013 41.1873418,77.9848101 43.8987342,79.4050633 C47.1265823,80.5670886 50.4835443,81.2126582 53.8405063,81.2126582 C54.8734177,74.3696203 52.8075949,70.2379747 50.8708861,67.7848101 C48.6759494,65.0734177 45.4481013,63.5240506 41.9620253,63.3949367 L40.6708861,63.3949367 L40.6708861,52.9367089 C40.6708861,51.1291139 39.2506329,49.7088608 37.443038,49.7088608 Z" id="Shape" fill="#080808" fill-rule="nonzero"></path>
                            <path d="M65.5898734,48.0303797 C68.043038,48.8050633 69.3341772,51.3873418 68.5594937,53.8405063 L65.5898734,62.878481 C64.9443038,65.3316456 62.3620253,66.7518987 59.9088608,66.1063291 C57.4556962,65.4607595 56.035443,62.878481 56.6810127,60.4253165 C56.6810127,60.2962025 56.8101266,60.1670886 56.8101266,60.0379747 L59.7797468,51 C60.5544304,48.5468354 63.1367089,47.2556962 65.5898734,48.0303797 Z" id="Path" fill="#FFFFFF"></path>
                            <path d="M61.2,67.2683544 C57.9721519,67.2683544 55.3898734,64.6860759 55.3898734,61.4582278 C55.3898734,60.8126582 55.5189873,60.1670886 55.6481013,59.6506329 L58.6177215,50.6126582 C59.6506329,47.5139241 62.878481,45.835443 65.9772152,46.8683544 C69.0759494,47.9012658 70.7544304,51.1291139 69.721519,54.2278481 L66.7518987,63.2658228 C65.9772152,65.7189873 63.7822785,67.2683544 61.2,67.2683544 Z M64.1696203,49.0632911 C62.7493671,49.0632911 61.4582278,49.9670886 61.0708861,51.3873418 L58.1012658,60.4253165 C57.5848101,62.2329114 58.4886076,64.0405063 60.1670886,64.6860759 C61.9746835,65.2025316 63.7822785,64.2987342 64.2987342,62.6202532 L67.2683544,53.5822785 C67.7848101,51.7746835 66.8810127,49.9670886 65.0734177,49.321519 C64.9443038,49.0632911 64.556962,49.0632911 64.1696203,49.0632911 Z" id="Shape" fill="#080808" fill-rule="nonzero"></path>
                            <path d="M72.9493671,55.0025316 C75.2734177,55.7772152 76.564557,58.3594937 75.7898734,60.8126582 L74.1113924,65.5898734 C73.5949367,68.043038 71.1417722,69.5924051 68.6886076,69.0759494 C66.235443,68.5594937 64.6860759,66.1063291 65.2025316,63.5240506 C65.3316456,63.2658228 65.3316456,63.0075949 65.4607595,62.6202532 L67.1392405,57.843038 C68.043038,55.5189873 70.6253165,54.2278481 72.9493671,55.0025316 Z" id="Path" fill="#FFFFFF"></path>
                            <path d="M69.9797468,70.1088608 C66.7518987,70.1088608 64.1696203,67.5265823 64.1696203,64.2987342 C64.1696203,63.6531646 64.2987342,63.0075949 64.4278481,62.4911392 L66.1063291,57.7139241 C67.1392405,54.6151899 70.3670886,52.9367089 73.4658228,53.9696203 C76.564557,55.0025316 78.243038,58.3594937 77.2101266,61.3291139 L75.5316456,66.1063291 C74.756962,68.4303797 72.4329114,70.1088608 69.9797468,70.1088608 Z M71.5291139,56.035443 C70.1088608,56.035443 68.8177215,56.9392405 68.4303797,58.3594937 L66.7518987,63.1367089 C66.235443,64.9443038 67.1392405,66.7518987 68.8177215,67.3974684 C70.6253165,67.9139241 72.4329114,67.0101266 72.9493671,65.2025316 L74.6278481,60.4253165 C75.1443038,58.6177215 74.2405063,56.8101266 72.4329114,56.164557 C72.1746835,56.164557 71.9164557,56.035443 71.5291139,56.035443 Z" id="Shape" fill="#080808" fill-rule="nonzero"></path>
                        </g>
                        <g id="Group" transform="translate(119.000000, 69.000000)" fill="#000000">
                            <path d="M9.59550562,6.45714286 C9.59550562,8.38571429 9.07865169,9.92857143 8.04494382,10.9571429 C7.01123596,11.9857143 5.46067416,12.5 3.39325843,12.5 L0.0337078652,12.5 L0.0337078652,0.414285714 L3.65168539,0.414285714 C5.46067416,0.414285714 7.01123596,0.928571429 8.04494382,1.95714286 C9.07865169,3.24285714 9.59550562,4.65714286 9.59550562,6.45714286 Z M8.1741573,6.58571429 C8.1741573,5.04285714 7.78651685,3.88571429 7.01123596,3.11428571 C6.23595506,2.34285714 5.07303371,1.95714286 3.52247191,1.95714286 L1.45505618,1.95714286 L1.45505618,11.6 L3.13483146,11.6 C4.81460674,11.6 6.10674157,11.2142857 6.88202247,10.4428571 C7.65730337,9.41428571 8.1741573,8.12857143 8.1741573,6.58571429 Z" id="Shape" fill-rule="nonzero"></path>
                            <path d="M15.9269663,12.7571429 C14.6348315,12.7571429 13.6011236,12.3714286 12.8258427,11.6 C12.0505618,10.8285714 11.6629213,9.67142857 11.6629213,8.25714286 C11.6629213,6.84285714 12.0505618,5.68571429 12.6966292,4.78571429 C13.4719101,3.88571429 14.3764045,3.5 15.5393258,3.5 C16.7022472,3.5 17.6067416,3.88571429 18.252809,4.65714286 C18.8988764,5.42857143 19.2865169,6.32857143 19.2865169,7.61428571 L19.2865169,8.51428571 L12.9550562,8.51428571 C12.9550562,9.54285714 13.2134831,10.3142857 13.7303371,10.9571429 C14.247191,11.4714286 14.8932584,11.7285714 15.9269663,11.7285714 C16.9606742,11.7285714 17.8651685,11.4714286 18.7696629,11.0857143 L18.7696629,12.2428571 C18.252809,12.5 17.8651685,12.6285714 17.3483146,12.6285714 C17.0898876,12.7571429 16.4438202,12.7571429 15.9269663,12.7571429 Z M15.5393258,4.65714286 C14.7640449,4.65714286 14.247191,4.91428571 13.8595506,5.3 C13.4719101,5.81428571 13.2134831,6.45714286 13.0842697,7.22857143 L17.7359551,7.22857143 C17.7359551,6.32857143 17.6067416,5.68571429 17.2191011,5.3 C16.8314607,4.91428571 16.1853933,4.65714286 15.5393258,4.65714286 Z" id="Shape" fill-rule="nonzero"></path>
                            <path d="M27.4269663,10.1857143 C27.4269663,10.9571429 27.1685393,11.6 26.5224719,12.1142857 C25.8764045,12.6285714 24.9719101,12.7571429 23.9382022,12.7571429 C22.7752809,12.7571429 21.8707865,12.6285714 21.0955056,12.2428571 L21.0955056,10.9571429 C21.4831461,11.2142857 22,11.3428571 22.5168539,11.4714286 C23.0337079,11.6 23.5505618,11.6 23.9382022,11.6 C24.7134831,11.6 25.2303371,11.4714286 25.6179775,11.2142857 C26.005618,10.9571429 26.1348315,10.7 26.1348315,10.1857143 C26.1348315,9.8 26.005618,9.54285714 25.6179775,9.28571429 C25.3595506,9.02857143 24.7134831,8.77142857 23.8089888,8.38571429 C23.0337079,8.12857143 22.3876404,7.74285714 22,7.61428571 C21.6123596,7.35714286 21.3539326,7.1 21.2247191,6.84285714 C21.0955056,6.58571429 20.9662921,6.2 20.9662921,5.81428571 C20.9662921,5.04285714 21.2247191,4.52857143 21.8707865,4.14285714 C22.5168539,3.75714286 23.2921348,3.5 24.3258427,3.5 C25.2303371,3.5 26.2640449,3.75714286 27.1685393,4.14285714 L26.6516854,5.3 C25.747191,4.91428571 24.9719101,4.78571429 24.1966292,4.78571429 C23.5505618,4.78571429 23.0337079,4.91428571 22.7752809,5.04285714 C22.5168539,5.17142857 22.258427,5.55714286 22.258427,5.81428571 C22.258427,6.07142857 22.258427,6.2 22.3876404,6.45714286 C22.5168539,6.58571429 22.6460674,6.84285714 23.0337079,6.97142857 C23.2921348,7.1 23.8089888,7.35714286 24.5842697,7.61428571 C25.6179775,8 26.3932584,8.38571429 26.7808989,8.77142857 C27.1685393,9.15714286 27.4269663,9.54285714 27.4269663,10.1857143 Z" id="Path"></path>
                            <path d="M29.6235955,1.05714286 C29.6235955,0.8 29.752809,0.542857143 29.8820225,0.414285714 C30.011236,0.285714286 30.2696629,0.157142857 30.3988764,0.157142857 C30.6573034,0.157142857 30.7865169,0.285714286 30.9157303,0.414285714 C31.0449438,0.542857143 31.1741573,0.8 31.1741573,1.05714286 C31.1741573,1.31428571 31.0449438,1.57142857 30.9157303,1.7 C30.7865169,1.82857143 30.5280899,1.95714286 30.3988764,1.95714286 C30.1404494,1.95714286 30.011236,1.82857143 29.8820225,1.7 C29.752809,1.57142857 29.6235955,1.44285714 29.6235955,1.05714286 Z M31.1741573,12.6285714 L29.752809,12.6285714 L29.752809,3.5 L31.1741573,3.5 L31.1741573,12.6285714 Z" id="Shape" fill-rule="nonzero"></path>
                            <path d="M41.511236,3.62857143 L41.511236,4.52857143 L39.8314607,4.78571429 C39.9606742,4.91428571 40.0898876,5.17142857 40.2191011,5.55714286 C40.3483146,5.94285714 40.3483146,6.2 40.3483146,6.58571429 C40.3483146,7.48571429 40.0898876,8.12857143 39.4438202,8.64285714 C38.7977528,9.15714286 38.0224719,9.41428571 36.988764,9.41428571 C36.7303371,9.41428571 36.4719101,9.41428571 36.2134831,9.28571429 C35.6966292,9.54285714 35.3089888,9.92857143 35.3089888,10.4428571 C35.3089888,10.7 35.4382022,10.8285714 35.5674157,10.9571429 C35.8258427,11.0857143 36.0842697,11.0857143 36.6011236,11.0857143 L38.1516854,11.0857143 C39.1853933,11.0857143 39.8314607,11.3428571 40.3483146,11.7285714 C40.8651685,12.1142857 41.1235955,12.7571429 41.1235955,13.5285714 C41.1235955,14.5571429 40.7359551,15.3285714 39.9606742,15.8428571 C39.1853933,16.3571429 38.0224719,16.6142857 36.4719101,16.6142857 C35.3089888,16.6142857 34.4044944,16.3571429 33.758427,15.9714286 C33.1123596,15.5857143 32.8539326,14.9428571 32.8539326,14.1714286 C32.8539326,13.6571429 32.9831461,13.1428571 33.3707865,12.7571429 C33.758427,12.3714286 34.2752809,12.1142857 34.7921348,11.9857143 C34.5337079,11.8571429 34.4044944,11.7285714 34.2752809,11.4714286 C34.1460674,11.2142857 34.0168539,10.9571429 34.0168539,10.7 C34.0168539,10.3142857 34.1460674,10.0571429 34.2752809,9.8 C34.4044944,9.54285714 34.6629213,9.28571429 35.0505618,9.02857143 C34.5337079,8.9 34.1460674,8.51428571 33.8876404,8 C33.6292135,7.48571429 33.5,6.97142857 33.5,6.45714286 C33.5,5.42857143 33.758427,4.78571429 34.4044944,4.14285714 C35.0505618,3.62857143 35.8258427,3.37142857 36.8595506,3.37142857 C37.3764045,3.37142857 37.7640449,3.37142857 38.1516854,3.5 L41.511236,3.5 L41.511236,3.62857143 Z M34.1460674,14.1714286 C34.1460674,14.6857143 34.4044944,15.0714286 34.7921348,15.3285714 C35.1797753,15.5857143 35.8258427,15.7142857 36.6011236,15.7142857 C37.7640449,15.7142857 38.5393258,15.5857143 39.1853933,15.2 C39.7022472,14.8142857 39.9606742,14.4285714 39.9606742,13.7857143 C39.9606742,13.2714286 39.8314607,13.0142857 39.5730337,12.7571429 C39.3146067,12.6285714 38.6685393,12.5 37.8932584,12.5 L36.2134831,12.5 C35.5674157,12.5 35.0505618,12.6285714 34.7921348,12.8857143 C34.5337079,13.0142857 34.1460674,13.5285714 34.1460674,14.1714286 Z M34.9213483,6.45714286 C34.9213483,7.1 35.0505618,7.61428571 35.4382022,7.87142857 C35.8258427,8.12857143 36.3426966,8.38571429 36.8595506,8.38571429 C38.1516854,8.38571429 38.7977528,7.74285714 38.7977528,6.45714286 C38.7977528,5.17142857 38.1516854,4.4 36.7303371,4.4 C36.0842697,4.4 35.5674157,4.52857143 35.3089888,4.91428571 C35.0505618,5.3 34.9213483,5.81428571 34.9213483,6.45714286 Z" id="Shape" fill-rule="nonzero"></path>
                            <path d="M49.5224719,12.6285714 L49.5224719,6.71428571 C49.5224719,5.94285714 49.3932584,5.42857143 49.005618,5.04285714 C48.6179775,4.65714286 48.1011236,4.52857143 47.4550562,4.52857143 C46.5505618,4.52857143 45.7752809,4.78571429 45.3876404,5.3 C45,5.81428571 44.741573,6.58571429 44.741573,7.74285714 L44.741573,12.5 L43.3202247,12.5 L43.3202247,3.37142857 L44.4831461,3.37142857 L44.741573,4.65714286 L44.8707865,4.65714286 C45.1292135,4.27142857 45.5168539,3.88571429 46.0337079,3.62857143 C46.5505618,3.37142857 47.0674157,3.24285714 47.7134831,3.24285714 C48.747191,3.24285714 49.6516854,3.5 50.1685393,4.01428571 C50.6853933,4.52857143 50.9438202,5.3 50.9438202,6.45714286 L50.9438202,12.3714286 L49.5224719,12.3714286 L49.5224719,12.6285714 Z" id="Path"></path>
                            <path d="M58.3089888,0.542857143 L61.6685393,0.542857143 C63.2191011,0.542857143 64.3820225,0.8 65.1573034,1.31428571 C65.8033708,1.82857143 66.1910112,2.6 66.1910112,3.5 C66.1910112,4.14285714 65.9325843,4.78571429 65.5449438,5.3 C65.1573034,5.81428571 64.511236,6.07142857 63.8651685,6.2 L63.8651685,6.32857143 C65.6741573,6.58571429 66.5786517,7.61428571 66.5786517,9.15714286 C66.5786517,10.1857143 66.1910112,11.0857143 65.5449438,11.6 C64.8988764,12.1142857 63.8651685,12.5 62.4438202,12.5 L58.3089888,12.5 L58.3089888,0.542857143 Z M59.7303371,5.81428571 L62.0561798,5.81428571 C63.0898876,5.81428571 63.7359551,5.68571429 64.1235955,5.3 C64.511236,4.91428571 64.7696629,4.52857143 64.7696629,3.75714286 C64.7696629,3.11428571 64.511236,2.6 63.994382,2.34285714 C63.4775281,2.08571429 62.7022472,1.95714286 61.6685393,1.95714286 L59.7303371,1.95714286 L59.7303371,5.81428571 Z M59.7303371,6.97142857 L59.7303371,11.4714286 L62.1853933,11.4714286 C63.0898876,11.4714286 63.8651685,11.3428571 64.3820225,10.9571429 C64.8988764,10.5714286 65.1573034,10.0571429 65.1573034,9.15714286 C65.1573034,8.38571429 64.8988764,7.87142857 64.3820225,7.48571429 C63.8651685,7.1 63.0898876,6.97142857 62.0561798,6.97142857 C62.0561798,6.97142857 59.7303371,6.97142857 59.7303371,6.97142857 Z" id="Shape" fill-rule="nonzero"></path>
                            <path d="M70.4550562,3.62857143 L70.4550562,9.54285714 C70.4550562,10.3142857 70.5842697,10.8285714 70.9719101,11.2142857 C71.3595506,11.6 71.8764045,11.7285714 72.5224719,11.7285714 C73.4269663,11.7285714 74.2022472,11.4714286 74.5898876,10.9571429 C74.9775281,10.4428571 75.2359551,9.67142857 75.2359551,8.51428571 L75.2359551,3.75714286 L76.6573034,3.75714286 L76.6573034,12.8857143 L75.494382,12.8857143 L75.2359551,11.7285714 C74.9775281,12.1142857 74.5898876,12.5 74.0730337,12.7571429 C73.5561798,13.0142857 73.0393258,13.1428571 72.3932584,13.1428571 C71.3595506,13.1428571 70.4550562,12.8857143 69.9382022,12.3714286 C69.4213483,11.8571429 69.1629213,11.0857143 69.1629213,9.92857143 L69.1629213,3.88571429 L70.5842697,3.88571429 L70.5842697,3.62857143 L70.4550562,3.62857143 Z" id="Path"></path>
                            <path d="M83.7640449,3.5 C84.1516854,3.5 84.5393258,3.5 84.7977528,3.62857143 L84.6685393,4.91428571 C84.2808989,4.78571429 84.0224719,4.78571429 83.6348315,4.78571429 C82.8595506,4.78571429 82.3426966,5.04285714 81.8258427,5.68571429 C81.3089888,6.32857143 81.0505618,6.97142857 81.0505618,7.87142857 L81.0505618,12.6285714 L79.6292135,12.6285714 L79.6292135,3.5 L80.7921348,3.5 L80.9213483,5.17142857 L81.0505618,5.17142857 C81.4382022,4.52857143 81.8258427,4.14285714 82.2134831,3.88571429 C82.6011236,3.62857143 83.1179775,3.5 83.7640449,3.5 Z" id="Path"></path>
                            <path d="M90.3539326,12.7571429 C89.0617978,12.7571429 88.0280899,12.3714286 87.252809,11.6 C86.4775281,10.8285714 86.0898876,9.67142857 86.0898876,8.25714286 C86.0898876,6.84285714 86.4775281,5.68571429 87.1235955,4.78571429 C87.8988764,3.88571429 88.8033708,3.5 89.9662921,3.5 C91.1292135,3.5 92.0337079,3.88571429 92.6797753,4.65714286 C93.3258427,5.42857143 93.7134831,6.32857143 93.7134831,7.61428571 L93.7134831,8.51428571 L87.3820225,8.51428571 C87.3820225,9.54285714 87.6404494,10.3142857 88.1573034,10.9571429 C88.6741573,11.4714286 89.3202247,11.7285714 90.3539326,11.7285714 C91.3876404,11.7285714 92.2921348,11.4714286 93.1966292,11.0857143 L93.1966292,12.2428571 C92.6797753,12.5 92.2921348,12.6285714 91.7752809,12.6285714 C91.5168539,12.7571429 91,12.7571429 90.3539326,12.7571429 Z M89.9662921,4.65714286 C89.1910112,4.65714286 88.6741573,4.91428571 88.2865169,5.3 C87.8988764,5.81428571 87.6404494,6.45714286 87.511236,7.22857143 L92.1629213,7.22857143 C92.1629213,6.32857143 92.0337079,5.68571429 91.6460674,5.3 C91.258427,4.91428571 90.741573,4.65714286 89.9662921,4.65714286 Z" id="Shape" fill-rule="nonzero"></path>
                            <path d="M101.724719,12.6285714 L101.466292,11.3428571 L101.337079,11.3428571 C100.949438,11.8571429 100.432584,12.2428571 100.044944,12.5 C99.6573034,12.7571429 99.011236,12.7571429 98.3651685,12.7571429 C97.4606742,12.7571429 96.8146067,12.5 96.2977528,12.1142857 C95.7808989,11.7285714 95.5224719,10.9571429 95.5224719,10.1857143 C95.5224719,8.38571429 96.9438202,7.48571429 99.9157303,7.35714286 L101.466292,7.35714286 L101.466292,6.71428571 C101.466292,6.07142857 101.337079,5.55714286 100.949438,5.17142857 C100.691011,4.78571429 100.174157,4.65714286 99.5280899,4.65714286 C98.752809,4.65714286 97.9775281,4.91428571 96.9438202,5.3 L96.5561798,4.27142857 C96.9438202,4.01428571 97.4606742,3.88571429 97.9775281,3.75714286 C98.494382,3.62857143 99.011236,3.5 99.5280899,3.5 C100.561798,3.5 101.337079,3.75714286 101.853933,4.27142857 C102.370787,4.78571429 102.629213,5.55714286 102.629213,6.58571429 L102.629213,12.7571429 C102.629213,12.6285714 101.724719,12.6285714 101.724719,12.6285714 Z M98.6235955,11.6 C99.5280899,11.6 100.174157,11.3428571 100.561798,10.9571429 C101.078652,10.4428571 101.337079,9.8 101.337079,9.02857143 L101.337079,8.25714286 L99.9157303,8.25714286 C98.8820225,8.25714286 98.1067416,8.51428571 97.5898876,8.77142857 C97.0730337,9.02857143 96.8146067,9.54285714 96.8146067,10.1857143 C96.8146067,10.7 96.9438202,11.0857143 97.2022472,11.3428571 C97.4606742,11.6 98.1067416,11.6 98.6235955,11.6 Z" id="Shape" fill-rule="nonzero"></path>
                            <path d="M106.764045,3.62857143 L106.764045,9.54285714 C106.764045,10.3142857 106.893258,10.8285714 107.280899,11.2142857 C107.668539,11.6 108.185393,11.7285714 108.831461,11.7285714 C109.735955,11.7285714 110.511236,11.4714286 110.898876,10.9571429 C111.286517,10.4428571 111.544944,9.67142857 111.544944,8.51428571 L111.544944,3.75714286 L112.966292,3.75714286 L112.966292,12.8857143 L111.803371,12.8857143 L111.544944,11.7285714 L111.41573,11.7285714 C111.157303,12.1142857 110.769663,12.5 110.252809,12.7571429 C109.735955,13.0142857 109.219101,13.1428571 108.573034,13.1428571 C107.539326,13.1428571 106.634831,12.8857143 106.117978,12.3714286 C105.601124,11.8571429 105.342697,11.0857143 105.342697,9.92857143 L105.342697,3.88571429 L106.764045,3.88571429 L106.764045,3.62857143 Z" id="Path"></path>
                        </g>
                    </g>
                </g>
            </g>
        </g>
    </g>
</svg>