<svg xmlns="http://www.w3.org/2000/svg" width="91" height="91" viewBox="0 0 91 91">
    <g fill="none" fill-rule="evenodd" transform="rotate(1 45.5 45.5)">
        <ellipse cx="45.095" cy="45.5" fill="#FEBB16" rx="45.095" ry="45.5"/>
        <path fill="#FFF" d="M35.227 56.213c-.344-9.216-1.607-12.21-1.607-12.21l-4.704-19.237s-1.262-4.493 2.868-5.644c4.131-1.152 5.738 3.455 5.738 3.455s3.327 12.901 4.016 15.55c.918 3.572 3.098 5.3 4.819-1.266.918-3.686 3.672-14.63 3.672-14.63s1.147-5.068 5.622-3.916c4.246 1.152 2.64 5.875 2.64 5.875l-5.05 21.77 5.967 7.027s1.148-2.303 2.984-1.152c4.59 2.65 5.622 2.765 1.606 11.98-2.868 6.681-10.327 9.907-14.917 10.022-8.146.345-14.916-3.34-18.244-9.907-1.262-2.995 4.934-.921 4.59-7.717z"/>
        <path fill="#080808" fill-rule="nonzero" d="M47.963 74.758c-8.261 0-14.802-3.916-18.244-10.597-.344-.576-.344-1.267-.23-1.843.345-.807 1.033-1.383 1.951-1.613 1.377-.576 2.754-1.267 2.64-4.492-.345-8.87-1.492-11.865-1.492-11.865v-.115l-4.705-19.237c-.459-1.497-.23-3.225.459-4.607.689-1.267 1.836-2.074 3.213-2.42.459-.115 1.033-.23 1.492-.23 3.9 0 5.393 4.262 5.393 4.493v.115c0 .115 3.327 12.901 4.016 15.55.114.807.573 1.613 1.147 2.304.23-.115.803-.806 1.607-3.57.918-3.572 3.557-14.169 3.671-14.63.345-1.728 1.951-4.953 5.393-4.953.574 0 1.033.115 1.607.23 1.377.23 2.524 1.152 3.213 2.304.688 1.498.803 3.34.344 4.953l-4.82 21.195 4.705 5.53c.574-.576 1.262-.807 2.066-.922.573 0 1.032.115 1.491.46l.574.346c2.18 1.267 3.672 2.189 4.016 4.262.23 1.728-.344 4.032-2.524 8.87-2.869 6.681-10.327 10.482-15.95 10.713l-1.033-.23zM31.784 63.124c2.984 6.335 9.295 9.676 17.097 9.446 3.902-.116 11.13-2.88 14-9.33 1.606-3.572 2.524-6.221 2.294-7.603 0-1.037-.918-1.498-2.868-2.65l-.574-.345c-.115-.115-.23-.115-.344-.115-.46.115-.804.46-1.033.921l-.689 1.382-1.147-1.267-6.311-7.372 5.164-22.347c.344-1.036.344-2.188-.115-3.225a2.404 2.404 0 0 0-1.721-1.267c-.345-.115-.689-.115-1.033-.115-2.524 0-3.213 3.11-3.213 3.225 0 .115-2.754 11.058-3.672 14.63-.573 2.303-1.606 5.298-3.672 5.298-1.491 0-2.639-1.382-3.327-4.032-.689-2.534-3.787-14.629-4.016-15.55-.115-.23-1.033-2.88-3.328-2.88-.344 0-.688 0-1.033.115-1.72.46-2.754 2.304-2.18 4.032 0 .115 0 .23.115.23l4.705 19.237c.229.576 1.262 3.916 1.606 12.555.23 4.723-2.524 5.99-4.016 6.681-.344.116-.574.23-.689.346z"/>
        <path fill="#FFF" d="M37.292 55.637v-8.41c0-2.188-1.836-4.03-4.016-4.03-2.18 0-4.016 1.842-4.016 4.03V56.098c0 3.571.918 7.142 2.754 10.137 1.606 2.42 3.901 4.493 6.54 5.76a26.344 26.344 0 0 0 10.327 1.728c2.18-12.671-5.852-18.085-11.589-18.085z"/>
        <path fill="#080808" fill-rule="nonzero" d="M47.849 74.873c-3.328-.115-6.656-.69-9.754-1.843-2.868-1.382-5.278-3.455-7-6.105-1.95-3.225-2.982-7.026-2.982-10.828v-8.869c0-2.88 2.294-5.184 5.048-5.184a5.152 5.152 0 0 1 5.164 5.184v7.257c3.327.345 6.31 2.073 8.491 4.607 2.065 2.535 4.36 7.142 2.983 14.63l-.114.806-.804.115c-.23.115-.573.23-1.032.23zM33.276 44.348c-1.606 0-2.869 1.267-2.869 2.88V55.983c0 3.34.918 6.68 2.64 9.56 1.491 2.304 3.557 4.032 5.966 5.299 2.869 1.036 5.852 1.612 8.836 1.612.918-6.105-.918-9.79-2.64-11.98-1.95-2.418-4.819-3.8-7.917-3.916h-1.147v-9.33c0-1.613-1.262-2.88-2.869-2.88z"/>
        <path fill="#FFF" d="M58.29 42.85c2.18.692 3.328 2.996 2.64 5.184l-2.64 8.063c-.573 2.19-2.868 3.456-5.048 2.88-2.18-.576-3.443-2.88-2.869-5.068 0-.115.115-.23.115-.346l2.639-8.063c.688-2.189 2.983-3.34 5.164-2.65z"/>
        <path fill="#080808" fill-rule="nonzero" d="M54.39 60.014a5.152 5.152 0 0 1-5.164-5.184c0-.576.114-1.152.23-1.612l2.638-8.064c.918-2.764 3.787-4.262 6.54-3.34 2.755.921 4.246 3.801 3.328 6.566l-2.639 8.063c-.688 2.189-2.639 3.57-4.934 3.57zm2.638-16.242c-1.262 0-2.41.806-2.754 2.074l-2.639 8.063c-.459 1.613.345 3.225 1.836 3.801 1.607.46 3.213-.345 3.672-1.843l2.64-8.063c.458-1.613-.345-3.226-1.951-3.801-.115-.23-.46-.23-.804-.23z"/>
        <path fill="#FFF" d="M64.831 49.07c2.065.692 3.213 2.996 2.524 5.184l-1.491 4.262c-.46 2.19-2.64 3.571-4.82 3.11-2.18-.46-3.557-2.649-3.098-4.953.115-.23.115-.46.23-.806l1.491-4.262c.804-2.073 3.099-3.225 5.164-2.534z"/>
        <path fill="#080808" fill-rule="nonzero" d="M62.192 66.078c-2.869 0-5.164-2.859-5.164-6.431 0-.715.115-1.43.23-2l1.492-5.288c.917-3.43 3.786-5.287 6.54-4.144 2.754 1.143 4.246 4.858 3.328 8.145l-1.492 5.288c-.689 2.572-2.754 4.43-4.934 4.43zM63.569 50.5c-1.262 0-2.41 1-2.754 2.572l-1.492 5.288c-.459 2 .344 4.001 1.836 4.716 1.607.571 3.213-.43 3.672-2.43l1.492-5.287c.459-2-.345-4.001-1.951-4.716-.23 0-.459-.143-.803-.143z"/>
    </g>
</svg>
