<?xml version="1.0" encoding="UTF-8"?>
<svg width="16px" height="22px" viewBox="0 0 16 22" version="1.1" xmlns="http://www.w3.org/2000/svg" xmlns:xlink="http://www.w3.org/1999/xlink">
    <!-- Generator: sketchtool 52.3 (67297) - http://www.bohemiancoding.com/sketch -->
    <title>75854F5D-0676-4822-8569-CF8FCEED8C4D</title>
    <desc>Created with sketchtool.</desc>
    <g id="Page-1" stroke="none" stroke-width="1" fill="none" fill-rule="evenodd">
        <g id="Main-Page" transform="translate(-184.000000, -3482.000000)" fill="#A3A3A3" fill-rule="nonzero">
            <g id="Footer-1920" transform="translate(0.000000, 3392.000000)">
                <g id="Footer">
                    <g id="Adress" transform="translate(160.000000, 36.000000)">
                        <path d="M33.5607545,74.2273239 C34.4478818,73.0049313 35.3350412,71.7188711 36.1636837,70.4284908 C36.6971557,69.5977577 37.1892222,68.791277 37.6313231,68.0175909 C39.145936,65.3669904 40,63.2482959 40,61.7916667 C40,57.4884484 36.4182782,54 32,54 C27.5817218,54 24,57.4884484 24,61.7916667 C24,63.2482959 24.854064,65.3669904 26.3686769,68.0175909 C26.8107778,68.791277 27.3028443,69.5977577 27.8363163,70.4284908 C28.6649588,71.7188711 29.5521182,73.0049313 30.4392455,74.2273239 C30.7497514,74.6551763 31.0381575,75.0446218 31.2971298,75.3881959 C31.4528874,75.5948381 31.5644985,75.7406226 31.6246178,75.8180742 C31.8129071,76.0606419 32.1870929,76.0606419 32.3753822,75.8180742 C32.4355015,75.7406226 32.5471126,75.5948381 32.7028702,75.3881959 C32.9618425,75.0446218 33.2502486,74.6551763 33.5607545,74.2273239 Z M31.2403126,73.209749 C30.3987385,72.050126 29.5571926,70.8301884 28.7723532,69.6080199 C28.2685243,68.8234458 27.8044012,68.0627621 27.3883582,67.33468 C26.0081255,64.9192464 25.2307692,62.9908442 25.2307692,61.7916667 C25.2307692,58.1504813 28.2614572,55.198718 32,55.198718 C35.7385428,55.198718 38.7692308,58.1504813 38.7692308,61.7916667 C38.7692308,62.9908442 37.9918745,64.9192464 36.6116418,67.33468 C36.1955988,68.0627621 35.7314757,68.8234458 35.2276468,69.6080199 C34.4428074,70.8301884 33.6012615,72.050126 32.7596874,73.209749 C32.4651458,73.6156013 32,74.2297945 32,74.2297945 C32,74.2297945 31.5348542,73.6156013 31.2403126,73.209749 Z M32,64.7884616 C30.3006622,64.7884616 28.9230769,63.4467511 28.9230769,61.7916667 C28.9230769,60.1365823 30.3006622,58.7948718 32,58.7948718 C33.6993378,58.7948718 35.0769231,60.1365823 35.0769231,61.7916667 C35.0769231,63.4467511 33.6993378,64.7884616 32,64.7884616 Z M32,63.5897437 C33.0196025,63.5897437 33.8461538,62.7847173 33.8461538,61.7916667 C33.8461538,60.7986162 33.0196025,59.9935898 32,59.9935898 C30.9803975,59.9935898 30.1538462,60.7986162 30.1538462,61.7916667 C30.1538462,62.7847173 30.9803975,63.5897437 32,63.5897437 Z" id="map"></path>
                    </g>
                </g>
            </g>
        </g>
    </g>
</svg>