<?xml version="1.0" encoding="UTF-8"?>
<svg width="220px" height="52px" viewBox="0 0 220 52" version="1.1" xmlns="http://www.w3.org/2000/svg" xmlns:xlink="http://www.w3.org/1999/xlink">
    <!-- Generator: sketchtool 52.3 (67297) - http://www.bohemiancoding.com/sketch -->
    <title>828E58DB-3D15-4F22-9F9A-8D37ACA42246</title>
    <desc>Created with sketchtool.</desc>
    <g id="Page-1" stroke="none" stroke-width="1" fill="none" fill-rule="evenodd">
        <g id="Main-Page" transform="translate(-1532.000000, -3139.000000)">
            <g id="Logos" transform="translate(100.000000, 2986.000000)">
                <g id="Smartym-logo" transform="translate(1432.000000, 153.000000)">
                    <path d="M58,12.4702694 C51.2221092,10.675904 44.2266361,9.85144622 37.2196162,10.0219236 C27.7297031,10.3592513 19.336723,13.1122801 18.0954568,17.7478148 C17.629982,19.4707248 19.2248647,21.1210912 21.6352304,22.637252 C28.151878,26.8375253 41.1923897,31.0160354 41.0624897,37.8714037 C40.9542398,43.3121721 29.2271609,48.905282 14,48.1290657 C26.2235854,55.6823032 42.2240118,51.8440224 49.7380023,39.556591 C54.3577497,32.00154 54.848122,22.6060583 51.0395276,14.6066778 C52.1653272,13.7434092 56.4123339,12.6697643 58,12.4702694" id="Fill-1" fill="#5176B9"></path>
                    <path d="M7.50834354,41.6420613 C5.5691978,42.7422188 1.71249235,43.7922063 0,44.3154082 C6.78880894,45.1145455 28.637477,46.8239107 28.8353491,38.0298177 C28.9324862,33.7044427 25.4787201,31.2210253 21.3342009,28.7125228 C15.6462799,24.9712705 9.28199633,22.0255719 9.94396816,16.4638635 C11.1132119,6.6305338 32.4294244,4.38721586 47,8.30047974 C37.2963564,-2.17000963 20.9082364,-2.82257863 10.3965554,6.84303979 C0.511948867,15.932061 -0.742919473,31.0447134 7.50834354,41.627727" id="Fill-3" fill="#5176B9"></path>
                    <path d="M71,34.8752716 L73.0532234,32.4337689 C73.9176628,33.2110047 74.8964498,33.8495515 75.9550645,34.3262947 C76.9672928,34.7553635 78.0568317,34.9702591 79.1553601,34.9583405 C80.0442512,35.0081818 80.9255911,34.7730608 81.6724466,34.2865661 C82.2643215,33.8744722 82.6080836,33.1893345 82.5857894,32.4662741 C82.6019706,32.0361218 82.4836676,31.6117482 82.2477806,31.2527461 C81.9011418,30.8420969 81.4570559,30.5253517 80.9568748,30.3317651 C80.0751754,29.9590386 79.1600347,29.6711869 78.2240381,29.4721828 C77.283367,29.2630659 76.3581579,28.9892998 75.455243,28.6523291 C74.7500992,28.3828969 74.0848692,28.0184774 73.4775322,27.5688219 C72.9090303,27.1538387 72.4609889,26.5940267 72.1794348,25.9471729 C71.8870932,25.216528 71.7461363,24.4338747 71.7659134,23.6465261 C71.7227634,22.0743573 72.4081301,20.5708106 73.6213657,19.5761511 C74.8583339,18.5262327 76.4451772,18.001454 78.382255,18.001454 C80.9363786,17.9595584 83.42326,18.8241971 85.4049262,20.4429568 L83.5854323,23.0217037 C81.794705,21.6828501 80.043532,21.0136038 78.3319133,21.0136038 C77.5135006,20.9709859 76.7047967,21.2050234 76.0341729,21.6781549 C75.4926397,22.0696621 75.1744081,22.7017079 75.1819594,23.3720377 C75.1636206,23.8285553 75.2991837,24.2778496 75.566714,24.6469644 C75.9367257,25.0608641 76.4020271,25.3772482 76.9223448,25.5679454 C77.8468347,25.9338097 78.7990126,26.2238284 79.7702484,26.4347511 C81.927751,26.9595298 83.502728,27.6529743 84.4951792,28.5150848 C85.4876305,29.3771953 85.9874519,30.5954185 85.9946436,32.1701155 C86.069437,33.818491 85.3574611,35.4040231 84.078062,36.4391336 C82.8026184,37.4793004 81.135588,37.9993838 79.0762517,37.9993838 C76.085953,38.0300832 73.1970569,36.9126262 71,34.8752716" id="Fill-5" fill="#22272B"></path>
                    <polygon id="Fill-7" fill="#22272B" points="91 36.9964723 91 18 94.6269136 18 100.505387 26.9814333 106.373086 18 110 18 110 36.9964723 106.602911 36.9964723 106.602911 23.3796881 100.498204 32.3364278 100.390474 32.3364278 94.3432243 23.432603 94.3432243 37"></polygon>
                    <path d="M121.66073,30.1187535 L128.268032,30.1187535 L124.951915,22.171123 L121.66073,30.1187535 Z M115,38 L123.441674,18 L126.572573,18 L135,38 L131.438112,38 L129.496883,33.2056058 L120.431879,33.2056058 L118.451469,38 L115,38 Z" id="Fill-9" fill="#22272B"></path>
                    <path d="M143.313485,27.4206128 L148.168126,27.4206128 C149.183187,27.4738904 150.184588,27.164104 150.994746,26.5455896 C151.69282,25.969415 152.081611,25.0968617 152.045534,24.1886722 C152.095271,23.2924791 151.713135,22.4269824 151.019264,21.8635097 C150.335201,21.3201486 149.375482,21.048468 148.140105,21.048468 L143.313485,21.048468 L143.313485,27.4206128 Z M140,37 L140,18 L148.406305,18 C150.594396,18 152.311734,18.547948 153.558669,19.6441968 C154.805604,20.7404457 155.429072,22.2117549 155.429072,24.0581244 C155.482662,25.3995915 155.050438,26.7145961 154.21366,27.7593315 C153.342907,28.7634912 152.189842,29.4772702 150.90718,29.8057567 L156,37 L152.112084,37 L147.418564,30.3738162 L143.313485,30.3738162 L143.313485,37 L140,37 Z" id="Fill-11" fill="#22272B"></path>
                    <polygon id="Fill-13" fill="#22272B" points="159 21.1008169 159 18 175 18 175 21.1008169 168.735314 21.1008169 168.735314 37 165.275657 37 165.275657 21.1008169"></polygon>
                    <polygon id="Fill-15" fill="#22272B" points="178 18 182.057652 18 187.516376 26.4150418 193.051523 18 197 18 189.219498 29.4352832 189.219498 37 185.776863 37 185.776863 29.5129062"></polygon>
                    <polygon id="Fill-17" fill="#22272B" points="201 36.9964723 201 18 204.620755 18 210.489245 26.9814333 216.357736 18 220 18 220 36.9964723 216.608679 36.9964723 216.608679 23.3796881 210.51434 32.3364278 210.406792 32.3364278 204.351887 23.432603 204.351887 37"></polygon>
                </g>
            </g>
        </g>
    </g>
</svg>