<?xml version="1.0" encoding="utf-8"?>
<!-- Generator: Adobe Illustrator 19.2.0, SVG Export Plug-In . SVG Version: 6.00 Build 0)  -->
<svg version="1.1" id="Layer_1" xmlns="http://www.w3.org/2000/svg" xmlns:xlink="http://www.w3.org/1999/xlink" x="0px" y="0px"
	 viewBox="0 0 170 170" style="enable-background:new 0 0 170 170;" xml:space="preserve">
<style type="text/css">
	.st0{fill:#FFFFFF;}
	.st1{fill:#222222;}
	.st2{fill:#FEBB16;}
	.st3{fill:#FDB503;}
</style>
<title>design_icon</title>
<desc>Created with Sketch.</desc>
<circle id="Oval" class="st0" cx="85" cy="85" r="85"/>
<path id="Rectangle" class="st1" d="M57,63h28c0.6,0,1,0.4,1,1l0,0c0,0.6-0.4,1-1,1H57c-0.6,0-1-0.4-1-1l0,0C56,63.4,56.4,63,57,63z
	"/>
<path id="Rectangle_1_" class="st1" d="M67,70h18c0.6,0,1,0.4,1,1l0,0c0,0.6-0.4,1-1,1H67c-0.6,0-1-0.4-1-1l0,0
	C66,70.4,66.4,70,67,70z"/>
<path id="Rectangle_2_" class="st1" d="M72,77h13c0.6,0,1,0.4,1,1l0,0c0,0.6-0.4,1-1,1H72c-0.6,0-1-0.4-1-1l0,0
	C71,77.4,71.4,77,72,77z"/>
<path id="Combined-Shape" class="st1" d="M100,115V96.6c0-2,1.6-3.6,3.6-3.6H130V57c0-2.2-1.8-4-4-4H45.2c-2.2,0-4,1.8-4,4v54
	c0,2.2,1.8,4,4,4H100z M102,115h24c2.2,0,4-1.8,4-4V95h-26.4c-0.9,0-1.6,0.7-1.6,1.6V115z M132,93h5c2,0,3.6,1.6,3.6,3.6v24.3
	c0,2-1.6,3.6-3.6,3.6h-33.4c-2,0-3.6-1.6-3.6-3.6v-4H45.2c-3.3,0-6-2.7-6-6V57c0-3.3,2.7-6,6-6H126c3.3,0,6,2.7,6,6V93z M132,95v16
	c0,3.3-2.7,6-6,6h-24v4c0,0.9,0.7,1.6,1.6,1.6H137c0.9,0,1.6-0.7,1.6-1.6V96.6c0-0.9-0.7-1.6-1.6-1.6H132z"/>
<path id="Oval_1_" class="st1" d="M106.3,84.8c-7.6,0-13.8-6.2-13.8-13.9S98.7,57,106.3,57s13.8,6.2,13.8,13.9S114,84.8,106.3,84.8z
	 M106.3,82.8c6.5,0,11.8-5.3,11.8-11.9c0-6.6-5.3-11.9-11.8-11.9c-6.5,0-11.8,5.3-11.8,11.9C94.5,77.5,99.8,82.8,106.3,82.8z"/>
<g>
	<path class="st1" d="M74.3,107H75c0.6,0,1-0.4,1-1s-0.4-1-1-1h-3c-0.4,0-0.7,0.2-0.9,0.5c-3.4-1.6-6.8-3.1-10.2-4.7
		c-0.6-0.3-1.2-0.6-1.8-0.8c0,0-0.1,0-0.1,0c0,0,0,0.1,0,0.1c0,0,0,0,0,0.1c1.9,5.2,3.7,10.4,5.6,15.6c1,2.8,2,5.5,3,8.3
		c0,0.1,0.1,0.1,0.1,0.2c1.6-2.1,3.2-4.2,4.8-6.3c2.2,2.4,4.4,4.7,6.5,7c0.1,0,0.1-0.1,0.1-0.1c1.1-0.9,2.2-1.9,3.3-2.8
		c0.1-0.1,0.1-0.1,0-0.2c-2.1-2.2-4.2-4.5-6.3-6.7c-0.2-0.2-0.2-0.2,0-0.3c2.2-1.2,4.4-2.5,6.6-3.7c0.1,0,0.1-0.1,0.2-0.1
		c-0.1,0-0.1-0.1-0.2-0.1C80,109.6,77.2,108.3,74.3,107z"/>
	<path class="st1" d="M55.9,90.5c0.8-0.3,1.7-0.5,2.6-0.5h3c0.6,0,1-0.4,1-1s-0.4-1-1-1h-3c-1.1,0-2.2,0.2-3.3,0.6
		c-0.5,0.2-0.8,0.8-0.6,1.3C54.8,90.4,55.4,90.6,55.9,90.5z"/>
	<path class="st1" d="M51.4,99.9c-0.2-0.5-0.7-0.8-1.3-0.6c-0.5,0.2-0.8,0.7-0.6,1.3c0.4,1.1,0.9,2.1,1.6,2.9c0.3,0.4,1,0.5,1.4,0.1
		c0.4-0.3,0.5-1,0.1-1.4C52.1,101.6,51.7,100.8,51.4,99.9z"/>
	<path class="st1" d="M50,96.3c0.5,0.1,1.1-0.2,1.2-0.7c0.2-0.9,0.6-1.7,1.1-2.4c0.3-0.5,0.2-1.1-0.2-1.4c-0.5-0.3-1.1-0.2-1.4,0.2
		c-0.6,0.9-1.1,1.9-1.4,3C49.2,95.6,49.5,96.1,50,96.3z"/>
	<path class="st1" d="M74.5,90h3c0.6,0,1-0.4,1-1s-0.4-1-1-1h-3c-0.6,0-1,0.4-1,1S73.9,90,74.5,90z"/>
	<path class="st1" d="M66.5,90h3c0.6,0,1-0.4,1-1s-0.4-1-1-1h-3c-0.6,0-1,0.4-1,1S65.9,90,66.5,90z"/>
	<path class="st1" d="M89.6,100.2c-0.5-0.2-1.1,0-1.3,0.5c-0.4,0.8-0.9,1.5-1.5,2.2c-0.4,0.4-0.4,1,0,1.4c0.4,0.4,1,0.4,1.4,0
		c0.8-0.8,1.5-1.7,1.9-2.7C90.3,101.1,90.1,100.5,89.6,100.2z"/>
	<path class="st1" d="M59,105h-0.5c-0.7,0-1.5-0.1-2.2-0.3c-0.5-0.2-1.1,0.1-1.2,0.7c-0.2,0.5,0.1,1.1,0.7,1.2
		c0.9,0.3,1.8,0.4,2.7,0.4H59c0.6,0,1-0.4,1-1S59.6,105,59,105z"/>
	<path class="st1" d="M85.8,89c-1-0.5-2.1-0.8-3.2-1c-0.5-0.1-1,0.3-1.1,0.9c-0.1,0.5,0.3,1,0.9,1.1c0.9,0.1,1.7,0.4,2.5,0.8
		c0.5,0.3,1.1,0.1,1.3-0.4S86.3,89.3,85.8,89z"/>
	<path class="st1" d="M89.8,92.9c-0.3-0.5-0.9-0.7-1.4-0.4s-0.7,0.9-0.4,1.4c0.4,0.8,0.7,1.6,0.8,2.5c0.1,0.5,0.6,0.9,1.1,0.8
		c0.5-0.1,0.9-0.6,0.8-1.1C90.7,95,90.4,93.9,89.8,92.9z"/>
	<path class="st1" d="M82.9,104.9c-0.4,0.1-0.9,0.1-1.4,0.1l-1.5,0c-0.6,0-1,0.4-1,1c0,0.6,0.4,1,1,1l1.5,0c0.6,0,1.2-0.1,1.7-0.2
		c0.5-0.1,0.9-0.6,0.8-1.2S83.4,104.8,82.9,104.9z"/>
</g>
<path id="Rectangle_3_" class="st0" d="M105,95h31c1.7,0,3,1.3,3,3v21c0,1.7-1.3,3-3,3h-31c-1.7,0-3-1.3-3-3V98
	C102,96.3,103.3,95,105,95z"/>
<polygon class="st2" points="128.9,107.5 123.8,115.4 115.1,102.3 103.7,119.5 121.1,119.5 126.5,119.5 136.6,119.5 "/>
<ellipse id="Oval_2_" class="st2" cx="131.4" cy="102" rx="4.4" ry="4.5"/>
<path id="Rectangle-Copy-61" class="st3" d="M30.4,45h30.1c2,0,3.6,1.6,3.6,3.6v24.5c0,2-1.6,3.6-3.6,3.6H30.4c-2,0-3.6-1.6-3.6-3.6
	V48.6C26.8,46.6,28.4,45,30.4,45z"/>
<path id="Aa" class="st0" d="M41.3,62.8h-6.5l-0.4,1.1c-0.7,1.6-1,2.6-1,3.1c0,0.5,0.2,0.9,0.5,1.2c0.3,0.3,0.8,0.4,1.3,0.4v0.6
	h-5.1v-0.6c0.8-0.1,1.3-0.4,1.7-0.8c0.4-0.4,0.8-1.3,1.3-2.7c0-0.1,0.2-0.6,0.6-1.5l5-12h0.5L45,65.4l0.8,1.8c0.2,0.4,0.4,0.7,0.7,1
	c0.3,0.2,0.7,0.4,1.3,0.4v0.6h-6.7v-0.6c0.8,0,1.4-0.1,1.7-0.2c0.3-0.1,0.4-0.4,0.4-0.7c0-0.2-0.2-0.7-0.6-1.7L41.3,62.8z
	 M41.1,62.1L38,55l-3.1,7.1H41.1z M56.5,58.5h1.5l-2.3,7.3c-0.3,1.1-0.5,1.7-0.5,1.9c0,0.2,0,0.3,0.1,0.4c0.1,0.1,0.2,0.1,0.3,0.1
	c0.6,0,1.3-0.7,2-2h0.5c-0.3,0.7-0.8,1.4-1.4,2c-0.6,0.6-1.2,0.9-1.7,0.9c-0.4,0-0.7-0.1-0.9-0.4c-0.2-0.3-0.3-0.6-0.3-1.1
	c0-0.3,0.1-0.8,0.3-1.3c-0.4,0.6-0.9,1.3-1.7,1.9s-1.4,0.9-2.1,0.9c-0.6,0-1.1-0.2-1.5-0.7c-0.4-0.5-0.6-1.2-0.6-2
	c0-1.1,0.3-2.3,1-3.6c0.7-1.3,1.5-2.4,2.6-3.2c1.1-0.9,2-1.3,2.7-1.3c0.4,0,0.8,0.1,1.1,0.3c0.3,0.2,0.4,0.5,0.5,0.9L56.5,58.5z
	 M50.2,67.1c0,0.5,0.1,1,0.2,1.2s0.4,0.4,0.7,0.4c0.5,0,1.2-0.4,1.9-1.2c0.8-0.8,1.4-2,2-3.7s0.8-2.8,0.8-3.4c0-0.3-0.1-0.6-0.3-0.9
	c-0.2-0.2-0.4-0.4-0.8-0.4c-1,0-2,1-3.1,3C50.7,64.2,50.2,65.8,50.2,67.1z"/>
</svg>
