<?xml version="1.0" encoding="UTF-8"?>
<svg width="169px" height="113px" viewBox="0 0 169 113" version="1.1" xmlns="http://www.w3.org/2000/svg" xmlns:xlink="http://www.w3.org/1999/xlink">
    <!-- Generator: Sketch 52.3 (67297) - http://www.bohemiancoding.com/sketch -->
    <title>Combined Shape</title>
    <desc>Created with Sketch.</desc>
    <g id="Page-1" stroke="none" stroke-width="1" fill="none" fill-rule="evenodd">
        <g id="About-Us" transform="translate(-1005.000000, -1098.000000)" fill="#FFFFFF" fill-rule="nonzero">
            <g id="Diplomas" transform="translate(0.000000, 866.000000)">
                <path d="M1010.12777,232 L1168.87223,232 C1170.65527,232 1171.30184,232.185651 1171.95369,232.534265 C1172.60554,232.88288 1173.11712,233.394457 1173.46573,234.046309 C1173.81435,234.69816 1174,235.344733 1174,237.12777 L1174,339.87223 C1174,341.655267 1173.81435,342.30184 1173.46573,342.953691 C1173.11712,343.605543 1172.60554,344.11712 1171.95369,344.465735 C1171.30184,344.814349 1170.65527,345 1168.87223,345 L1010.12777,345 C1008.34473,345 1007.69816,344.814349 1007.04631,344.465735 C1006.39446,344.11712 1005.88288,343.605543 1005.53427,342.953691 C1005.18565,342.30184 1005,341.655267 1005,339.87223 L1005,237.12777 C1005,235.344733 1005.18565,234.69816 1005.53427,234.046309 C1005.88288,233.394457 1006.39446,232.88288 1007.04631,232.534265 C1007.69816,232.185651 1008.34473,232 1010.12777,232 Z M1158.25232,328.000682 C1157.8059,328.064108 1157.45009,328.40633 1157.37028,328.850312 L1156.6841,332.933624 L1151.16255,326.726237 C1153.66683,325.417988 1155.6191,323.189365 1156.61893,320.51885 L1162.63046,327.281738 L1158.25232,328.000682 Z M1145.86996,325.909714 C1140.66066,325.909714 1136.4606,321.709308 1136.4606,316.500359 C1136.4606,311.291409 1140.66066,307.091003 1145.86996,307.091003 C1151.07891,307.091003 1155.27932,311.291409 1155.27932,316.500359 C1155.27932,321.709308 1151.07891,325.909714 1145.86996,325.909714 Z M1135.05547,332.933624 L1134.36964,328.850312 C1134.28948,328.40633 1133.93367,328.064108 1133.48725,328.000682 L1129.10946,327.281738 L1135.08823,320.51885 C1136.09016,323.199123 1138.06159,325.418685 1140.57702,326.726237 L1135.05547,332.933624 Z M1165.72753,327.821905 C1165.69687,327.620823 1165.60835,327.432985 1165.47279,327.281738 L1157.2396,318.035826 C1157.30756,317.5326 1157.37028,317.021358 1157.37028,316.50001 C1157.37028,310.161241 1152.20873,304.999686 1145.86996,304.999686 L1145.86996,305.000035 C1139.53084,305.000035 1134.36964,310.161241 1134.36964,316.500359 C1134.36964,317.021707 1134.43202,317.5326 1134.50032,318.035826 L1126.26714,327.281738 C1125.8817,327.71178 1125.9176,328.372526 1126.34764,328.75831 C1126.49923,328.893874 1126.68672,328.982392 1126.88781,329.013059 L1132.40935,329.927858 L1133.32415,335.482166 C1133.40988,336.053 1133.94273,336.44645 1134.51357,336.360372 C1134.76274,336.323083 1134.99031,336.196928 1135.15375,336.004908 L1142.66799,327.543109 C1143.68141,327.836193 1144.76314,328.000334 1145.86996,328.000334 C1146.98514,328.000334 1148.05084,327.841072 1149.07158,327.543109 L1156.58617,336.004908 C1156.9608,336.444359 1157.62085,336.496982 1158.05996,336.12235 C1158.25198,335.958558 1158.37813,335.731688 1158.41577,335.482166 L1159.33057,329.927858 L1164.85177,329.013059 C1165.4226,328.925936 1165.81466,328.392739 1165.72753,327.821905 Z M1029.376,274 L1035.208,274 C1037.81601,274 1039.95599,273.200008 1041.628,271.6 C1043.30001,269.999992 1044.136,268.000012 1044.136,265.6 C1044.136,263.183988 1043.30401,261.180008 1041.64,259.588 C1039.97599,257.995992 1037.83201,257.2 1035.208,257.2 L1029.376,257.2 L1029.376,274 Z M1031.272,272.248 L1031.272,258.952 L1035.208,258.952 C1037.28801,258.952 1038.96799,259.583994 1040.248,260.848 C1041.52801,262.112006 1042.168,263.69599 1042.168,265.6 C1042.168,267.52001 1041.53201,269.107994 1040.26,270.364 C1038.98799,271.620006 1037.30401,272.248 1035.208,272.248 L1031.272,272.248 Z M1049.812,274 L1051.708,274 L1051.708,257.2 L1049.812,257.2 L1049.812,274 Z M1058.128,274 L1060.024,274 L1060.024,268.072 L1064.104,268.072 C1065.99201,268.072 1067.56399,267.592005 1068.82,266.632 C1070.07601,265.671995 1070.704,264.320009 1070.704,262.576 C1070.704,260.911992 1070.13601,259.600005 1069,258.64 C1067.86399,257.679995 1066.33601,257.2 1064.416,257.2 L1058.128,257.2 L1058.128,274 Z M1060.024,266.344 L1060.024,258.952 L1064.272,258.952 C1065.66401,258.952 1066.764,259.267997 1067.572,259.9 C1068.38,260.532003 1068.784,261.431994 1068.784,262.6 C1068.784,263.736006 1068.364,264.643997 1067.524,265.324 C1066.684,266.004003 1065.56801,266.344 1064.176,266.344 L1060.024,266.344 Z M1075.66,274 L1087.012,274 L1087.012,272.248 L1077.556,272.248 L1077.556,257.2 L1075.66,257.2 L1075.66,274 Z M1105.024,271.744 C1106.64001,270.031991 1107.448,267.984012 1107.448,265.6 C1107.448,263.199988 1106.64801,261.152008 1105.048,259.456 C1103.44799,257.759992 1101.40001,256.912 1098.904,256.912 C1096.40799,256.912 1094.35201,257.763991 1092.736,259.468 C1091.11999,261.172009 1090.312,263.215988 1090.312,265.6 C1090.312,268.000012 1091.11199,270.047992 1092.712,271.744 C1094.31201,273.440008 1096.35999,274.288 1098.856,274.288 C1101.35201,274.288 1103.40799,273.440008 1105.024,271.744 Z M1094.152,270.52 C1092.90399,269.175993 1092.28,267.53601 1092.28,265.6 C1092.28,263.64799 1092.89999,262.004007 1094.14,260.668 C1095.38001,259.331993 1096.95199,258.664 1098.856,258.664 C1100.76001,258.664 1102.33999,259.335993 1103.596,260.68 C1104.85201,262.024007 1105.48,263.66399 1105.48,265.6 C1105.48,267.55201 1104.86001,269.195993 1103.62,270.532 C1102.37999,271.868007 1100.80801,272.536 1098.904,272.536 C1096.99999,272.536 1095.41601,271.864007 1094.152,270.52 Z M1112.956,274 L1114.804,274 L1114.804,260.416 L1120.924,269.392 L1121.02,269.392 L1127.14,260.392 L1127.14,274 L1129.036,274 L1129.036,257.2 L1127.116,257.2 L1120.996,266.368 L1114.876,257.2 L1112.956,257.2 L1112.956,274 Z M1133.848,274 L1135.792,274 L1137.784,269.56 L1146.928,269.56 L1148.896,274 L1150.936,274 L1143.28,257.08 L1141.504,257.08 L1133.848,274 Z M1138.528,267.856 L1142.368,259.288 L1146.184,267.856 L1138.528,267.856 Z M1030,294 L1030,296 L1115,296 L1115,294 L1030,294 Z M1030,302 L1030,304 L1115,304 L1115,302 L1030,302 Z M1030,310 L1030,312 L1115,312 L1115,310 L1030,310 Z M1030,318 L1030,320 L1065,320 L1065,318 L1030,318 Z" id="Combined-Shape"></path>
            </g>
        </g>
    </g>
</svg>