<?xml version="1.0" encoding="utf-8"?>
<!-- Generator: Adobe Illustrator 19.2.0, SVG Export Plug-In . SVG Version: 6.00 Build 0)  -->
<svg version="1.1"
	 id="svg3336" inkscape:version="0.91 r13725" sodipodi:docname="logo.svg" xmlns:cc="http://creativecommons.org/ns#" xmlns:dc="http://purl.org/dc/elements/1.1/" xmlns:inkscape="http://www.inkscape.org/namespaces/inkscape" xmlns:rdf="http://www.w3.org/1999/02/22-rdf-syntax-ns#" xmlns:sodipodi="http://sodipodi.sourceforge.net/DTD/sodipodi-0.dtd" xmlns:svg="http://www.w3.org/2000/svg"
	 xmlns="http://www.w3.org/2000/svg" xmlns:xlink="http://www.w3.org/1999/xlink" x="0px" y="0px" width="242px" height="102px"
	 viewBox="0 0 242 102" style="enable-background:new 0 0 242 102;" xml:space="preserve">
<style type="text/css">
	.st0{fill-rule:evenodd;clip-rule:evenodd;fill:#FFB507;}
	.st1{fill-rule:evenodd;clip-rule:evenodd;fill:#FFFFFF;}
	.st2{fill:#090808;}
	.st3{fill:#FFFFFF;}
</style>
<sodipodi:namedview  bordercolor="#666666" borderopacity="1" gridtolerance="10" guidetolerance="10" id="namedview3402" inkscape:current-layer="svg3336" inkscape:cx="116.5" inkscape:cy="51" inkscape:pageopacity="0" inkscape:pageshadow="2" inkscape:window-height="998" inkscape:window-maximized="1" inkscape:window-width="1680" inkscape:window-x="-8" inkscape:window-y="-8" inkscape:zoom="6.6523605" objecttolerance="10" pagecolor="#ffffff" showgrid="false">
	</sodipodi:namedview>
<title  id="title3338">4C7133C0-424B-4A5C-8334-73D03C8F8C75</title>
<desc  id="desc3340">Created with sketchtool.</desc>
<circle class="st0" cx="51" cy="51" r="51"/>
<path class="st1" d="M39.8,62.6c-0.4-10.4-1.8-13.7-1.8-13.7l-5.3-21.6c0,0-1.5-5,3.3-6.4c4.7-1.4,6.4,3.9,6.4,3.9
	s3.7,14.5,4.5,17.4c1.1,4,3.5,5.9,5.5-1.4c1.1-4.1,4.2-16.4,4.2-16.4s1.2-5.7,6.3-4.4c4.8,1.2,3,6.6,3,6.6L60.2,51l6.8,7.8
	c0,0,1.3-2.5,3.4-1.4c5.1,3,6.4,3.1,1.9,13.5C69,78.3,60.6,81.9,55.3,82.1c-9.2,0.4-16.9-3.7-20.6-11.2
	C33.3,67.9,40.2,70.2,39.8,62.6z"/>
<path class="st2" d="M54.2,83.4c-9.3,0-16.8-4.3-20.6-11.9c-0.4-0.7-0.4-1.4-0.2-2.1c0.4-1,1.3-1.4,2.1-1.8c1.6-0.7,3.2-1.4,3-5.1
	c-0.4-9.9-1.7-13.3-1.7-13.3l0-0.2l-5.3-21.6c-0.1-0.3-0.7-2.9,0.5-5.1c0.7-1.3,2-2.3,3.6-2.8c0.6-0.2,1.2-0.3,1.8-0.3
	c4.4,0,6,4.8,6.1,5l0,0.1c0,0.1,3.7,14.5,4.5,17.4c0.5,1.7,1,2.4,1.3,2.6c0.2-0.2,1-0.9,1.8-4c1.1-4,4-15.8,4.2-16.4
	c0.4-1.9,2.3-5.6,6.1-5.6c0.6,0,1.1,0.1,1.8,0.2c1.6,0.4,2.9,1.3,3.6,2.6c1.3,2.3,0.5,5.1,0.4,5.6l-5.5,23.7l5.4,6.2
	c0.6-0.5,1.3-1,2.3-1c0.6,0,1.1,0.2,1.7,0.5l0.6,0.4c2.4,1.4,4.2,2.4,4.6,4.7c0.3,1.9-0.4,4.5-2.8,10c-3.3,7.5-11.7,11.8-18,12
	C55,83.4,54.6,83.4,54.2,83.4z M35.9,70.4C35.9,70.4,35.9,70.4,35.9,70.4c3.5,7,10.6,10.9,19.4,10.5c4.4-0.2,12.6-3.2,15.8-10.5
	c1.8-4,2.9-7,2.6-8.6c-0.2-1.1-1.1-1.6-3.3-2.9l-0.6-0.4c-0.2-0.1-0.3-0.1-0.4-0.1c-0.5,0-1,0.7-1.2,1L67.3,61l-1.2-1.4l-7.2-8.3
	l5.8-25.1c0,0,0.7-2.1-0.2-3.6c-0.4-0.7-1-1.1-2-1.4c-0.4-0.1-0.8-0.2-1.1-0.2c-2.8,0-3.6,3.5-3.7,3.6c0,0.2-3.1,12.3-4.2,16.4
	c-0.7,2.6-1.8,5.9-4.2,5.9c-1.6,0-2.9-1.6-3.7-4.5c-0.8-2.8-4.2-16.4-4.5-17.4C41.1,24.9,40,22,37.5,22c-0.4,0-0.7,0.1-1.1,0.2
	c-3.3,1-2.6,4.2-2.4,4.8l0,0l5.3,21.5c0.2,0.6,1.4,4.4,1.8,14c0.2,5.3-2.8,6.7-4.5,7.5C36.4,70.1,36.1,70.2,35.9,70.4z"/>
<path class="st1" d="M42.2,61.9v-9.4c0-2.5-2-4.5-4.5-4.5c-2.5,0-4.5,2-4.5,4.5v7.1c0,0.7,0,1.6,0,2.8c0,4.2,1.1,8.2,3.2,11.4
	c2,3.1,5.2,5.4,7.3,6.4c2.7,1.2,8.9,2.2,11.6,1.9C57.7,68,48.6,61.9,42.2,61.9z"/>
<path class="st2" d="M54.1,83.5L54.1,83.5c-3,0-8.3-0.9-11-2.1c-2.4-1.1-5.8-3.7-7.9-6.9c-2.1-3.3-3.3-7.6-3.3-12.1
	c0-1.2,0-2.1,0-2.8v-7c0-3.2,2.6-5.8,5.8-5.8c3.2,0,5.8,2.6,5.8,5.8v8.2C47,61.1,50.6,63,53,66c2.4,2.8,4.9,8,3.4,16.4l-0.2,0.9
	l-0.9,0.1C55,83.4,54.6,83.5,54.1,83.5z M37.6,49.3c-1.8,0-3.3,1.5-3.3,3.3l0,7.1c0,0.7,0,1.6,0,2.7c0,4,1.1,7.8,3,10.7
	c1.8,2.8,4.8,5,6.8,5.9c2.1,1,7,1.9,10,1.9c0,0,0,0,0,0c1-6.9-1.1-11-3-13.4c-2.7-3.2-6.4-4.4-8.9-4.4h-1.3l0-1.3v-9.4
	C40.9,50.8,39.4,49.3,37.6,49.3z"/>
<path class="st1" d="M65.9,47.6c2.4,0.8,3.7,3.4,2.9,5.8l-3,9.1c-0.8,2.4-3.4,3.7-5.8,2.9c-2.4-0.8-3.7-3.4-2.9-5.8l3-9.1
	C60.9,48.1,63.5,46.8,65.9,47.6z"/>
<path class="st2" d="M61.5,66.9c-0.6,0-1.2-0.1-1.8-0.3c-1.5-0.5-2.7-1.5-3.4-2.9c-0.7-1.4-0.8-3-0.3-4.5l3-9.1c0.8-2.4,3-4,5.6-4
	c0.6,0,1.2,0.1,1.8,0.3c3.1,1,4.7,4.3,3.7,7.4l-3,9.1C66.3,65.3,64.1,66.9,61.5,66.9z M64.5,48.6c-1.4,0-2.7,0.9-3.2,2.3l-3,9.1
	c-0.3,0.8-0.2,1.8,0.2,2.5c0.4,0.8,1.1,1.4,1.9,1.7c0.3,0.1,0.7,0.2,1,0.2c1.4,0,2.7-0.9,3.2-2.3l3-9.1c0.6-1.7-0.4-3.6-2.1-4.2
	C65.2,48.7,64.8,48.6,64.5,48.6z"/>
<path class="st1" d="M73.3,54.6c2.4,0.8,3.7,3.4,2.9,5.8l-1.6,4.8c-0.8,2.4-3.4,3.7-5.8,2.9c-2.4-0.8-3.7-3.4-2.9-5.8l1.6-4.8
	C68.3,55.2,70.9,53.8,73.3,54.6z"/>
<path class="st2" d="M70.2,69.7c-0.6,0-1.2-0.1-1.8-0.3c-3.1-1-4.7-4.3-3.7-7.4l1.6-4.8c0.8-2.4,3-4,5.6-4c0.6,0,1.2,0.1,1.8,0.3
	c3.1,1,4.7,4.3,3.7,7.4l-1.6,4.8C75,68,72.8,69.7,70.2,69.7z M71.9,55.7c-1.4,0-2.7,0.9-3.2,2.3l-1.6,4.8c-0.6,1.7,0.4,3.6,2.1,4.2
	c0.3,0.1,0.7,0.2,1,0.2c1.4,0,2.7-0.9,3.2-2.3L75,60c0.6-1.7-0.4-3.6-2.1-4.2C72.6,55.7,72.2,55.7,71.9,55.7z"/>
<g>
	<path class="st3" d="M134.5,51.2v4.1h-18.6v-3.7l9.4-10.2c1.1-1.2,1.9-2.3,2.5-3.4s0.8-2,0.8-3c0-1.3-0.4-2.2-1.1-2.9
		c-0.7-0.6-1.8-1-3.2-1c-2.4,0-5,1-7.5,2.9l-1.7-3.7c1.1-1,2.5-1.8,4.2-2.4c1.7-0.6,3.4-0.9,5.2-0.9c2.8,0,5,0.7,6.6,2
		c1.6,1.4,2.4,3.2,2.4,5.5c0,1.6-0.3,3.1-1,4.5c-0.7,1.4-1.8,3-3.5,4.7l-6.8,7.3H134.5z"/>
	<path class="st3" d="M162.7,40.3v13.3c-1.3,0.6-2.8,1.1-4.6,1.5c-1.8,0.4-3.6,0.5-5.5,0.5c-2.9,0-5.3-0.6-7.4-1.7
		c-2.1-1.1-3.7-2.8-4.8-4.9c-1.1-2.1-1.7-4.7-1.7-7.6c0-2.9,0.6-5.4,1.7-7.6c1.1-2.1,2.7-3.8,4.8-4.9c2.1-1.1,4.5-1.7,7.3-1.7
		c2,0,3.8,0.3,5.5,0.9c1.7,0.6,3.1,1.4,4.3,2.4l-1.7,3.7c-1.3-1-2.6-1.7-3.8-2.2c-1.2-0.4-2.6-0.7-4.1-0.7c-2.9,0-5,0.9-6.5,2.6
		c-1.5,1.7-2.2,4.2-2.2,7.5c0,3.4,0.8,6,2.3,7.7c1.5,1.7,3.8,2.6,6.7,2.6c1.8,0,3.6-0.2,5.4-0.7v-7h-6v-3.6H162.7z"/>
	<path class="st3" d="M185.2,45.7h-13.6c0.1,2.1,0.6,3.7,1.6,4.7c0.9,1,2.4,1.5,4.2,1.5c2.2,0,4.2-0.7,6-2.1l1.4,3.4
		c-0.9,0.8-2.1,1.4-3.5,1.8c-1.4,0.5-2.8,0.7-4.2,0.7c-3.2,0-5.8-0.9-7.6-2.7c-1.8-1.8-2.8-4.3-2.8-7.5c0-2,0.4-3.8,1.2-5.3
		c0.8-1.6,1.9-2.8,3.4-3.6c1.5-0.9,3.1-1.3,5-1.3c2.7,0,4.8,0.9,6.4,2.6c1.6,1.8,2.4,4.2,2.4,7.2V45.7z M173.4,39.8
		c-0.8,0.8-1.3,1.9-1.6,3.3h9.2c-0.2-1.5-0.6-2.6-1.3-3.4s-1.8-1.1-3.1-1.1C175.2,38.6,174.2,39,173.4,39.8z"/>
	<path class="st3" d="M208.5,35.6v19.7h-4.8v-3.2c-0.6,1.1-1.5,1.9-2.6,2.6c-1.1,0.6-2.4,0.9-3.8,0.9c-1.7,0-3.2-0.4-4.6-1.2
		c-1.3-0.8-2.4-2-3.1-3.6c-0.7-1.5-1.1-3.3-1.1-5.3s0.4-3.8,1.1-5.4s1.8-2.8,3.1-3.7c1.3-0.9,2.8-1.3,4.5-1.3c1.4,0,2.7,0.3,3.8,0.9
		c1.1,0.6,2,1.5,2.6,2.6v-3H208.5z M202.4,50.1c0.9-1.1,1.3-2.7,1.3-4.7c0-2.1-0.4-3.7-1.3-4.8c-0.9-1.1-2.1-1.7-3.8-1.7
		c-1.6,0-2.9,0.6-3.8,1.7c-0.9,1.2-1.3,2.8-1.3,4.8c0,2,0.4,3.6,1.3,4.7c0.9,1.1,2.2,1.6,3.8,1.6C200.3,51.8,201.5,51.3,202.4,50.1z
		"/>
	<path class="st3" d="M225.5,35.5l0,4.4c-0.8-0.3-1.7-0.5-2.6-0.5c-1.7,0-2.9,0.5-3.8,1.4c-0.9,1-1.3,2.2-1.3,3.8v10.6H213V41.2
		c0-2.1-0.1-3.9-0.3-5.6h4.6l0.4,3.5c0.5-1.3,1.3-2.2,2.3-2.9c1.1-0.7,2.3-1,3.6-1C224.3,35.2,225,35.3,225.5,35.5z"/>
	<path class="st3" d="M236.8,39.3v8.8c0,2.3,1.1,3.5,3.2,3.5c0.6,0,1.2-0.1,2-0.3v3.9c-0.9,0.3-1.9,0.5-3.1,0.5
		c-2.2,0-4-0.6-5.1-1.9c-1.2-1.2-1.8-3-1.8-5.4v-9h-3.8v-3.7h3.8v-4.8l4.9-1.6v6.4h5.2v3.7H236.8z"/>
</g>
<g>
	<path class="st3" d="M117.7,76.5c-0.9-0.5-1.5-1.2-2-2.2c-0.5-0.9-0.7-2-0.7-3.3c0-1.3,0.2-2.4,0.7-3.3c0.5-0.9,1.1-1.7,2-2.2
		c0.9-0.5,1.9-0.8,3.1-0.8c0.8,0,1.6,0.1,2.3,0.4c0.7,0.3,1.3,0.6,1.8,1.1l-0.6,1.3c-0.6-0.5-1.1-0.8-1.7-1
		c-0.6-0.2-1.2-0.3-1.8-0.3c-1.3,0-2.2,0.4-2.9,1.2c-0.7,0.8-1,2-1,3.5c0,1.5,0.3,2.7,1,3.5c0.7,0.8,1.7,1.2,2.9,1.2
		c0.7,0,1.3-0.1,1.8-0.3c0.6-0.2,1.1-0.6,1.7-1l0.6,1.3c-0.5,0.5-1.1,0.9-1.8,1.1c-0.7,0.3-1.5,0.4-2.3,0.4
		C119.6,77.3,118.6,77,117.7,76.5z"/>
	<path class="st3" d="M132.1,68.4l0,1.6c-0.3-0.1-0.6-0.2-1-0.2c-0.8,0-1.4,0.2-1.8,0.7c-0.4,0.5-0.6,1.1-0.6,1.8v4.8H127v-6.2
		c0-0.9,0-1.7-0.1-2.4h1.6l0.2,1.6c0.2-0.6,0.6-1,1.1-1.3c0.5-0.3,1-0.5,1.6-0.5C131.6,68.3,131.8,68.3,132.1,68.4z"/>
	<path class="st3" d="M140.7,72.9h-6.2c0.1,2,1,3,2.8,3c1,0,1.9-0.3,2.7-1l0.5,1.2c-0.4,0.3-0.9,0.6-1.5,0.8
		c-0.6,0.2-1.2,0.3-1.8,0.3c-1.4,0-2.5-0.4-3.3-1.2c-0.8-0.8-1.2-1.9-1.2-3.3c0-0.9,0.2-1.7,0.5-2.4c0.3-0.7,0.8-1.2,1.5-1.6
		c0.6-0.4,1.3-0.6,2.1-0.6c1.2,0,2.1,0.4,2.8,1.1c0.7,0.8,1,1.8,1,3.1V72.9z M135.3,70.2c-0.4,0.4-0.7,0.9-0.8,1.7h4.6
		c-0.1-0.7-0.3-1.3-0.7-1.7c-0.4-0.4-0.9-0.6-1.5-0.6C136.3,69.6,135.8,69.8,135.3,70.2z"/>
	<path class="st3" d="M150.6,68.5v8.6h-1.7v-1.5c-0.3,0.5-0.6,0.9-1.1,1.2c-0.5,0.3-1.1,0.4-1.7,0.4c-0.8,0-1.4-0.2-2-0.5
		s-1-0.9-1.3-1.6s-0.5-1.4-0.5-2.3c0-0.9,0.2-1.7,0.5-2.4c0.3-0.7,0.8-1.2,1.4-1.6s1.2-0.6,2-0.6c0.7,0,1.2,0.1,1.7,0.4
		c0.5,0.3,0.9,0.7,1.1,1.2v-1.4H150.6z M148.2,75.1c0.4-0.5,0.6-1.3,0.6-2.3c0-1-0.2-1.8-0.6-2.3c-0.4-0.5-1-0.8-1.8-0.8
		c-0.8,0-1.4,0.3-1.8,0.8c-0.4,0.6-0.7,1.3-0.7,2.3c0,1,0.2,1.7,0.7,2.3c0.4,0.5,1.1,0.8,1.8,0.8C147.2,75.9,147.8,75.6,148.2,75.1z
		"/>
	<path class="st3" d="M155.3,69.8v4.3c0,0.6,0.1,1,0.4,1.3c0.3,0.2,0.6,0.4,1.1,0.4c0.3,0,0.6,0,0.9-0.1v1.4
		c-0.4,0.1-0.8,0.2-1.3,0.2c-0.9,0-1.6-0.3-2.1-0.8c-0.5-0.5-0.7-1.2-0.7-2.2v-4.5h-1.7v-1.3h1.7v-2.2l1.7-0.6v2.8h2.4v1.3H155.3z"
		/>
	<path class="st3" d="M159.2,64.7h2v1.8h-2V64.7z M159.3,77.1v-8.6h1.7v8.6H159.3z"/>
	<path class="st3" d="M169.7,68.5h1.7l-3.8,8.6h-1.6l-3.7-8.6h1.8l2.7,6.7L169.7,68.5z"/>
	<path class="st3" d="M180,72.9h-6.2c0.1,2,1,3,2.8,3c1,0,1.9-0.3,2.7-1l0.5,1.2c-0.4,0.3-0.9,0.6-1.5,0.8c-0.6,0.2-1.2,0.3-1.8,0.3
		c-1.4,0-2.5-0.4-3.3-1.2c-0.8-0.8-1.2-1.9-1.2-3.3c0-0.9,0.2-1.7,0.5-2.4c0.3-0.7,0.8-1.2,1.5-1.6c0.6-0.4,1.3-0.6,2.1-0.6
		c1.2,0,2.1,0.4,2.8,1.1c0.7,0.8,1,1.8,1,3.1V72.9z M174.7,70.2c-0.4,0.4-0.7,0.9-0.8,1.7h4.6c-0.1-0.7-0.3-1.3-0.7-1.7
		c-0.4-0.4-0.9-0.6-1.5-0.6C175.7,69.6,175.1,69.8,174.7,70.2z"/>
	<path class="st3" d="M195.6,71.9c0.4,0.5,0.6,1.1,0.6,1.9c0,1.1-0.4,1.9-1.1,2.5c-0.7,0.6-1.7,0.9-3,0.9h-5.3V64.9h5.1
		c1.3,0,2.2,0.3,2.9,0.8c0.7,0.6,1.1,1.3,1.1,2.4c0,0.7-0.2,1.2-0.5,1.7c-0.3,0.5-0.8,0.8-1.4,1C194.6,71,195.2,71.4,195.6,71.9z
		 M188.5,70.2h3.1c1.7,0,2.6-0.7,2.6-2c0-1.3-0.9-1.9-2.6-1.9h-3.1V70.2z M193.8,75.2c0.4-0.3,0.6-0.8,0.6-1.5
		c0-0.7-0.2-1.2-0.6-1.6c-0.4-0.3-1.1-0.5-1.9-0.5h-3.4v4.1h3.4C192.8,75.7,193.4,75.6,193.8,75.2z"/>
	<path class="st3" d="M205.9,68.5v8.6h-1.7v-1.4c-0.3,0.5-0.7,0.9-1.1,1.2c-0.5,0.3-1,0.4-1.6,0.4c-2.1,0-3.1-1.2-3.1-3.5v-5.3h1.7
		v5.3c0,0.7,0.1,1.2,0.4,1.6c0.3,0.3,0.7,0.5,1.3,0.5c0.7,0,1.3-0.2,1.7-0.7s0.6-1.1,0.6-1.8v-4.9H205.9z"/>
	<path class="st3" d="M213.5,68.4l0,1.6c-0.3-0.1-0.6-0.2-1-0.2c-0.8,0-1.4,0.2-1.8,0.7c-0.4,0.5-0.6,1.1-0.6,1.8v4.8h-1.7v-6.2
		c0-0.9,0-1.7-0.1-2.4h1.6l0.2,1.6c0.2-0.6,0.6-1,1.1-1.3c0.5-0.3,1-0.5,1.6-0.5C213,68.3,213.2,68.3,213.5,68.4z"/>
	<path class="st3" d="M222.1,72.9h-6.2c0.1,2,1,3,2.8,3c1,0,1.9-0.3,2.7-1l0.5,1.2c-0.4,0.3-0.9,0.6-1.5,0.8
		c-0.6,0.2-1.2,0.3-1.8,0.3c-1.4,0-2.5-0.4-3.3-1.2c-0.8-0.8-1.2-1.9-1.2-3.3c0-0.9,0.2-1.7,0.5-2.4c0.3-0.7,0.8-1.2,1.5-1.6
		s1.3-0.6,2.1-0.6c1.2,0,2.1,0.4,2.8,1.1c0.7,0.8,1,1.8,1,3.1V72.9z M216.7,70.2c-0.4,0.4-0.7,0.9-0.8,1.7h4.6
		c-0.1-0.7-0.3-1.3-0.7-1.7c-0.4-0.4-0.9-0.6-1.5-0.6C217.7,69.6,217.1,69.8,216.7,70.2z"/>
	<path class="st3" d="M231.9,68.5v8.6h-1.7v-1.5c-0.3,0.5-0.6,0.9-1.1,1.2c-0.5,0.3-1.1,0.4-1.7,0.4c-0.8,0-1.4-0.2-2-0.5
		c-0.6-0.4-1-0.9-1.3-1.6c-0.3-0.7-0.5-1.4-0.5-2.3c0-0.9,0.2-1.7,0.5-2.4c0.3-0.7,0.8-1.2,1.4-1.6c0.6-0.4,1.2-0.6,2-0.6
		c0.7,0,1.2,0.1,1.7,0.4c0.5,0.3,0.9,0.7,1.1,1.2v-1.4H231.9z M229.6,75.1c0.4-0.5,0.6-1.3,0.6-2.3c0-1-0.2-1.8-0.6-2.3
		c-0.4-0.5-1-0.8-1.8-0.8c-0.8,0-1.4,0.3-1.8,0.8c-0.4,0.6-0.7,1.3-0.7,2.3c0,1,0.2,1.7,0.7,2.3c0.4,0.5,1.1,0.8,1.8,0.8
		C228.6,75.9,229.2,75.6,229.6,75.1z"/>
	<path class="st3" d="M242,68.5v8.6h-1.7v-1.4c-0.3,0.5-0.7,0.9-1.1,1.2c-0.5,0.3-1,0.4-1.6,0.4c-2.1,0-3.1-1.2-3.1-3.5v-5.3h1.7
		v5.3c0,0.7,0.1,1.2,0.4,1.6c0.3,0.3,0.7,0.5,1.3,0.5c0.7,0,1.3-0.2,1.7-0.7s0.6-1.1,0.6-1.8v-4.9H242z"/>
</g>
</svg>
