<?xml version="1.0" encoding="utf-8"?>
<!-- Generator: Adobe Illustrator 19.2.0, SVG Export Plug-In . SVG Version: 6.00 Build 0)  -->
<svg version="1.1" id="Layer_1" xmlns="http://www.w3.org/2000/svg" xmlns:xlink="http://www.w3.org/1999/xlink" x="0px" y="0px"
	 width="92px" height="92px" viewBox="0 0 92 92" style="enable-background:new 0 0 92 92;" xml:space="preserve">
<style type="text/css">
	.st0{fill-rule:evenodd;clip-rule:evenodd;fill:#FFB507;}
	.st1{fill:#FFFFFF;}
	.st2{fill-rule:evenodd;clip-rule:evenodd;fill:#FFFFFF;}
	.st3{fill:#090808;}
</style>
<circle class="st0" cx="46" cy="46" r="45"/>
<path class="st1" d="M46,1c24.9,0,45,20.1,45,45S70.9,91,46,91S1,70.9,1,46S21.1,1,46,1 M46,0C20.6,0,0,20.6,0,46s20.6,46,46,46
	s46-20.6,46-46S71.4,0,46,0L46,0z"/>
<path class="st2" d="M36.2,56.2c-0.4-9.1-1.6-12.1-1.6-12.1l-4.7-19c0,0-1.3-4.4,2.9-5.6c4.1-1.2,5.6,3.5,5.6,3.5s3.3,12.8,4,15.4
	c1,3.6,3.1,5.2,4.8-1.3c1-3.7,3.7-14.5,3.7-14.5s1.1-5.1,5.6-3.9c4.2,1.1,2.7,5.8,2.7,5.8l-5,21.5l6,6.9c0,0,1.2-2.2,3-1.2
	c4.5,2.6,5.6,2.8,1.7,11.9c-2.9,6.6-10.3,9.8-14.9,9.9c-8.2,0.3-14.9-3.3-18.1-9.8C30.3,60.9,36.4,62.9,36.2,56.2z"/>
<path class="st3" d="M48.8,74.6c-8.2,0-14.9-3.8-18.1-10.5c-0.3-0.7-0.4-1.3-0.2-1.8c0.3-0.9,1.1-1.2,1.9-1.6
	c1.4-0.6,2.8-1.3,2.7-4.5c-0.4-8.7-1.5-11.7-1.5-11.7l0-0.1l-4.7-19c-0.1-0.3-0.6-2.6,0.4-4.5c0.7-1.2,1.7-2,3.2-2.4
	c0.6-0.2,1.1-0.2,1.6-0.2c3.9,0,5.3,4.2,5.4,4.4l0,0.1c0,0.1,3.3,12.8,4,15.3c0.4,1.5,0.9,2.1,1.1,2.3c0.2-0.1,0.8-0.8,1.6-3.6
	c0.9-3.5,3.5-14,3.7-14.4c0.4-1.7,2-4.9,5.4-4.9c0.5,0,1,0.1,1.5,0.2c1.5,0.4,2.5,1.1,3.2,2.3c1.1,2,0.5,4.5,0.3,4.9l-4.9,20.9
	l4.7,5.5c0.5-0.5,1.2-0.9,2-0.9c0.5,0,1,0.1,1.5,0.4l0.6,0.3c2.1,1.2,3.7,2.1,4,4.2c0.3,1.7-0.3,3.9-2.5,8.8
	c-2.9,6.6-10.3,10.4-15.9,10.6C49.5,74.6,49.2,74.6,48.8,74.6z M32.6,63.1C32.7,63.1,32.7,63.1,32.6,63.1c3.1,6.2,9.3,9.6,17.1,9.3
	c3.9-0.2,11.1-2.8,13.9-9.3c1.5-3.6,2.5-6.2,2.3-7.6c-0.2-0.9-1-1.4-2.9-2.6l-0.6-0.3c-0.1-0.1-0.3-0.1-0.4-0.1
	c-0.4,0-0.9,0.6-1,0.9l-0.8,1.4l-1.1-1.2l-6.4-7.3l5.1-22.1c0,0,0.6-1.9-0.2-3.2c-0.3-0.6-0.9-1-1.8-1.2c-0.3-0.1-0.7-0.1-1-0.1
	c-2.5,0-3.2,3.1-3.2,3.2c0,0.1-2.7,10.9-3.7,14.5c-0.6,2.3-1.6,5.2-3.7,5.2c-1.4,0-2.6-1.4-3.2-4c-0.7-2.5-3.7-14.5-4-15.3
	c-0.1-0.3-1.1-2.9-3.3-2.9c-0.3,0-0.7,0.1-1,0.2c-2.9,0.8-2.3,3.7-2.1,4.2l0,0l4.7,19c0.2,0.6,1.2,3.9,1.6,12.4
	c0.2,4.7-2.5,5.9-4,6.6C33.1,62.9,32.8,63,32.6,63.1z"/>
<path class="st2" d="M38.2,55.6v-8.3c0-2.2-1.8-4-4-4c-2.2,0-4,1.8-4,4v6.2c0,0.6,0,1.4,0,2.5c0,3.7,1,7.2,2.8,10.1
	c1.7,2.7,4.6,4.8,6.5,5.6c2.4,1.1,7.8,1.9,10.3,1.7C51.9,61,43.9,55.6,38.2,55.6z"/>
<path class="st3" d="M48.7,74.6L48.7,74.6c-2.7,0-7.3-0.8-9.7-1.8c-2.2-1-5.2-3.2-7-6.1c-1.9-2.9-2.9-6.7-3-10.7c0-1,0-1.8,0-2.5
	v-6.2c0-2.8,2.3-5.1,5.1-5.1c2.8,0,5.1,2.3,5.1,5.1v7.2c3.2,0.3,6.3,2,8.5,4.6c2.1,2.5,4.3,7.1,3,14.5l-0.1,0.8l-0.8,0.1
	C49.5,74.6,49.1,74.6,48.7,74.6z M34.2,44.5c-1.6,0-2.9,1.3-2.9,2.9l0,6.3c0,0.6,0,1.4,0,2.4c0,3.5,1,6.9,2.6,9.5
	c1.6,2.4,4.2,4.4,6,5.2c1.9,0.8,6.2,1.6,8.8,1.6c0,0,0,0,0,0c0.9-6.1-0.9-9.7-2.7-11.8c-2.4-2.9-5.6-3.9-7.9-3.9h-1.1l0-1.1v-8.3
	C37.1,45.8,35.8,44.5,34.2,44.5z"/>
<path class="st2" d="M59.2,43c2.1,0.7,3.3,3,2.6,5.1l-2.6,8c-0.7,2.1-3,3.3-5.1,2.6c-2.1-0.7-3.3-3-2.6-5.1l2.6-8
	C54.7,43.5,57,42.3,59.2,43z"/>
<path class="st3" d="M55.3,60c-0.5,0-1.1-0.1-1.6-0.3c-1.3-0.4-2.4-1.3-3-2.6c-0.6-1.2-0.7-2.6-0.3-3.9l2.6-8
	c0.7-2.1,2.7-3.6,4.9-3.6c0.5,0,1.1,0.1,1.6,0.3c2.7,0.9,4.2,3.8,3.3,6.5l-2.6,8C59.5,58.6,57.5,60,55.3,60z M57.9,43.9
	c-1.3,0-2.4,0.8-2.8,2l-2.6,8c-0.2,0.7-0.2,1.5,0.2,2.2c0.4,0.7,1,1.2,1.7,1.5c0.3,0.1,0.6,0.1,0.9,0.1c1.3,0,2.4-0.8,2.8-2l2.6-8
	c0.5-1.5-0.3-3.2-1.9-3.7C58.5,44,58.2,43.9,57.9,43.9z"/>
<path class="st2" d="M65.7,49.2c2.1,0.7,3.3,3,2.6,5.1l-1.5,4.2c-0.7,2.1-3,3.3-5.1,2.6c-2.1-0.7-3.3-3-2.6-5.1l1.4-4.2
	C61.3,49.7,63.5,48.5,65.7,49.2z"/>
<path class="st3" d="M63,62.5c-0.5,0-1.1-0.1-1.6-0.3c-2.7-0.9-4.2-3.8-3.3-6.5l1.5-4.3c0.7-2.1,2.7-3.5,4.9-3.5
	c0.5,0,1.1,0.1,1.6,0.3c2.7,0.9,4.2,3.8,3.3,6.5l-1.5,4.3C67.2,61,65.2,62.5,63,62.5z M64.4,50.1c-1.3,0-2.4,0.8-2.8,2l-1.5,4.3
	c-0.5,1.5,0.3,3.2,1.9,3.7c0.3,0.1,0.6,0.1,0.9,0.1c1.3,0,2.4-0.8,2.8-2l1.5-4.3c0.5-1.5-0.3-3.2-1.9-3.7
	C65,50.2,64.7,50.1,64.4,50.1z"/>
</svg>
