<?xml version="1.0" encoding="UTF-8"?>
<svg width="42px" height="58px" viewBox="0 0 42 58" version="1.1" xmlns="http://www.w3.org/2000/svg" xmlns:xlink="http://www.w3.org/1999/xlink">
    <!-- Generator: sketchtool 52.3 (67297) - http://www.bohemiancoding.com/sketch -->
    <title>6671979C-564F-4A6D-8893-F411049EA87D</title>
    <desc>Created with sketchtool.</desc>
    <g id="Page-1" stroke="none" stroke-width="1" fill="none" fill-rule="evenodd">
        <g id="Contact-1920" transform="translate(-876.000000, -1193.000000)">
            <g id="map" transform="translate(0.000000, 1026.000000)">
                <g id="map-marker" transform="translate(876.000000, 167.000000)">
                    <path d="M21,0 C26.5695473,-3.31476313e-06 31.9109813,2.25326307 35.849246,6.26410557 C39.7875107,10.2749481 42.0000033,15.7148188 42,21.3870067 C42,36.8815884 22.9489101,58 21,58 C19.0510899,58 -4.64269994e-15,36.8815884 -3.55271368e-15,21.3870067 C-3.25478113e-06,15.7148188 2.21248935,10.2749481 6.150754,6.26410557 C10.0890187,2.25326307 15.4304527,-3.31476313e-06 21,0 Z M21.5,31 C27.2989899,31 32,26.2989899 32,20.5 C32,14.7010101 27.2989899,10 21.5,10 C15.7010101,10 11,14.7010101 11,20.5 C11,26.2989899 15.7010101,31 21.5,31 Z" id="map_marker1-copy" fill="#FEBB16" fill-rule="nonzero"></path>
                    <g id="Group" transform="translate(3.000000, 5.000000)">
                        <circle id="Oval" fill="#FEBB16" cx="18" cy="18" r="18"></circle>
                        <path d="M14.419811,22.0319329 C14.2915132,18.3931049 13.8210876,17.2104857 13.8210876,17.2104857 L12.0676831,9.61443206 C12.0676831,9.61443206 11.5972575,7.84050336 13.1368322,7.38564985 C14.6764068,6.93079634 15.2751303,8.75021039 15.2751303,8.75021039 C15.2751303,8.75021039 16.5153432,13.8445697 16.771939,14.8907328 C17.1140667,16.3007787 17.92662,16.983059 18.5681094,14.3903939 C18.9102371,12.9348627 19.9366202,8.61375434 19.9366202,8.61375434 C19.9366202,8.61375434 20.3642798,6.61239888 22.0321524,7.06725239 C23.614493,7.52210591 23.0157695,9.38700531 23.0157695,9.38700531 L21.1340672,17.9837367 L23.3578972,20.7583431 C23.3578972,20.7583431 23.7855568,19.8486361 24.4698122,20.3034896 C26.1804507,21.3496527 26.5653444,21.395138 25.0685357,25.0339661 C23.9993867,27.6721165 21.2195991,28.9457063 19.5089606,28.9911917 C16.4725772,29.1276477 13.9493855,27.6721165 12.7091725,25.0794515 C12.238747,23.8968323 14.5481089,24.7155687 14.419811,22.0319329 Z" id="Path" fill="#FFFFFF"></path>
                        <path d="M19.1535799,29.9085487 C15.8383872,29.9085487 13.2138597,28.3538767 11.8325294,25.7017893 C11.6943964,25.473161 11.6943964,25.1988072 11.7404408,24.9701789 C11.8785738,24.6500994 12.1548398,24.4214712 12.5231946,24.3300199 C13.0757267,24.1013917 13.6282588,23.8270378 13.5822145,22.5467197 C13.4440814,19.0258449 12.983638,17.8369781 12.983638,17.8369781 L12.983638,17.7912525 L11.09582,10.1550696 C10.9116426,9.56063618 11.0037313,8.87475149 11.2799973,8.32604374 C11.5562634,7.82306163 12.0167068,7.50298211 12.5692389,7.36580517 C12.7534163,7.32007952 12.983638,7.27435388 13.1678154,7.27435388 C14.733323,7.27435388 15.3318995,8.96620278 15.3318995,9.05765408 L15.3318995,9.10337972 C15.3318995,9.14910537 16.6671854,14.2246521 16.9434514,15.2763419 C16.9894958,15.5964215 17.1736732,15.916501 17.4038949,16.1908549 C17.4959835,16.1451292 17.7262053,15.8707753 18.0485157,14.7733598 C18.4168704,13.3558648 19.4758903,9.14910537 19.5219346,8.96620278 C19.6600676,8.28031809 20.3046884,7 21.6860187,7 C21.9162404,7 22.1004178,7.04572565 22.3306395,7.09145129 C22.8831716,7.18290258 23.343615,7.54870775 23.6198811,8.00596421 C23.8961471,8.60039761 23.9421915,9.33200795 23.7580141,9.972167 L21.8241517,18.3856859 L23.7119698,20.5805169 C23.9421915,20.3518887 24.2184575,20.2604374 24.5407679,20.2147117 C24.7709896,20.2147117 24.955167,20.2604374 25.1393444,20.3976143 L25.3695661,20.5347913 C26.2444086,21.0377734 26.842985,21.4035785 26.9811181,22.2266402 C27.0732067,22.9125249 26.842985,23.8270378 25.9681425,25.7475149 C24.817034,28.3996024 21.8241517,29.9085487 19.567979,30 L19.1535799,29.9085487 Z M12.6613276,25.2902584 C13.8584805,27.805169 16.3909193,29.1312127 19.5219346,29.0397614 C21.0874422,28.9940358 23.9882358,27.8966203 25.1393444,25.3359841 C25.7839652,23.9184891 26.1523199,22.8667992 26.0602312,22.3180915 C26.0602312,21.9065606 25.6918765,21.7236581 24.9091227,21.2664016 L24.6789009,21.1292247 C24.6328566,21.083499 24.5868123,21.083499 24.5407679,21.083499 C24.3565906,21.1292247 24.2184575,21.2664016 24.1263688,21.4493042 L23.8501028,21.9980119 L23.3896594,21.4950298 L20.8572205,18.5685885 L22.9292159,9.69781312 C23.067349,9.28628231 23.067349,8.82902584 22.8831716,8.41749503 C22.7450386,8.14314115 22.4687725,7.96023857 22.1925065,7.91451292 C22.0543734,7.86878728 21.9162404,7.86878728 21.7781074,7.86878728 C20.7651319,7.86878728 20.4888658,9.10337972 20.4888658,9.14910537 C20.4888658,9.19483101 19.3838016,13.5387674 19.0154468,14.9562624 C18.7852251,15.8707753 18.3708261,17.0596421 17.5420279,17.0596421 C16.9434514,17.0596421 16.483008,16.5109344 16.206742,15.4592445 C15.9304759,14.4532803 14.6872787,9.65208748 14.59519,9.28628231 C14.5491456,9.19483101 14.1807909,8.14314115 13.2599041,8.14314115 C13.121771,8.14314115 12.983638,8.14314115 12.845505,8.1888668 C12.1548398,8.37176938 11.7404408,9.10337972 11.9706625,9.78926441 C11.9706625,9.83499006 11.9706625,9.88071571 12.0167068,9.88071571 L13.9045248,17.5168986 C13.9966135,17.7455268 14.4110126,19.0715706 14.5491456,22.500994 C14.6412343,24.3757455 13.5361701,24.8787276 12.9375937,25.1530815 C12.7994606,25.1988072 12.7073719,25.2445328 12.6613276,25.2902584 Z" id="Shape" fill="#080808" fill-rule="nonzero"></path>
                        <path d="M14.2148857,21.8882603 L14.2148857,18.5841584 C14.2148857,17.7241867 13.4800547,17 12.6074428,17 C11.734831,17 11,17.7241867 11,18.5841584 L11,21.0735502 C11,21.2998586 11,21.6166902 11,22.0693069 C11,23.4724187 11.3674155,24.8755304 12.1022465,26.0523338 C12.7452237,27.0028289 13.6637624,27.8175389 14.720082,28.3154173 C16.0519632,28.8132956 17.4297714,29.039604 18.8535065,28.9943423 C19.7261183,24.0155587 16.5112326,21.8882603 14.2148857,21.8882603 Z" id="Path" fill="#FFFFFF"></path>
                        <path d="M18.142806,30 C16.9384956,29.954386 15.7341853,29.7263158 14.6129309,29.2701754 C13.5747324,28.722807 12.7026456,27.9017544 12.0797265,26.8526316 C11.3737515,25.5754386 11,24.0701754 11,22.5649123 C11,22.154386 11,21.8350877 11,21.5614035 L11,19.0526316 C11,17.9122807 11.8305588,17 12.8272294,17 C13.865428,17 14.6959868,17.9122807 14.6959868,19.0526316 L14.6959868,21.9263158 C15.9002971,22.0631579 16.9800236,22.7473684 17.7690545,23.7508772 C18.5165574,24.754386 19.3471163,26.5789474 18.848781,29.5438596 L18.807253,29.8631579 L18.5165574,29.9087719 C18.4335015,29.954386 18.3089177,30 18.142806,30 Z M12.8687574,17.9122807 C12.2873662,17.9122807 11.8305588,18.4140351 11.8305588,19.0526316 L11.8305588,21.5614035 C11.8305588,21.7894737 11.8305588,22.1087719 11.8305588,22.5192982 C11.8305588,23.8421053 12.1627824,25.1649123 12.7857015,26.3052632 C13.3255647,27.2175439 14.0730677,27.9017544 14.9451545,28.4035088 C15.983353,28.8140351 17.0630795,29.0421053 18.142806,29.0421053 C18.4750295,26.6245614 17.8105824,25.1649123 17.1876633,24.2982456 C16.4816883,23.3403509 15.4434898,22.7929825 14.3222353,22.7473684 L13.9069559,22.7473684 L13.9069559,19.0526316 C13.9069559,18.4140351 13.4501486,17.9122807 12.8687574,17.9122807 Z" id="Shape" fill="#080808" fill-rule="nonzero"></path>
                        <path d="M22.6972583,17.0729002 C23.697879,17.3247523 24.2245214,18.164259 23.9085359,18.9617905 L22.6972583,21.9000642 C22.4339371,22.6975956 21.3806522,23.1593243 20.3800315,22.9494476 C19.3794108,22.739571 18.8001041,21.9000642 19.0634254,21.1025327 C19.0634254,21.0605574 19.1160896,21.0185821 19.1160896,20.9766067 L20.3273673,18.038333 C20.6433527,17.2408016 21.6966376,16.8210482 22.6972583,17.0729002 Z" id="Path" fill="#FFFFFF"></path>
                        <path d="M20.9848271,24 C19.8821454,24 19,23.1269643 19,22.0356697 C19,21.8174108 19.0441073,21.5991519 19.0882145,21.4245448 L20.1026817,18.3689199 C20.4555399,17.3212771 21.5582216,16.7538039 22.616796,17.1030182 C23.6753705,17.4522325 24.248765,18.5435271 23.8959068,19.5911699 L22.8814397,22.6467947 C22.616796,23.4761786 21.8669725,24 20.9848271,24 Z M21.9992943,17.8450985 C21.5141143,17.8450985 21.0730416,18.150661 20.9407198,18.6308306 L19.9262526,21.6864555 C19.7498236,22.2975804 20.0585745,22.9087054 20.6319689,23.1269643 C21.2494707,23.3015715 21.8669725,22.996009 22.0434016,22.4285358 L23.0578687,19.372911 C23.2342978,18.761786 22.9255469,18.150661 22.3080452,17.9324021 C22.2639379,17.8450985 22.1316161,17.8450985 21.9992943,17.8450985 Z" id="Shape" fill="#080808" fill-rule="nonzero"></path>
                        <path d="M25.8761796,19.0782122 C26.7281204,19.3472393 27.2014209,20.2439965 26.9174406,21.0959158 L26.30215,22.7549165 C26.1128298,23.6068358 25.2135589,24.1448901 24.314288,23.9655387 C23.4150171,23.7861873 22.8470566,22.934268 23.0363767,22.0375108 C23.0837068,21.9478351 23.0837068,21.8581594 23.1310368,21.7236458 L23.7463275,20.064645 C24.0776378,19.2575636 25.0242387,18.809185 25.8761796,19.0782122 Z" id="Path" fill="#FFFFFF"></path>
                        <path d="M25.1768576,25 C23.9674923,25 23,24.0577889 23,22.8800251 C23,22.6444724 23.0483746,22.4089196 23.0967492,22.2204774 L23.7256192,20.4773869 C24.1126161,19.3467337 25.3219814,18.7342965 26.4829721,19.1111809 C27.6439628,19.4880653 28.2728328,20.7129397 27.8858359,21.7964824 L27.2569659,23.5395729 C26.9667183,24.3875628 26.0959752,25 25.1768576,25 Z M25.7573529,19.8649497 C25.2252322,19.8649497 24.7414861,20.1947236 24.5963622,20.7129397 L23.9674923,22.4560302 C23.7739938,23.1155779 24.1126161,23.7751256 24.7414861,24.0106784 C25.4187307,24.1991206 26.0959752,23.8693467 26.2894737,23.209799 L26.9183437,21.4667085 C27.1118421,20.8071608 26.7732198,20.1476131 26.0959752,19.9120603 C25.999226,19.9120603 25.9024768,19.8649497 25.7573529,19.8649497 Z" id="Shape" fill="#080808" fill-rule="nonzero"></path>
                    </g>
                </g>
            </g>
        </g>
    </g>
</svg>