<?xml version="1.0" encoding="utf-8"?>
<!-- Generator: Adobe Illustrator 19.2.0, SVG Export Plug-In . SVG Version: 6.00 Build 0)  -->
<svg version="1.1" id="Layer_1" xmlns="http://www.w3.org/2000/svg" xmlns:xlink="http://www.w3.org/1999/xlink" x="0px" y="0px"
	 viewBox="0 0 170 170" style="enable-background:new 0 0 170 170;" xml:space="preserve">
<style type="text/css">
	.st0{fill:#FFFFFF;}
	.st1{fill:#222222;}
	.st2{fill:#FEBB16;}
	.st3{fill:#FDB503;}
</style>
<title>internet_marketing_icon</title>
<desc>Created with Sketch.</desc>
<circle id="Oval" class="st0" cx="85" cy="85" r="85"/>
<path id="Combined-Shape" class="st1" d="M82.6,120v-5H44c-3.3,0-6-2.7-6-6v-4.3h-0.1v-2H38v-46h-0.1v-2H38c0.2-3.2,2.8-5.7,6-5.7
	h80.8c3.3,0,6,2.7,6,6v54c0,3.3-2.7,6-6,6H84.6v5h10v2h-23v-2H82.6z M40,102.7h88.8v-46H40V102.7z M40,104.7v4.3c0,2.2,1.8,4,4,4
	h80.8c2.2,0,4-1.8,4-4v-4.3H40z M40,54.7h88.8c-0.2-2.1-1.9-3.7-4-3.7H44C41.9,51,40.2,52.6,40,54.7z"/>
<path id="Fill-1" class="st1" d="M92.5,93.6c-0.2-2.2,0.3-2-2.2-2c-0.2,0-0.3-0.1-0.5,0c-0.3,0.2-0.7,0.4-0.7,0.7
	c-0.1,0.9-0.1,1.8,0,2.6c0,0.2,0.3,0.6,0.4,0.6c0.8,0,1.7,0.2,2.5-0.1C92.4,95.2,92.4,94.2,92.5,93.6z M97,95.4
	c0.3,0,0.6,0.1,0.8,0.1c2.8,0,2.3,0.3,2.3-2.2c0-1.7,0-3.5,0-5.2h-3.2c0,2.2,0,4.3,0,6.3C96.9,94.7,97,95,97,95.4z M104.6,89.7
	c0,1.3,0,2.5,0,3.8c0,2.2-0.3,1.9,2,2c1,0,1.3-0.3,1.3-1.3c-0.1-2.7,0-5.4,0-8.1c0-2.4,0.5-2.2-2.3-2.2c-0.7,0-0.9,0.3-0.9,0.9
	C104.6,86.5,104.6,88.1,104.6,89.7z M112.3,78.5v1.3c0,4.7,0,9.4,0,14.1c0,1.5,0,1.5,1.5,1.5c0.2,0,0.4,0,0.6,0
	c0.9,0.1,1.2-0.2,1.2-1.2c0-4.9,0-9.9,0-14.8c0-0.3,0-0.6-0.1-1H112.3z M117.3,95.4c0.7,0,1.3,0,1.8,0.1c0.3,0.1,0.7,0.5,0.7,0.8
	c0,0.3-0.4,0.6-0.8,0.8c-0.3,0.1-0.7,0-1,0c-10.4,0-20.8,0-31.2,0c-0.7,0-1.8,0.4-1.9-0.7c-0.1-1.2,1.1-0.7,1.7-0.9
	c0.3-0.1,0.7-0.5,0.7-0.9c0.1-0.9,0-1.9,0-2.8c0-1.2,0.7-1.8,1.9-1.9c0.9,0,1.9,0,2.8,0c1.3,0,2,0.7,2,2c0,0.9,0,1.9,0,2.8
	c0,0.2,0.3,0.5,0.5,0.7c0.2-0.2,0.5-0.5,0.5-0.7c0-2.1,0-4.2,0-6.3c0-1.6,0.6-2.2,2.2-2.2c0.8,0,1.5,0,2.3,0c1.5,0,2.2,0.7,2.2,2.2
	c0,2,0,4,0,6c0,0.3,0.3,0.6,0.5,1c0.2-0.3,0.5-0.6,0.5-1c0-3.2,0-6.5,0-9.7c0-1.9,0.6-2.5,2.5-2.5c0.5,0,0.9,0,1.4,0
	c2.4,0,2.8,0.4,2.8,2.7c0,3,0,6,0,9c0,0.3-0.1,0.6,0,0.9c0.1,0.2,0.3,0.5,0.5,0.5c0.2,0,0.5-0.2,0.5-0.4c0.1-0.3,0-0.7,0-1
	c0-4.9,0-9.7,0-14.6c0-2.1,0.5-2.6,2.6-2.6c0.6,0,1.2,0,1.9,0c1.5,0,2.2,0.6,2.2,2.2c0,2.1,0,4.2,0,6.3c0,2.9,0,5.9,0,8.8
	C117.2,94.4,117.3,94.9,117.3,95.4z"/>
<path id="Fill-4" class="st2" d="M103.6,72.1c-1.4-0.3-2.8-0.6-4.2-1c-0.5-0.1-0.8-0.5-1.2-0.8c0.3-0.4,0.5-0.9,0.9-1.2
	c3.6-2.2,7.2-4.4,10.7-6.6c1.2-0.7,1.5-0.6,2,0.7c1.3,3.4,2.7,6.7,4,10.1c0.2,0.4,0.3,1.2,0,1.5c-0.2,0.3-1,0.2-1.4,0.1
	c-1.2-0.2-2.5-1-3.6-0.7c-1,0.3-1.6,1.7-2.4,2.5c-5.4,5.6-11.9,9.1-19.8,9.8c-0.2,0-0.4,0.1-0.6,0c-0.4-0.2-0.7-0.5-1.1-0.8
	c0.3-0.3,0.6-0.8,1-0.8c1.5-0.3,3-0.3,4.4-0.7c5.4-1.3,10.2-3.9,14.1-8c0.9-1,1.7-2.1,2.4-3.2c0.5-0.7,1-1,1.8-0.8
	c0.9,0.3,1.8,0.5,3,0.7c-1.2-3.1-2.3-5.9-3.5-8.8c-3,1.9-5.9,3.6-9.1,5.6c1.3,0.3,2.3,0.5,3.3,0.8c1.5,0.3,1.7,0.7,1,2
	c-3.2,5.7-8.1,9.2-14.4,10.9c-0.6,0.2-1.4,0.3-1.4-0.6c0-0.3,0.6-0.9,1-1.1c4.9-1.3,8.9-3.9,12-8c0.3-0.3,0.5-0.7,0.7-1.1
	C103.5,72.5,103.5,72.3,103.6,72.1"/>
<path id="Fill-1_1_" class="st1" d="M53.7,89.8c3.2-2.9,6.3-5.6,9.3-8.4c0.2-0.2,0.3-0.6,0.3-0.9c0-3.9,0-7.8,0-11.6
	c0-0.2-0.1-0.3-0.2-0.6c-5,0.7-8.7,3.1-10.9,7.6C50,80.7,50.6,85.3,53.7,89.8z M55.1,91.2c3.4,3.7,9.4,4.8,14.3,2.8
	c4.6-1.9,8.2-6.9,8-11.2c-0.1,0-0.2-0.1-0.2-0.1c-4,0-8,0-12,0c-0.3,0-0.6,0.1-0.8,0.3C61.3,85.7,58.3,88.4,55.1,91.2z M65.3,80.6
	c4.3,0,8.4,0,12.5,0c1.6,0,2,0.4,1.8,2c-0.8,8.6-7.5,14.6-16,14.3c-7.5-0.2-14.2-6.7-14.6-14.2c-0.4-8.1,5.3-15.3,13-16.2
	c3.3-0.4,3.3-0.4,3.3,2.8V80.6z"/>
<path id="Fill-4_1_" class="st2" d="M69.6,67.5c1-0.9,1.8-1.8,2.9-2.8c-1.1-0.2-2-0.3-2.9-0.5V67.5z M81.9,76.5
	c-0.2-1.1-0.4-1.9-0.5-2.5c-1,0.8-1.9,1.6-3.1,2.5H81.9z M71.2,76.6c1,0,1.7,0,2.4,0c0.7-0.1,1.5,0,2-0.4c1.7-1.5,3.3-3.1,4.9-4.7
	c-0.7-1-1.3-1.8-1.7-2.4C76.3,71.6,73.8,74,71.2,76.6z M69.6,74.8c2.6-2.6,5-5,7.6-7.5c-0.8-0.6-1.7-1.1-2.6-1.7
	c-1.6,1.6-3.1,3.2-4.6,4.7c-0.2,0.2-0.4,0.5-0.4,0.8C69.5,72.3,69.6,73.5,69.6,74.8z M67.6,70.4c0-2.2,0-4.4,0-6.6
	c0-1.1,0.4-1.5,1.6-1.5c7,0,13.8,6.1,14.6,13.1c0.3,3.2,0.3,3.2-2.8,3.2c-3.8,0-7.7,0-11.5,0c-1.6,0-1.8-0.2-1.8-1.7
	C67.6,74.7,67.6,72.5,67.6,70.4z"/>
<circle id="Oval_1_" class="st2" cx="126" cy="100" r="19"/>
<path id="Fill-1_2_" class="st0" d="M113.8,108.1c1-0.6,1.8-1,2.7-1.5c-1-0.7-1.9-1.3-2.9-2C113.7,105.8,113.7,106.8,113.8,108.1
	 M115.4,108.9c-0.6,0.3-1.1,0.6-1.7,0.9c-0.6,0.4-1.2,0.2-1.3-0.5c-0.2-2.1-0.4-4.2-0.4-6.3c0-0.7,0.6-1,1.1-0.6
	c1.8,1.1,3.5,2.3,5.2,3.5c0.5,0.4,0.4,0.9-0.1,1.3c-0.4,0.3-0.9,0.6-1.5,0.9c2,2.4,4.4,3.8,7.4,4.3c2.9,0.5,5.7-0.1,8.3-1.6
	c0.1,1.7,0.1,1.7-1.3,2.3c-5.1,2.1-11.1,0.8-14.9-3.3C116,109.6,115.7,109.3,115.4,108.9"/>
<path id="Fill-4_2_" class="st0" d="M125.8,89.2c1-0.5,2-1,3.1-1.5c-1.2-0.6-2.1-1-3.1-1.5V89.2z M124.3,87.1c0-0.7,0-1.3,0-1.9
	c0-0.9,0.5-1.2,1.3-0.8c1.8,0.8,3.5,1.7,5.3,2.6c0.8,0.4,0.8,1.1,0,1.5c-1.7,0.9-3.5,1.8-5.3,2.6c-0.8,0.4-1.3,0.1-1.3-0.8
	c0-0.5,0-0.9,0-1.4c-5-0.1-9.3,5-10.3,12c-1.4-0.5-1.5-0.7-1.3-2.3c0.8-5.3,5-10,10.3-11.2C123.4,87.3,123.8,87.2,124.3,87.1z"/>
<path id="Fill-7" class="st0" d="M138.8,107.5c-1-0.6-1.8-1-2.8-1.6v3.5C136.9,108.7,137.8,108.1,138.8,107.5 M137.4,104.9
	c1.1-2.9,1.1-5.7,0-8.6c-1-2.8-3-4.9-5.6-6.4c1.5-0.9,1.5-0.9,2.8,0.1c4.4,3.6,6.1,9.3,4.4,14.7c-0.2,0.8-0.2,1.2,0.6,1.5
	c0.2,0.1,0.4,0.2,0.5,0.3c1.1,0.7,1.1,1.1,0.1,1.8c-1.5,1-3,2-4.5,3c-0.3,0.2-0.9,0.4-1.1,0.2c-0.3-0.2-0.4-0.7-0.4-1.1
	c0.1-1.8,0.2-3.6,0.4-5.5c0.1-1,0.5-1.2,1.4-0.8C136.5,104.4,136.9,104.6,137.4,104.9"/>
<path id="Fill-12" class="st0" d="M123.3,98.6c-0.6,0-1.3,0.3-1.5-0.7c0-0.2-0.5-0.4-0.7-0.4c-0.3,0.1-0.6,0.4-0.6,0.7
	c0,0.5,0.1,1,0.4,1.3c0.3,0.3,0.8,0.4,1.3,0.6c1.4,0.4,1.5,2,1.1,3.8c-0.3,1.1-1.7,1.6-3,1.1c-1-0.3-1.4-0.9-1.4-2.3h1.3
	c0.1,0.2,0.1,0.5,0.2,0.7c0.3,0.6,1.1,0.6,1.4,0.1c0.4-0.7,0.1-1.8-0.6-2.2c-0.3-0.1-0.6-0.3-0.9-0.4c-1.4-0.5-1.6-1.7-1.2-3.3
	c0.3-1.2,1.6-1.7,2.9-1.3C123,96.6,123.4,97.4,123.3,98.6"/>
<path id="Fill-14_1_" class="st0" d="M125.8,101.3v2.4c0.7,0,1.4,0.1,2.2,0.1c0,0.4,0,0.7,0.1,1.2c-1.1,0-2.2,0-3.3,0
	c-0.2,0-0.5-0.4-0.5-0.6c0-2.7,0-5.3,0-8.1h3.7v1.1c-0.7,0-1.4,0.1-2.1,0.1v2.2c1.9,0.4,1.9,0.4,1.7,1.4c-0.2,0-0.5,0-0.8,0
	C126.5,101.3,126.2,101.3,125.8,101.3"/>
<path id="Rectangle-Copy-5" class="st0" d="M32.6,53H67c2,0,3.6,1.6,3.6,3.6v15.3c0,2-1.6,3.6-3.6,3.6H32.6c-2,0-3.6-1.6-3.6-3.6
	V56.6C29,54.6,30.6,53,32.6,53z"/>
<path id="Rectangle-Copy-5_1_" class="st1" d="M32.6,55c-0.9,0-1.6,0.7-1.6,1.6v15.3c0,0.9,0.7,1.6,1.6,1.6H67
	c0.9,0,1.6-0.7,1.6-1.6V56.6c0-0.9-0.7-1.6-1.6-1.6H32.6z M32.6,53H67c2,0,3.6,1.6,3.6,3.6v15.3c0,2-1.6,3.6-3.6,3.6H32.6
	c-2,0-3.6-1.6-3.6-3.6V56.6C29,54.6,30.6,53,32.6,53z"/>
<path id="WWW" class="st3" d="M42.5,68h-2.3l-0.7-3.1c0-0.1-0.1-0.4-0.2-0.8c-0.1-0.4-0.1-0.7-0.2-1c0,0.2-0.1,0.5-0.1,0.8
	c-0.1,0.3-0.1,0.6-0.2,0.9s-0.3,1.3-0.7,3.2h-2.3l-1.8-7.1H36l0.8,3.6c0.2,0.8,0.3,1.4,0.4,1.9c0-0.3,0.1-0.8,0.2-1.4s0.2-1,0.3-1.4
	l0.6-2.7h1.8l0.6,2.7c0.1,0.4,0.2,0.9,0.3,1.5s0.2,1,0.2,1.3c0-0.4,0.2-1,0.3-1.9l0.8-3.6h1.9L42.5,68z M52.9,68h-2.3l-0.7-3.1
	c0-0.1-0.1-0.4-0.2-0.8c-0.1-0.4-0.1-0.7-0.2-1c0,0.2-0.1,0.5-0.1,0.8c-0.1,0.3-0.1,0.6-0.2,0.9S49,66.1,48.6,68h-2.3l-1.8-7.1h1.9
	l0.8,3.6c0.2,0.8,0.3,1.4,0.4,1.9c0-0.3,0.1-0.8,0.2-1.4s0.2-1,0.3-1.4l0.6-2.7h1.8l0.6,2.7c0.1,0.4,0.2,0.9,0.3,1.5s0.2,1,0.2,1.3
	c0-0.4,0.2-1,0.3-1.9l0.8-3.6h1.9L52.9,68z M63.3,68H61l-0.7-3.1c0-0.1-0.1-0.4-0.2-0.8c-0.1-0.4-0.1-0.7-0.2-1
	c0,0.2-0.1,0.5-0.1,0.8c-0.1,0.3-0.1,0.6-0.2,0.9S59.4,66.1,59,68h-2.3l-1.8-7.1h1.9l0.8,3.6c0.2,0.8,0.3,1.4,0.4,1.9
	c0-0.3,0.1-0.8,0.2-1.4s0.2-1,0.3-1.4l0.6-2.7h1.8l0.6,2.7c0.1,0.4,0.2,0.9,0.3,1.5s0.2,1,0.2,1.3c0-0.4,0.2-1,0.3-1.9l0.8-3.6H65
	L63.3,68z"/>
<path class="st0" d="M133.3,97.9c-0.1-1.1-1-1.8-2.1-1.8c-1.1,0-2,0.6-2.2,1.7c-0.2,0.9-0.2,1.9-0.3,2.8c0.1,1,0.1,2,0.3,2.9
	c0.2,1.1,1.1,1.7,2.2,1.7c1.1,0,2-0.7,2.1-1.8C133.4,101.6,133.4,99.7,133.3,97.9z M131.8,103.1c-0.1,0.3-0.5,0.5-0.8,0.7
	c-0.2-0.3-0.7-0.5-0.7-0.8c-0.1-1.5-0.1-3.1,0-4.6c0-0.3,0.5-0.6,0.8-0.9c0.3,0.3,0.7,0.5,0.8,0.9c0.2,0.7,0.1,1.5,0.2,2.5
	C132,101.5,132,102.3,131.8,103.1z"/>
</svg>
