<?xml version="1.0" encoding="utf-8"?>
<!-- Generator: Adobe Illustrator 19.2.0, SVG Export Plug-In . SVG Version: 6.00 Build 0)  -->
<svg version="1.1" id="Layer_1" xmlns="http://www.w3.org/2000/svg" xmlns:xlink="http://www.w3.org/1999/xlink" x="0px" y="0px"
	 viewBox="0 0 170 170" style="enable-background:new 0 0 170 170;" xml:space="preserve">
<style type="text/css">
	.st0{fill:#FFFFFF;}
	.st1{fill:#222222;}
	.st2{fill:#FDB503;}
	.st3{fill:none;stroke:#FDB503;stroke-width:2;stroke-linecap:square;}
	.st4{fill:#FEBB16;}
</style>
<title>web_development_icon</title>
<desc>Created with Sketch.</desc>
<circle id="Oval" class="st0" cx="85" cy="85" r="85"/>
<path id="Combined-Shape" class="st1" d="M84.6,120v-5H45.2c-3.3,0-6-2.7-6-6V55c0-3.3,2.7-6,6-6H126c3.3,0,6,2.7,6,6v54
	c0,3.3-2.7,6-6,6H86.6v5h10v2h-23v-2H84.6z M41.2,102.4H130V56.7H41.2V102.4z M41.2,104.4v4.6c0,2.2,1.8,4,4,4H126c2.2,0,4-1.8,4-4
	v-4.6H41.2z M41.2,54.7H130c-0.2-2.1-1.9-3.7-4-3.7H45.2C43.1,51,41.4,52.6,41.2,54.7z"/>
<polygon id="Line-Copy-4" class="st2" points="59.9,63.3 59.9,65.3 45.3,65.3 45.3,63.3 "/>
<path id="Line-Copy-11" class="st3" d="M54,79.6h-7.6"/>
<polygon id="Line-Copy-7" class="st1" points="68.3,70.9 68.3,72.9 45,72.9 45,70.9 "/>
<polygon id="Line-Copy-12" class="st1" points="68.3,85.9 68.3,87.9 45,87.9 45,85.9 "/>
<polygon id="Line-Copy-13" class="st2" points="71.8,93.1 71.8,95.1 44.9,95.1 44.9,93.1 "/>
<polygon id="Line-Copy-8" class="st1" points="108.4,70.8 108.4,72.8 87.8,72.8 87.8,70.8 "/>
<polygon id="Line-Copy-5" class="st2" points="71.4,62.8 71.4,64.8 62.8,64.8 62.8,62.8 "/>
<polygon id="Line-Copy-6" class="st2" points="104.9,63.3 104.9,65.3 75.3,65.3 75.3,63.3 "/>
<polygon id="Line-Copy-15" class="st2" points="79,79.4 79,81.4 57.4,81.2 57.4,79.2 "/>
<polygon id="Line-Copy-18" class="st2" points="94.9,79.3 94.9,81.3 81.3,81.3 81.3,79.3 "/>
<polygon id="Line-Copy-9" class="st1" points="77.1,71.1 77.1,73.1 71.1,73.1 71.1,71.1 "/>
<polygon id="Line-Copy-16" class="st1" points="77.1,86.2 77.1,88.2 71.1,88.2 71.1,86.2 "/>
<polygon id="Line-Copy-10" class="st1" points="86.1,71.1 86.1,73.1 80.1,73.1 80.1,71.1 "/>
<path id="Rectangle" class="st0" d="M28.6,66H53c2,0,3.6,1.6,3.6,3.6v35.3c0,2-1.6,3.6-3.6,3.6H28.6c-2,0-3.6-1.6-3.6-3.6V69.6
	C25,67.6,26.6,66,28.6,66z"/>
<path id="Rectangle_1_" class="st1" d="M28.6,68c-0.9,0-1.6,0.7-1.6,1.6v35.3c0,0.9,0.7,1.6,1.6,1.6H53c0.9,0,1.6-0.7,1.6-1.6V69.6
	c0-0.9-0.7-1.6-1.6-1.6H28.6z M28.6,66H53c2,0,3.6,1.6,3.6,3.6v35.3c0,2-1.6,3.6-3.6,3.6H28.6c-2,0-3.6-1.6-3.6-3.6V69.6
	C25,67.6,26.6,66,28.6,66z"/>
<path id="Fill-1" class="st4" d="M40.6,86c-2.2,0.1-4.5-0.2-6.6-0.8c-1.1-0.3-2.1-0.7-3.1-1.5c-0.7-0.5-1.1-1.2-1-2.2c0-1,0-2,0-3
	c0-1,0.3-1.6,1-2.1c1-0.8,2.1-1.2,3.2-1.5c2.8-0.8,5.6-1,8.5-0.8c1.9,0.1,3.7,0.4,5.5,1.1c1,0.3,1.9,0.8,2.7,1.6
	c0.4,0.4,0.6,0.9,0.6,1.5c0,1.1,0,2.2,0,3.3c0,1-0.3,1.6-1,2.1c-0.7,0.6-1.5,1-2.3,1.2c-1.8,0.6-3.7,1-5.6,1.1
	C41.9,86,41.3,86,40.6,86"/>
<path id="Fill-4" class="st4" d="M30.1,91.4c1.1,1.6,2.6,2,4.1,2.5c2.5,0.7,5,0.9,7.6,0.8c2.2-0.1,4.3-0.4,6.4-1.1
	c0.6-0.2,1.2-0.5,1.8-0.8c0.5-0.3,1-0.7,1.3-1.3c0,0,0.1,0,0.1,0c0,0.3,0.1,0.5,0.1,0.8c0,1.2,0,2.5,0,3.7c0,0.8-0.4,1.3-0.9,1.7
	c-1,0.8-2.1,1.2-3.2,1.5c-2.8,0.8-5.6,0.9-8.5,0.8c-1.9-0.1-3.7-0.4-5.5-1.1c-1-0.3-1.9-0.7-2.6-1.5c-0.4-0.4-0.6-0.9-0.6-1.6
	c0-1.2,0-2.3,0-3.5C29.9,92,30,91.8,30.1,91.4"/>
<path id="Fill-6" class="st4" d="M51.2,84.5c0,0.3,0.1,0.5,0.1,0.8c0,1.1,0,2.2,0,3.3c0,0.9-0.3,1.5-0.9,2c-1,0.8-2.2,1.2-3.4,1.6
	c-2.5,0.7-5.1,0.9-7.7,0.8c-1.8-0.1-3.7-0.3-5.4-0.9c-1-0.3-2-0.7-2.9-1.4c-0.7-0.5-1.1-1.2-1-2.2c0.1-1.1,0-2.1,0-3.2
	c0-0.3,0.1-0.5,0.1-0.9c0.2,0.2,0.2,0.4,0.3,0.5c0.6,0.7,1.4,1.1,2.1,1.5c1.6,0.7,3.3,1,5,1.2c1.6,0.2,3.2,0.2,4.8,0.1
	c2.1-0.1,4.3-0.5,6.3-1.3c0.8-0.3,1.5-0.7,2.1-1.4C51,84.8,51,84.7,51.2,84.5C51.2,84.5,51.2,84.5,51.2,84.5"/>
<path id="Rectangle-Copy-61" class="st2" d="M106.6,66h30.1c2,0,3.6,1.6,3.6,3.6v24.5c0,2-1.6,3.6-3.6,3.6h-30.1
	c-2,0-3.6-1.6-3.6-3.6V69.6C103,67.6,104.6,66,106.6,66z"/>
<path id="Fill-1_1_" class="st0" d="M111.4,82.5c0.1,0.1,0.2,0.2,0.3,0.3c1.3,1.4,2.7,2.9,4,4.3c0.3,0.4,0.4,0.8,0.2,1.3
	c-0.2,0.4-0.6,0.7-1,0.6c-0.2,0-0.5-0.2-0.7-0.3c-1.7-1.8-3.3-3.6-4.9-5.4c-0.4-0.5-0.4-1.1,0-1.6c1.6-1.8,3.3-3.6,4.9-5.4
	c0.4-0.5,1-0.5,1.4,0c0.4,0.4,0.4,1.1,0,1.5c-1.3,1.4-2.6,2.9-4,4.3C111.6,82.3,111.5,82.4,111.4,82.5"/>
<path id="Fill-4_1_" class="st0" d="M131.6,82.5c-0.1-0.1-0.2-0.2-0.2-0.3c-1.3-1.4-2.7-2.9-4-4.3c-0.3-0.4-0.4-0.8-0.2-1.3
	c0.2-0.4,0.6-0.7,1-0.6c0.2,0,0.5,0.1,0.6,0.3c1.7,1.8,3.3,3.6,5,5.4c0.4,0.5,0.4,1.1,0,1.5c-1.7,1.8-3.3,3.6-5,5.4
	c-0.4,0.4-1,0.4-1.4,0c-0.4-0.4-0.4-1.1,0-1.5c1.3-1.5,2.7-2.9,4-4.4C131.4,82.7,131.5,82.6,131.6,82.5"/>
<path id="Fill-6_1_" class="st0" d="M126,77.1c-0.1,0.2-0.1,0.4-0.2,0.6c-2,3.6-4,7.2-6,10.8c-0.2,0.4-0.6,0.6-1,0.6
	c-0.4-0.1-0.7-0.4-0.8-0.8c-0.1-0.4,0-0.7,0.2-1c1.9-3.4,3.8-6.9,5.7-10.3c0.1-0.2,0.2-0.3,0.3-0.5c0.3-0.4,0.7-0.5,1.1-0.4
	C125.7,76.2,126,76.6,126,77.1"/>
</svg>
