<?xml version="1.0" encoding="UTF-8"?>
<svg width="16px" height="22px" viewBox="0 0 16 22" version="1.1" xmlns="http://www.w3.org/2000/svg" xmlns:xlink="http://www.w3.org/1999/xlink">
    <!-- Generator: sketchtool 52.3 (67297) - http://www.bohemiancoding.com/sketch -->
    <title>38C4870F-E6E0-4205-890A-570342247F85</title>
    <desc>Created with sketchtool.</desc>
    <g id="Page-1" stroke="none" stroke-width="1" fill="none" fill-rule="evenodd">
        <g id="Contact-1920" transform="translate(-1411.000000, -844.000000)" fill="#9B9B9B" fill-rule="nonzero">
            <g id="3-Blocks" transform="translate(0.000000, 780.000000)">
                <g id="Address3" transform="translate(1279.000000, 0.000000)">
                    <path d="M140,64 C142.121732,63.9999987 144.156564,64.854686 145.656856,66.37604 C147.157147,67.8973941 148.000001,69.9607934 148,72.1123129 C148,77.989568 140.742442,86 140,86 C139.257558,86 132,77.989568 132,72.1123129 C131.999999,69.9607934 132.842853,67.8973941 134.343144,66.37604 C135.843436,64.854686 137.878268,63.9999987 140,64 Z M140,76 C142.209139,76 144,74.209139 144,72 C144,69.790861 142.209139,68 140,68 C137.790861,68 136,69.790861 136,72 C136,74.209139 137.790861,76 140,76 Z" id="map_marker1-copy-2"></path>
                </g>
            </g>
        </g>
    </g>
</svg>