<?xml version="1.0" encoding="utf-8"?>
<!-- Generator: Adobe Illustrator 19.2.0, SVG Export Plug-In . SVG Version: 6.00 Build 0)  -->
<svg version="1.1" id="Layer_1" xmlns="http://www.w3.org/2000/svg" xmlns:xlink="http://www.w3.org/1999/xlink" x="0px" y="0px"
	 width="550px" height="450px" viewBox="0 0 550 450" style="enable-background:new 0 0 550 450;" xml:space="preserve">
<style type="text/css">
	.st0{opacity:0.5;fill:url(#SVGID_1_);enable-background:new    ;}
	.st1{opacity:0.5;fill:url(#Path-2_2_);enable-background:new    ;}
	.st2{opacity:0.2;fill:#201B9B;enable-background:new    ;}
	.st3{fill:none;stroke:url(#Shape_1_);stroke-width:2;stroke-miterlimit:10;}
	.st4{fill:#203B72;}
	.st5{fill:url(#Path_1_);}
	.st6{fill:url(#Path_2_);}
	.st7{fill:url(#Path_4_);}
	.st8{fill:#FEB9B9;}
	.st9{fill:none;stroke:url(#Shape_12_);stroke-width:2;stroke-miterlimit:10;}
	.st10{fill:#B9DBF4;}
	.st11{fill:#FFFFFF;}
	.st12{fill:url(#Shape_13_);}
	.st13{fill:url(#Oval_1_);}
	.st14{fill:url(#Oval_2_);}
	.st15{fill:#1670BE;}
	.st16{fill:url(#Oval_3_);}
	.st17{fill:url(#Oval_4_);}
	.st18{fill:url(#Oval_5_);}
	.st19{fill:#0A1147;}
	.st20{fill:none;stroke:#B9DBF4;stroke-width:2;}
	.st21{fill:url(#Path_5_);}
	.st22{fill:url(#Oval_6_);}
	.st23{fill:url(#Path_6_);}
	.st24{fill:url(#Path_7_);}
	.st25{fill:url(#Shape_18_);}
	.st26{fill:url(#Path_8_);}
</style>
<linearGradient id="SVGID_1_" gradientUnits="userSpaceOnUse" x1="446.3333" y1="216.4156" x2="549.9412" y2="216.4156" gradientTransform="matrix(1 0 0 -1 0 450)">
	<stop  offset="0" style="stop-color:#EF78FF"/>
	<stop  offset="1" style="stop-color:#8FDFFF"/>
</linearGradient>
<path class="st0" d="M546.8,228.2c13.7,64.6-20,63.8-51.1,60.6s-57-30.7-47.3-58.8C458.2,201.9,507,127.8,546.8,228.2z"/>
<linearGradient id="Path-2_2_" gradientUnits="userSpaceOnUse" x1="36.9012" y1="-25.021" x2="36.047" y2="-25.8592" gradientTransform="matrix(580.3109 -60.9931 -60.1682 -572.4626 -22397.6406 -12091.8057)">
	<stop  offset="0" style="stop-color:#EF78FF"/>
	<stop  offset="1" style="stop-color:#8FDFFF"/>
</linearGradient>
<path id="Path-2_1_" class="st1" d="M159,222.9c0,62.7-229.9,13.4-136.1,141.3c43.6,59.5,183.6,84.5,305.4,84.8
	c134.1,0.4,246.3-29.7,183.4-89.1c-97.9-92.6-291.8-52.6-147.6-114.2C400.8,230,469,165.3,492.7,141.1
	C625.8,5.5,449.9-12.3,300.1,12.8C76,48,28,123,22.2,184.2C15,267.1,159,160.2,159,222.9z"/>
<ellipse id="Oval_17_" class="st2" cx="253.4" cy="408.4" rx="107.7" ry="9.5"/>
<linearGradient id="Shape_1_" gradientUnits="userSpaceOnUse" x1="113.8047" y1="308.4962" x2="330.5183" y2="308.4962" gradientTransform="matrix(1 0 0 -1 0 450)">
	<stop  offset="0" style="stop-color:#1F1A9A"/>
	<stop  offset="0.9983" style="stop-color:#02F0F4"/>
</linearGradient>
<path id="Shape_17_" class="st3" d="M293.4,90.4c0.5,0.5,1.8,1,2.6,0.8c3.5-1,6.7-2.2,10.1-3.5c7.4-2.7,15.3,2.7,17.3,8.1
	c1.8,4.9,3.3,9.7,5.2,14.4c3.3,7.9-2.1,16.6-9.4,18.4c-2.7,0.7-5.5,1.7-8.1,2.9c-0.9,0.4-1.7,1.6-1.8,2.6c-0.1,2.1,0.5,4.3,0.4,6.5
	c-0.3,5.1-0.8,10.3-1.2,15.4c-0.1,0.6,0.4,1.7,0.9,1.9c2.8,1.4,5.8,2.7,8.6,3.9c6.9,2.9,10.7,9.5,8.4,16.6c-2.2,6.6-5.1,13.2-8.9,19
	c-2.6,4.2-7.4,6.6-12.8,4.9c-4.4-1.3-8.7-3.2-12.9-4.9c-1.4-0.5-2.1-0.4-3.3,0.7c-4.5,4.5-9.1,8.9-13.9,13c-2,1.7-3.6,2.8-1.8,5.7
	c0.9,1.4,1.2,3.3,1.9,4.9c4.7,11.2-0.6,18.2-7.4,20.8c-5.1,2-10.3,4.3-15.6,5.6c-5.8,1.5-12.1,0.2-15.8-7.1
	c-1.4-2.7-2.6-5.8-3.5-8.9c-0.8-2.7-2-3.7-5-3.8c-6.6-0.1-13.2-0.8-19.9-0.9c-0.9,0-2.1,1.2-2.7,1.9c-1.6,2.9-2.7,6.1-4.4,9
	c-0.9,1.6-1.9,3.2-3.5,4.3c-5,4.2-10.5,4-16.1,1.3c-3.8-1.8-7.6-3.3-11.4-5c-5.6-2.7-10.3-7.8-8.6-15.8c0.9-3.8,2.4-7.5,4.3-11
	c1.3-2.6,0.6-3.8-1.2-5.6c-5-5.1-10-10.4-15.1-15.7c-3.4,1.2-7.2,2.7-11.2,3.9c-7.8,2.4-14.5-1.6-17.1-7.8
	c-1.9-4.9-3.5-9.8-5.3-14.7c-2.7-7.7,1.1-15.8,9-18.2c3-0.9,5.9-2.2,8.9-3.5c0.5-0.3,1.2-1.2,1.2-1.9c0.4-6.9,0.7-13.9,1.2-20.8
	c0.2-1.9-0.4-3.1-2.4-3.9c-3.1-1.2-6.3-2.5-9.2-4.1c-6.6-3.5-9-11.6-5.8-18.6c1.9-4.2,3.8-8.2,5.6-12.5c2.7-6.2,8.1-9.8,14.6-8.9
	c3.2,0.4,6.4,2,9.4,3.5c5.6,2.7,5.6,2.7,9.6-1.9c0.4-0.4,0.7-0.7,1.1-1.1c3.8-3.3,7.7-6.6,11.5-9.8c1.3-1.2,1.9-2.3,1.2-4.2
	c-1.2-2.7-2.1-5.7-3.1-8.6c-2.7-7.9,0.7-15.1,8.5-18.2c4.4-1.7,8.9-3.4,13.3-4.9c7.4-2.4,15.3-0.2,18.5,7.7c1.2,2.7,2.4,5.5,3.1,8.3
	c0.7,2.6,1.9,3.1,4.5,3.2c6.8,0.2,13.6,0.6,20.5,0.9c0.5,0,1.6-0.5,1.8-1c1.3-2.8,2.5-5.8,3.8-8.7c3-6.5,9.9-11.3,17.6-8.3
	c5.3,2.1,10.7,4.3,15.8,7c6.4,3.5,9.6,10,6.6,17.7c-1.5,3.8-3.3,7.6-4.8,10.9C283.1,79.1,288.1,84.8,293.4,90.4z M276.4,141.8
	c0-30.3-22.7-51.9-49.1-54.1c-35.2-2.9-57.9,24.9-59.2,50.4c-1.6,33,24.5,57.8,54,57.4C251.9,195.6,276.5,171.6,276.4,141.8z"/>
<path id="Path_91_" class="st4" d="M220.4,173.3c-3.9-5.4-6.8-0.4-7.4,1.5c-1.3,4.6-1.1,9.8,0.5,14.8c2.6,8,12.9,16.6,12.9,16.6
	l4.6-16.8L220.4,173.3z"/>
<linearGradient id="Path_1_" gradientUnits="userSpaceOnUse" x1="36.167" y1="-26.0012" x2="37.2265" y2="-25.9958" gradientTransform="matrix(42.4 0 0 171.5 -1359.5997 4784.2969)">
	<stop  offset="0" style="stop-color:#1F1A9A"/>
	<stop  offset="0.9983" style="stop-color:#02F0F4"/>
</linearGradient>
<polygon id="Path_90_" class="st5" points="181.8,276.1 175.4,391.7 188.2,393.8 209,257.4 183.2,258.8 "/>
<linearGradient id="Path_2_" gradientUnits="userSpaceOnUse" x1="36.9172" y1="-26.016" x2="35.9714" y2="-26.0567" gradientTransform="matrix(69.8 0 0 157.7 -2377.3999 4423.1108)">
	<stop  offset="0" style="stop-color:#1F1A9A"/>
	<stop  offset="0.9983" style="stop-color:#02F0F4"/>
</linearGradient>
<polygon id="Path_89_" class="st6" points="157.2,255.6 150.4,324.8 196.9,380.8 205.8,369.7 171.9,316.4 181.4,283.1 183.2,259.4 
	"/>
<linearGradient id="Path_4_" gradientUnits="userSpaceOnUse" x1="36.3353" y1="-26.2571" x2="36.8674" y2="-25.4766" gradientTransform="matrix(79.0771 0 0 126.2393 -2704.0095 3485.3135)">
	<stop  offset="0" style="stop-color:#FFE610"/>
	<stop  offset="1" style="stop-color:#FF4000"/>
</linearGradient>
<path id="Path_88_" class="st7" d="M157.2,255.6l1.6-28.8l-1.2-35l-1.2-9.9c-0.9-7.7,3.7-15.1,11.1-17.7l13.5-3.8l17,2.6l12.9,3.7
	c5.6,2.3,8.9,5,8.1,11.1l-10.8,60.5l0.9,19.3c0,0-14.3,4.2-26.1,3C171.1,259.4,157.2,255.6,157.2,255.6z"/>
<path id="Path_87_" class="st4" d="M159.5,168.3l-32.1,37.5c-0.1,0.1-0.2,0.2-0.3,0.3c-3.2,2.5-5.2,9.7-2.9,13l25.1,32.9
	c1.1,1.3,3.2,0.8,3.5-1l1.2-9.8c0.1-0.4-0.1-1-0.4-1.2l-13.5-20.4c-2.3-3.5,1.9-6.6,2.1-6.8l18.2-14.7c4.2-3.3,7.2-15,6.6-21.3
	C166.1,165.4,160.7,167.1,159.5,168.3z"/>
<path id="Path_86_" class="st8" d="M153.3,242.1c-4.6,6.5-4,7.4-1.4,16.3c2.6,8.8,4,15.3,4.4,7.7
	C156.7,258.3,160.7,231.7,153.3,242.1z"/>
<path id="Path_85_" class="st4" d="M195.1,378.4c0,0,8.4,6.6,6.8,11.5c-1.6,5-8.4,10.3,0.2,12.8c4.9-7.5,16.1-27,16.1-27l-13.5-7.8
	C204.9,367.9,198.6,369.9,195.1,378.4z"/>
<path id="Path_84_" class="st4" d="M175.3,390.3c-3.4,4.4-9.3,12.2-9.7,14.3c-0.4,2.1-1.5,3.6,2.7,3.6s15.9,0,18.4,0
	s2.9-4.8,2.4-8.9c-0.5-4.1-0.2-7.4-3.8-8.9C181.6,388.8,176.9,388.4,175.3,390.3z"/>
<linearGradient id="Shape_12_" gradientUnits="userSpaceOnUse" x1="318.5673" y1="131.9721" x2="451.4232" y2="131.9721" gradientTransform="matrix(1 0 0 -1 0 450)">
	<stop  offset="0" style="stop-color:#1F1A9A"/>
	<stop  offset="0.9983" style="stop-color:#02F0F4"/>
</linearGradient>
<path id="Shape_16_" class="st9" d="M416.5,365.6c0.5,1.3,1,2.5,1.4,3.6c1.2,3.8,0.2,7.6-3.4,9.5c-3.8,2-8,3.5-12.1,4.5
	c-4.4,1.1-8-1.3-9.5-5.5c-0.5-1.6-1.3-3.2-1.8-4.8c-0.5-1.6-1.3-2-2.9-1.6c-2.1,0.4-4.3,0.5-6.5,0.3c-6.5-0.9-6.5-1.1-9.1,5.1
	c-1.8,4.3-6.2,6.6-10.5,5.3c-3.5-1.2-6.9-2.9-10.3-4.5c-3.3-1.6-4.5-4.6-4.1-8.1c0.2-2,1-3.9,1.8-5.7c1-2.4,1.9-4.4-1-6.1
	c-1.2-0.7-2.4-1.8-3-3.1c-2.7-5-6.1-6.1-11.5-3.5c-4.6,2.1-8.5,0.2-10.7-4.5c-1.3-2.8-2.4-5.8-3.3-8.8c-1.7-5.4,0.5-9.7,5.7-11.5
	c1.3-0.5,2.5-0.9,3.7-1.3c1.6-0.5,2.2-1.4,2.2-3.1c0.1-3.9,0.5-7.7,0.5-11.6c0-0.7-0.8-1.8-1.5-2.2c-1.6-0.9-3.5-1.5-5.3-2.5
	c-3.8-2-5.5-5.5-4.2-9.6c1.2-3.5,2.6-7,4.4-10.3c2.4-4.3,6.2-5.6,10.9-3.9c2.3,0.8,4.4,2,6.5,2.8c3.9-3.5,7.6-7,11.5-10.4
	c-0.8-2.3-1.6-4.6-2.4-6.9c-1.5-4.5,0.1-8.3,4.5-10.3c2.8-1.3,5.7-2.5,8.7-3.5c3.3-1.2,6.5-0.9,9,1.6c1.4,1.5,2.5,3.4,3.3,5.3
	c1.7,4.6,1.6,4.6,6.6,4.6c1.9,0,3.9-0.1,5.7,0.4c3,0.6,5.3,0.3,6.3-3c0.2-0.6,0.5-1.3,0.9-2c1.7-4.4,4.3-6.2,8.8-5.8
	c5.7,0.5,10.5,3.2,14.5,6.9c1.4,1.3,1.6,4.4,1.5,6.5c-0.2,2-1.4,3.9-2.3,5.9c-0.8,1.8-0.8,3.4,0.9,4.7c1.6,1.3,3.5,2.8,4.5,4.6
	c2.5,4.5,5.5,4.3,9.7,2.5c5.4-2.1,10.9,0.2,12.5,6.1c0.5,2.1,1.6,4.2,2.4,6.3c1.9,5.4,0.2,10.3-5.2,11.8c-5.8,1.6-6.5,5-6.7,10.4
	c-0.2,5.7,1,9,6.6,11c4.2,1.5,5.6,6,4.1,10.2c-1,2.8-2.6,5.3-3.6,8c-1.9,5.3-7.4,7.5-12.4,5c-1.9-0.9-3.9-1.6-5.7-2.5
	c-3.8,3.5-7.5,6.6-11.4,10.2C415.9,363.3,416.2,364.5,416.5,365.6z M352,318.3c0.2,17.8,13.8,32.8,33.3,32.7
	c18-0.1,32.6-14.4,32.7-32.6c0.1-18.2-14.6-33.4-32.6-33C366.4,285,351.8,300.2,352,318.3z"/>
<path id="Shape_2_" class="st10" d="M490.7,244.6c0.2,0.4,0.4,0.9,0.5,1.2c0.4,1.2,0.1,2.7-1.2,3.3c-1.3,0.6-2.7,1.2-4.2,1.6
	c-1.5,0.4-2.7-0.4-3.3-1.9c-0.2-0.5-0.5-1.1-0.6-1.6c-0.2-0.5-0.4-0.7-1-0.5c-0.7,0.2-1.5,0.2-2.2,0.1c-2.2-0.4-2.2-0.4-3.1,1.8
	c-0.6,1.5-2.1,2.3-3.6,1.8c-1.2-0.4-2.4-1-3.5-1.6c-1.2-0.5-1.6-1.6-1.4-2.7c0.1-0.6,0.4-1.3,0.6-1.9c0.4-0.8,0.6-1.5-0.4-2.1
	c-0.4-0.2-0.8-0.6-1.1-1.1c-0.9-1.8-2.1-2-4-1.2c-1.6,0.7-2.9,0.1-3.7-1.6c-0.4-1-0.8-1.9-1.2-3.1c-0.6-1.9,0.2-3.4,1.9-4
	c0.4-0.2,0.9-0.4,1.2-0.4c0.5-0.2,0.8-0.5,0.8-1.1c0-1.3,0.2-2.7,0.2-4c0-0.3-0.3-0.6-0.5-0.8c-0.5-0.4-1.2-0.5-1.8-0.9
	c-1.3-0.7-1.9-1.9-1.4-3.4c0.4-1.2,0.9-2.4,1.5-3.5c0.8-1.5,2.1-1.9,3.8-1.3c0.8,0.3,1.5,0.6,2.2,1c1.3-1.2,2.7-2.4,3.9-3.5
	c-0.3-0.8-0.5-1.6-0.8-2.4c-0.5-1.6,0-2.8,1.6-3.5c1-0.4,1.9-0.9,3-1.2c1.2-0.4,2.2-0.3,3.1,0.5c0.5,0.5,0.9,1.2,1.2,1.8
	c0.6,1.6,0.5,1.6,2.3,1.6c0.6,0,1.3,0,1.9,0.2c1.1,0.2,1.8,0.1,2.1-1.1c0.1-0.2,0.2-0.4,0.3-0.6c0.6-1.5,1.4-2.1,3.1-1.9
	c1.9,0.2,3.6,1.2,5,2.4c0.5,0.4,0.5,1.5,0.5,2.3c-0.1,0.7-0.5,1.3-0.8,2c-0.3,0.6-0.3,1.2,0.4,1.6c0.5,0.5,1.2,0.9,1.6,1.6
	c0.9,1.6,1.9,1.5,3.4,0.9c1.9-0.7,3.8,0.1,4.3,2.1c0.2,0.7,0.5,1.4,0.8,2.1c0.6,1.9,0.1,3.5-1.8,4.1c-1.9,0.5-2.3,1.7-2.4,3.5
	c-0.1,1.9,0.4,3.1,2.3,3.8c1.4,0.5,1.9,2,1.4,3.5c-0.4,0.9-0.9,1.9-1.2,2.7c-0.6,1.8-2.6,2.6-4.3,1.7c-0.6-0.4-1.3-0.5-1.9-0.9
	c-1.2,1.2-2.6,2.3-3.9,3.5C490.4,243.9,490.5,244.2,490.7,244.6z M468.4,228.3c0.1,6.1,4.8,11.3,11.4,11.3c6.2,0,11.2-5,11.2-11.2
	s-5-11.5-11.2-11.4C473.3,216.9,468.3,222.2,468.4,228.3z"/>
<path id="Path_83_" class="st11" d="M337.5,403.3h-87.2c-11.8,0-21.3-9.6-21.3-21.3V162.7c0-11.8,9.6-21.3,21.3-21.3h87.2
	c11.8,0,21.3,9.6,21.3,21.3V382C358.9,393.8,349.3,403.3,337.5,403.3z"/>
<linearGradient id="Shape_13_" gradientUnits="userSpaceOnUse" x1="36.6859" y1="-25.3369" x2="35.9587" y2="-26.0851" gradientTransform="matrix(190.3 0 0 338.5 -6618.5 8974.9062)">
	<stop  offset="0" style="stop-color:#1F1A9A"/>
	<stop  offset="1" style="stop-color:#02F0F4"/>
</linearGradient>
<path id="Shape_3_" class="st12" d="M339.8,138.7h-91.5c-12.1,0-22,9.8-22,22v223.5c0,12.1,9.8,22,22,22h91.4c12.1,0,22-9.8,22-22
	V160.5C361.7,148.5,351.8,138.7,339.8,138.7z M356.2,384.1c0,9.1-7.4,16.5-16.5,16.5h-91.5c-9.1,0-16.5-7.4-16.5-16.5V160.5
	c0-9.1,7.4-16.5,16.5-16.5h26.5v0.4c0,3.8,3.1,6.7,6.7,6.7h24c3.8,0,6.7-3.1,6.7-6.7v-0.4h27.5c9.1,0,16.5,7.4,16.5,16.5
	L356.2,384.1L356.2,384.1z"/>
<linearGradient id="Oval_1_" gradientUnits="userSpaceOnUse" x1="35.4459" y1="-26.6946" x2="36.0976" y2="-26.0569" gradientTransform="matrix(60.4 0 0 60.4 -1809.4 1650.7004)">
	<stop  offset="0" style="stop-color:#FFE610"/>
	<stop  offset="1" style="stop-color:#FF4000"/>
</linearGradient>
<circle id="Oval_16_" class="st13" cx="351" cy="57.4" r="28.6"/>
<g id="Group" transform="translate(282.000000, 72.000000)">
	<path id="Path_82_" class="st11" d="M62.3-9c0,3.9-2,6.3-6,6.3c-1.9,0-3.6-0.7-4.2-1.6l1.4-3.4C54-7.1,55-6.9,55.7-6.9
		C57.3-6.9,58-8,58-9.8v-18.4h4.5V-9H62.3z"/>
	<path id="Path_81_" class="st11" d="M68-21.7c0-3.7,2.9-6.9,7.9-6.9c3.1,0,5.7,1,7.1,2.7l-2.4,3.3c-1.2-1.2-2.5-1.9-4.5-1.9
		c-2.2,0-3.5,1.1-3.5,2.7c0,5.2,11.3,3.6,11.3,11.9c0,4.2-3.7,7-8.4,7c-3.2,0-7-1.4-8.2-3.9l2.6-3C71.5-7.9,73.8-7,75.8-7
		c2.1,0,3.7-1,3.7-2.9C79.4-14.7,68-13.4,68-21.7z"/>
</g>
<linearGradient id="Oval_2_" gradientUnits="userSpaceOnUse" x1="36.3663" y1="-25.821" x2="35.606" y2="-26.6247" gradientTransform="matrix(82.2 0 0 82.2 -2505.0999 2246.0015)">
	<stop  offset="0" style="stop-color:#1F1A9A"/>
	<stop  offset="0.9983" style="stop-color:#02F0F4"/>
</linearGradient>
<circle id="Oval_15_" class="st14" cx="452.8" cy="90.3" r="40.1"/>
<g id="Group_1_" transform="translate(371.000000, 115.000000)">
	<path id="Path_80_" class="st11" d="M63.6-36h3.8v14.6c0,2.9-0.6,5-1.8,6.3c-1.1,1.2-2.8,2-4.9,2c-2.5,0-4.3-0.7-5.4-2
		c-1.1-1.2-1.8-3.2-1.8-5.8v-15.2h4v14.4c0,1.8,0.2,2.9,0.7,3.7c0.5,0.7,1.2,1,2.4,1c1.1,0,1.8-0.4,2.3-1c0.5-0.8,0.7-2,0.7-3.6V-36
		H63.6z"/>
	<path id="Path_79_" class="st11" d="M78.1-13.5v-9.7c0-1.1-0.1-2-0.4-2.5s-0.8-0.7-1.3-0.7c-0.6,0-1,0.2-1.4,0.5
		c-0.4,0.4-0.7,0.8-0.8,1.2v11.2h-3.8v-15.9h3l0.5,1.8h0.1c0.4-0.6,0.8-1.1,1.6-1.6c0.7-0.4,1.6-0.7,2.6-0.7c0.7,0,1.1,0.1,1.8,0.3
		c0.5,0.2,0.8,0.5,1.2,0.9c0.3,0.4,0.6,1,0.8,1.8c0.2,0.8,0.3,1.7,0.3,2.7v10.6h-4V-13.5z"/>
	<path id="Shape_4_" class="st11" d="M84.4-34c0-0.7,0.2-1.1,0.6-1.6c0.4-0.4,1-0.6,1.8-0.6c0.7,0,1.3,0.2,1.8,0.6
		c0.5,0.4,0.7,0.9,0.7,1.6c0,0.7-0.2,1.1-0.7,1.6c-0.5,0.4-1,0.6-1.8,0.6c-0.8,0-1.3-0.2-1.8-0.6C84.7-33,84.4-33.4,84.4-34z
		 M84.9-29.4h3.8v16h-3.8V-29.4z"/>
	<path id="Path_78_" class="st11" d="M90.6-29.4h1.8v-3l3.8-1.1v4.2h3.1v3.4h-3.1v7c0,0.8,0.1,1.6,0.3,2c0.2,0.4,0.5,0.6,0.9,0.6
		c0.3,0,0.6,0,0.8-0.1c0.3-0.1,0.5-0.2,0.8-0.3l0.5,3c-0.5,0.2-0.9,0.4-1.7,0.6c-0.6,0.2-1.2,0.2-2,0.2c-1.1,0-2.2-0.4-2.7-1
		c-0.6-0.7-0.8-1.9-0.8-3.5V-26h-1.8L90.6-29.4L90.6-29.4z"/>
	<path id="Path_77_" class="st11" d="M105.5-20.6l0.4,2.6h0.2l0.3-2.6l1.9-9h3.9l-4,14.5c-0.4,1.2-0.7,2.5-1,3.4
		c-0.3,0.9-0.7,1.9-1,2.6c-0.4,0.7-0.8,1.2-1.2,1.7c-0.5,0.4-0.9,0.6-1.7,0.6c-0.5,0-0.8,0-1.2-0.1c-0.4-0.1-0.8-0.2-1-0.4l0.7-3.2
		c0.3,0.1,0.6,0.2,0.8,0.1c0.3,0,0.6-0.1,0.8-0.3c0.3-0.2,0.5-0.5,0.7-0.9s0.4-0.9,0.5-1.8l-5.9-16h4.7L105.5-20.6z"/>
</g>
<ellipse id="Oval_14_" transform="matrix(0.9344 -0.3562 0.3562 0.9344 -33.0469 154.3846)" class="st11" cx="402.7" cy="166.9" rx="24.3" ry="24.3"/>
<g id="Group_2_" transform="translate(311.000000, 203.000000)">
	<path id="Path_76_" class="st15" d="M76-45.8h3.2v12.6c0,0.8-0.1,1.4-0.2,2c-0.1,0.6-0.4,1.2-0.6,1.7c-0.3,0.4-0.7,0.8-1.1,1.1
		c-0.4,0.3-1.1,0.4-1.7,0.4c-0.5,0-1-0.1-1.4-0.2c-0.5-0.1-0.9-0.3-1.2-0.4l0.7-2.7c0.4,0.3,0.8,0.4,1.2,0.4c0.6,0,1-0.3,1.1-0.8
		c0.1-0.5,0.1-1.2,0.1-2.1V-45.8z"/>
	<path id="Shape_5_" class="st15" d="M81.5-40.1c0.5-0.3,1.1-0.5,1.9-0.7c0.8-0.2,1.6-0.3,2.6-0.3c1.3,0,2.4,0.4,2.9,1.1
		c0.5,0.8,0.9,1.8,0.9,3.1c0,0.8,0,1.5-0.1,2.3c0,0.8-0.1,1.4-0.1,2.2c0,0.7,0,1.4,0,2c0,0.7,0.2,1.2,0.4,1.9h-2.4L87-30h-0.1
		c-0.3,0.5-0.6,0.9-1.1,1.2c-0.5,0.4-1.1,0.5-1.8,0.5c-1,0-1.7-0.4-2.3-1c-0.6-0.7-0.9-1.5-0.9-2.7c0-1.4,0.5-2.6,1.6-3.2
		c1.1-0.6,2.5-0.9,4.3-0.8c0.1-1,0-1.6-0.2-2c-0.2-0.4-0.7-0.5-1.4-0.5c-0.5,0-1.1,0.1-1.5,0.2c-0.5,0.1-1.1,0.3-1.4,0.5L81.5-40.1z
		 M85-30.8c0.4,0,0.8-0.1,1.1-0.4c0.3-0.3,0.5-0.4,0.6-0.8v-1.9c-0.4-0.1-0.8-0.1-1.1,0c-0.4,0-0.7,0.1-1,0.3
		c-0.3,0.1-0.5,0.3-0.6,0.5c-0.2,0.3-0.3,0.5-0.3,0.9c0,0.5,0.1,1,0.4,1.2C84.4-31,84.6-30.8,85-30.8z"/>
	<polygon id="Path_75_" class="st15" points="95.4,-34.4 95.7,-32.4 95.8,-32.4 96,-34.4 97.5,-40.8 100.7,-40.8 96.5,-28.4 
		94.6,-28.4 90.3,-40.8 93.6,-40.8 	"/>
	<path id="Shape_6_" class="st15" d="M101.6-40.1c0.5-0.3,1.1-0.5,1.9-0.7c0.8-0.2,1.6-0.3,2.6-0.3c1.3,0,2.4,0.4,2.9,1.1
		c0.5,0.8,0.9,1.8,0.9,3.1c0,0.8,0,1.5-0.1,2.3c0,0.8-0.1,1.4-0.1,2.2c0,0.7,0,1.4,0,2c0,0.7,0.2,1.2,0.4,1.9h-2.4l-0.5-1.5H107
		c-0.3,0.5-0.6,0.9-1.1,1.2c-0.5,0.4-1.1,0.5-1.8,0.5c-1,0-1.7-0.4-2.3-1c-0.6-0.7-0.9-1.5-0.9-2.7c0-1.4,0.5-2.6,1.6-3.2
		c1.1-0.6,2.5-0.9,4.3-0.8c0.1-1,0-1.6-0.2-2c-0.2-0.4-0.7-0.7-1.3-0.7c-0.5,0-1.1,0.1-1.5,0.2c-0.5,0.1-1.1,0.3-1.4,0.5L101.6-40.1
		z M105.1-30.8c0.4,0,0.8-0.1,1.1-0.4c0.4-0.3,0.5-0.4,0.6-0.8v-1.9c-0.4-0.1-0.8-0.1-1.1,0c-0.4,0-0.7,0.1-1,0.3
		c-0.3,0.1-0.5,0.3-0.6,0.5c-0.2,0.3-0.3,0.5-0.3,0.9c0,0.5,0.1,1,0.4,1.2C104.3-31,104.7-30.8,105.1-30.8z"/>
</g>
<linearGradient id="Oval_3_" gradientUnits="userSpaceOnUse" x1="35.9589" y1="-25.7278" x2="35.34" y2="-26.372" gradientTransform="matrix(50.6 0 0 50.6 -1539.7 1415.1003)">
	<stop  offset="0" style="stop-color:#1F1A9A"/>
	<stop  offset="0.9983" style="stop-color:#02F0F4"/>
</linearGradient>
<circle id="Oval_13_" class="st16" cx="265.8" cy="98.7" r="18"/>
<g id="Group_3_" transform="translate(195.000000, 93.000000)">
	<path id="Shape_7_" class="st11" d="M58.8-0.3c0.4-0.1,0.9-0.2,1.3-0.2c0.5-0.1,1-0.1,1.5-0.1s1.1,0.1,1.6,0.2
		c0.5,0.1,1,0.3,1.3,0.5c0.4,0.3,0.7,0.7,1,1.2c0.3,0.5,0.4,1.2,0.4,2s-0.1,1.4-0.3,1.9s-0.5,1-0.9,1.2c-0.4,0.4-0.8,0.6-1.2,0.7
		c-0.5,0.2-0.9,0.2-1.4,0.2c-0.1,0-0.2,0-0.2,0s-0.2,0-0.4,0c-0.2,0-0.2,0-0.4,0s-0.2,0-0.2,0v4.2h-2.2C58.8,11.6,58.8-0.3,58.8-0.3
		z M60.9,5.5c0.1,0,0.2,0.1,0.4,0.1s0.3,0,0.4,0c0.3,0,0.5,0,0.7-0.1c0.2-0.1,0.4-0.2,0.6-0.4c0.2-0.2,0.3-0.4,0.4-0.7
		c0.1-0.3,0.2-0.6,0.2-1.2c0-0.4-0.1-0.7-0.2-1s-0.2-0.5-0.4-0.6c-0.2-0.2-0.4-0.3-0.5-0.4c-0.2-0.1-0.4-0.1-0.7-0.1
		c-0.4,0-0.6,0-0.9,0.1L60.9,5.5L60.9,5.5z"/>
	<polygon id="Path_74_" class="st11" points="72.5,6.6 69.2,6.6 69.2,11.6 67,11.6 67,-0.4 69.2,-0.4 69.2,4.5 72.5,4.5 72.5,-0.4 
		74.7,-0.4 74.7,11.6 72.5,11.6 	"/>
	<path id="Shape_8_" class="st11" d="M76.2-0.3c0.4-0.1,0.9-0.2,1.3-0.2c0.5-0.1,1-0.1,1.5-0.1s1.1,0.1,1.6,0.2
		c0.5,0.1,1,0.3,1.3,0.5c0.4,0.3,0.7,0.7,1,1.2c0.3,0.5,0.4,1.2,0.4,2S83.2,4.8,83,5.3s-0.5,1-0.9,1.2c-0.4,0.4-0.8,0.5-1.2,0.7
		c-0.5,0.2-0.9,0.2-1.4,0.2c-0.1,0-0.2,0-0.2,0c-0.1,0-0.2,0-0.4,0s-0.2,0-0.4,0c-0.2,0-0.2,0-0.2,0v4.2h-2.2V-0.3z M78.3,5.5
		c0.1,0,0.2,0.1,0.4,0.1s0.3,0,0.4,0c0.3,0,0.5,0,0.7-0.1c0.2-0.1,0.4-0.2,0.6-0.4c0.2-0.2,0.3-0.4,0.4-0.7C80.9,4.2,81,3.8,81,3.3
		c0-0.4-0.1-0.7-0.2-1c-0.1-0.3-0.2-0.5-0.4-0.6c-0.2-0.2-0.4-0.3-0.5-0.4c-0.2-0.1-0.4-0.1-0.7-0.1c-0.4,0-0.6,0-0.9,0.1L78.3,5.5
		L78.3,5.5z"/>
</g>
<circle id="Oval_12_" class="st11" cx="182.7" cy="45.4" r="30.6"/>
<g id="Group_4_" transform="translate(124.000000, 23.000000)">
	<polygon id="Path_73_" class="st15" points="38.4,22.2 37.8,22.2 37.8,29.3 34.9,29.3 34.9,13 37.8,13 37.8,20.1 38.3,19.9 
		41.8,13 45.1,13 41.4,19.8 40.3,20.6 41.4,21.5 45.7,29.2 42.1,29.2 	"/>
	<path id="Shape_9_" class="st15" d="M45.6,23.3c0-2.1,0.4-3.7,1.2-4.6c0.8-1,1.9-1.6,3.4-1.6c1.6,0,2.8,0.6,3.5,1.6
		c0.7,1,1.2,2.6,1.2,4.5c0,2.1-0.4,3.7-1.2,4.6c-0.8,1-1.9,1.5-3.4,1.5C47.1,29.5,45.6,27.4,45.6,23.3z M48.5,23.3
		c0,1.2,0.1,2.1,0.4,2.8c0.3,0.6,0.7,0.9,1.4,0.9c0.6,0,1-0.3,1.3-0.8c0.3-0.6,0.5-1.5,0.5-2.9c0-1.2-0.1-2.1-0.4-2.8
		s-0.7-0.9-1.4-0.9c-0.6,0-1,0.3-1.3,0.8C48.6,21.1,48.5,22.1,48.5,23.3z"/>
	<path id="Path_72_" class="st15" d="M55.5,17.6h1.3v-2.2l2.8-0.8v3h2.3v2.5h-2.3v5.1c0,0.6,0.1,1.2,0.2,1.5s0.4,0.5,0.7,0.5
		c0.3,0,0.5,0,0.6-0.1s0.4-0.1,0.6-0.2l0.4,2.2c-0.4,0.2-0.7,0.3-1.2,0.5c-0.5,0.1-0.9,0.2-1.5,0.2c-0.9,0-1.6-0.3-2-0.7
		c-0.5-0.6-0.6-1.4-0.6-2.6v-6.1h-1.3C55.5,20.2,55.5,17.6,55.5,17.6z"/>
	<path id="Path_71_" class="st15" d="M65.9,25.4c0,0.6,0.1,0.9,0.2,1.2c0.1,0.3,0.3,0.4,0.6,0.4c0.2,0,0.3,0,0.5-0.1
		c0.2,0,0.3-0.1,0.5-0.2l0.3,2.3c-0.2,0.1-0.6,0.3-0.9,0.4c-0.5,0.1-0.9,0.2-1.4,0.2c-0.8,0-1.4-0.2-1.7-0.6c-0.4-0.4-0.6-1-0.6-2
		V13H66L65.9,25.4L65.9,25.4z"/>
	<path id="Shape_10_" class="st15" d="M68.7,14.3c0-0.5,0.2-0.8,0.5-1.2c0.3-0.3,0.7-0.5,1.3-0.5c0.6,0,1,0.2,1.3,0.5
		c0.3,0.3,0.5,0.6,0.5,1.2c0,0.5-0.2,0.8-0.5,1.2c-0.4,0.3-0.7,0.5-1.3,0.5c-0.6,0-1-0.2-1.3-0.5C68.9,15.1,68.7,14.7,68.7,14.3z
		 M69.1,17.6h2.8v11.7h-2.8V17.6z"/>
	<path id="Path_70_" class="st15" d="M79.7,29.2v-7.1c0-0.8-0.1-1.5-0.3-1.8c-0.2-0.4-0.6-0.6-1-0.6c-0.4,0-0.7,0.1-1,0.4
		c-0.3,0.3-0.6,0.6-0.6,0.9v8.1H74V17.6h2.2l0.4,1.4h0.1c0.3-0.5,0.6-0.8,1.2-1.2c0.5-0.3,1.1-0.5,1.9-0.5c0.5,0,0.9,0.1,1.3,0.2
		c0.4,0.2,0.6,0.4,0.9,0.7c0.3,0.3,0.5,0.7,0.6,1.3s0.2,1.2,0.2,2v7.7L79.7,29.2L79.7,29.2z"/>
</g>
<linearGradient id="Oval_4_" gradientUnits="userSpaceOnUse" x1="36.4131" y1="-25.2019" x2="35.7892" y2="-25.9277" gradientTransform="matrix(67.4 0 0 67.4 -2331 1827.9993)">
	<stop  offset="0" style="stop-color:#1F1A9A"/>
	<stop  offset="0.9983" style="stop-color:#02F0F4"/>
</linearGradient>
<circle id="Oval_11_" class="st17" cx="103.8" cy="106.8" r="28.9"/>
<g id="Group_5_" transform="translate(6.000000, 77.000000)">
	<polygon id="Path_69_" class="st11" points="80.2,30 76.7,30 76.7,35.6 74.3,35.6 74.3,22.4 76.7,22.4 76.7,27.8 80.2,27.8 
		80.2,22.4 82.7,22.4 82.7,35.6 80.2,35.6 	"/>
	<polygon id="Path_68_" class="st11" points="92.1,24.6 89,24.6 89,35.6 86.6,35.6 86.6,24.6 83.6,24.6 83.6,22.4 92.1,22.4 	"/>
	<polygon id="Path_67_" class="st11" points="101.6,28.8 101.8,26.4 101.7,26.4 101.1,28.6 98.9,33.2 98.2,33.2 95.9,28.6 
		95.1,26.3 95,26.3 95.4,28.8 95.4,35.6 93.2,35.6 93.2,22.4 95.5,22.4 98.3,28.1 98.7,29.7 98.7,29.7 99.1,28 101.7,22.3 
		103.9,22.3 103.9,35.6 101.5,35.6 101.5,28.8 	"/>
	<polygon id="Path_66_" class="st11" points="112.6,35.6 105.6,35.6 105.6,22.4 108,22.4 108,33.4 112.6,33.4 	"/>
	<path id="Path_65_" class="st11" d="M116.1,33.8c0.7,0,1.2-0.2,1.6-0.7c0.3-0.4,0.5-1,0.5-1.7c0-0.7-0.2-1.4-0.6-1.7
		c-0.4-0.3-1-0.5-1.8-0.5l-1.2,0.1v-6.9h5.5v2.2h-3.5v2.7l0.6-0.1c1,0,1.8,0.4,2.4,1.1s0.9,1.7,0.9,3c0,0.7-0.1,1.4-0.3,2
		s-0.5,1-0.8,1.4c-0.3,0.3-0.7,0.7-1.2,0.8c-0.5,0.2-1,0.2-1.7,0.2c-0.4,0-0.9-0.1-1.4-0.2c-0.4-0.1-0.8-0.2-1.1-0.3l0.6-1.9
		C114.9,33.7,115.4,33.8,116.1,33.8z"/>
</g>
<linearGradient id="Oval_5_" gradientUnits="userSpaceOnUse" x1="35.129" y1="-27.2467" x2="35.5858" y2="-26.6549" gradientTransform="matrix(64.4 0 0 64.4 -1865.4 1991.3997)">
	<stop  offset="0" style="stop-color:#FFE610"/>
	<stop  offset="1" style="stop-color:#FF4000"/>
</linearGradient>
<circle id="Oval_10_" class="st18" cx="410.9" cy="254.8" r="26.7"/>
<g id="Group_6_" transform="translate(365.000000, 316.000000)">
	<path id="Path_64_" class="st11" d="M31.5-58.2c0-0.5-0.2-0.9-0.4-1.2c-0.3-0.3-0.6-0.6-1-1c-0.4-0.3-0.9-0.6-1.4-1
		c-0.5-0.3-1-0.7-1.4-1.1c-0.4-0.4-0.8-0.9-1-1.5c-0.3-0.6-0.4-1.3-0.4-2.2s0.1-1.4,0.3-2c0.2-0.6,0.6-1,1-1.3
		c0.4-0.3,0.9-0.6,1.4-0.7c0.5-0.1,1.1-0.2,1.9-0.2c0.8,0,1.4,0.1,2.3,0.2c0.6,0.2,1.2,0.3,1.7,0.6l-0.9,2.6
		c-0.2-0.2-0.6-0.3-1.1-0.5c-0.5-0.2-1-0.2-1.6-0.2s-1,0.2-1.4,0.4s-0.5,0.6-0.5,1s0.2,0.8,0.4,1.1c0.3,0.3,0.6,0.6,1,1
		c0.4,0.3,0.9,0.6,1.4,1c0.5,0.3,1,0.7,1.4,1.1s0.8,1,1,1.5c0.3,0.6,0.4,1.3,0.4,2.2c0,0.8-0.1,1.5-0.3,2.2c-0.2,0.6-0.6,1-1,1.4
		s-1,0.6-1.5,0.9c-0.6,0.2-1.3,0.3-2.1,0.3c-1,0-1.9-0.1-2.6-0.2c-0.7-0.2-1.2-0.4-1.6-0.6l1-2.7c0.3,0.2,0.7,0.4,1.2,0.6
		c0.6,0.2,1.1,0.2,1.7,0.2C30.7-56.5,31.5-57,31.5-58.2z"/>
	<polygon id="Path_63_" class="st11" points="43.1,-65.7 44.8,-59.8 45,-57.8 45.1,-57.8 45.4,-59.9 46.5,-65.7 49,-65.7 46.1,-54 
		43.9,-54 42.2,-60.5 42,-62 41.9,-62 41.6,-60.4 40,-54 37.7,-54 34.8,-65.7 37.7,-65.7 39,-59.9 39.3,-57.8 39.4,-57.8 
		39.7,-59.9 41,-65.6 43.1,-65.6 	"/>
	<path id="Shape_11_" class="st11" d="M49.8-68.9c0-0.5,0.2-0.8,0.4-1.1c0.3-0.3,0.7-0.4,1.2-0.4c0.6,0,1,0.2,1.3,0.4
		c0.3,0.3,0.5,0.6,0.5,1.1c0,0.5-0.2,0.8-0.5,1.1c-0.3,0.2-0.7,0.4-1.3,0.4s-1-0.2-1.2-0.4C49.9-68.1,49.8-68.5,49.8-68.9z M50-65.7
		h2.8v11.6H50V-65.7z"/>
	<path id="Path_62_" class="st11" d="M54.2-65.7h1.2v-0.6c0-1.4,0.2-2.6,0.8-3.2c0.6-0.6,1.3-1,2.4-1c1,0,1.9,0.2,2.6,0.4l-0.5,2.3
		c-0.2-0.1-0.5-0.2-0.7-0.2c-0.2,0-0.4,0-0.6,0c-0.4,0-0.7,0.2-0.8,0.5c-0.1,0.3-0.2,0.9-0.2,1.9h2v2.5h-2v9.2h-2.8v-9.2h-1.1v-2.5
		C54.4-65.7,54.2-65.7,54.2-65.7z"/>
	<path id="Path_61_" class="st11" d="M60.3-65.7h1.2v-2.2l2.8-0.8v3.1h2.3v2.5h-2.3v5c0,0.6,0.1,1.1,0.2,1.4
		c0.2,0.2,0.3,0.4,0.7,0.4c0.2,0,0.4,0,0.6-0.1c0.2-0.1,0.4-0.1,0.6-0.2l0.3,2.3c-0.3,0.2-0.7,0.3-1.1,0.4s-0.9,0.2-1.4,0.2
		c-0.9,0-1.5-0.2-2-0.7s-0.6-1.4-0.6-2.6v-6.1h-1.2v-2.7H60.3z"/>
</g>
<path id="Path_60_" class="st19" d="M267.1,155.7h-19c-1.4,0-2.6-1.2-2.6-2.6s1.2-2.6,2.6-2.6h19c1.4,0,2.6,1.2,2.6,2.6
	S268.5,155.7,267.1,155.7z"/>
<path id="Path_59_" class="st19" d="M341.1,154.8c-1.4,0-2.6-1.2-2.6-2.6s1.2-2.6,2.6-2.6c1.4,0,2.6,1.2,2.6,2.6
	S342.5,154.8,341.1,154.8z"/>
<path id="Path_58_" class="st19" d="M332.1,154.8c-1.4,0-2.6-1.2-2.6-2.6s1.2-2.6,2.6-2.6c1.4,0,2.6,1.2,2.6,2.6
	C334.6,153.6,333.5,154.8,332.1,154.8z"/>
<path id="Path_57_" class="st19" d="M323.1,154.8c-1.4,0-2.6-1.2-2.6-2.6s1.2-2.6,2.6-2.6c1.4,0,2.6,1.2,2.6,2.6
	S324.5,154.8,323.1,154.8z"/>
<g>
	<path id="Path_56_" class="st20" d="M334.7,268.7H308c-4.7,0-8.5-3.8-8.5-8.5v-26.7c0-4.7,3.8-8.5,8.5-8.5h26.7
		c4.7,0,8.5,3.8,8.5,8.5v26.7C343.3,264.8,339.5,268.7,334.7,268.7z"/>
	
		<linearGradient id="Path_5_" gradientUnits="userSpaceOnUse" x1="35.5878" y1="-27.1162" x2="34.6026" y2="-27.9141" gradientTransform="matrix(30 0 0 31.9 -730.8005 1125.0968)">
		<stop  offset="0" style="stop-color:#1F1A9A"/>
		<stop  offset="0.2237" style="stop-color:#194AAE"/>
		<stop  offset="0.9983" style="stop-color:#02F0F4"/>
	</linearGradient>
	<polygon id="Path_55_" class="st21" points="310.7,243.8 318.3,243.8 318.3,235.4 324.5,235.4 324.5,243.8 332.1,243.8 
		332.1,249.9 324.5,249.9 324.5,258.2 318.3,258.2 318.3,249.9 310.7,249.9 	"/>
</g>
<g>
	<path id="Path_54_" class="st20" d="M280,268.8h-26.7c-4.7,0-8.5-3.8-8.5-8.5v-26.7c0-4.7,3.8-8.5,8.5-8.5H280
		c4.7,0,8.5,3.8,8.5,8.5v26.7C288.5,265,284.7,268.8,280,268.8z"/>
	
		<linearGradient id="Oval_6_" gradientUnits="userSpaceOnUse" x1="35.5891" y1="-27.7064" x2="36.1338" y2="-27.1617" gradientTransform="matrix(33.4 0 0 33.4 -931.0001 1163.3997)">
		<stop  offset="0" style="stop-color:#1F1A9A"/>
		<stop  offset="0.2237" style="stop-color:#194AAE"/>
		<stop  offset="0.9983" style="stop-color:#02F0F4"/>
	</linearGradient>
	<circle id="Oval_9_" class="st22" cx="266.6" cy="246.9" r="11.9"/>
</g>
<g>
	<path id="Path_53_" class="st20" d="M334.7,324.9H308c-4.7,0-8.5-3.8-8.5-8.5v-26.7c0-4.7,3.8-8.5,8.5-8.5h26.7
		c4.7,0,8.5,3.8,8.5,8.5v26.6C343.3,321,339.5,324.9,334.7,324.9z"/>
	
		<linearGradient id="Path_6_" gradientUnits="userSpaceOnUse" x1="35.0061" y1="-28.5282" x2="35.6607" y2="-27.8126" gradientTransform="matrix(35.793 0 0 32.744 -941.1691 1223.123)">
		<stop  offset="0" style="stop-color:#FFE610"/>
		<stop  offset="1" style="stop-color:#FF4000"/>
	</linearGradient>
	<path id="Path_52_" class="st23" d="M321.4,314.7c-0.4-0.4-0.7-0.7-1.1-1.2c-3.2-3.5-6.4-6.7-9.6-10.2c-1.1-1.2-1.8-2.4-1.9-4
		c-0.5-3.5,1.7-7.2,5.3-7.8c1.9-0.4,3.8-0.1,5.6,1.1c0.4,0.3,0.9,0.7,1.2,1.2c0.2,0.2,0.4,0.4,0.5,0.5c0.2-0.2,0.4-0.4,0.5-0.6
		c1.1-1.2,2.5-1.9,4.1-2.2c3.8-0.6,7.4,1.8,8,5.6c0.4,2.4-0.3,4.5-1.9,6.2c-3,3.2-6,6.4-9,9.6C322.5,313.5,322,314.1,321.4,314.7z"
		/>
</g>
<g>
	<path id="Path_50_" class="st20" d="M253.2,381.2H280c4.7,0,8.5-3.8,8.5-8.5v-26.7c0-4.7-3.8-8.5-8.5-8.5h-26.7
		c-4.7,0-8.5,3.8-8.5,8.5v26.7C244.7,377.3,248.5,381.2,253.2,381.2z"/>
	
		<linearGradient id="Path_7_" gradientUnits="userSpaceOnUse" x1="36.1156" y1="-28.5761" x2="35.2631" y2="-29.4869" gradientTransform="matrix(31.6589 0 0 29.6356 -866.528 1218.4999)">
		<stop  offset="0" style="stop-color:#1F1A9A"/>
		<stop  offset="0.9983" style="stop-color:#02F0F4"/>
	</linearGradient>
	<path id="Path_44_" class="st24" d="M272,369.9c-1.8,0-3.6-0.6-5.3-1.6c-4.5-2.5-7.9-6-10.3-10.6c-0.5-1.1-0.9-2.3-1-3.5
		c-0.1-1.7,0.6-3.1,1.6-4.4c0.7-0.9,1.5-1.2,2.6-0.9c0.1,0,0.2,0,0.2,0c0.8-0.2,1.2,0.3,1.5,0.9c0.5,1.5,1.2,2.9,1.8,4.3
		c0.1,0.2,0.1,0.5-0.1,0.7c-0.4,0.7-0.9,1.3-1.4,1.9c-0.4,0.5-0.5,0.5-0.2,1.2c0.6,0.9,1.2,1.9,1.9,2.7c1.6,1.8,3.5,3.2,5.8,4
		c0.4,0.2,0.6,0.1,0.9-0.3c0.5-0.7,1.2-1.5,1.7-2.2c0.3-0.4,0.6-0.5,1.2-0.3c1.5,0.8,3,1.5,4.5,2.2c0.4,0.2,0.7,0.5,0.5,1.1
		c-0.1,0.4-0.1,0.7-0.2,1.1c-0.1,0.5-0.3,0.9-0.6,1.3C275.9,369.2,274.2,369.9,272,369.9z"/>
</g>
<g>
	<path id="Path_43_" class="st20" d="M280,212.6h-26.7c-4.7,0-8.5-3.8-8.5-8.5v-26.7c0-4.7,3.8-8.5,8.5-8.5H280
		c4.7,0,8.5,3.8,8.5,8.5v26.7C288.5,208.8,284.7,212.6,280,212.6z"/>
	<g id="Group_7_" transform="translate(173.000000, 196.000000)">
		
			<linearGradient id="Shape_18_" gradientUnits="userSpaceOnUse" x1="-310.3168" y1="-27.3418" x2="-309.7313" y2="-26.5475" gradientTransform="matrix(38.8 0 0 28.6 12123.3994 767.4998)">
			<stop  offset="0" style="stop-color:#FFE610"/>
			<stop  offset="1" style="stop-color:#FF4000"/>
		</linearGradient>
		<path id="Shape_15_" class="st25" d="M107.1-10c0-1.7-0.6-2.4-2.4-2.4c-1.3,0-2.7,0-4.2,0c0-0.4-0.1-0.5-0.1-0.8
			c-0.1-1.8-0.9-2.6-2.7-2.6c-3.1,0-6.1,0-9.2,0c-1.4,0-2.4,0.9-2.4,2.4c0,0.3,0,0.6,0,1c-0.5,0-1,0-1.5,0c-0.1-0.7,0-1.4-1-1.4
			c-1.3-0.1-1.4,0-1.9,1.4c-2,0.4-2.4,0.7-2.4,2.9c0,3.5,0,7.2,0,10.7c0,2,1,3.1,3.1,3.4c0.4,0,0.9,0,1.2,0c5.9,0,11.9,0,17.8,0
			c0.8,0,1.5,0,2.3-0.1c2.1-0.2,3.2-1.2,3.2-3.5C107.1-2.7,107.1-6.3,107.1-10z M93.3,2.6c-3.7,0-6.7-3.1-6.7-6.8s3-6.7,6.7-6.7
			c3.8,0,6.7,3,6.7,6.7C100-0.4,97,2.6,93.3,2.6z"/>
		
			<linearGradient id="Path_8_" gradientUnits="userSpaceOnUse" x1="-311.7807" y1="-29.4242" x2="-310.1463" y2="-27.7902" gradientTransform="matrix(13.9 0 0 13.9023 4416.7998 394.6547)">
			<stop  offset="0" style="stop-color:#FFE610"/>
			<stop  offset="1" style="stop-color:#FF4000"/>
		</linearGradient>
		<path id="Path_45_" class="st26" d="M93.3-9.1c-2.7,0-5,2.2-5,5s2.2,5,5,5c2.7,0,4.9-2.3,4.9-5C98.2-6.9,96-9.1,93.3-9.1z"/>
	</g>
</g>
<path class="st19" d="M217.6,126.7c0,0,0.8,12-2.2,19.8c-3.8,0.4,0.2-13.8-3.1-18.4C209.1,123.5,217.6,126.7,217.6,126.7z"/>
<g>
	<path id="Path_51_" class="st20" d="M308,381.2h26.7c4.7,0,8.5-3.8,8.5-8.5v-26.7c0-4.7-3.8-8.5-8.5-8.5H308
		c-4.7,0-8.5,3.8-8.5,8.5v26.7C299.5,377.3,303.4,381.2,308,381.2z"/>
	<path id="Path_47_" class="st10" d="M332.9,370.4l-1.9-6.7c0.7-1.5,1.1-3.1,1.1-4.9c0-6.4-5.4-11.6-12-11.6s-12,5.2-12,11.6
		c0,6.4,5.4,11.6,12,11.6c2.4,0,4.6-0.7,6.6-1.9L332.9,370.4z"/>
</g>
<path id="Path_48_" class="st8" d="M213.7,126.1c0,0,5,13.6,0,25.1c-5,11.6-13.9,10.3-13.9,10.3s1.2,4.8,0.9,6.8
	c-0.4,2.1-0.2,2.7-6.6,1.2c-6.5-1.6-8.1-5.1-8.2-7.2c-0.1-1.9-0.6-10.7-0.6-10.7l-1-18.8l10.9-10L213.7,126.1z"/>
<path id="Path_49_" class="st19" d="M208,128.9c-6.5,0.4-13.8-4.8-15.7,0.2c-1.9,5-2.1,4.4-3.2,13.8c1.2,6.2-2.5,5.5-2.5,0.5
	c0-5.1-2.4-5.1-1.9-1.7c-0.6,6.3,2.7,14.9,0.5,12.6c-2.2-2.3-7-11.9-6.9-17.4c0-5.7-0.2-12.8,3.8-16.2c4-3.5,9.5-1.9,9.5-1.9
	s-0.4-1.9,5.3-4c7.8-2.7,15.5,6.5,17.5,0C217.6,108.5,229,129.7,208,128.9z"/>
<g>
	<path id="Path_46_" class="st10" d="M271.8,305.8c0-2.9,0-5.8,0-8.9c-1.2,0.2-2.3,0.4-3.5,0.6c-1.6,0.3-3.2,0.6-4.8,0.9
		c-0.4,0.1-0.5,0.2-0.5,0.7c0,4.1,0,8.1,0,12.2c0,2.8-3,5-5.7,4.2c-1.7-0.5-2.8-2.1-2.8-3.9c0-1.9,1.2-3.7,3.1-4.2
		c0.6-0.2,1.4-0.2,2.2-0.3c0-4.6,0-9.4,0-14.3c5-0.9,10.1-1.7,15.2-2.7c0,0.2,0,0.4,0,0.6c0,6.4,0,12.8,0,19c0,2-1.5,3.8-3.5,4.3
		c-1.9,0.4-3.8-0.4-4.6-2.2c-0.7-1.6-0.5-3.1,0.4-4.4c1-1.4,2.4-2,4.2-1.9C271.6,305.8,271.7,305.8,271.8,305.8z"/>
	<path id="Path_42_" class="st20" d="M280,325h-26.7c-4.7,0-8.5-3.8-8.5-8.5v-26.7c0-4.7,3.8-8.5,8.5-8.5H280c4.7,0,8.5,3.8,8.5,8.5
		v26.6C288.5,321.2,284.7,325,280,325z"/>
</g>
<g>
	<path id="Shape_14_" class="st10" d="M322,178.5c0.4,0.1,0.9,0.2,1.3,0.2c3.7,0.9,6.6,3.9,7.1,7.7c0.3,2.4-0.2,4.5-1.6,6.5
		c-2.3,3.2-4.5,6.4-6.7,9.6c-0.4,0.5-1,0.5-1.4,0c-2.3-3.2-4.5-6.4-6.7-9.6c-3.8-5.5-0.7-12.9,5.8-14.3c0.4-0.1,0.6-0.1,1-0.2
		C321.2,178.5,321.6,178.5,322,178.5z M321.4,184.6c-1.7,0-3.1,1.3-3.1,3.1c0,1.7,1.3,3.1,3.1,3.1c1.7,0,3.1-1.3,3.1-3.1
		C324.4,186,323,184.6,321.4,184.6z"/>
	<path id="Path_3_" class="st20" d="M334.7,212.5H308c-4.7,0-8.5-3.8-8.5-8.5v-26.7c0-4.7,3.8-8.5,8.5-8.5h26.7
		c4.7,0,8.5,3.8,8.5,8.5V204C343.3,208.7,339.5,212.5,334.7,212.5z"/>
</g>
</svg>
