<?xml version="1.0" encoding="utf-8"?>
<!-- Generator: Adobe Illustrator 19.2.0, SVG Export Plug-In . SVG Version: 6.00 Build 0)  -->
<svg version="1.1" id="Layer_1" xmlns="http://www.w3.org/2000/svg" xmlns:xlink="http://www.w3.org/1999/xlink" x="0px" y="0px"
	 width="550px" height="450px" viewBox="0 0 550 450" style="enable-background:new 0 0 550 450;" xml:space="preserve">
<style type="text/css">
	.st0{opacity:0.5;fill:url(#Path-2_1_);enable-background:new    ;}
	.st1{opacity:0.5;fill:url(#Path-3_1_);enable-background:new    ;}
	.st2{opacity:0.2;fill:#201B9B;enable-background:new    ;}
	.st3{fill:#203B72;}
	.st4{fill:none;stroke:#0A1147;}
	.st5{fill:#1670BE;}
	.st6{fill:url(#Path_37_);}
	.st7{fill:#B9DBF4;}
	.st8{fill:url(#Path_42_);}
	.st9{fill:url(#Path_43_);}
	.st10{fill:url(#Path_44_);}
	.st11{fill:#FEBB16;}
	.st12{fill:url(#Path_45_);}
	.st13{fill:#FFFFFF;}
	.st14{fill:url(#Path_46_);}
	.st15{fill:#FFFFFF;stroke:#B9DBF4;stroke-width:3;}
	.st16{fill:#51AF08;}
	.st17{fill:#09D87F;}
	.st18{fill:#1A4CED;}
	.st19{fill:#2EA8E5;}
	.st20{fill:#9A0AE5;}
	.st21{fill:#E20E32;}
	.st22{fill:#F47E14;}
	.st23{fill:#FFCF2F;}
	.st24{fill:url(#Path_47_);}
	.st25{fill:url(#Path_48_);}
	.st26{fill:#FEB9B9;}
	.st27{fill:#0A1147;}
	.st28{fill:none;stroke:url(#Path_49_);stroke-width:2;}
	.st29{fill:none;stroke:#FFFFFF;stroke-width:2;stroke-miterlimit:10;}
	.st30{fill:url(#Path_50_);}
	.st31{fill:#FFFFFF;stroke:url(#Path_51_);stroke-width:2;}
	.st32{fill:url(#Path_52_);}
</style>
<linearGradient id="Path-2_1_" gradientUnits="userSpaceOnUse" x1="44.9131" y1="-24.9775" x2="43.9411" y2="-25.9312" gradientTransform="matrix(597.3023 -62.779 -47.1246 -448.3605 -27442.1523 -8406.7109)">
	<stop  offset="0" style="stop-color:#EF78FF"/>
	<stop  offset="1" style="stop-color:#8FDFFF"/>
</linearGradient>
<path id="Path-2" class="st0" d="M80.6,262.2c0,78.5-107.4,65.5-74.2,155.1s258.3-36.4,374.9,12.7c110.3,39,246.7-118.1,107-246.1
	C338.9,46.9,147.9-36.8,74,43.1S80.6,183.7,80.6,262.2z"/>
<linearGradient id="Path-3_1_" gradientUnits="userSpaceOnUse" x1="44.6661" y1="-24.8636" x2="43.4762" y2="-26.0313" gradientTransform="matrix(151.4074 0 0 101.7494 -6237.9253 2643.4861)">
	<stop  offset="0" style="stop-color:#EF78FF"/>
	<stop  offset="1" style="stop-color:#8FDFFF"/>
</linearGradient>
<path id="Path-3" class="st1" d="M517.6,63c5.6,57.9-60.4,68.1-106.3,39.1s-90.4-123.5-9.7-77.8C437.8,44.8,512.1,5.1,517.6,63z"/>
<ellipse id="Oval" class="st2" cx="304.8" cy="401.7" rx="172.8" ry="12.6"/>
<path id="Path" class="st3" d="M319.7,380.7l-0.8,15.5c-0.2,2.6-2.2,4.7-4.8,4.8l-24.5,0.8c0-2.2,1.4-4.4,3.6-5.2l10.3-4
	c1.9-0.7,3.2-2.5,3.2-4.7l0.1-7L319.7,380.7L319.7,380.7L319.7,380.7z"/>
<path id="Path_1_" class="st3" d="M291.2,380.7l-4.1,15.5c-0.2,2.6-2.2,4.7-4.8,4.8l-24.5,0.8c0-2.2,1.4-4.4,3.6-5.2l10.3-4
	c1.9-0.7,3.2-2.5,3.2-4.7l3.4-7L291.2,380.7L291.2,380.7L291.2,380.7z"/>
<path id="Path_2_" class="st3" d="M329,173.3c-3.5,1.5-10.7,37.4-11.1,54c-16.8,4.3-42.7,9.5-42.7,9.5l3.5,7.3c0,0,38.4,0.4,44.8,0
	c6.4-0.4,5.6-4.5,9.2-20.1c3.6-15.5,6.5-24.3,6.5-24.3S335.9,170.3,329,173.3z"/>
<path class="st4" d="M394.5,357.2h-26.4"/>
<path class="st4" d="M371.4,348.3h22.3"/>
<path class="st4" d="M427.7,357.2h-26.4"/>
<path class="st4" d="M402.1,348.3h22.3"/>
<polygon class="st4" points="380.6,301.5 388.3,301.5 352.5,401.2 344.9,401.2 "/>
<polygon class="st4" points="397.2,301.5 389.5,301.5 398.6,401.2 406.1,401.2 "/>
<polygon class="st4" points="415.1,301.5 407.5,301.5 443.2,401.2 450.8,401.2 "/>
<path id="Path_4_" class="st5" d="M372.2,235.5v67h68.5c1.6,0,3-1.3,3-3v-66.7c0-1-0.8-1.9-1.9-1.9h-65
	C374.3,231,372.2,233.1,372.2,235.5z"/>
<linearGradient id="Path_37_" gradientUnits="userSpaceOnUse" x1="41.7776" y1="-27.5738" x2="42.5991" y2="-27.5738" gradientTransform="matrix(34.1 0 0 11.6 -1040.1 626.9993)">
	<stop  offset="0" style="stop-color:#1F1A9A"/>
	<stop  offset="0.9983" style="stop-color:#02F0F4"/>
</linearGradient>
<path id="Path_5_" class="st6" d="M384.5,308.2v-2.2c0-2,0.7-3.6,1.5-3.6h26.4v9.6H386C385.2,311.9,384.5,310.3,384.5,308.2z"/>
<path id="Path_6_" class="st7" d="M428.3,302.4h-14.6c-2.6,0-4.8,2.2-4.8,4.8c0,2.6,2.2,4.8,4.8,4.8h14c10.6,0,18.9-8.5,18.9-18.9
	v-58c0-2.2-1.9-4-4-4c-2.2,0-4,1.9-4,4v57.1C438.6,297.9,434,302.5,428.3,302.4z"/>
<linearGradient id="Path_42_" gradientUnits="userSpaceOnUse" x1="44.1496" y1="-26.0612" x2="43.5872" y2="-25.2623" gradientTransform="matrix(134 0 0 148.4 -5569.6001 4137.8076)">
	<stop  offset="0" style="stop-color:#1F1A9A"/>
	<stop  offset="0.9983" style="stop-color:#02F0F4"/>
</linearGradient>
<path id="Path_7_" class="st8" d="M274.5,386.4H293l23-78l35.3-25l31.7-11.4l1.6-7.3h-29.9l-35,8c-13.5,3.1-24,13.6-27.1,27.3
	L274.5,386.4z"/>
<linearGradient id="Path_43_" gradientUnits="userSpaceOnUse" x1="44.1824" y1="-26.1206" x2="43.4248" y2="-25.3546" gradientTransform="matrix(125.9853 0 0 150 -5182.353 4177.7969)">
	<stop  offset="0" style="stop-color:#1F1A9A"/>
	<stop  offset="0.9983" style="stop-color:#02F0F4"/>
</linearGradient>
<path id="Path_8_" class="st9" d="M405.1,263.2l1,6.4c2.4,15.8-9.7,30.2-25.8,30.2h-34.3c-5.6,0-10.5,4.1-11.2,9.7l-10.9,77h-21
	l5.1-82.1c0.7-10.7,7.8-19.9,17.9-23.2l47.3-15.7L405.1,263.2z"/>
<path id="Path_9_" class="st7" d="M339.2,396.8V259.3H383v137.5c0,3.3-2.6,6-6,6h-31.7C341.8,402.8,339.2,400.1,339.2,396.8z"/>
<path id="Path_10_" class="st5" d="M345.4,396.8V259.3h43.8v137.5c0,3.3-2.6,6-6,6h-31.7C348.1,402.8,345.4,400.1,345.4,396.8z"/>
<path id="Path_11_" class="st7" d="M169.1,396.8V259.3h43.8v137.5c0,3.3-2.6,6-6,6h-31.7C171.8,402.8,169.1,400.1,169.1,396.8z"/>
<path id="Path_12_" class="st5" d="M175.3,396.8V259.3h43.8v137.5c0,3.3-2.6,6-6,6h-31.7C178,402.8,175.5,400.1,175.3,396.8z"/>
<linearGradient id="Path_44_" gradientUnits="userSpaceOnUse" x1="43.5554" y1="-26.2827" x2="44.3772" y2="-26.2827" gradientTransform="matrix(129.8 0 0 16.9 -5352.7002 701.4006)">
	<stop  offset="0" style="stop-color:#1F1A9A"/>
	<stop  offset="0.9983" style="stop-color:#02F0F4"/>
</linearGradient>
<path id="Path_13_" class="st10" d="M407.5,260.3v-6.2c0-2.2-0.8-3.9-1.9-3.9H302.7c-1,0-1.9,1.8-1.9,3.9v6.2c0,2.2,0.8,3.9,1.9,3.9
	h103C406.6,264.2,407.4,262.5,407.5,260.3z"/>
<path id="Path_14_" class="st7" d="M306.6,260.3v-6.2c0-2.2-1.8-3.9-3.9-3.9H144.8c-2.2,0-3.9,1.8-3.9,3.9v6.2
	c0,2.2,1.8,3.9,3.9,3.9h157.8C304.8,264.2,306.6,262.5,306.6,260.3z"/>
<rect id="Rectangle" x="345.5" y="264.2" class="st3" width="43.8" height="8.1"/>
<rect id="Rectangle_1_" x="175.5" y="264.2" class="st3" width="43.8" height="8.1"/>
<path id="Path_15_" class="st11" d="M196.2,192.9l13.1,57.3h75.5L270.1,191c-0.4-1.8-2-3-3.7-3h-66.2
	C197.6,188.2,195.6,190.4,196.2,192.9z"/>
<linearGradient id="Path_45_" gradientUnits="userSpaceOnUse" x1="43.6874" y1="-25.5675" x2="44.5092" y2="-25.5675" gradientTransform="matrix(107.8989 0 0 75.6 -4523.2505 2152.0046)">
	<stop  offset="0" style="stop-color:#FFE610"/>
	<stop  offset="1" style="stop-color:#FF4000"/>
</linearGradient>
<path id="Path_16_" class="st12" d="M190.6,192.9l13.1,57.3h75.5L264.5,191c-0.4-1.8-2-3-3.7-3h-66.1
	C192.1,188.2,190.2,190.4,190.6,192.9z"/>
<rect id="Rectangle_2_" x="281.6" y="245.7" class="st11" width="42.6" height="4.5"/>
<path id="Path_17_" class="st13" d="M239.9,221c-0.5-0.2-1-0.5-1.4-0.8c-1.8-1.2-2.4-2.8-2.5-4.4c0-0.7,0.2-1.4,0.7-1.9
	c0.2-0.2,0.3-0.4,0.7-0.7c-0.2-0.2-0.5-0.4-0.7-0.7c-0.8-0.7-1.6-1-2.5-1.1c-0.9-0.2-1.8-0.2-2.4,0.1c-0.5,0.2-1,0.4-1.4,0.7
	c-0.4,0.2-0.8,0.2-1.3,0c-0.4-0.2-0.8-0.2-1.2-0.4c-1-0.4-2.1-0.4-3-0.1c-1.4,0.7-2.1,1.8-2.2,3.3c-0.1,1.2,0.3,2.5,0.9,3.9
	c0.9,2,2.2,3.7,3.7,5.3c0.7,0.7,1.3,1.2,2.1,1.8c0.7,0.4,1.3,0.7,1.9,0.5c0.4-0.1,0.8-0.2,1.2-0.4c0.8-0.3,1.6-0.5,2.6-0.2
	c0.4,0.2,0.8,0.3,1.3,0.4c0.7,0.2,1.1,0.2,1.6,0c0.4-0.2,0.7-0.4,0.9-0.8c0.7-1.2,1.2-2.6,1.2-4.3C240,221,239.9,221,239.9,221z"/>
<path id="Path_18_" class="st13" d="M229.1,211.1c0.7,0,1-0.2,1.4-0.4c0.8-0.7,1.2-1.4,1.3-2.4c0-0.7-0.1-1.1-0.3-1.8h-0.1
	c-1.1,0.2-2.1,0.7-2.4,1.8c-0.3,0.8-0.5,1.6-0.1,2.6C228.9,211.1,228.9,211.1,229.1,211.1z"/>
<path id="Path_19_" class="st13" d="M212.4,100.4c0.1-0.2,0.2-0.3,0.2-0.4c0.5-1,1.1-1.4,2.2-1.4c2.4,0,4.9,0,7.4,0
	c1.2,0,2.2,0.9,2.2,2.2c0.1,1.3-0.7,2.4-2,2.5c-1.1,0.1-2.2,0.1-3.5,0.1c-1.1,0-2.2,0-3.4,0c-1.6,0.1-2.8-0.5-3.3-1.9c0,0,0,0-0.1,0
	C212.4,101.1,212.4,100.7,212.4,100.4z"/>
<path id="Path_20_" class="st13" d="M276,101.3c-0.1,0.2-0.2,0.3-0.2,0.5c-0.4,0.8-1,1.4-2.1,1.4c-2.5,0-5.2,0-7.7-0.1
	c-1.2,0-2.1-0.9-2.2-2.1c-0.1-1.2,0.7-2.2,1.8-2.5c0.7-0.1,1.2-0.2,1.9-0.2c1.9,0,3.5,0,5.3,0c1.4,0,2.6,0.5,3.2,2
	C276,100.7,276,101,276,101.3z"/>
<path id="Shape" class="st11" d="M244.2,120.4c-1.8,0-3.5,0-5.2,0c-0.2,0-0.5,0-0.7-0.1c-0.8-0.2-1.3-0.7-1.3-1.5
	c0.1-2-0.7-3.7-1.8-5.3c-1.3-2.1-2.6-4.2-3.7-6.5c-3.7-7.3-0.2-14.5,4.2-17.7c2.3-1.8,5.1-2.5,7.9-2.6c5.9-0.3,11.6,3.4,13.9,9
	c1.5,4,1.4,7.8-0.7,11.4c-1.2,2.3-2.6,4.6-4,6.8c-0.7,1.1-1.3,2.2-1.4,3.7c0,0.3,0,0.7,0,0.9c-0.1,1.2-0.7,1.9-1.9,1.9
	c-1.3,0-2.6,0-4,0C245.1,120.4,244.7,120.4,244.2,120.4z M248.8,92.6c-2.9-2-8.5-2.2-11.9,2.2c-3,3.7-2.2,8.5-0.4,10.6
	c-0.1-3.5,1-6.5,3.4-9C242.3,93.7,245.3,92.8,248.8,92.6z"/>
<path id="Path_21_" class="st5" d="M244.2,122.9c1.9,0,3.6,0,5.5,0c1.1,0,1.9,0.7,1.9,1.9c0,1.2,0,2.3,0,3.6c0,1.2-1,2-2.2,1.9
	c-0.7-0.1-1,0.2-1.4,0.7c-0.7,0.8-1.5,1.4-2.6,1.6c-1.9,0.3-3.4-0.2-4.5-1.6c-0.4-0.5-0.7-0.7-1.4-0.7c-0.3,0.1-0.7,0-1-0.1
	c-0.7-0.2-1.2-0.8-1.2-1.6c0-1.2,0-2.5,0-3.7c0-1,0.7-1.8,1.9-1.8C240.8,123,242.5,123,244.2,122.9
	C243.9,122.8,244.1,122.8,244.2,122.9C244.2,122.8,244.2,122.9,244.2,122.9z"/>
<path id="Path_22_" class="st13" d="M228.9,87.8c-0.9,0-1.4-0.3-2.1-0.8c-1.6-1.6-3.4-3.4-5.1-5.1c-1-1-1-2.4-0.1-3.4
	c1-1,2.3-1,3.5-0.1c1.8,1.8,3.5,3.5,5.2,5.2c0.7,0.7,0.9,1.8,0.5,2.6C230.5,87.3,229.6,87.7,228.9,87.8z"/>
<path id="Path_23_" class="st13" d="M246.6,75.2c0,1.2,0,2.4,0,3.7c0,1.4-0.9,2.2-2.2,2.3c-1.4,0.1-2.4-0.8-2.5-2.2
	c-0.1-0.7-0.1-1.4-0.1-2.2c0-1.4,0-3,0-4.4c0-0.5,0.1-0.9,0.2-1.4c0.2-0.9,1.2-2.1,2.6-1.9c1,0.2,2.2,1,2.2,2.2
	C246.6,72.7,246.6,73.9,246.6,75.2L246.6,75.2z"/>
<path id="Path_24_" class="st13" d="M221.1,121.9c-0.1-1,0.3-1.6,0.8-2.2c1.6-1.6,3.3-3.4,5.1-5.1c0.7-0.7,1.5-1,2.5-0.7
	c0.9,0.3,1.4,1,1.6,2c0.2,0.8-0.1,1.4-0.7,2.1c-1.8,1.9-3.5,3.5-5.3,5.2c-0.7,0.7-1.8,0.8-2.6,0.4
	C221.5,123.4,221.1,122.6,221.1,121.9z"/>
<path id="Path_25_" class="st13" d="M267.4,80.1c0,0.7-0.3,1.3-0.8,1.9c-1.6,1.6-3.3,3.3-4.9,4.9c-0.8,0.8-2,1-2.9,0.7
	c-1.4-0.7-1.9-2.6-0.7-3.9c1.2-1.3,2.5-2.6,3.9-4c0.3-0.3,0.7-0.7,1-1c0.5-0.7,1.1-0.8,1.9-1c0.2-0.1,0.3,0.1,0.5,0.1
	C266.5,77.9,267.4,78.9,267.4,80.1z"/>
<path id="Path_26_" class="st13" d="M259.6,114c0.9,0,1.4,0.2,2,0.7c1.8,1.8,3.5,3.4,5.2,5.2c0.4,0.4,0.7,1,0.9,1.6
	c-0.2,0.7-0.3,1.4-1,2c-0.9,0.7-2.1,0.7-3,0c-0.2-0.2-0.3-0.2-0.5-0.4c-1.5-1.5-3.2-3.1-4.8-4.8c-0.7-0.7-1-1.4-0.8-2.3
	C257.6,114.9,258.6,114,259.6,114z"/>
<path id="Path_27_" class="st13" d="M248.8,92.6c-3.5,0.1-6.6,1.1-8.9,3.7c-2.4,2.5-3.5,5.6-3.4,9c-1.9-2.2-2.5-6.9,0.4-10.6
	C240.3,90.4,245.9,90.7,248.8,92.6z"/>
<linearGradient id="Path_46_" gradientUnits="userSpaceOnUse" x1="43.3359" y1="-25.5224" x2="44.1579" y2="-25.5224" gradientTransform="matrix(94.6993 0 0 106.8449 -3778.6431 2933.1184)">
	<stop  offset="0" style="stop-color:#FFE610"/>
	<stop  offset="1" style="stop-color:#FF4000"/>
</linearGradient>
<path id="Path_28_" class="st14" d="M335.1,206.5c0,0,6.8,9.9,10.5,18.1c3.6,8.1,4.3,25.6,4.3,25.6h53.2c0,0,0.8-11.9-7.8-41.3
	c-8.6-29.4-12.2-40.2-24.6-43.9c-12.5-3.9-31.7-4.8-41.1,7.2C322.5,180.8,323.9,193.5,335.1,206.5z"/>
<path id="Path_29_" class="st3" d="M366.7,184.1l-0.9,35.9c-0.1,3.3-2.2,6.2-5.3,7.2l-33.9,10.7l1.4,9.2l42.1-7.7
	c7.5-1,14.3-1.4,15.2-17.2l2.2-34.3c0,0,0-12.5-5.2-17.4C372.4,161.1,366.9,174.4,366.7,184.1z"/>
<path id="Path_30_" class="st15" d="M158.2,205.6l-35.5,0.3c-3.1,0-5.5-2.3-5.5-5.4l-0.5-107.9c0-3.1,2.3-5.5,5.4-5.5l35.5-0.3
	c3.1,0,5.5,2.3,5.5,5.4l0.5,107.9C163.7,203,161.3,205.5,158.2,205.6z"/>
<ellipse id="Oval_1_" transform="matrix(1 -8.946934e-03 8.946934e-03 1 -0.8993 1.1769)" class="st16" cx="131.1" cy="101.1" rx="6.5" ry="6.5"/>
<ellipse id="Oval_2_" transform="matrix(1 -8.946934e-03 8.946934e-03 1 -0.8977 1.3352)" class="st17" cx="148.8" cy="101" rx="6.5" ry="6.5"/>
<ellipse id="Oval_3_" transform="matrix(1 -8.946934e-03 8.946934e-03 1 -1.0627 1.1793)" class="st18" cx="131.3" cy="119.4" rx="6.5" ry="6.5"/>
<ellipse id="Oval_4_" transform="matrix(1 -8.946934e-03 8.946934e-03 1 -1.0603 1.3385)" class="st19" cx="149.1" cy="119.2" rx="6.5" ry="6.5"/>
<ellipse id="Oval_5_" transform="matrix(1 -8.946934e-03 8.946934e-03 1 -1.2261 1.1825)" class="st20" cx="131.6" cy="137.6" rx="6.5" ry="6.5"/>
<ellipse id="Oval_6_" transform="matrix(1 -8.946934e-03 8.946934e-03 1 -1.2245 1.34)" class="st21" cx="149.2" cy="137.5" rx="6.5" ry="6.5"/>
<ellipse id="Oval_7_" transform="matrix(1 -8.946934e-03 8.946934e-03 1 -1.3895 1.1841)" class="st22" cx="131.6" cy="155.9" rx="6.5" ry="6.5"/>
<ellipse id="Oval_8_" transform="matrix(1 -8.946934e-03 8.946934e-03 1 -1.3871 1.3424)" class="st23" cx="149.3" cy="155.7" rx="6.5" ry="6.5"/>
<path id="Shape_1_" class="st7" d="M154.8,182.8c0,2.9-0.1,5.7-0.1,8.6c-0.1,3.7-2.3,5.9-6,5.9c-5.7-0.1-11.4-0.1-17.2-0.2
	c-3.7,0-6-2.3-5.9-6c0.1-5.6,0.1-11.4,0.2-17.1c0-3.7,2.2-6,6-6c5.7,0.1,11.4,0.1,17.2,0.2c2.9,0,5.1,1.5,5.6,4.1
	c0.2,0.7,0.2,1.3,0.2,1.9C154.8,177.1,154.8,180,154.8,182.8z M147.6,171.9c-3.7,4-7.3,7.8-11.1,11.8c1.2,0.9,2.3,1.8,3.5,2.5
	c3.1-4.4,6.3-8.8,9.3-13.2C148.8,172.7,148.2,172.4,147.6,171.9z M129.5,193.4c0,0.1,0.1,0.2,0.1,0.2c1.4-0.2,2.8-0.2,4.1-0.5
	c2.2-0.5,4-1.9,4.6-4.2c0.3-1.4,0.2-1.6-0.9-2.4c-0.2-0.2-0.4-0.3-0.7-0.5c-1.4-1-2.5-0.9-3.7,0.2c-0.9,0.9-1.4,2-1.6,3.1
	C130.8,190.8,130.4,192.3,129.5,193.4z"/>
<linearGradient id="Path_47_" gradientUnits="userSpaceOnUse" x1="42.9276" y1="-25.3887" x2="43.1702" y2="-25.2278" gradientTransform="matrix(15.7 0 0 17.4 -532.3 619.0012)">
	<stop  offset="0" style="stop-color:#1F1A9A"/>
	<stop  offset="0.9983" style="stop-color:#02F0F4"/>
</linearGradient>
<path id="Path_31_" class="st24" d="M147.6,171.9c0.7,0.3,1.2,0.7,1.9,1c-3.1,4.4-6.3,8.8-9.3,13.2c-1.1-0.8-2.2-1.8-3.5-2.5
	C140.3,179.8,143.9,175.8,147.6,171.9z"/>
<linearGradient id="Path_48_" gradientUnits="userSpaceOnUse" x1="42.4244" y1="-25.3597" x2="42.7736" y2="-25.0835" gradientTransform="matrix(10.9042 0 0 10.1308 -329.9848 446.4548)">
	<stop  offset="0" style="stop-color:#1F1A9A"/>
	<stop  offset="0.9983" style="stop-color:#02F0F4"/>
</linearGradient>
<path id="Path_32_" class="st25" d="M129.5,193.4c1-1.1,1.4-2.5,1.9-4c0.3-1.1,0.7-2.2,1.6-3.1c1.2-1.1,2.4-1.2,3.7-0.2
	c0.2,0.2,0.4,0.3,0.7,0.5c1.1,0.8,1.2,1.1,0.9,2.4c-0.7,2.3-2.2,3.7-4.6,4.2c-1.3,0.3-2.6,0.3-4.1,0.5
	C129.5,193.5,129.5,193.5,129.5,193.4z"/>
<path id="Path_33_" class="st26" d="M361.7,166.6l-7.7-6.2l-3.3-35.9l-27.2-5.2c0,0-3.1,10.7,0.4,25.2c2.4,10.1,5.6,19.7,10.5,16.7
	c4.9-3.1,7.3,2.9,8.1,5.3c0.8,2.4-3.5,6.2-3.5,6.2s-0.3,5.5,10.3,1.9C360.2,171.1,361.7,166.6,361.7,166.6"/>
<path id="Path_34_" class="st27" d="M323.5,141.3c-4.1,0.5-10.7,1-7.6-7.9c1.3-3.7-3.7-9.6-0.2-14.7c1.6-2.3,7.6-12.2,18.8-9.5
	c5.2,1.2,6.2,6.7,10.8,7.6c4.6,0.8,8.7-0.7,11.7,4.9c3,5.6-1.1,7.2,3.9,12.6c5.2,5.4-2.2,8.6-3.2,12.2c-1,3.5-0.1,4.8-2.8,5.2
	c-2.6,0.5-7.2-3.4-6.6-12.2c0.4-7.5-0.9-6.6-6-9.3c-3-1.5-11.1-5.2-14-3.7C320.1,130.1,323.5,141.3,323.5,141.3z"/>
<path id="Path_35_" class="st27" d="M345.1,129.1c0,0,7.9,15.5-8.6,23.5c-3.5,1.8-8.9,0.7-9.1,2.2c-0.2,1.6,2.8,8.5,4.9,9.2
	c2.2,0.7,3.2-0.7,7-3.7c3.8-3.1,12.2-10.9,9.1-26.7C347,125.5,345.1,129.1,345.1,129.1z"/>
<path id="Path_36_" class="st26" d="M326.5,237.7c0,0-11.3,1.4-14.6,2.1c-3.3,0.7-10.7,6-10.7,6s0.7,1.9,3.5,2.2
	c2.8,0.4,6.2-3.7,10.9-3.9c4.7-0.1,12.4,2.8,12.4,2.8L326.5,237.7z"/>
<g>
	
		<linearGradient id="Path_49_" gradientUnits="userSpaceOnUse" x1="50.6464" y1="-29.0868" x2="51.5162" y2="-29.0868" gradientTransform="matrix(55.7 0 0 56.4 -2381.1001 1727.1985)">
		<stop  offset="0" style="stop-color:#FFE610"/>
		<stop  offset="1" style="stop-color:#FF4000"/>
	</linearGradient>
	<path id="Path_3_" class="st28" d="M458.8,63.2c11.1,1.8,19.6,11.4,19.6,22.9c0,12.9-10.5,23.3-23.3,23.3
		c-10.6,0-19.7-7.2-22.4-16.8"/>
	<path id="Path_38_" class="st29" d="M432,92.6h-19.9V46h46.7v0v16.4"/>
	
		<linearGradient id="Path_50_" gradientUnits="userSpaceOnUse" x1="54.5296" y1="-30.7961" x2="55.351" y2="-30.7961" gradientTransform="matrix(34.5 0 0 37.9 -1449.8 1245.0989)">
		<stop  offset="0" style="stop-color:#FFE610"/>
		<stop  offset="1" style="stop-color:#FF4000"/>
	</linearGradient>
	<path id="Path_39_" class="st30" d="M459.8,62.7v30.8h-27.4c-0.7-2.2-1-4.4-1-6.7c0-13.5,11-24.4,24.4-24.4
		C457.2,62.4,458.5,62.4,459.8,62.7z"/>
</g>
<linearGradient id="Path_51_" gradientUnits="userSpaceOnUse" x1="36.6872" y1="-22.813" x2="37.6597" y2="-22.813" gradientTransform="matrix(59.5 0 0 59.5 -2131.3999 1614.5996)">
	<stop  offset="0" style="stop-color:#FFE610"/>
	<stop  offset="1" style="stop-color:#FF4000"/>
</linearGradient>
<path id="Path_40_" class="st31" d="M96.4,281.7H64.3c-4.6,0-8.4-3.7-8.4-8.4v-32.1c0-4.6,3.7-8.4,8.4-8.4h32.1
	c4.6,0,8.4,3.7,8.4,8.4v32.1C104.9,277.9,101,281.7,96.4,281.7z"/>
<linearGradient id="Path_52_" gradientUnits="userSpaceOnUse" x1="31.31" y1="-21.1934" x2="32.1303" y2="-21.1934" gradientTransform="matrix(34.1 0 0 37.1 -1001.9999 1044.2)">
	<stop  offset="0" style="stop-color:#1F1A9A"/>
	<stop  offset="0.9983" style="stop-color:#02F0F4"/>
</linearGradient>
<path id="Path_41_" class="st32" d="M72.5,273.1v-1.8c1.8-0.1,2.8-0.2,3.1-0.3c0.3-0.2,0.7-0.5,0.7-0.9c0.2-0.7,0.2-2.4,0.2-5.6v-13
	c0-3.5,0-5.6-0.1-6h-3.1c-1.5,0-3,0.1-4.1,0.2c-0.5,0.1-0.7,0.1-0.8,0.2c-0.1,0.1-0.2,0.3-0.2,0.7c-0.2,1-0.3,2.2-0.3,3.5h-1.9
	c-0.1-3-0.1-4.7-0.1-5.1c-0.1-0.7-0.1-1.3-0.2-2.1l0.2-0.2c0.7,0.1,1.4,0.2,2.2,0.2c1.2,0.1,3.6,0.1,7.3,0.1h8.8c3.7,0,6,0,7.3-0.1
	c0.7,0,1.3-0.1,2.1-0.2l0.2,0.2c-0.2,0.9-0.2,1.6-0.2,2.2c0,0.1-0.1,1.8-0.1,4.8h-1.9c0-1.1-0.2-2.2-0.2-3.3
	c-0.1-0.5-0.2-0.8-0.2-0.9c0-0.1-0.3-0.2-0.7-0.2c-1.2-0.1-2.6-0.2-4.3-0.2h-3.1c-0.1,0.5-0.1,2.4-0.1,6v13.1c0,3.1,0.1,5.1,0.2,5.6
	c0.1,0.4,0.3,0.7,0.7,0.8c0.3,0.2,1.4,0.3,3.1,0.3v1.9c-2.8-0.2-5.2-0.2-7.2-0.2C77.6,272.9,75.2,273,72.5,273.1z"/>
</svg>
