<?xml version="1.0" encoding="utf-8"?>
<!-- Generator: Adobe Illustrator 19.2.0, SVG Export Plug-In . SVG Version: 6.00 Build 0)  -->
<svg version="1.1" id="Layer_1" xmlns="http://www.w3.org/2000/svg" xmlns:xlink="http://www.w3.org/1999/xlink" x="0px" y="0px"
	 width="222px" height="160px" viewBox="0 0 222 160" style="enable-background:new 0 0 222 160;" xml:space="preserve">
<style type="text/css">
	.st0{fill:#FEBF14;}
	.st1{fill:#F68D20;}
	.st2{fill:#B1642C;}
	.st3{fill:#66E2FF;}
	.st4{fill:#D7F7FF;}
	.st5{fill:#FF4E00;}
	.st6{fill:#DB3400;}
	.st7{fill:#FF743E;}
	.st8{fill:#EAE8E8;}
	.st9{fill:#68370B;}
	.st10{fill:#FFFFFF;}
</style>
<path class="st0" d="M72.4,24.9c-2.6,1-4.5,3-5.3,5.4c2.2,1.3,5,1.6,7.6,0.6s4.5-3,5.3-5.4C77.7,24.2,75,23.9,72.4,24.9z"/>
<path class="st0" d="M69.4,117.9V87.8l0-7.8c-0.7,0.4-1.5,0.7-2.4,0.7c-2.5,0-4.5-2-4.5-4.5c0-2.5,2-4.5,4.5-4.5
	c0.9,0,1.7,0.2,2.4,0.7l0-24.3c-3.1-0.3-5.4-2.9-5.4-6c0-1.9,0.8-3.5,2.2-4.6h3.3v-6.9c0-3.8-3.1-6.9-6.9-6.9h-13
	c-0.8,0-1.5,0.1-2.2,0.4c3.2,1.9,5.4,5.5,5.4,9.5c0,1.4-0.2,2.7-0.7,3.9h3.5v13.5c0.6-0.1,1.2-0.2,1.9-0.2c4.6,0,8.4,3.8,8.4,8.4
	c0,4.7-3.8,8.4-8.4,8.4c-0.7,0-1.3-0.1-1.9-0.2v14c0.6-0.3,1.2-0.4,1.9-0.4c2.4,0,4.3,1.9,4.3,4.3c0,2.4-1.9,4.3-4.3,4.3
	c-1.1,0-2.2-0.4-2.9-1.1c-1.2,1.9-3.3,3.2-5.7,3.2H33c-4.9,0-10.3,2.6-10.8,10L22,105c0.6-0.2,1.3-0.3,1.9-0.3c3,0,5.5,2.4,5.5,5.5
	s-2.4,5.5-5.5,5.5c-0.9,0-1.7-0.2-2.5-0.6l-1.3,24.4h5.5l1.6-7.6c-2-0.7-3.4-2.6-3.4-4.8c0-2.8,2.3-5.1,5.1-5.1c0.1,0,0.3,0,0.4,0
	l0.6-3c0.8-3.9,2.9-5.6,5.7-5.7c-0.5-0.7-0.8-1.6-0.8-2.5c0-2.4,2-4.4,4.4-4.4c2.4,0,4.4,2,4.4,4.4c0,0.9-0.3,1.8-0.8,2.5h11.5
	c3.5,0,5,1.8,5.5,5.2l4,21h5.4v-12.5c-2.2-0.3-3.9-2.2-3.9-4.5C65.5,120.1,67.2,118.2,69.4,117.9z M31.8,104c-2.5,0-4.5-2-4.5-4.5
	s2-4.5,4.5-4.5s4.5,2,4.5,4.5S34.4,104,31.8,104z M42.2,97.7c0-1.6,1.3-2.9,2.9-2.9s2.9,1.3,2.9,2.9s-1.3,2.9-2.9,2.9
	S42.2,99.3,42.2,97.7z M47.9,110.3c-1.2,0-2.1-1-2.1-2.1c0-1.2,1-2.1,2.1-2.1s2.1,1,2.1,2.1C50,109.4,49.1,110.3,47.9,110.3z
	 M59.1,109.8c-4.7,0-8.5-3.8-8.5-8.5c0-4.7,3.8-8.5,8.5-8.5c4.7,0,8.5,3.8,8.5,8.5C67.6,106,63.8,109.8,59.1,109.8z"/>
<path class="st1" d="M52.7,33.4c0,1.4-0.2,2.7-0.7,3.9h-2.5c-1.9,0-3.6-0.8-4.9-2c-1.2-1.2-2-3-2-4.9c0-3,1.9-5.6,4.7-6.5
	C50.5,25.8,52.7,29.3,52.7,33.4z"/>
<circle class="st2" cx="47.3" cy="29.2" r="1.7"/>
<path class="st1" d="M65,24.9L65,24.9c-0.5,0-0.9-0.4-0.9-0.9v-3.7c0-0.5,0.4-0.9,0.9-0.9l0,0c0.5,0,0.9,0.4,0.9,0.9V24
	C65.9,24.5,65.5,24.9,65,24.9z"/>
<circle class="st1" cx="65" cy="18.8" r="2.2"/>
<path class="st1" d="M59.3,24.9L59.3,24.9c-0.5,0-0.9-0.4-0.9-0.9v-3.7c0-0.5,0.4-0.9,0.9-0.9l0,0c0.5,0,0.9,0.4,0.9,0.9V24
	C60.2,24.5,59.8,24.9,59.3,24.9z"/>
<circle class="st1" cx="59.3" cy="18.8" r="2.2"/>
<g>
	<path class="st3" d="M45.8,91.3H33.5c-1.1,0-2-0.9-2-2V60h16.2v29.4C47.8,90.4,46.9,91.3,45.8,91.3z"/>
	<path class="st4" d="M39.6,87.7L39.6,87.7c-3.4,0-6.2-2.8-6.2-6.2V60h12.4v21.5C45.9,84.9,43.1,87.7,39.6,87.7z"/>
	<path class="st5" d="M45.9,65.1v19.1c0,1.9-1.6,3.5-3.5,3.5h-5.4c-1.9,0-3.5-1.6-3.5-3.5V65.1h6l2.5,21.5l1.7-0.2l-2.5-21.3H45.9z"
		/>
	<polygon class="st6" points="41.4,67.3 39.9,69.5 39.5,65.9 40,65.1 41.1,65.1 	"/>
	<polygon class="st7" points="40,65.1 39.5,65.9 39.4,65.1 	"/>
	<polygon class="st6" points="42.2,74.2 40.7,76.4 40.3,72.8 41.8,70.6 	"/>
	<polygon class="st6" points="43,81.2 41.5,83.4 41.1,79.8 42.6,77.6 	"/>
	<polygon class="st6" points="43.6,86.4 42,86.6 43.4,84.5 	"/>
	<path class="st0" d="M47.7,34.7c0,0.3-0.2,0.6-0.4,0.8l-1.6,1l-2.4-0.6l3.1-1.8c0.4-0.3,1-0.1,1.2,0.3
		C47.7,34.4,47.7,34.6,47.7,34.7z"/>
	<polygon class="st0" points="39.8,53.4 38.3,55.6 37.8,52 39.3,49.8 	"/>
	<polygon class="st0" points="40.6,60.3 40.6,60.3 39.1,62.5 38.6,58.9 40.2,56.7 	"/>
	<polygon class="st0" points="41.1,65.1 40,65.1 41,63.7 	"/>
	<polygon class="st8" points="45.8,36.4 43.1,38 40.7,37.4 43.4,35.8 	"/>
	<path class="st8" d="M40.8,39.4c-0.7,0.5-1.3,1.1-1.7,1.9l-1.7-0.5c0.3-0.7,0.8-1.4,1.3-2L40.8,39.4z"/>
	<path class="st0" d="M43.2,37.9l-2.4,1.5c0,0,0,0-0.1,0l-2.1-0.6c0.4-0.4,0.8-0.7,1.3-1l1-0.6L43.2,37.9z"/>
	<path class="st8" d="M38.6,43.7l0.1,0.9L37.1,46l-0.2-2.1c0-0.2,0-0.4,0-0.6l2.1-1.8C38.6,42.3,38.6,43,38.6,43.7z"/>
	<polygon class="st8" points="39.3,49.8 37.8,52 37.4,48.6 39,46.4 	"/>
	<path class="st0" d="M39.1,41.2c-0.1,0.1-0.3,0.7-0.4,1.1l-1.8,1c0-0.9,0.2-1.8,0.5-2.6L39.1,41.2z"/>
	<polygon class="st0" points="39,46.8 37.4,48.6 37.1,46 38.7,44.7 	"/>
	<polygon class="st8" points="40.2,56.7 38.6,58.9 38.3,55.6 39.8,53.4 	"/>
	<polygon class="st8" points="41,63.7 40,65.1 39.4,65.1 39.1,62.5 40.6,60.3 	"/>
	<polygon class="st7" points="41.8,70.6 40.3,72.8 39.9,69.5 41.4,67.3 	"/>
	<polygon class="st7" points="42.6,77.6 42.6,77.6 41.1,79.8 40.7,76.4 42.2,74.2 	"/>
	<polygon class="st7" points="43.4,84.5 42,86.6 42,86.6 41.9,86.7 41.5,83.4 43,81.2 	"/>
</g>
<g>
	<circle class="st9" cx="61.5" cy="30.3" r="2.4"/>
	<circle class="st10" cx="61.9" cy="29.5" r="0.9"/>
</g>
<path class="st1" d="M72.6,26.5c-0.6,0.2-1.2,0.6-1.6,1.1c-0.8,0.8-0.3,2.2,0.9,2.3c0.6,0,1.3,0,1.9-0.3c1.3-0.5,3-1.8,3.4-3.1
	C76,25.8,74,26,72.6,26.5z"/>
<path class="st9" d="M25.6,139.4l-0.4,2c-0.3,1.2-1.3,2-2.5,2h-0.1c-1.5,0-2.6-1.2-2.5-2.7l0.1-1.4H25.6z"/>
<path class="st9" d="M69.4,139.4v1.5c0,0.7-0.3,1.3-0.7,1.8c-0.5,0.5-1.1,0.7-1.8,0.7c-1.2,0-2.3-0.9-2.5-2.1l-0.4-2H69.4z"/>
<circle class="st1" cx="59.1" cy="101.2" r="8.5"/>
<path class="st1" d="M65.8,58.9c0,4.7-3.8,8.4-8.4,8.4c-0.7,0-1.3-0.1-1.9-0.2V50.7c0.6-0.1,1.2-0.2,1.9-0.2
	C62,50.5,65.8,54.3,65.8,58.9z"/>
<path class="st1" d="M29.3,121.9l-2.1,9.9c-2-0.7-3.4-2.6-3.4-4.8c0-2.8,2.3-5.1,5.1-5.1C29,121.9,29.1,121.9,29.3,121.9z"/>
<path class="st1" d="M69.4,72.2V80c-0.7,0.4-1.5,0.7-2.4,0.7c-2.5,0-4.5-2-4.5-4.5c0-2.5,2-4.5,4.5-4.5
	C67.9,71.6,68.7,71.8,69.4,72.2z"/>
<path class="st1" d="M69.4,117.9v9c-2.2-0.3-3.9-2.2-3.9-4.5C65.5,120.1,67.2,118.2,69.4,117.9z"/>
<path class="st1" d="M43.6,110.7c0,0.9-0.3,1.8-0.8,2.5h-7c-0.1,0-0.2,0-0.3,0c-0.5-0.7-0.8-1.6-0.8-2.5c0-2.4,2-4.4,4.4-4.4
	C41.7,106.3,43.6,108.2,43.6,110.7z"/>
<circle class="st1" cx="47.9" cy="108.2" r="2.1"/>
<circle class="st1" cx="31.8" cy="99.4" r="4.5"/>
<path class="st1" d="M61.7,85c0,2.4-1.9,4.3-4.3,4.3c-1.1,0-2.2-0.4-2.9-1.1c0.7-1,1-2.3,1-3.6v-3.4c0.6-0.3,1.2-0.4,1.9-0.4
	C59.8,80.6,61.7,82.6,61.7,85z"/>
<path class="st1" d="M29.4,110.1c0,3-2.4,5.5-5.5,5.5c-0.9,0-1.7-0.2-2.5-0.6l0.5-10v0c0.6-0.2,1.3-0.3,1.9-0.3
	C26.9,104.7,29.4,107.1,29.4,110.1z"/>
<circle class="st1" cx="45.1" cy="97.7" r="2.9"/>
<path class="st1" d="M69.4,35.8c-0.8,0.1-1.5,0.3-2.2,0.6c-2,1-3.3,3-3.3,5.4c0,3.1,2.4,5.7,5.4,6c0,0,0,0,0,0V35.8z"/>
<path class="st0" d="M37.3,94.6h-9.5c-6.2,0-11.3-5.1-11.3-11.3v-1c0-0.8,0.7-1.5,1.5-1.5s1.5,0.7,1.5,1.5v1c0,4.6,3.7,8.3,8.3,8.3
	h9.5c0.8,0,1.5,0.7,1.5,1.5S38.2,94.6,37.3,94.6z"/>
<path class="st1" d="M18,83.4L18,83.4c-1.5,0-2.8-1.3-2.8-2.8v-3c0-1.5,1.3-2.8,2.8-2.8h0c1.5,0,2.8,1.3,2.8,2.8v3
	C20.8,82.1,19.5,83.4,18,83.4z"/>
<g>
	<g>
		<path class="st0" d="M110.2,39.7c-0.4-0.2-0.8-0.4-1.2-0.4h-8.1c-0.9,0-1.3,0.6-1.3,1.7c0,0.5,0.1,0.9,0.3,1.3
			c0.2,0.3,0.6,0.5,1,0.5h6v20.3c0,4.3-2,6.5-6.1,6.5c-1.9,0-3.4-0.5-4.4-1.5c-1.1-1-1.6-2.3-1.6-3.9c0-0.9-0.6-1.3-1.9-1.3
			c-0.6,0-1.1,0.1-1.4,0.4c-0.3,0.3-0.5,0.8-0.5,1.5c0,2.5,0.9,4.5,2.8,6.1c1.8,1.5,4.3,2.3,7.3,2.3c2.9,0,5.3-0.8,7.1-2.4
			c1.8-1.6,2.7-4.1,2.7-7.6V40.7C110.7,40.3,110.5,39.9,110.2,39.7z M133.6,51.5c-0.4-0.3-0.8-0.4-1.4-0.4c-0.5,0-1,0.1-1.4,0.4
			c-0.4,0.3-0.6,0.6-0.6,0.9v12c0,1.4-0.5,2.6-1.6,3.7c-1,1.1-2.3,1.6-3.7,1.6c-1.4,0-2.7-0.5-3.7-1.6c-1-1.1-1.6-2.3-1.6-3.7V52.5
			c0-0.3-0.2-0.6-0.6-0.9c-0.4-0.3-0.8-0.4-1.3-0.4c-0.5,0-1,0.1-1.4,0.4c-0.4,0.3-0.6,0.6-0.6,1v11.9c0,2.4,0.9,4.4,2.7,6.2
			c1.8,1.8,3.9,2.6,6.4,2.6c2.4,0,4.6-0.9,6.4-2.6c1.8-1.8,2.7-3.8,2.7-6.2v-12C134.1,52.1,134,51.8,133.6,51.5z M142.6,51.5
			c-0.4-0.2-0.8-0.4-1.4-0.4c-0.5,0-1,0.1-1.3,0.4c-0.4,0.2-0.6,0.6-0.6,1v19.1c0,0.4,0.2,0.7,0.6,1c0.4,0.3,0.8,0.4,1.3,0.4
			c0.5,0,1-0.1,1.4-0.4c0.4-0.3,0.6-0.6,0.6-0.9V52.5C143.2,52.1,143,51.7,142.6,51.5z M141.3,40.8c-0.7,0-1.2,0.2-1.7,0.6
			c-0.5,0.4-0.7,0.9-0.7,1.5c0,0.6,0.2,1.1,0.7,1.5c0.5,0.4,1,0.7,1.7,0.7c0.6,0,1.2-0.2,1.7-0.7c0.5-0.4,0.7-1,0.7-1.5
			c0-0.6-0.2-1.1-0.7-1.5C142.5,41,141.9,40.8,141.3,40.8z M162.3,68.2c-0.2,0-0.7,0.3-1.7,0.8c-0.9,0.5-2.1,0.8-3.4,0.8
			c-3.8,0-5.6-1.8-5.6-5.4v-4.6c0-1.7,0.5-3.1,1.4-4c0.9-0.9,2.3-1.4,4.2-1.4c1.3,0,2.3,0.3,3.3,0.8c0.9,0.5,1.5,0.8,1.6,0.8
			c0.4,0,0.8-0.2,1.1-0.6c0.3-0.4,0.5-0.8,0.5-1.3c0-0.8-0.7-1.5-2-2.2c-1.3-0.7-2.9-1-4.8-1c-3,0-5.3,0.8-6.8,2.5
			c-1.5,1.7-2.3,3.8-2.3,6.4v4.6c0,2.7,0.8,4.8,2.3,6.5c1.5,1.6,3.8,2.5,6.9,2.5c2,0,3.6-0.4,5-1.1c1.3-0.7,2-1.4,2-2.2
			c0-0.4-0.2-0.8-0.5-1.2C163.2,68.4,162.8,68.2,162.3,68.2z M180.6,63.1c0.6,0,1.2,0,1.5-0.1c0.4-0.1,0.8-0.2,1.2-0.4
			c0.4-0.2,0.8-0.6,1-1.2c0.2-0.5,0.3-1.3,0.3-2.2c0-2.4-0.9-4.4-2.6-6c-1.7-1.6-3.8-2.4-6.2-2.4c-2.5,0-4.7,0.9-6.5,2.6
			c-1.8,1.7-2.7,3.8-2.7,6.1v4.8c0,2.7,0.9,4.8,2.8,6.5c1.9,1.6,4.3,2.5,7.3,2.5c2.1,0,3.8-0.4,5.2-1.1c1.4-0.7,2.1-1.5,2.1-2.2
			c0-0.4-0.2-0.8-0.5-1.2c-0.3-0.4-0.7-0.6-1.1-0.6c-0.3,0-0.6,0.1-1.1,0.4c-0.5,0.3-1.1,0.6-1.8,0.9c-0.8,0.3-1.6,0.5-2.6,0.5
			c-1.9,0-3.5-0.5-4.7-1.5c-1.2-1-1.8-2.4-1.8-4v-1.4H180.6z M170.5,58.8c0-1.4,0.5-2.6,1.6-3.6c1-1,2.3-1.4,3.7-1.4
			c1.5,0,2.7,0.5,3.7,1.6c1,1,1.5,2.3,1.5,3.6c0,0.6-0.1,1-0.4,1.2c-0.3,0.2-0.8,0.3-1.6,0.3h-8.5V58.8z"/>
	</g>
</g>
<path class="st1" d="M92.4,119.6c0.5,0.3,1,0.5,1.6,0.5c0.8,0,1.2-0.3,1.4-0.9l2-6.8h12.2l2,6.8c0.2,0.6,0.6,0.9,1.4,0.9
	c0.6,0,1.1-0.2,1.6-0.5c0.5-0.3,0.8-0.7,0.8-1.1c0,0,0-0.1,0-0.1c0-0.1,0-0.1,0-0.2l-9.4-30.6c-0.3-0.9-1.1-1.4-2.3-1.4
	c-1.3,0-2.1,0.4-2.3,1.3l-9.4,30.5c-0.1,0.2-0.1,0.3-0.1,0.4C91.6,118.9,91.9,119.3,92.4,119.6z M103.4,91.9l5.1,17.3H98.3
	L103.4,91.9z"/>
<path class="st1" d="M120.4,117.7c1.6,1.8,3.5,2.7,5.6,2.7c1.4,0,2.6-0.4,3.8-1.1c1.2-0.7,2-1.6,2.5-2.6v1.9c0,0.4,0.2,0.7,0.5,1
	c0.4,0.3,0.8,0.4,1.2,0.4c0.5,0,1-0.1,1.3-0.4c0.4-0.3,0.6-0.6,0.6-1V86.5c0-0.4-0.2-0.7-0.5-1c-0.4-0.2-0.8-0.4-1.4-0.4
	c-0.6,0-1,0.1-1.4,0.4c-0.4,0.2-0.6,0.6-0.6,1v15c-0.6-1-1.3-1.8-2.4-2.5c-1-0.7-2.3-1-3.6-1c-2.2,0-4.2,0.9-5.8,2.6
	c-1.6,1.7-2.4,3.8-2.4,6.2v4.7C118,113.8,118.8,115.9,120.4,117.7z M121.8,106.8c0-1.4,0.5-2.6,1.6-3.7c1-1.1,2.3-1.6,3.7-1.6
	c1.4,0,2.6,0.5,3.6,1.5c1,1,1.6,2.3,1.6,3.9v5.9c0,0.8-0.5,1.7-1.6,2.7c-1.1,1-2.3,1.5-3.6,1.5c-1.4,0-2.6-0.6-3.6-1.7
	c-1-1.1-1.6-2.4-1.6-3.8V106.8z"/>
<path class="st1" d="M139.5,100.6l7.5,19.1c0.2,0.6,0.8,0.8,1.8,0.8c0.9,0,1.5-0.3,1.7-0.8l7.5-19.1c0.1-0.2,0.2-0.5,0.2-0.7
	c0-0.4-0.3-0.8-0.9-1.1c-0.6-0.3-1.1-0.5-1.6-0.5c-0.6,0-1,0.3-1.2,0.9l-5.7,15.4L143,98.9c-0.2-0.5-0.6-0.7-1.2-0.7
	c-0.6,0-1.1,0.2-1.6,0.5c-0.5,0.3-0.8,0.7-0.8,1.1C139.3,100,139.4,100.2,139.5,100.6L139.5,100.6z"/>
<path class="st1" d="M163.4,92.3c0.6,0,1.2-0.2,1.7-0.7c0.5-0.4,0.7-1,0.7-1.5c0-0.6-0.2-1.1-0.7-1.5c-0.5-0.4-1-0.6-1.7-0.6
	c-0.7,0-1.2,0.2-1.7,0.6c-0.5,0.4-0.7,0.9-0.7,1.5c0,0.6,0.2,1.1,0.7,1.5C162.2,92.1,162.8,92.3,163.4,92.3z M162.1,119.6
	c0.4,0.3,0.8,0.4,1.3,0.4c0.5,0,1-0.1,1.4-0.4c0.4-0.3,0.6-0.6,0.6-0.9V99.6c0-0.4-0.2-0.7-0.6-1c-0.4-0.2-0.8-0.4-1.4-0.4
	c-0.5,0-1,0.1-1.3,0.4c-0.4,0.2-0.6,0.6-0.6,1v19.1C161.5,119,161.7,119.4,162.1,119.6z"/>
<path class="st1" d="M172.3,118c1.5,1.6,3.8,2.5,6.9,2.5c2,0,3.6-0.4,5-1.1c1.3-0.7,2-1.4,2-2.2c0-0.4-0.2-0.8-0.5-1.2
	c-0.3-0.4-0.7-0.6-1.2-0.6c-0.2,0-0.7,0.3-1.7,0.8c-0.9,0.5-2.1,0.8-3.4,0.8c-3.8,0-5.6-1.8-5.6-5.4v-4.6c0-1.7,0.5-3.1,1.4-4
	c0.9-0.9,2.3-1.4,4.2-1.4c1.3,0,2.3,0.3,3.3,0.8c0.9,0.5,1.5,0.8,1.6,0.8c0.4,0,0.8-0.2,1.1-0.6c0.3-0.4,0.5-0.8,0.5-1.3
	c0-0.8-0.7-1.5-2-2.2c-1.3-0.7-2.9-1-4.8-1c-3,0-5.3,0.8-6.8,2.5c-1.5,1.7-2.3,3.8-2.3,6.4v4.6C170,114.2,170.8,116.3,172.3,118z"/>
<path class="st1" d="M191.7,118c1.9,1.6,4.3,2.5,7.3,2.5c2.1,0,3.8-0.4,5.2-1.1c1.4-0.7,2.1-1.5,2.1-2.2c0-0.4-0.2-0.8-0.5-1.2
	c-0.3-0.4-0.7-0.6-1.1-0.6c-0.3,0-0.6,0.1-1.1,0.4c-0.5,0.3-1.1,0.6-1.8,0.9c-0.8,0.3-1.6,0.5-2.6,0.5c-1.9,0-3.5-0.5-4.7-1.5
	c-1.2-1-1.8-2.4-1.8-4v-1.4h10.1c0.6,0,1.2,0,1.5-0.1c0.4-0.1,0.8-0.2,1.2-0.4c0.4-0.2,0.8-0.6,1-1.2c0.2-0.5,0.3-1.3,0.3-2.2
	c0-2.4-0.9-4.4-2.6-6c-1.7-1.6-3.8-2.4-6.2-2.4c-2.5,0-4.7,0.9-6.5,2.6c-1.8,1.7-2.7,3.8-2.7,6.1v4.8
	C188.9,114.2,189.8,116.3,191.7,118z M192.7,106c0-1.4,0.5-2.6,1.6-3.6c1-1,2.3-1.4,3.7-1.4c1.5,0,2.7,0.5,3.7,1.6
	c1,1,1.5,2.3,1.5,3.6c0,0.6-0.1,1-0.4,1.2c-0.3,0.2-0.8,0.3-1.6,0.3h-8.5V106z"/>
</svg>
