<?xml version="1.0" encoding="utf-8"?>
<!-- Generator: Adobe Illustrator 19.2.0, SVG Export Plug-In . SVG Version: 6.00 Build 0)  -->
<svg version="1.1" id="Layer_1" xmlns="http://www.w3.org/2000/svg" xmlns:xlink="http://www.w3.org/1999/xlink" x="0px" y="0px"
	 width="222px" height="49px" viewBox="0 0 222 49" style="enable-background:new 0 0 222 49;" xml:space="preserve">
<style type="text/css">
	.st0{fill:#57B952;}
	.st1{fill:#636466;}
</style>
<g>
	<path id="Shape" class="st0" d="M161.9,36.9c0,3.3-2.7,6-5.9,6s-5.9-2.7-5.9-6V21.1h-5.3v15.8c0,6.3,5,11.4,11.2,11.4
		c6.2,0,11.2-5.1,11.2-11.4V21.1h-5.3V36.9z"/>
	<path id="Shape_2" class="st0" d="M175.4,21.1h13c5.3,0,9.6,4.4,9.6,9.8s-4.3,9.8-9.6,9.8h-7.8v6.3h-5.3V21.1z M180.6,35.2h7.8
		c2.4,0,4.3-2,4.3-4.4c0-2.4-1.9-4.4-4.3-4.4h-7.8V35.2z"/>
	<path id="Shape_3" class="st1" d="M121.7,19.7l8.9,0c-0.9,2.2-2.4,4-4.4,5.2c-2.7,1.6-6.9,1.2-10,0.2c-1.9-0.6-4.9-1.8-7.8-3.1
		c-3.1-1.3-6.1-2.6-8.3-3.3c-2.6-0.8-9-2.3-14.1,0.7c-3.6,2.1-6.2,5.5-7.3,9.6s-0.5,8.4,1.6,12c3.4,6,10.2,9,16.8,7.5
		c6.6-1.5,11.5-7.1,12.2-14l0.3-2.9H94.5v5.4h8.9c-1.7,4.2-5.9,6.9-10.4,6.5c-4.5-0.4-8.2-3.6-9.2-8.1c-1-4.5,1-9.1,4.9-11.3
		c2.7-1.6,6.9-1.2,10-0.2c1.9,0.6,4.9,1.8,7.8,3.1c3.1,1.3,6.1,2.6,8.3,3.3c2.6,0.8,9,2.2,14.1-0.7c4.4-2.6,7.3-7.1,7.7-12.2
		l0.3-2.9l-15.1,0V19.7z"/>
	<path id="Shape_4" class="st1" d="M29.3,21.1H24v25.8h16.9v-5.4H29.3V21.1z"/>
	<path id="Shape_5" class="st1" d="M50.6,46.9h18v-5.4H55.8v-4.9h12.7v-5.4H55.8v-4.9h12.7v-5.4h-18V46.9z"/>
	<path id="Shape_6" class="st1" d="M110.8,15.8c0-4.2,2.5-8,6.3-9.6c3.8-1.6,8.3-0.7,11.2,2.3l0.2,0.2l3.7-3.8l-0.2-0.2
		c-4.5-4.5-11.2-5.9-17-3.4c-5.8,2.4-9.6,8.2-9.6,14.6v0.3h5.3V15.8z"/>
</g>
</svg>
