<?xml version="1.0" encoding="utf-8"?>
<!-- Generator: Adobe Illustrator 19.2.0, SVG Export Plug-In . SVG Version: 6.00 Build 0)  -->
<svg version="1.1" id="Layer_1" xmlns="http://www.w3.org/2000/svg" xmlns:xlink="http://www.w3.org/1999/xlink" x="0px" y="0px"
	 width="222px" height="200px" viewBox="0 0 222 200" style="enable-background:new 0 0 222 200;" xml:space="preserve">
<style type="text/css">
	.st0{fill:#57B952;}
	.st1{fill:#636466;}
</style>
<g>
	<path id="Shape" class="st0" d="M175.8,115.8c0,4.2-3.4,7.7-7.6,7.7c-4.2,0-7.6-3.4-7.6-7.7V95.6H154v20.1c0,8,6.4,14.5,14.3,14.5
		c7.9,0,14.3-6.5,14.3-14.5V95.6h-6.7V115.8z"/>
	<path id="Shape_2" class="st0" d="M192.9,95.6h16.6c6.8,0,12.3,5.6,12.3,12.4c0,6.9-5.5,12.4-12.3,12.4h-9.9v8h-6.7V95.6z
		 M199.6,113.7h9.9c3,0,5.5-2.5,5.5-5.6c0-3.1-2.5-5.6-5.5-5.6h-9.9V113.7z"/>
	<path id="Shape_3" class="st1" d="M124.7,93.9l11.4,0c-1.1,2.8-3.1,5.1-5.6,6.6c-3.4,2-8.8,1.5-12.7,0.3c-2.5-0.7-6.2-2.4-9.9-3.9
		c-4-1.7-7.8-3.3-10.6-4.2c-3.3-1-11.5-2.9-18,0.9c-4.6,2.7-7.9,7.1-9.2,12.2c-1.4,5.2-0.6,10.6,2,15.3c4.3,7.6,13,11.5,21.4,9.6
		c8.4-1.9,14.7-9.1,15.5-17.8l0.3-3.7H90v6.8h11.4c-2.1,5.4-7.5,8.8-13.2,8.3c-5.7-0.5-10.5-4.6-11.7-10.3
		c-1.3-5.7,1.3-11.5,6.2-14.4c3.4-2,8.8-1.5,12.7-0.3c2.5,0.7,6.2,2.3,9.9,3.9c4,1.7,7.8,3.3,10.6,4.1c3.3,1,11.5,2.9,18-0.9
		c5.6-3.3,9.2-9.1,9.8-15.6l0.3-3.7l-19.3,0V93.9z"/>
	<path id="Shape_4" class="st1" d="M7,95.6H0.2v32.9h21.5v-6.8H7V95.6z"/>
	<path id="Shape_5" class="st1" d="M34.1,128.5H57v-6.8H40.8v-6.2H57v-6.8H40.8v-6.2H57v-6.8H34.1V128.5z"/>
	<path id="Shape_6" class="st1" d="M110.8,88.9c0-5.4,3.2-10.2,8.1-12.3c4.9-2.1,10.5-0.9,14.3,2.9l0.3,0.3l4.8-4.8l-0.3-0.3
		c-5.7-5.8-14.2-7.5-21.6-4.4c-7.4,3.1-12.2,10.4-12.2,18.6v0.4h6.7V88.9z"/>
</g>
</svg>
