<?xml version="1.0" encoding="utf-8"?>
<!-- Generator: Adobe Illustrator 19.2.0, SVG Export Plug-In . SVG Version: 6.00 Build 0)  -->
<svg version="1.1" id="Layer_1" xmlns="http://www.w3.org/2000/svg" xmlns:xlink="http://www.w3.org/1999/xlink" x="0px" y="0px"
	 width="222px" height="49px" viewBox="0 0 222 49" style="enable-background:new 0 0 222 49;" xml:space="preserve">
<style type="text/css">
	.st0{fill:#57B952;}
	.st1{fill:#636466;}
</style>
<path id="Shape" class="st0" d="M152.6,30.1c0,2.7-2.2,4.9-4.9,4.9c-2.7,0-4.9-2.2-4.9-4.9V17.2h-4.3v12.9c0,5.1,4.1,9.3,9.2,9.3
	s9.2-4.2,9.2-9.3V17.2h-4.3V30.1z"/>
<path id="Shape_2" class="st0" d="M163.5,17.2h10.6c4.3,0,7.9,3.6,7.9,8s-3.5,8-7.9,8h-6.3v5.1h-4.3V17.2z M167.8,28.8h6.3
	c2,0,3.5-1.6,3.5-3.6s-1.6-3.6-3.5-3.6h-6.3V28.8z"/>
<path id="Shape_3" class="st1" d="M119.8,16.1l7.3,0c-0.7,1.8-2,3.3-3.6,4.2c-2.2,1.3-5.6,0.9-8.1,0.2c-1.6-0.5-4-1.5-6.3-2.5
	c-2.6-1.1-5-2.1-6.8-2.7c-2.1-0.6-7.4-1.8-11.5,0.6c-2.9,1.7-5,4.5-5.9,7.8c-0.9,3.3-0.4,6.8,1.3,9.8c2.8,4.9,8.3,7.4,13.7,6.1
	c5.4-1.2,9.4-5.8,9.9-11.4l0.2-2.4H97.5v4.4h7.3c-1.4,3.5-4.8,5.6-8.5,5.3c-3.7-0.3-6.7-3-7.5-6.6c-0.8-3.6,0.8-7.4,4-9.3
	c2.2-1.3,5.6-0.9,8.1-0.2c1.6,0.5,4,1.5,6.4,2.5c2.6,1.1,5,2.1,6.8,2.7c2.1,0.6,7.4,1.8,11.5-0.6c3.6-2.1,5.9-5.8,6.3-10l0.2-2.4
	l-12.4,0V16.1z"/>
<path id="Shape_4" class="st1" d="M44.3,17.2H40v21.1h13.8v-4.4h-9.4V17.2z"/>
<path id="Shape_5" class="st1" d="M61.7,38.3h14.7v-4.4H66v-4h10.4v-4.4H66v-4h10.4v-4.4H61.7V38.3z"/>
<path id="Shape_6" class="st1" d="M110.9,12.9c0-3.4,2-6.6,5.2-7.9c3.1-1.3,6.7-0.6,9.1,1.8l0.2,0.2l3.1-3.1l-0.2-0.2
	c-3.6-3.7-9.1-4.8-13.9-2.8c-4.7,2-7.8,6.7-7.8,11.9v0.2h4.3V12.9z"/>
</svg>
