<?xml version="1.0" encoding="utf-8"?>
<!-- Generator: Adobe Illustrator 19.2.0, SVG Export Plug-In . SVG Version: 6.00 Build 0)  -->
<svg version="1.1" id="Layer_1" xmlns="http://www.w3.org/2000/svg" xmlns:xlink="http://www.w3.org/1999/xlink" x="0px" y="0px"
	 width="222px" height="160px" viewBox="0 0 222 160" style="enable-background:new 0 0 222 160;" xml:space="preserve">
<style type="text/css">
	.st0{fill:#00A0C6;}
	.st1{fill:#534B4A;}
</style>
<g>
	<path class="st0" d="M75.1,71.7H60.5c-6.5,0-8.5-4-8.5-8.8V37.7c0-0.8,0.3-0.9,0.9-0.9h2.8c0.8,0,1,0.1,1,0.9v25.6
		c0,2.8,1.4,4.2,4.3,4.2h14.3c0.6,0,0.7,0.3,0.7,0.8v2.6C75.8,71.5,75.7,71.7,75.1,71.7"/>
	<path class="st0" d="M91.1,72.3c-7.7,0-11.8-4.8-11.8-14c0-9,5.1-14,12-14c7.8,0,11.9,5.2,11.9,13.9
		C103.2,67.3,98.9,72.3,91.1,72.3 M91.3,48c-5.2,0-7.6,4.7-7.6,10.1c0,6.2,1.7,10.4,7.4,10.4c5.8,0,7.5-5.1,7.5-10.3
		C98.7,53,97.3,48,91.3,48z"/>
	<path class="st0" d="M130.7,46c0.4,0.2,0.6,0.5,0.6,1v22.7c0,9.2-4.5,12.3-13,13.5c-0.6,0.1-0.7,0-0.9-0.6l-0.4-2.8
		c0-0.4,0.2-0.6,0.6-0.7c5.8-0.8,9-2.5,9-7.6v-0.3c-2.2,0.7-5,1.1-6.9,1.1c-8,0-11.6-5.7-11.6-13.7c0-8.4,3.8-14.4,12.5-14.4
		C124,44.3,127.7,44.7,130.7,46 M120.9,48.1c-4.8,0-8,3-8,10.3c0,6.8,2.8,10.1,7.5,10.1c1.3,0,3.8-0.2,6.5-1V49
		C124.8,48.3,122.5,48.1,120.9,48.1z"/>
	<path class="st0" d="M143.1,71.7h-2.8c-0.6,0-0.9-0.1-0.9-0.8V45.6c0-0.7,0.3-0.8,0.9-0.8h2.8c0.6,0,0.8,0.1,0.8,0.8V71
		C144,71.6,143.8,71.7,143.1,71.7"/>
	<path class="st0" d="M169.7,67c0.6-0.4,0.8-0.1,1,0.3l1,2.2c0.3,0.5,0.2,0.8-0.3,1.1c-2.6,1.4-5.8,1.8-8.7,1.8
		c-7.5,0-11.6-4.7-11.6-13.7c0-8.8,4.6-14.3,12.2-14.3c2.7,0,5.2,0.5,7.5,1.8c0.5,0.3,0.6,0.6,0.3,1.1l-1.1,2.1
		c-0.2,0.4-0.4,0.7-1,0.3c-1.6-0.8-3.5-1.3-5.7-1.3c-5.5,0-7.7,4.9-7.7,10.3c0,5.5,1.7,9.9,7.8,9.9C165.8,68.4,168.2,67.7,169.7,67"
		/>
	<path class="st0" d="M87.4,93.7l-4.7,20.5c-0.4,1.4-0.9,2.3-2.2,2.3h-2.2c-1.4,0-2.3-0.3-2.6-1.9l-7-33.4c-0.2-0.5,0-0.7,0.4-0.7
		h3.6c0.5,0,0.8,0.2,0.9,0.6l4,21.4l1.5,8.3h0.3l1.8-8.3l4.4-19.8c0.3-1.2,0.8-2.3,2.7-2.3h2c1.6,0,2.1,0.9,2.5,2.3l4.3,19.6
		l1.8,8.5h0.3l1.6-8.6l4-21.2c0.1-0.4,0.4-0.6,0.9-0.6h3.5c0.4,0,0.6,0.2,0.4,0.7l-7.1,33.4c-0.4,1.6-1.2,1.9-2.6,1.9h-2.2
		c-1.4,0-1.9-0.8-2.3-2.3l-4.6-20.5l-1.6-7.8h-0.2L87.4,93.7z"/>
	<path class="st0" d="M132.4,115.2c-3.1,1.4-6.9,1.7-10.1,1.7c-8.8,0-11-4-11-8.5c0-4.7,3-9.1,11.2-9.1h6.3v-1.1
		c0-3.2-1-5.4-6.1-5.4c-2.4,0-5.4,0.5-7.1,1c-0.6,0.2-0.9,0.2-1-0.4l-0.6-2.2c-0.2-0.4-0.1-0.7,0.5-0.9c2.6-1.1,6.2-1.5,9.1-1.5
		c6.8,0,9.8,3.1,9.8,8.9v16C133.2,114.5,132.9,115,132.4,115.2 M122.6,103.2c-2.5,0-7,0.4-7,5.3c0,3.7,2.9,4.8,6.5,4.8
		c1.2,0,4.3-0.2,6.4-1v-9.1H122.6z"/>
	<path class="st0" d="M147.9,130.5c-0.8,2.2-2.1,1.3-3.1,1.1c-1-0.2-1.4-0.4-0.6-3c0.9-2.7,4-12.1,4.2-12.5l-0.7,0
		c-1,0-1.6,0-2.2-1.8L137.6,90c-0.1-0.4,0.1-0.6,0.5-0.6h3.4c0.4,0,0.6,0.2,0.7,0.5c0.4,1.3,4,12.5,4.4,13.8l2.6,9h0.3
		c0.4-1.1,2.8-8.9,3-9.2c0.2-0.4,3.6-10.7,4.6-13.6c0.1-0.4,0.4-0.5,0.7-0.5h3.3c0.4,0,0.6,0.2,0.5,0.6
		C161.6,90,148.7,128.2,147.9,130.5"/>
	<path class="st1" d="M135.9,29c-0.2-0.2-0.2-0.6,0-0.8l5.6-5.6c0.2-0.2,0.6-0.2,0.8,0l5.6,5.6c0.2,0.2,0.2,0.6,0,0.8l-5.6,5.6
		c-0.2,0.2-0.6,0.2-0.8,0L135.9,29z"/>
	<path class="st0" d="M179.4,22.4h-21.5c-0.5,0-0.6,0.3-0.3,0.6l3.5,3.5c0.3,0.3,1,0.6,1.5,0.6h1h15.8c1.9,0,3.5,1.6,3.5,3.5v94.8
		c0,1.9-1.5,3.5-3.5,3.5H42.6c-1.9,0-3.5-1.6-3.5-3.5V30.6c0-1.9,1.6-3.5,3.5-3.5h76.6h2c0.5,0,1.2-0.3,1.5-0.6l3.5-3.5
		c0.3-0.3,0.2-0.6-0.2-0.6H42.6c-4.5,0-8.2,3.7-8.2,8.2v94.8c0,4.5,3.7,8.2,8.2,8.2h136.7c4.5,0,8.2-3.7,8.2-8.2V30.6
		C187.5,26.1,183.9,22.4,179.4,22.4"/>
</g>
</svg>
