<?xml version="1.0" encoding="utf-8"?>
<!-- Generator: Adobe Illustrator 19.2.0, SVG Export Plug-In . SVG Version: 6.00 Build 0)  -->
<svg version="1.1" id="Layer_1" xmlns="http://www.w3.org/2000/svg" xmlns:xlink="http://www.w3.org/1999/xlink" x="0px" y="0px"
	 width="550px" height="450px" viewBox="0 0 550 450" style="enable-background:new 0 0 550 450;" xml:space="preserve">
<style type="text/css">
	.st0{opacity:0.5;fill:url(#SVGID_1_);enable-background:new    ;}
	.st1{opacity:0.5;fill:url(#SVGID_2_);enable-background:new    ;}
	.st2{fill:url(#SVGID_3_);}
	.st3{fill:#203B72;}
	.st4{fill:url(#SVGID_4_);}
	.st5{fill:#FEB9B9;}
	.st6{fill:none;stroke:#203B72;stroke-width:3;stroke-linecap:round;stroke-linejoin:round;stroke-miterlimit:10;}
	.st7{fill:#0A1147;}
	.st8{fill:url(#SVGID_5_);}
	.st9{fill:#FFFFFF;}
	.st10{fill:url(#SVGID_6_);}
	.st11{fill:#B9DBF4;}
	.st12{fill:none;stroke:url(#SVGID_7_);stroke-width:4;stroke-miterlimit:10;}
	.st13{fill:url(#SVGID_8_);}
	.st14{fill:none;stroke:url(#SVGID_9_);stroke-width:4;stroke-miterlimit:10;}
	.st15{fill:url(#SVGID_10_);}
	.st16{fill:none;stroke:url(#SVGID_11_);stroke-width:4;stroke-miterlimit:10;}
	.st17{fill:url(#SVGID_12_);}
	.st18{fill:url(#SVGID_13_);}
	.st19{fill:url(#SVGID_14_);}
	.st20{fill:url(#SVGID_15_);}
	.st21{fill:url(#SVGID_16_);}
</style>
<linearGradient id="SVGID_1_" gradientUnits="userSpaceOnUse" x1="-220.1177" y1="-268.0575" x2="-273.2892" y2="-321.2292" gradientTransform="matrix(4.832717e-02 -0.9988 -1.5768 -7.629257e-02 -70.8514 -213.9763)">
	<stop  offset="0" style="stop-color:#EF78FF"/>
	<stop  offset="1" style="stop-color:#8FDFFF"/>
</linearGradient>
<path class="st0" d="M344.8,48.4c-12.1,33.2-4.2,67,40.1,44.3s76.1-61.5,36.9-72S356.1,17.4,344.8,48.4z"/>
<linearGradient id="SVGID_2_" gradientUnits="userSpaceOnUse" x1="488.9764" y1="422.0937" x2="2.8994" y2="-54.8693" gradientTransform="matrix(1 0 0 -1 0 450)">
	<stop  offset="0" style="stop-color:#EF78FF"/>
	<stop  offset="1" style="stop-color:#8FDFFF"/>
</linearGradient>
<path class="st1" d="M7.8,247.7C36,30.9,292.5-80.2,294,82.8c0.3,27.7,48.4,74.2,133.9,30.1c73.2-37.7,163.8,24.9,94.6,87.8
	c-45.5,41.4-95.1,89.3-79.2,128.2c37.5,91.9-19.4,131.3-107.6,69.4c-76.1-53.4-104.1-27.1-166.9,16S-24.4,494.3,7.8,247.7z"/>
<linearGradient id="SVGID_3_" gradientUnits="userSpaceOnUse" x1="86.2554" y1="57.1634" x2="181.8454" y2="57.1634">
	<stop  offset="0" style="stop-color:#FFE610"/>
	<stop  offset="1" style="stop-color:#FF4000"/>
</linearGradient>
<path class="st2" d="M119.8,109.6c36-11.1,27.8-32.1,29.4-50.6c1.5-18.6,18-22.1,24.9-25.3c6.9-3.2,7.7-9.9,7.7-9.9L140.5,4.7
	c0,0,5.4,10.8-10.4,17.5s-21.9,13.5-16.7,31.1s-2.8,26.2-27.1,40.9l33-3.5c0,0,0.6,4.4,0.8,7.3C120.3,100.8,119.8,109.6,119.8,109.6
	z"/>
<path class="st3" d="M204,114.2c0,0,9.6-15.1,12.7-21c6.7-12.7,9.1-38.2,9.1-38.2s7.1,0,8.4,1.7c-0.6,21.2-1.3,27.4-3.2,37.7
	c-2.1,11.2-10,28.6-10,28.6L204,114.2z"/>
<linearGradient id="SVGID_4_" gradientUnits="userSpaceOnUse" x1="248.5198" y1="342.8317" x2="177.4099" y2="273.0558" gradientTransform="matrix(1 0 0 -1 0 450)">
	<stop  offset="0" style="stop-color:#FFE610"/>
	<stop  offset="1" style="stop-color:#FF4000"/>
</linearGradient>
<path class="st4" d="M189.4,185.6c0,0-4.5-34.6-6.8-45.6c-2.4-11-8-13.5-2.5-19c5.6-5.6,27.5-12.4,36.3-5.2
	c8.8,7.4,8.9,24.9,9.2,28.8c0.9,10.7,0,38.1,0,38.1L189.4,185.6z"/>
<path class="st3" d="M178.6,122.1c0,0,4.2-2.2,6.7,4c2.5,6.1,2.4,11.2-7.8,20.9c-10.1,9.6-16.9,29.8-17,41.9c-5,0.1-7-2.1-7-2.1
	s-2.9-18.3,7-40.6C169.2,126.9,178.6,122.1,178.6,122.1z"/>
<path class="st5" d="M153.5,186.8c0,0-2.9,2.6-2.4,6.4c0.6,3.8,3.5,4.9,4.7,7.1c1.1,2.3,3.9,3.5,4.1,0c0.2-3.5,1.9-3.6,2.6-4.1
	c0.7-0.5,0.6-5.4-2.1-7.5C157.7,186.7,153.5,186.8,153.5,186.8z"/>
<line class="st6" x1="140" y1="3" x2="251.1" y2="57.3"/>
<path class="st5" d="M227.1,55c0,0-0.1-2.9-1.3-5.6c-1.1-2.6,1-3.1,1.6-2.6c0.5,0.4,1.2-1,2.1-3.3s5.8-2.2,5.7,2.2
	c-0.1,4.3-1.8,10.1-1.8,10.1S229.1,55.7,227.1,55z"/>
<path class="st5" d="M186.6,116c0,0-2.7-5.3-4.6-6.2c-1.9-1-6.2-0.3-9.2-5.3c-2.9-5-3-14.6-3-14.6l8.7-8.3l9.3-1.7
	c0,0,4.1,2.1,5.6,5.1c1.4,3,3.2,5.1,4.2,7.8c1.7,4.1,1.3,8.3,1.4,10.5c0.1,2.1-1.8,5.9-2.5,6.2c2.1,3.3,6.2,8.2,0.5,8.7
	C191.6,118.6,188.1,118.5,186.6,116z"/>
<path class="st7" d="M182.8,110.2c0,0-15.3-0.1-19.6-11.8c-4.2-11.7,8.7-18.3,13.7-20.7c5-2.4,7.9-4.9,7.8-10
	c4.7,0.7,7.1,8.8,7.1,8.8s2.3-1.8,1.8-3.3c4,3.4,2.5,11.6-0.2,12.8c-1.6-1.4-2.3-3.8-5.5-5c-3.4,1-13.5,6.2-11.7,10.9
	c1.8,4.7,7.2,11.1,3.8,9.6c-3.4-1.4-5.8,0.3-5,2.8s4.7,0.6,6.2,1.3C182.7,106.3,182.8,110.2,182.8,110.2z"/>
<linearGradient id="SVGID_5_" gradientUnits="userSpaceOnUse" x1="306.4745" y1="318.7853" x2="149.4809" y2="164.7365" gradientTransform="matrix(1 0 0 -1 0 450)">
	<stop  offset="0" style="stop-color:#1F1A9A"/>
	<stop  offset="0.9983" style="stop-color:#02F0F4"/>
</linearGradient>
<path class="st8" d="M189.4,180.1c0,0-10.5,45.2-13.7,60.5c-3.2,15.2-14.5,48.9-14.5,48.9l12.4-0.8c0,0,20-43.4,28.2-62.4
	c4.7-10.8,7.2-17.6,8.6-21.4c0.8-2.4,3.2-3.9,5.8-3.7l36.2,3.1c2.5,0.2,4.2,2.4,3.9,4.9l-4,30.1l15.5-4.1l8.7-36.9
	c1.1-5-2-9.9-6.9-11l-42.8-9.4C227,177.6,203,174.5,189.4,180.1z"/>
<path class="st9" d="M296.9,329.1c-51.9,38.8-115.8,54.1-115.8,54.1L150,341.6c0,0,47.6-65.7,88.1-96c24.8-18.5,58.6-31.4,90.8-38.9
	l33.7,44.9C347.6,278.2,325.6,307.6,296.9,329.1z"/>
<linearGradient id="SVGID_6_" gradientUnits="userSpaceOnUse" x1="-300.9132" y1="79.8859" x2="-339.3468" y2="42.1732" gradientTransform="matrix(0.5993 0.8005 0.8005 -0.5993 496.8533 515.7512)">
	<stop  offset="0" style="stop-color:#FFE610"/>
	<stop  offset="1" style="stop-color:#FF4000"/>
</linearGradient>
<path class="st10" d="M362.7,251.7L329,206.8c17.3-4,34.2-6.5,49-7.5c3.8-0.2,6.6,3.4,5.5,7C379.6,218.1,372.7,234.3,362.7,251.7z"
	/>
<path class="st11" d="M197.3,290.1l-38.1-4c0,0-17.4,5.4-36.5,19.2s-28.1,21-28.1,21l66.3,6.3L197.3,290.1z"/>
<path class="st11" d="M246.3,352.2l-6.8,37.7c0,0-10,15.1-28.7,29.6c-18.6,14.5-28.1,21-28.1,21l12.6-65.3L246.3,352.2z"/>
<path class="st11" d="M236,309.7c2.9,3.4-20.3,20.8-36.5,32.8c-16.2,12.1-47.4,32.1-47.4,32.1l-2.6-3.5c0,0,32.4-26,44-35
	C205.1,327.2,233.3,306.4,236,309.7z"/>
<linearGradient id="SVGID_7_" gradientUnits="userSpaceOnUse" x1="237.641" y1="283.2879" x2="307.9215" y2="283.2879">
	<stop  offset="0" style="stop-color:#1F1A9A"/>
	<stop  offset="0.9983" style="stop-color:#02F0F4"/>
</linearGradient>
<ellipse transform="matrix(0.8005 -0.5993 0.5993 0.8005 -115.3622 219.9925)" class="st12" cx="272.8" cy="283.3" rx="33.1" ry="33.1"/>
<linearGradient id="SVGID_8_" gradientUnits="userSpaceOnUse" x1="310.3828" y1="159.4001" x2="244.8215" y2="172.1483" gradientTransform="matrix(1 0 0 -1 0 450)">
	<stop  offset="0" style="stop-color:#1F1A9A"/>
	<stop  offset="0.9983" style="stop-color:#02F0F4"/>
</linearGradient>
<circle class="st13" cx="272.8" cy="283.3" r="26.6"/>
<linearGradient id="SVGID_9_" gradientUnits="userSpaceOnUse" x1="35.0882" y1="191.501" x2="119.8025" y2="191.501" gradientTransform="matrix(1 0 0 -1 0 450)">
	<stop  offset="0" style="stop-color:#FFE610"/>
	<stop  offset="1" style="stop-color:#FF4000"/>
</linearGradient>
<polyline class="st14" points="36.9,311.1 69.6,241.1 85.3,260.5 118.1,206.1 "/>
<linearGradient id="SVGID_10_" gradientUnits="userSpaceOnUse" x1="99.0724" y1="237.1807" x2="120.6654" y2="237.1807" gradientTransform="matrix(1 0 0 -1 0 450)">
	<stop  offset="0" style="stop-color:#FFE610"/>
	<stop  offset="1" style="stop-color:#FF4000"/>
</linearGradient>
<polyline class="st15" points="99,212.8 120.7,201.6 120.7,224 "/>
<linearGradient id="SVGID_11_" gradientUnits="userSpaceOnUse" x1="258.1712" y1="344.8604" x2="314.3978" y2="344.8604" gradientTransform="matrix(0.9949 -0.1011 -0.1011 -0.9949 39.7309 475.8016)">
	<stop  offset="0" style="stop-color:#1F1A9A"/>
	<stop  offset="0.9983" style="stop-color:#02F0F4"/>
</linearGradient>
<path class="st16" d="M266,142.5c0,0,51.4-24.2,45.8-79.3"/>
<linearGradient id="SVGID_12_" gradientUnits="userSpaceOnUse" x1="296.7039" y1="392.8366" x2="325.7361" y2="392.8366" gradientTransform="matrix(1 0 0 -1 0 450)">
	<stop  offset="0" style="stop-color:#1F1A9A"/>
	<stop  offset="0.9983" style="stop-color:#02F0F4"/>
</linearGradient>
<polyline class="st17" points="296.7,68.2 313.7,46.1 325.7,68.2 "/>
<g>
	<linearGradient id="SVGID_13_" gradientUnits="userSpaceOnUse" x1="434.7552" y1="127.4194" x2="481.3568" y2="170.9142">
		<stop  offset="0" style="stop-color:#1F1A9A"/>
		<stop  offset="0.9983" style="stop-color:#02F0F4"/>
	</linearGradient>
	<path class="st18" d="M478.6,151.2c-0.3-0.2-0.5-0.4-0.9-0.7c0.9-0.3,1.7-0.8,2.1-1.7c0.5-1.1,0.6-2.3,0.4-3.4
		c-0.2-1.8-1.9-2.9-3.5-2.9c-3.8,0.1-7.6,0-11.4,0c-0.6,0-1.1,0-1.7-0.5c0.1-0.2,0.3-0.3,0.3-0.5c0.7-1.8,1.4-3.4,2.1-5.2
		c0.5-1.4,0.9-3,0.9-4.7s-0.4-3.3-1-4.9c-0.6-1.6-1.8-2.7-3.5-2.9c-1.3-0.2-2.9,0.7-3.1,2.1c-0.2,1.3-0.3,2.7-0.2,4
		c0.1,1.4-0.4,2.4-1.4,3.2c-0.1,0.1-0.1,0.1-0.2,0.2c-2.4,2.5-4.7,5-6.4,8c-1.8,3-2.9,6.2-3,9.7c-0.1,6,0,12.1,0,18.1
		c0,1,0.3,1.4,1.3,1.8c0.3,0.1,0.5,0.1,0.8,0.1c5.3,0,10.6,0,15.8,0c2.9,0,5.8,0,8.7,0c1.7,0,2.7-0.7,3-2.3c0.3-1.4,0.2-2.9-1.2-3.8
		c1.6-0.5,2.4-1.6,2.5-3.1c0.1-1.6-0.5-2.8-2-3.5c0.4-0.2,0.7-0.3,1.1-0.5c0.8-0.5,1.6-1.2,1.8-2.2
		C480.6,153.7,479.9,152.3,478.6,151.2z"/>
	<linearGradient id="SVGID_14_" gradientUnits="userSpaceOnUse" x1="419.3871" y1="139.8852" x2="465.9887" y2="183.38">
		<stop  offset="0" style="stop-color:#1F1A9A"/>
		<stop  offset="0.9983" style="stop-color:#02F0F4"/>
	</linearGradient>
	<path class="st19" d="M443,144.3c-3.2,0-6.3,0-9.5,0c-1.4,0-1.9,0.5-1.9,2c0,3.7,0,4.5,0,8.2c0,3.8,0,10.6,0,14.4
		c0,1.2,0.5,1.8,1.8,1.8c3.2,0,6.4,0,9.6,0c1.1,0,1.6-0.3,1.6-1.4c0.1-2.6,0.2-5.1,0.2-7.7c0-5.1,0-10.1,0-15.3
		C444.7,144.7,444.4,144.3,443,144.3z"/>
</g>
<g>
	<path class="st9" d="M403.4,346.9c-0.1-0.2-0.1-0.5-0.2-0.7c0.7,0.2,1.3,0.2,1.9-0.2c0.7-0.4,1.2-1,1.7-1.9
		c0.6-1.1,0.1-2.5-0.8-3.1c-2.3-1.4-4.5-3.1-6.6-4.7c-0.3-0.2-0.6-0.5-0.7-0.9c0.1-0.1,0.3-0.1,0.4-0.1c1.1-0.7,2.3-1.4,3.3-2.2
		c0.9-0.6,1.8-1.4,2.4-2.4c0.7-1,1.1-2.1,1.3-3.2c0.3-1.1,0.1-2.3-0.8-3.1c-0.7-0.6-2-0.7-2.6,0c-0.6,0.7-1.3,1.4-1.8,2.3
		c-0.5,0.8-1.2,1.2-2.2,1.3c-0.1,0-0.1,0-0.2,0c-2.4,0.4-4.8,1-6.9,2c-2.3,1-4.2,2.5-5.7,4.5c-2.5,3.4-5,7-7.5,10.6
		c-0.4,0.6-0.4,0.9,0.1,1.6c0.1,0.1,0.3,0.3,0.4,0.4c3.1,2.2,6.1,4.3,9.2,6.5c1.7,1.1,3.4,2.4,5.1,3.5c0.9,0.7,1.9,0.6,2.7-0.1
		c0.8-0.7,1.3-1.6,0.8-2.8c1.1,0.3,2.1,0.1,2.8-0.8c0.7-0.8,0.8-1.9,0.3-2.9c0.3,0.1,0.6,0.1,0.8,0.1c0.7,0.1,1.3-0.1,2-0.5
		C403.5,349,403.7,348,403.4,346.9z"/>
	<path class="st9" d="M383.9,330.5c-1.9-1.3-3.7-2.6-5.6-3.9c-0.8-0.6-1.2-0.4-1.9,0.4c-1.6,2.2-3.1,4.3-4.6,6.5
		c-1.6,2.2-3.1,4.5-4.7,6.6c-0.5,0.7-0.4,1.2,0.3,1.8c1.9,1.3,3.7,2.6,5.6,3.9c0.6,0.5,1,0.4,1.6-0.2c1.1-1.4,2.2-2.9,3.2-4.3
		c2.1-2.9,4.1-5.9,6.3-8.9C384.7,331.5,384.7,331.1,383.9,330.5z"/>
</g>
<linearGradient id="SVGID_15_" gradientUnits="userSpaceOnUse" x1="155.9096" y1="113.9533" x2="80.0386" y2="39.5054" gradientTransform="matrix(0.9996 -2.814393e-02 -2.814393e-02 -0.9996 2.1159 474.1333)">
	<stop  offset="0" style="stop-color:#FFE610"/>
	<stop  offset="1" style="stop-color:#FF4000"/>
</linearGradient>
<path class="st20" d="M144.1,351.2l-81.7,51.1l58.8-27.8l-52.9,39l56.8-31.8l-53.2,41.3l58.4-33l-50.8,40.8l56.3-34.4l-47.6,40
	l52.7-34.9l-41.7,42.3l72.9-56.5c3.3-2.6,2.5-7.8-1.4-9.2c-4.6-1.6-9.5-4.3-12.7-9c-3.5-5.1-5-10-5.5-14
	C151.7,351.2,147.5,349.1,144.1,351.2z"/>
<linearGradient id="SVGID_16_" gradientUnits="userSpaceOnUse" x1="397.3081" y1="215.2621" x2="447.4201" y2="215.2621" gradientTransform="matrix(1 0 0 -1 0 450)">
	<stop  offset="0" style="stop-color:#FFE610"/>
	<stop  offset="1" style="stop-color:#FF4000"/>
</linearGradient>
<path class="st21" d="M422.3,219.8c1.4-2.6,3.3-4.7,6-5.9c2.1-0.9,4.2-1.2,6.5-1c1.8,0.2,3.4,0.5,5.1,1.2c4,1.8,6.5,4.8,7.4,9.1
	c0.7,3.5-0.2,6.8-1.8,10c-2.2,4.3-5.3,8-8.6,11.4c-4.3,4.5-9.1,8.3-14.1,11.9c-0.3,0.2-0.4,0.3-0.7,0c-5.5-4.2-10.8-8.6-15.6-13.7
	c-2.6-2.7-5-5.5-6.7-8.7c-1.1-2.2-2.1-4.6-2.3-7c-0.5-6.1,3-12.4,9.6-13.9c3.1-0.6,6.3-0.6,9.3,0.6c2.7,1.1,4.6,3.1,5.9,5.6
	C422.2,219.6,422.2,219.7,422.3,219.8z"/>
<path class="st9" d="M375.2,54.7c1-1.8,2.3-3.2,4.1-4c1.4-0.6,2.9-0.8,4.5-0.7c1.1,0.1,2.4,0.3,3.4,0.8c2.8,1.2,4.5,3.3,5.1,6.2
	c0.5,2.5-0.1,4.7-1.1,6.8c-1.4,3-3.6,5.5-5.9,7.9c-3,3-6.3,5.7-9.7,8.2c-0.2,0.1-0.3,0.2-0.5,0c-3.7-2.9-7.5-5.9-10.8-9.4
	c-1.8-1.9-3.4-3.7-4.6-6c-0.8-1.6-1.4-3.1-1.6-4.9c-0.4-4.2,2.1-8.5,6.6-9.5c2.2-0.4,4.3-0.4,6.4,0.4c1.9,0.7,3.1,2.1,4,3.8
	C375.1,54.5,375.2,54.6,375.2,54.7z"/>
</svg>
