<?xml version="1.0" encoding="utf-8"?>
<!-- Generator: Adobe Illustrator 19.2.0, SVG Export Plug-In . SVG Version: 6.00 Build 0)  -->
<svg version="1.1" id="Layer_1" xmlns="http://www.w3.org/2000/svg" xmlns:xlink="http://www.w3.org/1999/xlink" x="0px" y="0px"
	 width="550px" height="450px" viewBox="0 0 550 450" style="enable-background:new 0 0 550 450;" xml:space="preserve">
<style type="text/css">
	.st0{opacity:0.5;fill:url(#SVGID_1_);enable-background:new    ;}
	.st1{opacity:0.2;fill:#201B9B;enable-background:new    ;}
	.st2{fill:#FEB9B9;}
	.st3{fill:#021C3D;}
	.st4{fill:none;stroke:#203B72;stroke-width:3;stroke-miterlimit:10;}
	.st5{fill:url(#SVGID_2_);}
	.st6{fill:#1D3A72;}
	.st7{fill:#0A1147;}
	.st8{fill:url(#SVGID_3_);}
	.st9{fill:url(#SVGID_4_);}
	.st10{fill:none;stroke:#0A1147;stroke-width:2;stroke-miterlimit:10;}
	.st11{fill:none;stroke:#0A1147;stroke-width:3;stroke-miterlimit:10;}
	.st12{fill:#FFFFFF;}
	.st13{fill:url(#SVGID_5_);}
	.st14{fill:url(#SVGID_6_);}
	.st15{fill:url(#SVGID_7_);}
	.st16{fill:url(#SVGID_8_);}
</style>
<linearGradient id="SVGID_1_" gradientUnits="userSpaceOnUse" x1="471.3783" y1="457.9489" x2="79.2208" y2="43.3906">
	<stop  offset="0" style="stop-color:#EF78FF"/>
	<stop  offset="1" style="stop-color:#8FDFFF"/>
</linearGradient>
<path class="st0" d="M83,377C-25.8,275.3,21.6,216.9,98.1,219.7C221.3,224.2,18,191.7,63,112c53-94,233.6-142.7,288.9-47.6
	c19.3,33.1,51.4,55.6,110.6,75.5c83,28,74.8,88.1-3.3,116.1c-85,30.4,149.2,31.8,34.7,131.9C422,451,205.1,491.1,83,377z"/>
<ellipse id="Oval_1_" class="st1" cx="284.6" cy="398.9" rx="100.2" ry="8.8"/>
<path class="st2" d="M378.4,288.3l-2.9,10.7c0,0,24,4.6,29.5,5.5s14.2,2.9,15.6,2c1.4-0.9,3.5-1.4,0.9-3.5s-13.6-3.8-13.6-3.8
	s10.1-4.3,9-7.8c-1.2-3.5-5.8-6.7-6.4-4.9s2.3,3.2-0.3,5.2s-7.2,4.6-7.8-1.2c-0.6-5.8,5.5-6.1,6.4-5.2c2.2,2.2,4.1-0.7,2.1-2.2
	c-2-1.4-4.4-1.3-9.9-0.4s-4.3,5.2-8.1,6.7C389.1,290.9,378.4,288.3,378.4,288.3z"/>
<path class="st2" d="M189.1,290.6l1.7,11c0,0-29.7,1.9-35.3,2.2c-5.6,0.2-14.4,1.3-15.7,0.3c-1.3-1-3.3-1.8-0.5-3.5
	s13.9-2.2,13.9-2.2s-9.6-5.4-8-8.8c1.5-3.3,6.5-6,6.9-4.2c0.4,1.8-2.7,2.9-0.3,5.2c2.4,2.3,6.7,5.4,7.9-0.3s-4.8-6.7-5.7-5.9
	c-2.1,1.8-4-1.1-1.8-2.3c2.2-1.2,4.5-0.9,9.9,0.6c5.4,1.5,3.7,5.7,7.3,7.5C172.8,292,189.1,290.6,189.1,290.6z"/>
<path class="st2" d="M262.7,187.3c-2.1-0.2-4.5-1.9-3.4,3.6c1.1,5.6,2.3,9.4,3.5,7.1S262.7,187.3,262.7,187.3z"/>
<path class="st2" d="M302.7,186.2c2.1-0.3,4.5-2,3.5,3.5c-1,5.6-2,9.5-3.3,7.2C301.6,194.8,302.7,186.2,302.7,186.2z"/>
<path class="st3" d="M229.1,350.4c0,0-36.6-7.8-40.8,4.3c-4.1,12.1,2.5,14.1,15.9,12.9c13.4-1.2,27.7-3,27.7-3l-0.7-2.7
	c0,0-14.9,5-16.6-2.7c-1.7-7.6,15.7-6.8,15.7-6.8L229.1,350.4z"/>
<path class="st3" d="M331.8,350.4c0,0,36.6-7.8,40.8,4.3c4.1,12.1-2.5,14.1-15.9,12.9c-13.4-1.2-27.7-3-27.7-3l0.7-2.7
	c0,0,14.9,5,16.6-2.7s-15.7-6.8-15.7-6.8L331.8,350.4z"/>
<line class="st4" x1="340.3" y1="360.2" x2="344.3" y2="367.6"/>
<line class="st4" x1="344.3" y1="360.2" x2="340.3" y2="367.6"/>
<line class="st4" x1="220.9" y1="354.2" x2="226.3" y2="361.4"/>
<line class="st4" x1="225" y1="353.6" x2="222.1" y2="362.1"/>
<linearGradient id="SVGID_2_" gradientUnits="userSpaceOnUse" x1="295.8028" y1="281.1458" x2="216.8433" y2="244.1648">
	<stop  offset="0" style="stop-color:#FF8D28"/>
	<stop  offset="1" style="stop-color:#FFF716"/>
</linearGradient>
<path class="st5" d="M244,230.1c0,0,7.6-3,14.1-5.6c6.5-2.6,16.5-5.1,27.6-4.6c11.1,0.5,23.2,5.2,29.8,7.4
	c12.4,4.1,8.2,12.8,8.2,12.8s-1,24.4-3.6,36.5c-2.7,12.1-1.2,27,1.2,35.3c2.4,8.4,0.5,13,0.5,13s-73.9-0.9-78.5-5.1
	c-4.6-4.2,10.2-12.5,6.1-30c-4.1-17.4-4.1-35.8-4.8-40.7C243.9,244.3,244,230.1,244,230.1z"/>
<path class="st6" d="M250.6,249.4c-0.7,8.5-5.6,27.4-7.5,32.7c-1.9,5.3-9,22.3-18.2,22.8s-40.8-3.1-40.8-3.1l-0.5-17.4l36.2-4.1
	c0,0,9-39.2,15.3-45.3c0,0,9-9.2,12.8-3.1C251.8,237.8,250.6,249.4,250.6,249.4z"/>
<path class="st6" d="M315.2,250.1c0.9,8.5,6.2,27.2,8.3,32.5c2.1,5.3,9.2,16.9,18.4,17.2c9.2,0.3,38,3.2,38,3.2l0.1-17.5l-33.5-10.2
	c0,0-9.6-34.2-16.1-40.1c0,0-9.2-9-12.9-2.9S315.2,250.1,315.2,250.1z"/>
<path class="st2" d="M297.7,221.5l-4.4-1.5c0,0-1-3.7-0.1-6.4c5.2-2.9,6.4-6.2,7.4-16c2-19.2,4.4-33.8-11.5-27.2
	c-4.4,1.8-13.1,1.9-17.7,1.2c-10.2-1.5-6.7,13.6-6.7,24.9c0,10,7.3,16.6,7.3,16.6l0.2,7.5l-4.1,0.8l16.2,19.8L297.7,221.5z"/>
<path class="st7" d="M236.4,315.1v-39.4c0-3.8,3.1-6.9,6.9-6.9h78.2c3.8,0,6.9,3.1,6.9,6.9v42.4L282.7,338L236.4,315.1z"/>
<linearGradient id="SVGID_3_" gradientUnits="userSpaceOnUse" x1="197.237" y1="333.8501" x2="331.614" y2="333.8501">
	<stop  offset="0" style="stop-color:#1F1A9A"/>
	<stop  offset="1" style="stop-color:#02F0F4"/>
</linearGradient>
<path class="st8" d="M198.1,314.1L198.1,314.1c-3,9.1,1.9,18.8,10.9,21.9c27.4,9.4,85.9,28.1,118.7,29.7c1.5-2,3-4.6,3.6-8.2
	c0.8-5.1-0.5-11.2-0.5-11.2l-109.9-43C211.7,299.6,201.2,304.6,198.1,314.1z"/>
<linearGradient id="SVGID_4_" gradientUnits="userSpaceOnUse" x1="287.2341" y1="392.388" x2="429.3215" y2="392.388" gradientTransform="matrix(0.9994 -3.596708e-02 3.596708e-02 0.9994 -72.0274 -47.0553)">
	<stop  offset="0" style="stop-color:#1F1A9A"/>
	<stop  offset="1" style="stop-color:#02F0F4"/>
</linearGradient>
<path class="st9" d="M369.5,309.6L369.5,309.6c3.3,8.9-1.2,18.9-10.1,22.3c-27,10.3-93.1,32.2-125.8,34.9c-0.5-2.2-2.6-5.6-3.3-9.3
	c-0.9-4.9-0.5-9.9-0.5-9.9l116.4-47.8C355.4,295.6,366.1,300.2,369.5,309.6z"/>
<path class="st7" d="M262.3,199.2l2.7-1.1c0,0-0.2-7.5-0.1-13.4c0.1-6,3.5-10.8,6.1-12c2.6-1.3,2.2,0.7,6.3,0.8
	c4.1,0.1,1.9,0.7,9.3-1.5c7.4-2.2,12.5-0.6,13.9,1.1s0.5,11.4,0.6,14.2c0.1,2.9-1.1,10.1,0.2,10.5s2.4,0.7,2-7.6
	c-0.4-8.4-0.3-8.4,1.3-11.5s1.4-9.5-5.6-13.8s-7.3-7.8-14.1-8.9s-15.4,3.4-16,7.5c-4.5-0.2-9.7,5.7-9.2,11.6
	c0.5,5.8,2.2,11.7,2.2,11.7L262.3,199.2z"/>
<path class="st10" d="M275.4,195.2h-1c-3.7,0-6.8-3-6.8-6.8v0c0-1.8,1.5-3.3,3.3-3.3h7.9c1.8,0,3.3,1.5,3.3,3.3v0
	C282.1,192.2,279.1,195.2,275.4,195.2z"/>
<path class="st10" d="M292.7,195.2h-1c-3.7,0-6.8-3-6.8-6.8v0c0-1.8,1.5-3.3,3.3-3.3h7.9c1.8,0,3.3,1.5,3.3,3.3v0
	C299.4,192.2,296.4,195.2,292.7,195.2z"/>
<path class="st11" d="M282.1,187.7c0.2,0.1,2.8,0,2.8,0"/>
<g>
	<path class="st12" d="M289.8,290.7c-0.6-0.9-1.4-1.5-2.4-1.8c-1.3-0.4-2.6-0.2-3.8,0.3c-0.9,0.4-1.7,0.4-2.5,0
		c-0.6-0.2-1.2-0.4-1.8-0.5c-2.4-0.1-4.5,1.6-5,4.1c-0.7,4,0.7,7.3,3.4,10.2c0.8,0.8,1.8,1,2.8,0.5c1.4-0.7,2.8-0.7,4.2,0
		c1.1,0.5,2.2,0.3,3-0.6c0.8-1,1.5-2.1,2.1-3.1c0.2-0.4,0.4-0.9,0.5-1.3C287.2,296.9,286.7,292.9,289.8,290.7z"/>
	<path class="st12" d="M286.2,283.9c-2.3,0-4.6,2.7-3.9,4.6C284.5,288.7,286.6,286.2,286.2,283.9z"/>
</g>
<linearGradient id="SVGID_5_" gradientUnits="userSpaceOnUse" x1="170.2672" y1="253.562" x2="102.0386" y2="181.4361">
	<stop  offset="0" style="stop-color:#FFE610"/>
	<stop  offset="1" style="stop-color:#FF4000"/>
</linearGradient>
<path class="st13" d="M158.5,251.8h-45c-6.6,0-12-5.4-12-12v-45c0-6.6,5.4-12,12-12h45c6.6,0,12,5.4,12,12v45
	C170.5,246.4,165.1,251.8,158.5,251.8z"/>
<linearGradient id="SVGID_6_" gradientUnits="userSpaceOnUse" x1="157.486" y1="146.3697" x2="110.6081" y2="96.814">
	<stop  offset="0" style="stop-color:#1F1A9A"/>
	<stop  offset="0.9983" style="stop-color:#02F0F4"/>
</linearGradient>
<path class="st14" d="M146.7,146.3h-25.6c-6.6,0-12-5.4-12-12v-25.6c0-6.6,5.4-12,12-12h25.6c6.6,0,12,5.4,12,12v25.6
	C158.7,140.9,153.3,146.3,146.7,146.3z"/>
<path class="st12" d="M244.3,114.9h-47.1c-6.6,0-12-5.4-12-12V55.8c0-6.6,5.4-12,12-12h47.1c6.6,0,12,5.4,12,12v47.1
	C256.3,109.5,250.9,114.9,244.3,114.9z"/>
<linearGradient id="SVGID_7_" gradientUnits="userSpaceOnUse" x1="394.8792" y1="120.6622" x2="307.8499" y2="28.6617">
	<stop  offset="0" style="stop-color:#FFE610"/>
	<stop  offset="1" style="stop-color:#FF4000"/>
</linearGradient>
<path class="st15" d="M394.4,105.9h-86.5c-6.6,0-12-5.4-12-12v-39c0-6.6,5.4-12,12-12h86.5c6.6,0,12,5.4,12,12v39
	C406.4,100.5,401,105.9,394.4,105.9z"/>
<linearGradient id="SVGID_8_" gradientUnits="userSpaceOnUse" x1="476.4897" y1="263.7727" x2="405.1352" y2="188.3423">
	<stop  offset="0" style="stop-color:#1F1A9A"/>
	<stop  offset="0.9983" style="stop-color:#02F0F4"/>
</linearGradient>
<path class="st16" d="M464.5,261.8h-47.8c-6.6,0-12-5.4-12-12v-47.8c0-6.6,5.4-12,12-12h47.8c6.6,0,12,5.4,12,12v47.8
	C476.5,256.4,471.1,261.8,464.5,261.8z"/>
<g id="Group_8_" transform="translate(6.000000, 77.000000)">
	<polygon id="Path_6_" class="st12" points="109.4,141.5 105.2,141.5 105.2,148.2 102.4,148.2 102.4,132.4 105.2,132.4 105.2,138.9 
		109.4,138.9 109.4,132.4 112.4,132.4 112.4,148.2 109.4,148.2 	"/>
	<polygon id="Path_5_" class="st12" points="123.7,135 120,135 120,148.2 117.1,148.2 117.1,135 113.5,135 113.5,132.4 123.7,132.4 
			"/>
	<polygon id="Path_4_" class="st12" points="135,140 135.2,137.1 135.1,137.1 134.4,139.8 131.8,145.3 130.9,145.3 128.2,139.8 
		127.3,137 127.2,137 127.6,140 127.6,148.2 124.9,148.2 124.9,132.4 127.7,132.4 131,139.1 131.5,141.1 131.5,141.1 132,139 
		135.1,132.3 137.7,132.3 137.7,148.2 134.9,148.2 134.9,140 	"/>
	<polygon id="Path_2_" class="st12" points="148.2,148.2 139.8,148.2 139.8,132.4 142.7,132.4 142.7,145.5 148.2,145.5 	"/>
	<path id="Path_1_" class="st12" d="M152.4,146c0.9,0,1.5-0.2,1.9-0.9c0.4-0.5,0.6-1.2,0.6-2c0-0.9-0.2-1.6-0.7-2s-1.2-0.6-2.1-0.6
		l-1.5,0.1v-8.2h6.6v2.6h-4.2v3.2l0.7-0.1c1.2,0,2.1,0.5,2.9,1.4s1.1,2,1.1,3.6c0,0.9-0.1,1.6-0.4,2.4c-0.2,0.7-0.6,1.2-1,1.6
		c-0.4,0.4-0.9,0.9-1.5,1c-0.6,0.2-1.2,0.2-2,0.2c-0.5,0-1.1-0.1-1.6-0.2c-0.5-0.1-1-0.2-1.4-0.4l0.7-2.2
		C150.9,145.8,151.5,146,152.4,146z"/>
</g>
<g id="Group_9_" transform="translate(282.000000, 72.000000)">
	<path id="Path_8_" class="st12" d="M-152.6,54.7c0,3.1-1.6,5-4.7,5c-1.5,0-2.9-0.6-3.4-1.2l1.1-2.7c0.4,0.4,1.1,0.6,1.7,0.6
		c1.3,0,1.8-0.9,1.8-2.3V39.5h3.5L-152.6,54.7L-152.6,54.7z"/>
	<path id="Path_7_" class="st12" d="M-148.1,44.7c0-2.9,2.3-5.5,6.2-5.5c2.5,0,4.5,0.8,5.6,2.1l-1.9,2.6c-1-1-2-1.5-3.5-1.5
		c-1.7,0-2.8,0.9-2.8,2.1c0,4.1,8.9,2.9,8.9,9.4c0,3.4-2.9,5.6-6.6,5.6c-2.5,0-5.6-1.1-6.5-3.1l2-2.4c1.2,1.5,3,2.2,4.6,2.2
		c1.6,0,2.9-0.8,2.9-2.3C-139.1,50.2-148.1,51.2-148.1,44.7z"/>
</g>
<g id="Group_10_" transform="translate(195.000000, 93.000000)">
	<path id="Shape_12_" class="st7" d="M4.3-23.9C5-24,5.8-24.2,6.6-24.2c0.9-0.2,1.7-0.2,2.6-0.2c0.9,0,1.9,0.2,2.8,0.3
		s1.7,0.5,2.3,0.9c0.8,0.5,1.2,1.2,1.7,2.2c0.5,0.9,0.6,2.2,0.6,3.6s-0.2,2.5-0.5,3.4c-0.3,0.9-0.9,1.7-1.6,2.2
		c-0.6,0.6-1.4,1.1-2.2,1.2c-0.9,0.3-1.6,0.3-2.5,0.3c-0.2,0-0.3,0-0.3,0s-0.3,0-0.6,0c-0.3,0-0.3,0-0.6,0c-0.3,0-0.3,0-0.3,0v7.3
		H4.3C4.3-2.9,4.3-23.9,4.3-23.9z M8-13.6c0.2,0,0.3,0.2,0.6,0.2c0.3,0,0.5,0,0.6,0c0.5,0,0.9,0,1.2-0.2c0.3-0.2,0.8-0.3,1.1-0.6
		c0.3-0.3,0.5-0.8,0.8-1.2c0.2-0.5,0.3-1.1,0.3-2c0-0.6-0.2-1.2-0.3-1.7c-0.2-0.5-0.3-0.9-0.8-1.1c-0.3-0.3-0.6-0.5-0.9-0.6
		c-0.3-0.2-0.8-0.2-1.2-0.2c-0.6,0-1.1,0-1.6,0.2L8-13.6L8-13.6z"/>
	<polygon id="Path_9_" class="st7" points="28.3,-11.8 22.6,-11.8 22.6,-2.9 18.7,-2.9 18.7,-24 22.6,-24 22.6,-15.3 28.3,-15.3 
		28.3,-24 32.2,-24 32.2,-2.9 28.3,-2.9 	"/>
	<path id="Shape_1_" class="st7" d="M34.8-23.9c0.8-0.2,1.6-0.3,2.3-0.3c0.9-0.2,1.7-0.2,2.6-0.2c0.9,0,1.9,0.2,2.8,0.3
		c0.9,0.2,1.7,0.5,2.3,0.9c0.8,0.5,1.2,1.2,1.7,2.2c0.5,0.9,0.6,2.2,0.6,3.6s-0.2,2.5-0.5,3.4s-0.9,1.7-1.6,2.2
		c-0.6,0.6-1.4,0.9-2.2,1.2c-0.9,0.3-1.6,0.3-2.5,0.3c-0.2,0-0.3,0-0.3,0c-0.2,0-0.3,0-0.6,0s-0.3,0-0.6,0c-0.3,0-0.3,0-0.3,0v7.3
		h-3.9V-23.9z M38.5-13.6c0.2,0,0.3,0.2,0.6,0.2c0.3,0,0.5,0,0.6,0c0.5,0,0.9,0,1.2-0.2c0.3-0.2,0.8-0.3,1.1-0.6
		c0.3-0.3,0.5-0.8,0.8-1.2c0.2-0.5,0.3-1.1,0.3-2c0-0.6-0.2-1.2-0.3-1.7c-0.2-0.5-0.3-0.9-0.8-1.1c-0.3-0.3-0.6-0.5-0.9-0.6
		c-0.3-0.2-0.8-0.2-1.2-0.2c-0.6,0-1.1,0-1.6,0.2L38.5-13.6L38.5-13.6z"/>
</g>
<path class="st12" d="M383.8,178.9h-22.2c-6.6,0-12-5.4-12-12v-22.2c0-6.6,5.4-12,12-12h22.2c6.6,0,12,5.4,12,12v22.2
	C395.8,173.5,390.4,178.9,383.8,178.9z"/>
<g>
	<path class="st12" d="M427.3,227.2l0.3,4.4h0.1l0.4-4.5l3.3-13.4h3.1l3.2,13.5l0.4,4.4h0.1l0.4-4.5l2.2-13.4h4.5l-5.5,24.6h-3.1
		l-3.4-13.5l-0.5-3.8h-0.2l-0.4,3.8l-3.4,13.5h-3.2l-5.5-24.6h4.9L427.3,227.2z"/>
	<path class="st12" d="M446.7,214c0.8-0.2,1.8-0.3,2.8-0.4c1-0.1,2-0.2,3-0.2c1.1,0,2.1,0.1,3.2,0.3c1,0.2,2,0.6,2.8,1.2
		c0.8,0.6,1.5,1.4,2,2.5c0.5,1.1,0.8,2.4,0.8,4.1c0,1.5-0.2,2.8-0.6,3.9c-0.4,1.1-1,1.9-1.7,2.6c-0.7,0.7-1.6,1.2-2.5,1.5
		c-0.9,0.3-1.9,0.5-2.9,0.5c-0.1,0-0.2,0-0.5,0s-0.4,0-0.7,0c-0.2,0-0.5,0-0.7-0.1c-0.2,0-0.4,0-0.5-0.1v8.4h-4.4V214z M451.1,225.8
		c0.1,0,0.4,0.1,0.8,0.1c0.4,0,0.6,0.1,0.8,0.1c0.5,0,1-0.1,1.5-0.2s0.9-0.4,1.2-0.7c0.4-0.3,0.6-0.8,0.9-1.4
		c0.2-0.6,0.3-1.3,0.3-2.3c0-0.8-0.1-1.4-0.3-2c-0.2-0.5-0.5-1-0.8-1.3c-0.3-0.3-0.7-0.5-1.2-0.7s-0.9-0.2-1.4-0.2
		c-0.7,0-1.3,0.1-1.8,0.2V225.8z"/>
</g>
<g>
	<path class="st7" d="M368.2,162.1c-0.3,0.3-0.8,0.5-1.4,0.6s-1.1,0.2-1.7,0.2c-0.7,0-1.4-0.1-2-0.4c-0.6-0.2-1.1-0.6-1.6-1.2
		c-0.5-0.6-0.8-1.3-1.1-2.2c-0.3-0.9-0.4-2-0.4-3.4c0-1.4,0.1-2.5,0.4-3.5c0.3-0.9,0.7-1.6,1.2-2.2c0.5-0.5,1-0.9,1.6-1.2
		c0.6-0.2,1.2-0.3,1.9-0.3c0.6,0,1.2,0.1,1.7,0.2s0.9,0.2,1.2,0.4l-0.5,2.2c-0.2-0.1-0.5-0.2-0.9-0.3c-0.3-0.1-0.7-0.1-1.2-0.1
		c-0.9,0-1.6,0.4-2.1,1.2c-0.5,0.8-0.7,2-0.7,3.7c0,0.7,0.1,1.4,0.2,2s0.3,1.1,0.5,1.5s0.6,0.8,0.9,1c0.4,0.2,0.8,0.4,1.3,0.4
		c0.5,0,0.9-0.1,1.2-0.2c0.3-0.1,0.6-0.3,0.9-0.4L368.2,162.1z"/>
	<path class="st7" d="M374.2,159.1c0-0.4-0.1-0.8-0.4-1.1s-0.6-0.6-0.9-0.8c-0.4-0.3-0.8-0.5-1.2-0.8s-0.8-0.6-1.2-1
		c-0.4-0.4-0.7-0.8-0.9-1.3c-0.2-0.5-0.4-1.1-0.4-1.8c0-0.7,0.1-1.2,0.3-1.7c0.2-0.5,0.5-0.8,0.8-1.1c0.4-0.3,0.8-0.5,1.3-0.6
		c0.5-0.1,1-0.2,1.6-0.2c0.7,0,1.3,0.1,1.9,0.2c0.6,0.1,1.1,0.3,1.4,0.5l-0.8,2.2c-0.2-0.2-0.6-0.3-1-0.4c-0.4-0.1-0.9-0.2-1.4-0.2
		c-0.5,0-0.9,0.1-1.2,0.3c-0.3,0.2-0.4,0.5-0.4,0.9c0,0.4,0.1,0.7,0.4,1c0.2,0.3,0.6,0.6,0.9,0.8c0.4,0.3,0.8,0.5,1.2,0.8
		c0.4,0.3,0.8,0.6,1.2,1c0.4,0.4,0.7,0.8,0.9,1.3c0.2,0.5,0.4,1.1,0.4,1.8c0,0.7-0.1,1.3-0.3,1.8s-0.5,0.9-0.9,1.3
		c-0.4,0.3-0.8,0.6-1.3,0.8c-0.5,0.2-1.1,0.3-1.8,0.3c-0.8,0-1.5-0.1-2.1-0.2c-0.6-0.2-1.1-0.3-1.4-0.5l0.8-2.2
		c0.3,0.2,0.6,0.3,1.1,0.5c0.5,0.2,1,0.2,1.5,0.2C373.6,160.6,374.2,160.1,374.2,159.1z"/>
	<path class="st7" d="M382.9,159.1c0-0.4-0.1-0.8-0.4-1.1s-0.6-0.6-0.9-0.8c-0.4-0.3-0.8-0.5-1.2-0.8s-0.8-0.6-1.2-1
		c-0.4-0.4-0.7-0.8-0.9-1.3c-0.2-0.5-0.4-1.1-0.4-1.8c0-0.7,0.1-1.2,0.3-1.7c0.2-0.5,0.5-0.8,0.8-1.1c0.4-0.3,0.8-0.5,1.3-0.6
		c0.5-0.1,1-0.2,1.6-0.2c0.7,0,1.3,0.1,1.9,0.2c0.6,0.1,1.1,0.3,1.4,0.5l-0.8,2.2c-0.2-0.2-0.6-0.3-1-0.4c-0.4-0.1-0.9-0.2-1.4-0.2
		c-0.5,0-0.9,0.1-1.2,0.3c-0.3,0.2-0.4,0.5-0.4,0.9c0,0.4,0.1,0.7,0.4,1c0.2,0.3,0.6,0.6,0.9,0.8c0.4,0.3,0.8,0.5,1.2,0.8
		c0.4,0.3,0.8,0.6,1.2,1c0.4,0.4,0.7,0.8,0.9,1.3c0.2,0.5,0.4,1.1,0.4,1.8c0,0.7-0.1,1.3-0.3,1.8s-0.5,0.9-0.9,1.3
		c-0.4,0.3-0.8,0.6-1.3,0.8c-0.5,0.2-1.1,0.3-1.8,0.3c-0.8,0-1.5-0.1-2.1-0.2c-0.6-0.2-1.1-0.3-1.4-0.5l0.8-2.2
		c0.3,0.2,0.6,0.3,1.1,0.5c0.5,0.2,1,0.2,1.5,0.2C382.2,160.6,382.9,160.1,382.9,159.1z"/>
</g>
<g>
	<path class="st12" d="M326.5,83.7h-10.1V64.8h3.4v15.8h6.7V83.7z"/>
	<path class="st12" d="M327.9,71c0.5-0.3,1.2-0.6,2-0.8c0.8-0.2,1.7-0.3,2.8-0.3c1.5,0,2.6,0.4,3.2,1.2c0.6,0.8,0.9,1.9,0.9,3.4
		c0,0.8,0,1.7-0.1,2.5c0,0.8-0.1,1.6-0.1,2.4c0,0.8,0,1.5,0,2.3c0,0.7,0.2,1.4,0.4,2.1h-2.6l-0.5-1.6h-0.1c-0.3,0.5-0.7,1-1.2,1.3
		c-0.5,0.3-1.2,0.5-2,0.5c-1.1,0-1.9-0.4-2.5-1.1c-0.6-0.7-0.9-1.7-0.9-2.9c0-1.6,0.6-2.8,1.7-3.5c1.2-0.7,2.7-1,4.7-0.9
		c0.1-1,0-1.8-0.2-2.3c-0.2-0.5-0.7-0.7-1.4-0.7c-0.5,0-1.1,0.1-1.7,0.2s-1.1,0.3-1.5,0.5L327.9,71z M331.8,81.1
		c0.5,0,0.9-0.1,1.2-0.4c0.3-0.2,0.5-0.5,0.7-0.8v-2.2c-0.4-0.1-0.8-0.1-1.2,0s-0.7,0.1-1,0.2c-0.3,0.1-0.5,0.3-0.7,0.6
		c-0.2,0.2-0.3,0.6-0.3,0.9c0,0.6,0.1,1,0.3,1.3C331.1,81,331.4,81.1,331.8,81.1z"/>
	<path class="st12" d="M345.4,73.4c-0.4-0.2-0.8-0.2-1.2-0.2c-0.5,0-0.9,0.1-1.3,0.4s-0.6,0.6-0.7,1.1v9H339V70.2h2.5l0.4,1.6h0.1
		c0.2-0.6,0.6-1.1,1-1.4c0.4-0.3,1-0.5,1.5-0.5c0.4,0,0.9,0.1,1.3,0.3L345.4,73.4z"/>
	<path class="st12" d="M347,71c0.5-0.3,1.2-0.6,2-0.8c0.8-0.2,1.7-0.3,2.8-0.3c1.5,0,2.6,0.4,3.2,1.2c0.6,0.8,0.9,1.9,0.9,3.4
		c0,0.8,0,1.7-0.1,2.5c0,0.8-0.1,1.6-0.1,2.4c0,0.8,0,1.5,0,2.3c0,0.7,0.2,1.4,0.4,2.1h-2.6l-0.5-1.6h-0.1c-0.3,0.5-0.7,1-1.2,1.3
		c-0.5,0.3-1.2,0.5-2,0.5c-1.1,0-1.9-0.4-2.5-1.1c-0.6-0.7-0.9-1.7-0.9-2.9c0-1.6,0.6-2.8,1.7-3.5c1.2-0.7,2.7-1,4.7-0.9
		c0.1-1,0-1.8-0.2-2.3c-0.2-0.5-0.7-0.7-1.4-0.7c-0.5,0-1.1,0.1-1.7,0.2s-1.1,0.3-1.5,0.5L347,71z M350.9,81.1
		c0.5,0,0.9-0.1,1.2-0.4c0.3-0.2,0.5-0.5,0.7-0.8v-2.2c-0.4-0.1-0.8-0.1-1.2,0s-0.7,0.1-1,0.2c-0.3,0.1-0.5,0.3-0.7,0.6
		c-0.2,0.2-0.3,0.6-0.3,0.9c0,0.6,0.1,1,0.3,1.3C350.2,81,350.5,81.1,350.9,81.1z"/>
	<path class="st12" d="M362.3,77.2l0.3,2.1h0.1l0.3-2.2l1.7-7h3.5l-4.5,13.7h-2.2l-4.8-13.7h3.8L362.3,77.2z"/>
	<path class="st12" d="M377.9,82.7c-0.5,0.4-1.1,0.7-1.8,1c-0.8,0.3-1.6,0.4-2.4,0.4c-0.9,0-1.7-0.2-2.4-0.5s-1.2-0.8-1.7-1.4
		c-0.4-0.6-0.8-1.4-1-2.2c-0.2-0.9-0.3-1.9-0.3-3c0-2.4,0.5-4.2,1.4-5.4c1-1.2,2.3-1.7,4-1.7c0.6,0,1.1,0.1,1.7,0.3
		c0.5,0.2,1,0.5,1.4,0.9c0.4,0.4,0.8,0.9,1,1.6c0.3,0.7,0.4,1.5,0.4,2.6c0,0.4,0,0.8-0.1,1.3c0,0.5-0.1,0.9-0.2,1.5h-6.6
		c0,1.1,0.3,2,0.7,2.6c0.4,0.6,1.1,0.9,2.1,0.9c0.6,0,1.1-0.1,1.6-0.3s0.8-0.4,1.1-0.6L377.9,82.7z M373.7,72.6
		c-0.7,0-1.2,0.3-1.5,0.8c-0.3,0.5-0.5,1.3-0.6,2.3h3.7c0.1-1-0.1-1.8-0.3-2.3C374.7,72.8,374.3,72.6,373.7,72.6z"/>
	<path class="st12" d="M383.6,79.3c0,0.6,0.1,1.1,0.2,1.4c0.1,0.3,0.3,0.4,0.6,0.4c0.2,0,0.3,0,0.5-0.1c0.2,0,0.4-0.1,0.6-0.2
		l0.3,2.6c-0.2,0.1-0.6,0.3-1.1,0.4c-0.5,0.1-1.1,0.2-1.6,0.2c-0.9,0-1.6-0.2-2-0.7c-0.5-0.5-0.7-1.2-0.7-2.3V64.8h3.2V79.3z"/>
</g>
</svg>
