<?xml version="1.0" encoding="utf-8"?>
<!-- Generator: Adobe Illustrator 19.2.0, SVG Export Plug-In . SVG Version: 6.00 Build 0)  -->
<svg version="1.1" id="Layer_1" xmlns="http://www.w3.org/2000/svg" xmlns:xlink="http://www.w3.org/1999/xlink" x="0px" y="0px"
	 viewBox="0 0 75 72" style="enable-background:new 0 0 75 72;" xml:space="preserve">
<style type="text/css">
	.st0{fill:#FFE600;}
	.st1{fill:none;stroke:#020202;stroke-width:3;stroke-miterlimit:10;}
</style>
<circle class="st0" cx="32" cy="38.3" r="21"/>
<line class="st1" x1="32.9" y1="38.3" x2="37.6" y2="42.9"/>
<line class="st1" x1="35.5" y1="34.6" x2="41" y2="40.1"/>
<path class="st1" d="M71.2,5.8c-0.7,1.5-1.9,3.5-3.6,5.9c-3.4,4.7-8.6,10.8-14.9,17.1s-12.3,11.5-17,14.9c-2.4,1.7-4.4,2.9-5.8,3.6
	c-0.8,0.3-1.3,0.5-1.7,0.6c-0.2,0-0.3,0-0.3,0c0-0.1,0-0.2,0-0.3c0-0.4,0.2-1,0.6-1.7c0.7-1.5,1.9-3.5,3.6-5.9
	c3.4-4.7,8.6-10.8,14.9-17.1c6.2-6.3,12.3-11.5,17-14.9C66.8,5.5,74.8,0,71.2,5.8z M27.8,47.8C27.8,47.8,27.8,47.8,27.8,47.8
	C27.8,47.8,27.8,47.8,27.8,47.8z M27.9,47.9C27.9,47.9,27.9,47.9,27.9,47.9C27.9,47.9,27.9,47.9,27.9,47.9z"/>
<path class="st1" d="M27.3,56.8c2.8-2.8,2.1-6.2,0-8c0-1.4-9.7-4.8-10.7,4.1c-0.7,6.2-5.9,5.2-3.1,7.3C16,62.2,23.8,60.2,27.3,56.8z
	"/>
</svg>
