<?xml version="1.0" encoding="utf-8"?>
<!-- Generator: Adobe Illustrator 19.2.0, SVG Export Plug-In . SVG Version: 6.00 Build 0)  -->
<svg version="1.1" id="Layer_1" xmlns="http://www.w3.org/2000/svg" xmlns:xlink="http://www.w3.org/1999/xlink" x="0px" y="0px"
	 viewBox="0 0 75 72" style="enable-background:new 0 0 75 72;" xml:space="preserve">
<style type="text/css">
	.st0{fill:#FFE600;}
</style>
<circle class="st0" cx="39.4" cy="33.9" r="22.3"/>
<g>
	<path d="M40.1,39.7l25.8,5.9l-5.3,5.3L45.9,65.4c0,0,0-0.1,0-0.1c-1.5-6.8-3.1-13.6-4.6-20.4L40.1,39.7 M36.1,35.7
		c0,0.2,0,0.3,0,0.3c2.3,10,4.6,20,6.8,30c0.4,1.8,0.8,3.6,1.2,5.4c0,0,0.1,0,0.1,0c0.1-0.2,0.3-0.4,0.4-0.5
		c8.8-8.8,17.6-17.7,26.5-26.5c0.2-0.2,0.3-0.4,0.6-0.6C59.9,41.1,48,38.4,36.1,35.7L36.1,35.7z"/>
</g>
<g>
	<path d="M52.6,3.6c0.2,0,0.4,0.1,0.6,0.1c0.6,0.1,1.1,0.2,1.6,0.3c5.9,1.6,9.9,7.1,9.6,13.1c-0.3,6.1-4.9,11.3-10.8,12.3
		c-0.7,0.1-1.5,0.2-2.2,0.2c-6.6,0-12.2-4.9-13-11.5c-0.4-3.5,0.5-6.9,2.7-9.6c2.2-2.8,5.3-4.5,8.7-4.9c0.2,0,0.4-0.1,0.5-0.1H52.6
		 M52.9,0.6c-1,0-1.9,0-2.9,0c-0.2,0-0.3,0.1-0.5,0.1c-8.8,1.1-15.1,9.1-14,17.9c1,8.2,8,14.1,16,14.1c0.9,0,1.8-0.1,2.7-0.2
		c7.4-1.2,13-7.6,13.3-15.2c0.4-7.4-4.6-14.2-11.9-16.2C54.7,0.9,53.8,0.8,52.9,0.6L52.9,0.6z"/>
</g>
<g>
	<path d="M17,23.1l10.8,0c0,2.5,0,5,0,7.5l0,3.3l0,3.3c0,2.5,0,5,0,7.5c-3.6,0-7.2,0-10.8,0c-3.6,0-7.2,0-10.8,0
		c0-7.2,0-14.4,0-21.5L17,23.1 M28.5,23.1L28.5,23.1C28.5,23.1,28.5,23.1,28.5,23.1 M5.4,44.6C5.4,44.6,5.4,44.6,5.4,44.6
		C5.4,44.6,5.4,44.6,5.4,44.6 M17,20.1c-3.8,0-7.6,0-11.4,0c-1.6,0-2.4,0.8-2.4,2.4c0,7.6,0,15.2,0,22.8c0,1.6,0.8,2.3,2.3,2.3
		c3.8,0,7.6,0,11.4,0s7.6,0,11.4,0c1.6,0,2.3-0.8,2.3-2.3c0-3.8,0-7.6,0-11.4c0-3.8,0-7.6,0-11.4c0-1.6-0.8-2.4-2.4-2.4
		C24.6,20.1,20.8,20.1,17,20.1L17,20.1z"/>
</g>
</svg>
