<?xml version="1.0" encoding="utf-8"?>
<!-- Generator: Adobe Illustrator 19.2.0, SVG Export Plug-In . SVG Version: 6.00 Build 0)  -->
<svg version="1.1" id="Layer_1" xmlns="http://www.w3.org/2000/svg" xmlns:xlink="http://www.w3.org/1999/xlink" x="0px" y="0px"
	 viewBox="0 0 75 68" style="enable-background:new 0 0 75 68;" xml:space="preserve">
<style type="text/css">
	.st0{fill:#12AEF9;}
</style>
<path class="st0" d="M71.6,24.1V6c0-2.9-2.4-5.2-5.3-5.2h-61C2.4,0.8,0,3.1,0,6v36.8C0,45.7,2.4,48,5.3,48h17.3l-2,2.1h-3
	c-0.7,0-1.2,0.5-1.2,1.2s0.5,1.2,1.2,1.2h17v11.7c0,1.7,1.4,3.1,3.1,3.1h13.1c1.7,0,3.1-1.4,3.1-3.1v-2.5h16.4
	c2.3,0,4.2-1.9,4.2-4.2V28C74.5,26.2,73.3,24.6,71.6,24.1z M34.6,48v2.1H23.9l2-2.1H34.6z M5.3,3.2h61.1c1.1,0,2.1,0.6,2.5,1.6l0,0
	H2.7l0,0C3.2,3.8,4.2,3.2,5.3,3.2z M34.6,43.8v1.8H5.3c-1.2,0-2.2-0.7-2.6-1.8l0,0H34.6z M44,28c0-1,0.8-1.7,1.7-1.7h24.6
	c1,0,1.7,0.8,1.7,1.7v0.3H44V28z M50.8,38.3H44v-7.5h28.1v24.1H53.9V41.4C53.9,39.7,52.5,38.3,50.8,38.3z M37.1,41.4
	c0-0.4,0.3-0.6,0.6-0.6h13.1c0.4,0,0.6,0.3,0.6,0.6V43H37.1V41.4z M34.6,41.4H2.4V7.2h66.7v16.6H45.7c-2.3,0-4.2,1.9-4.2,4.2v10.3
	h-3.9C36,38.3,34.6,39.7,34.6,41.4z M51.5,45.4v14.8H37.1V45.4H51.5z M51.5,62.7v1.6c0,0.2-0.1,0.3-0.2,0.5C51.2,64.9,51,65,50.8,65
	H37.7c-0.4,0-0.6-0.3-0.6-0.6v-1.6h14.4V62.7z M72.1,57.3v0.3c0,1-0.8,1.7-1.7,1.7H53.9v-2.1L72.1,57.3L72.1,57.3z"/>
</svg>
