<?xml version="1.0" encoding="utf-8"?>
<!-- Generator: Adobe Illustrator 19.2.0, SVG Export Plug-In . SVG Version: 6.00 Build 0)  -->
<svg version="1.1" id="Layer_1" xmlns="http://www.w3.org/2000/svg" xmlns:xlink="http://www.w3.org/1999/xlink" x="0px" y="0px"
	 width="120px" height="140px" viewBox="0 0 120 140" style="enable-background:new 0 0 120 140;" xml:space="preserve">
<style type="text/css">
	.st0{fill:#0C071F;}
	.st1{fill:#FF4B8C;}
</style>
<path class="st0" d="M37.9,115.3h-5.4l-1.1,2.6h-1.5l4.6-10.2h1.4l4.6,10.2H39L37.9,115.3z M37.4,114.1l-2.2-5l-2.2,5H37.4z
	 M46,110.1c1,0,1.8,0.3,2.3,0.9c0.6,0.6,0.9,1.4,0.9,2.5v4.5h-1.4v-4.3c0-0.7-0.2-1.3-0.5-1.7c-0.4-0.4-0.9-0.6-1.5-0.6
	c-0.8,0-1.4,0.2-1.8,0.7c-0.4,0.4-0.7,1.1-0.7,1.9v4h-1.4v-7.7h1.3v1.2c0.3-0.4,0.7-0.7,1.1-0.9C44.8,110.2,45.4,110.1,46,110.1z
	 M54.6,110.1c1.1,0,1.9,0.3,2.5,0.8c0.6,0.5,0.9,1.3,0.9,2.4v4.7h-1.3v-1c-0.2,0.4-0.6,0.6-1,0.8c-0.4,0.2-0.9,0.3-1.5,0.3
	c-0.9,0-1.6-0.2-2.1-0.6c-0.5-0.4-0.8-1-0.8-1.7c0-0.7,0.2-1.2,0.7-1.6c0.5-0.4,1.3-0.6,2.4-0.6h2.2v-0.3c0-0.6-0.2-1.1-0.5-1.4
	c-0.4-0.3-0.9-0.5-1.5-0.5c-0.5,0-0.9,0.1-1.3,0.2c-0.4,0.1-0.8,0.3-1.1,0.6l-0.6-1.1c0.4-0.3,0.9-0.6,1.4-0.7
	C53.4,110.1,54,110.1,54.6,110.1z M54.3,116.9c0.5,0,1-0.1,1.4-0.3c0.4-0.2,0.7-0.6,0.8-1v-1.1h-2.2c-1.2,0-1.8,0.4-1.8,1.2
	c0,0.4,0.2,0.7,0.5,0.9C53.4,116.8,53.8,116.9,54.3,116.9z M60.5,107h1.4v10.8h-1.4V107z M71.5,110.1l-3.8,8.5
	c-0.3,0.8-0.7,1.3-1.2,1.7c-0.4,0.3-1,0.5-1.6,0.5c-0.4,0-0.7-0.1-1.1-0.2c-0.4-0.1-0.6-0.3-0.9-0.5l0.6-1.1
	c0.4,0.4,0.9,0.6,1.4,0.6c0.3,0,0.6-0.1,0.8-0.3c0.2-0.2,0.4-0.5,0.6-0.9l0.2-0.5l-3.4-7.7h1.5l2.7,6.2l2.7-6.2H71.5z M74.9,118
	c-0.6,0-1.2-0.1-1.8-0.2c-0.6-0.2-1-0.4-1.4-0.7l0.6-1.1c0.3,0.2,0.8,0.4,1.2,0.6c0.5,0.1,1,0.2,1.5,0.2c1.2,0,1.8-0.4,1.8-1.1
	c0-0.2-0.1-0.4-0.2-0.6c-0.2-0.1-0.4-0.2-0.6-0.3c-0.2-0.1-0.6-0.1-1.1-0.2c-0.6-0.1-1.1-0.2-1.5-0.3c-0.4-0.1-0.7-0.3-1-0.6
	c-0.3-0.3-0.4-0.7-0.4-1.3c0-0.7,0.3-1.3,0.9-1.7c0.6-0.4,1.4-0.6,2.4-0.6c0.5,0,1,0.1,1.5,0.2c0.5,0.1,0.9,0.3,1.3,0.5l-0.6,1.1
	c-0.6-0.4-1.4-0.6-2.2-0.6c-0.6,0-1,0.1-1.4,0.3c-0.3,0.2-0.5,0.5-0.5,0.8c0,0.3,0.1,0.5,0.3,0.6c0.2,0.1,0.4,0.3,0.6,0.3
	c0.3,0.1,0.6,0.1,1.1,0.2c0.6,0.1,1.1,0.2,1.5,0.4c0.4,0.1,0.7,0.3,1,0.6c0.3,0.3,0.4,0.7,0.4,1.2c0,0.7-0.3,1.3-0.9,1.7
	C76.7,117.8,75.9,118,74.9,118z M84.3,117.4c-0.2,0.2-0.5,0.3-0.8,0.4c-0.3,0.1-0.6,0.1-0.9,0.1c-0.8,0-1.4-0.2-1.8-0.6
	s-0.6-1-0.6-1.8v-4.2h-1.3v-1.2h1.3v-1.7h1.4v1.7h2.2v1.2h-2.2v4.2c0,0.4,0.1,0.7,0.3,1c0.2,0.2,0.5,0.3,0.9,0.3
	c0.4,0,0.8-0.1,1.1-0.4L84.3,117.4z"/>
<path class="st1" d="M60.3,28.9c7.9,0,14.2-6.4,14.2-14.2c0-7.8-6.4-14.2-14.2-14.2c-7.9,0-14.2,6.4-14.2,14.2
	C46.1,22.4,52.4,28.9,60.3,28.9z M60.3,1.7c7.2,0,13,5.8,13,13c0,7.2-5.8,13-13,13c-7.2,0-13-5.8-13-13C47.3,7.5,53.1,1.7,60.3,1.7z
	"/>
<path class="st1" d="M93,16.4v1.2h17.7L80.5,47.8c-3.4-7.9-11-13.3-20.1-13.3c-12.1,0-22,9.9-22,22.1v11.4l-0.1,0.4l0.6,0.4
	l19.2-19.3l11.2,11.3L79.9,50c0.7,2.1,1.1,4.4,1.1,6.7c0,0,0,8.4,0,10.8H51.8v1.2h30.4V68c0-0.1,0-10.2,0-11.4
	c0-2.7-0.5-5.2-1.3-7.5l30.3-30.4v17.2h1.2V16.5H93V16.4z M69.4,58.8l-11-11.3L39.7,66.3v-9.9c0-11.4,9.2-20.7,20.7-20.7
	c8.7,0,16.1,5.3,19.3,13L69.4,58.8z M111.3,17.8l-0.2-0.4h0.4v0.4H111.3z"/>
</svg>
