<svg width="98" height="86" viewBox="0 0 98 86" fill="none" xmlns="http://www.w3.org/2000/svg">
<path fill-rule="evenodd" clip-rule="evenodd" d="M93.9321 21.9937C90.8133 16.7429 86.4318 11.7482 83.4735 9.12781C77.0154 3.40611 71.6283 3.54545 68.9913 4.13805C67.8834 4.38706 66.8661 4.79763 65.9705 5.34524C61.3693 1.93075 55.7719 0.258057 48.9999 0.258057C42.228 0.258057 36.6303 1.93075 32.0293 5.34543C31.1335 4.79782 30.1164 4.38706 29.0085 4.13824C26.3723 3.54584 20.9844 3.4063 14.5268 9.12781C11.5682 11.7483 7.18692 16.7431 4.06777 21.9939C-0.155026 29.1029 -1.09559 34.8537 1.2721 39.087C4.16309 44.2556 8.5482 45.5782 12.0883 45.9043C11.2181 49.2836 10.6808 52.8987 10.6808 57.403C10.6808 63.3736 12.0398 68.5101 14.7205 72.6702C17.0769 76.3275 20.4693 79.2562 24.8035 81.3749C32.8116 85.2894 42.4483 85.742 49.0001 85.742C55.5519 85.742 65.1888 85.2894 73.1967 81.3749C77.5307 79.2562 80.9234 76.3275 83.2798 72.6702C85.9602 68.5099 87.3194 63.3734 87.3194 57.403C87.3194 52.8989 86.7821 49.2838 85.912 45.9043C89.452 45.578 93.8373 44.2552 96.7281 39.0868C99.0954 34.8539 98.1547 29.1029 93.9321 21.9937ZM13.9493 39.9962C10.8164 39.9139 8.26875 39.3073 6.50762 36.1589C5.31287 34.0226 6.30339 29.9763 9.22558 25.057C11.9989 20.388 15.9795 15.8544 18.5046 13.6174C22.6745 9.92252 25.8006 9.71906 27.2713 9.91601C22.8945 15.2516 20.2117 22.1859 17.9682 28.9278C17.0392 31.7196 16.1438 34.1032 15.2775 36.4087L15.2723 36.4224C14.811 37.6509 14.3671 38.8328 13.9493 39.9962ZM45.0866 59.6632C43.5349 58.1122 42.7228 56.4841 42.7228 55.6775C42.7228 54.9575 42.8461 54.9056 43.3045 54.7127L43.305 54.7125C44.6129 54.1622 47.1816 54.0986 48.9999 54.0986C50.8183 54.0986 53.3869 54.1622 54.6948 54.7125C55.1536 54.9054 55.2771 54.9575 55.2771 55.6775C55.2771 56.4841 54.4651 58.112 52.9132 59.6632C51.3871 61.1883 49.7581 62.0111 48.9997 62.0111C48.2414 62.0111 46.6127 61.1883 45.0866 59.6632ZM70.5624 75.9859C65.9589 78.2358 59.8649 79.4563 51.9992 79.698V67.4109C54.3543 66.5021 56.2722 64.7871 57.1538 63.9061C58.3932 62.6675 61.2757 59.386 61.2757 55.6777C61.2757 52.6441 59.7648 50.3377 57.0212 49.1835C55.1925 48.4141 52.8684 48.1001 49.0001 48.1001C45.1318 48.1001 42.8077 48.4141 40.9789 49.1835C38.2354 50.3377 36.7243 52.6439 36.7243 55.6777C36.7243 59.386 39.6071 62.6673 40.8462 63.9061C41.7278 64.7873 43.6459 66.5023 46.0008 67.4109V79.698C38.1351 79.4565 32.0412 78.2362 27.4377 75.9859C20.1983 72.4472 16.6791 66.3687 16.6791 57.403C16.6791 49.7334 18.4464 45.0293 20.8922 38.5192L20.8922 38.5192L20.8925 38.5182C21.7372 36.2701 22.6942 33.7221 23.6595 30.8217C28.9614 14.8899 34.57 6.25653 48.9999 6.25653C63.4298 6.25653 69.0384 14.8901 74.3401 30.8217C75.3028 33.715 76.2578 36.2573 77.1007 38.5013L77.1071 38.5182L77.1077 38.5197C79.5534 45.0296 81.3205 49.7334 81.3205 57.403C81.3207 66.3687 77.8015 72.4472 70.5624 75.9859ZM91.4926 36.1589C89.7313 39.3077 87.1837 39.9137 84.0507 39.9962C83.6312 38.8283 83.186 37.6421 82.7228 36.4087C81.8567 34.1034 80.9613 31.7196 80.032 28.9278C77.7885 22.1859 75.1058 15.2516 70.7289 9.91601C72.1997 9.71944 75.3259 9.92252 79.496 13.6176C82.0211 15.8542 86.0015 20.3876 88.7748 25.0566C91.6968 29.9763 92.6873 34.0228 91.4926 36.1589ZM39.0181 32.1388C36.8481 32.1388 35.082 33.9229 35.082 36.1258C35.082 38.3285 36.8479 40.1141 39.0181 40.1141C41.1909 40.1141 42.9567 38.3283 42.9567 36.1258C42.9567 33.9229 41.1909 32.1388 39.0181 32.1388ZM54.9834 36.1258C54.9834 33.9067 56.7608 32.1077 58.9518 32.1077C61.1403 32.1077 62.9177 33.9067 62.9175 36.1258C62.9175 38.345 61.1403 40.144 58.9518 40.144C56.7608 40.144 54.9834 38.345 54.9834 36.1258Z" fill="url(#paint0_linear)"/>
<defs>
<linearGradient id="paint0_linear" x1="48.9999" y1="0.258057" x2="48.9999" y2="85.742" gradientUnits="userSpaceOnUse">
<stop stop-color="#FF8F2C"/>
<stop offset="1" stop-color="#FFCD15"/>
</linearGradient>
</defs>
</svg>
