<?xml version="1.0" encoding="utf-8"?>
<!-- Generator: Adobe Illustrator 19.2.0, SVG Export Plug-In . SVG Version: 6.00 Build 0)  -->
<svg version="1.1" id="Layer_1" xmlns="http://www.w3.org/2000/svg" xmlns:xlink="http://www.w3.org/1999/xlink" x="0px" y="0px"
	 width="120px" height="140px" viewBox="0 0 120 140" style="enable-background:new 0 0 120 140;" xml:space="preserve">
<style type="text/css">
	.st0{fill:#0C071F;}
	.st1{fill:#DC52E3;}
</style>
<path class="st0" d="M37.3,115.3h-5.4l-1.1,2.6h-1.5l4.6-10.2h1.4l4.6,10.2h-1.5L37.3,115.3z M36.8,114.2l-2.2-5l-2.2,5H36.8z
	 M42.6,111.5c0.2-0.4,0.6-0.8,1.1-1c0.5-0.2,1.1-0.3,1.7-0.3v1.4c-0.1,0-0.2,0-0.3,0c-0.8,0-1.4,0.2-1.8,0.7
	c-0.4,0.4-0.6,1.1-0.6,1.9v3.9h-1.4v-7.7h1.3V111.5z M51.8,117.4c-0.2,0.2-0.5,0.3-0.8,0.4c-0.3,0.1-0.6,0.1-0.9,0.1
	c-0.8,0-1.4-0.2-1.8-0.6c-0.4-0.4-0.6-1-0.6-1.8v-4.2h-1.3v-1.2h1.3v-1.7h1.4v1.7h2.2v1.2h-2.2v4.2c0,0.4,0.1,0.7,0.3,1
	c0.2,0.2,0.5,0.3,0.9,0.3c0.4,0,0.8-0.1,1.1-0.4L51.8,117.4z M53.5,110.2h1.4v7.7h-1.4V110.2z M54.2,108.7c-0.3,0-0.5-0.1-0.7-0.3
	c-0.2-0.2-0.3-0.4-0.3-0.6c0-0.3,0.1-0.5,0.3-0.6c0.2-0.2,0.4-0.3,0.7-0.3c0.3,0,0.5,0.1,0.7,0.3c0.2,0.2,0.3,0.4,0.3,0.6
	c0,0.3-0.1,0.5-0.3,0.7C54.7,108.6,54.5,108.7,54.2,108.7z M60.5,108.1c-0.8,0-1.3,0.5-1.3,1.4v0.7h2.2v1.2h-2.2v6.6h-1.4v-6.6h-1.3
	v-1.2h1.3v-0.7c0-0.8,0.2-1.4,0.7-1.8c0.4-0.4,1.1-0.7,1.9-0.7c0.3,0,0.6,0,0.9,0.1c0.3,0.1,0.5,0.2,0.7,0.3l-0.4,1.1
	C61.2,108.2,60.8,108.1,60.5,108.1z M63.9,110.2h1.4v7.7h-1.4V110.2z M64.6,108.7c-0.3,0-0.5-0.1-0.7-0.3c-0.2-0.2-0.3-0.4-0.3-0.6
	c0-0.3,0.1-0.5,0.3-0.6c0.2-0.2,0.4-0.3,0.7-0.3c0.3,0,0.5,0.1,0.7,0.3c0.2,0.2,0.3,0.4,0.3,0.6c0,0.3-0.1,0.5-0.3,0.7
	C65.1,108.6,64.9,108.7,64.6,108.7z M71.4,118c-0.8,0-1.5-0.2-2.1-0.5c-0.6-0.3-1.1-0.8-1.4-1.4c-0.4-0.6-0.5-1.3-0.5-2
	c0-0.8,0.2-1.4,0.5-2c0.4-0.6,0.8-1.1,1.4-1.4c0.6-0.3,1.3-0.5,2.1-0.5c0.7,0,1.3,0.1,1.9,0.4c0.6,0.3,1,0.7,1.3,1.2l-1.1,0.7
	c-0.2-0.4-0.5-0.6-0.9-0.8c-0.4-0.2-0.8-0.3-1.2-0.3c-0.5,0-1,0.1-1.4,0.3c-0.4,0.2-0.7,0.5-0.9,1c-0.2,0.4-0.3,0.9-0.3,1.4
	c0,0.5,0.1,1,0.3,1.4c0.2,0.4,0.6,0.7,0.9,0.9c0.4,0.2,0.9,0.3,1.4,0.3c0.4,0,0.8-0.1,1.2-0.3c0.4-0.2,0.7-0.5,0.9-0.8l1.1,0.7
	c-0.3,0.5-0.7,0.9-1.3,1.2C72.7,117.8,72.1,118,71.4,118z M76.4,110.2h1.4v7.7h-1.4V110.2z M77.1,108.7c-0.3,0-0.5-0.1-0.7-0.3
	c-0.2-0.2-0.3-0.4-0.3-0.6c0-0.3,0.1-0.5,0.3-0.6c0.2-0.2,0.4-0.3,0.7-0.3c0.3,0,0.5,0.1,0.7,0.3c0.2,0.2,0.3,0.4,0.3,0.6
	c0,0.3-0.1,0.5-0.3,0.7C77.6,108.6,77.3,108.7,77.1,108.7z M83.3,110.1c1.1,0,1.9,0.3,2.5,0.8c0.6,0.5,0.9,1.3,0.9,2.4v4.7h-1.3v-1
	c-0.2,0.4-0.6,0.6-1,0.8c-0.4,0.2-0.9,0.3-1.5,0.3c-0.9,0-1.6-0.2-2.1-0.6c-0.5-0.4-0.8-1-0.8-1.7c0-0.7,0.2-1.2,0.7-1.6
	c0.5-0.4,1.3-0.6,2.4-0.6h2.2v-0.3c0-0.6-0.2-1.1-0.5-1.4s-0.9-0.5-1.5-0.5c-0.5,0-0.9,0.1-1.3,0.2c-0.4,0.1-0.8,0.3-1.1,0.6
	l-0.6-1.1c0.4-0.3,0.9-0.6,1.4-0.7C82,110.2,82.6,110.1,83.3,110.1z M82.9,116.9c0.5,0,1-0.1,1.4-0.3c0.4-0.2,0.7-0.6,0.8-1v-1.1H83
	c-1.2,0-1.8,0.4-1.8,1.2c0,0.4,0.2,0.7,0.5,0.9C82,116.8,82.4,116.9,82.9,116.9z M89.2,107.1h1.4v10.8h-1.4V107.1z M18.3,125.7h1.5
	v10.2h-1.5V125.7z M26.8,128.1c1,0,1.8,0.3,2.3,0.9c0.6,0.6,0.9,1.4,0.9,2.5v4.5h-1.4v-4.3c0-0.8-0.2-1.3-0.5-1.7
	c-0.4-0.4-0.9-0.6-1.5-0.6c-0.8,0-1.4,0.2-1.8,0.7c-0.4,0.4-0.7,1.1-0.7,1.9v4h-1.4v-7.7H24v1.2c0.3-0.4,0.7-0.7,1.1-0.9
	C25.6,128.2,26.2,128.1,26.8,128.1z M36.9,135.4c-0.2,0.2-0.5,0.3-0.8,0.4c-0.3,0.1-0.6,0.1-0.9,0.1c-0.8,0-1.4-0.2-1.8-0.6
	c-0.4-0.4-0.6-1-0.6-1.8v-4.2h-1.3v-1.2h1.3v-1.7h1.4v1.7h2.2v1.2h-2.2v4.2c0,0.4,0.1,0.7,0.3,1c0.2,0.2,0.5,0.3,0.9,0.3
	c0.4,0,0.8-0.1,1.1-0.4L36.9,135.4z M45.4,132.1c0,0.1,0,0.2,0,0.4H39c0.1,0.7,0.4,1.2,0.9,1.7c0.5,0.4,1.2,0.6,1.9,0.6
	c0.9,0,1.7-0.3,2.2-0.9l0.8,0.9c-0.4,0.4-0.8,0.7-1.3,0.9c-0.5,0.2-1.1,0.3-1.7,0.3c-0.8,0-1.5-0.2-2.2-0.5
	c-0.6-0.3-1.1-0.8-1.5-1.4c-0.3-0.6-0.5-1.3-0.5-2c0-0.8,0.2-1.4,0.5-2c0.3-0.6,0.8-1.1,1.4-1.4c0.6-0.3,1.3-0.5,2-0.5
	c0.7,0,1.4,0.2,2,0.5c0.6,0.3,1,0.8,1.4,1.4C45.2,130.6,45.4,131.3,45.4,132.1z M41.5,129.3c-0.7,0-1.2,0.2-1.7,0.6
	c-0.4,0.4-0.7,0.9-0.8,1.6h5c-0.1-0.7-0.3-1.2-0.8-1.6C42.8,129.5,42.2,129.3,41.5,129.3z M47.3,125.1h1.4v10.8h-1.4V125.1z
	 M51.4,125.1h1.4v10.8h-1.4V125.1z M55.5,128.2h1.4v7.7h-1.4V128.2z M56.2,126.7c-0.3,0-0.5-0.1-0.7-0.3c-0.2-0.2-0.3-0.4-0.3-0.6
	c0-0.3,0.1-0.5,0.3-0.6c0.2-0.2,0.4-0.3,0.7-0.3c0.3,0,0.5,0.1,0.7,0.3c0.2,0.2,0.3,0.4,0.3,0.6c0,0.3-0.1,0.5-0.3,0.7
	C56.7,126.6,56.4,126.7,56.2,126.7z M66.9,128.2v6.7c0,1.4-0.3,2.4-1,3c-0.7,0.7-1.7,1-3,1c-0.7,0-1.4-0.1-2.1-0.3
	c-0.7-0.2-1.2-0.5-1.6-0.8l0.7-1.1c0.4,0.3,0.8,0.6,1.3,0.7c0.5,0.2,1.1,0.3,1.7,0.3c0.9,0,1.6-0.2,2-0.6c0.4-0.4,0.7-1.1,0.7-2
	v-0.6c-0.3,0.4-0.7,0.7-1.2,0.9c-0.5,0.2-1,0.3-1.6,0.3c-0.7,0-1.4-0.2-2-0.5c-0.6-0.3-1.1-0.8-1.4-1.3c-0.3-0.6-0.5-1.2-0.5-2
	c0-0.7,0.2-1.4,0.5-1.9c0.3-0.6,0.8-1,1.4-1.3c0.6-0.3,1.3-0.5,2-0.5c0.6,0,1.1,0.1,1.6,0.3c0.5,0.2,0.9,0.5,1.2,0.9v-1.2H66.9z
	 M62.9,134.3c0.5,0,1-0.1,1.4-0.3c0.4-0.2,0.7-0.5,0.9-0.9c0.2-0.4,0.4-0.8,0.4-1.3c0-0.8-0.2-1.4-0.7-1.8c-0.5-0.5-1.1-0.7-1.9-0.7
	c-0.8,0-1.4,0.2-1.9,0.7c-0.5,0.5-0.7,1.1-0.7,1.8c0,0.5,0.1,0.9,0.3,1.3c0.2,0.4,0.6,0.7,0.9,0.9C61.9,134.2,62.4,134.3,62.9,134.3
	z M76.6,132.1c0,0.1,0,0.2,0,0.4h-6.3c0.1,0.7,0.4,1.2,0.9,1.7c0.5,0.4,1.2,0.6,1.9,0.6c0.9,0,1.7-0.3,2.2-0.9l0.8,0.9
	c-0.4,0.4-0.8,0.7-1.3,0.9c-0.5,0.2-1.1,0.3-1.7,0.3c-0.8,0-1.5-0.2-2.2-0.5c-0.6-0.3-1.1-0.8-1.5-1.4c-0.3-0.6-0.5-1.3-0.5-2
	c0-0.8,0.2-1.4,0.5-2c0.3-0.6,0.8-1.1,1.4-1.4c0.6-0.3,1.3-0.5,2-0.5c0.7,0,1.4,0.2,2,0.5c0.6,0.3,1,0.8,1.4,1.4
	C76.5,130.6,76.6,131.3,76.6,132.1z M72.8,129.3c-0.7,0-1.2,0.2-1.7,0.6c-0.4,0.4-0.7,0.9-0.8,1.6h5c-0.1-0.7-0.3-1.2-0.8-1.6
	C74,129.5,73.5,129.3,72.8,129.3z M82.7,128.1c1,0,1.8,0.3,2.3,0.9c0.6,0.6,0.9,1.4,0.9,2.5v4.5h-1.4v-4.3c0-0.8-0.2-1.3-0.5-1.7
	c-0.4-0.4-0.9-0.6-1.5-0.6c-0.8,0-1.4,0.2-1.8,0.7c-0.4,0.4-0.7,1.1-0.7,1.9v4h-1.4v-7.7h1.3v1.2c0.3-0.4,0.7-0.7,1.1-0.9
	C81.5,128.2,82.1,128.1,82.7,128.1z M91.9,136c-0.8,0-1.5-0.2-2.1-0.5c-0.6-0.3-1.1-0.8-1.4-1.4c-0.4-0.6-0.5-1.3-0.5-2
	c0-0.8,0.2-1.4,0.5-2c0.4-0.6,0.8-1.1,1.4-1.4c0.6-0.3,1.3-0.5,2.1-0.5c0.7,0,1.3,0.1,1.9,0.4c0.6,0.3,1,0.7,1.3,1.2l-1.1,0.7
	c-0.2-0.4-0.5-0.6-0.9-0.8c-0.4-0.2-0.8-0.3-1.2-0.3c-0.5,0-1,0.1-1.4,0.3c-0.4,0.2-0.7,0.5-0.9,1c-0.2,0.4-0.3,0.9-0.3,1.4
	c0,0.5,0.1,1,0.3,1.4c0.2,0.4,0.6,0.7,0.9,0.9c0.4,0.2,0.9,0.3,1.4,0.3c0.4,0,0.8-0.1,1.2-0.3c0.4-0.2,0.7-0.5,0.9-0.8l1.1,0.7
	c-0.3,0.5-0.7,0.9-1.3,1.2C93.2,135.8,92.6,136,91.9,136z M103.8,132.1c0,0.1,0,0.2,0,0.4h-6.3c0.1,0.7,0.4,1.2,0.9,1.7
	c0.5,0.4,1.2,0.6,1.9,0.6c0.9,0,1.7-0.3,2.2-0.9l0.8,0.9c-0.4,0.4-0.8,0.7-1.3,0.9c-0.5,0.2-1.1,0.3-1.7,0.3c-0.8,0-1.5-0.2-2.2-0.5
	c-0.6-0.3-1.1-0.8-1.5-1.4c-0.3-0.6-0.5-1.3-0.5-2c0-0.8,0.2-1.4,0.5-2c0.3-0.6,0.8-1.1,1.4-1.4c0.6-0.3,1.3-0.5,2-0.5
	c0.7,0,1.4,0.2,2,0.5c0.6,0.3,1,0.8,1.4,1.4C103.6,130.6,103.8,131.3,103.8,132.1z M100,129.3c-0.7,0-1.2,0.2-1.7,0.6
	c-0.4,0.4-0.7,0.9-0.8,1.6h5c-0.1-0.7-0.3-1.2-0.8-1.6C101.2,129.5,100.6,129.3,100,129.3z"/>
<path class="st1" d="M87.2,44.8c0-5.1-1.3-10.1-3.8-14.4c0.7-0.7,1.2-1.7,1.2-2.9c0-2.3-1.8-4.1-4.1-4.1s-4.1,1.8-4.1,4.1
	s1.8,4.1,4.1,4.1c0.7,0,1.5-0.2,2.1-0.5c2.3,4.1,3.5,8.9,3.5,13.7c0,9-4.4,17.6-11.5,22.9c-0.7-0.8-1.9-1.5-3.2-1.5
	c-2.3,0-4.1,1.8-4.1,4.1c0,2.3,1.8,4.1,4.1,4.1s4.1-1.8,4.1-4.1c0-0.6-0.1-1.2-0.4-1.7C82.7,63.1,87.2,54.2,87.2,44.8z M77.5,27.4
	c0-1.6,1.3-2.9,2.9-2.9c1.6,0,2.9,1.3,2.9,2.9c0,1.6-1.3,2.9-2.9,2.9C78.9,30.3,77.5,29.1,77.5,27.4z M71.3,73.4
	c-1.6,0-2.9-1.3-2.9-2.9c0-1.6,1.3-2.9,2.9-2.9c1.6,0,2.9,1.3,2.9,2.9C74.3,72.1,72.9,73.4,71.3,73.4z"/>
<path class="st1" d="M77.8,44.8c0-11.3-9.1-20.4-20.4-20.4c-6.7,0-12.9,3.3-16.6,8.6c-0.5-0.2-1-0.2-1.6-0.2c-2.3,0-4.1,1.8-4.1,4.1
	c0,2.3,1.8,4.1,4.1,4.1c2.3,0,4.1-1.8,4.1-4.1c0-1.3-0.6-2.4-1.6-3.3c3.6-5,9.3-8,15.5-8c10.6,0,19.2,8.6,19.2,19.2
	s-8.6,19.2-19.2,19.2c-7.3,0-13.9-4.1-17.1-10.7c1.6-0.6,2.7-2.1,2.7-3.9c0-2.3-1.8-4.1-4.1-4.1c-2.3,0-4.1,1.8-4.1,4.1
	c0,2.3,1.8,4.1,4.1,4.1c0.1,0,0.2,0,0.2,0c3.4,7,10.6,11.6,18.3,11.6C68.7,65.2,77.8,56.1,77.8,44.8z M42.2,36.9
	c0,1.6-1.3,2.9-2.9,2.9c-1.6,0-2.9-1.3-2.9-2.9c0-1.6,1.3-2.9,2.9-2.9C40.9,34,42.2,35.3,42.2,36.9z M35.8,49.4
	c0-1.6,1.3-2.9,2.9-2.9c1.6,0,2.9,1.3,2.9,2.9c0,1.6-1.3,2.9-2.9,2.9C37.1,52.3,35.8,51.1,35.8,49.4z"/>
<path class="st1" d="M35.1,17.2c2.3,0,4.1-1.8,4.1-4.1c0-0.6-0.1-1.1-0.4-1.6c5.6-3.2,12-4.9,18.6-4.9c13.7,0,26.4,7.4,33.2,19.4
	c-1,0.7-1.5,1.9-1.5,3.2c0,2.3,1.8,4.1,4.1,4.1c2.3,0,4.1-1.8,4.1-4.1c0-2.3-1.8-4.1-4.1-4.1c-0.6,0-1.1,0.1-1.6,0.4
	C84.7,13,71.6,5.4,57.4,5.4c-6.7,0-13.3,1.7-19.2,5c-0.7-1-1.9-1.6-3.2-1.6c-2.3,0-4.1,1.8-4.1,4.1C31,15.3,32.8,17.2,35.1,17.2z
	 M96.2,29.1c0,1.6-1.3,2.9-2.9,2.9c-1.6,0-2.9-1.3-2.9-2.9c0-1.6,1.3-2.9,2.9-2.9C94.9,26.2,96.2,27.6,96.2,29.1z M35.1,10.1
	c1.6,0,2.9,1.3,2.9,2.9c0,1.6-1.3,2.9-2.9,2.9s-2.9-1.3-2.9-2.9C32.2,11.4,33.5,10.1,35.1,10.1z"/>
<path class="st1" d="M63.3,39.1c2.3,0,4.1-1.8,4.1-4.1c0-2.3-1.8-4.1-4.1-4.1c-1.5,0-2.7,0.7-3.5,1.8c-0.8-0.1-1.7-0.2-2.5-0.2
	c-6.8,0-12.4,5.6-12.4,12.4s5.6,12.4,12.4,12.4c5.3,0,9.9-3.3,11.6-8.2H69c2.3,0,4.1-1.8,4.1-4.1c0-2.3-1.8-4.1-4.1-4.1
	c-2.3,0-4.1,1.8-4.1,4.1c0,1.8,1.2,3.4,2.8,3.9c-1.6,4.4-5.7,7.3-10.4,7.3c-6.2,0-11.2-5-11.2-11.2s5-11.2,11.2-11.2
	c0.7,0,1.3,0.1,1.9,0.2c-0.1,0.4-0.1,0.7-0.1,1.1C59.2,37.3,61.2,39.1,63.3,39.1z M66.2,44.8c0-1.6,1.3-2.9,2.9-2.9
	c1.6,0,2.9,1.3,2.9,2.9s-1.3,2.9-2.9,2.9C67.6,47.7,66.2,46.4,66.2,44.8z M63.3,32c1.6,0,2.9,1.3,2.9,2.9c0,1.6-1.3,2.9-2.9,2.9
	c-1.6,0-2.9-1.3-2.9-2.9C60.4,33.4,61.8,32,63.3,32z"/>
<path class="st1" d="M73,24.5c2.3,0,4.1-1.8,4.1-4.1s-1.8-4.1-4.1-4.1c-1.3,0-2.4,0.6-3.2,1.5c-3.9-1.8-8.1-2.7-12.5-2.7
	c-16.4,0-29.8,13.3-29.8,29.8c0,14.6,10.8,27,25,29.3c0.1,2.2,1.9,4,4.1,4c2.3,0,4.1-1.8,4.1-4.1c0-2.3-1.8-4.1-4.1-4.1
	c-1.9,0-3.5,1.3-4,3.2C39,71,28.8,58.8,28.8,45c0-15.8,12.9-28.6,28.6-28.6c4.1,0,8.1,0.8,11.8,2.5c-0.2,0.5-0.4,1.1-0.4,1.6
	C68.9,22.7,70.7,24.5,73,24.5z M56.8,71c1.6,0,2.9,1.3,2.9,2.9s-1.3,2.9-2.9,2.9c-1.6,0-2.9-1.3-2.9-2.9S55.2,71,56.8,71z M73,17.4
	c1.6,0,2.9,1.3,2.9,2.9c0,1.6-1.3,2.9-2.9,2.9s-2.9-1.3-2.9-2.9C70.1,18.7,71.5,17.4,73,17.4z"/>
<path class="st1" d="M100.3,41.3c0-2.3-1.8-4.1-4.1-4.1s-4.1,1.8-4.1,4.1c0,2.1,1.6,3.8,3.5,4.1C95.4,66.1,78.4,83,57.5,83
	c-2.1,0-4.2-0.2-6.3-0.5c0-0.1,0-0.4,0-0.5c0-2.3-1.8-4.1-4.1-4.1c-2.3,0-4.1,1.8-4.1,4.1c0,2.3,1.8,4.1,4.1,4.1
	c1.7,0,3.2-1,3.8-2.4c2.2,0.4,4.4,0.6,6.5,0.6c21.5,0,39-17.3,39.3-38.8C98.7,45,100.3,43.3,100.3,41.3z M47.1,84.8
	c-1.6,0-2.9-1.3-2.9-2.9c0-1.6,1.3-2.9,2.9-2.9c1.6,0,2.9,1.3,2.9,2.9C50,83.5,48.7,84.8,47.1,84.8z M96.1,44.2
	c-1.6,0-2.9-1.3-2.9-2.9c0-1.6,1.3-2.9,2.9-2.9c1.6,0,2.9,1.3,2.9,2.9C99,42.8,97.8,44.2,96.1,44.2z"/>
<path class="st1" d="M35.1,72.4c-1.1,0-1.9,0.4-2.7,1.1C24,66.2,19.3,55.8,19.3,44.8c0-6.9,1.8-13.6,5.3-19.4c0.5,0.1,1,0.2,1.5,0.2
	c2.3,0,4.1-1.8,4.1-4.1c0-2.3-1.8-4.1-4.1-4.1c-2.3,0-4.1,1.8-4.1,4.1c0,1.3,0.6,2.5,1.7,3.3c-3.5,6.1-5.5,13-5.5,20
	c0,11.4,5,22.2,13.5,29.6c-0.4,0.6-0.6,1.3-0.6,2.2c0,2.3,1.8,4.1,4.1,4.1c2.3,0,4.1-1.8,4.1-4.1C39.3,74.2,37.4,72.4,35.1,72.4z
	 M23.1,21.5c0-1.6,1.3-2.9,2.9-2.9c1.6,0,2.9,1.3,2.9,2.9c0,1.6-1.3,2.9-2.9,2.9C24.4,24.4,23.1,23.1,23.1,21.5z M35.1,79.6
	c-1.6,0-2.9-1.3-2.9-2.9c0-1.6,1.3-2.9,2.9-2.9c1.6,0,2.9,1.3,2.9,2.9C38,78.3,36.7,79.6,35.1,79.6z"/>
</svg>
