<?xml version="1.0" encoding="utf-8"?>
<!-- Generator: Adobe Illustrator 19.2.0, SVG Export Plug-In . SVG Version: 6.00 Build 0)  -->
<svg version="1.1" id="Layer_1" xmlns="http://www.w3.org/2000/svg" xmlns:xlink="http://www.w3.org/1999/xlink" x="0px" y="0px"
	 viewBox="0 0 120 120" style="enable-background:new 0 0 120 120;" xml:space="preserve">
<style type="text/css">
	.st0{fill:#FFF200;stroke:#020202;stroke-width:5;stroke-linecap:round;stroke-linejoin:round;stroke-miterlimit:10;}
	.st1{fill:none;stroke:#020202;stroke-width:5;stroke-linecap:round;stroke-linejoin:round;stroke-miterlimit:10;}
	.st2{fill:none;stroke:#020202;stroke-width:5;stroke-linecap:round;stroke-linejoin:round;}
	.st3{fill:none;stroke:#020202;stroke-width:5;stroke-linecap:round;stroke-linejoin:round;stroke-dasharray:0.7668,9.2017;}
	.st4{fill:none;stroke:#020202;stroke-width:5;stroke-linecap:round;stroke-linejoin:round;stroke-dasharray:0.7895,9.4739;}
</style>
<g>
	<g>
		<path class="st0" d="M6.8,68.7v11.9c0,15.6,12.7,28.3,28.3,28.3h49.8c15.6,0,28.3-12.7,28.3-28.3V68.7H6.8z"/>
		<line class="st1" x1="20.9" y1="108.9" x2="15.8" y2="117.5"/>
		<line class="st1" x1="98.5" y1="108.9" x2="103.6" y2="117.5"/>
		<path class="st1" d="M113.2,68.7v-51c0-8.4-6.8-15.3-15.3-15.3h0c-8.4,0-15.3,6.8-15.3,15.3v0"/>
		<path class="st0" d="M93.2,28.8c-0.2-5.6-4.8-10.1-10.5-10.1c-5.7,0-10.3,4.5-10.5,10.1H93.2z"/>
		<g>
			<g>
				<g>
					<line class="st2" x1="81.8" y1="38.4" x2="81.8" y2="38.9"/>
					<line class="st3" x1="81.8" y1="48.1" x2="81.8" y2="53.5"/>
					<line class="st2" x1="81.8" y1="58.1" x2="81.8" y2="58.6"/>
				</g>
			</g>
			<g>
				<g>
					<line class="st2" x1="71.7" y1="38.4" x2="71.6" y2="38.9"/>
					<line class="st4" x1="69.4" y1="48.1" x2="68.1" y2="53.5"/>
					<line class="st2" x1="67" y1="58.1" x2="66.9" y2="58.6"/>
				</g>
			</g>
			<g>
				<g>
					<line class="st2" x1="91.9" y1="38.4" x2="92" y2="38.9"/>
					<line class="st4" x1="94.2" y1="48.1" x2="95.5" y2="53.5"/>
					<line class="st2" x1="96.6" y1="58.1" x2="96.7" y2="58.6"/>
				</g>
			</g>
		</g>
	</g>
	<line class="st1" x1="6.8" y1="79.4" x2="111.6" y2="79.4"/>
</g>
</svg>
