<?xml version="1.0" encoding="utf-8"?>
<!-- Generator: Adobe Illustrator 19.2.0, SVG Export Plug-In . SVG Version: 6.00 Build 0)  -->
<svg version="1.1" id="Layer_1" xmlns="http://www.w3.org/2000/svg" xmlns:xlink="http://www.w3.org/1999/xlink" x="0px" y="0px"
	 viewBox="0 0 120 120" style="enable-background:new 0 0 120 120;" xml:space="preserve">
<style type="text/css">
	.st0{fill:none;stroke:#020202;stroke-width:5;stroke-linecap:round;stroke-linejoin:round;stroke-miterlimit:10;}
	.st1{fill:#FFFFFF;stroke:#020202;stroke-width:5;stroke-linecap:round;stroke-linejoin:round;stroke-miterlimit:10;}
</style>
<polyline class="st0" points="11.8,50.5 11.8,11.2 108.2,11.2 108.2,50.5 "/>
<g>
	<polyline class="st1" points="26.3,48.4 26.3,32.1 39.3,34.9 53,32.1 53,48.4 	"/>
	<polyline class="st1" points="67,48.4 67,32.1 80.3,34.9 93.7,32.1 93.7,48.4 	"/>
</g>
<path class="st0" d="M2.5,97.9V65.8c0-9.4,7.6-17,17-17h81c9.4,0,17,7.6,17,17v32.1H2.5z"/>
<line class="st0" x1="2.5" y1="72.1" x2="117.5" y2="72.1"/>
<line class="st0" x1="2.5" y1="97.9" x2="2.5" y2="108.8"/>
<line class="st0" x1="117.5" y1="97.9" x2="117.5" y2="108.8"/>
</svg>
