<?xml version="1.0" encoding="utf-8"?>
<!-- Generator: Adobe Illustrator 19.2.0, SVG Export Plug-In . SVG Version: 6.00 Build 0)  -->
<svg version="1.1" id="Layer_1" xmlns="http://www.w3.org/2000/svg" xmlns:xlink="http://www.w3.org/1999/xlink" x="0px" y="0px"
	 viewBox="0 0 120 120" style="enable-background:new 0 0 120 120;" xml:space="preserve">
<style type="text/css">
	.st0{fill:none;stroke:#020202;stroke-width:5;stroke-linecap:round;stroke-linejoin:round;stroke-miterlimit:10;}
</style>
<path class="st0" d="M53.8,101.9c0,7.3-5.9,13.2-13.2,13.2s-13.2-5.9-13.2-13.2"/>
<path class="st0" d="M55.8,62.9H25.2V50.4c0-8.4,6.8-15.3,15.3-15.3l0,0c8.4,0,15.3,6.8,15.3,15.3V62.9z"/>
<path class="st0" d="M74.3,101.9H6.8c-3.7,0-5.9-4.2-3.8-7.3l22.3-31.7h30.6l22.3,31.7C80.2,97.7,78,101.9,74.3,101.9z"/>
<path class="st0" d="M117.9,79.7L117.9,79.7c-12.6,0-22.8-10.2-22.8-22.8v-9.7c0-12.6,10.2-22.8,22.8-22.8l0,0
	C117.9,24.4,117.9,79.7,117.9,79.7z"/>
<path class="st0" d="M40.2,32.3c0-15.1,12.4-27.5,27.5-27.5l0,0c15.1,0,27.5,12.4,27.5,27.5v12.8"/>
</svg>
