<?xml version="1.0" encoding="utf-8"?>
<!-- Generator: Adobe Illustrator 19.2.0, SVG Export Plug-In . SVG Version: 6.00 Build 0)  -->
<svg version="1.1" id="Layer_1" xmlns="http://www.w3.org/2000/svg" xmlns:xlink="http://www.w3.org/1999/xlink" x="0px" y="0px"
	 viewBox="0 0 120 120" style="enable-background:new 0 0 120 120;" xml:space="preserve">
<style type="text/css">
	.st0{fill:none;stroke:#020202;stroke-width:5;stroke-linecap:round;stroke-linejoin:round;stroke-miterlimit:10;}
</style>
<line class="st0" x1="42.6" y1="93.4" x2="76.9" y2="93.4"/>
<line class="st0" x1="42.6" y1="109.5" x2="76.9" y2="109.5"/>
<line class="st0" x1="49.2" y1="117.5" x2="70.2" y2="117.5"/>
<path class="st0" d="M94.9,37.4c0-20-16.8-36.1-37.1-34.8C40,3.7,25.7,18.4,25.1,36.3c-0.3,9.2,3,17.6,8.5,24
	c4,4.7,6.5,10.5,6.5,16.7v1.4c0,3.9,3.1,7,7,7h25.8c3.9,0,7-3.1,7-7v-0.7c0-6.3,2.2-12.4,6.3-17.1C91.6,54.3,94.9,46.2,94.9,37.4z"
	/>
<line class="st0" x1="42.6" y1="101.5" x2="76.9" y2="101.5"/>
</svg>
