<svg width="70" height="70" viewBox="0 0 70 70" fill="none" xmlns="http://www.w3.org/2000/svg">
<path fill-rule="evenodd" clip-rule="evenodd" d="M23.3335 23.3333C24.9443 23.3333 26.2502 22.0274 26.2502 20.4166V17.4999H43.7502V20.4166C43.7502 22.0274 45.056 23.3333 46.6668 23.3333C48.2777 23.3333 49.5835 22.0274 49.5835 20.4166V17.4999H58.3335V26.2499H11.6668V17.4999H20.4168V20.4166C20.4168 22.0274 21.7227 23.3333 23.3335 23.3333ZM11.6668 32.0833H58.3335V58.3332H11.6668V32.0833ZM64.1668 29.1666V17.4999C64.1668 14.2783 61.5552 11.6666 58.3335 11.6666H49.5835V8.74992C49.5835 7.13909 48.2777 5.83325 46.6668 5.83325C45.056 5.83325 43.7502 7.13909 43.7502 8.74992V11.6666H26.2502V8.74992C26.2502 7.13909 24.9443 5.83325 23.3335 5.83325C21.7227 5.83325 20.4168 7.13909 20.4168 8.74992V11.6666H11.6668C8.44517 11.6666 5.8335 14.2783 5.8335 17.4999V29.1666V58.3333C5.8335 61.5549 8.44517 64.1666 11.6668 64.1666H58.3335C61.5552 64.1666 64.1668 61.5549 64.1668 58.3333V29.1666Z" fill="url(#paint0_linear)"/>
<defs>
<linearGradient id="paint0_linear" x1="-1.52123" y1="35.1446" x2="35.1449" y2="71.8108" gradientUnits="userSpaceOnUse">
<stop stop-color="#20D0EE"/>
<stop offset="0.981733" stop-color="#15E186"/>
</linearGradient>
</defs>
</svg>
