<svg width="70" height="70" viewBox="0 0 70 70" fill="none" xmlns="http://www.w3.org/2000/svg">
<path fill-rule="evenodd" clip-rule="evenodd" d="M62.0982 28.4247L65.0047 27.1302V26.1893H61.1673L62.0982 28.4247ZM22.4723 37.8584L13.9564 36.3303C12.3244 36.0386 10.8241 37.2931 10.8241 38.9511V40.4793C10.8241 41.9496 12.0167 43.1402 13.487 43.1402H22.0029C23.4731 43.1402 24.6637 41.9496 24.6637 40.4793C24.6637 39.1889 23.7408 38.0862 22.4723 37.8584ZM54.663 36.3311L46.1472 37.8593C44.8787 38.085 43.9538 39.1897 43.9538 40.4781C43.9538 41.9484 45.1464 43.141 46.6166 43.141H55.1325C56.6027 43.141 57.7953 41.9484 57.7953 40.4781V38.952C57.7953 37.2939 56.2951 36.0374 54.663 36.3311ZM60.592 57.8597H54.6311C54.5152 57.8597 54.4213 57.7658 54.4213 57.6499V51.2795H60.8018V57.6499C60.8018 57.7658 60.7079 57.8597 60.592 57.8597V57.8597ZM13.482 57.2264C13.482 57.3423 13.3881 57.4362 13.2742 57.4362H8.37003C8.25617 57.4362 8.16228 57.3423 8.16228 57.2264V51.2795H13.482V57.2264ZM3.99524 26.1893H7.57898L6.70203 28.3368L3.99524 27.1302V26.1893ZM15.134 18.2467C16.8919 15.3901 20.0502 13.6202 23.4102 13.6202H45.2542C48.6043 13.6202 51.7585 15.3822 53.5204 18.2268L57.3359 27.3819H11.4065L15.134 18.2467ZM16.011 47.2842C15.8392 47.2343 15.6674 47.1764 15.4796 47.1764C15.2918 47.1764 15.12 47.2343 14.9482 47.2842H8.16228V37.3081C8.16228 35.2286 8.71163 33.191 9.72243 31.3771H59.0119C59.0318 31.4131 59.0458 31.4491 59.0658 31.485C60.2024 33.3788 60.8017 35.5462 60.8017 37.7496V47.2842H16.011ZM65.3443 22.1941H59.5013L57.1481 16.5508C57.1121 16.4609 57.0682 16.375 57.0182 16.2911C54.5572 12.18 50.0485 9.625 45.2542 9.625H23.4102C18.6019 9.625 14.0873 12.1919 11.6262 16.323C11.5762 16.4089 11.5303 16.4988 11.4943 16.5907L9.20906 22.1941H3.65566C1.64005 22.1941 0 23.8361 0 25.8517V27.3499C0 28.7922 0.850989 30.1027 2.16742 30.69L5.09994 31.9984C4.50664 33.7024 4.16705 35.4903 4.16705 37.3081V57.2264C4.16705 59.5457 6.05281 61.4314 8.37005 61.4314H13.2742C15.5915 61.4314 17.4772 59.5457 17.4772 57.2264V51.2795H50.4261V57.6499C50.4261 59.9672 52.3118 61.8549 54.6311 61.8549H60.592C62.9092 61.8549 64.797 59.9672 64.797 57.6499V50.1389C64.9228 49.8772 65.0067 49.5915 65.0067 49.2819C65.0067 48.9702 64.9228 48.6866 64.797 48.4229V37.7496C64.797 35.7999 64.4154 33.8842 63.7363 32.0703L66.8326 30.69C68.149 30.1027 69 28.7922 69 27.3499V25.8517C69 23.8361 67.36 22.1941 65.3443 22.1941V22.1941Z" fill="url(#paint0_linear)"/>
<defs>
<linearGradient id="paint0_linear" x1="-8.69959" y1="35.8695" x2="22.8973" y2="77.6116" gradientUnits="userSpaceOnUse">
<stop stop-color="#20D0EE"/>
<stop offset="0.981733" stop-color="#15E186"/>
</linearGradient>
</defs>
</svg>
