<?xml version="1.0" encoding="utf-8"?>
<!-- Generator: Adobe Illustrator 19.2.0, SVG Export Plug-In . SVG Version: 6.00 Build 0)  -->
<svg version="1.1" id="Layer_1" xmlns="http://www.w3.org/2000/svg" xmlns:xlink="http://www.w3.org/1999/xlink" x="0px" y="0px"
	 viewBox="0 0 120 120" style="enable-background:new 0 0 120 120;" xml:space="preserve">
<style type="text/css">
	.st0{fill:#FFF200;stroke:#020202;stroke-width:5;stroke-linecap:round;stroke-linejoin:round;stroke-miterlimit:10;}
	.st1{fill:none;stroke:#020202;stroke-width:5;stroke-linecap:round;stroke-linejoin:round;stroke-miterlimit:10;}
</style>
<g>
	<path class="st0" d="M77.8,40.2C77.8,50,69.9,58,60,58s-17.8-8-17.8-17.8l-0.1-7.5c-7.3,0.9-13.8,7.3-19.7,11.4L4.6,56.7l9,20.1
		l17.9-11.4v52h57.1v-52l17.9,11.4l9-20.1L97.6,44.1C91.7,39.9,85.1,33.7,78,32.9L77.8,40.2z"/>
	<polyline class="st1" points="42.1,35.6 60,28.4 78,35.8 	"/>
	<path class="st1" d="M60,28.4v-5.7c0,0-7.6-8.1-7.6-12.4s3.5-7.8,7.8-7.8c2.7,0,5,1.4,6.4,3.4"/>
	<line class="st1" x1="43.5" y1="47.6" x2="76.4" y2="47.6"/>
</g>
</svg>
