<svg width="70" height="70" viewBox="0 0 70 70" fill="none" xmlns="http://www.w3.org/2000/svg">
<path fill-rule="evenodd" clip-rule="evenodd" d="M9.4466 60.7685L11.3932 49.9017C7.75221 45.1566 5.8335 39.567 5.8335 33.6709C5.8335 18.3213 19.1404 5.83325 35.498 5.83325C51.8533 5.83325 65.1602 18.3213 65.1602 33.6709C65.1602 49.0188 51.8541 61.5051 35.498 61.5051C31.9875 61.5051 26.2163 60.5262 22.666 59.3585L12.0534 63.1431C11.8426 63.2183 11.6262 63.255 11.4107 63.255C10.9366 63.255 10.4696 63.0779 10.1013 62.7422C9.56354 62.2527 9.31535 61.5018 9.4466 60.7685ZM15.1155 56.9175L24.0403 53.7348L24.8467 54C27.7883 54.9675 32.6656 55.787 35.4979 55.787C48.689 55.787 59.311 45.8195 59.311 33.7403C59.311 21.6597 48.6884 11.6906 35.4979 11.6906C22.3055 11.6906 11.6827 21.6594 11.6827 33.7403C11.6827 38.3535 13.1811 42.7256 16.0555 46.4717L16.8104 47.4556L15.1155 56.9175ZM46.6668 37.9166C45.056 37.9166 43.7502 36.6107 43.7502 34.9999C43.7502 33.3891 45.056 32.0833 46.6668 32.0833C48.2777 32.0833 49.5835 33.3891 49.5835 34.9999C49.5835 36.6107 48.2777 37.9166 46.6668 37.9166ZM35.0002 37.9166C33.3893 37.9166 32.0835 36.6107 32.0835 34.9999C32.0835 33.3891 33.3893 32.0833 35.0002 32.0833C36.611 32.0833 37.9168 33.3891 37.9168 34.9999C37.9168 36.6107 36.611 37.9166 35.0002 37.9166ZM20.4168 34.9999C20.4168 36.6107 21.7227 37.9166 23.3335 37.9166C24.9443 37.9166 26.2502 36.6107 26.2502 34.9999C26.2502 33.3891 24.9443 32.0833 23.3335 32.0833C21.7227 32.0833 20.4168 33.3891 20.4168 34.9999Z" fill="url(#paint0_linear)"/>
<defs>
<linearGradient id="paint0_linear" x1="-1.64647" y1="34.6866" x2="34.4275" y2="71.9572" gradientUnits="userSpaceOnUse">
<stop stop-color="#20D0EE"/>
<stop offset="0.981733" stop-color="#15E186"/>
</linearGradient>
</defs>
</svg>
