<svg width="70" height="70" viewBox="0 0 70 70" fill="none" xmlns="http://www.w3.org/2000/svg">
<path fill-rule="evenodd" clip-rule="evenodd" d="M10.6823 56.4701V39.7909C12.6909 41.3453 15.079 42.3768 17.6798 42.6636C18.0344 44.747 19.7459 46.336 21.8101 46.336H24.1771C26.2145 46.336 27.9145 44.7897 28.2997 42.7471H40.7461C41.1314 44.7897 42.8314 46.336 44.8687 46.336H47.2358C49.3018 46.336 51.0153 44.743 51.3679 42.6555C53.9477 42.3625 56.3204 41.3371 58.3175 39.7909V56.4701H10.6823ZM24.5489 37.1439V41.8702C24.5489 42.0818 24.3764 42.2669 24.1771 42.2669H21.8101C21.607 42.2669 21.4364 42.0858 21.4364 41.8702V37.1439C21.4364 36.9303 21.607 36.7492 21.8101 36.7492H24.1771C24.3764 36.7492 24.5489 36.9323 24.5489 37.1439V37.1439ZM47.6095 37.1439V41.8702C47.6095 42.0858 47.4389 42.2669 47.2357 42.2669H44.8687C44.6656 42.2669 44.4969 42.0858 44.4969 41.8702V37.1439C44.4969 36.9303 44.6656 36.7492 44.8687 36.7492H47.2357C47.4389 36.7492 47.6095 36.9303 47.6095 37.1439V37.1439ZM8.54147 16.6947H60.4584V27.3801C60.4584 33.0219 56.5389 37.6973 51.4427 38.5315V37.1439C51.4427 34.6841 49.5548 32.6801 47.2358 32.6801H44.8687C42.5497 32.6801 40.6637 34.6841 40.6637 37.1439V38.678H28.3821V37.1439C28.3821 34.6841 26.4962 32.6801 24.1771 32.6801H21.8101C19.491 32.6801 17.6032 34.6841 17.6032 37.1439V38.5396C12.4839 37.7258 8.54147 33.0402 8.54147 27.3801V16.6947ZM27.3625 11.0366C27.3625 9.33167 28.6696 7.94411 30.2777 7.94411H37.3806C38.9867 7.94411 40.2919 9.33167 40.2919 11.0366V12.6256H27.3625V11.0366ZM64.2916 12.6256H44.1251V11.0366C44.1251 7.08755 41.0988 3.875 37.3806 3.875H30.2776C26.5556 3.875 23.5293 7.08755 23.5293 11.0366V12.6256H4.70825V27.3801C4.70825 30.3139 5.49981 33.0484 6.8491 35.382V60.5392H62.1507V35.382C63.4981 33.0484 64.2916 30.3139 64.2916 27.3801V12.6256Z" fill="url(#paint0_linear)"/>
<defs>
<linearGradient id="paint0_linear" x1="-2.80407" y1="32.3477" x2="32.768" y2="69.7523" gradientUnits="userSpaceOnUse">
<stop stop-color="#20D0EE"/>
<stop offset="0.981733" stop-color="#15E186"/>
</linearGradient>
</defs>
</svg>
