<?xml version="1.0" encoding="utf-8"?>
<!-- Generator: Adobe Illustrator 19.2.0, SVG Export Plug-In . SVG Version: 6.00 Build 0)  -->
<svg version="1.1" id="Layer_1" xmlns="http://www.w3.org/2000/svg" xmlns:xlink="http://www.w3.org/1999/xlink" x="0px" y="0px"
	 viewBox="0 0 120 120" style="enable-background:new 0 0 120 120;" xml:space="preserve">
<style type="text/css">
	.st0{fill:none;stroke:#020202;stroke-width:5;stroke-linecap:round;stroke-linejoin:round;stroke-miterlimit:10;}
	.st1{fill:#020202;}
</style>
<path class="st0" d="M81.7,83.2H7.4c-2.7,0-4.9-2.2-4.9-4.9V21.9c0-2.7,2.2-4.9,4.9-4.9h81.1c2.7,0,4.9,2.2,4.9,4.9v9.3"/>
<line class="st0" x1="3.1" y1="69.7" x2="82.2" y2="69.7"/>
<line class="st0" x1="27.5" y1="103" x2="68.4" y2="103"/>
<g>
	<line class="st0" x1="35.6" y1="103" x2="40.4" y2="83.6"/>
	<line class="st0" x1="60.3" y1="103" x2="55.5" y2="83.6"/>
</g>
<path class="st0" d="M114.5,103H85.3c-1.7,0-3-1.4-3-3V34.3c0-1.7,1.3-3,3-3h29.2c1.7,0,3,1.3,3,3V100
	C117.5,101.6,116.2,103,114.5,103z"/>
<line class="st0" x1="91.7" y1="43.7" x2="108" y2="43.7"/>
<line class="st0" x1="91.7" y1="52" x2="108" y2="52"/>
<circle class="st1" cx="99.9" cy="86.8" r="3.3"/>
</svg>
