<?xml version="1.0" encoding="utf-8"?>
<!-- Generator: Adobe Illustrator 19.2.0, SVG Export Plug-In . SVG Version: 6.00 Build 0)  -->
<svg version="1.1" id="Layer_1" xmlns="http://www.w3.org/2000/svg" xmlns:xlink="http://www.w3.org/1999/xlink" x="0px" y="0px"
	 viewBox="0 0 120 120" style="enable-background:new 0 0 120 120;" xml:space="preserve">
<style type="text/css">
	.st0{fill:#FFF200;stroke:#020202;stroke-width:5;stroke-linecap:round;stroke-linejoin:round;stroke-miterlimit:10;}
	.st1{fill:#FFFFFF;stroke:#020202;stroke-width:5;stroke-linecap:round;stroke-linejoin:round;stroke-miterlimit:10;}
	.st2{fill:#020202;}
	.st3{fill:none;stroke:#020202;stroke-width:5;stroke-linecap:round;stroke-linejoin:round;stroke-miterlimit:10;}
</style>
<g>
	<path class="st0" d="M49.7,116.5H21.9c-6.3,0-11.4-5.1-11.4-11.4V14.8c0-6.3,5.1-11.4,11.4-11.4h27.9c6.3,0,11.4,5.1,11.4,11.4
		v90.3C61.1,111.4,56,116.5,49.7,116.5z"/>
	<g>
		<circle class="st1" cx="35.8" cy="36.2" r="16"/>
		<circle class="st1" cx="35.8" cy="83.8" r="16"/>
	</g>
	<g>
		<circle class="st2" cx="35.8" cy="29.9" r="2.8"/>
		<circle class="st2" cx="35.8" cy="42.5" r="2.8"/>
	</g>
	<g>
		<circle class="st2" cx="35.8" cy="77.3" r="2.8"/>
		<circle class="st2" cx="35.8" cy="89.9" r="2.8"/>
	</g>
	<path class="st3" d="M61.1,107.5h10.2c7,0,12.7-5.7,12.7-12.7V21.2c0-7,5.7-12.7,12.7-12.7h0c7,0,12.7,5.7,12.7,12.7v42.9"/>
</g>
</svg>
