<?xml version="1.0" encoding="utf-8"?>
<!-- Generator: Adobe Illustrator 19.2.0, SVG Export Plug-In . SVG Version: 6.00 Build 0)  -->
<svg version="1.1" id="Layer_1" xmlns="http://www.w3.org/2000/svg" xmlns:xlink="http://www.w3.org/1999/xlink" x="0px" y="0px"
	 viewBox="0 0 120 120" style="enable-background:new 0 0 120 120;" xml:space="preserve">
<style type="text/css">
	.st0{fill:none;stroke:#020202;stroke-width:5;stroke-linecap:round;stroke-linejoin:round;stroke-miterlimit:10;}
	.st1{fill:#FFFFFF;stroke:#020202;stroke-width:5;stroke-linecap:round;stroke-linejoin:round;stroke-miterlimit:10;}
</style>
<path class="st0" d="M96.7,36c4.1,4.1,4.1,10.7,0,14.8s-10.7,4.1-14.8,0"/>
<path class="st0" d="M76,13.1l-17.1,17l-7-7c-4.7-4.7-4.7-12.4,0-17.1l0,0C56.6,1.3,64.3,1.3,69,6L76,13.1z"/>
<path class="st0" d="M108.1,24.5L70.4,62.3c-2.1,2.1-5.7,1-6.2-2l-5.3-30.2l17.1-17l30.2,5.3C109.1,18.9,110.2,22.4,108.1,24.5z"/>
<line class="st0" x1="51.9" y1="23.1" x2="21" y2="54.1"/>
<circle class="st0" cx="16.8" cy="59.2" r="6.1"/>
<line class="st0" x1="21.6" y1="63.6" x2="58.7" y2="103.7"/>
<path class="st1" d="M86.6,117.5H29.5v-2.1c0-6.2,5-11.2,11.2-11.2h34.6c6.2,0,11.2,5,11.2,11.2L86.6,117.5L86.6,117.5z"/>
</svg>
