<?xml version="1.0" encoding="utf-8"?>
<!-- Generator: Adobe Illustrator 19.2.0, SVG Export Plug-In . SVG Version: 6.00 Build 0)  -->
<svg version="1.1" id="Layer_1" xmlns="http://www.w3.org/2000/svg" xmlns:xlink="http://www.w3.org/1999/xlink" x="0px" y="0px"
	 viewBox="0 0 120 120" style="enable-background:new 0 0 120 120;" xml:space="preserve">
<style type="text/css">
	.st0{fill:none;stroke:#020202;stroke-width:5;stroke-linecap:round;stroke-linejoin:round;stroke-miterlimit:10;}
</style>
<g>
	<circle class="st0" cx="60" cy="49.9" r="47.4"/>
</g>
<path class="st0" d="M70,98.5l13.4,15.4c0.9,1.6-0.2,3.6-2.1,3.6h-42c-1.8,0-3-2-2.1-3.6l13.4-15.4"/>
<circle class="st0" cx="59.8" cy="50.2" r="8.2"/>
<path class="st0" d="M54.7,42.8c-5-2.9-8.6-9.6-8.6-15.8c0-8.2,6.1-11.3,13.7-11.3S73.5,18.8,73.5,27c0,6.3-3.7,13.2-8.8,15.9"/>
<path class="st0" d="M55.2,58.7c0,5.8-4,12.2-9.4,15.4c-7.1,4.1-12.9,0.3-16.6-6.2c-3.8-6.5-4.2-13.4,2.9-17.5
	c5.5-3.2,13.2-3.4,18.2-0.3"/>
<path class="st0" d="M64.8,58.7c0,5.8,4,12.2,9.4,15.4c7.1,4.1,12.9,0.3,16.6-6.2c3.8-6.5,4.2-13.4-2.9-17.5
	C82.4,47.2,74.7,47,69.7,50"/>
</svg>
