<svg width="70" height="70" viewBox="0 0 70 70" fill="none" xmlns="http://www.w3.org/2000/svg">
<path fill-rule="evenodd" clip-rule="evenodd" d="M18.2701 60.7389L34.5 51.9596L50.7299 60.7389C51.7845 61.3094 53.017 60.388 52.8156 59.1797L49.716 40.5849L62.8462 27.4159C63.6994 26.5602 63.2286 25.0694 62.0495 24.8931L43.904 22.1801L35.789 5.26198C35.2617 4.16267 33.7382 4.16267 33.2109 5.26198L25.096 22.1801L6.95038 24.8931C5.77131 25.0694 5.30052 26.5602 6.1537 27.4159L19.284 40.5849L16.1843 59.1797C15.9829 60.388 17.2155 61.3094 18.2701 60.7389ZM33.831 48.9794L19.5103 56.726L22.2453 40.3185C22.3253 39.8387 22.1707 39.3491 21.8319 39.0093L10.2462 27.3895L26.2572 24.9957C26.7254 24.9257 27.1302 24.6231 27.3396 24.1866L34.4999 9.2586L41.6603 24.1866C41.8697 24.6231 42.2744 24.9257 42.7426 24.9957L58.7537 27.3895L47.168 39.0093C46.8292 39.3491 46.6746 39.8387 46.7546 40.3185L49.4896 56.726L35.1689 48.9794C34.7501 48.7529 34.2498 48.7529 33.831 48.9794Z" fill="url(#paint0_linear)"/>
<defs>
<linearGradient id="paint0_linear" x1="-1.53969" y1="32.8149" x2="33.9516" y2="68.9908" gradientUnits="userSpaceOnUse">
<stop stop-color="#20D0EE"/>
<stop offset="0.981733" stop-color="#15E186"/>
</linearGradient>
</defs>
</svg>
