<?xml version="1.0" encoding="utf-8"?>
<!-- Generator: Adobe Illustrator 19.2.0, SVG Export Plug-In . SVG Version: 6.00 Build 0)  -->
<svg version="1.1" id="Layer_1" xmlns="http://www.w3.org/2000/svg" xmlns:xlink="http://www.w3.org/1999/xlink" x="0px" y="0px"
	 viewBox="0 0 75 72" style="enable-background:new 0 0 75 72;" xml:space="preserve">
<style type="text/css">
	.st0{fill:#FFE600;}
</style>
<circle class="st0" cx="31" cy="24.1" r="21"/>
<g>
	<path d="M27.9,47.9h5.4v1.7h-3.4v2h3.2v1.6h-3.2v3.6h-2V47.9z"/>
	<path d="M37.5,47.9v8.9h-2v-8.9H37.5z"/>
	<path d="M39.9,47.9h2v7.2h3.5v1.7h-5.6V47.9z"/>
	<path d="M52.6,53h-3.3v2.1H53v1.7h-5.7v-8.9h5.5v1.7h-3.5v1.9h3.3V53z"/>
</g>
<path d="M20.1,37.4c0-8.3,0-16.5,0-24.8c0-1.3,0.4-1.7,1.7-1.7c8.6,0,17.1,0,25.7,0c0.6,0,1.1,0.2,1.6,0.6
	c4.1,3.9,8.2,7.9,12.3,11.8c0.6,0.5,0.8,1.1,0.8,2c0,10.8,0,21.5,0,32.3c0,3.7-2.6,6.3-6.3,6.3c-11.4,0-22.7,0-34.1,0
	c-1.2,0-1.7-0.4-1.7-1.6C20.1,53.9,20.1,45.6,20.1,37.4z M22.6,61.3c0.3,0,0.5,0,0.7,0c10.8,0,21.6,0,32.5,0c2.4,0,3.9-1.5,3.9-3.9
	c0-10.3,0-20.7,0-31c0-0.2,0-0.4,0-0.6c-0.3,0-0.6,0-0.8,0c-2.2,0-4.4,0-6.6,0c-3.2,0-5.5-2.3-5.5-5.6c0-2,0-4,0-6.1
	c0-0.2,0-0.5,0-0.7c-8.1,0-16.1,0-24.1,0C22.6,29.4,22.6,45.3,22.6,61.3z M49.2,15.1c0,2-0.1,3.8,0,5.7c0.1,1.5,1.4,2.5,3,2.5
	c0.6,0,1.2,0,1.8,0c1.2,0,2.4,0,3.8,0C54.9,20.5,52.1,17.9,49.2,15.1z"/>
</svg>
