<?xml version="1.0" encoding="utf-8"?>
<!-- Generator: Adobe Illustrator 19.2.0, SVG Export Plug-In . SVG Version: 6.00 Build 0)  -->
<svg version="1.1" id="Layer_1" xmlns="http://www.w3.org/2000/svg" xmlns:xlink="http://www.w3.org/1999/xlink" x="0px" y="0px"
	 viewBox="0 0 120 120" style="enable-background:new 0 0 120 120;" xml:space="preserve">
<style type="text/css">
	.st0{fill:none;stroke:#020202;stroke-width:5;stroke-linecap:round;stroke-linejoin:round;stroke-miterlimit:10;}
</style>
<path class="st0" d="M37.7,117.5c0,0-29.9-16.4-23.1-43.6c3-12.1,14.5-27.6,13.2-38.5c7.2,4.2,8.4,13,8.4,13S55.7,30,51.1,2.5
	c21.7,5.6,31.9,36.3,30.1,53c7.4-15.9,6.4-25.5,3.6-31.9c18.9,13.6,26.7,39.9,18.1,61.9c-5.3,13.6-15.7,24.8-24.3,32
	c2.8-19.9,3.6-45-17.1-65.8c8.4,27.1-10,31.7-10,31.7s1.4-12.8-1.6-17.7C48.1,77.8,35.8,81.8,33,93.8
	C31.7,99.6,32.5,108.5,37.7,117.5z"/>
</svg>
