<?xml version="1.0" encoding="utf-8"?>
<!-- Generator: Adobe Illustrator 19.2.0, SVG Export Plug-In . SVG Version: 6.00 Build 0)  -->
<svg version="1.1" id="Layer_1" xmlns="http://www.w3.org/2000/svg" xmlns:xlink="http://www.w3.org/1999/xlink" x="0px" y="0px"
	 viewBox="0 0 120 120" style="enable-background:new 0 0 120 120;" xml:space="preserve">
<style type="text/css">
	.st0{fill:none;stroke:#020202;stroke-width:5;stroke-linecap:round;stroke-linejoin:round;stroke-miterlimit:10;}
	.st1{fill:#FFF200;stroke:#020202;stroke-width:5;stroke-linecap:round;stroke-linejoin:round;stroke-miterlimit:10;}
</style>
<g>
	<path class="st0" d="M23.2,62c3.4-3.4,9-3.4,12.4,0l0,0c3.4,3.4,9,3.4,12.4,0l0,0c3.4-3.4,9-3.4,12.4,0l0,0c3.4,3.4,9,3.4,12.4,0
		l0,0c3.4-3.4,9-3.4,12.4,0l0,0c3.4,3.4,9,3.4,12.4,0l0,0c3.4-3.4,9-3.4,12.4,0"/>
	<path class="st0" d="M23.2,97.7c3.4-3.4,9-3.4,12.4,0l0,0c3.4,3.4,9,3.4,12.4,0l0,0c3.4-3.4,9-3.4,12.4,0l0,0c3.4,3.4,9,3.4,12.4,0
		l0,0c3.4-3.4,9-3.4,12.4,0l0,0c3.4,3.4,9,3.4,12.4,0l0,0c3.4-3.4,9-3.4,12.4,0"/>
	<path class="st0" d="M34.7,114.9L34.7,114.9c3.4-3.4,9-3.4,12.4,0l0,0c3.4,3.4,9,3.4,12.4,0l0,0c3.4-3.4,9-3.4,12.4,0l0,0
		c3.4,3.4,9,3.4,12.4,0l0,0c3.4-3.4,9-3.4,12.4,0"/>
	<path class="st0" d="M10.1,80L10.1,80c3.4-3.4,9-3.4,12.4,0l0,0c6.4,5.4,12.2,0,12.2,0l0,0l0,0c3.4-3.4,9-3.4,12.4,0l0,0
		c3.4,3.4,9,3.4,12.4,0l0,0c3.4-3.4,9-3.4,12.4,0l0,0c3.4,3.4,9,3.4,12.4,0l0,0c3.4-3.4,9-3.4,12.4,0"/>
	<path class="st1" d="M75.7,31.6L75.7,31.6l0-0.1c-0.3-1.1-0.7-2.1-1.3-3.1L63.8,2.5l-9.1,26c-1,1.7-1.6,3.6-1.6,5.7
		c0,6.3,5.1,11.5,11.4,11.5c6.3,0,11.5-5.1,11.5-11.4C76.1,33.3,75.9,32.4,75.7,31.6z"/>
</g>
</svg>
