<?xml version="1.0" encoding="utf-8"?>
<!-- Generator: Adobe Illustrator 19.2.0, SVG Export Plug-In . SVG Version: 6.00 Build 0)  -->
<svg version="1.1" id="Layer_1" xmlns="http://www.w3.org/2000/svg" xmlns:xlink="http://www.w3.org/1999/xlink" x="0px" y="0px"
	 viewBox="0 0 120 120" style="enable-background:new 0 0 120 120;" xml:space="preserve">
<style type="text/css">
	.st0{fill:none;stroke:#020202;stroke-width:5;stroke-linecap:round;stroke-linejoin:round;stroke-miterlimit:10;}
	.st1{fill:#020202;}
</style>
<polyline class="st0" points="2.5,37.9 60.7,17.3 117.5,37.9 "/>
<path class="st0" d="M107.2,102.7V35.1c0-0.5-0.3-1-0.8-1.2L61.1,17.7c-0.3-0.1-0.6-0.1-0.8,0L13.6,33.6c-0.5,0.2-0.9,0.7-0.9,1.2
	v66.6"/>
<path class="st0" d="M42.1,92.9v5.8c0,1.4-1.1,2.5-2.5,2.5h-9.8c-1.4,0-2.5-1.1-2.5-2.5v-7"/>
<path class="st0" d="M93.3,91.7v7c0,1.4-1.1,2.5-2.5,2.5H81c-1.4,0-2.5-1.1-2.5-2.5v-6.2"/>
<path class="st0" d="M31.7,65.8c0,0,4.3-12.3,9.8-16.6c12.1-1.9,25.7-1.8,36.7-0.6c9.4,10.1,9.9,17.2,9.9,17.2"/>
<path class="st0" d="M31.6,66c0,0,7-2.2,28.6-2.2s28,2.2,28,2.2s8,3.1,7.1,14.1s-2,11.1-2,11.1h-13L74,94.4H46l-6-3.1H26.5
	c0,0-1.9-1.9-1.9-10.2S27.1,70,31.6,66z"/>
<path class="st1" d="M95,75.7H84.5c-1.5,0-2.8,0.6-3.8,1.7l-4.1,5.8c-0.4,0.4-0.1,1,0.5,1H95"/>
<path class="st1" d="M25.1,75.7h10.5c1.5,0,2.8,0.6,3.8,1.7l4.1,5.8c0.4,0.4,0.1,1-0.5,1H25.1"/>
<path class="st1" d="M48.3,78.5h24.4c1.7,0,2.6,1.9,1.5,3.2l-3.7,4.4c-0.4,0.4-0.9,0.7-1.5,0.7H51.7c-0.6,0-1.2-0.3-1.6-0.8
	l-3.3-4.4C45.8,80.3,46.7,78.5,48.3,78.5z"/>
</svg>
