<?xml version="1.0" encoding="utf-8"?>
<!-- Generator: Adobe Illustrator 19.2.0, SVG Export Plug-In . SVG Version: 6.00 Build 0)  -->
<svg version="1.1" id="Layer_1" xmlns="http://www.w3.org/2000/svg" xmlns:xlink="http://www.w3.org/1999/xlink" x="0px" y="0px"
	 viewBox="0 0 120 120" style="enable-background:new 0 0 120 120;" xml:space="preserve">
<style type="text/css">
	.st0{fill:none;stroke:#020202;stroke-width:5;stroke-linecap:round;stroke-linejoin:round;stroke-miterlimit:10;}
	.st1{fill:#FFF200;stroke:#020202;stroke-width:5;stroke-linecap:round;stroke-linejoin:round;stroke-miterlimit:10;}
</style>
<g>
	<g>
		<polyline class="st0" points="117.5,113.5 111.3,93.9 65.4,93.9 59.1,113.5 		"/>
		<polyline class="st0" points="82.8,113.5 76.4,93.9 79.9,74.5 115,74.5 111.3,93.9 		"/>
		<line class="st0" x1="99.9" y1="93.9" x2="93.6" y2="113.5"/>
		<line class="st0" x1="77.6" y1="87.3" x2="112.6" y2="87.3"/>
		<path class="st0" d="M82.9,19.4c2-0.2,8.7-0.4,12.1,6.6c3.5-6.1,11-6.1,13.4-5.3"/>
		<path class="st0" d="M32.2,66.7l-1.6,46.6H45l-2.5-44.4"/>
	</g>
	<path class="st1" d="M6.2,51C5.4,52.7,5,54.5,5,56.4c0,7.2,5.8,13,13,13c4,0,7.6-1.8,10-4.7c2.5,2.7,6.1,4.4,10.1,4.4
		c4,0,7.5-1.7,10.1-4.3c1.6,2.4,4.4,4.1,7.5,4.1c5,0,9-4,9-9c0-0.7-0.1-1.3-0.2-1.9c5.8-1,10.1-6.1,10.1-12.1
		c0-4.6-2.5-8.5-6.2-10.7c0.2-0.9,0.3-1.9,0.3-2.8c0-7.2-5.5-13.2-12.6-13.9c-1-6.7-6.8-11.9-13.8-11.9c-4.8,0-9,2.4-11.5,6.1
		c-0.8-1.1-2.1-1.9-3.6-1.9c-2.4,0-4.4,2-4.4,4.4c-1.1-0.3-2.3-0.5-3.5-0.5C12.6,14.5,7,20.1,7,26.9c0,2.8,0.9,5.4,2.5,7.4
		c-4.1,1.1-7.1,4.8-7.1,9.2C2.5,46.6,3.9,49.3,6.2,51z"/>
</g>
</svg>
