<?xml version="1.0" encoding="utf-8"?>
<!-- Generator: Adobe Illustrator 19.2.0, SVG Export Plug-In . SVG Version: 6.00 Build 0)  -->
<svg version="1.1" id="Layer_1" xmlns="http://www.w3.org/2000/svg" xmlns:xlink="http://www.w3.org/1999/xlink" x="0px" y="0px"
	 viewBox="0 0 120 120" style="enable-background:new 0 0 120 120;" xml:space="preserve">
<style type="text/css">
	.st0{fill:none;stroke:#020202;stroke-width:5;stroke-linecap:round;stroke-linejoin:round;stroke-miterlimit:10;}
	.st1{fill:#FFFFFF;stroke:#020202;stroke-width:5;stroke-linecap:round;stroke-linejoin:round;stroke-miterlimit:10;}
</style>
<path class="st0" d="M89.9,105.4H30.1c-7.3,0-13.2-5.9-13.2-13.2V15.7c0-7.3,5.9-13.2,13.2-13.2h59.8c7.3,0,13.2,5.9,13.2,13.2v76.5
	C103.1,99.5,97.1,105.4,89.9,105.4z"/>
<rect x="29.8" y="16.1" class="st1" width="60.4" height="43.2"/>
<circle class="st0" cx="60" cy="80.9" r="12"/>
<line class="st0" x1="60" y1="75" x2="60" y2="80.5"/>
<g>
	<line class="st0" x1="50.7" y1="105.7" x2="50.7" y2="117.5"/>
	<line class="st0" x1="69.3" y1="105.7" x2="69.3" y2="117.5"/>
</g>
<path class="st0" d="M54.8,51.6c-3.6,0.4-11.1-5.2-5.4-14.2c3.8-6.1,5.4-8.5,3.8-14.3c7.7,4.6,9.6,11.4,9.6,14.6
	c3.3-5.3,4.4-6.6,4.4-6.6s5.5,4.6,5.3,11.2c-0.2,6.7-5.9,8.8-7,9"/>
</svg>
