<?xml version="1.0" encoding="utf-8"?>
<!-- Generator: Adobe Illustrator 19.2.0, SVG Export Plug-In . SVG Version: 6.00 Build 0)  -->
<svg version="1.1" id="Layer_1" xmlns="http://www.w3.org/2000/svg" xmlns:xlink="http://www.w3.org/1999/xlink" x="0px" y="0px"
	 viewBox="0 0 120 120" style="enable-background:new 0 0 120 120;" xml:space="preserve">
<style type="text/css">
	.st0{fill:#FFF200;stroke:#020202;stroke-width:5;stroke-linecap:round;stroke-linejoin:round;stroke-miterlimit:10;}
</style>
<g id="surface1">
	<path class="st0" d="M84.6,109.7c2.2,0.3,4.4,0.3,6.6,0l4.8,7.6l7-2.9l-2.1-8.8c1.8-1.3,3.3-2.9,4.5-4.7l8.9,2.1l2.9-7l-7.8-5
		c0.3-2.1,0.3-4.3,0-6.5l7.8-4.8l-2.9-7l-9.1,2.1c-1.3-1.8-2.8-3.4-4.5-4.7L103,61l-7-2.8L91.1,66c-2.1-0.3-4.4-0.3-6.6,0l-5-7.8
		l-7,2.9l2.2,8.9c-1.8,1.3-3.4,2.8-4.7,4.5L61,72.8l-2.8,7l7.6,4.8c-0.3,2.2-0.3,4.4,0,6.6l-7.6,4.8l2.9,7l8.9-2.1
		c1.3,1.8,2.8,3.4,4.5,4.7l-1.9,8.8l7,2.9L84.6,109.7z M78,92c-2.3-5.4,0.3-11.7,5.7-13.9c5.4-2.3,11.7,0.3,13.9,5.7
		c2.3,5.4-0.3,11.5-5.7,13.8c-1.4,0.6-2.7,0.9-4.1,0.9C83.7,98.4,79.7,96,78,92z M47.3,82.2l2.1-11.7c2.8-0.7,5.5-1.9,7.9-3.4l9.7,7
		l7-7l-6.9-9.8c1.4-2.4,2.5-5.1,3.2-7.9l11.9-1.9v-10l-11.9-2.1c-0.7-2.8-1.8-5.5-3.2-7.9l7-9.7l-7-7l-9.8,6.9
		c-2.4-1.5-5.1-2.7-7.9-3.4L47.3,2.5h-10l-1.9,11.7c-2.8,0.7-5.5,1.8-7.9,3.2l-9.8-6.7l-7,7l6.9,9.7c-1.5,2.4-2.5,5.1-3.2,7.9
		L2.5,37.4v10l11.7,1.9c0.7,2.8,1.8,5.6,3.2,8.1l-6.7,9.7l7,7l9.7-6.9c2.4,1.4,5.1,2.5,7.9,3.2l1.9,11.7H47.3z M28.5,42.4
		c0-7.7,6.3-13.9,13.9-13.9s13.8,6.3,13.8,13.9s-6.1,13.8-13.8,13.8S28.5,50.1,28.5,42.4z"/>
</g>
</svg>
