<?xml version="1.0" encoding="utf-8"?>
<!-- Generator: Adobe Illustrator 19.2.0, SVG Export Plug-In . SVG Version: 6.00 Build 0)  -->
<svg version="1.1" id="Layer_1" xmlns="http://www.w3.org/2000/svg" xmlns:xlink="http://www.w3.org/1999/xlink" x="0px" y="0px"
	 viewBox="0 0 300 85" style="enable-background:new 0 0 300 85;" xml:space="preserve">
<style type="text/css">
	.st0{fill:#2980BA;}
	.st1{fill:#28AD60;}
	.st2{fill:#E74226;}
</style>
<g>
	<path class="st0" d="M71.4,54.1c-2.1,0.1-3.9,0.2-5.8,0.3c-5.3,0.4-10.7,0.7-16,1.2c-0.8,0.1-0.9-0.2-1-0.9c-0.2-4-0.4-8-0.7-12
		c-0.1-0.8,0.3-0.8,0.9-0.8c5.8-0.4,11.7-0.9,17.5-1.3c6.4-0.5,12.9-0.9,19.3-1.4c1.3-0.1,1.7,0.2,1.7,1.6c0.2,9.8-1.9,19-7.3,27.2
		C73.8,77.3,65,83,53.8,84.5c-14.2,2-26.5-2.3-36.7-12.3C5,60.6,1.5,42.2,7.7,27.2C13.4,13.2,23.7,4.6,38.3,1.1
		c11.1-2.6,21.6-0.4,31.4,5.2c3.4,2,6.6,4.2,9.5,7c0.4,0.4,0.9,0.7,0.2,1.3c-3.1,2.7-5.1,6.3-6.9,9.9c-0.5,1-0.7,0.9-1.4,0.2
		c-6-7-13.8-10.5-23-10.7C32.8,13.8,20.6,25.3,19,39c-1.8,14.7,8.3,28.6,22.8,31.4c6.5,1.2,12.7,0.7,18.5-2.5
		C65.7,64.8,69.2,60.1,71.4,54.1z"/>
	<path class="st1" d="M88.1,54.5c2.1,3.2,4.4,5.7,7.3,7.6c9.6,6.5,23.1,4.4,30.2-4.8c7.5-9.7,7.4-22.9-0.4-31.7
		c-6.1-6.8-13.8-9.7-22.7-7.4c-8.9,2.3-14.4,8.3-16.8,17c-0.4,1.5-0.9,2-2.4,2c-3.5,0.1-7.1,0.4-10.6,0.8c-1.2,0.1-1.6-0.2-1.4-1.5
		C72.9,21,84.9,7.5,100.4,4.4c17-3.5,32.8,5,40.4,19.8c3.3,6.4,4.6,13.1,4.1,20.2c-1,12.3-6.5,22.2-16.7,29.3
		c-6.7,4.6-14.1,6.6-22.2,6.2c-9-0.5-16.7-4-23.3-10.1c-0.5-0.5-0.6-0.9-0.2-1.5C85,64,86.7,59.5,88.1,54.5z"/>
	<path class="st0" d="M171,63.2c-4.6,0-8.8-1-12.1-4.5c-1.9-2-3.2-4.4-3.7-7.1c-0.1-0.7,0-1.2,0.8-1.4c1.6-0.4,3.1-0.9,4.6-1.3
		c0.6-0.2,1-0.2,1.1,0.6c1.2,6.3,7.2,8.6,12.8,6.8c2.3-0.7,3.7-2.6,3.9-4.7c0.1-2.1-1.2-4.1-3.4-5.1c-2.6-1.1-5.4-1.4-8.2-2
		c-4.2-1-7.8-3-9.4-7.3c-2.1-5.4-0.2-10.7,5-14.4c5.1-3.6,14-3.2,18.5,0.9c1.9,1.8,3.3,3.8,4,6.4c0.2,0.8,0,1-0.7,1.3
		c-1.4,0.4-2.8,0.8-4.2,1.3c-0.9,0.3-1.2,0.1-1.5-0.8c-1.8-5.2-8.9-7-12.8-3.3c-1.6,1.5-2.2,3.2-1.7,5.2c0.5,2,1.9,3.2,3.9,3.7
		c2.3,0.6,4.6,1,6.9,1.5c3.1,0.7,5.9,1.8,8,4.2c5.4,6.4,2.8,15.9-5.1,19C175.5,62.9,173.2,63.2,171,63.2z"/>
	<path class="st0" d="M239.8,36.7c0.5-0.9-0.4-2.1,0.5-2.6c0.7-0.4,1.7-0.1,2.6-0.1c1.1,0,2.2,0,3.3,0c0.7,0,1,0.2,1,0.9
		c0,8.8-0.1,17.6,0,26.4c0,0.8-0.4,1-1.1,1c-1.6,0-3.1-0.1-4.7,0c-1.1,0.1-1.6-0.2-1.5-1.4c0.1-0.4,0-0.7,0-1.2
		c-0.3,0.1-0.5,0.1-0.6,0.2c-4.9,4.7-13.6,4-18.4-2.1c-5.7-7.1-3.5-19.3,4.4-23.3c4.8-2.4,9.3-1.7,13.6,1.5c0.2,0.2,0.4,0.3,0.6,0.5
		C239.6,36.7,239.6,36.7,239.8,36.7z M224.9,48.4c-0.3,4.8,4,8.8,8.8,8c3.5-0.6,5.6-2.8,6.4-6.5c0.7-3.5-0.6-7.1-3.4-8.8
		c-2.4-1.5-5.1-1.7-7.6-0.3C226.1,42.3,224.9,45,224.9,48.4z"/>
	<path class="st0" d="M196.4,36.5c3-3.1,6.5-3.7,10.2-3.1c4.7,0.7,7.9,4.5,8,9.7c0.2,6.1,0,12.3,0.1,18.4c0,0.8-0.3,0.9-1,0.9
		c-1.5,0-3-0.1-4.6,0c-1,0.1-1.3-0.3-1.3-1.3c0.1-4.8,0.1-9.7,0.1-14.5c0-1.2,0-2.5-0.4-3.7c-1-2.5-2.7-3.6-5.6-3.5
		c-2.4,0.1-4.4,1.6-5.1,4c-0.4,1.2-0.4,2.4-0.4,3.7c0,4.7-0.1,9.4-0.1,14.1c0,0.9-0.3,1.2-1.2,1.2c-1.5-0.1-3-0.1-4.4,0
		c-0.9,0-1.2-0.2-1.2-1.2c0-9.5,0-18.9,0-28.4c0-3.8,0.1-7.7,0-11.5c0-1.1,0.1-1.5,1.4-1.2c1.4,0.3,2.9,0.4,4.4,0.5
		c0.9,0.1,1.1,0.4,1.1,1.3C196.4,26.7,196.4,31.4,196.4,36.5z"/>
	<path class="st0" d="M284.8,50.2c-3,0-6.1,0-9.1,0c-1,0-1.2,0.3-1,1.3c1.1,5.2,6.9,7.4,11.3,5.1c1.2-0.6,2.2-1.7,2.7-3
		c0.3-0.9,0.8-1,1.6-0.8c1.3,0.4,2.5,0.9,3.8,1.2c0.9,0.2,1,0.6,0.6,1.4c-1.9,4.4-5.2,7-9.8,7.8c-6.4,1-12-1.4-15.1-7
		c-3.7-6.5-2.9-18.5,7.6-22.1c7.6-2.7,17.6,0.9,18.1,12.9c0.1,3.2,0.1,3.2-3.2,3.2c-1.2,0-2.5,0-3.7,0
		C287.2,50.2,286,50.2,284.8,50.2z M281.6,45.2c1.8,0,3.7-0.1,5.5,0c1.4,0.1,1.4-0.5,1.1-1.6c-0.8-2.8-2.8-4.3-6.1-4.7
		c-3.2-0.3-6.2,1.7-7.2,4.8c-0.3,1-0.2,1.5,1,1.4C277.8,45.1,279.7,45.2,281.6,45.2z"/>
	<path class="st0" d="M257,37.7c2.4-2.9,5.3-4.1,8.8-3.9c0.8,0,1.2,0.2,1.1,1.1c-0.1,1.6-0.1,3.2,0,4.8c0,0.9-0.3,1.1-1.1,1
		c-1.1-0.1-2.3-0.1-3.4,0.1c-3,0.7-4.8,2.8-5.1,6.1c-0.4,3.9-0.1,7.8-0.2,11.7c0,3.6,0,3.6-3.7,3.6c-3.1,0-3.1,0-3.1-3.1
		c0-8,0-16,0-23.9c0-1.1,0.3-1.4,1.3-1.3c1.5,0.1,2.9,0,4.4,0c0.6,0,0.9,0.2,0.9,0.9C257,35.9,257,36.8,257,37.7z"/>
	<path class="st2" d="M112,21.9c-10.6-3.5-19,5.1-18.1,15c0.3,3,1.8,5.5,3.3,8c2.5,4.1,5.6,7.9,7.4,12.4c0.7,1.7,1.3,3.3,2,5
		c0.4,0.9,0.8,0.9,1.3,0.1c0.2-0.4,0.4-0.8,0.6-1.2c1.8-4.2,4-8.2,6.7-11.9c1.3-1.7,2.5-3.5,3.6-5.4c1.6-2.6,2.9-5.3,3-8.1
		C121.8,29.3,118,23.9,112,21.9z M113.7,35.7c-0.2,0.1-0.3,0.2-0.5,0.3c-1.3,0.6-1.4,1.4-0.9,2.7c0.7,1.7,1.5,3.3,1.7,5.1
		c-0.1,0.1-0.1,0.1-0.2,0.2c0,0,0,0,0,0c-1.7-0.7-3-2.1-4.4-3.2c-1.1-0.9-1.8-0.8-2.8,0c-1.4,1.3-3,2.4-4.6,3.6
		c-0.3-0.7,0.1-1.2,0.2-1.6c0.5-1.6,1-3.1,1.7-4.7c0.4-0.9,0.2-1.3-0.6-1.8c-1.6-1-3.1-2.1-4.7-3.2c-0.3-0.2-0.6-0.3-0.6-0.6
		c2.2,0,4.4,0,6.6,0c0.8,0,1.2-0.2,1.5-1.1c0.6-2.1,1.2-4.2,2.2-6.3c0.6,2,1.2,4,1.8,6.1c0.2,0.9,0.6,1.3,1.7,1.3
		c2.1-0.1,4.2,0,6.7,0C116.6,33.7,115.1,34.7,113.7,35.7z"/>
</g>
</svg>
