<?xml version="1.0" encoding="utf-8"?>
<!-- Generator: Adobe Illustrator 19.2.0, SVG Export Plug-In . SVG Version: 6.00 Build 0)  -->
<svg version="1.1" id="Layer_1" xmlns="http://www.w3.org/2000/svg" xmlns:xlink="http://www.w3.org/1999/xlink" x="0px" y="0px"
	 viewBox="0 0 120 120" style="enable-background:new 0 0 120 120;" xml:space="preserve">
<style type="text/css">
	.st0{fill:none;stroke:#020202;stroke-width:5;stroke-linecap:round;stroke-linejoin:round;stroke-miterlimit:10;}
	.st1{fill:#020202;}
	.st2{fill:#FFF200;stroke:#020202;stroke-width:5;stroke-linecap:round;stroke-linejoin:round;stroke-miterlimit:10;}
</style>
<g>
	<g>
		<line class="st0" x1="101.7" y1="23" x2="101.7" y2="113.2"/>
		<line class="st0" x1="87.2" y1="113.2" x2="116.2" y2="113.2"/>
		<path class="st0" d="M117.5,37c0,8.7-7.1,15.8-15.8,15.8S85.9,45.7,85.9,37"/>
		<path class="st0" d="M117.5,69.3c0,8.7-7.1,15.8-15.8,15.8S85.9,78,85.9,69.3"/>
		<circle class="st1" cx="101.7" cy="17.5" r="5.5"/>
	</g>
	<g>
		<path class="st2" d="M39.8,38.7h20.8c0.9,1.7,2.7,2.9,4.8,2.9c3,0,5.5-2.4,5.5-5.5c0-2.2-1.3-4.1-3.1-4.9v-14
			c1.8-0.9,3.1-2.8,3.1-4.9c0-3-2.4-5.5-5.5-5.5c-2.2,0-4.2,1.4-5,3.3H40c-0.8-1.9-2.8-3.3-5-3.3c-3,0-5.5,2.4-5.5,5.5
			c0,2.1,1.1,3.8,2.8,4.8v14.3c-1.7,0.9-2.8,2.7-2.8,4.8c0,3,2.4,5.5,5.5,5.5C37.1,41.6,38.9,40.4,39.8,38.7z"/>
	</g>
	<g>
		<path class="st2" d="M59.9,65.6c0-7.7-6.3-12.1-14-12.1H28.2c-7.7,0-14,4.4-14,12.1V93h45.7V65.6z"/>
		<path class="st2" d="M71.6,72.8c0-4.5-3.6-8.1-8.1-8.1c-4.2,0-7.6,3.2-8,7.3l0,0v16.5c0,0-3.6-5.2-18.1-5.2s-18.9,5.2-18.9,5.2
			V73.6c0-0.3,0-0.6,0-0.8s0-0.6,0-0.8v0l0,0c-0.4-4.1-3.8-7.2-8-7.2c-4.5,0-8.1,3.6-8.1,8.1c0,3.1,1.8,5.9,4.4,7.2l-0.1,0v10.5
			c0,5.4,4.4,9.7,9.7,9.7h40.9c5.4,0,9.7-4.4,9.7-9.7V80C69.9,78.6,71.6,75.9,71.6,72.8z"/>
		<line class="st2" x1="16.6" y1="100.2" x2="10.9" y2="113"/>
		<line class="st2" x1="57.4" y1="100.2" x2="63.1" y2="113"/>
	</g>
</g>
</svg>
