<?xml version="1.0" encoding="utf-8"?>
<!-- Generator: Adobe Illustrator 19.2.0, SVG Export Plug-In . SVG Version: 6.00 Build 0)  -->
<svg version="1.1" id="Layer_1" xmlns="http://www.w3.org/2000/svg" xmlns:xlink="http://www.w3.org/1999/xlink" x="0px" y="0px"
	 viewBox="0 0 120 120" style="enable-background:new 0 0 120 120;" xml:space="preserve">
<style type="text/css">
	.st0{fill:#FFF200;stroke:#020202;stroke-width:5;stroke-linecap:round;stroke-linejoin:round;stroke-miterlimit:10;}
	.st1{fill:none;stroke:#020202;stroke-width:5;stroke-linecap:round;stroke-linejoin:round;stroke-miterlimit:10;}
</style>
<g>
	<path class="st0" d="M2.5,44.2v69c0,1.7,1.4,3.1,3.1,3.1h2.7c1.7,0,3.1-1.4,3.1-3.1v0c0-4.2,3.4-7.6,7.6-7.6h80.7
		c4.2,0,7.6,3.4,7.6,7.6v0c0,1.7,1.4,3.1,3.1,3.1h4.1c1.7,0,3.1-1.4,3.1-3.1v-69c0-3.9-3.2-7.1-7.1-7.1H9.6
		C5.7,37,2.5,40.2,2.5,44.2z"/>
	<g>
		<line class="st1" x1="23.1" y1="52.9" x2="23.1" y2="90.4"/>
		<line class="st1" x1="37.9" y1="52.9" x2="37.9" y2="90.4"/>
		<line class="st1" x1="52.6" y1="52.9" x2="52.6" y2="90.4"/>
		<line class="st1" x1="67.4" y1="52.9" x2="67.4" y2="90.4"/>
		<line class="st1" x1="82.1" y1="52.9" x2="82.1" y2="90.4"/>
		<line class="st1" x1="96.9" y1="52.9" x2="96.9" y2="90.4"/>
	</g>
	<path class="st1" d="M10.6,59.3"/>
	<path class="st1" d="M93.2,24.7c4-4.7,2.2-7.8-0.5-10.6c-2.4-2.5-4.6-6.2,0.8-10.3"/>
	<path class="st1" d="M69.6,24.7C78.7,16,59.5,11.2,70,3.8"/>
	<path class="st1" d="M46.2,24.7c9.1-8.7-10.1-13.5,0.4-20.9"/>
	<path class="st1" d="M22.8,24.7c9.1-8.7-10.1-13.5,0.4-20.9"/>
</g>
</svg>
