<?xml version="1.0" encoding="utf-8"?>
<!-- Generator: Adobe Illustrator 19.2.0, SVG Export Plug-In . SVG Version: 6.00 Build 0)  -->
<svg version="1.1" id="Layer_1" xmlns="http://www.w3.org/2000/svg" xmlns:xlink="http://www.w3.org/1999/xlink" x="0px" y="0px"
	 viewBox="0 0 600 600" style="enable-background:new 0 0 600 600;" xml:space="preserve">
<style type="text/css">
	.st0{fill:#FFFFFF;}
</style>
<g>
	<path class="st0" d="M0,243.3c5.1-4.9,9.9-10.3,15.4-14.7c29.6-23.7,59.5-47.1,89.2-70.6c34.7-27.5,69.4-55.1,104.1-82.6
		c24.6-19.5,49.2-39,73.8-58.4c10.1-8,23.3-7.9,33.5,0.1c33.3,26.2,66.5,52.4,99.8,78.5c0.8,0.7,1.8,1.2,3.7,2.3c0-2.6,0-4.3,0-6
		c0-11.5-0.1-22.9,0-34.4c0.1-14,8.7-22.5,22.7-22.6c11.9-0.1,23.9,0,35.8,0c15,0,23.5,8.4,23.5,23.3c0,33.2,0.1,66.4-0.1,99.6
		c0,3.8,1.1,6.2,4.2,8.6c29.3,22.8,58.4,45.8,87.5,68.8c7.8,6.2,8.8,13.3,3.2,19.2c-4.6,4.8-10.5,5.3-15.9,1.4
		c-2.5-1.8-4.9-3.8-7.3-5.7c-2.3-1.8-4.6-3.5-8-6.1c0,3,0,5,0,7c0,98.7,0,197.3,0,296c0,17.3-7,30.4-22.9,37.9
		c-4.6,2.2-10,2.6-15.1,3.9c-151.5,0-303.1,0-454.6,0c-5-1.2-10.4-1.7-15-3.9c-15.9-7.4-23-20.6-23-37.9c0-98.8,0-197.7,0-296.5
		c0-1.8,0-3.7,0-6.5c-5,3.9-9,6.9-13,10c-9.3,7.1-16.1,5.5-21.6-5C0,247.2,0,245.3,0,243.3z M541.1,389.3c0-53.2,0-106.4,0.1-159.6
		c0-3.5-1-5.7-3.8-7.8c-8.6-6.5-17-13.4-25.4-20c-30.2-23.7-60.5-47.4-90.6-71.2c-39.6-31.1-79.1-62.3-118.6-93.5
		c-2.8-2.2-4.6-2-7.2,0.1c-30.2,24-60.4,48-90.7,71.9c-27.6,21.8-55.2,43.6-82.7,65.4c-20,15.8-40,31.6-59.9,47.6
		c-1.7,1.4-3.2,4.3-3.2,6.4c-0.2,106.5-0.1,213.1-0.1,319.6c0,10.4,5.8,16.3,16.1,16.4c43,0.1,86.1,0,129.1,0.1c3.8,0,5-1.4,4.6-4.9
		c-0.2-1.5,0-2.9,0-4.4c0-70.9,0-141.7,0-212.6c0-19,12.1-31.7,30.5-31.8c39.8-0.1,79.5-0.2,119.3,0.1c5.3,0,11.1,1.7,15.8,4.2
		c10.6,5.8,14.5,15.7,14.5,27.5c-0.1,71.8,0,143.7-0.1,215.5c0,5,1.4,6.3,6.3,6.3c42.5-0.2,85.1-0.1,127.6-0.1
		c13.2,0,18.5-5.2,18.5-18.3C541.1,494,541.1,441.6,541.1,389.3z M364.7,451.5c0-35.5,0-71,0-106.5c0-8.9-1.1-10.1-10.3-10.1
		c-37.5,0-74.9,0-112.4,0c-8,0-9.3,1.3-9.3,9.5c0,71.5,0,142.9-0.1,214.4c0,4.8,1.5,5.9,6.1,5.9c39.9-0.2,79.8-0.2,119.7,0
		c5,0,6.4-1.3,6.3-6.3C364.6,522.8,364.7,487.2,364.7,451.5z M476.8,143.6c0.4-1.5,0.7-2.1,0.7-2.7c0-26.2,0-52.4,0.1-78.5
		c0-2.6-1.2-3.4-3.6-3.4c-8.8,0.1-17.7,0.1-26.5,0c-3,0-4,1-4,4c0.1,17,0,34,0.1,51c0,1.6,0.7,3.8,1.8,4.7
		C455.5,127,465.8,135,476.8,143.6z"/>
	<g>
		<path d="M176.3,435.9l-2.7-2.7L155,414.5c0,0,0,0,0,0l-1.5-1.5c-0.7-0.7-1.6-1.1-2.6-1.1h-57c-2.7,0-4.8,2.2-4.8,4.8v71.8V521
			c0,2.7,2.2,4.8,4.8,4.8h78.7c2.7,0,4.8-2.2,4.8-4.8v-32.5v-50C177.4,437.5,177,436.6,176.3,435.9z M170.4,435.5h-16.6V419
			L170.4,435.5z M173.5,521c0,0.5-0.4,0.9-0.9,0.9H93.9c-0.5,0-0.9-0.4-0.9-0.9v-28.5h80.5V521z M93,488.5v-71.8
			c0-0.5,0.4-0.9,0.9-0.9H150c-0.1,0.2-0.1,0.5-0.1,0.8v22.8h22.8c0.3,0,0.5,0,0.8-0.1v49.2H93z"/>
		<path d="M114,515.6c-0.4,0-0.7,0-1.2-0.1c-0.4-0.1-0.8-0.2-1.2-0.3c-0.4-0.1-0.8-0.2-1.2-0.4c-0.4-0.1-0.7-0.3-1-0.4l-0.6,2.3
			c0.3,0.3,0.7,0.5,1.1,0.7s0.9,0.3,1.3,0.4c0.5,0.1,0.9,0.2,1.4,0.2s0.9,0.1,1.3,0.1c1,0,1.9-0.2,2.7-0.5s1.4-0.7,2-1.2
			c0.5-0.5,1-1.1,1.2-1.8c0.3-0.7,0.4-1.4,0.4-2.1c0-1.1-0.2-1.9-0.6-2.6s-0.9-1.2-1.5-1.7c-0.6-0.4-1.3-0.8-2-1.1
			c-0.7-0.3-1.4-0.6-2-1c-0.6-0.3-1.1-0.7-1.5-1.2c-0.4-0.4-0.6-1-0.6-1.7c0-0.3,0.1-0.6,0.2-0.9c0.1-0.3,0.3-0.6,0.6-0.8
			c0.3-0.3,0.5-0.5,0.9-0.6c0.3-0.2,0.7-0.3,1-0.3c0.6-0.1,1.2-0.1,1.6,0c0.4,0,0.7,0.1,1,0.2c0.3,0.1,0.4,0.2,0.6,0.3
			s0.3,0.2,0.4,0.2c0,0,0.1-0.1,0.2-0.3c0.1-0.2,0.2-0.4,0.3-0.6s0.3-0.5,0.4-0.8s0.3-0.5,0.4-0.8c-0.5-0.3-1.2-0.6-2-0.7
			c-0.8-0.2-1.7-0.2-2.5-0.2c-0.8,0-1.6,0.1-2.3,0.4c-0.7,0.3-1.4,0.6-1.9,1.1s-1,1.1-1.3,1.7c-0.3,0.7-0.5,1.5-0.5,2.3
			c0,1,0.2,1.8,0.6,2.4c0.4,0.6,0.9,1.2,1.6,1.7s1.3,0.9,2,1.2s1.4,0.7,2,1c0.6,0.3,1.1,0.7,1.5,1.2c0.4,0.4,0.6,0.9,0.6,1.6
			c0,1-0.3,1.8-0.9,2.3C115.9,515.3,115.1,515.6,114,515.6z"/>
		<polygon points="133.2,518.1 139.6,498.2 136,498.2 131.1,515.3 126.5,498.2 122.9,498.2 129,518.1 		"/>
		<path d="M145.7,515.6c0.7,0.8,1.6,1.5,2.6,1.9s2.1,0.6,3.3,0.6c0.6,0,1.2,0,1.8-0.1c0.6-0.1,1.2-0.2,1.7-0.5s1.1-0.5,1.6-0.8
			c0.5-0.3,1-0.8,1.4-1.3v-7.7h-6.6v2.2h3.4v4.9c-0.1,0.2-0.4,0.3-0.7,0.5c-0.3,0.1-0.6,0.2-1,0.3s-0.7,0.1-1,0.1s-0.6,0-0.8,0
			c-0.6,0-1.3-0.2-1.8-0.5c-0.6-0.3-1.1-0.8-1.6-1.4c-0.5-0.6-0.8-1.4-1.1-2.4s-0.4-2.1-0.4-3.5c0-1.4,0.2-2.5,0.4-3.5
			s0.6-1.7,1.1-2.3s1-1,1.6-1.3c0.6-0.3,1.2-0.4,1.9-0.4c0.6,0,1.2,0.1,1.7,0.3s1,0.6,1.5,1.1l2.2-2c-0.7-0.7-1.6-1.3-2.5-1.6
			c-0.9-0.4-1.9-0.5-3-0.5c-1.2,0-2.2,0.2-3.2,0.7c-1,0.4-1.9,1.1-2.6,1.9c-0.7,0.8-1.3,1.9-1.7,3.2c-0.4,1.3-0.6,2.7-0.6,4.4
			c0,1.7,0.2,3.1,0.6,4.4C144.4,513.7,145,514.7,145.7,515.6z"/>
		<path d="M155.8,449.3H144v-7.9h-19.6v7.9h-11.8v-3.9h-11.8v11.8h11.8v-3.9h7c-9,5.2-14.8,14.9-14.8,25.5c0,1.1,0.9,2,2,2
			s2-0.9,2-2c0-10.3,6.3-19.6,15.7-23.6v5.9H144v-5.9c9.4,3.9,15.7,13.3,15.7,23.6c0,1.1,0.9,2,2,2s2-0.9,2-2
			c0-10.6-5.9-20.4-14.8-25.5h7v3.9h11.8v-11.8h-11.8V449.3z M108.7,453.2h-3.9v-3.9h3.9V453.2z M140.1,457.1h-11.8v-7.4v-4.4h11.8
			v4.4V457.1z M159.7,449.3h3.9v3.9h-3.9V449.3z"/>
	</g>
	<g>
		<path d="M333.7,167.6l-2.7-2.7l-18.7-18.7c0,0,0,0,0,0l-1.5-1.5c-0.7-0.7-1.6-1.1-2.6-1.1h-57c-2.7,0-4.8,2.2-4.8,4.8v71.8v32.5
			c0,2.7,2.2,4.8,4.8,4.8H330c2.7,0,4.8-2.2,4.8-4.8v-32.5v-50C334.8,169.2,334.4,168.3,333.7,167.6z M311.3,167.2v-16.6l16.6,16.6
			H323H311.3z M313.2,171.1h5.4c-0.7,1.2-1.9,2-3.4,2c-1.4,0-2.7-0.8-3.3-1.9C312.3,171.2,312.8,171.1,313.2,171.1z M330.9,252.7
			c0,0.5-0.4,0.9-0.9,0.9h-78.7c-0.5,0-0.9-0.4-0.9-0.9v-28.5h80.5V252.7z M250.4,220.2v-71.8c0-0.5,0.4-0.9,0.9-0.9h56.2
			c-0.1,0.2-0.1,0.5-0.1,0.8v18.9v0.9c-6,1.9-10.8,6.6-12.8,12.6c-1.3-1.1-3-1.8-4.9-1.8c-3.7,0-6.7,2.5-7.6,5.9h-6.2V181h-11.8
			v11.8h11.8v-3.9h5.7c-0.7,5.2-3.9,9.8-8.6,12.1c-1.3-2.5-3.9-4.2-6.9-4.2c-4.3,0-7.9,3.5-7.9,7.9s3.5,7.9,7.9,7.9
			c4.2,0,7.6-3.3,7.8-7.5c5.2-2.3,9.1-6.7,10.8-11.9c1.3,1.1,3,1.8,4.9,1.8c3.7,0,6.7-2.5,7.6-5.9h6.2v3.9h11.8V181h-11.8v3.9h-5.8
			c0.7-5.9,4.8-10.8,10.3-12.8c1.2,2.9,4,4.9,7.3,4.9c3.7,0,6.7-2.5,7.6-5.9h7.4c0.3,0,0.5,0,0.8-0.1v49.2H250.4z M293.6,186.8
			c0,2.2-1.8,3.9-3.9,3.9s-3.9-1.8-3.9-3.9s1.8-3.9,3.9-3.9S293.6,184.7,293.6,186.8z M272,188.8h-3.9v-3.9h3.9V188.8z M270,204.5
			c0,2.2-1.8,3.9-3.9,3.9s-3.9-1.8-3.9-3.9s1.8-3.9,3.9-3.9S270,202.4,270,204.5z M307.3,184.9h3.9v3.9h-3.9V184.9z"/>
		<path d="M279.9,245.6h7.4l1.4,4.1h3.3l-6.9-19.8H282l-6.9,19.8h3.4L279.9,245.6z M283.6,234.9l2.9,8.5h-5.9L283.6,234.9z"/>
		<rect x="296.3" y="229.9" width="3.3" height="19.8"/>
	</g>
	<g>
		<path d="M506.7,269.2l-1.5-1.5l-19.8-19.8l-1.5-1.5c-0.7-0.7-1.6-1.1-2.6-1.1h-57c-2.3,0-4.8,1.8-4.8,5.7v70.8v32.5v0.9
			c0,1.6,1.7,3.2,3.6,3.8c0.1,0,0.2,0.1,0.3,0.1c0.3,0.1,0.6,0.1,0.9,0.1H503c0.3,0,0.6,0,0.9-0.1c0.1,0,0.2-0.1,0.3-0.1
			c2-0.5,3.6-2.1,3.6-3.8v-0.9v-32.5v-49.1C507.8,271.2,507.6,270.1,506.7,269.2z M500.8,268.8h-16.6v-16.6L500.8,268.8z
			 M424.3,355.2c-0.1,0-0.3-0.1-0.4-0.1c-0.3-0.1-0.5-0.5-0.5-0.8v-28.5h80.5v28.5c0,0.4-0.2,0.7-0.5,0.8c-0.1,0-0.2,0.1-0.4,0.1
			H424.3z M423.3,321.9V251c0-0.4,0.1-1.8,0.9-1.8h56.2c-0.1,0.2-0.1,0.5-0.1,0.8v22.8h22.8c0.3,0,0.5,0,0.8-0.1c0,0,0,0,0,0.1v49.1
			H423.3z"/>
		<path d="M449.9,333.1c-0.7-0.5-1.4-0.9-2.2-1.2c-0.8-0.3-1.7-0.4-2.5-0.4h-5.7v19.8h3.2v-7.1h2.4c1,0,2-0.2,2.8-0.5
			c0.9-0.3,1.6-0.7,2.2-1.3c0.6-0.6,1.1-1.2,1.4-2.1c0.3-0.8,0.5-1.7,0.5-2.7c0-0.9-0.2-1.8-0.6-2.6
			C451.1,334.3,450.6,333.7,449.9,333.1z M448.7,339.7c-0.2,0.5-0.5,1-0.8,1.3c-0.3,0.3-0.7,0.5-1.1,0.7c-0.4,0.1-0.8,0.2-1.2,0.2
			h-3V334h2.4c0.8,0,1.5,0.1,2,0.4c0.5,0.3,0.9,0.6,1.2,1c0.3,0.4,0.5,0.8,0.5,1.2c0.1,0.4,0.1,0.8,0.1,1.1
			C449,338.4,448.9,339.1,448.7,339.7z"/>
		<path d="M469.4,334.4c-0.8-0.9-1.9-1.6-3.1-2.1c-1.3-0.5-2.7-0.8-4.4-0.8h-6v19.8h7.5c0.2,0,0.6,0,1.2-0.1
			c0.5-0.1,1.1-0.2,1.7-0.4c0.6-0.2,1.3-0.6,1.9-1c0.7-0.4,1.3-1.1,1.8-1.8c0.5-0.8,1-1.7,1.3-2.9s0.5-2.5,0.5-4.2
			c0-1.2-0.2-2.3-0.6-3.5C470.9,336.3,470.2,335.3,469.4,334.4z M467.1,346.9c-1,1.4-2.5,2.1-4.7,2.1h-3.2v-15h1.9
			c1.5,0,2.8,0.2,3.8,0.6c1,0.4,1.7,0.9,2.3,1.6s0.9,1.4,1.1,2.2c0.2,0.8,0.3,1.6,0.3,2.4C468.5,343.4,468,345.5,467.1,346.9z"/>
		<polygon points="476.6,351.3 479.8,351.3 479.8,342.4 488.1,342.4 488.1,340.2 479.8,340.2 479.8,334 488.9,334 488.9,331.5 
			476.6,331.5 		"/>
		<path d="M482.1,290.4c-1.8,0-4,0.2-6.6,0.7c-3.6-3.8-7.3-9.4-10-14.9c2.6-11.1,1.3-12.6,0.7-13.4c-0.6-0.8-1.5-2.1-2.5-2.1
			c-0.4,0-1.5,0.2-2,0.3c-1.1,0.4-1.7,1.2-2.2,2.4c-1.4,3.2,0.5,8.8,2.5,13c-1.7,6.7-4.5,14.6-7.4,21.1c-7.4,3.4-11.4,6.8-11.8,10
			c-0.1,1.2,0.1,2.9,2.2,4.4c0.6,0.4,1.2,0.6,1.9,0.6l0,0c1.7,0,3.5-1.3,5.5-4.1c1.5-2.1,3-4.9,4.7-8.3c5.3-2.3,11.8-4.4,17.3-5.5
			c3.1,3,5.9,4.5,8.3,4.5c1.8,0,3.3-0.8,4.4-2.3c1.1-1.6,1.4-3,0.8-4.2C487.1,291.1,485.2,290.4,482.1,290.4z M447,309.4
			c-0.9-0.7-0.9-1.2-0.8-1.4c0.1-1.1,1.8-3,6-5.4C449,308.5,447.3,309.3,447,309.4z M463.1,264.3c0.1,0,2.1,2.2,0.2,6.3
			C460.5,267.8,462.9,264.4,463.1,264.3z M459,295.8c2-4.8,3.8-10,5.3-14.9c2.2,4,4.9,7.8,7.5,10.9
			C467.6,292.8,463.1,294.2,459,295.8z M484.4,294.9c-0.6,0.8-1.9,0.9-2.4,0.9c-1,0-1.4-0.6-3-1.9c1.3-0.2,2.6-0.2,3.6-0.2
			c1.7,0,2.1,0.3,2.3,0.4C484.8,294.2,484.7,294.5,484.4,294.9z"/>
	</g>
	<g>
		<path d="M341,447.4l-1.5-1.5l-19.8-19.8l-1.5-1.5c-0.7-0.7-1.6-1.1-2.6-1.1h-57c-2.3,0-4.8,1.8-4.8,5.7v70.8v32.5v0.9
			c0,1.6,1.7,3.2,3.6,3.8c0.1,0,0.2,0.1,0.3,0.1c0.3,0.1,0.6,0.1,0.9,0.1h78.7c0.3,0,0.6,0,0.9-0.1c0.1,0,0.2-0.1,0.3-0.1
			c2-0.5,3.6-2.1,3.6-3.8v-0.9v-32.5V451C342.1,449.4,341.9,448.3,341,447.4z M335.1,447.1h-16.6v-16.6L335.1,447.1z M263.5,427.4
			c0,1.1,0.9,2,2,2c1.1,0,2-0.9,2-2h3.9c0,1.1,0.9,2,2,2c1.1,0,2-0.9,2-2h3.9c0,1.1,0.9,2,2,2c1.1,0,2-0.9,2-2h3.9c0,1.1,0.9,2,2,2
			c1.1,0,2-0.9,2-2h3.9c0,1.1,0.9,2,2,2c1.1,0,2-0.9,2-2h3.9c0,1.1,0.9,2,2,2c1.1,0,2-0.9,2-2h3.9c0,1.1,0.9,2,2,2c1.1,0,2-0.9,2-2
			h0.1c-0.1,0.2-0.1,0.5-0.1,0.8v7.1v7.9v7.9h3.9c0,1.1,0.9,2,2,2c1.1,0,2-0.9,2-2h3.9c0,1.1,0.9,2,2,2c1.1,0,2-0.9,2-2h3.9
			c0,1.1,0.9,2,2,2c1.1,0,2-0.9,2-2c0,0,0-0.1,0-0.1c0,0,0,0,0,0c0,0,0,0,0,0.1v0v7.9v7.9v7.9v1.3l-0.3-0.3c0.2-0.3,0.3-0.6,0.3-1
			c0-1.1-0.9-2-2-2c-0.4,0-0.8,0.2-1.1,0.4l-1.3-1.2c0.2-0.3,0.4-0.7,0.4-1.1c0-1.1-0.9-2-2-2c-0.5,0-0.9,0.2-1.2,0.5l-1.2-1.2
			c0.3-0.3,0.5-0.8,0.5-1.3c0-1.1-0.9-2-2-2c-0.5,0-1,0.2-1.3,0.5l-1.2-1.1c0.3-0.4,0.6-0.8,0.6-1.4c0-1.1-0.9-2-2-2
			c-0.6,0-1.1,0.3-1.4,0.6l-1.1-1.1c0,0-0.1,0-0.1-0.1c0.4-0.4,0.7-0.9,0.7-1.5c0-1.1-0.9-2-2-2c-1.1,0-2,0.9-2,2
			c0,0.6,0.3,1.1,0.7,1.5c-0.1,0.1-0.1,0.1-0.2,0.1l-1,1.1c-0.4-0.4-0.9-0.7-1.5-0.7c-1.1,0-2,0.9-2,2c0,0.7,0.4,1.2,0.9,1.6
			l-1.2,1.3c-0.3-0.6-0.9-0.9-1.6-0.9c-1.1,0-2,0.9-2,2c0,0.8,0.5,1.4,1.1,1.7l-1.3,1.4c-0.3-0.7-1-1.2-1.8-1.2c-1.1,0-2,0.9-2,2
			c0,0.9,0.6,1.6,1.3,1.8l-1.4,1.6c-0.2-0.8-1-1.5-1.9-1.5c-1.1,0-2,0.9-2,2c0,1,0.7,1.7,1.6,1.9l-1.7,1.8c-0.1-1-0.9-1.8-1.9-1.8
			c-1.1,0-2,0.9-2,2c0,1.1,0.9,1.9,1.9,2l-1,1.1l-9.3-9.3c-0.7-0.7-1.9-0.8-2.7-0.1l-12.6,10.7c0-0.1,0.1-0.3,0.1-0.4
			c0-1.1-0.9-2-2-2c-1.1,0-2,0.9-2,2s0.9,2,2,2c0,0,0.1,0,0.1,0l-2.1,1.8c-0.1-1-0.9-1.8-1.9-1.8c-1.1,0-2,0.9-2,2
			c0,0.9,0.6,1.6,1.5,1.9l-1.6,1.4c-0.3-0.7-1-1.3-1.8-1.3c-1.1,0-2,0.9-2,2c0,0.7,0.4,1.3,1,1.7l-1.4,1.2c-0.4-0.5-0.9-0.9-1.6-0.9
			c-1.1,0-2,0.9-2,2c0,0.6,0.2,1.1,0.6,1.4l-2.6,2.2v-5.6c1.1,0,2-0.9,2-2c0-1.1-0.9-2-2-2v-3.9c1.1,0,2-0.9,2-2s-0.9-2-2-2v-3.9
			c1.1,0,2-0.9,2-2s-0.9-2-2-2v-3.9c1.1,0,2-0.9,2-2s-0.9-2-2-2v-3.9c1.1,0,2-0.9,2-2s-0.9-2-2-2V453c1.1,0,2-0.9,2-2s-0.9-2-2-2
			v-3.9c1.1,0,2-0.9,2-2s-0.9-2-2-2v-3.9c1.1,0,2-0.9,2-2s-0.9-2-2-2v-3.9c1.1,0,2-0.9,2-2H263.5z M258.6,533.5
			c-0.1,0-0.3-0.1-0.4-0.1c-0.3-0.1-0.5-0.5-0.5-0.8V504h80.5v28.5c0,0.4-0.2,0.7-0.5,0.8c-0.1,0-0.2,0.1-0.4,0.1H258.6z M261,500.1
			l27.8-23.6c0.1,0,0.2,0.1,0.3,0.1c0,0,0.1,0,0.1,0l20,20c0.8,0.8,2,0.8,2.8,0c0.8-0.8,0.8-2,0-2.8l-9.4-9.4l18-19.7l17.6,16.7
			v18.8H261z"/>
		<path d="M284.2,511.4c-0.7-0.5-1.4-0.9-2.2-1.2c-0.8-0.3-1.7-0.4-2.5-0.4h-5.7v19.8h3.2v-7.1h2.4c1,0,2-0.2,2.8-0.5
			c0.9-0.3,1.6-0.7,2.2-1.3s1.1-1.2,1.4-2.1c0.3-0.8,0.5-1.7,0.5-2.7c0-0.9-0.2-1.8-0.6-2.6C285.4,512.6,284.9,511.9,284.2,511.4z
			 M283,517.9c-0.2,0.5-0.5,1-0.8,1.3c-0.3,0.3-0.7,0.5-1.1,0.7c-0.4,0.1-0.8,0.2-1.2,0.2h-3v-7.8h2.4c0.8,0,1.5,0.1,2,0.4
			c0.5,0.3,0.9,0.6,1.2,1c0.3,0.4,0.5,0.8,0.5,1.2c0.1,0.4,0.1,0.8,0.1,1.1C283.3,516.7,283.2,517.4,283,517.9z"/>
		<polygon points="301.1,523.4 293.4,509.8 290.1,509.8 290.1,529.5 293.4,529.5 293.4,515.9 301.1,529.5 304.4,529.5 304.4,509.8 
			301.1,509.8 		"/>
		<path d="M317.2,521.5h3.4v4.9c-0.1,0.2-0.4,0.3-0.7,0.5c-0.3,0.1-0.6,0.2-1,0.3c-0.3,0.1-0.7,0.1-1,0.1c-0.3,0-0.6,0-0.8,0
			c-0.6,0-1.3-0.2-1.8-0.5s-1.1-0.8-1.6-1.4c-0.5-0.6-0.8-1.4-1.1-2.4c-0.3-1-0.4-2.1-0.4-3.5c0-1.4,0.2-2.5,0.4-3.5
			s0.6-1.7,1.1-2.3c0.5-0.6,1-1,1.6-1.3c0.6-0.3,1.2-0.4,1.9-0.4c0.6,0,1.2,0.1,1.7,0.3c0.6,0.2,1,0.6,1.5,1.1l2.2-2
			c-0.7-0.7-1.6-1.3-2.5-1.6c-0.9-0.4-1.9-0.5-3-0.5c-1.2,0-2.2,0.2-3.2,0.7c-1,0.4-1.9,1.1-2.6,1.9c-0.7,0.8-1.3,1.9-1.7,3.2
			c-0.4,1.3-0.6,2.7-0.6,4.4c0,1.7,0.2,3.1,0.6,4.4s1,2.3,1.7,3.2c0.7,0.8,1.6,1.5,2.6,1.9c1,0.4,2.1,0.6,3.3,0.6
			c0.6,0,1.2,0,1.8-0.1c0.6-0.1,1.2-0.2,1.7-0.5c0.6-0.2,1.1-0.5,1.6-0.8c0.5-0.3,1-0.8,1.4-1.3v-7.7h-6.6V521.5z"/>
		<circle cx="261.6" cy="431.4" r="2"/>
		<circle cx="269.4" cy="431.4" r="2"/>
		<circle cx="277.3" cy="431.4" r="2"/>
		<circle cx="285.1" cy="431.4" r="2"/>
		<circle cx="293" cy="431.4" r="2"/>
		<circle cx="300.9" cy="431.4" r="2"/>
		<circle cx="308.7" cy="431.4" r="2"/>
		<circle cx="312.6" cy="435.3" r="2"/>
		<circle cx="304.8" cy="435.3" r="2"/>
		<circle cx="296.9" cy="435.3" r="2"/>
		<circle cx="289.1" cy="435.3" r="2"/>
		<circle cx="281.2" cy="435.3" r="2"/>
		<circle cx="273.4" cy="435.3" r="2"/>
		<circle cx="265.5" cy="435.3" r="2"/>
		<circle cx="261.6" cy="439.2" r="2"/>
		<circle cx="269.4" cy="439.2" r="2"/>
		<circle cx="277.3" cy="439.2" r="2"/>
		<circle cx="285.1" cy="439.2" r="2"/>
		<circle cx="293" cy="439.2" r="2"/>
		<circle cx="300.9" cy="439.2" r="2"/>
		<circle cx="308.7" cy="439.2" r="2"/>
		<circle cx="312.6" cy="443.1" r="2"/>
		<circle cx="304.8" cy="443.1" r="2"/>
		<circle cx="296.9" cy="443.1" r="2"/>
		<circle cx="289.1" cy="443.1" r="2"/>
		<circle cx="281.2" cy="443.1" r="2"/>
		<circle cx="273.4" cy="443.1" r="2"/>
		<circle cx="265.5" cy="443.1" r="2"/>
		<circle cx="261.6" cy="447.1" r="2"/>
		<circle cx="285.1" cy="447.1" r="2"/>
		<circle cx="293" cy="447.1" r="2"/>
		<circle cx="300.9" cy="447.1" r="2"/>
		<circle cx="308.7" cy="447.1" r="2"/>
		<circle cx="312.6" cy="451" r="2"/>
		<circle cx="304.8" cy="451" r="2"/>
		<circle cx="296.9" cy="451" r="2"/>
		<circle cx="289.1" cy="451" r="2"/>
		<circle cx="293" cy="454.9" r="2"/>
		<circle cx="300.9" cy="454.9" r="2"/>
		<circle cx="308.7" cy="454.9" r="2"/>
		<circle cx="316.6" cy="454.9" r="2"/>
		<circle cx="324.4" cy="454.9" r="2"/>
		<circle cx="328.3" cy="458.8" r="2"/>
		<circle cx="336.2" cy="466.7" r="2"/>
		<circle cx="332.3" cy="462.8" r="2"/>
		<circle cx="336.2" cy="458.8" r="2"/>
		<circle cx="332.3" cy="454.9" r="2"/>
		<circle cx="312.6" cy="458.8" r="2"/>
		<circle cx="304.8" cy="458.8" r="2"/>
		<circle cx="296.9" cy="458.8" r="2"/>
		<circle cx="289.1" cy="458.8" r="2"/>
		<path d="M261.6,464.7c0.8,0,1.5-0.5,1.8-1.3c0.3,0.6,0.6,1.2,0.9,1.7c-0.5,0.4-0.8,0.9-0.8,1.5c0,1.1,0.9,2,2,2
			c0.6,0,1.2-0.3,1.5-0.8c0.5,0.4,1,0.7,1.6,1c-0.7,0.3-1.2,1-1.2,1.8c0,1.1,0.9,2,2,2c1.1,0,2-0.9,2-2c0-0.3-0.1-0.7-0.3-0.9
			c0.7,0.2,1.5,0.2,2.2,0.2c0.8,0,1.5-0.1,2.2-0.2c-0.2,0.3-0.3,0.6-0.3,0.9c0,1.1,0.9,2,2,2c1.1,0,2-0.9,2-2c0-0.8-0.5-1.5-1.2-1.8
			c0.6-0.3,1.1-0.6,1.6-1c0.4,0.5,0.9,0.8,1.5,0.8c1.1,0,2-0.9,2-2c0-0.6-0.3-1.2-0.8-1.5c0.4-0.5,0.7-1.1,0.9-1.7
			c0.3,0.7,1,1.3,1.8,1.3c1.1,0,2-0.9,2-2s-0.9-2-2-2c-0.4,0-0.8,0.2-1.1,0.4c0.1-0.7,0.2-1.4,0.2-2.2c0-0.9-0.1-1.7-0.3-2.5
			c0.3,0.2,0.7,0.4,1.1,0.4c1.1,0,2-0.9,2-2s-0.9-2-2-2c-0.9,0-1.6,0.6-1.9,1.5c-0.3-0.6-0.6-1.2-1-1.8c0.6-0.3,0.9-0.9,0.9-1.6
			c0-1.1-0.9-2-2-2c-0.7,0-1.3,0.4-1.6,1c-0.6-0.4-1.2-0.8-1.9-1c0.9-0.2,1.6-0.9,1.6-1.9c0-1.1-0.9-2-2-2c-1.1,0-2,0.9-2,2
			c0,0.5,0.2,0.9,0.5,1.3c-0.8-0.2-1.6-0.3-2.5-0.3c-0.8,0-1.7,0.1-2.5,0.3c0.3-0.3,0.5-0.8,0.5-1.3c0-1.1-0.9-2-2-2
			c-1.1,0-2,0.9-2,2c0,0.9,0.7,1.7,1.6,1.9c-0.7,0.3-1.3,0.6-1.9,1c-0.3-0.6-0.9-1-1.6-1c-1.1,0-2,0.9-2,2c0,0.7,0.4,1.3,0.9,1.6
			c-0.4,0.6-0.7,1.2-1,1.8c-0.2-0.8-1-1.5-1.9-1.5c-1.1,0-2,0.9-2,2s0.9,2,2,2c0.4,0,0.8-0.2,1.1-0.4c-0.2,0.8-0.3,1.6-0.3,2.5
			c0,0.7,0.1,1.5,0.2,2.2c-0.3-0.2-0.7-0.4-1.1-0.4c-1.1,0-2,0.9-2,2S260.5,464.7,261.6,464.7z M273.4,452c3.9,0,7,3.1,7,7
			s-3.1,7-7,7c-3.9,0-7-3.1-7-7S269.5,452,273.4,452z"/>
		<circle cx="293" cy="462.8" r="2"/>
		<circle cx="300.9" cy="462.8" r="2"/>
		<circle cx="308.7" cy="462.8" r="2"/>
		<circle cx="304.8" cy="466.7" r="2"/>
		<circle cx="296.9" cy="466.7" r="2"/>
		<circle cx="289.1" cy="466.7" r="2"/>
		<circle cx="261.6" cy="470.6" r="2"/>
		<circle cx="285.1" cy="470.6" r="2"/>
		<circle cx="293" cy="470.6" r="2"/>
		<circle cx="300.9" cy="470.6" r="2"/>
		<circle cx="296.9" cy="474.6" r="2"/>
		<circle cx="281.2" cy="474.6" r="2"/>
		<circle cx="273.4" cy="474.6" r="2"/>
		<circle cx="265.5" cy="474.6" r="2"/>
		<circle cx="261.6" cy="478.5" r="2"/>
		<circle cx="269.4" cy="478.5" r="2"/>
		<circle cx="277.3" cy="478.5" r="2"/>
		<circle cx="265.5" cy="482.4" r="2"/>
		<circle cx="261.6" cy="486.3" r="2"/>
	</g>
	<g>
		<path d="M506.7,435.7l-1.5-1.5l-19.8-19.8l-1.5-1.5c-0.7-0.7-1.6-1.1-2.6-1.1h-57c-2.3,0-4.8,1.8-4.8,5.7v70.8v32.5v0.9
			c0,1.6,1.7,3.2,3.6,3.8c0.1,0,0.2,0.1,0.3,0.1c0.3,0.1,0.6,0.1,0.9,0.1H503c0.3,0,0.6,0,0.9-0.1c0.1,0,0.2-0.1,0.3-0.1
			c2-0.5,3.6-2.1,3.6-3.8v-0.9v-32.5v-49.1C507.8,437.7,507.6,436.6,506.7,435.7z M484.2,418.7l16.6,16.6h-16.6V418.7z M503.9,520.8
			c0,0.4-0.2,0.7-0.5,0.8c-0.1,0-0.2,0.1-0.4,0.1h-78.7c-0.1,0-0.3-0.1-0.4-0.1c-0.3-0.1-0.5-0.5-0.5-0.8v-28.5h80.5V520.8z
			 M503.9,488.3h-77.1l27.8-23.6c0.1,0,0.2,0.1,0.3,0.1c0,0,0.1,0,0.1,0l20,20c0.8,0.8,2,0.8,2.8,0c0.8-0.8,0.8-2,0-2.8l-9.4-9.4
			l18-19.7l17.6,16.7V488.3z M503.9,464.2l-18-17.6l-20.6,22.7l-10.7-11.3l-31.3,27.6V420c0-2.4,2-4.4,4.4-4.4H481v23.2h22.9V464.2z
			"/>
		<g>
			<path d="M445.7,497.4h3.4v13.6c0,1.9-0.6,3.3-1.7,4.4c-1.2,1.1-2.7,1.6-4.6,1.6c-2,0-3.6-0.5-4.7-1.5s-1.7-2.5-1.7-4.3h3.4
				c0,1,0.3,1.8,0.8,2.3c0.5,0.5,1.3,0.8,2.2,0.8c0.9,0,1.6-0.3,2.2-0.9c0.5-0.6,0.8-1.4,0.8-2.5V497.4z"/>
			<path d="M457.6,509.7v7.2h-3.4v-19.4h7.4c2.2,0,3.9,0.6,5.2,1.7c1.3,1.1,1.9,2.6,1.9,4.5c0,1.9-0.6,3.4-1.9,4.5
				c-1.3,1.1-3,1.6-5.3,1.6H457.6z M457.6,506.9h4.1c1.2,0,2.1-0.3,2.8-0.8c0.6-0.6,0.9-1.4,0.9-2.4c0-1-0.3-1.9-1-2.5
				c-0.6-0.6-1.5-1-2.6-1h-4.2V506.9z"/>
			<path d="M488,514.4c-0.7,0.9-1.7,1.6-2.9,2.1c-1.2,0.5-2.7,0.7-4.2,0.7c-1.6,0-3.1-0.4-4.3-1.1c-1.3-0.7-2.2-1.8-2.9-3.2
				c-0.7-1.4-1-3-1.1-4.8v-1.5c0-2.9,0.7-5.2,2.1-6.9c1.4-1.7,3.4-2.5,5.9-2.5c2.2,0,3.9,0.5,5.2,1.6c1.3,1.1,2,2.6,2.3,4.6h-3.3
				c-0.4-2.3-1.7-3.5-4.1-3.5c-1.5,0-2.7,0.5-3.5,1.6c-0.8,1.1-1.2,2.7-1.2,4.8v1.5c0,2.1,0.4,3.7,1.3,4.9c0.9,1.2,2.1,1.7,3.7,1.7
				c1.7,0,3-0.4,3.7-1.2v-3.8h-4v-2.6h7.4V514.4z"/>
		</g>
	</g>
	<g>
		<path d="M176.3,269.2l-11.4-11.4l-9.9-9.9l0,0l-1.5-1.5c-0.7-0.7-1.6-1.1-2.6-1.1h-57c-2.7,0-4.8,2.2-4.8,4.8v71.8v32.5
			c0,2.7,2.2,4.8,4.8,4.8h78.7c2.7,0,4.8-2.2,4.8-4.8v-32.5v-50C177.4,270.8,177,269.9,176.3,269.2z M153.8,268.8v-6.1v-10.5
			l16.6,16.6h-13.2H153.8z M123.4,306.5c-0.3-0.2-0.6-0.3-1-0.3c-1,0-1.8,0.7-1.9,1.7c-0.6,0.1-1.2,0.2-1.8,0.2l-2.2,0
			c0-1.1-0.9-1.9-2-1.9c-1.1,0-1.9,0.9-2,1.9l-4.5,0c0.5-0.8,0.9-1.6,1.2-2.5c0.3,0.3,0.8,0.5,1.3,0.5c1.1,0,2-0.9,2-2s-0.9-2-2-2
			c-0.1,0-0.2,0-0.4,0.1c0.1-0.8,0.2-1.5,0.3-2.1l0.2-1c0-0.3,0.1-0.6,0.2-0.9c0.9-0.1,1.7-0.9,1.7-1.9c0-0.4-0.2-0.8-0.4-1.1
			c0.3-0.5,0.7-0.9,1.2-1.3c0.3,0.2,0.7,0.4,1.2,0.4c1.1,0,2-0.9,2-2c0,0,0-0.1,0-0.1c0.7-0.2,1.4-0.3,2.2-0.3c0.2,0,0.5,0,0.7,0.1
			l0.3,0c0.3,0,0.5,0.1,0.8,0.2c0,0.1,0,0.1,0,0.2c0,1.1,0.9,2,2,2c0.5,0,1-0.2,1.4-0.6c0.4,0.3,0.7,0.6,1,1c0,0,0.1,0.1,0.1,0.1
			c-0.3,0.4-0.6,0.8-0.6,1.4c0,1.1,0.9,2,2,2c0.1,0,0.1,0,0.2,0c0,0.1,0.1,0.2,0.1,0.3l0,0.1c0.1,0.5,0.1,0.9,0.1,1.4
			c0,0.8-0.1,1.5-0.4,2.2c0,0,0,0-0.1,0c-1.1,0-2,0.9-2,2c0,0.4,0.2,0.8,0.4,1.1C124.4,305.7,123.9,306.1,123.4,306.5z M128.3,292.9
			C128.3,292.9,128.3,292.8,128.3,292.9c-1.2-1.6-2.8-2.9-4.6-3.8l4.2-4.2l5.6,5.6l-4.1,4.1C129.1,294,128.7,293.4,128.3,292.9z
			 M136.2,287.7l-5.6-5.6l5.5-5.5c2.9-2.9,9.5-8.4,13.8-10.9v6.8c-2.8,3.8-6.3,7.8-8.2,9.7L136.2,287.7z M173.5,354.3
			c0,0.5-0.4,0.9-0.9,0.9H93.9c-0.5,0-0.9-0.4-0.9-0.9v-28.5h80.5V354.3z M93,321.9v-71.8c0-0.5,0.4-0.9,0.9-0.9H150
			c-0.1,0.2-0.1,0.5-0.1,0.8v11.4c-5.1,2.3-13.8,9.8-16.5,12.6L119.3,288c-0.2,0-0.4,0-0.6,0c-5.8,0-10.7,4.2-11.7,9.9l-0.2,0.1
			l0,1.1c-0.1,1.8-0.6,8-4.6,8.9c-1,0.3-1.7,1.2-1.6,2.3l0.3,1.8h13.7l4.1-0.1c6.6,0,12-5.4,12-12c0-0.4,0-0.8-0.1-1.1l13.8-13.8
			c2.4-2.4,7.1-7.8,10.1-12.3h18.1c0.3,0,0.5,0,0.8-0.1v49.2H93z"/>
		<path d="M112.4,344.2h2.4c1,0,2-0.2,2.8-0.5s1.6-0.7,2.2-1.3c0.6-0.6,1.1-1.2,1.4-2.1c0.3-0.8,0.5-1.7,0.5-2.7
			c0-0.9-0.2-1.8-0.6-2.6c-0.4-0.8-0.9-1.4-1.6-1.9c-0.7-0.5-1.4-0.9-2.2-1.2c-0.8-0.3-1.7-0.4-2.5-0.4h-5.7v19.8h3.2L112.4,344.2
			L112.4,344.2z M112.4,334h2.4c0.8,0,1.5,0.1,2,0.4c0.5,0.3,0.9,0.6,1.2,1c0.3,0.4,0.5,0.8,0.5,1.2c0.1,0.4,0.1,0.8,0.1,1.1
			c0,0.8-0.1,1.5-0.3,2c-0.2,0.5-0.5,1-0.8,1.3c-0.3,0.3-0.7,0.5-1.1,0.7c-0.4,0.1-0.8,0.2-1.2,0.2h-3V334z"/>
		<path d="M130.2,348.9c-0.4,0-0.7,0-1.2-0.1c-0.4-0.1-0.8-0.2-1.2-0.3s-0.8-0.2-1.2-0.4c-0.4-0.1-0.7-0.3-1-0.4l-0.6,2.3
			c0.3,0.3,0.7,0.5,1.1,0.7c0.4,0.2,0.9,0.3,1.3,0.4c0.5,0.1,0.9,0.2,1.4,0.2s0.9,0.1,1.3,0.1c1,0,1.9-0.2,2.7-0.5
			c0.8-0.3,1.4-0.7,2-1.2s1-1.1,1.2-1.8c0.3-0.7,0.4-1.4,0.4-2.1c0-1.1-0.2-1.9-0.6-2.6c-0.4-0.7-0.9-1.2-1.5-1.7
			c-0.6-0.4-1.3-0.8-2-1.1c-0.7-0.3-1.4-0.6-2-1c-0.6-0.3-1.1-0.7-1.5-1.2c-0.4-0.4-0.6-1-0.6-1.7c0-0.3,0.1-0.6,0.2-0.9
			c0.1-0.3,0.3-0.6,0.6-0.8c0.2-0.3,0.5-0.5,0.9-0.6c0.3-0.2,0.7-0.3,1-0.3c0.6-0.1,1.2-0.1,1.6,0c0.4,0,0.7,0.1,1,0.2
			c0.2,0.1,0.4,0.2,0.6,0.3c0.1,0.1,0.3,0.2,0.4,0.2c0,0,0.1-0.1,0.2-0.3c0.1-0.2,0.2-0.4,0.3-0.6c0.1-0.2,0.3-0.5,0.4-0.8
			c0.1-0.3,0.3-0.5,0.4-0.8c-0.5-0.3-1.2-0.6-2-0.7c-0.8-0.2-1.7-0.2-2.5-0.2c-0.8,0-1.6,0.1-2.3,0.4s-1.4,0.6-1.9,1.1
			s-1,1.1-1.3,1.7s-0.5,1.5-0.5,2.3c0,1,0.2,1.8,0.6,2.4c0.4,0.6,0.9,1.2,1.6,1.7s1.3,0.9,2,1.2s1.4,0.7,2,1s1.1,0.7,1.5,1.2
			c0.4,0.4,0.6,0.9,0.6,1.6c0,1-0.3,1.8-0.9,2.3C132.1,348.6,131.3,348.9,130.2,348.9z"/>
		<path d="M148.7,351.2c0.5-0.1,1.1-0.2,1.7-0.4c0.6-0.2,1.3-0.6,1.9-1c0.7-0.4,1.3-1.1,1.8-1.8c0.5-0.8,1-1.7,1.3-2.9
			s0.5-2.5,0.5-4.2c0-1.2-0.2-2.3-0.6-3.5c-0.4-1.1-1-2.1-1.9-3s-1.9-1.6-3.1-2.1c-1.3-0.5-2.7-0.8-4.4-0.8h-6v19.8h7.5
			C147.8,351.3,148.2,351.3,148.7,351.2z M143.3,348.9v-15h1.9c1.5,0,2.8,0.2,3.8,0.6c1,0.4,1.7,0.9,2.3,1.6
			c0.6,0.7,0.9,1.4,1.1,2.2c0.2,0.8,0.3,1.6,0.3,2.4c0,2.6-0.5,4.7-1.4,6.1c-1,1.4-2.5,2.1-4.7,2.1
			C146.5,348.9,143.3,348.9,143.3,348.9z"/>
		<circle cx="118.5" cy="296.3" r="2"/>
		<circle cx="122.4" cy="300.3" r="2"/>
		<circle cx="114.6" cy="300.3" r="2"/>
		<circle cx="118.5" cy="304.2" r="2"/>
	</g>
</g>
</svg>
