<?xml version="1.0" encoding="utf-8"?>
<!-- Generator: Adobe Illustrator 19.2.0, SVG Export Plug-In . SVG Version: 6.00 Build 0)  -->
<svg version="1.1" id="Layer_1" xmlns="http://www.w3.org/2000/svg" xmlns:xlink="http://www.w3.org/1999/xlink" x="0px" y="0px"
	 viewBox="0 0 120 120" style="enable-background:new 0 0 120 120;" xml:space="preserve">
<style type="text/css">
	.st0{fill:none;stroke:#020202;stroke-width:5;stroke-linecap:round;stroke-linejoin:round;stroke-miterlimit:10;}
	.st1{fill:#FFFFFF;stroke:#020202;stroke-width:5;stroke-linecap:round;stroke-linejoin:round;stroke-miterlimit:10;}
</style>
<path class="st0" d="M110.6,44.6v65.5c0,2.9-2.4,5.3-5.3,5.3H14.8c-2.9,0-5.3-2.4-5.3-5.3V45.5L59.7,4.6L110.6,44.6"/>
<path class="st0" d="M2.5,49.5l55.6-44c1-0.8,2.5-0.8,3.5,0l55.9,44"/>
<path class="st1" d="M75.3,115.4V68.3c0-1.9-1.6-3.5-3.5-3.5H47.7c-1.9,0-3.5,1.6-3.5,3.5v47.2L75.3,115.4L75.3,115.4z"/>
<path class="st0" d="M86.3,24.3V11.4c0-1,0.8-1.8,1.8-1.8h8c1,0,1.8,0.8,1.8,1.8v22.2"/>
</svg>
