<svg width="70" height="70" viewBox="0 0 70 70" fill="none" xmlns="http://www.w3.org/2000/svg">
<path fill-rule="evenodd" clip-rule="evenodd" d="M35.0002 63.25C18.8919 63.25 5.8335 50.3782 5.8335 34.5C5.8335 18.6218 18.8919 5.75 35.0002 5.75C51.1085 5.75 64.1668 18.6218 64.1668 34.5C64.1668 50.3782 51.1085 63.25 35.0002 63.25ZM35.0002 60.375C49.4976 60.375 61.2502 48.7904 61.2502 34.5C61.2502 20.2096 49.4976 8.625 35.0002 8.625C20.5027 8.625 8.75016 20.2096 8.75016 34.5C8.75016 48.7904 20.5027 60.375 35.0002 60.375ZM37.9167 51.75V28.75H33.5417V51.75H37.9167ZM33.6426 22.172C34.196 22.724 34.8916 23 35.7292 23C36.5668 23 37.2623 22.7163 37.8157 22.149C38.3691 21.5817 38.6458 20.884 38.6458 20.056C38.6458 19.2587 38.3691 18.5917 37.8157 18.055C37.2623 17.5183 36.5668 17.25 35.7292 17.25C34.8916 17.25 34.196 17.5337 33.6426 18.101C33.0892 18.6683 32.8125 19.3507 32.8125 20.148C32.8125 20.9453 33.0892 21.62 33.6426 22.172Z" fill="url(#paint0_linear)"/>
<defs>
<linearGradient id="paint0_linear" x1="-1.52123" y1="34.6427" x2="34.6173" y2="71.305" gradientUnits="userSpaceOnUse">
<stop stop-color="#20D0EE"/>
<stop offset="0.981733" stop-color="#15E186"/>
</linearGradient>
</defs>
</svg>
