<?xml version="1.0" encoding="utf-8"?>
<!-- Generator: Adobe Illustrator 19.2.0, SVG Export Plug-In . SVG Version: 6.00 Build 0)  -->
<svg version="1.1" id="Layer_1" xmlns="http://www.w3.org/2000/svg" xmlns:xlink="http://www.w3.org/1999/xlink" x="0px" y="0px"
	 width="120px" height="140px" viewBox="0 0 120 140" style="enable-background:new 0 0 120 140;" xml:space="preserve">
<style type="text/css">
	.st0{fill:#0C071F;}
	.st1{fill:#31ACEB;}
</style>
<path class="st0" d="M32.6,107.6H34v10.2h-1.5V107.6z M41,110c1,0,1.8,0.3,2.3,0.9c0.6,0.6,0.9,1.4,0.9,2.5v4.5h-1.4v-4.3
	c0-0.7-0.2-1.3-0.5-1.7c-0.4-0.4-0.9-0.6-1.5-0.6c-0.8,0-1.4,0.2-1.8,0.7c-0.4,0.4-0.7,1.1-0.7,1.9v4h-1.4v-7.7h1.3v1.2
	c0.3-0.4,0.7-0.7,1.1-0.9C39.8,110.1,40.4,110,41,110z M53.5,110.1l-3.4,7.7h-1.4l-3.4-7.7h1.5l2.7,6.2l2.7-6.2H53.5z M61.6,114
	c0,0.1,0,0.2,0,0.4h-6.3c0.1,0.7,0.4,1.2,0.9,1.7c0.5,0.4,1.2,0.6,1.9,0.6c0.9,0,1.7-0.3,2.2-0.9l0.8,0.9c-0.4,0.4-0.8,0.7-1.3,0.9
	c-0.5,0.2-1.1,0.3-1.7,0.3c-0.8,0-1.5-0.2-2.2-0.5c-0.6-0.3-1.1-0.8-1.5-1.4c-0.3-0.6-0.5-1.3-0.5-2c0-0.8,0.2-1.4,0.5-2
	c0.3-0.6,0.8-1.1,1.4-1.4c0.6-0.3,1.3-0.5,2-0.5c0.7,0,1.4,0.2,2,0.5c0.6,0.3,1,0.8,1.4,1.4C61.5,112.5,61.6,113.2,61.6,114z
	 M57.8,111.2c-0.7,0-1.2,0.2-1.7,0.6c-0.4,0.4-0.7,0.9-0.8,1.6h5c-0.1-0.7-0.3-1.2-0.8-1.6C59,111.4,58.5,111.2,57.8,111.2z
	 M65.8,117.9c-0.6,0-1.2-0.1-1.8-0.2c-0.6-0.2-1-0.4-1.4-0.7l0.6-1.1c0.3,0.2,0.8,0.4,1.2,0.6c0.5,0.1,1,0.2,1.5,0.2
	c1.2,0,1.8-0.4,1.8-1.1c0-0.2-0.1-0.4-0.2-0.6c-0.2-0.1-0.4-0.2-0.6-0.3c-0.2-0.1-0.6-0.1-1.1-0.2c-0.6-0.1-1.1-0.2-1.5-0.3
	c-0.4-0.1-0.7-0.3-1-0.6c-0.3-0.3-0.4-0.7-0.4-1.3c0-0.7,0.3-1.3,0.9-1.7c0.6-0.4,1.4-0.6,2.4-0.6c0.5,0,1,0.1,1.5,0.2
	c0.5,0.1,0.9,0.3,1.3,0.5l-0.6,1.1c-0.6-0.4-1.4-0.6-2.2-0.6c-0.6,0-1,0.1-1.4,0.3c-0.3,0.2-0.5,0.5-0.5,0.8c0,0.3,0.1,0.5,0.3,0.6
	c0.2,0.1,0.4,0.3,0.6,0.3c0.3,0.1,0.6,0.1,1.1,0.2c0.6,0.1,1.1,0.2,1.5,0.4c0.4,0.1,0.7,0.3,1,0.6s0.4,0.7,0.4,1.2
	c0,0.7-0.3,1.3-0.9,1.7C67.6,117.7,66.8,117.9,65.8,117.9z M75.2,117.4c-0.2,0.2-0.5,0.3-0.8,0.4c-0.3,0.1-0.6,0.1-0.9,0.1
	c-0.8,0-1.4-0.2-1.8-0.6c-0.4-0.4-0.6-1-0.6-1.8v-4.2h-1.3v-1.2h1.3v-1.7h1.4v1.7h2.2v1.2h-2.2v4.2c0,0.4,0.1,0.7,0.3,1
	c0.2,0.2,0.5,0.3,0.9,0.3c0.4,0,0.8-0.1,1.1-0.4L75.2,117.4z M80,117.9c-0.8,0-1.5-0.2-2.1-0.5c-0.6-0.3-1.1-0.8-1.4-1.4
	c-0.3-0.6-0.5-1.3-0.5-2c0-0.8,0.2-1.4,0.5-2c0.4-0.6,0.8-1.1,1.4-1.4c0.6-0.3,1.3-0.5,2.1-0.5c0.8,0,1.5,0.2,2.1,0.5
	c0.6,0.3,1.1,0.8,1.4,1.4c0.4,0.6,0.5,1.3,0.5,2c0,0.8-0.2,1.4-0.5,2c-0.3,0.6-0.8,1.1-1.4,1.4C81.4,117.8,80.8,117.9,80,117.9z
	 M80,116.7c0.5,0,0.9-0.1,1.3-0.3c0.4-0.2,0.7-0.6,0.9-1c0.2-0.4,0.3-0.9,0.3-1.4c0-0.5-0.1-1-0.3-1.4c-0.2-0.4-0.5-0.7-0.9-1
	c-0.4-0.2-0.8-0.3-1.3-0.3c-0.5,0-0.9,0.1-1.3,0.3c-0.4,0.2-0.7,0.5-0.9,1c-0.2,0.4-0.3,0.9-0.3,1.4c0,0.5,0.1,1,0.3,1.4
	c0.2,0.4,0.5,0.7,0.9,1C79,116.6,79.5,116.7,80,116.7z M87.3,111.4c0.2-0.4,0.6-0.8,1.1-1c0.5-0.2,1.1-0.3,1.7-0.3v1.4
	c-0.1,0-0.2,0-0.3,0c-0.8,0-1.4,0.2-1.8,0.7c-0.4,0.4-0.6,1.1-0.6,1.9v3.9h-1.4v-7.7h1.3V111.4z"/>
<path class="st1" d="M54.7,33.4c7.5,0,13.7-6.2,13.7-13.7C68.4,12.2,62.2,6,54.7,6C47.2,6,41,12.2,41,19.7
	C41,27.2,47,33.4,54.7,33.4z M54.7,7.2c6.9,0,12.5,5.6,12.5,12.5c0,6.9-5.6,12.5-12.5,12.5s-12.5-5.6-12.5-12.5
	C42.2,12.8,47.8,7.2,54.7,7.2z"/>
<path class="st1" d="M87.7,55.2h-8.4v-2.4c0-1.3-1.1-2.3-2.3-2.3h-3.4c-3.5-7-10.8-11.8-19-11.8c-11.8,0-21.2,9.5-21.2,21.2
	c0,1.1,0,11,0,11.2V72h18.8v6.2c0,3.6,2.9,6.5,6.5,6.5h28.9c3.6,0,6.5-2.9,6.5-6.5V61.8C94.2,58.2,91.3,55.2,87.7,55.2z M93,61.8
	v1.9l-16.1,5.9v-1.9c0-1.3-1.1-2.4-2.4-2.4H72c-1.3,0-2.4,1.1-2.4,2.4v1.9l-16.1-5.9v-1.9c0-2.9,2.4-5.3,5.3-5.3h28.9
	C90.6,56.5,93,58.9,93,61.8z M75.7,67.7v5.7c0,0.7-0.5,1.2-1.2,1.2H72c-0.7,0-1.2-0.5-1.2-1.2v-5.7c0-0.7,0.5-1.2,1.2-1.2h2.4
	C75,66.5,75.7,67,75.7,67.7z M78.1,52.8v2.4h-9.8v-2.4c0-0.6,0.5-1.1,1.1-1.1H77C77.6,51.7,78.1,52.2,78.1,52.8z M34.5,70.6
	c0-2.4,0-10.6,0-10.6c0-11,9-20.1,20-20.1c7.4,0,14.1,4.2,17.6,10.6h-2.8c-1.3,0-2.3,1.1-2.3,2.3v2.4h-8.4c-3.6,0-6.5,2.9-6.5,6.5
	v8.9H34.5z M87.7,83.4H58.8c-2.9,0-5.3-2.4-5.3-5.3v-13L69.6,71v2.4c0,1.3,1.1,2.4,2.4,2.4h2.4c1.3,0,2.4-1.1,2.4-2.4V71L93,65.1v13
	C93,81,90.6,83.4,87.7,83.4z"/>
</svg>
