<svg width="64" height="76" viewBox="0 0 64 76" fill="none" xmlns="http://www.w3.org/2000/svg">
<path d="M61.8015 53.6837C56.0162 51.9113 52.128 46.8885 52.128 41.1863C52.128 36.115 55.1541 31.576 60.0279 29.345C60.4695 29.1425 60.8034 28.7742 60.9466 28.3308C61.0914 27.8855 61.0332 27.4052 60.7894 27.0018C60.5898 26.6738 55.7795 18.9715 45.4046 18.9715C41.066 18.9715 36.3741 20.3255 31.4455 22.9967C29.3946 21.8352 24.3934 19.3599 19.0356 19.3599C16.1879 19.3599 13.63 20.0595 11.4324 21.4385C9.83371 22.2821 -5.8302 31.2814 2.35252 55.3591C2.59279 55.898 8.30213 68.5711 15.0804 73.3277C15.6156 73.7863 17.8379 75.5034 21.1183 75.5034C23.1322 75.5034 25.1407 74.8675 27.0892 73.6139C27.7076 73.3745 30.3715 72.4072 33.2156 72.4072C35.0527 72.4072 36.5861 72.8106 37.7962 73.6256C37.9252 73.7093 40.9866 75.6675 44.5603 75.6675C46.8851 75.6675 48.966 74.834 50.5842 73.2558C51.4621 72.5343 59.0053 66.1325 62.9287 56.0185C63.0153 55.7959 63.0382 55.3976 63.0206 55.1616C62.9675 54.477 62.4853 53.8945 61.8015 53.6837ZM48.224 70.7585C48.1781 70.7971 48.1304 70.8373 48.0879 70.8808C47.1181 71.8481 45.9629 72.3168 44.5602 72.3168C42.103 72.3168 39.8171 70.8775 39.8153 70.8775C38.0205 69.6691 35.8 69.0565 33.2137 69.0565C29.2073 69.0565 25.6583 70.5461 25.51 70.6096C25.4093 70.6515 25.3121 70.7051 25.222 70.7636C23.8282 71.6859 22.4486 72.1527 21.1184 72.1527C18.9137 72.1527 17.4599 70.8506 17.4564 70.849C17.391 70.787 17.3221 70.7318 17.248 70.68C11.2259 66.5192 5.66656 54.1907 5.65945 54.1907C-1.89774 31.9358 12.5278 24.6587 13.139 24.3641C13.2061 24.3323 13.2714 24.2955 13.3333 24.2553C14.9514 23.226 16.8699 22.7038 19.0322 22.7038C24.7628 22.7038 30.3503 26.2956 30.4069 26.3323C30.9775 26.7039 31.7283 26.7256 32.3218 26.3859C37.0366 23.6845 41.4371 22.3155 45.3993 22.3155C51.3578 22.3155 55.0057 25.4151 56.6646 27.288C51.6371 30.3107 48.5898 35.4757 48.5898 41.1828C48.5898 47.7721 52.7164 53.6351 59.0265 56.2595C55.1348 65.1166 48.2965 70.7 48.224 70.7585ZM30.9703 20.1515C31.0091 20.1515 31.0498 20.1498 31.0905 20.1465C31.2707 20.1348 49.0101 18.7942 48.0491 1.58541C48.0227 1.12683 47.8 0.696735 47.4308 0.400411C47.0599 0.102429 46.5758 -0.041489 46.0972 0.0104189C45.9399 0.0272011 30.2796 1.81471 29.2073 18.3758C29.1755 18.8561 29.3646 19.3264 29.7267 19.6661C30.057 19.9774 30.5057 20.1515 30.9703 20.1515ZM44.532 3.73432C44.0922 12.8877 36.7168 15.6593 32.9718 16.4777C34.4398 7.57873 41.1508 4.65315 44.532 3.73432Z" fill="#3F58BA"/>
</svg>
