<?xml version="1.0" encoding="utf-8"?>
<!-- Generator: Adobe Illustrator 19.2.0, SVG Export Plug-In . SVG Version: 6.00 Build 0)  -->
<svg version="1.1" id="Layer_1" xmlns="http://www.w3.org/2000/svg" xmlns:xlink="http://www.w3.org/1999/xlink" x="0px" y="0px"
	 viewBox="0 0 120 120" style="enable-background:new 0 0 120 120;" xml:space="preserve">
<style type="text/css">
	.st0{fill:none;}
	.st1{fill:none;stroke:#020202;stroke-width:5;stroke-linecap:round;stroke-linejoin:round;stroke-miterlimit:10;}
</style>
<rect x="14" y="59.2" class="st0" width="91.8" height="42.6"/>
<polygon class="st1" points="88,15.9 92.2,24.3 101.4,25.6 94.7,32.2 96.3,41.4 88,37 79.7,41.4 81.3,32.2 74.6,25.6 83.9,24.3 "/>
<path class="st1" d="M13.7,117.5v-97c0-12.5,5.5-18,12.2-18l0,0C32.6,2.5,38,8,38,14.7v5"/>
<polyline class="st1" points="27.7,26.8 27.7,19.8 48.5,19.8 48.5,36.3 "/>
<circle class="st1" cx="27.4" cy="33.6" r="5.5"/>
<circle class="st1" cx="48.1" cy="41.8" r="5.5"/>
<line class="st1" x1="106.3" y1="58.2" x2="106.3" y2="117.5"/>
<line class="st1" x1="15.1" y1="59.5" x2="104.9" y2="59.5"/>
<line class="st1" x1="15.1" y1="102.3" x2="104.9" y2="102.3"/>
<line class="st1" x1="25.2" y1="60.4" x2="25.2" y2="101.3"/>
<line class="st1" x1="36.8" y1="60.4" x2="36.8" y2="101.3"/>
<line class="st1" x1="48.4" y1="60.4" x2="48.4" y2="101.3"/>
<line class="st1" x1="60" y1="60.4" x2="60" y2="101.3"/>
<line class="st1" x1="71.6" y1="60.4" x2="71.6" y2="101.3"/>
<line class="st1" x1="83.2" y1="60.4" x2="83.2" y2="101.3"/>
<line class="st1" x1="94.8" y1="60.4" x2="94.8" y2="101.3"/>
<path class="st1" d="M82.5,36.2"/>
<line class="st1" x1="88" y1="58.9" x2="88" y2="37"/>
</svg>
