<?xml version="1.0" encoding="utf-8"?>
<!-- Generator: Adobe Illustrator 22.1.0, SVG Export Plug-In . SVG Version: 6.00 Build 0)  -->
<svg version="1.1" id="Layer_1" xmlns="http://www.w3.org/2000/svg" xmlns:xlink="http://www.w3.org/1999/xlink" x="0px" y="0px"
	 width="150px" height="150px" viewBox="0 0 150 150" style="enable-background:new 0 0 150 150;" xml:space="preserve">
<style type="text/css">
	.st0{fill:#4CCCFC;}
	.st1{fill:#EAC2A7;}
	.st2{fill:#3867B3;}
	.st3{fill:#2E3543;}
	.st4{fill:#373463;}
	.st5{fill:#FFFFFF;}
	.st6{fill:#D98349;}
	.st7{fill:#E2E2E2;}
	.st8{fill:#E2452D;}
	.st9{fill:#1C3860;}
</style>
<g id="Group-10-Copy-10">
	<path id="Combined-Shape" class="st0" d="M77.6,44.5L62.2,70.6l32.9,14.4l15.3-26.1L77.6,44.5z M80.2,40l32.9,14.4L126.2,32
		c0.7-1.2,2.3-1.6,3.6-0.9c1.2,0.7,1.7,2.3,0.9,3.5L69.2,139.1c-0.7,1.2-2.3,1.6-3.6,0.9c-1.2-0.7-1.7-2.3-0.9-3.5l9.4-15.9
		l-32.9-14.4l-9.8,16.7c-0.7,1.2-2.3,1.6-3.6,0.9c-1.2-0.7-1.6-2.3-0.9-3.6L56,71c0-0.1,0.1-0.2,0.1-0.3c0.1-0.3,0.3-0.6,0.6-0.9
		l31.7-53.8c0.7-1.2,2.3-1.6,3.6-0.9c1.2,0.7,1.6,2.3,0.9,3.6L80.2,40z M59.6,75.2l-15.7,26.5l32.9,14.4l15.6-26.5L59.6,75.2z"/>
</g>
<polygon id="Path" class="st1" points="47.5,97.8 37.7,123.2 34.5,121.8 38.8,100.2 "/>
<polygon id="Path_1_" class="st1" points="74.9,90.1 67.6,113.3 63.8,113.6 67.2,91.9 "/>
<polygon id="Path_2_" class="st2" points="74.9,89.9 38.8,100.2 44.5,69.3 58.4,67.1 "/>
<path id="Path_3_" class="st3" d="M55.8,39.3L53,27c-1.1-4.9-6-8-11-6.9s-8.1,6-6.9,11l2.8,12.3c1.1,4.9,6,8.1,11,6.9
	C53.8,49.2,57,44.2,55.8,39.3z"/>
<path id="Path_4_" class="st1" d="M48,23.5l5.5,7.4c0.4,0.2,0.4,0.9-0.2,1l-1.5,0.4l0.8,3.5c0.2,1.1-0.4,2.2-1.6,2.5l-2.1,0.2
	c-0.7,0.1-1.2,0.9-0.9,1.6l0.4,2.3c0.6,2.3-2,4.5-4.7,2.3l-0.8-3.4l-2.2-9.8c-0.5-2.2,0.2-7,2.4-7.4L48,23.5z"/>
<path id="Shape" class="st4" d="M52,29.5c0.3-0.4,0.5-0.9,0.4-1.5s-0.3-1-0.8-1.4c-0.4-0.3-0.9-0.5-1.5-0.4
	c-1.1,0.2-1.9,1.3-1.7,2.4c0.1,0.6,0.3,1,0.8,1.4c0.4,0.3,0.9,0.5,1.5,0.4c0,0,0.1,0,0.2,0C51.5,30.2,51.8,30,52,29.5z M49.2,28.6
	c-0.1-0.8,0.5-1.4,1.1-1.5c0.3-0.1,0.7,0.1,0.9,0.3c0.3,0.2,0.5,0.5,0.5,0.8c0.1,0.3-0.1,0.7-0.3,0.9c-0.2,0.3-0.5,0.5-0.8,0.5
	s-0.7-0.1-0.9-0.3C49.5,29.2,49.3,29,49.2,28.6z"/>
<path id="Shape_1_" class="st4" d="M48,29c-0.2-1.1-1.3-1.8-2.4-1.5c-1.1,0.3-1.8,1.3-1.5,2.4c0.2,1.1,1.3,1.8,2.4,1.5
	C47.7,31.1,48.2,30,48,29z M47.3,29.1c0.2,0.6-0.3,1.4-0.9,1.6s-1.4-0.3-1.6-0.9s0.3-1.4,0.9-1.6C46.5,28,47.2,28.5,47.3,29.1z"/>
<path id="Path_5_" class="st3" d="M37.7,26.1l1.9-4.1l9.6-0.8l2.4,3.1l-1.3,1.3c0,0-3-0.3-4-2.4c0.2,5.3-5.5,7.1-5.5,7.1L37.7,26.1z
	"/>
<path id="Path_6_" class="st5" d="M47.2,34l4.1-0.9c0.2,1.1-0.5,2.3-1.6,2.5C48.7,35.8,47.5,35.2,47.2,34z"/>
<path id="Path_7_" class="st6" d="M73.8,115.1c-1-0.2-2.6,0.1-4.2-0.7c-0.9-0.4-1.7-1-1.8-1.1l-4.5,0.3c-0.1,0.4-0.1,1.2-0.1,1.8
	c0.1,0.9,0.1,1.6,0.2,2c0,0.3,0.2,0.5,0.5,0.4l2.2-0.2l0.8-0.4c0,0,3,0.3,5,0.1c2.2-0.2,2.8-1,2.8-1S74.8,115.2,73.8,115.1z"/>
<polygon id="Path_8_" class="st5" points="41.7,61 37,76.3 41.3,77.7 45,68.4 "/>
<path id="Path_9_" class="st7" d="M52.8,44l3.5,2.4c1.3,0.9,2.1,2.4,2.1,3.9l0.1,17l-13.9,2.4l-4.6-16.9c-0.4-1.8-0.2-3.6,0.6-5.2
	l2.2-4.6L52.8,44z"/>
<g id="Group_1_" transform="translate(17.299843, 22.017982)">
	<path id="Path_10_" class="st8" d="M35.5,23.4l1.1,12.8l3,3.8c0.3,0.4,0.9,0.2,0.9-0.3l-0.2-5.2l-3.8-11.2L35.5,23.4z"/>
	<path id="Path_11_" class="st8" d="M36.8,19.6l-1.9,0.3l0.8,3.5l0.8-0.2c0.3-0.1,0.6-0.3,0.7-0.6l0.6-2
		C37.8,20.1,37.3,19.6,36.8,19.6z"/>
</g>
<path id="Path_12_" class="st6" d="M42.5,128.4c-0.8-0.7-2.3-1.3-3.3-2.8c-0.6-0.8-1-1.7-1-1.9l-4.2-2.1c-0.2,0.3-0.7,1-0.9,1.5
	c-0.4,0.9-0.7,1.4-0.9,1.8c-0.2,0.2-0.1,0.5,0.2,0.6l2,1l0.9,0.1c0,0,2.4,1.8,4.3,2.8c2,1,2.9,0.6,2.9,0.6S43.2,129.1,42.5,128.4z"
	/>
<path id="Path_13_" class="st5" d="M65.1,70.3L51.8,60.2l-1.5-11.1c-0.3-2.2-2.4-3.8-4.5-3.4c-2.4,0.4-3.9,2.8-3.1,5.1l3.9,12
	c0.6,1.7,1.7,3,3.1,3.9l13.2,7.4L65.1,70.3z"/>
<polygon id="Path_14_" class="st5" points="52.5,44.2 54,41 42.7,40.2 42.8,42.8 "/>
<ellipse id="Oval" class="st1" cx="65.9" cy="73.6" rx="2.9" ry="2.9"/>
<ellipse id="Oval_1_" class="st1" cx="38.3" cy="79.2" rx="2.9" ry="2.9"/>
<polygon id="Path_15_" class="st7" points="62.8,68.6 60.2,72.7 62.8,74.2 65.3,70.3 "/>
<circle id="Oval_2_" class="st2" cx="61.7" cy="72.2" r="1"/>
<polygon id="Path_16_" class="st7" points="42.5,75.2 37.7,73.7 36.7,76.7 41.2,78.2 "/>
<ellipse id="Oval_3_" class="st2" cx="38.5" cy="75.1" rx="1" ry="1"/>
<polygon id="Path_17_" class="st9" points="67.2,92.2 50.5,77.2 64.9,92.8 "/>
</svg>
