<svg width="180" height="50" viewBox="0 0 180 50" fill="none" xmlns="http://www.w3.org/2000/svg">
<g clip-path="url(#clip0)">
<path d="M142.659 37.6386C142.659 39.2705 142.012 40.8355 140.859 41.9894C139.706 43.1434 138.143 43.7916 136.513 43.7916C134.883 43.7916 133.319 43.1434 132.166 41.9894C131.014 40.8355 130.366 39.2705 130.366 37.6386V21.5002H124.896V37.6386C124.896 40.7227 126.12 43.6804 128.298 45.8612C130.477 48.042 133.432 49.2672 136.512 49.2672C139.593 49.2672 142.548 48.042 144.726 45.8612C146.905 43.6804 148.129 40.7227 148.129 37.6386V21.5002H142.659V37.6386Z" fill="#57B952"/>
<path d="M170.045 35.9562H162.024V26.9753H170.045C171.235 26.9753 172.376 27.4484 173.217 28.2905C174.058 29.1326 174.531 30.2748 174.531 31.4657C174.531 32.6567 174.058 33.7989 173.217 34.641C172.376 35.4831 171.235 35.9562 170.045 35.9562ZM170.045 21.5H156.554V47.8365H162.024V41.4315H170.045C172.685 41.4315 175.217 40.3815 177.084 38.5126C178.951 36.6436 180 34.1088 180 31.4657C180 28.8227 178.951 26.2878 177.084 24.4189C175.217 22.55 172.685 21.5 170.045 21.5Z" fill="#57B952"/>
<path d="M101.096 20.1438L110.32 20.1432C109.433 22.3593 107.829 24.2135 105.765 25.4093C102.984 27.0153 98.6185 26.5827 95.4616 25.642C93.4596 25.0441 90.3866 23.7559 87.4152 22.511C84.165 21.1487 81.094 19.861 78.8138 19.1811C76.1723 18.3933 69.4623 16.8844 64.2138 19.9199C62.3821 20.9784 60.7767 22.3877 59.4892 24.0674C58.2017 25.747 57.2572 27.664 56.7098 29.7091C56.1625 31.7541 56.0228 33.887 56.2989 35.986C56.575 38.0851 57.2614 40.1091 58.3189 41.9426C60.0293 44.9075 62.638 47.2504 65.7674 48.632C68.8967 50.0135 72.3842 50.3619 75.7245 49.6267C79.0649 48.8916 82.0848 47.111 84.3467 44.5429C86.6086 41.9748 87.9951 38.7526 88.3054 35.343L88.579 32.3554H72.9158V37.8307H82.1406C81.5114 39.407 80.5148 40.8098 79.2339 41.9221C77.953 43.0345 76.425 43.8241 74.7773 44.2251C73.1296 44.626 71.41 44.6268 69.7619 44.2272C68.1139 43.8277 66.5851 43.0394 65.3033 41.9281C64.0215 40.8169 63.0236 39.4149 62.3931 37.8392C61.7626 36.2634 61.5176 34.5595 61.6786 32.8697C61.8396 31.1799 62.4019 29.5531 63.3186 28.1251C64.2354 26.6971 65.48 25.5092 66.9485 24.6606C69.7312 23.0536 74.0958 23.4872 77.2517 24.4289C79.249 25.0242 82.322 26.3125 85.3246 27.5709C88.565 28.9285 91.6255 30.2105 93.899 30.8893C96.5404 31.6776 103.25 33.1839 108.499 30.1505C110.731 28.858 112.62 27.0492 114.01 24.8756C115.399 22.7019 116.248 20.2267 116.486 17.6571L116.762 14.668L101.096 14.6685V20.1438Z" fill="#636466"/>
<path d="M5.46952 21.4998H0V47.8363H17.4379V42.361H5.46952V21.4998Z" fill="#636466"/>
<path d="M27.492 47.8363H46.1224V42.361H32.9615V37.4059H46.1224V31.9306H32.9615V26.975H46.1224V21.4998H27.492V47.8363Z" fill="#636466"/>
<path d="M89.8112 16.1222C89.8112 14.0165 90.4348 11.9581 91.6034 10.2073C92.772 8.45652 94.433 7.09194 96.3763 6.28615C98.3197 5.48037 100.458 5.26957 102.521 5.68043C104.584 6.09128 106.479 7.10533 107.966 8.59433L108.182 8.80929L112.049 4.93684L111.834 4.72187C109.581 2.4672 106.712 0.931769 103.588 0.309741C100.464 -0.312286 97.2256 0.00703395 94.2829 1.22732C91.3401 2.4476 88.825 4.51405 87.0555 7.16532C85.2859 9.81659 84.3415 12.9336 84.3417 16.1222V16.4264H89.8112V16.1222Z" fill="#636466"/>
</g>
<defs>
<clipPath id="clip0">
<rect width="180" height="50" fill="white"/>
</clipPath>
</defs>
</svg>
