<?xml version="1.0" encoding="utf-8"?>
<!-- Generator: Adobe Illustrator 22.1.0, SVG Export Plug-In . SVG Version: 6.00 Build 0)  -->
<svg version="1.1" id="Layer_1" xmlns="http://www.w3.org/2000/svg" xmlns:xlink="http://www.w3.org/1999/xlink" x="0px" y="0px"
	 width="150px" height="150px" viewBox="0 0 150 150" style="enable-background:new 0 0 150 150;" xml:space="preserve">
<style type="text/css">
	.st0{fill:#E2C36D;}
	.st1{fill:#FFDBA6;}
	.st2{fill:none;stroke:#2E3543;stroke-width:2;}
	.st3{fill:#2E3543;}
	.st4{fill:#EAC2A7;}
	.st5{fill:#373463;}
	.st6{fill:#F6C167;}
	.st7{fill:#F89937;}
	.st8{fill:#F5E622;}
	.st9{fill:#F68D2E;}
	.st10{fill:#7A8291;}
	.st11{fill:#090A0A;}
</style>
<polygon id="Fill-21" class="st0" points="114.8,111 109.2,142.6 90.4,142.6 84.4,111 "/>
<polygon id="Fill-21_1_" class="st1" points="114.9,107.9 109.4,139.5 90.5,139.4 84.6,107.8 "/>
<path id="Path-6" class="st2" d="M53,16.5"/>
<path id="Path" class="st3" d="M77.7,98.4l9.2-4.8c3.8-1.8,5.2-6.5,3.2-10.2c-1.8-3.8-6.5-5.2-10.2-3.2L70.8,85
	c-3.8,1.8-5.2,6.5-3.2,10.2C69.3,98.8,73.9,100.3,77.7,98.4z"/>
<path id="Path_1_" class="st4" d="M88.8,89L84,94.8c-0.1,0.4-0.6,0.5-0.8,0.1l-0.6-1.1L80,95.1c-0.7,0.4-1.8,0.2-2.2-0.7l-0.6-1.7
	c-0.2-0.6-0.9-0.7-1.4-0.4L74,93.2c-1.7,1-4.2-0.7-2.8-3.2l2.5-1.2L81,85c1.7-0.8,5.6-1.2,6.5,0.4L88.8,89z"/>
<path id="Shape" class="st5" d="M84.7,93.5c0.4,0.2,0.8,0.2,1.2,0c0.5-0.2,0.7-0.5,0.9-0.9c0.2-0.4,0.2-0.8,0-1.2
	c-0.4-0.8-1.3-1.2-2.2-0.8c-0.5,0.2-0.7,0.5-0.9,0.9c-0.2,0.4-0.2,0.8,0,1.2c0,0,0,0.1,0.1,0.1C83.9,93.1,84.3,93.5,84.7,93.5z
	 M84.9,91c0.6-0.2,1.2,0.1,1.4,0.6c0.2,0.2,0.1,0.6,0,0.8c-0.1,0.2-0.3,0.5-0.6,0.6c-0.2,0.2-0.6,0.1-0.8,0
	c-0.2-0.1-0.5-0.3-0.6-0.6c-0.2-0.2-0.1-0.6,0-0.8C84.4,91.4,84.5,91.1,84.9,91z"/>
<path id="Shape_1_" class="st5" d="M84.4,90.1c0.7-0.4,1.2-1.4,0.7-2.2c-0.4-0.7-1.4-1.2-2.2-0.7c-0.8,0.5-1.2,1.4-0.7,2.2
	C82.5,90.2,83.5,90.5,84.4,90.1z M84,89.5c-0.5,0.2-1.2,0-1.4-0.5s0-1.2,0.5-1.4c0.5-0.2,1.2,0,1.4,0.5C84.8,88.7,84.6,89.3,84,89.5
	z"/>
<path id="Path_2_" class="st3" d="M83.8,81.6l3.7,0.7l2.6,7.5l-1.9,2.5l-1.4-0.8c0,0-0.3-2.4,1.1-3.8c-4.3,1.2-6.6-3-6.6-3
	L83.8,81.6z"/>
<polygon id="Fill-5" class="st3" points="86.7,66.4 84.1,66.4 84.1,45.9 86.7,45.9 "/>
<path id="Fill-7" class="st6" d="M76.5,33.4L76.5,33.4l8.1-8.1l8.1,8.1l0,0c1.9,1.9,3,4.8,3,7.7c-0.1,6.2-5,11.1-11.2,11.1
	c-6.2,0-11.1-5-11.1-11.1C73.5,38.1,74.7,35.5,76.5,33.4"/>
<path id="Fill-8" class="st7" d="M80.6,36.9L80.6,36.9l4-4l4,4l0,0c0.9,1,1.5,2.3,1.5,3.8c0,3-2.5,5.5-5.5,5.5c-3,0-5.5-2.5-5.5-5.5
	C79.1,39.2,79.7,37.9,80.6,36.9"/>
<path id="Fill-9" class="st7" d="M88.4,29.3L88.4,29.3l1.2-1.9l1.2,1.9l0,0c0.2,0.2,0.5,0.7,0.5,1.1c0,0.8-0.7,1.6-1.6,1.6
	c-0.8,0-1.6-0.7-1.6-1.6C88,29.9,88.2,29.5,88.4,29.3"/>
<path id="Path_3_" class="st8" d="M88.7,106.3l-9,0.8l-5.5-9.8l-2.3-9.5c-0.2-0.8,0.2-1.7,1.1-2.1l9-5.5c2-0.8,3.4-2.7,3.7-4.9
	l1.7-13.9L83,61.7l-2.2,13l-33.9,16c-6.7,3.7-7.8,10.6-7.1,15.7l28.7-5.3l6.8,9c1,1.3,2.7,1.9,4.3,1.7l9.8-1.8L88.7,106.3z"/>
<circle id="Oval" class="st4" cx="90.4" cy="108.3" r="3"/>
<circle id="Oval_1_" class="st4" cx="85.3" cy="59.9" r="3"/>
<path id="Path_4_" class="st9" d="M72.1,95.2l1.4-0.3l-0.2-0.4l-1.4,0.3c-1.4,0.3-3-0.6-3.2-2c-0.3-1.4,0.6-3,2-3.2l1.4-0.3
	l-0.2-0.5L70.4,89c-1.7,0.5-2.8,2.2-2.4,4.1C68.6,94.7,70.4,95.8,72.1,95.2z"/>
<path id="Path_5_" class="st4" d="M57.7,120.6l4.7,4.1c3,3.3,2,9.7-3.2,9.7L37,133.7l-0.2-4.1l17-0.9L57.7,120.6z"/>
<path id="Path_6_" class="st4" d="M68,109.4l3.9,20.8l3.9-0.2l-0.9-24.2c-0.1-2.4-1.6-4.7-3.9-5.5l-0.8-0.4L68,109.4z"/>
<path id="Path_7_" class="st10" d="M72.6,101.2c0,0-3.7,15.1-8.4,22.4c-4.8,7.2-10.4,5.1-10.4,5.1s-7.4-8.8-9.8-12.3
	c-4-5.8-4.2-9.9-4.2-9.9l26.7-6.8c1.7-0.5,3.8-0.2,5.3,0.7L72.6,101.2z"/>
<path id="Path_8_" class="st11" d="M81.4,132.9c0,0-0.5,0.6-2.3,0.6s-4.3-0.5-4.3-0.5l-0.7,0.4h-1.8c-0.2,0-0.4-0.2-0.4-0.4
	c0-0.4,0-1,0-1.7c0-0.6,0.1-1.2,0.2-1.5h4c0.1,0.1,0.8,0.6,1.5,1c1.3,0.7,2.7,0.6,3.5,0.7C81.5,131.9,81.4,132.9,81.4,132.9z"/>
<path id="Path_9_" class="st11" d="M35,139.5c0,0-0.6-0.4-0.7-2.2c-0.2-1.8,0.2-4.3,0.2-4.3l-0.5-0.7l-0.2-2c0-0.2,0.2-0.4,0.4-0.4
	c0.4,0,1-0.1,1.7-0.2c0.6-0.1,1.2,0,1.5,0.1l0.3,4c-0.1,0.1-0.5,0.9-0.8,1.6c-0.6,1.4-0.3,2.7-0.5,3.7C36,139.6,35,139.5,35,139.5z"
	/>
</svg>
