<svg width="164" height="138" viewBox="0 0 164 138" fill="none" xmlns="http://www.w3.org/2000/svg">
<path d="M115.775 136.561H111.282V10.0832C111.282 8.76799 112.268 7.672 113.474 7.672C114.679 7.672 115.666 8.76799 115.666 10.0832V136.561H115.775Z" fill="#747475"/>
<path d="M162.902 81.1035L152.162 69.486C151.066 68.2804 148.326 68.7188 148.326 70.1435L148.216 72.1163L74.0175 68.2804C72.7023 68.1708 71.6063 68.938 71.6063 69.8148L70.8391 84.501C70.8391 85.3778 71.8255 86.2546 73.1407 86.2546L147.339 90.0906L147.23 92.0634C147.12 93.4882 149.751 94.2554 151.066 93.1594L162.902 82.7474C163.341 82.3091 163.341 81.6515 162.902 81.1035Z" fill="#D87260"/>
<path d="M162.902 51.8403L151.613 40.7708C150.407 39.5652 147.777 40.2228 147.777 41.6475V43.6203H73.4687C72.1535 43.6203 71.0575 44.3875 71.0575 45.2643V59.9506C71.0575 60.8274 72.1535 61.5946 73.4687 61.5946H147.777V63.5674C147.777 64.9922 150.407 65.5402 151.613 64.4442L162.902 53.3747C163.45 53.0459 163.45 52.3883 162.902 51.8403Z" fill="#E8A4C6"/>
<path d="M162.026 13.8095L148.984 4.93196C147.559 3.94557 145.148 5.04156 145.367 6.46635L145.696 8.43914L72.4834 21.2622C71.1682 21.4814 70.2914 22.3582 70.401 23.3446L72.9218 37.8117C73.0313 38.6885 74.237 39.2365 75.5522 39.0173L148.874 26.1942L149.203 28.167C149.422 29.5918 152.162 29.7014 153.148 28.3862L162.355 15.5631C162.793 14.9055 162.683 14.2479 162.026 13.8095Z" fill="#77C54F"/>
<path d="M162.793 114.531L153.587 101.708C152.6 100.393 149.86 100.502 149.641 101.927L149.312 103.9L76.1002 90.9672C74.785 90.748 73.689 91.296 73.4698 92.1728L70.949 106.64C70.8394 107.517 71.7162 108.503 73.0314 108.722L146.244 121.655L145.915 123.628C145.696 125.052 148.216 126.039 149.532 125.162L162.574 116.285C163.122 115.737 163.231 115.079 162.793 114.531Z" fill="#EFBA2C"/>
<path d="M83.8819 81.213L84.2107 75.0754C84.5395 75.0754 85.5259 75.0754 85.9643 75.185C87.8275 75.2946 88.2658 76.281 88.2658 77.2674C88.1562 78.3634 87.3891 79.2402 85.8547 79.1306C85.6355 79.1306 85.3067 79.1306 85.0875 79.021L84.9779 81.213H83.8819ZM85.3067 76.0618L85.1971 77.925C85.4163 77.925 85.7451 78.0346 85.9643 78.0346C86.6219 78.0346 87.1698 77.8154 87.1698 77.0482C87.1698 76.3906 86.841 76.0618 86.0738 76.0618C85.8547 76.1714 85.5259 76.1714 85.3067 76.0618Z" fill="white"/>
<path d="M92.7584 75.4042C94.6216 75.5138 95.9368 76.829 95.8272 78.8018C95.7176 80.665 94.2928 81.8705 92.4296 81.8705C90.5664 81.7609 89.2512 80.4458 89.3608 78.473C89.4704 76.6098 90.7856 75.2946 92.7584 75.4042ZM92.4296 80.7746C93.7448 80.8842 94.512 79.8978 94.6216 78.6922C94.7312 77.377 93.8544 76.5002 92.6488 76.3906C91.4432 76.281 90.5664 77.1578 90.4568 78.473C90.4568 79.6786 91.3336 80.665 92.4296 80.7746Z" fill="white"/>
<path d="M103.169 82.1995H102.183L100.868 77.5963L99.2239 81.9803H98.1279L96.7032 75.7332H97.9088L98.8951 80.2267L100.539 75.8427L101.526 75.9523L102.731 80.4459L104.156 76.062L105.252 76.1715L103.169 82.1995Z" fill="white"/>
<path d="M106.568 76.1714L110.185 76.3906L110.076 77.377L107.664 77.2674L107.555 78.8018L109.747 78.9114V79.8978L107.445 79.7882V81.4321L109.966 81.5418V82.5281L106.24 82.4185L106.568 76.1714Z" fill="white"/>
<path d="M111.72 82.6378L112.048 76.5002C112.377 76.5002 113.802 76.6098 113.912 76.6098C115.556 76.7194 116.104 77.5962 116.104 78.5826C115.994 79.6786 115.336 80.117 114.788 80.3362L116.542 82.9666L115.227 82.857L113.692 80.4458H112.925L112.816 82.7474L111.72 82.6378ZM113.144 77.5962L113.035 79.4594H113.692C114.35 79.4594 114.898 79.2402 114.898 78.5826C114.898 78.1442 114.679 77.7058 113.802 77.5962C113.692 77.5962 113.364 77.5962 113.144 77.5962Z" fill="white"/>
<path d="M118.295 76.8291L119.391 76.9387L121.363 79.8979L123.555 77.0483L124.542 77.1579L124.213 83.2954H123.117L123.446 78.8019L121.363 81.4323H121.144L119.281 78.5827L119.062 83.0762L117.966 82.9666L118.295 76.8291Z" fill="white"/>
<path d="M126.735 77.2673L130.242 77.4865V78.4729L127.721 78.3633V79.8977L129.913 80.0073L129.804 80.9937L127.612 80.8841L127.502 82.5281L130.133 82.6377L130.023 83.6241L126.406 83.4049L126.735 77.2673Z" fill="white"/>
<path d="M136.27 83.9529L133.092 79.4594L132.873 83.7337H131.886L132.215 77.5962H133.092L136.27 82.0898L136.489 77.8154H137.476L137.147 83.9529H136.27Z" fill="white"/>
<path d="M138.899 77.925L143.941 78.1442V79.1306H141.858L141.639 84.2818L140.543 84.1722L140.872 79.021L138.79 78.9114L138.899 77.925Z" fill="white"/>
<path d="M94.4017 26.7423L96.9225 26.3039L97.3609 28.8246C96.9225 29.4822 95.9361 29.9206 95.2785 30.0302C93.3057 30.359 91.8809 29.3726 91.5521 27.3999C91.2233 25.6463 92.2097 24.0023 94.0729 23.6735C94.9497 23.5639 95.6073 23.6735 96.1553 23.8927L95.8265 24.7695C95.4977 24.5503 94.9497 24.4407 94.4017 24.5503C93.1961 24.7695 92.5385 25.6463 92.7577 27.0711C92.9769 28.3863 93.9633 29.0438 95.1689 28.8246C95.6073 28.715 96.1553 28.4959 96.3745 28.1671L96.1553 27.1807L94.7305 27.3999L94.4017 26.7423Z" fill="white"/>
<path d="M99.1144 29.263L98.0184 23.1254C98.3472 23.0158 99.6624 22.7966 99.8816 22.7966C101.526 22.4678 102.183 23.235 102.402 24.331C102.622 25.427 101.964 25.975 101.526 26.3038L103.827 28.4958L102.512 28.715L100.43 26.7422L99.6624 26.8518L100.101 29.1534L99.1144 29.263ZM99.3336 24.0022L99.6624 25.8654L100.32 25.7558C100.978 25.6462 101.416 25.2078 101.306 24.6598C101.197 24.2214 100.868 23.783 99.9912 24.0022C99.8816 23.8926 99.6624 23.8926 99.3336 24.0022Z" fill="white"/>
<path d="M106.677 21.591C108.54 21.2622 110.074 22.2486 110.403 24.2214C110.732 26.0846 109.636 27.6189 107.773 27.9477C105.91 28.2765 104.375 27.2902 104.047 25.3174C103.718 23.4542 104.814 21.9198 106.677 21.591ZM107.663 26.8517C108.978 26.6325 109.526 25.5366 109.307 24.331C109.088 23.1254 107.992 22.3582 106.896 22.5774C105.691 22.7966 105.033 23.783 105.252 25.0982C105.362 26.3038 106.458 27.0709 107.663 26.8517Z" fill="white"/>
<path d="M118.404 25.8654L117.417 26.0846L115.116 21.9198L114.458 26.523L113.472 26.7422L110.622 20.9335L111.828 20.7143L113.801 24.879L114.349 20.2759L115.445 20.0567L117.527 24.2214L118.075 19.6183L119.061 19.5087L118.404 25.8654Z" fill="white"/>
<path d="M119.611 19.3989L124.652 18.5221L124.762 19.5085L122.789 19.8373L123.776 24.8788L122.68 25.098L121.803 20.0565L119.83 20.3853L119.611 19.3989Z" fill="white"/>
<path d="M130.46 21.0429L127.72 21.5909L128.158 24.1117L127.062 24.3309L125.966 18.1933L127.062 18.0837L127.501 20.4949L130.241 20.0565L129.802 17.5357L130.898 17.4261L131.994 23.4541L130.898 23.6733L130.46 21.0429Z" fill="white"/>
<path d="M90.8945 106.202L91.9905 100.064C92.3193 100.174 93.3057 100.283 93.7441 100.393C95.4976 100.722 95.9361 101.818 95.7169 102.804C95.4977 103.79 94.6208 104.667 93.1961 104.338C92.9769 104.338 92.6481 104.229 92.4289 104.119L91.9905 106.311L90.8945 106.202ZM92.8673 101.27L92.5385 103.133C92.7577 103.242 93.0865 103.242 93.3057 103.352C93.9633 103.462 94.5113 103.242 94.6209 102.585C94.7305 101.927 94.4017 101.598 93.6345 101.489C93.4153 101.379 93.1961 101.27 92.8673 101.27Z" fill="white"/>
<path d="M101.964 105.544C101.635 107.407 100.32 107.955 99.1142 107.736C97.5798 107.517 96.703 106.421 97.0318 104.558L97.6894 101.05L98.7854 101.27L98.2374 104.558C98.0182 105.654 98.347 106.53 99.443 106.75C100.32 106.859 100.868 106.311 101.087 105.106L101.635 101.708L102.731 101.927L101.964 105.544Z" fill="white"/>
<path d="M103.608 108.394L104.704 102.256C105.032 102.366 106.348 102.585 106.567 102.585C108.211 102.914 108.649 103.791 108.43 104.887C108.211 105.983 107.444 106.311 106.896 106.421L108.32 109.271L107.005 109.051L105.69 106.531L105.032 106.311L104.594 108.613L103.608 108.394ZM105.58 103.462L105.252 105.325L105.909 105.435C106.567 105.544 107.115 105.325 107.224 104.667C107.334 104.229 107.115 103.681 106.238 103.571C106.128 103.571 105.909 103.571 105.58 103.462Z" fill="white"/>
<path d="M109.745 109.49L110.841 103.352C111.169 103.462 112.156 103.571 112.594 103.681C114.348 104.01 114.786 105.106 114.567 106.092C114.348 107.079 113.471 107.955 112.046 107.627C111.827 107.627 111.498 107.517 111.279 107.407L110.841 109.599L109.745 109.49ZM111.717 104.558L111.389 106.421C111.608 106.531 111.937 106.531 112.156 106.64C112.813 106.75 113.361 106.531 113.471 105.873C113.581 105.215 113.252 104.887 112.485 104.777C112.265 104.667 112.046 104.667 111.717 104.558Z" fill="white"/>
<path d="M119.172 104.777C121.035 105.106 122.131 106.531 121.802 108.503C121.473 110.367 119.829 111.353 118.076 111.134C116.212 110.805 115.116 109.38 115.445 107.407C115.774 105.654 117.308 104.448 119.172 104.777ZM118.295 110.038C119.61 110.257 120.487 109.49 120.706 108.284C120.925 107.079 120.158 105.983 119.062 105.763C117.856 105.544 116.87 106.311 116.651 107.517C116.432 108.832 117.089 109.819 118.295 110.038Z" fill="white"/>
<path d="M123.445 107.298C123.555 106.421 124.432 105.763 125.637 105.983C126.405 106.092 126.953 106.531 127.281 106.969L126.514 107.627C126.295 107.298 125.966 107.079 125.528 106.969C124.98 106.859 124.651 107.079 124.541 107.517C124.322 108.832 127.172 108.832 126.843 110.915C126.624 111.901 125.637 112.449 124.541 112.23C123.774 112.12 122.897 111.572 122.678 110.915L123.445 110.257C123.774 110.805 124.213 111.134 124.761 111.243C125.309 111.353 125.637 111.134 125.747 110.695C125.857 109.38 123.117 109.271 123.445 107.298Z" fill="white"/>
<path d="M129.254 106.64L132.761 107.298L132.652 108.284L130.131 107.846L129.912 109.38L132.104 109.709L131.885 110.695L129.693 110.367L129.473 111.901L131.994 112.339L131.775 113.326L128.158 112.778L129.254 106.64Z" fill="white"/>
<path d="M91.5527 56.0052H90.5663L89.0319 51.5117L87.6072 56.0052H86.5112L84.648 49.8677H85.9632L87.1687 54.2516L88.4839 49.8677H89.5799L91.0047 54.2516L92.2103 49.8677H93.3063L91.5527 56.0052Z" fill="white"/>
<path d="M94.6211 49.8677H98.2378V50.8541H95.7171V52.3885H97.909V53.3749H95.7171V55.0188H98.3474V56.0052H94.6211V49.8677Z" fill="white"/>
<path d="M100.21 49.8677H101.197V55.0188H104.046V56.0052H100.21V49.8677Z" fill="white"/>
<path d="M105.472 49.8677H106.568V55.0188H109.308V56.0052H105.472V49.8677Z" fill="white"/>
<path d="M110.733 49.8677C111.062 49.8677 111.939 49.8677 112.487 49.8677C113.912 49.8677 114.569 50.5253 114.569 51.4021C114.569 52.0597 114.241 52.6077 113.693 52.8269C114.35 52.9365 114.789 53.4844 114.789 54.2516C114.789 55.5668 113.802 56.1148 112.487 56.1148C111.939 56.1148 111.172 56.1148 110.733 56.1148V49.8677ZM111.829 50.8541V52.3885H112.597C113.145 52.3885 113.473 52.1693 113.473 51.6213C113.473 51.0733 113.035 50.8541 112.487 50.8541C112.268 50.8541 111.939 50.8541 111.829 50.8541ZM111.829 53.3749V55.0188C111.939 55.0188 112.268 55.0188 112.597 55.0188C113.364 55.0188 113.693 54.69 113.693 54.142C113.693 53.594 113.254 53.3749 112.597 53.3749H111.829Z" fill="white"/>
<path d="M116.541 49.8677H120.158V50.8541H117.637V52.3885H119.938V53.3749H117.637V55.0188H120.267V56.0052H116.541V49.8677Z" fill="white"/>
<path d="M123.337 49.8677H122.241V56.0052H123.337V49.8677Z" fill="white"/>
<path d="M130.022 56.0052L126.625 51.7309V56.0052H125.638V49.8677H126.515L129.913 54.142V49.8677H130.899V56.0052H130.022Z" fill="white"/>
<path d="M135.612 52.7171H138.133V55.2379C137.585 55.7859 136.599 56.1147 135.832 56.1147C133.859 56.1147 132.653 54.7995 132.653 52.9363C132.653 51.1827 133.859 49.7579 135.722 49.7579C136.599 49.7579 137.256 49.9771 137.695 50.4155L137.256 51.2923C136.928 50.9635 136.38 50.8539 135.832 50.8539C134.626 50.8539 133.749 51.6211 133.749 53.0459C133.749 54.3611 134.626 55.2379 135.832 55.2379C136.27 55.2379 136.928 55.0187 137.147 54.7995V53.7035H135.612V52.7171Z" fill="white"/>
<path d="M21.5189 29.2628H42.014C45.3019 29.2628 48.0419 31.674 48.5899 34.962L54.6179 76.0617L50.2339 76.7193L42.8907 44.2779V71.7873L16.1485 71.8969L14.2853 42.1955C14.1757 40.1131 13.5182 38.0308 12.5318 36.058C11.655 34.5236 0.914273 21.8101 0.914273 21.8101C-0.729714 20.0565 0.0374596 16.9877 1.68145 15.5629L17.3541 5.91821L20.6421 10.083L7.81901 18.5221L14.2853 25.4269C16.4773 27.5092 18.5597 29.2628 21.5189 29.2628Z" fill="#00B4F9"/>
<path d="M56.8105 78.473C56.8105 80.665 55.0569 82.4186 52.8649 82.4186C50.6729 82.4186 48.9193 80.665 48.9193 78.473C48.9193 76.2811 50.6729 74.5275 52.8649 74.5275C54.9473 74.5275 56.8105 76.2811 56.8105 78.473Z" fill="#EAC2A7"/>
<path d="M16.1487 71.8971L42.8909 71.7875L41.3565 131.957H34.3422L30.6158 76.829H28.7526L26.1223 131.957H18.7791L16.1487 71.8971Z" fill="#2E3543"/>
<path d="M47.8238 134.478C46.6182 134.149 44.755 134.369 42.8918 133.273C41.9054 132.725 40.919 131.957 40.8094 131.848H35.3295C35.2199 132.286 35.1103 133.273 35.1103 133.93C35.1103 135.026 35.1103 135.793 35.1103 136.341C35.1103 136.67 35.3295 136.889 35.6583 136.889H38.2887L39.275 136.451C39.275 136.451 42.7822 137.109 45.303 136.999C47.9334 136.999 48.7006 136.013 48.7006 136.013C48.7006 136.013 49.0294 134.807 47.8238 134.478Z" fill="#090A0A"/>
<path d="M32.0411 134.478C30.8355 134.149 28.9723 134.369 27.1091 133.273C26.1227 132.725 25.1363 131.957 25.0267 131.848H19.5468C19.4372 132.286 19.3275 133.273 19.3275 133.93C19.3275 135.026 19.3275 135.793 19.3275 136.341C19.3275 136.67 19.5467 136.889 19.8755 136.889H22.5059L23.4923 136.451C23.4923 136.451 26.9995 137.109 29.5203 136.999C32.1507 136.999 32.9178 136.013 32.9178 136.013C32.9178 136.013 33.2466 134.807 32.0411 134.478Z" fill="#090A0A"/>
<path d="M26.5607 10.3024V27.619V30.4686C26.5607 32.2222 27.9855 33.647 29.739 33.647C31.4926 33.647 32.9174 32.2222 32.9174 30.4686V27.619C32.9174 26.6326 33.7942 25.8654 34.671 25.975L36.9726 26.3038C38.3974 26.3038 39.603 25.0983 39.603 23.6735V19.3991L41.4662 19.2895C42.1238 19.2895 42.2333 18.6319 41.9045 18.0839L38.1782 8.32959L26.5607 10.3024Z" fill="#EAC2A7"/>
<path d="M35.9866 23.783C37.0157 23.783 37.8498 22.9488 37.8498 21.9198C37.8498 20.8908 37.0157 20.0566 35.9866 20.0566C34.9576 20.0566 34.1234 20.8908 34.1234 21.9198C34.1234 22.9488 34.9576 23.783 35.9866 23.783Z" fill="white"/>
<path d="M40.8078 17.2072C40.6982 17.2072 40.6982 17.2072 40.5886 17.2072C39.931 17.0976 39.2734 16.8784 38.835 16.3304C38.3966 15.7824 38.1774 15.1248 38.287 14.4672C38.3966 13.0424 39.6022 12.0561 41.027 12.1657C41.6846 12.2753 42.3422 12.4944 42.7806 13.0424C43.219 13.5904 43.4382 14.248 43.3286 14.9056C43.219 15.5632 42.9998 16.2208 42.4518 16.6592C42.0134 16.988 41.4654 17.2072 40.8078 17.2072ZM39.2734 14.5768C39.2734 15.0152 39.383 15.4536 39.6022 15.7824C39.8214 16.1112 40.2598 16.3304 40.6982 16.3304C41.1366 16.3304 41.575 16.2208 41.9038 16.0016C42.2326 15.7824 42.4518 15.344 42.4518 14.9056C42.4518 14.4672 42.3422 14.0288 42.123 13.7C41.7942 13.3712 41.4654 13.152 41.027 13.152C40.0406 13.0424 39.2734 13.7 39.2734 14.5768Z" fill="#2E3543"/>
<path d="M35.2186 17.2072C33.7938 17.2072 32.6978 16.1112 32.6978 14.6864C32.6978 13.2616 33.7938 12.1656 35.2186 12.1656C36.6433 12.1656 37.7394 13.2616 37.7394 14.6864C37.7394 16.1112 36.6433 17.2072 35.2186 17.2072ZM35.2186 13.0424C34.3418 13.0424 33.6842 13.7 33.6842 14.5768C33.6842 15.4536 34.3418 16.1112 35.2186 16.1112C36.0953 16.1112 36.7529 15.4536 36.7529 14.5768C36.7529 13.7 36.0953 13.0424 35.2186 13.0424Z" fill="#2E3543"/>
<path d="M37.411 0V1.42479C37.411 2.84958 35.9862 2.63038 33.1366 2.63038C30.3966 2.63038 26.5607 3.50717 26.5607 6.57594C26.5607 7.45274 26.5607 18.4127 26.5607 18.4127C27.9855 18.4127 29.191 17.2071 29.191 15.7823V11.0695H29.6294C29.9582 11.0695 30.287 11.3983 30.287 11.7271V12.7135C30.287 13.1519 30.7254 13.5903 31.1638 13.5903C31.6022 13.5903 32.0406 13.1519 32.0406 12.7135V11.3983C32.0406 10.5215 32.6982 9.86392 33.575 9.86392H35.219C37.5206 9.86392 43.0005 10.7407 43.0005 5.80875C43.0005 -1.04522e-06 37.411 0 37.411 0Z" fill="#2E3543"/>
<path d="M27.4369 6.57599L22.9434 3.50722C21.957 2.84963 20.7514 2.74003 19.5458 3.06882C17.4634 3.83602 16.3674 6.028 17.1346 8.11038C17.9018 10.1928 20.0938 11.2888 22.1762 10.5216C23.601 10.0832 24.4777 8.87758 24.8065 7.45279L26.9985 8.21998C27.8753 8.21998 28.2041 7.12399 27.4369 6.57599Z" fill="#EAC2A7"/>
<path d="M29.739 36.935C26.7799 36.935 24.3687 34.5238 24.3687 31.5646V29.1534H25.2455V31.5646C25.2455 34.0854 27.2183 36.0582 29.739 36.0582C32.2598 36.0582 34.2326 34.0854 34.2326 31.5646V29.1534H35.1094V31.5646C35.1094 34.5238 32.6982 36.935 29.739 36.935Z" fill="#007EA5"/>
</svg>
