<svg width="193" height="185" viewBox="0 0 193 185" fill="none" xmlns="http://www.w3.org/2000/svg">
<path d="M39.5122 113.957H62.2103L60.8092 165.238H54.8311L51.7486 118.254H50.1607L47.9189 165.238H41.6606L39.5122 113.957Z" fill="#2E3543"/>
<path d="M66.3198 167.387C65.2923 167.106 63.7044 167.293 62.1164 166.359C61.2758 165.892 60.4351 165.238 60.3417 165.145H55.6713C55.5779 165.519 55.4845 166.359 55.4845 166.92C55.4845 167.854 55.4845 168.508 55.4845 168.975C55.4845 169.255 55.6713 169.442 55.9515 169.442H58.1933L59.034 169.068C59.034 169.068 62.023 169.628 64.1714 169.535C66.4132 169.535 67.0671 168.694 67.0671 168.694C67.0671 168.694 67.3473 167.667 66.3198 167.387Z" fill="#090A0A"/>
<path d="M52.9618 167.387C51.9343 167.106 50.3463 167.293 48.7584 166.359C47.9177 165.892 47.0771 165.238 46.9837 165.145H42.3133C42.2199 165.519 42.1265 166.359 42.1265 166.92C42.1265 167.854 42.1265 168.508 42.1265 168.975C42.1265 169.255 42.3133 169.442 42.5935 169.442H44.8353L45.676 169.068C45.676 169.068 48.665 169.628 50.8134 169.535C53.0552 169.535 53.709 168.694 53.709 168.694C53.709 168.694 53.9892 167.667 52.9618 167.387Z" fill="#090A0A"/>
<path d="M21.0171 66.413L27.2754 77.9022H60.1549C63.7044 77.9022 66.6001 80.7978 66.6001 84.3473V93.4078C66.6001 95.3694 68.188 96.9573 70.1495 96.9573H84.6277V102.095L68.3748 103.029C66.6001 103.029 63.5176 103.589 62.3967 99.9464L62.3033 113.958H39.4184L38.0173 87.5231C37.9239 86.3088 37.0832 85.3748 35.8689 85.1879L25.2204 83.6C23.9127 83.4132 22.6984 82.5725 22.138 81.2648L16.7203 69.0284L21.0171 66.413Z" fill="#00B6FB"/>
<path d="M48.012 61.8357V76.5942V79.0227C48.012 80.5173 49.2263 81.7316 50.7208 81.7316C52.2153 81.7316 53.4296 80.5173 53.4296 79.0227V76.5942C53.4296 75.7535 54.1769 75.0996 54.9241 75.193L56.8857 75.4732C58.1 75.4732 59.1275 74.4458 59.1275 73.2315V69.5886L60.7154 69.4952C61.2759 69.4952 61.3693 68.9347 61.089 68.4677L57.9132 60.1544L48.012 61.8357Z" fill="#EAC2A7"/>
<path d="M60.1542 67.6272C60.0608 67.6272 60.0608 67.6272 59.9674 67.6272C59.3136 67.6272 58.8465 67.347 58.4729 66.8799C58.0993 66.4129 57.9125 65.8525 58.0059 65.292C58.0993 64.0777 59.1268 63.237 60.3411 63.3304C60.9949 63.3304 61.462 63.6107 61.8356 64.0777C62.2092 64.5447 62.396 65.1052 62.3026 65.6656C62.3026 66.3195 62.0224 66.7866 61.5554 67.1602C61.1817 67.5338 60.7147 67.7206 60.1542 67.6272ZM58.8465 65.3854C58.8465 65.7591 58.9399 66.1327 59.1268 66.4129C59.407 66.6931 59.6872 66.8799 60.0608 66.8799C60.4345 66.9733 60.8081 66.8799 61.0883 66.5997C61.3685 66.3195 61.5554 66.0393 61.5554 65.6656C61.6488 65.292 61.4619 64.9184 61.2751 64.6382C60.9949 64.3579 60.7147 64.1711 60.3411 64.1711C59.5938 64.0777 58.9399 64.6382 58.8465 65.3854Z" fill="#2E3543"/>
<path d="M55.4838 67.7204C54.2695 67.7204 53.3354 66.7864 53.3354 65.5721C53.3354 64.3578 54.2695 63.4237 55.4838 63.4237C56.6981 63.4237 57.6322 64.3578 57.6322 65.5721C57.6322 66.693 56.6981 67.7204 55.4838 67.7204ZM55.4838 64.2643C54.7366 64.2643 54.1761 64.8248 54.1761 65.5721C54.1761 66.3193 54.7366 66.8797 55.4838 66.8797C56.2311 66.8797 56.7915 66.3193 56.7915 65.5721C56.7915 64.8248 56.2311 64.1709 55.4838 64.2643Z" fill="#2E3543"/>
<path d="M57.2593 52.9622V54.1764C57.2593 55.3907 56.045 55.2039 53.6164 55.2039C51.2812 55.2039 48.012 55.9512 48.012 58.5666C48.012 59.3139 48.012 68.6546 48.012 68.6546C49.2263 68.6546 50.2538 67.6271 50.2538 66.4128V62.3963H50.6274C50.9076 62.3963 51.1878 62.6766 51.1878 62.9568V63.7974C51.1878 64.1711 51.5615 64.5447 51.9351 64.5447C52.3087 64.5447 52.6823 64.1711 52.6823 63.7974V62.6765C52.6823 61.9293 53.2428 61.3689 53.9901 61.3689H55.3912C57.3527 61.3689 62.0231 62.1161 62.0231 57.9128C62.0231 52.9621 57.2593 52.9622 57.2593 52.9622Z" fill="#2E3543"/>
<path d="M50.7208 84.5339C48.1988 84.5339 46.1438 82.4789 46.1438 79.9569V77.902H46.8911V79.9569C46.8911 82.1053 48.5724 83.7867 50.7208 83.7867C52.8692 83.7867 54.5505 82.1053 54.5505 79.9569V77.902H55.2978V79.9569C55.2978 82.4789 53.2428 84.5339 50.7208 84.5339Z" fill="#007EA5"/>
<path d="M17.5614 73.979C18.2153 73.979 18.6823 73.4186 18.6823 72.8581V55.1107C18.6823 54.4568 18.1219 53.9897 17.5614 53.9897C16.9076 53.9897 16.4405 54.5502 16.4405 55.1107V72.8581C16.3471 73.4186 16.9076 73.979 17.5614 73.979Z" fill="#2E3543"/>
<path d="M4.48357 29.0497L17.5607 15.132L30.7311 29.0497C33.5334 32.1322 35.2147 36.1487 35.2147 40.6323C35.2147 50.3467 27.3685 58.2864 17.5607 58.2864C7.75284 58.2864 0 50.4401 0 40.6323C0 36.3356 1.68134 32.319 4.48357 29.0497Z" fill="#F6C167"/>
<path d="M11.1158 35.8687L17.561 27.3685L24.0061 35.8687C25.4072 37.4566 26.1545 39.4181 26.1545 41.5665C26.1545 46.3303 22.3248 50.2534 17.4676 50.2534C12.6104 50.2534 8.78064 46.4237 8.78064 41.5665C8.78064 39.4181 9.71472 37.4566 11.1158 35.8687Z" fill="#F89937"/>
<path d="M4.01594 24.94L6.16431 21.1102L8.31269 24.94C8.77973 25.407 9.05995 26.0609 9.05995 26.8081C9.05995 28.3961 7.84565 29.6104 6.25772 29.6104C4.66979 29.6104 3.45549 28.3961 3.45549 26.8081C3.26867 26.1543 3.5489 25.5004 4.01594 24.94Z" fill="#F89937"/>
<path d="M21.9508 13.9178V0H25.5003V13.9178C25.5003 14.8518 24.753 15.7859 23.6321 15.7859C22.6981 15.5991 21.9508 14.8518 21.9508 13.9178Z" fill="#F89937"/>
<path d="M28.5824 17.3738V10.7419H32.1319V17.3738C32.1319 18.3079 31.3846 19.242 30.2637 19.242C29.3297 19.1486 28.5824 18.2145 28.5824 17.3738Z" fill="#F89937"/>
<path d="M17.9342 69.4953C19.843 69.4953 21.3903 67.948 21.3903 66.0392C21.3903 64.1305 19.843 62.5831 17.9342 62.5831C16.0255 62.5831 14.4781 64.1305 14.4781 66.0392C14.4781 67.948 16.0255 69.4953 17.9342 69.4953Z" fill="#EAC2A7"/>
<path d="M87.2424 98.2649H86.8687C86.1215 98.2649 85.561 97.7044 85.561 96.9571V92.567C85.561 91.8197 86.1215 91.2593 86.8687 91.2593H87.2424C87.9897 91.2593 88.5501 91.8197 88.5501 92.567V96.9571C88.6435 97.7044 87.9897 98.2649 87.2424 98.2649Z" fill="#EAC2A7"/>
<path d="M84.5339 101.908V96.8639C84.5339 96.1166 85.0944 95.5562 85.8417 95.5562H90.3252C91.0725 95.5562 91.6329 96.1166 91.6329 96.8639V101.908C91.6329 102.655 91.0725 103.216 90.3252 103.216H85.8417C85.1878 103.216 84.5339 102.655 84.5339 101.908Z" fill="#EAC2A7"/>
<path d="M56.2315 87.3362C57.3524 87.3362 58.2864 86.4021 58.2864 85.2812H54.1765C54.1765 86.4021 55.1106 87.3362 56.2315 87.3362Z" fill="white"/>
<path d="M93.0339 51.7479L95.6494 57.6326C95.7428 57.726 95.8362 57.9128 96.023 57.9128L102.468 58.5666C102.842 58.5666 103.029 59.0337 102.748 59.3139L97.9846 63.6106C97.8912 63.704 97.7977 63.8909 97.8912 63.9843L99.1989 70.336C99.2923 70.7096 98.9186 70.9898 98.545 70.803L92.9405 67.5338C92.8471 67.4403 92.6603 67.4403 92.4735 67.5338L86.869 70.803C86.5888 70.9898 86.1218 70.7096 86.2152 70.336L87.5229 63.9843C87.5229 63.7975 87.5229 63.704 87.4295 63.6106L82.6657 59.3139C82.3855 59.0337 82.5723 58.5666 82.9459 58.5666L89.391 57.9128C89.5779 57.9128 89.6713 57.8194 89.7647 57.6326L92.3801 51.7479C92.3801 51.4677 92.8471 51.4677 93.0339 51.7479Z" fill="#F6C167"/>
<path d="M92.8476 55.9511L94.4355 59.4072C94.4355 59.5006 94.5289 59.5006 94.6223 59.594L98.452 59.9677C98.6389 59.9677 98.7323 60.2479 98.6388 60.4347L95.8366 62.9567C95.7432 63.0501 95.7432 63.1435 95.7432 63.2369L96.4905 66.9732C96.4905 67.1601 96.3037 67.3469 96.1169 67.2535L92.7542 65.3853C92.6608 65.3853 92.5673 65.3853 92.4739 65.3853L89.1113 67.2535C88.9245 67.3469 88.7376 67.1601 88.7376 66.9732L89.4849 63.2369C89.4849 63.1435 89.4849 63.0501 89.3915 62.9567L86.5893 60.4347C86.4024 60.2479 86.4959 60.0611 86.7761 59.9677L90.6058 59.594C90.6992 59.594 90.7926 59.5006 90.7926 59.4072L92.3805 55.9511C92.474 55.7643 92.7542 55.7643 92.8476 55.9511Z" fill="#F89937"/>
<path d="M182.612 51.7479L185.228 57.6326C185.321 57.726 185.415 57.9128 185.601 57.9128L192.046 58.5666C192.42 58.5666 192.607 59.0337 192.327 59.3139L187.563 63.6106C187.47 63.704 187.376 63.8909 187.47 63.9843L188.777 70.336C188.871 70.7096 188.497 70.9898 188.123 70.803L182.519 67.5338C182.425 67.4403 182.239 67.4403 182.052 67.5338L176.447 70.803C176.167 70.9898 175.7 70.7096 175.794 70.336L177.101 63.9843C177.101 63.7975 177.101 63.704 177.008 63.6106L172.244 59.3139C171.964 59.0337 172.151 58.5666 172.524 58.5666L178.969 57.9128C179.156 57.9128 179.25 57.8194 179.343 57.6326L181.958 51.7479C181.958 51.4677 182.425 51.4677 182.612 51.7479Z" fill="#F6C167"/>
<path d="M182.426 55.9511L184.014 59.4072C184.014 59.5006 184.108 59.5006 184.201 59.594L188.031 59.9677C188.217 59.9677 188.311 60.2479 188.217 60.4347L185.415 62.9567C185.322 63.0501 185.322 63.1435 185.322 63.2369L186.069 66.9732C186.069 67.1601 185.882 67.3469 185.695 67.2535L182.333 65.3853C182.239 65.3853 182.146 65.3853 182.053 65.3853L178.69 67.2535C178.503 67.3469 178.316 67.1601 178.316 66.9732L179.064 63.2369C179.064 63.1435 179.064 63.0501 178.97 62.9567L176.168 60.4347C175.981 60.2479 176.074 60.0611 176.355 59.9677L180.184 59.594C180.278 59.594 180.371 59.5006 180.371 59.4072L181.959 55.9511C182.053 55.7643 182.333 55.7643 182.426 55.9511Z" fill="#F89937"/>
<path d="M160.474 40.539L163.089 46.4237C163.182 46.5171 163.276 46.7039 163.463 46.7039L169.908 47.3578C170.281 47.3578 170.468 47.8248 170.188 48.105L165.424 52.4018C165.331 52.4952 165.237 52.682 165.331 52.7754L166.639 59.1271C166.732 59.5008 166.358 59.781 165.985 59.5942L160.38 56.3249C160.287 56.2315 160.1 56.2315 159.913 56.3249L154.309 59.5942C154.029 59.781 153.561 59.5008 153.655 59.1271L154.963 52.7754C154.963 52.5886 154.963 52.4952 154.869 52.4018L150.105 48.105C149.825 47.8248 150.012 47.3578 150.386 47.3578L156.831 46.7039C157.018 46.7039 157.111 46.6105 157.204 46.4237L159.82 40.539C159.913 40.2588 160.38 40.2588 160.474 40.539Z" fill="#F6C167"/>
<path d="M160.287 44.7423L161.875 48.1983C161.875 48.2917 161.969 48.2917 162.062 48.3852L165.892 48.7588C166.079 48.7588 166.172 49.039 166.079 49.2258L163.276 51.7479C163.183 51.8413 163.183 51.9347 163.183 52.0281L163.93 55.7644C163.93 55.9512 163.743 56.138 163.557 56.0446L160.194 54.1764C160.101 54.1764 160.007 54.1764 159.914 54.1764L156.551 56.0446C156.364 56.138 156.177 55.9512 156.177 55.7644L156.925 52.0281C156.925 51.9347 156.925 51.8413 156.831 51.7479L154.029 49.2258C153.842 49.039 153.936 48.8522 154.216 48.7588L158.046 48.3852C158.139 48.3852 158.232 48.2917 158.232 48.1983L159.82 44.7423C159.914 44.5555 160.194 44.5555 160.287 44.7423Z" fill="#F89937"/>
<path d="M113.77 40.539L116.385 46.4237C116.479 46.5171 116.572 46.7039 116.759 46.7039L123.204 47.3578C123.578 47.3578 123.764 47.8248 123.484 48.105L118.72 52.4018C118.627 52.4952 118.534 52.682 118.627 52.7754L119.935 59.1271C120.028 59.5008 119.654 59.781 119.281 59.5942L113.676 56.3249C113.583 56.2315 113.396 56.2315 113.209 56.3249L107.605 59.5942C107.325 59.781 106.858 59.5008 106.951 59.1271L108.259 52.7754C108.259 52.5886 108.259 52.4952 108.165 52.4018L103.402 48.105C103.121 47.8248 103.308 47.3578 103.682 47.3578L110.127 46.7039C110.314 46.7039 110.407 46.6105 110.501 46.4237L113.116 40.539C113.116 40.2588 113.676 40.2588 113.77 40.539Z" fill="#F6C167"/>
<path d="M113.583 44.7423L115.171 48.1983C115.171 48.2917 115.264 48.2917 115.358 48.3852L119.187 48.7588C119.374 48.7588 119.467 49.039 119.374 49.2258L116.572 51.7479C116.478 51.8413 116.478 51.9347 116.478 52.0281L117.226 55.7644C117.226 55.9512 117.039 56.138 116.852 56.0446L113.489 54.1764C113.396 54.1764 113.303 54.1764 113.209 54.1764L109.846 56.0446C109.66 56.138 109.473 55.9512 109.473 55.7644L110.22 52.0281C110.22 51.9347 110.22 51.8413 110.127 51.7479L107.324 49.2258C107.138 49.039 107.231 48.8522 107.511 48.7588L111.341 48.3852C111.434 48.3852 111.528 48.2917 111.528 48.1983L113.116 44.7423C113.209 44.5555 113.489 44.5555 113.583 44.7423Z" fill="#F89937"/>
<path d="M137.122 36.8027L139.737 42.6874C139.831 42.7808 139.924 42.9676 140.111 42.9676L146.556 43.6214C146.93 43.6214 147.116 44.0885 146.836 44.3687L142.072 48.6654C141.979 48.7588 141.885 48.9457 141.979 49.0391L143.287 55.3908C143.38 55.7644 143.006 56.0447 142.633 55.8578L137.028 52.5886C136.935 52.4952 136.748 52.4952 136.561 52.5886L130.957 55.8578C130.677 56.0447 130.21 55.7644 130.303 55.3908L131.611 49.0391C131.611 48.8523 131.611 48.7588 131.517 48.6654L126.753 44.3687C126.473 44.0885 126.66 43.6214 127.034 43.6214L133.479 42.9676C133.666 42.9676 133.759 42.8742 133.852 42.6874L136.468 36.8027C136.468 36.5225 136.935 36.5225 137.122 36.8027Z" fill="#F6C167"/>
<path d="M136.842 41.006L138.43 44.462C138.43 44.5554 138.523 44.5554 138.617 44.6488L142.447 45.0225C142.633 45.0225 142.727 45.3027 142.633 45.4895L139.831 48.0115C139.738 48.1049 139.738 48.1983 139.738 48.2917L140.485 52.0281C140.485 52.2149 140.298 52.4017 140.111 52.3083L136.749 50.4401C136.655 50.4401 136.562 50.4401 136.468 50.4401L133.106 52.3083C132.919 52.4017 132.732 52.2149 132.732 52.0281L133.479 48.2917C133.479 48.1983 133.479 48.1049 133.386 48.0115L130.584 45.4895C130.397 45.3027 130.49 45.1159 130.771 45.0225L134.6 44.6488C134.694 44.6488 134.787 44.5554 134.787 44.462L136.375 41.006C136.468 40.8191 136.842 40.8191 136.842 41.006Z" fill="#F89937"/>
<path d="M109.754 82.1054L115.359 95.9297H162.062L167.2 80.9845L171.683 82.1054L167.667 98.9188C167.293 100.6 165.892 101.814 164.211 102.001L153.936 103.216C152.255 103.402 151.04 104.803 151.04 106.485L150.386 130.117H127.502L125.914 106.298C125.82 104.71 124.606 103.402 123.018 103.216L112.837 101.814C111.249 101.628 109.941 100.413 109.474 98.9188L105.084 82.8527L109.754 82.1054Z" fill="#77C54F"/>
<path d="M122.269 183.359C122.269 183.359 122.923 184.2 125.165 184.2C127.407 184.2 130.396 183.639 130.396 183.639L131.33 184.013H133.665C133.852 184.013 134.132 183.826 134.132 183.546C134.132 183.172 134.132 182.425 134.132 181.491C134.132 180.837 134.039 179.996 133.945 179.623H129.182C129.088 179.716 128.247 180.37 127.407 180.837C125.819 181.771 124.138 181.584 123.11 181.865C122.083 182.051 122.269 183.359 122.269 183.359Z" fill="#2E3543"/>
<path d="M135.907 183.359C135.907 183.359 136.56 184.2 138.802 184.2C141.044 184.2 144.033 183.639 144.033 183.639L144.967 184.013H147.302C147.489 184.013 147.769 183.826 147.769 183.546C147.769 183.172 147.769 182.425 147.769 181.491C147.769 180.837 147.676 179.996 147.583 179.623H142.819C142.725 179.716 141.885 180.37 141.044 180.837C139.456 181.771 137.775 181.584 136.747 181.865C135.72 182.051 135.907 183.359 135.907 183.359Z" fill="#2E3543"/>
<path d="M148.143 179.623H141.885L139.55 136.095H137.868L134.786 179.623H128.621L127.313 130.117H150.385L148.143 179.623Z" fill="#304970"/>
<path d="M154.495 93.034C154.402 97.611 150.852 101.254 146.275 101.347C141.698 101.254 138.055 97.7044 137.962 93.1275L137.775 87.8966C137.215 87.7098 136.748 87.3361 136.281 86.9625C136.187 86.9625 136.187 86.9625 136.187 86.9625C133.105 86.9625 130.583 84.5339 130.583 81.4515C130.489 78.9295 132.264 76.7811 134.599 76.0339C136.094 73.8855 138.616 72.3909 141.418 72.2041C145.995 72.1107 149.731 75.847 149.825 80.424C149.825 82.1053 149.264 83.7867 148.424 85.0944C151.88 86.2153 154.308 89.2977 154.495 93.034Z" fill="#2E3543"/>
<path d="M140.017 82.5724C140.204 83.5999 139.457 84.3471 138.523 84.3471H137.588L137.682 91.6329C137.682 91.6329 137.588 92.4736 137.775 94.4351C137.869 95.7428 138.99 97.5176 139.27 98.0781C139.083 98.7319 138.242 99.199 137.495 99.199C136.561 99.199 135.814 98.2649 135.814 97.3308L136.001 92.1934H135.16C132.825 92.1934 130.676 90.2318 130.676 87.7098V85.3746H129.836C129.462 85.3746 129.182 85.001 129.182 84.7208C129.182 84.3471 129.555 84.0669 129.836 84.0669H130.676L130.583 81.4515H138.616C139.27 81.2647 140.11 81.8251 140.017 82.5724Z" fill="#EAC2A7"/>
<path d="M169.72 83.5064C171.681 83.5064 173.27 81.9172 173.27 79.9568C173.27 77.9965 171.681 76.4073 169.72 76.4073C167.76 76.4073 166.171 77.9965 166.171 79.9568C166.171 81.9172 167.76 83.5064 169.72 83.5064Z" fill="#EAC2A7"/>
<path d="M106.951 84.2537C108.911 84.2537 110.501 82.6645 110.501 80.7042C110.501 78.7439 108.911 77.1547 106.951 77.1547C104.991 77.1547 103.402 78.7439 103.402 80.7042C103.402 82.6645 104.991 84.2537 106.951 84.2537Z" fill="#EAC2A7"/>
<path d="M133.665 88.8307C134.786 88.8307 135.72 87.8966 135.72 86.7758H131.61C131.61 87.8966 132.451 88.8307 133.665 88.8307Z" fill="white"/>
</svg>
