<?xml version="1.0" encoding="utf-8"?>
<!-- Generator: Adobe Illustrator 22.1.0, SVG Export Plug-In . SVG Version: 6.00 Build 0)  -->
<svg version="1.1" id="Layer_1" xmlns="http://www.w3.org/2000/svg" xmlns:xlink="http://www.w3.org/1999/xlink" x="0px" y="0px"
	 width="150px" height="150px" viewBox="0 0 150 150" style="enable-background:new 0 0 150 150;" xml:space="preserve">
<style type="text/css">
	.st0{fill:#FFFFFF;stroke:#D8D6D6;stroke-width:2;}
	.st1{fill:#444444;}
	.st2{fill:#D7D7D7;}
	.st3{fill:#68C157;}
	.st4{fill:#2E3543;}
	.st5{fill:#00B6FB;}
	.st6{fill:none;stroke:#0E7BCE;}
	.st7{fill:none;stroke:#0E7BCE;stroke-linecap:round;stroke-linejoin:round;}
	.st8{fill:#EAC2A7;}
	.st9{fill:#F6C167;}
	.st10{fill:#F89937;}
	.st11{fill:none;stroke:#2E3543;}
</style>
<polygon id="Fill-1_2_" class="st0" points="128.7,92 62.9,92 62.9,12 128.7,12 "/>
<path class="st1" d="M73,26.8h2.9v3c-0.6,0.6-1.8,1-2.7,1c-2.3,0-3.7-1.5-3.7-3.7c0-2,1.4-3.7,3.5-3.7c1,0,1.7,0.3,2.3,0.7l-0.6,1
	c-0.4-0.4-1-0.6-1.6-0.6c-1.4,0-2.4,0.9-2.4,2.5c0,1.5,0.9,2.5,2.4,2.5c0.6,0,1.2-0.3,1.5-0.5v-1h-1.8L73,26.8L73,26.8z"/>
<path class="st1" d="M78.3,30.7v-7c0.4,0,1.9,0,2.1,0c1.9,0,2.6,0.9,2.6,2.2c0,1.2-0.7,1.9-1.4,2l2.2,2.9h-1.5L80.4,28h-0.8v2.7
	H78.3z M79.5,24.7v2.1h0.8c0.7,0,1.4-0.4,1.4-1.1c0-0.6-0.3-1-1.3-1C80.2,24.7,79.9,24.7,79.5,24.7z"/>
<path class="st1" d="M88.7,23.6c2.1,0,3.7,1.5,3.7,3.7c0,2.1-1.6,3.7-3.7,3.7S85,29.4,85,27.2S86.4,23.6,88.7,23.6z M88.7,29.6
	c1.5,0,2.4-1.1,2.4-2.5c0-1.5-1-2.5-2.4-2.5s-2.4,1-2.4,2.5C86.3,28.6,87.4,29.6,88.7,29.6z"/>
<path class="st1" d="M101.3,30.7h-1.2l-1.8-5.1l-1.7,5.1h-1.2l-2.1-7h1.4l1.5,5l1.6-5H99l1.7,5l1.4-5h1.2L101.3,30.7z"/>
<path class="st1" d="M104.4,23.6h5.7v1.2h-2.3v5.8h-1.3v-5.8h-2.3L104.4,23.6L104.4,23.6z"/>
<path class="st1" d="M116.6,27.6h-3.2v3.1h-1.3v-7h1.3v2.9h3.2v-2.9h1.2v7h-1.2V27.6z"/>
<path class="st1" d="M80.7,41.6v-7c0.4,0,1.5,0,2,0c2.1,0,2.8,1.1,2.8,2.3s-0.9,2.3-2.6,2.3c-0.2,0-0.6,0-0.9,0v2.6L80.7,41.6
	L80.7,41.6z M81.8,35.7v2.2c0.3,0,0.6,0.1,0.9,0.1c0.7,0,1.3-0.4,1.3-1.1c0-0.7-0.5-1.1-1.3-1.1C82.5,35.7,82.2,35.7,81.8,35.7z"/>
<path class="st1" d="M87.7,34.5h1.2v5.8h3.3v1.2h-4.3L87.7,34.5L87.7,34.5z"/>
<path class="st1" d="M96.2,34.5h1.1l3.1,7H99l-0.7-1.9h-3.1l-0.7,1.9h-1.3L96.2,34.5z M95.7,38.6h2.1l-1-2.5L95.7,38.6z"/>
<path class="st1" d="M107.2,41.6l-3.9-4.8v4.8h-1.2v-7h1l3.9,4.9v-4.9h1.2v7H107.2z"/>
<path id="Rectangle-Copy-3" class="st2" d="M110.9,46.7h-32c-1,0-1.8,0.8-1.8,1.8l0,0c0,1,0.8,1.8,1.8,1.8h32c1,0,1.8-0.8,1.8-1.8
	l0,0C112.7,47.5,111.9,46.7,110.9,46.7z"/>
<path id="Rectangle-Copy-4" class="st3" d="M110.9,54.7h-32c-1,0-1.8,0.8-1.8,1.8l0,0c0,1,0.8,1.8,1.8,1.8h32c1,0,1.8-0.8,1.8-1.8
	l0,0C112.7,55.4,111.9,54.7,110.9,54.7z"/>
<path id="Rectangle-Copy-5" class="st2" d="M110.9,62.7h-32c-1,0-1.8,0.8-1.8,1.8l0,0c0,1,0.8,1.8,1.8,1.8h32c1,0,1.8-0.8,1.8-1.8
	l0,0C112.7,63.5,111.9,62.7,110.9,62.7z"/>
<path id="Rectangle-Copy-6" class="st2" d="M110.9,70.7h-32c-1,0-1.8,0.8-1.8,1.8l0,0c0,1,0.8,1.8,1.8,1.8h32c1,0,1.8-0.8,1.8-1.8
	l0,0C112.7,71.4,111.9,70.7,110.9,70.7z"/>
<path id="Rectangle-Copy-7" class="st2" d="M110.9,78.7h-32c-1,0-1.8,0.8-1.8,1.8l0,0c0,1,0.8,1.8,1.8,1.8h32c1,0,1.8-0.8,1.8-1.8
	l0,0C112.7,79.5,111.9,78.7,110.9,78.7z"/>
<path id="Fill-17" class="st4" d="M71.2,79.9l-3.4,53.5c0,0.4-0.4,0.7-0.7,0.7h-9.6c-0.4,0-0.7-0.3-0.7-0.6
	c-0.1-0.6,0.3-1.1,0.8-1.4l6.2-2.8l-3.3-44.9c0-0.6-0.9-0.6-1,0l-4.3,49c0,0.4-0.3,0.6-0.6,0.6H44.5c-0.4,0-0.6-0.3-0.6-0.6
	c-0.1-0.6,0.2-1,0.7-1.1l6-1.8L49,79.8L71.2,79.9z"/>
<path id="Fill-19" class="st5" d="M76.6,50.5c0-3.3-2-6-4.4-6H39.8c-1.2,0-2.2-0.7-2.7-1.9L33.3,33l-5.1,2l4.9,13.3
	c0.5,1.1,1.5,1.9,2.8,1.9l8.6,0.6c1.6,0,2.8,1.1,3,2.7L49,79.8h22.1l1.6-22.6l1.9-1.7C75.8,54.5,76.6,52.6,76.6,50.5"/>
<path id="Stroke-21_1_" class="st6" d="M64.9,44.7v3.4c0,2.3-2,4.2-4.4,4.2c-2.5,0-4.4-1.9-4.4-4.2v-3.4"/>
<path id="Fill-21" class="st5" d="M40.7,69.9c0,0,12.9-5.5,17.8-8.9c5.9-4.2,13-16.2,13-16.2l0.9,12.3c0,0-8.7,11.3-29.5,18.4
	C41.5,72.3,40.7,69.9,40.7,69.9"/>
<path id="Path-32" class="st7" d="M48.5,66.3c4.8-2.5,8.6-4.5,11.2-6.3c2.6-1.8,5.4-4.2,8.4-7"/>
<path id="Path-32-Copy" class="st7" d="M48.5,73.4c4.4-1.9,9.1-4.3,13.8-7.6c4.7-3.3,8.1-6,10.3-8.7"/>
<g id="Group-38" transform="translate(23.342175, 84.615385) scale(-1, 1) rotate(20.000000) translate(-23.342175, -84.615385) translate(16.534041, 80.725022)">
	<path id="Fill-15" class="st8" d="M-12.6-2c0,1.8-1.4,3.1-3.1,3.1c-1.8,0-3.1-1.4-3.1-3.1c0-1.8,1.4-3.1,3.1-3.1
		C-14-5-12.6-3.7-12.6-2"/>
	<path id="Fill-25" class="st8" d="M-7.9-3.4l-7.7,0.9v-2.5l7.6,0c0.5,0,0.8,0.4,0.8,0.8C-7.1-3.8-7.4-3.5-7.9-3.4"/>
</g>
<path id="Fill-1_1_" class="st4" d="M30.4,44.9c-0.7,0-1.4-0.6-1.4-1.3V24.5h2.7v19.2C31.7,44.3,31.1,44.9,30.4,44.9"/>
<path id="Fill-3_1_" class="st9" d="M37.5,7.5L37.5,7.5L30.1,0l-7.4,7.5l0,0c-1.7,1.8-2.8,4.4-2.8,7c0,5.7,4.6,10.3,10.1,10.3
	c5.7,0,10.1-4.6,10.1-10.3C40.2,11.9,39.2,9.4,37.5,7.5"/>
<path id="Fill-5_1_" class="st10" d="M33.7,10.4L33.7,10.4l-3.6-3.6l-3.6,3.6l0,0c-0.8,0.9-1.3,2.1-1.3,3.4c0,2.8,2.2,4.9,4.9,4.9
	s4.9-2.3,4.9-4.9C35.1,12.6,34.6,11.4,33.7,10.4"/>
<path id="Fill-7_1_" class="st10" d="M34,3.4L34,3.4l1.1-1.8l1.1,1.8l0,0c0.3,0.3,0.4,0.6,0.4,1.1c0,0.8-0.7,1.6-1.5,1.6
	c-0.8,0-1.5-0.7-1.5-1.6C33.5,4.1,33.7,3.7,34,3.4"/>
<path id="Fill-11_1_" class="st8" d="M33.9,33.3c0,2.1-1.7,3.8-3.8,3.8s-3.8-1.7-3.8-3.8s1.7-3.8,3.8-3.8S33.9,31.4,33.9,33.3"/>
<path id="Fill-13" class="st8" d="M63.4,28.4v16V47c0,1.7-1.3,3.1-3,3.1s-3-1.4-3-3v-2.7c0.2-0.8-0.6-1.7-1.4-1.6l-2.5,0.4
	c-1.4,0-2.5-1.1-2.5-2.5v-4.1l-1.8-0.1c-0.6,0-0.8-0.7-0.5-1.1l3.5-9.1L63.4,28.4z"/>
<g id="Group-42" transform="translate(31.122900, 37.931034)">
	<path id="Stroke-1_1_" class="st11" d="M20.1-5.9c0,1.2-1,2.2-2.2,2.2s-2.2-0.9-2.2-2.2s1-2.2,2.2-2.2C19.1-8.2,20.1-7.1,20.1-5.9z
		"/>
	<path id="Stroke-3_1_" class="st11" d="M26.3-5.9c0,1.2-1,2.2-2.2,2.2S22-4.7,22-5.9s1-2.2,2.2-2.2C25.3-8.2,26.3-7.1,26.3-5.9z"/>
</g>
<path id="Fill-15_1_" class="st4" d="M62.7,29.3c0.4,0,0.7-0.3,0.7-0.6c0-0.6,0-1.8,0-3.6c0-2.9-3.5-3.7-6-3.7s-4,0.3-4-1.1v-1.5
	c0,0-5.2,0-5.2,5.5c0,4.5,5.1,3.9,7.2,3.9h1.5c0.8,0,1.5,0.6,1.5,1.5v1.1c0,0.5,0.4,0.8,0.8,0.8l0,0c0.5,0,0.8-0.4,0.8-0.8V30
	c0-0.4,0.3-0.6,0.6-0.6L62.7,29.3z"/>
<path id="Rectangle_1_" class="st4" d="M63.4,27.1h-1.8v8c0,1,0.8,1.8,1.8,1.8V27.1z"/>
</svg>
