<?xml version="1.0" encoding="utf-8"?>
<!-- Generator: Adobe Illustrator 22.1.0, SVG Export Plug-In . SVG Version: 6.00 Build 0)  -->
<svg version="1.1" id="Layer_1" xmlns="http://www.w3.org/2000/svg" xmlns:xlink="http://www.w3.org/1999/xlink" x="0px" y="0px"
	 width="150px" height="150px" viewBox="0 0 150 150" style="enable-background:new 0 0 150 150;" xml:space="preserve">
<style type="text/css">
	.st0{fill:#2E3543;}
	.st1{fill:#F5E622;}
	.st2{fill:#9C4A73;}
	.st3{fill:#CDCDCD;}
	.st4{fill:#EAC2A7;}
	.st5{fill:#CACACA;}
	.st6{fill:#F68D2E;}
	.st7{fill:#FFFFFF;}
	.st8{fill:#373463;}
</style>
<path id="Fill-5" class="st0" d="M44.6,28.5c-8.2,0-14.8,6.7-14.8,14.9v20.5c0,8.2,6.6,14.9,14.8,14.9s14.8-6.7,14.8-14.9V43.4
	C59.4,35.2,52.8,28.5,44.6,28.5"/>
<path id="Fill-7" class="st1" d="M27.7,62.5h29.5c3.6,0,6.5,2.8,6.7,6.4l2.1,35c0.2,2.9,2.5,5.2,5.3,5.3l22.6,0.6l-0.1,4.9H67v3.1
	H23.8c-3.9,0-6.9-3.3-6.5-7.2L21,68.7C21.3,65.2,24.2,62.5,27.7,62.5"/>
<path id="Fill-12" class="st2" d="M142.4,120.3H8.4c-0.3,0-0.6-0.3-0.6-0.8v-1.6c0-0.4,0.3-0.8,0.6-0.8h134c0.3,0,0.6,0.3,0.6,0.8
	v1.6C143,119.9,142.8,120.3,142.4,120.3"/>
<path id="Fill-12_1_" class="st3" d="M142.4,123.5H8.4c-0.3,0-0.6-0.3-0.6-0.8v-1.6c0-0.4,0.3-0.8,0.6-0.8h134
	c0.3,0,0.6,0.3,0.6,0.8v1.6C143,123.1,142.8,123.5,142.4,123.5"/>
<path id="Fill-9" class="st4" d="M93.4,108.4v5.7h8.2V113c0-2.5-2.1-4.5-4.8-4.5L93.4,108.4L93.4,108.4z"/>
<polygon id="Fill-11" class="st5" points="109.1,77.6 109.1,117.8 133,117.8 133,88.9 "/>
<polygon id="Fill-13" class="st0" points="106.6,117.1 109.8,117.1 109.8,77.6 106.6,77.6 "/>
<polygon id="Fill-15" class="st0" points="69.5,117.1 109.1,117.1 109.1,113.4 69.5,113.4 "/>
<path id="Fill-16" class="st4" d="M59,110.3v6.9h13.2v-1.4c0-3.1-2.5-5.4-5.4-5.4L59,110.3L59,110.3z"/>
<path id="Fill-17" class="st6" d="M43.1,73.2c-4.2,0-7.6-3.2-7.6-7.3v-3.2h1.3v3.2c0,3.4,2.9,6.1,6.3,6.1s6.3-2.8,6.3-6.1v-3.4h1.3
	v3.4C50.6,69.8,47.3,73.2,43.1,73.2"/>
<path id="Fill-18" class="st4" d="M45.3,35.4c-3.7,0.1-6.6,7.4-6.6,11v16.3v5.5c3.5,4.6,8.7,1.8,8.4-1.9v-3.8
	c-0.3-1.2,0.8-2.3,2-2.2l3.5,0.5c2,0,3.5-1.6,3.5-3.4v-5.8l2.5-0.1c0.8,0,1.3-1,0.6-1.6L53,36.5L45.3,35.4z"/>
<path id="Fill-19" class="st7" d="M51.3,52.4c1.4,0,2.5,1.1,2.5,2.5s-1.1,2.5-2.5,2.5s-2.5-1.1-2.5-2.5
	C48.7,53.5,49.8,52.4,51.3,52.4"/>
<path id="Fill-20" class="st8" d="M53.5,45.7c0,0.6,0.1,1.1,0.5,1.5c0.3,0.3,0.8,0.8,1.4,0.8s1-0.1,1.4-0.5c0.3-0.3,0.7-0.8,0.7-1.5
	c0-0.6-0.1-1.1-0.5-1.5c-0.3-0.3-0.8-0.8-1.4-0.8C54.7,43.6,53.6,44.5,53.5,45.7 M55.6,49.2h-0.3c-0.8-0.1-1.6-0.5-2.1-1.3
	c-0.6-0.8-0.8-1.6-0.7-2.5c0.1-1.9,1.6-3.2,3.4-3.1c0.8,0.1,1.6,0.5,2.1,1.3c0.6,0.8,0.8,1.6,0.7,2.5c-0.1,0.8-0.5,1.8-1.2,2.3
	C57,49,56.3,49.2,55.6,49.2"/>
<path id="Fill-21" class="st8" d="M47.8,44.9c-1.2,0-2.2,1-2.2,2.2s1,2.2,2.2,2.2s2.2-1,2.2-2.2S49.1,44.9,47.8,44.9 M47.8,50.5
	c-2,0-3.5-1.5-3.5-3.5s1.5-3.5,3.5-3.5s3.5,1.5,3.5,3.5S49.7,50.5,47.8,50.5"/>
<path id="Fill-22" class="st0" d="M39,45.5c0,0,9.6-0.7,11.2-9c0.9,3.7,5.4,5.2,5.4,5.2l2.6-1.6l-2.8-5.7L40,32.2l-4.4,5.9L39,45.5z
	"/>
<path id="Fill-23" class="st6" d="M57,78.9l-1.2-1.4l1.1,31.6H29.4c-1.6,0-3-1.4-2.7-3.1l2.4-25l-0.8-2l-2.6,27.4
	c-0.3,2.1,1.4,4,3.6,4h29.1L57,78.9z"/>
</svg>
