<svg width="95" height="95" viewBox="0 0 95 95" fill="none" xmlns="http://www.w3.org/2000/svg">
<g clip-path="url(#clip0)">
<path d="M78.702 41.2897C77.9895 41.0008 77.1783 41.3441 76.8892 42.0562C76.1092 43.9794 74.2621 45.2222 72.1834 45.2222C70.8278 45.2222 69.5514 44.6936 68.5906 43.735C68.106 43.2504 67.7317 42.6863 67.4783 42.0582C67.1905 41.3457 66.3797 41.0008 65.6668 41.2888C64.9539 41.5764 64.6095 42.3872 64.8971 43.1001C65.2914 44.0768 65.872 44.9526 66.6238 45.7042C68.1112 47.1882 70.0856 48.0054 72.1834 48.0054C75.4008 48.0054 78.2604 46.0807 79.4685 43.1023C79.7574 42.3902 79.4141 41.5786 78.702 41.2897Z" fill="#57B952"/>
<path d="M64.1847 31.7554C63.416 31.7554 62.7931 32.3784 62.7931 33.147V33.9187C62.7931 34.6872 63.416 35.3103 64.1847 35.3103C64.9534 35.3103 65.5763 34.6872 65.5763 33.9187V33.147C65.5763 32.3784 64.9534 31.7554 64.1847 31.7554Z" fill="#57B952"/>
<path d="M80.1808 31.7554C79.4121 31.7554 78.7892 32.3784 78.7892 33.147V33.9187C78.7892 34.6872 79.4121 35.3103 80.1808 35.3103C80.9496 35.3103 81.5724 34.6872 81.5724 33.9187V33.147C81.5724 32.3784 80.9496 31.7554 80.1808 31.7554Z" fill="#57B952"/>
<path d="M30.9781 41.2896C30.2654 41.0007 29.4544 41.344 29.1653 42.0561C28.3853 43.9793 26.5382 45.2221 24.4595 45.2221C23.1039 45.2221 21.8275 44.6934 20.8668 43.7351C20.3819 43.2501 20.0075 42.686 19.7544 42.0585C19.4668 41.3458 18.6561 41.0009 17.9433 41.2887C17.2304 41.5763 16.8858 42.3871 17.1734 43.0998C17.5674 44.0761 18.1477 44.9519 18.9 45.7043C20.3875 47.1881 22.3619 48.0053 24.4595 48.0053C27.6769 48.0053 30.5365 46.0806 31.7446 43.1022C32.0335 42.3901 31.6903 41.5785 30.9781 41.2896Z" fill="#57B952"/>
<path d="M16.4613 31.7554C15.6926 31.7554 15.0697 32.3784 15.0697 33.147V33.9187C15.0697 34.6872 15.6926 35.3103 16.4613 35.3103C17.2301 35.3103 17.8529 34.6872 17.8529 33.9187V33.147C17.8529 32.3784 17.2301 31.7554 16.4613 31.7554Z" fill="#57B952"/>
<path d="M32.4569 31.7554C31.6882 31.7554 31.0653 32.3784 31.0653 33.147V33.9187C31.0653 34.6872 31.6882 35.3103 32.4569 35.3103C33.2257 35.3103 33.8485 34.6872 33.8485 33.9187V33.147C33.8485 32.3784 33.2257 31.7554 32.4569 31.7554Z" fill="#57B952"/>
<path d="M93.6084 24.0098C94.3771 24.0098 95 23.3867 95 22.6182V18.757C95 13.272 90.5376 8.80979 85.0528 8.80979H83.182L82.9549 8.28469C81.8247 5.67423 79.2565 3.98743 76.4119 3.98743H67.181C57.357 3.98743 49.3646 11.9797 49.3646 21.8036V50.2183C49.3646 54.3374 52.7157 57.6884 56.8347 57.6884H64.7946V59.6533H34.7455H31.8454V56.9974C33.5159 56.2116 35.0667 55.1579 36.4358 53.8535C39.3437 51.0835 41.1784 47.4479 41.6837 43.5039C44.5064 43.5011 46.8018 41.2039 46.8018 38.3804V36.6151C46.8018 35.3658 46.3513 34.2204 45.6058 33.3304L48.8085 20.6545C48.9968 19.9094 48.5454 19.1527 47.8 18.9644C47.056 18.7768 46.2982 19.2275 46.1101 19.9727L43.1452 31.7068C42.7259 31.5812 42.2848 31.507 41.8282 31.4938V26.7971C41.8282 26.3557 41.6187 25.9404 41.2638 25.678C40.9088 25.4157 40.45 25.337 40.0284 25.4667C32.4022 27.8063 25.7185 27.6827 20.7 25.1084C16.9404 23.1798 15.3809 20.521 15.3692 20.5005C15.0594 19.9485 14.4153 19.6754 13.8036 19.8355C13.1911 19.9957 12.764 20.549 12.764 21.1819C12.764 24.629 12.0281 25.3758 8.38969 25.6213C7.659 25.6706 7.09179 26.2775 7.09179 27.0097V31.494C6.5845 31.5085 6.09559 31.5975 5.63506 31.7499C5.03407 29.4723 4.65259 27.7823 4.54423 26.9071C4.3277 25.1657 4.4778 19.9738 4.55388 18.1203C4.55462 18.1012 4.55499 18.0823 4.55499 18.0632C4.55499 15.7847 6.4086 13.9311 8.6873 13.9311H10.797C11.166 13.9311 11.5199 13.7845 11.7811 13.5234L16.759 8.5452C17.767 7.53731 19.2535 7.11667 20.6391 7.44732L38.1431 11.6108C39.0654 11.8305 40.0141 11.9418 40.963 11.9418C43.7089 11.9418 46.4042 11 48.5522 9.28999C48.5869 9.26234 48.6302 9.22746 48.7144 9.28201C48.7985 9.33619 48.7849 9.38962 48.7742 9.43211L47.7202 13.6032C47.5319 14.3484 47.9834 15.105 48.7287 15.2934C49.4737 15.4817 50.2307 15.0302 50.4187 14.2851L51.4727 10.1136C51.7845 8.87826 51.2937 7.63379 50.2229 6.94319C49.1516 6.25221 47.8152 6.31901 46.8187 7.11296C45.1612 8.43239 43.0816 9.15899 40.9628 9.15899C40.2308 9.15899 39.4988 9.07308 38.7873 8.90368L21.2841 4.73963C18.9655 4.18652 16.4777 4.89048 14.7911 6.57692L10.2207 11.1477H8.6873C4.88415 11.1477 1.78812 14.2337 1.77179 18.0331C1.75008 18.5731 1.4994 24.9757 1.78236 27.2496C1.92486 28.4019 2.40562 30.4895 3.21107 33.4567C2.52733 34.3277 2.1182 35.4243 2.1182 36.6153V38.3806C2.1182 41.2037 4.4123 43.5009 7.23355 43.5041C8.00189 49.519 11.8268 54.5302 17.072 56.9963V59.6533H14.1739C13.3237 59.6533 12.486 59.7474 11.6694 59.9317C10.9901 58.744 9.71301 57.94 8.24941 57.94H4.8604C2.18036 57.94 0 60.1204 0 62.8004V70.3713C0 72.3273 1.16208 74.016 2.83145 74.7862V89.6208C2.83145 90.3894 3.45433 91.0124 4.22305 91.0124H44.6964C45.4651 91.0124 46.088 90.3894 46.088 89.6208V70.9958C46.088 67.5818 44.5697 64.5176 42.1754 62.4365H64.7948V63.1305C64.7948 67.1442 70.8192 70.6169 71.5061 70.9997C71.7167 71.117 71.9501 71.1758 72.1833 71.1758C72.4169 71.1758 72.6503 71.1172 72.8607 70.9997C73.5474 70.6169 79.5697 67.1441 79.5697 63.1305V62.4365H82.468C87.1877 62.4365 91.0273 66.2763 91.0273 70.9958V88.2294H87.1267V78.9057C87.1267 78.1372 86.5038 77.5141 85.7351 77.5141C84.9664 77.5141 84.3435 78.1372 84.3435 78.9057V88.2294H60.0226V72.2241C60.0226 71.4556 59.3997 70.8325 58.631 70.8325H50.2832C49.5145 70.8325 48.8916 71.4556 48.8916 72.2241C48.8916 72.9927 49.5145 73.6157 50.2832 73.6157H57.2394V89.621C57.2394 90.3896 57.8622 91.0126 58.631 91.0126H92.419C93.1878 91.0126 93.8106 90.3896 93.8106 89.621V70.9958C93.8106 64.7416 88.7224 59.6533 82.4682 59.6533H79.5699V57.6884H87.5317C91.6498 57.6884 95 54.3372 95 50.2183V29.1884C95 28.4199 94.3771 27.7968 93.6084 27.7968C92.8397 27.7968 92.2168 28.4199 92.2168 29.1884V32.3381C91.447 31.8293 90.5331 31.5217 89.5499 31.4936V24.7843C89.5499 21.586 88.5875 18.5122 86.7667 15.8951C86.5452 15.5763 86.2003 15.3648 85.8158 15.3114C85.4312 15.2577 85.0419 15.3678 84.7417 15.614C78.6301 20.6288 70.9038 23.3904 62.9857 23.3904C60.7915 23.3904 58.6041 23.183 56.4842 22.7739C56.0893 22.6978 55.6795 22.7963 55.3624 23.0448C55.0453 23.2932 54.8514 23.6669 54.8308 24.0692C54.8191 24.2955 54.8135 24.5295 54.8135 24.7843V31.4938C53.8309 31.5222 52.9176 31.8298 52.1479 32.3382V21.8036C52.1479 13.5145 58.8918 6.77063 67.1811 6.77063H76.4121C78.1462 6.77063 79.7119 7.79893 80.4006 9.39018L80.9907 10.754C81.2111 11.2633 81.713 11.593 82.268 11.593H85.053C89.0033 11.593 92.217 14.8067 92.217 18.757V22.6182C92.2168 23.3867 92.8397 24.0098 93.6084 24.0098ZM9.89503 42.0405C9.85681 41.3009 9.24599 40.7207 8.50528 40.7207H7.23948C5.9503 40.7207 4.90141 39.6709 4.90141 38.3804V36.6151C4.90141 35.3246 5.95012 34.2748 7.23948 34.2748H8.48357C9.25229 34.2748 9.87518 33.6517 9.87518 32.8832V28.2647C12.7753 27.8508 14.4075 26.721 15.1167 24.5187C16.1083 25.4769 17.4668 26.5523 19.249 27.4906C25.7469 30.9116 33.3123 30.146 39.045 28.6399V32.8832C39.045 33.6517 39.6679 34.2748 40.4366 34.2748H41.6783C42.9686 34.2748 44.0184 35.3246 44.0184 36.6151V38.3804C44.0184 39.6709 42.9686 40.7207 41.6783 40.7207H40.4125C39.672 40.7207 39.0611 41.3005 39.0227 42.0401C38.8287 45.775 37.2281 49.2547 34.5162 51.8383C33.1672 53.1234 31.6096 54.1214 29.9241 54.8024C29.9154 54.8059 29.9068 54.8096 29.8981 54.8135C28.1888 55.5002 26.3486 55.8608 24.4599 55.8608C22.5408 55.8608 20.7059 55.4889 19.0239 54.8139C18.9978 54.8024 18.9707 54.7924 18.9438 54.7824C13.8596 52.707 10.1951 47.845 9.89503 42.0405ZM29.0622 58.0233V61.0449V63.1305C29.0622 64.3608 28.5837 65.517 27.7144 66.3861C26.8455 67.2552 25.6893 67.7337 24.4588 67.7337C21.9203 67.7337 19.8552 65.6688 19.8552 63.1303V61.0449V58.0242C21.3234 58.4265 22.867 58.644 24.4601 58.644C26.0339 58.644 27.5784 58.4297 29.0622 58.0233ZM2.7832 70.3715V62.8004C2.7832 61.655 3.71502 60.7232 4.8604 60.7232H8.24941C8.88732 60.7232 9.40611 61.2422 9.40611 61.8801V71.2918C9.40611 71.9297 8.88714 72.4487 8.24941 72.4487H4.8604C3.71502 72.4487 2.7832 71.5168 2.7832 70.3715ZM43.3048 70.9958V88.2294H39.4033V78.9057C39.4033 78.1372 38.7804 77.5141 38.0117 77.5141C37.243 77.5141 36.6201 78.1372 36.6201 78.9057V88.2294H12.2982V78.9057C12.2982 78.1372 11.6754 77.5141 10.9066 77.5141C10.1379 77.5141 9.51503 78.1372 9.51503 78.9057V88.2294H5.61465V75.2319H8.24941C10.422 75.2319 12.1893 73.4643 12.1893 71.2918V62.669C12.8346 62.5158 13.4985 62.4365 14.1737 62.4365H17.072V63.1305C17.072 67.2034 20.3857 70.5171 24.4588 70.5171C26.4328 70.5171 28.2879 69.7489 29.6825 68.3542C31.0772 66.9594 31.8452 65.1043 31.8452 63.1305V62.4365H34.7453C39.4651 62.4365 43.3048 66.2763 43.3048 70.9958ZM76.7867 63.1305C76.7867 64.6731 74.2824 66.8526 72.1833 68.1666C70.0827 66.8522 67.578 64.6729 67.578 63.1305V58.0242C69.0459 58.4265 70.5891 58.6438 72.1818 58.6438C73.7567 58.6438 75.3022 58.4293 76.7867 58.0228V63.1305ZM92.2168 42.6578V50.2183C92.2168 52.8028 90.1151 54.9052 87.5317 54.9052H82.9476C83.3653 54.5746 83.7703 54.2244 84.1602 53.8531C87.0677 51.0814 88.9024 47.4457 89.4076 43.5039C90.4446 43.5028 91.4099 43.1909 92.2168 42.6578ZM54.9633 34.2748H56.2049C56.9737 34.2748 57.5965 33.6517 57.5965 32.8832V25.7844C59.37 26.043 61.1761 26.1738 62.9856 26.1738C71.0144 26.1738 78.8611 23.547 85.2564 18.7473C86.2481 20.5954 86.7665 22.656 86.7665 24.7844V32.8834C86.7665 33.6519 87.3894 34.275 88.1581 34.275H89.4022C90.6914 34.275 91.7403 35.3248 91.7403 36.6153V38.3806C91.7403 39.6711 90.6916 40.7209 89.4022 40.7209H88.1364C87.3959 40.7209 86.7851 41.3007 86.7467 42.0403C86.5528 45.7731 84.9521 49.2531 82.2401 51.8385C80.8977 53.1173 79.3482 54.1114 77.6718 54.7922C77.6471 54.8018 77.6228 54.8122 77.5987 54.8234C75.8955 55.5041 74.0625 55.861 72.1816 55.861C70.2633 55.861 68.4289 55.4893 66.7475 54.8145C66.7206 54.8026 66.693 54.7924 66.6653 54.7822C61.5824 52.7067 57.9188 47.8448 57.619 42.0407C57.5808 41.3011 56.9699 40.7209 56.2292 40.7209H54.9634C53.6731 40.7209 52.6233 39.6711 52.6233 38.3806V36.6151H52.6231C52.6231 35.3246 53.673 34.2748 54.9633 34.2748ZM54.9575 43.5039C55.5486 48.1325 57.9506 52.1667 61.4153 54.9052H56.8349C54.2504 54.9052 52.1479 52.8026 52.1479 50.2183V42.658C52.9549 43.1909 53.9203 43.5028 54.9575 43.5039Z" fill="url(#paint0_linear)" stroke="url(#paint1_linear)" stroke-width="0.5"/>
</g>
<defs>
<linearGradient id="paint0_linear" x1="1.24765" y1="47.5" x2="95" y2="47.5" gradientUnits="userSpaceOnUse">
<stop stop-color="#6BC24C"/>
<stop offset="1" stop-color="#41B6D9"/>
</linearGradient>
<linearGradient id="paint1_linear" x1="1.24765" y1="47.5" x2="95" y2="47.5" gradientUnits="userSpaceOnUse">
<stop stop-color="#6BC24C"/>
<stop offset="1" stop-color="#41B6D9"/>
</linearGradient>
<clipPath id="clip0">
<rect width="95" height="95" fill="white"/>
</clipPath>
</defs>
</svg>
