<?xml version="1.0" encoding="utf-8"?>
<!-- Generator: Adobe Illustrator 22.1.0, SVG Export Plug-In . SVG Version: 6.00 Build 0)  -->
<svg version="1.1" id="Layer_1" xmlns="http://www.w3.org/2000/svg" xmlns:xlink="http://www.w3.org/1999/xlink" x="0px" y="0px"
	 width="150px" height="150px" viewBox="0 0 150 150" style="enable-background:new 0 0 150 150;" xml:space="preserve">
<style type="text/css">
	.st0{fill:#FFFFFF;stroke:#D8D6D6;stroke-width:2;}
	.st1{fill:#444444;}
	.st2{enable-background:new    ;}
	.st3{fill:#D7D7D7;}
	.st4{fill:#68C157;}
	.st5{fill:#2E3543;}
	.st6{fill:#F5E622;}
	.st7{fill:#090A0A;}
	.st8{fill:#F68D2E;}
	.st9{fill:#EAC2A7;}
	.st10{fill:#373463;}
	.st11{fill:#7A8291;}
	.st12{fill:#F6C167;}
	.st13{fill:#F89937;}
</style>
<polygon id="Fill-1" class="st0" points="134.4,90.5 67,90.5 67,8.5 134.4,8.5 "/>
<path class="st1" d="M76.9,24.3h2.5V27c-0.6,0.6-1.6,0.9-2.4,0.9c-2,0-3.3-1.3-3.3-3.3c0-1.8,1.2-3.3,3.1-3.3c0.9,0,1.5,0.2,2,0.7
	l-0.5,0.9c-0.3-0.3-0.9-0.5-1.4-0.5c-1.2,0-2.1,0.8-2.1,2.2c0,1.3,0.8,2.2,2.1,2.2c0.5,0,1.1-0.2,1.3-0.4v-1h-1.6L76.9,24.3
	L76.9,24.3z"/>
<path class="st1" d="M81.6,27.8v-6.3c0.3,0,1.7,0,1.9,0c1.7,0,2.3,0.8,2.3,2c0,1.1-0.7,1.6-1.2,1.8l2,2.5h-1.3l-1.7-2.4h-0.7v2.4
	H81.6z M82.7,22.5v1.9h0.7c0.7,0,1.2-0.3,1.2-1c0-0.5-0.2-0.9-1.1-0.9C83.2,22.5,83,22.5,82.7,22.5z"/>
<path class="st1" d="M90.8,21.4c1.9,0,3.3,1.3,3.3,3.3c0,1.9-1.4,3.3-3.3,3.3s-3.3-1.3-3.3-3.3C87.6,22.8,88.9,21.4,90.8,21.4z
	 M90.8,26.8c1.3,0,2.1-1,2.1-2.2c0-1.3-0.9-2.2-2.1-2.2s-2.1,0.9-2.1,2.2C88.7,25.9,89.7,26.8,90.8,26.8z"/>
<path class="st1" d="M102.2,27.8h-1.1l-1.6-4.6L98,27.8h-1l-1.8-6.3h1.2l1.3,4.5l1.4-4.5h1.1l1.5,4.5l1.2-4.5h1.1L102.2,27.8z"/>
<path class="st1" d="M104.9,21.5h5.1v1.1h-2v5.2h-1.1v-5.2h-2V21.5L104.9,21.5z"/>
<path class="st1" d="M115.8,25.1H113v2.7h-1.1v-6.3h1.1V24h2.9v-2.5h1.1v6.3h-1.1L115.8,25.1L115.8,25.1z"/>
<path class="st1" d="M83.6,37.6v-6.3c0.3,0,1.4,0,1.8,0c1.9,0,2.5,1,2.5,2s-0.8,2-2.3,2c-0.2,0-0.6,0-0.8,0v2.3H83.6L83.6,37.6z
	 M84.8,32.3v2c0.2,0,0.5,0.1,0.8,0.1c0.7,0,1.1-0.3,1.1-1c0-0.7-0.4-1-1.1-1C85.4,32.3,85.1,32.3,84.8,32.3z"/>
<path class="st1" d="M90,31.3h1.1v5.2H94v1.1h-3.9L90,31.3L90,31.3z"/>
<path class="st1" d="M97.5,31.3h1l2.7,6.3h-1.1L99.4,36h-2.7L96,37.6h-1.1L97.5,31.3z M97.1,34.9H99l-0.9-2.2L97.1,34.9z"/>
<g class="st2">
	<path class="st1" d="M107.5,37.6l-3.4-4.3v4.3H103v-6.3h0.9l3.4,4.4v-4.4h1.1v6.3H107.5z"/>
</g>
<path id="Rectangle-Copy-3" class="st3" d="M116.3,44H83.2c-0.9,0-1.6,0.7-1.6,1.6V46c0,0.9,0.7,1.6,1.6,1.6h33.2
	c0.9,0,1.6-0.7,1.6-1.6v-0.4C118,44.8,117.2,44,116.3,44z"/>
<path id="Rectangle-Copy-4" class="st4" d="M116.3,52.3H83.2c-0.9,0-1.6,0.7-1.6,1.6v0.4c0,0.9,0.7,1.6,1.6,1.6h33.2
	c0.9,0,1.6-0.7,1.6-1.6v-0.4C118,53,117.2,52.3,116.3,52.3z"/>
<path id="Rectangle-Copy-5" class="st3" d="M116.3,60.5H83.2c-0.9,0-1.6,0.7-1.6,1.6v0.4c0,0.9,0.7,1.6,1.6,1.6h33.2
	c0.9,0,1.6-0.7,1.6-1.6v-0.4C118,61.2,117.2,60.5,116.3,60.5z"/>
<path id="Rectangle-Copy-6" class="st3" d="M116.3,68.6H83.2c-0.9,0-1.6,0.7-1.6,1.6v0.4c0,0.9,0.7,1.6,1.6,1.6h33.2
	c0.9,0,1.6-0.7,1.6-1.6v-0.4C118,69.4,117.2,68.6,116.3,68.6z"/>
<path id="Rectangle-Copy-7" class="st3" d="M116.3,76.9H83.2c-0.9,0-1.6,0.7-1.6,1.6v0.4c0,0.9,0.7,1.6,1.6,1.6h33.2
	c0.9,0,1.6-0.7,1.6-1.6v-0.4C118,77.6,117.2,76.9,116.3,76.9z"/>
<path id="Path" class="st5" d="M53.8,45.4V31c0-5.8,4.7-10.5,10.5-10.5S74.8,25.2,74.8,31v14.4c0,5.8-4.7,10.5-10.5,10.5
	S53.8,51.2,53.8,45.4z"/>
<path id="Path_1_" class="st6" d="M76.1,54.2l-2.9,15.4L58,69.4l-3-16.1l-0.2-0.7c-0.2-1.4-1.1-2.2-2.5-2.4l-9.7-1.1
	c-1.9-0.2-3.4-1.5-4.2-3.2l-5.2-12.5l3.2-0.6l6.2,10.9L57,44l14.7,0.2h3.7c0.9,0,3,1.1,3.4,2C79.9,48.6,79.5,52.2,76.1,54.2z"/>
<path id="Path_2_" class="st7" d="M50.8,132.9c0,0,0.6,0.7,2.7,0.7c2.2,0,5-0.6,5-0.6l0.8,0.5h2.3c0.2,0,0.5-0.2,0.5-0.5
	c0-0.5,0-1.1,0-2c0-0.7-0.1-1.4-0.2-1.7h-4.6c-0.1,0.1-1,0.7-1.7,1.1c-1.6,0.8-3.1,0.7-4.1,0.9C50.6,131.8,50.8,132.9,50.8,132.9z"
	/>
<path id="Path_3_" class="st7" d="M60.4,132.9c0,0,0.6,0.7,2.7,0.7c2.2,0,5-0.6,5-0.6l0.8,0.5h2.3c0.2,0,0.5-0.2,0.5-0.5
	c0-0.5,0-1.1,0-2c0-0.7-0.1-1.4-0.2-1.7h-4.6c-0.1,0.1-1,0.7-1.7,1.1c-1.6,0.8-3.1,0.7-4.1,0.9C60,131.8,60.4,132.9,60.4,132.9z"/>
<path id="Path_4_" class="st8" d="M60.4,46.6v-2.4h0.8v2.4c0,2.4,2,4.4,4.4,4.4s4.4-2,4.4-4.4v-2.3h0.8v2.3c0,3-2.4,5.3-5.3,5.3
	C62.6,51.9,60.2,49.5,60.4,46.6z"/>
<path id="Path_5_" class="st9" d="M58.6,25.7l-4.2,9.6c-0.3,0.3-0.2,1.1,0.5,1.1l1.7,0.1v4c0,1.3,1,2.4,2.4,2.4l2.4-0.3
	c0.8-0.1,1.6,0.7,1.4,1.6v2.6c-0.2,2.6,3.3,4.6,5.8,1.4v-3.9V32.7c0-2.5-2-7.8-4.6-7.8L58.6,25.7z"/>
<path id="Shape" class="st10" d="M55.5,33.6c-0.5-0.3-0.7-0.9-0.8-1.6s0.1-1.1,0.6-1.7c0.3-0.5,0.9-0.7,1.6-0.8
	c1.3-0.1,2.4,0.9,2.5,2.2c0.1,0.7-0.1,1.1-0.6,1.7c-0.3,0.5-0.9,0.7-1.6,0.8c0,0-0.1,0-0.2,0C56.4,34.2,55.8,34.1,55.5,33.6z
	 M58.5,31.9c-0.1-0.9-0.9-1.5-1.6-1.4c-0.3,0-0.7,0.2-1,0.6c-0.2,0.2-0.3,0.7-0.3,1c0,0.3,0.2,0.7,0.6,1c0.2,0.2,0.7,0.3,1,0.3
	s0.7-0.2,1-0.6C58.3,32.6,58.5,32.3,58.5,31.9z"/>
<path id="Shape_1_" class="st10" d="M59.8,31.9c0-1.3,1-2.3,2.3-2.3c1.3,0,2.3,1,2.3,2.3c0,1.3-1,2.3-2.3,2.3
	C60.8,34.2,59.8,33.2,59.8,31.9z M60.6,31.9c0,0.7,0.7,1.5,1.5,1.5c0.8,0,1.5-0.7,1.5-1.5c0-0.7-0.7-1.5-1.5-1.5
	C61.3,30.5,60.6,31.1,60.6,31.9z"/>
<polygon id="Path_6_" class="st9" points="66.2,106.2 67.3,129.3 71.2,129.4 73.3,106.2 "/>
<polygon id="Path_7_" class="st9" points="57,106.2 58,129.3 61.9,129.4 64,106.2 "/>
<path id="Path_8_" class="st11" d="M58.2,69.4c0,0-1.7,7.4-2.9,11.9c-1.3,4.8-3.8,17.8-4.9,27.8h29.9c0,0-3.3-23.3-4.2-27
	c-0.7-3.7-2.6-12.6-2.6-12.6L58.2,69.4z"/>
<path id="Path_9_" class="st5" d="M70.7,27.2l-3.1-4l-10.9,1.6l-1.9,4l1.8,1.1c0,0,3.2-1.1,3.8-3.7c1.1,5.8,7.8,6.3,7.8,6.3
	L70.7,27.2z"/>
<path class="st5" d="M34,40.6c-0.7,0-1.1-0.6-1.1-1.1V22.2c0-0.7,0.6-1.1,1.1-1.1c0.7,0,1.1,0.6,1.1,1.1v17.3
	C35.1,40,34.5,40.6,34,40.6z"/>
<path class="st12" d="M41.4,9.4l-7.5-7.9l-7.5,7.9c-1.6,1.7-2.6,4-2.6,6.6c0,5.5,4.5,10,10,10s10-4.5,10-10
	C44,13.5,43,11.2,41.4,9.4z"/>
<path class="st13" d="M37.6,13.3L34,8.4l-3.7,4.8c-0.8,0.9-1.2,2-1.2,3.3c0,2.8,2.2,4.9,4.9,4.9s4.9-2.2,4.9-4.9
	C39,15.2,38.4,14.1,37.6,13.3z"/>
<path class="st13" d="M41.8,6.9l-1.2-2.2l-1.2,2.2c-0.2,0.3-0.4,0.7-0.4,1.1c0,0.9,0.7,1.6,1.6,1.6S42,8.9,42,8
	C42.1,7.7,42,7.3,41.8,6.9z"/>
<circle id="Oval" class="st9" cx="34" cy="32.3" r="3"/>
<polygon id="Path_11_" class="st6" points="56.6,59.5 47.1,62.7 48.4,66.7 58.6,63.6 "/>
<path id="Path_12_" class="st9" d="M45.5,62.1c-0.1,0-0.2,0.1-0.3,0.1l-7,2.1c-0.3,0.1-0.7,0.6-0.5,1c0.1,0.3,0.5,0.7,0.9,0.6
	l4.9-0.8c0,0.3,0.1,0.7,0.1,1c0.5,1.6,2.3,2.5,3.9,2.1c1.6-0.5,2.5-2.3,2.1-3.9C48.8,62.6,47,61.6,45.5,62.1z"/>
<path id="Path_13_" class="st8" d="M57.3,65l-0.2-0.8c0.1,0,8.5-2.6,19-9.8l-0.2,1C65.8,62.2,57.3,65,57.3,65z"/>
<path id="Path_14_" class="st8" d="M56.2,59.6L56,58.7c0.1,0,7.4-2.5,13.5-6.7l2.2-0.5C64,57,56.4,59.5,56.2,59.6z"/>
</svg>
