<svg width="130" height="145" viewBox="0 0 130 145" fill="none" xmlns="http://www.w3.org/2000/svg">
<path d="M71.504 53.6441C64.804 53.6441 59.304 48.2441 59.304 41.4441V24.7441C59.304 18.0441 64.804 12.5441 71.504 12.5441C78.204 12.5441 83.704 17.9441 83.704 24.7441V41.5441C83.704 48.2441 78.204 53.6441 71.504 53.6441Z" fill="#2E3543"/>
<path d="M42.4041 111.644H17.104C15.404 111.644 14.004 110.244 14.004 108.544V91.1441C14.004 89.4441 15.404 88.0441 17.104 88.0441H42.4041C44.1041 88.0441 45.504 89.4441 45.504 91.1441V108.544C45.404 110.244 44.1041 111.644 42.4041 111.644Z" fill="#7A7978"/>
<path d="M44.704 89.2441L37.304 101.244H22.604L14.704 89.2441C14.404 89.6441 14.104 90.1441 14.104 90.7441L21.704 102.244C21.804 102.444 22.004 102.544 22.304 102.544H37.704C37.904 102.544 38.204 102.444 38.304 102.244L45.4041 90.8441C45.3041 90.2441 45.104 89.7441 44.704 89.2441Z" fill="#2E3543"/>
<path d="M30.9041 105.644H28.704C27.904 105.644 27.204 104.944 27.204 104.144V99.9441C27.204 99.1441 27.904 98.4441 28.704 98.4441H30.9041C31.7041 98.4441 32.4041 99.1441 32.4041 99.9441V104.144C32.4041 104.944 31.8041 105.644 30.9041 105.644Z" fill="white"/>
<path d="M26.004 88.1441L26.604 85.7441C26.804 85.1441 27.204 84.7441 27.704 84.7441H32.4041C32.9041 84.7441 33.304 85.1441 33.504 85.6441L34.204 88.1441H35.604L34.704 85.2441C34.304 84.1441 33.404 83.3441 32.304 83.3441H27.604C26.504 83.3441 25.504 84.1441 25.204 85.3441L24.504 88.0441L26.004 88.1441C26.004 88.0441 26.004 88.1441 26.004 88.1441Z" fill="#2E3543"/>
<path d="M118.704 1.64411L117.004 2.0441L116.804 1.14411C116.604 0.344107 115.804 -0.155899 115.004 0.0441008C114.204 0.244101 113.704 1.0441 113.904 1.8441L114.104 2.7441L102.904 5.5441L102.704 4.64411C102.504 3.84411 101.704 3.3441 100.904 3.5441C100.104 3.7441 99.604 4.5441 99.804 5.3441L100.004 6.2441L98.304 6.64411C97.704 6.74411 97.404 7.34409 97.504 7.94409L101.104 22.4441C101.204 23.0441 101.804 23.3441 102.404 23.2441L122.704 18.1441C123.304 18.0441 123.604 17.4441 123.504 16.8441L119.904 2.3441C119.804 1.8441 119.204 1.44411 118.704 1.64411ZM122.104 16.7441L102.304 21.6441L99.604 10.9441L119.404 6.0441L122.104 16.7441Z" fill="#E8A4C6"/>
<path d="M104.717 11.165L101.32 12.0095L102.165 15.4059L105.561 14.5614L104.717 11.165Z" fill="#D4D5D7"/>
<path d="M105.817 15.6648L102.42 16.5094L103.265 19.9058L106.661 19.0612L105.817 15.6648Z" fill="#D4D5D7"/>
<path d="M109.317 10.065L105.92 10.9095L106.765 14.3059L110.161 13.4614L109.317 10.065Z" fill="#D87260"/>
<path d="M110.417 14.5648L107.02 15.4093L107.865 18.8057L111.261 17.9612L110.417 14.5648Z" fill="#D4D5D7"/>
<path d="M114.016 8.86517L110.62 9.70972L111.465 13.1061L114.861 12.2616L114.016 8.86517Z" fill="#D4D5D7"/>
<path d="M115.116 13.3649L111.72 14.2095L112.564 17.6059L115.961 16.7613L115.116 13.3649Z" fill="#D4D5D7"/>
<path d="M118.516 7.76507L115.12 8.60962L115.964 12.006L119.361 11.1615L118.516 7.76507Z" fill="#D4D5D7"/>
<path d="M119.616 12.2649L116.22 13.1095L117.064 16.5059L120.461 15.6613L119.616 12.2649Z" fill="#D4D5D7"/>
<path d="M54.204 16.5441C57.404 14.3441 58.204 9.9441 56.004 6.7441C53.804 3.5441 49.404 2.74409 46.204 4.94409C43.304 6.94409 42.404 10.7441 43.904 13.8441L32.504 20.7441C31.604 21.3441 31.404 22.5441 32.004 23.4441C32.604 24.3441 33.804 24.5441 34.704 23.9441L45.004 15.4441C47.204 18.0441 51.204 18.5441 54.204 16.5441ZM46.004 13.6441C44.404 11.3441 45.004 8.24411 47.304 6.64411C49.604 5.04411 52.704 5.64409 54.304 7.94409C55.904 10.2441 55.304 13.3441 53.004 14.9441C50.704 16.4441 47.604 15.9441 46.004 13.6441Z" fill="#D87260"/>
<path d="M128.104 54.1442L123.404 56.6442C122.404 57.1442 121.204 56.8442 120.704 55.8442L114.304 43.8442C113.804 42.8442 114.104 41.6442 115.104 41.1442L119.804 38.5442C120.804 38.0442 122.004 38.3442 122.504 39.3442L128.904 51.3442C129.404 52.4442 129.104 53.6442 128.104 54.1442Z" fill="white"/>
<path d="M119.504 38.1442L114.804 40.6442C113.604 41.3442 113.104 42.8442 113.804 44.0442L120.204 56.0442C120.904 57.2442 122.404 57.7442 123.604 57.0442L128.304 54.5442C129.504 53.8442 130.004 52.3442 129.304 51.1442L122.904 39.1442C122.304 37.9442 120.804 37.4442 119.504 38.1442ZM128.504 51.6442C128.904 52.3442 128.604 53.3442 127.904 53.7442L123.204 56.2442C122.504 56.6442 121.504 56.3442 121.104 55.6442L114.704 43.6442C114.304 42.9442 114.604 41.9442 115.304 41.5442L116.004 41.1442L116.504 42.0442C116.704 42.3442 117.104 42.5442 117.404 42.3442L119.504 41.2442C119.804 41.0442 120.004 40.6442 119.804 40.3442L119.304 39.4442L120.004 39.0442C120.704 38.6442 121.704 38.9442 122.104 39.6442L128.504 51.6442Z" fill="#777777"/>
<path d="M126.404 75.7441H117.004C116.404 75.7441 116.004 76.2441 116.004 76.7441V77.7441C113.904 77.7441 112.204 79.4441 112.204 81.5441C112.204 83.6441 113.904 85.3441 116.004 85.3441V89.4441C116.004 90.0441 116.504 90.4441 117.004 90.4441H126.404C127.004 90.4441 127.404 89.9441 127.404 89.4441V76.7441C127.404 76.1441 127.004 75.7441 126.404 75.7441ZM115.904 84.3441C114.304 84.3441 113.104 83.0441 113.104 81.5441C113.104 80.0441 114.404 78.7441 115.904 78.7441V84.3441Z" fill="#77C54F"/>
<path d="M11.2161 31.535L0.63446 54.6261L18.3619 62.7498L28.9435 39.6587L11.2161 31.535Z" fill="white"/>
<path d="M18.004 63.2441L0.30405 55.0441C0.00404966 54.9441 -0.0959473 54.6441 0.104053 54.3441L10.7041 31.2441C10.8041 30.9441 11.104 30.8441 11.404 31.0441L29.2041 39.1441C29.5041 39.2441 29.604 39.5441 29.404 39.8441L18.7041 62.9441C18.6041 63.2441 18.304 63.3441 18.004 63.2441ZM1.10405 54.3441L18.004 62.0441L28.2041 39.8441L11.304 32.1441L1.10405 54.3441Z" fill="#D8D6D6"/>
<path d="M10.304 38.4441L11.904 35.0441C12.104 35.1441 12.804 35.4441 12.904 35.5441C13.804 35.9441 13.904 36.5441 13.604 37.1441C13.304 37.7441 12.804 37.8441 12.504 37.8441L12.904 39.7441L12.204 39.4441L11.804 37.7441L11.404 37.5441L10.804 38.8441L10.304 38.4441ZM12.204 35.8441L11.704 36.8441L12.104 37.0441C12.404 37.2441 12.804 37.1441 13.004 36.8441C13.104 36.5441 13.104 36.2441 12.604 36.0441C12.504 35.9441 12.404 35.9441 12.204 35.8441Z" fill="#2E3543"/>
<path d="M15.104 40.3441C14.804 40.4441 14.404 40.3441 14.104 40.2441C13.404 39.9441 13.104 39.2441 13.504 38.5441C13.804 37.9441 14.504 37.6441 15.204 37.9441C15.804 38.2441 16.004 38.8441 15.804 39.4441C15.704 39.5441 15.704 39.6441 15.604 39.7441L14.004 39.0441C13.904 39.4441 14.104 39.6441 14.404 39.8441C14.704 39.9441 14.904 39.9441 15.104 39.9441V40.3441ZM14.204 38.6441L15.304 39.1441C15.404 38.8441 15.304 38.5441 15.004 38.4441C14.604 38.2441 14.404 38.3441 14.204 38.6441Z" fill="#2E3543"/>
<path d="M16.704 38.644L17.304 38.944L17.204 39.144C17.404 39.044 17.704 39.044 18.004 39.144C18.604 39.444 18.804 40.044 18.504 40.744C18.204 41.444 17.504 41.744 16.804 41.344C16.604 41.244 16.404 41.144 16.304 41.044L15.804 42.044L15.204 41.744L16.704 38.644ZM16.904 39.644L16.504 40.544C16.604 40.744 16.704 40.844 16.904 40.844C17.304 41.044 17.604 40.844 17.804 40.444C18.004 40.144 17.904 39.744 17.504 39.544C17.304 39.544 17.104 39.544 16.904 39.644Z" fill="#2E3543"/>
<path d="M20.404 40.344C21.104 40.644 21.4041 41.344 21.1041 42.044C20.8041 42.744 20.104 42.944 19.404 42.644C18.704 42.344 18.404 41.644 18.704 40.944C19.004 40.344 19.704 40.044 20.404 40.344ZM19.6041 42.144C19.9041 42.344 20.304 42.144 20.504 41.744C20.704 41.344 20.5041 41.044 20.204 40.844C19.904 40.644 19.504 40.844 19.304 41.144C19.204 41.544 19.3041 41.944 19.6041 42.144Z" fill="#2E3543"/>
<path d="M22.104 41.144L22.704 41.444L22.604 41.644C22.804 41.544 23.004 41.544 23.204 41.644C23.404 41.744 23.504 41.844 23.504 41.844L23.104 42.244C23.004 42.144 23.004 42.044 22.904 42.044C22.704 41.944 22.604 42.044 22.404 42.144L21.704 43.644L21.104 43.344L22.104 41.144Z" fill="#2E3543"/>
<path d="M24.004 41.3441L24.604 41.6441L24.304 42.2441L25.004 42.5441L24.804 43.0441L24.104 42.7441L23.704 43.5441C23.604 43.7441 23.604 43.9441 23.804 44.0441C23.904 44.1441 24.104 44.0441 24.204 44.0441V44.5441C24.004 44.5441 23.704 44.5441 23.504 44.4441C23.004 44.2441 23.004 43.8441 23.204 43.2441L24.004 41.3441Z" fill="#2E3543"/>
<path d="M9.30405 41.5442L22.304 47.5442C22.504 47.6442 22.704 47.5442 22.804 47.3442C22.904 47.1442 22.8041 46.9442 22.6041 46.8442L9.60405 40.8442C9.40405 40.7442 9.20405 40.8442 9.10405 41.0442C9.00405 41.2442 9.10405 41.4442 9.30405 41.5442Z" fill="#2E3543"/>
<path d="M21.704 48.8442L8.70405 42.8442C8.50405 42.7442 8.30405 42.8442 8.20405 43.0442C8.10405 43.2442 8.20405 43.4442 8.40405 43.5442L21.404 49.5442C21.604 49.6442 21.804 49.5442 21.904 49.3442C22.004 49.1442 21.904 48.9442 21.704 48.8442Z" fill="#2E3543"/>
<path d="M20.804 50.9441L7.80405 44.9441C7.60405 44.8441 7.40405 44.9441 7.30405 45.1441C7.20405 45.3441 7.30404 45.5441 7.50404 45.6441L20.504 51.6441C20.704 51.7441 20.904 51.6441 21.004 51.4441C21.104 51.2441 21.004 51.0441 20.804 50.9441Z" fill="#2E3543"/>
<path d="M19.804 52.9441L6.80405 46.9441C6.60405 46.8441 6.40405 46.9441 6.30405 47.1441C6.20405 47.3441 6.30404 47.5441 6.50404 47.6441L19.504 53.6441C19.704 53.7441 19.904 53.6441 20.004 53.4441C20.104 53.3441 20.004 53.0441 19.804 52.9441Z" fill="#2E3543"/>
<path d="M18.904 55.0441L5.90404 49.0441C5.70404 48.9441 5.50404 49.0441 5.40404 49.2441C5.30404 49.4441 5.40405 49.6441 5.60405 49.7441L18.604 55.7441C18.804 55.8441 19.004 55.7441 19.104 55.5441C19.204 55.3441 19.104 55.1441 18.904 55.0441Z" fill="#2E3543"/>
<path d="M12.004 54.4442L4.90404 51.2442C4.70404 51.1442 4.50404 51.2442 4.40404 51.4442C4.30404 51.6442 4.40405 51.8442 4.60405 51.9442L11.704 55.1442C11.904 55.2442 12.104 55.1442 12.204 54.9442C12.304 54.7442 12.204 54.4442 12.004 54.4442Z" fill="#2E3543"/>
<path d="M86.304 141.644C85.104 141.344 83.304 141.544 81.504 140.544C80.604 139.944 79.604 139.244 79.504 139.144H74.204C74.104 139.544 74.004 140.444 74.004 141.144C74.004 142.144 74.004 142.944 74.004 143.444C74.004 143.744 74.304 143.944 74.504 143.944H77.104L78.104 143.444C78.104 143.444 81.4041 144.044 83.9041 144.044C86.4041 144.044 87.104 143.144 87.104 143.144C87.104 143.144 87.504 141.944 86.304 141.644Z" fill="#090A0A"/>
<path d="M75.204 141.644C74.004 141.344 72.2041 141.544 70.4041 140.544C69.5041 139.944 68.5041 139.244 68.4041 139.144H63.104C63.004 139.544 62.9041 140.444 62.9041 141.144C62.9041 142.144 62.9041 142.944 62.9041 143.444C62.9041 143.744 63.2041 143.944 63.4041 143.944H66.004L67.004 143.444C67.004 143.444 70.304 144.044 72.804 144.044C75.304 144.044 76.004 143.144 76.004 143.144C76.004 143.144 76.404 141.944 75.204 141.644Z" fill="#090A0A"/>
<path d="M60.9041 69.4441L59.304 64.0441L54.104 73.4441C52.904 75.9441 50.804 77.0441 50.204 77.2441L34.4041 83.2441L32.4041 78.1441L48.204 71.0441L56.9041 55.4441L46.104 61.9441C43.904 63.8441 40.704 64.1441 38.204 62.6441L25.904 55.0441L28.904 50.4441L40.9041 56.3441L56.604 46.1441L43.104 43.0441C40.604 42.2441 38.704 40.0441 38.504 37.3441L37.004 22.6441L42.304 21.4441L44.604 35.4441L61.204 40.9441L78.804 40.8441L96.304 37.5441L99.604 23.8441L105.004 24.5441L102.804 38.1441C102.404 40.8441 100.404 42.9441 97.704 43.5441L82.504 47.3441L98.304 57.0441L112.404 48.9441L115.304 53.7441L101.304 63.0441C99.004 64.4441 96.004 64.3441 93.804 62.6441L82.004 55.0441L93.204 72.1441L107.704 78.0441L106.504 83.6441L91.504 79.2441C89.704 78.7441 88.104 77.4441 87.304 75.6441L80.9041 65.4441L78.604 69.5441L60.9041 69.4441Z" fill="#F5E622"/>
<path d="M116.004 54.2441C118.434 54.2441 120.404 52.2742 120.404 49.8441C120.404 47.414 118.434 45.4441 116.004 45.4441C113.574 45.4441 111.604 47.414 111.604 49.8441C111.604 52.2742 113.574 54.2441 116.004 54.2441Z" fill="#EAC2A7"/>
<path d="M110.204 86.0441C112.634 86.0441 114.604 84.0742 114.604 81.6441C114.604 79.2141 112.634 77.2441 110.204 77.2441C107.774 77.2441 105.804 79.2141 105.804 81.6441C105.804 84.0742 107.774 86.0441 110.204 86.0441Z" fill="#EAC2A7"/>
<path d="M102.704 25.2441C105.134 25.2441 107.104 23.2742 107.104 20.8441C107.104 18.414 105.134 16.4441 102.704 16.4441C100.274 16.4441 98.304 18.414 98.304 20.8441C98.304 23.2742 100.274 25.2441 102.704 25.2441Z" fill="#EAC2A7"/>
<path d="M38.4041 23.3441C40.8341 23.3441 42.804 21.3741 42.804 18.9441C42.804 16.514 40.8341 14.5441 38.4041 14.5441C35.974 14.5441 34.004 16.514 34.004 18.9441C34.004 21.3741 35.974 23.3441 38.4041 23.3441Z" fill="#EAC2A7"/>
<path d="M24.604 55.444C27.0341 55.444 29.004 53.4741 29.004 51.044C29.004 48.614 27.0341 46.644 24.604 46.644C22.174 46.644 20.204 48.614 20.204 51.044C20.204 53.4741 22.174 55.444 24.604 55.444Z" fill="#EAC2A7"/>
<path d="M30.4041 86.3441C32.8341 86.3441 34.804 84.3741 34.804 81.9441C34.804 79.514 32.8341 77.5441 30.4041 77.5441C27.974 77.5441 26.004 79.514 26.004 81.9441C26.004 84.3741 27.974 86.3441 30.4041 86.3441Z" fill="#EAC2A7"/>
<path d="M70.104 49.7441C66.704 49.7441 64.004 47.0441 64.004 43.6441V40.9441H65.004V43.6441C65.004 46.4441 67.304 48.7441 70.104 48.7441C72.904 48.7441 75.204 46.4441 75.204 43.6441V40.8441H76.204V43.6441C76.204 46.9441 73.504 49.7441 70.104 49.7441Z" fill="#F68D2E"/>
<path d="M72.004 17.644C69.004 17.744 66.704 23.644 66.704 26.644V39.944V44.444C69.504 48.144 73.704 45.944 73.504 42.944V39.844C73.304 38.844 74.104 37.944 75.104 38.044L77.9041 38.444C79.5041 38.444 80.704 37.144 80.704 35.644V30.944L82.704 30.844C83.404 30.844 83.704 30.044 83.204 29.544L78.104 18.544L72.004 17.644Z" fill="#EAC2A7"/>
<path d="M76.804 35.644C77.9086 35.644 78.804 34.7486 78.804 33.644C78.804 32.5395 77.9086 31.644 76.804 31.644C75.6995 31.644 74.804 32.5395 74.804 33.644C74.804 34.7486 75.6995 35.644 76.804 35.644Z" fill="white"/>
<path d="M80.1041 29.5442C80.0041 29.5442 79.9041 29.5442 79.9041 29.5442C79.2041 29.4442 78.5041 29.1442 78.1041 28.5442C77.6041 27.9442 77.404 27.2442 77.504 26.5442C77.604 25.0442 78.9041 23.9442 80.4041 24.0442C81.1041 24.1442 81.804 24.4442 82.204 25.0442C82.704 25.6442 82.9041 26.3442 82.8041 27.0442C82.7041 27.7442 82.4041 28.4442 81.8041 28.8442C81.3041 29.3442 80.7041 29.5442 80.1041 29.5442ZM78.3041 26.7441C78.3041 27.2441 78.404 27.6441 78.704 27.9441C79.004 28.2441 79.4041 28.5442 79.9041 28.5442C80.4041 28.5442 80.8041 28.4442 81.1041 28.1442C81.4041 27.8442 81.704 27.4441 81.704 26.9441C81.704 26.4441 81.6041 26.0441 81.3041 25.7441C81.0041 25.4441 80.6041 25.1442 80.1041 25.1442C79.3041 25.0442 78.4041 25.7441 78.3041 26.7441Z" fill="#373463"/>
<path d="M74.004 29.544C72.504 29.544 71.304 28.344 71.304 26.844C71.304 25.344 72.504 24.144 74.004 24.144C75.504 24.144 76.704 25.344 76.704 26.844C76.704 28.344 75.504 29.544 74.004 29.544ZM74.004 25.144C73.104 25.144 72.304 25.944 72.304 26.844C72.304 27.744 73.104 28.544 74.004 28.544C74.904 28.544 75.704 27.744 75.704 26.844C75.704 25.944 75.004 25.144 74.004 25.144Z" fill="#373463"/>
<path d="M61.004 112.144L63.4041 139.144L68.004 138.944L69.104 112.144H61.004Z" fill="#EAC2A7"/>
<path d="M71.804 112.144L74.204 139.144L78.804 138.944L80.004 112.144H71.804Z" fill="#EAC2A7"/>
<path d="M60.9041 69.4441C60.9041 69.4441 58.704 79.1441 57.804 83.1441C56.904 87.1441 53.004 112.344 53.004 112.344H87.704C86.504 101.544 83.504 87.4441 82.004 82.2441C80.604 77.3441 78.604 69.4441 78.604 69.4441H60.9041Z" fill="#7A8291"/>
<path d="M66.804 26.3441C66.804 26.3441 74.704 25.8441 76.004 19.0441C76.704 21.9441 80.4041 23.2441 80.4041 23.2441L82.504 21.9441L80.204 17.2441L67.604 15.5441L64.004 20.2441L66.804 26.3441Z" fill="#2E3543"/>
</svg>
