<svg width="172" height="87" viewBox="0 0 172 87" fill="none" xmlns="http://www.w3.org/2000/svg">
<path d="M25.8 3.40015C18.6 3.40015 12.7 9.30014 12.7 16.5001V34.6001C12.7 41.8001 18.6 47.7001 25.8 47.7001C33 47.7001 38.9 41.8001 38.9 34.6001V16.5001C38.9 9.20014 33.1 3.40015 25.8 3.40015Z" fill="#2E3543"/>
<path d="M10.9 33.0001H36.7C39.8 33.0001 42.4 35.4001 42.6 38.5001L44.5 68.9001C44.7 71.4001 46.7 73.4001 49.2 73.5001L69 74.0001L68.9 78.2001H45.3001V81.0001H7.60004C4.20004 81.0001 1.60005 78.1001 1.80005 74.7001L5 38.4001C5.3 35.4001 7.90003 33.0001 10.9 33.0001Z" fill="#F5E622"/>
<path d="M68.5 74.0001V78.1001H75V77.3001C75 75.5001 73.4 74.0001 71.3 74.0001C71.3 74.0001 68.5 74.0001 68.5 74.0001Z" fill="#EAC2A7"/>
<path d="M83 46.2002V81.2002H104V56.0002L83 46.2002Z" fill="#CACACA"/>
<path d="M83 46.2002H80V81.2002H83V46.2002Z" fill="#2E3543"/>
<path d="M82.1 78.2002H47.1V81.2002H82.1V78.2002Z" fill="#2E3543"/>
<path d="M37.8 75.2002V81.1002H49.6V79.8002C49.6 77.2002 47.4 75.2002 44.7 75.2002H37.8Z" fill="#EAC2A7"/>
<path d="M24.3 42.7001C20.6 42.7001 17.7 39.8001 17.7 36.1001V33.2001H18.8V36.1001C18.8 39.1001 21.3 41.6001 24.3 41.6001C27.3 41.6001 29.8 39.1001 29.8 36.1001V33.1001H30.9V36.1001C30.9 39.7001 28 42.7001 24.3 42.7001Z" fill="#F68D2E"/>
<path d="M26.4 8.7002C23.2 8.8002 20.6 15.2002 20.6 18.4002V32.8002V37.7002C23.6 41.7002 28.1 39.3002 27.9 36.0002V32.7002C27.7 31.6002 28.5 30.7002 29.6 30.8002L32.6 31.2002C34.3 31.2002 35.6 29.8002 35.6 28.2002V23.1002L37.8 23.0002C38.6 23.0002 38.9 22.1002 38.3 21.6002L33 9.7002L26.4 8.7002Z" fill="#EAC2A7"/>
<path d="M31.5 28.2002C32.715 28.2002 33.7 27.2152 33.7 26.0002C33.7 24.7851 32.715 23.8002 31.5 23.8002C30.285 23.8002 29.3 24.7851 29.3 26.0002C29.3 27.2152 30.285 28.2002 31.5 28.2002Z" fill="white"/>
<path d="M35.1001 21.7002C35.0001 21.7002 34.9001 21.7002 34.9001 21.7002C34.1001 21.6002 33.4 21.3002 33 20.6002C32.5 20.0002 32.2001 19.2002 32.4001 18.4002C32.5001 16.8002 33.9 15.6002 35.5 15.7002C36.3 15.8002 37.0001 16.1001 37.4001 16.8001C37.9001 17.4001 38.2 18.2001 38 19.0001C37.8 19.8001 37.6001 20.5002 36.9001 20.9002C36.4001 21.5002 35.7001 21.7002 35.1001 21.7002ZM33.1001 18.7002C33.1001 19.2002 33.2 19.7001 33.5 20.0001C33.8 20.3001 34.3001 20.6002 34.8001 20.6002C35.3001 20.6002 35.8001 20.5002 36.1001 20.2002C36.4001 19.9002 36.7 19.4002 36.7 18.9002C36.7 18.4002 36.6001 17.9002 36.3001 17.6002C36.0001 17.3002 35.5 17.0001 35 17.0001C34.2 16.8001 33.2001 17.5002 33.1001 18.7002Z" fill="#373463"/>
<path d="M28.5 21.7001C26.9 21.7001 25.6 20.4001 25.6 18.8001C25.6 17.2001 26.9 15.9001 28.5 15.9001C30.1 15.9001 31.4 17.2001 31.4 18.8001C31.4 20.4001 30.1 21.7001 28.5 21.7001ZM28.5 17.0001C27.5 17.0001 26.7 17.9001 26.7 18.8001C26.7 19.7001 27.6 20.6001 28.5 20.6001C29.4 20.6001 30.3 19.7001 30.3 18.8001C30.3 17.8001 29.6 17.0001 28.5 17.0001Z" fill="#373463"/>
<path d="M20.7 18.2001C20.7 18.2001 29.2 17.6001 30.6 10.3001C31.4 13.5001 35.4 14.9001 35.4 14.9001L37.7 13.5001L35.3 8.50009L21.6 6.6001L17.7 11.7001L20.7 18.2001Z" fill="#2E3543"/>
<path d="M36.8 47.5002L35.8 46.3002L36.8 74.2002H12.5C11 74.2002 9.90004 72.9002 10.1 71.5002L12.2 49.4002L11.4 47.5002L9.10004 71.7002C8.90004 73.6002 10.4 75.2002 12.2 75.2002H37.9L36.8 47.5002Z" fill="#F68D2E"/>
<path d="M134.2 33.4001H157.2H159.7C165.7 33.4001 166.7 37.7001 166.7 40.1001V76.7001C166.7 79.0001 164.8 80.9001 162.5 80.9001H122V75.5001L125.8 75.4001L108.7 49.9001L114.3 47.9001L124.6 62.3001L127.2 39.5001C127.7 36.1001 130.7 33.4001 134.2 33.4001Z" fill="#77C54F"/>
<path d="M122.1 75.5001V80.9001H111.8V79.7001C111.8 77.4001 113.7 75.6001 115.9 75.6001L122.1 75.5001C122.1 75.7001 122.1 75.5001 122.1 75.5001Z" fill="#EAC2A7"/>
<path d="M113.9 45.7001H111.8L109.7 43.6001C109.2 43.1001 108.3 43.1001 107.8 43.6001C107.3 44.1001 107.3 45.0001 107.8 45.5001L108 45.7001H99.5C99 45.7001 98.5 46.1001 98.5 46.7001C98.5 47.1001 98.7 47.5001 99.1 47.6001L104 49.6001C105 50.0001 106.2 50.3001 107.3 50.3001H114C115.3 50.3001 116.3 49.3001 116.3 48.0001C116.1 46.7001 115.1 45.7001 113.9 45.7001Z" fill="#EAC2A7"/>
<path d="M125.9 75.5001L125.2 74.5001L157.2 72.7001L156.6 45.6001L157.6 43.6001L158.2 73.5001L125.9 75.5001Z" fill="#5D913C"/>
<path d="M132.4 74.5001L131.2 74.3001L134.7 46.1001L136 44.9001L132.4 74.5001Z" fill="#5D913C"/>
<path d="M113.7 25L106.5 17.3L99.3 25C97.8 26.7 96.8 29.0001 96.8 31.4001C96.8 36.8001 101.2 41.1001 106.5 41.1001C111.8 41.1001 116.2 36.7001 116.2 31.4001C116.2 28.9001 115.2 26.7 113.7 25Z" fill="#F6C167"/>
<path d="M110 27.9001L106.4 23.2001L102.9 27.9001C102.1 28.7001 101.7 29.9001 101.7 31.1001C101.7 33.8001 103.8 35.9001 106.5 35.9001C109.2 35.9001 111.3 33.8001 111.3 31.1001C111.4 29.9001 110.9 28.8001 110 27.9001Z" fill="#F89937"/>
<path d="M107.6 13.3001V5.6001H105.6V13.2001C105.6 13.8001 106 14.2001 106.6 14.2001C107.2 14.2001 107.6 13.8001 107.6 13.3001Z" fill="#F89937"/>
<path d="M111 7.50005V3.80005H109V7.40005C109 8.00005 109.4 8.40005 110 8.40005C110.6 8.40005 111 8.00005 111 7.50005Z" fill="#F89937"/>
<path d="M103.4 20.6L102.2 18.5L101 20.6C100.8 20.9 100.6 21.2 100.6 21.6C100.6 22.5 101.3 23.2 102.2 23.2C103.1 23.2 103.8 22.5 103.8 21.6C103.7 21.3 103.6 20.9 103.4 20.6Z" fill="#F89937"/>
<path d="M134.4 8.50014V21.4001V26.7001C134.4 28.5001 135.9 30.0001 137.7 30.0001L140.6 29.7001C141.7 29.5001 142.8 30.5001 142.8 31.7001V35.2001C142.8 37.4002 144.5 39.1001 146.7 39.1001C148.9 39.1001 150.6 37.4002 150.6 35.2001V31.7001V10.4001L136.2 7.90015L134.4 8.50014Z" fill="#EAC2A7"/>
<path d="M140 36.4001V33.5001H141.1V36.4001C141.1 39.3001 143.6 41.8001 146.5 41.8001C149.4 41.8001 151.9 39.4001 151.9 36.4001V33.5001H153V36.4001C153 40.0001 150.1 42.9001 146.5 42.9001C143 42.9001 139.9 39.9001 140 36.4001Z" fill="#5D913C"/>
<path d="M150.7 6.60008C150.5 6.60008 150.4 6.60008 150.4 6.60008C149.4 3.80008 145.4 3.00008 142.5 3.00008C139 3.00008 137.3 3.30008 137.3 1.60008V7.71397e-05C137.3 7.71397e-05 130.4 -0.0999136 130.6 6.90009C130.6 13.0001 137.3 11.9001 140.1 11.9001H142.2C143.3 11.9001 144.2 12.8001 144.2 13.9001V15.4001C144.2 15.9001 144.7 16.5001 145.3 16.5001C145.9 16.5001 146.4 16.1001 146.4 15.4001V14.2001C146.4 13.8001 146.7 13.4001 147.2 13.4001H147.6V23.6001C147.6 25.4001 149.1 26.9001 150.9 26.9001H151C152.8 26.9001 154.3 25.4001 154.3 23.6001V9.80008C153.9 8.00008 152.6 6.60008 150.7 6.60008Z" fill="#2E3543"/>
<path d="M135.9 22.8C136.1 24.2 137.3 25.2001 138.7 25.2001C140.1 25.2001 141.3 24.1 141.5 22.8H135.9Z" fill="white"/>
<path d="M135.4 20.6001H131.9C131.2 20.6001 130.6 20 130.6 19.3V19.1001C130.6 18.4001 131.2 17.8 131.9 17.8H135.4C136.1 17.8 136.7 18.4001 136.7 19.1001V19.3C136.7 20.1 136.2 20.6001 135.4 20.6001Z" fill="#EAC2A7"/>
<path d="M171.5 84.0001H0.5C0.2 84.0001 0 83.8001 0 83.5001V81.5001C0 81.2001 0.2 81.0001 0.5 81.0001H171.5C171.8 81.0001 172 81.2001 172 81.5001V83.5001C172 83.8001 171.8 84.0001 171.5 84.0001Z" fill="#9C4A73"/>
<path d="M171.5 87.0001H0.5C0.2 87.0001 0 86.8001 0 86.5001V84.5001C0 84.2001 0.2 84.0001 0.5 84.0001H171.5C171.8 84.0001 172 84.2001 172 84.5001V86.5001C172 86.8001 171.8 87.0001 171.5 87.0001Z" fill="white"/>
</svg>
