<svg width="143" height="160" viewBox="0 0 143 160" fill="none" xmlns="http://www.w3.org/2000/svg">
<path d="M61.7318 34.6078H39.5672H10.9867V39.3712L38.4979 43.0653C39.8589 43.2597 40.831 44.3291 41.0254 45.69L43.7474 70.8682H69.12L69.606 42.6765C69.8004 38.3019 66.2036 34.6078 61.7318 34.6078Z" fill="#77C54F"/>
<path d="M38.4988 126.28C38.4988 126.28 39.1792 127.154 41.5123 127.154C43.8455 127.154 46.9563 126.571 46.9563 126.571L47.9284 126.96H50.3587C50.5531 126.96 50.8448 126.766 50.8448 126.474C50.8448 126.085 50.8448 125.307 50.8448 124.335C50.8448 123.655 50.7476 122.78 50.6504 122.391H45.6925C45.5953 122.488 44.7204 123.169 43.8455 123.655C42.1929 124.627 40.443 124.432 39.3737 124.724C38.2071 124.918 38.4988 126.28 38.4988 126.28Z" fill="#2E3543"/>
<path d="M52.5932 126.28C52.5932 126.28 53.2736 127.154 55.6067 127.154C57.9399 127.154 61.0507 126.571 61.0507 126.571L62.0228 126.96H64.4531C64.6475 126.96 64.9392 126.766 64.9392 126.474C64.9392 126.085 64.9392 125.307 64.9392 124.335C64.9392 123.655 64.842 122.78 64.7448 122.391H59.7869C59.6897 122.488 58.8148 123.169 57.9399 123.655C56.2873 124.627 54.5374 124.432 53.4681 124.724C52.3987 124.918 52.5932 126.28 52.5932 126.28Z" fill="#2E3543"/>
<path d="M65.3282 122.391H58.9122L56.3847 78.0619H54.732L51.4268 122.391H45.0108L43.6498 70.8682H67.6613L65.3282 122.391Z" fill="#304970"/>
<path d="M62.1202 44.3291L63.0924 47.2455L63.7729 70.6738H62.8007L62.1202 44.3291Z" fill="#5D913C"/>
<path d="M66.7864 76.9925C68.8266 76.9925 70.4805 75.3387 70.4805 73.2985C70.4805 71.2583 68.8266 69.6044 66.7864 69.6044C64.7462 69.6044 63.0923 71.2583 63.0923 73.2985C63.0923 75.3387 64.7462 76.9925 66.7864 76.9925Z" fill="#EAC2A7"/>
<path d="M66.6907 31.108C66.6907 35.8714 62.9966 39.6627 58.2332 39.8572C53.4698 39.8572 49.6785 36.1631 49.4841 31.3997L49.3869 25.9558C48.8036 25.6641 48.3175 25.3725 47.8314 24.9836C47.7342 24.9836 47.7343 24.9836 47.7343 24.9836C44.5262 24.9836 41.9015 22.4561 41.8043 19.2481C41.7071 16.6233 43.5541 14.3874 45.9844 13.6097C47.5398 11.2766 50.0674 9.72123 53.081 9.62402C57.8444 9.52681 61.7329 13.3181 61.9273 18.0815C62.0245 19.8313 61.4412 21.484 60.4691 22.9422C63.8715 24.0115 66.4963 27.3167 66.6907 31.108Z" fill="#2E3543"/>
<path d="M51.5249 20.4148C51.7193 21.4841 51.0388 22.2618 49.9695 22.359L48.9974 22.4562L49.1918 30.0388C49.1918 30.0388 49.0946 30.8165 49.3862 32.9552C49.4834 34.219 50.65 36.1632 50.9416 36.6493C50.7472 37.3298 49.9695 37.8159 49.0946 37.8159C48.1225 37.8159 47.2475 36.8437 47.2475 35.8716L47.3447 30.5249H46.4698C43.9423 30.6221 41.8036 28.4834 41.7064 25.9559L41.6092 23.4284H40.7343C40.3454 23.4284 40.0538 23.1367 40.0538 22.7479C40.0538 22.359 40.3454 22.0674 40.7343 22.0674H41.6092L41.512 19.3454L49.7751 19.151C50.7472 19.151 51.5249 19.6371 51.5249 20.4148Z" fill="#EAC2A7"/>
<path d="M9.8185 33.0524C9.72128 33.0524 9.52683 33.0524 9.42962 33.0524H0.874909C0.388845 33.0524 0 33.4412 0 33.9273C0 34.4134 0.291626 34.8022 0.77769 34.8022L6.51324 35.4827C6.41603 35.8715 6.31883 36.2604 6.31883 36.6493C6.31883 38.5935 7.97143 40.2461 9.91569 40.2461C11.8599 40.2461 13.5126 38.5935 13.5126 36.6493C13.5126 34.705 11.7628 33.0524 9.8185 33.0524Z" fill="#EAC2A7"/>
<path d="M106.74 101.685H83.1174L84.5756 155.055H90.7972L94.0052 109.073H95.6578L97.9909 155.055H104.504L106.74 101.685Z" fill="#2E3543"/>
<path d="M78.841 157.29C79.9104 156.999 81.563 157.193 83.2156 156.221C84.0905 155.735 84.9654 155.054 85.0626 154.957H89.9233C90.0205 155.346 90.1177 156.221 90.1177 156.804C90.1177 157.776 90.1177 158.457 90.1177 158.943C90.1177 159.234 89.9233 159.429 89.6316 159.429H87.2985L86.4236 159.04C86.4236 159.04 83.3128 159.623 81.0769 159.526C78.7438 159.526 78.0633 158.651 78.0633 158.651C78.0633 158.651 77.7717 157.582 78.841 157.29Z" fill="#090A0A"/>
<path d="M92.7413 157.29C93.8106 156.999 95.4632 157.193 97.1158 156.221C97.9908 155.735 98.8657 155.054 98.9629 154.957H103.824C103.921 155.346 104.018 156.221 104.018 156.804C104.018 157.776 104.018 158.457 104.018 158.943C104.018 159.234 103.824 159.429 103.532 159.429H101.199L100.324 159.04C100.324 159.04 97.213 159.623 94.9772 159.526C92.644 159.526 91.9636 158.651 91.9636 158.651C91.9636 158.651 91.6719 157.582 92.7413 157.29Z" fill="#090A0A"/>
<path d="M125.99 52.2032L119.476 64.1604H85.2575C81.5634 64.1604 78.5498 67.174 78.5498 70.8681V80.2977C78.5498 82.3392 76.8972 83.9918 74.8558 83.9918H62.8014V89.3385L76.8 90.3107C78.6471 90.3107 81.8551 90.8939 83.0216 87.1026L83.1189 101.685H106.839L108.297 74.1733C108.394 72.9096 109.269 71.9374 110.533 71.743L121.615 70.0904C122.976 69.896 124.24 69.0211 124.823 67.6601L130.461 54.9252L125.99 52.2032Z" fill="#00B6FB"/>
<path d="M97.8946 47.4399V62.7995V65.3271C97.8946 66.8825 96.6308 68.1462 95.0754 68.1462C93.52 68.1462 92.2563 66.8825 92.2563 65.3271V62.7995C92.2563 61.9246 91.4785 61.2441 90.7008 61.3413L88.6594 61.633C87.3956 61.633 86.3263 60.5636 86.3263 59.2999V55.5086L84.6737 55.4113C84.0904 55.4113 83.9932 54.8281 84.2848 54.342L87.5901 45.6901L97.8946 47.4399Z" fill="#EAC2A7"/>
<path d="M83.7983 52.9811C83.3122 52.5923 83.0206 52.1062 83.0206 51.4257C82.9234 50.8424 83.1178 50.2592 83.5067 49.7731C83.8955 49.287 84.3816 48.9954 85.0621 48.9954C86.3259 48.8982 87.3952 49.7731 87.4924 51.0368C87.5896 51.6201 87.3952 52.2034 87.0064 52.6895C86.6175 53.1755 86.1314 53.4672 85.4509 53.4672C85.3537 53.4672 85.3537 53.4672 85.2565 53.4672C84.6732 53.5644 84.1872 53.37 83.7983 52.9811ZM86.6175 51.1341C86.5203 50.3564 85.8398 49.7731 85.0621 49.8703C84.6732 49.8703 84.3816 50.0647 84.09 50.3564C83.8955 50.648 83.7011 51.0369 83.7983 51.4257C83.7983 51.8146 83.9927 52.1062 84.2844 52.3979C84.576 52.6895 84.9649 52.7867 85.3537 52.6895C85.7426 52.6895 86.0342 52.4951 86.3259 52.2034C86.5203 51.9118 86.6175 51.5229 86.6175 51.1341Z" fill="#2E3543"/>
<path d="M87.8812 51.3284C87.8812 50.0647 88.8533 49.0925 90.117 49.0925C91.3808 49.0925 92.353 50.0647 92.353 51.3284C92.353 52.5922 91.3808 53.5643 90.117 53.5643C88.8533 53.5643 87.8812 52.495 87.8812 51.3284ZM88.7561 51.3284C88.7561 52.1061 89.3393 52.6894 90.117 52.6894C90.8947 52.6894 91.478 52.1061 91.478 51.3284C91.478 50.5507 90.8947 49.9675 90.117 49.9675C89.3393 49.8703 88.7561 50.5507 88.7561 51.3284Z" fill="#2E3543"/>
<path d="M88.2708 38.2047V39.4685C88.2708 40.7322 89.5345 40.5378 92.0621 40.5378C94.4924 40.5378 97.8948 41.3155 97.8948 44.0375C97.8948 44.8152 97.8948 54.5364 97.8948 54.5364C96.6311 54.5364 95.5617 53.4671 95.5617 52.2033V48.0232H95.1729C94.8813 48.0232 94.5896 48.3148 94.5896 48.6065V49.4814C94.5896 49.8703 94.2008 50.2591 93.8119 50.2591C93.4231 50.2591 93.0342 49.8703 93.0342 49.4814V48.3148C93.0342 47.5371 92.4509 46.9539 91.6732 46.9539H90.215C88.1736 46.9539 83.3129 47.7316 83.3129 43.357C83.3129 38.2047 88.2708 38.2047 88.2708 38.2047Z" fill="#2E3543"/>
<path d="M95.0749 71.0626C97.6996 71.0626 99.8383 68.924 99.8383 66.2992V64.1605H99.0606V66.2992C99.0606 68.5351 97.3108 70.2849 95.0749 70.2849C92.839 70.2849 91.0892 68.5351 91.0892 66.2992V64.1605H90.3115V66.2992C90.3115 68.924 92.4501 71.0626 95.0749 71.0626Z" fill="#007EA5"/>
<path d="M129.584 60.0775C128.904 60.0775 128.417 59.4942 128.417 58.9109V40.4405C128.417 39.76 129.001 39.2739 129.584 39.2739C130.265 39.2739 130.751 39.8572 130.751 40.4405V58.9109C130.848 59.4942 130.265 60.0775 129.584 60.0775Z" fill="#2E3543"/>
<path d="M139.597 20.2201L129.584 9.62396L119.572 20.2201C117.433 22.5533 116.169 25.6641 116.169 29.0665C116.169 36.4547 122.196 42.4819 129.584 42.4819C136.973 42.4819 143 36.4547 143 29.0665C143 25.7613 141.736 22.7477 139.597 20.2201Z" fill="#F6C167"/>
<path d="M134.542 25.4698L129.584 18.9565L124.627 25.4698C123.557 26.6364 122.974 28.1918 122.974 29.8444C122.974 33.5385 125.89 36.4548 129.584 36.4548C133.279 36.4548 136.195 33.5385 136.195 29.8444C136.292 28.1918 135.612 26.6364 134.542 25.4698Z" fill="#F89937"/>
<path d="M139.986 17.1095L138.334 14.1931L136.681 17.1095C136.292 17.4983 136.098 17.8872 136.098 18.5677C136.098 19.7342 137.07 20.7064 138.236 20.7064C139.403 20.7064 140.375 19.7342 140.375 18.5677C140.569 17.9844 140.278 17.4983 139.986 17.1095Z" fill="#F89937"/>
<path d="M126.279 10.6934V0H123.557V10.5962C123.557 11.2767 124.14 12.0544 125.015 12.0544C125.696 11.9572 126.279 11.3739 126.279 10.6934Z" fill="#F89937"/>
<path d="M121.225 11.2765V6.2215H118.503V11.2765C118.503 11.957 119.086 12.7347 119.961 12.7347C120.641 12.7347 121.225 11.957 121.225 11.2765Z" fill="#F89937"/>
<path d="M129.197 55.4114C131.184 55.4114 132.794 53.801 132.794 51.8145C132.794 49.828 131.184 48.2177 129.197 48.2177C127.211 48.2177 125.6 49.828 125.6 51.8145C125.6 53.801 127.211 55.4114 129.197 55.4114Z" fill="#EAC2A7"/>
<path d="M47.7323 94.1993C56.2151 94.1993 63.0919 90.1951 63.0919 85.2557C63.0919 80.3163 56.2151 76.3121 47.7323 76.3121C39.2494 76.3121 32.3726 80.3163 32.3726 85.2557C32.3726 90.1951 39.2494 94.1993 47.7323 94.1993Z" fill="white"/>
<path d="M47.7327 78.6452C55.5097 78.6452 61.9257 82.0477 62.8979 86.4222C62.9951 86.0334 63.0923 85.6445 63.0923 85.2557C63.0923 80.2978 56.1902 75.34 47.7327 75.34C39.2752 75.34 32.373 80.2978 32.373 85.2557C32.373 85.6445 32.4703 86.0334 32.5675 86.4222C33.5396 82.0477 39.9557 78.6452 47.7327 78.6452Z" fill="#B1B1B1"/>
<path d="M47.7323 94.1991C39.9552 94.1991 33.5392 90.7967 32.5671 86.4221C32.4698 86.811 32.3726 87.1998 32.3726 87.5887C32.3726 92.5465 39.2747 97.5044 47.7323 97.5044C56.1898 97.5044 63.0919 92.5465 63.0919 87.5887C63.0919 87.1998 62.9946 86.811 62.8974 86.4221C61.9253 90.7967 55.5093 94.1991 47.7323 94.1991Z" fill="#696A6C"/>
<path d="M35.9699 86.4222L47.441 84.0891V88.6581L35.9699 87.0055C35.581 87.0055 35.581 86.4222 35.9699 86.4222Z" fill="#77C54F"/>
<path d="M58.9117 86.4222L47.4406 84.0891V88.6581L58.9117 87.0055C59.3006 87.0055 59.3006 86.4222 58.9117 86.4222Z" fill="#3A7BFA"/>
<path d="M63.0927 90.4081C65.0792 90.4081 66.6896 88.7977 66.6896 86.8112C66.6896 84.8247 65.0792 83.2144 63.0927 83.2144C61.1062 83.2144 59.4958 84.8247 59.4958 86.8112C59.4958 88.7977 61.1062 90.4081 63.0927 90.4081Z" fill="#EAC2A7"/>
</svg>
