<svg width="154" height="161" viewBox="0 0 154 161" fill="none" xmlns="http://www.w3.org/2000/svg">
<path d="M104.862 1.33325H13.7163V110.86H104.862V1.33325Z" fill="white"/>
<path d="M106.195 112.384H12.2872V0H106.29L106.195 112.384ZM15.1444 109.527H103.433V2.85723H15.1444V109.527Z" fill="#C1C1C1"/>
<path d="M37.3369 31.5248H23.0507V45.8109H37.3369V31.5248Z" fill="#DBDBDB"/>
<path d="M57.0509 31.5248H42.7648V45.8109H57.0509V31.5248Z" fill="#68C157"/>
<path d="M76.7651 31.5248H62.479V45.8109H76.7651V31.5248Z" fill="#DBDBDB"/>
<path d="M96.3862 31.5248H82.1001V45.8109H96.3862V31.5248Z" fill="#DBDBDB"/>
<path d="M37.3369 50.573H23.0507V64.8591H37.3369V50.573Z" fill="#F89937"/>
<path d="M57.0509 50.573H42.7648V64.8591H57.0509V50.573Z" fill="#68C157"/>
<path d="M76.7651 50.573H62.479V64.8591H76.7651V50.573Z" fill="#DBDBDB"/>
<path d="M96.3862 50.573H82.1001V64.8591H96.3862V50.573Z" fill="#FFFF00"/>
<path d="M37.3369 69.6212H23.0507V83.9074H37.3369V69.6212Z" fill="#F89937"/>
<path d="M57.0509 69.6212H42.7648V83.9074H57.0509V69.6212Z" fill="#68C157"/>
<path d="M76.7651 69.6212H62.479V83.9074H76.7651V69.6212Z" fill="#0080FF"/>
<path d="M96.3862 69.6212H82.1001V83.9074H96.3862V69.6212Z" fill="#FFFF00"/>
<path d="M37.3369 88.6694H23.0507V102.956H37.3369V88.6694Z" fill="#F89937"/>
<path d="M57.0509 88.6694H42.7648V102.956H57.0509V88.6694Z" fill="#68C157"/>
<path d="M76.7651 88.6694H62.479V102.956H76.7651V88.6694Z" fill="#0080FF"/>
<path d="M96.3862 88.6694H82.1001V102.956H96.3862V88.6694Z" fill="#FFFF00"/>
<path d="M22.6687 21.9056V13.1434C23.1449 13.1434 24.5735 13.1434 25.1449 13.1434C27.7164 13.1434 28.5736 14.4768 28.5736 16.0007C28.5736 17.5245 27.4307 18.8579 25.3354 18.8579C25.0497 18.8579 24.5735 18.8579 24.1925 18.8579V22.0008L22.6687 21.9056ZM24.1925 14.4768V17.1435C24.5735 17.1435 24.9544 17.2388 25.2402 17.2388C26.1926 17.2388 26.8593 16.7626 26.8593 15.8102C26.8593 14.8578 26.2878 14.4768 25.2402 14.4768C25.0497 14.3816 24.6687 14.4768 24.1925 14.4768Z" fill="#444444"/>
<path d="M30.9539 21.9056V13.1434C31.4301 13.1434 33.3349 13.1434 33.6206 13.1434C36.0017 13.1434 36.7636 14.3816 36.7636 15.8102C36.7636 17.334 35.8112 18.096 35.0493 18.2864L37.8112 21.9056H35.9064L33.6206 18.5721H32.573V21.9056H30.9539ZM32.573 14.4768V17.0483H33.6206C34.4778 17.0483 35.335 16.5721 35.335 15.7149C35.335 15.0482 34.954 14.4768 33.7159 14.4768C33.3349 14.3816 32.9539 14.4768 32.573 14.4768Z" fill="#444444"/>
<path d="M43.4312 12.953C46.0027 12.953 48.0027 14.7626 48.0027 17.5246C48.0027 20.1913 46.0027 22.0961 43.4312 22.0961C40.8597 22.0961 38.8596 20.2865 38.8596 17.5246C38.8596 14.8578 40.7644 12.953 43.4312 12.953ZM43.4312 20.5723C45.2407 20.5723 46.3836 19.2389 46.3836 17.5246C46.3836 15.715 45.0503 14.4769 43.4312 14.4769C41.7168 14.4769 40.4787 15.715 40.4787 17.5246C40.4787 19.1437 41.8121 20.5723 43.4312 20.5723Z" fill="#444444"/>
<path d="M54.0986 17.1435H57.6225V20.7627C56.8606 21.5246 55.432 22.0008 54.2891 22.0008C51.4319 22.0008 49.7175 20.1912 49.7175 17.4292C49.7175 14.953 51.4319 12.8577 54.0986 12.8577C55.3368 12.8577 56.1939 13.1434 56.9559 13.7148L56.2892 14.953C55.813 14.572 55.051 14.2863 54.2891 14.2863C52.5747 14.2863 51.3366 15.4292 51.3366 17.334C51.3366 19.2388 52.5747 20.3817 54.2891 20.3817C54.9558 20.3817 55.813 20.096 56.0987 19.8103V18.4769H54.0034L54.0986 17.1435Z" fill="#444444"/>
<path d="M60.194 21.9056V13.1434C60.6702 13.1434 62.575 13.1434 62.8607 13.1434C65.2417 13.1434 66.0037 14.3816 66.0037 15.8102C66.0037 17.334 65.0512 18.096 64.2893 18.2864L67.0513 21.9056H65.1465L62.7655 18.5721H61.7179V21.9056H60.194ZM61.7179 14.4768V17.0483H62.7655C63.6227 17.0483 64.4798 16.5721 64.4798 15.7149C64.4798 15.0482 64.0988 14.4768 62.8607 14.4768C62.4797 14.3816 62.0988 14.4768 61.7179 14.4768Z" fill="#444444"/>
<path d="M71.5277 12.953H72.861L76.5754 21.7152H74.9563L74.0039 19.4294H70.2895L69.3371 21.7152H67.8132L71.5277 12.953ZM70.861 18.1913H73.4325L72.1944 15.0483L70.861 18.1913Z" fill="#444444"/>
<path d="M78.5743 13.0481H80.0982L83.0507 17.1434L85.9079 13.0481H87.3365V21.8102H85.8127V15.4291L83.146 19.334H82.9555L80.1934 15.4291V21.715H78.6696L78.5743 13.0481Z" fill="#444444"/>
<path d="M90.004 15.334C90.004 14.0007 91.0517 12.953 92.766 12.953C93.8137 12.953 94.7661 13.334 95.2423 13.9054L94.3852 15.0483C94.0042 14.6674 93.5279 14.3816 92.8613 14.3816C92.0993 14.3816 91.6231 14.7626 91.6231 15.334C91.6231 17.1436 95.6233 16.5722 95.6233 19.5246C95.6233 21.0485 94.2899 22.0009 92.6708 22.0009C91.5279 22.0009 90.1946 21.5247 89.8136 20.6675L90.6707 19.6199C91.1469 20.2866 92.0041 20.5723 92.6708 20.5723C93.4328 20.5723 93.9089 20.1913 93.9089 19.5246C94.0042 17.715 90.004 18.1913 90.004 15.334Z" fill="#444444"/>
<path d="M121.529 102.575H98.3859L99.8145 154.862H105.91L109.053 108.956H110.672L112.958 154.862H119.339L121.529 102.575Z" fill="#2E3543"/>
<path d="M94.1945 157.148C95.2421 156.862 96.8612 157.052 98.4803 156.1C99.3375 155.624 100.195 154.957 100.29 154.862H105.052C105.147 155.243 105.242 156.1 105.242 156.671C105.242 157.624 105.242 158.29 105.242 158.767C105.242 159.052 105.052 159.243 104.766 159.243H102.48L101.623 158.862C101.623 158.862 98.5756 159.433 96.385 159.338C94.0992 159.338 93.4326 158.481 93.4326 158.481C93.4326 158.481 93.1468 157.338 94.1945 157.148Z" fill="#090A0A"/>
<path d="M107.815 157.148C108.862 156.862 110.481 157.052 112.1 156.1C112.958 155.624 113.815 154.957 113.91 154.862H118.672C118.767 155.243 118.863 156.1 118.863 156.671C118.863 157.624 118.863 158.29 118.863 158.767C118.863 159.052 118.672 159.243 118.386 159.243H116.101L115.243 158.862C115.243 158.862 112.196 159.433 110.005 159.338C107.719 159.338 107.053 158.481 107.053 158.481C107.053 158.481 106.767 157.338 107.815 157.148Z" fill="#090A0A"/>
<path d="M98.3855 102.575L96.2902 75.9071C96.195 74.7642 95.3378 73.8118 94.2901 73.6213L83.2422 71.3355C81.9088 71.0498 80.766 70.0974 80.2898 68.8593L75.1467 56.2875L80.4802 54.6683L85.9089 65.8115H134.006L140.387 54.0969L144.768 56.7637L139.244 69.2402C138.672 70.5736 137.434 71.4308 136.101 71.6212L125.243 73.2403C124.005 73.4308 123.148 74.3832 123.053 75.6213L121.624 102.575H98.3855Z" fill="#00B6FB"/>
<path d="M112.862 49.5255V64.5736V67.0498C112.862 68.5737 111.623 69.8118 110.1 69.8118C108.576 69.8118 107.338 68.5737 107.338 67.0498V64.5736C107.338 63.7164 106.576 63.0497 105.814 63.145L103.814 63.4307C102.576 63.4307 101.528 62.383 101.528 61.1449V57.4305L99.9088 57.3352C99.3374 57.3352 99.2421 56.7638 99.5278 56.2876L102.766 47.8112L112.862 49.5255Z" fill="#EAC2A7"/>
<path d="M99.053 54.8589C98.5768 54.4779 98.2911 54.0017 98.2911 53.335C98.1959 52.7636 98.3864 52.1921 98.7673 51.7159C99.1483 51.2397 99.6245 50.954 100.291 50.954C101.529 50.8588 102.577 51.7159 102.672 52.9541C102.767 53.5255 102.577 54.097 102.196 54.5732C101.815 55.0494 101.339 55.3351 100.672 55.3351C100.577 55.3351 100.577 55.3351 100.482 55.3351C99.9102 55.4303 99.434 55.3351 99.053 54.8589ZM101.815 53.0493C101.72 52.2874 101.053 51.7159 100.291 51.8112C99.9102 51.8112 99.6245 52.0016 99.3388 52.2874C99.1483 52.5731 98.9578 52.9541 99.053 53.335C99.053 53.716 99.2435 54.0017 99.5292 54.2874C99.815 54.5731 100.196 54.6684 100.577 54.5732C100.958 54.5732 101.244 54.3827 101.529 54.097C101.72 53.9065 101.815 53.4303 101.815 53.0493Z" fill="#2E3543"/>
<path d="M103.053 53.3352C103.053 52.0971 104.005 51.1447 105.244 51.1447C106.482 51.1447 107.434 52.0971 107.434 53.3352C107.434 54.5733 106.482 55.5257 105.244 55.5257C104.005 55.5257 103.053 54.3828 103.053 53.3352ZM103.91 53.3352C103.91 54.0971 104.482 54.6686 105.244 54.6686C106.006 54.6686 106.577 54.0971 106.577 53.3352C106.577 52.5733 106.006 52.0018 105.244 52.0018C104.482 51.9066 103.91 52.478 103.91 53.3352Z" fill="#2E3543"/>
<path d="M103.433 40.4774V41.7156C103.433 42.9537 104.671 42.7632 107.147 42.7632C109.528 42.7632 112.862 43.5251 112.862 46.1919C112.862 46.9538 112.862 56.4779 112.862 56.4779C111.624 56.4779 110.576 55.4302 110.576 54.1921V50.0968H110.195C109.909 50.0968 109.624 50.3825 109.624 50.6682V51.5254C109.624 51.9063 109.243 52.2873 108.862 52.2873C108.481 52.2873 108.1 51.9063 108.1 51.5254V50.3825C108.1 49.6205 107.528 49.0491 106.766 49.0491H105.338C103.338 49.0491 98.5757 49.811 98.5757 45.5252C98.5757 40.4774 103.433 40.4774 103.433 40.4774Z" fill="#2E3543"/>
<path d="M110.101 72.5738C112.672 72.5738 114.768 70.4785 114.768 67.907V65.8116H114.006V67.907C114.006 70.0975 112.291 71.8118 110.101 71.8118C107.91 71.8118 106.196 70.0975 106.196 67.907V65.8116H105.434V67.907C105.434 70.5737 107.529 72.5738 110.101 72.5738Z" fill="#007EA5"/>
<path d="M143.052 61.9068C142.386 61.9068 141.909 61.3354 141.909 60.7639V42.6682C141.909 42.0015 142.481 41.5253 143.052 41.5253C143.719 41.5253 144.195 42.0967 144.195 42.6682V60.7639C144.29 61.3354 143.719 61.9068 143.052 61.9068Z" fill="#2E3543"/>
<path d="M151.148 27.6199L143.053 19.0482L134.958 27.6199C133.243 29.5247 132.196 32.001 132.196 34.763C132.196 40.7631 137.053 45.6204 143.053 45.6204C149.053 45.6204 153.91 40.7631 153.91 34.763C153.91 32.001 152.863 29.62 151.148 27.6199Z" fill="#F6C167"/>
<path d="M147.054 31.8106L143.054 26.5724L139.054 31.8106C138.196 32.763 137.72 34.0012 137.72 35.3346C137.72 38.287 140.101 40.6681 143.054 40.6681C146.006 40.6681 148.387 38.287 148.387 35.3346C148.482 33.906 147.911 32.763 147.054 31.8106Z" fill="#F89937"/>
<path d="M151.435 24.9534L150.101 22.5724L148.768 24.9534C148.482 25.2391 148.292 25.6201 148.292 26.0963C148.292 27.0487 149.054 27.8106 150.006 27.8106C150.958 27.8106 151.72 27.0487 151.72 26.0963C151.911 25.8106 151.72 25.3344 151.435 24.9534Z" fill="#F89937"/>
<path d="M140.387 18.1912V9.61951H138.197V18.1912C138.197 18.7626 138.673 19.3341 139.339 19.3341C139.911 19.2389 140.387 18.7626 140.387 18.1912Z" fill="#F89937"/>
<path d="M136.291 20.3817V16.2864H134.1V20.3817C134.1 20.9532 134.576 21.5246 135.243 21.5246C135.815 21.5246 136.291 20.9532 136.291 20.3817Z" fill="#F89937"/>
<path d="M143.529 57.3352C145.476 57.3352 147.053 55.7575 147.053 53.8113C147.053 51.865 145.476 50.2874 143.529 50.2874C141.583 50.2874 140.005 51.865 140.005 53.8113C140.005 55.7575 141.583 57.3352 143.529 57.3352Z" fill="#EAC2A7"/>
<path d="M77.5281 50.1921C77.4329 50.1921 77.2424 50.1921 77.1471 50.1921H68.7659C68.2897 50.1921 67.9088 50.5731 67.9088 51.0493C67.9088 51.5255 68.1945 51.9065 68.6707 51.9065L74.2899 52.5732C74.1947 52.9541 74.0995 53.3351 74.0995 53.716C74.0995 55.6209 75.7185 57.24 77.6233 57.24C79.5282 57.24 81.1473 55.6209 81.1473 53.716C81.1473 51.8112 79.4329 50.1921 77.5281 50.1921Z" fill="#EAC2A7"/>
<path d="M33.8098 157.719C32.7621 157.433 31.0478 157.624 29.4287 156.671C28.5715 156.195 27.7143 155.528 27.6191 155.433H22.7618C22.6666 155.814 22.5714 156.671 22.5714 157.338C22.5714 158.29 22.5714 159.052 22.5714 159.433C22.5714 159.719 22.8571 159.91 23.0476 159.91H25.4286L26.381 159.529C26.381 159.529 29.4287 160.1 31.7145 160.1C34.0003 160.1 34.667 159.243 34.667 159.243C34.667 159.243 34.8574 157.909 33.8098 157.719Z" fill="#2E3543"/>
<path d="M19.905 157.719C18.8573 157.433 17.143 157.624 15.5239 156.671C14.6668 156.195 13.8096 155.528 13.7143 155.433H8.85706C8.76182 155.814 8.66656 156.671 8.66656 157.338C8.66656 158.29 8.66656 159.052 8.66656 159.433C8.66656 159.719 8.95229 159.91 9.14277 159.91H11.5238L12.4762 159.529C12.4762 159.529 15.5239 160.1 17.8097 160.1C20.0955 160.1 20.7622 159.243 20.7622 159.243C20.7622 159.243 20.9526 157.909 19.905 157.719Z" fill="#2E3543"/>
<path d="M4.66718 104.956H29.525L32.3823 78.3834C32.4775 76.8595 33.7157 75.7166 35.1443 75.7166H46.3827C47.8113 75.7166 48.9542 74.7642 49.3352 73.4308L52.7638 60.859L48.478 59.5256L43.716 69.4307H12.0007C7.61966 69.4307 4.09573 73.0499 4.19097 77.3357L4.66718 104.956Z" fill="#77C54F"/>
<path d="M6.00092 104.955H29.5254L28.192 155.433H21.9061L18.7632 111.051H17.0488L14.6678 155.433H8.28666L6.00092 104.955Z" fill="#304970"/>
<path d="M14.5719 106.86H0V121.432H14.5719V106.86Z" fill="#0080FF"/>
<path d="M10.8579 104.86H9.90546L10.5722 81.9073L11.5246 79.05L10.8579 104.86Z" fill="#5D913C"/>
<path d="M64.3836 46.4777H49.8118V61.0495H64.3836V46.4777Z" fill="#0080FF"/>
<path d="M7.81012 110.003C9.80893 110.003 11.4293 108.383 11.4293 106.384C11.4293 104.385 9.80893 102.765 7.81012 102.765C5.81132 102.765 4.19098 104.385 4.19098 106.384C4.19098 108.383 5.81132 110.003 7.81012 110.003Z" fill="#EAC2A7"/>
<path d="M51.3345 62.1923C53.3333 62.1923 54.9536 60.5719 54.9536 58.5731C54.9536 56.5743 53.3333 54.954 51.3345 54.954C49.3357 54.954 47.7153 56.5743 47.7153 58.5731C47.7153 60.5719 49.3357 62.1923 51.3345 62.1923Z" fill="#EAC2A7"/>
<path d="M7.04763 62.0018C5.8095 60.8589 4.85708 59.4303 4.47611 57.716C3.42846 53.1444 6.19049 48.5728 10.7621 47.5252C13.6193 46.8585 16.4765 47.7157 18.4765 49.5253C20.9528 49.6205 23.2386 51.3348 23.81 53.8111C24.5719 56.8588 22.6672 59.9065 19.6194 60.6685C19.6194 60.6685 19.6194 60.6685 19.5242 60.6685C19.1432 61.1447 18.7623 61.6209 18.286 62.0018L19.5242 67.2401C20.5718 71.8116 17.8098 76.288 13.3335 77.4309C8.76194 78.4785 4.28567 75.7165 3.14278 71.2402C2.38085 67.4306 3.99992 63.8114 7.04763 62.0018Z" fill="#2E3543"/>
<path d="M15.9998 55.716L23.9048 53.8112L24.4762 56.3827L25.3334 56.1922C25.7144 56.0969 26.0953 56.2874 26.1906 56.6684C26.2858 57.0493 26.0953 57.4303 25.7144 57.5255L24.8572 57.716L25.4286 60.0971C26.0001 62.5733 24.4762 65.0496 22.0952 65.621L21.2381 65.8115L22.6667 70.8593C22.9524 71.8117 22.3809 72.8594 21.4285 73.1451C20.6666 73.3356 19.8094 73.0498 19.4285 72.4784C19.619 71.9069 20.1904 69.8116 19.9999 68.5735C19.7142 66.5734 19.4285 65.8115 19.4285 65.8115L17.7142 58.5732L16.7617 58.7637C15.8093 58.9542 14.9522 58.3827 14.8569 57.3351C14.6664 56.5732 15.2379 55.8112 15.9998 55.716Z" fill="#EAC2A7"/>
</svg>
