<?xml version="1.0" encoding="utf-8"?>
<!-- Generator: Adobe Illustrator 22.1.0, SVG Export Plug-In . SVG Version: 6.00 Build 0)  -->
<svg version="1.1" id="Layer_1" xmlns="http://www.w3.org/2000/svg" xmlns:xlink="http://www.w3.org/1999/xlink" x="0px" y="0px"
	 width="150px" height="150px" viewBox="0 0 150 150" style="enable-background:new 0 0 150 150;" xml:space="preserve">
<style type="text/css">
	.st0{fill:#2E3543;}
	.st1{fill:#F5E622;}
	.st2{fill:#090A0A;}
	.st3{fill:#F68D2E;}
	.st4{fill:#EAC2A7;}
	.st5{fill:#373463;}
	.st6{fill:#7A8291;}
	.st7{fill:#F6C167;}
	.st8{fill:#F89937;}
	.st9{fill:#FFFFFF;}
</style>
<path id="Path" class="st0" d="M72.4,55.8c5.8,0,10.5-4.7,10.5-10.5V30.9c0-5.8-4.7-10.5-10.5-10.5S61.8,25,61.8,30.9v14.5
	C61.9,51.1,66.6,55.8,72.4,55.8z"/>
<path id="Path_1_" class="st1" d="M104.2,29.9l-7,14.1l-12.4,0.3h-5.2H65c-2.3-0.1-4.3,1.4-5,3.5l-3.8,12.3l-12.7,0.1v4l14.1,0.4
	c1.4,0.1,2.6-0.5,3.3-1.7l3.2-5.6l2.4,12l15.3,0.3l3.1-17.6c0.2-0.8,0.8-1.4,1.5-1.5l11-1.2c1.7-0.2,3.2-1.3,3.9-2.9l6.9-14.9
	L104.2,29.9z"/>
<path id="Path_2_" class="st2" d="M59.6,131.7c1-0.3,2.5-0.1,4.1-0.9c0.7-0.5,1.6-1.1,1.7-1.2H70c0.1,0.4,0.2,1.1,0.2,1.7
	c0,0.8,0,1.5,0,2c0,0.3-0.3,0.5-0.5,0.5h-2.3l-0.8-0.5c0,0-2.8,0.5-5.1,0.5s-2.7-0.7-2.7-0.7S58.6,132,59.6,131.7z"/>
<path id="Path_3_" class="st2" d="M69.2,131.7c1-0.3,2.5-0.1,4.1-0.9c0.7-0.5,1.6-1.1,1.7-1.2h4.6c0.1,0.4,0.2,1.1,0.2,1.7
	c0,0.8,0,1.5,0,2c0,0.3-0.3,0.5-0.5,0.5H77l-0.8-0.5c0,0-2.8,0.5-5.1,0.5c-2.2,0-2.7-0.7-2.7-0.7S68.2,132,69.2,131.7z"/>
<path id="Path_4_" class="st3" d="M73.6,51.7c2.9,0,5.4-2.3,5.4-5.4v-2.2h-0.8v2.3c0,2.4-2,4.5-4.5,4.5s-4.5-2-4.5-4.5V44h-0.8v2.4
	C68.3,49.5,70.7,51.7,73.6,51.7z"/>
<path id="Path_5_" class="st4" d="M72,24.7c2.5,0,4.6,5.3,4.6,7.7v11.5v3.9c-2.5,3.2-6.1,1.3-5.9-1.4v-2.6c0.2-0.8-0.5-1.6-1.4-1.5
	l-2.3,0.3c-1.4,0-2.4-1.1-2.4-2.4v-4L62.7,36c-0.6,0-0.8-0.7-0.5-1.1l4.3-9.6L72,24.7z"/>
<path id="Shape" class="st5" d="M65.1,34.1c0.1,0,0.2,0,0.2,0c0.6-0.1,1.2-0.4,1.5-0.8c0.5-0.5,0.6-1.1,0.5-1.7
	c-0.1-1.3-1.2-2.3-2.5-2.2c-0.6,0.1-1.2,0.4-1.5,0.8c-0.5,0.5-0.6,1.1-0.5,1.7s0.4,1.2,0.8,1.5C64,33.9,64.5,34.1,65.1,34.1z
	 M66.6,31.7c0,0.5-0.1,0.7-0.4,1s-0.6,0.5-1,0.5s-0.7-0.1-1-0.4s-0.5-0.6-0.5-1c0-0.4,0.1-0.7,0.4-1c0.3-0.3,0.6-0.5,1-0.5
	C65.7,30.3,66.5,30.8,66.6,31.7z"/>
<path id="Shape_1_" class="st5" d="M70.2,34.1c1.3,0,2.3-1,2.3-2.3c0-1.3-1-2.3-2.3-2.3c-1.3,0-2.3,1-2.3,2.3
	C68,33.1,69,34.1,70.2,34.1z M70.2,30.4c0.7,0,1.5,0.7,1.5,1.5c0,0.8-0.7,1.5-1.5,1.5c-0.8,0-1.5-0.7-1.5-1.5
	C68.8,31,69.4,30.4,70.2,30.4z"/>
<polygon id="Path_6_" class="st4" points="81.5,106.3 79.4,129.6 75.4,129.4 74.4,106.3 "/>
<polygon id="Path_7_" class="st4" points="72.2,106.3 70.1,129.6 66.2,129.4 65.2,106.3 "/>
<path id="Path_8_" class="st6" d="M81.6,69.4c0,0,1.9,8.9,2.6,12.7c0.8,3.7,4.2,27.2,4.2,27.2h-30c1.1-10,3.6-23.2,5-28
	c1.2-4.6,2.9-12,2.9-12L81.6,69.4z"/>
<path id="Path_9_" class="st0" d="M76.4,31.4c0,0-6.8-0.5-7.8-6.4c-0.6,2.5-3.8,3.6-3.8,3.6L63,27.5l1.9-4L75.7,22l3.1,4L76.4,31.4z
	"/>
<path id="Path_10_" class="st0" d="M105.7,40.2c-0.6,0-1.1-0.5-1.1-1.1V21.7c0-0.6,0.5-1.1,1.1-1.1s1.1,0.5,1.1,1.1v17.4
	C106.9,39.6,106.3,40.2,105.7,40.2z"/>
<path id="Path_11_" class="st7" d="M113.1,8.4l-7.4-7.9l-7.4,7.9c-1.6,1.7-2.5,4-2.5,6.5c0,5.5,4.4,9.9,9.9,9.9
	c5.5,0,9.9-4.4,9.9-9.9C115.6,12.5,114.7,10.2,113.1,8.4z"/>
<path id="Path_12_" class="st8" d="M109.3,12.2l-3.7-4.8l-3.7,4.8c-0.8,0.9-1.3,2.1-1.3,3.2c0,2.7,2.2,4.9,4.9,4.9s4.9-2.2,4.9-4.9
	C110.7,14.2,110.1,13,109.3,12.2z"/>
<path id="Path_13_" class="st8" d="M113.3,6l-1.1-2.2L110.9,6c-0.2,0.2-0.5,0.7-0.5,1c0,0.9,0.7,1.6,1.6,1.6c0.9,0,1.6-0.7,1.6-1.6
	C113.7,6.7,113.6,6.3,113.3,6z"/>
<circle id="Oval" class="st4" cx="106" cy="30.2" r="3"/>
<path id="Path_14_" class="st4" d="M42.3,61.8L42.3,61.8c0.6,0,1.1-0.5,1.1-1.1v-3.8c0-0.6-0.5-1.1-1-1.1s-1,0.5-1,1.1v3.9
	C41.3,61.4,41.7,61.8,42.3,61.8z"/>
<path id="Path_15_" class="st4" d="M43.7,63.3v-1.6c0-1.7-1.4-3.1-3.1-3.1c-1.7,0-3.1,1.4-3.1,3.1v0.5c0,1.7,1.4,3.1,3.1,3.1h1
	C42.8,65.4,43.7,63.9,43.7,63.3z"/>
<path id="Path_16_" class="st9" d="M67.7,39.7c-1.3,0-2.4-1.1-2.4-2.4H70C70.1,38.6,69,39.7,67.7,39.7z"/>
</svg>
