<?xml version="1.0" encoding="utf-8"?>
<!-- Generator: Adobe Illustrator 19.2.0, SVG Export Plug-In . SVG Version: 6.00 Build 0)  -->
<svg version="1.1" id="Layer_1" xmlns="http://www.w3.org/2000/svg" xmlns:xlink="http://www.w3.org/1999/xlink" x="0px" y="0px"
	 viewBox="0 0 120 120" style="enable-background:new 0 0 120 120;" xml:space="preserve">
<style type="text/css">
	.st0{fill:none;stroke:#020202;stroke-width:5;stroke-linecap:round;stroke-linejoin:round;stroke-miterlimit:10;}
	.st1{fill:#FFF200;stroke:#020202;stroke-width:5;stroke-linecap:round;stroke-linejoin:round;stroke-miterlimit:10;}
	.st2{fill:#020202;}
</style>
<g>
	<path class="st0" d="M2.5,69.2c0,0,25.1,13.2,57.6,13.2s57.4-13.2,57.4-13.2"/>
	<g>
		<path class="st1" d="M51.4,106.8c0,5,4.2,8.9,9.2,8.6c4.4-0.3,7.9-3.9,8.1-8.3c0.1-2.3-0.7-4.4-2.1-5.9c-1-1.2-1.6-2.6-1.6-4.1
			v-0.3c0-1-0.8-1.7-1.7-1.7h-6.4c-1,0-1.7,0.8-1.7,1.7v0.2c0,1.6-0.5,3.1-1.6,4.2C52.2,102.6,51.4,104.6,51.4,106.8z"/>
	</g>
	<path class="st2" d="M63.2,95.1h-6.5c-1.6,0-3-1.3-3-3v-7.3c0-1.7,1.4-3,3-3h6.5c1.6,0,3,1.3,3,3v7.3
		C66.2,93.8,64.9,95.1,63.2,95.1z"/>
	<g>
		<path class="st1" d="M99.9,104.5c1.6,4.7,6.8,7.1,11.5,5.2c4.1-1.7,6.3-6.3,5-10.5c-0.7-2.2-2.1-3.9-3.9-5c-1.3-0.8-2.4-2-2.8-3.4
			l-0.1-0.3c-0.3-0.9-1.3-1.4-2.2-1.1l-6,2c-0.9,0.3-1.4,1.3-1.1,2.2l0.1,0.2c0.5,1.5,0.5,3.1-0.1,4.5
			C99.4,100.3,99.2,102.5,99.9,104.5z"/>
	</g>
	<path class="st2" d="M107.4,89.6l-6.1,2.1c-1.6,0.5-3.3-0.3-3.8-1.9l-2.3-6.9c-0.5-1.6,0.3-3.3,1.9-3.8l6.1-2.1
		c1.6-0.5,3.3,0.3,3.8,1.9l2.3,6.9C109.9,87.4,109,89.1,107.4,89.6z"/>
	<g>
		<path class="st1" d="M21.9,102.5c-1.4,4.8-6.5,7.4-11.3,5.7c-4.1-1.5-6.5-6-5.4-10.3c0.6-2.2,1.9-4,3.7-5.1c1.3-0.8,2.3-2,2.7-3.5
			l0.1-0.3c0.3-0.9,1.2-1.4,2.2-1.2l6.1,1.8c0.9,0.3,1.4,1.2,1.2,2.2l-0.1,0.2c-0.4,1.5-0.4,3.1,0.3,4.5
			C22.3,98.3,22.5,100.4,21.9,102.5z"/>
	</g>
	<path class="st2" d="M13.8,87.9l6.2,1.8c1.6,0.5,3.3-0.4,3.7-2l2.1-7c0.5-1.6-0.4-3.3-2-3.7l-6.2-1.8c-1.6-0.5-3.3,0.4-3.7,2
		l-2.1,7C11.3,85.8,12.2,87.5,13.8,87.9z"/>
	<path class="st0" d="M2.5,4.5c0,0,25.1,13.2,57.6,13.2s57.4-13.2,57.4-13.2"/>
	<g>
		<path class="st1" d="M51.4,42.1c0,5,4.2,8.9,9.2,8.6c4.4-0.3,7.9-3.9,8.1-8.3c0.1-2.3-0.7-4.4-2.1-5.9c-1-1.2-1.6-2.6-1.6-4.1V32
			c0-1-0.8-1.7-1.7-1.7h-6.4c-1,0-1.7,0.8-1.7,1.7v0.2c0,1.6-0.5,3.1-1.6,4.2C52.2,38,51.4,40,51.4,42.1z"/>
	</g>
	<path class="st2" d="M63.2,30.5h-6.5c-1.6,0-3-1.4-3-3v-7.3c0-1.6,1.4-3,3-3h6.5c1.6,0,3,1.4,3,3v7.3
		C66.2,29.1,64.9,30.5,63.2,30.5z"/>
	<g>
		<path class="st1" d="M99.9,39.8c1.6,4.7,6.8,7.1,11.5,5.2c4.1-1.7,6.3-6.3,5-10.5c-0.7-2.2-2.1-3.9-3.9-5c-1.3-0.8-2.4-2-2.8-3.4
			l-0.1-0.3c-0.3-0.9-1.3-1.4-2.2-1.1l-6,2c-0.9,0.3-1.4,1.3-1.1,2.2l0.1,0.2c0.5,1.5,0.5,3.1-0.1,4.5
			C99.4,35.6,99.2,37.8,99.9,39.8z"/>
	</g>
	<path class="st2" d="M107.4,25l-6.1,2.1c-1.6,0.5-3.3-0.3-3.8-1.9l-2.3-6.9c-0.5-1.6,0.3-3.3,1.9-3.8l6.1-2.1
		c1.6-0.5,3.3,0.3,3.8,1.9l2.3,6.9C109.9,22.7,109,24.4,107.4,25z"/>
	<g>
		<path class="st1" d="M21.9,37.8c-1.4,4.8-6.5,7.4-11.3,5.7c-4.1-1.5-6.5-6-5.4-10.3c0.6-2.2,1.9-4,3.7-5.1c1.3-0.8,2.3-2,2.7-3.5
			l0.1-0.3c0.3-0.9,1.2-1.4,2.2-1.2l6.1,1.8c0.9,0.3,1.4,1.2,1.2,2.2l-0.1,0.2c-0.4,1.5-0.4,3.1,0.3,4.5
			C22.3,33.6,22.5,35.7,21.9,37.8z"/>
	</g>
	<path class="st2" d="M13.8,23.3l6.2,1.8c1.6,0.5,3.3-0.4,3.7-2l2.1-7c0.5-1.6-0.4-3.3-2-3.7l-6.2-1.8c-1.6-0.5-3.3,0.4-3.7,2
		l-2.1,7C11.3,21.1,12.2,22.8,13.8,23.3z"/>
</g>
</svg>
