<?xml version="1.0" encoding="utf-8"?>
<!-- Generator: Adobe Illustrator 19.2.0, SVG Export Plug-In . SVG Version: 6.00 Build 0)  -->
<svg version="1.1" id="Layer_1" xmlns="http://www.w3.org/2000/svg" xmlns:xlink="http://www.w3.org/1999/xlink" x="0px" y="0px"
	 viewBox="0 0 120 120" style="enable-background:new 0 0 120 120;" xml:space="preserve">
<style type="text/css">
	.st0{fill:none;stroke:#020202;stroke-width:5;stroke-linecap:round;stroke-linejoin:round;stroke-miterlimit:10;}
	.st1{fill:#020202;}
</style>
<path class="st0" d="M100.3,27.5L100.3,27.5c-4,0-7.8-1.3-11-3.6l-11.7-8.7c-3.2-2.4-7-3.6-11-3.6H53.5c-4,0-7.8,1.3-11,3.6
	l-11.7,8.7c-3.2,2.4-7,3.6-11,3.6l0,0"/>
<path class="st0" d="M90.6,28.5l-10.5,49c-2,9.2-10,15.7-19.4,15.7l0,0c-9.1,0-17.1-6.2-19.3-15.1l-12-49.6"/>
<line class="st0" x1="18.5" y1="27.5" x2="101.5" y2="27.5"/>
<g>
	<line class="st0" x1="66.1" y1="93" x2="66.1" y2="118.5"/>
	<line class="st0" x1="53.9" y1="118.5" x2="53.9" y2="93"/>
</g>
<path class="st1" d="M61.8,10.6h-3.5c-1.6,0-3-1.3-3-3V6.1c0-2.5,2.1-4.6,4.6-4.6h0.3c2.5,0,4.6,2.1,4.6,4.6v1.5
	C64.8,9.2,63.4,10.6,61.8,10.6z"/>
<path class="st0" d="M73.8,28.5l-4.7,54c-0.9,9.2-4.5,10.7-8.8,10.7l0,0c-4.1,0-7.7-1.2-8.7-10.1l-5.5-54.6"/>
</svg>
