<?xml version="1.0" encoding="utf-8"?>
<!-- Generator: Adobe Illustrator 19.2.0, SVG Export Plug-In . SVG Version: 6.00 Build 0)  -->
<svg version="1.1" id="Layer_1" xmlns="http://www.w3.org/2000/svg" xmlns:xlink="http://www.w3.org/1999/xlink" x="0px" y="0px"
	 viewBox="0 0 300 55" style="enable-background:new 0 0 300 55;" xml:space="preserve">
<style type="text/css">
	.st0{fill:#FFFFFF;}
	.st1{fill:#006CA8;}
</style>
<path class="st0" d="M4.3,21.1c0-6.8,0-8-0.1-9.4c-0.1-1.5-0.4-2.2-1.9-2.5C2,9.2,1.3,9.2,0.9,9.2c-0.2,0-0.3-0.1-0.3-0.3
	c0-0.3,0.2-0.3,0.7-0.3c1.9,0,4.7,0.1,4.9,0.1c1,0,2.7-0.1,4.7-0.1c7.1,0,8.7,4.3,8.7,6.5c0,3.6-2,5.7-4.1,7.8
	c3.2,1,7.5,4.1,7.5,9.1c0,4.6-3.6,9.4-11,9.4c-0.5,0-1.9-0.1-3.1-0.1c-1.3-0.1-2.5-0.1-2.6-0.1c-0.1,0-0.8,0-1.7,0
	c-0.9,0-1.9,0.1-2.5,0.1c-0.5,0-0.7-0.1-0.7-0.3c0-0.1,0.1-0.3,0.3-0.3c0.4,0,0.9-0.1,1.3-0.2c0.9-0.2,1.1-1.1,1.3-2.4
	c0.2-1.8,0.2-5.2,0.2-9.4L4.3,21.1L4.3,21.1z M7.8,22.1c0,0.3,0.1,0.4,0.3,0.5c0.3,0,1,0.2,2.6,0.2c2.4,0,3-0.1,3.9-1.1
	c0.9-1,1.6-2.6,1.6-4.4c0-3.6-1.6-7.5-5.8-7.5c-0.5,0-1.4,0-2.1,0.2c-0.4,0.1-0.5,0.2-0.5,0.5L7.8,22.1L7.8,22.1z M7.8,26.7
	c0,3.3,0,8.7,0,9.4c0.1,2.1,0.1,2.7,1.5,3.4c1.2,0.6,3,0.6,3.8,0.6c2.3,0,6.1-1.3,6.1-6.2c0-2.6-0.9-6.4-4.2-8.7
	c-1.5-1-2.6-1.1-3.6-1.3c-0.6-0.1-2.7-0.1-3.4-0.1c-0.2,0-0.3,0.1-0.3,0.3L7.8,26.7L7.8,26.7z"/>
<path class="st0" d="M35.6,21.1c0-6.8,0-8-0.1-9.4c-0.1-1.5-0.4-2.2-1.9-2.5c-0.3-0.1-1.1-0.1-1.5-0.1c-0.2,0-0.3-0.1-0.3-0.3
	c0-0.3,0.2-0.3,0.7-0.3c1.9,0,4.5,0.1,4.9,0.1c1,0,3.5-0.1,5.5-0.1c5.4,0,7.4,1.8,8.1,2.5c1,0.9,2.2,2.9,2.2,5.2
	c0,6.2-4.5,10.3-10.7,10.3c-0.2,0-0.7,0-0.9,0c-0.2,0-0.5-0.1-0.5-0.3c0-0.3,0.3-0.4,1.2-0.4c4.2,0,7.5-3.1,7.5-7.1
	c0-1.4-0.1-4.3-2.4-6.7s-4.9-2.2-5.9-2.2c-0.7,0-1.5,0.1-1.9,0.3c-0.3,0.1-0.3,0.4-0.3,0.8v17.8c0,4.2,0,7.6,0.2,9.4
	c0.1,1.3,0.4,2.2,1.7,2.4c0.6,0.1,1.6,0.2,1.9,0.2c0.3,0,0.3,0.1,0.3,0.3c0,0.2-0.2,0.3-0.7,0.3c-2.4,0-5.1-0.1-5.3-0.1
	c-0.1,0-2.9,0.1-4.2,0.1c-0.5,0-0.7-0.1-0.7-0.3c0-0.1,0.1-0.3,0.3-0.3c0.4,0,0.9-0.1,1.3-0.2c0.9-0.2,1.1-1.1,1.3-2.4
	c0.2-1.8,0.2-5.2,0.2-9.4L35.6,21.1L35.6,21.1z"/>
<path class="st0" d="M97.8,35.8c0.2,1.6,0.5,4,2.3,4.6c1.3,0.4,2.4,0.4,2.8,0.4c0.2,0,0.3,0,0.3,0.2c0,0.3-0.4,0.4-0.9,0.4
	c-1,0-5.6,0-7.2-0.2c-1-0.1-1.2-0.2-1.2-0.4c0-0.2,0.1-0.3,0.3-0.3s0.3-0.8,0.2-1.6l-2.1-22.5h-0.1L81.6,38.9
	c-0.9,1.9-1,2.3-1.4,2.3c-0.3,0-0.5-0.4-1.3-2c-1.1-2.1-4.9-9.6-5.1-10.1C73.3,28.4,68.5,18,68,16.8h-0.2l-1.7,20.1
	c0,0.7,0,1.5,0,2.2c0,0.6,0.5,1.2,1.1,1.3c0.7,0.2,1.4,0.2,1.6,0.2c0.2,0,0.3,0.1,0.3,0.2c0,0.3-0.3,0.4-0.8,0.4
	c-1.6,0-3.7-0.1-4-0.1c-0.4,0-2.5,0.1-3.6,0.1c-0.4,0-0.7-0.1-0.7-0.4c0-0.1,0.2-0.2,0.4-0.2c0.3,0,0.6,0,1.3-0.1
	c1.4-0.3,1.6-1.9,1.7-3.6l3.1-28.2c0-0.5,0.2-0.8,0.5-0.8s0.4,0.2,0.6,0.6L81,35.8L93.7,8.6c0.2-0.4,0.3-0.7,0.6-0.7
	s0.4,0.3,0.5,1.2L97.8,35.8z"/>
<path class="st0" d="M130.1,40.6c-0.6-0.3-0.7-0.5-0.7-1.6c0-2.1,0.2-3.9,0.3-4.6c0-0.5,0.1-0.7,0.4-0.7c0.3,0,0.4,0.2,0.4,0.5
	c0,0.4,0,1,0.2,1.6c0.7,3.2,4.1,4.3,7.1,4.3c4.4,0,6.7-2.5,6.7-5.8c0-3.1-1.7-4.6-5.7-7.6l-2-1.5c-4.8-3.6-6.4-6.3-6.4-9.3
	c0-5.1,4-8.2,10-8.2c1.8,0,3.6,0.3,4.6,0.5c0.9,0.2,1.2,0.2,1.6,0.2s0.5,0.1,0.5,0.3c0,0.2-0.2,1.6-0.2,4.6c0,0.7-0.1,1-0.4,1
	c-0.3,0-0.4-0.2-0.4-0.6c-0.1-0.5-0.4-1.7-0.7-2.1c-0.3-0.5-1.8-2.1-5.8-2.1c-3.3,0-6,1.6-6,4.7c0,2.8,1.4,4.3,5.8,7.3l1.3,0.9
	c5.5,3.7,7.3,6.7,7.3,10.5c0,2.6-1,5.3-4.2,7.4c-1.9,1.2-4.7,1.5-7.1,1.5C134.5,41.8,131.9,41.5,130.1,40.6z"/>
<path class="st0" d="M162.5,37.8c-3.7-3.2-4.6-7.4-4.6-10.9c0-2.5,0.9-6.8,4.3-10.1c2.3-2.2,5.8-3.9,11.6-3.9c1.5,0,3.7,0.1,5.5,0.4
	c1.4,0.3,2.6,0.5,3.9,0.6c0.4,0,0.5,0.2,0.5,0.4c0,0.3-0.1,0.7-0.2,2.1c0,1.2,0,3.2-0.1,3.8c0,0.6-0.2,0.8-0.4,0.8
	c-0.3,0-0.3-0.3-0.3-0.8c0-1.4-0.6-2.9-1.6-3.7c-1.3-1.1-4.1-2-7.5-2c-4.9,0-7.2,1.3-8.6,2.6c-2.8,2.6-3.4,5.9-3.4,9.6
	c0,7.1,5.6,13.3,13.7,13.3c2.9,0,4.8-0.2,6.3-1.7c0.8-0.8,1.3-2.4,1.5-3.1c0.1-0.4,0.1-0.5,0.4-0.5c0.2,0,0.3,0.3,0.3,0.5
	c0,0.3-0.5,3.5-0.9,4.7c-0.2,0.7-0.3,0.8-1,1.1c-1.6,0.6-4.4,0.8-6.9,0.8C169.3,41.8,165.5,40.4,162.5,37.8z"/>
<path class="st0" d="M245.1,24.1c0-5.7,0-6.8-0.1-7.9s-0.3-1.9-1.6-2c-0.3,0-1-0.1-1.3-0.1c-0.1,0-0.3-0.2-0.3-0.3
	c0-0.2,0.2-0.3,0.6-0.3c1.7,0,4,0.1,4.4,0.1c0.3,0,2.7-0.1,3.9-0.1c0.4,0,0.6,0.1,0.6,0.3c0,0.1-0.2,0.3-0.3,0.3c-0.3,0-0.5,0-1,0.1
	c-1,0.2-1.2,0.8-1.3,2c-0.1,1.2-0.1,2.2-0.1,7.9v5.2c0,5.3,1.2,7.5,2.8,9c1.9,1.7,3.5,2,5.7,2c2.3,0,4.6-1,5.9-2.6
	c1.8-2.1,2.2-5.2,2.2-8.9v-4.6c0-5.7,0-6.8-0.1-7.9s-0.3-1.9-1.5-2c-0.3,0-1-0.1-1.3-0.1c-0.2,0-0.3-0.2-0.3-0.3
	c0-0.2,0.2-0.3,0.6-0.3c1.7,0,3.9,0.1,4.1,0.1c0.3,0,2.1-0.1,3.2-0.1c0.4,0,0.6,0.1,0.6,0.3c0,0.1-0.1,0.3-0.3,0.3
	c-0.3,0-0.5,0-1,0.1c-1,0.2-1.3,0.8-1.3,2c-0.1,1.2,0,2.2,0,7.9V28c0,4-0.5,8.4-3.6,11c-2.8,2.4-5.7,2.7-8,2.7
	c-1.3,0-5.2-0.1-7.9-2.6c-1.9-1.7-3.3-4.3-3.3-9.7L245.1,24.1L245.1,24.1z"/>
<path class="st0" d="M289.3,30.6c0,3.6,0,6.5,0.2,8c0.1,1.1,0.3,1.8,1.5,1.9c0.5,0.1,1.4,0.2,1.7,0.2c0.3,0,0.3,0.2,0.3,0.3
	c0,0.2-0.2,0.3-0.6,0.3c-2.1,0-4.5-0.1-4.7-0.1c-0.2,0-2.8,0.1-3.9,0.1c-0.4,0-0.6-0.1-0.6-0.3c0-0.1,0.1-0.3,0.3-0.3
	c0.3,0,0.8-0.1,1.1-0.2c0.8-0.2,1-0.9,1.1-2c0.2-1.5,0.2-4.4,0.2-8V15.1l-5.5,0.1c-2.4,0-3.3,0.3-3.9,1.2c-0.4,0.6-0.5,0.9-0.6,1.2
	c-0.1,0.3-0.2,0.3-0.4,0.3c-0.1,0-0.3-0.1-0.3-0.3c0-0.4,0.7-3.7,0.8-4c0-0.2,0.3-0.7,0.4-0.7c0.3,0,0.6,0.3,1.7,0.4
	c1.1,0.1,2.6,0.2,3,0.2h14.4c1.3,0,2.1-0.1,2.7-0.2c0.6-0.1,0.9-0.2,1.1-0.2c0.2,0,0.2,0.2,0.2,0.4c0,1.1-0.1,3.8-0.1,4.2
	c0,0.3-0.2,0.5-0.3,0.5c-0.2,0-0.3-0.1-0.3-0.6l0-0.4c-0.1-1.1-1-1.9-4.6-2l-4.8-0.1L289.3,30.6L289.3,30.6z"/>
<g id="XMLID_1_">
	<path class="st1" d="M239,27.4c0.2,0.1-0.7,0.2-1,0.3c-6.5,1.2-13.3,2.4-19.8,3.6c0.6,1.4,1.5,3.1,2.2,4.6
		c-1.5-0.8-3.1-1.5-4.6-2.2c0.1-0.7,0.3-1.2,0.3-1.9c-0.5-0.7-1.3-1.5-2-2.2c-0.7-0.7-1.5-1.4-2.2-2.1c0,9,0,17.9,0,26.9
		c-1.4-6.8-2.5-13.8-3.8-20.6c-1.4,0.6-3.1,1.5-4.6,2.2c0.8-1.5,1.5-3.1,2.2-4.6c0.7,0.1,1.2,0.3,1.9,0.3c0.7-0.5,1.5-1.3,2.2-2
		c0.7-0.7,1.4-1.5,2.1-2.2c-9,0-18,0-26.9,0c0.4,0.1,0.2,0.2-0.1,0.1c-0.2-0.1,0.7-0.2,1-0.3c6.5-1.2,13.3-2.4,19.8-3.6
		c-0.6-1.4-1.5-3.1-2.2-4.6c1.5,0.8,3.1,1.5,4.6,2.2c-0.1,0.7-0.3,1.2-0.3,1.9c0.5,0.7,1.3,1.4,2,2.2c0.7,0.7,1.5,1.4,2.2,2.1
		c0-9,0-17.9,0-26.9c1.4,6.8,2.5,13.8,3.8,20.6c1.4-0.6,3.1-1.4,4.5-2.2c0.1,0.4-0.3,0.7-0.4,1.1c-0.5,1.1-1.1,2.4-1.7,3.5
		c-0.7-0.1-1.2-0.3-1.9-0.3c-0.7,0.5-1.5,1.3-2.2,2c-0.7,0.7-1.4,1.5-2.1,2.2c9,0,18,0,26.9,0C238.5,27.4,238.7,27.3,239,27.4z
		 M220.1,19.4c0-0.1,0.1-0.1-0.1-0.1c-1.3,0.8-2.9,1.3-4.3,2.2c0.2,0.5,0.2,1.2,0.4,1.8C217.4,22.1,218.7,20.6,220.1,19.4z
		 M220.2,35.7c-0.7-1.5-1.3-3-2.2-4.4c-0.5,0.2-1.2,0.2-1.8,0.4C217.3,33,218.9,34.4,220.2,35.7z M208.1,33.6
		c-0.2-0.5-0.2-1.2-0.4-1.8c-1.3,1.1-2.7,2.6-4,3.9C205.2,35,206.7,34.4,208.1,33.6z M205.8,23.7c0.5-0.2,1.2-0.2,1.8-0.4
		c-1.1-1.3-2.6-2.7-3.9-4C204.4,20.8,205,22.3,205.8,23.7z"/>
	<path class="st1" d="M238.5,27.3c0.1,0.2-0.4,0-0.6,0C238.1,27.1,238.3,27.4,238.5,27.3z"/>
	<path class="st1" d="M237.8,27.2c0.1,0.2-0.4,0-0.6,0C237.4,27,237.6,27.3,237.8,27.2z"/>
	<path class="st1" d="M237.1,27.1c0.1,0.2-0.4,0-0.6,0C236.7,26.9,236.9,27.1,237.1,27.1z"/>
	<path class="st1" d="M236.4,26.9c0.1,0.2-0.4,0-0.6,0C236,26.8,236.2,27,236.4,26.9z"/>
	<path class="st1" d="M235.8,26.8c0.1,0.2-0.4,0-0.6,0C235.3,26.6,235.6,26.9,235.8,26.8z"/>
	<path class="st1" d="M235.1,26.7c0.1,0.2-0.4,0-0.6,0C234.7,26.5,234.9,26.8,235.1,26.7z"/>
	<path class="st1" d="M234.4,26.6c0.1,0.2-0.4,0-0.6,0C234,26.4,234.2,26.6,234.4,26.6z"/>
	<path class="st1" d="M233.7,26.5c0.1,0.2-0.4,0-0.6,0C233.3,26.3,233.5,26.5,233.7,26.5z"/>
	<path class="st1" d="M233.1,26.3c0.1,0.2-0.4,0-0.6,0C232.6,26.1,232.8,26.4,233.1,26.3z"/>
	<path class="st1" d="M232.4,26.2c0.1,0.2-0.4,0-0.6,0C232,26,232.2,26.3,232.4,26.2z"/>
	<path class="st1" d="M231.7,26.1c0.1,0.2-0.4,0-0.6,0C231.3,25.9,231.5,26.1,231.7,26.1z"/>
	<path class="st1" d="M231,26c0.1,0.2-0.4,0-0.6,0C230.6,25.8,230.8,26,231,26z"/>
	<path class="st1" d="M230.3,25.8c0.1,0.2-0.4,0-0.6,0C229.9,25.6,230.1,25.9,230.3,25.8z"/>
	<path class="st1" d="M229.7,25.7c0.1,0.2-0.4,0-0.6,0C229.2,25.5,229.5,25.8,229.7,25.7z"/>
	<path class="st1" d="M229.1,25.6c-0.1,0-0.2,0-0.3,0C228.9,25.6,229,25.6,229.1,25.6z"/>
	<path class="st1" d="M228.6,25.5c0.1,0,0.1,0,0.2,0c-1.6-0.1-3.3-0.6-4.8-0.8c0,0-0.1,0-0.1,0c-0.3-0.1,0.2-0.1,0.3,0
		c-1.2-4.9-4.4-8.2-9.4-9.4c-0.3-1.5-0.6-3-0.8-4.5C222.3,12.3,227.2,17.1,228.6,25.5z"/>
	<path class="st1" d="M224.1,30.3c1.5-0.3,3-0.6,4.5-0.8c-1.5,8.3-6.3,13.3-14.7,14.7c0,0.1,0,0.1,0,0.2c0.1-1.6,0.6-3.3,0.8-4.8
		c0,0,0-0.1,0-0.1c0.1-0.3,0.1,0.2,0,0.3C219.5,38.5,222.9,35.3,224.1,30.3z"/>
	<path class="st1" d="M223.6,24.6c0.1,0.2-0.4,0-0.6,0C223.1,24.4,223.4,24.7,223.6,24.6z"/>
	<path class="st1" d="M222.9,24.5c0.1,0.2-0.4,0-0.6,0C222.5,24.3,222.7,24.5,222.9,24.5z"/>
	<path class="st1" d="M222.2,24.4c0.1,0.2-0.4,0-0.6,0C221.8,24.2,222,24.4,222.2,24.4z"/>
	<path class="st1" d="M221.5,24.2c0.1,0.2-0.4,0-0.6,0C221.1,24,221.3,24.3,221.5,24.2z"/>
	<path class="st1" d="M220.9,24.1c0.1,0.2-0.4,0-0.6,0C220.4,23.9,220.6,24.2,220.9,24.1z"/>
	<path class="st1" d="M220.2,24c0.1,0.2-0.4,0-0.6,0C219.8,23.8,220,24,220.2,24z"/>
	<path class="st1" d="M220,19.2c0.2,0,0.1,0,0.1,0.1c-1.3,1.2-2.7,2.8-3.9,3.8c-0.2-0.6-0.2-1.3-0.4-1.8C217,20.6,218.6,20,220,19.2
		z"/>
	<path class="st1" d="M219.5,23.9c0.1,0.2-0.4,0-0.6,0C219.1,23.7,219.3,23.9,219.5,23.9z"/>
	<path class="st1" d="M218,31.3c0.8,1.4,1.4,2.9,2.2,4.4c-1.3-1.3-2.8-2.7-3.9-4C216.8,31.5,217.5,31.5,218,31.3z"/>
	<path class="st1" d="M218.8,23.7c0.1,0.2-0.4,0-0.6,0C218.4,23.6,218.6,23.8,218.8,23.7z"/>
	<path class="st1" d="M215.7,33.8c0.2,0.1-0.1,0.3,0,0.6C215.5,34.5,215.7,34,215.7,33.8z"/>
	<path class="st1" d="M215.6,34.5c0.2,0.1-0.1,0.3,0,0.6C215.4,35.2,215.6,34.7,215.6,34.5z"/>
	<path class="st1" d="M215.4,35.2c0.2,0.1-0.1,0.3,0,0.6C215.3,35.8,215.5,35.4,215.4,35.2z"/>
	<path class="st1" d="M215.3,35.9c0.2,0.1-0.1,0.3,0,0.6C215.1,36.5,215.4,36.1,215.3,35.9z"/>
	<path class="st1" d="M215.2,36.6c0.2,0.1-0.1,0.3,0,0.6C215,37.2,215.2,36.7,215.2,36.6z"/>
	<path class="st1" d="M215.1,37.2c0.2,0.1-0.1,0.3,0,0.6C214.9,37.9,215.1,37.4,215.1,37.2z"/>
	<path class="st1" d="M214.9,37.9c0.2,0.1-0.1,0.3,0,0.6C214.8,38.6,215,38.1,214.9,37.9z"/>
	<path class="st1" d="M214.8,38.6c0.2,0.1-0.1,0.3,0,0.6C214.6,39.2,214.9,38.8,214.8,38.6z"/>
	<path class="st1" d="M213.8,44.4c0,0.1,0,0.2,0,0.3C213.8,44.5,213.8,44.4,213.8,44.4z"/>
	<path class="st1" d="M213.7,44.7c0.2,0.1-0.1,0.3,0,0.6C213.5,45.3,213.8,44.9,213.7,44.7z"/>
	<path class="st1" d="M213.6,45.4c0.2,0.1-0.1,0.3,0,0.6C213.4,46,213.6,45.6,213.6,45.4z"/>
	<path class="st1" d="M213.5,46c0.2,0.1-0.1,0.3,0,0.6C213.3,46.7,213.5,46.2,213.5,46z"/>
	<path class="st1" d="M213.3,46.7c0.2,0.1-0.1,0.3,0,0.6C213.2,47.4,213.4,46.9,213.3,46.7z"/>
	<path class="st1" d="M213.2,47.4c0.2,0.1-0.1,0.3,0,0.6C213,48,213.3,47.6,213.2,47.4z"/>
	<path class="st1" d="M213.1,48.1c0.2,0.1-0.1,0.3,0,0.6C212.9,48.7,213.1,48.3,213.1,48.1z"/>
	<path class="st1" d="M213,48.8c0.2,0.1-0.1,0.3,0,0.6C212.8,49.4,213,49,213,48.8z"/>
	<path class="st1" d="M212.8,49.6C212.8,49.5,212.9,49.3,212.8,49.6c-0.2,1.7-0.6,3.4-0.9,5.1c0-0.1,0-0.2-0.1-0.3
		C212.3,52.9,212.5,51.2,212.8,49.6z"/>
	<path class="st1" d="M211.9,54.4C211.9,54.4,211.9,54.5,211.9,54.4C211.9,54.5,211.9,54.5,211.9,54.4
		C211.9,54.5,211.9,54.5,211.9,54.4z"/>
	<path class="st1" d="M211.9,0.5C211.9,0.5,211.9,0.5,211.9,0.5C211.9,0.6,211.9,0.5,211.9,0.5C211.9,0.5,211.9,0.5,211.9,0.5z"/>
	<path class="st1" d="M211.9,0.3c0,0.1,0,0.2,0.1,0.3c-0.4,1.6-0.6,3.3-0.9,4.8c0,0.1-0.1,0.3-0.1,0.1C211.2,3.7,211.6,2,211.9,0.3z
		"/>
	<path class="st1" d="M210.9,5.6c0.2,0.1-0.1,0.3,0,0.6C210.7,6.3,210.9,5.8,210.9,5.6z"/>
	<path class="st1" d="M210.7,6.3c0.2,0.1-0.1,0.3,0,0.6C210.6,6.9,210.8,6.5,210.7,6.3z"/>
	<path class="st1" d="M210.6,7c0.2,0.1-0.1,0.3,0,0.6C210.5,7.6,210.7,7.2,210.6,7z"/>
	<path class="st1" d="M210.5,7.7c0.2,0.1-0.1,0.3,0,0.6C210.3,8.3,210.6,7.8,210.5,7.7z"/>
	<path class="st1" d="M210.4,8.3c0.2,0.1-0.1,0.3,0,0.6C210.2,9,210.4,8.5,210.4,8.3z"/>
	<path class="st1" d="M210.3,9c0.2,0.1-0.1,0.3,0,0.6C210.1,9.7,210.3,9.2,210.3,9z"/>
	<path class="st1" d="M210.1,9.7c0.2,0.1-0.1,0.3,0,0.6C210,10.3,210.2,9.9,210.1,9.7z"/>
	<path class="st1" d="M210,10.5c0-0.3,0.1,0,0.1,0.1c-0.3,1.6-0.6,3.3-0.9,5c0,0,0,0.1,0,0.1c-0.2-0.1,0-0.3,0-0.4
		c-4.9,1.2-8.2,4.4-9.4,9.4c-1.5,0.3-3,0.6-4.5,0.8c1.5-8.3,6.3-13.3,14.7-14.7c0-0.1,0.1-0.1,0.1-0.2C210,10.6,210,10.5,210,10.5z"
		/>
	<path class="st1" d="M209.1,39.7c0.3,1.5,0.6,3,0.8,4.5c-8.3-1.5-13.3-6.3-14.7-14.7c-0.1,0-0.1-0.1-0.2-0.1c0,0-0.1,0-0.1,0
		c-0.3,0,0-0.1,0.1-0.1c1.6,0.3,3.3,0.6,5,0.9c0,0,0.1,0,0.1,0c-0.1,0.2-0.3,0-0.4,0C200.9,35.1,204.1,38.5,209.1,39.7z"/>
	<path class="st1" d="M209,15.8c0.2,0.1-0.1,0.3,0,0.6C208.9,16.4,209.1,16,209,15.8z"/>
	<path class="st1" d="M208.9,16.5c0.2,0.1-0.1,0.3,0,0.6C208.7,17.1,208.9,16.7,208.9,16.5z"/>
	<path class="st1" d="M208.8,17.1c0.2,0.1-0.1,0.3,0,0.6C208.6,17.8,208.8,17.3,208.8,17.1z"/>
	<path class="st1" d="M208.7,17.8c0.2,0.1-0.1,0.3,0,0.6C208.5,18.5,208.7,18,208.7,17.8z"/>
	<path class="st1" d="M208.5,18.5c0.2,0.1-0.1,0.3,0,0.6C208.4,19.1,208.6,18.7,208.5,18.5z"/>
	<path class="st1" d="M208.4,19.2c0.2,0.1-0.1,0.3,0,0.6C208.2,19.8,208.5,19.4,208.4,19.2z"/>
	<path class="st1" d="M208.3,19.9c0.2,0.1-0.1,0.3,0,0.6C208.1,20.5,208.3,20.1,208.3,19.9z"/>
	<path class="st1" d="M208.2,20.5c0.2,0.1-0.1,0.3,0,0.6C208,21.2,208.2,20.7,208.2,20.5z"/>
	<path class="st1" d="M207.7,31.8c0.2,0.6,0.2,1.3,0.4,1.8c-1.4,0.8-2.9,1.4-4.4,2.2C205,34.4,206.4,32.9,207.7,31.8z"/>
	<path class="st1" d="M207.6,23.3c-0.6,0.2-1.3,0.2-1.8,0.4c-0.8-1.4-1.4-2.9-2.2-4.4C205,20.6,206.5,22,207.6,23.3z"/>
	<path class="st1" d="M205.5,31.3c0.1,0.2-0.4,0-0.6,0C205.1,31.1,205.3,31.3,205.5,31.3z"/>
	<path class="st1" d="M204.8,31.1c0.1,0.2-0.4,0-0.6,0C204.4,30.9,204.6,31.2,204.8,31.1z"/>
	<path class="st1" d="M204.2,31c0.1,0.2-0.4,0-0.6,0C203.7,30.8,203.9,31.1,204.2,31z"/>
	<path class="st1" d="M203.5,30.9c0.1,0.2-0.4,0-0.6,0C203.1,30.7,203.3,30.9,203.5,30.9z"/>
	<path class="st1" d="M202.8,30.8c0.1,0.2-0.4,0-0.6,0C202.4,30.6,202.6,30.8,202.8,30.8z"/>
	<path class="st1" d="M202.1,30.6c0.1,0.2-0.4,0-0.6,0C201.7,30.5,201.9,30.7,202.1,30.6z"/>
	<path class="st1" d="M201.4,30.5c0.1,0.2-0.4,0-0.6,0C201,30.3,201.2,30.6,201.4,30.5z"/>
	<path class="st1" d="M200.8,30.4c0.1,0.2-0.4,0-0.6,0C200.3,30.2,200.6,30.5,200.8,30.4z"/>
	<path class="st1" d="M194.7,29.3c0.1,0.2-0.4,0-0.6,0C194.2,29.1,194.5,29.3,194.7,29.3z"/>
	<path class="st1" d="M194,29.2c0.1,0.2-0.4,0-0.6,0C193.6,29,193.8,29.2,194,29.2z"/>
	<path class="st1" d="M193.3,29c0.1,0.2-0.4,0-0.6,0C192.9,28.9,193.1,29.1,193.3,29z"/>
	<path class="st1" d="M192.6,28.9c0.1,0.2-0.4,0-0.6,0C192.2,28.7,192.4,29,192.6,28.9z"/>
	<path class="st1" d="M192,28.8c0.1,0.2-0.4,0-0.6,0C191.5,28.6,191.7,28.9,192,28.8z"/>
	<path class="st1" d="M191.3,28.7c0.1,0.2-0.4,0-0.6,0C190.9,28.5,191.1,28.7,191.3,28.7z"/>
	<path class="st1" d="M190.6,28.5c0.1,0.2-0.4,0-0.6,0C190.2,28.4,190.4,28.6,190.6,28.5z"/>
	<path class="st1" d="M189.9,28.4c0.1,0.2-0.4,0-0.6,0C189.5,28.2,189.7,28.5,189.9,28.4z"/>
	<path class="st1" d="M189.2,28.3c0.1,0.2-0.4,0-0.6,0C188.8,28.1,189,28.4,189.2,28.3z"/>
	<path class="st1" d="M188.6,28.2c0.1,0.2-0.4,0-0.6,0C188.1,28,188.4,28.2,188.6,28.2z"/>
	<path class="st1" d="M187.9,28.1c0.1,0.2-0.4,0-0.6,0C187.5,27.9,187.7,28.1,187.9,28.1z"/>
	<path class="st1" d="M187.2,27.9c0.1,0.2-0.4,0-0.6,0C186.8,27.7,187,28,187.2,27.9z"/>
	<path class="st1" d="M186.5,27.8c0.1,0.2-0.4,0-0.6,0C186.1,27.6,186.3,27.9,186.5,27.8z"/>
	<path class="st1" d="M185.9,27.7c0.1,0.2-0.4,0-0.6,0C185.4,27.5,185.6,27.7,185.9,27.7z"/>
</g>
</svg>
