<?xml version="1.0" encoding="UTF-8"?>
<svg width="324px" height="142px" viewBox="0 0 324 142" version="1.1" xmlns="http://www.w3.org/2000/svg" xmlns:xlink="http://www.w3.org/1999/xlink">
    <!-- Generator: Sketch 52.3 (67297) - http://www.bohemiancoding.com/sketch -->
    <title>Logo</title>
    <desc>Created with Sketch.</desc>
    <defs>
        <linearGradient x1="50%" y1="5.33202444%" x2="50%" y2="100%" id="linearGradient-1">
            <stop stop-color="#FFFFFF" offset="0%"></stop>
            <stop stop-color="#D2EEFF" offset="100%"></stop>
        </linearGradient>
        <path d="M9.3583297,17.8124534 C13.7325414,17.8124534 16.1738448,15.6668605 16.1738448,11.8744202 C16.1738448,7.63426131 13.1729711,5.88782939 9.10413213,5.88782939 C8.39187557,5.88782939 7.68045795,5.93721012 6.9170263,6.08699834 L6.9170263,17.5622577 C7.78196919,17.7614266 8.59573699,17.8124534 9.3583297,17.8124534 M9.96907502,23.5998753 C8.74758438,23.5998753 7.7307941,23.4994678 6.9170263,23.3002988 L6.9170263,30.3354072 C6.9170263,32.1312199 5.79788584,33.0291262 3.45893262,33.0291262 C1.11914046,33.0291262 0,32.1312199 0,30.3354072 L0,5.08950754 C0,3.29287187 0.0511750884,1.44685547 2.94969854,0.649356638 C4.42538675,0.249372701 7.01853754,0 9.15530722,0 C17.3433214,0 23.2427184,3.59244832 23.2427184,11.6250475 C23.2427184,20.0074269 16.9364375,23.5998753 9.96907502,23.5998753" id="path-2"></path>
        <filter x="-23.7%" y="-10.6%" width="147.3%" height="133.3%" filterUnits="objectBoundingBox" id="filter-3">
            <feOffset dx="0" dy="2" in="SourceAlpha" result="shadowOffsetOuter1"></feOffset>
            <feGaussianBlur stdDeviation="1.5" in="shadowOffsetOuter1" result="shadowBlurOuter1"></feGaussianBlur>
            <feColorMatrix values="0 0 0 0 0   0 0 0 0 0   0 0 0 0 0  0 0 0 0.180253623 0" type="matrix" in="shadowBlurOuter1"></feColorMatrix>
        </filter>
        <path d="M55.4050606,23.6201217 C55.8041292,22.6301301 55.9538828,21.4914764 55.9538828,20.1543343 L55.9538828,2.67346746 C55.9538828,0.891155819 57.001335,0 59.1464315,0 C61.3408973,0 62.3883495,0.891155819 62.3883495,2.67346746 L62.3883495,20.104508 C62.3883495,22.5803038 62.0394731,24.709766 61.2413359,26.5419039 C59.2459929,31.2459978 54.9064306,33.0291262 49.5194161,33.0291262 C43.7827023,33.0291262 39.7920164,31.0483262 37.8468656,26.5419039 C37.0980977,24.8086018 36.6990291,22.6799564 36.6990291,20.1543343 L36.6990291,2.67346746 C36.6990291,0.891155819 37.7966734,0 40.0915235,0 C42.3855508,0 43.4831951,0.891155819 43.4831951,2.67346746 L43.4831951,20.1543343 C43.4831951,21.4914764 43.6329487,22.6301301 44.0320173,23.6201217 C44.979908,26.0469081 46.9250588,27.1855618 49.718539,27.1855618 C52.8608955,27.1855618 54.507362,25.8492365 55.4050606,23.6201217" id="path-4"></path>
        <filter x="-21.4%" y="-10.6%" width="142.8%" height="133.3%" filterUnits="objectBoundingBox" id="filter-5">
            <feOffset dx="0" dy="2" in="SourceAlpha" result="shadowOffsetOuter1"></feOffset>
            <feGaussianBlur stdDeviation="1.5" in="shadowOffsetOuter1" result="shadowBlurOuter1"></feGaussianBlur>
            <feColorMatrix values="0 0 0 0 0   0 0 0 0 0   0 0 0 0 0  0 0 0 0.180253623 0" type="matrix" in="shadowBlurOuter1"></feColorMatrix>
        </filter>
        <path d="M96.4116579,26.8809562 C98.1962892,26.8809562 99.0873786,27.8968501 99.0873786,29.9294762 C99.0873786,32.0123941 98.1962892,33.0291262 96.4116579,33.0291262 L78.9667432,33.0291262 C76.884537,33.0291262 75.8446602,32.0643622 75.8446602,30.1834497 C75.8446602,28.5062188 76.637648,27.2363514 77.628474,25.7628023 L90.4151984,6.14900825 L78.6691684,6.14900825 C76.884537,6.14900825 75.9926301,5.1322761 75.9926301,3.09965001 C75.9926301,1.01673214 76.884537,0 78.6691684,0 L95.5197509,0 C97.6011396,0 98.6426514,0.965602167 98.6426514,2.84567653 C98.6426514,4.52206918 97.8488461,5.79277481 96.8580201,7.26632395 L84.0712958,26.8809562 L96.4116579,26.8809562 Z" id="path-6"></path>
        <filter x="-23.7%" y="-10.6%" width="147.3%" height="133.3%" filterUnits="objectBoundingBox" id="filter-7">
            <feOffset dx="0" dy="2" in="SourceAlpha" result="shadowOffsetOuter1"></feOffset>
            <feGaussianBlur stdDeviation="1.5" in="shadowOffsetOuter1" result="shadowBlurOuter1"></feGaussianBlur>
            <feColorMatrix values="0 0 0 0 0   0 0 0 0 0   0 0 0 0 0  0 0 0 0.180253623 0" type="matrix" in="shadowBlurOuter1"></feColorMatrix>
        </filter>
        <path d="M130.664085,26.8809562 C132.448716,26.8809562 133.339806,27.8968501 133.339806,29.9294762 C133.339806,32.0123941 132.448716,33.0291262 130.664085,33.0291262 L113.21917,33.0291262 C111.136964,33.0291262 110.097087,32.0643622 110.097087,30.1834497 C110.097087,28.5062188 110.890075,27.2363514 111.880901,25.7628023 L124.667626,6.14900825 L112.921596,6.14900825 C111.136964,6.14900825 110.245057,5.1322761 110.245057,3.09965001 C110.245057,1.01673214 111.136964,0 112.921596,0 L129.772178,0 C131.853567,0 132.895079,0.965602167 132.895079,2.84567653 C132.895079,4.52206918 132.101273,5.79277481 131.110447,7.26632395 L118.323723,26.8809562 L130.664085,26.8809562 Z" id="path-8"></path>
        <filter x="-23.7%" y="-10.6%" width="147.3%" height="133.3%" filterUnits="objectBoundingBox" id="filter-9">
            <feOffset dx="0" dy="2" in="SourceAlpha" result="shadowOffsetOuter1"></feOffset>
            <feGaussianBlur stdDeviation="1.5" in="shadowOffsetOuter1" result="shadowBlurOuter1"></feGaussianBlur>
            <feColorMatrix values="0 0 0 0 0   0 0 0 0 0   0 0 0 0 0  0 0 0 0.180253623 0" type="matrix" in="shadowBlurOuter1"></feColorMatrix>
        </filter>
        <path d="M164.868632,26.927871 C166.685198,26.927871 167.592233,27.936013 167.592233,29.9531287 C167.592233,32.0201525 166.685198,33.0291262 164.868632,33.0291262 L151.449507,33.0291262 C149.077902,33.0291262 148.019417,31.9702444 148.019417,29.6004454 L148.019417,2.72248237 C148.019417,0.907494125 149.128663,0 151.449507,0 C153.770352,0 154.879597,0.907494125 154.879597,2.72248237 L154.879597,26.927871 L164.868632,26.927871 Z" id="path-10"></path>
        <filter x="-28.1%" y="-10.6%" width="156.2%" height="133.3%" filterUnits="objectBoundingBox" id="filter-11">
            <feOffset dx="0" dy="2" in="SourceAlpha" result="shadowOffsetOuter1"></feOffset>
            <feGaussianBlur stdDeviation="1.5" in="shadowOffsetOuter1" result="shadowBlurOuter1"></feGaussianBlur>
            <feColorMatrix values="0 0 0 0 0   0 0 0 0 0   0 0 0 0 0  0 0 0 0.180253623 0" type="matrix" in="shadowBlurOuter1"></feColorMatrix>
        </filter>
        <path d="M194.287502,13.0590988 C196.109541,13.0590988 197.019308,14.0247009 197.019308,16.057327 C197.019308,18.0899531 196.109541,19.0555553 194.287502,19.0555553 L185.128898,19.0555553 L185.128898,27.0335079 L196.666252,27.0335079 C198.486621,27.0335079 199.398058,27.9982719 199.398058,30.030898 C199.398058,32.0643622 198.486621,33.0291262 196.666252,33.0291262 L182.042365,33.0291262 C179.663615,33.0291262 178.601942,31.9621023 178.601942,29.574081 L178.601942,3.45588345 C178.601942,1.06702392 179.663615,0 182.042365,0 L196.361605,0 C198.183644,0 199.094246,0.965602167 199.094246,2.99822826 C199.094246,5.03085435 198.183644,5.99561832 196.361605,5.99561832 L185.128898,5.99561832 L185.128898,13.0590988 L194.287502,13.0590988 Z" id="path-12"></path>
        <filter x="-26.4%" y="-10.6%" width="152.9%" height="133.3%" filterUnits="objectBoundingBox" id="filter-13">
            <feOffset dx="0" dy="2" in="SourceAlpha" result="shadowOffsetOuter1"></feOffset>
            <feGaussianBlur stdDeviation="1.5" in="shadowOffsetOuter1" result="shadowBlurOuter1"></feGaussianBlur>
            <feColorMatrix values="0 0 0 0 0   0 0 0 0 0   0 0 0 0 0  0 0 0 0.180253623 0" type="matrix" in="shadowBlurOuter1"></feColorMatrix>
        </filter>
        <path d="M295.187984,83.7362285 C297.441474,83.2029609 299.499185,82.0275116 301.150045,80.2982449 C303.706379,77.6236868 304.937131,73.9668477 304.523141,70.2658265 C304.11323,66.5904926 302.127916,63.3374573 299.076018,61.3420705 C295.6448,59.095976 291.61707,57.6081696 287.098874,56.9207784 C286.502362,56.8303592 285.918086,56.7604898 285.337889,56.7080878 C284.579248,56.6423284 283.813469,56.6084212 283.060947,56.6084212 C271.680314,56.6084212 262.614352,64.1491749 261.011417,74.9439913 C259.711327,83.7043763 263.099719,89.6833442 267.277342,93.9443478 C265.960937,94.1909455 264.694496,94.6533163 263.525945,95.3160477 C262.235032,94.8526495 260.869682,94.5998868 259.488018,94.5803644 L251.095043,94.4580931 L251.502915,66.872025 C251.55084,63.5069932 250.28134,60.3289648 247.928941,57.9277192 C245.595917,55.5408585 242.470602,54.1989557 239.122997,54.1496362 L238.212424,54.1383338 C231.389755,54.1383338 225.756031,59.6816457 225.658142,66.4949359 L225.446049,80.8078802 L221.352039,69.2506658 C219.322879,63.5162406 214.17962,59.648766 208.230815,59.3960033 C208.034017,59.3877833 207.838239,59.3826459 207.6445,59.3826459 C201.96591,59.3826459 196.76453,62.8134371 194.390718,68.1224811 L188.224722,81.923735 L188.224722,71.0405544 C188.224722,63.1576464 181.82318,56.74405 173.95636,56.74405 C169.280114,56.74405 164.898555,59.0425465 162.232095,62.8915263 L155.226904,73.0071715 C155.192235,73.0575185 155.183057,73.0698484 155.089247,73.0698484 C155.006653,73.0698484 154.987279,73.0534085 154.954649,73.0092264 L147.476327,62.8082996 C144.692604,59.0117218 140.223353,56.74405 135.520596,56.74405 C130.710772,56.74405 126.440358,59.0600138 123.728013,62.6264338 C123.745348,62.3562037 123.755544,62.0839187 123.755544,61.8106062 C123.755544,54.7096186 118.136096,48.9320388 111.229813,48.9320388 C105.544085,48.9320388 100.73834,52.850888 99.2149402,58.1969217 C97.5783561,57.3913691 95.7459937,56.9259158 93.8045258,56.9259158 C86.9859352,56.9259158 81.4399034,62.5051899 81.4399034,69.3626622 L81.4399034,74.0274696 L71.7580554,61.6667575 C69.3964799,58.654155 65.8581952,56.9259158 62.0456171,56.9259158 L60.8576915,56.9259158 C54.0411403,56.9259158 48.4940889,62.5051899 48.4940889,69.3626622 L48.4940889,80.8047978 L38.9753895,62.1311833 C36.8595564,57.9770387 32.6972285,55.3970098 28.111734,55.3970098 C27.7589252,55.3970098 27.4061164,55.4124222 27.0502486,55.4432469 L23.9086189,55.7206693 C18.9570598,56.1573528 14.7988106,59.5614293 13.3172177,64.3916626 L0.557979736,105.962905 C-0.654418082,109.913607 0.135832808,114.206463 2.66667501,117.446141 C5.00479797,120.441276 8.49617739,122.15924 12.2475748,122.15924 C12.5983443,122.15924 12.9521727,122.143828 13.3049815,122.113003 C18.3554495,121.6681 22.538171,118.179769 23.9626619,113.225209 L24.7926803,110.334878 L34.8844391,109.445071 L36.2008441,112.145317 C38.2850671,116.42276 42.4830837,119.079851 47.15831,119.079851 C47.5121384,119.079851 47.8680063,119.065466 48.2269331,119.034641 L48.931531,118.971964 C50.1745192,118.86305 51.3726415,118.565078 52.4922486,118.099625 C54.7090298,120.150496 57.6589599,121.368072 60.8576915,121.368072 C67.6762821,121.368072 73.2223139,115.788798 73.2223139,108.931326 L73.2223139,104.336388 L82.9143586,116.65189 C85.2738949,119.649081 88.8081008,121.368072 92.6094625,121.368072 L93.8045258,121.368072 C98.7774981,121.368072 103.063207,118.393487 105.024049,114.125291 C106.932887,118.826061 111.435788,122.060601 116.607598,122.060601 C117.100102,122.060601 117.598725,122.030804 118.094289,121.970182 C120.781142,121.642412 123.16515,120.448468 125.033202,118.701734 C127.311164,120.717671 130.305959,121.952714 133.609718,121.952714 C140.683228,121.952714 146.437274,116.18541 146.437274,109.095724 L146.437274,103.370547 C148.414431,105.77693 151.30624,107.149657 154.433594,107.149657 C157.589499,107.149657 160.499662,105.755352 162.473759,103.315062 L162.473759,109.095724 C162.473759,116.18541 168.227805,121.952714 175.396146,121.952714 C176.950136,121.952714 178.465378,121.673237 179.881712,121.143052 C181.489745,122.661683 183.507689,123.729246 185.760159,124.209084 C186.583039,124.385812 187.427333,124.474176 188.270607,124.474176 C193.130395,124.474176 197.527249,121.521168 199.470757,116.951918 L200.6648,114.148923 L210.755539,114.579442 L211.730352,117.497515 C213.379172,122.422278 217.717905,125.744155 222.779589,125.957873 L223.50662,125.989725 C223.657532,125.99589 224.012381,126 224.012381,126 C228.031953,126 231.793548,123.967624 234.073549,120.565602 C234.398826,120.080627 234.677199,119.572019 234.930079,119.051081 C235.739704,119.228837 236.57788,119.328503 237.437469,119.340833 L259.307534,119.658328 C261.182723,119.658328 263.023243,119.228837 264.695516,118.428422 C268.26745,120.739248 272.564376,122.369876 276.971426,123.038772 C277.590371,123.133301 278.204218,123.206253 278.812966,123.26071 C279.664397,123.334689 280.521947,123.372706 281.360123,123.372706 L281.362162,123.372706 C293.321972,123.372706 302.462371,115.940867 304.107112,104.878903 C305.686594,94.244375 300.400581,87.8955105 295.187984,83.7362285" id="path-14"></path>
        <filter x="-5.7%" y="-16.2%" width="111.5%" height="145.4%" filterUnits="objectBoundingBox" id="filter-15">
            <feOffset dx="0" dy="5" in="SourceAlpha" result="shadowOffsetOuter1"></feOffset>
            <feGaussianBlur stdDeviation="5" in="shadowOffsetOuter1" result="shadowBlurOuter1"></feGaussianBlur>
            <feColorMatrix values="0 0 0 0 0   0 0 0 0 0   0 0 0 0 0  0 0 0 0.124518795 0" type="matrix" in="shadowBlurOuter1"></feColorMatrix>
        </filter>
        <path d="M295.187984,81.2896265 C297.441474,80.7563589 299.499185,79.5809096 301.150045,77.8516429 C303.706379,75.1770849 304.937131,71.5202458 304.523141,67.8192246 C304.11323,64.1438906 302.127916,60.8908553 299.076018,58.8954686 C295.6448,56.6493741 291.61707,55.1615677 287.098874,54.4741764 C286.502362,54.3837573 285.918086,54.3138879 285.337889,54.2614859 C284.579248,54.1957265 283.813469,54.1618193 283.060947,54.1618193 C271.680314,54.1618193 262.614352,61.7025729 261.011417,72.4973893 C259.711327,81.2577743 263.099719,87.2367422 267.277342,91.4977458 C265.960937,91.7443436 264.694496,92.2067143 263.525945,92.8694458 C262.235032,92.4060475 260.869682,92.1532848 259.488018,92.1337625 L251.095043,92.0114911 L251.502915,64.4254231 C251.55084,61.0603913 250.28134,57.8823628 247.928941,55.4811172 C245.595917,53.0942565 242.470602,51.7523538 239.122997,51.7030342 L238.212424,51.6917318 C231.389755,51.6917318 225.756031,57.2350437 225.658142,64.048334 L225.446049,78.3612783 L221.352039,66.8040638 C219.322879,61.0696387 214.17962,57.202164 208.230815,56.9494013 C208.034017,56.9411814 207.838239,56.936044 207.6445,56.936044 C201.96591,56.936044 196.76453,60.3668351 194.390718,65.6758791 L188.224722,79.4771331 L188.224722,68.5939525 C188.224722,60.7110445 181.82318,54.297448 173.95636,54.297448 C169.280114,54.297448 164.898555,56.5959446 162.232095,60.4449244 L155.226904,70.5605695 C155.192235,70.6109166 155.183057,70.6232465 155.089247,70.6232465 C155.006653,70.6232465 154.987279,70.6068066 154.954649,70.5626245 L147.476327,60.3616977 C144.692604,56.5651198 140.223353,54.297448 135.520596,54.297448 C130.710772,54.297448 126.440358,56.6134119 123.728013,60.1798318 C123.745348,59.9096018 123.755544,59.6373168 123.755544,59.3640043 C123.755544,52.2630166 118.136096,46.4854369 111.229813,46.4854369 C105.544085,46.4854369 100.73834,50.4042861 99.2149402,55.7503198 C97.5783561,54.9447671 95.7459937,54.4793139 93.8045258,54.4793139 C86.9859352,54.4793139 81.4399034,60.0585879 81.4399034,66.9160603 L81.4399034,71.5808677 L71.7580554,59.2201556 C69.3964799,56.2075531 65.8581952,54.4793139 62.0456171,54.4793139 L60.8576915,54.4793139 C54.0411403,54.4793139 48.4940889,60.0585879 48.4940889,66.9160603 L48.4940889,78.3581958 L38.9753895,59.6845813 C36.8595564,55.5304368 32.6972285,52.9504079 28.111734,52.9504079 C27.7589252,52.9504079 27.4061164,52.9658202 27.0502486,52.9966449 L23.9086189,53.2740674 C18.9570598,53.7107509 14.7988106,57.1148273 13.3172177,61.9450607 L0.557979736,103.516304 C-0.654418082,107.467005 0.135832808,111.759861 2.66667501,114.999539 C5.00479797,117.994674 8.49617739,119.712638 12.2475748,119.712638 C12.5983443,119.712638 12.9521727,119.697226 13.3049815,119.666401 C18.3554495,119.221498 22.538171,115.733167 23.9626619,110.778607 L24.7926803,107.888276 L34.8844391,106.998469 L36.2008441,109.698715 C38.2850671,113.976158 42.4830837,116.633249 47.15831,116.633249 C47.5121384,116.633249 47.8680063,116.618864 48.2269331,116.588039 L48.931531,116.525362 C50.1745192,116.416448 51.3726415,116.118476 52.4922486,115.653023 C54.7090298,117.703894 57.6589599,118.92147 60.8576915,118.92147 C67.6762821,118.92147 73.2223139,113.342196 73.2223139,106.484724 L73.2223139,101.889786 L82.9143586,114.205288 C85.2738949,117.202479 88.8081008,118.92147 92.6094625,118.92147 L93.8045258,118.92147 C98.7774981,118.92147 103.063207,115.946885 105.024049,111.678689 C106.932887,116.379459 111.435788,119.613999 116.607598,119.613999 C117.100102,119.613999 117.598725,119.584202 118.094289,119.52358 C120.781142,119.19581 123.16515,118.001866 125.033202,116.255132 C127.311164,118.271069 130.305959,119.506113 133.609718,119.506113 C140.683228,119.506113 146.437274,113.738808 146.437274,106.649122 L146.437274,100.923945 C148.414431,103.330328 151.30624,104.703055 154.433594,104.703055 C157.589499,104.703055 160.499662,103.30875 162.473759,100.86846 L162.473759,106.649122 C162.473759,113.738808 168.227805,119.506113 175.396146,119.506113 C176.950136,119.506113 178.465378,119.226635 179.881712,118.69645 C181.489745,120.215081 183.507689,121.282644 185.760159,121.762482 C186.583039,121.93921 187.427333,122.027574 188.270607,122.027574 C193.130395,122.027574 197.527249,119.074566 199.470757,114.505316 L200.6648,111.702321 L210.755539,112.13284 L211.730352,115.050913 C213.379172,119.975676 217.717905,123.297553 222.779589,123.511271 L223.50662,123.543123 C223.657532,123.549288 224.012381,123.553398 224.012381,123.553398 C228.031953,123.553398 231.793548,121.521022 234.073549,118.119 C234.398826,117.634025 234.677199,117.125417 234.930079,116.604479 C235.739704,116.782235 236.57788,116.881901 237.437469,116.894231 L259.307534,117.211726 C261.182723,117.211726 263.023243,116.782235 264.695516,115.98182 C268.26745,118.292646 272.564376,119.923274 276.971426,120.59217 C277.590371,120.686699 278.204218,120.759651 278.812966,120.814108 C279.664397,120.888087 280.521947,120.926105 281.360123,120.926105 L281.362162,120.926105 C293.321972,120.926105 302.462371,113.494265 304.107112,102.432301 C305.686594,91.7977731 300.400581,85.4489086 295.187984,81.2896265" id="path-16"></path>
        <filter x="-5.7%" y="-16.2%" width="111.5%" height="145.4%" filterUnits="objectBoundingBox" id="filter-17">
            <feOffset dx="0" dy="5" in="SourceAlpha" result="shadowOffsetOuter1"></feOffset>
            <feGaussianBlur stdDeviation="5" in="shadowOffsetOuter1" result="shadowBlurOuter1"></feGaussianBlur>
            <feColorMatrix values="0 0 0 0 0   0 0 0 0 0   0 0 0 0 0  0 0 0 0.124518795 0" type="matrix" in="shadowBlurOuter1"></feColorMatrix>
        </filter>
        <linearGradient x1="50%" y1="0%" x2="50%" y2="100%" id="linearGradient-18">
            <stop stop-color="#05C73E" offset="0%"></stop>
            <stop stop-color="#02961D" offset="100%"></stop>
        </linearGradient>
        <linearGradient x1="50%" y1="0%" x2="50%" y2="100%" id="linearGradient-19">
            <stop stop-color="#12E851" offset="0%"></stop>
            <stop stop-color="#00B922" offset="100%"></stop>
        </linearGradient>
        <linearGradient x1="50%" y1="0%" x2="50%" y2="100%" id="linearGradient-20">
            <stop stop-color="#D153F7" offset="0%"></stop>
            <stop stop-color="#A529ED" offset="100%"></stop>
        </linearGradient>
        <linearGradient x1="50%" y1="0%" x2="50%" y2="100%" id="linearGradient-21">
            <stop stop-color="#0FBDE6" offset="0%"></stop>
            <stop stop-color="#0688C9" offset="100%"></stop>
        </linearGradient>
        <linearGradient x1="50%" y1="0%" x2="50%" y2="100%" id="linearGradient-22">
            <stop stop-color="#FAB517" offset="0%"></stop>
            <stop stop-color="#F27E0A" offset="100%"></stop>
        </linearGradient>
        <linearGradient x1="50%" y1="100%" x2="50%" y2="3.061617e-15%" id="linearGradient-23">
            <stop stop-color="#FF0606" offset="0%"></stop>
            <stop stop-color="#FFA3A3" offset="100%"></stop>
        </linearGradient>
        <linearGradient x1="50%" y1="0%" x2="50%" y2="100%" id="linearGradient-24">
            <stop stop-color="#2BA0F3" offset="0%"></stop>
            <stop stop-color="#1367E2" offset="100%"></stop>
        </linearGradient>
        <linearGradient x1="50%" y1="0%" x2="50%" y2="100%" id="linearGradient-25">
            <stop stop-color="#D4F32A" offset="0%"></stop>
            <stop stop-color="#9DD810" offset="100%"></stop>
        </linearGradient>
    </defs>
    <g id="Page-1" stroke="none" stroke-width="1" fill="none" fill-rule="evenodd">
        <g id="Splash-Copy" transform="translate(-19.000000, -122.000000)">
            <g id="Logo" transform="translate(29.000000, 123.000000)">
                <g id="Group" transform="translate(52.601942, 0.000000)">
                    <g id="Fill-1">
                        <use fill="black" fill-opacity="1" filter="url(#filter-3)" xlink:href="#path-2"></use>
                        <use fill="url(#linearGradient-1)" fill-rule="evenodd" xlink:href="#path-2"></use>
                    </g>
                    <g id="Fill-4">
                        <use fill="black" fill-opacity="1" filter="url(#filter-5)" xlink:href="#path-4"></use>
                        <use fill="url(#linearGradient-1)" fill-rule="evenodd" xlink:href="#path-4"></use>
                    </g>
                    <g id="Fill-7">
                        <use fill="black" fill-opacity="1" filter="url(#filter-7)" xlink:href="#path-6"></use>
                        <use fill="url(#linearGradient-1)" fill-rule="evenodd" xlink:href="#path-6"></use>
                    </g>
                    <g id="Fill-9">
                        <use fill="black" fill-opacity="1" filter="url(#filter-9)" xlink:href="#path-8"></use>
                        <use fill="url(#linearGradient-1)" fill-rule="evenodd" xlink:href="#path-8"></use>
                    </g>
                    <g id="Fill-11">
                        <use fill="black" fill-opacity="1" filter="url(#filter-11)" xlink:href="#path-10"></use>
                        <use fill="url(#linearGradient-1)" fill-rule="evenodd" xlink:href="#path-10"></use>
                    </g>
                    <g id="Fill-13">
                        <use fill="black" fill-opacity="1" filter="url(#filter-13)" xlink:href="#path-12"></use>
                        <use fill="url(#linearGradient-1)" fill-rule="evenodd" xlink:href="#path-12"></use>
                    </g>
                </g>
                <g id="Fill-1" opacity="0.1">
                    <use fill="black" fill-opacity="1" filter="url(#filter-15)" xlink:href="#path-14"></use>
                    <use fill="#000000" fill-rule="evenodd" xlink:href="#path-14"></use>
                </g>
                <g id="Fill-1">
                    <use fill="black" fill-opacity="1" filter="url(#filter-17)" xlink:href="#path-16"></use>
                    <use fill="#FFFFFF" fill-rule="evenodd" xlink:href="#path-16"></use>
                </g>
                <g id="Logo-1" transform="translate(0.000000, 50.155340)">
                    <g id="A" transform="translate(28.330521, 35.902081) rotate(-5.000000) translate(-28.330521, -35.902081) translate(2.641200, 6.542857)">
                        <path d="M25.1428138,26.2219478 C23.0626966,26.2219478 21.3705378,27.9643715 21.3705378,30.1062777 C21.3705378,32.2481838 23.0626966,33.9913802 25.1428138,33.9913802 C27.2229309,33.9913802 28.9150898,32.2481838 28.9150898,30.1062777 C28.9150898,27.9643715 27.2229309,26.2219478 25.1428138,26.2219478 Z M42.7960448,57.6721155 C39.8537146,57.6721155 37.2565697,55.8524225 36.1774902,53.0344096 L34.6811866,49.1299897 C34.1716629,47.7994117 32.9432532,46.9394039 31.5527564,46.9394039 L19.0412868,46.9394039 C17.65079,46.9394039 16.4223803,47.7994117 15.9128566,49.1299897 L14.4173034,53.0344096 C13.3374735,55.8524225 10.7395782,57.6721155 7.79799837,57.6721155 C5.41471838,57.6721155 3.20177987,56.453578 1.87956975,54.412122 C0.556609225,52.3714386 0.312728243,49.7999149 1.22746952,47.5328324 L17.5067126,7.21059884 C18.6143075,4.46830988 21.1934427,2.69652386 24.0772415,2.69652386 L27.2251821,2.69652386 C30.1097314,2.69652386 32.6888665,4.46908258 33.795711,7.21059884 L50.0749541,47.5328324 C50.9896954,49.7991422 50.7465648,52.3706659 49.4236043,54.4113493 C48.1006438,56.453578 45.8884557,57.6721155 43.5044253,57.6721155 L42.7960448,57.6721155 Z" id="Fill-1" fill="url(#linearGradient-18)" opacity="0.299999982"></path>
                        <path d="M25.3202714,24.1732097 C23.2401543,24.1732097 21.5479954,25.9156334 21.5479954,28.0575395 C21.5479954,30.1994457 23.2401543,31.9426421 25.3202714,31.9426421 C27.4003886,31.9426421 29.0925474,30.1994457 29.0925474,28.0575395 C29.0925474,25.9156334 27.4003886,24.1732097 25.3202714,24.1732097 Z M42.9735025,55.6233774 C40.0311722,55.6233774 37.4340274,53.8036844 36.3549478,50.9856715 L34.8586442,47.0812516 C34.3491206,45.7506735 33.1207108,44.8906658 31.730214,44.8906658 L19.2187445,44.8906658 C17.8282477,44.8906658 16.5998379,45.7506735 16.0903143,47.0812516 L14.5947611,50.9856715 C13.5149311,53.8036844 10.9170359,55.6233774 7.97545602,55.6233774 C5.59217603,55.6233774 3.37923753,54.4048399 2.05702741,52.3633839 C0.734066881,50.3227005 0.4901859,47.7511768 1.40492718,45.4840943 L17.6841703,5.16186074 C18.7917652,2.41957178 21.3709003,0.64778576 24.2546991,0.64778576 L27.4026398,0.64778576 C30.287189,0.64778576 32.8663242,2.42034447 33.9731686,5.16186074 L50.2524118,45.4840943 C51.167153,47.7504041 50.9240225,50.3219278 49.6010619,52.3626112 C48.2781014,54.4048399 46.0659133,55.6233774 43.6818829,55.6233774 L42.9735025,55.6233774 Z" id="Fill-1" fill="url(#linearGradient-19)"></path>
                    </g>
                    <g id="N" transform="translate(52.742612, 8.575137)" fill="url(#linearGradient-20)">
                        <path d="M39.8280394,56.3424025 C37.5957481,56.3424025 35.5208522,55.3313464 34.1368315,53.5682839 L21.5762201,37.5696734 C20.7082749,36.4633784 19.6443422,36.2309955 18.9050375,36.2309955 C17.1736875,36.2309955 15.3825575,37.5422446 15.3825575,39.7365488 L15.3825575,49.0379602 C15.3825575,53.0654226 12.1287091,56.3424025 8.12798899,56.3424025 C4.1280256,56.3424025 0.873420505,53.0654226 0.873420505,49.0379602 L0.873420505,9.43762777 C0.873420505,5.41016539 4.1280256,2.13394742 8.12798899,2.13394742 L9.31375188,2.13394742 C11.5528536,2.13394742 13.6307763,3.1503369 15.0155537,4.92178034 L27.5678413,20.9866771 C28.4365432,22.0983055 29.5027461,22.3306884 30.2443208,22.3306884 C31.9764276,22.3306884 33.7668009,21.0202012 33.7668009,18.8258971 L33.7668009,9.43762777 C33.7668009,5.41016539 37.021406,2.13394742 41.0213694,2.13394742 C45.0213328,2.13394742 48.2759379,5.41016539 48.2759379,9.43762777 L48.2759379,49.0379602 C48.2759379,53.0654226 45.0213328,56.3424025 41.0213694,56.3424025 L39.8280394,56.3424025 Z" id="Fill-1" opacity="0.299999982"></path>
                        <path d="M39.8280394,54.2858385 C37.5957481,54.2858385 35.5208522,53.2747824 34.1368315,51.51172 L21.5762201,35.5131095 C20.7082749,34.4068145 19.6443422,34.1744316 18.9050375,34.1744316 C17.1736875,34.1744316 15.3825575,35.4856807 15.3825575,37.6799848 L15.3825575,46.9813962 C15.3825575,51.0088586 12.1287091,54.2858385 8.12798899,54.2858385 C4.1280256,54.2858385 0.873420505,51.0088586 0.873420505,46.9813962 L0.873420505,7.38106382 C0.873420505,3.35360144 4.1280256,0.077383465 8.12798899,0.077383465 L9.31375188,0.077383465 C11.5528536,0.077383465 13.6307763,1.09377295 15.0155537,2.86521639 L27.5678413,18.9301131 C28.4365432,20.0417415 29.5027461,20.2741244 30.2443208,20.2741244 C31.9764276,20.2741244 33.7668009,18.9636372 33.7668009,16.7693331 L33.7668009,7.38106382 C33.7668009,3.35360144 37.021406,0.077383465 41.0213694,0.077383465 C45.0213328,0.077383465 48.2759379,3.35360144 48.2759379,7.38106382 L48.2759379,46.9813962 C48.2759379,51.0088586 45.0213328,54.2858385 41.0213694,54.2858385 L39.8280394,54.2858385 Z" id="Fill-1"></path>
                    </g>
                    <g id="I" transform="translate(102.912414, 0.000000)" fill="url(#linearGradient-21)">
                        <path d="M8.37545258,18.2015867 C8.33342877,18.2023236 8.29132094,18.2026936 8.2491319,18.2026936 C4.1599617,18.2026936 0.833668751,14.727503 0.833668751,10.455286 C0.833668751,6.1838427 4.1599617,2.70865217 8.2491319,2.70865217 C12.3383021,2.70865217 15.6645951,6.1838427 15.6645951,10.455286 C15.6645951,14.165096 13.1564236,17.273913 9.81855273,18.0281298 C9.86444178,18.0272483 9.91028332,18.0268061 9.95605124,18.0268061 C13.7311826,18.0268061 16.9093441,20.9843162 17.348554,24.9059964 L21.0259186,56.9155112 C21.5036427,61.1838593 18.5721202,65.0575631 14.4918379,65.5574457 C14.2022408,65.5922673 13.9089405,65.610065 13.6186027,65.610065 C9.84273064,65.610065 6.66456919,62.651781 6.22609994,58.729327 L2.54873532,26.720586 C2.31690951,24.6498645 2.86944003,22.6147385 4.10337547,20.9835424 C5.1887123,19.5496463 6.6866933,18.5797527 8.37545258,18.2015867 Z" id="Combined-Shape" opacity="0.299999982"></path>
                        <path d="M8.37545258,16.1450228 C8.33342877,16.1457597 8.29132094,16.1461296 8.2491319,16.1461296 C4.1599617,16.1461296 0.833668751,12.6709391 0.833668751,8.39872201 C0.833668751,4.12727875 4.1599617,0.652088223 8.2491319,0.652088223 C12.3383021,0.652088223 15.6645951,4.12727875 15.6645951,8.39872201 C15.6645951,12.1085321 13.1564236,15.217349 9.81855273,15.9715659 C9.86444178,15.9706844 9.91028332,15.9702421 9.95605124,15.9702421 C13.7311826,15.9702421 16.9093441,18.9277523 17.348554,22.8494324 L21.0259186,54.8589473 C21.5036427,59.1272953 18.5721202,63.0009991 14.4918379,63.5008818 C14.2022408,63.5357033 13.9089405,63.553501 13.6186027,63.553501 C9.84273064,63.553501 6.66456919,60.595217 6.22609994,56.6727631 L2.54873532,24.664022 C2.31690951,22.5933006 2.86944003,20.5581745 4.10337547,18.9269785 C5.1887123,17.4930824 6.6866933,16.5231888 8.37545258,16.1450228 Z" id="Combined-Shape"></path>
                    </g>
                    <g id="M" transform="translate(124.781302, 7.822288)" fill="url(#linearGradient-22)">
                        <path d="M50.3494989,57.6800186 C46.093556,57.6800186 42.6318397,54.2144886 42.6318397,49.9546298 L42.6318397,34.4822167 C42.6318397,33.2721788 41.6577737,32.6192528 40.7415959,32.6192528 C40.3394657,32.6192528 39.7644425,32.7482926 39.3005648,33.3641293 L33.7116489,40.7734865 C32.7090247,42.1032919 31.1784598,42.8659403 29.5143661,42.8659403 C27.8595345,42.866713 26.3351443,42.1110189 25.3309765,40.7935766 L19.7675314,33.4877603 C19.3028818,32.8781051 18.7301742,32.7506107 18.3319032,32.7506107 C17.4149536,32.7506107 16.4408876,33.4035367 16.4408876,34.6128019 L16.4408876,49.9546298 C16.4408876,54.2144886 12.9791712,57.6800186 8.72400019,57.6800186 L8.62906349,57.6800186 C4.37389244,57.6800186 0.911404267,54.2144886 0.911404267,49.9546298 L0.911404267,12.4357279 C0.911404267,7.07014482 5.27231782,2.70442698 10.6319963,2.70442698 C13.7185969,2.70442698 16.6508289,4.19263451 18.4746941,6.68611619 L25.9407325,16.894169 C26.9394975,18.2587456 28.4808682,19.0422567 30.1696609,19.0422567 C31.9186574,19.0422567 33.4909018,18.2170201 34.4842639,16.7774923 L41.4756187,6.65675384 C43.186023,4.1818168 46.0009348,2.70442698 49.0064919,2.70442698 C54.0543458,2.70442698 58.161323,6.81592868 58.161323,11.8693437 L58.161323,49.9546298 C58.161323,54.2144886 54.6996067,57.6800186 50.4436638,57.6800186 L50.3494989,57.6800186 Z" id="Fill-1" opacity="0.299999982"></path>
                        <path d="M50.3494989,55.6234547 C46.093556,55.6234547 42.6318397,52.1579247 42.6318397,47.8980658 L42.6318397,32.4256527 C42.6318397,31.2156148 41.6577737,30.5626889 40.7415959,30.5626889 C40.3394657,30.5626889 39.7644425,30.6917287 39.3005648,31.3075654 L33.7116489,38.7169226 C32.7090247,40.046728 31.1784598,40.8093764 29.5143661,40.8093764 C27.8595345,40.8101491 26.3351443,40.0544549 25.3309765,38.7370126 L19.7675314,31.4311963 C19.3028818,30.8215412 18.7301742,30.6940468 18.3319032,30.6940468 C17.4149536,30.6940468 16.4408876,31.3469727 16.4408876,32.5562379 L16.4408876,47.8980658 C16.4408876,52.1579247 12.9791712,55.6234547 8.72400019,55.6234547 L8.62906349,55.6234547 C4.37389244,55.6234547 0.911404267,52.1579247 0.911404267,47.8980658 L0.911404267,10.379164 C0.911404267,5.01358087 5.27231782,0.647863029 10.6319963,0.647863029 C13.7185969,0.647863029 16.6508289,2.13607056 18.4746941,4.62955224 L25.9407325,14.837605 C26.9394975,16.2021816 28.4808682,16.9856928 30.1696609,16.9856928 C31.9186574,16.9856928 33.4909018,16.1604562 34.4842639,14.7209283 L41.4756187,4.60018989 C43.186023,2.12525285 46.0009348,0.647863029 49.0064919,0.647863029 C54.0543458,0.647863029 58.161323,4.75936473 58.161323,9.81277972 L58.161323,47.8980658 C58.161323,52.1579247 54.6996067,55.6234547 50.4436638,55.6234547 L50.3494989,55.6234547 Z" id="Fill-1"></path>
                    </g>
                    <g id="A" transform="translate(180.096725, 10.429717)" fill="url(#linearGradient-23)">
                        <path d="M27.1878745,24.9402698 C26.9867665,24.9402698 26.7826568,24.9566966 26.5785472,24.9879858 C25.0859956,25.2171788 23.8058081,26.4468424 23.4651251,27.9784464 C23.1867256,29.2253191 23.4441138,30.4487249 24.1877632,31.4249465 C24.9209069,32.3870879 26.0187466,32.9393414 27.2006313,32.9393414 C27.4002385,32.9393414 27.6050985,32.9229146 27.8077074,32.8916254 C29.2995086,32.6624324 30.5804465,31.433551 30.9218799,29.9011648 C31.2002794,28.6542921 30.9436416,27.4308863 30.1999922,26.4546647 C29.466098,25.4917411 28.3682584,24.9402698 27.1878745,24.9402698 M43.3658132,59.1166278 L42.6566823,59.0861209 C39.7188545,58.9609643 37.1952491,57.0085212 36.22873,54.1127102 L34.8900111,50.0998766 C34.4330156,48.7309762 33.2398748,47.8079462 31.8516292,47.749279 L19.3499149,47.2150168 L19.2095896,47.2118879 C17.8813762,47.2118879 16.6747282,48.0308814 16.1359388,49.2988743 L14.4865529,53.181858 C13.3481916,55.8641205 10.7938197,57.5967573 7.98130917,57.5967573 C7.49804962,57.5967573 7.01028766,57.5451302 6.53303134,57.4434404 C4.34785774,56.9756676 2.54989211,55.578607 1.59838108,53.6105194 C0.609349899,51.5634266 0.612351511,49.1080105 1.60738592,46.8747473 L18.7345844,8.4524514 C20.2826659,4.98092003 23.6542266,2.73748787 27.3251982,2.73748787 C27.4542675,2.73748787 27.5848377,2.74061678 27.7154078,2.74609238 C31.5522184,2.91036043 34.8900111,5.44321725 36.2167236,9.19947989 L50.3340556,49.1416463 C51.1377372,51.4163676 50.8240688,53.9601756 49.495105,55.9470367 C48.1646405,57.9362446 45.9862205,59.1228856 43.6667248,59.1228856 C43.6667248,59.1228856 43.4656168,59.1205389 43.3658132,59.1166278" id="Fill-1" opacity="0.299999982"></path>
                        <path d="M27.1878745,22.8837059 C26.9867665,22.8837059 26.7826568,22.9001327 26.5785472,22.9314218 C25.0859956,23.1606148 23.8058081,24.3902785 23.4651251,25.9218825 C23.1867256,27.1687552 23.4441138,28.392161 24.1877632,29.3683825 C24.9209069,30.3305239 26.0187466,30.8827774 27.2006313,30.8827774 C27.4002385,30.8827774 27.6050985,30.8663506 27.8077074,30.8350615 C29.2995086,30.6058685 30.5804465,29.376987 30.9218799,27.8446008 C31.2002794,26.5977281 30.9436416,25.3743223 30.1999922,24.3981008 C29.466098,23.4351771 28.3682584,22.8837059 27.1878745,22.8837059 M43.3658132,57.0600638 L42.6566823,57.0295569 C39.7188545,56.9044003 37.1952491,54.9519573 36.22873,52.0561463 L34.8900111,48.0433126 C34.4330156,46.6744122 33.2398748,45.7513823 31.8516292,45.6927151 L19.3499149,45.1584528 L19.2095896,45.1553239 C17.8813762,45.1553239 16.6747282,45.9743175 16.1359388,47.2423103 L14.4865529,51.125294 C13.3481916,53.8075565 10.7938197,55.5401933 7.98130917,55.5401933 C7.49804962,55.5401933 7.01028766,55.4885662 6.53303134,55.3868765 C4.34785774,54.9191037 2.54989211,53.522043 1.59838108,51.5539554 C0.609349899,49.5068627 0.612351511,47.0514465 1.60738592,44.8181833 L18.7345844,6.39588745 C20.2826659,2.92435608 23.6542266,0.680923917 27.3251982,0.680923917 C27.4542675,0.680923917 27.5848377,0.684052832 27.7154078,0.689528434 C31.5522184,0.85379648 34.8900111,3.3866533 36.2167236,7.14291594 L50.3340556,47.0850823 C51.1377372,49.3598037 50.8240688,51.9036117 49.495105,53.8904728 C48.1646405,55.8796806 45.9862205,57.0663217 43.6667248,57.0663217 C43.6667248,57.0663217 43.4656168,57.063975 43.3658132,57.0600638" id="Fill-1"></path>
                    </g>
                    <g id="L" transform="translate(228.980122, 5.214859)" fill="url(#linearGradient-24)">
                        <path d="M8.26169918,57.6754597 C4.15607637,57.6151897 0.865209214,54.2439282 0.924238221,50.1594708 L1.51530499,10.004139 C1.574334,5.97917898 4.9141331,2.70373156 8.9607269,2.70373156 L9.80344365,2.71532196 C11.7925659,2.74468431 13.6504262,3.54210392 15.0368312,4.96231443 C16.4224594,6.38175225 17.1696424,8.25321572 17.1409046,10.2320836 L16.7082841,39.5820705 C16.6943036,40.4892126 17.0376038,41.347675 17.6729424,41.9990556 C18.3090576,42.6504361 19.1610947,43.0159201 20.0737142,43.0290559 L30.1288396,43.1758677 C34.232909,43.2361377 37.5253296,46.6073992 37.4663006,50.6918566 C37.4057182,54.7168166 34.0674725,57.9914913 30.0224321,57.9914913 L8.26169918,57.6754597 Z" id="Fill-1" opacity="0.299999982"></path>
                        <path d="M8.26169918,55.6188958 C4.15607637,55.5586257 0.865209214,52.1873643 0.924238221,48.1029069 L1.51530499,7.94757506 C1.574334,3.92261502 4.9141331,0.647167605 8.9607269,0.647167605 L9.80344365,0.658758006 C11.7925659,0.688120356 13.6504262,1.48553997 15.0368312,2.90575048 C16.4224594,4.3251883 17.1696424,6.19665177 17.1409046,8.17551962 L16.7082841,37.5255066 C16.6943036,38.4326487 17.0376038,39.2911111 17.6729424,39.9424916 C18.3090576,40.5938722 19.1610947,40.9593562 20.0737142,40.972492 L30.1288396,41.1193037 C34.232909,41.1795738 37.5253296,44.5508352 37.4663006,48.6352926 C37.4057182,52.6602527 34.0674725,55.9349274 30.0224321,55.9349274 L8.26169918,55.6188958 Z" id="Fill-1"></path>
                    </g>
                    <g id="S" transform="translate(281.326281, 37.737134) rotate(5.000000) translate(-281.326281, -37.737134) translate(262.365115, 7.766260)">
                        <path d="M19.0751566,59.1651919 C18.5709263,59.1651919 18.0624349,59.1492645 17.5489722,59.1166857 C12.2723085,58.783658 7.02476228,56.8325499 3.51219448,53.898286 C2.00731555,52.6407444 1.07271401,50.780133 0.949142073,48.7935502 C0.824149769,46.7881441 1.52865184,44.8015613 2.88226168,43.3427551 L3.14076849,43.0640254 C4.48372557,41.6160788 6.37210361,40.7849574 8.32226762,40.7849574 C9.8115225,40.7849574 11.2290489,41.256264 12.4235776,42.1474752 C14.2892297,43.5403998 16.584543,44.4164075 18.7214852,44.5510666 C18.8628118,44.5604782 19.0012976,44.5648221 19.1369426,44.5648221 C21.6943135,44.5648221 21.7837967,43.0828487 21.8136244,42.5956146 C21.9336454,40.6162716 18.9970364,38.9344816 15.5959675,36.9862694 C9.69434222,33.606762 1.6124535,28.9791245 2.27860566,18.0167206 C2.82260626,9.04089943 10.1992827,2.52586356 19.8172984,2.52586356 C20.2945418,2.52586356 20.7781768,2.541067 21.2710442,2.57219786 C25.0918316,2.81400494 28.5298301,3.74286271 31.4905853,5.33415605 C33.3498459,6.33251526 34.6580039,8.11710948 35.0805631,10.2303876 C35.5102242,12.3776924 34.9790069,14.5829152 33.6218461,16.2806326 C32.2724974,17.9689384 30.2690696,18.9376146 28.1236052,18.9376146 C26.9439903,18.9376146 25.7679263,18.6357178 24.7211158,18.0637789 C23.8248642,17.5743729 22.7659805,17.3057788 21.3896448,17.218902 C21.2206211,17.2080424 21.0565687,17.2022506 20.8960672,17.2022506 C19.6333609,17.2022506 18.109307,17.516455 18.0184035,19.010012 C17.8806279,21.2709806 20.3982286,22.7710534 24.5180033,25.032022 C30.3031585,28.205921 38.2252559,32.5541048 37.5633648,43.4426634 C37.0008994,52.6993862 29.3983846,59.1644679 19.0751566,59.1651919" id="Fill-1" fill="#16D037" opacity="0.299999982"></path>
                        <path d="M18.897699,57.1164538 C18.3934687,57.1164538 17.8849773,57.1005264 17.3715145,57.0679476 C12.0948508,56.7349199 6.84730463,54.7838118 3.33473682,51.8495479 C1.8298579,50.5920063 0.895256353,48.7313949 0.771684416,46.7448121 C0.646692113,44.739406 1.35119419,42.7528232 2.70480402,41.294017 L2.96331083,41.0152873 C4.30626791,39.5673406 6.19464595,38.7362193 8.14480996,38.7362193 C9.63406485,38.7362193 11.0515912,39.2075259 12.2461199,40.0987371 C14.1117721,41.4916617 16.4070853,42.3676694 18.5440276,42.5023285 C18.6853541,42.5117401 18.8238399,42.516084 18.959485,42.516084 C21.5168559,42.516084 21.606339,41.0341106 21.6361667,40.5468765 C21.7561877,38.5675335 18.8195788,36.8857435 15.4185098,34.9375313 C9.51688456,31.5580239 1.43499585,26.9303864 2.10114801,15.9679825 C2.6451486,6.99216132 10.0218251,0.477125461 19.6398408,0.477125461 C20.1170841,0.477125461 20.6007191,0.4923289 21.0935865,0.523459753 C24.914374,0.76526684 28.3523725,1.6941246 31.3131277,3.28541795 C33.1723882,4.28377715 34.4805463,6.06837137 34.9031055,8.18164948 C35.3327665,10.3289543 34.8015492,12.5341771 33.4443885,14.2318945 C32.0950398,15.9202002 30.091612,16.8888765 27.9461475,16.8888765 C26.7665326,16.8888765 25.5904687,16.5869797 24.5436581,16.0150408 C23.6474065,15.5256348 22.5885229,15.2570407 21.2121871,15.1701639 C21.0431635,15.1593043 20.8791111,15.1535125 20.7186096,15.1535125 C19.4559032,15.1535125 17.9318494,15.4677169 17.8409459,16.9612739 C17.7031703,19.2222425 20.2207709,20.7223152 24.3405457,22.9832839 C30.1257008,26.1571829 38.0477982,30.5053667 37.3859072,41.3939253 C36.8234418,50.6506481 29.220927,57.1157298 18.897699,57.1164538" id="Fill-1" fill="url(#linearGradient-25)"></path>
                    </g>
                </g>
            </g>
        </g>
    </g>
</svg>