<?xml version="1.0" encoding="utf-8"?>
<!-- Generator: Adobe Illustrator 19.2.0, SVG Export Plug-In . SVG Version: 6.00 Build 0)  -->
<svg version="1.1" id="Layer_1" xmlns="http://www.w3.org/2000/svg" xmlns:xlink="http://www.w3.org/1999/xlink" x="0px" y="0px"
	 viewBox="0 0 120 120" style="enable-background:new 0 0 120 120;" xml:space="preserve">
<style type="text/css">
	.st0{fill:#FFF200;stroke:#020202;stroke-width:5;stroke-linecap:round;stroke-linejoin:round;stroke-miterlimit:10;}
</style>
<g>
	<path class="st0" d="M43.6,66.3l-4.1,20.1c-0.2,0.8-0.5,1.6-1.1,2.3L25,105.3c-2.5,3.1-2,7.6,1.1,10l0,0c3,2.4,7.4,1.9,9.8-1.1
		l14.3-17.6c0.5-0.6,0.8-1.3,1-2l3.2-12.6"/>
	<path class="st0" d="M72.5,33l8.3,11.7c0.6,0.8,1.4,1.4,2.3,1.7l12.1,3.8c3,0.9,4.7,4.2,3.8,7.2l0,0c-0.9,2.9-4,4.6-7,3.8
		l-15.6-4.4c-0.5-0.2-1-0.5-1.4-0.9l-6.6-7.6"/>
	<circle class="st0" cx="65.4" cy="13.8" r="11.3"/>
	<path class="st0" d="M55.7,24.9h5.8c3.6,0,6.9,1.8,8.8,4.8l2.2,3.3l-9.1,32.9c-0.2,0.5,0,1.1,0.3,1.6l12,16.8
		c0.3,0.5,0.6,1,0.7,1.5l5.9,22.8c1,3.9-1.4,7.8-5.3,8.7h0c-3.8,0.9-7.5-1.5-8.4-5.2l-5.3-21.5c-0.1-0.6-0.5-1.2-0.9-1.6L46.8,75.2
		c-2.7-2.4-3.9-6-3.1-9.6l4.8-21.5c0.1-0.4-0.3-0.7-0.7-0.4l-8.2,5.6c-0.6,0.4-1,0.9-1.3,1.6l-6.7,15.7c-1.2,2.8-4.4,4.1-7.3,3h0
		c-2.9-1.2-4.3-4.5-3.1-7.4l8-18.7c0.7-1.6,1.8-3,3.3-4.1l17-12.4C51.3,25.6,53.5,24.9,55.7,24.9z"/>
</g>
</svg>
