<?xml version="1.0" encoding="utf-8"?>
<!-- Generator: Adobe Illustrator 19.2.0, SVG Export Plug-In . SVG Version: 6.00 Build 0)  -->
<svg version="1.1" id="Layer_1" xmlns="http://www.w3.org/2000/svg" xmlns:xlink="http://www.w3.org/1999/xlink" x="0px" y="0px"
	 viewBox="0 0 120 120" style="enable-background:new 0 0 120 120;" xml:space="preserve">
<style type="text/css">
	.st0{fill:#FFF200;}
	.st1{fill:#020202;}
</style>
<g>
	<path class="st0" d="M37.2,117.6c0,0-30-16.4-23.1-43.6c3-12.1,14.6-27.6,13.3-38.6c7.2,4.2,8.4,13.1,8.4,13.1s19.5-18.5,14.9-46
		c21.7,5.6,32,36.4,30.2,53.1c9.6-6.6,10.3-25.5,7.5-32c18.9,13.7,22.9,40,14.3,62c-5.3,13.6-15.7,24.8-24.4,32
		c2.8-19.9-0.1-59.4-17.1-65.9c8.4,27.1-10.1,31.8-10.1,31.8s4.4-13.4-1.6-17.7c-1.8,12.2-14.1,16.2-16.9,28.1
		C31.3,99.6,32,108.6,37.2,117.6z"/>
	<g>
		<path class="st1" d="M37.2,120c-0.4,0-0.8-0.1-1.2-0.3c0,0-0.2-0.1-0.5-0.3c-1.1-0.7-1.5-2.1-0.9-3.3c0.1-0.2,0.3-0.4,0.4-0.5
			c0.2-0.2,0.4-0.4,0.6-0.5c1.2-0.7,2.6-0.2,3.3,0.9l0.2,0.4c0.5,0.9,0.4,2.1-0.4,2.9C38.5,119.8,37.9,120,37.2,120z"/>
		<path class="st1" d="M30.6,115.4c-0.5,0-1-0.2-1.5-0.5c-0.3-0.2-0.5-0.4-0.8-0.6c-1-0.8-1.2-2.4-0.3-3.4c0.8-1,2.4-1.2,3.4-0.3
			c0.2,0.2,0.5,0.4,0.7,0.6c1,0.8,1.2,2.3,0.4,3.4C32,115.1,31.3,115.4,30.6,115.4z M24.3,109.6c-0.6,0-1.3-0.3-1.7-0.8
			c-0.2-0.2-0.4-0.5-0.7-0.7c-0.9-1-0.8-2.5,0.2-3.4c1-0.9,2.5-0.8,3.4,0.2c0.2,0.2,0.4,0.4,0.6,0.7c0.9,1,0.9,2.5-0.1,3.4
			C25.4,109.4,24.8,109.6,24.3,109.6z M18.9,102.9c-0.8,0-1.6-0.4-2-1.1c-0.2-0.3-0.4-0.6-0.5-0.9c-0.7-1.1-0.4-2.6,0.8-3.3
			c1.1-0.7,2.6-0.3,3.3,0.8c0.2,0.3,0.3,0.5,0.5,0.8c0.7,1.1,0.4,2.6-0.7,3.3C19.8,102.8,19.4,102.9,18.9,102.9z M15.1,95.3
			c-1,0-1.9-0.6-2.3-1.6c-0.1-0.3-0.2-0.6-0.3-1c-0.4-1.3,0.3-2.6,1.5-3c1.3-0.4,2.6,0.3,3,1.5c0.1,0.3,0.2,0.6,0.3,0.8
			c0.5,1.2-0.2,2.6-1.4,3.1C15.6,95.3,15.3,95.3,15.1,95.3z M13.2,87c-1.2,0-2.3-0.9-2.4-2.2c0-0.3-0.1-0.7-0.1-1
			c-0.1-1.3,0.9-2.5,2.3-2.5c1.3-0.1,2.5,0.9,2.5,2.3c0,0.3,0,0.6,0.1,0.9c0.1,1.3-0.9,2.5-2.2,2.6C13.3,87,13.3,87,13.2,87z
			 M13.6,78.5c-0.1,0-0.3,0-0.4,0c-1.3-0.2-2.2-1.5-1.9-2.8c0.1-0.3,0.1-0.7,0.2-1c0.3-1.3,1.6-2.1,2.9-1.8c1.3,0.3,2.1,1.6,1.8,2.9
			c-0.1,0.3-0.1,0.6-0.2,0.9C15.8,77.7,14.8,78.5,13.6,78.5z M16.1,70.3c-0.3,0-0.6-0.1-0.9-0.2c-1.2-0.5-1.8-1.9-1.3-3.1
			c0.1-0.3,0.2-0.6,0.4-0.9c0.5-1.2,1.9-1.8,3.1-1.3c1.2,0.5,1.8,1.9,1.3,3.1c-0.1,0.3-0.2,0.6-0.3,0.9C18,69.7,17.1,70.3,16.1,70.3
			z M19.6,62.5c-0.3,0-0.7-0.1-1-0.2c-1.2-0.6-1.7-2-1.1-3.2l0.4-0.9c0.6-1.2,2-1.7,3.2-1.1c1.2,0.6,1.7,2,1.1,3.2l-0.4,0.9
			C21.4,62,20.5,62.5,19.6,62.5z M23.2,54.7c-0.3,0-0.7-0.1-1-0.2c-1.2-0.5-1.8-2-1.2-3.2l0.4-0.9c0.5-1.2,1.9-1.8,3.2-1.3
			c1.2,0.5,1.8,1.9,1.3,3.2l-0.4,0.9C25,54.2,24.2,54.7,23.2,54.7z M26.3,46.7c-0.2,0-0.5,0-0.7-0.1c-1.3-0.4-2-1.7-1.6-3
			c0.1-0.3,0.2-0.6,0.2-0.9c0.3-1.3,1.7-2,2.9-1.7c1.3,0.3,2,1.7,1.7,2.9c-0.1,0.3-0.2,0.6-0.3,1C28.3,46,27.3,46.7,26.3,46.7z"/>
		<path class="st1" d="M27.4,38.2c-1.2,0-2.3-0.9-2.4-2.2c0-0.1,0-0.3,0-0.4c-0.1-0.9,0.3-1.8,1.1-2.3c0.8-0.5,1.7-0.5,2.5-0.1
			c0.2,0.1,0.3,0.2,0.5,0.3c1.1,0.7,1.5,2.2,0.8,3.3c-0.2,0.4-0.6,0.7-1,0.9c-0.3,0.3-0.8,0.4-1.2,0.5
			C27.6,38.2,27.5,38.2,27.4,38.2z"/>
		<path class="st1" d="M33.2,43.8c-0.8,0-1.6-0.4-2.1-1.2c-0.1-0.2-0.3-0.4-0.4-0.7c-0.7-1.1-0.4-2.6,0.7-3.3
			c1.1-0.7,2.6-0.4,3.3,0.7c0.2,0.3,0.4,0.6,0.5,0.8c0.7,1.1,0.3,2.6-0.9,3.3C34.1,43.7,33.6,43.8,33.2,43.8z"/>
		<path class="st1" d="M35.8,50.8c-0.3,0-0.5,0-0.8-0.1c-0.8-0.3-1.5-1-1.6-1.9c0,0,0-0.1-0.1-0.3c-0.3-1.3,0.6-2.6,1.9-2.8
			c0.5-0.1,1,0,1.4,0.1c0.4,0.1,0.8,0.3,1.2,0.6c0.9,0.9,1,2.4,0,3.4c-0.3,0.3-0.4,0.4-0.4,0.4C37,50.6,36.4,50.8,35.8,50.8z"/>
		<path class="st1" d="M40.9,44.8c-0.5,0-1-0.1-1.4-0.4c-1.1-0.8-1.3-2.3-0.6-3.3c0.2-0.2,0.3-0.5,0.5-0.7c0.8-1.1,2.2-1.4,3.3-0.6
			c1.1,0.8,1.4,2.2,0.6,3.3c-0.2,0.3-0.4,0.5-0.6,0.8C42.4,44.4,41.6,44.8,40.9,44.8z M45.2,37.7c-0.4,0-0.8-0.1-1.1-0.3
			c-1.2-0.6-1.6-2.1-1-3.2c0.1-0.3,0.3-0.5,0.4-0.8c0.6-1.2,2-1.7,3.2-1.1c1.2,0.6,1.7,2,1.1,3.2c-0.1,0.3-0.3,0.6-0.4,0.9
			C46.9,37.2,46.1,37.7,45.2,37.7z M48.6,30c-0.3,0-0.5,0-0.8-0.1c-1.3-0.4-1.9-1.8-1.5-3.1c0.1-0.3,0.2-0.6,0.3-0.8
			c0.4-1.3,1.8-1.9,3-1.5c1.3,0.4,1.9,1.8,1.5,3c-0.1,0.3-0.2,0.6-0.3,0.9C50.5,29.4,49.5,30,48.6,30z M50.6,21.9
			c-0.1,0-0.3,0-0.4,0c-1.3-0.2-2.2-1.5-2-2.8c0.1-0.3,0.1-0.6,0.1-0.9c0.2-1.3,1.4-2.2,2.7-2c1.3,0.2,2.2,1.4,2,2.7
			c-0.1,0.3-0.1,0.6-0.2,1C52.8,21.1,51.8,21.9,50.6,21.9z M51.4,13.6C51.4,13.6,51.4,13.6,51.4,13.6c-1.3,0-2.4-1.1-2.4-2.4l0-0.4
			l0-0.5c0-1.3,1-2.4,2.4-2.4c1.3,0,2.4,1,2.4,2.4l0,0.6l0,0.4C53.8,12.5,52.7,13.6,51.4,13.6z"/>
		<path class="st1" d="M50.8,5.3c-1.2,0-2.2-0.8-2.4-2l-0.1-0.5c-0.1-0.8,0.1-1.6,0.7-2.2c0.6-0.5,1.4-0.8,2.2-0.6l0.5,0.1
			c1.3,0.4,2,1.7,1.7,3c-0.2,0.5-0.5,1-0.9,1.3c-0.4,0.4-0.9,0.7-1.4,0.8C51,5.3,50.9,5.3,50.8,5.3z"/>
		<path class="st1" d="M80.9,50.1c-1.2,0-2.3-1-2.4-2.2c0-0.3,0-0.6-0.1-0.9c-0.1-1.3,0.8-2.5,2.2-2.6c1.3-0.1,2.5,0.8,2.6,2.2
			c0,0.3,0.1,0.6,0.1,0.9c0.1,1.3-0.9,2.5-2.2,2.6C81,50.1,81,50.1,80.9,50.1z M79.7,42c-1.1,0-2.1-0.8-2.3-1.9l-0.2-0.9
			c-0.3-1.3,0.5-2.6,1.8-2.9c1.3-0.3,2.6,0.5,2.9,1.8c0.1,0.3,0.1,0.6,0.2,0.9c0.3,1.3-0.5,2.6-1.8,2.9C80,42,79.9,42,79.7,42z
			 M77.5,34.2c-1,0-1.9-0.6-2.3-1.6c-0.1-0.3-0.2-0.6-0.3-0.8c-0.5-1.2,0.2-2.6,1.4-3.1c1.2-0.5,2.6,0.2,3.1,1.4
			c0.1,0.3,0.2,0.6,0.3,0.9c0.4,1.3-0.2,2.6-1.5,3.1C78,34.1,77.7,34.2,77.5,34.2z M74.3,26.6c-0.9,0-1.7-0.5-2.2-1.3
			c-0.1-0.3-0.3-0.5-0.4-0.8c-0.6-1.2-0.1-2.6,1-3.2c1.2-0.6,2.6-0.1,3.2,1c0.1,0.3,0.3,0.6,0.4,0.8c0.6,1.2,0.1,2.6-1.1,3.2
			C75,26.6,74.7,26.6,74.3,26.6z M70.2,19.6c-0.8,0-1.5-0.4-2-1c-0.2-0.2-0.3-0.5-0.5-0.7c-0.8-1.1-0.5-2.6,0.6-3.3
			c1.1-0.8,2.6-0.5,3.3,0.6c0.2,0.3,0.4,0.5,0.5,0.8c0.8,1.1,0.5,2.6-0.6,3.3C71.1,19.4,70.7,19.6,70.2,19.6z M65,13.3
			c-0.6,0-1.2-0.2-1.7-0.7c-0.2-0.2-0.4-0.4-0.6-0.6c-1-0.9-1-2.4-0.1-3.4c0.9-1,2.4-1,3.4-0.1c0.2,0.2,0.5,0.4,0.7,0.7
			c0.9,0.9,0.9,2.5,0,3.4C66.2,13.1,65.6,13.3,65,13.3z M58.6,8.2c-0.4,0-0.9-0.1-1.3-0.4c-0.2-0.1-0.5-0.3-0.7-0.4
			c-1.1-0.7-1.5-2.1-0.9-3.3C56.4,3,57.9,2.6,59,3.3c0.3,0.2,0.6,0.3,0.8,0.5c1.1,0.7,1.5,2.2,0.8,3.3C60.2,7.8,59.4,8.2,58.6,8.2z"
			/>
		<path class="st1" d="M80.9,57.9c-0.4,0-0.9-0.1-1.2-0.3c-0.8-0.5-1.3-1.4-1.1-2.3l0-0.4c0.1-1.3,1.3-2.3,2.6-2.2
			c0.4,0,0.8,0.2,1.1,0.4c0.4,0.2,0.7,0.4,0.9,0.7c0.8,1.1,0.6,2.6-0.5,3.4c-0.2,0.1-0.3,0.2-0.5,0.3C81.8,57.7,81.3,57.9,80.9,57.9
			z"/>
		<path class="st1" d="M86.1,51.7c-0.4,0-0.8-0.1-1.1-0.3c-1.2-0.6-1.6-2.1-1-3.2c0.1-0.3,0.3-0.5,0.4-0.8c0.6-1.2,2-1.7,3.2-1.1
			c1.2,0.6,1.7,2,1.1,3.2c-0.2,0.3-0.3,0.6-0.5,0.9C87.8,51.2,87,51.7,86.1,51.7z M88.9,43.5c-0.2,0-0.3,0-0.5,0
			c-1.3-0.3-2.1-1.5-1.9-2.8c0.1-0.3,0.1-0.6,0.2-0.9c0.2-1.3,1.5-2.2,2.8-1.9c1.3,0.2,2.2,1.5,1.9,2.8c-0.1,0.3-0.1,0.7-0.2,1
			C91,42.7,90,43.5,88.9,43.5z M89.8,34.9c-1.3,0-2.4-1.1-2.4-2.4c0-0.3,0-0.6,0-0.9c0-1.3,1-2.4,2.3-2.5c0,0,0,0,0.1,0
			c1.3,0,2.4,1,2.4,2.3c0,0.3,0,0.7,0,1C92.2,33.8,91.1,34.9,89.8,34.9C89.8,34.9,89.8,34.9,89.8,34.9z"/>
		<path class="st1" d="M88.5,26.4c-1,0-1.9-0.6-2.2-1.5c0-0.1-0.1-0.2-0.1-0.4c-0.4-1-0.1-2.1,0.7-2.8c0.8-0.7,2-0.7,2.9-0.1
			l0.4,0.3c1.1,0.8,1.3,2.3,0.5,3.4c-0.2,0.2-0.4,0.4-0.6,0.6c-0.2,0.2-0.4,0.3-0.7,0.4C89.1,26.3,88.8,26.4,88.5,26.4z"/>
		<path class="st1" d="M84.1,114.7c-0.6,0-1.2-0.2-1.7-0.7c-0.9-0.9-0.9-2.5,0-3.4l0.7-0.6c0.9-0.9,2.5-0.9,3.4,0
			c0.9,0.9,0.9,2.5,0,3.4l-0.7,0.7C85.4,114.4,84.7,114.7,84.1,114.7z M89.9,108.5c-0.6,0-1.1-0.2-1.6-0.6c-1-0.9-1.1-2.4-0.3-3.4
			l0.6-0.7c0.9-1,2.4-1.1,3.4-0.3c1,0.9,1.1,2.4,0.3,3.4l-0.6,0.7C91.2,108.2,90.5,108.5,89.9,108.5z M95,101.9
			c-0.5,0-1-0.1-1.4-0.4c-1.1-0.8-1.4-2.3-0.6-3.3l0.5-0.7c0.7-1.1,2.2-1.4,3.3-0.6c1.1,0.7,1.4,2.2,0.6,3.3
			c-0.2,0.3-0.4,0.5-0.5,0.8C96.5,101.6,95.8,101.9,95,101.9z M99.4,94.8c-0.4,0-0.8-0.1-1.1-0.3c-1.2-0.6-1.6-2.1-1-3.3
			c0.1-0.3,0.3-0.5,0.4-0.8c0.6-1.2,2.1-1.6,3.2-1c1.2,0.6,1.6,2.1,1,3.2c-0.1,0.3-0.3,0.6-0.4,0.8C101.1,94.3,100.3,94.8,99.4,94.8
			z M102.9,87.2c-0.3,0-0.6,0-0.8-0.2c-1.2-0.5-1.9-1.8-1.4-3.1c0.1-0.3,0.2-0.6,0.3-0.8c0.4-1.2,1.8-1.9,3.1-1.4
			c1.2,0.4,1.9,1.8,1.4,3.1c-0.1,0.3-0.2,0.6-0.3,0.9C104.8,86.6,103.9,87.2,102.9,87.2z M105.3,79.1c-0.2,0-0.4,0-0.5-0.1
			c-1.3-0.3-2.1-1.6-1.8-2.9c0.1-0.3,0.1-0.6,0.2-0.9c0.3-1.3,1.6-2.1,2.9-1.8c1.3,0.3,2.1,1.6,1.8,2.9c-0.1,0.3-0.1,0.6-0.2,0.9
			C107.4,78.4,106.4,79.1,105.3,79.1z M106.7,70.8c-0.1,0-0.2,0-0.2,0c-1.3-0.1-2.3-1.3-2.2-2.6c0-0.3,0.1-0.6,0.1-0.9
			c0.1-1.3,1.3-2.3,2.6-2.2c1.3,0.1,2.3,1.3,2.2,2.6c0,0.3-0.1,0.6-0.1,1C108.9,69.9,107.9,70.8,106.7,70.8z M106.9,62.5
			c-1.3,0-2.3-1-2.4-2.3c0-0.3,0-0.6,0-0.9c-0.1-1.3,0.9-2.5,2.2-2.5c1.4-0.1,2.5,0.9,2.5,2.2c0,0.3,0,0.6,0.1,1
			c0.1,1.3-1,2.4-2.3,2.5C106.9,62.5,106.9,62.5,106.9,62.5z M105.8,54.1c-1.1,0-2.1-0.8-2.4-1.9c-0.1-0.3-0.1-0.6-0.2-0.9
			c-0.3-1.3,0.5-2.6,1.8-2.9c1.3-0.3,2.6,0.5,2.9,1.8c0.1,0.3,0.1,0.6,0.2,1c0.3,1.3-0.6,2.6-1.9,2.8
			C106.2,54.1,106,54.1,105.8,54.1z M103.5,46.1c-1,0-1.9-0.6-2.2-1.6c-0.1-0.3-0.2-0.6-0.3-0.8c-0.5-1.2,0.1-2.6,1.3-3.1
			c1.2-0.5,2.6,0.1,3.1,1.3c0.1,0.3,0.2,0.6,0.4,0.9c0.5,1.2-0.2,2.6-1.4,3.1C104.1,46,103.8,46.1,103.5,46.1z M99.9,38.5
			c-0.8,0-1.6-0.4-2.1-1.2c-0.2-0.3-0.3-0.5-0.5-0.8c-0.7-1.1-0.4-2.6,0.7-3.3c1.1-0.7,2.6-0.4,3.3,0.7c0.2,0.3,0.3,0.6,0.5,0.8
			c0.7,1.1,0.3,2.6-0.8,3.3C100.7,38.4,100.3,38.5,99.9,38.5z M94.9,31.8c-0.7,0-1.3-0.3-1.8-0.8c-0.2-0.2-0.4-0.4-0.6-0.6
			c-0.9-1-0.9-2.5,0.1-3.4c1-0.9,2.5-0.9,3.4,0.1c0.2,0.2,0.5,0.5,0.7,0.7c0.9,1,0.8,2.5-0.2,3.4C96.1,31.6,95.5,31.8,94.9,31.8z"/>
		<path class="st1" d="M78.2,120c-0.4,0-0.8-0.1-1.2-0.3c-0.9-0.5-1.4-1.4-1.2-2.4l0.1-0.5c0.2-1.3,1.4-2.2,2.7-2.1
			c0.4,0,0.7,0.2,1,0.4c0.3,0.1,0.6,0.4,0.8,0.6c0.9,1,0.7,2.5-0.3,3.4l-0.4,0.3C79.3,119.8,78.8,120,78.2,120z"/>
		<path class="st1" d="M79,111.6c0,0-0.1,0-0.1,0c-1.3-0.1-2.3-1.2-2.3-2.5l0-1c0.1-1.3,1.2-2.3,2.5-2.3c1.3,0.1,2.4,1.2,2.3,2.5
			l0,1C81.3,110.6,80.3,111.6,79,111.6z M79.1,102.6c-1.3,0-2.4-1-2.4-2.4l0-1c0-1.3,1-2.4,2.3-2.5c1.3-0.1,2.4,1,2.5,2.3l0,1
			C81.6,101.5,80.5,102.6,79.1,102.6C79.2,102.6,79.2,102.6,79.1,102.6z M78.7,93.7c-1.2,0-2.3-0.9-2.4-2.2l-0.1-1
			c-0.1-1.3,0.8-2.5,2.2-2.6c1.3-0.1,2.5,0.8,2.6,2.2l0.1,1c0.1,1.3-0.9,2.5-2.2,2.6C78.8,93.7,78.8,93.7,78.7,93.7z M77.6,84.8
			c-1.2,0-2.2-0.8-2.4-2l-0.2-1c-0.2-1.3,0.7-2.5,2-2.8c1.3-0.2,2.5,0.7,2.8,2l0.2,1c0.2,1.3-0.7,2.5-2,2.8
			C77.9,84.8,77.7,84.8,77.6,84.8z M75.8,76c-1.1,0-2-0.7-2.3-1.8c-0.1-0.3-0.2-0.6-0.2-0.9c-0.4-1.3,0.4-2.6,1.7-3
			c1.3-0.4,2.6,0.4,3,1.7c0.1,0.3,0.2,0.7,0.3,1c0.3,1.3-0.4,2.6-1.7,2.9C76.2,76,76,76,75.8,76z M72.9,67.6c-0.9,0-1.8-0.5-2.2-1.5
			c-0.1-0.3-0.3-0.6-0.4-0.9c-0.5-1.2,0-2.6,1.2-3.2c1.2-0.5,2.6,0,3.2,1.2c0.1,0.3,0.3,0.6,0.4,1c0.5,1.2,0,2.6-1.3,3.1
			C73.5,67.5,73.2,67.6,72.9,67.6z M68.5,59.8c-0.7,0-1.4-0.3-1.9-0.9c-0.2-0.2-0.4-0.5-0.6-0.7c-0.9-1-0.7-2.5,0.3-3.4
			c1-0.9,2.5-0.7,3.4,0.3c0.2,0.3,0.5,0.6,0.7,0.8c0.8,1,0.6,2.6-0.4,3.4C69.5,59.6,69,59.8,68.5,59.8z"/>
		<path class="st1" d="M61.3,54.5c-1,0-2-0.6-2.3-1.7l-0.1-0.4c-0.3-0.9,0-1.8,0.6-2.5c0.7-0.6,1.6-0.8,2.5-0.5
			c0.2,0.1,0.4,0.1,0.5,0.2c1.2,0.5,1.8,1.9,1.3,3.1c-0.2,0.5-0.5,0.8-0.9,1.1c-0.3,0.2-0.6,0.4-0.9,0.5
			C61.7,54.5,61.5,54.5,61.3,54.5z"/>
		<path class="st1" d="M58.4,81.1c-0.6,0-1.2-0.2-1.6-0.6c-1-0.9-1-2.4-0.2-3.4c0.2-0.2,0.4-0.4,0.6-0.7c0.8-1,2.3-1.2,3.4-0.3
			c1,0.8,1.2,2.3,0.3,3.4c-0.3,0.3-0.5,0.6-0.8,0.9C59.7,80.9,59.1,81.1,58.4,81.1z M62.7,72.9c-0.2,0-0.4,0-0.6-0.1
			c-1.3-0.3-2.1-1.6-1.8-2.9c0.1-0.3,0.1-0.6,0.2-0.9c0.3-1.3,1.5-2.1,2.8-1.9c1.3,0.3,2.2,1.5,1.9,2.8c-0.1,0.4-0.2,0.8-0.2,1.1
			C64.8,72.2,63.8,72.9,62.7,72.9z M63.2,63.7c-1.2,0-2.3-0.9-2.4-2.2c0-0.3-0.1-0.6-0.1-1c-0.2-1.3,0.8-2.5,2.1-2.7
			c1.3-0.2,2.5,0.8,2.7,2.1c0,0.4,0.1,0.7,0.1,1.1c0.1,1.3-0.8,2.5-2.1,2.6C63.4,63.7,63.3,63.7,63.2,63.7z"/>
		<path class="st1" d="M51.1,85.8c-0.7,0-1.3-0.3-1.8-0.8c-0.6-0.6-0.8-1.5-0.5-2.4c0,0,0.1-0.2,0.1-0.4c0.4-1.3,1.7-2,3-1.6
			c0.5,0.1,0.9,0.4,1.2,0.8c0.3,0.3,0.6,0.6,0.7,1.1c0.4,1.3-0.3,2.6-1.5,3c-0.4,0.1-0.6,0.2-0.6,0.2C51.5,85.8,51.3,85.8,51.1,85.8
			z"/>
		<path class="st1" d="M52.7,77.1C52.6,77.1,52.6,77.1,52.7,77.1c-1.4,0-2.4-1.2-2.4-2.5c0-0.2,0-0.5,0-0.7l0-0.2
			c0-1.3,1-2.4,2.4-2.4c0,0,0,0,0,0c1.3,0,2.4,1,2.4,2.4l0,0.3c0,0.3,0,0.6,0,0.9C55,76.1,53.9,77.1,52.7,77.1z"/>
		<path class="st1" d="M49.4,68.6c-0.1,0-0.3,0-0.4,0c-1.3-0.2-2.2-1.5-2-2.8c0-0.1,0-0.3,0.1-0.4c0.1-0.8,0.7-1.5,1.4-1.9
			c0.8-0.3,1.7-0.2,2.3,0.3c0.2,0.1,0.4,0.3,0.5,0.4c1,0.9,1.1,2.4,0.3,3.4c-0.3,0.4-0.7,0.6-1.2,0.8C50.2,68.5,49.8,68.6,49.4,68.6
			z"/>
		<path class="st1" d="M34,112.9c-1,0-1.9-0.6-2.3-1.6c-0.1-0.3-0.2-0.6-0.3-0.9c-0.4-1.3,0.3-2.6,1.6-3c1.3-0.4,2.6,0.3,3,1.6
			c0.1,0.3,0.2,0.5,0.3,0.8c0.4,1.3-0.2,2.6-1.5,3C34.5,112.8,34.2,112.9,34,112.9z M32.2,104.8c-1.2,0-2.3-0.9-2.4-2.2
			c0-0.3-0.1-0.7-0.1-1c-0.1-1.3,0.9-2.5,2.2-2.6c1.3-0.1,2.5,0.9,2.6,2.2c0,0.3,0,0.6,0.1,0.9c0.1,1.3-0.8,2.5-2.2,2.6
			C32.3,104.8,32.2,104.8,32.2,104.8z M32.5,96.6c-0.2,0-0.3,0-0.5-0.1c-1.3-0.3-2.1-1.6-1.8-2.9l0.1-0.3c0.1-0.2,0.1-0.5,0.2-0.7
			c0.3-1.3,1.7-2,2.9-1.7c1.3,0.3,2,1.7,1.7,2.9c0,0.2-0.1,0.4-0.1,0.5l-0.1,0.2C34.6,95.8,33.6,96.6,32.5,96.6z M35.8,89
			c-0.5,0-0.9-0.1-1.3-0.4c-1.1-0.7-1.4-2.2-0.7-3.3c0.2-0.3,0.4-0.5,0.6-0.8c0.8-1.1,2.3-1.3,3.3-0.6c1.1,0.8,1.3,2.3,0.6,3.3
			c-0.2,0.2-0.3,0.5-0.5,0.7C37.4,88.6,36.6,89,35.8,89z M41.1,82.6c-0.6,0-1.2-0.2-1.6-0.6c-1-0.9-1-2.4-0.2-3.4l0.6-0.7
			c0.9-1,2.4-1.1,3.4-0.2c1,0.9,1.1,2.4,0.2,3.4l-0.6,0.7C42.4,82.4,41.7,82.6,41.1,82.6z M46.3,76.2c-0.5,0-0.9-0.1-1.3-0.4
			c-1.1-0.7-1.4-2.2-0.7-3.3c0.2-0.2,0.3-0.5,0.4-0.7c0.7-1.1,2.2-1.5,3.3-0.8c1.1,0.7,1.5,2.2,0.8,3.3c-0.2,0.3-0.4,0.6-0.5,0.9
			C47.9,75.8,47.1,76.2,46.3,76.2z"/>
	</g>
</g>
</svg>
