<?xml version="1.0" encoding="utf-8"?>
<!-- Generator: Adobe Illustrator 19.2.0, SVG Export Plug-In . SVG Version: 6.00 Build 0)  -->
<svg version="1.1" id="Layer_1" xmlns="http://www.w3.org/2000/svg" xmlns:xlink="http://www.w3.org/1999/xlink" x="0px" y="0px"
	 viewBox="0 0 95 95" style="enable-background:new 0 0 95 95;" xml:space="preserve">
<style type="text/css">
	.st0{fill:#232323;}
</style>
<g>
	<path class="st0" d="M63.1,2.5l-4.2,6.9c8,4.2,13.6,12.5,13.6,22.2c0,0.9-0.7,1.7-1.7,1.7H24.2c-0.9,0-1.7-0.7-1.7-1.7
		c0-9.7,5.5-18,13.6-22.2l-4.2-6.9c-0.5-0.8-0.2-1.8,0.6-2.3c0.8-0.5,1.8-0.2,2.3,0.6l4.4,7.3c2.6-0.9,5.4-1.5,8.3-1.5
		c2.9,0,5.7,0.5,8.3,1.5l4.4-7.3c0.5-0.8,1.5-1,2.3-0.6C63.3,0.7,63.6,1.7,63.1,2.5z M47.5,10c-11.4,0-20.7,8.8-21.6,20h43.2
		C68.3,18.8,58.9,10,47.5,10z M56.9,18.9h2.2c0.6,0,1.1,0.5,1.1,1.1v2.2c0,0.6-0.5,1.1-1.1,1.1h-2.2c-0.6,0-1.1-0.5-1.1-1.1V20
		C55.8,19.4,56.3,18.9,56.9,18.9z M38.1,18.9h-2.2c-0.6,0-1.1,0.5-1.1,1.1v2.2c0,0.6,0.5,1.1,1.1,1.1h2.2c0.6,0,1.1-0.5,1.1-1.1V20
		C39.2,19.4,38.7,18.9,38.1,18.9z M24.2,35h46.7c0.9,0,1.7,0.7,1.7,1.7v33.6c0,4.4-3.6,8-8.1,8h-1.9v10c0,3.7-3,6.7-6.7,6.7
		c-3.7,0-6.7-3-6.7-6.7v-10h-3.3v10c0,3.7-3,6.7-6.7,6.7s-6.7-3-6.7-6.7v-10h-1.9c-4.4,0-8.1-3.6-8.1-8V36.7
		C22.5,35.7,23.2,35,24.2,35z M64.4,75c2.6,0,4.7-2.1,4.7-4.7v-32H25.8v32c0,2.6,2.1,4.7,4.7,4.7h3.6c0.9,0,1.7,0.7,1.7,1.7v11.7
		c0,1.8,1.5,3.3,3.3,3.3s3.3-1.5,3.3-3.3V76.7c0-0.9,0.7-1.7,1.7-1.7h6.7c0.9,0,1.7,0.7,1.7,1.7v11.7c0,1.8,1.5,3.3,3.3,3.3
		c1.8,0,3.3-1.5,3.3-3.3V76.7c0-0.9,0.7-1.7,1.7-1.7H64.4z M80,35c-3.2,0-5.8,2.6-5.8,5.8v23.3c0,3.2,2.6,5.8,5.8,5.8
		c3.2,0,5.8-2.6,5.8-5.8V40.8C85.8,37.6,83.2,35,80,35z M82.5,64.2c0,1.4-1.1,2.5-2.5,2.5c-1.4,0-2.5-1.1-2.5-2.5V40.8
		c0-1.4,1.1-2.5,2.5-2.5c1.4,0,2.5,1.1,2.5,2.5V64.2z M9.2,40.8c0-3.2,2.6-5.8,5.8-5.8s5.8,2.6,5.8,5.8v23.3c0,3.2-2.6,5.8-5.8,5.8
		s-5.8-2.6-5.8-5.8V40.8z M15,66.7c1.4,0,2.5-1.1,2.5-2.5V40.8c0-1.4-1.1-2.5-2.5-2.5s-2.5,1.1-2.5,2.5v23.3
		C12.5,65.5,13.6,66.7,15,66.7z"/>
</g>
</svg>
