<?xml version="1.0" encoding="utf-8"?>
<!-- Generator: Adobe Illustrator 19.2.0, SVG Export Plug-In . SVG Version: 6.00 Build 0)  -->
<svg version="1.1" id="Layer_1" xmlns="http://www.w3.org/2000/svg" xmlns:xlink="http://www.w3.org/1999/xlink" x="0px" y="0px"
	 viewBox="0 0 95 95" style="enable-background:new 0 0 95 95;" xml:space="preserve">
<style type="text/css">
	.st0{fill:#232323;}
</style>
<path class="st0" d="M45.9,77.6c-3.5,0-6.3,2.8-6.3,6.3c0,3.5,2.8,6.3,6.3,6.3c3.5,0,6.3-2.8,6.3-6.3C52.2,80.4,49.4,77.6,45.9,77.6
	z M45.9,87.1c-1.7,0-3.2-1.4-3.2-3.2c0-1.7,1.4-3.2,3.2-3.2s3.2,1.4,3.2,3.2C49.1,85.7,47.7,87.1,45.9,87.1z"/>
<path class="st0" d="M41.2,7.9h6.3c0.9,0,1.6-0.7,1.6-1.6c0-0.9-0.7-1.6-1.6-1.6h-6.3c-0.9,0-1.6,0.7-1.6,1.6
	C39.6,7.2,40.3,7.9,41.2,7.9z"/>
<path class="st0" d="M52.2,7.9h1.6c0.9,0,1.6-0.7,1.6-1.6c0-0.9-0.7-1.6-1.6-1.6h-1.6c-0.9,0-1.6,0.7-1.6,1.6
	C50.7,7.2,51.4,7.9,52.2,7.9z"/>
<path class="st0" d="M6.6,21.1l-0.4-1.5c-0.2-0.8-1.1-1.3-1.9-1.1c-0.8,0.2-1.3,1.1-1.1,1.9l0.4,1.5c0.2,0.7,0.8,1.2,1.5,1.2
	c0.1,0,0.3,0,0.4-0.1C6.4,22.8,6.9,22,6.6,21.1z"/>
<path class="st0" d="M3.3,15.6c0.9-0.1,1.5-0.9,1.4-1.7c0-0.1,0-0.3,0-0.4c0-0.2,0-0.5,0.1-0.7c0.2-0.9-0.4-1.7-1.3-1.9
	c-0.9-0.2-1.7,0.4-1.9,1.3c-0.1,0.4-0.1,0.9-0.1,1.3c0,0.2,0,0.5,0,0.7c0.1,0.8,0.8,1.4,1.6,1.4C3.2,15.6,3.3,15.6,3.3,15.6z"/>
<path class="st0" d="M10.7,36.1l-0.4-1.5c-0.2-0.8-1.1-1.4-1.9-1.1c-0.8,0.2-1.3,1.1-1.1,1.9l0.4,1.5c0.2,0.7,0.8,1.2,1.5,1.2
	c0.1,0,0.3,0,0.4-0.1C10.4,37.8,10.9,36.9,10.7,36.1z"/>
<path class="st0" d="M18.7,66l-0.4-1.5c-0.2-0.8-1.1-1.4-1.9-1.1c-0.8,0.2-1.3,1.1-1.1,1.9l0.4,1.5c0.2,0.7,0.8,1.2,1.5,1.2
	c0.1,0,0.3,0,0.4-0.1C18.4,67.7,18.9,66.8,18.7,66z"/>
<path class="st0" d="M8.7,28.6l-0.4-1.5C8,26.3,7.2,25.8,6.3,26c-0.8,0.2-1.3,1.1-1.1,1.9l0.4,1.5c0.2,0.7,0.8,1.2,1.5,1.2
	c0.1,0,0.3,0,0.4-0.1C8.4,30.3,8.9,29.4,8.7,28.6z"/>
<path class="st0" d="M7.3,9.9c0.1,0,0.3,0,0.4-0.1l1.5-0.4c0.8-0.2,1.3-1.1,1.1-1.9c-0.2-0.8-1.1-1.4-1.9-1.1L6.9,6.7
	C6.1,7,5.6,7.8,5.8,8.7C6,9.4,6.6,9.9,7.3,9.9z"/>
<path class="st0" d="M14.8,7.8c0.1,0,0.3,0,0.4-0.1l1.5-0.4c0.8-0.2,1.3-1.1,1.1-1.9c-0.2-0.8-1.1-1.4-1.9-1.1l-1.5,0.4
	C13.5,5,13,5.8,13.3,6.7C13.4,7.4,14.1,7.8,14.8,7.8z"/>
<path class="st0" d="M16.7,58.5L16.3,57c-0.2-0.8-1.1-1.3-1.9-1.1c-0.8,0.2-1.3,1.1-1.1,1.9l0.4,1.5c0.2,0.7,0.8,1.2,1.5,1.2
	c0.1,0,0.3,0,0.4-0.1C16.4,60.2,16.9,59.4,16.7,58.5z"/>
<path class="st0" d="M12.7,43.6l-0.4-1.5c-0.2-0.8-1.1-1.3-1.9-1.1C9.5,41.2,9,42,9.2,42.9l0.4,1.5c0.2,0.7,0.8,1.2,1.5,1.2
	c0.1,0,0.3,0,0.4-0.1C12.4,45.3,12.9,44.4,12.7,43.6z"/>
<path class="st0" d="M14.7,51l-0.4-1.5c-0.2-0.8-1.1-1.4-1.9-1.1c-0.8,0.2-1.3,1.1-1.1,1.9l0.4,1.5c0.2,0.7,0.8,1.2,1.5,1.2
	c0.1,0,0.3,0,0.4-0.1C14.4,52.7,14.9,51.9,14.7,51z"/>
<path class="st0" d="M88.7,26c-0.8-0.2-1.7,0.3-1.9,1.1l-0.4,1.5c-0.2,0.8,0.3,1.7,1.1,1.9c0.1,0,0.3,0.1,0.4,0.1
	c0.7,0,1.3-0.5,1.5-1.2l0.4-1.5C90,27.1,89.5,26.2,88.7,26z"/>
<path class="st0" d="M90.7,18.5c-0.9-0.2-1.7,0.3-1.9,1.1l-0.4,1.5c-0.2,0.8,0.3,1.7,1.1,1.9c0.1,0,0.3,0.1,0.4,0.1
	c0.7,0,1.3-0.5,1.5-1.2l0.4-1.5C92,19.6,91.5,18.7,90.7,18.5z"/>
<path class="st0" d="M93.3,12.2c-0.2-0.9-1-1.4-1.9-1.3c-0.9,0.2-1.4,1-1.3,1.9c0,0.2,0.1,0.5,0.1,0.7c0,0.1,0,0.3,0,0.4
	c-0.1,0.9,0.6,1.6,1.4,1.7c0.1,0,0.1,0,0.2,0c0.8,0,1.5-0.6,1.6-1.4c0-0.2,0-0.5,0-0.7C93.4,13.1,93.4,12.6,93.3,12.2z"/>
<path class="st0" d="M78.3,7.4l1.5,0.4c0.1,0,0.3,0.1,0.4,0.1c0.7,0,1.3-0.5,1.5-1.2C82,5.8,81.5,5,80.6,4.7l-1.5-0.4
	c-0.9-0.2-1.7,0.3-1.9,1.1C77,6.3,77.5,7.2,78.3,7.4z"/>
<path class="st0" d="M85.8,9.4l1.5,0.4c0.1,0,0.3,0.1,0.4,0.1c0.7,0,1.3-0.5,1.5-1.2c0.2-0.8-0.3-1.7-1.1-1.9l-1.5-0.4
	c-0.8-0.2-1.7,0.3-1.9,1.1C84.4,8.3,84.9,9.2,85.8,9.4z"/>
<path class="st0" d="M86.7,33.5c-0.8-0.2-1.7,0.3-1.9,1.1l-0.4,1.5c-0.2,0.8,0.3,1.7,1.1,1.9c0.1,0,0.3,0.1,0.4,0.1
	c0.7,0,1.3-0.5,1.5-1.2l0.4-1.5C88,34.6,87.5,33.7,86.7,33.5z"/>
<path class="st0" d="M76.7,70.9c-0.8-0.2-1.7,0.3-1.9,1.1l-0.3,1.1v-0.3c0,0,0,0,0-0.1v-6c0,0,0,0,0-0.1v-1.5c0,0,0,0,0-0.1v-6
	c0,0,0,0,0-0.1v-1.5c0,0,0,0,0-0.1v-6c0,0,0,0,0-0.1v-1.5c0,0,0,0,0-0.1v-6c0,0,0,0,0-0.1v-1.5c0,0,0,0,0-0.1v-6c0,0,0,0,0-0.1v-1.6
	c0,0,0,0,0-0.1v-6c0,0,0,0,0-0.1v-1.6c0,0,0,0,0-0.1v-6c0,0,0,0,0-0.1v-1.6c0,0,0,0,0-0.1v-6c0,0,0,0,0-0.1v-1.6c0,0,0,0,0-0.1V7
	c0-3.8-3.1-7-7-7H27.6c-3.8,0-7,3.1-7,7v3.9v0v1.5v0v6.2v0v1.5v0v6.2v0v1.5v0v6.2v0v1.6v0v6.2v0v1.6v0v6.2v0v1.6v0v6.2v0v1.6v0v6.2
	v0v1.5v0v6.2v0v0.3L20.3,72c-0.2-0.8-1.1-1.4-1.9-1.1c-0.8,0.2-1.3,1.1-1.1,1.9l0.4,1.5c0.2,0.8,1.1,1.4,1.9,1.1
	c0.5-0.1,0.8-0.5,1-0.9v3.8c-0.1,0-0.2,0-0.2,0c-0.8,0.2-1.3,1.1-1.1,1.9l0.4,1.5c0.1,0.5,0.5,0.9,1,1.1V88c0,3.8,3.1,7,7,7h39.9
	c3.8,0,7-3.1,7-7v-5.2c0.5-0.2,0.8-0.5,1-1.1l0.4-1.5c0.2-0.8-0.3-1.7-1.1-1.9c-0.1,0-0.2,0-0.3,0v-3.7c0,0,0,0,0,0
	c0.2,0.4,0.6,0.7,1,0.9c0.8,0.2,1.7-0.3,1.9-1.1l0.4-1.5C78,71.9,77.5,71.1,76.7,70.9z M23.7,12.7h47.5v60.2H23.7V12.7L23.7,12.7z
	 M27.6,3.2h39.9c2.1,0,3.8,1.7,3.8,3.8v2.5H23.7V7C23.7,4.9,25.5,3.2,27.6,3.2z M67.4,91.8H27.6c-2.1,0-3.8-1.7-3.8-3.8V76h47.5v12
	C71.2,90.1,69.5,91.8,67.4,91.8z"/>
<path class="st0" d="M80.7,55.9c-0.9-0.2-1.7,0.3-1.9,1.1l-0.4,1.5c-0.2,0.8,0.3,1.7,1.1,1.9c0.1,0,0.3,0.1,0.4,0.1
	c0.7,0,1.3-0.5,1.5-1.2l0.4-1.5C82,57,81.5,56.1,80.7,55.9z"/>
<path class="st0" d="M78.7,63.4c-0.9-0.2-1.7,0.3-1.9,1.1L76.3,66c-0.2,0.8,0.3,1.7,1.1,1.9c0.1,0,0.3,0.1,0.4,0.1
	c0.7,0,1.3-0.5,1.5-1.2l0.4-1.5C80,64.5,79.5,63.6,78.7,63.4z"/>
<path class="st0" d="M82.7,48.4c-0.8-0.2-1.7,0.3-1.9,1.1L80.3,51c-0.2,0.8,0.3,1.7,1.1,1.9c0.1,0,0.3,0.1,0.4,0.1
	c0.7,0,1.3-0.5,1.5-1.2l0.4-1.5C84,49.5,83.5,48.6,82.7,48.4z"/>
<path class="st0" d="M84.7,40.9c-0.9-0.2-1.7,0.3-1.9,1.1l-0.4,1.5c-0.2,0.8,0.3,1.7,1.1,1.9c0.1,0,0.3,0.1,0.4,0.1
	c0.7,0,1.3-0.5,1.5-1.2l0.4-1.5C86,42,85.5,41.2,84.7,40.9z"/>
</svg>
