<?xml version="1.0" encoding="utf-8"?>
<!-- Generator: Adobe Illustrator 19.2.0, SVG Export Plug-In . SVG Version: 6.00 Build 0)  -->
<svg version="1.1" id="Layer_1" xmlns="http://www.w3.org/2000/svg" xmlns:xlink="http://www.w3.org/1999/xlink" x="0px" y="0px"
	 viewBox="0 0 120 120" style="enable-background:new 0 0 120 120;" xml:space="preserve">
<style type="text/css">
	.st0{fill:none;stroke:#020202;stroke-width:5;stroke-linecap:round;stroke-linejoin:round;stroke-miterlimit:10;}
</style>
<path class="st0" d="M85.4,34.4C79.6,27.6,71,24.2,60,24.2c-12.2,0-21.3,4-27.1,11.8c-8.5,11.5-6.3,27.3-4.9,32
	c0.8,2.5,3,4.1,5.5,4.1c0.6,0,1.1-0.1,1.7-0.3c3-0.9,4.7-4.2,3.8-7.2c-1-3.3-2.2-14.6,3.1-21.8c1.3-1.7,2.9-3.2,4.9-4.3v0.9v71.8
	c0,3.5,2.8,6.3,6.3,6.3c2.6,0,5.5-1.6,6.4-4.1l0.4-1.1l0.3,1c0.9,2.5,3.3,4.2,6,4.2h0.2c3.5,0,6.3-2.8,6.3-6.3V39.4l0.1-0.6
	c1.4,0.9,2.6,1.9,3.7,3.1c6.7,7.7,5.1,20.9,4.7,23.5c-0.5,3.1,1.7,6.1,4.8,6.5c3.1,0.5,6.1-1.7,6.5-4.8
	C93.5,62.3,95.1,45.7,85.4,34.4z"/>
<circle class="st0" cx="59.9" cy="13.2" r="10.7"/>
<line class="st0" x1="60.1" y1="112.3" x2="60.1" y2="73.6"/>
</svg>
