<svg width="70" height="70" viewBox="0 0 70 70" fill="none" xmlns="http://www.w3.org/2000/svg">
<path fill-rule="evenodd" clip-rule="evenodd" d="M10.5 20.4167C10.5 26.86 15.5741 32.0833 21.8333 32.0833C28.0926 32.0833 33.1667 26.86 33.1667 20.4167C33.1667 13.9733 28.0926 8.75 21.8333 8.75C15.5741 8.75 10.5 13.9733 10.5 20.4167ZM27.5 20.4167C27.5 23.6383 24.9629 26.25 21.8333 26.25C18.7037 26.25 16.1667 23.6383 16.1667 20.4167C16.1667 17.195 18.7037 14.5833 21.8333 14.5833C24.9629 14.5833 27.5 17.195 27.5 20.4167ZM38.8333 49.5834C38.8333 56.0267 43.9074 61.2501 50.1666 61.2501C56.4258 61.2501 61.4999 56.0267 61.4999 49.5834C61.4999 43.1401 56.4258 37.9167 50.1666 37.9167C43.9074 37.9167 38.8333 43.1401 38.8333 49.5834ZM55.8333 49.5834C55.8333 52.8051 53.2962 55.4167 50.1666 55.4167C47.037 55.4167 44.4999 52.8051 44.4999 49.5834C44.4999 46.3618 47.037 43.7501 50.1666 43.7501C53.2962 43.7501 55.8333 46.3618 55.8333 49.5834ZM13.8604 53.0449L17.8673 57.1697L57.5362 16.334L53.5293 12.2092L13.8604 53.0449Z" fill="url(#paint0_linear)"/>
<defs>
<linearGradient id="paint0_linear" x1="4.06988" y1="35.1303" x2="37.0556" y2="67.1734" gradientUnits="userSpaceOnUse">
<stop stop-color="#20D0EE"/>
<stop offset="0.981733" stop-color="#15E186"/>
</linearGradient>
</defs>
</svg>
