<?xml version="1.0" encoding="utf-8"?>
<!-- Generator: Adobe Illustrator 19.2.0, SVG Export Plug-In . SVG Version: 6.00 Build 0)  -->
<svg version="1.1" id="Layer_1" xmlns="http://www.w3.org/2000/svg" xmlns:xlink="http://www.w3.org/1999/xlink" x="0px" y="0px"
	 viewBox="0 0 120 120" style="enable-background:new 0 0 120 120;" xml:space="preserve">
<style type="text/css">
	.st0{fill:none;stroke:#020202;stroke-width:5;stroke-linecap:round;stroke-linejoin:round;stroke-miterlimit:10;}
	.st1{fill:#FFFFFF;stroke:#020202;stroke-width:5;stroke-linecap:round;stroke-linejoin:round;stroke-miterlimit:10;}
</style>
<path class="st0" d="M92.9,5H10.5C7.5,5,5,7.5,5,10.5v99c0,3,2.5,5.5,5.5,5.5h99c3,0,5.5-2.5,5.5-5.5V27.1c0-1.2-0.5-2.3-1.3-3.1
	L96,6.3C95.2,5.5,94.1,5,92.9,5z"/>
<path class="st1" d="M96,115V73.4c0-3-2.5-5.5-5.5-5.5h-61c-3,0-5.5,2.5-5.5,5.5V115H96z"/>
<g>
	<path class="st1" d="M89.4,5v41.6c0,3-2.5,5.5-5.5,5.5H29.5c-3,0-5.5-2.5-5.5-5.5V5H89.4z"/>
	<line class="st0" x1="76.1" y1="17.8" x2="76.1" y2="39.3"/>
</g>
</svg>
