<svg width="70" height="70" viewBox="0 0 70 70" fill="none" xmlns="http://www.w3.org/2000/svg">
<path fill-rule="evenodd" clip-rule="evenodd" d="M43.7521 41.0037L58.6667 56.3569L54.8038 60.3333L39.8893 44.9801C36.8255 47.3171 33.046 48.7147 28.94 48.7147C18.7557 48.7147 10.5 40.2162 10.5 29.7324C10.5 19.2485 18.7557 10.75 28.94 10.75C39.1244 10.75 47.38 19.2485 47.38 29.7324C47.38 33.9591 46.0223 37.8498 43.7521 41.0037ZM28.9167 16.5833C21.8746 16.5833 16.1667 22.4592 16.1667 29.7083C16.1667 36.9575 21.8746 42.8333 28.9167 42.8333C35.9587 42.8333 41.6667 36.9575 41.6667 29.7083C41.6667 22.4592 35.9587 16.5833 28.9167 16.5833Z" fill="url(#paint0_linear)"/>
<defs>
<linearGradient id="paint0_linear" x1="4.4271" y1="35.6647" x2="35.5802" y2="65.9277" gradientUnits="userSpaceOnUse">
<stop stop-color="#20D0EE"/>
<stop offset="0.981733" stop-color="#15E186"/>
</linearGradient>
</defs>
</svg>
