<svg width="70" height="70" viewBox="0 0 70 70" fill="none" xmlns="http://www.w3.org/2000/svg">
<path fill-rule="evenodd" clip-rule="evenodd" d="M24.2255 38.5157L18.9112 18.9508H62.936L55.8204 38.5157H24.2255ZM59.2232 41.3565L67.8717 17.5726C68.1068 16.9246 68.0153 16.2007 67.6263 15.6351C67.2373 15.0694 66.6009 14.7296 65.9207 14.7296H17.7651L15.2379 5.42627C14.9904 4.51028 14.1709 3.875 13.2328 3.875H2.07998C0.92975 3.875 0 4.82053 0 5.98556C0 7.15271 0.92975 8.09613 2.07998 8.09613H11.65L23.1772 50.5396C23.4247 51.4556 24.2442 52.0909 25.1823 52.0909H59.6621C60.8102 52.0909 61.742 51.1453 61.742 49.9803C61.742 48.8131 60.8102 47.8697 59.6621 47.8697H26.7651L25.3716 42.7368H57.2701C58.1416 42.7368 58.9195 42.186 59.2232 41.3565ZM30.558 55.4646C27.8706 55.4646 25.6929 57.6744 25.6929 60.4012C25.6929 63.126 27.8706 65.3378 30.558 65.3378C33.2453 65.3378 35.423 63.126 35.423 60.4012C35.423 57.6744 33.2453 55.4646 30.558 55.4646ZM49.419 60.4012C49.419 57.6744 51.5968 55.4646 54.2841 55.4646C56.9714 55.4646 59.1492 57.6744 59.1492 60.4012C59.1492 63.126 56.9714 65.3378 54.2841 65.3378C51.5968 65.3378 49.419 63.126 49.419 60.4012Z" fill="url(#paint0_linear)"/>
<defs>
<linearGradient id="paint0_linear" x1="-8.57351" y1="34.7589" x2="29.8632" y2="77.2837" gradientUnits="userSpaceOnUse">
<stop stop-color="#20D0EE"/>
<stop offset="0.981733" stop-color="#15E186"/>
</linearGradient>
</defs>
</svg>
