<?xml version="1.0" encoding="utf-8"?>
<!-- Generator: Adobe Illustrator 19.2.0, SVG Export Plug-In . SVG Version: 6.00 Build 0)  -->
<svg version="1.1" id="Layer_1" xmlns="http://www.w3.org/2000/svg" xmlns:xlink="http://www.w3.org/1999/xlink" x="0px" y="0px"
	 viewBox="0 0 120 120" style="enable-background:new 0 0 120 120;" xml:space="preserve">
<style type="text/css">
	.st0{fill:none;stroke:#020202;stroke-width:5;stroke-linecap:round;stroke-linejoin:round;stroke-miterlimit:10;}
</style>
<polygon class="st0" points="76.9,117.5 43.1,117.5 49.1,63 70.9,63 "/>
<path class="st0" d="M100.4,30.4H19.6c0,0,0,5.1,0,5.3C19.6,50.8,37.7,63,60,63s40.4-12.2,40.4-27.3
	C100.4,35.5,100.4,30.4,100.4,30.4z"/>
<path class="st0" d="M61.2,29.1V10.4c0-4.4-3.6-7.9-7.9-7.9l0,0c-4.4,0-7.9,3.6-7.9,7.9v4"/>
<line class="st0" x1="50.3" y1="29.1" x2="50.1" y2="24.6"/>
<line class="st0" x1="71.9" y1="29.1" x2="71.7" y2="24.6"/>
</svg>
