<?xml version="1.0" encoding="utf-8"?>
<!-- Generator: Adobe Illustrator 19.2.0, SVG Export Plug-In . SVG Version: 6.00 Build 0)  -->
<svg version="1.1" id="Layer_1" xmlns="http://www.w3.org/2000/svg" xmlns:xlink="http://www.w3.org/1999/xlink" x="0px" y="0px"
	 viewBox="0 0 120 120" style="enable-background:new 0 0 120 120;" xml:space="preserve">
<style type="text/css">
	.st0{fill:#FFF200;stroke:#020202;stroke-width:5;stroke-linecap:round;stroke-linejoin:round;stroke-miterlimit:10;}
	.st1{fill:none;stroke:#020202;stroke-width:5;stroke-linecap:round;stroke-linejoin:round;stroke-miterlimit:10;}
</style>
<g>
	<path class="st0" d="M101.1,66.3V36.5c0-6.5-5.3-11.7-11.7-11.7H30.7c-6.5,0-11.7,5.3-11.7,11.7v29.8H101.1z"/>
	<path class="st0" d="M109.3,41.6c-4.5,0-8.2,3.7-8.2,8.2v16.4H18.9V49.8c0-4.5-3.7-8.2-8.2-8.2s-8.2,3.7-8.2,8.2v26.1
		c0,4.5,3.7,8.2,8.2,8.2h98.6c4.5,0,8.2-3.7,8.2-8.2V49.8C117.5,45.3,113.8,41.6,109.3,41.6z"/>
	<line class="st0" x1="59.9" y1="24.8" x2="59.9" y2="66.3"/>
	<line class="st1" x1="18.9" y1="84.2" x2="18.9" y2="95.2"/>
	<line class="st1" x1="101.1" y1="84.2" x2="101.1" y2="95.2"/>
</g>
</svg>
