<?xml version="1.0" encoding="utf-8"?>
<!-- Generator: Adobe Illustrator 19.2.0, SVG Export Plug-In . SVG Version: 6.00 Build 0)  -->
<svg version="1.1" id="Layer_1" xmlns="http://www.w3.org/2000/svg" xmlns:xlink="http://www.w3.org/1999/xlink" x="0px" y="0px"
	 viewBox="0 0 120 120" style="enable-background:new 0 0 120 120;" xml:space="preserve">
<style type="text/css">
	.st0{fill:none;stroke:#020202;stroke-width:5;stroke-linecap:round;stroke-linejoin:round;stroke-miterlimit:10;}
	.st1{fill:#FFFFFF;stroke:#020202;stroke-width:5;stroke-linecap:round;stroke-linejoin:round;stroke-miterlimit:10;}
	.st2{fill:#020202;}
</style>
<rect x="16.3" y="6.4" class="st0" width="87.4" height="111.1"/>
<line class="st0" x1="16.3" y1="29.8" x2="103.7" y2="29.8"/>
<path class="st1" d="M87.9,95.8H32.1c-1.7,0-3-1.3-3-3V57.5c0-1.6,1.4-3,3-3h55.8c1.7,0,3,1.4,3,3v35.3
	C90.9,94.5,89.5,95.8,87.9,95.8z"/>
<line class="st0" x1="44.2" y1="42.5" x2="75.8" y2="42.5"/>
<circle class="st2" cx="30.2" cy="17.6" r="3.9"/>
<circle class="st2" cx="54.3" cy="17.6" r="3.9"/>
<circle class="st2" cx="66" cy="17.6" r="3.9"/>
<circle class="st2" cx="77.7" cy="17.6" r="3.9"/>
<circle class="st2" cx="89.4" cy="17.6" r="3.9"/>
<line class="st0" x1="26.1" y1="2.5" x2="43.6" y2="2.5"/>
<line class="st0" x1="56.4" y1="2.5" x2="89.6" y2="2.5"/>
</svg>
