<?xml version="1.0" encoding="utf-8"?>
<!-- Generator: Adobe Illustrator 19.2.0, SVG Export Plug-In . SVG Version: 6.00 Build 0)  -->
<svg version="1.1" id="Layer_1" xmlns="http://www.w3.org/2000/svg" xmlns:xlink="http://www.w3.org/1999/xlink" x="0px" y="0px"
	 viewBox="0 0 120 120" style="enable-background:new 0 0 120 120;" xml:space="preserve">
<style type="text/css">
	.st0{fill:#FFF200;stroke:#020202;stroke-width:5;stroke-linecap:round;stroke-linejoin:round;stroke-miterlimit:10;}
	.st1{fill:#FFFFFF;stroke:#020202;stroke-width:5;stroke-linecap:round;stroke-linejoin:round;stroke-miterlimit:10;}
	.st2{fill:none;stroke:#020202;stroke-width:5;stroke-linecap:round;stroke-linejoin:round;stroke-miterlimit:10;}
</style>
<g>
	<g>
		<path class="st0" d="M49.7,68.8V15.5c0-6-4.9-10.9-10.9-10.9h0c-6,0-10.9,4.9-10.9,10.9v53.3c0,2.2-1,4.3-2.7,5.6
			C19.3,78.8,15.6,86,16,94c0.7,11.4,9.9,20.7,21.3,21.4c13.3,0.8,24.3-9.7,24.3-22.8c0-7.5-3.6-14.1-9.1-18.2
			C50.8,73.1,49.7,71,49.7,68.8z"/>
		<circle class="st1" cx="38.8" cy="92.6" r="11.6"/>
		<line class="st0" x1="38.8" y1="79.9" x2="38.8" y2="41.5"/>
	</g>
	<g>
		<line class="st2" x1="76.3" y1="12.1" x2="104" y2="12.1"/>
		<line class="st2" x1="76.3" y1="41.5" x2="104" y2="41.5"/>
		<line class="st2" x1="76.3" y1="70.8" x2="104" y2="70.8"/>
		<line class="st2" x1="76.3" y1="26.8" x2="89.2" y2="26.8"/>
		<line class="st2" x1="76.3" y1="56.2" x2="89.2" y2="56.2"/>
	</g>
</g>
</svg>
