<svg width="98" height="98" viewBox="0 0 98 98" fill="none" xmlns="http://www.w3.org/2000/svg">
<path d="M94.0883 29.9257C88.9216 17.8799 80.1416 9.11928 67.9952 3.93889C61.9243 1.34974 55.5641 0.0272217 48.9195 0.0272217C42.276 0.0272217 35.9626 1.33725 29.8985 3.93889C17.8527 9.10551 9.03378 17.8605 3.85787 29.9257C1.26423 35.9703 0 42.303 0 48.9465C0 55.5913 1.26423 61.9765 3.85787 68.0224C9.03378 80.0876 17.8538 88.8951 29.8985 94.063C35.9638 96.6647 42.2758 97.9734 48.9195 97.9734C55.5631 97.9734 61.9243 96.6509 67.9942 94.063C80.1406 88.8825 88.9206 80.0671 94.0885 68.0224C96.69 61.9571 98 55.5913 98 48.9465C98 42.303 96.6911 35.9908 94.0883 29.9257ZM86.2663 70.5944C82.4198 77.191 77.1502 82.4242 70.5134 86.2935C63.9168 90.14 56.689 92.0798 48.9206 92.0798C43.0806 92.0798 37.5081 90.955 32.2029 88.6506C26.898 86.3473 22.3176 83.3192 18.486 79.4887C14.6544 75.6571 11.6047 71.0321 9.32425 65.718C7.05056 60.4232 5.9487 54.7878 5.9487 48.9467C5.9487 41.1771 7.85761 33.986 11.6825 27.4077C15.521 20.8053 20.7917 15.5665 27.3816 11.7084C33.9703 7.85057 41.1512 5.92099 48.9195 5.92099C56.689 5.92099 63.9155 7.86194 70.5123 11.7084C77.1491 15.5778 82.4073 20.8165 86.2651 27.4075C90.123 33.9973 92.0515 41.1771 92.0515 48.9465C92.0515 56.7162 90.1357 63.9564 86.2663 70.5944Z" fill="url(#paint0_linear)"/>
<path d="M52.0272 48.5177V20.7624C52.0272 19.1015 50.5801 17.7618 48.9191 17.7618C47.3656 17.7618 45.9722 19.1015 45.9722 20.7624V48.9462C45.9722 49 46.0796 49.2149 46.0796 49.375C45.9722 50.3396 46.2409 51.1433 46.8833 51.7869L62.9049 67.8073C63.977 68.8794 65.9591 68.8794 67.0303 67.8073C68.2624 66.5751 68.1814 64.7873 67.0303 63.6281L52.0272 48.5177Z" fill="url(#paint1_linear)"/>
<defs>
<linearGradient id="paint0_linear" x1="49" y1="0.0272217" x2="49" y2="97.9734" gradientUnits="userSpaceOnUse">
<stop stop-color="#FF8F2C"/>
<stop offset="1" stop-color="#FFCD15"/>
</linearGradient>
<linearGradient id="paint1_linear" x1="56.9482" y1="17.7618" x2="56.9482" y2="68.6114" gradientUnits="userSpaceOnUse">
<stop stop-color="#FF8F2C"/>
<stop offset="1" stop-color="#FFCD15"/>
</linearGradient>
</defs>
</svg>
