<?xml version="1.0" encoding="utf-8"?>
<!-- Generator: Adobe Illustrator 19.2.0, SVG Export Plug-In . SVG Version: 6.00 Build 0)  -->
<svg version="1.1" id="Layer_1" xmlns="http://www.w3.org/2000/svg" xmlns:xlink="http://www.w3.org/1999/xlink" x="0px" y="0px"
	 width="120px" height="140px" viewBox="0 0 120 140" style="enable-background:new 0 0 120 140;" xml:space="preserve">
<style type="text/css">
	.st0{fill:#0C071F;}
	.st1{fill:#FF4B8C;}
</style>
<path class="st0" d="M40.9,108.4h-3.5v-1.3h8.5v1.3h-3.5v9h-1.4V108.4z M48.4,110.9c0.2-0.4,0.6-0.8,1.1-1c0.5-0.2,1.1-0.3,1.7-0.3
	v1.4c-0.1,0-0.2,0-0.3,0c-0.8,0-1.4,0.2-1.8,0.7c-0.4,0.4-0.6,1.1-0.6,1.9v3.9H47v-7.7h1.3V110.9z M55.7,109.6
	c1.1,0,1.9,0.3,2.5,0.8c0.6,0.5,0.9,1.3,0.9,2.4v4.7h-1.3v-1c-0.2,0.4-0.6,0.6-1,0.8c-0.4,0.2-0.9,0.3-1.5,0.3
	c-0.9,0-1.6-0.2-2.1-0.6c-0.5-0.4-0.8-1-0.8-1.7c0-0.7,0.2-1.2,0.7-1.6c0.5-0.4,1.3-0.6,2.4-0.6h2.2v-0.3c0-0.6-0.2-1.1-0.5-1.4
	c-0.4-0.3-0.9-0.5-1.5-0.5c-0.5,0-0.9,0.1-1.3,0.2c-0.4,0.1-0.8,0.3-1.1,0.6l-0.6-1.1c0.4-0.3,0.9-0.6,1.4-0.7
	C54.5,109.7,55.1,109.6,55.7,109.6z M55.4,116.4c0.5,0,1-0.1,1.4-0.3c0.4-0.2,0.7-0.6,0.8-1v-1.1h-2.2c-1.2,0-1.8,0.4-1.8,1.2
	c0,0.4,0.2,0.7,0.5,0.9C54.4,116.3,54.9,116.4,55.4,116.4z M69,106.5v10.8h-1.3v-1.2c-0.3,0.4-0.7,0.8-1.2,1s-1,0.3-1.6,0.3
	c-0.7,0-1.4-0.2-2-0.5c-0.6-0.3-1.1-0.8-1.4-1.4c-0.3-0.6-0.5-1.3-0.5-2.1s0.2-1.5,0.5-2.1c0.3-0.6,0.8-1.1,1.4-1.4
	c0.6-0.3,1.3-0.5,2-0.5c0.6,0,1.1,0.1,1.5,0.3c0.5,0.2,0.9,0.5,1.2,0.9v-4.3H69z M65,116.2c0.5,0,0.9-0.1,1.3-0.3
	c0.4-0.2,0.7-0.6,0.9-1c0.2-0.4,0.3-0.9,0.3-1.4c0-0.5-0.1-1-0.3-1.4c-0.2-0.4-0.5-0.7-0.9-1c-0.4-0.2-0.8-0.3-1.3-0.3
	c-0.5,0-0.9,0.1-1.3,0.3c-0.4,0.2-0.7,0.5-0.9,1c-0.2,0.4-0.3,0.9-0.3,1.4c0,0.5,0.1,1,0.3,1.4c0.2,0.4,0.5,0.7,0.9,1
	C64,116.1,64.5,116.2,65,116.2z M78.6,113.6c0,0.1,0,0.2,0,0.4h-6.3c0.1,0.7,0.4,1.2,0.9,1.7c0.5,0.4,1.2,0.6,1.9,0.6
	c0.9,0,1.7-0.3,2.2-0.9l0.8,0.9c-0.4,0.4-0.8,0.7-1.3,0.9c-0.5,0.2-1.1,0.3-1.7,0.3c-0.8,0-1.5-0.2-2.2-0.5
	c-0.6-0.3-1.1-0.8-1.5-1.4c-0.3-0.6-0.5-1.3-0.5-2c0-0.8,0.2-1.4,0.5-2c0.3-0.6,0.8-1.1,1.4-1.4c0.6-0.3,1.3-0.5,2-0.5
	c0.7,0,1.4,0.2,2,0.5c0.6,0.3,1,0.8,1.4,1.4C78.5,112.1,78.6,112.8,78.6,113.6z M74.8,110.7c-0.7,0-1.2,0.2-1.7,0.6
	c-0.4,0.4-0.7,0.9-0.8,1.6h5c-0.1-0.7-0.3-1.2-0.8-1.6C76,111,75.5,110.7,74.8,110.7z M81.9,110.9c0.2-0.4,0.6-0.8,1.1-1
	c0.5-0.2,1.1-0.3,1.7-0.3v1.4c-0.1,0-0.2,0-0.3,0c-0.8,0-1.4,0.2-1.8,0.7c-0.4,0.4-0.6,1.1-0.6,1.9v3.9h-1.4v-7.7h1.3V110.9z"/>
<path class="st1" d="M56.9,33.4c7.9,0,14.2-6.4,14.2-14.2C71.1,11.4,64.7,5,56.9,5C49,5,42.7,11.4,42.7,19.2
	C42.7,27,49,33.4,56.9,33.4z M56.9,6.2c7.2,0,13,5.8,13,13c0,7.2-5.8,13-13,13c-7.2,0-13-5.8-13-13C43.9,12,49.8,6.2,56.9,6.2z"/>
<path class="st1" d="M71.1,56.5l-0.8-0.8l-6.9,6.8l6.9,6.9l0.8-0.8l-5.5-5.5h17v-1.2h-17L71.1,56.5z"/>
<path class="st1" d="M78.4,67.8l5.3,5.3H66.9v1.2h16.9l-5.3,5.5l0.8,0.8l6.9-6.9L79.2,67L78.4,67.8z"/>
<path class="st1" d="M83.1,18.1v1.2h16.4L85.2,37.3L76,30l-8.7,11.4c-3.2-1.7-6.7-2.5-10.3-2.5C46,38.8,37,46.7,35.2,57.2l-4.1-3.3
	L19.2,73.5l1.1,0.6l11.2-18.4l3.6,2.8C35,59.2,35,60.1,35,60.9v11.4h0.6v0.6h19.6c2.3,8.5,9.9,14.8,19.2,14.8
	c10.9,0,19.9-8.9,19.9-19.9c0-10.8-8.6-19.5-19.3-19.8c-1.8-2.4-4-4.5-6.5-6.1l7.9-10.3l9.2,7.3l15-19V37h1.2V18.1H83.1z M92.9,67.9
	c0,10.3-8.4,18.7-18.7,18.7s-18.7-8.4-18.7-18.7S64,49.3,74.3,49.3S92.9,57.6,92.9,67.9z M73.3,48.2c-10.6,0.5-18.9,9.2-18.9,19.8
	c0,1.3,0.1,2.5,0.4,3.9H36.1V61c0-11.5,9.3-20.9,20.9-20.9C63.4,40.2,69.4,43.1,73.3,48.2z M100.3,19.3h0.1v0.1L100.3,19.3z"/>
</svg>
