<?xml version="1.0" encoding="utf-8"?>
<!-- Generator: Adobe Illustrator 19.2.0, SVG Export Plug-In . SVG Version: 6.00 Build 0)  -->
<svg version="1.1" id="Layer_1" xmlns="http://www.w3.org/2000/svg" xmlns:xlink="http://www.w3.org/1999/xlink" x="0px" y="0px"
	 viewBox="0 0 120 120" style="enable-background:new 0 0 120 120;" xml:space="preserve">
<style type="text/css">
	.st0{fill:#020202;}
	.st1{fill:none;}
</style>
<g>
	<path class="st0" d="M47,41.3c-0.5,0-1-0.2-1.4-0.4c-0.5-0.2-0.8-0.5-1.1-1c-0.7-1.1-0.3-2.6,0.8-3.3c0.2-0.1,0.3-0.2,0.5-0.3
		c0.7-0.4,1.6-0.4,2.4,0c0.7,0.4,1.2,1.2,1.2,2v0.5C49.4,40.2,48.4,41.3,47,41.3L47,41.3z"/>
	<path class="st0" d="M54.3,120c-1.2,0-2.2-0.8-2.4-2c-0.2-1.3,0.7-2.5,2-2.8c0.2,0,0.4-0.1,0.6-0.1c1.3-0.4,2.6,0.4,3,1.6
		c0.4,1.3-0.4,2.6-1.6,3c-0.4,0.1-0.8,0.2-1.2,0.3C54.6,119.9,54.5,120,54.3,120z M48.4,117.7c-0.7,0-1.4-0.3-1.9-0.9
		c-0.3-0.3-0.5-0.7-0.7-1.1c-0.7-1.1-0.3-2.6,0.9-3.3c1.1-0.7,2.6-0.3,3.3,0.9c0.1,0.2,0.2,0.3,0.3,0.5c0.8,1,0.7,2.5-0.4,3.4
		C49.4,117.5,48.9,117.7,48.4,117.7z M47,110.3c-1.3,0-2.4-1.1-2.4-2.4v-1c0-1.3,1.1-2.4,2.4-2.4s2.4,1.1,2.4,2.4v1
		C49.4,109.3,48.3,110.3,47,110.3z M47,102.7c-1.3,0-2.4-1.1-2.4-2.4v-1c0-1.3,1.1-2.4,2.4-2.4s2.4,1.1,2.4,2.4v1
		C49.4,101.6,48.3,102.7,47,102.7z M47,95c-1.3,0-2.4-1.1-2.4-2.4v-1c0-1.3,1.1-2.4,2.4-2.4s2.4,1.1,2.4,2.4v1
		C49.4,93.9,48.3,95,47,95z M47,87.3c-1.3,0-2.4-1.1-2.4-2.4v-1c0-1.3,1.1-2.4,2.4-2.4s2.4,1.1,2.4,2.4v1
		C49.4,86.3,48.3,87.3,47,87.3z M47,79.7c-1.3,0-2.4-1.1-2.4-2.4v-1c0-1.3,1.1-2.4,2.4-2.4s2.4,1.1,2.4,2.4v1
		C49.4,78.6,48.3,79.7,47,79.7z M47,72c-1.3,0-2.4-1.1-2.4-2.4v-1c0-1.3,1.1-2.4,2.4-2.4s2.4,1.1,2.4,2.4v1C49.4,70.9,48.3,72,47,72
		z M47,64.3c-1.3,0-2.4-1.1-2.4-2.4v-1c0-1.3,1.1-2.4,2.4-2.4s2.4,1.1,2.4,2.4v1C49.4,63.3,48.3,64.3,47,64.3z M47,56.7
		c-1.3,0-2.4-1.1-2.4-2.4v-1c0-1.3,1.1-2.4,2.4-2.4s2.4,1.1,2.4,2.4v1C49.4,55.6,48.3,56.7,47,56.7z M47,49c-1.3,0-2.4-1.1-2.4-2.4
		v-1c0-1.3,1.1-2.4,2.4-2.4s2.4,1.1,2.4,2.4v1C49.4,47.9,48.3,49,47,49z"/>
	<path class="st0" d="M60.3,115.3c-0.1,0-0.1,0-0.2,0c-0.3,0-0.7,0-1-0.2c-1.2-0.5-1.9-1.9-1.4-3.1l0.2-0.4c0.4-0.9,1.3-1.6,2.3-1.6
		s1.9,0.7,2.2,1.6l0.2,0.5c0.4,1.3-0.2,2.6-1.5,3.1C60.8,115.3,60.5,115.3,60.3,115.3z"/>
	<path class="st0" d="M65.7,120c-0.1,0-0.2,0-0.3,0c-0.4-0.1-0.9-0.1-1.3-0.2c-1.3-0.3-2-1.7-1.7-2.9c0.3-1.3,1.7-2,2.9-1.7
		c0.2,0.1,0.4,0.1,0.6,0.1c1.3,0.2,2.3,1.4,2.1,2.7C68,119.1,66.9,120,65.7,120z M71.6,117.6c-0.5,0-1-0.2-1.5-0.5
		c-1-0.8-1.2-2.3-0.4-3.4c0.1-0.2,0.2-0.3,0.3-0.5c0.6-1.2,2.1-1.6,3.3-0.9c1.2,0.6,1.6,2.1,0.9,3.3c-0.2,0.4-0.5,0.8-0.7,1.1
		C73.1,117.3,72.4,117.6,71.6,117.6z M73,110.3c-1.3,0-2.4-1.1-2.4-2.4v-1c0-1.3,1.1-2.4,2.4-2.4s2.4,1.1,2.4,2.4v1
		C75.4,109.2,74.3,110.3,73,110.3z M73,102.6c-1.3,0-2.4-1.1-2.4-2.4v-1c0-1.3,1.1-2.4,2.4-2.4s2.4,1.1,2.4,2.4v1
		C75.4,101.6,74.3,102.6,73,102.6z M73,95c-1.3,0-2.4-1.1-2.4-2.4v-1c0-1.3,1.1-2.4,2.4-2.4s2.4,1.1,2.4,2.4v1
		C75.4,93.9,74.3,95,73,95z M73,87.4c-1.3,0-2.4-1.1-2.4-2.4v-1c0-1.3,1.1-2.4,2.4-2.4s2.4,1.1,2.4,2.4v1
		C75.4,86.3,74.3,87.4,73,87.4z M73,79.8c-1.3,0-2.4-1.1-2.4-2.4v-1c0-1.3,1.1-2.4,2.4-2.4s2.4,1.1,2.4,2.4v1
		C75.4,78.7,74.3,79.8,73,79.8z M73,72.1c-1.3,0-2.4-1.1-2.4-2.4v-1c0-1.3,1.1-2.4,2.4-2.4s2.4,1.1,2.4,2.4v1
		C75.4,71.1,74.3,72.1,73,72.1z M73,64.5c-1.3,0-2.4-1.1-2.4-2.4v-1c0-1.3,1.1-2.4,2.4-2.4s2.4,1.1,2.4,2.4v1
		C75.4,63.4,74.3,64.5,73,64.5z M73,56.9c-1.3,0-2.4-1.1-2.4-2.4v-1c0-1.3,1.1-2.4,2.4-2.4s2.4,1.1,2.4,2.4v1
		C75.4,55.8,74.3,56.9,73,56.9z M73,49.3c-1.3,0-2.4-1.1-2.4-2.4v-1c0-1.3,1.1-2.4,2.4-2.4s2.4,1.1,2.4,2.4v1
		C75.4,48.2,74.3,49.3,73,49.3z"/>
	<path class="st0" d="M73,41.6c-0.1,0-0.3,0-0.4,0c-1.3-0.2-2.2-1.5-1.9-2.8l0.1-0.5c0.1-0.8,0.7-1.4,1.4-1.8
		c0.7-0.3,1.6-0.3,2.2,0.1c0.2,0.1,0.3,0.2,0.5,0.3c1.1,0.7,1.4,2.2,0.7,3.3c-0.3,0.5-0.8,0.8-1.3,1C73.8,41.5,73.4,41.6,73,41.6z"
		/>
	<path class="st0" d="M86.5,74.4c-0.1,0-0.2,0-0.3,0c-0.1,0-0.2,0-0.3,0c-0.4-0.1-0.7-0.1-1-0.2c-1.3-0.4-2-1.7-1.7-3
		c0.4-1.3,1.7-2,3-1.7c0.1,0,0.3,0.1,0.4,0.1h0.1c1.3,0.1,2.3,1.3,2.1,2.7C88.8,73.5,87.7,74.4,86.5,74.4z M34.5,74.3
		c-1.1,0-2.1-0.8-2.4-1.9c-0.3-1.3,0.6-2.6,1.9-2.8c0.1,0,0.2-0.1,0.3-0.1s0.1,0,0.2-0.1c1.2-0.5,2.6,0.1,3.1,1.4
		c0.5,1.2-0.1,2.6-1.4,3.1C36.1,74,36,74,35.8,74.1c-0.3,0.1-0.5,0.2-0.8,0.2C34.8,74.3,34.7,74.3,34.5,74.3z M28.6,71.9
		c-0.8,0-1.5-0.4-2-1c-0.3-0.4-0.5-0.8-0.7-1.2c-0.6-1.2,0-2.6,1.2-3.2s2.6,0,3.2,1.2c0.1,0.2,0.2,0.3,0.3,0.5
		c0.8,1.1,0.5,2.6-0.6,3.3C29.6,71.8,29.1,71.9,28.6,71.9z M92.2,71.5c-0.4,0-0.8-0.1-1.2-0.3c-1.2-0.7-1.6-2.1-0.9-3.3
		c0.1-0.2,0.2-0.3,0.2-0.5c0.5-1.2,1.8-1.9,3.1-1.4c1.2,0.5,1.9,1.8,1.4,3.1c-0.2,0.4-0.3,0.8-0.6,1.2C93.8,71.1,93,71.5,92.2,71.5z
		 M81.4,69.4c-1.2,0-2.2-0.9-2.4-2.1c0-0.4-0.1-0.7-0.1-1.1c0-0.1,0-0.2,0-0.3c0.1-1.3,1.2-2.3,2.5-2.3c1.3,0.1,2.4,1.2,2.3,2.5v0.1
		c0,0.1,0,0.3,0,0.4c0.2,1.3-0.8,2.5-2.1,2.7C81.6,69.4,81.5,69.4,81.4,69.4z M39.2,68.9L39.2,68.9c-1.4-0.1-2.4-1.2-2.4-2.5v-0.2
		c0-0.1,0-0.3,0-0.4c-0.2-1.3,0.8-2.5,2.1-2.7s2.5,0.8,2.7,2.1c0,0.3,0.1,0.7,0.1,1c0,0.1,0,0.3,0,0.4
		C41.5,67.9,40.4,68.9,39.2,68.9z M26.8,64.6c-1.2,0-2.3-0.9-2.4-2.1c0-0.3-0.1-0.7-0.1-1c-0.1-1.3,0.9-2.5,2.2-2.6
		c1.3-0.1,2.5,0.9,2.6,2.2c0,0.3,0.1,0.6,0.1,0.9c0.1,1.3-0.8,2.5-2.1,2.6C27,64.6,26.9,64.6,26.8,64.6z M93.4,64L93.4,64
		c-1.4-0.1-2.5-1.2-2.4-2.5c0-0.3,0-0.6,0-0.9c0-1.3,1.1-2.4,2.5-2.3c1.3,0,2.4,1.1,2.3,2.5c0,0.3,0,0.7,0,1
		C95.7,63,94.7,64,93.4,64z M81.9,61.8L81.9,61.8c-1.3,0-2.4-1.1-2.4-2.4v-0.3c0-0.2,0-0.4,0-0.6c0-1.3,1-2.4,2.4-2.4l0,0
		c1.3,0,2.4,1.1,2.4,2.4c0,0.2,0,0.5,0,0.7v0.3C84.3,60.7,83.2,61.8,81.9,61.8z M38.1,61.4c-1.3,0-2.3-1-2.4-2.3c0-0.3,0-0.7,0-1
		c0-1.3,1-2.4,2.3-2.5s2.4,1,2.5,2.3c0,0.3,0,0.6,0,0.9C40.6,60.1,39.5,61.3,38.1,61.4C38.2,61.4,38.1,61.4,38.1,61.4z M26.6,56.9
		h-0.1c-1.3-0.1-2.3-1.2-2.3-2.5c0-0.3,0-0.7,0.1-1c0.1-1.3,1.3-2.3,2.6-2.2c1.3,0.1,2.3,1.3,2.2,2.6c0,0.3,0,0.6-0.1,0.9
		C28.9,55.9,27.9,56.9,26.6,56.9z M93.2,56.4c-1.2,0-2.3-0.9-2.4-2.2c0-0.3-0.1-0.6-0.1-0.9c-0.2-1.3,0.8-2.5,2.1-2.7
		c1.3-0.2,2.5,0.8,2.7,2.1c0,0.3,0.1,0.7,0.1,1c0.1,1.3-0.8,2.5-2.2,2.6C93.3,56.3,93.3,56.4,93.2,56.4z M81.2,54.2
		c-1.1,0-2.1-0.8-2.4-1.9c-0.1-0.3-0.1-0.6-0.2-0.9c-0.3-1.3,0.5-2.6,1.8-2.9c1.3-0.3,2.6,0.5,2.9,1.8c0.1,0.3,0.2,0.7,0.2,1
		c0.3,1.3-0.6,2.6-1.9,2.8C81.5,54.1,81.4,54.2,81.2,54.2z M38.5,53.7c-0.1,0-0.3,0-0.4,0c-1.3-0.2-2.2-1.5-1.9-2.8
		c0.1-0.3,0.1-0.7,0.2-1c0.3-1.3,1.6-2.1,2.9-1.8c1.3,0.3,2.1,1.6,1.8,2.9c-0.1,0.3-0.1,0.6-0.2,0.9C40.7,52.9,39.7,53.7,38.5,53.7z
		 M27.7,49.3c-0.2,0-0.4,0-0.6-0.1c-1.3-0.3-2.1-1.6-1.8-2.9c0.1-0.3,0.2-0.7,0.3-1c0.4-1.3,1.7-2,3-1.7c1.3,0.4,2,1.7,1.7,3
		c-0.1,0.3-0.2,0.6-0.2,0.9C29.8,48.6,28.8,49.3,27.7,49.3z M91.8,48.8c-1,0-2-0.7-2.3-1.8c-0.1-0.3-0.2-0.6-0.3-0.9
		c-0.4-1.3,0.3-2.6,1.6-3c1.3-0.4,2.6,0.3,3,1.6c0.1,0.3,0.2,0.6,0.3,1c0.4,1.3-0.4,2.6-1.7,3C92.2,48.8,92,48.8,91.8,48.8z
		 M78.7,47c-0.8,0-1.6-0.4-2.1-1.2c-0.1-0.2-0.3-0.5-0.4-0.7c-0.7-1.1-0.4-2.6,0.7-3.3s2.6-0.4,3.3,0.7c0.2,0.3,0.4,0.6,0.6,0.9
		c0.7,1.2,0.3,2.6-0.9,3.3C79.5,46.9,79.1,47,78.7,47z M41.1,46.5c-0.4,0-0.8-0.1-1.2-0.3c-1.1-0.7-1.5-2.1-0.9-3.3
		c0.2-0.3,0.4-0.6,0.6-0.9c0.7-1.1,2.2-1.4,3.3-0.7s1.4,2.2,0.7,3.3c-0.2,0.2-0.3,0.5-0.4,0.7C42.7,46.1,41.9,46.5,41.1,46.5z
		 M30.3,42.2c-0.4,0-0.7-0.1-1.1-0.3c-1.2-0.6-1.6-2.1-1-3.2c0.2-0.3,0.3-0.6,0.5-0.9c0.6-1.2,2.1-1.6,3.3-0.9
		c1.2,0.6,1.6,2.1,0.9,3.3c-0.1,0.3-0.3,0.5-0.4,0.8C32.1,41.7,31.2,42.2,30.3,42.2z M88.9,41.7c-0.9,0-1.7-0.5-2.1-1.3
		c-0.1-0.3-0.3-0.5-0.4-0.8c-0.7-1.1-0.3-2.6,0.9-3.3c1.1-0.7,2.6-0.3,3.3,0.9c0.2,0.3,0.3,0.6,0.5,0.9c0.6,1.2,0.2,2.6-1,3.3
		C89.7,41.6,89.3,41.7,88.9,41.7z M34.7,35.9c-0.6,0-1.2-0.2-1.6-0.6c-1-0.9-1-2.4-0.1-3.4c0.2-0.3,0.5-0.5,0.7-0.8
		c0.9-0.9,2.5-0.9,3.4,0s0.9,2.5,0,3.4c-0.2,0.2-0.4,0.4-0.6,0.6C36,35.6,35.4,35.9,34.7,35.9z M84.4,35.5c-0.6,0-1.3-0.2-1.7-0.7
		c-0.2-0.2-0.4-0.4-0.6-0.6c-1-0.9-1-2.4-0.1-3.4s2.4-1,3.4-0.1c0.2,0.2,0.5,0.5,0.7,0.7c0.9,1,0.9,2.5-0.1,3.4
		C85.6,35.3,85,35.5,84.4,35.5z M40.7,31.1c-0.8,0-1.6-0.4-2.1-1.2c-0.7-1.1-0.3-2.6,0.8-3.3c0.3-0.2,0.6-0.3,0.9-0.5
		c1.2-0.6,2.6-0.2,3.3,0.9c0.6,1.2,0.2,2.6-0.9,3.3c-0.3,0.1-0.5,0.3-0.8,0.4C41.5,31,41.1,31.1,40.7,31.1z M78.4,30.8
		c-0.4,0-0.8-0.1-1.2-0.3c-0.3-0.1-0.5-0.3-0.8-0.4c-1.2-0.6-1.6-2.1-1-3.2c0.6-1.2,2.1-1.6,3.2-1c0.3,0.2,0.6,0.3,0.9,0.5
		c1.1,0.7,1.5,2.1,0.9,3.3C80.1,30.4,79.3,30.8,78.4,30.8z M47.7,28.1c-1,0-2-0.7-2.3-1.7c-0.4-1.3,0.4-2.6,1.6-3
		c0.3-0.1,0.7-0.2,1-0.3c1.3-0.3,2.6,0.4,2.9,1.7c0.3,1.3-0.4,2.6-1.7,2.9c-0.3,0.1-0.6,0.2-0.9,0.2C48.1,28,47.9,28.1,47.7,28.1z
		 M71.4,27.9c-0.2,0-0.4,0-0.6-0.1c-0.3-0.1-0.6-0.2-0.9-0.2c-1.3-0.3-2.1-1.6-1.7-2.9c0.3-1.3,1.6-2.1,2.9-1.7
		c0.3,0.1,0.7,0.2,1,0.3c1.3,0.4,2,1.7,1.7,3C73.4,27.2,72.4,27.9,71.4,27.9z M55.2,26.7c-1.2,0-2.3-0.9-2.4-2.2
		c-0.1-1.3,0.9-2.5,2.2-2.6c0.3,0,0.7-0.1,1-0.1c1.3-0.1,2.5,0.9,2.6,2.2c0.1,1.3-0.9,2.5-2.2,2.6c-0.3,0-0.6,0-0.9,0.1
		C55.4,26.7,55.3,26.7,55.2,26.7z M63.8,26.6c-0.1,0-0.1,0-0.2,0c-0.3,0-0.6,0-0.9-0.1c-1.3-0.1-2.3-1.2-2.3-2.5
		c0.1-1.3,1.2-2.3,2.5-2.3c0.3,0,0.7,0,1,0.1c1.3,0.1,2.3,1.3,2.2,2.6C66.1,25.7,65.1,26.6,63.8,26.6z"/>
</g>
<path class="st0" d="M62.8,25.9c-1.1,0-2-0.7-2.3-1.8c-0.3-1.3,0.4-2.6,1.7-2.9c0.2-0.1,0.5-0.1,0.7-0.2c1.2-0.5,2.6,0.2,3.1,1.4
	c0.5,1.2-0.2,2.6-1.4,3.1c-0.4,0.1-0.7,0.2-1.1,0.3C63.2,25.8,63,25.9,62.8,25.9z M56.3,25.6c-0.3,0-0.5,0-0.8-0.1
	c-0.4-0.1-0.7-0.3-1.1-0.4c-1.2-0.6-1.7-2-1.2-3.2c0.6-1.2,2-1.7,3.2-1.2c0.2,0.1,0.4,0.2,0.7,0.3c1.2,0.5,1.9,1.8,1.4,3.1
	C58.2,25,57.3,25.6,56.3,25.6z M68.8,21.7c-0.5,0-1-0.1-1.4-0.4c-1.1-0.8-1.3-2.3-0.6-3.3c0.1-0.2,0.3-0.4,0.4-0.6
	c0.7-1.2,2.1-1.5,3.3-0.9c1.1,0.7,1.5,2.1,0.9,3.3c-0.2,0.3-0.4,0.7-0.6,1C70.3,21.3,69.5,21.7,68.8,21.7z M50.7,20.9
	c-0.8,0-1.6-0.4-2.1-1.2c-0.2-0.3-0.4-0.7-0.5-1c-0.6-1.2-0.1-2.6,1.1-3.2c1.2-0.6,2.6-0.1,3.2,1.1c0.1,0.2,0.2,0.4,0.3,0.6
	c0.7,1.1,0.3,2.6-0.9,3.3C51.5,20.8,51.1,20.9,50.7,20.9z M70.6,14.6c-1.2,0-2.3-0.9-2.4-2.2c0-0.2-0.1-0.5-0.1-0.7
	c-0.2-1.3,0.6-2.6,2-2.8c1.3-0.2,2.6,0.6,2.8,2C73,11.2,73,11.6,73,12c0.1,1.3-0.9,2.5-2.2,2.6C70.8,14.6,70.7,14.6,70.6,14.6z
	 M49.4,13.7c-0.1,0-0.3,0-0.4,0c-1.3-0.2-2.2-1.5-2-2.8c0.1-0.4,0.1-0.8,0.2-1.1c0.3-1.3,1.7-2,2.9-1.7c1.3,0.3,2,1.7,1.7,2.9
	c-0.1,0.2-0.1,0.5-0.2,0.7C51.6,12.9,50.6,13.7,49.4,13.7z M67.5,7.9c-0.6,0-1.2-0.2-1.7-0.7c-0.2-0.2-0.4-0.3-0.5-0.5
	c-1-0.9-1.1-2.4-0.3-3.4c0.9-1,2.4-1.1,3.4-0.3c0.3,0.2,0.6,0.5,0.8,0.8c0.9,0.9,0.9,2.5,0,3.4C68.8,7.7,68.2,7.9,67.5,7.9z
	 M53.1,7.3c-0.7,0-1.4-0.3-1.8-0.9c-0.9-1-0.7-2.5,0.3-3.4c0.3-0.2,0.6-0.5,0.9-0.7c1-0.7,2.5-0.4,3.3,0.7s0.5,2.6-0.6,3.3
	c-0.2,0.1-0.4,0.3-0.6,0.4C54.2,7.2,53.6,7.3,53.1,7.3z M60.9,4.8c-0.1,0-0.1,0-0.2,0c-0.2,0-0.5,0-0.7,0c-1.3,0-2.4-1.1-2.4-2.4
	S58.7,0,60,0v2.4V0c0.4,0,0.8,0,1.2,0c1.3,0.1,2.3,1.3,2.2,2.6C63.2,3.9,62.1,4.8,60.9,4.8z"/>
<g>
	<line class="st1" x1="60" y1="112.5" x2="60" y2="73.6"/>
	<path class="st0" d="M60,114.9c-1.3,0-2.4-1.1-2.4-2.4v-1c0-1.3,1.1-2.4,2.4-2.4s2.4,1.1,2.4,2.4v1C62.4,113.8,61.3,114.9,60,114.9
		z M60,107.2c-1.3,0-2.4-1.1-2.4-2.4v-1c0-1.3,1.1-2.4,2.4-2.4s2.4,1.1,2.4,2.4v1C62.4,106.1,61.3,107.2,60,107.2z M60,99.5
		c-1.3,0-2.4-1.1-2.4-2.4v-1c0-1.3,1.1-2.4,2.4-2.4s2.4,1.1,2.4,2.4v1C62.4,98.4,61.3,99.5,60,99.5z M60,91.8
		c-1.3,0-2.4-1.1-2.4-2.4v-1c0-1.3,1.1-2.4,2.4-2.4s2.4,1.1,2.4,2.4v1C62.4,90.7,61.3,91.8,60,91.8z M60,84.1
		c-1.3,0-2.4-1.1-2.4-2.4v-1c0-1.3,1.1-2.4,2.4-2.4s2.4,1.1,2.4,2.4v1C62.4,83,61.3,84.1,60,84.1z M60,76.4c-1.3,0-2.4-1.1-2.4-2.4
		v-0.4c0-1.3,1.1-2.4,2.4-2.4s2.4,1.1,2.4,2.4V74C62.4,75.3,61.3,76.4,60,76.4z"/>
</g>
</svg>
