<?xml version="1.0" encoding="utf-8"?>
<!-- Generator: Adobe Illustrator 19.2.0, SVG Export Plug-In . SVG Version: 6.00 Build 0)  -->
<svg version="1.1" id="Layer_1" xmlns="http://www.w3.org/2000/svg" xmlns:xlink="http://www.w3.org/1999/xlink" x="0px" y="0px"
	 viewBox="0 0 120 120" style="enable-background:new 0 0 120 120;" xml:space="preserve">
<style type="text/css">
	.st0{fill:none;stroke:#020202;stroke-width:5;stroke-linecap:round;stroke-linejoin:round;stroke-miterlimit:10;}
</style>
<circle class="st0" cx="60" cy="13.2" r="10.7"/>
<path class="st0" d="M51.4,24.3h18.7c2.7,0,7.4,2.1,11,6.9L92,44.6c2,2.2,1.9,6.3,0.1,8.7l-8.6,14.2c-1.6,2-4.5,3.5-6.9,1.9L75,68.6
	c-1.8-1.6-1.9-4.8-0.9-7.1l7-11.9l-8-11.1v72.7c0,3.5-2.8,6.3-6.3,6.3h-0.2c-2.7,0-5.1-1.7-6-4.2l-0.3-1l-0.4,1.1
	c-0.9,2.4-3.8,4.1-6.4,4.1l0,0c-3.5,0-6.3-2.8-6.3-6.3V38.5l-8.1,11.1l7,11.9c1.3,2.5,1.6,6.1-1.3,7.5l-1,0.5
	c-3.3,1.5-5.9,0.2-7.4-1.6L28,53.7c-2.2-2.5-1.7-7.6,0.7-10l8.2-11.1C42.3,25.8,45.2,24.3,51.4,24.3z"/>
<line class="st0" x1="60.2" y1="112.3" x2="60.2" y2="73.6"/>
</svg>
