<?xml version="1.0" encoding="utf-8"?>
<!-- Generator: Adobe Illustrator 19.2.0, SVG Export Plug-In . SVG Version: 6.00 Build 0)  -->
<svg version="1.1" id="Layer_1" xmlns="http://www.w3.org/2000/svg" xmlns:xlink="http://www.w3.org/1999/xlink" x="0px" y="0px"
	 viewBox="0 0 120 120" style="enable-background:new 0 0 120 120;" xml:space="preserve">
<style type="text/css">
	.st0{fill:#FFF200;stroke:#020202;stroke-width:5;stroke-linecap:round;stroke-linejoin:round;stroke-miterlimit:10;}
</style>
<g>
	<g>
		<path class="st0" d="M79.3,62.2L79.3,62.2L79.3,62.2c-0.6-1.1-1.1-2.2-1.7-3.2L47.8,4.3c-1.3-2.5-4.9-2.5-6.2,0L11.9,58.8
			c-0.8,1.2-1.5,2.5-2.1,3.8l0,0.1l0,0c-2.8,5.9-4.1,12.5-3.5,19.6C7.8,101,23.2,116.1,42,117.4c22.5,1.5,41.2-16.3,41.2-38.4
			C83.2,73,81.8,67.3,79.3,62.2z"/>
		<path class="st0" d="M44.7,103.4c-4.1,0-8.3-1-12.2-3.3c-11.7-6.7-15.7-21.6-8.9-33.3"/>
	</g>
	<line class="st0" x1="113.8" y1="2.5" x2="68" y2="2.5"/>
	<line class="st0" x1="79" y1="20.1" x2="113.8" y2="20.1"/>
	<line class="st0" x1="89.8" y1="37.7" x2="113.8" y2="37.7"/>
	<line class="st0" x1="100.6" y1="55.3" x2="113.8" y2="55.3"/>
</g>
</svg>
