<?xml version="1.0" encoding="UTF-8"?>
<svg width="22px" height="16px" viewBox="0 0 22 16" version="1.1" xmlns="http://www.w3.org/2000/svg" xmlns:xlink="http://www.w3.org/1999/xlink">
    <!-- Generator: sketchtool 52.3 (67297) - http://www.bohemiancoding.com/sketch -->
    <title>A18EF16E-6866-4529-A23A-91899509040E</title>
    <desc>Created with sketchtool.</desc>
    <g id="Page-1" stroke="none" stroke-width="1" fill="none" fill-rule="evenodd">
        <g id="Contact-1920" transform="translate(-1408.000000, -944.000000)" fill="#9B9B9B">
            <g id="3-Blocks" transform="translate(0.000000, 780.000000)">
                <g id="Address3" transform="translate(1279.000000, 0.000000)">
                    <g id="mail-copy-2" transform="translate(129.000000, 164.000000)">
                        <path d="M0.269387755,1.15918367 C0.112244898,1.47755102 0,1.84489796 0,2.23673469 L0,13.0857143 C0,13.477551 0.0897959184,13.844898 0.246938776,14.1387755 L7.27346939,7.08571429 L0.269387755,1.15918367 Z" id="Path"></path>
                        <path d="M21.7306122,1.15918367 L14.7040816,7.11020408 L21.7306122,14.1632653 C21.8877551,13.844898 21.977551,13.477551 21.977551,13.1102041 L21.977551,2.26122449 C22,1.84489796 21.9102041,1.50204082 21.7306122,1.15918367 Z" id="Path"></path>
                        <path d="M12.2795918,9.19183673 C11.9204082,9.51020408 11.4714286,9.68163265 11,9.68163265 C10.5285714,9.68163265 10.0795918,9.51020408 9.72040816,9.19183673 L8.12653061,7.84489796 L0.987755102,14.9959184 C1.27959184,15.1918367 1.63877551,15.3142857 2.02040816,15.3142857 L19.9795918,15.3142857 C20.3612245,15.3142857 20.6979592,15.1918367 21.0122449,14.9959184 L13.8734694,7.84489796 L12.2795918,9.19183673 Z" id="Path"></path>
                        <path d="M11,8.50612245 C11.2244898,8.50612245 11.4489796,8.43265306 11.6285714,8.26122449 L20.9897959,0.326530612 C20.6979592,0.130612245 20.3612245,0.0326530612 19.9795918,0.0326530612 L2.02040816,0.0326530612 C1.66122449,0.0326530612 1.3244898,0.130612245 1.01020408,0.326530612 L10.3714286,8.26122449 C10.5734694,8.43265306 10.7755102,8.50612245 11,8.50612245 Z" id="Path"></path>
                    </g>
                </g>
            </g>
        </g>
    </g>
</svg>