<?xml version="1.0" encoding="UTF-8"?>
<svg width="22px" height="16px" viewBox="0 0 22 16" version="1.1" xmlns="http://www.w3.org/2000/svg" xmlns:xlink="http://www.w3.org/1999/xlink">
    <!-- Generator: sketchtool 52.3 (67297) - http://www.bohemiancoding.com/sketch -->
    <title>B674A79F-97B3-468F-88A1-F90ACBE8AEA7</title>
    <desc>Created with sketchtool.</desc>
    <g id="Page-1" stroke="none" stroke-width="1" fill="none" fill-rule="evenodd">
        <g id="Main-Page" transform="translate(-181.000000, -3565.000000)" fill="#979797" fill-rule="nonzero">
            <g id="Footer-1920" transform="translate(0.000000, 3392.000000)">
                <path d="M188.77847,181.888027 L182.406465,187.804889 C182.572476,187.927511 182.777772,188 183,188 L201,188 C201.222228,188 201.427524,187.927511 201.593535,187.804889 L195.031301,181.711386 L193.557928,183.191919 C193.531486,183.218226 193.531486,183.218226 193.504527,183.244002 C192.501821,184.193183 190.919503,184.149793 189.970322,183.147087 L188.77847,181.888027 Z M188.09098,181.161769 L182.02939,174.758365 C182.010189,174.835744 182,174.916682 182,175 L182,186.81768 L188.09098,181.161769 Z M202,186.81768 L202,175 C202,174.910957 201.988362,174.824633 201.966525,174.742465 L195.737115,181.002143 L202,186.81768 Z M182.724793,174.038347 L190.696546,182.459629 C191.266055,183.061252 192.215445,183.087287 192.817069,182.517778 C192.833244,182.502312 192.833244,182.502312 192.849109,182.486528 L201.260499,174.034268 C201.177443,174.011919 201.090114,174 201,174 L183,174 C182.90455,174 182.812224,174.013373 182.724793,174.038347 Z M183,173 L201,173 C202.104569,173 203,173.895431 203,175 L203,187 C203,188.104569 202.104569,189 201,189 L183,189 C181.895431,189 181,188.104569 181,187 L181,175 C181,173.895431 181.895431,173 183,173 Z" id="mail"></path>
            </g>
        </g>
    </g>
</svg>