<?xml version="1.0" encoding="UTF-8"?>
<svg width="16px" height="22px" viewBox="0 0 16 22" version="1.1" xmlns="http://www.w3.org/2000/svg" xmlns:xlink="http://www.w3.org/1999/xlink">
    <!-- Generator: sketchtool 52.3 (67297) - http://www.bohemiancoding.com/sketch -->
    <title>4782C6CB-1FC3-4268-B258-113C427DF6F4</title>
    <desc>Created with sketchtool.</desc>
    <g id="Page-1" stroke="none" stroke-width="1" fill="none" fill-rule="evenodd">
        <g id="Contact-1280" transform="translate(-469.000000, -749.000000)" fill="#FFFFFF" fill-rule="nonzero">
            <g id="3-Blocks" transform="translate(0.000000, 697.000000)">
                <g id="Address2" transform="translate(426.000000, 0.000000)">
                    <path d="M51,52 C53.1217323,51.9999987 55.1565643,52.854686 56.6568556,54.37604 C58.1571469,55.8973941 59.0000012,57.9607934 59,60.1123129 C59,65.989568 51.742442,74 51,74 C50.257558,74 43,65.989568 43,60.1123129 C42.9999988,57.9607934 43.8428531,55.8973941 45.3431444,54.37604 C46.8434357,52.854686 48.8782677,51.9999987 51,52 Z M51,64 C53.209139,64 55,62.209139 55,60 C55,57.790861 53.209139,56 51,56 C48.790861,56 47,57.790861 47,60 C47,62.209139 48.790861,64 51,64 Z" id="map_marker1-copy"></path>
                </g>
            </g>
        </g>
    </g>
</svg>