<?xml version="1.0" encoding="UTF-8"?>
<svg width="14px" height="23px" viewBox="0 0 14 23" version="1.1" xmlns="http://www.w3.org/2000/svg" xmlns:xlink="http://www.w3.org/1999/xlink">
    <!-- Generator: sketchtool 52.3 (67297) - http://www.bohemiancoding.com/sketch -->
    <title>44694835-FFDD-4405-ABA6-F51FE9E8E3FE</title>
    <desc>Created with sketchtool.</desc>
    <g id="Page-1" stroke="none" stroke-width="1" fill="none" fill-rule="evenodd">
        <g id="Main-Page" transform="translate(-185.000000, -3522.000000)" fill="#979797" fill-rule="nonzero">
            <g id="Footer-1920" transform="translate(0.000000, 3392.000000)">
                <path d="M187,131 C186.447715,131 186,131.447715 186,132 L186,151 C186,151.552285 186.447715,152 187,152 L197,152 C197.552285,152 198,151.552285 198,151 L198,132 C198,131.447715 197.552285,131 197,131 L187,131 Z M187,130 L197,130 C198.104569,130 199,130.895431 199,132 L199,151 C199,152.104569 198.104569,153 197,153 L187,153 C185.895431,153 185,152.104569 185,151 L185,132 C185,130.895431 185.895431,130 187,130 Z M186,134 L186,133 L198,133 L198,134 L186,134 Z M186,149 L186,148 L198,148 L198,149 L186,149 Z M190.5,151 C190.223858,151 190,150.776142 190,150.5 C190,150.223858 190.223858,150 190.5,150 L193.5,150 C193.776142,150 194,150.223858 194,150.5 C194,150.776142 193.776142,151 193.5,151 L190.5,151 Z" id="phone"></path>
            </g>
        </g>
    </g>
</svg>