<?xml version="1.0" encoding="UTF-8"?>
<svg width="20px" height="12px" viewBox="0 0 20 12" version="1.1" xmlns="http://www.w3.org/2000/svg" xmlns:xlink="http://www.w3.org/1999/xlink">
    <!-- Generator: sketchtool 52.3 (67297) - http://www.bohemiancoding.com/sketch -->
    <title>6DE49602-0DEF-45A9-8255-D4C8883E4A76</title>
    <desc>Created with sketchtool.</desc>
    <g id="Page-1" stroke="none" stroke-width="1" fill="none" fill-rule="evenodd">
        <g id="Main-Page" transform="translate(-1633.000000, -3439.000000)" fill="#FEBB16" fill-rule="nonzero">
            <g id="Footer-1920" transform="translate(0.000000, 3392.000000)">
                <g id="Footer">
                    <g id="Social" transform="translate(1527.000000, 36.000000)">
                        <g id="behance-logo" transform="translate(106.000000, 11.000000)">
                            <path d="M17.338977,1.69815043 L12.5281644,1.69815043 L12.5281644,0.497836565 L17.3393788,0.497836565 L17.3393788,1.69815043 L17.338977,1.69815043 Z M9.32549422,6.62024437 C9.63590955,7.10319471 9.79102794,7.68958637 9.79102794,8.37802937 C9.79102794,9.08996749 9.61613474,9.72864029 9.26032218,10.2927923 C9.03396093,10.6661137 8.75291766,10.9814595 8.41522828,11.2353324 C8.03490924,11.5289317 7.58464186,11.7302545 7.06701515,11.8378209 C6.54773682,11.9455666 5.98569492,12 5.38026451,12 L0,12 L0,0 L5.76951122,0 C7.22378516,0.023764152 8.25479793,0.446990248 8.86362085,1.27815267 C9.2289414,1.78791615 9.40995005,2.39959646 9.40995005,3.11059298 C9.40995005,3.84423271 9.22675411,4.4312521 8.8578625,4.87725591 C8.65265985,5.12731757 8.34952058,5.35478085 7.9482215,5.56009416 C8.55606238,5.7836117 9.01726617,6.13559018 9.32549422,6.62024437 Z M2.75517038,4.73099428 L5.28313138,4.73099428 C5.8026329,4.73099428 6.22259083,4.63181258 6.54604056,4.43353884 C6.8692671,4.23557897 7.03054559,3.88369017 7.03054559,3.37845533 C7.03054559,2.82026679 6.81699556,2.44977021 6.38886881,2.27144939 C6.02086996,2.14756193 5.55002428,2.08375743 4.9786976,2.08375743 L2.75517038,2.08375743 L2.75517038,4.73099428 Z M7.2739587,8.20661361 C7.2739587,7.58327542 7.0203234,7.15233718 6.51407948,6.9211075 C6.23098284,6.78968725 5.83155858,6.7225199 5.31942239,6.71772223 L2.75517038,6.71772223 L2.75517038,9.91565968 L5.27973886,9.91565968 C5.79839226,9.91565968 6.19982525,9.84746105 6.48952837,9.70519 C7.01197602,9.44360498 7.2739587,8.94576841 7.2739587,8.20661361 Z M19.1239321,6.25441094 C19.1820513,6.64701267 19.2083433,7.21663491 19.1976747,7.96117027 L12.9671383,7.96117027 C13.0015098,8.82501962 13.2983997,9.4291223 13.8614683,9.77482345 C14.2010325,9.99161529 14.6127323,10.0974779 15.0948269,10.0974779 C15.6031688,10.0974779 16.0175023,9.96838919 16.3364436,9.70303778 C16.5102208,9.5623809 16.663509,9.36383813 16.7960404,9.1133281 L19.0797401,9.1133281 C19.0199247,9.62353996 18.7449522,10.1410156 18.2508053,10.6668759 C17.4852124,11.5027015 16.4114807,11.9218025 15.0325117,11.9218025 C13.8933401,11.9218025 12.8893782,11.5683444 12.0179477,10.8639839 C11.1494186,10.1571573 10.7132123,9.01082838 10.7132123,7.42064791 C10.7132123,5.92946979 11.1048249,4.78811792 11.8906836,3.99367784 C12.6794439,3.1977581 13.6973776,2.80161417 14.952118,2.80161417 C15.6958381,2.80161417 16.366262,2.9351418 16.9643717,3.20358704 C17.5606066,3.47230131 18.0533697,3.89521354 18.4414559,4.47644883 C18.7926707,4.9883197 19.0185409,5.58018159 19.1239321,6.25441094 Z M16.876077,6.47833203 C16.8342062,5.88099989 16.6356547,5.42889811 16.2781458,5.11991929 C15.9235831,4.81008856 15.4806364,4.65454545 14.952118,4.65454545 C14.3769077,4.65454545 13.9327558,4.82080484 13.6171624,5.14758435 C13.2994264,5.47369129 13.101723,5.91704966 13.0207043,6.47837686 L16.876077,6.47837686 L16.876077,6.47833203 Z" id="Behance"></path>
                        </g>
                    </g>
                </g>
            </g>
        </g>
    </g>
</svg>