<?xml version="1.0" encoding="UTF-8"?>
<svg width="16px" height="22px" viewBox="0 0 16 22" version="1.1" xmlns="http://www.w3.org/2000/svg" xmlns:xlink="http://www.w3.org/1999/xlink">
    <!-- Generator: sketchtool 52.3 (67297) - http://www.bohemiancoding.com/sketch -->
    <title>B22A51BF-7065-4D06-8A29-AE834A93F102</title>
    <desc>Created with sketchtool.</desc>
    <g id="Page-1" stroke="none" stroke-width="1" fill="none" fill-rule="evenodd">
        <g id="Contact-1920" transform="translate(-132.000000, -844.000000)" fill="#9B9B9B" fill-rule="nonzero">
            <path d="M140,844 C142.121732,843.999999 144.156564,844.854686 145.656856,846.37604 C147.157147,847.897394 148.000001,849.960793 148,852.112313 C148,857.989568 140.742442,866 140,866 C139.257558,866 132,857.989568 132,852.112313 C131.999999,849.960793 132.842853,847.897394 134.343144,846.37604 C135.843436,844.854686 137.878268,843.999999 140,844 Z M140,856 C142.209139,856 144,854.209139 144,852 C144,849.790861 142.209139,848 140,848 C137.790861,848 136,849.790861 136,852 C136,854.209139 137.790861,856 140,856 Z" id="map_marker1"></path>
        </g>
    </g>
</svg>