<?xml version="1.0" encoding="UTF-8"?>
<svg width="16px" height="22px" viewBox="0 0 16 22" version="1.1" xmlns="http://www.w3.org/2000/svg" xmlns:xlink="http://www.w3.org/1999/xlink">
    <!-- Generator: sketchtool 52.3 (67297) - http://www.bohemiancoding.com/sketch -->
    <title>38C4870F-E6E0-4205-890A-570342247F85</title>
    <desc>Created with sketchtool.</desc>
    <g id="Page-1" stroke="none" stroke-width="1" fill="none" fill-rule="evenodd">
        <g id="Contact-1920" transform="translate(-1411.000000, -844.000000)" fill="#9B9B9B" fill-rule="nonzero">
            <path d="M1419,844 C1421.12173,843.999999 1423.15656,844.854686 1424.65686,846.37604 C1426.15715,847.897394 1427,849.960793 1427,852.112313 C1427,857.989568 1419.74244,866 1419,866 C1418.25756,866 1411,857.989568 1411,852.112313 C1411,849.960793 1411.84285,847.897394 1413.34314,846.37604 C1414.84344,844.854686 1416.87827,843.999999 1419,844 Z M1419,856 C1421.20914,856 1423,854.209139 1423,852 C1423,849.790861 1421.20914,848 1419,848 C1416.79086,848 1415,849.790861 1415,852 C1415,854.209139 1416.79086,856 1419,856 Z" id="map_marker1-copy-2"></path>
        </g>
    </g>
</svg>