<?xml version="1.0" encoding="UTF-8"?>
<svg width="207px" height="58px" viewBox="0 0 207 58" version="1.1" xmlns="http://www.w3.org/2000/svg" xmlns:xlink="http://www.w3.org/1999/xlink">
    <!-- Generator: sketchtool 52.3 (67297) - http://www.bohemiancoding.com/sketch -->
    <title>912F14C1-9726-496E-A9EC-B161007A7D90</title>
    <desc>Created with sketchtool.</desc>
    <g id="Page-1" stroke="none" stroke-width="1" fill="none" fill-rule="evenodd">
        <g id="Main-Page" transform="translate(-437.000000, -3136.000000)">
            <g id="Logos" transform="translate(100.000000, 2986.000000)">
                <g id="leggup-logo" transform="translate(336.000000, 150.000000)">
                    <path d="M165.6432,43.1803331 C165.6432,47.2118794 162.438903,50.4940282 158.499137,50.4940282 C154.561097,50.4940282 151.3568,47.2118794 151.3568,43.1803331 L151.3568,24 L145,24 L145,43.1803331 C145,50.8015639 151.056397,57 158.499137,57 C165.943603,57 172,50.8015639 172,43.1803331 L172,24 L165.6432,24 L165.6432,43.1803331 Z" id="Fill-1" fill="#50B748"></path>
                    <path d="M196.53659,42.0158667 L187.298803,42.0158667 L187.298803,31.4450593 L196.53659,31.4450593 C199.384908,31.4450593 201.702908,33.8151327 201.702908,36.7295878 C201.702908,39.6440429 199.384908,42.0158667 196.53659,42.0158667 M196.53659,25 L181,25 L181,25.2835686 L181,48.460926 L181,56 L187.298803,56 L187.298803,48.460926 L196.53659,48.460926 C202.857632,48.460926 208,43.1974026 208,36.7295878 C208,30.261773 202.857632,25 196.53659,25" id="Fill-3" fill="#50B748"></path>
                    <path d="M116.906906,23.3556126 L127.558582,23.3556126 C126.534251,25.9233974 124.682904,28.0804748 122.29966,29.4661812 C119.087686,31.329896 114.044955,30.8277284 110.398883,29.7353845 C108.085987,29.0416684 104.537716,27.5472453 101.106119,26.1011406 C97.3519522,24.5204344 93.805397,23.0277369 91.1716465,22.2391094 C88.120957,21.3245086 80.3706958,19.5729618 74.3087801,23.0950377 C70.0055578,25.593796 66.9274156,29.6283935 65.6422826,34.4550697 C64.3554338,39.2817459 65.0160162,44.3224041 67.5004922,48.6503641 C70.8102673,54.417526 76.9957204,58 83.6392917,58 C86.8838664,58 90.0906935,57.1354434 92.9097502,55.4977903 C98.1343563,52.4640768 101.581395,47.0420472 102.133882,40.9918768 L102.449589,37.5250221 L84.359927,37.5250221 L84.359927,43.878909 L95.013319,43.878909 C93.9907032,46.4518709 92.1359252,48.6106738 89.7509654,49.9963803 C83.8846508,53.3993855 76.3574434,51.3717328 72.9704574,45.4734206 C71.3301542,42.6157246 70.8943414,39.2851972 71.7436616,36.0978997 C72.5929818,32.912328 74.624487,30.2479061 77.4675649,28.5964477 C80.6812553,26.7327329 85.7222709,27.2349005 89.3683424,28.3272444 C91.6743754,29.0192348 95.2226464,30.513658 98.6919907,31.9735679 C102.432431,33.5490972 105.968692,35.0366177 108.593863,35.8235195 C111.646268,36.7381203 119.394814,38.4879414 125.456729,34.9675912 C130.67962,31.9356034 134.128374,26.5152995 134.682577,20.470306 L135,17 L116.906906,17.0017257 L116.906906,23.3556126 Z" id="Fill-5" fill="#626366"></path>
                    <polygon id="Fill-7" fill="#626366" points="7.36717529 24.6073065 0.999481176 24.6073065 0.999481176 55.3102167 21.3010459 55.3102167 21.3010459 48.9282972 7.36717529 48.9282972"></polygon>
                    <polygon id="Fill-10" fill="#626366" points="32 56 54 56 54 49.5545768 38.459134 49.5545768 38.459134 43.7218364 54 43.7218364 54 37.2764131 38.459134 37.2764131 38.459134 31.4436727 54 31.4436727 54 25 32 25"></polygon>
                    <path d="M104.317302,18.6473837 C104.317302,11.8582292 109.826497,6.33333333 116.600182,6.33333333 C119.88065,6.33333333 122.965525,7.61479269 125.285186,9.94034039 L125.533966,10.1897519 L130,5.71066449 L129.75122,5.46125294 C126.237414,1.94024986 121.567208,0 116.600182,0 C106.343574,0 98,8.36474742 98,18.6473837 L98,19 L104.317302,19 L104.317302,18.6473837 Z" id="Fill-12" fill="#626366"></path>
                </g>
            </g>
        </g>
    </g>
</svg>