<?xml version="1.0" encoding="UTF-8"?>
<svg width="16px" height="22px" viewBox="0 0 16 22" version="1.1" xmlns="http://www.w3.org/2000/svg" xmlns:xlink="http://www.w3.org/1999/xlink">
    <!-- Generator: sketchtool 52.3 (67297) - http://www.bohemiancoding.com/sketch -->
    <title>A2594244-3547-487F-ADC3-D88F02B4F7B0</title>
    <desc>Created with sketchtool.</desc>
    <g id="Page-1" stroke="none" stroke-width="1" fill="none" fill-rule="evenodd">
        <g id="Contact-1920" transform="translate(-771.000000, -844.000000)" fill="#FFFFFF" fill-rule="nonzero">
            <path d="M779,844 C781.121732,843.999999 783.156564,844.854686 784.656856,846.37604 C786.157147,847.897394 787.000001,849.960793 787,852.112313 C787,857.989568 779.742442,866 779,866 C778.257558,866 771,857.989568 771,852.112313 C770.999999,849.960793 771.842853,847.897394 773.343144,846.37604 C774.843436,844.854686 776.878268,843.999999 779,844 Z M779,856 C781.209139,856 783,854.209139 783,852 C783,849.790861 781.209139,848 779,848 C776.790861,848 775,849.790861 775,852 C775,854.209139 776.790861,856 779,856 Z" id="map_marker1-copy"></path>
        </g>
    </g>
</svg>