<?xml version="1.0" encoding="UTF-8"?>
<svg width="206px" height="67px" viewBox="0 0 206 67" version="1.1" xmlns="http://www.w3.org/2000/svg" xmlns:xlink="http://www.w3.org/1999/xlink">
    <!-- Generator: sketchtool 52.3 (67297) - http://www.bohemiancoding.com/sketch -->
    <title>746D6248-1747-4DEC-BF09-5AF48BD528C1</title>
    <desc>Created with sketchtool.</desc>
    <g id="Page-1" stroke="none" stroke-width="1" fill="none" fill-rule="evenodd">
        <g id="Main-Page" transform="translate(-720.000000, -3136.000000)">
            <g id="Logos" transform="translate(100.000000, 2986.000000)">
                <g id="domain_logo" transform="translate(620.000000, 150.000000)">
                    <path d="M205.642361,33.8065359 C205.642361,52.1111111 190.442708,67 171.756076,66.9124183 C153.069444,66.9124183 137.869792,52.0235294 137.959201,33.7189542 C137.959201,15.4143791 153.158854,0.525490196 171.934896,0.613071895 C190.532118,0.525490196 205.642361,15.4143791 205.642361,33.8065359" id="Path" fill="#FFC72B"></path>
                    <path d="M146.631944,45.1921569 C144.75434,45.1921569 143.413194,43.7908497 143.413194,41.8640523 C143.413194,39.9372549 144.75434,38.5359477 146.721354,38.5359477 C148.688368,38.5359477 150.029514,39.8496732 150.029514,41.8640523 C149.940104,43.7908497 148.688368,45.1921569 146.631944,45.1921569 Z" id="Path" fill="#FFFFFF"></path>
                    <path d="M154.321181,14.7137255 L159.596354,14.7137255 L159.596354,26.9751634 L159.685764,26.9751634 C161.02691,24.9607843 163.262153,23.6470588 166.391493,23.6470588 C171.487847,23.6470588 175.153646,27.8509804 175.153646,34.069281 C175.153646,41.4261438 170.325521,45.1045752 165.586806,45.1045752 C162.904514,45.1045752 160.490451,44.0535948 158.970486,41.5137255 L158.881076,41.5137255 L158.612847,44.579085 L154.052951,44.579085 C154.142361,43.1777778 154.231771,40.9006536 154.231771,38.7986928 L154.321181,14.7137255 Z M159.596354,36.2588235 C159.596354,36.696732 159.596354,37.1346405 159.685764,37.4849673 C160.222222,39.5869281 162.099826,41.1633987 164.424479,41.1633987 C167.732639,41.1633987 169.789063,38.5359477 169.789063,34.4196078 C169.789063,30.8287582 168.000868,27.8509804 164.513889,27.8509804 C162.368056,27.8509804 160.401042,29.3398693 159.775174,31.6169935 C159.685764,31.9673203 159.596354,32.4928105 159.596354,32.930719 L159.596354,36.2588235 Z" id="Shape" fill="#FFFFFF"></path>
                    <path d="M182.485243,24.172549 L186.240451,35.2078431 C186.6875,36.4339869 187.134549,38.0104575 187.402778,39.2366013 L187.492187,39.2366013 C187.849826,38.0980392 188.207465,36.5215686 188.654514,35.2078431 L191.962674,24.2601307 L197.684896,24.2601307 L192.409722,38.2732026 C189.548611,45.9803922 187.581597,49.3960784 185.078125,51.4980392 C183.021701,53.3372549 180.875868,53.9503268 179.534722,54.1254902 L178.372396,49.7464052 C179.266493,49.5712418 180.428819,49.0457516 181.501736,48.345098 C182.485243,47.7320261 183.647569,46.5058824 184.362847,45.1045752 C184.541667,44.7542484 184.720486,44.4039216 184.720486,44.1411765 C184.720486,43.9660131 184.720486,43.6156863 184.452257,43.0901961 L176.763021,24.172549 L182.485243,24.172549 Z" id="Path" fill="#FFFFFF"></path>
                    <path d="M132.147569,31.9673203 C132.147569,30.4784314 131.96875,29.2522876 131.611111,28.2013072 C131.253472,27.1503268 130.806424,26.2745098 130.180556,25.5738562 C129.554687,24.8732026 128.83941,24.3477124 127.945312,23.9973856 C127.140625,23.6470588 126.157118,23.4718954 125.173611,23.4718954 C124.368924,23.4718954 123.653646,23.5594771 123.027778,23.7346405 C122.40191,23.9098039 121.776042,24.172549 121.239583,24.5228758 C120.703125,24.8732026 120.256076,25.2235294 119.898437,25.5738562 C119.540799,25.924183 119.18316,26.3620915 119.00434,26.7124183 L118.914931,26.7124183 L118.646701,23.8222222 L113.729167,23.8222222 C113.729167,24.6980392 113.818576,25.7490196 113.818576,26.7124183 C113.818576,27.7633987 113.818576,28.9019608 113.818576,30.0405229 L113.818576,44.6666667 L119.540799,44.6666667 L119.540799,32.3176471 C119.540799,31.5294118 119.630208,30.8287582 119.898437,30.303268 C120.166667,29.7777778 120.434896,29.3398693 120.792535,28.9895425 C121.150174,28.6392157 121.597222,28.3764706 121.954861,28.2013072 C122.40191,28.0261438 122.759549,27.9385621 123.206597,27.9385621 C124.011285,27.9385621 124.637153,28.1137255 125.084201,28.551634 C125.53125,28.9895425 125.888889,29.5150327 126.157118,30.2156863 C126.335937,30.9163399 126.514757,31.7045752 126.425347,32.5803922 L126.425347,44.7542484 L132.147569,44.7542484 L132.147569,31.9673203 Z M108.722222,23.9098039 L103,23.9098039 L103,44.8418301 L108.722222,44.8418301 L108.722222,23.9098039 Z M108.901042,18.1294118 C108.901042,17.5163399 108.722222,16.9908497 108.543403,16.5529412 C108.275174,16.1150327 107.917535,15.7647059 107.470486,15.5019608 C107.023438,15.2392157 106.486979,15.151634 105.861111,15.151634 C105.235243,15.151634 104.698785,15.3267974 104.251736,15.5019608 C103.804688,15.7647059 103.447049,16.1150327 103.178819,16.5529412 C102.91059,16.9908497 102.821181,17.5163399 102.821181,18.1294118 C102.821181,18.7424837 103,19.1803922 103.178819,19.6183007 C103.447049,20.0562092 103.804688,20.4065359 104.251736,20.669281 C104.698785,20.9320261 105.235243,21.0196078 105.861111,21.1071895 C106.486979,21.1071895 107.023438,21.0196078 107.470486,20.7568627 C107.917535,20.4941176 108.275174,20.1437908 108.543403,19.7058824 C108.811632,19.2679739 108.901042,18.7424837 108.901042,18.1294118 Z M92.4496528,37.6601307 C92.4496528,38.3607843 92.3602431,38.8862745 92.0920139,39.324183 C91.8237847,39.7620915 91.5555556,40.2 91.1979167,40.4627451 C90.8402778,40.7254902 90.3932292,40.9882353 90.0355903,41.075817 C89.5885417,41.1633987 89.2309028,41.2509804 88.8732639,41.2509804 C88.4262153,41.2509804 87.9791667,41.1633987 87.5321181,40.9882353 C87.0850694,40.8130719 86.8168403,40.4627451 86.5486111,40.0248366 C86.2803819,39.5869281 86.1909722,39.0614379 86.1909722,38.3607843 C86.1909722,37.572549 86.3697917,36.9594771 86.7274306,36.5215686 C87.0850694,35.9960784 87.5321181,35.6457516 88.1579861,35.3830065 C88.7838542,35.1202614 89.4097222,34.945098 90.125,34.7699346 C90.8402778,34.6823529 91.6449653,34.5947712 92.3602431,34.5947712 L92.3602431,37.6601307 L92.4496528,37.6601307 Z M97.9930556,32.1424837 C97.9930556,31.0039216 97.9036458,29.8653595 97.6354167,28.8143791 C97.3671875,27.7633987 96.9201389,26.8 96.2942708,26.0117647 C95.6684028,25.2235294 94.7743056,24.5228758 93.7013889,24.0849673 C92.6284722,23.6470588 91.1979167,23.3843137 89.5885417,23.3843137 C88.515625,23.3843137 87.4427083,23.4718954 86.4592014,23.6470588 C85.4756944,23.8222222 84.6710069,24.0849673 83.9557292,24.3477124 C83.2404514,24.6104575 82.6145833,24.8732026 82.1675347,25.1359477 L83.2404514,28.7267974 C83.9557292,28.2888889 84.7604167,27.9385621 85.6545139,27.675817 C86.5486111,27.4130719 87.5321181,27.2379085 88.515625,27.2379085 C89.4991319,27.2379085 90.3038194,27.4130719 90.9296875,27.7633987 C91.4661458,28.1137255 91.9131944,28.551634 92.0920139,29.0771242 C92.2708333,29.6026144 92.4496528,30.2156863 92.3602431,30.9163399 C90.6614583,30.9163399 89.0520833,31.0915033 87.7109375,31.3542484 C86.2803819,31.7045752 85.0286458,32.1424837 84.0451389,32.8431373 C82.9722222,33.4562092 82.1675347,34.3320261 81.6310764,35.2954248 C81.0946181,36.2588235 80.7369792,37.4849673 80.7369792,38.7986928 C80.7369792,39.6745098 80.9157986,40.4627451 81.1840278,41.1633987 C81.4522569,41.951634 81.8993056,42.5647059 82.4357639,43.1777778 C82.9722222,43.7908497 83.6875,44.2287582 84.4921875,44.579085 C85.296875,44.9294118 86.1909722,45.1045752 87.1744792,45.1045752 C87.9791667,45.1045752 88.6944444,45.0169935 89.4097222,44.7542484 C90.125,44.579085 90.7508681,44.2287582 91.3767361,43.8784314 C92.0026042,43.5281046 92.4496528,43.0026144 92.8967014,42.4771242 L92.9861111,42.4771242 L93.34375,44.6666667 L98.4401042,44.6666667 C98.3506944,44.2287582 98.2612847,43.7908497 98.2612847,43.1777778 C98.171875,42.6522876 98.171875,42.0392157 98.171875,41.5137255 C98.171875,40.9006536 98.171875,40.2875817 98.171875,39.6745098 L98.171875,32.1424837 L97.9930556,32.1424837 Z M76.9817708,32.1424837 C76.9817708,30.6535948 76.8029514,29.3398693 76.4453125,28.2013072 C76.0876736,27.0627451 75.640625,26.1869281 75.0147569,25.4862745 C74.3888889,24.7856209 73.7630208,24.2601307 72.9583333,23.9098039 C72.1536458,23.5594771 71.2595486,23.3843137 70.3654514,23.3843137 C69.5607639,23.3843137 68.8454861,23.4718954 68.0407986,23.7346405 C67.3255208,23.9973856 66.6102431,24.3477124 65.8949653,24.8732026 C65.1796875,25.3986928 64.5538194,26.0993464 64.0173611,26.8875817 L63.9279514,26.8875817 C63.6597222,26.1869281 63.2126736,25.5738562 62.6762153,25.048366 C62.1397569,24.5228758 61.5138889,24.0849673 60.7986111,23.8222222 C60.0833333,23.5594771 59.2786458,23.3843137 58.3845486,23.3843137 C57.5798611,23.3843137 56.8645833,23.4718954 56.2387153,23.6470588 C55.6128472,23.8222222 54.9869792,24.0849673 54.5399306,24.4352941 C54.0034722,24.7856209 53.6458333,25.1359477 53.2881944,25.4862745 C52.9305556,25.8366013 52.5729167,26.2745098 52.3940972,26.6248366 L52.3046875,26.6248366 L52.0364583,23.8222222 L47.2083333,23.8222222 C47.2083333,24.6980392 47.2977431,25.7490196 47.2977431,26.7124183 C47.2977431,27.7633987 47.3871528,28.9019608 47.3871528,30.0405229 L47.3871528,44.6666667 L52.9305556,44.6666667 L52.9305556,32.2300654 C52.9305556,31.5294118 53.0199653,30.9163399 53.2881944,30.3908497 C53.4670139,29.8653595 53.7352431,29.427451 54.0928819,29.0771242 C54.4505208,28.7267974 54.8081597,28.4640523 55.1657986,28.2888889 C55.5234375,28.1137255 55.9704861,28.0261438 56.328125,28.0261438 C57.0434028,28.0261438 57.6692708,28.2013072 58.1163194,28.6392157 C58.5633681,29.0771242 58.9210069,29.6026144 59.0998264,30.2156863 C59.2786458,30.9163399 59.3680556,31.6169935 59.3680556,32.4928105 L59.3680556,44.8418301 L64.9114583,44.8418301 L64.9114583,32.1424837 C64.9114583,31.4418301 65.0008681,30.7411765 65.1796875,30.2156863 C65.3585069,29.6901961 65.6267361,29.2522876 65.984375,28.9019608 C66.3420139,28.551634 66.6996528,28.2888889 67.0572917,28.2013072 C67.4149306,28.0261438 67.8619792,27.9385621 68.2196181,27.9385621 C68.9348958,27.9385621 69.5607639,28.1137255 70.0078125,28.551634 C70.4548611,28.9895425 70.8125,29.5150327 70.9913194,30.303268 C71.1701389,31.0915033 71.2595486,31.9673203 71.2595486,32.930719 L71.2595486,44.7542484 L76.8029514,44.7542484 L76.8029514,32.1424837 L76.9817708,32.1424837 Z M37.5520833,34.2444444 C37.5520833,35.2078431 37.4626736,36.0836601 37.2838542,36.8718954 C37.1050347,37.6601307 36.8368056,38.448366 36.4791667,39.0614379 C36.1215278,39.6745098 35.6744792,40.2 35.1380208,40.5503268 C34.6015625,40.9006536 34.0651042,41.075817 33.3498264,41.075817 C32.6345486,41.075817 32.0086806,40.9006536 31.5616319,40.5503268 C31.0251736,40.2 30.578125,39.6745098 30.2204861,39.0614379 C29.8628472,38.448366 29.5946181,37.7477124 29.4157986,36.8718954 C29.2369792,36.0836601 29.1475694,35.2078431 29.1475694,34.2444444 C29.1475694,33.6313725 29.2369792,32.930719 29.3263889,32.3176471 C29.4157986,31.7045752 29.5946181,31.0915033 29.7734375,30.4784314 C29.9522569,29.8653595 30.2204861,29.3398693 30.578125,28.9019608 C30.9357639,28.4640523 31.2934028,28.1137255 31.8298611,27.8509804 C32.2769097,27.5882353 32.8133681,27.4130719 33.4392361,27.4130719 C34.1545139,27.4130719 34.7803819,27.5882353 35.3168403,28.0261438 C35.8532986,28.3764706 36.3003472,28.9019608 36.5685764,29.6026144 C36.9262153,30.2156863 37.1050347,31.0039216 37.2838542,31.7921569 C37.4626736,32.6679739 37.5520833,33.4562092 37.5520833,34.2444444 Z M33.6180556,23.3843137 C32.1875,23.3843137 30.8463542,23.6470588 29.5946181,24.0849673 C28.3428819,24.6104575 27.2699653,25.3111111 26.3758681,26.1869281 C25.4817708,27.1503268 24.7664931,28.2888889 24.2300347,29.6026144 C23.6935764,31.0039216 23.4253472,32.4928105 23.4253472,34.3320261 C23.4253472,35.9960784 23.6935764,37.572549 24.140625,38.8862745 C24.5876736,40.2 25.3029514,41.3385621 26.1970486,42.3019608 C27.0911458,43.2653595 28.1640625,43.9660131 29.3263889,44.4039216 C30.578125,44.9294118 31.8298611,45.1045752 33.2604167,45.1045752 C34.2439236,45.1045752 35.1380208,45.0169935 36.1215278,44.7542484 C37.1050347,44.4915033 37.9991319,44.0535948 38.8038194,43.5281046 C39.6979167,43.0026144 40.4131944,42.3019608 41.0390625,41.4261438 C41.6649306,40.5503268 42.2013889,39.4993464 42.5590278,38.2732026 C42.9166667,37.0470588 43.0954861,35.6457516 43.1848958,34.069281 C43.1848958,32.4928105 42.9166667,31.0039216 42.4696181,29.6901961 C42.0225694,28.3764706 41.3967014,27.2379085 40.5026042,26.2745098 C39.6085069,25.3111111 38.625,24.6104575 37.4626736,24.0849673 C36.3897569,23.7346405 35.0486111,23.3843137 33.6180556,23.3843137 Z M13.8585069,36.2588235 C13.8585069,37.0470588 13.7690972,37.7477124 13.5008681,38.3607843 C13.2326389,38.9738562 12.9644097,39.4117647 12.6067708,39.7620915 C12.2491319,40.1124183 11.8020833,40.3751634 11.3550347,40.5503268 C10.9079861,40.7254902 10.4609375,40.8130719 10.0138889,40.8130719 C9.11979167,40.8130719 8.31510417,40.5503268 7.68923611,40.0248366 C7.06336806,39.4117647 6.61631944,38.7111111 6.25868056,37.7477124 C5.90104167,36.7843137 5.72222222,35.7333333 5.72222222,34.4196078 C5.72222222,33.5437908 5.81163194,32.6679739 5.99045139,31.8797386 C6.16927083,31.0915033 6.4375,30.3908497 6.79513889,29.7777778 C7.15277778,29.1647059 7.59982639,28.7267974 8.13628472,28.3764706 C8.67274306,28.0261438 9.29861111,27.8509804 10.0138889,27.8509804 C10.4609375,27.8509804 10.9079861,27.9385621 11.3550347,28.1137255 C11.8020833,28.2888889 12.1597222,28.551634 12.5173611,28.9895425 C12.875,29.3398693 13.1432292,29.8653595 13.4114583,30.3908497 C13.5902778,31.0039216 13.7690972,31.6169935 13.7690972,32.4052288 L13.7690972,36.2588235 L13.8585069,36.2588235 Z M19.4913194,14.6261438 L13.7690972,14.6261438 L13.7690972,25.924183 L13.6796875,25.924183 C13.4114583,25.3986928 13.0538194,25.048366 12.5173611,24.6104575 C12.0703125,24.2601307 11.4444444,23.9973856 10.8185764,23.7346405 C10.1032986,23.5594771 9.38802083,23.3843137 8.58333333,23.3843137 C7.42100694,23.3843137 6.34809028,23.6470588 5.27517361,24.0849673 C4.29166667,24.6980392 3.39756944,25.3986928 2.59288194,26.2745098 C1.78819444,27.2379085 1.16232639,28.3764706 0.715277778,29.7777778 C0.268229167,31.179085 0,32.7555556 0,34.5071895 C0,36.0836601 0.178819444,37.572549 0.625868056,38.8862745 C1.07291667,40.2 1.609375,41.3385621 2.32465278,42.3019608 C3.03993056,43.2653595 3.93402778,43.9660131 4.91753472,44.4915033 C5.90104167,45.0169935 7.06336806,45.2797386 8.22569444,45.2797386 C9.11979167,45.2797386 9.92447917,45.1045752 10.7291667,44.8418301 C11.5338542,44.579085 12.1597222,44.1411765 12.7855903,43.703268 C13.4114583,43.1777778 13.8585069,42.5647059 14.3055556,41.8640523 L14.3949653,41.8640523 L14.6631944,44.8418301 L19.6701389,44.8418301 C19.6701389,44.3163399 19.5807292,43.703268 19.5807292,43.0901961 C19.5807292,42.3895425 19.5807292,41.7764706 19.4913194,40.9882353 C19.4913194,40.2875817 19.4913194,39.5869281 19.4913194,38.8862745 L19.4913194,14.6261438 Z" id="Shape" fill="#231F20" fill-rule="nonzero"></path>
                </g>
            </g>
        </g>
    </g>
</svg>