<?xml version="1.0" encoding="UTF-8"?>
<svg width="115px" height="84px" viewBox="0 0 115 84" version="1.1" xmlns="http://www.w3.org/2000/svg" xmlns:xlink="http://www.w3.org/1999/xlink">
    <!-- Generator: sketchtool 52.3 (67297) - http://www.bohemiancoding.com/sketch -->
    <title>733080D7-0089-4BC1-AF5C-598FA28298B1</title>
    <desc>Created with sketchtool.</desc>
    <defs>
        <polygon id="path-1" points="0.528154681 0.781546811 9.49701493 0.781546811 9.49701493 9.75004071 0.528154681 9.75004071"></polygon>
        <polygon id="path-3" points="0 0.807653731 114.758027 0.807653731 114.758027 84 0 84"></polygon>
    </defs>
    <g id="Page-1" stroke="none" stroke-width="1" fill="none" fill-rule="evenodd">
        <g id="Main-Page" transform="translate(-226.000000, -3123.000000)">
            <g id="Logos" transform="translate(100.000000, 2986.000000)">
                <g id="Logic-way-logo" transform="translate(126.000000, 137.000000)">
                    <path d="M31.4572991,37 L20.4139672,37 C15.5094657,37 14,33.9895524 14,30.4806863 L14,11.6828333 C14,11.1096521 14.2322255,11 14.6941523,11 L16.7816576,11 C17.3596971,11 17.5161969,11.1096521 17.5161969,11.6828333 L17.5161969,30.7099588 C17.5161969,32.8083006 18.5965503,33.8375347 20.7219184,33.8375347 L31.4572991,33.8375347 C31.9217501,33.8375347 32,34.031918 32,34.4480974 L32,36.3545481 C32,36.8130931 31.9217501,37 31.4572991,37" id="Fill-1" fill="#00ADEE"></path>
                    <path d="M43.0579507,20.8006692 C39.1651736,20.8006692 37.3535834,24.2939771 37.3535834,28.4021272 C37.3535834,33.0096797 38.6637738,36.1968212 42.9420493,36.1968212 C47.3009518,36.1968212 48.6086226,32.397347 48.6086226,28.5175669 C48.6086226,24.522347 47.5705487,20.8006692 43.0579507,20.8006692 M42.9017357,39 C37.0839866,39 34,35.4314054 34,28.5175669 C34,21.7618308 37.8549832,18 43.0176372,18 C48.8807391,18 52,21.9124044 52,28.4021272 C52,35.2758126 48.800112,39 42.9017357,39" id="Fill-3" fill="#00ADEE"></path>
                    <path d="M64.8379085,19.8295525 C61.1176471,19.8295525 58.5581699,22.051701 58.5581699,27.4808424 C58.5581699,32.5250446 60.7568627,35.0146508 64.4405229,35.0146508 C65.4392157,35.0146508 67.4366013,34.8596753 69.4784314,34.2472722 L69.4784314,20.4819493 C67.9202614,19.984528 66.0797386,19.8295525 64.8379085,19.8295525 M72.5189542,18.2598008 C72.8405229,18.3772822 73,18.6447399 73,18.9871857 L73,35.8945117 C73,42.7384292 69.5202614,45.0705604 62.8771242,45.9879153 C62.4405229,46.027909 62.3202614,45.9879153 62.1973856,45.5679817 L61.9202614,43.4633146 C61.9202614,43.1983565 62.0797386,43.0058869 62.3620915,42.9683929 C66.9189542,42.3559897 69.3973856,41.096189 69.3973856,37.3092879 L69.3973856,37.0793243 C67.6797386,37.5792452 65.4810458,37.9166918 64.0379085,37.9166918 C57.7607843,37.9166918 55,33.6723631 55,27.7058068 C55,21.476792 58.0013072,17 64.7202614,17 C67.2797386,17 70.1215686,17.3074514 72.5189542,18.2598008" id="Fill-5" fill="#00ADEE"></path>
                    <path d="M82.2637115,38 L79.7843727,38 C79.2734786,38 79,37.9252895 79,37.4297099 L79,18.5702901 C79,18.0747105 79.2734786,18 79.7843727,18 L82.2637115,18 C82.8166792,18 83,18.0747105 83,18.5702901 L83,37.4297099 C83,37.9252895 82.8166792,38 82.2637115,38" id="Fill-7" fill="#00ADEE"></path>
                    <path d="M101.400734,35.0047801 C101.848398,34.7362572 101.999241,34.9269837 102.147652,35.2005258 L102.887271,36.814173 C103.074609,37.1554732 103.038114,37.4214866 102.704799,37.6172323 C100.807092,38.6963432 98.4592871,39 96.4107364,39 C90.9414464,39 88,35.5041826 88,28.7082935 C88,22.1432839 91.3501834,18 96.8219063,18 C98.7950353,18 100.617321,18.3814532 102.293629,19.3401052 C102.629377,19.5308317 102.704799,19.7993547 102.517461,20.1481836 L101.734049,21.7241874 C101.585638,22.0303537 101.473722,22.2235899 101.030924,21.9525574 C99.8363414,21.3753585 98.4592871,20.9939054 96.8584007,20.9939054 C92.8780811,20.9939054 91.2358343,24.6428059 91.2358343,28.7082935 C91.2358343,32.8189532 92.4669112,36.1215344 96.894895,36.1215344 C98.5687702,36.1215344 100.322933,35.5844885 101.400734,35.0047801" id="Fill-9" fill="#00ADEE"></path>
                    <path d="M39.1856043,54.5718016 L35.6679229,69.3707572 C35.4002458,70.3720627 35.0138816,71 33.9734762,71 L32.3093326,71 C31.228523,71 30.6098353,70.7793734 30.339633,69.6277508 L25.0441714,45.4776203 C24.9280096,45.1454681 25.0441714,45 25.3547779,45 L28.0972057,45 C28.4835699,45 28.7158934,45.1454681 28.7562975,45.4436777 L31.8068066,60.9481537 L32.925495,66.9559866 L33.1578185,66.9559866 L34.5088304,60.9481537 L37.8345924,46.6340918 C38.0265119,45.7394629 38.4507549,45 39.8800497,45 L41.3876274,45 C42.587124,45 42.9734881,45.6303618 43.2436905,46.6340918 L46.4911696,60.8002611 L47.8396562,66.9559866 L48.0341009,66.9559866 L49.2714763,60.7638941 L52.3194601,45.4436777 C52.3977431,45.1454681 52.6300666,45 52.9810772,45 L55.6452221,45 C55.9558286,45 56.0719904,45.1454681 55.9558286,45.4776203 L50.6224882,69.6277508 C50.3522858,70.7793734 49.7310729,71 48.6502634,71 L46.9911702,71 C45.9482396,71 45.5593502,70.4060052 45.291673,69.3707572 L41.8118704,54.5305856 L40.5770203,48.8597538 L40.4608585,48.8597538 L39.1856043,54.5718016 Z" id="Fill-11" fill="#00ADEE"></path>
                    <path d="M66.3359291,62.6731183 C64.5426783,62.6731183 61.2517942,62.9415771 61.2517942,66.6272401 C61.2517942,69.4297491 63.3431058,70.2376344 65.9987784,70.2376344 C66.8612002,70.2376344 69.0990991,70.1197133 70.670026,69.5050179 L70.670026,62.6731183 L66.3359291,62.6731183 Z M73.435639,71.6953405 C71.195297,72.7340502 68.4272408,73 66.0403115,73 C59.6075737,73 58,70.0043011 58,66.6272401 C58,63.0946237 60.1670484,59.7978495 66.1502519,59.7978495 L70.7091159,59.7978495 L70.7091159,58.9498208 C70.7091159,56.5311828 70.0006108,54.9204301 66.2626355,54.9204301 C64.5035883,54.9204301 62.2998931,55.2666667 61.066117,55.6856631 C60.6556726,55.8412186 60.4309055,55.8412186 60.3185219,55.4197133 L59.8714308,53.7688172 C59.7566041,53.5003584 59.7932509,53.2695341 60.2085815,53.1114695 C62.1117728,52.3136201 64.7650023,52 66.8196671,52 C71.7914185,52 74,54.3458781 74,58.683871 L74,70.6942652 C74,71.1935484 73.8143228,71.5397849 73.435639,71.6953405 Z" id="Fill-13" fill="#00ADEE"></path>
                    <path d="M85.7388764,81.9247958 C85.1446121,83.550268 84.1717237,82.8912928 83.4044458,82.7399726 C82.6371679,82.583771 82.3613491,82.4202475 82.9831952,80.5555918 C83.6351307,78.6055134 86.0096803,71.7180022 86.1225153,71.4202431 L85.5809074,71.4129211 C84.8512411,71.4129211 84.3547672,71.4129211 83.9310091,70.1120553 L78.0234707,52.4124697 C77.9457399,52.1513202 78.0610823,52 78.3694979,52 L80.9421357,52 C81.2054173,52 81.3984905,52.1122698 81.4762213,52.3758599 C81.7821295,53.3472382 84.4324979,61.4501924 84.7760178,62.41913 L86.7318242,68.9942381 L86.9600017,68.9942381 C87.2684173,68.2059085 89.0712696,62.4923495 89.1866121,62.2678098 C89.3420736,61.9700506 91.8720848,54.467496 92.6393627,52.3758599 C92.714586,52.1122698 92.9051518,52 93.1784632,52 L95.6307436,52 C95.9366518,52 96.0545017,52.1513202 95.9767709,52.4124697 C95.9767709,52.4124697 86.3607225,80.2090197 85.7388764,81.9247958" id="Fill-15" fill="#00ADEE"></path>
                    <g id="Group-19" transform="translate(75.000000, 0.000000)">
                        <mask id="mask-2" fill="white">
                            <use xlink:href="#path-1"></use>
                        </mask>
                        <g id="Clip-18"></g>
                        <path d="M0.650881954,5.5638806 C0.48724559,5.40024423 0.48724559,5.13158752 0.650881954,4.96795115 L4.71492537,0.911234735 C4.8761194,0.737829037 5.14966079,0.737829037 5.31329715,0.911234735 L9.3724559,4.96795115 C9.5385346,5.13158752 9.5385346,5.40024423 9.3724559,5.5638806 L5.31329715,9.62548168 C5.14966079,9.79156038 4.8761194,9.79156038 4.71492537,9.62548168 L0.650881954,5.5638806 Z" id="Fill-17" fill="#656666" mask="url(#mask-2)"></path>
                    </g>
                    <g id="Logic-Way-logo">
                        <mask id="mask-4" fill="white">
                            <use xlink:href="#path-3"></use>
                        </mask>
                        <g id="Clip-21"></g>
                        <path d="M108.634183,0.807653731 L92.4831088,0.807653731 C92.123917,0.807653731 92.0385147,1.01577313 92.2922097,1.26902687 L94.9070258,3.8742806 C95.1632326,4.12753433 95.6655988,4.33314627 96.0222788,4.33314627 L96.7858755,4.33314627 L108.634183,4.33314627 C110.060903,4.33314627 111.221369,5.49410149 111.221369,6.92084776 L111.221369,77.8820418 C111.221369,79.3087881 110.060903,80.4722507 108.634183,80.4722507 L6.12384419,80.4722507 C4.69712414,80.4722507 3.53414634,79.3087881 3.53414634,77.8820418 L3.53414634,6.92084776 C3.53414634,5.49410149 4.69712414,4.33314627 6.12384419,4.33314627 L63.5493265,4.33314627 L65.0639607,4.33314627 C65.4281762,4.33314627 65.9280306,4.12753433 66.1842373,3.8742806 L68.8166363,1.26902687 C69.0753549,1.01326567 68.9899527,0.807653731 68.6307608,0.807653731 L6.12384419,0.807653731 C2.74543138,0.807653731 0,3.54831045 0,6.92084776 L0,77.8820418 C0,81.2570866 2.74543138,84.0002507 6.12384419,84.0002507 L108.634183,84.0002507 C112.010084,84.0002507 114.758027,81.2570866 114.758027,77.8820418 L114.758027,6.92084776 C114.758027,3.54831045 112.010084,0.807653731 108.634183,0.807653731" id="Fill-20" fill="#00ADEE" mask="url(#mask-4)"></path>
                    </g>
                </g>
            </g>
        </g>
    </g>
</svg>