<?xml version="1.0" encoding="UTF-8"?>
<svg width="16px" height="16px" viewBox="0 0 16 16" version="1.1" xmlns="http://www.w3.org/2000/svg" xmlns:xlink="http://www.w3.org/1999/xlink">
    <!-- Generator: sketchtool 52.3 (67297) - http://www.bohemiancoding.com/sketch -->
    <title>603C6523-2C71-4F79-A205-E50570B5EC42</title>
    <desc>Created with sketchtool.</desc>
    <g id="Page-1" stroke="none" stroke-width="1" fill="none" fill-rule="evenodd">
        <g id="Main-Page" transform="translate(-1683.000000, -3437.000000)" fill="#FEBB16" fill-rule="nonzero">
            <g id="Footer-1920" transform="translate(0.000000, 3392.000000)">
                <g id="Footer">
                    <g id="Social" transform="translate(1527.000000, 36.000000)">
                        <g id="dribbble-logo" transform="translate(156.000000, 9.000000)">
                            <path d="M14.9273668,3.98429312 C14.2119617,2.75868234 13.2415605,1.78828551 12.0159076,1.07292023 C10.7900358,0.35759143 9.45182564,0 8.0002554,0 C6.5488311,0 5.21021955,0.35759143 3.98456669,1.07292023 C2.75884086,1.78817606 1.78843961,2.75857288 1.07303458,3.98429312 C0.35759306,5.21008633 0,6.54869178 0,8 C0,9.45138119 0.357702517,10.7897677 1.07292512,12.0156339 C1.78829367,13.2412447 2.75869492,14.2116415 3.98442075,14.9270798 C5.21021955,15.6423721 6.54872164,16 8.00010946,16 C9.45149727,16 10.7901453,15.6423721 12.0158711,14.9270798 C13.241524,14.2118969 14.2118888,13.2412447 14.9272208,12.0156339 C15.6424434,10.7898772 16,9.45130822 16,8 C16.0000365,6.54854584 15.6424434,5.20990391 14.9273668,3.98429312 Z M8.00014594,1.16668719 C9.72229165,1.16668719 11.225817,1.73611168 12.5105032,2.87492418 L12.380287,3.05709477 C12.3282223,3.13013814 12.1980061,3.27060616 11.9897476,3.47904609 C11.7814527,3.68730361 11.5540029,3.88534526 11.3075078,4.07280621 C11.0607937,4.26034013 10.7259311,4.47385151 10.3021535,4.71344981 C9.87852198,4.95304811 9.42716153,5.16323934 8.94792626,5.3437681 C8.14937108,3.87140792 7.29528518,2.54502502 6.38552261,1.36454642 C6.93422601,1.23261594 7.47238514,1.16668719 8.00014594,1.16668719 Z M2.6460646,3.76016455 C3.3126887,2.92005637 4.12507183,2.27412242 5.08350588,1.82280051 C5.94459697,2.96861817 6.79175066,4.28120967 7.62514936,5.76031961 C5.51403318,6.31587973 3.40992219,6.59367803 1.31267046,6.5935686 C1.53501227,5.54502045 1.9794405,4.60045515 2.6460646,3.76016455 Z M1.62505815,10.463736 C1.31945673,9.68251492 1.16669251,8.86119662 1.16669251,8 C1.16669251,7.90273046 1.17026808,7.82979655 1.17712732,7.78123475 C3.69115139,7.78123475 6.028039,7.45841371 8.18775369,6.81244328 C8.41002253,7.24296862 8.59405471,7.62839825 8.73988671,7.96876867 C8.7117565,7.98263305 8.66695247,7.99817574 8.60441655,8.01557918 C8.54169821,8.03294613 8.49667527,8.04498625 8.46865451,8.05202789 L8.08333257,8.18742446 C7.81932447,8.284694 7.4737351,8.45139487 7.04681984,8.68738114 C6.61979513,8.92373225 6.16668339,9.20481422 5.68748461,9.53128378 C5.20828583,9.85778982 4.71347131,10.2900664 4.20311403,10.828442 C3.69268377,11.3665987 3.26387128,11.9445607 2.91664006,12.5625835 C2.36107741,11.9445607 1.93058659,11.2447382 1.62505815,10.463736 Z M8.00014594,14.8334223 C6.37508779,14.8334223 4.92369998,14.3125231 3.64587305,13.2709436 L3.80213987,13.3855801 C4.04516888,12.8507071 4.40276194,12.3367766 4.87510147,11.8438251 C5.34736804,11.3508736 5.80219459,10.953112 6.2396906,10.6509415 C6.67718661,10.349063 7.15284631,10.064369 7.66681565,9.79667711 C8.18067553,9.529496 8.53119043,9.3591831 8.71887114,9.28650458 C8.90640592,9.21360715 9.05574052,9.15617945 9.16683845,9.11444039 L9.18756214,9.10396913 L9.20854122,9.10396913 C9.88888382,10.8886791 10.3752337,12.617968 10.6667883,14.2915806 C9.8056607,14.652857 8.9169137,14.8333128 8.00014594,14.8334223 Z M13.7504583,11.6927399 C13.2365255,12.4879713 12.5940182,13.1460913 11.8234108,13.6667351 C11.5384601,12.069559 11.0942508,10.4408963 10.4899072,8.78129404 C11.8718634,8.56577597 13.2919833,8.66665755 14.7503398,9.08317257 C14.5975026,10.0276284 14.2641358,10.8976545 13.7504583,11.6927399 Z M14.7293607,7.90626953 C14.659929,7.89247812 14.5730209,7.87671651 14.4688917,7.85945902 C14.3647624,7.84220152 14.2379028,7.82125901 14.0885682,7.79695987 C13.9394525,7.77266073 13.772532,7.75014936 13.5886458,7.72927983 C13.4045771,7.70844678 13.2084318,7.68940151 12.9999179,7.67203455 C12.7916594,7.65459463 12.5693906,7.64083971 12.3334033,7.63033197 C12.0970146,7.61997017 11.8575611,7.6147163 11.6144592,7.6147163 C11.3716126,7.6147163 11.1161785,7.62175795 10.8489597,7.63554935 C10.5816679,7.6492313 10.3230597,7.67382233 10.0730984,7.70848326 C10.0521193,7.67371287 10.0261418,7.61639462 9.99491029,7.53649204 C9.9637153,7.45669891 9.94094844,7.3958416 9.92748534,7.3541755 C9.79537183,7.06251283 9.64253464,6.73261366 9.46875485,6.36466044 C9.94795363,6.17008487 10.4046774,5.9462117 10.8389627,5.69267605 C11.2728467,5.43914041 11.6198225,5.21358891 11.880401,5.0156932 C12.14087,4.81757857 12.3873651,4.6074968 12.6199593,4.38533842 C12.8526995,4.16314356 13.00353,4.00870172 13.073217,3.92186695 C13.1427581,3.83488623 13.2086872,3.74987572 13.2711136,3.66665298 L13.2815849,3.65614525 C14.2954402,4.89226377 14.8130216,6.31580676 14.8335994,7.92706609 L14.7293607,7.90626953 Z" id="dribble-icon"></path>
                        </g>
                    </g>
                </g>
            </g>
        </g>
    </g>
</svg>