<?xml version="1.0" encoding="UTF-8"?>
<svg width="16px" height="16px" viewBox="0 0 16 16" version="1.1" xmlns="http://www.w3.org/2000/svg" xmlns:xlink="http://www.w3.org/1999/xlink">
    <!-- Generator: sketchtool 52.3 (67297) - http://www.bohemiancoding.com/sketch -->
    <title>A526BFA6-B90A-46CC-9EEA-115299C3E3C3</title>
    <desc>Created with sketchtool.</desc>
    <g id="Page-1" stroke="none" stroke-width="1" fill="none" fill-rule="evenodd">
        <g id="Team" transform="translate(-1126.000000, -3286.000000)" fill="#FEBB16">
            <g id="Screen-4" transform="translate(0.000000, 2694.000000)">
                <g id="social" transform="translate(1117.000000, 583.000000)">
                    <g id="insta" transform="translate(9.000000, 9.000000)">
                        <path d="M13.0689196,3.6969372 C13.0676375,4.22386028 12.6471247,4.641809 12.1189196,4.641809 C11.5907144,4.641809 11.1740478,4.22642438 11.1702016,3.6969372 C11.1663554,3.16360387 11.5932785,2.73924489 12.129176,2.74309105 C12.6535349,2.74565515 13.0702016,3.17001413 13.0689196,3.6969372 M7.88045801,10.5251423 C6.45097083,10.5225782 5.28686827,9.34052695 5.28686827,7.89309105 C5.28815032,6.4469372 6.46122724,5.28027054 7.91891955,5.28027054 C9.3650734,5.28155259 10.5317401,6.45591156 10.5317401,7.91232182 C10.530458,9.36616797 9.35353494,10.5277064 7.88045801,10.5251423 M7.90866314,3.84821925 C5.6676375,3.8469372 3.85353494,5.66232182 3.85481699,7.90719361 C3.85481699,10.1405269 5.6650734,11.9533475 7.89968878,11.9571936 C10.1432785,11.9623218 11.9625093,10.1495013 11.9637913,7.90719361 C11.9650734,5.66232182 10.1522529,3.84950131 7.90866314,3.84821925 M14.230458,11.8687321 C14.0189196,13.2495013 13.1022529,14.1046295 11.7137913,14.2571936 C10.4381503,14.3969372 4.74071442,14.4738603 3.55866314,14.141809 C2.42661186,13.8264244 1.77917596,13.0482193 1.59071442,11.9084757 C1.41122724,10.8212962 1.3676375,5.38283464 1.58815032,3.92898848 C1.79712468,2.55847566 2.71379135,1.70462951 4.09456058,1.54950131 C5.49584263,1.39309105 10.5368683,1.37514233 11.879176,1.58155259 C13.2573811,1.79309105 14.1112272,2.71103977 14.2625093,4.10206541 C14.404817,5.40078336 14.4445606,10.4738603 14.230458,11.8687321 M15.6868683,3.96616797 C15.579176,2.92514233 15.180458,2.00462951 14.4073811,1.26616797 C13.5945606,0.490526946 12.5984067,0.146937202 11.5073811,0.0892448948 C9.64968878,-0.0120371565 5.23558622,-0.0761397206 3.68558622,0.176424382 C1.9150734,0.46488592 0.754816988,1.49950131 0.265073398,3.24821925 C-0.111849679,4.59309105 -0.0374907046,10.7956552 0.183022116,12.1251423 C0.483022116,13.9443731 1.55738109,15.1097577 3.35994519,15.5751423 C4.60738109,15.8969372 10.7381503,15.8546295 12.1137913,15.6328346 C13.9330221,15.3379628 15.104817,14.2687321 15.5778939,12.4700141 C15.9394324,11.0892449 15.8125093,5.21232182 15.6868683,3.96616797" id="Fill-1"></path>
                    </g>
                </g>
            </g>
        </g>
    </g>
</svg>